<svg xmlns="http://www.w3.org/2000/svg" width="84" height="30" fill="none">
  <g clip-path="url(#a)">
    <path fill="#24292E" d="M34.59 22.523h-.038c.017 0 .028.018.045.02h.011l-.019-.018zm.007.02c-.174.002-.61.094-1.072.094-1.456 0-1.96-.672-1.96-1.55v-5.844h2.968c.168 0 .299-.15.299-.355v-3.173c0-.168-.15-.318-.299-.318h-2.968V7.46c0-.15-.093-.243-.261-.243h-4.032c-.168 0-.261.093-.261.243v4.05s-2.035.504-2.166.523a.32.32 0 0 0-.242.317v2.539c0 .205.149.355.317.355h2.072v6.122c0 4.555 3.173 5.022 5.339 5.022.989 0 2.184-.318 2.37-.411.112-.037.168-.168.168-.299v-2.8a.33.33 0 0 0-.272-.336zm44.232-4.108c0-3.38-1.362-3.827-2.8-3.678a4.85 4.85 0 0 0-2.016.635v6.57s.915.635 2.278.673c1.922.056 2.538-.635 2.538-4.2m4.536-.3c0 6.404-2.072 8.233-5.693 8.233-3.061 0-4.704-1.55-4.704-1.55s-.075.86-.168.971c-.056.112-.15.15-.261.15h-2.763c-.187 0-.355-.15-.355-.318l.038-20.738c0-.168.149-.318.317-.318h3.976c.168 0 .317.15.317.318v7.037s1.531-.99 3.771-.99l-.019-.037c2.24 0 5.544.84 5.544 7.243Zm-16.277-6.738h-3.92c-.205 0-.317.15-.317.355v10.155s-1.027.728-2.427.728-1.81-.635-1.81-2.035v-8.867a.327.327 0 0 0-.318-.317h-3.995a.327.327 0 0 0-.317.317v9.539c0 4.107 2.296 5.133 5.45 5.133 2.595 0 4.705-1.437 4.705-1.437s.093.728.149.84c.037.093.168.168.299.168h2.501c.205 0 .317-.15.317-.317l.038-13.944c0-.168-.15-.318-.355-.318m-44.24-.018h-3.976c-.168 0-.317.168-.317.373v13.701c0 .374.242.504.56.504h3.584c.373 0 .466-.168.466-.504V11.696a.327.327 0 0 0-.317-.317m-1.96-6.31a2.557 2.557 0 0 0-2.576 2.576 2.56 2.56 0 0 0 2.576 2.576c1.4 0 2.539-1.138 2.539-2.576 0-1.437-1.139-2.576-2.539-2.576m30.781-.466h-3.938a.327.327 0 0 0-.318.317v7.635h-6.178V4.92a.327.327 0 0 0-.318-.317h-3.976a.327.327 0 0 0-.317.317v20.739c0 .168.168.317.317.317h3.976c.168 0 .318-.15.318-.317v-8.867h6.178l-.037 8.867c0 .168.15.317.317.317h3.976c.168 0 .318-.15.318-.317V4.919a.327.327 0 0 0-.318-.316m-35.224 9.184V24.5c0 .075-.018.206-.112.243 0 0-2.333 1.661-6.178 1.661C5.507 26.405 0 24.95 0 15.355S4.816 3.78 9.52 3.8c4.07 0 5.712.915 5.973 1.083.075.093.112.168.112.26l-.784 3.324c0 .168-.168.373-.373.317-.672-.205-1.68-.616-4.05-.616-2.745 0-5.694.784-5.694 6.963 0 6.178 2.8 6.906 4.816 6.906 1.717 0 2.333-.205 2.333-.205v-4.293H9.11c-.205 0-.354-.15-.354-.318v-3.434c0-.168.149-.318.354-.318h6.982c.205 0 .354.15.354.318Z"/>
  </g>
  <defs>
    <clipPath id="a">
      <path fill="#fff" d="M0 0h84v30H0z"/>
    </clipPath>
  </defs>
</svg>
