<svg xmlns="http://www.w3.org/2000/svg" width="140" height="34" fill="none">
  <g fill="#fff" clip-path="url(#a)">
    <path d="M43.616 19.576q0 6.008-4.168 6.008a4.6 4.6 0 0 1-1.261-.174v-1.112q.682.232 1.285.232 1.597 0 2.304-1.209t.706-3.769V8.693h1.134zm3.449 5.129v-1.309q1.783 1.134 3.612 1.135 1.944 0 2.952-.805 1.007-.806 1.007-2.251 0-1.276-.678-2.032-.676-.758-2.935-2.067-2.523-1.468-3.195-2.46-.67-.99-.671-2.286 0-1.759 1.366-2.988 1.366-1.226 3.647-1.227a9.3 9.3 0 0 1 2.963.498v1.204a7.5 7.5 0 0 0-3.113-.66q-1.69 0-2.681.858-.99.857-.99 2.177 0 1.273.677 2.026.678.751 2.923 2.048 2.327 1.322 3.097 2.345.77 1.026.77 2.356 0 1.91-1.325 3.114-1.326 1.204-3.746 1.204-.858-.001-1.973-.266-1.117-.267-1.707-.614m12.039.59V8.693h5.881q8.843 0 8.844 8.093 0 3.878-2.413 6.194-2.415 2.315-6.431 2.315zm3.74-13.556v10.522h1.852q2.431 0 3.814-1.458 1.383-1.46 1.383-3.97 0-2.374-1.372-3.734t-3.85-1.36zm23.997 13.556h-9.957V8.693h9.574v3.046h-5.834v3.693h5.43v3.032h-5.43v3.796h6.217zm13.052 0h-9.887V8.693h3.74v13.568h6.147zm6.096-16.602v16.602h-3.74V8.693zm17.845 0-5.719 16.602h-4.236l-5.651-16.602h4.029l3.462 11.553q.278.938.336 1.657h.068a9.4 9.4 0 0 1 .36-1.702l3.439-11.508zM140 25.295h-4.295l-2.581-4.273a17 17 0 0 0-.555-.868 5 5 0 0 0-.539-.654 2.1 2.1 0 0 0-.567-.416c-.2-.097-.42-.147-.643-.145h-1.006v6.356h-3.74V8.693H132q6.043 0 6.043 4.515a4.7 4.7 0 0 1-.266 1.604q-.267.735-.752 1.325a4.8 4.8 0 0 1-1.176 1.02 6 6 0 0 1-1.534.67v.047q.37.116.719.375.347.26.67.61.326.346.619.746.296.398.539.782zm-10.185-13.8v4.619h1.62q1.205 0 1.932-.694a2.32 2.32 0 0 0 .742-1.749q-.001-2.176-2.605-2.177z"/>
    <path fill-rule="evenodd" d="m28.654 26.297-13.268 7.365v-8.15a9.37 9.37 0 0 0 8.64-5.744 14 14 0 0 1-2.574-1.001 1.7 1.7 0 0 1-2.088.15l-.025.017q-.045.031-.09.056a13.7 13.7 0 0 1-3.863 1.698v-1.113a12.9 12.9 0 0 0 3.321-1.511 1.7 1.7 0 0 1-.02-1.06 18 18 0 0 1-3.3-3.375V12.54a.9.9 0 0 0 .39-.746.9.9 0 0 0-.39-.741v-.881q.072.023.144.055a17.2 17.2 0 0 1 3.573-2.681 9.3 9.3 0 0 0-3.718-.768V.338l15.751 5.469zm-4.27-7.544a9.43 9.43 0 0 0 .007-5.195 15 15 0 0 1-2.499 3.306c.126.309.158.648.092.975.767.385 1.571.69 2.4.914m-.503-6.557q-.096.21-.2.416a13.8 13.8 0 0 1-2.488 3.434 1.7 1.7 0 0 0-1.883.084 17 17 0 0 1-1.49-1.327 17 17 0 0 1-1.647-1.91 1.695 1.695 0 0 0 .168-1.963 16 16 0 0 1 3.917-2.788 9.4 9.4 0 0 1 3.623 4.054m-2.9 5.957a.9.9 0 0 0 .236-.65.91.91 0 0 0-.642-.865.906.906 0 0 0-1.165.864l.001.037.019.014.007.005.004.004-.028.022a.903.903 0 0 0 1.569.569Z" clip-rule="evenodd"/>
    <path fill-opacity=".8" fill-rule="evenodd" d="M0 5.88 15.386.338v6.44q-.914 0-1.773.168c.025.197.06.404.101.606.168.86.449 1.725.829 2.575.28-.057.57-.041.843.045v.88a.9.9 0 0 0-.473-.16h-.038a.902.902 0 0 0-.153 1.795h.004l.004.001.017.005q.062.006.128.006a.9.9 0 0 0 .511-.159v1.089l-.043-.055a2 2 0 0 1-.089-.12 1.7 1.7 0 0 1-1.015-.08c-1.134 1.607-1.912 3.342-2.25 5.05q-.047.243-.083.475c.477.195.848.596.996 1.092q.022-.005.046-.004c.809-.04 1.627-.18 2.438-.412v1.113h-.001c-.78.204-1.579.327-2.384.367l-.128.008c-.151.41-.454.744-.839.94.245.909.688 1.698 1.319 2.327.524.524 1.162.92 1.891 1.18l.141.002h.001v8.15l-13.2-7.29zm8.654 16.777a9.36 9.36 0 0 0 3.94 2.43c-.792-.788-1.338-1.777-1.625-2.934a1.7 1.7 0 0 1-1.39-1.504l-.111-.037a8.6 8.6 0 0 1-2.259-1.124 8 8 0 0 1-.796-.647 9.34 9.34 0 0 0 2.238 3.814zm-1.445-3.17.003.007.001.003zm5.965-7.693c0 .324.088.627.243.883-1.25 1.753-2.108 3.656-2.479 5.539q-.062.314-.105.619c-.429.113-.79.393-1.016.762a.1.1 0 0 1-.035-.01l-.039-.013a7.16 7.16 0 0 1-3.13-2.055l-.04-.05-.115-.136-.047-.06-.002-.002-.035-.042q-.005-.009-.01-.014l-.046-.059-.014-.018-.02-.026-.003-.003-.004-.008-.021-.028a4 4 0 0 1-.173-.247l-.004-.004a.1.1 0 0 1-.021-.034l-.02-.027a9.34 9.34 0 0 1 2.227-6.703 9.36 9.36 0 0 1 4.299-2.847q.04.274.095.553c.192.967.513 1.942.949 2.898-.271.3-.434.698-.434 1.132m-1.077 9.059a.9.9 0 0 0 .079-.374.86.86 0 0 0-.145-.487.9.9 0 0 0-1.285-.245.9.9 0 0 0-.377.732c0 .137.03.272.089.395a.91.91 0 0 0 1.41.285.9.9 0 0 0 .229-.306" clip-rule="evenodd"/>
  </g>
  <defs>
    <clipPath id="a">
      <path fill="#fff" d="M0 0h140v34H0z"/>
    </clipPath>
  </defs>
</svg>
