<svg xmlns="http://www.w3.org/2000/svg" width="140" height="34">
  <style>
    .st1{fill:#bd483b}.st3{fill:#fec82f}.st4{fill:#df9c26}
  </style>
  <path fill="#1e3b45" d="M43.616 19.576q0 6.008-4.168 6.008a4.6 4.6 0 0 1-1.261-.174v-1.112q.682.232 1.285.232 1.597 0 2.304-1.209t.706-3.769V8.693h1.134zm3.449 5.129v-1.309q1.783 1.134 3.612 1.135 1.944 0 2.952-.805 1.007-.806 1.007-2.251 0-1.276-.678-2.032-.676-.758-2.935-2.067-2.523-1.468-3.195-2.46-.67-.99-.671-2.286 0-1.759 1.366-2.988 1.366-1.226 3.647-1.227a9.3 9.3 0 0 1 2.963.498v1.204a7.5 7.5 0 0 0-3.113-.66q-1.69 0-2.681.858-.99.857-.99 2.177 0 1.273.677 2.026.678.751 2.923 2.048 2.327 1.322 3.097 2.345.77 1.026.77 2.356 0 1.91-1.325 3.114-1.326 1.204-3.746 1.204-.858-.001-1.973-.266-1.117-.267-1.707-.614m12.039.59V8.693h5.881q8.843 0 8.844 8.093 0 3.878-2.413 6.194-2.415 2.315-6.431 2.315zm3.74-13.556v10.522h1.852q2.431 0 3.814-1.458 1.383-1.46 1.383-3.97 0-2.374-1.372-3.734t-3.85-1.36zm23.997 13.556h-9.957V8.693h9.574v3.046h-5.834v3.693h5.43v3.032h-5.43v3.796h6.217zm13.052 0h-9.887V8.693h3.74v13.568h6.147zm6.096-16.602v16.602h-3.74V8.693zm17.845 0-5.719 16.602h-4.236l-5.651-16.602h4.029l3.462 11.553q.278.938.336 1.657h.068a9.4 9.4 0 0 1 .36-1.702l3.439-11.508zM140 25.295h-4.295l-2.581-4.273a16 16 0 0 0-.555-.868 5 5 0 0 0-.539-.654 2.1 2.1 0 0 0-.567-.416 1.45 1.45 0 0 0-.643-.145h-1.006v6.356h-3.74V8.693H132q6.043 0 6.043 4.515a4.7 4.7 0 0 1-.266 1.604q-.267.735-.752 1.325a4.8 4.8 0 0 1-1.176 1.02 6 6 0 0 1-1.534.67v.047q.37.116.719.375.347.26.67.61.326.346.619.746.296.398.539.782zm-10.185-13.8v4.619h1.62q1.205 0 1.932-.694a2.32 2.32 0 0 0 .742-1.749q-.001-2.176-2.605-2.177z"/>
  <path d="M15.386.338 12.28 11.376v11.143l3.106 11.143 3.194-11.143V11.376z" class="st1"/>
  <path fill="#e64e3d" d="M15.386.338 0 5.88l2.186 20.492 13.2 7.29"/>
  <path d="m15.386 33.662 13.268-7.365 2.483-20.49L15.386.338" class="st1"/>
  <path d="M12.594 25.088a9.36 9.36 0 0 1-3.94-2.431l-.003-.002a9.34 9.34 0 0 1-2.238-3.814q.378.348.796.647.006.011.011.027-.005-.017-.011-.027a8.6 8.6 0 0 0 1.696.923q.267.105.542.195c.011.006.024.006.035.01q.048.018.097.033a1.7 1.7 0 0 0 1.39 1.504c.287 1.157.833 2.146 1.625 2.935m.58-13.294c0 .324.088.627.243.883-1.25 1.753-2.108 3.656-2.479 5.539q-.062.314-.105.619c-.429.113-.79.393-1.016.762a.1.1 0 0 1-.035-.01c-.023-.006-.04-.014-.061-.021a7.16 7.16 0 0 1-2.796-1.715 7 7 0 0 1-.311-.332l-.041-.049-.115-.137-.047-.059q-.02-.026-.037-.045l-.017-.023q-.03-.035-.053-.068l-.023-.029-.004-.008c-.013-.014-.024-.033-.037-.049a4 4 0 0 1-.157-.225q-.015-.017-.025-.039l-.02-.027a9.34 9.34 0 0 1 2.227-6.703 9.36 9.36 0 0 1 4.299-2.847q.04.274.095.553c.192.967.513 1.942.949 2.898-.271.3-.434.698-.434 1.132m-.998 8.685a.89.89 0 0 1-.308.68.9.9 0 0 1-1.068.09.9.9 0 0 1-.342-.375.9.9 0 0 1-.089-.395.9.9 0 0 1 .377-.732.9.9 0 0 1 1.285.245.86.86 0 0 1 .145.487m3.601-8.685a.9.9 0 0 1-.902.905q-.066 0-.128-.006-.012-.005-.025-.006a.902.902 0 0 1 .153-1.794h.038a.907.907 0 0 1 .864.901" class="st3"/>
  <path d="M24.752 16.143c0 .907-.129 1.782-.368 2.61a13 13 0 0 1-2.4-.914 1.7 1.7 0 0 0-.092-.975 15 15 0 0 0 2.499-3.306c.234.821.361 1.69.361 2.585m-.871-3.947a11 11 0 0 1-.201.416 13.8 13.8 0 0 1-2.487 3.434 1.7 1.7 0 0 0-1.883.084 17 17 0 0 1-1.49-1.327 17 17 0 0 1-1.647-1.909 1.695 1.695 0 0 0 .168-1.964 16 16 0 0 1 3.917-2.788 9.4 9.4 0 0 1 3.623 4.054m-2.664 5.307a.902.902 0 0 1-1.804.081l.028-.022q-.016-.01-.03-.023l-.001-.037a.907.907 0 0 1 1.165-.864.91.91 0 0 1 .642.865m.235 1.264a1.7 1.7 0 0 1-2.088.151q-.059.039-.115.072a13.7 13.7 0 0 1-3.864 1.698v4.824a9.37 9.37 0 0 0 8.64-5.744 14 14 0 0 1-2.573-1.001" class="st4"/>
  <path d="M15.386 20.688a11.7 11.7 0 0 1-2.385.367l-.128.008c-.151.41-.454.744-.839.94.245.909.688 1.698 1.319 2.327.524.524 1.162.92 1.891 1.18l.142.002z" class="st3"/>
  <path d="M18.612 17.503q.001-.26.074-.498a18 18 0 0 1-3.3-3.376v5.946a12.9 12.9 0 0 0 3.321-1.511 1.7 1.7 0 0 1-.095-.561" class="st4"/>
  <path d="M15.386 13.629c-.045-.059-.091-.113-.132-.174a1.7 1.7 0 0 1-1.015-.08c-1.134 1.606-1.912 3.341-2.25 5.049q-.047.243-.083.475c.477.195.848.596.996 1.092q.022-.005.046-.004c.809-.039 1.627-.18 2.438-.412z" class="st3"/>
  <path d="M15.386 6.778v3.394q.073.023.145.055a17.2 17.2 0 0 1 3.573-2.681 9.3 9.3 0 0 0-3.718-.768" class="st4"/>
  <path d="M15.386 6.778q-.914 0-1.773.168c.025.197.06.404.101.606.168.86.449 1.725.829 2.575a1.7 1.7 0 0 1 .843.045z" class="st3"/>
</svg>
