<svg xmlns="http://www.w3.org/2000/svg" width="180" height="152" fill="none">
  <rect width="162" height="134" y="18" fill="#F3F5F7" rx="12"/>
  <rect width="10" height="59" x="24" y="69" fill="url(#a)" rx="4"/>
  <rect width="10" height="86" x="50" y="42" fill="url(#b)" rx="4"/>
  <rect width="10" height="56" x="76" y="72" fill="url(#c)" rx="4"/>
  <rect width="10" height="20" x="102" y="108" fill="url(#d)" rx="4"/>
  <rect width="10" height="52" x="128" y="76" fill="url(#e)" rx="4"/>
  <circle cx="154" cy="26" r="25" fill="#fff" stroke="#DFE3E7" stroke-width="2"/>
  <path fill="#fff" d="M142 14h24v24h-24z"/>
  <path fill="#111A2C" fill-rule="evenodd" d="M145.514 32.392a.75.75 0 0 0 .836 1.225.7.7 0 0 1 .165-.225l14.912-13.967a.8.8 0 0 1 .19-.13.75.75 0 0 0-1.19-.87l-1.502 1.407c-1.447-.914-3.12-1.582-4.925-1.582-3.064 0-5.747 1.926-7.592 3.71a23.3 23.3 0 0 0-2.981 3.546l-.042.064-.012.018-.003.005-.001.002L144 26l-.632-.404a.75.75 0 0 0 0 .808L144 26l-.632.404.002.003.003.005.012.018.042.064a21 21 0 0 0 .765 1.057 23 23 0 0 0 2.216 2.488q.386.374.819.75zM150 26c0 .645.153 1.255.424 1.794l-2.095 1.962a18 18 0 0 1-.879-.795A21.7 21.7 0 0 1 144.909 26a21.7 21.7 0 0 1 2.541-2.96c1.774-1.716 4.091-3.29 6.55-3.29 1.325 0 2.609.457 3.788 1.147l-1.764 1.652A4 4 0 0 0 150 26" clip-rule="evenodd"/>
  <path fill="#111A2C" d="m161.255 21.642-1.098 1.028a21.7 21.7 0 0 1 2.934 3.33 21.7 21.7 0 0 1-2.541 2.96c-1.774 1.716-4.091 3.29-6.55 3.29-1.105 0-2.181-.318-3.192-.823l-1.158 1.083c1.309.734 2.78 1.24 4.35 1.24 3.064 0 5.747-1.926 7.592-3.71a23.3 23.3 0 0 0 2.981-3.546l.042-.064.012-.018.003-.005.001-.002L164 26l.632.404a.75.75 0 0 0 0-.808L164 26l.632-.404-.002-.003-.003-.005-.012-.018-.042-.064a21 21 0 0 0-.765-1.057 23 23 0 0 0-2.553-2.807"/>
  <path fill="#111A2C" d="M152.6 29.748a4 4 0 0 0 5.232-4.9z"/>
  <defs>
    <linearGradient id="a" x1="29" x2="29" y1="69" y2="128" gradientUnits="userSpaceOnUse">
      <stop stop-color="#111A2C" stop-opacity=".24"/>
      <stop offset="1" stop-color="#111A2C" stop-opacity=".04"/>
    </linearGradient>
    <linearGradient id="b" x1="55" x2="55" y1="42" y2="128" gradientUnits="userSpaceOnUse">
      <stop stop-color="#111A2C" stop-opacity=".24"/>
      <stop offset="1" stop-color="#111A2C" stop-opacity=".04"/>
    </linearGradient>
    <linearGradient id="c" x1="81" x2="81" y1="72" y2="128" gradientUnits="userSpaceOnUse">
      <stop stop-color="#111A2C" stop-opacity=".24"/>
      <stop offset="1" stop-color="#111A2C" stop-opacity=".04"/>
    </linearGradient>
    <linearGradient id="d" x1="107" x2="107" y1="108" y2="128" gradientUnits="userSpaceOnUse">
      <stop stop-color="#111A2C" stop-opacity=".24"/>
      <stop offset="1" stop-color="#111A2C" stop-opacity=".04"/>
    </linearGradient>
    <linearGradient id="e" x1="133" x2="133" y1="76" y2="128" gradientUnits="userSpaceOnUse">
      <stop stop-color="#111A2C" stop-opacity=".24"/>
      <stop offset="1" stop-color="#111A2C" stop-opacity=".04"/>
    </linearGradient>
  </defs>
</svg>
