<svg xmlns="http://www.w3.org/2000/svg" width="294" height="56" fill="none">
  <rect width="4" height="24" y="24" fill="url(#a)" rx="1"/>
  <rect width="4" height="35" x="10" y="13" fill="url(#b)" rx="1"/>
  <rect width="4" height="30" x="20" y="18" fill="url(#c)" rx="1"/>
  <rect width="4" height="20" x="30" y="28" fill="url(#d)" rx="1"/>
  <rect width="4" height="40" x="40" y="8" fill="url(#e)" rx="1"/>
  <rect width="4" height="32" x="50" y="16" fill="url(#f)" rx="1"/>
  <rect width="4" height="27" x="60" y="21" fill="url(#g)" rx="1"/>
  <rect width="4" height="24" x="70" y="24" fill="url(#h)" rx="1"/>
  <rect width="4" height="12" x="80" y="36" fill="url(#i)" rx="1"/>
  <rect width="4" height="36" x="90" y="12" fill="url(#j)" rx="1"/>
  <rect width="4" height="8" x="100" y="40" fill="url(#k)" rx="1"/>
  <rect width="4" height="36" x="110" y="12" fill="url(#l)" rx="1"/>
  <rect width="4" height="36" x="120" y="12" fill="url(#m)" rx="1"/>
  <rect width="4" height="36" x="130" y="12" fill="url(#n)" rx="1"/>
  <rect width="4" height="24" x="140" y="24" fill="url(#o)" rx="1"/>
  <rect width="4" height="24" x="150" y="24" fill="url(#p)" rx="1"/>
  <rect width="4" height="40" x="160" y="8" fill="url(#q)" rx="1"/>
  <rect width="4" height="40" x="170" y="8" fill="url(#r)" rx="1"/>
  <rect width="4" height="12" x="180" y="36" fill="url(#s)" rx="1"/>
  <rect width="4" height="12" x="190" y="36" fill="url(#t)" rx="1"/>
  <rect width="4" height="40" x="200" y="8" fill="url(#u)" rx="1"/>
  <rect width="4" height="27" x="210" y="21" fill="url(#v)" rx="1"/>
  <rect width="4" height="27" x="220" y="21" fill="url(#w)" rx="1"/>
  <rect width="4" height="17" x="230" y="31" fill="url(#x)" rx="1"/>
  <rect width="4" height="32" x="240" y="16" fill="url(#y)" rx="1"/>
  <rect width="4" height="36" x="250" y="12" fill="url(#z)" rx="1"/>
  <rect width="4" height="17" x="260" y="31" fill="url(#A)" rx="1"/>
  <rect width="4" height="24" x="270" y="24" fill="url(#B)" rx="1"/>
  <rect width="4" height="40" x="280" y="8" fill="url(#C)" rx="1"/>
  <rect width="4" height="17" x="290" y="31" fill="url(#D)" rx="1"/>
  <circle cx="147" cy="28" r="26" fill="#EDF0F2" stroke="#fff" stroke-width="4"/>
  <path fill="#111A2C" fill-rule="evenodd" d="M138.514 34.392a.75.75 0 0 0 .836 1.225.7.7 0 0 1 .165-.225l14.912-13.967a.8.8 0 0 1 .19-.13.75.75 0 0 0-1.19-.87l-1.502 1.407c-1.447-.914-3.12-1.582-4.925-1.582-3.064 0-5.747 1.926-7.592 3.71a23.3 23.3 0 0 0-2.981 3.546l-.042.064-.012.018-.003.005-.001.002L137 28l-.632-.404a.75.75 0 0 0 0 .808L137 28l-.632.404.002.003.003.005.012.018.042.064a21 21 0 0 0 .765 1.057 23 23 0 0 0 2.216 2.488q.386.374.819.75zM143 28c0 .645.153 1.255.424 1.794l-2.095 1.962a18 18 0 0 1-.879-.795A21.7 21.7 0 0 1 137.909 28a21.7 21.7 0 0 1 2.541-2.96c1.774-1.716 4.091-3.29 6.55-3.29 1.325 0 2.609.457 3.788 1.147l-1.764 1.652A4 4 0 0 0 143 28" clip-rule="evenodd"/>
  <path fill="#111A2C" d="m154.255 23.642-1.098 1.028a21.7 21.7 0 0 1 2.934 3.33 21.7 21.7 0 0 1-2.541 2.96c-1.774 1.716-4.091 3.29-6.55 3.29-1.105 0-2.181-.318-3.192-.823l-1.158 1.083c1.309.734 2.78 1.24 4.35 1.24 3.064 0 5.747-1.926 7.592-3.71a23.3 23.3 0 0 0 2.981-3.546l.042-.064.012-.018.003-.005.001-.002L157 28l.632.404a.75.75 0 0 0 0-.808L157 28l.632-.404-.002-.003-.003-.005-.012-.018-.042-.064a21 21 0 0 0-.765-1.057 23 23 0 0 0-2.553-2.807"/>
  <path fill="#111A2C" d="M145.6 31.748a4 4 0 0 0 5.232-4.9z"/>
  <defs>
    <linearGradient id="a" x1="2" x2="2" y1="24" y2="48" gradientUnits="userSpaceOnUse">
      <stop stop-color="#111A2C" stop-opacity=".24"/>
      <stop offset="1" stop-color="#111A2C" stop-opacity=".04"/>
    </linearGradient>
    <linearGradient id="b" x1="12" x2="12" y1="13" y2="48" gradientUnits="userSpaceOnUse">
      <stop stop-color="#111A2C" stop-opacity=".24"/>
      <stop offset="1" stop-color="#111A2C" stop-opacity=".04"/>
    </linearGradient>
    <linearGradient id="c" x1="22" x2="22" y1="18" y2="48" gradientUnits="userSpaceOnUse">
      <stop stop-color="#111A2C" stop-opacity=".24"/>
      <stop offset="1" stop-color="#111A2C" stop-opacity=".04"/>
    </linearGradient>
    <linearGradient id="d" x1="32" x2="32" y1="28" y2="48" gradientUnits="userSpaceOnUse">
      <stop stop-color="#111A2C" stop-opacity=".24"/>
      <stop offset="1" stop-color="#111A2C" stop-opacity=".04"/>
    </linearGradient>
    <linearGradient id="e" x1="42" x2="42" y1="8" y2="48" gradientUnits="userSpaceOnUse">
      <stop stop-color="#111A2C" stop-opacity=".24"/>
      <stop offset="1" stop-color="#111A2C" stop-opacity=".04"/>
    </linearGradient>
    <linearGradient id="f" x1="52" x2="52" y1="16" y2="48" gradientUnits="userSpaceOnUse">
      <stop stop-color="#111A2C" stop-opacity=".24"/>
      <stop offset="1" stop-color="#111A2C" stop-opacity=".04"/>
    </linearGradient>
    <linearGradient id="g" x1="62" x2="62" y1="21" y2="48" gradientUnits="userSpaceOnUse">
      <stop stop-color="#111A2C" stop-opacity=".24"/>
      <stop offset="1" stop-color="#111A2C" stop-opacity=".04"/>
    </linearGradient>
    <linearGradient id="h" x1="72" x2="72" y1="24" y2="48" gradientUnits="userSpaceOnUse">
      <stop stop-color="#111A2C" stop-opacity=".24"/>
      <stop offset="1" stop-color="#111A2C" stop-opacity=".04"/>
    </linearGradient>
    <linearGradient id="i" x1="82" x2="82" y1="36" y2="48" gradientUnits="userSpaceOnUse">
      <stop stop-color="#111A2C" stop-opacity=".24"/>
      <stop offset="1" stop-color="#111A2C" stop-opacity=".04"/>
    </linearGradient>
    <linearGradient id="j" x1="92" x2="92" y1="12" y2="48" gradientUnits="userSpaceOnUse">
      <stop stop-color="#111A2C" stop-opacity=".24"/>
      <stop offset="1" stop-color="#111A2C" stop-opacity=".04"/>
    </linearGradient>
    <linearGradient id="k" x1="102" x2="102" y1="40" y2="48" gradientUnits="userSpaceOnUse">
      <stop stop-color="#111A2C" stop-opacity=".24"/>
      <stop offset="1" stop-color="#111A2C" stop-opacity=".04"/>
    </linearGradient>
    <linearGradient id="l" x1="112" x2="112" y1="12" y2="48" gradientUnits="userSpaceOnUse">
      <stop stop-color="#111A2C" stop-opacity=".24"/>
      <stop offset="1" stop-color="#111A2C" stop-opacity=".04"/>
    </linearGradient>
    <linearGradient id="m" x1="122" x2="122" y1="12" y2="48" gradientUnits="userSpaceOnUse">
      <stop stop-color="#111A2C" stop-opacity=".24"/>
      <stop offset="1" stop-color="#111A2C" stop-opacity=".04"/>
    </linearGradient>
    <linearGradient id="n" x1="132" x2="132" y1="12" y2="48" gradientUnits="userSpaceOnUse">
      <stop stop-color="#111A2C" stop-opacity=".24"/>
      <stop offset="1" stop-color="#111A2C" stop-opacity=".04"/>
    </linearGradient>
    <linearGradient id="o" x1="142" x2="142" y1="24" y2="48" gradientUnits="userSpaceOnUse">
      <stop stop-color="#111A2C" stop-opacity=".24"/>
      <stop offset="1" stop-color="#111A2C" stop-opacity=".04"/>
    </linearGradient>
    <linearGradient id="p" x1="152" x2="152" y1="24" y2="48" gradientUnits="userSpaceOnUse">
      <stop stop-color="#111A2C" stop-opacity=".24"/>
      <stop offset="1" stop-color="#111A2C" stop-opacity=".04"/>
    </linearGradient>
    <linearGradient id="q" x1="162" x2="162" y1="8" y2="48" gradientUnits="userSpaceOnUse">
      <stop stop-color="#111A2C" stop-opacity=".24"/>
      <stop offset="1" stop-color="#111A2C" stop-opacity=".04"/>
    </linearGradient>
    <linearGradient id="r" x1="172" x2="172" y1="8" y2="48" gradientUnits="userSpaceOnUse">
      <stop stop-color="#111A2C" stop-opacity=".24"/>
      <stop offset="1" stop-color="#111A2C" stop-opacity=".04"/>
    </linearGradient>
    <linearGradient id="s" x1="182" x2="182" y1="36" y2="48" gradientUnits="userSpaceOnUse">
      <stop stop-color="#111A2C" stop-opacity=".24"/>
      <stop offset="1" stop-color="#111A2C" stop-opacity=".04"/>
    </linearGradient>
    <linearGradient id="t" x1="192" x2="192" y1="36" y2="48" gradientUnits="userSpaceOnUse">
      <stop stop-color="#111A2C" stop-opacity=".24"/>
      <stop offset="1" stop-color="#111A2C" stop-opacity=".04"/>
    </linearGradient>
    <linearGradient id="u" x1="202" x2="202" y1="8" y2="48" gradientUnits="userSpaceOnUse">
      <stop stop-color="#111A2C" stop-opacity=".24"/>
      <stop offset="1" stop-color="#111A2C" stop-opacity=".04"/>
    </linearGradient>
    <linearGradient id="v" x1="212" x2="212" y1="21" y2="48" gradientUnits="userSpaceOnUse">
      <stop stop-color="#111A2C" stop-opacity=".24"/>
      <stop offset="1" stop-color="#111A2C" stop-opacity=".04"/>
    </linearGradient>
    <linearGradient id="w" x1="222" x2="222" y1="21" y2="48" gradientUnits="userSpaceOnUse">
      <stop stop-color="#111A2C" stop-opacity=".24"/>
      <stop offset="1" stop-color="#111A2C" stop-opacity=".04"/>
    </linearGradient>
    <linearGradient id="x" x1="232" x2="232" y1="31" y2="48" gradientUnits="userSpaceOnUse">
      <stop stop-color="#111A2C" stop-opacity=".24"/>
      <stop offset="1" stop-color="#111A2C" stop-opacity=".04"/>
    </linearGradient>
    <linearGradient id="y" x1="242" x2="242" y1="16" y2="48" gradientUnits="userSpaceOnUse">
      <stop stop-color="#111A2C" stop-opacity=".24"/>
      <stop offset="1" stop-color="#111A2C" stop-opacity=".04"/>
    </linearGradient>
    <linearGradient id="z" x1="252" x2="252" y1="12" y2="48" gradientUnits="userSpaceOnUse">
      <stop stop-color="#111A2C" stop-opacity=".24"/>
      <stop offset="1" stop-color="#111A2C" stop-opacity=".04"/>
    </linearGradient>
    <linearGradient id="A" x1="262" x2="262" y1="31" y2="48" gradientUnits="userSpaceOnUse">
      <stop stop-color="#111A2C" stop-opacity=".24"/>
      <stop offset="1" stop-color="#111A2C" stop-opacity=".04"/>
    </linearGradient>
    <linearGradient id="B" x1="272" x2="272" y1="24" y2="48" gradientUnits="userSpaceOnUse">
      <stop stop-color="#111A2C" stop-opacity=".24"/>
      <stop offset="1" stop-color="#111A2C" stop-opacity=".04"/>
    </linearGradient>
    <linearGradient id="C" x1="282" x2="282" y1="8" y2="48" gradientUnits="userSpaceOnUse">
      <stop stop-color="#111A2C" stop-opacity=".24"/>
      <stop offset="1" stop-color="#111A2C" stop-opacity=".04"/>
    </linearGradient>
    <linearGradient id="D" x1="292" x2="292" y1="31" y2="48" gradientUnits="userSpaceOnUse">
      <stop stop-color="#111A2C" stop-opacity=".24"/>
      <stop offset="1" stop-color="#111A2C" stop-opacity=".04"/>
    </linearGradient>
  </defs>
</svg>
