<svg width="21" height="15" viewBox="0 0 21 15" fill="none" xmlns="http://www.w3.org/2000/svg">
<rect width="21" height="15" rx="2" fill="white"/>
<mask id="mask0_2314_20619" style="mask-type:alpha" maskUnits="userSpaceOnUse" x="0" y="0" width="21" height="15">
<rect width="21" height="15" rx="2" fill="white"/>
</mask>
<g mask="url(#mask0_2314_20619)">
<rect width="21" height="15" fill="#1537D1"/>
<rect x="10" width="11" height="15" fill="#EA3058"/>
<path fill-rule="evenodd" clip-rule="evenodd" d="M7 15H14V0H7V15Z" fill="#FFCF3C"/>
<path fill-rule="evenodd" clip-rule="evenodd" d="M9.5 6.5H10.5V7H9.5V6.5Z" fill="#FFEDB1"/>
<path d="M9.72453 6.33333H11.2755C11.4705 6.33333 11.6238 6.50001 11.6076 6.69435L11.5197 7.74971C11.4765 8.268 11.0432 8.66667 10.5232 8.66667H10.4768C9.95675 8.66667 9.52349 8.268 9.4803 7.74971L9.39235 6.69435C9.37615 6.50001 9.52952 6.33333 9.72453 6.33333Z" stroke="#D32E28" stroke-width="0.666667"/>
<path fill-rule="evenodd" clip-rule="evenodd" d="M9.5 7H11.5V7.5H11H10H9.5V7Z" fill="#D32E28"/>
</g>
</svg>
