<svg width="21" height="15" viewBox="0 0 21 15" fill="none" xmlns="http://www.w3.org/2000/svg">
<rect width="21" height="15" rx="2" fill="white"/>
<mask id="mask0_2314_20638" style="mask-type:alpha" maskUnits="userSpaceOnUse" x="0" y="0" width="21" height="15">
<rect width="21" height="15" rx="2" fill="white"/>
</mask>
<g mask="url(#mask0_2314_20638)">
<rect width="21" height="15" fill="#E2243B"/>
<path fill-rule="evenodd" clip-rule="evenodd" d="M0 0H21L10.5 15L0 0Z" fill="#262626"/>
<mask id="mask1_2314_20638" style="mask-type:alpha" maskUnits="userSpaceOnUse" x="0" y="0" width="21" height="15">
<path fill-rule="evenodd" clip-rule="evenodd" d="M0 0H21L10.5 15L0 0Z" fill="white"/>
</mask>
<g mask="url(#mask1_2314_20638)">
<g filter="url(#filter0_d_2314_20638)">
<path fill-rule="evenodd" clip-rule="evenodd" d="M10.5 8.25L8.77792 10.1575L8.90901 7.59099L6.34254 7.72208L8.25 6L6 4L8.90901 4.5L8.5 1.5L10.5 4L12.5 1.5L12.091 4.5L15 4L12.75 6L14.6575 7.72208L12.091 7.59099L12.2221 10.1575L10.5 8.25Z" fill="#FFCF3C"/>
</g>
<g filter="url(#filter1_d_2314_20638)">
<path fill-rule="evenodd" clip-rule="evenodd" d="M0 10H21V6H0V10Z" fill="#1984D8"/>
</g>
<path fill-rule="evenodd" clip-rule="evenodd" d="M0 15H21V10H0V15Z" fill="white"/>
</g>
</g>
<defs>
<filter id="filter0_d_2314_20638" x="6" y="1.5" width="9" height="8.65747" filterUnits="userSpaceOnUse" color-interpolation-filters="sRGB">
<feFlood flood-opacity="0" result="BackgroundImageFix"/>
<feColorMatrix in="SourceAlpha" type="matrix" values="0 0 0 0 0 0 0 0 0 0 0 0 0 0 0 0 0 0 127 0" result="hardAlpha"/>
<feOffset/>
<feColorMatrix type="matrix" values="0 0 0 0 0 0 0 0 0 0 0 0 0 0 0 0 0 0 0.06 0"/>
<feBlend mode="normal" in2="BackgroundImageFix" result="effect1_dropShadow_2314_20638"/>
<feBlend mode="normal" in="SourceGraphic" in2="effect1_dropShadow_2314_20638" result="shape"/>
</filter>
<filter id="filter1_d_2314_20638" x="0" y="6" width="21" height="4" filterUnits="userSpaceOnUse" color-interpolation-filters="sRGB">
<feFlood flood-opacity="0" result="BackgroundImageFix"/>
<feColorMatrix in="SourceAlpha" type="matrix" values="0 0 0 0 0 0 0 0 0 0 0 0 0 0 0 0 0 0 127 0" result="hardAlpha"/>
<feOffset/>
<feColorMatrix type="matrix" values="0 0 0 0 0 0 0 0 0 0 0 0 0 0 0 0 0 0 0.06 0"/>
<feBlend mode="normal" in2="BackgroundImageFix" result="effect1_dropShadow_2314_20638"/>
<feBlend mode="normal" in="SourceGraphic" in2="effect1_dropShadow_2314_20638" result="shape"/>
</filter>
</defs>
</svg>
