<svg width="21" height="15" viewBox="0 0 21 15" fill="none" xmlns="http://www.w3.org/2000/svg">
<rect width="21" height="15" rx="2" fill="white"/>
<mask id="mask0_2314_20695" style="mask-type:alpha" maskUnits="userSpaceOnUse" x="0" y="0" width="21" height="15">
<rect width="21" height="15" rx="2" fill="white"/>
</mask>
<g mask="url(#mask0_2314_20695)">
<rect width="21" height="15" fill="#0A17A7"/>
<path fill-rule="evenodd" clip-rule="evenodd" d="M13 7.5C13 6 13 5 13 5L14 5.5L15 5L16 5.5L17 5C17 5 17 6 17 7.5C17 9 15 10 15 10C15 10 13 9 13 7.5Z" fill="white"/>
<mask id="mask1_2314_20695" style="mask-type:alpha" maskUnits="userSpaceOnUse" x="13" y="5" width="4" height="5">
<path fill-rule="evenodd" clip-rule="evenodd" d="M13 7.5C13 6 13 5 13 5L14 5.5L15 5L16 5.5L17 5C17 5 17 6 17 7.5C17 9 15 10 15 10C15 10 13 9 13 7.5Z" fill="white"/>
</mask>
<g mask="url(#mask1_2314_20695)">
<rect x="13" y="9" width="4" height="1" fill="#9ACCFF"/>
<path fill-rule="evenodd" clip-rule="evenodd" d="M15 7C15.2761 7 15.5 6.77614 15.5 6.5C15.5 6.22386 15.2761 6 15 6C14.7239 6 14.5 6.22386 14.5 6.5C14.5 6.77614 14.7239 7 15 7ZM14 8C14.2761 8 14.5 7.77614 14.5 7.5C14.5 7.22386 14.2761 7 14 7C13.7239 7 13.5 7.22386 13.5 7.5C13.5 7.77614 13.7239 8 14 8ZM16.5 7.5C16.5 7.77614 16.2761 8 16 8C15.7239 8 15.5 7.77614 15.5 7.5C15.5 7.22386 15.7239 7 16 7C16.2761 7 16.5 7.22386 16.5 7.5Z" fill="url(#paint0_linear_2314_20695)"/>
</g>
<path d="M0 -0.333333H-0.901086L-0.21693 0.253086L3.16667 3.15331V3.82846L-0.193746 6.22876L-0.333333 6.32846V6.5V7V7.60142L0.176666 7.28267L4.0956 4.83333H4.89318L8.26313 7.24044C8.34771 7.30086 8.44905 7.33333 8.55299 7.33333C9.01598 7.33333 9.22907 6.75732 8.87754 6.45601L5.83333 3.84669V3.17154L9.05416 0.87095C9.22936 0.745809 9.33333 0.543761 9.33333 0.328461V0V-0.601416L8.82333 -0.282666L4.9044 2.16667H4.10682L0.693746 -0.271244L0.606822 -0.333333H0.5H0Z" fill="#FF2E3B" stroke="white" stroke-width="0.666667"/>
<path fill-rule="evenodd" clip-rule="evenodd" d="M0 2.5V4.5H3.5V6.83333C3.5 7.20152 3.79848 7.5 4.16667 7.5H4.83333C5.20152 7.5 5.5 7.20152 5.5 6.83333V4.5H8.83333C9.20152 4.5 9.5 4.20152 9.5 3.83333V3.16667C9.5 2.79848 9.20152 2.5 8.83333 2.5H5.5V0H3.5V2.5H0Z" fill="white"/>
<path fill-rule="evenodd" clip-rule="evenodd" d="M0 3H4V2.5V0H5V2.5V3H9V4H5V4.5V7H4V4.5V4H0V3Z" fill="#FF2E3B"/>
</g>
<defs>
<linearGradient id="paint0_linear_2314_20695" x1="13.5" y1="6" x2="13.5" y2="8" gradientUnits="userSpaceOnUse">
<stop stop-color="#FFA51B"/>
<stop offset="1" stop-color="#FF9A00"/>
</linearGradient>
</defs>
</svg>
