<svg width="21" height="15" viewBox="0 0 21 15" fill="none" xmlns="http://www.w3.org/2000/svg">
<mask id="mask0_2314_20608" style="mask-type:alpha" maskUnits="userSpaceOnUse" x="0" y="0" width="21" height="15">
<rect width="21" height="15" rx="2" fill="white"/>
</mask>
<g mask="url(#mask0_2314_20608)">
<rect width="21" height="15" fill="#EE343C"/>
<path fill-rule="evenodd" clip-rule="evenodd" d="M9.38646 3.38646C9.16175 3.16175 8.80967 3.12689 8.54525 3.30316L8.45585 3.36277C8.02994 3.64671 8.06966 4.28483 8.52751 4.51375L9.15836 4.82918C9.36774 4.93387 9.5 5.14787 9.5 5.38197V5.38197C9.5 5.7233 9.2233 6 8.88197 6H8.65738C8.55388 6 8.45181 5.9759 8.35924 5.92962L6.92978 5.21489C6.67312 5.08656 6.36102 5.13898 6.15811 5.34189V5.34189C5.83635 5.66365 5.9203 6.21015 6.3273 6.41365L6.82843 6.66422C7.12767 6.81384 7.15364 7.23091 6.87527 7.41649V7.41649C6.55227 7.63182 6.65086 8.13017 7.03151 8.2063L7.45297 8.29059C7.85762 8.37152 7.97592 8.89306 7.64579 9.14066L7.26847 9.42365C7.0223 9.60828 7.15287 10 7.46058 10V10C7.48676 10 7.51284 9.99679 7.53824 9.99044L8.48458 9.75386C8.8434 9.66415 9.12457 10.0631 8.91941 10.3709V10.3709C8.74013 10.6398 8.93291 11 9.2561 11H9.69371C9.87662 11 10.039 11.117 10.0969 11.2906V11.2906C10.226 11.678 10.774 11.678 10.9031 11.2906V11.2906C10.961 11.117 11.1234 11 11.3063 11H11.7439C12.0671 11 12.2599 10.6398 12.0806 10.3709V10.3709C11.8754 10.0631 12.1566 9.66415 12.5154 9.75386L13.4618 9.99044C13.4872 9.99679 13.5132 10 13.5394 10V10C13.8471 10 13.9777 9.60828 13.7315 9.42365L13.3542 9.14066C13.0241 8.89306 13.1424 8.37152 13.547 8.29059L13.9685 8.2063C14.3491 8.13017 14.4477 7.63182 14.1247 7.41649V7.41649C13.8464 7.23091 13.8723 6.81384 14.1716 6.66422L14.6727 6.41365C15.0797 6.21015 15.1636 5.66365 14.8419 5.34189V5.34189C14.639 5.13898 14.3269 5.08656 14.0702 5.21489L12.6408 5.92962C12.5482 5.9759 12.4461 6 12.3426 6H12.118C11.7767 6 11.5 5.7233 11.5 5.38197V5.38197C11.5 5.14787 11.6321 4.93394 11.8415 4.82925C12.04 4.72999 12.2598 4.62012 12.4726 4.51371C12.9304 4.28479 12.9701 3.64671 12.5442 3.36277L12.4547 3.30316C12.1903 3.12689 11.8383 3.16175 11.6135 3.38646L10.9714 4.0286C10.7111 4.28894 10.2889 4.28894 10.0286 4.0286L9.38646 3.38646Z" fill="#262626"/>
</g>
</svg>
