<svg width="21" height="15" viewBox="0 0 21 15" fill="none" xmlns="http://www.w3.org/2000/svg">
<rect x="0.25" y="0.25" width="20.5" height="14.5" rx="1.75" fill="white" stroke="#F5F5F5" stroke-width="0.5"/>
<mask id="mask0_2314_22588" style="mask-type:alpha" maskUnits="userSpaceOnUse" x="0" y="0" width="21" height="15">
<rect x="0.25" y="0.25" width="20.5" height="14.5" rx="1.75" fill="white" stroke="white" stroke-width="0.5"/>
</mask>
<g mask="url(#mask0_2314_22588)">
<rect x="8" width="5" height="15" fill="#D6182D"/>
<rect y="5" width="21" height="5" fill="#1425A2"/>
<path fill-rule="evenodd" clip-rule="evenodd" d="M8.5 8.75L8.14645 8.85355L8.25 8.5L8.14645 8.14645L8.5 8.25L8.85355 8.14645L8.75 8.5L8.85355 8.85355L8.5 8.75Z" fill="white"/>
<path fill-rule="evenodd" clip-rule="evenodd" d="M12.5 8.75L12.1464 8.85355L12.25 8.5L12.1464 8.14645L12.5 8.25L12.8536 8.14645L12.75 8.5L12.8536 8.85355L12.5 8.75Z" fill="white"/>
<path fill-rule="evenodd" clip-rule="evenodd" d="M6.5 7.75L6.14645 7.85355L6.25 7.5L6.14645 7.14645L6.5 7.25L6.85355 7.14645L6.75 7.5L6.85355 7.85355L6.5 7.75Z" fill="white"/>
<path fill-rule="evenodd" clip-rule="evenodd" d="M14.5 7.75L14.1464 7.85355L14.25 7.5L14.1464 7.14645L14.5 7.25L14.8536 7.14645L14.75 7.5L14.8536 7.85355L14.5 7.75Z" fill="white"/>
<path fill-rule="evenodd" clip-rule="evenodd" d="M10.5 6.75L10.1464 6.85355L10.25 6.5L10.1464 6.14645L10.5 6.25L10.8536 6.14645L10.75 6.5L10.8536 6.85355L10.5 6.75Z" fill="white"/>
</g>
</svg>
