<svg width="21" height="15" viewBox="0 0 21 15" fill="none" xmlns="http://www.w3.org/2000/svg">
<rect width="21" height="15" rx="2" fill="white"/>
<mask id="mask0_2314_20628" style="mask-type:alpha" maskUnits="userSpaceOnUse" x="0" y="0" width="21" height="15">
<rect width="21" height="15" rx="2" fill="white"/>
</mask>
<g mask="url(#mask0_2314_20628)">
<rect width="21" height="15" fill="url(#paint0_linear_2314_20628)"/>
<g filter="url(#filter0_d_2314_20628)">
<path fill-rule="evenodd" clip-rule="evenodd" d="M0 15H21V8H0V15Z" fill="#262626"/>
</g>
<g filter="url(#filter1_d_2314_20628)">
<path fill-rule="evenodd" clip-rule="evenodd" d="M0 8H21V0H0V8Z" fill="#DD2137"/>
</g>
<g filter="url(#filter2_d_2314_20628)">
<path fill-rule="evenodd" clip-rule="evenodd" d="M12.1483 8.66462C12.2731 8.44583 12.3721 8.20762 12.4404 7.95293C12.8692 6.35253 11.9194 4.70752 10.319 4.2787C10.0523 4.20723 9.77814 4.36552 9.70667 4.63225C9.6352 4.89898 9.79349 5.17315 10.0602 5.24462C11.1272 5.53051 11.7603 6.62718 11.4744 7.69411C11.4352 7.84059 11.3807 7.97889 11.313 8.10776L9.77734 7.08397C9.54758 6.9308 9.23715 6.99288 9.08397 7.22265C8.93079 7.45241 8.99288 7.76285 9.22264 7.91602L10.6306 8.85466C10.172 9.15174 9.59427 9.26087 9.02495 9.10833C8.75822 9.03686 8.48405 9.19515 8.41258 9.46188C8.34111 9.72861 8.4994 10.0028 8.76613 10.0743C9.76598 10.3422 10.7833 10.072 11.5105 9.44125L12.2226 9.91602C12.4524 10.0692 12.7628 10.0071 12.916 9.77735C13.0692 9.54758 13.0071 9.23715 12.7773 9.08397L12.1483 8.66462ZM9.5 6.5C9.77614 6.5 10 6.27614 10 6C10 5.72386 9.77614 5.5 9.5 5.5C9.22385 5.5 9 5.72386 9 6C9 6.27614 9.22385 6.5 9.5 6.5Z" fill="#F8D84B"/>
</g>
</g>
<defs>
<filter id="filter0_d_2314_20628" x="0" y="8" width="21" height="7" filterUnits="userSpaceOnUse" color-interpolation-filters="sRGB">
<feFlood flood-opacity="0" result="BackgroundImageFix"/>
<feColorMatrix in="SourceAlpha" type="matrix" values="0 0 0 0 0 0 0 0 0 0 0 0 0 0 0 0 0 0 127 0" result="hardAlpha"/>
<feOffset/>
<feColorMatrix type="matrix" values="0 0 0 0 0 0 0 0 0 0 0 0 0 0 0 0 0 0 0.06 0"/>
<feBlend mode="normal" in2="BackgroundImageFix" result="effect1_dropShadow_2314_20628"/>
<feBlend mode="normal" in="SourceGraphic" in2="effect1_dropShadow_2314_20628" result="shape"/>
</filter>
<filter id="filter1_d_2314_20628" x="0" y="0" width="21" height="8" filterUnits="userSpaceOnUse" color-interpolation-filters="sRGB">
<feFlood flood-opacity="0" result="BackgroundImageFix"/>
<feColorMatrix in="SourceAlpha" type="matrix" values="0 0 0 0 0 0 0 0 0 0 0 0 0 0 0 0 0 0 127 0" result="hardAlpha"/>
<feOffset/>
<feColorMatrix type="matrix" values="0 0 0 0 0 0 0 0 0 0 0 0 0 0 0 0 0 0 0.06 0"/>
<feBlend mode="normal" in2="BackgroundImageFix" result="effect1_dropShadow_2314_20628"/>
<feBlend mode="normal" in="SourceGraphic" in2="effect1_dropShadow_2314_20628" result="shape"/>
</filter>
<filter id="filter2_d_2314_20628" x="8.39542" y="4.26154" width="4.60463" height="6.91571" filterUnits="userSpaceOnUse" color-interpolation-filters="sRGB">
<feFlood flood-opacity="0" result="BackgroundImageFix"/>
<feColorMatrix in="SourceAlpha" type="matrix" values="0 0 0 0 0 0 0 0 0 0 0 0 0 0 0 0 0 0 127 0" result="hardAlpha"/>
<feOffset dy="1"/>
<feColorMatrix type="matrix" values="0 0 0 0 0 0 0 0 0 0 0 0 0 0 0 0 0 0 0.06 0"/>
<feBlend mode="normal" in2="BackgroundImageFix" result="effect1_dropShadow_2314_20628"/>
<feBlend mode="normal" in="SourceGraphic" in2="effect1_dropShadow_2314_20628" result="shape"/>
</filter>
<linearGradient id="paint0_linear_2314_20628" x1="0" y1="0" x2="0" y2="15" gradientUnits="userSpaceOnUse">
<stop stop-color="#FF323E"/>
<stop offset="1" stop-color="#FD0D1B"/>
</linearGradient>
</defs>
</svg>
