<svg width="21" height="15" viewBox="0 0 21 15" fill="none" xmlns="http://www.w3.org/2000/svg">
<rect width="21" height="15" rx="2" fill="white"/>
<mask id="mask0_2314_20761" style="mask-type:alpha" maskUnits="userSpaceOnUse" x="0" y="0" width="21" height="15">
<rect width="21" height="15" rx="2" fill="white"/>
</mask>
<g mask="url(#mask0_2314_20761)">
<rect width="21" height="15" fill="#0B36B2"/>
<g filter="url(#filter0_d_2314_20761)">
<path fill-rule="evenodd" clip-rule="evenodd" d="M17 15V0H6.5L17 15Z" fill="#FFD045"/>
</g>
<path fill-rule="evenodd" clip-rule="evenodd" d="M13 14L12.2929 14.2071L12.5 13.5L12.2929 12.7929L13 13L13.7071 12.7929L13.5 13.5L13.7071 14.2071L13 14Z" fill="white"/>
<path fill-rule="evenodd" clip-rule="evenodd" d="M11 11L10.2929 11.2071L10.5 10.5L10.2929 9.79289L11 10L11.7071 9.79289L11.5 10.5L11.7071 11.2071L11 11Z" fill="white"/>
<path fill-rule="evenodd" clip-rule="evenodd" d="M9 8L8.29289 8.20711L8.5 7.5L8.29289 6.79289L9 7L9.70711 6.79289L9.5 7.5L9.70711 8.20711L9 8Z" fill="white"/>
<path fill-rule="evenodd" clip-rule="evenodd" d="M7 5L6.29289 5.20711L6.5 4.5L6.29289 3.79289L7 4L7.70711 3.79289L7.5 4.5L7.70711 5.20711L7 5Z" fill="white"/>
<path fill-rule="evenodd" clip-rule="evenodd" d="M5 2L4.29289 2.20711L4.5 1.5L4.29289 0.792893L5 1L5.70711 0.792893L5.5 1.5L5.70711 2.20711L5 2Z" fill="white"/>
</g>
<defs>
<filter id="filter0_d_2314_20761" x="6.5" y="0" width="10.5" height="15" filterUnits="userSpaceOnUse" color-interpolation-filters="sRGB">
<feFlood flood-opacity="0" result="BackgroundImageFix"/>
<feColorMatrix in="SourceAlpha" type="matrix" values="0 0 0 0 0 0 0 0 0 0 0 0 0 0 0 0 0 0 127 0" result="hardAlpha"/>
<feOffset/>
<feColorMatrix type="matrix" values="0 0 0 0 0 0 0 0 0 0 0 0 0 0 0 0 0 0 0.06 0"/>
<feBlend mode="normal" in2="BackgroundImageFix" result="effect1_dropShadow_2314_20761"/>
<feBlend mode="normal" in="SourceGraphic" in2="effect1_dropShadow_2314_20761" result="shape"/>
</filter>
</defs>
</svg>
