<svg width="21" height="15" viewBox="0 0 21 15" fill="none" xmlns="http://www.w3.org/2000/svg">
<rect width="21" height="15" rx="2" fill="white"/>
<mask id="mask0_2314_20722" style="mask-type:alpha" maskUnits="userSpaceOnUse" x="0" y="0" width="21" height="15">
<rect width="21" height="15" rx="2" fill="white"/>
</mask>
<g mask="url(#mask0_2314_20722)">
<rect width="21" height="15" fill="url(#paint0_linear_2314_20722)"/>
<rect x="10" width="11" height="15" fill="#08379D"/>
<path fill-rule="evenodd" clip-rule="evenodd" d="M0 15H7V0H0V15Z" fill="#08379D"/>
<path fill-rule="evenodd" clip-rule="evenodd" d="M7 15H14V0H7V15Z" fill="#FFCC50"/>
<path fill-rule="evenodd" clip-rule="evenodd" d="M10.2389 4.91353C10.3727 4.71683 10.6635 4.71953 10.7936 4.91868L11.2433 5.60711C11.3537 5.77605 11.2325 6.00003 11.0307 6.00003V6.00003C10.8804 6.00003 10.763 6.12978 10.7779 6.27931L10.97 8.19986C10.987 8.37026 11.1304 8.50003 11.3017 8.50003H11.363C11.4508 8.50003 11.535 8.4654 11.5974 8.40367L11.9011 8.10324C11.9644 8.04063 12 7.9553 12 7.86627V7.1381C12 7.04969 11.9649 6.96491 11.9024 6.9024L11.8814 6.8814C11.7062 6.70619 11.7766 6.40783 12.0117 6.32947L12.4647 6.17846C12.7053 6.09825 12.9438 6.30552 12.8979 6.55498L12.5596 8.39443C12.547 8.46309 12.5131 8.52606 12.4628 8.57444L11.5968 9.407C11.5347 9.46669 11.4519 9.50003 11.3658 9.50003H11.3333C11.1492 9.50003 11 9.64927 11 9.83336V10.1667C11 10.3508 10.8508 10.5 10.6667 10.5H10.3333C10.1492 10.5 10 10.3508 10 10.1667V9.83336C10 9.64927 9.85076 9.50003 9.66666 9.50003H9.63807C9.54966 9.50003 9.46488 9.46491 9.40236 9.4024L8.57136 8.57139C8.52483 8.52486 8.49311 8.46559 8.4802 8.40106L8.11264 6.56327C8.06245 6.3123 8.30211 6.10073 8.54491 6.18167L8.98833 6.32947C9.22341 6.40783 9.29384 6.70619 9.11862 6.8814L9.09763 6.9024C9.03511 6.96491 8.99999 7.04969 8.99999 7.1381V7.86627C8.99999 7.9553 9.03561 8.04063 9.0989 8.10324L9.40259 8.40367C9.46499 8.4654 9.54923 8.50003 9.63701 8.50003H9.69833C9.86958 8.50003 10.013 8.37026 10.03 8.19986L10.2225 6.27542C10.2372 6.12797 10.1214 6.00003 9.97323 6.00003V6.00003C9.77214 6.00003 9.65303 5.775 9.76612 5.60871L10.2389 4.91353Z" fill="#262626"/>
</g>
<defs>
<linearGradient id="paint0_linear_2314_20722" x1="0" y1="0" x2="0" y2="15" gradientUnits="userSpaceOnUse">
<stop stop-color="#1132C7"/>
<stop offset="1" stop-color="#0522A5"/>
</linearGradient>
</defs>
</svg>
