<svg width="21" height="15" viewBox="0 0 21 15" fill="none" xmlns="http://www.w3.org/2000/svg">
<rect width="21" height="15" rx="2" fill="white"/>
<mask id="mask0_2314_20730" style="mask-type:alpha" maskUnits="userSpaceOnUse" x="0" y="0" width="21" height="15">
<rect width="21" height="15" rx="2" fill="white"/>
</mask>
<g mask="url(#mask0_2314_20730)">
<rect width="21" height="15" fill="#E4233B"/>
<path fill-rule="evenodd" clip-rule="evenodd" d="M0 0L9 7.5L0 15V0Z" fill="#34CD4E"/>
<path fill-rule="evenodd" clip-rule="evenodd" d="M21 0L12 7.5L21 15V0Z" fill="#34CD4E"/>
<path fill-rule="evenodd" clip-rule="evenodd" d="M12.7216 4.79533C12.1173 4.29838 11.3435 4.00002 10.5 4.00002C9.65653 4.00002 8.88275 4.29838 8.27844 4.79533L-0.961845 -1.43732L-2.08023 0.220758L7.15933 6.45292C7.0558 6.78354 7.00001 7.13526 7.00001 7.50002C7.00001 7.86477 7.0558 8.2165 7.15933 8.54712L-2.08023 14.7793L-0.961845 16.4374L8.27844 10.2047C8.88275 10.7017 9.65654 11 10.5 11C11.3435 11 12.1173 10.7017 12.7216 10.2047L21.9619 16.4374L23.0802 14.7793L13.8407 8.54711C13.9442 8.21649 14 7.86477 14 7.50002C14 7.13526 13.9442 6.78354 13.8407 6.45292L23.0802 0.220758L21.9619 -1.43732L12.7216 4.79533Z" fill="white"/>
<path fill-rule="evenodd" clip-rule="evenodd" d="M10.5 6.50001L9.79291 6.70712L10 6.00001L9.79291 5.29291L10.5 5.50001L11.2071 5.29291L11 6.00001L11.2071 6.70712L10.5 6.50001ZM9.00001 9.00002L8.29291 9.20712L8.50001 8.50001L8.29291 7.79291L9.00001 8.00001L9.70712 7.79291L9.50001 8.50001L9.70712 9.20712L9.00001 9.00002ZM11.2929 9.20712L12 9.00002L12.7071 9.20712L12.5 8.50001L12.7071 7.79291L12 8.00001L11.2929 7.79291L11.5 8.50001L11.2929 9.20712Z" fill="#DF2239"/>
</g>
</svg>
