<svg width="21" height="15" viewBox="0 0 21 15" fill="none" xmlns="http://www.w3.org/2000/svg">
<rect width="21" height="15" rx="2" fill="white"/>
<mask id="mask0_2314_20814" style="mask-type:alpha" maskUnits="userSpaceOnUse" x="0" y="0" width="21" height="15">
<rect width="21" height="15" rx="2" fill="white"/>
</mask>
<g mask="url(#mask0_2314_20814)">
<rect width="21" height="15" fill="#05AB41"/>
<path fill-rule="evenodd" clip-rule="evenodd" d="M2.86501 8.05971C2.45901 7.79701 2.45901 7.20299 2.86501 6.94029L10.1378 2.23434C10.3582 2.09174 10.6418 2.09174 10.8622 2.23434L18.135 6.94029C18.541 7.20299 18.541 7.79701 18.135 8.05971L10.8622 12.7657C10.6418 12.9083 10.3582 12.9083 10.1378 12.7657L2.86501 8.05971Z" fill="#FDD216"/>
<path fill-rule="evenodd" clip-rule="evenodd" d="M10.5 11C12.433 11 14 9.433 14 7.5C14 5.567 12.433 4 10.5 4C8.567 4 7 5.567 7 7.5C7 9.433 8.567 11 10.5 11Z" fill="#053087"/>
<mask id="mask1_2314_20814" style="mask-type:alpha" maskUnits="userSpaceOnUse" x="7" y="4" width="7" height="7">
<path fill-rule="evenodd" clip-rule="evenodd" d="M10.5 11C12.433 11 14 9.433 14 7.5C14 5.567 12.433 4 10.5 4C8.567 4 7 5.567 7 7.5C7 9.433 8.567 11 10.5 11Z" fill="white"/>
</mask>
<g mask="url(#mask1_2314_20814)">
<path d="M6.58496 6.58519C7.13449 6.14019 8.90775 6.56174 10.563 7.0033C12.2183 7.44486 13.9448 8.37037 14.3843 8.9132" stroke="white" stroke-width="1.33333" stroke-linecap="square"/>
</g>
</g>
</svg>
