<svg width="21" height="15" viewBox="0 0 21 15" fill="none" xmlns="http://www.w3.org/2000/svg">
<rect width="21" height="15" rx="2" fill="white"/>
<mask id="mask0_2314_20779" style="mask-type:alpha" maskUnits="userSpaceOnUse" x="0" y="0" width="21" height="15">
<rect width="21" height="15" rx="2" fill="white"/>
</mask>
<g mask="url(#mask0_2314_20779)">
<path fill-rule="evenodd" clip-rule="evenodd" d="M0 10H21V0H0V10Z" fill="#E54252"/>
<path fill-rule="evenodd" clip-rule="evenodd" d="M0 15H21V10H0V15Z" fill="#5CBE6B"/>
<path fill-rule="evenodd" clip-rule="evenodd" d="M0 0H3V2.25L2.5 3L3 3.75V5.25L2.5 6L3 6.75V8.25L2.5 9L3 9.75V11.25L2.5 12L3 12.75V15H0V0Z" fill="white"/>
<path fill-rule="evenodd" clip-rule="evenodd" d="M-0.5 1.5L-1.5 3L-0.5 4.5L-1.5 6L-0.5 7.5L-1.5 9L-0.5 10.5L-1.5 12L-0.5 13.5L0.5 12L-0.5 10.5L0.5 9L-0.5 7.5L0.5 6L-0.5 4.5L0.5 3L-0.5 1.5Z" fill="#E54252"/>
<path fill-rule="evenodd" clip-rule="evenodd" d="M0.5 1.5L1.5 0L2.5 1.5L1.5 3L0.5 1.5ZM1.5 6L0.5 4.5L1.5 3L2.5 4.5L1.5 6ZM1.5 9L0.5 7.5L1.5 6L2.5 7.5L1.5 9ZM1.5 12L2.5 10.5L1.5 9L0.5 10.5L1.5 12ZM1.5 12L2.5 13.5L1.5 15L0.5 13.5L1.5 12Z" fill="#E54252"/>
</g>
</svg>
