<svg width="21" height="15" viewBox="0 0 21 15" fill="none" xmlns="http://www.w3.org/2000/svg">
<rect width="21" height="15" rx="2" fill="white"/>
<mask id="mask0_2314_20771" style="mask-type:alpha" maskUnits="userSpaceOnUse" x="0" y="0" width="21" height="15">
<rect width="21" height="15" rx="2" fill="white"/>
</mask>
<g mask="url(#mask0_2314_20771)">
<path fill-rule="evenodd" clip-rule="evenodd" d="M0 13H21V2H0V13Z" fill="#094995"/>
<path fill-rule="evenodd" clip-rule="evenodd" d="M0 2H21V0H0V2Z" fill="#D5182F"/>
<path fill-rule="evenodd" clip-rule="evenodd" d="M0 15H21V13H0V15Z" fill="#D5182F"/>
<path fill-rule="evenodd" clip-rule="evenodd" d="M10.5 12C12.9853 12 15 9.98528 15 7.5C15 5.01472 12.9853 3 10.5 3C8.01472 3 6 5.01472 6 7.5C6 9.98528 8.01472 12 10.5 12Z" fill="white"/>
<path fill-rule="evenodd" clip-rule="evenodd" d="M10.5 10.5C12.1569 10.5 13.5 9.15685 13.5 7.5C13.5 5.84315 12.1569 4.5 10.5 4.5C8.84315 4.5 7.5 5.84315 7.5 7.5C7.5 9.15685 8.84315 10.5 10.5 10.5Z" stroke="#118014" stroke-width="1.33333" stroke-linecap="round" stroke-dasharray="0.67 2"/>
</g>
</svg>
