<svg width="21" height="15" viewBox="0 0 21 15" fill="none" xmlns="http://www.w3.org/2000/svg">
<rect width="21" height="15" rx="2" fill="white"/>
<mask id="mask0_2314_22505" style="mask-type:alpha" maskUnits="userSpaceOnUse" x="0" y="0" width="21" height="15">
<rect width="21" height="15" rx="2" fill="white"/>
</mask>
<g mask="url(#mask0_2314_22505)">
<rect width="21" height="15" fill="#3370EB"/>
<path fill-rule="evenodd" clip-rule="evenodd" d="M6.0282 4.16921C6.0105 4.06302 6.04518 3.95482 6.1213 3.8787L7.90237 2.09763C7.96488 2.03512 8.04967 2 8.13807 2H9.29399C9.42025 2 9.53567 2.07133 9.59213 2.18426L9.90787 2.81574C9.96433 2.92867 10.0798 3 10.206 3H11.794C11.9202 3 12.0357 3.07133 12.0921 3.18426L13.4079 5.81574C13.4643 5.92867 13.5798 6 13.706 6H14.3333C14.608 6 14.7648 6.31359 14.6 6.53333L13.518 7.97595C13.506 7.99195 13.4955 8.009 13.4866 8.02688L13.0352 8.92962C13.012 8.9759 13 9.02694 13 9.07869V9.92131C13 9.97306 12.988 10.0241 12.9648 10.0704L12.5 11L12 12L11.5921 12.8157C11.5357 12.9287 11.4202 13 11.294 13H10.706C10.5798 13 10.4643 12.9287 10.4079 12.8157L10.0352 12.0704C10.012 12.0241 10 11.9731 10 11.9213V9.13807C10 9.04967 9.96488 8.96488 9.90237 8.90237L9.55564 8.55564C9.51905 8.51905 9.49148 8.47444 9.47512 8.42535L9.07597 7.22792C9.0306 7.09181 8.90322 7 8.75975 7H6.78238C6.61943 7 6.48037 6.8822 6.45358 6.72147L6.0282 4.16921Z" fill="white"/>
<path fill-rule="evenodd" clip-rule="evenodd" d="M14 10.3333C14 10.1492 14.1492 10 14.3333 10H14.6667C14.8508 10 15 10.1492 15 10.3333V10.9213C15 10.9731 14.988 11.0241 14.9648 11.0704L14.5854 11.8292C14.5331 11.9339 14.4261 12 14.309 12V12C14.1384 12 14 11.8616 14 11.691V10.3333Z" fill="white"/>
</g>
</svg>
