<svg width="21" height="15" viewBox="0 0 21 15" fill="none" xmlns="http://www.w3.org/2000/svg">
<rect width="21" height="15" rx="2" fill="white"/>
<mask id="mask0_2314_22520" style="mask-type:alpha" maskUnits="userSpaceOnUse" x="0" y="0" width="21" height="15">
<rect width="21" height="15" rx="2" fill="white"/>
</mask>
<g mask="url(#mask0_2314_22520)">
<rect width="21" height="15" fill="#3370EB"/>
<path fill-rule="evenodd" clip-rule="evenodd" d="M4.14907 6.20186C4.06674 6.36652 4.13348 6.56674 4.29814 6.64907L5.70186 7.35093C5.86652 7.43326 5.93326 7.63348 5.85093 7.79814L5.64907 8.20186C5.56674 8.36652 5.36652 8.43326 5.20186 8.35093L4.57038 8.03519C4.5241 8.01205 4.47306 8 4.42131 8H3.33333C3.14924 8 3 8.14924 3 8.33333V8.75975C3 8.90322 3.09181 9.0306 3.22792 9.07597L3.98833 9.32944C4.22341 9.4078 4.29384 9.70616 4.11863 9.88137L4.09763 9.90237C4.03512 9.96488 4 10.0497 4 10.1381V10.4459C4 10.4817 4.00578 10.5173 4.01711 10.5513L4.45634 11.869C4.48429 11.9529 4.54442 12.0222 4.62349 12.0617L5.28511 12.3926C5.41344 12.4567 5.56843 12.4316 5.66988 12.3301L6.5 11.5L6.67298 11.327C6.83386 11.1661 6.78985 10.8949 6.58635 10.7932L6.14556 10.5728C6.05635 10.5282 6 10.437 6 10.3373C6 10.1659 6.16099 10.0402 6.32719 10.0818L7.74751 10.4369C7.8959 10.474 8 10.6073 8 10.7603V11.3991C8 11.4649 8.01948 11.5292 8.05598 11.584L8.90104 12.8516C8.96287 12.9443 9.06694 13 9.17839 13H9.27432C9.41062 13 9.53319 12.917 9.58381 12.7905L10.2243 11.1892C10.3311 10.9221 10.7033 10.9067 10.832 11.1639L10.9758 11.4516C10.9918 11.4837 11.0129 11.5129 11.0382 11.5382L11.9618 12.4618C11.9871 12.4871 12.0163 12.5082 12.0484 12.5242L12.5176 12.7588C12.7392 12.8696 13 12.7084 13 12.4607V12.1381C13 12.0497 12.9649 11.9649 12.9024 11.9024L12.7357 11.7357C12.6055 11.6055 12.6055 11.3945 12.7357 11.2643L12.9024 11.0976C12.9649 11.0351 13.0497 11 13.1381 11H13.9213C13.9731 11 14.0241 10.988 14.0704 10.9648L14.8157 10.5921C14.9287 10.5357 15 10.4202 15 10.294V9.63807C15 9.54967 14.9649 9.46488 14.9024 9.40237L14.7357 9.2357C14.6055 9.10553 14.6055 8.89447 14.7357 8.7643L15.173 8.32702C15.3339 8.16614 15.6051 8.21015 15.7068 8.41365L15.9382 8.87639C15.9761 8.95215 16.0535 9 16.1382 9C16.3044 9 16.4125 8.82507 16.3382 8.67639L16.1491 8.29814C16.0667 8.13348 16.1335 7.93326 16.2981 7.85093L16.7019 7.64907C16.8665 7.56674 16.9333 7.36652 16.8509 7.20186L16.5617 6.62349C16.5222 6.54442 16.4529 6.48429 16.369 6.45634L15.5117 6.17056C15.2766 6.0922 15.2062 5.79384 15.3814 5.61863L15.9024 5.09763C15.9649 5.03512 16.0497 5 16.1381 5H17.294C17.4202 5 17.5357 4.92867 17.5921 4.81574L17.7816 4.43682C17.8866 4.22685 17.7474 3.97704 17.5136 3.95578L13.0898 3.55362C12.8556 3.53233 12.7525 3.24753 12.9188 3.08124C12.9708 3.02922 13 2.95867 13 2.88511V2.33333C13 2.14924 12.8508 2 12.6667 2H10.6381C10.5497 2 10.4649 2.03512 10.4024 2.09763L9.06529 3.43471C9.02257 3.47743 8.96904 3.50774 8.91043 3.52239L7 4L5.11963 4.47009C5.04243 4.48939 4.96088 4.48044 4.88971 4.44485L4.71978 4.35989C4.45416 4.22708 4.16057 4.48171 4.25448 4.76344L4.45634 5.36901C4.48429 5.45288 4.47779 5.54442 4.43825 5.62349L4.14907 6.20186ZM11 12.5C11 12.7761 10.7761 13 10.5 13C10.2239 13 10 12.7761 10 12.5C10 12.2239 10.2239 12 10.5 12C10.7761 12 11 12.2239 11 12.5ZM7.5 8C7.77614 8 8 7.77614 8 7.5C8 7.22386 7.77614 7 7.5 7C7.22386 7 7 7.22386 7 7.5C7 7.77614 7.22386 8 7.5 8ZM17 9.5V10L16.563 10.437C16.3552 10.6448 16.5024 11 16.7962 11C16.9211 11 17.0353 10.9294 17.0912 10.8177L17.5 10L17 9.5ZM17 9.5L17.2764 9.3618C17.4566 9.27168 17.3925 9 17.191 9C17.0855 9 17 9.08551 17 9.19098V9.5Z" fill="white"/>
</g>
</svg>
