<svg width="21" height="15" viewBox="0 0 21 15" fill="none" xmlns="http://www.w3.org/2000/svg">
<rect width="21" height="15" rx="2" fill="white"/>
<mask id="mask0_2314_22511" style="mask-type:alpha" maskUnits="userSpaceOnUse" x="0" y="0" width="21" height="15">
<rect width="21" height="15" rx="2" fill="white"/>
</mask>
<g mask="url(#mask0_2314_22511)">
<rect width="21" height="15" fill="#3370EB"/>
<path fill-rule="evenodd" clip-rule="evenodd" d="M12.7643 13.2643L12.0556 12.5556C12.019 12.519 11.9915 12.4744 11.9751 12.4253L11.5569 11.1708C11.5229 11.0688 11.4275 11 11.3199 11C11.1574 11 11.0382 11.1527 11.0776 11.3104L11.4542 12.8169C11.4826 12.9305 11.4493 13.0507 11.3665 13.1335L11.2357 13.2643C11.1055 13.3945 10.8945 13.3945 10.7643 13.2643L10.5976 13.0976C10.5351 13.0351 10.5 12.9503 10.5 12.8619V12.0787C10.5 12.0269 10.488 11.9759 10.4648 11.9296L10.0921 11.1843C10.0357 11.0713 9.92025 11 9.79399 11H8.57869C8.52694 11 8.4759 11.012 8.42962 11.0352L7.62349 11.4383C7.54442 11.4778 7.48429 11.5471 7.45634 11.631L7.04366 12.869C7.01571 12.9529 6.95558 13.0222 6.87651 13.0617L6.14907 13.4255C6.05523 13.4724 5.94477 13.4724 5.85093 13.4255L5.18426 13.0921C5.07133 13.0357 5 12.9202 5 12.794V11.3333C5 11.1492 5.14924 11 5.33333 11H6.16667C6.35076 11 6.5 10.8508 6.5 10.6667V10.0541C6.5 10.0183 6.50578 9.98267 6.51711 9.94868L6.92403 8.72792C6.9694 8.59181 7.09678 8.5 7.24025 8.5H7.92131C7.97306 8.5 8.0241 8.48795 8.07038 8.46481L8.92962 8.03519C8.9759 8.01205 9.02694 8 9.07869 8H9.66667C9.85076 8 10 7.85076 10 7.66667V7.63807C10 7.54967 10.0351 7.46488 10.0976 7.40237L10.173 7.32702C10.3339 7.16614 10.6051 7.21015 10.7068 7.41365L10.9079 7.81574C10.9643 7.92867 11.0798 8 11.206 8H12.2597C12.4032 8 12.5306 7.90819 12.576 7.77208L12.924 6.72792C12.9694 6.59181 13.0968 6.5 13.2403 6.5H13.75C13.8881 6.5 14 6.38807 14 6.25C14 6.11193 13.8881 6 13.75 6H13.3333C13.1492 6 13 5.85076 13 5.66667V5.07869C13 5.02694 13.012 4.9759 13.0352 4.92962L13.3926 4.21489C13.4567 4.08656 13.4316 3.93157 13.3301 3.83012L13.2357 3.7357C13.1055 3.60553 12.8945 3.60553 12.7643 3.7357L12.0976 4.40237C12.0351 4.46488 12 4.54967 12 4.63807V5.44591C12 5.48173 11.9942 5.51733 11.9829 5.55132L11.576 6.77208C11.5306 6.90819 11.4032 7 11.2597 7H11.1381C11.0497 7 10.9649 6.96488 10.9024 6.90237L10.5721 6.57206C10.5259 6.52592 10.5 6.46334 10.5 6.39809C10.5 6.21519 10.3075 6.09624 10.1439 6.17803L9.71489 6.39256C9.58656 6.45672 9.43157 6.43157 9.33011 6.33011L9.09763 6.09763C9.03512 6.03512 9 5.95033 9 5.86193V5.13807C9 5.04967 9.03512 4.96488 9.09763 4.90237L10 4L11.4444 2.55564C11.4809 2.51905 11.5256 2.49148 11.5747 2.47512L12.9487 2.01711C12.9827 2.00578 13.0183 2 13.0541 2H13.794C13.9202 2 14.0357 2.07133 14.0921 2.18426L14.4648 2.92962C14.488 2.9759 14.5 3.02694 14.5 3.07869V4.36193C14.5 4.45033 14.5351 4.53512 14.5976 4.59763L14.8543 4.85433C14.9436 4.94361 14.9748 5.07566 14.9349 5.19544L14.5805 6.25847C14.533 6.40107 14.5868 6.55784 14.7118 6.64123L16 7.5L16.6623 7.83113C16.8416 7.9208 16.9018 8.14735 16.7905 8.31418L16.056 9.41602C16.0195 9.47078 16 9.53512 16 9.60092V10.7597C16 10.9032 15.9082 11.0306 15.7721 11.076L14.631 11.4563C14.5471 11.4843 14.4778 11.5444 14.4383 11.6235L14.0242 12.4516C14.0082 12.4837 13.9871 12.5129 13.9617 12.5382L13.2357 13.2643C13.1055 13.3945 12.8945 13.3945 12.7643 13.2643ZM8.5 13C8.77614 13 9 12.7761 9 12.5C9 12.2239 8.77614 12 8.5 12C8.22386 12 8 12.2239 8 12.5C8 12.7761 8.22386 13 8.5 13ZM7 6.5C7 6.77614 6.77614 7 6.5 7C6.22386 7 6 6.77614 6 6.5C6 6.22386 6.22386 6 6.5 6C6.77614 6 7 6.22386 7 6.5Z" fill="white"/>
<path fill-rule="evenodd" clip-rule="evenodd" d="M7.46481 6.57038C7.48795 6.5241 7.5 6.47306 7.5 6.42131V6.07869C7.5 6.02694 7.48795 5.9759 7.46481 5.92962L7.2412 5.4824C7.13039 5.26077 7.29155 5 7.53934 5H7.66667C7.85076 5 8 5.14924 8 5.33333V6.42131C8 6.47306 8.01205 6.5241 8.03519 6.57038L8.2588 7.0176C8.36961 7.23923 8.20845 7.5 7.96065 7.5H7.53934C7.29155 7.5 7.13039 7.23923 7.2412 7.0176L7.46481 6.57038Z" fill="white"/>
</g>
</svg>
