<svg width="21" height="15" viewBox="0 0 21 15" fill="none" xmlns="http://www.w3.org/2000/svg">
<rect x="0.25" y="0.25" width="20.5" height="14.5" rx="1.75" fill="white" stroke="#F5F5F5" stroke-width="0.5"/>
<mask id="mask0_2314_20864" style="mask-type:alpha" maskUnits="userSpaceOnUse" x="0" y="0" width="21" height="15">
<rect x="0.25" y="0.25" width="20.5" height="14.5" rx="1.75" fill="white" stroke="white" stroke-width="0.5"/>
</mask>
<g mask="url(#mask0_2314_20864)">
<path fill-rule="evenodd" clip-rule="evenodd" d="M0 4H21V0H0V4Z" fill="#083D96"/>
<path fill-rule="evenodd" clip-rule="evenodd" d="M0 11H21V7H0V11Z" fill="#37AE39"/>
<path fill-rule="evenodd" clip-rule="evenodd" d="M0 15H21V11H0V15Z" fill="#FFD13F"/>
<path fill-rule="evenodd" clip-rule="evenodd" d="M8 15H13V0H8V15Z" fill="#E42346"/>
<path fill-rule="evenodd" clip-rule="evenodd" d="M3.5 2.585L2.61832 3.21353L2.94363 2.18077L2.07342 1.53647L3.15615 1.52672L3.5 0.5L3.84385 1.52672L4.92658 1.53647L4.05637 2.18077L4.38168 3.21353L3.5 2.585Z" fill="#FFD03B"/>
</g>
</svg>
