<svg width="21" height="15" viewBox="0 0 21 15" fill="none" xmlns="http://www.w3.org/2000/svg">
<rect width="21" height="15" rx="2" fill="white"/>
<mask id="mask0_2314_20884" style="mask-type:alpha" maskUnits="userSpaceOnUse" x="0" y="0" width="21" height="15">
<rect width="21" height="15" rx="2" fill="white"/>
</mask>
<g mask="url(#mask0_2314_20884)">
<rect width="21" height="15" fill="#FF0000"/>
<path fill-rule="evenodd" clip-rule="evenodd" d="M9 9H6.33333C6.14924 9 6 8.85076 6 8.66667V6.33333C6 6.14924 6.14924 6 6.33333 6H9V3.33333C9 3.14924 9.14924 3 9.33333 3H11.6667C11.8508 3 12 3.14924 12 3.33333V6H14.6667C14.8508 6 15 6.14924 15 6.33333V8.66667C15 8.85076 14.8508 9 14.6667 9H12V11.6667C12 11.8508 11.8508 12 11.6667 12H9.33333C9.14924 12 9 11.8508 9 11.6667V9Z" fill="white"/>
</g>
</svg>
