<svg width="21" height="15" viewBox="0 0 21 15" fill="none" xmlns="http://www.w3.org/2000/svg">
<rect width="21" height="15" rx="2" fill="white"/>
<mask id="mask0_2314_20895" style="mask-type:alpha" maskUnits="userSpaceOnUse" x="0" y="0" width="21" height="15">
<rect width="21" height="15" rx="2" fill="white"/>
</mask>
<g mask="url(#mask0_2314_20895)">
<rect width="21" height="15" fill="#F1361D"/>
<path fill-rule="evenodd" clip-rule="evenodd" d="M7.55447 2.32556L8.28081 2.44939L8.82556 2.94551L8.94939 2.21918L9.44551 1.67442L8.71918 1.5506L8.17442 1.05447L8.0506 1.78081L7.55447 2.32556ZM9.49999 4.86602L10.1294 4.48296L10.866 4.49999L10.483 3.87058L10.5 3.13397L9.87058 3.51703L9.13397 3.49999L9.51703 4.1294L9.49999 4.86602ZM8.64618 8.97814L8.03052 9.38294L8.02184 8.64618L7.61704 8.03052L8.35381 8.02184L8.96946 7.61704L8.97814 8.35381L9.38294 8.96946L8.64618 8.97814ZM9.18084 7.07357L9.91317 6.9924L10.5736 7.31914L10.4924 6.58682L10.8191 5.92642L10.0868 6.00759L9.42642 5.68084L9.50759 6.41317L9.18084 7.07357Z" fill="#FFDC42"/>
<path fill-rule="evenodd" clip-rule="evenodd" d="M5 6.17L3.23664 7.42705L3.88726 5.36155L2.14683 4.07295L4.31229 4.05345L5 2L5.68771 4.05345L7.85317 4.07295L6.11274 5.36155L6.76336 7.42705L5 6.17Z" fill="#FFDC42"/>
</g>
</svg>
