<svg width="21" height="15" viewBox="0 0 21 15" fill="none" xmlns="http://www.w3.org/2000/svg">
<rect width="21" height="15" rx="2" fill="white"/>
<mask id="mask0_2314_22495" style="mask-type:alpha" maskUnits="userSpaceOnUse" x="0" y="0" width="21" height="15">
<rect width="21" height="15" rx="2" fill="white"/>
</mask>
<g mask="url(#mask0_2314_22495)">
<rect width="21" height="15" fill="#3370EB"/>
<path fill-rule="evenodd" clip-rule="evenodd" d="M10 11L9.59213 10.1843C9.53567 10.0713 9.42025 10 9.29399 10H9.13807C9.04967 10 8.96488 9.96488 8.90237 9.90237L7.09763 8.09763C7.03512 8.03512 7 7.95033 7 7.86193V7.13807C7 7.04967 6.96488 6.96488 6.90237 6.90237L6.06529 6.06529C6.02257 6.02257 5.99226 5.96904 5.97761 5.91043L5.54438 4.17752C5.51674 4.06695 5.43453 3.97818 5.32641 3.94214L4.02247 3.50749C4.00751 3.5025 3.99292 3.49646 3.97881 3.48941L3.18426 3.09213C3.07133 3.03567 3 2.92025 3 2.79399V2.33333C3 2.14924 3.14924 2 3.33333 2H3.86193C3.95033 2 4.03512 2.03512 4.09763 2.09763L4.40237 2.40237C4.46488 2.46488 4.54967 2.5 4.63807 2.5H5.36193C5.45033 2.5 5.53512 2.46488 5.59763 2.40237L5.90237 2.09763C5.96488 2.03512 6.04967 2 6.13807 2H7.92131C7.97306 2 8.0241 2.01205 8.07038 2.03519L8.92962 2.46481C8.9759 2.48795 9.02694 2.5 9.07869 2.5H9.92131C9.97306 2.5 10.0241 2.48795 10.0704 2.46481L10.9296 2.03519C10.9759 2.01205 11.0269 2 11.0787 2H12.6667C12.8508 2 13 2.14924 13 2.33333V2.66667C13 2.85076 12.8508 3 12.6667 3H12.3333C12.1492 3 12 3.14924 12 3.33333V4.29399C12 4.42025 12.0713 4.53567 12.1843 4.59213L12.5176 4.7588C12.7392 4.86961 13 4.70845 13 4.46066V3.83333C13 3.64924 13.1492 3.5 13.3333 3.5H14.25C14.3881 3.5 14.5 3.61193 14.5 3.75V3.75C14.5 3.88807 14.6119 4 14.75 4H15.6667C15.8508 4 16 4.14924 16 4.33333V4.94591C16 4.98173 15.9942 5.01733 15.9829 5.05132L15.5249 6.42535C15.5085 6.47444 15.4809 6.51905 15.4444 6.55564L14.0382 7.96175C14.0129 7.98708 13.9918 8.01634 13.9758 8.04838L13.5352 8.92962C13.512 8.9759 13.5 9.02694 13.5 9.07869V9.69098C13.5 9.86165 13.3616 10 13.191 10V10C13.0739 10 12.9669 9.93387 12.9146 9.82918L12.5921 9.18426C12.5357 9.07133 12.4202 9 12.294 9H11.206C11.0798 9 10.9643 9.07133 10.9079 9.18426L10.5745 9.85093C10.5276 9.94477 10.5276 10.0552 10.5745 10.1491L10.9079 10.8157C10.9643 10.9287 11.0798 11 11.206 11H11.8619C11.9503 11 12.0351 11.0351 12.0976 11.0976L12.9024 11.9024C12.9649 11.9649 13 12.0497 13 12.1381V12.6667C13 12.8508 12.8508 13 12.6667 13H12.206C12.0798 13 11.9643 12.9287 11.9079 12.8157L11.5921 12.1843C11.5357 12.0713 11.4202 12 11.294 12H10.706C10.5798 12 10.4643 11.9287 10.4079 11.8157L10 11Z" fill="white"/>
</g>
</svg>
