<svg width="21" height="15" viewBox="0 0 21 15" fill="none" xmlns="http://www.w3.org/2000/svg">
<rect width="21" height="15" rx="2" fill="white"/>
<mask id="mask0_2314_22531" style="mask-type:alpha" maskUnits="userSpaceOnUse" x="0" y="0" width="21" height="15">
<rect width="21" height="15" rx="2" fill="white"/>
</mask>
<g mask="url(#mask0_2314_22531)">
<rect width="21" height="15" fill="#3370EB"/>
<path fill-rule="evenodd" clip-rule="evenodd" d="M10.1111 2.5C10.039 2.5 9.96881 2.52339 9.91111 2.56667L8.05385 3.95961C8.01831 3.98627 7.97779 4.00555 7.93469 4.01633L6.0355 4.49113C6.0119 4.49702 5.98902 4.50549 5.96727 4.51636L4.09938 5.45031C4.03487 5.48256 3.98256 5.53487 3.95031 5.59938L3.08651 7.32698C3.03301 7.43397 3.04095 7.56142 3.1073 7.66095L3.94401 8.91602C3.98052 8.97078 4 9.03512 4 9.10092V10.3619C4 10.4503 4.03512 10.5351 4.09763 10.5976L4.83011 11.3301C4.93157 11.4316 5.08656 11.4567 5.21489 11.3926L7.92962 10.0352C7.9759 10.012 8.02694 10 8.07869 10H9.87931C9.95729 10 10.0328 10.0273 10.0927 10.0773L12.9073 12.4227C12.9672 12.4727 13.0427 12.5 13.1207 12.5H14.8216C14.9331 12.5 15.0371 12.4443 15.099 12.3516L16.944 9.58397C16.9805 9.52922 17 9.46488 17 9.39908V7.60093C17 7.53512 16.9805 7.47078 16.944 7.41603L15 4.5L13.5971 2.16183C13.5369 2.06143 13.4284 2 13.3113 2H13.0445C12.8436 2 12.743 2.24295 12.885 2.38505C12.9537 2.4537 12.9707 2.55857 12.9273 2.64541L12.5921 3.31574C12.5357 3.42867 12.4202 3.5 12.294 3.5H11.206C11.0798 3.5 10.9643 3.42867 10.9079 3.31574L10.5921 2.68426C10.5357 2.57133 10.4202 2.5 10.294 2.5H10.1111ZM14.5 13H13.5L13.7643 13.2643C13.8945 13.3945 14.1055 13.3945 14.2357 13.2643L14.5 13Z" fill="white"/>
</g>
</svg>
