<svg width="21" height="15" viewBox="0 0 21 15" fill="none" xmlns="http://www.w3.org/2000/svg">
<rect width="21" height="15" rx="2" fill="white"/>
<mask id="mask0_2314_22500" style="mask-type:alpha" maskUnits="userSpaceOnUse" x="0" y="0" width="21" height="15">
<rect width="21" height="15" rx="2" fill="white"/>
</mask>
<g mask="url(#mask0_2314_22500)">
<rect width="21" height="15" fill="#3370EB"/>
<path fill-rule="evenodd" clip-rule="evenodd" d="M7.5 12.041C7.5 12.0138 7.50334 11.9866 7.50995 11.9602L8 10L8.47646 8.09417C8.49183 8.03267 8.48935 7.96806 8.4693 7.90791L8.04366 6.63099C8.01571 6.54712 7.95558 6.47779 7.87651 6.43825L7.18426 6.09213C7.07133 6.03567 7 5.92025 7 5.79399V4.07869C7 4.02694 7.01205 3.9759 7.03519 3.92962L7.5 3L7.90787 2.18426C7.96433 2.07133 8.07975 2 8.20601 2H10.6667C10.8508 2 11 2.14924 11 2.33333V2.66667C11 2.85076 11.1492 3 11.3333 3H11.6667C11.8508 3 12 3.14924 12 3.33333V3.79399C12 3.92025 12.0713 4.03567 12.1843 4.09213L13.8157 4.90787C13.9287 4.96433 14 5.07975 14 5.20601V5.92131C14 5.97306 13.988 6.0241 13.9648 6.07038L13.5396 6.92082C13.5136 6.97271 13.4746 7.01693 13.4263 7.0491L12.0737 7.9509C12.0254 7.98307 11.9864 8.02729 11.9604 8.07918L11.0396 9.92082C11.0136 9.97271 10.9746 10.0169 10.9263 10.0491L9.57365 10.9509C9.52539 10.9831 9.48635 11.0273 9.46041 11.0792L8.59213 12.8157C8.53567 12.9287 8.42025 13 8.29399 13H7.83333C7.64924 13 7.5 12.8508 7.5 12.6667V12.041Z" fill="white"/>
</g>
</svg>
