<svg width="21" height="15" viewBox="0 0 21 15" fill="none" xmlns="http://www.w3.org/2000/svg">
<rect x="0.25" y="0.25" width="20.5" height="14.5" rx="1.75" fill="white" stroke="#F5F5F5" stroke-width="0.5"/>
<mask id="mask0_2314_20959" style="mask-type:alpha" maskUnits="userSpaceOnUse" x="0" y="0" width="21" height="15">
<rect x="0.25" y="0.25" width="20.5" height="14.5" rx="1.75" fill="white" stroke="white" stroke-width="0.5"/>
</mask>
<g mask="url(#mask0_2314_20959)">
<path fill-rule="evenodd" clip-rule="evenodd" d="M0 3H21V0H0V3Z" fill="#0B389F"/>
<path fill-rule="evenodd" clip-rule="evenodd" d="M0 9H21V6H0V9Z" fill="#0B389F"/>
<path fill-rule="evenodd" clip-rule="evenodd" d="M0 15H21V12H0V15Z" fill="#0B389F"/>
<path fill-rule="evenodd" clip-rule="evenodd" d="M0 0L10 7.5L0 15V0Z" fill="#E12A43"/>
<path fill-rule="evenodd" clip-rule="evenodd" d="M3.5 8.26702L2.32443 9.11803L2.77052 7.73702L1.59789 6.88197L3.04916 6.87947L3.5 5.5L3.95084 6.87947L5.40211 6.88197L4.22948 7.73702L4.67557 9.11803L3.5 8.26702Z" fill="white"/>
</g>
</svg>
