<svg width="21" height="15" viewBox="0 0 21 15" fill="none" xmlns="http://www.w3.org/2000/svg">
<rect width="21" height="15" rx="2" fill="white"/>
<mask id="mask0_2314_20945" style="mask-type:alpha" maskUnits="userSpaceOnUse" x="0" y="0" width="21" height="15">
<rect width="21" height="15" rx="2" fill="white"/>
</mask>
<g mask="url(#mask0_2314_20945)">
<path fill-rule="evenodd" clip-rule="evenodd" d="M0 8H21V0H0V8Z" fill="#0C49AE"/>
<path fill-rule="evenodd" clip-rule="evenodd" d="M0 15H21V11H0V15Z" fill="#0C49AE"/>
<path fill-rule="evenodd" clip-rule="evenodd" d="M0 11H21V8H0V11Z" fill="white"/>
<path fill-rule="evenodd" clip-rule="evenodd" d="M0 10H21V9H0V10Z" fill="#CD232E"/>
<path fill-rule="evenodd" clip-rule="evenodd" d="M8 12.5C9.65685 12.5 11 11.1569 11 9.5C11 7.84315 9.65685 6.5 8 6.5C6.34315 6.5 5 7.84315 5 9.5C5 11.1569 6.34315 12.5 8 12.5Z" stroke="#F7D035" stroke-width="1.33333" stroke-linecap="round" stroke-dasharray="0.67 2"/>
</g>
</svg>
