<svg width="21" height="15" viewBox="0 0 21 15" fill="none" xmlns="http://www.w3.org/2000/svg">
<rect x="0.25" y="0.25" width="20.5" height="14.5" rx="1.75" fill="white" stroke="#F5F5F5" stroke-width="0.5"/>
<mask id="mask0_2314_20967" style="mask-type:alpha" maskUnits="userSpaceOnUse" x="0" y="0" width="21" height="15">
<rect x="0.25" y="0.25" width="20.5" height="14.5" rx="1.75" fill="white" stroke="white" stroke-width="0.5"/>
</mask>
<g mask="url(#mask0_2314_20967)">
<path fill-rule="evenodd" clip-rule="evenodd" d="M15 2.5C15.2723 2.36384 15.5487 2.67693 15.3798 2.93026L15.0504 3.42435C15.0171 3.47429 14.9743 3.51714 14.9243 3.55043L13.553 4.46466C13.5178 4.48816 13.4849 4.51509 13.455 4.54505V4.54505C13.2037 4.79631 13.2037 5.20369 13.455 5.45495L13.5286 5.5286C13.7889 5.78895 13.7889 6.21106 13.5286 6.4714L13.3311 6.66886C13.1334 6.86661 12.8313 6.91564 12.5811 6.79057V6.79057C12.2602 6.63009 11.8699 6.76019 11.7094 7.08114L11.6235 7.25301C11.5444 7.41116 11.4058 7.53141 11.238 7.58732L10.1026 7.96579C10.0347 7.98845 9.96347 8 9.89181 8H9.41202C9.15951 8 8.92867 8.14267 8.81574 8.36852L8.79814 8.40372C8.63348 8.73303 8.23303 8.86652 7.90372 8.70186L6.59676 8.04838C6.53267 8.01634 6.47417 7.97417 6.4235 7.9235L5.69526 7.19526C5.57024 7.07024 5.5 6.90067 5.5 6.72386V6.35355C5.5 6.15829 5.65829 6 5.85355 6V6C5.94732 6 6.03725 5.96275 6.10355 5.89645L6.80474 5.19526C6.92976 5.07024 7.09933 5 7.27614 5H7.51949C7.80645 5 8.06121 4.81638 8.15195 4.54415L8.31389 4.05832C8.42021 3.73936 8.74741 3.54948 9.07709 3.61542L10.853 3.9706C10.9498 3.98996 11.0497 3.98758 11.1454 3.96364L12.929 3.51775C12.9762 3.50595 13.0219 3.48903 13.0655 3.46727L14 3L15 2.5V2.5Z" fill="#E7832C"/>
<path fill-rule="evenodd" clip-rule="evenodd" d="M10.5 12C10.7761 12 11 11.7761 11 11.5C11 11.2239 10.7761 11 10.5 11C10.2239 11 10 11.2239 10 11.5C10 11.7761 10.2239 12 10.5 12Z" fill="#445128"/>
<path opacity="0.75" d="M12 11C12 11 13.5 10.5 14 9.5" stroke="#445128" stroke-width="1.33333" stroke-linecap="round"/>
<path opacity="0.75" d="M9 11C9 11 7.5 10.5 7 9.5" stroke="#445128" stroke-width="1.33333" stroke-linecap="round"/>
</g>
</svg>
