<svg width="21" height="15" viewBox="0 0 21 15" fill="none" xmlns="http://www.w3.org/2000/svg">
<rect width="21" height="15" rx="2" fill="white"/>
<mask id="mask0_2314_20992" style="mask-type:alpha" maskUnits="userSpaceOnUse" x="0" y="0" width="21" height="15">
<rect width="21" height="15" rx="2" fill="white"/>
</mask>
<g mask="url(#mask0_2314_20992)">
<path fill-rule="evenodd" clip-rule="evenodd" d="M0 6H21V0H0V6Z" fill="#108753"/>
<path fill-rule="evenodd" clip-rule="evenodd" d="M0 15H21V9H0V15Z" fill="#108753"/>
<path fill-rule="evenodd" clip-rule="evenodd" d="M12 15H9V9H0V6H9V0H12V6H21V9H12V15Z" fill="white"/>
<path fill-rule="evenodd" clip-rule="evenodd" d="M11 15H10V8H0V7H10V0H11V7H21V8H11V15Z" fill="#262626"/>
<path fill-rule="evenodd" clip-rule="evenodd" d="M10 15H9V7H0V6H9V0H10V6H21V7H10V15Z" fill="#FCD449"/>
<path fill-rule="evenodd" clip-rule="evenodd" d="M10.5 11C12.433 11 14 9.433 14 7.5C14 5.567 12.433 4 10.5 4C8.567 4 7 5.567 7 7.5C7 9.433 8.567 11 10.5 11Z" fill="url(#paint0_linear_2314_20992)"/>
<path fill-rule="evenodd" clip-rule="evenodd" d="M10.5 10C11.8807 10 13 8.88071 13 7.5C13 6.11929 11.8807 5 10.5 5C9.11929 5 8 6.11929 8 7.5C8 8.88071 9.11929 10 10.5 10Z" stroke="#0E673F" stroke-width="1.33333" stroke-linecap="round" stroke-dasharray="0.67 2.67"/>
<path fill-rule="evenodd" clip-rule="evenodd" d="M10.5 8.5C11.0523 8.5 11 8.05229 11 7.5C11 6.94772 11.0523 6.5 10.5 6.5C9.94773 6.5 10 6.94772 10 7.5C10 8.05229 9.94773 8.5 10.5 8.5Z" fill="#0E673F"/>
</g>
<defs>
<linearGradient id="paint0_linear_2314_20992" x1="7" y1="4" x2="7" y2="11" gradientUnits="userSpaceOnUse">
<stop stop-color="#E02C42"/>
<stop offset="1" stop-color="#D22036"/>
</linearGradient>
</defs>
</svg>
