<svg width="21" height="15" viewBox="0 0 21 15" fill="none" xmlns="http://www.w3.org/2000/svg">
<rect x="0.25" y="0.25" width="20.5" height="14.5" rx="1.75" fill="white" stroke="#F5F5F5" stroke-width="0.5"/>
<mask id="mask0_2314_21009" style="mask-type:alpha" maskUnits="userSpaceOnUse" x="0" y="0" width="21" height="15">
<rect x="0.25" y="0.25" width="20.5" height="14.5" rx="1.75" fill="white" stroke="white" stroke-width="0.5"/>
</mask>
<g mask="url(#mask0_2314_21009)">
<path fill-rule="evenodd" clip-rule="evenodd" d="M0 6H9V0H0V6Z" fill="#083D7A"/>
<path fill-rule="evenodd" clip-rule="evenodd" d="M12 15H21V9H12V15Z" fill="#083D7A"/>
<path fill-rule="evenodd" clip-rule="evenodd" d="M0 15H9V9H0V15Z" fill="#DF1E35"/>
<path fill-rule="evenodd" clip-rule="evenodd" d="M12 6H21V0H12V6Z" fill="#DF1E35"/>
<mask id="path-7-inside-1_2314_21009" fill="white">
<path fill-rule="evenodd" clip-rule="evenodd" d="M9.43935 6.43934C8.85357 7.02513 8.85357 7.97487 9.43935 8.56066C10.0251 9.14645 10.9749 9.14645 11.5607 8.56066C12.1465 7.97487 12.1465 7.02513 11.5607 6.43934"/>
</mask>
<path d="M8.96795 5.96794C8.12181 6.81407 8.12181 8.18593 8.96795 9.03206L9.91076 8.08926C9.58532 7.76382 9.58532 7.23618 9.91076 6.91074L8.96795 5.96794ZM8.96795 9.03206C9.81408 9.8782 11.1859 9.8782 12.0321 9.03206L11.0893 8.08926C10.7638 8.41469 10.2362 8.41469 9.91076 8.08926L8.96795 9.03206ZM12.0321 9.03206C12.8782 8.18593 12.8782 6.81407 12.0321 5.96794L11.0893 6.91074C11.4147 7.23618 11.4147 7.76382 11.0893 8.08926L12.0321 9.03206Z" fill="#0F6D1A" mask="url(#path-7-inside-1_2314_21009)"/>
<path fill-rule="evenodd" clip-rule="evenodd" d="M10.5 8C10.7761 8 11 7.77614 11 7.5C11 7.22386 10.7761 7 10.5 7C10.2239 7 10 7.22386 10 7.5C10 7.77614 10.2239 8 10.5 8Z" fill="#042F60"/>
</g>
</svg>
