<svg width="21" height="15" viewBox="0 0 21 15" fill="none" xmlns="http://www.w3.org/2000/svg">
<rect x="0.25" y="0.25" width="20.5" height="14.5" rx="1.75" fill="white" stroke="#F5F5F5" stroke-width="0.5"/>
<mask id="mask0_2314_21018" style="mask-type:alpha" maskUnits="userSpaceOnUse" x="0" y="0" width="21" height="15">
<rect x="0.25" y="0.25" width="20.5" height="14.5" rx="1.75" fill="white" stroke="white" stroke-width="0.5"/>
</mask>
<g mask="url(#mask0_2314_21018)">
<path fill-rule="evenodd" clip-rule="evenodd" d="M0 15H11V0H0V15Z" fill="#048345"/>
<path fill-rule="evenodd" clip-rule="evenodd" d="M13 8.28L11.8244 9.11803L12.2582 7.74103L11.0979 6.88197L12.5415 6.86897L13 5.5L13.4585 6.86897L14.9021 6.88197L13.7418 7.74103L14.1756 9.11803L13 8.28Z" fill="#E81B42"/>
<path fill-rule="evenodd" clip-rule="evenodd" d="M13.26 10.786C12.4889 11.539 11.4527 12 10.3132 12C7.93107 12 6 9.98528 6 7.5C6 5.01472 7.93107 3 10.3132 3C11.4527 3 12.4889 3.46101 13.26 4.214C12.7282 3.96084 12.1266 3.81818 11.4895 3.81818C9.32395 3.81818 7.56843 5.46659 7.56843 7.5C7.56843 9.53341 9.32395 11.1818 11.4895 11.1818C12.1266 11.1818 12.7282 11.0392 13.26 10.786Z" fill="#E81B42"/>
</g>
</svg>
