<svg width="21" height="15" viewBox="0 0 21 15" fill="none" xmlns="http://www.w3.org/2000/svg">
<rect width="21" height="15" rx="2" fill="white"/>
<mask id="mask0_2314_21032" style="mask-type:alpha" maskUnits="userSpaceOnUse" x="0" y="0" width="21" height="15">
<rect width="21" height="15" rx="2" fill="white"/>
</mask>
<g mask="url(#mask0_2314_21032)">
<path fill-rule="evenodd" clip-rule="evenodd" d="M0 11H21V7H0V11Z" fill="#0748AE"/>
<path fill-rule="evenodd" clip-rule="evenodd" d="M0 15H21V11H0V15Z" fill="#DE2035"/>
<path fill-rule="evenodd" clip-rule="evenodd" d="M0 7H21V0H0V7Z" fill="#FFD935"/>
<path fill-rule="evenodd" clip-rule="evenodd" d="M9.29996 6C8.8142 6.36488 8.5 6.94581 8.5 7.60012C8.5 8.70469 9.39543 9.60012 10.5 9.60012C11.6046 9.60012 12.5 8.70469 12.5 7.60012C12.5 6.94581 12.1858 6.36488 11.7 6L11 8.10012H10L9.29996 6Z" fill="#FFD935"/>
<path fill-rule="evenodd" clip-rule="evenodd" d="M10.5 5.5L11 8H10L10.5 5.5Z" fill="#5FC0DC"/>
<path opacity="0.66" d="M13 4.5L11.5 4L10.5 5L9.5 4L8 4.5" stroke="#3F2821" stroke-width="0.666667" stroke-linecap="round" stroke-linejoin="round"/>
</g>
</svg>
