<svg width="21" height="15" viewBox="0 0 21 15" fill="none" xmlns="http://www.w3.org/2000/svg">
<rect x="0.25" y="0.25" width="20.5" height="14.5" rx="1.75" fill="white" stroke="#F5F5F5" stroke-width="0.5"/>
<mask id="mask0_2314_21043" style="mask-type:alpha" maskUnits="userSpaceOnUse" x="0" y="0" width="21" height="15">
<rect x="0.25" y="0.25" width="20.5" height="14.5" rx="1.75" fill="white" stroke="white" stroke-width="0.5"/>
</mask>
<g mask="url(#mask0_2314_21043)">
<path fill-rule="evenodd" clip-rule="evenodd" d="M0 5H21V0H0V5Z" fill="#E41D33"/>
<path fill-rule="evenodd" clip-rule="evenodd" d="M0 15H21V10H0V15Z" fill="#262626"/>
<path d="M9.20186 7.14907L9.46066 7.66667H9.39907L9.3151 7.72265L8.85157 8.03167C8.63005 8.17935 8.33333 8.02055 8.33333 7.75432V6.66667C8.33333 6.48257 8.48257 6.33333 8.66667 6.33333H8.79399L9.20186 7.14907ZM10 7.66667H9.5141L9.79204 7.16071L9.79207 7.16064L9.79211 7.16058L9.79211 7.16057L9.79215 7.16049L9.79285 7.15924L9.79657 7.1526L9.81264 7.1246C9.82703 7.09986 9.84843 7.06382 9.87561 7.0203C9.93035 6.93264 10.0066 6.81757 10.0945 6.70414C10.1839 6.58874 10.2772 6.48569 10.3644 6.4145C10.4497 6.3449 10.4936 6.33489 10.4995 6.33354C10.5002 6.33337 10.5004 6.33333 10.5 6.33333C10.5157 6.33333 10.5677 6.34357 10.659 6.41654C10.7455 6.4858 10.8356 6.58641 10.9208 6.7C11.0046 6.81166 11.0756 6.92512 11.1261 7.01171C11.1512 7.05465 11.1707 7.09016 11.1837 7.11444L11.1981 7.14178L11.2014 7.14812L11.2019 7.14907L11.2019 7.14918L11.202 7.14926L11.202 7.14929L11.202 7.14936L11.4607 7.66667H11H10.6667V8V8.5C10.6667 8.59205 10.592 8.66667 10.5 8.66667C10.408 8.66667 10.3333 8.59205 10.3333 8.5V8V7.66667H10ZM11.6009 7.66667H11.5393L11.7981 7.14907L12.206 6.33333L12.3333 6.33333C12.5174 6.33333 12.6667 6.48257 12.6667 6.66667V7.75432C12.6667 8.02055 12.37 8.17935 12.1484 8.03167L11.6849 7.72265L11.6009 7.66667Z" fill="#F4B32E" fill-opacity="0.25" stroke="#C6A846" stroke-width="0.666667"/>
</g>
</svg>
