<svg width="21" height="15" viewBox="0 0 21 15" fill="none" xmlns="http://www.w3.org/2000/svg">
<rect width="21" height="15" rx="2" fill="white"/>
<mask id="mask0_2314_21049" style="mask-type:alpha" maskUnits="userSpaceOnUse" x="0" y="0" width="21" height="15">
<rect width="21" height="15" rx="2" fill="white"/>
</mask>
<g mask="url(#mask0_2314_21049)">
<path fill-rule="evenodd" clip-rule="evenodd" d="M21 0V7.5H0V0H21Z" fill="#29C53F"/>
<path fill-rule="evenodd" clip-rule="evenodd" d="M21 7.5V15.5H0V7.5H21Z" fill="#579DED"/>
<path fill-rule="evenodd" clip-rule="evenodd" d="M0 15L21 7.5L0 0V15Z" fill="#F42D56"/>
<path d="M9.33333 7.5C9.33333 9.06481 8.06481 10.3333 6.5 10.3333C4.93519 10.3333 3.66667 9.06481 3.66667 7.5C3.66667 5.93519 4.93519 4.66667 6.5 4.66667C8.06481 4.66667 9.33333 5.93519 9.33333 7.5Z" stroke="#FFC63C" stroke-width="1.33333"/>
<path fill-rule="evenodd" clip-rule="evenodd" d="M6 7C6.27614 7 6.5 6.77614 6.5 6.5C6.5 6.22386 6.27614 6 6 6C5.72386 6 5.5 6.22386 5.5 6.5C5.5 6.77614 5.72386 7 6 7Z" fill="#FFC63C"/>
<path fill-rule="evenodd" clip-rule="evenodd" d="M7 7.5C7.27614 7.5 7.5 7.27614 7.5 7C7.5 6.72386 7.27614 6.5 7 6.5C6.72386 6.5 6.5 6.72386 6.5 7C6.5 7.27614 6.72386 7.5 7 7.5Z" fill="#FFC63C"/>
<path fill-rule="evenodd" clip-rule="evenodd" d="M6.5 6.5C6.77614 6.5 7 6.27614 7 6C7 5.72386 6.77614 5.5 6.5 5.5C6.22386 5.5 6 5.72386 6 6C6 6.27614 6.22386 6.5 6.5 6.5Z" fill="#FFC63C"/>
<path fill-rule="evenodd" clip-rule="evenodd" d="M6 8C6.27614 8 6.5 7.77614 6.5 7.5C6.5 7.22386 6.27614 7 6 7C5.72386 7 5.5 7.22386 5.5 7.5C5.5 7.77614 5.72386 8 6 8Z" fill="#FFC63C"/>
<path fill-rule="evenodd" clip-rule="evenodd" d="M7 8.5C7.27614 8.5 7.5 8.27614 7.5 8C7.5 7.72386 7.27614 7.5 7 7.5C6.72386 7.5 6.5 7.72386 6.5 8C6.5 8.27614 6.72386 8.5 7 8.5Z" fill="#FFC63C"/>
<path fill-rule="evenodd" clip-rule="evenodd" d="M6 9C6.27614 9 6.5 8.77614 6.5 8.5C6.5 8.22386 6.27614 8 6 8C5.72386 8 5.5 8.22386 5.5 8.5C5.5 8.77614 5.72386 9 6 9Z" fill="#FFC63C"/>
<path fill-rule="evenodd" clip-rule="evenodd" d="M7 9.5C7.27614 9.5 7.5 9.27614 7.5 9C7.5 8.72386 7.27614 8.5 7 8.5C6.72386 8.5 6.5 8.72386 6.5 9C6.5 9.27614 6.72386 9.5 7 9.5Z" fill="#FFC63C"/>
</g>
</svg>
