<svg width="21" height="15" viewBox="0 0 21 15" fill="none" xmlns="http://www.w3.org/2000/svg">
<rect width="21" height="15" rx="2" fill="white"/>
<mask id="mask0_2314_21072" style="mask-type:alpha" maskUnits="userSpaceOnUse" x="0" y="0" width="21" height="15">
<rect width="21" height="15" rx="2" fill="white"/>
</mask>
<g mask="url(#mask0_2314_21072)">
<path fill-rule="evenodd" clip-rule="evenodd" d="M0 4H21V0H0V4Z" fill="#DD172C"/>
<path fill-rule="evenodd" clip-rule="evenodd" d="M0 15H21V11H0V15Z" fill="#DD172C"/>
<path fill-rule="evenodd" clip-rule="evenodd" d="M0 11H21V4H0V11Z" fill="#FFD133"/>
<path fill-rule="evenodd" clip-rule="evenodd" d="M5.5 7H6.5V7.5H5.5V7Z" fill="#FFEDB1"/>
<path d="M4.97453 6.83333H6.02547C6.22048 6.83333 6.37384 7.00001 6.35765 7.19435L6.25086 8.47577C6.21832 8.86629 5.89187 9.16667 5.5 9.16667C5.10813 9.16667 4.78168 8.86629 4.74914 8.47577L4.64235 7.19435C4.62616 7.00001 4.77952 6.83333 4.97453 6.83333Z" stroke="#A41517" stroke-width="0.666667"/>
<path fill-rule="evenodd" clip-rule="evenodd" d="M4.5 7.5H6.5V8H6L5.5 9L5 8H4.5V7.5Z" fill="#A41517"/>
<rect x="3" y="6" width="1" height="3.5" rx="0.5" fill="#A41517"/>
<rect x="7" y="6" width="1" height="3.5" rx="0.5" fill="#A41517"/>
<path d="M4.5 5.8C4.5 5.35817 4.85817 5 5.3 5H5.7C6.14183 5 6.5 5.35817 6.5 5.8V5.8C6.5 5.91046 6.41046 6 6.3 6H4.7C4.58954 6 4.5 5.91046 4.5 5.8V5.8Z" fill="#A41517"/>
</g>
</svg>
