<svg width="21" height="15" viewBox="0 0 21 15" fill="none" xmlns="http://www.w3.org/2000/svg">
<rect width="21" height="15" rx="2" fill="white"/>
<mask id="mask0_2314_21089" style="mask-type:alpha" maskUnits="userSpaceOnUse" x="0" y="0" width="21" height="15">
<rect width="21" height="15" rx="2" fill="white"/>
</mask>
<g mask="url(#mask0_2314_21089)">
<path fill-rule="evenodd" clip-rule="evenodd" d="M0 5H21V0H0V5Z" fill="#20AA46"/>
<path fill-rule="evenodd" clip-rule="evenodd" d="M0 15H21V10H0V15Z" fill="#E92F3B"/>
<path fill-rule="evenodd" clip-rule="evenodd" d="M0 10H21V5H0V10Z" fill="#FADF50"/>
<path fill-rule="evenodd" clip-rule="evenodd" d="M10.5 11C12.433 11 14 9.433 14 7.5C14 5.567 12.433 4 10.5 4C8.567 4 7 5.567 7 7.5C7 9.433 8.567 11 10.5 11Z" fill="#205CCA"/>
<path d="M10.6935 8.20357L10.5 8.06564L10.3065 8.20357L9.6475 8.67336L9.89065 7.90144L9.96205 7.67479L9.77107 7.53339L9.12063 7.05182L9.92991 7.04453L10.1675 7.04239L10.243 6.81706L10.5 6.04964L10.757 6.81706L10.8325 7.04239L11.0701 7.04453L11.8794 7.05182L11.2289 7.53339L11.038 7.67479L11.1093 7.90144L11.3525 8.67336L10.6935 8.20357Z" stroke="#FFDB3D" stroke-width="0.666667"/>
</g>
</svg>
