<svg width="21" height="15" viewBox="0 0 21 15" fill="none" xmlns="http://www.w3.org/2000/svg">
<rect width="21" height="15" rx="2" fill="white"/>
<mask id="mask0_2314_22467" style="mask-type:alpha" maskUnits="userSpaceOnUse" x="0" y="0" width="21" height="15">
<rect width="21" height="15" rx="2" fill="white"/>
</mask>
<g mask="url(#mask0_2314_22467)">
<rect width="21" height="15" fill="#043CAE"/>
<path fill-rule="evenodd" clip-rule="evenodd" d="M9.79291 3.20712L10.5 3.00001L11.2071 3.20712L11 2.50001L11.2071 1.79291L10.5 2.00001L9.79291 1.79291L10 2.50001L9.79291 3.20712ZM9.79291 13.2071L10.5 13L11.2071 13.2071L11 12.5L11.2071 11.7929L10.5 12L9.79291 11.7929L10 12.5L9.79291 13.2071ZM15.5 8.00002L14.7929 8.20712L15 7.50001L14.7929 6.79291L15.5 7.00001L16.2071 6.79291L16 7.50001L16.2071 8.20712L15.5 8.00002ZM4.79291 8.20712L5.50001 8.00002L6.20712 8.20712L6.00001 7.50001L6.20712 6.79291L5.50001 7.00001L4.79291 6.79291L5.00001 7.50001L4.79291 8.20712ZM14.8301 5.50001L14.123 5.70712L14.3301 5.00001L14.123 4.29291L14.8301 4.50001L15.5372 4.29291L15.3301 5.00001L15.5372 5.70712L14.8301 5.50001ZM5.46278 10.7071L6.16989 10.5L6.87699 10.7071L6.66989 10L6.87699 9.29291L6.16989 9.50001L5.46278 9.29291L5.66989 10L5.46278 10.7071ZM13 3.66989L12.2929 3.87699L12.5 3.16989L12.2929 2.46278L13 2.66989L13.7071 2.46278L13.5 3.16989L13.7071 3.87699L13 3.66989ZM7.29291 12.5372L8.00001 12.3301L8.70712 12.5372L8.50001 11.8301L8.70712 11.123L8.00001 11.3301L7.29291 11.123L7.50001 11.8301L7.29291 12.5372ZM14.8301 10.5L14.123 10.7071L14.3301 10L14.123 9.29291L14.8301 9.50001L15.5372 9.29291L15.3301 10L15.5372 10.7071L14.8301 10.5ZM5.46278 5.70712L6.16989 5.50001L6.87699 5.70712L6.66989 5.00001L6.87699 4.29291L6.16989 4.50001L5.46278 4.29291L5.66989 5.00001L5.46278 5.70712ZM13 12.3301L12.2929 12.5372L12.5 11.8301L12.2929 11.123L13 11.3301L13.7071 11.123L13.5 11.8301L13.7071 12.5372L13 12.3301ZM7.29291 3.87699L8.00001 3.66989L8.70712 3.87699L8.50001 3.16989L8.70712 2.46278L8.00001 2.66989L7.29291 2.46278L7.50001 3.16989L7.29291 3.87699Z" fill="#FFD429"/>
</g>
</svg>
