<svg width="21" height="15" viewBox="0 0 21 15" fill="none" xmlns="http://www.w3.org/2000/svg">
<rect width="21" height="15" rx="2" fill="white"/>
<mask id="mask0_2314_22605" style="mask-type:alpha" maskUnits="userSpaceOnUse" x="0" y="0" width="21" height="15">
<rect width="21" height="15" rx="2" fill="white"/>
</mask>
<g mask="url(#mask0_2314_22605)">
<rect width="21" height="15" fill="#07319C"/>
<path fill-rule="evenodd" clip-rule="evenodd" d="M13 7.5C13 6.80202 13 5.99577 13 5.33315C13 4.59677 13.597 4 14.3333 4H16.6667C17.403 4 18 4.59677 18 5.33315C18 5.99577 18 6.80202 18 7.5C18 10 15.5 11 15.5 11C15.5 11 13 10 13 7.5Z" fill="#0072C4"/>
<mask id="mask1_2314_22605" style="mask-type:alpha" maskUnits="userSpaceOnUse" x="13" y="4" width="5" height="7">
<path fill-rule="evenodd" clip-rule="evenodd" d="M13 7.5C13 6.80202 13 5.99577 13 5.33315C13 4.59677 13.597 4 14.3333 4H16.6667C17.403 4 18 4.59677 18 5.33315C18 5.99577 18 6.80202 18 7.5C18 10 15.5 11 15.5 11C15.5 11 13 10 13 7.5Z" fill="white"/>
</mask>
<g mask="url(#mask1_2314_22605)">
<path fill-rule="evenodd" clip-rule="evenodd" d="M14.1519 6.95078C13.6395 7.46833 14.6437 7.40269 14.6437 7.40269L15.3589 7.17369C15.3589 7.17369 15.6804 7.21259 15.8975 7.27802C16.0412 7.32137 16.4413 7.50001 16.4413 7.50001C16.4413 7.50001 17.2864 7.33131 16.9893 6.95078C16.6921 6.57025 14.6642 6.43323 14.1519 6.95078Z" fill="#005121"/>
<path fill-rule="evenodd" clip-rule="evenodd" d="M16.2824 6.41313C16.303 6.40847 16.351 6.40951 16.3689 6.43132C16.397 6.46542 16.4546 6.45409 16.4827 6.48694C16.5107 6.5199 16.5432 6.55028 16.5432 6.59713C16.5432 6.64399 16.5378 6.76018 16.5388 6.7857C16.5402 6.82504 16.547 6.83113 16.5874 6.83009C16.6362 6.82885 16.7036 6.82504 16.7057 6.7377C16.7071 6.67685 16.6466 6.63885 16.6289 6.42237C16.6554 6.39961 16.6791 6.37932 16.6702 6.34904C16.6613 6.31866 16.7204 6.30342 16.7146 6.2578C16.7086 6.21228 16.7736 6.18437 16.747 6.1338C16.7204 6.08313 16.7794 6.08066 16.7559 6.04009C16.7322 5.99961 16.7942 5.96409 16.7677 5.92875C16.7411 5.89323 16.8031 5.86037 16.7707 5.81732C16.7381 5.77428 16.7883 5.74894 16.7559 5.71599C16.7766 5.68313 16.7588 5.58942 16.6938 5.53628C16.6289 5.48304 16.5373 5.45523 16.4841 5.43494C16.3851 5.39723 16.2006 5.41466 16.0706 5.4299C15.9406 5.44504 15.6983 5.46028 15.6244 5.45018C15.5507 5.44009 15.3764 5.4299 15.239 5.45266C15.192 5.46047 15.1386 5.44637 15.1106 5.4198C15.0881 5.39856 15.0751 5.40085 15.0544 5.40209C15.0338 5.40332 15.0219 5.39694 15.0116 5.37161C14.9933 5.32704 14.9526 5.35771 14.9333 5.30199C14.9204 5.26475 14.8534 5.29694 14.8329 5.26532C14.8121 5.23371 14.7871 5.2299 14.7309 5.23371C14.728 5.21466 14.697 5.20075 14.6689 5.2058C14.6733 5.17418 14.6423 5.14885 14.5907 5.15009C14.5966 5.11085 14.5242 5.08047 14.4872 5.10456C14.4637 5.07542 14.4163 5.08171 14.4046 5.10456C14.3794 5.07542 14.2997 5.08428 14.2804 5.1159C14.2466 5.09694 14.1806 5.14351 14.186 5.21723C14.1874 5.23751 14.1888 5.25856 14.1549 5.26532C14.0914 5.27799 14.0546 5.34885 13.9998 5.35894C13.9452 5.36913 13.8906 5.38685 13.8802 5.41723C13.8699 5.44761 13.8891 5.47932 13.8684 5.49447C13.8478 5.5097 13.8817 5.52361 13.892 5.53113C13.9023 5.53875 13.9186 5.55142 13.9216 5.56913C13.9258 5.59428 13.9672 5.6018 14.0102 5.57418C14.0279 5.56285 14.0589 5.59704 14.1091 5.57294C14.1593 5.54894 14.2307 5.56161 14.2184 5.60085C14.2126 5.6198 14.2258 5.64009 14.2421 5.65904C14.2583 5.67799 14.2827 5.73523 14.2687 5.7679C14.248 5.81599 14.2893 5.84266 14.279 5.88561C14.2687 5.92875 14.2849 5.96799 14.2628 6.02618C14.2406 6.08437 14.2402 6.15723 14.2731 6.17809C14.3189 6.20723 14.2912 6.26494 14.3307 6.28951C14.3631 6.3097 14.344 6.35913 14.4046 6.37428C14.4651 6.38951 14.4297 6.42999 14.4931 6.43885C14.5567 6.4477 14.5788 6.49332 14.6452 6.48313C14.6942 6.4757 14.72 6.48761 14.7486 6.49885C14.7544 6.53942 14.7413 6.68828 14.7383 6.72628C14.7357 6.7599 14.7177 6.81351 14.7177 6.84656C14.7177 6.86675 14.759 6.8718 14.8063 6.8718C14.8534 6.8718 14.8742 6.85285 14.8623 6.7997C14.8506 6.74647 14.8477 6.61685 14.8507 6.5358C14.8917 6.55551 14.9307 6.58313 14.9289 6.61361C14.9259 6.66294 14.9267 6.75151 14.9184 6.79713C14.9127 6.83009 14.9214 6.88199 14.9244 6.91618C14.9274 6.92875 15.0071 6.92751 15.0397 6.91618C15.0721 6.90475 15.0721 6.87437 15.0691 6.73637C15.0677 6.66809 14.9952 6.59828 15.0869 6.56418C15.1312 6.5477 15.1932 6.5097 15.2169 6.47437C15.2404 6.43885 15.2922 6.45275 15.3291 6.47056C15.366 6.48828 15.4251 6.51532 15.4621 6.50342C15.5093 6.48828 15.5596 6.52618 15.6009 6.50342C15.6422 6.48066 15.6954 6.5199 15.7293 6.49209C15.7633 6.46418 15.8224 6.49075 15.8476 6.46418C15.8727 6.43761 15.976 6.47942 16.013 6.44399C16.0499 6.40847 16.1001 6.45409 16.1341 6.42751C16.143 6.42047 16.1536 6.41894 16.1651 6.4198C16.1638 6.4797 16.1526 6.57504 16.1503 6.60475C16.1477 6.63847 16.1297 6.69199 16.1297 6.72494C16.1297 6.74523 16.171 6.75028 16.2182 6.75028C16.2656 6.75028 16.2862 6.73132 16.2744 6.67818C16.2626 6.62504 16.2796 6.49428 16.2824 6.41313" fill="#A3A3A3"/>
<path fill-rule="evenodd" clip-rule="evenodd" d="M13.8924 5.49C13.9122 5.47561 13.8939 5.44571 13.9038 5.41695C13.9137 5.38828 13.966 5.37152 14.0183 5.362C14.0707 5.35238 14.106 5.28542 14.1669 5.27342C14.1993 5.26704 14.198 5.24714 14.1966 5.228C14.1914 5.15838 14.2546 5.11438 14.2871 5.13238C14.3054 5.10238 14.3819 5.094 14.4059 5.12152C14.4172 5.1 14.4624 5.094 14.4851 5.12152C14.5204 5.09885 14.5898 5.12752 14.5841 5.16457C14.6337 5.16342 14.6633 5.18733 14.6591 5.21723C14.686 5.21247 14.7157 5.22561 14.7186 5.24352C14.714 5.27295 14.7812 5.28047 14.7501 5.29952C14.7229 5.31619 14.697 5.30961 14.666 5.28685C14.635 5.264 14.5316 5.28428 14.5168 5.29571C14.502 5.30714 14.4858 5.31219 14.4739 5.30333C14.4621 5.29447 14.4341 5.28047 14.4208 5.2818C14.4074 5.28304 14.3794 5.28304 14.3631 5.25647C14.3469 5.2299 14.3056 5.22609 14.2982 5.23619C14.2909 5.24628 14.3144 5.28304 14.3381 5.29695C14.3617 5.31095 14.3499 5.33752 14.378 5.35266C14.3963 5.36266 14.3794 5.39695 14.3691 5.41723C14.3588 5.43752 14.3189 5.43114 14.3159 5.416C14.313 5.40085 14.3026 5.39066 14.279 5.41342C14.2553 5.43628 14.2052 5.4299 14.1933 5.42361C14.1816 5.41723 14.149 5.4059 14.1269 5.41219C14.1047 5.41857 14.1372 5.42866 14.1402 5.43752C14.1431 5.44638 14.1047 5.45019 14.0826 5.45019C14.0604 5.45019 14.053 5.46276 14.0663 5.46533C14.0797 5.4679 14.1312 5.47047 14.152 5.46028C14.1727 5.45019 14.2361 5.46028 14.2421 5.47933C14.248 5.49828 14.2052 5.5059 14.18 5.50333C14.1429 5.49961 14.0884 5.51981 14.0619 5.52609C14.0353 5.53247 13.9644 5.516 13.9363 5.52361C13.9083 5.53114 13.8807 5.50133 13.8924 5.49" fill="#A3A3A3"/>
<path fill-rule="evenodd" clip-rule="evenodd" d="M14.3676 5.64513C14.341 5.65523 14.3499 5.68561 14.3736 5.69828C14.3972 5.71094 14.4503 5.71599 14.4843 5.70971C14.5182 5.70333 14.5257 5.71352 14.5036 5.72618C14.4813 5.73875 14.5374 5.74132 14.533 5.76161C14.5287 5.7818 14.5537 5.77799 14.5773 5.77675C14.601 5.77552 14.632 5.76028 14.6586 5.74637C14.6851 5.73247 14.7043 5.74256 14.6792 5.76666C14.6542 5.79066 14.57 5.82113 14.5036 5.81733C14.437 5.81352 14.4016 5.82866 14.4163 5.85018C14.4311 5.87171 14.502 5.87552 14.5389 5.86409C14.5759 5.85275 14.57 5.87304 14.5419 5.88685C14.5138 5.90085 14.4739 5.90209 14.44 5.90085C14.406 5.89961 14.3764 5.92875 14.4208 5.94513C14.4651 5.96161 14.5242 5.95152 14.5463 5.96542C14.5686 5.97933 14.6364 5.9578 14.6379 5.9819C14.6393 6.0059 14.6187 6.01475 14.5788 6.01228C14.5389 6.00971 14.5507 6.02771 14.5803 6.03752C14.6069 6.04647 14.6542 6.04647 14.6792 6.0439C14.7043 6.04142 14.697 6.06666 14.6719 6.07552C14.6468 6.08437 14.5656 6.09704 14.5257 6.0958C14.4858 6.09456 14.5049 6.1199 14.5567 6.1199C14.7147 6.1199 14.7679 6.04513 14.8078 5.99323C14.8273 5.9678 14.8653 5.95399 14.8742 5.96923C14.8831 5.98437 14.8846 5.98818 14.8669 6.00085C14.8491 6.01352 14.8534 6.02113 14.886 6.02237C14.9184 6.02361 14.9658 6.01475 14.9939 6.00723C15.0219 5.99961 15.1046 6.04752 15.0367 6.04894C14.917 6.05152 14.7693 6.09456 14.7207 6.11228C14.6719 6.12999 14.5906 6.16333 14.5404 6.16161C14.5036 6.16037 14.4887 6.17428 14.5036 6.19075C14.5182 6.20723 14.5656 6.20723 14.5921 6.19961C14.6187 6.19199 14.6246 6.19961 14.6069 6.21475C14.5892 6.22999 14.5449 6.23628 14.5138 6.24142C14.4829 6.24647 14.4676 6.26628 14.4917 6.27428C14.5374 6.28952 14.4961 6.30342 14.5287 6.31104C14.5611 6.31866 14.5257 6.34266 14.5611 6.35028C14.5966 6.3579 14.6172 6.35409 14.6438 6.33637C14.6704 6.31866 14.6851 6.30847 14.7132 6.31104C14.7413 6.31361 14.7606 6.30085 14.7768 6.2819C14.793 6.26294 14.8477 6.22875 14.8653 6.24523C14.8831 6.26171 14.92 6.23123 14.9274 6.24771C14.9348 6.26418 14.9658 6.25409 14.9732 6.27685C14.9813 6.30218 15.016 6.30723 15.0397 6.29837C15.0632 6.28952 15.0824 6.26799 15.0824 6.23628C15.0824 6.20466 15.0913 6.19199 15.1002 6.22618C15.109 6.26037 15.1416 6.27047 15.1578 6.25409C15.174 6.23761 15.1799 6.18066 15.1681 6.15409C15.1563 6.12742 15.1548 6.09323 15.1667 6.08694C15.1784 6.08066 15.2066 6.13885 15.2183 6.16418C15.2302 6.18952 15.2611 6.1819 15.2627 6.15656C15.2641 6.13123 15.2922 6.11856 15.3129 6.13761C15.3336 6.15656 15.3218 6.2199 15.3277 6.25028C15.3336 6.28066 15.3911 6.24266 15.3971 6.25275C15.403 6.26294 15.4251 6.26542 15.434 6.2439C15.4429 6.22237 15.4636 6.20342 15.4753 6.21609C15.4872 6.22875 15.5049 6.25028 15.5122 6.27428C15.5197 6.29837 15.5462 6.31104 15.5624 6.28571C15.5787 6.26037 15.5906 6.21104 15.5847 6.17675C15.5787 6.14266 15.5891 6.12113 15.6038 6.13885C15.6186 6.15656 15.6171 6.20466 15.6186 6.2439C15.6201 6.28313 15.6688 6.27942 15.6688 6.22113C15.6688 6.19456 15.6836 6.18952 15.688 6.20466C15.6924 6.2199 15.6924 6.24523 15.6969 6.25656C15.7078 6.28466 15.7457 6.26923 15.75 6.25028C15.7544 6.23123 15.7471 6.16285 15.7382 6.13256C15.7293 6.10209 15.7471 6.08066 15.7619 6.09704C15.7767 6.11352 15.7796 6.15656 15.7826 6.20466C15.7854 6.25275 15.8164 6.25533 15.8328 6.24142C15.849 6.22742 15.849 6.18694 15.8417 6.1578C15.8342 6.12875 15.8579 6.12875 15.8682 6.14647C15.8786 6.16418 15.8963 6.15275 15.8933 6.13885C15.8904 6.12494 15.9051 6.11228 15.9199 6.13123C15.9347 6.15028 15.9302 6.19333 15.9229 6.22742C15.9154 6.26171 15.9598 6.2578 15.9804 6.22875C16.0011 6.19961 15.9908 6.1199 15.9731 6.09456C15.9553 6.06923 15.9569 6.03628 15.9671 6.00723C15.9776 5.97809 15.9968 5.97675 15.9982 5.98952C15.9997 6.00209 16.0086 6.02361 16.0248 6.04009C16.041 6.05656 16.0499 6.05913 16.0528 6.03371C16.0558 6.00847 16.0706 6.01475 16.0764 6.03371C16.0824 6.05275 16.0927 6.0679 16.1074 6.05152C16.1222 6.03504 16.1414 6.04771 16.1297 6.07304C16.1178 6.09837 16.1178 6.12113 16.1267 6.14647C16.1356 6.1718 16.1666 6.16799 16.1696 6.13885C16.1757 6.07828 16.1843 6.11856 16.1917 6.14513C16.199 6.1718 16.2212 6.17047 16.2257 6.15533C16.2301 6.14009 16.2346 6.13637 16.2346 6.15275C16.2346 6.16923 16.2419 6.18313 16.2611 6.18313C16.2803 6.18313 16.2759 6.15028 16.2847 6.12999C16.2936 6.10971 16.3098 6.13761 16.332 6.18437C16.3541 6.23123 16.3703 6.18694 16.4221 6.29333C16.4432 6.33666 16.4738 6.29961 16.4723 6.28447C16.4708 6.26923 16.4752 6.25913 16.5003 6.25913C16.5254 6.25913 16.5461 6.25409 16.5373 6.23761C16.5284 6.22113 16.5343 6.19075 16.5329 6.15656C16.5314 6.12237 16.5358 6.10342 16.5402 6.12237C16.5447 6.14133 16.5594 6.16799 16.583 6.1819C16.6067 6.1958 16.6229 6.1578 16.6037 6.1338C16.5846 6.10971 16.558 6.05275 16.5594 6.00466C16.5606 5.96923 16.5771 5.98056 16.5771 6.0059C16.5771 6.03123 16.5919 6.07685 16.6141 6.08694C16.6362 6.09704 16.6451 6.05018 16.6348 6.02618C16.6244 6.00209 16.6186 5.96923 16.6407 5.96285C16.6628 5.95656 16.6348 5.92999 16.6156 5.91094C16.5963 5.89199 16.5846 5.87304 16.6186 5.87428C16.6524 5.87552 16.6244 5.85399 16.6081 5.84009C16.5919 5.82618 16.5639 5.79828 16.6081 5.80209C16.6524 5.8059 16.6378 5.78313 16.62 5.77047C16.6022 5.7578 16.5919 5.73371 16.6229 5.73504C16.654 5.73628 16.6731 5.72104 16.6702 5.70971C16.6589 5.6658 16.5846 5.61475 16.5388 5.57552C16.493 5.53628 16.4191 5.49704 16.3792 5.49066C16.3393 5.48428 16.3379 5.50971 16.3482 5.52485C16.3586 5.53999 16.3792 5.55018 16.3822 5.53494C16.3851 5.5198 16.4161 5.53628 16.4309 5.55647C16.4457 5.57675 16.4959 5.60209 16.527 5.62485C16.558 5.64761 16.4856 5.63628 16.4501 5.6059C16.4299 5.58847 16.4323 5.60961 16.459 5.63371C16.4856 5.6578 16.4516 5.6679 16.4236 5.64761C16.3954 5.62742 16.3231 5.57047 16.2773 5.53371C16.2316 5.49704 16.2241 5.5059 16.2227 5.5299C16.2212 5.55399 16.2374 5.57047 16.267 5.59066C16.2966 5.61094 16.3334 5.64256 16.3616 5.66409C16.3896 5.68561 16.366 5.69952 16.3482 5.68428C16.3304 5.66913 16.27 5.62742 16.2346 5.59828C16.199 5.56913 16.1666 5.55523 16.1444 5.55904C16.1222 5.56285 16.1238 5.58437 16.1503 5.60713C16.1769 5.6299 16.2094 5.67294 16.2094 5.69828C16.2094 5.72361 16.1858 5.74132 16.1739 5.6958C16.1621 5.65018 16.106 5.59704 16.0647 5.55647C16.0233 5.51599 15.9819 5.50837 15.9509 5.51094C15.9199 5.51342 15.9213 5.5438 15.9213 5.5679C15.9213 5.5919 15.9007 5.57799 15.8992 5.56028C15.8978 5.54256 15.8741 5.52742 15.8608 5.52866C15.8476 5.5299 15.852 5.56666 15.8476 5.58313C15.8431 5.59952 15.8224 5.61475 15.8224 5.57675C15.8224 5.53875 15.7737 5.5198 15.753 5.51847C15.7323 5.51723 15.7131 5.52485 15.7234 5.54132C15.7338 5.55771 15.7293 5.60209 15.722 5.62742C15.7146 5.65266 15.6924 5.60837 15.688 5.56152C15.6836 5.51475 15.6142 5.4818 15.5654 5.49571C15.5167 5.50971 15.5537 5.53999 15.5448 5.56913C15.5359 5.59828 15.5226 5.57171 15.5181 5.54132C15.5138 5.51094 15.4901 5.4919 15.4577 5.49952C15.4251 5.50713 15.403 5.52228 15.4044 5.54256C15.4059 5.56285 15.4059 5.58056 15.3986 5.61342C15.3911 5.64637 15.3779 5.6299 15.3793 5.60837C15.3809 5.58685 15.3734 5.55142 15.366 5.53113C15.3587 5.51094 15.3468 5.5299 15.3498 5.55523C15.3528 5.58056 15.3453 5.63875 15.3336 5.67428C15.3218 5.70971 15.304 5.71094 15.3129 5.66285C15.3218 5.61475 15.2996 5.5438 15.2774 5.51094C15.2616 5.48742 15.2258 5.47932 15.2258 5.51218C15.2258 5.54513 15.2361 5.56913 15.2627 5.59323C15.2892 5.61723 15.2686 5.67675 15.242 5.70847C15.2153 5.74009 15.2169 5.69447 15.2258 5.66028C15.2346 5.62609 15.1859 5.61475 15.1667 5.60837C15.1474 5.60209 15.1873 5.5679 15.1962 5.52228C15.2006 5.4998 15.1947 5.48561 15.177 5.48428C15.1592 5.48304 15.112 5.52609 15.0913 5.55771C15.0972 5.52485 15.0913 5.49571 15.0736 5.49571C15.0559 5.49571 15.0367 5.52742 15.0234 5.55018C15.0101 5.57294 14.9968 5.56028 15.0101 5.53628C15.0234 5.51218 15.044 5.44761 15.0174 5.43371C14.9909 5.4198 14.9672 5.47675 14.9392 5.46656C14.9233 5.46085 14.9451 5.42485 14.954 5.40837C14.9628 5.3919 14.9451 5.37923 14.9052 5.40961C14.8653 5.44009 14.8477 5.48942 14.8372 5.5198C14.827 5.55018 14.7561 5.59952 14.7177 5.62609C14.6792 5.65266 14.663 5.64256 14.6822 5.63113C14.7014 5.6198 14.7398 5.58437 14.759 5.57047C14.7782 5.55647 14.7693 5.54828 14.7324 5.57228C14.6956 5.59637 14.6283 5.64009 14.5596 5.65523C14.5192 5.66418 14.5138 5.65656 14.5537 5.64513C14.5936 5.63371 14.6851 5.57923 14.7073 5.55399C14.7212 5.53809 14.6851 5.55142 14.6674 5.55523C14.6498 5.55904 14.635 5.55399 14.6704 5.54132C14.7058 5.52866 14.8181 5.42866 14.8418 5.3919C14.8653 5.35523 14.8447 5.34123 14.8299 5.34256C14.8151 5.3438 14.7944 5.35266 14.7989 5.33752C14.8033 5.32228 14.793 5.30199 14.7738 5.30837C14.7546 5.31466 14.7561 5.35142 14.7487 5.37161C14.7413 5.3919 14.6999 5.41856 14.6733 5.41856C14.6468 5.41856 14.6099 5.42361 14.5818 5.44256C14.5537 5.46152 14.5404 5.4438 14.5537 5.42866C14.567 5.41342 14.5966 5.40961 14.6261 5.40837C14.6557 5.40713 14.6881 5.40332 14.7132 5.37923C14.7383 5.35523 14.7398 5.33618 14.7207 5.33494C14.7014 5.33371 14.6689 5.31218 14.6586 5.30332C14.6061 5.25828 14.51 5.32104 14.4724 5.35771C14.4518 5.37799 14.3809 5.43628 14.3588 5.45142C14.3366 5.46656 14.3454 5.48809 14.3823 5.45904C14.4193 5.4299 14.4311 5.45018 14.3972 5.47171C14.3631 5.49323 14.3381 5.52485 14.3499 5.53628C14.3617 5.54761 14.4074 5.53371 14.4326 5.5198C14.4577 5.5059 14.4696 5.53999 14.4074 5.55142C14.3658 5.55913 14.3512 5.5738 14.3839 5.57552C14.409 5.57675 14.4473 5.56666 14.4829 5.54894C14.5182 5.53113 14.5463 5.54132 14.5168 5.55904C14.4872 5.57675 14.4222 5.60085 14.3898 5.60085C14.3626 5.60085 14.3942 5.63504 14.3676 5.64513Z" fill="white"/>
<path fill-rule="evenodd" clip-rule="evenodd" d="M14.5389 5.36217C14.5745 5.32517 14.6055 5.30897 14.6379 5.33557C14.6673 5.35967 14.6705 5.37017 14.6335 5.36217C14.5966 5.35417 14.5715 5.36217 14.5493 5.38607C14.5271 5.41007 14.502 5.40067 14.5389 5.36217" fill="#A3A3A3"/>
<path fill-rule="evenodd" clip-rule="evenodd" d="M13.9541 5.45615C13.9807 5.42955 14.0234 5.42955 14.0427 5.40035C14.0619 5.37105 14.0826 5.38175 14.0589 5.40965C14.0353 5.43755 13.9896 5.44295 13.9703 5.46285C13.9511 5.48275 13.9408 5.46945 13.9541 5.45615" fill="#A3A3A3"/>
<path fill-rule="evenodd" clip-rule="evenodd" d="M14.1196 5.35451C14.1356 5.35231 14.1668 5.33321 14.186 5.31061C14.2052 5.28801 14.2466 5.28001 14.2716 5.30661C14.2967 5.33321 14.31 5.34251 14.3233 5.34791C14.3366 5.35321 14.3366 5.37051 14.3159 5.37571C14.2952 5.38111 14.2672 5.38511 14.2524 5.37841C14.2377 5.37181 14.2154 5.36651 14.1978 5.37051C14.18 5.37441 14.1727 5.36651 14.1874 5.35981C14.2022 5.35321 14.2199 5.33321 14.2288 5.32521C14.2377 5.31731 14.2612 5.32391 14.248 5.33191C14.2347 5.33991 14.2406 5.35711 14.2539 5.36381C14.2672 5.37051 14.2938 5.37051 14.3056 5.35851C14.2879 5.34121 14.2583 5.31861 14.2466 5.31201C14.2347 5.30531 14.2243 5.30261 14.2096 5.31861C14.1948 5.33461 14.1593 5.37311 14.1254 5.37181C14.0914 5.37051 14.1003 5.35711 14.1196 5.35451" fill="#A3A3A3"/>
<path fill-rule="evenodd" clip-rule="evenodd" d="M15.0529 5.59299C15.0398 5.61129 15.0278 5.63489 15.0263 5.65349C15.0249 5.67209 15.0419 5.68479 15.044 5.66149C15.0462 5.63819 15.0484 5.62429 15.0669 5.60699C15.0854 5.58969 15.0677 5.57239 15.0529 5.59299" fill="#A3A3A3"/>
<path fill-rule="evenodd" clip-rule="evenodd" d="M14.872 5.59258C14.8873 5.58638 14.9133 5.57198 14.9259 5.55868C14.9385 5.54548 14.9466 5.55408 14.934 5.56868C14.9215 5.58328 14.8927 5.60058 14.8793 5.60458C14.8661 5.60858 14.8558 5.59928 14.872 5.59258" fill="#A3A3A3"/>
<path fill-rule="evenodd" clip-rule="evenodd" d="M14.8949 5.66657C14.8737 5.69209 14.79 5.75276 14.7649 5.76409C14.7398 5.77552 14.7487 5.792 14.7768 5.78314C14.7561 5.79952 14.7102 5.82619 14.6808 5.83371C14.6512 5.84133 14.6452 5.86409 14.6896 5.85019C14.7339 5.83628 14.7959 5.79952 14.8121 5.78314C14.8285 5.76666 14.8078 5.75904 14.8329 5.74133C14.858 5.72361 14.9045 5.69123 14.9111 5.678C14.9215 5.6578 14.9097 5.64885 14.8949 5.66657" fill="#A3A3A3"/>
<path fill-rule="evenodd" clip-rule="evenodd" d="M14.8033 5.87304C14.835 5.85761 14.8941 5.80304 14.9111 5.7717C14.9214 5.75275 14.9421 5.75523 14.9259 5.78437C14.9097 5.81351 14.8491 5.86542 14.8284 5.87932C14.8078 5.89323 14.7693 5.88942 14.8033 5.87304" fill="#A3A3A3"/>
<path fill-rule="evenodd" clip-rule="evenodd" d="M15.4753 5.57293C15.4667 5.59074 15.465 5.63245 15.468 5.65264C15.4709 5.67293 15.4887 5.68817 15.4857 5.65779C15.4828 5.6274 15.4828 5.59702 15.493 5.58817C15.5035 5.57921 15.4901 5.54255 15.4753 5.57293" fill="#A3A3A3"/>
<path fill-rule="evenodd" clip-rule="evenodd" d="M15.6556 5.64762C15.6706 5.66143 15.6777 5.72619 15.6762 5.75019C15.6748 5.77429 15.6999 5.77429 15.6983 5.7401C15.6969 5.70591 15.6939 5.66286 15.6807 5.6401C15.6673 5.61724 15.6349 5.62867 15.6556 5.64762" fill="#A3A3A3"/>
<path fill-rule="evenodd" clip-rule="evenodd" d="M15.8136 5.68943C15.8227 5.706 15.8342 5.73752 15.8342 5.76028C15.8342 5.78314 15.8534 5.77295 15.8549 5.74638C15.8563 5.71981 15.852 5.69705 15.8417 5.67933C15.8313 5.66162 15.8002 5.66533 15.8136 5.68943" fill="#A3A3A3"/>
<path fill-rule="evenodd" clip-rule="evenodd" d="M15.9111 5.66962C15.903 5.64922 15.8905 5.63102 15.8815 5.63372C15.8727 5.63642 15.8786 5.65502 15.8905 5.67492C15.9021 5.69492 15.9199 5.69222 15.9111 5.66962" fill="#A3A3A3"/>
<path fill-rule="evenodd" clip-rule="evenodd" d="M15.2937 5.81094C15.2892 5.86399 15.2611 5.91094 15.2272 5.92742C15.1932 5.9439 15.1991 5.97047 15.2405 5.9439C15.2819 5.91733 15.3129 5.87171 15.3218 5.83123C15.3306 5.79066 15.2967 5.77552 15.2937 5.81094" fill="#A3A3A3"/>
<path fill-rule="evenodd" clip-rule="evenodd" d="M15.2198 5.78693C15.2021 5.80465 15.1918 5.84265 15.1918 5.8717C15.1918 5.90084 15.2036 5.87931 15.2066 5.86284C15.2096 5.84636 15.2153 5.8236 15.2302 5.81598C15.2449 5.80836 15.2376 5.76922 15.2198 5.78693" fill="#A3A3A3"/>
<path fill-rule="evenodd" clip-rule="evenodd" d="M16.4989 5.82361C16.5145 5.84923 16.5373 5.89075 16.5447 5.91475C16.5521 5.93884 16.5343 5.94513 16.5285 5.92361C16.5225 5.90208 16.4945 5.85399 16.4841 5.83751C16.4738 5.82113 16.4811 5.79446 16.4989 5.82361" fill="#A3A3A3"/>
<path d="M12 7C12 7 13.7009 7.50535 13.988 7.50535C14.0687 7.50535 15.1705 7.25267 15.5008 7.25267C15.6243 7.25267 16.7648 7.42576 17.0625 7.50535C17.3603 7.58494 19.0016 7 19.0016 7" stroke="white" stroke-width="0.666667" stroke-linecap="round" stroke-linejoin="round"/>
<path d="M12 8C12 8 13.7009 8.50535 13.988 8.50535C14.0687 8.50535 15.1705 8.25267 15.5008 8.25267C15.6243 8.25267 16.7648 8.42576 17.0625 8.50535C17.3603 8.58494 19.0016 8 19.0016 8" stroke="white" stroke-width="0.666667" stroke-linecap="round" stroke-linejoin="round"/>
<path d="M12 10C12 10 13.7009 10.5053 13.988 10.5053C14.0687 10.5053 14.7255 10.0964 15.5008 10.0964C16.2761 10.0964 16.7648 10.4258 17.0625 10.5053C17.3603 10.5849 19.0016 10 19.0016 10L24.3846 10.861" stroke="white" stroke-width="1.33333" stroke-linecap="round" stroke-linejoin="round"/>
</g>
<path d="M13.3333 7.5V7.43425V7.36792V7.30104V7.23367V7.16585V7.09763V7.02904V6.96015V6.9256V6.89099V6.82161V6.75206V6.68238V6.66494V6.66059V6.65623V6.64751V6.61262V6.54282V6.53846V6.5341V6.52974V6.52537V6.52101V6.51665V6.51229V6.50793V6.50357V6.4992V6.49484V6.49048V6.48612V6.48176V6.4774V6.47304V6.46868V6.46432V6.45996V6.4556V6.45124V6.44688V6.44253V6.43817V6.43381V6.42945V6.42509V6.42074V6.41638V6.41203V6.40767V6.40331V6.39896V6.3946V6.39025V6.3859V6.38154V6.37719V6.37284V6.36849V6.36414V6.35979V6.35543V6.35109V6.34674V6.34239V6.33804V6.33369V6.32934V6.325V6.32065V6.31631V6.31196V6.30762V6.30328V6.29893V6.29459V6.29025V6.28591V6.28157V6.27723V6.27289V6.26856V6.26422V6.25988V6.25555V6.25121V6.24688V6.24255V6.23821V6.23388V6.22955V6.22522V6.2209V6.21657V6.21224V6.20791V6.20359V6.19927V6.19494V6.19062V6.1863V6.18198V6.17766V6.17334V6.16902V6.16471V6.16039V6.15608V6.15176V6.14745V6.14314V6.13883V6.13452V6.13021V6.12591V6.1216V6.1173V6.11299V6.10869V6.10439V6.10009V6.09579V6.0915V6.0872V6.0829V6.07861V6.07432V6.07003V6.06574V6.06145V6.05716V6.05287V6.04859V6.04431V6.04002V6.03574V6.03146V6.02719V6.02291V6.01863V6.01436V6.01009V6.00582V6.00155V5.99728V5.99301V5.98875V5.98448V5.98022V5.97596V5.9717V5.96744V5.96319V5.95893V5.95468V5.95043V5.94618V5.94193V5.93769V5.93344V5.9292V5.92496V5.92072V5.85311V5.83628V5.81948V5.78598V5.71936V5.65331V5.58787V5.52309V5.45901V5.39568V5.33315C13.3333 4.78092 13.781 4.33333 14.3333 4.33333H16.6667C17.219 4.33333 17.6667 4.78092 17.6667 5.33315V5.33703V5.34092V5.34481V5.34871V5.3526V5.3565V5.36041V5.36431V5.36822V5.37214V5.37605V5.37997V5.3839V5.38782V5.39175V5.39568V5.39962V5.40356V5.4075V5.41144V5.41539V5.41934V5.42329V5.42725V5.43121V5.43517V5.43914V5.44311V5.44708V5.45105V5.45503V5.45901V5.463V5.46698V5.47097V5.47496V5.47896V5.48296V5.48696V5.49096V5.49497V5.49898V5.50299V5.507V5.51102V5.51504V5.51907V5.52309V5.52712V5.53115V5.53519V5.53922V5.54326V5.5473V5.55135V5.5554V5.55945V5.5635V5.56756V5.57161V5.57568V5.57974V5.5838V5.58787V5.59194V5.59602V5.60009V5.60417V5.60825V5.61234V5.61642V5.62051V5.6246V5.6287V5.63279V5.63689V5.64099V5.6451V5.6492V5.65331V5.65742V5.66154V5.66565V5.66977V5.67389V5.67801V5.68214V5.68626V5.69039V5.69452V5.69866V5.70279V5.70693V5.71107V5.71522V5.71936V5.72351V5.72766V5.73181V5.73596V5.74012V5.74428V5.74844V5.7526V5.75677V5.76093V5.7651V5.76927V5.77345V5.77762V5.7818V5.78598V5.79016V5.79434V5.79853V5.80271V5.8069V5.81109V5.81529V5.81948V5.82368V5.82788V5.83208V5.83628V5.84048V5.84469V5.8489V5.85311V5.85732V5.86154V5.86575V5.86997V5.87419V5.87841V5.88263V5.88686V5.89108V5.89531V5.89954V5.90377V5.90801V5.91224V5.91648V5.92072V5.92496V5.9292V5.93344V5.93769V5.94193V5.94618V5.95043V5.95468V5.95893V5.96319V5.96745V5.9717V5.97596V5.98022V5.98448V5.98875V5.99301V5.99728V6.00155V6.00582V6.01009V6.01436V6.01863V6.02291V6.02719V6.03146V6.03574V6.04002V6.04431V6.04859V6.05287V6.05716V6.06145V6.06574V6.07003V6.07432V6.07861V6.0829V6.0872V6.0915V6.09579V6.10009V6.10439V6.10869V6.11299V6.1173V6.1216V6.12591V6.13021V6.13452V6.13883V6.14314V6.14745V6.15176V6.15608V6.16039V6.16471V6.16902V6.17334V6.17766V6.18198V6.1863V6.19062V6.19494V6.19927V6.20359V6.20791V6.21224V6.21657V6.2209V6.22522V6.22955V6.23388V6.23821V6.24255V6.24688V6.25121V6.25555V6.25988V6.26422V6.26856V6.27289V6.27723V6.28157V6.28591V6.29025V6.29459V6.29893V6.30328V6.30762V6.31196V6.31631V6.32065V6.325V6.32935V6.33369V6.33804V6.34239V6.34674V6.35109V6.35544V6.35979V6.36414V6.36849V6.37284V6.37719V6.38154V6.3859V6.39025V6.3946V6.39896V6.40331V6.40767V6.41203V6.41638V6.42074V6.42509V6.42945V6.43381V6.43817V6.44253V6.44688V6.45124V6.4556V6.45996V6.46432V6.46868V6.47304V6.4774V6.48176V6.48612V6.49048V6.49484V6.4992V6.50357V6.50793V6.51229V6.51665V6.52101V6.52538V6.52974V6.5341V6.53846V6.54282V6.54719V6.55155V6.55591V6.56027V6.56464V6.569V6.57336V6.57772V6.58209V6.58645V6.59081V6.59517V6.59953V6.6039V6.60826V6.61262V6.61698V6.62134V6.6257V6.63006V6.63442V6.63879V6.64315V6.64751V6.65187V6.65623V6.66059V6.66494V6.6693V6.67366V6.67802V6.68238V6.68674V6.69109V6.69545V6.69981V6.70416V6.70852V6.71288V6.71723V6.72159V6.72594V6.73029V6.73465V6.739V6.74335V6.74771V6.75206V6.75641V6.76076V6.76511V6.76946V6.77381V6.77816V6.78251V6.78685V6.7912V6.79555V6.79989V6.80424V6.80858V6.81292V6.81727V6.82161V6.82595V6.83029V6.83463V6.83897V6.84331V6.84765V6.85199V6.85632V6.86066V6.865V6.86933V6.87366V6.878V6.88233V6.88666V6.89099V6.89532V6.89965V6.90397V6.9083V6.91263V6.91695V6.92128V6.9256V6.92992V6.93424V6.93856V6.94288V6.9472V6.95152V6.95583V6.96015V6.96446V6.96878V6.97309V6.9774V6.98171V6.98602V6.99033V6.99463V6.99894V7.00324V7.00754V7.01185V7.01615V7.02045V7.02475V7.02904V7.03334V7.03763V7.04193V7.04622V7.05051V7.0548V7.05909V7.06338V7.06766V7.07195V7.07623V7.08051V7.08479V7.08907V7.09335V7.09763V7.1019V7.10617V7.11045V7.11472V7.11899V7.12326V7.12752V7.13179V7.13605V7.14031V7.14457V7.14883V7.15309V7.15734V7.1616V7.16585V7.1701V7.17435V7.1786V7.18285V7.18709V7.19133V7.19558V7.19982V7.20405V7.20829V7.21252V7.21676V7.22099V7.22522V7.22945V7.23367V7.2379V7.24212V7.24634V7.25056V7.25478V7.25899V7.26321V7.26742V7.27163V7.27584V7.28004V7.28425V7.28845V7.29265V7.29685V7.30104V7.30524V7.30943V7.31362V7.31781V7.322V7.32618V7.33037V7.33455V7.33873V7.3429V7.34708V7.35125V7.35542V7.35959V7.36376V7.36792V7.37208V7.37624V7.3804V7.38456V7.38871V7.39286V7.39701V7.40116V7.4053V7.40945V7.41359V7.41772V7.42186V7.42599V7.43012V7.43425V7.43838V7.4425V7.44663V7.45075V7.45486V7.45898V7.46309V7.4672V7.47131V7.47542V7.47952V7.48362V7.48772V7.49181V7.49591V7.5C17.6667 8.62601 17.1072 9.41758 16.527 9.93973C16.2367 10.201 15.9452 10.3906 15.7263 10.5147C15.6361 10.5658 15.5589 10.6054 15.5 10.634C15.4411 10.6054 15.3639 10.5658 15.2737 10.5147C15.0548 10.3906 14.7633 10.201 14.473 9.93973C13.8928 9.41758 13.3333 8.62601 13.3333 7.5Z" stroke="white" stroke-width="0.666667"/>
<mask id="mask2_2314_22605" style="mask-type:alpha" maskUnits="userSpaceOnUse" x="13" y="4" width="5" height="7">
<path d="M13.3333 7.5V7.43425V7.36792V7.30104V7.23367V7.16585V7.09763V7.02904V6.96015V6.9256V6.89099V6.82161V6.75206V6.68238V6.66494V6.66059V6.65623V6.64751V6.61262V6.54282V6.53846V6.5341V6.52974V6.52537V6.52101V6.51665V6.51229V6.50793V6.50357V6.4992V6.49484V6.49048V6.48612V6.48176V6.4774V6.47304V6.46868V6.46432V6.45996V6.4556V6.45124V6.44688V6.44253V6.43817V6.43381V6.42945V6.42509V6.42074V6.41638V6.41203V6.40767V6.40331V6.39896V6.3946V6.39025V6.3859V6.38154V6.37719V6.37284V6.36849V6.36414V6.35979V6.35543V6.35109V6.34674V6.34239V6.33804V6.33369V6.32934V6.325V6.32065V6.31631V6.31196V6.30762V6.30328V6.29893V6.29459V6.29025V6.28591V6.28157V6.27723V6.27289V6.26856V6.26422V6.25988V6.25555V6.25121V6.24688V6.24255V6.23821V6.23388V6.22955V6.22522V6.2209V6.21657V6.21224V6.20791V6.20359V6.19927V6.19494V6.19062V6.1863V6.18198V6.17766V6.17334V6.16902V6.16471V6.16039V6.15608V6.15176V6.14745V6.14314V6.13883V6.13452V6.13021V6.12591V6.1216V6.1173V6.11299V6.10869V6.10439V6.10009V6.09579V6.0915V6.0872V6.0829V6.07861V6.07432V6.07003V6.06574V6.06145V6.05716V6.05287V6.04859V6.04431V6.04002V6.03574V6.03146V6.02719V6.02291V6.01863V6.01436V6.01009V6.00582V6.00155V5.99728V5.99301V5.98875V5.98448V5.98022V5.97596V5.9717V5.96744V5.96319V5.95893V5.95468V5.95043V5.94618V5.94193V5.93769V5.93344V5.9292V5.92496V5.92072V5.85311V5.83628V5.81948V5.78598V5.71936V5.65331V5.58787V5.52309V5.45901V5.39568V5.33315C13.3333 4.78092 13.781 4.33333 14.3333 4.33333H16.6667C17.219 4.33333 17.6667 4.78092 17.6667 5.33315V5.33703V5.34092V5.34481V5.34871V5.3526V5.3565V5.36041V5.36431V5.36822V5.37214V5.37605V5.37997V5.3839V5.38782V5.39175V5.39568V5.39962V5.40356V5.4075V5.41144V5.41539V5.41934V5.42329V5.42725V5.43121V5.43517V5.43914V5.44311V5.44708V5.45105V5.45503V5.45901V5.463V5.46698V5.47097V5.47496V5.47896V5.48296V5.48696V5.49096V5.49497V5.49898V5.50299V5.507V5.51102V5.51504V5.51907V5.52309V5.52712V5.53115V5.53519V5.53922V5.54326V5.5473V5.55135V5.5554V5.55945V5.5635V5.56756V5.57161V5.57568V5.57974V5.5838V5.58787V5.59194V5.59602V5.60009V5.60417V5.60825V5.61234V5.61642V5.62051V5.6246V5.6287V5.63279V5.63689V5.64099V5.6451V5.6492V5.65331V5.65742V5.66154V5.66565V5.66977V5.67389V5.67801V5.68214V5.68626V5.69039V5.69452V5.69866V5.70279V5.70693V5.71107V5.71522V5.71936V5.72351V5.72766V5.73181V5.73596V5.74012V5.74428V5.74844V5.7526V5.75677V5.76093V5.7651V5.76927V5.77345V5.77762V5.7818V5.78598V5.79016V5.79434V5.79853V5.80271V5.8069V5.81109V5.81529V5.81948V5.82368V5.82788V5.83208V5.83628V5.84048V5.84469V5.8489V5.85311V5.85732V5.86154V5.86575V5.86997V5.87419V5.87841V5.88263V5.88686V5.89108V5.89531V5.89954V5.90377V5.90801V5.91224V5.91648V5.92072V5.92496V5.9292V5.93344V5.93769V5.94193V5.94618V5.95043V5.95468V5.95893V5.96319V5.96745V5.9717V5.97596V5.98022V5.98448V5.98875V5.99301V5.99728V6.00155V6.00582V6.01009V6.01436V6.01863V6.02291V6.02719V6.03146V6.03574V6.04002V6.04431V6.04859V6.05287V6.05716V6.06145V6.06574V6.07003V6.07432V6.07861V6.0829V6.0872V6.0915V6.09579V6.10009V6.10439V6.10869V6.11299V6.1173V6.1216V6.12591V6.13021V6.13452V6.13883V6.14314V6.14745V6.15176V6.15608V6.16039V6.16471V6.16902V6.17334V6.17766V6.18198V6.1863V6.19062V6.19494V6.19927V6.20359V6.20791V6.21224V6.21657V6.2209V6.22522V6.22955V6.23388V6.23821V6.24255V6.24688V6.25121V6.25555V6.25988V6.26422V6.26856V6.27289V6.27723V6.28157V6.28591V6.29025V6.29459V6.29893V6.30328V6.30762V6.31196V6.31631V6.32065V6.325V6.32935V6.33369V6.33804V6.34239V6.34674V6.35109V6.35544V6.35979V6.36414V6.36849V6.37284V6.37719V6.38154V6.3859V6.39025V6.3946V6.39896V6.40331V6.40767V6.41203V6.41638V6.42074V6.42509V6.42945V6.43381V6.43817V6.44253V6.44688V6.45124V6.4556V6.45996V6.46432V6.46868V6.47304V6.4774V6.48176V6.48612V6.49048V6.49484V6.4992V6.50357V6.50793V6.51229V6.51665V6.52101V6.52538V6.52974V6.5341V6.53846V6.54282V6.54719V6.55155V6.55591V6.56027V6.56464V6.569V6.57336V6.57772V6.58209V6.58645V6.59081V6.59517V6.59953V6.6039V6.60826V6.61262V6.61698V6.62134V6.6257V6.63006V6.63442V6.63879V6.64315V6.64751V6.65187V6.65623V6.66059V6.66494V6.6693V6.67366V6.67802V6.68238V6.68674V6.69109V6.69545V6.69981V6.70416V6.70852V6.71288V6.71723V6.72159V6.72594V6.73029V6.73465V6.739V6.74335V6.74771V6.75206V6.75641V6.76076V6.76511V6.76946V6.77381V6.77816V6.78251V6.78685V6.7912V6.79555V6.79989V6.80424V6.80858V6.81292V6.81727V6.82161V6.82595V6.83029V6.83463V6.83897V6.84331V6.84765V6.85199V6.85632V6.86066V6.865V6.86933V6.87366V6.878V6.88233V6.88666V6.89099V6.89532V6.89965V6.90397V6.9083V6.91263V6.91695V6.92128V6.9256V6.92992V6.93424V6.93856V6.94288V6.9472V6.95152V6.95583V6.96015V6.96446V6.96878V6.97309V6.9774V6.98171V6.98602V6.99033V6.99463V6.99894V7.00324V7.00754V7.01185V7.01615V7.02045V7.02475V7.02904V7.03334V7.03763V7.04193V7.04622V7.05051V7.0548V7.05909V7.06338V7.06766V7.07195V7.07623V7.08051V7.08479V7.08907V7.09335V7.09763V7.1019V7.10617V7.11045V7.11472V7.11899V7.12326V7.12752V7.13179V7.13605V7.14031V7.14457V7.14883V7.15309V7.15734V7.1616V7.16585V7.1701V7.17435V7.1786V7.18285V7.18709V7.19133V7.19558V7.19982V7.20405V7.20829V7.21252V7.21676V7.22099V7.22522V7.22945V7.23367V7.2379V7.24212V7.24634V7.25056V7.25478V7.25899V7.26321V7.26742V7.27163V7.27584V7.28004V7.28425V7.28845V7.29265V7.29685V7.30104V7.30524V7.30943V7.31362V7.31781V7.322V7.32618V7.33037V7.33455V7.33873V7.3429V7.34708V7.35125V7.35542V7.35959V7.36376V7.36792V7.37208V7.37624V7.3804V7.38456V7.38871V7.39286V7.39701V7.40116V7.4053V7.40945V7.41359V7.41772V7.42186V7.42599V7.43012V7.43425V7.43838V7.4425V7.44663V7.45075V7.45486V7.45898V7.46309V7.4672V7.47131V7.47542V7.47952V7.48362V7.48772V7.49181V7.49591V7.5C17.6667 8.62601 17.1072 9.41758 16.527 9.93973C16.2367 10.201 15.9452 10.3906 15.7263 10.5147C15.6361 10.5658 15.5589 10.6054 15.5 10.634C15.4411 10.6054 15.3639 10.5658 15.2737 10.5147C15.0548 10.3906 14.7633 10.201 14.473 9.93973C13.8928 9.41758 13.3333 8.62601 13.3333 7.5Z" fill="white" stroke="white" stroke-width="0.666667"/>
</mask>
<g mask="url(#mask2_2314_22605)">
</g>
<path d="M0 -0.333333H-0.901086L-0.21693 0.253086L3.16667 3.15331V3.82846L-0.193746 6.22876L-0.333333 6.32846V6.5V7V7.60142L0.176666 7.28267L4.0956 4.83333H4.89318L8.26313 7.24044C8.34771 7.30086 8.44905 7.33333 8.55299 7.33333C9.01598 7.33333 9.22907 6.75732 8.87754 6.45601L5.83333 3.84669V3.17154L9.05416 0.87095C9.22936 0.745809 9.33333 0.543761 9.33333 0.328461V0V-0.601416L8.82333 -0.282666L4.9044 2.16667H4.10682L0.693746 -0.271244L0.606822 -0.333333H0.5H0Z" fill="#DB1E36" stroke="white" stroke-width="0.666667"/>
<path fill-rule="evenodd" clip-rule="evenodd" d="M0 2.5V4.5H3.5V6.83333C3.5 7.20152 3.79848 7.5 4.16667 7.5H4.83333C5.20152 7.5 5.5 7.20152 5.5 6.83333V4.5H8.83333C9.20152 4.5 9.5 4.20152 9.5 3.83333V3.16667C9.5 2.79848 9.20152 2.5 8.83333 2.5H5.5V0H3.5V2.5H0Z" fill="white"/>
<path fill-rule="evenodd" clip-rule="evenodd" d="M0 3H4V2.5V0H5V2.5V3H9V4H5V4.5V7H4V4.5V4H0V3Z" fill="#DB1E36"/>
</g>
</svg>
