<svg width="21" height="15" viewBox="0 0 21 15" fill="none" xmlns="http://www.w3.org/2000/svg">
<rect width="21" height="15" rx="2" fill="white"/>
<mask id="mask0_2314_21121" style="mask-type:alpha" maskUnits="userSpaceOnUse" x="0" y="0" width="21" height="15">
<rect width="21" height="15" rx="2" fill="white"/>
</mask>
<g mask="url(#mask0_2314_21121)">
<rect width="21" height="15" fill="#95CEF5"/>
<path fill-rule="evenodd" clip-rule="evenodd" d="M9.32444 5.11803L10.5 4.32L11.6756 5.11803L11.2799 3.75339L12.4021 2.88197L10.982 2.83661L10.5 1.5L10.018 2.83661L8.5979 2.88197L9.72015 3.75339L9.32444 5.11803ZM9.32444 13.118L10.5 12.32L11.6756 13.118L11.2799 11.7534L12.4021 10.882L10.982 10.8366L10.5 9.5L10.018 10.8366L8.5979 10.882L9.72015 11.7534L9.32444 13.118ZM14.5 8.32L13.3244 9.11803L13.7201 7.75339L12.5979 6.88197L14.018 6.83661L14.5 5.5L14.982 6.83661L16.4021 6.88197L15.2799 7.75339L15.6756 9.11803L14.5 8.32ZM5.32444 9.11803L6.50001 8.32L7.67558 9.11803L7.27988 7.75339L8.40213 6.88197L6.982 6.83661L6.50001 5.5L6.01803 6.83661L4.5979 6.88197L5.72015 7.75339L5.32444 9.11803Z" fill="white"/>
</g>
</svg>
