<svg width="21" height="15" viewBox="0 0 21 15" fill="none" xmlns="http://www.w3.org/2000/svg">
<rect width="21" height="15" rx="2" fill="white"/>
<mask id="mask0_2314_21143" style="mask-type:alpha" maskUnits="userSpaceOnUse" x="0" y="0" width="21" height="15">
<rect width="21" height="15" rx="2" fill="white"/>
</mask>
<g mask="url(#mask0_2314_21143)">
<rect width="21" height="15" fill="#0A17A7"/>
<path fill-rule="evenodd" clip-rule="evenodd" d="M-0.961845 -1.43735L8.00001 4.6075V-1.00001H13V4.6075L21.9619 -1.43735L23.0802 0.220727L15.9947 4.99999H21V9.99999H15.9947L23.0802 14.7792L21.9619 16.4373L13 10.3925V16H8.00001V10.3925L-0.961845 16.4373L-2.08023 14.7792L5.00532 9.99999H6.91414e-06V4.99999H5.00531L-2.08023 0.220728L-0.961845 -1.43735Z" fill="white"/>
<path d="M14.001 4.74915L23.5 -1.5" stroke="#DB1F35" stroke-width="0.666667" stroke-linecap="round"/>
<path d="M15.0096 10.2731L23.525 16.0128" stroke="#DB1F35" stroke-width="0.666667" stroke-linecap="round"/>
<path d="M6.00415 4.73285L-2.87811 -1.25323" stroke="#DB1F35" stroke-width="0.666667" stroke-linecap="round"/>
<path d="M6.96753 10.2037L-2.87811 16.7328" stroke="#DB1F35" stroke-width="0.666667" stroke-linecap="round"/>
<path fill-rule="evenodd" clip-rule="evenodd" d="M0 9H9V15H12V9H21V6H12V0H9V6H0V9Z" fill="#E6273E"/>
</g>
</svg>
