<svg width="21" height="15" viewBox="0 0 21 15" fill="none" xmlns="http://www.w3.org/2000/svg">
<rect width="21" height="15" rx="2" fill="white"/>
<mask id="mask0_2314_21222" style="mask-type:alpha" maskUnits="userSpaceOnUse" x="0" y="0" width="21" height="15">
<rect width="21" height="15" rx="2" fill="white"/>
</mask>
<g mask="url(#mask0_2314_21222)">
<rect width="21" height="15" fill="#E42235"/>
<rect x="2" y="2" width="17" height="11" fill="#079B77"/>
<mask id="mask1_2314_21222" style="mask-type:alpha" maskUnits="userSpaceOnUse" x="2" y="2" width="17" height="11">
<rect x="2" y="2" width="17" height="11" fill="white"/>
</mask>
<g mask="url(#mask1_2314_21222)">
<path fill-rule="evenodd" clip-rule="evenodd" d="M3.29488 7.59887C3.57801 8.05196 3.98449 8.35105 4.36309 8.42781C4.57152 8.47006 4.1899 7.51417 4.3562 7.41026C4.4981 7.32159 5.18079 8.1165 5.24057 7.95066C5.37812 7.56908 5.29698 7.02873 4.99098 6.53903C4.55198 5.83648 4.53484 6.30017 3.34805 5.79688C3.47213 6.51664 2.85588 6.89632 3.29488 7.59887V7.59887Z" fill="#FFD938"/>
<path fill-rule="evenodd" clip-rule="evenodd" d="M10.5 7.5L19 2H2L10.5 7.5ZM10.5 7.5L2 13H19L10.5 7.5Z" fill="#FFD93B"/>
<path fill-rule="evenodd" clip-rule="evenodd" d="M10.5 10C11.8807 10 13 8.88071 13 7.5C13 6.11929 11.8807 5 10.5 5C9.11929 5 8 6.11929 8 7.5C8 8.88071 9.11929 10 10.5 10Z" fill="url(#paint0_linear_2314_21222)"/>
<path fill-rule="evenodd" clip-rule="evenodd" d="M10.5 8.2713L9.32443 9.11803L9.76645 7.73834L8.59789 6.88197L10.0466 6.87601L10.5 5.5L10.9534 6.87601L12.4021 6.88197L11.2335 7.73834L11.6756 9.11803L10.5 8.2713Z" fill="#FFD938"/>
</g>
</g>
<defs>
<linearGradient id="paint0_linear_2314_21222" x1="8" y1="5" x2="8" y2="10" gradientUnits="userSpaceOnUse">
<stop stop-color="#E21C30"/>
<stop offset="1" stop-color="#CE1225"/>
</linearGradient>
</defs>
</svg>
