<svg width="21" height="15" viewBox="0 0 21 15" fill="none" xmlns="http://www.w3.org/2000/svg">
<rect x="0.25" y="0.25" width="20.5" height="14.5" rx="1.75" fill="white" stroke="#F5F5F5" stroke-width="0.5"/>
<mask id="mask0_2314_21163" style="mask-type:alpha" maskUnits="userSpaceOnUse" x="0" y="0" width="21" height="15">
<rect x="0.25" y="0.25" width="20.5" height="14.5" rx="1.75" fill="white" stroke="white" stroke-width="0.5"/>
</mask>
<g mask="url(#mask0_2314_21163)">
<path fill-rule="evenodd" clip-rule="evenodd" d="M12 16H9V9H-1V6H9V-1H12V6H22V9H12V16Z" fill="#FF2B37"/>
<path fill-rule="evenodd" clip-rule="evenodd" d="M16.2 3.3L15 3.5V2.5L16.2 2.7L16 1.5H17L16.8 2.7L18 2.5V3.5L16.8 3.3L17 4.5H16L16.2 3.3Z" fill="#FD0D1B"/>
<path fill-rule="evenodd" clip-rule="evenodd" d="M4.2 3.3L3 3.5V2.5L4.2 2.7L4 1.5H5L4.8 2.7L6 2.5V3.5L4.8 3.3L5 4.5H4L4.2 3.3Z" fill="#FD0D1B"/>
<path fill-rule="evenodd" clip-rule="evenodd" d="M4.2 12.3L3 12.5V11.5L4.2 11.7L4 10.5H5L4.8 11.7L6 11.5V12.5L4.8 12.3L5 13.5H4L4.2 12.3Z" fill="#FD0D1B"/>
<path fill-rule="evenodd" clip-rule="evenodd" d="M16.2 12.3L15 12.5V11.5L16.2 11.7L16 10.5H17L16.8 11.7L18 11.5V12.5L16.8 12.3L17 13.5H16L16.2 12.3Z" fill="#FD0D1B"/>
</g>
</svg>
