<svg width="21" height="15" viewBox="0 0 21 15" fill="none" xmlns="http://www.w3.org/2000/svg">
<rect x="0.25" y="0.25" width="20.5" height="14.5" rx="1.75" fill="white" stroke="#F5F5F5" stroke-width="0.5"/>
<mask id="mask0_2314_21253" style="mask-type:alpha" maskUnits="userSpaceOnUse" x="0" y="0" width="21" height="15">
<rect x="0.25" y="0.25" width="20.5" height="14.5" rx="1.75" fill="white" stroke="white" stroke-width="0.5"/>
</mask>
<g mask="url(#mask0_2314_21253)">
<path fill-rule="evenodd" clip-rule="evenodd" d="M0 15H21V10H0V15Z" fill="#E34F4F"/>
<path fill-rule="evenodd" clip-rule="evenodd" d="M7 10H13V6H7V10Z" fill="#E34F4F"/>
<path fill-rule="evenodd" clip-rule="evenodd" d="M8 10H9V9H8V10Z" fill="#181A1A"/>
<path fill-rule="evenodd" clip-rule="evenodd" d="M11 10H12V9H11V10Z" fill="#181A1A"/>
<path fill-rule="evenodd" clip-rule="evenodd" d="M7 6H8V5H7V6Z" fill="#181A1A"/>
<path fill-rule="evenodd" clip-rule="evenodd" d="M10 6H11V5H10V6Z" fill="#181A1A"/>
<path fill-rule="evenodd" clip-rule="evenodd" d="M9 6H10V5H9V6Z" fill="#181A1A"/>
<path fill-rule="evenodd" clip-rule="evenodd" d="M12 6H13V5H12V6Z" fill="#181A1A"/>
<path fill-rule="evenodd" clip-rule="evenodd" d="M7 5H8V4H7V5Z" fill="#E34F4F"/>
<path fill-rule="evenodd" clip-rule="evenodd" d="M10 5H11V4H10V5Z" fill="#E34F4F"/>
<path fill-rule="evenodd" clip-rule="evenodd" d="M9 5H10V4H9V5Z" fill="#E34F4F"/>
<path fill-rule="evenodd" clip-rule="evenodd" d="M12 5H13V4H12V5Z" fill="#E34F4F"/>
</g>
</svg>
