<svg width="21" height="15" viewBox="0 0 21 15" fill="none" xmlns="http://www.w3.org/2000/svg">
<rect x="0.25" y="0.25" width="20.5" height="14.5" rx="1.75" fill="white" stroke="#F5F5F5" stroke-width="0.5"/>
<mask id="mask0_2314_21181" style="mask-type:alpha" maskUnits="userSpaceOnUse" x="0" y="0" width="21" height="15">
<rect x="0.25" y="0.25" width="20.5" height="14.5" rx="1.75" fill="white" stroke="white" stroke-width="0.5"/>
</mask>
<g mask="url(#mask0_2314_21181)">
<path fill-rule="evenodd" clip-rule="evenodd" d="M0 15H21V10H0V15Z" fill="#EC3938"/>
<path fill-rule="evenodd" clip-rule="evenodd" d="M0 5H21V0H0V5Z" fill="#51B422"/>
<path fill-rule="evenodd" clip-rule="evenodd" d="M10.2051 8.78634C10.2275 8.76301 10.2401 8.73197 10.2403 8.69963L10.2487 7.22056C10.2494 7.09895 10.151 7 10.0294 7V7C9.83406 7 9.73622 6.76378 9.87437 6.62563L10.2643 6.2357C10.3945 6.10553 10.6055 6.10553 10.7357 6.2357L11.125 6.625C11.2634 6.76338 11.1654 7 10.9697 7V7C10.8483 7 10.75 7.09835 10.75 7.21967V8.69822C10.75 8.73138 10.7632 8.76317 10.7866 8.78661V8.78661C10.8654 8.86536 10.8096 9 10.6982 9H10.2962C10.185 9 10.1281 8.86658 10.2051 8.78634V8.78634Z" fill="#159940"/>
<path fill-rule="evenodd" clip-rule="evenodd" d="M0 0L7 7.5L0 15V0Z" fill="#258DE7"/>
</g>
</svg>
