<svg width="21" height="15" viewBox="0 0 21 15" fill="none" xmlns="http://www.w3.org/2000/svg">
<rect width="21" height="15" rx="2" fill="white"/>
<mask id="mask0_2314_21323" style="mask-type:alpha" maskUnits="userSpaceOnUse" x="0" y="0" width="21" height="15">
<rect width="21" height="15" rx="2" fill="white"/>
</mask>
<g mask="url(#mask0_2314_21323)">
<path fill-rule="evenodd" clip-rule="evenodd" d="M0 15H21V0H0V15Z" fill="#F0371D"/>
<path fill-rule="evenodd" clip-rule="evenodd" d="M10.488 6.10929C11.2101 5.50488 11.254 5.36971 11.427 4.83721C11.4848 4.65947 11.4441 4.51349 11.396 4.34109C11.3266 4.0925 11.2419 3.78898 11.415 3.25611C10.6272 3.00012 9.71175 3.64419 9.37042 4.6947C9.02909 5.74521 9.39109 6.80434 10.179 7.06034C10.32 7.10617 10.3042 7.07304 10.2614 6.98331C10.1863 6.82589 10.028 6.49427 10.488 6.10929ZM8.99257 7.21321C8.64089 6.33966 8.52591 6.25612 8.07294 5.92702C7.92174 5.81717 7.77032 5.8108 7.59149 5.80328C7.33364 5.79243 7.0188 5.77918 6.56552 5.44985C6.07858 6.12006 6.40826 7.1897 7.30188 7.83895C8.19549 8.4882 9.31465 8.47121 9.80159 7.80099C9.88876 7.68101 9.85236 7.68581 9.7538 7.69881C9.58087 7.7216 9.21658 7.76962 8.99257 7.21321ZM13.5 7.69038C12.9401 7.69038 12.798 7.69038 12 7.19038C11.4917 6.8719 11.2252 7.12487 11.0987 7.24496C11.0266 7.3134 11 7.33868 11 7.19038C11 6.36195 11.8954 5.69038 13 5.69038C14.1046 5.69038 15 6.36195 15 7.19038C14.4397 7.19038 14.1772 7.36472 13.9622 7.5075C13.8131 7.60653 13.6869 7.69038 13.5 7.69038ZM13.5 6.75C13.5 6.88807 13.3881 7 13.25 7C13.1119 7 13 6.88807 13 6.75C13 6.61193 13.1119 6.5 13.25 6.5C13.3881 6.5 13.5 6.61193 13.5 6.75ZM11.439 8.96245C11.2101 9.87588 11.254 10.0111 11.427 10.5435C11.4848 10.7213 11.6035 10.8154 11.7438 10.9266C11.946 11.087 12.193 11.2828 12.3661 11.8156C13.154 11.5596 13.516 10.5005 13.1746 9.44999C12.8333 8.39948 11.9179 7.7554 11.13 8.0114C10.989 8.05723 11.0212 8.07474 11.1086 8.12216C11.2619 8.20536 11.5849 8.38064 11.439 8.96245ZM12.3214 10.253C12.1901 10.2956 12.049 10.2238 12.0064 10.0924C11.9637 9.96113 12.0356 9.82009 12.1669 9.77743C12.2982 9.73476 12.4392 9.80662 12.4819 9.93794C12.5246 10.0692 12.4527 10.2103 12.3214 10.253ZM9.58036 8.97656C8.64089 9.04109 8.52591 9.12463 8.07294 9.45373C7.92174 9.56358 7.86889 9.70563 7.80647 9.87338C7.71647 10.1153 7.60659 10.4106 7.1533 10.7399C7.64024 11.4101 8.7594 11.4271 9.65302 10.7779C10.5466 10.1286 10.8763 9.05899 10.3894 8.38878C10.3022 8.2688 10.2955 8.3049 10.2774 8.40265C10.2457 8.57416 10.1788 8.93546 9.58036 8.97656ZM8.62568 10.2145C8.54452 10.1028 8.56929 9.94647 8.68099 9.86532C8.79269 9.78416 8.94903 9.80892 9.03019 9.92062C9.11134 10.0323 9.08658 10.1887 8.97488 10.2698C8.86318 10.351 8.70684 10.3262 8.62568 10.2145ZM7.5202 6.68781C7.60135 6.5761 7.75769 6.55134 7.8694 6.6325C7.9811 6.71365 8.00586 6.87 7.9247 6.9817C7.84355 7.0934 7.68721 7.11816 7.5755 7.03701C7.4638 6.95585 7.43904 6.79951 7.5202 6.68781ZM10.5327 4.54661C10.664 4.58928 10.7359 4.73032 10.6932 4.86163C10.6505 4.99295 10.5095 5.06481 10.3782 5.02214C10.2469 4.97948 10.175 4.83844 10.2177 4.70712C10.2603 4.57581 10.4014 4.50395 10.5327 4.54661Z" fill="white"/>
</g>
</svg>
