<svg width="21" height="15" viewBox="0 0 21 15" fill="none" xmlns="http://www.w3.org/2000/svg">
<rect x="0.25" y="0.25" width="20.5" height="14.5" rx="1.75" fill="white" stroke="#F5F5F5" stroke-width="0.5"/>
<mask id="mask0_2314_21308" style="mask-type:alpha" maskUnits="userSpaceOnUse" x="0" y="0" width="21" height="15">
<rect x="0.25" y="0.25" width="20.5" height="14.5" rx="1.75" fill="white" stroke="white" stroke-width="0.5"/>
</mask>
<g mask="url(#mask0_2314_21308)">
<path fill-rule="evenodd" clip-rule="evenodd" d="M0 5H21V0H0V5Z" fill="#0884E6"/>
<path fill-rule="evenodd" clip-rule="evenodd" d="M0 15H21V10H0V15Z" fill="#0884E6"/>
<path fill-rule="evenodd" clip-rule="evenodd" d="M10.5 8L9.79289 8.20711L10 7.5L9.79289 6.79289L10.5 7L11.2071 6.79289L11 7.5L11.2071 8.20711L10.5 8Z" fill="#0E88E9"/>
<path fill-rule="evenodd" clip-rule="evenodd" d="M14.5 7L13.7929 7.20711L14 6.5L13.7929 5.79289L14.5 6L15.2071 5.79289L15 6.5L15.2071 7.20711L14.5 7Z" fill="#0E88E9"/>
<path fill-rule="evenodd" clip-rule="evenodd" d="M14.5 9L13.7929 9.20711L14 8.5L13.7929 7.79289L14.5 8L15.2071 7.79289L15 8.5L15.2071 9.20711L14.5 9Z" fill="#0E88E9"/>
<path fill-rule="evenodd" clip-rule="evenodd" d="M6.5 9L5.79289 9.20711L6 8.5L5.79289 7.79289L6.5 8L7.20711 7.79289L7 8.5L7.20711 9.20711L6.5 9Z" fill="#0E88E9"/>
<path fill-rule="evenodd" clip-rule="evenodd" d="M6.5 7L5.79289 7.20711L6 6.5L5.79289 5.79289L6.5 6L7.20711 5.79289L7 6.5L7.20711 7.20711L6.5 7Z" fill="#0E88E9"/>
</g>
</svg>
