<svg width="21" height="15" viewBox="0 0 21 15" fill="none" xmlns="http://www.w3.org/2000/svg">
<rect x="0.25" y="0.25" width="20.5" height="14.5" rx="1.75" fill="white" stroke="#F5F5F5" stroke-width="0.5"/>
<mask id="mask0_2314_21280" style="mask-type:alpha" maskUnits="userSpaceOnUse" x="0" y="0" width="21" height="15">
<rect x="0.25" y="0.25" width="20.5" height="14.5" rx="1.75" fill="white" stroke="white" stroke-width="0.5"/>
</mask>
<g mask="url(#mask0_2314_21280)">
<path fill-rule="evenodd" clip-rule="evenodd" d="M0 5H21V0H0V5Z" fill="#FF202D"/>
<path opacity="0.5" fill-rule="evenodd" clip-rule="evenodd" d="M8 4L8.5 3.5L9 4V5H8V4ZM10 4L10.5 3.5L11 4V5H10V4ZM12.5 3.5L12 4V5H13V4L12.5 3.5Z" fill="#1895DB"/>
<path opacity="0.5" fill-rule="evenodd" clip-rule="evenodd" d="M9.5 3.5L9 4V5H10V4L9.5 3.5ZM11.5 3.5L11 4V5H12V4L11.5 3.5Z" fill="#191F94"/>
<path fill-rule="evenodd" clip-rule="evenodd" d="M0 15H21V10H0V15Z" fill="#2027AC"/>
<path fill-rule="evenodd" clip-rule="evenodd" d="M9 5H8.5L8 6H9V7H10V8H9V7H8V8H9V9H8V10H9V11H10V10H11V11H12V10H11V9H12V8L11 8V7H12V6H11V5H10V6H9V5ZM10 6V7H11V6H10ZM10 9V8H11V9H10ZM10 9V10H9V9H10ZM12 5H12.5L13 6H12V5ZM13 8V7H12V8H13ZM13 10V9H12V10H13Z" fill="url(#paint0_linear_2314_21280)"/>
</g>
<defs>
<linearGradient id="paint0_linear_2314_21280" x1="8" y1="5" x2="8" y2="11" gradientUnits="userSpaceOnUse">
<stop stop-color="#FF212E"/>
<stop offset="1" stop-color="#FD0D1B"/>
</linearGradient>
</defs>
</svg>
