<svg width="21" height="15" viewBox="0 0 21 15" fill="none" xmlns="http://www.w3.org/2000/svg">
<rect width="21" height="15" rx="2" fill="white"/>
<mask id="mask0_2314_21268" style="mask-type:alpha" maskUnits="userSpaceOnUse" x="0" y="0" width="21" height="15">
<rect width="21" height="15" rx="2" fill="white"/>
</mask>
<g mask="url(#mask0_2314_21268)">
<path fill-rule="evenodd" clip-rule="evenodd" d="M0 7H21V0H0V7Z" fill="#112EBC"/>
<path fill-rule="evenodd" clip-rule="evenodd" d="M0 15H21V7H0V15Z" fill="#E3264A"/>
<rect x="7" y="5" width="7" height="6" rx="0.666667" fill="url(#paint0_linear_2314_21268)"/>
<mask id="mask1_2314_21268" style="mask-type:alpha" maskUnits="userSpaceOnUse" x="7" y="5" width="7" height="6">
<rect x="7" y="5" width="7" height="6" rx="0.666667" fill="white"/>
</mask>
<g mask="url(#mask1_2314_21268)">
<path d="M7.33333 10.6667V10.206L8.58602 9.57967C8.91001 9.41767 9.26728 9.33333 9.62951 9.33333H11.3705C11.7327 9.33333 12.09 9.41767 12.414 9.57967L13.6667 10.206V10.6667H7.33333Z" fill="#AABCAE" stroke="#366C14" stroke-width="0.666667"/>
<path fill-rule="evenodd" clip-rule="evenodd" d="M10.5 9C11.3284 9 12 8.32843 12 7.5C12 6.67157 11.3284 6 10.5 6C9.67157 6 9 6.67157 9 7.5C9 8.32843 9.67157 9 10.5 9Z" fill="#D4B872"/>
<path d="M8.8749 8.62679L9.8753 9.42711C10.2405 9.71929 10.7595 9.71929 11.1247 9.42711L12.1251 8.62679C12.3434 8.45218 12.6667 8.60757 12.6667 8.88708V9.33333C12.6667 9.51742 12.5174 9.66666 12.3333 9.66666H8.66667C8.48257 9.66666 8.33333 9.51742 8.33333 9.33333V8.88708C8.33333 8.60757 8.65664 8.45218 8.8749 8.62679Z" fill="#C28321" stroke="#0D3488" stroke-width="0.666667"/>
<path fill-rule="evenodd" clip-rule="evenodd" d="M9.56904 6.56904C9.35905 6.35905 9.50777 6 9.80474 6H11.1953C11.4922 6 11.641 6.35905 11.431 6.56904L10.7357 7.2643C10.6055 7.39447 10.3945 7.39447 10.2643 7.2643L9.56904 6.56904Z" fill="#216C30"/>
</g>
</g>
<defs>
<linearGradient id="paint0_linear_2314_21268" x1="7" y1="5" x2="7" y2="11" gradientUnits="userSpaceOnUse">
<stop stop-color="white"/>
<stop offset="1" stop-color="#F0F0F0"/>
</linearGradient>
</defs>
</svg>
