<svg width="21" height="15" viewBox="0 0 21 15" fill="none" xmlns="http://www.w3.org/2000/svg">
<rect x="0.25" y="0.25" width="20.5" height="14.5" rx="1.75" fill="white" stroke="#F5F5F5" stroke-width="0.5"/>
<mask id="mask0_2314_21346" style="mask-type:alpha" maskUnits="userSpaceOnUse" x="0" y="0" width="21" height="15">
<rect x="0.25" y="0.25" width="20.5" height="14.5" rx="1.75" fill="white" stroke="white" stroke-width="0.5"/>
</mask>
<g mask="url(#mask0_2314_21346)">
<path fill-rule="evenodd" clip-rule="evenodd" d="M0 3H21V0H0V3Z" fill="#0E46D4"/>
<path fill-rule="evenodd" clip-rule="evenodd" d="M0 15H21V12H0V15Z" fill="#0E46D4"/>
<path d="M7.70861 8.83812L7.43349 9.33334L7.99999 9.33334L13 9.33334L13.5665 9.33334L13.2914 8.83812L10.7914 4.33812L10.5 3.81363L10.2086 4.33812L7.70861 8.83812Z" stroke="#093EC5" stroke-width="0.666667"/>
<path d="M7.70861 6.16188L7.43349 5.66666L7.99999 5.66666L13 5.66666L13.5665 5.66666L13.2914 6.16188L10.7914 10.6619L10.5 11.1864L10.2086 10.6619L7.70861 6.16188Z" stroke="#093EC5" stroke-width="0.666667"/>
</g>
</svg>
