<svg width="21" height="15" viewBox="0 0 21 15" fill="none" xmlns="http://www.w3.org/2000/svg">
<rect width="21" height="15" rx="2" fill="#D01129"/>
<mask id="mask0_2314_22641" style="mask-type:alpha" maskUnits="userSpaceOnUse" x="0" y="0" width="21" height="15">
<rect width="21" height="15" rx="2" fill="white"/>
</mask>
<g mask="url(#mask0_2314_22641)">
<path fill-rule="evenodd" clip-rule="evenodd" d="M10.4161 7.53065C10.9118 7.53065 11.3137 7.10872 11.3137 6.58835C11.3137 6.06789 10.9118 5.64597 10.4161 5.64597C9.92042 5.64597 9.51865 6.06789 9.51865 6.58835C9.51865 7.10872 9.92042 7.53065 10.4161 7.53065" fill="#FFF101"/>
<path fill-rule="evenodd" clip-rule="evenodd" d="M9.59799 6.20945C9.85218 6.12431 10.1819 6.2234 10.3989 6.44202C10.6292 6.39798 10.8602 6.09431 10.9317 5.82395C10.8531 4.92551 10.2934 4.24487 10.1231 3.7778C10.0693 3.63019 9.81976 3.39808 9.56025 3.50615C9.34687 3.59505 9.23895 3.52587 8.52227 3.9012C8.13475 4.10413 7.80857 4.31257 7.63669 4.3489C7.46473 4.38523 7.28333 4.41762 7.1458 4.3045C6.95662 4.1489 6.74447 4.10587 6.61952 3.98863C6.46643 3.84496 6.36822 3.73652 6.26467 3.69257C6.16113 3.64854 5.98585 3.74633 6.05986 3.97909C6.22684 4.50477 6.62048 4.58991 6.78947 5.08129C6.86925 5.31358 6.98266 5.48817 7.23615 5.31211C7.48963 5.13606 7.84789 4.9022 8.45866 4.87762C8.86882 4.86101 9.29269 4.70266 9.48746 4.44285C9.48554 4.66762 9.56103 4.85184 9.54111 5.14422C9.52127 5.4367 9.52442 5.80046 9.59799 6.20945" fill="white"/>
<path fill-rule="evenodd" clip-rule="evenodd" d="M10.0785 6.23413C10.0032 5.79183 10.1397 5.72807 9.97669 5.20963C9.87866 4.89789 9.816 4.50715 9.81443 4.32532L9.7489 4.34532C9.75047 4.52715 9.81321 4.91798 9.91116 5.22972C10.0689 5.73101 9.94629 5.80715 10.0062 6.21165C10.0248 6.21559 10.0636 6.22862 10.0785 6.23413" fill="#FFF101"/>
<path fill-rule="evenodd" clip-rule="evenodd" d="M9.69262 6.18559C9.69315 6.12935 9.68974 6.07064 9.68144 6.02018C9.79669 5.9911 9.99408 6.10293 9.98857 6.01981C9.98691 5.99348 9.98945 5.90835 9.99102 5.86321C9.98849 5.93376 9.71403 5.81468 9.66676 5.84541C9.61599 5.58807 9.67891 5.3233 9.63862 5.16174C9.73028 5.13541 9.89875 5.19284 9.87813 5.11743C9.86642 5.0788 9.84405 4.98275 9.82928 4.92266C9.8437 4.98559 9.70992 4.93348 9.66466 4.96945C9.64116 4.8299 9.60682 4.56513 9.60752 4.44412L9.48746 4.44284C9.48554 4.66761 9.56103 4.85183 9.54111 5.14422C9.52127 5.43669 9.52442 5.80046 9.59799 6.20945C9.62429 6.20137 9.66763 6.19101 9.69262 6.18559" fill="#FFF101"/>
<path fill-rule="evenodd" clip-rule="evenodd" d="M9.38942 4.131C9.21047 4.40229 8.78301 4.58953 8.3878 4.63091C7.92522 4.67935 7.61467 4.841 7.386 4.99926C7.36634 4.9621 7.33087 4.9421 7.2995 4.91761C6.96493 4.65742 7.10246 4.30486 7.22916 4.35522C7.18136 4.33577 7.15358 4.30953 7.12745 4.28981C7.08324 4.25541 6.95566 4.38724 6.97165 4.5966C6.97847 4.68577 7.05117 4.81733 7.11032 4.88706C7.00232 4.86641 6.9506 4.83742 6.88716 4.75697C6.92281 4.73366 6.96894 4.72045 7.00617 4.71742C6.9935 4.6855 6.97585 4.65008 6.97165 4.5966C6.91879 4.59614 6.8543 4.6155 6.79899 4.65495C6.66627 4.51614 6.52961 4.40541 6.45035 4.24155C6.32357 3.97908 6.45254 3.81339 6.61952 3.98862C6.46643 3.84495 6.36822 3.73651 6.26467 3.69256C6.16113 3.64853 5.98585 3.74632 6.05986 3.97908C6.22684 4.50476 6.62048 4.5899 6.78947 5.08128C6.86925 5.31357 6.98686 5.49458 7.23615 5.3121C7.269 5.28807 7.27774 5.28238 7.30631 5.26109C7.38539 5.21311 7.51069 5.29366 7.49732 5.4688C7.56137 5.30797 7.52048 5.25871 7.46613 5.16229C7.42594 5.18476 7.42917 5.05311 7.40435 5.03577C7.5466 4.94293 7.71961 4.84981 7.93789 4.78348C7.94593 4.8621 7.96655 4.94559 8.03549 4.93348C8.07245 4.92486 8.10993 4.91706 8.14934 4.91018C8.0804 4.92229 8.061 4.83091 8.05305 4.75238C8.15651 4.72742 8.26958 4.70853 8.39348 4.69788C8.53626 4.68559 8.68384 4.65513 8.82242 4.60788C8.84304 4.6833 8.88568 4.81036 8.95672 4.78541C9.01972 4.76421 9.08097 4.74027 9.13847 4.71247C9.03964 4.76192 9.00076 4.62073 8.97699 4.54605C9.1576 4.46357 9.31148 4.35109 9.40349 4.21687L9.38942 4.131" fill="#FFF101"/>
<path fill-rule="evenodd" clip-rule="evenodd" d="M10.1799 4.26569C10.2671 4.19468 10.342 4.16111 10.2667 4.01074C10.1437 3.76487 10.2201 3.76402 9.95075 3.6076C9.67638 3.44852 9.71107 3.43604 9.34801 3.57045C9.25871 3.60347 9.27863 3.63724 9.29427 3.7732C9.32791 4.06623 9.39187 4.3022 9.45032 4.5433C9.67856 4.51202 10.0297 4.38817 10.1799 4.26569Z" fill="#FFF101"/>
<path fill-rule="evenodd" clip-rule="evenodd" d="M9.32817 4.19908C9.28028 4.05522 9.29313 4.07476 9.46666 4.11862C9.52346 3.92898 9.6019 3.76893 9.64585 3.61544C9.69496 3.44361 9.71034 3.41269 9.7826 3.4548C9.87505 3.50856 9.97658 3.56535 10.0427 3.59948C10.1582 3.65893 10.1412 3.67976 10.0861 3.77425C10.0309 3.86875 9.85061 4.06027 9.73937 4.26009C9.88608 4.36853 9.93318 4.37834 9.82894 4.42504C9.71229 4.47724 9.51848 4.54192 9.43687 4.55724C9.42193 4.46284 9.37369 4.3355 9.32817 4.19908Z" fill="#FFF101"/>
<path fill-rule="evenodd" clip-rule="evenodd" d="M7.60567 5.55183L7.59414 5.69982L7.49024 5.60073L7.37403 5.68358L7.38172 5.53587L7.24794 5.49339L7.36224 5.40734L7.31182 5.27009L7.44594 5.31119L7.51681 5.18413L7.57063 5.31982L7.70904 5.29789L7.64124 5.42734L7.74329 5.52734L7.60567 5.55183" fill="#FFF101"/>
<path fill-rule="evenodd" clip-rule="evenodd" d="M10.5128 7.52175C10.3154 7.33312 10.2322 6.98376 10.3041 6.67716C10.1526 6.48982 9.78665 6.43156 9.52783 6.50165C8.82609 7.02248 8.54456 7.87175 8.24441 8.26009C8.14952 8.38285 8.08285 8.72569 8.30182 8.90771C8.48182 9.05725 8.47876 9.18991 9.1466 9.65395C9.50773 9.90487 9.84274 10.0973 9.95869 10.2354C10.0747 10.3736 10.1921 10.5224 10.1675 10.7039C10.1338 10.9538 10.2043 11.1683 10.1702 11.3404C10.1281 11.5514 10.0878 11.695 10.1033 11.8111C10.1189 11.9273 10.2871 12.0377 10.4421 11.854C10.7921 11.4394 10.6656 11.0389 10.9864 10.6395C11.138 10.4508 11.2254 10.2604 10.9535 10.1179C10.6815 9.97551 10.3095 9.76661 9.98377 9.22367C9.76506 8.85899 9.42254 8.55266 9.11077 8.50551C9.29715 8.39496 9.41144 8.23413 9.66257 8.10597C9.91369 7.9778 10.2122 7.79321 10.5128 7.52175" fill="white"/>
<path fill-rule="evenodd" clip-rule="evenodd" d="M10.2927 7.07248C9.96568 7.36211 9.84475 7.26973 9.49864 7.67725C9.29059 7.9223 8.99962 8.17468 8.85038 8.26697L8.89966 8.31652C9.0489 8.22422 9.33988 7.97184 9.54801 7.72679C9.88267 7.33275 10.0067 7.40615 10.3105 7.14936C10.3044 7.13064 10.2956 7.08872 10.2927 7.07248" fill="#FFF101"/>
<path fill-rule="evenodd" clip-rule="evenodd" d="M10.4457 7.44761C10.3991 7.47523 10.3523 7.50771 10.3148 7.54046C10.2332 7.45018 10.2268 7.21477 10.1611 7.26147C10.1401 7.27596 10.0686 7.31633 10.0305 7.33743C10.0901 7.30449 10.129 7.61358 10.178 7.64119C9.99111 7.81605 9.74129 7.89119 9.62823 8.00862C9.56068 7.93835 9.52381 7.7566 9.4719 7.81303C9.44595 7.84293 9.37789 7.91128 9.33568 7.95477C9.38042 7.91018 9.40427 8.05789 9.45653 8.08101C9.35324 8.1722 9.15201 8.33578 9.05179 8.39569L9.11077 8.5055C9.29715 8.39495 9.41144 8.23413 9.66257 8.10596C9.91369 7.9778 10.2122 7.79321 10.5128 7.52174C10.4929 7.50183 10.4626 7.46761 10.4457 7.44761" fill="#FFF101"/>
<path fill-rule="evenodd" clip-rule="evenodd" d="M8.90263 8.75056C9.21589 8.77762 9.58401 9.07267 9.81574 9.41138C10.087 9.8078 10.3757 10.0093 10.6205 10.1381C10.5997 10.1746 10.6009 10.2168 10.5965 10.2576C10.5491 10.6919 10.1895 10.7431 10.1677 10.6028C10.1756 10.656 10.1678 10.6943 10.1646 10.728C10.1584 10.7854 10.3309 10.8354 10.4955 10.7162C10.5657 10.6654 10.6378 10.5336 10.6658 10.445C10.7027 10.5534 10.7046 10.615 10.6701 10.7129C10.633 10.6921 10.5991 10.6567 10.5779 10.6245C10.5579 10.6519 10.5376 10.6857 10.4955 10.7162C10.5216 10.7646 10.5698 10.8135 10.63 10.844C10.5819 11.0341 10.5589 11.2138 10.4633 11.3677C10.3103 11.6142 10.1091 11.5798 10.1701 11.3404C10.1281 11.5514 10.0878 11.695 10.1033 11.8111C10.1189 11.9273 10.2871 12.0377 10.4421 11.854C10.7921 11.4394 10.6656 11.0389 10.9864 10.6395C11.138 10.4508 11.2287 10.2534 10.9535 10.1179C10.9171 10.1001 10.9081 10.0951 10.8763 10.0796C10.7972 10.0317 10.801 9.87753 10.9521 9.80212C10.7875 9.82432 10.7673 9.88615 10.715 9.98377C10.7535 10.009 10.6433 10.0719 10.6414 10.1032C10.4937 10.0203 10.3305 9.90955 10.1666 9.74413C10.2275 9.69762 10.286 9.63707 10.2414 9.58047C10.2158 9.5512 10.1907 9.52092 10.1653 9.48854C10.2098 9.54524 10.1442 9.60845 10.0833 9.65505C10.011 9.57349 9.93894 9.4801 9.86817 9.37276C9.78664 9.249 9.68773 9.1301 9.57947 9.02771C9.63137 8.9712 9.71482 8.869 9.65872 8.8168C9.60979 8.7701 9.55937 8.72634 9.50773 8.68808C9.59791 8.75322 9.50083 8.85918 9.4512 8.91808C9.29278 8.79514 9.12309 8.71138 8.96642 8.69496L8.90263 8.75056" fill="#FFF101"/>
<path fill-rule="evenodd" clip-rule="evenodd" d="M8.49134 8.02331C8.38911 7.97955 8.43955 7.9204 8.35314 8.06397C8.21185 8.29874 8.18454 8.24468 8.19031 8.56789C8.19616 8.89679 8.25699 8.84432 8.54945 9.10725C8.77427 8.93028 9.04261 8.66276 9.21222 8.489C9.07232 8.29716 8.66741 8.09881 8.49134 8.02331Z" fill="#FFF101"/>
<path fill-rule="evenodd" clip-rule="evenodd" d="M8.9894 8.7722C8.89468 8.8877 8.90438 8.86632 8.85379 8.68651C8.66898 8.72963 8.52643 8.77944 8.37797 8.81623C8.21161 8.85742 8.17849 8.85889 8.177 8.7722C8.17517 8.66119 8.17132 8.54054 8.16634 8.4633C8.15769 8.32862 8.1833 8.33357 8.28885 8.33651C8.3944 8.33935 8.61367 8.3666 8.83413 8.36779C8.85021 8.18018 8.83474 8.13247 8.92544 8.20394C9.02671 8.28385 9.177 8.42779 9.23048 8.49431C9.16005 8.55504 9.07923 8.66265 8.9894 8.7722Z" fill="#FFF101"/>
<path fill-rule="evenodd" clip-rule="evenodd" d="M10.9664 9.66221L11.0943 9.59863L11.0645 9.74257L11.191 9.80689L11.0653 9.87367L11.0971 10.0166L10.9689 9.95569L10.8809 10.0702L10.8478 9.92762L10.7075 9.9267L10.7926 9.81L10.7053 9.69514L10.846 9.69202L10.8775 9.54927L10.9664 9.66221" fill="#FFF101"/>
<path fill-rule="evenodd" clip-rule="evenodd" d="M11.1377 6.03385C11.0809 6.30752 10.8342 6.55789 10.5454 6.64587C10.4666 6.87725 10.6015 7.23899 10.7888 7.43945C11.5692 7.81706 12.4105 7.64844 12.8809 7.72716C13.0296 7.75202 13.3458 7.64119 13.3864 7.35119C13.4198 7.11275 13.5306 7.04927 13.5795 6.20991C13.6059 5.75606 13.5971 5.35523 13.6531 5.18074C13.7091 5.00624 13.7731 4.82505 13.9351 4.75661C14.158 4.66239 14.2997 4.49092 14.4589 4.43596C14.6538 4.36863 14.7924 4.33349 14.8804 4.26138C14.9685 4.18927 14.9755 3.98101 14.7465 3.93193C14.2294 3.82092 13.9624 4.13624 13.4725 4.04413C13.2411 4.00064 13.0403 4.01633 13.0588 4.33496C13.0773 4.65349 13.091 5.09615 12.806 5.66376C12.6146 6.04505 12.5332 6.50963 12.6501 6.8167C12.4658 6.70248 12.276 6.67899 12.0448 6.51477C11.8135 6.35046 11.5119 6.17147 11.1377 6.03385" fill="white"/>
<path fill-rule="evenodd" clip-rule="evenodd" d="M10.8771 6.45844C11.2796 6.61101 11.2639 6.76716 11.773 6.87817C12.0792 6.94486 12.4328 7.08321 12.5836 7.17275L12.5998 7.10312C12.4491 7.01358 12.0954 6.87532 11.7893 6.80853C11.2969 6.70119 11.2954 6.55165 10.9317 6.40385C10.9193 6.41881 10.8891 6.44771 10.8771 6.45844" fill="#FFF101"/>
<path fill-rule="evenodd" clip-rule="evenodd" d="M11.1101 6.13184C11.1562 6.16037 11.2064 6.18661 11.2521 6.20441C11.2185 6.32368 11.0275 6.44735 11.0989 6.48377C11.1214 6.4956 11.1903 6.54037 11.2267 6.56441C11.1698 6.5267 11.4052 6.3368 11.4036 6.27835C11.6413 6.36092 11.8282 6.55056 11.9816 6.59469C11.9575 6.6912 11.8259 6.8156 11.8984 6.83459C11.9361 6.84322 12.0265 6.87092 12.0835 6.88753C12.0243 6.86918 12.1342 6.77358 12.1272 6.71459C12.254 6.76285 12.4895 6.86404 12.5891 6.92524L12.6501 6.8167C12.4658 6.70248 12.276 6.679 12.0448 6.51478C11.8135 6.35046 11.5119 6.17147 11.1377 6.03386C11.1312 6.06175 11.1181 6.10643 11.1101 6.13184" fill="#FFF101"/>
<path fill-rule="evenodd" clip-rule="evenodd" d="M12.9563 6.8834C12.822 6.58505 12.8813 6.10275 13.0449 5.72266C13.2363 5.2778 13.2581 4.91459 13.2419 4.62762C13.2824 4.62835 13.3166 4.60606 13.3526 4.58973C13.7344 4.41569 13.9564 4.71697 13.8515 4.80697C13.8915 4.77321 13.9271 4.76119 13.9564 4.74725C14.0069 4.72413 13.9619 4.5423 13.7812 4.4522C13.7043 4.41376 13.5595 4.41413 13.4723 4.43294C13.5434 4.34514 13.5931 4.31266 13.6912 4.29514C13.6926 4.33927 13.6804 4.3878 13.6643 4.42312C13.697 4.42752 13.735 4.42918 13.7812 4.4522C13.8081 4.40431 13.8243 4.33606 13.8194 4.26596C14.0003 4.21477 14.1599 4.14587 14.3347 4.15578C14.6146 4.17165 14.6868 4.37184 14.4589 4.43596C14.6538 4.36863 14.7924 4.33349 14.8804 4.26138C14.9685 4.18927 14.9755 3.98101 14.7465 3.93193C14.2294 3.82092 13.9624 4.13624 13.4725 4.04413C13.2411 4.00064 13.0329 4.01697 13.0588 4.33496C13.0622 4.37688 13.0626 4.38762 13.0658 4.42422C13.0658 4.52018 12.9367 4.59376 12.799 4.49404C12.8996 4.63275 12.9607 4.62018 13.0674 4.61899C13.0689 4.57119 13.1759 4.63991 13.2026 4.62606C13.2081 4.80184 13.1983 5.00569 13.1439 5.23734C13.0751 5.20532 12.996 5.1823 12.9714 5.2511C12.9601 5.28899 12.9477 5.32697 12.9338 5.36624C12.9582 5.29743 13.0432 5.3256 13.112 5.35762C13.0809 5.46413 13.0399 5.57642 12.9868 5.69441C12.9255 5.83037 12.8769 5.97973 12.8466 6.12945C12.774 6.11046 12.6479 6.08569 12.6329 6.16285C12.6189 6.23064 12.608 6.29835 12.6022 6.3645C12.6109 6.24991 12.7468 6.28514 12.8203 6.30083C12.7981 6.50633 12.8138 6.70248 12.8785 6.8533L12.9563 6.8834" fill="#FFF101"/>
<path fill-rule="evenodd" clip-rule="evenodd" d="M12.4189 7.50708C12.434 7.62195 12.4242 7.70681 12.5858 7.71351C12.8501 7.72461 12.8286 7.75883 13.0924 7.59204C13.3607 7.42222 13.3678 7.45576 13.4385 7.05842C13.4559 6.96071 13.4181 6.9619 13.2981 6.90814C13.0397 6.79218 12.8139 6.8001 12.5858 6.73267C12.4975 6.95588 12.3931 7.30929 12.4189 7.50708Z" fill="#FFF101"/>
<path fill-rule="evenodd" clip-rule="evenodd" d="M12.9308 6.79376C13.0735 6.82202 13.0509 6.82394 12.928 6.95991C13.056 7.10633 13.154 7.20935 13.2587 7.32605C13.3758 7.45669 13.3936 7.48605 13.3228 7.53073C13.2322 7.58788 13.1347 7.65173 13.0734 7.69495C12.9666 7.77018 12.9579 7.7443 12.9075 7.64687C12.8571 7.54953 12.7841 7.33807 12.6749 7.13716C12.5121 7.21624 12.4804 7.25422 12.4941 7.13605C12.5094 7.00394 12.553 6.79532 12.5811 6.71349C12.6664 6.74706 12.7955 6.76679 12.9308 6.79376Z" fill="#FFF101"/>
<path fill-rule="evenodd" clip-rule="evenodd" d="M12.6763 4.55111L12.56 4.46661L12.6937 4.42166L12.6834 4.2745L12.8014 4.35542L12.9034 4.25505L12.9172 4.40202L13.0557 4.42478L12.9546 4.52624L13.024 4.65413L12.8852 4.63514L12.8341 4.77202L12.7612 4.6456L12.6277 4.68845L12.6763 4.55111" fill="#FFF101"/>
<path fill-rule="evenodd" clip-rule="evenodd" d="M10.3951 6.44616C10.1779 6.22727 9.84996 6.13108 9.59965 6.21492L9.59263 6.21052C9.52688 5.84502 9.51205 5.49201 9.53566 5.14381C9.54484 5.00912 9.53693 4.91054 9.51055 4.73474C9.49961 4.66183 9.49811 4.65163 9.49424 4.62145C9.48646 4.56091 9.48236 4.50965 9.48199 4.45909C9.28976 4.70281 8.88317 4.86617 8.45887 4.88335C7.95694 4.90355 7.64347 5.03609 7.23916 5.3169C7.01454 5.4729 6.88627 5.38006 6.78433 5.08324C6.71683 4.88697 6.63452 4.77367 6.4371 4.56512L6.42191 4.54908C6.21515 4.33057 6.12526 4.20312 6.05468 3.9809C5.98876 3.7736 6.13117 3.62961 6.26672 3.68726C6.27595 3.69117 6.28521 3.69563 6.29457 3.70063C6.33822 3.72398 6.38301 3.7585 6.44229 3.8126C6.46259 3.83112 6.52208 3.88795 6.56815 3.93195L6.56816 3.93197L6.62316 3.98435C6.62991 3.99069 6.63688 3.99681 6.64417 4.0028C6.63383 3.99599 6.62307 3.99153 6.61206 3.98927L6.56065 3.94029L6.56064 3.94029C6.51461 3.89632 6.45532 3.83968 6.43513 3.82125C6.37646 3.76771 6.33231 3.73369 6.28961 3.71085C6.28053 3.70599 6.27155 3.70168 6.26262 3.69789C6.13579 3.64395 6.00205 3.77917 6.06504 3.97727C6.13496 4.19741 6.22399 4.32364 6.42966 4.541L6.44485 4.55704C6.64331 4.76669 6.72642 4.88109 6.79461 5.07934C6.89449 5.3702 7.016 5.45814 7.23313 5.30733C7.63897 5.02547 7.95419 4.89219 8.45845 4.87189C8.88716 4.85453 9.29749 4.687 9.48317 4.4393L9.49292 4.4429C9.49245 4.49822 9.49652 4.55337 9.50506 4.61992C9.50892 4.64997 9.51041 4.66016 9.52134 4.73296C9.54783 4.90954 9.55581 5.00887 9.54656 5.14463C9.52314 5.48988 9.53762 5.83984 9.60222 6.20206L9.59633 6.20399L9.60336 6.20839L9.60222 6.20206C9.85575 6.12032 10.1844 6.2179 10.3979 6.43638C10.6136 6.39514 10.8506 6.10919 10.9263 5.82447C10.8889 5.39716 10.7509 5.01076 10.5028 4.53611C10.4645 4.46286 10.3599 4.27068 10.3092 4.17743L10.2813 4.12618C10.2022 3.97823 10.1523 3.87397 10.118 3.77985C10.047 3.58498 9.78131 3.42026 9.56226 3.51148C9.53246 3.52389 9.50348 3.53379 9.47173 3.54267C9.45138 3.54836 9.43067 3.55348 9.40236 3.55996C9.11069 3.62673 8.94925 3.684 8.52471 3.90633L8.48888 3.92519C8.40736 3.96836 8.21108 4.0767 8.08869 4.14426L8.08862 4.1443L8.0885 4.14436L8.0884 4.14442L8.08834 4.14445C8.03637 4.17314 7.99779 4.19443 7.9871 4.20019C7.81901 4.29076 7.71374 4.33847 7.63777 4.35452C7.38655 4.4076 7.25953 4.40533 7.14243 4.30901C7.10555 4.27868 7.06614 4.25125 7.02272 4.22511C7.01151 4.21837 7.00014 4.21176 6.98841 4.20517L6.99189 4.20087L6.99037 4.19327C7.00333 4.20051 7.01583 4.20775 7.02815 4.21516C7.072 4.24156 7.11185 4.2693 7.14917 4.29999C7.26285 4.39349 7.38743 4.39571 7.63561 4.34328C7.71026 4.3275 7.81493 4.28007 7.98212 4.18999C7.99277 4.18425 8.03125 4.16301 8.08311 4.13438C8.20544 4.06685 8.40224 3.95822 8.48396 3.91496L8.51984 3.89607C8.94523 3.67329 9.10753 3.61572 9.40003 3.54875C9.42819 3.54231 9.44876 3.53723 9.46891 3.53159C9.50027 3.52282 9.52885 3.51306 9.55823 3.50082C9.78356 3.40699 10.0552 3.57541 10.1282 3.77575C10.1623 3.86922 10.212 3.97307 10.2909 4.12056L10.3186 4.17158C10.3693 4.26474 10.474 4.45721 10.5123 4.53059C10.7611 5.0065 10.8996 5.39424 10.937 5.82548C10.8601 6.11612 10.6203 6.40553 10.3951 6.44616ZM6.97867 4.18681L6.99037 4.19327L6.99011 4.192C6.9863 4.19006 6.98249 4.18833 6.97867 4.18681ZM6.93915 4.17865C6.95226 4.17887 6.96547 4.18156 6.97867 4.18681C6.95866 4.17587 6.93741 4.16482 6.91397 4.15308C6.90259 4.14739 6.87735 4.13504 6.85386 4.12357L6.85358 4.1212C6.84429 4.11679 6.83522 4.11308 6.82632 4.11011L6.80519 4.09977C6.73651 4.06569 6.68959 4.03863 6.6517 4.00886L6.65172 4.00826C6.64923 4.0063 6.64671 4.00448 6.64417 4.0028L6.6517 4.00886L6.65147 4.01762L6.64786 4.02014C6.64472 4.01772 6.64165 4.01528 6.63863 4.01282L6.63871 4.01276C6.64088 4.0142 6.64303 4.01575 6.64516 4.01743L6.64541 4.00808L6.63871 4.01276C6.63847 4.0126 6.63823 4.01245 6.63799 4.01229C6.63032 4.00601 6.62298 3.99957 6.61588 3.9929L6.61206 3.98927C6.54188 3.97484 6.46161 4.04951 6.41601 4.16972L6.42411 4.17661L6.64786 4.02014C6.68269 4.04711 6.72488 4.07193 6.7836 4.10166C6.69817 4.0975 6.6264 4.17724 6.53471 4.38132L6.54303 4.38827L6.85037 4.13451L6.90926 4.16344L6.93915 4.17865ZM6.97434 4.19738C6.96307 4.1912 6.95139 4.185 6.93915 4.17865C6.84174 4.17704 6.74904 4.31213 6.69346 4.5526L6.70293 4.55766L6.98841 4.20517L6.97853 4.19967L6.97887 4.19925L6.98534 4.20232L6.98357 4.19344L6.97887 4.19925L6.97434 4.19738ZM6.70978 4.5315C6.77208 4.28096 6.87462 4.15858 6.97434 4.19738L6.97853 4.19967L6.70978 4.5315ZM6.70978 4.5315L6.70408 4.5553L6.69461 4.55023L6.70978 4.5315ZM6.83927 4.12909L6.85037 4.13451L6.85471 4.13093L6.85386 4.12357L6.83942 4.11652L6.83939 4.1165L6.8393 4.11646L6.83929 4.11646L6.82632 4.11011C6.81163 4.10521 6.79744 4.10234 6.7836 4.10166L6.80052 4.11014L6.82251 4.1209C6.72677 4.08944 6.65368 4.15012 6.55469 4.36405L6.53628 4.37926L6.54459 4.38621L6.55469 4.36405L6.83927 4.12909ZM6.84075 4.12787C6.83458 4.12519 6.8285 4.12287 6.82251 4.1209L6.83479 4.12691L6.83927 4.12909L6.84075 4.12787ZM6.84075 4.12787L6.84908 4.13165L6.84796 4.12192L6.84075 4.12787ZM6.43316 4.1565L6.63863 4.01282C6.63842 4.01264 6.63821 4.01247 6.63799 4.01229C6.57227 3.96971 6.48485 4.03459 6.43316 4.1565ZM6.43316 4.1565L6.41805 4.16707L6.42615 4.17396C6.42841 4.16802 6.43074 4.1622 6.43316 4.1565Z" fill="black"/>
<path fill-rule="evenodd" clip-rule="evenodd" d="M10.0631 5.82039C10.0553 5.98992 10.058 6.08114 10.0839 6.23312L10.0767 6.23954C10.0684 6.23648 10.0578 6.23282 10.0467 6.22902C10.0301 6.22334 10.0126 6.21733 10.0008 6.21254C9.98108 6.07926 9.97946 5.99628 9.98663 5.8398L9.9881 5.8073C9.99675 5.60623 9.9815 5.47157 9.90597 5.23152C9.81495 4.94182 9.74517 4.54638 9.74737 4.33982L9.81989 4.32527C9.82162 4.52517 9.89115 4.91934 9.98188 5.20784C10.0578 5.44935 10.0732 5.58542 10.0645 5.78783L10.0631 5.82039ZM10.0803 6.22872L10.0731 6.23514C10.0726 6.23192 10.072 6.22872 10.0715 6.22555C10.0746 6.22665 10.0776 6.22772 10.0803 6.22872ZM10.0073 6.20603C10.0212 6.209 10.0503 6.2181 10.0715 6.22555C10.047 6.07824 10.0445 5.98657 10.0522 5.81984L10.0536 5.78732C10.0623 5.58623 10.047 5.45154 9.97151 5.21143C9.88044 4.92187 9.81071 4.52654 9.81596 4.33083L9.75436 4.34527C9.75609 4.545 9.82565 4.93929 9.91634 5.22793C9.99231 5.46938 10.0077 5.60542 9.99901 5.80781L9.99754 5.84035C9.9904 5.99613 9.99201 6.07842 10.0073 6.20603Z" fill="black"/>
<path fill-rule="evenodd" clip-rule="evenodd" d="M8.78898 3.75795C8.72779 3.78551 8.72827 3.88317 8.77773 4.03531C8.81729 4.15698 8.88737 4.30983 8.97163 4.46595L8.98164 4.46159L8.7964 3.76168L8.78898 3.75795ZM9.68682 6.01922C9.69484 6.06795 9.69864 6.12631 9.69808 6.18566L9.69373 6.19122L9.67504 6.19536L9.67502 6.19537C9.64769 6.20149 9.6167 6.20843 9.59263 6.21052C9.52688 5.84502 9.51205 5.49202 9.53566 5.14382C9.54484 5.00912 9.53693 4.91054 9.51055 4.73474C9.4996 4.66184 9.49811 4.65163 9.49424 4.62145C9.48563 4.5544 9.48152 4.49874 9.48751 4.43712L9.61298 4.44417C9.61238 4.54791 9.6398 4.78647 9.66863 4.96004C9.68416 4.9514 9.70598 4.94905 9.74029 4.94971L9.75432 4.95006C9.78634 4.95098 9.79863 4.95065 9.80985 4.94753C9.82274 4.94394 9.82705 4.93744 9.82397 4.92401L9.83457 4.92124C9.83839 4.93676 9.8551 5.00596 9.85412 5.00193L9.85565 5.00825C9.86882 5.06249 9.87741 5.09618 9.88338 5.11586C9.89029 5.14113 9.87876 5.15587 9.85246 5.16122C9.83387 5.165 9.81579 5.16482 9.76376 5.16198C9.74856 5.16116 9.74007 5.16074 9.73069 5.16041C9.70613 5.15955 9.68594 5.15989 9.66965 5.16016C9.65963 5.16033 9.65109 5.16047 9.64391 5.1603C9.66011 5.22528 9.66111 5.28436 9.65485 5.45079C9.64878 5.61245 9.6496 5.69506 9.6634 5.79266C9.66554 5.80773 9.66797 5.82253 9.67072 5.83709C9.69123 5.82931 9.7277 5.83572 9.82039 5.8575L9.82664 5.85897C9.88336 5.87226 9.91299 5.87808 9.93885 5.8798C9.96996 5.88187 9.98498 5.8763 9.98556 5.86315L9.98484 5.88453C9.97502 5.89069 9.95921 5.89265 9.93816 5.89124C9.91152 5.88947 9.88157 5.88359 9.82426 5.87016L9.81801 5.86869C9.72006 5.84567 9.685 5.84031 9.66963 5.8503L9.66141 5.84658C9.65804 5.8295 9.65511 5.8121 9.6526 5.79434C9.63866 5.69582 9.63784 5.61269 9.64394 5.45033C9.65014 5.28524 9.64915 5.22662 9.63718 5.15622C9.66121 5.14932 9.69038 5.14753 9.73105 5.14895C9.74052 5.14928 9.74906 5.1497 9.76432 5.15053C9.81522 5.1533 9.83306 5.15348 9.85038 5.14996C9.87096 5.14577 9.8778 5.13703 9.87292 5.11918C9.86692 5.09936 9.85829 5.06557 9.84507 5.01109L9.84353 5.00475C9.84424 5.00765 9.83613 4.97409 9.82995 4.9486C9.83555 4.94207 9.83727 4.933 9.83459 4.92133L9.82399 4.9241L9.82995 4.9486C9.82603 4.95318 9.8202 4.95651 9.81265 4.95861C9.79998 4.96214 9.78731 4.96248 9.75402 4.96153L9.74009 4.96117C9.70256 4.96045 9.68115 4.96355 9.66796 4.97403L9.65928 4.97046C9.62984 4.79563 9.60144 4.5504 9.60746 4.44987L9.49292 4.4429C9.49245 4.49823 9.49651 4.55337 9.50506 4.61992C9.50892 4.64998 9.51041 4.66016 9.52133 4.73296C9.54783 4.90955 9.55581 5.00887 9.54656 5.14464C9.52301 5.49189 9.53779 5.84392 9.59646 6.20395C9.61862 6.19715 9.65665 6.18766 9.6872 6.18093L9.68716 6.18555L9.69152 6.17999L9.6872 6.18093C9.68751 6.12383 9.68385 6.06774 9.68016 6.01462C9.71084 6.00688 9.74796 6.00815 9.79561 6.01646C9.8116 6.01925 9.82754 6.02256 9.84997 6.02759C9.91876 6.04301 9.92894 6.04501 9.94917 6.04541C9.97423 6.04591 9.98435 6.03873 9.98312 6.0202C9.98188 6.00044 9.9828 5.94791 9.98484 5.88453C9.99215 5.87995 9.99613 5.87303 9.99648 5.86344L9.98556 5.86301L9.98556 5.863L9.99648 5.86343C9.99396 5.93565 9.99268 5.99807 9.99402 6.01943C9.99578 6.04603 9.97964 6.05748 9.94896 6.05688C9.92767 6.05645 9.91759 6.05448 9.84769 6.03881C9.82541 6.03381 9.80961 6.03053 9.79382 6.02778C9.74749 6.01969 9.71166 6.01846 9.68682 6.01922ZM8.78764 3.77141L8.78588 3.76475L8.79329 3.76849C8.79133 3.76937 8.78945 3.77034 8.78764 3.77141ZM8.95893 4.41861C8.88492 4.27772 8.82385 4.14166 8.78807 4.03161C8.74215 3.89039 8.74005 3.79937 8.78764 3.77141L8.95893 4.41861ZM8.95893 4.41861L8.98113 4.4603L8.97112 4.46466L8.95893 4.41861ZM8.82082 4.61131L8.82073 4.61135L8.82073 4.61136L8.82047 4.61147L8.82411 4.62384C8.87577 4.60363 8.92746 4.57989 8.97917 4.55285L8.97505 4.54071L8.97481 4.54081L8.97481 4.54081L8.9747 4.54086L8.82082 4.61131ZM8.82082 4.61131C8.87207 4.59125 8.92337 4.5677 8.9747 4.54086L8.97481 4.54081L8.97894 4.55296L8.82436 4.62372L8.82073 4.61136L8.82082 4.61131ZM8.05183 4.7468C8.01237 4.75764 7.97399 4.76951 7.93638 4.78249L7.93925 4.79515L7.93944 4.79509L7.93944 4.7951C7.93951 4.79507 7.93957 4.79505 7.93964 4.79503L8.05411 4.75965C8.05418 4.75963 8.05425 4.75961 8.05432 4.75959L8.05431 4.75959L8.05441 4.75956L8.05183 4.7468ZM8.05431 4.75959L8.05174 4.74684L7.93657 4.78243L7.93944 4.79509L7.93964 4.79503C7.97693 4.78217 8.01498 4.7704 8.05411 4.75965L8.05431 4.75959Z" fill="black"/>
<path fill-rule="evenodd" clip-rule="evenodd" d="M8.38726 4.62521C8.80534 4.58144 9.21586 4.38404 9.38493 4.12774L9.3948 4.13004L9.40792 4.22023C9.31858 4.35056 9.1682 4.46499 8.98217 4.54424C8.98173 4.54286 8.98975 4.56828 8.99224 4.57596C8.99647 4.58898 9.00032 4.60015 9.00432 4.61079C9.03713 4.69795 9.07582 4.73521 9.13266 4.70897C9.11877 4.71563 9.10452 4.72213 9.08989 4.7285C9.05005 4.72357 9.01974 4.68296 8.99416 4.61501C8.99009 4.60418 8.98618 4.59284 8.9819 4.57966C8.97939 4.57193 8.97136 4.54645 8.97481 4.5408C9.16218 4.45523 9.31099 4.34199 9.3981 4.21785L9.38627 4.14559C9.38886 4.14183 9.39141 4.13806 9.39391 4.13427L9.38404 4.13198L9.38627 4.14559C9.21068 4.39952 8.80317 4.59319 8.38834 4.63662C7.98726 4.67862 7.67984 4.80278 7.38123 5.00205C7.36878 4.97853 7.35384 4.96467 7.31627 4.93719L7.31612 4.93708C7.30617 4.92981 7.30169 4.92647 7.29625 4.92222C7.14503 4.80463 7.07584 4.65657 7.08591 4.51952C7.09294 4.42376 7.14042 4.35231 7.19511 4.34516C7.20529 4.35087 7.21584 4.35596 7.22718 4.36057L7.23109 4.34987C7.21898 4.34505 7.20688 4.34362 7.19511 4.34516C7.18523 4.33961 7.1757 4.33349 7.16611 4.32666C7.15707 4.32022 7.13313 4.30143 7.12613 4.29594C7.12499 4.29504 7.1243 4.2945 7.1242 4.29442C7.07137 4.25332 6.96365 4.42007 6.9771 4.59615C6.98319 4.67586 7.04766 4.80458 7.1144 4.88325L7.10934 4.8927C6.99891 4.8716 6.94656 4.8413 6.88427 4.7521C6.91635 4.73114 6.95894 4.71688 6.99819 4.71245L7.00113 4.71964L7.0013 4.71933L7.00575 4.71171C7.00329 4.71191 7.00082 4.71215 6.99834 4.71243C6.99829 4.71244 6.99824 4.71244 6.99819 4.71245L6.99014 4.69273C6.98234 4.67332 6.97658 4.65627 6.97353 4.63991C6.97116 4.62722 6.97042 4.61496 6.97161 4.60234C6.96997 4.60232 6.96833 4.60233 6.96669 4.60235C6.91345 4.60312 6.8524 4.62363 6.79514 4.65902L6.76963 4.6327C6.75432 4.61709 6.7146 4.57755 6.68678 4.54986C6.67306 4.5362 6.66223 4.52542 6.65866 4.52182C6.55161 4.41395 6.49092 4.33809 6.44548 4.24415C6.38543 4.11984 6.37831 4.00662 6.4204 3.94752C6.44845 3.90812 6.49284 3.89997 6.54303 3.92346C6.54904 3.9292 6.55495 3.93484 6.56065 3.94029C6.57078 3.94997 6.58027 3.95903 6.58856 3.96694C6.52234 3.9106 6.46233 3.90779 6.42914 3.95438C6.39001 4.00934 6.39686 4.11814 6.45522 4.23896C6.49997 4.33148 6.55999 4.4065 6.66622 4.51355C6.66977 4.51712 6.68055 4.52785 6.69422 4.54146C6.72204 4.56915 6.76186 4.6088 6.77724 4.62447C6.78617 4.63357 6.79465 4.64232 6.79592 4.65021C6.84666 4.61402 6.90741 4.59296 6.96608 4.5954C6.95285 4.41205 7.06707 4.2357 7.13064 4.28516C7.13076 4.28526 7.1316 4.28591 7.13295 4.28697C7.14039 4.29281 7.16357 4.31099 7.17224 4.31717C7.19106 4.33058 7.20959 4.34112 7.23113 4.34988L7.22722 4.36059C7.16743 4.33682 7.10486 4.41056 7.0968 4.52041C7.08703 4.65339 7.15446 4.79769 7.30276 4.91301C7.30809 4.91718 7.31251 4.92046 7.32237 4.92767L7.32251 4.92778C7.36143 4.95624 7.37725 4.97092 7.383 4.99448C7.67523 4.79223 7.98431 4.66741 8.38726 4.62521ZM7.00312 4.72346C6.96442 4.72719 6.92172 4.74091 6.89136 4.75332C6.95025 4.82801 6.99841 4.85785 7.09596 4.87835C7.06094 4.83433 7.02739 4.77816 7.00312 4.72346ZM6.59609 3.95863C6.57801 3.9432 6.56018 3.93149 6.54303 3.92346C6.50053 3.88287 6.45282 3.83739 6.43513 3.82125C6.37646 3.76771 6.33231 3.73368 6.28961 3.71085C6.28053 3.70599 6.27155 3.70167 6.26262 3.69788C6.13579 3.64394 6.00205 3.77917 6.06504 3.97727C6.13496 4.19741 6.22399 4.32364 6.42966 4.54099L6.44485 4.55703C6.64331 4.76669 6.72642 4.88108 6.79461 5.07934C6.84083 5.21392 6.89008 5.30208 6.95236 5.34753C7.02645 5.40161 7.11766 5.39185 7.23303 5.3074L7.27214 5.27912L7.27262 5.27878C7.28334 5.27106 7.29177 5.2649 7.30358 5.25614C7.39154 5.20277 7.49929 5.29181 7.50355 5.43647C7.50021 5.44609 7.49646 5.45611 7.49228 5.46659L7.50277 5.46926C7.50362 5.45806 7.50387 5.44711 7.50355 5.43647C7.53256 5.35299 7.53052 5.30017 7.5037 5.24242C7.49863 5.23151 7.49267 5.22018 7.48446 5.20558C7.48431 5.20532 7.48414 5.20502 7.48396 5.20469C7.47966 5.19709 7.46565 5.17225 7.4687 5.16735C7.45481 5.17512 7.44358 5.16888 7.43568 5.15248C7.43026 5.14123 7.42669 5.12777 7.42098 5.10063L7.41959 5.09402C7.41235 5.05955 7.40771 5.04501 7.40133 5.04055L7.40147 5.03091C7.57019 4.92079 7.74066 4.83745 7.94332 4.78287C7.95378 4.88526 7.98018 4.93739 8.0343 4.92789C8.06012 4.92186 8.08534 4.91644 8.11052 4.91153C8.12186 4.91702 8.13503 4.91851 8.15024 4.91584C8.11246 4.92243 8.07524 4.93008 8.03639 4.93914C7.9728 4.95031 7.94354 4.89254 7.9394 4.78899C7.74703 4.84745 7.57917 4.92909 7.4132 5.03676C7.41959 5.04546 7.42385 5.06105 7.43026 5.09154L7.43165 5.09815C7.43714 5.12428 7.44058 5.13725 7.44543 5.14731C7.45088 5.15861 7.456 5.16146 7.47083 5.15937L7.49386 5.19975C7.50221 5.21459 7.5083 5.22616 7.51352 5.2374C7.54489 5.30495 7.54393 5.36663 7.50236 5.47102L7.49188 5.46835C7.50373 5.3131 7.39493 5.21395 7.30947 5.26578C7.29804 5.2743 7.28956 5.28049 7.2788 5.28824L7.27831 5.28858L7.23927 5.31681C7.12045 5.40378 7.02438 5.41406 6.94612 5.35694C6.88148 5.30977 6.83126 5.21988 6.78433 5.08323C6.71683 4.88696 6.63452 4.77367 6.4371 4.56512L6.42191 4.54907C6.21515 4.33057 6.12526 4.20312 6.05468 3.9809C5.98876 3.77359 6.13117 3.6296 6.26672 3.68725C6.27595 3.69117 6.28521 3.69562 6.29457 3.70063C6.33822 3.72398 6.38301 3.75849 6.44229 3.81259C6.46259 3.83112 6.52209 3.88795 6.56816 3.93196C6.57831 3.94165 6.58781 3.95072 6.59609 3.95863ZM8.14844 4.90453L8.15024 4.91584L8.14845 4.90453C8.14844 4.90453 8.14844 4.90453 8.14844 4.90453ZM9.13698 4.7195C9.11989 4.72741 9.10427 4.73028 9.08989 4.7285C9.04814 4.74667 9.00333 4.76371 8.95505 4.77995C8.90174 4.79868 8.86118 4.72885 8.82767 4.60631C8.68398 4.64906 8.53692 4.67978 8.39303 4.69217C8.27282 4.7025 8.15932 4.72087 8.05183 4.7468C8.05735 4.83755 8.07486 4.89428 8.11052 4.91153C8.12315 4.90907 8.13576 4.90674 8.14844 4.90453C8.09489 4.91393 8.06932 4.85886 8.05848 4.75178C8.16125 4.73217 8.27423 4.71388 8.39392 4.7036C8.53866 4.69114 8.68655 4.66024 8.82411 4.61334C8.85263 4.73914 8.89551 4.81296 8.95845 4.79085C9.02387 4.76884 9.08308 4.74533 9.13698 4.7195ZM9.14075 4.71768C9.14077 4.71767 9.1408 4.71766 9.14082 4.71765L9.13618 4.70727C9.13501 4.70784 9.13383 4.7084 9.13266 4.70897C9.1338 4.70844 9.13496 4.70788 9.13612 4.7073L9.14075 4.71768ZM9.13698 4.7195C9.13823 4.71892 9.13949 4.71832 9.14075 4.71768C9.1395 4.71829 9.13824 4.7189 9.13698 4.7195ZM6.59609 3.95863C6.60514 3.96634 6.61425 3.97499 6.62338 3.98457L6.61588 3.9929C6.61073 3.98807 6.601 3.97881 6.58856 3.96694C6.59749 3.97454 6.60654 3.98312 6.61566 3.99268L6.62316 3.98435C6.61806 3.97957 6.60842 3.97039 6.59609 3.95863Z" fill="black"/>
<path fill-rule="evenodd" clip-rule="evenodd" d="M10.3094 6.67853C10.2374 6.98549 10.322 7.33175 10.5164 7.51751L10.5163 7.52609C10.2478 7.76857 9.96426 7.95837 9.66495 8.11112C9.57701 8.15601 9.50202 8.20634 9.4201 8.27207C9.39979 8.28836 9.37968 8.30506 9.35369 8.32704C9.35605 8.32504 9.30424 8.36902 9.28994 8.38101C9.22596 8.43463 9.17828 8.47075 9.12692 8.50236C9.4241 8.55527 9.76212 8.84333 9.98839 9.22062C10.2561 9.66688 10.5225 9.88588 10.9559 10.1128C11.1969 10.239 11.1844 10.402 10.9906 10.6432C10.8616 10.8039 10.8103 10.9336 10.7354 11.2234C10.6539 11.5391 10.5971 11.6791 10.4462 11.8578C10.3081 12.0214 10.1183 11.964 10.0979 11.8119C10.0907 11.7575 10.0949 11.696 10.1098 11.6103C10.1165 11.5719 10.1438 11.4402 10.1574 11.3752L10.1574 11.3751L10.1648 11.3392C10.1666 11.3301 10.1682 11.3212 10.1695 11.3124C10.1692 11.3246 10.1709 11.3362 10.1744 11.3469L10.168 11.3779C10.1544 11.4431 10.1272 11.5742 10.1205 11.6123C10.1058 11.6969 10.1017 11.7574 10.1087 11.8103C10.1278 11.9526 10.3061 12.0066 10.438 11.8502C10.5875 11.6731 10.6437 11.5345 10.7249 11.2204C10.8001 10.9291 10.8519 10.7981 10.9823 10.6358C11.1722 10.3995 11.184 10.2451 10.9511 10.123C10.516 9.89529 10.2481 9.67505 9.97915 9.22673C9.75052 8.84551 9.40719 8.55614 9.10999 8.51118L9.10808 8.50052C9.16415 8.46726 9.21401 8.42997 9.28312 8.37204C9.29739 8.36008 9.34917 8.31613 9.34684 8.31811C9.37289 8.29607 9.39308 8.27932 9.41347 8.26296C9.49593 8.19679 9.57152 8.14606 9.66018 8.10081C9.95695 7.94935 10.2382 7.76139 10.5045 7.5216L10.5091 7.52599L10.5092 7.5174L10.5045 7.5216C10.3103 7.33186 10.2265 6.9843 10.2999 6.68087C10.158 6.5054 9.80366 6.43288 9.53098 6.50634C9.26866 6.70103 9.05025 6.95042 8.84302 7.26874C8.78596 7.35638 8.67056 7.55718 8.55823 7.75264L8.55823 7.75265L8.55822 7.75266C8.44151 7.95574 8.32811 8.15304 8.28693 8.21166C8.27397 8.2301 8.26124 8.24742 8.24865 8.26371C8.12339 8.42574 8.12037 8.74957 8.30521 8.90321C8.31384 8.91039 8.3222 8.91764 8.33037 8.92503C8.35536 8.94766 8.37804 8.97104 8.40474 9.00107L8.43625 9.03728C8.45729 9.06155 8.4826 9.09075 8.49414 9.10366C8.53424 9.14854 8.5742 9.18994 8.62204 9.23513C8.74551 9.35177 8.91262 9.4845 9.14961 9.64917C9.27019 9.73295 9.64944 9.98342 9.64754 9.98214C9.81517 10.0952 9.91014 10.1689 9.96279 10.2316C10.1321 10.4332 10.1938 10.5501 10.1729 10.7048C10.1643 10.7688 10.1617 10.8256 10.1642 10.8967L10.159 10.8957L10.1534 10.901C10.1507 10.8274 10.1532 10.7691 10.1621 10.7031C10.1824 10.553 10.1218 10.4383 9.95459 10.2392C9.90286 10.1776 9.80839 10.1043 9.64164 9.99179C9.64363 9.99313 9.26429 9.7426 9.14358 9.65873C8.90617 9.49377 8.73864 9.3607 8.61474 9.24366C8.56666 9.19824 8.52647 9.15662 8.48618 9.11151C8.47459 9.09854 8.44925 9.06932 8.42823 9.04506L8.4282 9.04503L8.42806 9.04488L8.42805 9.04486L8.39676 9.0089C8.37031 8.97915 8.34789 8.95605 8.32323 8.93372C8.31518 8.92643 8.30694 8.91928 8.29843 8.91221C8.1083 8.75416 8.1114 8.42306 8.24017 8.25648C8.25265 8.24034 8.26528 8.22315 8.27814 8.20485C8.31901 8.14668 8.43187 7.9503 8.54829 7.74773C8.66081 7.55194 8.77665 7.35037 8.83401 7.26227C9.04191 6.9429 9.26118 6.69254 9.52646 6.4961C9.80462 6.42077 10.1633 6.49417 10.3094 6.67853ZM10.154 10.9148L10.1534 10.901L10.1526 10.9018C10.1529 10.9063 10.1533 10.9106 10.154 10.9148ZM10.1671 10.9549C10.1607 10.9429 10.1563 10.9295 10.154 10.9148C10.1558 10.9546 10.159 10.9989 10.1635 11.0511L10.1643 11.0599L10.1624 11.0613C10.1634 11.0719 10.1649 11.082 10.1669 11.0916C10.1754 11.1962 10.1772 11.2504 10.171 11.3009L10.1702 11.3013C10.1698 11.3051 10.1695 11.3088 10.1695 11.3124L10.171 11.3009L10.1781 11.2969L10.1822 11.299C10.1818 11.3031 10.1813 11.3071 10.1807 11.311L10.1804 11.3109C10.1805 11.3082 10.1808 11.3055 10.1811 11.3027L10.1732 11.3072L10.1804 11.3109C10.1804 11.3117 10.1804 11.3125 10.1804 11.3133C10.179 11.3226 10.1774 11.3319 10.1755 11.3415L10.1744 11.3469C10.1976 11.4179 10.2993 11.4536 10.4212 11.4349L10.4228 11.424L10.1822 11.299C10.1872 11.2562 10.1866 11.2104 10.1811 11.1344C10.2203 11.2143 10.322 11.2398 10.5365 11.2211L10.538 11.2101L10.175 11.0576L10.1744 11.0501C10.1714 11.0151 10.1689 10.9837 10.1671 10.9549ZM10.1649 10.9135C10.1655 10.9267 10.1662 10.9405 10.1671 10.9549C10.2146 11.0441 10.3723 11.0608 10.5983 10.9912L10.5977 10.9801L10.1642 10.8967L10.1647 10.9085L10.1642 10.9084L10.1634 10.901L10.157 10.907L10.1642 10.9084L10.1649 10.9135ZM10.5727 10.9869C10.335 11.0555 10.1828 11.0235 10.1649 10.9135L10.1647 10.9085L10.5727 10.9869ZM10.5727 10.9869L10.5952 10.9802L10.5957 10.9913L10.5727 10.9869ZM10.1761 11.0704L10.175 11.0576L10.1699 11.0554L10.1643 11.0599L10.1669 11.0916C10.1702 11.1073 10.1748 11.1215 10.1811 11.1344L10.1777 11.0897C10.1995 11.1924 10.2862 11.2286 10.5122 11.2116L10.534 11.2207L10.5355 11.2097L10.5122 11.2116L10.1761 11.0704ZM10.1743 11.0696C10.1752 11.0766 10.1763 11.0832 10.1777 11.0897L10.1761 11.0704L10.1743 11.0696ZM10.1743 11.0696L10.1733 11.0602L10.1658 11.0661L10.1743 11.0696ZM10.4017 11.4259L10.1807 11.311C10.1806 11.3118 10.1805 11.3125 10.1804 11.3133C10.1793 11.3934 10.2762 11.4398 10.4017 11.4259ZM10.4017 11.4259L10.418 11.4343L10.4196 11.4235C10.4136 11.4244 10.4076 11.4252 10.4017 11.4259Z" fill="black"/>
<path fill-rule="evenodd" clip-rule="evenodd" d="M9.9462 7.30041C10.1065 7.21365 10.1731 7.1709 10.2892 7.0681L10.2981 7.07143C10.2997 7.0804 10.3021 7.09212 10.3046 7.10435C10.3082 7.12208 10.312 7.14086 10.3139 7.15383C10.2103 7.24146 10.1499 7.2793 10.0005 7.3602L9.96969 7.37698C9.81289 7.4634 9.70691 7.54832 9.55209 7.73061C9.35868 7.95832 9.06743 8.21942 8.89589 8.32066L8.84761 8.26204C9.0116 8.16062 9.30198 7.90027 9.49457 7.67344C9.65036 7.49 9.75741 7.40425 9.91544 7.31717L9.9462 7.30041ZM10.2874 7.07353L10.2963 7.07687C10.2939 7.07898 10.2915 7.08107 10.2892 7.08313C10.2885 7.07971 10.2879 7.07648 10.2874 7.07353ZM10.2892 7.08313C10.1766 7.18213 10.1089 7.22526 9.95121 7.3106L9.92052 7.32733C9.76361 7.41378 9.65761 7.49869 9.50272 7.68107C9.30942 7.90874 9.01819 8.16986 8.85416 8.26284L8.89689 8.31158C9.06085 8.21019 9.35124 7.94984 9.54394 7.72298C9.69966 7.53963 9.80669 7.45387 9.96461 7.36683L9.99545 7.35001C10.1443 7.26944 10.2041 7.23193 10.3053 7.1512C10.3008 7.13709 10.2936 7.10581 10.2892 7.08313Z" fill="black"/>
<path fill-rule="evenodd" clip-rule="evenodd" d="M9.44775 8.92253L9.45444 8.91347C9.49973 8.94856 9.5427 8.98522 9.58312 9.02345L9.57602 9.03216L9.44775 8.92253ZM9.44802 8.92275C9.49303 8.95763 9.53573 8.99405 9.57588 9.03203L9.58298 9.02332L9.45471 8.91369L9.44802 8.92275ZM10.1704 9.75561C10.1706 9.75575 10.1707 9.75589 10.1709 9.75603L10.1793 9.74723L10.1791 9.74705C10.1792 9.74714 10.1793 9.74723 10.1794 9.74732L10.1709 9.75614L10.1704 9.75561ZM10.0798 9.6601L10.1704 9.75561C10.1408 9.72612 10.1108 9.69449 10.0798 9.6601ZM10.0794 9.65971C10.0795 9.65984 10.0796 9.65997 10.0798 9.6601L10.0794 9.65972L10.0794 9.65971ZM10.0881 9.65115L10.0794 9.65971C10.0794 9.65967 10.0793 9.65964 10.0793 9.6596L10.088 9.65104L10.0881 9.65115ZM10.0884 9.65145L10.1791 9.74705C10.1495 9.71756 10.1194 9.6859 10.0884 9.65145ZM10.0884 9.65145L10.0881 9.65115L10.0881 9.65114C10.0882 9.65125 10.0883 9.65135 10.0884 9.65145Z" fill="black"/>
<path fill-rule="evenodd" clip-rule="evenodd" d="M8.90612 8.75496L8.90308 8.74484C8.90746 8.74521 8.91185 8.74565 8.91625 8.74613L8.90612 8.75496ZM9.54427 8.7234C9.55338 8.74547 9.55175 8.77074 9.54075 8.79866C9.53074 8.82406 9.51377 8.85035 9.48936 8.88099C9.48028 8.89239 9.47129 8.90307 9.44795 8.92268C9.28343 8.79502 9.11569 8.71636 8.96991 8.69937L8.91625 8.74613C9.21351 8.77882 9.57695 9.05251 9.82017 9.40803C10.0553 9.75167 10.3113 9.96901 10.6252 10.141C10.612 10.1642 10.608 10.1848 10.6042 10.2329L10.6041 10.2341C10.6032 10.2455 10.6026 10.2515 10.6019 10.2583C10.5805 10.4546 10.4929 10.5915 10.3749 10.6509C10.2925 10.6923 10.2099 10.6849 10.1765 10.6389C10.1762 10.6269 10.175 10.615 10.1731 10.6019L10.1731 10.6019L10.1623 10.6037C10.1644 10.6172 10.1693 10.6289 10.1765 10.6389C10.1771 10.6587 10.1757 10.6786 10.1727 10.7047C10.1713 10.717 10.1706 10.7226 10.1701 10.7286C10.1626 10.7972 10.354 10.8118 10.4924 10.7115C10.5551 10.6661 10.629 10.5433 10.6607 10.4431L10.671 10.443C10.7087 10.5539 10.7099 10.6167 10.6676 10.7179C10.6343 10.6993 10.6013 10.6678 10.5778 10.6342C10.5799 10.6312 10.5816 10.6289 10.5823 10.628L10.5819 10.628L10.5734 10.6278C10.5748 10.6299 10.5763 10.632 10.5777 10.6341C10.5778 10.6341 10.5778 10.6342 10.5778 10.6342C10.5772 10.635 10.5766 10.6359 10.576 10.6367C10.5709 10.6439 10.5643 10.6532 10.5615 10.6571C10.5526 10.6691 10.5444 10.6791 10.5353 10.6887C10.5303 10.694 10.5251 10.6991 10.5199 10.7032C10.5134 10.7083 10.5069 10.7121 10.5003 10.7134C10.5011 10.7149 10.5019 10.7164 10.5028 10.7179C10.53 10.7659 10.5774 10.8111 10.6353 10.8455C10.6254 10.8845 10.6232 10.8943 10.6015 10.9898C10.558 11.1817 10.5284 11.2734 10.4679 11.3708C10.3954 11.4876 10.3056 11.5507 10.2358 11.542C10.1892 11.5362 10.1603 11.4998 10.1546 11.4423C10.1596 11.4182 10.1643 11.3957 10.1679 11.3781C10.1541 11.4672 10.1818 11.5237 10.2371 11.5306C10.302 11.5387 10.3883 11.4781 10.4587 11.3646C10.5183 11.2686 10.5476 11.1778 10.5909 10.9872C10.6126 10.8915 10.6148 10.8817 10.6276 10.8492C10.5724 10.8212 10.5246 10.7765 10.4973 10.7219M10.5844 10.6242C10.607 10.6576 10.6396 10.6896 10.665 10.7109C10.6971 10.62 10.6976 10.5612 10.6658 10.4624C10.6469 10.5163 10.6174 10.5748 10.5844 10.6242ZM10.9224 9.81254C10.8052 9.88874 10.7856 10.0313 10.8736 10.0846L10.9075 10.1014L10.9079 10.1016C10.9328 10.1141 10.9354 10.1154 10.9512 10.1231C11.0785 10.1858 11.1321 10.2639 11.1246 10.3583C11.1182 10.4376 11.0701 10.5265 10.9823 10.6358C10.8519 10.7981 10.8001 10.9291 10.7249 11.2204C10.6437 11.5345 10.5875 11.6731 10.438 11.8502C10.3061 12.0065 10.1278 11.9526 10.1087 11.8103C10.1017 11.7574 10.1058 11.6969 10.1205 11.6123C10.1254 11.5845 10.1412 11.5073 10.1546 11.4423C10.1527 11.4224 10.1535 11.4 10.1573 11.3755C10.1591 11.3637 10.1616 11.3515 10.1649 11.3389L10.1755 11.3415C10.1747 11.3453 10.1719 11.3588 10.168 11.3779M10.9224 9.81254C10.932 9.81081 10.9421 9.80924 10.9528 9.8078L10.9498 9.79693C10.9401 9.80174 10.931 9.80696 10.9224 9.81254ZM10.9224 9.81254C10.8272 9.82976 10.7872 9.86231 10.7461 9.93689C10.7456 9.9378 10.745 9.93894 10.7443 9.94026C10.7374 9.95299 10.7214 9.98234 10.7178 9.9789C10.7305 9.98719 10.7316 9.9998 10.7232 10.0143C10.7174 10.0244 10.708 10.0349 10.6909 10.0514L10.6859 10.0562C10.6566 10.0844 10.6474 10.095 10.6468 10.1036L10.6388 10.1083C10.4637 10.0099 10.3098 9.89657 10.1634 9.73949C10.2425 9.67901 10.2724 9.6288 10.2374 9.58434C10.2199 9.56427 10.2028 9.544 10.1858 9.52321C10.1847 9.51052 10.1796 9.49813 10.1703 9.48595C10.1949 9.51727 10.2197 9.54714 10.2457 9.57682C10.2868 9.62905 10.2537 9.68472 10.1703 9.74001C10.3148 9.88577 10.466 9.99755 10.6377 10.0946C10.6415 10.0844 10.6525 10.0728 10.6786 10.0478L10.6835 10.043C10.6998 10.0272 10.7088 10.0173 10.7139 10.0084C10.7194 9.99873 10.719 9.99315 10.7102 9.98096C10.7107 9.97994 10.7125 9.9766 10.7149 9.97205C10.7215 9.95965 10.7327 9.93833 10.7367 9.93116C10.7835 9.84604 10.8304 9.81275 10.9514 9.79644L10.9544 9.8073C10.8205 9.87416 10.7931 10.0227 10.8786 10.0744C10.891 10.0805 10.9 10.0849 10.9122 10.091L10.9127 10.0912C10.9375 10.1037 10.9401 10.105 10.9558 10.1127C11.087 10.1773 11.1434 10.2595 11.1354 10.3593C11.1288 10.4416 11.0798 10.5322 10.9906 10.6433C10.8616 10.8039 10.8103 10.9336 10.7354 11.2234C10.6539 11.5391 10.5971 11.6791 10.4462 11.8579C10.3081 12.0214 10.1183 11.964 10.0979 11.8119C10.0906 11.7575 10.0948 11.696 10.1098 11.6103C10.1165 11.5719 10.1438 11.4406 10.1573 11.3755C10.1573 11.3754 10.1573 11.3753 10.1574 11.3752C10.1613 11.3562 10.1641 11.3429 10.1648 11.3392L10.1754 11.3419M10.161 9.49219C10.1693 9.50268 10.1775 9.51301 10.1858 9.52321C10.1895 9.56424 10.1515 9.60845 10.0793 9.65895C10.0043 9.57436 9.93245 9.48031 9.86367 9.37601C9.7816 9.25142 9.68275 9.1331 9.57554 9.02373C9.65993 8.93184 9.69715 8.86021 9.65505 8.82103C9.61721 8.78492 9.58043 8.75243 9.54427 8.7234C9.53858 8.70961 9.5287 8.69708 9.51429 8.68594C9.56249 8.72191 9.61151 8.764 9.66234 8.81251C9.71203 8.85875 9.67269 8.93448 9.58312 9.02346C9.69069 9.12519 9.7901 9.24418 9.87266 9.3695C9.94113 9.47335 10.0127 9.56697 10.0801 9.65043C10.1631 9.58687 10.1957 9.53624 10.161 9.4922L10.161 9.49219ZM9.50464 8.6928C9.51778 8.70254 9.53098 8.71274 9.54427 8.7234ZM9.50464 8.6928C9.50462 8.69279 9.5046 8.69277 9.50458 8.69276L9.51082 8.68335C9.51201 8.6842 9.51316 8.68507 9.51429 8.68594C9.51315 8.68509 9.51201 8.68424 9.51088 8.6834L9.50464 8.6928ZM10.161 9.49219C10.161 9.49219 10.161 9.49218 10.161 9.49218L10.1695 9.48488C10.1697 9.48524 10.17 9.4856 10.1703 9.48595C10.17 9.4856 10.1697 9.48525 10.1695 9.4849L10.161 9.49219Z" fill="black"/>
<path fill-rule="evenodd" clip-rule="evenodd" d="M10.9679 9.65511L10.8817 9.54561L10.8722 9.54797L10.8407 9.69072L10.7051 9.6894L10.701 9.69871L10.7884 9.81358L10.7032 9.92321L10.7075 9.93243L10.8477 9.93335L10.8756 10.0715L10.8851 10.0738L10.9731 9.95929L11.0948 10.0218L11.1024 10.0153L11.0706 9.87236L11.1935 9.81199L11.1934 9.80172L11.0668 9.7374L11.0996 9.59984L11.0919 9.59344L10.9679 9.65511ZM11.0866 9.60879L10.9688 9.66738L10.9622 9.66585L10.8801 9.56154L10.8828 9.55056L10.8733 9.55292L10.8801 9.56154L10.8461 9.69775L10.716 9.70063L10.7095 9.69156L10.7054 9.70087L10.716 9.70063L10.797 9.81348L10.7183 9.92135L10.7076 9.92096L10.7119 9.93018L10.7183 9.92135L10.8531 9.92625L10.8837 10.0579L10.8766 10.0666L10.8862 10.0688L10.8837 10.0579L10.9711 9.95046L11.0896 10.0068L11.0917 10.0179L11.0993 10.0114L11.0896 10.0068L11.0628 9.86855L11.179 9.80681L11.1886 9.81204L11.1885 9.80176L11.179 9.80681L11.0591 9.74135L11.0866 9.60879ZM11.0866 9.60879L11.0966 9.6038L11.0889 9.5974L11.0866 9.60879Z" fill="black"/>
<path fill-rule="evenodd" clip-rule="evenodd" d="M10.5439 6.64038C10.8331 6.55228 11.0764 6.30212 11.1324 6.03264L11.1395 6.02845C11.474 6.15144 11.7725 6.31446 12.0478 6.51003C12.162 6.59116 12.2302 6.62374 12.4306 6.70492C12.5261 6.7436 12.5823 6.76937 12.6395 6.80358C12.5346 6.50687 12.6031 6.0555 12.8012 5.6611C13.0354 5.19459 13.0829 4.84309 13.0533 4.33531C13.0369 4.05303 13.1776 3.9829 13.4735 4.0385C13.6666 4.0748 13.8043 4.05684 14.0646 3.98465L14.0848 3.97905C14.38 3.89702 14.5261 3.87877 14.7476 3.92632C14.9515 3.97004 14.999 4.17151 14.8837 4.26591C14.8401 4.30171 14.7838 4.32964 14.6968 4.36131C14.6695 4.37127 14.5851 4.39958 14.524 4.42005L14.524 4.42006L14.4606 4.44142L14.4514 4.44471C14.4604 4.43898 14.4681 4.43227 14.4745 4.4247L14.5209 4.40906C14.5819 4.3886 14.6661 4.36038 14.6933 4.35047C14.7791 4.31919 14.8345 4.29173 14.877 4.25687C14.9849 4.16853 14.9403 3.97933 14.7454 3.93755C14.526 3.89045 14.3813 3.90853 14.0876 3.99013L14.0674 3.99574C13.8057 4.06832 13.6666 4.08645 13.4716 4.04978C13.1816 3.9953 13.0484 4.06174 13.0642 4.33462C13.0939 4.8443 13.0462 5.19778 12.8108 5.66645C12.6107 6.06496 12.5437 6.52183 12.6552 6.81458L12.6474 6.82165C12.5859 6.7836 12.5291 6.75711 12.4267 6.71562C12.2255 6.63413 12.1568 6.6013 12.0417 6.51953C11.7687 6.32561 11.4729 6.16381 11.1417 6.04141L11.143 6.03508L11.1359 6.03928L11.1417 6.04141C11.0824 6.31277 10.8376 6.56283 10.5506 6.64781C10.4768 6.86451 10.5941 7.22284 10.7911 7.43425C10.8975 7.48575 11.0081 7.52854 11.1233 7.56346C11.4781 7.67103 11.7687 7.69446 12.3461 7.69589C12.6425 7.69662 12.7581 7.70082 12.8818 7.7215C13.0781 7.75432 13.3467 7.59517 13.381 7.35037C13.3867 7.30972 13.3947 7.27247 13.4066 7.22983C13.4139 7.20345 13.446 7.09839 13.4429 7.10871C13.4592 7.05423 13.472 7.00658 13.4845 6.95158C13.525 6.77261 13.5547 6.5415 13.574 6.20957C13.5815 6.08161 13.5835 6.03092 13.5932 5.75775C13.6053 5.4156 13.6165 5.2766 13.6479 5.17891C13.7297 4.92402 13.7951 4.80957 13.9331 4.7513C13.9883 4.72794 14.0395 4.69989 14.0958 4.66314L14.0976 4.66845L14.1046 4.67087C14.0467 4.70894 13.9941 4.73788 13.9372 4.76194C13.8032 4.81851 13.7391 4.93077 13.6582 5.18258C13.6274 5.27873 13.6162 5.4175 13.6041 5.75817C13.5944 6.03146 13.5924 6.08218 13.5849 6.21027C13.5656 6.54282 13.5358 6.77457 13.4951 6.95423C13.4826 7.00953 13.4697 7.05743 13.4533 7.11216C13.4564 7.10199 13.4243 7.20684 13.4171 7.23303C13.4054 7.2752 13.3974 7.31195 13.3918 7.35204C13.3565 7.60384 13.0818 7.76657 12.88 7.73283C12.7572 7.71227 12.6418 7.70808 12.346 7.70735C11.7677 7.70593 11.4763 7.68244 11.1202 7.57448C11.0045 7.5394 10.8934 7.49642 10.7849 7.44348C10.5836 7.22801 10.4649 6.86535 10.5439 6.64038ZM14.1158 4.66344L14.1046 4.67087L14.1058 4.67127C14.1093 4.66877 14.1126 4.66616 14.1158 4.66344ZM14.1422 4.63162C14.1355 4.64342 14.1267 4.65406 14.1158 4.66344C14.134 4.65127 14.1527 4.6382 14.1723 4.6241C14.1833 4.61618 14.2076 4.59834 14.2303 4.58162L14.2324 4.58256C14.2407 4.57631 14.2483 4.5699 14.2552 4.56329L14.2781 4.54649C14.3177 4.5178 14.3482 4.49733 14.3777 4.48025C14.3951 4.47021 14.4118 4.46159 14.4281 4.45431L14.4301 4.45547C14.4379 4.45242 14.445 4.44882 14.4514 4.44471C14.4437 4.44761 14.4359 4.4508 14.4281 4.45431L14.4214 4.45056L14.421 4.445C14.4251 4.44318 14.4291 4.44143 14.433 4.43976L14.4331 4.44138C14.4305 4.44264 14.4278 4.44382 14.425 4.44492L14.4337 4.44983L14.4331 4.44138C14.4369 4.43956 14.4405 4.43756 14.4438 4.43541C14.4483 4.43368 14.4527 4.43206 14.4572 4.43053L14.4745 4.4247C14.5233 4.36693 14.4978 4.25946 14.4126 4.1604L14.4014 4.16432L14.421 4.445C14.4053 4.45217 14.3892 4.46055 14.3725 4.4702C14.3455 4.48578 14.3179 4.50408 14.2835 4.52866C14.3296 4.45307 14.2997 4.34786 14.1773 4.16252L14.1674 4.16661L14.223 4.57296C14.2006 4.58946 14.177 4.60686 14.1661 4.61464L14.1422 4.63162ZM14.1093 4.65421C14.12 4.64701 14.131 4.63949 14.1422 4.63162C14.1923 4.54383 14.1272 4.392 13.9566 4.22127L13.9477 4.22735L14.0958 4.66314L14.1052 4.65689L14.1054 4.65742L14.0996 4.66178L14.1079 4.6646L14.1054 4.65742L14.1093 4.65421ZM13.9659 4.24666C14.1413 4.42848 14.191 4.58289 14.1093 4.65421L14.1052 4.65689L13.9659 4.24666ZM13.9659 4.24666L13.9491 4.22957L13.958 4.2235L13.9659 4.24666ZM14.2331 4.56558L14.223 4.57296L14.2238 4.57872L14.2303 4.58162L14.2425 4.57262L14.2552 4.56329C14.2666 4.55238 14.2761 4.54091 14.2835 4.52866L14.2719 4.53706L14.2482 4.55442C14.3219 4.48314 14.3084 4.38624 14.1815 4.18933L14.1782 4.16498L14.1683 4.16906L14.1815 4.18933L14.2331 4.56558ZM14.2333 4.56756C14.2386 4.56327 14.2436 4.5589 14.2482 4.55442L14.2361 4.56331L14.2331 4.56558L14.2333 4.56756ZM14.2333 4.56756L14.2261 4.57324L14.2346 4.57709L14.2333 4.56756ZM14.4151 4.1826L14.433 4.43976C14.4366 4.43825 14.4402 4.4368 14.4438 4.43541C14.5106 4.3925 14.4968 4.2857 14.4151 4.1826ZM14.4151 4.1826L14.4137 4.16359L14.4026 4.16751C14.4069 4.17253 14.4111 4.17756 14.4151 4.1826Z" fill="black"/>
<path fill-rule="evenodd" clip-rule="evenodd" d="M10.9573 6.49739C10.9313 6.48591 10.904 6.47475 10.8753 6.46384L10.8736 6.45409C10.8806 6.44779 10.8895 6.43941 10.8986 6.43077C10.9112 6.41892 10.9242 6.40659 10.9337 6.39851C10.948 6.40432 10.9619 6.4102 10.9755 6.41617C11.0812 6.46265 11.1274 6.49065 11.2673 6.58486C11.4351 6.69784 11.5511 6.75075 11.7904 6.80293C12.075 6.86503 12.436 6.99926 12.6051 7.10449L12.5809 7.17775C12.4152 7.07936 12.0553 6.94553 11.7719 6.88379C11.5312 6.8313 11.414 6.77782 11.2451 6.6641C11.1066 6.57078 11.0611 6.54324 10.9573 6.49739ZM10.8807 6.46281L10.879 6.45306C10.8819 6.45416 10.8848 6.45527 10.8877 6.45639C10.8852 6.45869 10.8829 6.46084 10.8807 6.46281ZM10.9359 6.40763C10.9265 6.41887 10.9045 6.44082 10.8877 6.45639C10.9135 6.4663 10.938 6.47643 10.9615 6.48682C11.0661 6.533 11.1119 6.56078 11.251 6.65445C11.4188 6.76746 11.5348 6.82037 11.7741 6.87256C12.0586 6.93453 12.4195 7.06875 12.5783 7.1714L12.5971 7.10812C12.4317 7.00986 12.0717 6.87603 11.7882 6.81415C11.5474 6.76168 11.4302 6.7082 11.2614 6.59452C11.122 6.50065 11.0762 6.4729 10.9712 6.42674C10.9705 6.42642 10.9698 6.42609 10.969 6.42577C10.9563 6.42017 10.9435 6.41457 10.9359 6.40763Z" fill="black"/>
<path fill-rule="evenodd" clip-rule="evenodd" d="M13.1553 5.23894C13.1553 5.23887 13.1553 5.23879 13.1553 5.23872L13.1433 5.23581L13.1068 5.35608L13.1187 5.3593C13.1188 5.35927 13.1188 5.35924 13.1188 5.35921L13.1188 5.35921L13.1189 5.35889C13.1329 5.31697 13.1449 5.27737 13.1552 5.23912L13.1553 5.23894L13.1553 5.23894ZM13.1553 5.23894L13.1432 5.23603C13.1329 5.27431 13.1208 5.31397 13.1068 5.356L13.1188 5.35921C13.1188 5.3591 13.1189 5.35899 13.1189 5.35889L13.1552 5.23912C13.1552 5.23906 13.1553 5.239 13.1553 5.23894ZM11.2502 6.20979C11.2059 6.19256 11.1559 6.1668 11.1073 6.13678L11.1049 6.13004L11.1109 6.11062L11.1109 6.11062L11.1109 6.11062C11.1195 6.08298 11.1292 6.05131 11.1395 6.02845C11.474 6.15144 11.7725 6.31446 12.0478 6.51003C12.162 6.59116 12.2302 6.62374 12.4306 6.70492C12.5335 6.74662 12.5908 6.77331 12.6548 6.81962L12.5863 6.93018C12.5008 6.8776 12.2896 6.78292 12.1329 6.7229C12.1323 6.73911 12.1252 6.75771 12.112 6.78191C12.109 6.78742 12.1058 6.79299 12.1014 6.80055C12.0808 6.8358 12.0768 6.84334 12.0732 6.85565C12.0689 6.87033 12.0719 6.87797 12.085 6.88203L12.082 6.89306L12.0819 6.89303L12.0849 6.88201L12.0617 6.87517C12.0598 6.86879 12.0602 6.8611 12.0627 6.85228C12.0667 6.8386 12.0708 6.83102 12.0921 6.79456C12.0964 6.78708 12.0995 6.7816 12.1025 6.77621C12.1171 6.74945 12.1236 6.73043 12.1218 6.71531L12.129 6.7092C12.2869 6.76926 12.5042 6.8664 12.5844 6.92232L12.6474 6.82164C12.5859 6.78359 12.5291 6.7571 12.4267 6.71562C12.2255 6.63413 12.1568 6.6013 12.0417 6.51953C11.7672 6.32448 11.4694 6.16192 11.143 6.03522C11.1375 6.05883 11.1263 6.09848 11.1166 6.12924L11.1129 6.1269L11.1153 6.13365L11.1166 6.12924C11.1635 6.15794 11.2116 6.18269 11.2573 6.20604C11.2557 6.21188 11.2536 6.21782 11.2512 6.22384C11.2374 6.25839 11.2136 6.29267 11.1741 6.33942L11.1323 6.38828C11.1177 6.40573 11.1077 6.41869 11.1006 6.43002C11.0844 6.45572 11.0843 6.46996 11.1013 6.47864C11.1183 6.48756 11.1634 6.51612 11.2123 6.54813C11.2124 6.55706 11.2161 6.56414 11.2238 6.56926L11.2296 6.55956L11.2123 6.54813C11.2121 6.53638 11.2181 6.52142 11.2293 6.50353C11.2437 6.48052 11.2637 6.45581 11.3018 6.41221L11.3067 6.40661C11.3772 6.32613 11.3987 6.29775 11.3981 6.27853L11.4053 6.27291C11.4935 6.30353 11.5758 6.34778 11.6827 6.41695L11.6865 6.41947L11.6865 6.41948L11.6865 6.4195L11.6866 6.41951L11.6866 6.41953L11.6866 6.41955C11.7083 6.43388 11.8131 6.50306 11.843 6.52142C11.8993 6.55601 11.9432 6.57769 11.9869 6.59614C11.9821 6.61526 11.9732 6.63617 11.9599 6.66054C11.9532 6.67294 11.9458 6.68561 11.9357 6.70214L11.9351 6.703L11.9351 6.703C11.9022 6.75683 11.8956 6.76755 11.8908 6.77899L11.887 6.7888C11.8781 6.81243 11.8814 6.82423 11.8996 6.82899C11.9196 6.83359 11.9529 6.84299 12.0086 6.85943L12.0128 6.86069L12.0507 6.87191L12.0617 6.87517C12.0643 6.88352 12.0709 6.88961 12.0819 6.89303L12.0477 6.88295L12.0098 6.87172L12.0056 6.87047C11.9502 6.8541 11.917 6.84472 11.8971 6.84016C11.8712 6.83339 11.8658 6.81392 11.8768 6.78458L11.881 6.77389C11.8859 6.76213 11.8927 6.75112 11.9257 6.69722L11.9265 6.69594C11.9365 6.67957 11.9439 6.66705 11.9505 6.65487C11.955 6.64643 11.9591 6.63844 11.9627 6.63116L11.9627 6.63115L11.9627 6.63115C11.9693 6.61809 11.9748 6.60729 11.9802 6.60022C11.9392 6.58843 11.8946 6.56637 11.8375 6.53132C11.8073 6.51273 11.7011 6.44266 11.6804 6.42902L11.6804 6.42901L11.677 6.42672C11.5734 6.35971 11.4932 6.31632 11.4085 6.28613C11.4048 6.30872 11.3815 6.33816 11.3147 6.41438L11.3099 6.41996C11.2721 6.46309 11.2523 6.48752 11.2384 6.50982C11.2217 6.5365 11.2191 6.55258 11.2296 6.55956L11.2238 6.56927C11.169 6.53309 11.1149 6.49862 11.0965 6.48893C11.072 6.47644 11.0722 6.45438 11.0915 6.4237C11.0989 6.41182 11.1092 6.39851 11.1241 6.38069L11.1659 6.33182C11.2047 6.28594 11.2279 6.25247 11.2412 6.21941L11.2415 6.21853C11.2436 6.2132 11.2456 6.2083 11.2502 6.20979ZM13.5643 6.52399C13.5722 6.45458 13.4914 6.40619 13.3412 6.3751C13.221 6.35025 13.0599 6.33755 12.8891 6.33611L12.8877 6.34739L13.5575 6.52886L13.5643 6.52399ZM13.5539 6.51603L13.5602 6.51776L13.5534 6.52263C13.5537 6.52041 13.5538 6.51821 13.5539 6.51603ZM12.9345 6.34823C13.0876 6.35137 13.2304 6.36387 13.339 6.38636C13.4785 6.41521 13.5546 6.45879 13.5539 6.51603L12.9345 6.34823ZM12.9345 6.34823L12.889 6.34758L12.8904 6.33629L12.9345 6.34823ZM12.8272 6.30148C12.8345 6.24293 12.8444 6.18594 12.8572 6.13065L12.845 6.12854L12.8149 6.29992L12.8272 6.30148ZM12.8272 6.30175L12.8148 6.30019C12.8221 6.24128 12.8321 6.18392 12.845 6.12826L12.8573 6.13037L12.8272 6.30175Z" fill="black"/>
<path fill-rule="evenodd" clip-rule="evenodd" d="M13.0499 5.72503C12.8769 6.1271 12.8344 6.59908 12.9612 6.88096L12.9544 6.88879L12.8736 6.85567C12.8107 6.70934 12.7916 6.5155 12.8192 6.30646L12.7915 6.30051C12.7688 6.29573 12.751 6.29263 12.7336 6.29074C12.6575 6.28247 12.6141 6.30149 12.608 6.3615C12.6094 6.34556 12.6112 6.32935 12.6132 6.31285C12.6349 6.28229 12.6767 6.27303 12.7348 6.27933C12.7525 6.28126 12.7707 6.28443 12.7937 6.28926C12.8 6.29059 12.8197 6.29487 12.8257 6.30148C12.8026 6.5149 12.8216 6.70672 12.8804 6.84793L12.9459 6.87325C12.9477 6.87749 12.9495 6.8817 12.9514 6.88586L12.9582 6.87803L12.9459 6.87325C12.8242 6.58663 12.8682 6.11926 13.0399 5.72031C13.2058 5.33463 13.2571 4.99305 13.242 4.62189C13.2672 4.62235 13.2866 4.61562 13.3263 4.59606L13.3282 4.59513C13.3391 4.58976 13.3441 4.58731 13.3504 4.58448C13.523 4.50582 13.6797 4.51695 13.7877 4.59462C13.8627 4.64859 13.8979 4.7269 13.8772 4.78018C13.8678 4.78622 13.8596 4.79282 13.8481 4.80251L13.8481 4.80252L13.855 4.81142C13.8652 4.8026 13.8726 4.79201 13.8772 4.78018C13.892 4.7706 13.9095 4.76239 13.9469 4.74538L13.9542 4.742C14.0145 4.7144 13.9308 4.53318 13.7789 4.45739C13.7101 4.42306 13.5719 4.4173 13.4734 4.43856L13.4681 4.42923C13.5408 4.33946 13.5919 4.30707 13.6966 4.29495C13.6979 4.33457 13.6884 4.38038 13.6724 4.41837L13.665 4.41744L13.6652 4.41778L13.6693 4.4256C13.6703 4.42328 13.6713 4.42092 13.6724 4.41853C13.6724 4.41848 13.6724 4.41843 13.6724 4.41837L13.6764 4.41887C13.7074 4.42261 13.7279 4.42596 13.7454 4.43249C13.7563 4.43657 13.7661 4.44188 13.7765 4.44931C13.7774 4.44783 13.7782 4.44633 13.779 4.44482C13.805 4.39598 13.8186 4.33027 13.818 4.26044C13.8469 4.25227 13.8751 4.24372 13.9155 4.23111C14.044 4.19098 14.066 4.18442 14.1207 4.17178C14.1987 4.15375 14.2672 4.14622 14.335 4.15007C14.4675 4.15758 14.5645 4.2077 14.5922 4.27552C14.6107 4.32071 14.5953 4.36513 14.5509 4.399C14.5405 4.40248 14.5304 4.40587 14.5209 4.40906C14.5106 4.41252 14.5009 4.41577 14.4923 4.41866C14.5718 4.38664 14.6041 4.33351 14.5822 4.28005C14.5564 4.21698 14.4632 4.16882 14.3344 4.16152C14.2677 4.15773 14.2001 4.16516 14.1231 4.18298C14.0688 4.19553 14.0468 4.20207 13.9186 4.2421C13.8782 4.25474 13.8498 4.26331 13.8249 4.26556C13.8294 4.32985 13.8164 4.39558 13.785 4.44775M13.6609 4.41736C13.6772 4.38021 13.6872 4.33457 13.6921 4.3008C13.6011 4.31707 13.5524 4.34589 13.4867 4.42426C13.5406 4.41448 13.6037 4.41208 13.6609 4.41736ZM14.4953 4.42969C14.5171 4.42096 14.5357 4.4106 14.5509 4.399C14.6068 4.38023 14.6703 4.35883 14.6933 4.35047C14.7791 4.31919 14.8345 4.29173 14.877 4.25687C14.9849 4.16854 14.9403 3.97933 14.7454 3.93756C14.526 3.89045 14.3813 3.90853 14.0876 3.99013L14.0674 3.99574C13.8057 4.06832 13.6666 4.08645 13.4716 4.04978C13.3374 4.02458 13.2401 4.0253 13.1715 4.05919C13.0898 4.09953 13.0523 4.18733 13.0642 4.33448L13.0679 4.38225L13.0681 4.38463L13.0713 4.42423C13.0713 4.53092 12.944 4.58433 12.8226 4.51593C12.8163 4.50806 12.8099 4.49962 12.8034 4.49057L12.7959 4.49877C12.8048 4.50517 12.8137 4.51088 12.8226 4.51593C12.8585 4.56067 12.8905 4.58677 12.924 4.60033C12.9554 4.61306 12.9793 4.61494 13.0455 4.61363C13.0562 4.61342 13.061 4.61334 13.0619 4.6188C13.0624 4.60247 13.073 4.59533 13.0902 4.59618C13.102 4.59677 13.1152 4.60026 13.1396 4.60836L13.1429 4.60943C13.1793 4.62155 13.193 4.62466 13.2002 4.62092L13.2081 4.62588C13.2146 4.83399 13.1981 5.03086 13.1417 5.24259C13.052 5.20088 12.9959 5.19882 12.9766 5.25283C12.9687 5.27915 12.9606 5.30479 12.952 5.33025C12.942 5.3377 12.9343 5.3487 12.9289 5.36351C12.9423 5.32589 12.9545 5.28839 12.9663 5.2491C12.989 5.18564 13.0511 5.18793 13.1386 5.23598C13.1866 5.03168 13.2033 4.83807 13.1974 4.6337C13.187 4.63527 13.1719 4.63112 13.1396 4.62036L13.1363 4.6193C13.1128 4.61151 13.1002 4.60816 13.0897 4.60764C13.0779 4.60705 13.0731 4.6103 13.0674 4.62474L13.0457 4.6251C12.978 4.62643 12.9532 4.62448 12.9201 4.61103C12.8786 4.59422 12.8397 4.55961 12.7947 4.49752L12.8021 4.48933C12.9242 4.57774 13.0603 4.52843 13.0604 4.42476C13.0591 4.4101 13.0582 4.39936 13.0572 4.38552L13.057 4.38314L13.0534 4.33545C13.041 4.1839 13.0806 4.09141 13.1668 4.04881C13.2381 4.01364 13.3373 4.0129 13.4735 4.0385C13.6666 4.0748 13.8043 4.05684 14.0646 3.98465L14.0848 3.97905C14.38 3.89702 14.5261 3.87877 14.7476 3.92632C14.9515 3.97004 14.9991 4.17151 14.8837 4.26591C14.8401 4.30171 14.7838 4.32964 14.6968 4.36131C14.6695 4.37127 14.585 4.39959 14.524 4.42006C14.5136 4.42354 14.5039 4.42679 14.4953 4.42969ZM12.9389 5.36825C12.9434 5.35559 12.9478 5.34294 12.952 5.33025C12.984 5.30645 13.0395 5.31892 13.1172 5.35931C13.085 5.46978 13.0434 5.58223 12.9917 5.69687C12.93 5.8337 12.8819 5.98271 12.8452 6.13502C12.7274 6.10418 12.6495 6.10616 12.6383 6.16407C12.6275 6.21644 12.6191 6.26582 12.6132 6.31285C12.6046 6.32503 12.5992 6.34059 12.5972 6.3599C12.6027 6.29817 12.6129 6.2326 12.6276 6.16171C12.6409 6.09335 12.7232 6.09126 12.8412 6.12827C12.8714 5.97945 12.9198 5.82959 12.9819 5.69196C13.0333 5.57782 13.0747 5.46589 13.1098 5.36287C13.0159 5.31914 12.9579 5.31484 12.9389 5.36826L12.9389 5.36825ZM12.6077 6.36496C12.6077 6.36498 12.6077 6.36501 12.6077 6.36503L12.5968 6.36405C12.5969 6.36265 12.597 6.36126 12.5972 6.3599C12.597 6.36126 12.5969 6.36262 12.5968 6.36398L12.6077 6.36496ZM12.6077 6.36483C12.6077 6.36487 12.6077 6.36492 12.6077 6.36496L12.6077 6.36496C12.6077 6.36492 12.6077 6.36487 12.6077 6.36483ZM12.9389 5.36825C12.9389 5.36826 12.9389 5.36826 12.9389 5.36826L12.9286 5.36424C12.9287 5.364 12.9288 5.36375 12.9289 5.36351C12.9288 5.36375 12.9287 5.364 12.9286 5.36424L12.9389 5.36825ZM14.4953 4.42969C14.4844 4.43405 14.4727 4.43801 14.4603 4.44151L14.4572 4.43053C14.4633 4.42842 14.4759 4.42417 14.4923 4.41866C14.4815 4.42299 14.4699 4.42693 14.4575 4.43044L14.4606 4.44142C14.4666 4.43934 14.479 4.43515 14.4953 4.42969Z" fill="black"/>
</g>
</svg>
