<svg width="21" height="15" viewBox="0 0 21 15" fill="none" xmlns="http://www.w3.org/2000/svg">
<rect x="0.25" y="0.25" width="20.5" height="14.5" rx="1.75" fill="white" stroke="#F5F5F5" stroke-width="0.5"/>
<mask id="mask0_2314_21402" style="mask-type:alpha" maskUnits="userSpaceOnUse" x="0" y="0" width="21" height="15">
<rect x="0.25" y="0.25" width="20.5" height="14.5" rx="1.75" fill="white" stroke="white" stroke-width="0.5"/>
</mask>
<g mask="url(#mask0_2314_21402)">
<path fill-rule="evenodd" clip-rule="evenodd" d="M0 5H21V0H0V5Z" fill="#DF1E35"/>
<path fill-rule="evenodd" clip-rule="evenodd" d="M0 15H21V10H0V15Z" fill="#262626"/>
<path fill-rule="evenodd" clip-rule="evenodd" d="M14 6.53934C14 6.29155 14.2608 6.13039 14.4824 6.2412L14.8157 6.40787C14.9287 6.46433 15 6.57975 15 6.70601V8.66667C15 8.85076 14.8508 9 14.6667 9H14.3333C14.1492 9 14 8.85076 14 8.66667V6.53934Z" fill="#0F7A40"/>
<path fill-rule="evenodd" clip-rule="evenodd" d="M8 6.53934C8 6.29155 8.26077 6.13039 8.4824 6.2412L8.81574 6.40787C8.92867 6.46433 9 6.57975 9 6.70601V8.66667C9 8.85076 8.85076 9 8.66667 9H8.33333C8.14924 9 8 8.85076 8 8.66667V6.53934Z" fill="#0F7A40"/>
<path fill-rule="evenodd" clip-rule="evenodd" d="M12 6.70601C12 6.57975 12.0713 6.46433 12.1843 6.40787L12.5176 6.2412C12.7392 6.13039 13 6.29155 13 6.53935V8.66667C13 8.85076 12.8508 9 12.6667 9H12.3333C12.1492 9 12 8.85076 12 8.66667V6.70601Z" fill="#0F7A40"/>
<path fill-rule="evenodd" clip-rule="evenodd" d="M10 7.70601C10 7.57975 10.0713 7.46433 10.1843 7.40786L10.5176 7.2412C10.7392 7.13038 11 7.29155 11 7.53934V8.04478H12.5V9H11H10.3333C10.1492 9 10 8.85076 10 8.66666V7.70601Z" fill="#0F7A40"/>
<path fill-rule="evenodd" clip-rule="evenodd" d="M6 7.70601C6 7.57975 6.07133 7.46433 6.18426 7.40786L6.5176 7.2412C6.73923 7.13038 7 7.29155 7 7.53934V8.04478H8.5V9H7H6.33333C6.14924 9 6 8.85076 6 8.66666V7.70601Z" fill="#0F7A40"/>
</g>
</svg>
