<svg width="21" height="15" viewBox="0 0 21 15" fill="none" xmlns="http://www.w3.org/2000/svg">
<rect x="0.25" y="0.25" width="20.5" height="14.5" rx="1.75" fill="white" stroke="#F5F5F5" stroke-width="0.5"/>
<mask id="mask0_2314_21369" style="mask-type:alpha" maskUnits="userSpaceOnUse" x="0" y="0" width="21" height="15">
<rect x="0.25" y="0.25" width="20.5" height="14.5" rx="1.75" fill="white" stroke="white" stroke-width="0.5"/>
</mask>
<g mask="url(#mask0_2314_21369)">
<path fill-rule="evenodd" clip-rule="evenodd" d="M0 5H21V0H0V5Z" fill="#38BB56"/>
<path fill-rule="evenodd" clip-rule="evenodd" d="M0 15H21V10H0V15Z" fill="#DE1B27"/>
<path fill-rule="evenodd" clip-rule="evenodd" d="M1.33333 4C1.14924 4 1 4.14924 1 4.33333V4.66667C1 4.85076 1.14924 5 1.33333 5H1.66667C1.85076 5 2 4.85076 2 4.66667V4.33333C2 4.14924 1.85076 4 1.66667 4H1.33333ZM3.33333 4C3.14924 4 3 4.14924 3 4.33333V4.66667C3 4.85076 3.14924 5 3.33333 5H3.66667C3.85076 5 4 4.85076 4 4.66667V4.33333C4 4.14924 3.85076 4 3.66667 4H3.33333ZM5 4.33333C5 4.14924 5.14924 4 5.33333 4H5.66667C5.85076 4 6 4.14924 6 4.33333V4.66667C6 4.85076 5.85076 5 5.66667 5H5.33333C5.14924 5 5 4.85076 5 4.66667V4.33333ZM7.33333 4C7.14924 4 7 4.14924 7 4.33333V4.66667C7 4.85076 7.14924 5 7.33333 5H7.66667C7.85076 5 8 4.85076 8 4.66667V4.33333C8 4.14924 7.85076 4 7.66667 4H7.33333ZM9 4.33333C9 4.14924 9.14924 4 9.33333 4H9.66667C9.85076 4 10 4.14924 10 4.33333V4.66667C10 4.85076 9.85076 5 9.66667 5H9.33333C9.14924 5 9 4.85076 9 4.66667V4.33333ZM11.3333 4C11.1492 4 11 4.14924 11 4.33333V4.66667C11 4.85076 11.1492 5 11.3333 5H11.6667C11.8508 5 12 4.85076 12 4.66667V4.33333C12 4.14924 11.8508 4 11.6667 4H11.3333ZM13 4.33333C13 4.14924 13.1492 4 13.3333 4H13.6667C13.8508 4 14 4.14924 14 4.33333V4.66667C14 4.85076 13.8508 5 13.6667 5H13.3333C13.1492 5 13 4.85076 13 4.66667V4.33333ZM15.3333 4C15.1492 4 15 4.14924 15 4.33333V4.66667C15 4.85076 15.1492 5 15.3333 5H15.6667C15.8508 5 16 4.85076 16 4.66667V4.33333C16 4.14924 15.8508 4 15.6667 4H15.3333ZM17 4.33333C17 4.14924 17.1492 4 17.3333 4H17.6667C17.8508 4 18 4.14924 18 4.33333V4.66667C18 4.85076 17.8508 5 17.6667 5H17.3333C17.1492 5 17 4.85076 17 4.66667V4.33333ZM19.3333 4C19.1492 4 19 4.14924 19 4.33333V4.66667C19 4.85076 19.1492 5 19.3333 5H19.6667C19.8508 5 20 4.85076 20 4.66667V4.33333C20 4.14924 19.8508 4 19.6667 4H19.3333ZM1 10.3333C1 10.1492 1.14924 10 1.33333 10H1.66667C1.85076 10 2 10.1492 2 10.3333V10.6667C2 10.8508 1.85076 11 1.66667 11H1.33333C1.14924 11 1 10.8508 1 10.6667V10.3333ZM3.33333 10C3.14924 10 3 10.1492 3 10.3333V10.6667C3 10.8508 3.14924 11 3.33333 11H3.66667C3.85076 11 4 10.8508 4 10.6667V10.3333C4 10.1492 3.85076 10 3.66667 10H3.33333ZM5 10.3333C5 10.1492 5.14924 10 5.33333 10H5.66667C5.85076 10 6 10.1492 6 10.3333V10.6667C6 10.8508 5.85076 11 5.66667 11H5.33333C5.14924 11 5 10.8508 5 10.6667V10.3333ZM7.33333 10C7.14924 10 7 10.1492 7 10.3333V10.6667C7 10.8508 7.14924 11 7.33333 11H7.66667C7.85076 11 8 10.8508 8 10.6667V10.3333C8 10.1492 7.85076 10 7.66667 10H7.33333ZM9 10.3333C9 10.1492 9.14924 10 9.33333 10H9.66667C9.85076 10 10 10.1492 10 10.3333V10.6667C10 10.8508 9.85076 11 9.66667 11H9.33333C9.14924 11 9 10.8508 9 10.6667V10.3333ZM11.3333 10C11.1492 10 11 10.1492 11 10.3333V10.6667C11 10.8508 11.1492 11 11.3333 11H11.6667C11.8508 11 12 10.8508 12 10.6667V10.3333C12 10.1492 11.8508 10 11.6667 10H11.3333ZM13 10.3333C13 10.1492 13.1492 10 13.3333 10H13.6667C13.8508 10 14 10.1492 14 10.3333V10.6667C14 10.8508 13.8508 11 13.6667 11H13.3333C13.1492 11 13 10.8508 13 10.6667V10.3333ZM15.3333 10C15.1492 10 15 10.1492 15 10.3333V10.6667C15 10.8508 15.1492 11 15.3333 11H15.6667C15.8508 11 16 10.8508 16 10.6667V10.3333C16 10.1492 15.8508 10 15.6667 10H15.3333ZM17 10.3333C17 10.1492 17.1492 10 17.3333 10H17.6667C17.8508 10 18 10.1492 18 10.3333V10.6667C18 10.8508 17.8508 11 17.6667 11H17.3333C17.1492 11 17 10.8508 17 10.6667V10.3333ZM19.3333 10C19.1492 10 19 10.1492 19 10.3333V10.6667C19 10.8508 19.1492 11 19.3333 11H19.6667C19.8508 11 20 10.8508 20 10.6667V10.3333C20 10.1492 19.8508 10 19.6667 10H19.3333Z" fill="white" fill-opacity="0.5"/>
<mask id="path-6-inside-1_2314_21369" fill="white">
<path fill-rule="evenodd" clip-rule="evenodd" d="M9.49013 6.39085C9.18899 6.6652 9 7.06053 9 7.5C9 8.32842 9.67157 9 10.5 9V9C11.3284 9 12 8.32842 12 7.5C12 7.06882 11.8181 6.68014 11.5268 6.40652"/>
</mask>
<path d="M9.04116 5.89803C8.6072 6.29339 8.33333 6.86518 8.33333 7.5H9.66667C9.66667 7.25587 9.77079 7.03701 9.9391 6.88367L9.04116 5.89803ZM8.33333 7.5C8.33333 8.69661 9.30338 9.66666 10.5 9.66666V8.33333C10.0398 8.33333 9.66667 7.96023 9.66667 7.5H8.33333ZM10.5 9.66666C11.6966 9.66666 12.6667 8.69661 12.6667 7.5H11.3333C11.3333 7.96023 10.9602 8.33333 10.5 8.33333V9.66666ZM12.6667 7.5C12.6667 6.87723 12.4031 6.31498 11.9832 5.92061L11.0703 6.89242C11.2331 7.04529 11.3333 7.26041 11.3333 7.5H12.6667Z" fill="#D80915" mask="url(#path-6-inside-1_2314_21369)"/>
<rect x="10" y="7" width="0.999999" height="2" rx="0.5" fill="#D80915"/>
</g>
</svg>
