<svg width="21" height="15" viewBox="0 0 21 15" fill="none" xmlns="http://www.w3.org/2000/svg">
<rect x="0.25" y="0.25" width="20.5" height="14.5" rx="1.75" fill="white" stroke="#F5F5F5" stroke-width="0.5"/>
<mask id="mask0_2314_23062" style="mask-type:alpha" maskUnits="userSpaceOnUse" x="0" y="0" width="21" height="15">
<rect x="0.25" y="0.25" width="20.5" height="14.5" rx="1.75" fill="white" stroke="white" stroke-width="0.5"/>
</mask>
<g mask="url(#mask0_2314_23062)">
<rect x="-4.73361" y="-1.93712" width="2" height="37" transform="rotate(-55 -4.73361 -1.93712)" fill="#E3243B"/>
<rect width="2" height="37" transform="matrix(-0.573576 -0.819152 -0.819152 0.573576 26.7222 -1.93712)" fill="#E3243B"/>
<path fill-rule="evenodd" clip-rule="evenodd" d="M11.8056 2H10.1944L10.2599 1.9616L9.51978 1.53422L10.4767 1.64107L10.3421 1L11 1.53422L11.6579 1L11.5233 1.64107L12.4802 1.53422L11.7401 1.9616L11.8056 2Z" fill="#FAEF32"/>
<path fill-rule="evenodd" clip-rule="evenodd" d="M9.5 3.875C9.5 3.70238 9.5 3.5174 9.5 3.33333C9.5 2.59695 10.097 2 10.8333 2H11.1667C11.903 2 12.5 2.59695 12.5 3.33333C12.5 3.5174 12.5 3.70238 12.5 3.875C12.5 5.21429 11 5.75 11 5.75C11 5.75 9.5 5.21429 9.5 3.875Z" fill="#E3243B"/>
<mask id="mask1_2314_23062" style="mask-type:alpha" maskUnits="userSpaceOnUse" x="9" y="2" width="4" height="4">
<path fill-rule="evenodd" clip-rule="evenodd" d="M9.5 3.875C9.5 3.70238 9.5 3.5174 9.5 3.33333C9.5 2.59695 10.097 2 10.8333 2H11.1667C11.903 2 12.5 2.59695 12.5 3.33333C12.5 3.5174 12.5 3.70238 12.5 3.875C12.5 5.21429 11 5.75 11 5.75C11 5.75 9.5 5.21429 9.5 3.875Z" fill="white"/>
</mask>
<g mask="url(#mask1_2314_23062)">
<rect x="10.75" y="5" width="0.5" height="0.5" rx="0.25" fill="#FAEF32"/>
<rect x="10" y="4" width="2" height="0.5" rx="0.25" fill="#FAEF32"/>
<rect x="10" y="3" width="2" height="0.5" rx="0.25" fill="#FAEF32"/>
</g>
</g>
</svg>
