<svg width="21" height="15" viewBox="0 0 21 15" fill="none" xmlns="http://www.w3.org/2000/svg">
<rect x="0.25" y="0.25" width="20.5" height="14.5" rx="1.75" fill="white" stroke="#F5F5F5" stroke-width="0.5"/>
<mask id="mask0_2314_21427" style="mask-type:alpha" maskUnits="userSpaceOnUse" x="0" y="0" width="21" height="15">
<rect x="0.25" y="0.25" width="20.5" height="14.5" rx="1.75" fill="white" stroke="white" stroke-width="0.5"/>
</mask>
<g mask="url(#mask0_2314_21427)">
<path fill-rule="evenodd" clip-rule="evenodd" d="M0 15H21V10H0V15Z" fill="#199E56"/>
<path fill-rule="evenodd" clip-rule="evenodd" d="M0 5H21V0H0V5Z" fill="#262626"/>
<path fill-rule="evenodd" clip-rule="evenodd" d="M0 0L10 7.5L0 15V0Z" fill="#E6223A"/>
<path fill-rule="evenodd" clip-rule="evenodd" d="M3.5 8.25L2.84917 8.85145L2.91363 7.96762L2.03761 7.83378L2.7688 7.33311L2.32725 6.56477L3.17459 6.82427L3.5 6L3.82541 6.82427L4.67275 6.56477L4.2312 7.33311L4.96239 7.83378L4.08637 7.96762L4.15083 8.85145L3.5 8.25Z" fill="white"/>
</g>
</svg>
