<svg width="21" height="15" viewBox="0 0 21 15" fill="none" xmlns="http://www.w3.org/2000/svg">
<rect width="21" height="15" rx="2" fill="white"/>
<mask id="mask0_2314_21479" style="mask-type:alpha" maskUnits="userSpaceOnUse" x="0" y="0" width="21" height="15">
<rect width="21" height="15" rx="2" fill="white"/>
</mask>
<g mask="url(#mask0_2314_21479)">
<path fill-rule="evenodd" clip-rule="evenodd" d="M0 4H21V0H0V4Z" fill="#262626"/>
<path fill-rule="evenodd" clip-rule="evenodd" d="M0 15H21V11H0V15Z" fill="#018301"/>
<path fill-rule="evenodd" clip-rule="evenodd" d="M0 11H21V4H0V11Z" fill="white"/>
<path fill-rule="evenodd" clip-rule="evenodd" d="M0 10H21V5H0V10Z" fill="#DC0808"/>
<path fill-rule="evenodd" clip-rule="evenodd" d="M10.5 12.5C11.5 12.5 13 10.5376 13 7.5C13 4.46243 11.5 2.5 10.5 2.5C9.5 2.5 8 4.46243 8 7.5C8 10.5376 9.5 12.5 10.5 12.5Z" fill="#BC0000"/>
<mask id="mask1_2314_21479" style="mask-type:alpha" maskUnits="userSpaceOnUse" x="8" y="2" width="5" height="11">
<path fill-rule="evenodd" clip-rule="evenodd" d="M10.5 12.5C11.5 12.5 13 10.5376 13 7.5C13 4.46243 11.5 2.5 10.5 2.5C9.5 2.5 8 4.46243 8 7.5C8 10.5376 9.5 12.5 10.5 12.5Z" fill="white"/>
</mask>
<g mask="url(#mask1_2314_21479)">
<path fill-rule="evenodd" clip-rule="evenodd" d="M6.5 13C7.88071 13 9 10.5376 9 7.5C9 4.46243 7.88071 2 6.5 2C5.11929 2 4 4.46243 4 7.5C4 10.5376 5.11929 13 6.5 13Z" fill="#262626"/>
<path fill-rule="evenodd" clip-rule="evenodd" d="M14.5 13C15.8807 13 17 10.5376 17 7.5C17 4.46243 15.8807 2 14.5 2C13.1193 2 12 4.46243 12 7.5C12 10.5376 13.1193 13 14.5 13Z" fill="#262626"/>
<g filter="url(#filter0_d_2314_21479)">
<path fill-rule="evenodd" clip-rule="evenodd" d="M10.5 6C10.7761 6 11 5.10457 11 4C11 2.89543 10.7761 2 10.5 2C10.2239 2 10 2.89543 10 4C10 5.10457 10.2239 6 10.5 6ZM10.5 9C10.7761 9 11 8.32843 11 7.5C11 6.67157 10.7761 6 10.5 6C10.2239 6 10 6.67157 10 7.5C10 8.32843 10.2239 9 10.5 9ZM10.5 9C10.2239 9 10 9.89543 10 11C10 12.1046 10.2239 13 10.5 13C10.7761 13 11 12.1046 11 11C11 9.89543 10.7761 9 10.5 9Z" fill="url(#paint0_linear_2314_21479)"/>
</g>
</g>
</g>
<defs>
<filter id="filter0_d_2314_21479" x="10" y="2" width="1" height="12" filterUnits="userSpaceOnUse" color-interpolation-filters="sRGB">
<feFlood flood-opacity="0" result="BackgroundImageFix"/>
<feColorMatrix in="SourceAlpha" type="matrix" values="0 0 0 0 0 0 0 0 0 0 0 0 0 0 0 0 0 0 127 0" result="hardAlpha"/>
<feOffset dy="1"/>
<feColorMatrix type="matrix" values="0 0 0 0 0 0 0 0 0 0 0 0 0 0 0 0 0 0 0.06 0"/>
<feBlend mode="normal" in2="BackgroundImageFix" result="effect1_dropShadow_2314_21479"/>
<feBlend mode="normal" in="SourceGraphic" in2="effect1_dropShadow_2314_21479" result="shape"/>
</filter>
<linearGradient id="paint0_linear_2314_21479" x1="10" y1="2" x2="10" y2="13" gradientUnits="userSpaceOnUse">
<stop stop-color="white"/>
<stop offset="1" stop-color="#F0F0F0"/>
</linearGradient>
</defs>
</svg>
