<svg width="21" height="15" viewBox="0 0 21 15" fill="none" xmlns="http://www.w3.org/2000/svg">
<rect width="21" height="15" rx="2" fill="white"/>
<mask id="mask0_2314_21495" style="mask-type:alpha" maskUnits="userSpaceOnUse" x="0" y="0" width="21" height="15">
<rect width="21" height="15" rx="2" fill="white"/>
</mask>
<g mask="url(#mask0_2314_21495)">
<rect width="21" height="15" fill="#F22A46"/>
<path fill-rule="evenodd" clip-rule="evenodd" d="M10.5 10C11.8807 10 13 8.88071 13 7.5C13 6.11929 11.8807 5 10.5 5C9.11929 5 8 6.11929 8 7.5C8 8.88071 9.11929 10 10.5 10Z" fill="#FFF04D"/>
<path fill-rule="evenodd" clip-rule="evenodd" d="M9.27613 12.8621L10.5 11.0352L11.7239 12.8621L12.0339 10.6851L13.9292 11.8001L13.2639 9.70416L15.4553 9.88636L13.9466 8.28666L16 7.5L13.9466 6.71334L15.4553 5.11364L13.2639 5.29583L13.9292 3.19992L12.0339 4.31488L11.7239 2.13789L10.5 3.96479L9.27613 2.13789L8.96613 4.31488L7.07081 3.19992L7.73606 5.29583L5.54467 5.11364L7.05343 6.71334L5 7.5L7.05343 8.28666L5.54467 9.88636L7.73606 9.70416L7.07081 11.8001L8.96613 10.6851L9.27613 12.8621ZM14 7.5C14 9.43299 12.433 11 10.5 11C8.567 11 7 9.43299 7 7.5C7 5.567 8.567 4 10.5 4C12.433 4 14 5.567 14 7.5Z" fill="#FFF04D"/>
</g>
</svg>
