<svg width="21" height="15" viewBox="0 0 21 15" fill="none" xmlns="http://www.w3.org/2000/svg">
<rect width="21" height="15" rx="2" fill="white"/>
<mask id="mask0_2314_21438" style="mask-type:alpha" maskUnits="userSpaceOnUse" x="0" y="0" width="21" height="15">
<rect width="21" height="15" rx="2" fill="white"/>
</mask>
<g mask="url(#mask0_2314_21438)">
<path fill-rule="evenodd" clip-rule="evenodd" d="M0 4H21V0H0V4Z" fill="#0F3EB6"/>
<path fill-rule="evenodd" clip-rule="evenodd" d="M0 15H21V11H0V15Z" fill="#0F3EB6"/>
<path fill-rule="evenodd" clip-rule="evenodd" d="M0 11H21V4H0V11Z" fill="#ED1A3C"/>
<path fill-rule="evenodd" clip-rule="evenodd" d="M9 6.54541H10V6C10 5.72386 10.2239 5.5 10.5 5.5C10.7761 5.5 11 5.72386 11 6V6.54541H12V7.5H9V6.54541ZM13 6C12.7239 6 12.5 6.22386 12.5 6.5V7.5H13.5V6.5C13.5 6.22386 13.2761 6 13 6ZM8.5 8H7.5L6.5 10H8.5V8ZM9 8V10H12V8H9ZM12.5 8H13.5L14.5 10H12.5V8ZM8 6C7.72386 6 7.5 6.22386 7.5 6.5V7.5H8.5V6.5C8.5 6.22386 8.27614 6 8 6Z" fill="white"/>
</g>
</svg>
