<svg width="21" height="15" viewBox="0 0 21 15" fill="none" xmlns="http://www.w3.org/2000/svg">
<rect x="0.25" y="0.25" width="20.5" height="14.5" rx="1.75" fill="white" stroke="#F5F5F5" stroke-width="0.5"/>
<mask id="mask0_2314_20931" style="mask-type:alpha" maskUnits="userSpaceOnUse" x="0" y="0" width="21" height="15">
<rect x="0.25" y="0.25" width="20.5" height="14.5" rx="1.75" fill="white" stroke="white" stroke-width="0.5"/>
</mask>
<g mask="url(#mask0_2314_20931)">
<path fill-rule="evenodd" clip-rule="evenodd" d="M0 4H21V0H0V4Z" fill="#FFCB49"/>
<path fill-rule="evenodd" clip-rule="evenodd" d="M0 11H21V7H0V11Z" fill="#DC1D34"/>
<path fill-rule="evenodd" clip-rule="evenodd" d="M0 15H21V11H0V15Z" fill="#4985D4"/>
<path fill-rule="evenodd" clip-rule="evenodd" d="M0 15L10 7.5L0 0V15Z" fill="#4BA343"/>
<path fill-rule="evenodd" clip-rule="evenodd" d="M4 10.5C4.25897 10.5 4.51029 10.4672 4.75 10.4055C3.45608 10.0725 2.5 8.89788 2.5 7.5C2.5 6.10212 3.45608 4.92755 4.75 4.59451C4.51029 4.53281 4.25897 4.5 4 4.5C2.34315 4.5 1 5.84315 1 7.5C1 9.15685 2.34315 10.5 4 10.5ZM6 5.5C6 5.77614 5.77614 6 5.5 6C5.22386 6 5 5.77614 5 5.5C5 5.22386 5.22386 5 5.5 5C5.77614 5 6 5.22386 6 5.5ZM5.5 8C5.77614 8 6 7.77614 6 7.5C6 7.22386 5.77614 7 5.5 7C5.22386 7 5 7.22386 5 7.5C5 7.77614 5.22386 8 5.5 8ZM6 9.5C6 9.77614 5.77614 10 5.5 10C5.22386 10 5 9.77614 5 9.5C5 9.22386 5.22386 9 5.5 9C5.77614 9 6 9.22386 6 9.5Z" fill="white"/>
</g>
</svg>
