<svg width="21" height="15" viewBox="0 0 21 15" fill="none" xmlns="http://www.w3.org/2000/svg">
<rect width="21" height="15" rx="2" fill="white"/>
<mask id="mask0_2314_21537" style="mask-type:alpha" maskUnits="userSpaceOnUse" x="0" y="0" width="21" height="15">
<rect width="21" height="15" rx="2" fill="white"/>
</mask>
<g mask="url(#mask0_2314_21537)">
<path fill-rule="evenodd" clip-rule="evenodd" d="M0 10L21 0H0V10Z" fill="#1EC160"/>
<path fill-rule="evenodd" clip-rule="evenodd" d="M0 15H21V5L0 15Z" fill="#DF2A40"/>
<path fill-rule="evenodd" clip-rule="evenodd" d="M0.587938 19L25.1813 3.63239L20.4121 -4.00005L-4.18134 11.3676L0.587938 19V19Z" fill="#FFD956"/>
<path fill-rule="evenodd" clip-rule="evenodd" d="M-0.471902 17.304L24.1215 1.93629L21.4719 -2.30395L-3.1215 13.0637L-0.471902 17.304V17.304Z" fill="#262626"/>
<path fill-rule="evenodd" clip-rule="evenodd" d="M15.2321 5.84808L14.523 6.97109L14.0629 5.7252L12.7758 5.39787L13.8185 4.57531L13.7321 3.25L14.8366 3.98753L16.0703 3.49576L15.7102 4.77414L16.5591 5.79552L15.2321 5.84808V5.84808Z" fill="white"/>
<path fill-rule="evenodd" clip-rule="evenodd" d="M7.23205 10.6981L6.52299 11.8211L6.06292 10.5752L4.77576 10.2479L5.81851 9.42532L5.73205 8.10001L6.83658 8.83753L8.07031 8.34577L7.7102 9.62415L8.55914 10.6455L7.23205 10.6981V10.6981Z" fill="white"/>
</g>
</svg>
