<svg width="21" height="15" viewBox="0 0 21 15" fill="none" xmlns="http://www.w3.org/2000/svg">
<rect width="21" height="15" rx="2" fill="white"/>
<mask id="mask0_2314_21527" style="mask-type:alpha" maskUnits="userSpaceOnUse" x="0" y="0" width="21" height="15">
<rect width="21" height="15" rx="2" fill="white"/>
</mask>
<g mask="url(#mask0_2314_21527)">
<path fill-rule="evenodd" clip-rule="evenodd" d="M0 3H21V0H0V3Z" fill="#1461B6"/>
<path fill-rule="evenodd" clip-rule="evenodd" d="M0 15H21V12H0V15Z" fill="#1461B6"/>
<path fill-rule="evenodd" clip-rule="evenodd" d="M0 12H21V3H0V12Z" fill="white"/>
<path fill-rule="evenodd" clip-rule="evenodd" d="M0 11H21V4H0V11Z" fill="#F53846"/>
<path fill-rule="evenodd" clip-rule="evenodd" d="M10 7.5C10 8.88071 8.88071 10 7.5 10C6.11929 10 5 8.88071 5 7.5C5 6.11929 6.11929 5 7.5 5L6.91034 6.68841L5.12236 6.72746L6.54592 7.81L6.03054 9.52254L7.5 8.50318L8.96946 9.52254L8.45408 7.81L9.87764 6.72746L8.08966 6.68841L7.5 5C8.88071 5 10 6.11929 10 7.5Z" fill="white"/>
</g>
</svg>
