<svg width="21" height="15" viewBox="0 0 21 15" fill="none" xmlns="http://www.w3.org/2000/svg">
<rect x="0.25" y="0.25" width="20.5" height="14.5" rx="1.75" fill="white" stroke="#F5F5F5" stroke-width="0.5"/>
<mask id="mask0_2314_21503" style="mask-type:alpha" maskUnits="userSpaceOnUse" x="0" y="0" width="21" height="15">
<rect x="0.25" y="0.25" width="20.5" height="14.5" rx="1.75" fill="white" stroke="white" stroke-width="0.5"/>
</mask>
<g mask="url(#mask0_2314_21503)">
<path fill-rule="evenodd" clip-rule="evenodd" d="M10.5 11C12.433 11 14 9.433 14 7.5C14 5.567 12.433 4 10.5 4C8.567 4 7 5.567 7 7.5C7 9.433 8.567 11 10.5 11Z" fill="#E01B41"/>
<mask id="mask1_2314_21503" style="mask-type:alpha" maskUnits="userSpaceOnUse" x="7" y="4" width="7" height="7">
<path fill-rule="evenodd" clip-rule="evenodd" d="M10.5 11C12.433 11 14 9.433 14 7.5C14 5.567 12.433 4 10.5 4C8.567 4 7 5.567 7 7.5C7 9.433 8.567 11 10.5 11Z" fill="white"/>
</mask>
<g mask="url(#mask1_2314_21503)">
<path fill-rule="evenodd" clip-rule="evenodd" d="M6.99999 8C7.99999 8.9375 9.49999 9.5 10.5 8C11.5 6.5 13.5 6.5 14 8C14.5 9.5 14 11 14 11H6.99999C6.99999 11 5.99999 7.0625 6.99999 8Z" fill="#0E4B9C"/>
</g>
<path opacity="0.75" fill-rule="evenodd" clip-rule="evenodd" d="M4.58815 2.73964C4.6802 2.58021 4.88406 2.52558 5.04349 2.61763L5.33217 2.78429C5.4916 2.87634 5.54622 3.08021 5.45418 3.23964L4.28751 5.26036C4.19546 5.41979 3.9916 5.47442 3.83217 5.38237L3.54349 5.2157C3.38406 5.12366 3.32944 4.91979 3.42148 4.76036L4.58815 2.73964ZM15.6678 2.78429C15.5084 2.87634 15.4538 3.08021 15.5458 3.23964L16.7125 5.26036C16.8046 5.41979 17.0084 5.47442 17.1678 5.38237L17.4565 5.2157C17.616 5.12366 17.6706 4.91979 17.5785 4.76036L16.4119 2.73964C16.3198 2.58021 16.116 2.52558 15.9565 2.61763L15.6678 2.78429ZM14.3688 3.53429C14.2094 3.62634 14.1548 3.83021 14.2468 3.98964L15.4135 6.01036C15.5055 6.16979 15.7094 6.22442 15.8688 6.13237L16.1575 5.9657C16.3169 5.87366 16.3715 5.66979 16.2795 5.51036L15.1128 3.48964C15.0208 3.33021 14.8169 3.27558 14.6575 3.36763L14.3688 3.53429ZM3.42148 10.2396C3.32944 10.0802 3.38406 9.87634 3.54349 9.7843L3.83217 9.61763C3.9916 9.52558 4.19546 9.58021 4.28751 9.73964L5.45418 11.7604C5.54622 11.9198 5.4916 12.1237 5.33217 12.2157L5.04349 12.3824C4.88406 12.4744 4.6802 12.4198 4.58815 12.2604L3.42148 10.2396ZM4.84253 9.0343C4.6831 9.12634 4.62847 9.33021 4.72052 9.48964L5.88719 11.5104C5.97924 11.6698 6.1831 11.7244 6.34253 11.6324L6.63121 11.4657C6.79064 11.3737 6.84526 11.1698 6.75321 11.0104L5.58655 8.98964C5.4945 8.83021 5.29064 8.77558 5.13121 8.86763L4.84253 9.0343ZM15.4135 8.98964C15.5055 8.83021 15.7094 8.77558 15.8688 8.86763L16.1575 9.0343C16.3169 9.12634 16.3715 9.33021 16.2795 9.48964L15.1128 11.5104C15.0208 11.6698 14.8169 11.7244 14.6575 11.6324L14.3688 11.4657C14.2094 11.3737 14.1548 11.1698 14.2468 11.0104L15.4135 8.98964ZM17.1678 9.61763C17.0084 9.52558 16.8046 9.58021 16.7125 9.73964L15.5458 11.7604C15.4538 11.9198 15.5084 12.1237 15.6678 12.2157L15.9565 12.3824C16.116 12.4744 16.3198 12.4198 16.4119 12.2604L17.5785 10.2396C17.6706 10.0802 17.616 9.87634 17.4565 9.78429L17.1678 9.61763ZM6.34253 3.36763C6.1831 3.27558 5.97924 3.33021 5.88719 3.48964L4.72052 5.51036C4.62847 5.66979 4.6831 5.87366 4.84253 5.9657L5.13121 6.13237C5.29064 6.22442 5.4945 6.16979 5.58655 6.01036L6.75321 3.98964C6.84526 3.83021 6.79064 3.62634 6.63121 3.53429L6.34253 3.36763Z" fill="#262626"/>
</g>
</svg>
