<svg width="21" height="15" viewBox="0 0 21 15" fill="none" xmlns="http://www.w3.org/2000/svg">
<rect width="21" height="15" rx="2" fill="white"/>
<mask id="mask0_2314_21546" style="mask-type:alpha" maskUnits="userSpaceOnUse" x="0" y="0" width="21" height="15">
<rect width="21" height="15" rx="2" fill="white"/>
</mask>
<g mask="url(#mask0_2314_21546)">
<rect width="21" height="15" fill="#07319C"/>
<path fill-rule="evenodd" clip-rule="evenodd" d="M15.5 5C16.3284 5 17 4.55228 17 4C17 3.44772 16.3284 3 15.5 3C14.6716 3 14 3.44772 14 4C14 4.55228 14.6716 5 15.5 5Z" fill="#FAD051"/>
<path fill-rule="evenodd" clip-rule="evenodd" d="M13 7.5C13 6 13 4 13 4H18C18 4 18 6 18 7.5C18 10 15.5 11 15.5 11C15.5 11 13 10 13 7.5Z" fill="url(#paint0_linear_2314_21546)"/>
<mask id="mask1_2314_21546" style="mask-type:alpha" maskUnits="userSpaceOnUse" x="13" y="4" width="5" height="7">
<path fill-rule="evenodd" clip-rule="evenodd" d="M13 7.5C13 6 13 4 13 4H18C18 4 18 6 18 7.5C18 10 15.5 11 15.5 11C15.5 11 13 10 13 7.5Z" fill="white"/>
</mask>
<g mask="url(#mask1_2314_21546)">
<path fill-rule="evenodd" clip-rule="evenodd" d="M13 4H18V5H16H15H13V4Z" fill="#CF142C"/>
<path fill-rule="evenodd" clip-rule="evenodd" d="M18 6H13V7H15H16H18V6ZM13 8H18V9H16H15H13V8ZM13 10H18V11H16H15H13V10Z" fill="#125FBA"/>
</g>
<path d="M0 -0.333333H-0.901086L-0.21693 0.253086L3.16667 3.15331V3.82846L-0.193746 6.22876L-0.333333 6.32846V6.5V7V7.60142L0.176666 7.28267L4.0956 4.83333H4.89318L8.26313 7.24044C8.34771 7.30086 8.44905 7.33333 8.55299 7.33333C9.01598 7.33333 9.22907 6.75732 8.87754 6.45601L5.83333 3.84669V3.17154L9.05416 0.87095C9.22936 0.745809 9.33333 0.543761 9.33333 0.328461V0V-0.601416L8.82333 -0.282666L4.9044 2.16667H4.10682L0.693746 -0.271244L0.606822 -0.333333H0.5H0Z" fill="#DB1E36" stroke="white" stroke-width="0.666667"/>
<path fill-rule="evenodd" clip-rule="evenodd" d="M0 2.5V4.5H3.5V6.83333C3.5 7.20152 3.79848 7.5 4.16667 7.5H4.83333C5.20152 7.5 5.5 7.20152 5.5 6.83333V4.5H8.83333C9.20152 4.5 9.5 4.20152 9.5 3.83333V3.16667C9.5 2.79848 9.20152 2.5 8.83333 2.5H5.5V0H3.5V2.5H0Z" fill="white"/>
<path fill-rule="evenodd" clip-rule="evenodd" d="M0 3H4V2.5V0H5V2.5V3H9V4H5V4.5V7H4V4.5V4H0V3Z" fill="#DB1E36"/>
</g>
<defs>
<linearGradient id="paint0_linear_2314_21546" x1="13" y1="4" x2="13" y2="11" gradientUnits="userSpaceOnUse">
<stop stop-color="white"/>
<stop offset="1" stop-color="#F0F0F0"/>
</linearGradient>
</defs>
</svg>
