<svg width="21" height="15" viewBox="0 0 21 15" fill="none" xmlns="http://www.w3.org/2000/svg">
<rect width="21" height="15" rx="2" fill="white"/>
<mask id="mask0_2314_21457" style="mask-type:alpha" maskUnits="userSpaceOnUse" x="0" y="0" width="21" height="15">
<rect width="21" height="15" rx="2" fill="white"/>
</mask>
<g mask="url(#mask0_2314_21457)">
<rect width="21" height="15" fill="#30C6E0"/>
<path fill-rule="evenodd" clip-rule="evenodd" d="M10.5 10.5C12.1569 10.5 13.5 9.15685 13.5 7.5C13.5 5.84315 12.1569 4.5 10.5 4.5C8.84315 4.5 7.5 5.84315 7.5 7.5C7.5 9.15685 8.84315 10.5 10.5 10.5Z" fill="#FFCD4B"/>
<path fill-rule="evenodd" clip-rule="evenodd" d="M9.27613 12.8621L10.5 11.0352L11.7239 12.8621L12.0339 10.6851L13.9292 11.8001L13.2639 9.70416L15.4553 9.88636L13.9466 8.28666L16 7.5L13.9466 6.71334L15.4553 5.11364L13.2639 5.29583L13.9292 3.19992L12.0339 4.31488L11.7239 2.13789L10.5 3.96479L9.27613 2.13789L8.96613 4.31488L7.07081 3.19992L7.73606 5.29583L5.54467 5.11364L7.05343 6.71334L5 7.5L7.05343 8.28666L5.54467 9.88636L7.73606 9.70416L7.07081 11.8001L8.96613 10.6851L9.27613 12.8621ZM14 7.5C14 9.43299 12.433 11 10.5 11C8.567 11 7 9.43299 7 7.5C7 5.567 8.567 4 10.5 4C12.433 4 14 5.567 14 7.5Z" fill="#FFCD4B"/>
<path fill-rule="evenodd" clip-rule="evenodd" d="M1 1.33333C1 1.14924 1.14924 1 1.33333 1H1.66667C1.85076 1 2 1.14924 2 1.33333V1.66667C2 1.85076 1.85076 2 1.66667 2H1.33333C1.14924 2 1 1.85076 1 1.66667V1.33333ZM1 3.33333C1 3.14924 1.14924 3 1.33333 3H1.66667C1.85076 3 2 3.14924 2 3.33333V3.66667C2 3.85076 1.85076 4 1.66667 4H1.33333C1.14924 4 1 3.85076 1 3.66667V3.33333ZM1.33333 5C1.14924 5 1 5.14924 1 5.33333V5.66667C1 5.85076 1.14924 6 1.33333 6H1.66667C1.85076 6 2 5.85076 2 5.66667V5.33333C2 5.14924 1.85076 5 1.66667 5H1.33333ZM1 7.33333C1 7.14924 1.14924 7 1.33333 7H1.66667C1.85076 7 2 7.14924 2 7.33333V7.66667C2 7.85076 1.85076 8 1.66667 8H1.33333C1.14924 8 1 7.85076 1 7.66667V7.33333ZM1.33333 9C1.14924 9 1 9.14924 1 9.33333V9.66667C1 9.85076 1.14924 10 1.33333 10H1.66667C1.85076 10 2 9.85076 2 9.66667V9.33333C2 9.14924 1.85076 9 1.66667 9H1.33333ZM1 11.3333C1 11.1492 1.14924 11 1.33333 11H1.66667C1.85076 11 2 11.1492 2 11.3333V11.6667C2 11.8508 1.85076 12 1.66667 12H1.33333C1.14924 12 1 11.8508 1 11.6667V11.3333ZM1.33333 13C1.14924 13 1 13.1492 1 13.3333V13.6667C1 13.8508 1.14924 14 1.33333 14H1.66667C1.85076 14 2 13.8508 2 13.6667V13.3333C2 13.1492 1.85076 13 1.66667 13H1.33333ZM2 12.3333C2 12.1492 2.14924 12 2.33333 12H2.66667C2.85076 12 3 12.1492 3 12.3333V12.6667C3 12.8508 2.85076 13 2.66667 13H2.33333C2.14924 13 2 12.8508 2 12.6667V12.3333ZM2.33333 10C2.14924 10 2 10.1492 2 10.3333V10.6667C2 10.8508 2.14924 11 2.33333 11H2.66667C2.85076 11 3 10.8508 3 10.6667V10.3333C3 10.1492 2.85076 10 2.66667 10H2.33333ZM2 8.33333C2 8.14924 2.14924 8 2.33333 8H2.66667C2.85076 8 3 8.14924 3 8.33333V8.66667C3 8.85076 2.85076 9 2.66667 9H2.33333C2.14924 9 2 8.85076 2 8.66667V8.33333ZM2.33333 6C2.14924 6 2 6.14924 2 6.33333V6.66667C2 6.85076 2.14924 7 2.33333 7H2.66667C2.85076 7 3 6.85076 3 6.66667V6.33333C3 6.14924 2.85076 6 2.66667 6H2.33333ZM2 4.33333C2 4.14924 2.14924 4 2.33333 4H2.66667C2.85076 4 3 4.14924 3 4.33333V4.66667C3 4.85076 2.85076 5 2.66667 5H2.33333C2.14924 5 2 4.85076 2 4.66667V4.33333ZM2.33333 2C2.14924 2 2 2.14924 2 2.33333V2.66667C2 2.85076 2.14924 3 2.33333 3H2.66667C2.85076 3 3 2.85076 3 2.66667V2.33333C3 2.14924 2.85076 2 2.66667 2H2.33333Z" fill="#FFCD4B"/>
</g>
</svg>
