<svg width="21" height="15" viewBox="0 0 21 15" fill="none" xmlns="http://www.w3.org/2000/svg">
<rect x="0.25" y="0.25" width="20.5" height="14.5" rx="1.75" fill="white" stroke="#F5F5F5" stroke-width="0.5"/>
<mask id="mask0_2314_21614" style="mask-type:alpha" maskUnits="userSpaceOnUse" x="0" y="0" width="21" height="15">
<rect x="0.25" y="0.25" width="20.5" height="14.5" rx="1.75" fill="white" stroke="white" stroke-width="0.5"/>
</mask>
<g mask="url(#mask0_2314_21614)">
<path fill-rule="evenodd" clip-rule="evenodd" d="M0 4H21V0H0V4Z" fill="#F03340"/>
<path fill-rule="evenodd" clip-rule="evenodd" d="M0 15H21V11H0V15Z" fill="#F03340"/>
<path fill-rule="evenodd" clip-rule="evenodd" d="M9.70711 9.29289C9.86887 9.13113 9.86887 8.86887 9.70711 8.70711L9.64957 8.64957C9.55678 8.55678 9.4221 8.51947 9.29479 8.5513L9.01035 8.62241C8.6776 8.7056 8.47107 8.2717 8.74547 8.0659L9.00249 7.87313C9.16186 7.7536 9.07733 7.5 8.87812 7.5V7.5C8.65937 7.5 8.58976 7.20512 8.78541 7.10729L9.21459 6.8927C9.41024 6.79488 9.34063 6.5 9.12188 6.5V6.5C8.92267 6.5 8.83814 6.2464 8.99751 6.12687L10.1 5.3C10.337 5.12222 10.663 5.12222 10.9 5.3L12.0025 6.12687C12.1619 6.2464 12.0773 6.5 11.8781 6.5V6.5C11.6594 6.5 11.5898 6.79488 11.7854 6.89271L12.2146 7.10729C12.4102 7.20512 12.3406 7.5 12.1219 7.5V7.5C11.9227 7.5 11.8381 7.7536 11.9975 7.87313L12.2545 8.0659C12.5289 8.2717 12.3224 8.7056 11.9896 8.62241L11.7052 8.5513C11.5779 8.51947 11.4432 8.55678 11.3504 8.64957L11.2929 8.70711C11.1311 8.86887 11.1311 9.13113 11.2929 9.29289V9.29289C11.5538 9.55383 11.369 10 11 10H10C9.63098 10 9.44617 9.55383 9.70711 9.29289V9.29289Z" fill="#1FC065"/>
</g>
</svg>
