<svg width="21" height="15" viewBox="0 0 21 15" fill="none" xmlns="http://www.w3.org/2000/svg">
<rect width="21" height="15" rx="2" fill="white"/>
<mask id="mask0_2314_21631" style="mask-type:alpha" maskUnits="userSpaceOnUse" x="0" y="0" width="21" height="15">
<rect width="21" height="15" rx="2" fill="white"/>
</mask>
<g mask="url(#mask0_2314_21631)">
<rect width="21" height="15" fill="#FFBF19"/>
<path fill-rule="evenodd" clip-rule="evenodd" d="M8 1H18.6667C19.403 1 20 1.59695 20 2.33333V12.6667C20 13.403 19.403 14 18.6667 14H8V1Z" fill="#A52531"/>
<path d="M1 2.33333C1 1.59695 1.59695 1 2.33333 1H4V14H2.33333C1.59695 14 1 13.403 1 12.6667V2.33333Z" fill="#03664F"/>
<rect x="4" y="1" width="3" height="13" rx="0.666667" fill="#FF6816"/>
<path fill-rule="evenodd" clip-rule="evenodd" d="M10 2.5C10 2.77614 9.77614 3 9.5 3C9.22386 3 9 2.77614 9 2.5V2H9.5C9.77614 2 10 2.22386 10 2.5ZM18 2.5C18 2.77614 18.2239 3 18.5 3C18.7761 3 19 2.77614 19 2.5V2H18.5C18.2239 2 18 2.22386 18 2.5ZM18.5 12C18.2239 12 18 12.2239 18 12.5C18 12.7761 18.2239 13 18.5 13H19V12.5C19 12.2239 18.7761 12 18.5 12ZM10 12.5C10 12.2239 9.77614 12 9.5 12C9.22386 12 9 12.2239 9 12.5V13H9.5C9.77614 13 10 12.7761 10 12.5Z" fill="#FFBF18"/>
<path fill-rule="evenodd" clip-rule="evenodd" d="M12 9.43019C12 9.1926 11.8074 9 11.5698 9V9C11.5236 9 11.4778 8.99262 11.4342 8.97706C11.1449 8.87365 10 8.43683 10 8C10 7.76838 10.1073 7.53677 10.2225 7.35486C10.3683 7.12456 10.4293 6.83603 10.3354 6.58014C10.1659 6.11826 9.93502 5.38989 10 5C10.0238 4.85734 10.0928 4.72596 10.1843 4.60857C10.4808 4.22792 11 4.54364 11 5.02616V6.58798C11 6.84049 11.1427 7.07133 11.3685 7.18426L11.7838 7.39188C11.9129 7.45645 12.0689 7.43114 12.1709 7.32906V7.32906C12.3328 7.16717 12.2885 6.89427 12.0838 6.79188L11.5 6.5V6V6C11.7491 6 11.8284 5.66419 11.6056 5.55278L11.5 5.5V5H12.2239C12.4007 5 12.5702 4.92976 12.6953 4.80474L12.8047 4.69526C12.9298 4.57024 13.0993 4.5 13.2761 4.5H13.588C13.8405 4.5 14.0713 4.64267 14.1843 4.86852L14.3765 5.25301C14.4556 5.41115 14.4686 5.59423 14.4127 5.76197L14.2925 6.12251C14.1486 6.5542 14.4699 7 14.925 7H16.3374C16.4415 7 16.5414 6.95865 16.615 6.88504V6.88504C16.8044 6.69562 16.7526 6.37628 16.513 6.25647L16.1408 6.07038C16.0482 6.0241 15.9461 6 15.8426 6H15.6667C15.2985 6 15 5.70152 15 5.33333V5.27614C15 5.09933 15.0702 4.92976 15.1953 4.80474L15.5 4.5V5C15.5 5.27614 15.7239 5.5 16 5.5V5.5H16.588C16.8405 5.5 17.0713 5.64267 17.1843 5.86852L17.4465 6.39307C17.4819 6.46379 17.5045 6.53995 17.5114 6.61872C17.5356 6.89383 17.5834 7.58324 17.5 8C17.436 8.32012 17.2667 8.61851 17.1428 8.80454C17.056 8.93486 17 9.08581 17 9.24239V10.618C17 10.829 16.829 11 16.618 11V11C16.3341 11 16.1494 10.7012 16.2764 10.4472L16.4472 10.1056C16.4804 10.0391 16.4804 9.96088 16.4472 9.89443L16.4236 9.84721C16.3181 9.63617 16 9.71126 16 9.94721V9.94721C16 9.98193 15.9919 10.0162 15.9764 10.0472L15.6236 10.7528C15.5479 10.9043 15.393 11 15.2236 11V11C14.8912 11 14.6749 10.6501 14.8236 10.3528L14.9363 10.1273C14.9782 10.0436 15 9.95126 15 9.85765L15 9.66666C15 9.29847 14.7015 9 14.3333 9H13.6667C13.2985 9 13 9.29847 13 9.66666V9.84262C13 9.94612 12.9759 10.0482 12.9296 10.1408L12.6236 10.7528C12.5479 10.9043 12.393 11 12.2236 11V11C11.8912 11 11.6749 10.6501 11.8236 10.3528L11.9363 10.1273C11.9782 10.0436 12 9.95126 12 9.85765V9.43019Z" fill="#FFBF18"/>
</g>
</svg>
