<svg width="21" height="15" viewBox="0 0 21 15" fill="none" xmlns="http://www.w3.org/2000/svg">
<rect x="0.25" y="0.25" width="20.5" height="14.5" rx="1.75" fill="white" stroke="#F5F5F5" stroke-width="0.5"/>
<mask id="mask0_2314_21590" style="mask-type:alpha" maskUnits="userSpaceOnUse" x="0" y="0" width="21" height="15">
<rect x="0.25" y="0.25" width="20.5" height="14.5" rx="1.75" fill="white" stroke="white" stroke-width="0.5"/>
</mask>
<g mask="url(#mask0_2314_21590)">
<path fill-rule="evenodd" clip-rule="evenodd" d="M21 0H10V2H21V0ZM21 4H10V6H21V4ZM10 8H21V10H10V8ZM21 12H0V14H21V12Z" fill="#E1244A"/>
<rect width="10" height="10" fill="#0C3F8E"/>
<path fill-rule="evenodd" clip-rule="evenodd" d="M5 6.17L3.23664 7.42705L3.88726 5.36155L2.14683 4.07295L4.31229 4.05345L5 2L5.68771 4.05345L7.85317 4.07295L6.11274 5.36155L6.76336 7.42705L5 6.17Z" fill="white"/>
</g>
</svg>
