<svg width="21" height="15" viewBox="0 0 21 15" fill="none" xmlns="http://www.w3.org/2000/svg">
<rect x="0.25" y="0.25" width="20.5" height="14.5" rx="1.75" fill="white" stroke="#F5F5F5" stroke-width="0.5"/>
<mask id="mask0_2314_21607" style="mask-type:alpha" maskUnits="userSpaceOnUse" x="0" y="0" width="21" height="15">
<rect x="0.25" y="0.25" width="20.5" height="14.5" rx="1.75" fill="white" stroke="white" stroke-width="0.5"/>
</mask>
<g mask="url(#mask0_2314_21607)">
<path fill-rule="evenodd" clip-rule="evenodd" d="M0 5H21V0H0V5Z" fill="#0C33B8"/>
<path fill-rule="evenodd" clip-rule="evenodd" d="M0 15H21V10H0V15Z" fill="#1DB158"/>
<path fill-rule="evenodd" clip-rule="evenodd" d="M10 7.5V7.5C10.1602 7.01949 10.8398 7.01949 11 7.5V7.5L11.8484 8.77263C11.9366 8.90483 11.9166 9.07937 11.7815 9.16293C11.5455 9.30885 11.1183 9.5 10.5 9.5C9.88169 9.5 9.45454 9.30885 9.21854 9.16293C9.08339 9.07937 9.06344 8.90483 9.15158 8.77263L10 7.5Z" fill="#262626"/>
<path d="M11.1667 6.5C11.1667 6.86819 10.8682 7.16667 10.5 7.16667C10.1318 7.16667 9.83333 6.86819 9.83333 6.5C9.83333 6.13181 10.1318 5.83333 10.5 5.83333C10.8682 5.83333 11.1667 6.13181 11.1667 6.5Z" stroke="#262626" stroke-width="0.666667"/>
</g>
</svg>
