<svg width="21" height="15" viewBox="0 0 21 15" fill="none" xmlns="http://www.w3.org/2000/svg">
<rect width="21" height="15" rx="2" fill="white"/>
<mask id="mask0_2314_21579" style="mask-type:alpha" maskUnits="userSpaceOnUse" x="0" y="0" width="21" height="15">
<rect width="21" height="15" rx="2" fill="white"/>
</mask>
<g mask="url(#mask0_2314_21579)">
<g filter="url(#filter0_d_2314_21579)">
<path fill-rule="evenodd" clip-rule="evenodd" d="M0 10H21V5H0V10Z" fill="#262626"/>
</g>
<g filter="url(#filter1_d_2314_21579)">
<path fill-rule="evenodd" clip-rule="evenodd" d="M0 15H21V10H0V15Z" fill="#34B857"/>
</g>
<path fill-rule="evenodd" clip-rule="evenodd" d="M0 5H21V0H0V5Z" fill="#F41F34"/>
<path fill-rule="evenodd" clip-rule="evenodd" d="M10.5 9C10.8085 9 11.0952 8.90689 11.3336 8.74725C11.3059 8.74907 11.2781 8.75 11.25 8.75C10.5596 8.75 10 8.19036 10 7.5C10 6.80964 10.5596 6.25 11.25 6.25C11.2781 6.25 11.3059 6.25093 11.3336 6.25275C11.0952 6.09311 10.8085 6 10.5 6C9.67157 6 9 6.67157 9 7.5C9 8.32843 9.67157 9 10.5 9ZM12 7.5C12 7.77614 11.7761 8 11.5 8C11.2239 8 11 7.77614 11 7.5C11 7.22386 11.2239 7 11.5 7C11.7761 7 12 7.22386 12 7.5Z" fill="white"/>
</g>
<defs>
<filter id="filter0_d_2314_21579" x="0" y="5" width="21" height="5" filterUnits="userSpaceOnUse" color-interpolation-filters="sRGB">
<feFlood flood-opacity="0" result="BackgroundImageFix"/>
<feColorMatrix in="SourceAlpha" type="matrix" values="0 0 0 0 0 0 0 0 0 0 0 0 0 0 0 0 0 0 127 0" result="hardAlpha"/>
<feOffset/>
<feColorMatrix type="matrix" values="0 0 0 0 0 0 0 0 0 0 0 0 0 0 0 0 0 0 0.06 0"/>
<feBlend mode="normal" in2="BackgroundImageFix" result="effect1_dropShadow_2314_21579"/>
<feBlend mode="normal" in="SourceGraphic" in2="effect1_dropShadow_2314_21579" result="shape"/>
</filter>
<filter id="filter1_d_2314_21579" x="0" y="10" width="21" height="5" filterUnits="userSpaceOnUse" color-interpolation-filters="sRGB">
<feFlood flood-opacity="0" result="BackgroundImageFix"/>
<feColorMatrix in="SourceAlpha" type="matrix" values="0 0 0 0 0 0 0 0 0 0 0 0 0 0 0 0 0 0 127 0" result="hardAlpha"/>
<feOffset/>
<feColorMatrix type="matrix" values="0 0 0 0 0 0 0 0 0 0 0 0 0 0 0 0 0 0 0.06 0"/>
<feBlend mode="normal" in2="BackgroundImageFix" result="effect1_dropShadow_2314_21579"/>
<feBlend mode="normal" in="SourceGraphic" in2="effect1_dropShadow_2314_21579" result="shape"/>
</filter>
</defs>
</svg>
