<svg width="21" height="15" viewBox="0 0 21 15" fill="none" xmlns="http://www.w3.org/2000/svg">
<rect width="21" height="15" rx="2" fill="white"/>
<mask id="mask0_2314_21773" style="mask-type:alpha" maskUnits="userSpaceOnUse" x="0" y="0" width="21" height="15">
<rect width="21" height="15" rx="2" fill="white"/>
</mask>
<g mask="url(#mask0_2314_21773)">
<rect width="21" height="15" fill="#E6BE53"/>
<path fill-rule="evenodd" clip-rule="evenodd" d="M1 13C1 13.5523 1.44772 14 2 14H19C19.5523 14 20 13.5523 20 13V2C20 1.44772 19.5523 1 19 1H2C1.44771 1 1 1.44772 1 2V13Z" fill="#E01826"/>
<path fill-rule="evenodd" clip-rule="evenodd" d="M10.0233 2.65889C9.55318 2.81561 9.41232 3.41232 9.76275 3.76275L9.80474 3.80474C9.92976 3.92976 10.0993 4 10.2761 4H10.7239C10.9007 4 11.0702 3.92976 11.1953 3.80474L11.2373 3.76275C11.5877 3.41232 11.4468 2.81561 10.9767 2.65889L10.7108 2.57027C10.574 2.52466 10.426 2.52466 10.2892 2.57027L10.0233 2.65889ZM10.9714 5.0286C10.7111 5.28895 10.2889 5.28895 10.0286 5.0286L10 5L9.27028 4.27029C9.10887 4.10887 8.86228 4.06886 8.65811 4.17094L8.63246 4.18377C8.32131 4.33934 8.25402 4.75402 8.5 5L9.16023 5.66023C9.36314 5.86314 9.41344 6.17312 9.28511 6.42978L9.02847 6.94306C9.00975 6.98051 9 7.0218 9 7.06366C9 7.26413 8.78903 7.39452 8.60973 7.30486L8.36754 7.18377C8.18673 7.09336 8.14762 6.85238 8.29057 6.70943C8.40623 6.59377 8.40623 6.40624 8.29057 6.29057L8.06981 6.06981C8.02357 6.02357 7.98509 5.97018 7.95585 5.9117L7.53273 5.06546C7.51097 5.02195 7.49405 4.97619 7.48225 4.929L7.33971 4.35883C7.20356 3.81423 6.49643 3.67143 6.15961 4.12052L5.63333 4.82222C5.54679 4.93762 5.5 5.07798 5.5 5.22222V6.84262C5.5 6.94612 5.5241 7.04819 5.57038 7.14076L5.95162 7.90324C5.98366 7.96733 6.02583 8.02583 6.0765 8.0765L6.9235 8.9235C6.97417 8.97417 7.03267 9.01634 7.09676 9.04838L7.95279 9.47639C7.98384 9.49192 8.01807 9.5 8.05279 9.5C8.28874 9.5 8.36383 9.81808 8.15279 9.92361L8.0369 9.98155C8.01246 9.99377 7.99015 10.0098 7.97083 10.0292L7.75 10.25C7.61193 10.3881 7.38807 10.3881 7.25 10.25C7.11193 10.1119 6.88807 10.1119 6.75 10.25L6.70943 10.2906C6.58436 10.4156 6.55335 10.6067 6.63246 10.7649L6.81574 11.1315C6.92867 11.3573 7.15951 11.5 7.41202 11.5H7.84262C7.94612 11.5 8.04819 11.4759 8.14076 11.4296L8.80629 11.0969C8.93203 11.034 9.03399 10.932 9.09686 10.8063L9.30122 10.3976C9.39901 10.202 9.65967 10.1597 9.81429 10.3143C9.92227 10.4223 9.93903 10.5915 9.85432 10.7185L9.3698 11.4453C9.16557 11.7517 9.24835 12.1656 9.5547 12.3698L10.1302 12.7535C10.3541 12.9028 10.6459 12.9028 10.8698 12.7535L11.4453 12.3698C11.7517 12.1656 11.8344 11.7517 11.6302 11.4453L11.1457 10.7185C11.061 10.5915 11.0777 10.4223 11.1857 10.3143C11.3403 10.1597 11.601 10.202 11.6988 10.3976L11.9031 10.8063C11.966 10.932 12.068 11.034 12.1937 11.0969L12.8592 11.4296C12.9518 11.4759 13.0539 11.5 13.1574 11.5H13.588C13.8405 11.5 14.0713 11.3573 14.1843 11.1315L14.3675 10.7649C14.4466 10.6067 14.4156 10.4156 14.2906 10.2906L14.25 10.25C14.1119 10.1119 13.8881 10.1119 13.75 10.25C13.6119 10.3881 13.3881 10.3881 13.25 10.25L13.0292 10.0292C13.0098 10.0098 12.9875 9.99377 12.9631 9.98155L12.8472 9.92361C12.6362 9.81808 12.7113 9.5 12.9472 9.5C12.9819 9.5 13.0162 9.49192 13.0472 9.47639L13.9032 9.04838C13.9673 9.01634 14.0258 8.97417 14.0765 8.9235L14.9235 8.0765C14.9742 8.02583 15.0163 7.96733 15.0484 7.90324L15.4296 7.14076C15.4759 7.04819 15.5 6.94612 15.5 6.84262V5.22222C15.5 5.07798 15.4532 4.93762 15.3667 4.82222L14.8404 4.12052C14.5036 3.67143 13.7964 3.81423 13.6603 4.35883L13.5177 4.929C13.506 4.97619 13.489 5.02195 13.4673 5.06546L13.0442 5.9117C13.0149 5.97018 12.9764 6.02357 12.9302 6.06981L12.7094 6.29057C12.5938 6.40623 12.5938 6.59377 12.7094 6.70943C12.8524 6.85238 12.8133 7.09336 12.6325 7.18377L12.3903 7.30486C12.211 7.39452 12 7.26413 12 7.06366C12 7.0218 11.9903 6.98051 11.9715 6.94306L11.7149 6.42978C11.5866 6.17312 11.6369 5.86314 11.8398 5.66023L12.5 5C12.746 4.75402 12.6787 4.33934 12.3675 4.18377L12.3419 4.17094C12.1377 4.06886 11.8911 4.10887 11.7297 4.27028L11 5L10.9714 5.0286Z" fill="#E6BE53"/>
<path fill-rule="evenodd" clip-rule="evenodd" d="M9.5 8.5C9.5 8.68409 9.81003 8.74534 9.89973 8.58459C10.0741 8.27214 10.287 8 10.5 8C10.713 8 10.9259 8.27214 11.1003 8.58459C11.19 8.74534 11.5 8.68409 11.5 8.5V8.5C11.5 7.67157 11.0523 7 10.5 7C9.94772 7 9.5 7.67157 9.5 8.5V8.5Z" fill="#215F90"/>
</g>
</svg>
