<svg width="21" height="15" viewBox="0 0 21 15" fill="none" xmlns="http://www.w3.org/2000/svg">
<rect width="21" height="15" rx="2" fill="white"/>
<mask id="mask0_2314_21747" style="mask-type:alpha" maskUnits="userSpaceOnUse" x="0" y="0" width="21" height="15">
<rect width="21" height="15" rx="2" fill="white"/>
</mask>
<g mask="url(#mask0_2314_21747)">
<rect width="21" height="15" fill="#E81B26"/>
<path fill-rule="evenodd" clip-rule="evenodd" d="M10.5 10C11.8807 10 13 8.88071 13 7.5C13 6.11929 11.8807 5 10.5 5C9.11929 5 8 6.11929 8 7.5C8 8.88071 9.11929 10 10.5 10Z" fill="#FFE94F"/>
<path fill-rule="evenodd" clip-rule="evenodd" d="M7.65606 5.45944C7.80704 5.24939 7.98072 5.05675 8.1735 4.88511L1.47124 -2.64798L-0.536149 -0.418544L7.65606 5.45944ZM8.1735 10.1149C7.98072 9.94325 7.80704 9.75061 7.65606 9.54055L-0.536152 15.4185L1.47124 17.648L8.1735 10.1149ZM7.03474 7.99504C7.01184 7.83332 7 7.66804 7 7.5C7 7.33196 7.01184 7.16668 7.03474 7.00496L-8.34465e-07 6V9L7.03474 7.99504ZM9.81346 4.06731L9 -2.38419e-07H12L11.1865 4.06731C10.9645 4.02315 10.735 4 10.5 4C10.265 4 10.0355 4.02315 9.81346 4.06731ZM13.9653 7.00496C13.9882 7.16668 14 7.33196 14 7.5C14 7.66804 13.9882 7.83332 13.9653 7.99504L21 9V6L13.9653 7.00496ZM9.81346 10.9327L9 15H12L11.1865 10.9327C10.9645 10.9768 10.735 11 10.5 11C10.265 11 10.0355 10.9768 9.81346 10.9327ZM12.8265 10.1149L19.5288 17.648L21.5361 15.4185L13.3439 9.54055C13.193 9.75061 13.0193 9.94325 12.8265 10.1149ZM12.8265 4.88511C13.0193 5.05675 13.193 5.24939 13.3439 5.45945L21.5362 -0.418546L19.5288 -2.64798L12.8265 4.88511Z" fill="#FFE94F"/>
</g>
</svg>
