<svg width="21" height="15" viewBox="0 0 21 15" fill="none" xmlns="http://www.w3.org/2000/svg">
<rect width="21" height="15" rx="2" fill="white"/>
<mask id="mask0_2314_21733" style="mask-type:alpha" maskUnits="userSpaceOnUse" x="0" y="0" width="21" height="15">
<rect width="21" height="15" rx="2" fill="white"/>
</mask>
<g mask="url(#mask0_2314_21733)">
<path fill-rule="evenodd" clip-rule="evenodd" d="M7 15H14V0H7V15Z" fill="#146BBC"/>
<path fill-rule="evenodd" clip-rule="evenodd" d="M0 15H7V0H0V15Z" fill="#E43642"/>
<path fill-rule="evenodd" clip-rule="evenodd" d="M14 15H21V0H14V15Z" fill="#E43642"/>
<path fill-rule="evenodd" clip-rule="evenodd" d="M3.5 7.5L4 8H3.5H3L3.5 7.5ZM3.5 9C3.22386 9 3 8.77614 3 8.5C3 8.22386 3.22386 8 3.5 8C3.77614 8 4 8.22386 4 8.5C4 8.77614 3.77614 9 3.5 9ZM4 9H3.5H3H2V12H3V11L3.5 12L4 11V12H5V9H4ZM3.5 10L4 9V10.5C4 10.2239 3.77614 10 3.5 10ZM3 10.5C3 10.2239 3.22386 10 3.5 10L3 9V10.5ZM3.49901 11H3V10.5C3 10.7758 3.22332 10.9995 3.49901 11ZM3.50099 11H4V10.5C4 10.7758 3.77668 10.9995 3.50099 11Z" fill="url(#paint0_linear_2314_21733)"/>
</g>
<defs>
<linearGradient id="paint0_linear_2314_21733" x1="2" y1="7.5" x2="2" y2="12" gradientUnits="userSpaceOnUse">
<stop stop-color="#F8D246"/>
<stop offset="1" stop-color="#F9CE2F"/>
</linearGradient>
</defs>
</svg>
