<svg width="21" height="15" viewBox="0 0 21 15" fill="none" xmlns="http://www.w3.org/2000/svg">
<rect width="21" height="15" rx="2" fill="white"/>
<mask id="mask0_2314_21644" style="mask-type:alpha" maskUnits="userSpaceOnUse" x="0" y="0" width="21" height="15">
<rect width="21" height="15" rx="2" fill="white"/>
</mask>
<g mask="url(#mask0_2314_21644)">
<path fill-rule="evenodd" clip-rule="evenodd" d="M0 15H21V0H0V15Z" fill="#079D7B"/>
<path fill-rule="evenodd" clip-rule="evenodd" d="M11.9138 6.5C11.9138 6.71889 11.8979 6.93122 11.868 7.13355C11.9447 7.10998 12.0228 7.08749 12.1022 7.06622C13.4359 6.70886 14.6262 6.82677 14.761 7.32957C14.8827 7.78398 14.1006 8.39725 12.9645 8.77487C12.7637 8.17961 11.7367 8 10.5 8C9.26187 8 8.23397 8.18001 8.03486 8.77684C6.91411 8.3985 6.14601 7.79167 6.26675 7.34106C6.40147 6.83825 7.59184 6.72035 8.9255 7.0777C8.99553 7.09646 9.06455 7.11616 9.13248 7.13672C9.10229 6.93344 9.08621 6.72004 9.08621 6.5C9.08621 5.11929 9.71918 4 10.5 4C11.2808 4 11.9138 5.11929 11.9138 6.5ZM7.99999 9H8.87486C8.73629 8.97283 8.5949 8.9403 8.45182 8.9023C8.61271 8.90707 8.81116 8.92082 9.03823 8.93655C9.44931 8.96502 9.95423 9 10.5 9C11.0458 9 11.5507 8.96502 11.9618 8.93655C12.1803 8.92141 12.3723 8.90811 12.5298 8.90288C12.3817 8.94109 12.2356 8.97342 12.0927 9H13H14.5C14.3814 9.35603 14.2218 9.69149 14.0271 10H6.97287C6.77823 9.69149 6.6186 9.35603 6.49999 9H7.99999ZM10.5 12C11.51 12 12.4376 11.6254 13.1661 11H7.83392C8.56236 11.6254 9.48994 12 10.5 12Z" fill="white"/>
<path fill-rule="evenodd" clip-rule="evenodd" d="M10.5 3C10.7761 3 11 2.77614 11 2.5C11 2.22386 10.7761 2 10.5 2C10.2239 2 10 2.22386 10 2.5C10 2.77614 10.2239 3 10.5 3ZM6.5 5.5C6.77614 5.5 7 5.27614 7 5C7 4.72386 6.77614 4.5 6.5 4.5C6.22386 4.5 6 4.72386 6 5C6 5.27614 6.22386 5.5 6.5 5.5ZM15 5C15 5.27614 14.7761 5.5 14.5 5.5C14.2239 5.5 14 5.27614 14 5C14 4.72386 14.2239 4.5 14.5 4.5C14.7761 4.5 15 4.72386 15 5ZM13 4C13.2761 4 13.5 3.77614 13.5 3.5C13.5 3.22386 13.2761 3 13 3C12.7239 3 12.5 3.22386 12.5 3.5C12.5 3.77614 12.7239 4 13 4ZM8.5 3.5C8.5 3.77614 8.27614 4 8 4C7.72386 4 7.5 3.77614 7.5 3.5C7.5 3.22386 7.72386 3 8 3C8.27614 3 8.5 3.22386 8.5 3.5Z" fill="#FCD117"/>
</g>
</svg>
