<svg width="21" height="15" viewBox="0 0 21 15" fill="none" xmlns="http://www.w3.org/2000/svg">
<rect width="21" height="15" rx="2" fill="white"/>
<mask id="mask0_2314_21802" style="mask-type:alpha" maskUnits="userSpaceOnUse" x="0" y="0" width="21" height="15">
<rect width="21" height="15" rx="2" fill="white"/>
</mask>
<g mask="url(#mask0_2314_21802)">
<rect width="21" height="15" fill="#108B4D"/>
<path fill-rule="evenodd" clip-rule="evenodd" d="M14.8602 5.8C14.8967 6.03058 14.9156 6.26697 14.9156 6.50779C14.9156 8.99307 12.9009 11.0078 10.4156 11.0078C7.93031 11.0078 5.91559 8.99307 5.91559 6.50779C5.91559 6.26697 5.9345 6.03058 5.97093 5.8C6.31045 7.94902 8.17112 9.59221 10.4156 9.59221C12.6601 9.59221 14.5207 7.94902 14.8602 5.8V5.8ZM10.5 6.42306L9.26394 7.30423L9.72001 5.85636L8.50001 4.95309L10.0179 4.93942L10.5 3.5L10.9821 4.93942L12.5 4.95309L11.28 5.85636L11.7361 7.30423L10.5 6.42306V6.42306Z" fill="#FFC941"/>
</g>
</svg>
