<svg width="21" height="15" viewBox="0 0 21 15" fill="none" xmlns="http://www.w3.org/2000/svg">
<rect x="0.25" y="0.25" width="20.5" height="14.5" rx="1.75" fill="white" stroke="#F5F5F5" stroke-width="0.5"/>
<mask id="mask0_2314_21765" style="mask-type:alpha" maskUnits="userSpaceOnUse" x="0" y="0" width="21" height="15">
<rect x="0.25" y="0.25" width="20.5" height="14.5" rx="1.75" fill="white" stroke="white" stroke-width="0.5"/>
</mask>
<g mask="url(#mask0_2314_21765)">
<path fill-rule="evenodd" clip-rule="evenodd" d="M11 15H21V0H11V15Z" fill="#DE233C"/>
<mask id="path-4-outside-1_2314_21765" maskUnits="userSpaceOnUse" x="1" y="1" width="5" height="5" fill="black">
<rect fill="white" x="1" y="1" width="5" height="5"/>
<path fill-rule="evenodd" clip-rule="evenodd" d="M4 2H3V3H2V4H3V5H4V4H5V3H4V2Z"/>
</mask>
<path fill-rule="evenodd" clip-rule="evenodd" d="M4 2H3V3H2V4H3V5H4V4H5V3H4V2Z" fill="#CCCCCD"/>
<path d="M3 2V1.33333H2.33333V2H3ZM4 2H4.66667V1.33333H4V2ZM3 3V3.66667H3.66667V3H3ZM2 3V2.33333H1.33333V3H2ZM2 4H1.33333V4.66667H2V4ZM3 4H3.66667V3.33333H3V4ZM3 5H2.33333V5.66667H3V5ZM4 5V5.66667H4.66667V5H4ZM4 4V3.33333H3.33333V4H4ZM5 4V4.66667H5.66667V4H5ZM5 3H5.66667V2.33333H5V3ZM4 3H3.33333V3.66667H4V3ZM3 2.66667H4V1.33333H3V2.66667ZM3.66667 3V2H2.33333V3H3.66667ZM2 3.66667H3V2.33333H2V3.66667ZM2.66667 4V3H1.33333V4H2.66667ZM3 3.33333H2V4.66667H3V3.33333ZM3.66667 5V4H2.33333V5H3.66667ZM4 4.33333H3V5.66667H4V4.33333ZM3.33333 4V5H4.66667V4H3.33333ZM5 3.33333H4V4.66667H5V3.33333ZM4.33333 3V4H5.66667V3H4.33333ZM4 3.66667H5V2.33333H4V3.66667ZM3.33333 2V3H4.66667V2H3.33333Z" fill="#7B716A" fill-opacity="0.66" mask="url(#path-4-outside-1_2314_21765)"/>
<path fill-rule="evenodd" clip-rule="evenodd" d="M3.5 4C3.77614 4 4 3.77614 4 3.5C4 3.22386 3.77614 3 3.5 3C3.22386 3 3 3.22386 3 3.5C3 3.77614 3.22386 4 3.5 4Z" fill="#7B716A"/>
</g>
</svg>
