<svg width="21" height="15" viewBox="0 0 21 15" fill="none" xmlns="http://www.w3.org/2000/svg">
<rect x="0.25" y="0.25" width="20.5" height="14.5" rx="1.75" fill="white" stroke="#F5F5F5" stroke-width="0.5"/>
<mask id="mask0_2314_21724" style="mask-type:alpha" maskUnits="userSpaceOnUse" x="0" y="0" width="21" height="15">
<rect x="0.25" y="0.25" width="20.5" height="14.5" rx="1.75" fill="white" stroke="white" stroke-width="0.5"/>
</mask>
<g mask="url(#mask0_2314_21724)">
<rect x="14" width="7" height="15" fill="#E3283E"/>
<path fill-rule="evenodd" clip-rule="evenodd" d="M0 15H7V0H0V15Z" fill="#128A60"/>
<path d="M9.16667 7C9.16667 6.63181 8.86819 6.33333 8.5 6.33333C8.13181 6.33333 7.83333 6.63181 7.83333 7H9.16667ZM9.16313 9.30774C9.48159 9.49252 9.88955 9.38415 10.0743 9.06569C10.2591 8.74723 10.1508 8.33926 9.83229 8.15448L9.16313 9.30774ZM11.2169 8.12447C10.9068 8.32285 10.8161 8.73512 11.0145 9.0453C11.2129 9.35547 11.6252 9.4461 11.9353 9.24772L11.2169 8.12447ZM13.1667 7C13.1667 6.63181 12.8682 6.33333 12.5 6.33333C12.1318 6.33333 11.8333 6.63181 11.8333 7H13.1667ZM7.83333 7C7.83333 7.98662 8.36948 8.84723 9.16313 9.30774L9.83229 8.15448C9.43286 7.92271 9.16667 7.49205 9.16667 7H7.83333ZM11.9353 9.24772C12.6744 8.77506 13.1667 7.94524 13.1667 7H11.8333C11.8333 7.47156 11.589 7.88649 11.2169 8.12447L11.9353 9.24772Z" fill="#8C9157"/>
<path fill-rule="evenodd" clip-rule="evenodd" d="M10.5 8C11.0523 8 11.5 7.32843 11.5 6.5C11.5 5.67157 11.0523 5 10.5 5C9.94772 5 9.5 5.67157 9.5 6.5C9.5 7.32843 9.94772 8 10.5 8Z" fill="#C59262"/>
</g>
</svg>
