<svg width="21" height="15" viewBox="0 0 21 15" fill="none" xmlns="http://www.w3.org/2000/svg">
<rect width="21" height="15" rx="2" fill="white"/>
<mask id="mask0_2314_21691" style="mask-type:alpha" maskUnits="userSpaceOnUse" x="0" y="0" width="21" height="15">
<rect width="21" height="15" rx="2" fill="white"/>
</mask>
<g mask="url(#mask0_2314_21691)">
<path fill-rule="evenodd" clip-rule="evenodd" d="M21 0H10V1H21V0ZM21 2H10V3H21V2ZM10 4H21V5H10V4ZM21 6H10V7H21V6ZM0 8H21V9H0V8ZM21 10H0V11H21V10ZM0 12H21V13H0V12ZM21 14H0V15H21V14Z" fill="#E1244A"/>
<rect width="12" height="8" fill="#0C3F8E"/>
<path fill-rule="evenodd" clip-rule="evenodd" d="M5 7C5.70883 7 6.36025 6.75417 6.87364 6.34311C6.60168 6.44455 6.30731 6.5 6 6.5C4.61929 6.5 3.5 5.38071 3.5 4C3.5 2.61929 4.61929 1.5 6 1.5C6.30732 1.5 6.60168 1.55545 6.87364 1.65689C6.36025 1.24583 5.70883 1 5 1C3.34315 1 2 2.34315 2 4C2 5.65685 3.34315 7 5 7ZM7.13223 5.80194L8 4.82L8.86777 5.80194L8.6411 4.51126L9.94986 4.44504L8.79944 3.81753L9.56366 2.75302L8.35579 3.26121L8 2L7.64422 3.26121L6.43634 2.75302L7.20056 3.81753L6.05015 4.44504L7.3589 4.51126L7.13223 5.80194Z" fill="#FFD34F"/>
</g>
</svg>
