<svg width="21" height="15" viewBox="0 0 21 15" fill="none" xmlns="http://www.w3.org/2000/svg">
<rect width="21" height="15" rx="2" fill="white"/>
<mask id="mask0_2314_21786" style="mask-type:alpha" maskUnits="userSpaceOnUse" x="0" y="0" width="21" height="15">
<rect width="21" height="15" rx="2" fill="white"/>
</mask>
<g mask="url(#mask0_2314_21786)">
<path fill-rule="evenodd" clip-rule="evenodd" d="M0 15H21V11H0V15Z" fill="#FFE547"/>
<path fill-rule="evenodd" clip-rule="evenodd" d="M0 4H21V0H0V4Z" fill="#118C81"/>
<path fill-rule="evenodd" clip-rule="evenodd" d="M0 11H21V4H0V11Z" fill="white"/>
<path fill-rule="evenodd" clip-rule="evenodd" d="M0 10H21V5H0V10Z" fill="#262626"/>
<path fill-rule="evenodd" clip-rule="evenodd" d="M0 0L10 7.5L0 15V0Z" fill="#EF2147"/>
<path fill-rule="evenodd" clip-rule="evenodd" d="M3.5 8.45556L2.03054 9.52254L2.59121 7.79528L1.12236 6.72746L2.93834 6.72694L3.5 5L4.06166 6.72694L5.87764 6.72746L4.40879 7.79528L4.96946 9.52254L3.5 8.45556Z" fill="#FDE444"/>
</g>
</svg>
