<svg width="21" height="15" viewBox="0 0 21 15" fill="none" xmlns="http://www.w3.org/2000/svg">
<rect width="21" height="15" rx="2" fill="white"/>
<mask id="mask0_2314_21848" style="mask-type:alpha" maskUnits="userSpaceOnUse" x="0" y="0" width="21" height="15">
<rect width="21" height="15" rx="2" fill="white"/>
</mask>
<g mask="url(#mask0_2314_21848)">
<path fill-rule="evenodd" clip-rule="evenodd" d="M0 10L21 0H0V10Z" fill="#0C4799"/>
<path fill-rule="evenodd" clip-rule="evenodd" d="M3.5 4.5L2.73463 5.34776L2.79289 4.20711L1.65224 4.26537L2.5 3.5L1.65224 2.73463L2.79289 2.79289L2.73463 1.65224L3.5 2.5L4.26537 1.65224L4.20711 2.79289L5.34776 2.73463L4.5 3.5L5.34776 4.26537L4.20711 4.20711L4.26537 5.34776L3.5 4.5Z" fill="#FFD243"/>
<path fill-rule="evenodd" clip-rule="evenodd" d="M0 15H21V5L0 15Z" fill="#1BAC55"/>
<path fill-rule="evenodd" clip-rule="evenodd" d="M2.31178 17L22.628 4.30502L18.6882 -2.00002L-1.62805 10.695L2.31178 17V17Z" fill="white"/>
<path fill-rule="evenodd" clip-rule="evenodd" d="M-0.471894 17.3039L24.1215 1.93629L21.4719 -2.30395L-3.12149 13.0637L-0.471894 17.3039V17.3039Z" fill="#E52347"/>
</g>
</svg>
