<svg width="21" height="15" viewBox="0 0 21 15" fill="none" xmlns="http://www.w3.org/2000/svg">
<rect x="0.25" y="0.25" width="20.5" height="14.5" rx="1.75" fill="white" stroke="#F5F5F5" stroke-width="0.5"/>
<mask id="mask0_2314_21867" style="mask-type:alpha" maskUnits="userSpaceOnUse" x="0" y="0" width="21" height="15">
<rect x="0.25" y="0.25" width="20.5" height="14.5" rx="1.75" fill="white" stroke="white" stroke-width="0.5"/>
</mask>
<g mask="url(#mask0_2314_21867)">
<path fill-rule="evenodd" clip-rule="evenodd" d="M0 5H21V0H0V5Z" fill="#1A78D6"/>
<path fill-rule="evenodd" clip-rule="evenodd" d="M0 15H21V10H0V15Z" fill="#1A78D6"/>
<path d="M10.5 9.33333C11.5125 9.33333 12.3333 8.51252 12.3333 7.5C12.3333 6.48748 11.5125 5.66667 10.5 5.66667C9.48748 5.66667 8.66667 6.48748 8.66667 7.5C8.66667 8.51252 9.48748 9.33333 10.5 9.33333Z" stroke="#DBCD92" stroke-width="0.666667"/>
<path fill-rule="evenodd" clip-rule="evenodd" d="M10.5 6.5L11.5 8.5H9.5L10.5 6.5Z" fill="#9CDDEE"/>
</g>
</svg>
