<svg width="21" height="15" viewBox="0 0 21 15" fill="none" xmlns="http://www.w3.org/2000/svg">
<rect x="0.25" y="0.25" width="20.5" height="14.5" rx="1.75" fill="white" stroke="#F5F5F5" stroke-width="0.5"/>
<path fill-rule="evenodd" clip-rule="evenodd" d="M0 1.81665C0 0.813344 0.813344 -6.61146e-10 1.81665 3.11527e-10V3.11527e-10C1.9362 4.27427e-10 2.05308 0.0353872 2.15255 0.101702L10.3359 5.55727C11.4336 6.28903 10.9155 8 9.5963 8H6L11.3294 12.6632C12.2559 13.474 11.6826 15 10.4514 15H2C0.89543 15 0 14.1046 0 13V1.81665Z" fill="white"/>
<mask id="mask0_2314_21874" style="mask-type:alpha" maskUnits="userSpaceOnUse" x="0" y="0" width="12" height="15">
<path fill-rule="evenodd" clip-rule="evenodd" d="M0 1.81665C0 0.813344 0.813344 -6.61146e-10 1.81665 3.11527e-10V3.11527e-10C1.9362 4.27427e-10 2.05308 0.0353872 2.15255 0.101702L10.3359 5.55727C11.4336 6.28903 10.9155 8 9.5963 8H6L11.3294 12.6632C12.2559 13.474 11.6826 15 10.4514 15H2C0.89543 15 0 14.1046 0 13V1.81665Z" fill="white"/>
</mask>
<g mask="url(#mask0_2314_21874)">
<path d="M10.4514 14.3333H0.666667V0.666667H1.79815L9.9661 6.11197C10.5149 6.47785 10.2559 7.33333 9.5963 7.33333H6C5.72226 7.33333 5.47362 7.50552 5.37593 7.76552C5.27824 8.02551 5.35198 8.31883 5.561 8.50172L10.8904 13.165C11.3537 13.5703 11.067 14.3333 10.4514 14.3333Z" fill="#EE1B44" stroke="#0543A8" stroke-width="1.33333" stroke-linejoin="round"/>
<path fill-rule="evenodd" clip-rule="evenodd" d="M5.13832 5.85058C5.42641 5.77163 5.69199 5.66365 5.92689 5.53211C5.6939 6.37838 4.91877 7 3.99845 7C3.07813 7 2.30299 6.37838 2.07001 5.53211C2.30556 5.66401 2.57196 5.77222 2.86097 5.85123L3.25001 5.5L2.61419 4.92598L3.46968 4.96967L3.42598 4.11418L4.00001 4.75L4.57403 4.11418L4.53034 4.96967L5.38583 4.92598L4.75001 5.5L5.13832 5.85058ZM3.23464 12.8478L4.00001 12L4.76537 12.8478L4.70711 11.7071L5.84777 11.7654L5.00001 11L5.84777 10.2346L4.70711 10.2929L4.76537 9.15224L4.00001 10L3.23464 9.15224L3.2929 10.2929L2.15225 10.2346L3.00001 11L2.15225 11.7654L3.2929 11.7071L3.23464 12.8478Z" fill="white"/>
</g>
</svg>
