<svg width="21" height="15" viewBox="0 0 21 15" fill="none" xmlns="http://www.w3.org/2000/svg">
<rect x="0.25" y="0.25" width="20.5" height="14.5" rx="1.75" fill="white" stroke="#F5F5F5" stroke-width="0.5"/>
<mask id="mask0_2314_21888" style="mask-type:alpha" maskUnits="userSpaceOnUse" x="0" y="0" width="21" height="15">
<rect x="0.25" y="0.25" width="20.5" height="14.5" rx="1.75" fill="white" stroke="white" stroke-width="0.5"/>
</mask>
<g mask="url(#mask0_2314_21888)">
<path fill-rule="evenodd" clip-rule="evenodd" d="M0 15H21V10H0V15Z" fill="#138E16"/>
<path fill-rule="evenodd" clip-rule="evenodd" d="M0 15H7V10H21V5H7V0H0V15Z" fill="#ED2B35"/>
<path fill-rule="evenodd" clip-rule="evenodd" d="M3.5 3.53382L2.63223 4.80194L3.08264 3.33283L1.55014 3.44504L2.97957 2.88121L1.93634 1.75302L3.26838 2.51905L3.5 1L3.73162 2.51905L5.06366 1.75302L4.02043 2.88121L5.44986 3.44504L3.91736 3.33283L4.36777 4.80194L3.5 3.53382Z" fill="white"/>
</g>
</svg>
