<svg width="21" height="15" viewBox="0 0 21 15" fill="none" xmlns="http://www.w3.org/2000/svg">
<rect x="0.25" y="0.25" width="20.5" height="14.5" rx="1.75" fill="white" stroke="#F5F5F5" stroke-width="0.5"/>
<mask id="mask0_2314_21894" style="mask-type:alpha" maskUnits="userSpaceOnUse" x="0" y="0" width="21" height="15">
<rect x="0.25" y="0.25" width="20.5" height="14.5" rx="1.75" fill="white" stroke="white" stroke-width="0.5"/>
</mask>
<g mask="url(#mask0_2314_21894)">
<path fill-rule="evenodd" clip-rule="evenodd" d="M21 7H10V0H21V7Z" fill="#E52448"/>
<path fill-rule="evenodd" clip-rule="evenodd" d="M10 15H0V7H10V15Z" fill="#1367AE"/>
<path fill-rule="evenodd" clip-rule="evenodd" d="M5 4.32L3.82443 5.11803L4.22013 3.75339L3.09789 2.88197L4.51802 2.83661L5 1.5L5.48198 2.83661L6.90211 2.88197L5.77987 3.75339L6.17557 5.11803L5 4.32Z" fill="#1367AE"/>
<path fill-rule="evenodd" clip-rule="evenodd" d="M15.5 11.82L14.3244 12.618L14.7201 11.2534L13.5979 10.382L15.018 10.3366L15.5 9L15.982 10.3366L17.4021 10.382L16.2799 11.2534L16.6756 12.618L15.5 11.82Z" fill="#E52448"/>
</g>
</svg>
