<svg width="21" height="15" viewBox="0 0 21 15" fill="none" xmlns="http://www.w3.org/2000/svg">
<rect x="0.25" y="0.25" width="20.5" height="14.5" rx="1.75" fill="white" stroke="#F5F5F5" stroke-width="0.5"/>
<mask id="mask0_2314_22538" style="mask-type:alpha" maskUnits="userSpaceOnUse" x="0" y="0" width="21" height="15">
<rect x="0.25" y="0.25" width="20.5" height="14.5" rx="1.75" fill="white" stroke="white" stroke-width="0.5"/>
</mask>
<g mask="url(#mask0_2314_22538)">
<path fill-rule="evenodd" clip-rule="evenodd" d="M0 4H21V0H0V4Z" fill="#D82332"/>
<path fill-rule="evenodd" clip-rule="evenodd" d="M0 15H21V11H0V15Z" fill="#D82332"/>
<path fill-rule="evenodd" clip-rule="evenodd" d="M9.80064 8.06451L9.5873 8.26347C9.78016 8.31758 10.0477 8.25459 10.1542 8.06451H9.80064" fill="#064A89"/>
<path fill-rule="evenodd" clip-rule="evenodd" d="M8.07936 8.20005C8.22373 8.3444 8.46286 8.32755 8.60722 8.23618C8.75167 8.14472 8.85778 8.13892 8.94778 8.14851C8.9573 8.22997 8.97857 8.3344 9.01508 8.43763H8.15865C8.13738 8.38472 8.09587 8.26142 8.07936 8.20005" fill="#064A89"/>
<path fill-rule="evenodd" clip-rule="evenodd" d="M8.23809 8.58584C8.40619 8.50641 8.57802 8.56939 8.65238 8.62665C8.78968 8.73254 9.01651 8.70383 9.12778 8.64375C9.17024 8.71302 9.22182 8.78117 9.28405 8.83318H8.3677C8.33048 8.7731 8.25 8.62544 8.23809 8.58584" fill="#064A89"/>
<path fill-rule="evenodd" clip-rule="evenodd" d="M12.2236 9.24367C12.2638 9.20279 12.3183 9.13545 12.3538 9.08738C12.2946 9.08012 12.2258 9.0373 12.1526 9.00077C12.0176 8.93335 11.8886 8.93335 11.7738 9.01279C11.6034 9.13061 11.3903 9.15948 11.2246 9.04166C11.0428 8.9123 10.8743 8.94061 10.7322 9.02246C10.5902 9.10416 10.5002 9.10899 10.415 9.10899C10.3298 9.10899 10.2398 9.10416 10.0978 9.02246C9.95571 8.94061 9.78722 8.9123 9.6054 9.04166C9.43968 9.15948 9.22659 9.13061 9.05619 9.01279C8.94135 8.93335 8.81238 8.93335 8.67738 9.00077C8.60413 9.0373 8.5354 9.08012 8.47619 9.08738C8.51174 9.13545 8.56619 9.20279 8.60643 9.24367H12.2236" fill="#064A89"/>
<path fill-rule="evenodd" clip-rule="evenodd" d="M11.78 9.64589C11.8179 9.62186 11.9221 9.5425 11.9741 9.50162C11.9173 9.51363 11.7878 9.47146 11.7209 9.43662C11.5267 9.33557 11.3989 9.34525 11.2545 9.42218C11.1101 9.4992 10.9065 9.54009 10.7574 9.45831C10.6083 9.37654 10.5017 9.35484 10.4236 9.35484C10.3455 9.35484 10.2389 9.37654 10.0898 9.45831C9.94064 9.54009 9.73706 9.4992 9.59262 9.42218C9.44825 9.34525 9.32048 9.33557 9.12627 9.43662C9.05937 9.47146 8.92984 9.51363 8.87302 9.50162C8.92508 9.5425 9.02929 9.62186 9.06714 9.64589H11.78" fill="#064A89"/>
<path fill-rule="evenodd" clip-rule="evenodd" d="M10.9263 8.84629C10.886 8.82468 10.839 8.77427 10.796 8.7096C10.7274 8.60613 10.6185 8.54839 10.4552 8.54839C10.2918 8.54839 10.1829 8.60613 10.1143 8.7096C10.0713 8.77427 10.0243 8.82468 9.98413 8.84629H10.9263" fill="#064A89"/>
<path fill-rule="evenodd" clip-rule="evenodd" d="M10.6578 8.47493C10.6412 8.44605 10.6057 8.3546 10.5939 8.30646C10.556 8.31855 10.4826 8.32331 10.44 8.32331C10.3974 8.32331 10.324 8.31855 10.2861 8.30646C10.2743 8.3546 10.2388 8.44605 10.2222 8.47493H10.6578" fill="#064A89"/>
<path fill-rule="evenodd" clip-rule="evenodd" d="M11.052 8.06451L11.2653 8.26347C11.0725 8.31758 10.8049 8.25459 10.6984 8.06451H11.052" fill="#064A89"/>
<path fill-rule="evenodd" clip-rule="evenodd" d="M12.8246 8.20005C12.6802 8.3444 12.4411 8.32755 12.2967 8.23618C12.1523 8.14472 12.0462 8.13892 11.9562 8.14851C11.9466 8.22997 11.9254 8.3344 11.8889 8.43763H12.7453C12.7666 8.38472 12.808 8.26142 12.8246 8.20005" fill="#064A89"/>
<path fill-rule="evenodd" clip-rule="evenodd" d="M12.6967 8.58584C12.5287 8.50641 12.3568 8.56939 12.2825 8.62665C12.1452 8.73254 11.9183 8.70383 11.8071 8.64375C11.7646 8.71302 11.713 8.78117 11.6508 8.83318H12.5671C12.6044 8.7731 12.6849 8.62544 12.6967 8.58584" fill="#064A89"/>
<path fill-rule="evenodd" clip-rule="evenodd" d="M11.3691 9.80367C11.0821 9.9227 10.7679 9.98843 10.4387 9.98843C10.1092 9.98843 9.79524 9.92278 9.50793 9.80351C9.56944 9.79633 9.65095 9.76617 9.71666 9.72899C9.82325 9.66883 10.0173 9.65681 10.1097 9.71697C10.202 9.77714 10.3133 9.83722 10.4387 9.83722C10.5642 9.83722 10.6755 9.77714 10.7678 9.71697C10.8601 9.65681 11.0542 9.66883 11.1608 9.72899C11.2264 9.76617 11.3075 9.79649 11.3691 9.80367" fill="#064A89"/>
<path fill-rule="evenodd" clip-rule="evenodd" d="M10.9689 5.04519C10.4505 4.93697 9.98413 4.99947 9.98413 5.49503C9.98413 5.98092 9.98413 6.70253 9.98413 6.85172C9.98413 7.00084 9.98706 7.01971 10.1617 7.061C10.5404 7.15059 10.5759 7.15963 10.9878 7.25576V5.86068C10.6659 5.82455 10.5428 5.641 10.5428 5.42769C10.5428 5.22084 10.6848 5.08608 10.9689 5.04519" fill="#514537"/>
<path fill-rule="evenodd" clip-rule="evenodd" d="M9.6404 8.87136C9.35159 8.87136 9.04858 8.61636 9.04858 8.13048C9.04858 7.64451 9.04858 7.03354 9.04858 6.9229C9.04858 6.81346 9.06072 6.79806 9.03556 6.77257C9.0208 6.75757 9.05215 6.73532 9.07342 6.71362C9.1054 6.68112 9.12731 6.65411 9.08413 6.61015C9.04088 6.56628 9.05929 6.55483 9.08652 6.52725C9.11374 6.49951 9.12437 6.47193 9.09834 6.4454C9.07231 6.41895 9.06636 6.41056 9.09477 6.38169C9.12318 6.35282 9.11136 6.3408 9.08771 6.31669C9.06398 6.29265 9.05279 6.27524 9.08294 6.24459C9.11255 6.21451 9.11485 6.20967 9.14921 6.20967C9.18358 6.20967 9.2581 6.20967 9.29128 6.20967C9.32445 6.20967 9.32501 6.21991 9.29715 6.24822C9.26104 6.28483 9.2504 6.29927 9.29128 6.3408C9.33207 6.38225 9.33033 6.39612 9.30429 6.42257C9.26517 6.46225 9.24802 6.48935 9.28771 6.52967C9.32739 6.56991 9.33088 6.58798 9.30072 6.61862C9.27056 6.64927 9.26755 6.67636 9.30072 6.70999C9.3262 6.73588 9.32794 6.75096 9.32794 6.79661C9.32794 7.07209 9.32794 7.82257 9.32794 8.02943C9.32794 8.23628 9.47469 8.36136 9.75406 8.36136C10.0334 8.36136 10.1281 8.24588 10.2086 8.16894C10.1565 8.53935 10.005 8.87136 9.6404 8.87136" fill="#514537"/>
<path fill-rule="evenodd" clip-rule="evenodd" d="M10.4555 7.69121C10.4945 7.70315 10.5324 7.76089 10.5324 7.82347H10.6094C10.6094 7.77057 10.5869 7.68879 10.5461 7.63823C10.5454 7.625 10.5437 7.61363 10.5407 7.60218C10.5692 7.56605 10.6106 7.50831 10.6094 7.45299C10.6086 7.41807 10.568 7.41936 10.5632 7.44702C10.5593 7.46976 10.5443 7.50476 10.5159 7.51678C10.5159 7.47226 10.491 7.41936 10.4555 7.41936C10.42 7.41936 10.3951 7.47226 10.3951 7.51678C10.3667 7.50476 10.3517 7.46976 10.3478 7.44702C10.343 7.41936 10.3023 7.41807 10.3016 7.45299C10.3004 7.50831 10.3418 7.56605 10.3703 7.60218C10.3673 7.61363 10.3656 7.625 10.3649 7.63823C10.3242 7.68879 10.3016 7.77057 10.3016 7.82347H10.3786C10.3786 7.76089 10.4165 7.70315 10.4555 7.69121" fill="#514537"/>
<path fill-rule="evenodd" clip-rule="evenodd" d="M10.0587 7.69121C10.0977 7.70315 10.1357 7.76089 10.1357 7.82347H10.2126C10.2126 7.77057 10.1901 7.68879 10.1492 7.63823C10.1487 7.625 10.1469 7.61363 10.1439 7.60218C10.1723 7.56605 10.2138 7.50831 10.2126 7.45299C10.2119 7.41807 10.1711 7.41936 10.1664 7.44702C10.1625 7.46976 10.1474 7.50476 10.1191 7.51678C10.1191 7.47226 10.0942 7.41936 10.0587 7.41936C10.0232 7.41936 9.99836 7.47226 9.99836 7.51678C9.96995 7.50476 9.95487 7.46976 9.95098 7.44702C9.94622 7.41936 9.90558 7.41807 9.90479 7.45299C9.9036 7.50831 9.94503 7.56605 9.97344 7.60218C9.9705 7.61363 9.96876 7.625 9.96812 7.63823C9.92733 7.68879 9.90479 7.77057 9.90479 7.82347H9.98177C9.98177 7.76089 10.0196 7.70315 10.0587 7.69121" fill="#514537"/>
<path fill-rule="evenodd" clip-rule="evenodd" d="M9.66185 7.69121C9.7009 7.70315 9.73875 7.76089 9.73875 7.82347H9.81574C9.81574 7.77057 9.7932 7.68879 9.7524 7.63823C9.75177 7.625 9.75002 7.61363 9.74709 7.60218C9.7755 7.56605 9.81693 7.50831 9.81574 7.45299C9.81494 7.41807 9.77431 7.41936 9.76955 7.44702C9.76566 7.46976 9.75058 7.50476 9.72217 7.51678C9.72217 7.47226 9.69732 7.41936 9.66185 7.41936C9.62629 7.41936 9.60145 7.47226 9.60145 7.51678C9.57304 7.50476 9.55804 7.46976 9.55415 7.44702C9.54939 7.41936 9.50867 7.41807 9.50796 7.45299C9.50677 7.50831 9.5482 7.56605 9.57661 7.60218C9.57367 7.61363 9.57185 7.625 9.57129 7.63823C9.53042 7.68879 9.50796 7.77057 9.50796 7.82347H9.58486C9.58486 7.76089 9.6228 7.70315 9.66185 7.69121" fill="#514537"/>
<path fill-rule="evenodd" clip-rule="evenodd" d="M10.8523 7.69121C10.8133 7.70315 10.7754 7.76089 10.7754 7.82347H10.6984C10.6984 7.77057 10.7209 7.68879 10.7618 7.63823C10.7623 7.625 10.7642 7.61363 10.7672 7.60218C10.7387 7.56605 10.6972 7.50831 10.6984 7.45299C10.6992 7.41807 10.7399 7.41936 10.7446 7.44702C10.7485 7.46976 10.7636 7.50476 10.7919 7.51678C10.7919 7.47226 10.8169 7.41936 10.8523 7.41936C10.8879 7.41936 10.9127 7.47226 10.9127 7.51678C10.9411 7.50476 10.9561 7.46976 10.96 7.44702C10.9648 7.41936 11.0054 7.41807 11.0062 7.45299C11.0074 7.50831 10.966 7.56605 10.9376 7.60218C10.9405 7.61363 10.9423 7.625 10.9429 7.63823C10.9838 7.68879 11.0062 7.77057 11.0062 7.82347H10.9292C10.9292 7.76089 10.8914 7.70315 10.8523 7.69121" fill="#514537"/>
<path fill-rule="evenodd" clip-rule="evenodd" d="M11.2492 7.69121C11.2101 7.70315 11.1722 7.76089 11.1722 7.82347H11.0953C11.0953 7.77057 11.1178 7.68879 11.1586 7.63823C11.1592 7.625 11.161 7.61363 11.1639 7.60218C11.1355 7.56605 11.0941 7.50831 11.0953 7.45299C11.096 7.41807 11.1367 7.41936 11.1415 7.44702C11.1453 7.46976 11.1603 7.50476 11.1888 7.51678C11.1888 7.47226 11.2137 7.41936 11.2492 7.41936C11.2847 7.41936 11.3095 7.47226 11.3095 7.51678C11.338 7.50476 11.353 7.46976 11.3569 7.44702C11.3616 7.41936 11.4022 7.41807 11.403 7.45299C11.4042 7.50831 11.3628 7.56605 11.3344 7.60218C11.3373 7.61363 11.3391 7.625 11.3397 7.63823C11.3806 7.68879 11.403 7.77057 11.403 7.82347H11.3261C11.3261 7.76089 11.2882 7.70315 11.2492 7.69121" fill="#514537"/>
<path fill-rule="evenodd" clip-rule="evenodd" d="M9.42857 7.90323H11.5117V8.00323H9.42857V7.90323Z" fill="#514537"/>
<path fill-rule="evenodd" clip-rule="evenodd" d="M11.2666 8.87136C11.5554 8.87136 11.8584 8.61636 11.8584 8.13048C11.8584 7.64451 11.8584 7.03354 11.8584 6.9229C11.8584 6.81346 11.8463 6.79806 11.8714 6.77257C11.8862 6.75757 11.8548 6.73532 11.8336 6.71362C11.8016 6.68112 11.7797 6.65411 11.8229 6.61015C11.8661 6.56628 11.8477 6.55483 11.8206 6.52725C11.7933 6.49951 11.7826 6.47193 11.8087 6.4454C11.8347 6.41895 11.8406 6.41056 11.8122 6.38169C11.7838 6.35282 11.7956 6.3408 11.8193 6.31669C11.843 6.29265 11.8542 6.27524 11.824 6.24459C11.7944 6.21451 11.7921 6.20967 11.7578 6.20967C11.7234 6.20967 11.6489 6.20967 11.6157 6.20967C11.5826 6.20967 11.582 6.21991 11.6098 6.24822C11.646 6.28483 11.6566 6.29927 11.6157 6.3408C11.5749 6.38225 11.5767 6.39612 11.6027 6.42257C11.6418 6.46225 11.6589 6.48935 11.6193 6.52967C11.5796 6.56991 11.576 6.58798 11.6063 6.61862C11.6364 6.64927 11.6394 6.67636 11.6063 6.70999C11.5808 6.73588 11.579 6.75096 11.579 6.79661C11.579 7.07209 11.579 7.82257 11.579 8.02943C11.579 8.23628 11.4322 8.36136 11.1529 8.36136C10.8736 8.36136 10.779 8.24588 10.6984 8.16894C10.7505 8.53935 10.902 8.87136 11.2666 8.87136" fill="#514537"/>
<path fill-rule="evenodd" clip-rule="evenodd" d="M9.42857 7.25572C9.42857 7.25572 9.42865 7.18476 9.42865 7.09677L9.84508 7.2558L9.42857 7.25572" fill="#EEA339"/>
<path fill-rule="evenodd" clip-rule="evenodd" d="M8.93182 7.32959L8 7.20193C8.02706 6.99903 8.07825 6.80121 8.1519 6.6129L8.93182 6.9275V7.32959" fill="#EEA339"/>
<path fill-rule="evenodd" clip-rule="evenodd" d="M10.8571 5.77193L11.0228 5.08064C11.2166 5.12838 11.405 5.20032 11.5836 5.29516L11.0494 6.33419L11.0513 5.8125C10.9896 5.81282 10.895 5.80322 10.8571 5.77193" fill="#EEA339"/>
<path fill-rule="evenodd" clip-rule="evenodd" d="M8.9538 7.39726L8.0046 7.33871C7.99238 7.54097 8.00452 7.74509 8.04103 7.94646C8.04103 7.94646 8.9538 7.95226 8.9538 7.94646V7.39726" fill="#EEA339"/>
<path fill-rule="evenodd" clip-rule="evenodd" d="M8.94436 6.7467C8.91365 6.70581 8.93262 6.68404 8.96571 6.66234C8.99889 6.64073 8.99413 6.62387 8.97762 6.59267C8.96103 6.56137 8.94444 6.52767 8.97524 6.49404C9.00603 6.46033 8.99413 6.44589 8.97048 6.42186C8.94682 6.39783 8.94444 6.37137 8.96571 6.3521C8.98706 6.33283 8.9823 6.31839 8.96817 6.2992C8.95389 6.27992 8.92603 6.24089 8.95095 6.21565L8.56373 5.8871C8.43579 6.04258 8.32627 6.2142 8.23809 6.39823L8.94436 6.7467" fill="#EEA339"/>
<path fill-rule="evenodd" clip-rule="evenodd" d="M9.87206 6.92581L9.41056 6.47105C9.47564 6.40492 9.48214 6.39412 9.43603 6.34718C9.38571 6.29605 9.38389 6.29073 9.48627 6.18662C9.52119 6.15121 9.50167 6.12645 9.45198 6.12645C9.4023 6.12645 9.17381 6.12645 9.14778 6.12645C9.12175 6.12645 9.10127 6.12783 9.08222 6.14718L8.71429 5.78524C8.85468 5.63839 9.01151 5.51024 9.18087 5.40323L9.87206 6.53266V6.92581" fill="#EEA339"/>
<path fill-rule="evenodd" clip-rule="evenodd" d="M9.39208 6.995C9.39208 6.88201 9.39216 6.77016 9.39216 6.75427C9.39216 6.72056 9.38977 6.70734 9.36374 6.68088C9.33771 6.65443 9.35073 6.64177 9.37089 6.6129L9.80866 6.98346V7.20104L9.39208 6.995" fill="#EEA339"/>
<path fill-rule="evenodd" clip-rule="evenodd" d="M9.80215 6.33476C9.80215 6.11774 9.80215 5.91701 9.80215 5.80137C9.80215 5.455 9.82127 5.28177 9.87095 5.24693L9.83119 5.08064C9.63683 5.13379 9.44842 5.20572 9.26984 5.30056L9.80215 6.33476" fill="#EEA339"/>
<path fill-rule="evenodd" clip-rule="evenodd" d="M11.5117 7.25572C11.5117 7.25572 11.5117 7.18476 11.5117 7.09677L11.0952 7.2558L11.5117 7.25572" fill="#EEA339"/>
<path fill-rule="evenodd" clip-rule="evenodd" d="M11.9683 7.32959L12.9001 7.20193C12.873 6.99903 12.8218 6.80121 12.7482 6.6129L11.9683 6.9275V7.32959" fill="#EEA339"/>
<path fill-rule="evenodd" clip-rule="evenodd" d="M11.9683 7.39726L12.9174 7.33871C12.9296 7.54097 12.9175 7.74509 12.881 7.94646C12.881 7.94646 11.9683 7.95226 11.9683 7.94646V7.39726" fill="#EEA339"/>
<path fill-rule="evenodd" clip-rule="evenodd" d="M11.9383 6.7467C11.9691 6.70581 11.95 6.68404 11.9169 6.66234C11.8837 6.64073 11.8885 6.62387 11.905 6.59267C11.9216 6.56137 11.9382 6.52767 11.9074 6.49404C11.8766 6.46033 11.8885 6.44589 11.9122 6.42186C11.9358 6.39783 11.9382 6.37137 11.9169 6.3521C11.8956 6.33283 11.9003 6.31839 11.9145 6.2992C11.9287 6.27992 11.9565 6.24089 11.9317 6.21565L12.3189 5.8871C12.4468 6.04258 12.5563 6.2142 12.6445 6.39823L11.9383 6.7467" fill="#EEA339"/>
<path fill-rule="evenodd" clip-rule="evenodd" d="M11.0952 6.92581L11.5567 6.47105C11.4916 6.40492 11.4851 6.39412 11.5313 6.34718C11.5816 6.29605 11.5834 6.29073 11.481 6.18662C11.446 6.15121 11.4656 6.12645 11.5153 6.12645C11.565 6.12645 11.7935 6.12645 11.8195 6.12645C11.8456 6.12645 11.866 6.12783 11.8851 6.14718L12.253 5.78524C12.1126 5.63839 11.9558 5.51024 11.7864 5.40323L11.0952 6.53266V6.92581" fill="#EEA339"/>
<path fill-rule="evenodd" clip-rule="evenodd" d="M11.5118 6.995C11.5118 6.88201 11.5117 6.77016 11.5117 6.75427C11.5117 6.72056 11.5141 6.70734 11.5402 6.68088C11.5662 6.65443 11.5532 6.64177 11.533 6.6129L11.0952 6.98346V7.20104L11.5118 6.995" fill="#EEA339"/>
<path fill-rule="evenodd" clip-rule="evenodd" d="M9.11111 6.7742C9.1277 6.79106 9.13484 6.80783 9.13484 6.84872C9.13484 6.8896 9.13484 7.78444 9.13484 8.13565C9.13484 8.5638 9.39048 8.80194 9.65325 8.80194C9.89468 8.80194 10.0533 8.57823 10.1362 8.31847C10.0297 8.40267 9.87341 8.42912 9.72421 8.42912C9.55143 8.42912 9.27214 8.3113 9.27214 8.0563C9.27214 7.82057 9.27214 6.94735 9.27214 6.80783C9.27214 6.7742 9.23897 6.7742 9.11111 6.7742" fill="#D82332"/>
<path fill-rule="evenodd" clip-rule="evenodd" d="M10.6208 5.08803C10.2907 5.05408 9.98451 5.12383 9.98451 5.58141C9.98451 6.06254 9.98451 6.6494 9.98451 6.79714C9.98451 7.00012 9.9688 6.97601 10.1381 7.01867C10.4452 7.09609 10.4801 7.10593 10.8526 7.19238V5.95545C10.5345 5.92004 10.3967 5.70835 10.3967 5.47391C10.3967 5.28738 10.4778 5.11182 10.6208 5.08803" fill="#D82332"/>
<path fill-rule="evenodd" clip-rule="evenodd" d="M11.8029 6.7742C11.7863 6.79106 11.7791 6.80783 11.7791 6.84872C11.7791 6.8896 11.7791 7.78444 11.7791 8.13565C11.7791 8.5638 11.5235 8.80194 11.2607 8.80194C11.0193 8.80194 10.8606 8.57823 10.7778 8.31847C10.8844 8.40267 11.0406 8.42912 11.1898 8.42912C11.3625 8.42912 11.6418 8.3113 11.6418 8.0563C11.6418 7.82057 11.6418 6.94735 11.6418 6.80783C11.6418 6.7742 11.675 6.7742 11.8029 6.7742" fill="#D82332"/>
<mask id="mask1_2314_22538" style="mask-type:alpha" maskUnits="userSpaceOnUse" x="8" y="5" width="5" height="5">
<path fill-rule="evenodd" clip-rule="evenodd" d="M10.5 10C11.8807 10 13 8.88071 13 7.5C13 6.11929 11.8807 5 10.5 5C9.11929 5 8 6.11929 8 7.5C8 8.88071 9.11929 10 10.5 10Z" fill="white"/>
</mask>
<g mask="url(#mask1_2314_22538)">
<path fill-rule="evenodd" clip-rule="evenodd" d="M10.5 14C11.8807 14 13 12.8807 13 11.5C13 10.1193 11.8807 9 10.5 9C9.11929 9 8 10.1193 8 11.5C8 12.8807 9.11929 14 10.5 14Z" fill="#064A89"/>
</g>
</g>
</svg>
