<svg width="21" height="15" viewBox="0 0 21 15" fill="none" xmlns="http://www.w3.org/2000/svg">
<rect width="21" height="15" rx="2" fill="white"/>
<mask id="mask0_2314_21937" style="mask-type:alpha" maskUnits="userSpaceOnUse" x="0" y="0" width="21" height="15">
<rect width="21" height="15" rx="2" fill="white"/>
</mask>
<g mask="url(#mask0_2314_21937)">
<rect width="21" height="15" fill="#262626"/>
<path fill-rule="evenodd" clip-rule="evenodd" d="M0 0H21V15L0 0Z" fill="#E8283F"/>
<path fill-rule="evenodd" clip-rule="evenodd" d="M5 12.5L4.29289 12.7071L4.5 12L4.29289 11.2929L5 11.5L5.70711 11.2929L5.5 12L5.70711 12.7071L5 12.5Z" fill="white"/>
<path fill-rule="evenodd" clip-rule="evenodd" d="M5 6.5L4.29289 6.70711L4.5 6L4.29289 5.29289L5 5.5L5.70711 5.29289L5.5 6L5.70711 6.70711L5 6.5Z" fill="white"/>
<path fill-rule="evenodd" clip-rule="evenodd" d="M2.5 9L1.79289 9.20711L2 8.5L1.79289 7.79289L2.5 8L3.20711 7.79289L3 8.5L3.20711 9.20711L2.5 9Z" fill="white"/>
<path fill-rule="evenodd" clip-rule="evenodd" d="M7 8.5L6.29289 8.70711L6.5 8L6.29289 7.29289L7 7.5L7.70711 7.29289L7.5 8L7.70711 8.70711L7 8.5Z" fill="white"/>
<path fill-rule="evenodd" clip-rule="evenodd" d="M14.1459 6.94918C14.0262 6.87735 13.9292 6.70815 13.9292 6.57278L13.9292 5.65124C13.9292 5.5152 13.8313 5.43753 13.6832 5.48691L13.1145 5.67646C12.9786 5.72175 12.7706 5.72583 12.6225 5.67646L12.0539 5.48691C11.918 5.44162 11.9029 5.34788 12.0246 5.27485L13.3589 4.4743C13.4786 4.40248 13.543 4.24636 13.4936 4.09824L13.3041 3.52959C13.2588 3.39373 13.3199 3.31621 13.4681 3.36559L14.0367 3.55514C14.1726 3.60043 14.3397 3.5421 14.4128 3.42038L15.2133 2.08614C15.2852 1.96642 15.376 1.96726 15.4254 2.11538L15.6149 2.68403C15.6602 2.81989 15.6643 3.02792 15.6149 3.17604L15.4254 3.74469C15.3801 3.88055 15.4544 3.99069 15.5897 3.99069H16.5113C16.6473 3.99069 16.8146 4.08574 16.8877 4.20746L17.6882 5.5417C17.76 5.66141 17.7023 5.78166 17.5725 5.80762L16.2963 6.06285C16.1605 6.09 16.0273 6.228 16.0013 6.35781L15.7461 7.63398C15.7189 7.76973 15.6019 7.82275 15.4802 7.74972L14.1459 6.94918V6.94918Z" fill="#FFD84E"/>
</g>
</svg>
