<svg width="21" height="15" viewBox="0 0 21 15" fill="none" xmlns="http://www.w3.org/2000/svg">
<rect x="0.25" y="0.25" width="20.5" height="14.5" rx="1.75" fill="white" stroke="#F5F5F5" stroke-width="0.5"/>
<mask id="mask0_2314_21917" style="mask-type:alpha" maskUnits="userSpaceOnUse" x="0" y="0" width="21" height="15">
<rect x="0.25" y="0.25" width="20.5" height="14.5" rx="1.75" fill="white" stroke="white" stroke-width="0.5"/>
</mask>
<g mask="url(#mask0_2314_21917)">
<path fill-rule="evenodd" clip-rule="evenodd" d="M0 15H21V7H9.33333L10 7.5L0 15Z" fill="#DD1C34"/>
<path fill-rule="evenodd" clip-rule="evenodd" d="M21 7H9.33333L0 0H21V7Z" fill="#0D4BC3"/>
<path fill-rule="evenodd" clip-rule="evenodd" d="M1.5 3C1.77614 3 2 2.77614 2 2.5C2 2.22386 1.77614 2 1.5 2C1.22386 2 1 2.22386 1 2.5C1 2.77614 1.22386 3 1.5 3ZM7.5 8C7.77614 8 8 7.77614 8 7.5C8 7.22386 7.77614 7 7.5 7C7.22386 7 7 7.22386 7 7.5C7 7.77614 7.22386 8 7.5 8ZM2 12.5C2 12.7761 1.77614 13 1.5 13C1.22386 13 1 12.7761 1 12.5C1 12.2239 1.22386 12 1.5 12C1.77614 12 2 12.2239 2 12.5ZM3.39906 8.49497L2.54329 9.8097L2.86784 8.27488C2.81561 8.23222 2.76778 8.18439 2.72512 8.13216L1.1903 8.45671L2.50503 7.60094C2.5017 7.56775 2.5 7.53407 2.5 7.5C2.5 7.46593 2.5017 7.43225 2.50503 7.39906L1.1903 6.54329L2.72512 6.86784C2.76778 6.81561 2.81561 6.76778 2.86784 6.72512L2.54329 5.1903L3.39906 6.50503C3.43225 6.5017 3.46593 6.5 3.5 6.5C3.53407 6.5 3.56775 6.5017 3.60094 6.50503L4.45671 5.1903L4.13216 6.72512C4.18439 6.76778 4.23222 6.81561 4.27488 6.86784L5.8097 6.54329L4.49497 7.39906C4.4983 7.43225 4.5 7.46593 4.5 7.5C4.5 7.53407 4.4983 7.56775 4.49497 7.60094L5.8097 8.45671L4.27488 8.13216C4.23222 8.18439 4.18439 8.23222 4.13216 8.27488L4.45671 9.8097L3.60094 8.49497C3.56775 8.4983 3.53407 8.5 3.5 8.5C3.46593 8.5 3.43225 8.4983 3.39906 8.49497Z" fill="#FDD64D"/>
</g>
</svg>
