<svg width="21" height="15" viewBox="0 0 21 15" fill="none" xmlns="http://www.w3.org/2000/svg">
<rect x="0.25" y="0.25" width="20.5" height="14.5" rx="1.75" fill="white" stroke="#F5F5F5" stroke-width="0.5"/>
<mask id="mask0_2314_21968" style="mask-type:alpha" maskUnits="userSpaceOnUse" x="0" y="0" width="21" height="15">
<rect x="0.25" y="0.25" width="20.5" height="14.5" rx="1.75" fill="white" stroke="white" stroke-width="0.5"/>
</mask>
<g mask="url(#mask0_2314_21968)">
<path fill-rule="evenodd" clip-rule="evenodd" d="M21 0H6V15H21V0Z" fill="#0A632F"/>
<path fill-rule="evenodd" clip-rule="evenodd" d="M17.7526 8.0629C17.6563 9.00088 17.2565 9.90216 16.5499 10.6088C14.8655 12.2932 12.0754 12.2341 10.318 10.4767C8.56067 8.71936 8.50152 5.92926 10.1859 4.24486C10.8926 3.5382 11.7939 3.13842 12.7318 3.04217C12.4364 3.21628 12.1567 3.43114 11.9014 3.68645C10.3701 5.21773 10.2944 7.62467 11.7322 9.06251C13.1701 10.5003 15.577 10.4246 17.1083 8.89333C17.3636 8.63801 17.5785 8.35835 17.7526 8.0629V8.0629ZM15.8193 6.07852L15.5806 7.50235L14.9137 6.22196L13.4858 6.43495L14.4974 5.40495L13.8536 4.11276L15.1458 4.75658L16.1758 3.74496L15.9628 5.17286L17.2432 5.83984L15.8193 6.07852V6.07852Z" fill="white"/>
</g>
</svg>
