<svg width="21" height="15" viewBox="0 0 21 15" fill="none" xmlns="http://www.w3.org/2000/svg">
<rect x="0.25" y="0.25" width="20.5" height="14.5" rx="1.75" fill="white" stroke="#F5F5F5" stroke-width="0.5"/>
<mask id="mask0_2314_21959" style="mask-type:alpha" maskUnits="userSpaceOnUse" x="0" y="0" width="21" height="15">
<rect x="0.25" y="0.25" width="20.5" height="14.5" rx="1.75" fill="white" stroke="white" stroke-width="0.5"/>
</mask>
<g mask="url(#mask0_2314_21959)">
<path fill-rule="evenodd" clip-rule="evenodd" d="M0 0H21V3H0V0ZM0 6H21V9H0V6ZM0 12V15H21V12H0Z" fill="#FA2222"/>
<path fill-rule="evenodd" clip-rule="evenodd" d="M0 0L10 7.5L0 15V0Z" fill="#1D63F9"/>
<g filter="url(#filter0_d_2314_21959)">
<path fill-rule="evenodd" clip-rule="evenodd" d="M3.5 8.45556L2.03054 9.52254L2.59121 7.79528L1.12236 6.72746L2.93834 6.72694L3.5 5L4.06166 6.72694L5.87764 6.72746L4.40879 7.79528L4.96946 9.52254L3.5 8.45556Z" fill="url(#paint0_linear_2314_21959)"/>
</g>
</g>
<defs>
<filter id="filter0_d_2314_21959" x="1.12236" y="5" width="4.75528" height="5.52254" filterUnits="userSpaceOnUse" color-interpolation-filters="sRGB">
<feFlood flood-opacity="0" result="BackgroundImageFix"/>
<feColorMatrix in="SourceAlpha" type="matrix" values="0 0 0 0 0 0 0 0 0 0 0 0 0 0 0 0 0 0 127 0" result="hardAlpha"/>
<feOffset dy="1"/>
<feColorMatrix type="matrix" values="0 0 0 0 0 0 0 0 0 0 0 0 0 0 0 0 0 0 0.06 0"/>
<feBlend mode="normal" in2="BackgroundImageFix" result="effect1_dropShadow_2314_21959"/>
<feBlend mode="normal" in="SourceGraphic" in2="effect1_dropShadow_2314_21959" result="shape"/>
</filter>
<linearGradient id="paint0_linear_2314_21959" x1="1" y1="5" x2="1" y2="10" gradientUnits="userSpaceOnUse">
<stop stop-color="white"/>
<stop offset="1" stop-color="#F0F0F0"/>
</linearGradient>
</defs>
</svg>
