<svg width="21" height="15" viewBox="0 0 21 15" fill="none" xmlns="http://www.w3.org/2000/svg">
<rect width="21" height="15" rx="2" fill="white"/>
<mask id="mask0_2314_21951" style="mask-type:alpha" maskUnits="userSpaceOnUse" x="0" y="0" width="21" height="15">
<rect width="21" height="15" rx="2" fill="white"/>
</mask>
<g mask="url(#mask0_2314_21951)">
<rect width="21" height="15" fill="#FF2936"/>
<path fill-rule="evenodd" clip-rule="evenodd" d="M0 15H8V0H0V15Z" fill="#128415"/>
<path d="M8 10.1667C9.47276 10.1667 10.6667 8.97276 10.6667 7.5C10.6667 6.02724 9.47276 4.83333 8 4.83333C6.52724 4.83333 5.33333 6.02724 5.33333 7.5C5.33333 8.97276 6.52724 10.1667 8 10.1667Z" stroke="#FAF94F" stroke-width="1.33333"/>
<path fill-rule="evenodd" clip-rule="evenodd" d="M7 6.33333C7 6.14924 7.14924 6 7.33333 6H8.66667C8.85076 6 9 6.14924 9 6.33333V8C9 8.55228 8.55229 9 8 9V9C7.44772 9 7 8.55228 7 8V6.33333Z" fill="white"/>
<path fill-rule="evenodd" clip-rule="evenodd" d="M8 8C8.27614 8 8.5 7.27614 8.5 7C8.5 6.72386 8.27614 6.5 8 6.5C7.72386 6.5 7.5 6.72386 7.5 7C7.5 7.27614 7.72386 8 8 8Z" fill="#1D50B5"/>
</g>
</svg>
