<svg width="21" height="15" viewBox="0 0 21 15" fill="none" xmlns="http://www.w3.org/2000/svg">
<rect x="0.25" y="0.25" width="20.5" height="14.5" rx="1.75" fill="white" stroke="#F5F5F5" stroke-width="0.5"/>
<mask id="mask0_2314_22002" style="mask-type:alpha" maskUnits="userSpaceOnUse" x="0" y="0" width="21" height="15">
<rect x="0.25" y="0.25" width="20.5" height="14.5" rx="1.75" fill="white" stroke="white" stroke-width="0.5"/>
</mask>
<g mask="url(#mask0_2314_22002)">
<path fill-rule="evenodd" clip-rule="evenodd" d="M0 10H21V5H0V10Z" fill="#17508F"/>
<path fill-rule="evenodd" clip-rule="evenodd" d="M0 5H21V0H0V5Z" fill="#E1444D"/>
<path fill-rule="evenodd" clip-rule="evenodd" d="M4.5 7.5C4.5 7.04908 4.72392 6.08209 4.87206 5.49168C4.94516 5.20032 5.20828 5 5.50867 5H7.49252C7.79235 5 8.05512 5.1996 8.12849 5.49032C8.27663 6.07734 8.5 7.03889 8.5 7.5C8.5 8.04426 8.14396 9.45019 8.03277 9.87598C8.01135 9.95798 7.97433 10.0346 7.91978 10.0995C7.70708 10.3524 7.10354 11 6.5 11C5.89601 11 5.29202 10.3515 5.07974 10.0989C5.02553 10.0345 4.98862 9.95825 4.96718 9.87677C4.85593 9.45397 4.5 8.05773 4.5 7.5Z" fill="white"/>
<mask id="mask1_2314_22002" style="mask-type:alpha" maskUnits="userSpaceOnUse" x="4" y="5" width="5" height="6">
<path fill-rule="evenodd" clip-rule="evenodd" d="M4.5 7.5C4.5 7.04908 4.72392 6.08209 4.87206 5.49168C4.94516 5.20032 5.20828 5 5.50867 5H7.49252C7.79235 5 8.05512 5.1996 8.12849 5.49032C8.27663 6.07734 8.5 7.03889 8.5 7.5C8.5 8.04426 8.14396 9.45019 8.03277 9.87598C8.01135 9.95798 7.97433 10.0346 7.91978 10.0995C7.70708 10.3524 7.10354 11 6.5 11C5.89601 11 5.29202 10.3515 5.07974 10.0989C5.02553 10.0345 4.98862 9.95825 4.96718 9.87677C4.85593 9.45397 4.5 8.05773 4.5 7.5Z" fill="white"/>
</mask>
<g mask="url(#mask1_2314_22002)">
<path d="M8.5 5.5L4.5 10.5" stroke="#E1444D" stroke-width="1.33333" stroke-linecap="square"/>
<path d="M4.5 5.5L8.5 10.5" stroke="#E1444D" stroke-width="1.33333" stroke-linecap="square"/>
</g>
</g>
</svg>
