<svg width="21" height="15" viewBox="0 0 21 15" fill="none" xmlns="http://www.w3.org/2000/svg">
<rect width="21" height="15" rx="2" fill="white"/>
<mask id="mask0_2314_21995" style="mask-type:alpha" maskUnits="userSpaceOnUse" x="0" y="0" width="21" height="15">
<rect width="21" height="15" rx="2" fill="white"/>
</mask>
<g mask="url(#mask0_2314_21995)">
<g filter="url(#filter0_d_2314_21995)">
<path fill-rule="evenodd" clip-rule="evenodd" d="M0 15H21V11H0V15Z" fill="#2D754D"/>
</g>
<path fill-rule="evenodd" clip-rule="evenodd" d="M0 7H21V0H0V7Z" fill="#25B1EB"/>
<path fill-rule="evenodd" clip-rule="evenodd" d="M0 11H21V7H0V11Z" fill="#FECB2F"/>
<path fill-rule="evenodd" clip-rule="evenodd" d="M16 4.5L15.2346 5.34776L15.2929 4.20711L14.1522 4.26537L15 3.5L14.1522 2.73463L15.2929 2.79289L15.2346 1.65224L16 2.5L16.7654 1.65224L16.7071 2.79289L17.8478 2.73463L17 3.5L17.8478 4.26537L16.7071 4.20711L16.7654 5.34776L16 4.5Z" fill="#FECB2F"/>
</g>
<defs>
<filter id="filter0_d_2314_21995" x="0" y="11" width="21" height="4" filterUnits="userSpaceOnUse" color-interpolation-filters="sRGB">
<feFlood flood-opacity="0" result="BackgroundImageFix"/>
<feColorMatrix in="SourceAlpha" type="matrix" values="0 0 0 0 0 0 0 0 0 0 0 0 0 0 0 0 0 0 127 0" result="hardAlpha"/>
<feOffset/>
<feColorMatrix type="matrix" values="0 0 0 0 0 0 0 0 0 0 0 0 0 0 0 0 0 0 0.06 0"/>
<feBlend mode="normal" in2="BackgroundImageFix" result="effect1_dropShadow_2314_21995"/>
<feBlend mode="normal" in="SourceGraphic" in2="effect1_dropShadow_2314_21995" result="shape"/>
</filter>
</defs>
</svg>
