<svg width="21" height="15" viewBox="0 0 21 15" fill="none" xmlns="http://www.w3.org/2000/svg">
<rect width="21" height="15" rx="2" fill="white"/>
<mask id="mask0_2314_21519" style="mask-type:alpha" maskUnits="userSpaceOnUse" x="0" y="0" width="21" height="15">
<rect width="21" height="15" rx="2" fill="white"/>
</mask>
<g mask="url(#mask0_2314_21519)">
<rect width="21" height="15" fill="#128C4B"/>
<path fill-rule="evenodd" clip-rule="evenodd" d="M5 9H13V8.57869C13 8.0831 13.5215 7.76077 13.9648 7.9824L14 8V9H15.3333C15.7015 9 16 9.29848 16 9.66667V9.66667C16 10.403 15.403 11 14.6667 11H13.6667C13.2985 11 13 10.7015 13 10.3333V10H6.27614C6.09933 10 5.92976 9.92976 5.80474 9.80474L5 9Z" fill="white"/>
<path fill-rule="evenodd" clip-rule="evenodd" d="M5 6.13807C5 6.04967 5.03512 5.96488 5.09763 5.90237L5.2643 5.7357C5.39447 5.60553 5.39447 5.39447 5.2643 5.2643L5.09763 5.09763C5.03512 5.03512 5 4.95033 5 4.86193V4.33333C5 4.14924 5.14924 4 5.33333 4H5.80902C5.91449 4 6 4.08551 6 4.19098V4.19098C6 4.39251 6.27168 4.45665 6.3618 4.27639L6.43634 4.12732C6.47535 4.04929 6.55511 4 6.64235 4H7.75C7.88807 4 8 4.11193 8 4.25V4.25C8 4.38807 7.88807 4.5 7.75 4.5H7.25C7.11193 4.5 7 4.61193 7 4.75V4.75C7 4.88807 7.11193 5 7.25 5H7.66667C7.85076 5 8 5.14924 8 5.33333V6.66667C8 6.85076 7.85076 7 7.66667 7H7.33333C7.14924 7 7 6.85076 7 6.66667V6.25C7 6.11193 7.11193 6 7.25 6V6C7.38807 6 7.5 5.88807 7.5 5.75V5.75C7.5 5.61193 7.38807 5.5 7.25 5.5H6.83333C6.64924 5.5 6.5 5.64924 6.5 5.83333V6.75C6.5 6.88807 6.38807 7 6.25 7V7C6.11193 7 6 6.88807 6 6.75V6.25C6 6.11193 5.88807 6 5.75 6V6C5.61193 6 5.5 6.11193 5.5 6.25V6.75C5.5 6.88807 5.38807 7 5.25 7V7C5.11193 7 5 6.88807 5 6.75V6.13807Z" fill="white"/>
<path fill-rule="evenodd" clip-rule="evenodd" d="M13 6.13807C13 6.04967 13.0351 5.96488 13.0976 5.90237L13.2643 5.7357C13.3945 5.60553 13.3945 5.39447 13.2643 5.2643L13.0976 5.09763C13.0351 5.03512 13 4.95033 13 4.86193V4.33333C13 4.14924 13.1492 4 13.3333 4H13.809C13.9145 4 14 4.08551 14 4.19098V4.19098C14 4.39251 14.2717 4.45665 14.3618 4.27639L14.4363 4.12732C14.4754 4.04929 14.5551 4 14.6424 4H15.75C15.8881 4 16 4.11193 16 4.25V4.25C16 4.38807 15.8881 4.5 15.75 4.5H15.25C15.1119 4.5 15 4.61193 15 4.75V4.75C15 4.88807 15.1119 5 15.25 5H15.6667C15.8508 5 16 5.14924 16 5.33333V6.66667C16 6.85076 15.8508 7 15.6667 7H15.3333C15.1492 7 15 6.85076 15 6.66667V6.25C15 6.11193 15.1119 6 15.25 6V6C15.3881 6 15.5 5.88807 15.5 5.75V5.75C15.5 5.61193 15.3881 5.5 15.25 5.5H14.8333C14.6492 5.5 14.5 5.64924 14.5 5.83333V6.75C14.5 6.88807 14.3881 7 14.25 7V7C14.1119 7 14 6.88807 14 6.75V6.25C14 6.11193 13.8881 6 13.75 6V6C13.6119 6 13.5 6.11193 13.5 6.25V6.75C13.5 6.88807 13.3881 7 13.25 7V7C13.1119 7 13 6.88807 13 6.75V6.13807Z" fill="white"/>
<path fill-rule="evenodd" clip-rule="evenodd" d="M12 4.74766C12 4.88702 11.9219 5.07813 11.8195 5.18051L11.6805 5.31949C11.5808 5.41918 11.5781 5.57813 11.6805 5.68051L11.8195 5.81949C11.9192 5.91918 12 6.10702 12 6.25234V6.74766C12 6.88702 11.893 7 11.7477 7H11.2523C11.113 7 11 6.89298 11 6.74766V6.25234C11 6.11298 10.9539 6.09229 10.884 6.23193L10.616 6.76807C10.5519 6.89616 10.3823 7 10.2523 7H9.24769C9.1109 7 9 6.88403 9 6.75V6.75C9 6.61193 9.10702 6.5 9.25234 6.5H9.74766C9.88702 6.5 10 6.38403 10 6.25V6.25C10 6.11193 9.89298 6 9.74766 6H9.25234C9.11298 6 9 5.89247 9 5.75476V4.24524C9 4.1098 9.10702 4 9.25234 4H9.74766C9.88702 4 10 4.10702 10 4.25234V4.74766C10 4.88702 9.88403 5 9.75 5V5C9.61193 5 9.5 5.11597 9.5 5.25V5.25C9.5 5.38807 9.60702 5.5 9.75234 5.5H10.2477C10.387 5.5 10.5 5.3823 10.5 5.25231V4.24769C10.5 4.1109 10.616 4 10.75 4V4C10.8881 4 11 4.10702 11 4.25234V4.74766C11 4.88702 11.116 5 11.25 5V5C11.3881 5 11.5 4.89298 11.5 4.74766V4.25234C11.5 4.11298 11.616 4 11.75 4V4C11.8881 4 12 4.10702 12 4.25234V4.74766V4.74766Z" fill="white"/>
</g>
</svg>
