<svg width="21" height="15" viewBox="0 0 21 15" fill="none" xmlns="http://www.w3.org/2000/svg">
<rect width="21" height="15" rx="2" fill="white"/>
<mask id="mask0_2314_22071" style="mask-type:alpha" maskUnits="userSpaceOnUse" x="0" y="0" width="21" height="15">
<rect width="21" height="15" rx="2" fill="white"/>
</mask>
<g mask="url(#mask0_2314_22071)">
<rect width="21" height="15" fill="url(#paint0_linear_2314_22071)"/>
<g filter="url(#filter0_d_2314_22071)">
<path fill-rule="evenodd" clip-rule="evenodd" d="M0 0H21L0 15V0Z" fill="url(#paint1_linear_2314_22071)"/>
</g>
<path fill-rule="evenodd" clip-rule="evenodd" d="M21 0L0 15H21V0Z" fill="#2C7442"/>
<rect x="-2.08024" y="14.7793" width="25.1605" height="17.8747" transform="rotate(-34 -2.08024 14.7793)" fill="#FFD646"/>
<path fill-rule="evenodd" clip-rule="evenodd" d="M1.51526 3.26127L1.65558 2.44314L1.06117 1.86373L1.88263 1.74436L2.24999 1L2.61736 1.74436L3.43881 1.86373L2.8444 2.44314L2.98472 3.26127L2.24999 2.875L1.51526 3.26127ZM7.24999 2.875L6.51526 3.26127L6.65558 2.44314L6.06117 1.86373L6.88263 1.74436L7.24999 1L7.61736 1.74436L8.43881 1.86373L7.8444 2.44314L7.98472 3.26127L7.24999 2.875ZM6.51526 6.26127L7.24999 5.875L7.98472 6.26127L7.8444 5.44314L8.43881 4.86373L7.61736 4.74436L7.24999 4L6.88263 4.74436L6.06117 4.86373L6.65558 5.44314L6.51526 6.26127ZM1.51526 6.26127L1.65558 5.44314L1.06117 4.86373L1.88263 4.74436L2.24999 4L2.61736 4.74436L3.43881 4.86373L2.8444 5.44314L2.98472 6.26127L2.24999 5.875L1.51526 6.26127ZM4.15558 3.94314L4.01526 4.76127L4.74999 4.375L5.48472 4.76127L5.3444 3.94314L5.93881 3.36373L5.11736 3.24436L4.74999 2.5L4.38263 3.24436L3.56117 3.36373L4.15558 3.94314Z" fill="white"/>
</g>
<defs>
<filter id="filter0_d_2314_22071" x="0" y="0" width="21" height="15" filterUnits="userSpaceOnUse" color-interpolation-filters="sRGB">
<feFlood flood-opacity="0" result="BackgroundImageFix"/>
<feColorMatrix in="SourceAlpha" type="matrix" values="0 0 0 0 0 0 0 0 0 0 0 0 0 0 0 0 0 0 127 0" result="hardAlpha"/>
<feOffset/>
<feColorMatrix type="matrix" values="0 0 0 0 0 0 0 0 0 0 0 0 0 0 0 0 0 0 0.06 0"/>
<feBlend mode="normal" in2="BackgroundImageFix" result="effect1_dropShadow_2314_22071"/>
<feBlend mode="normal" in="SourceGraphic" in2="effect1_dropShadow_2314_22071" result="shape"/>
</filter>
<linearGradient id="paint0_linear_2314_22071" x1="0" y1="0" x2="0" y2="15" gradientUnits="userSpaceOnUse">
<stop stop-color="#1DBE4F"/>
<stop offset="1" stop-color="#159B3F"/>
</linearGradient>
<linearGradient id="paint1_linear_2314_22071" x1="0" y1="0" x2="0" y2="15" gradientUnits="userSpaceOnUse">
<stop stop-color="#0660D4"/>
<stop offset="1" stop-color="#0051BB"/>
</linearGradient>
</defs>
</svg>
