<svg width="21" height="15" viewBox="0 0 21 15" fill="none" xmlns="http://www.w3.org/2000/svg">
<rect x="0.25" y="0.25" width="20.5" height="14.5" rx="1.75" fill="white" stroke="#F5F5F5" stroke-width="0.5"/>
<mask id="mask0_2314_22101" style="mask-type:alpha" maskUnits="userSpaceOnUse" x="0" y="0" width="21" height="15">
<rect x="0.25" y="0.25" width="20.5" height="14.5" rx="1.75" fill="white" stroke="white" stroke-width="0.5"/>
</mask>
<g mask="url(#mask0_2314_22101)">
<path fill-rule="evenodd" clip-rule="evenodd" d="M0 8H21V0H0V8Z" fill="#E12237"/>
<path fill-rule="evenodd" clip-rule="evenodd" d="M5 7C5.70883 7 6.36025 6.75417 6.87364 6.34311C6.60168 6.44455 6.30731 6.5 6 6.5C4.61929 6.5 3.5 5.38071 3.5 4C3.5 2.61929 4.61929 1.5 6 1.5C6.30732 1.5 6.60168 1.55545 6.87364 1.65689C6.36025 1.24583 5.70883 1 5 1C3.34315 1 2 2.34315 2 4C2 5.65685 3.34315 7 5 7ZM6 3.5C6 3.77614 5.77614 4 5.5 4C5.22386 4 5 3.77614 5 3.5C5 3.22386 5.22386 3 5.5 3C5.77614 3 6 3.22386 6 3.5ZM6.5 6C6.77614 6 7 5.77614 7 5.5C7 5.22386 6.77614 5 6.5 5C6.22386 5 6 5.22386 6 5.5C6 5.77614 6.22386 6 6.5 6ZM9 5.5C9 5.77614 8.77614 6 8.5 6C8.22386 6 8 5.77614 8 5.5C8 5.22386 8.22386 5 8.5 5C8.77614 5 9 5.22386 9 5.5ZM9.5 4C9.77614 4 10 3.77614 10 3.5C10 3.22386 9.77614 3 9.5 3C9.22386 3 9 3.22386 9 3.5C9 3.77614 9.22386 4 9.5 4ZM8 2C8 2.27614 7.77614 2.5 7.5 2.5C7.22386 2.5 7 2.27614 7 2C7 1.72386 7.22386 1.5 7.5 1.5C7.77614 1.5 8 1.72386 8 2Z" fill="white"/>
</g>
</svg>
