<svg width="21" height="15" viewBox="0 0 21 15" fill="none" xmlns="http://www.w3.org/2000/svg">
<rect width="21" height="15" rx="2" fill="white"/>
<mask id="mask0_2314_22135" style="mask-type:alpha" maskUnits="userSpaceOnUse" x="0" y="0" width="21" height="15">
<rect width="21" height="15" rx="2" fill="white"/>
</mask>
<g mask="url(#mask0_2314_22135)">
<rect width="21" height="15" fill="url(#paint0_linear_2314_22135)"/>
<path fill-rule="evenodd" clip-rule="evenodd" d="M13 7.5C13 6.80202 13 5.99577 13 5.33315C13 4.59677 13.597 4 14.3333 4H16.6667C17.403 4 18 4.59677 18 5.33315C18 5.99577 18 6.80202 18 7.5C18 10 15.5 11 15.5 11C15.5 11 13 10 13 7.5Z" fill="#8FC5FF"/>
<mask id="mask1_2314_22135" style="mask-type:alpha" maskUnits="userSpaceOnUse" x="13" y="4" width="5" height="7">
<path fill-rule="evenodd" clip-rule="evenodd" d="M13 7.5C13 6.80202 13 5.99577 13 5.33315C13 4.59677 13.597 4 14.3333 4H16.6667C17.403 4 18 4.59677 18 5.33315C18 5.99577 18 6.80202 18 7.5C18 10 15.5 11 15.5 11C15.5 11 13 10 13 7.5Z" fill="white"/>
</mask>
<g mask="url(#mask1_2314_22135)">
<path fill-rule="evenodd" clip-rule="evenodd" d="M15.0674 8.91266C15.0674 8.91266 15.5679 8.26458 15.8623 8.26458C16.1566 8.26458 16.2107 8.69491 16.6634 8.69491C17.116 8.69491 17.3548 8.00909 17.7908 8.00909C18.2268 8.00909 17.7908 10.2591 17.7908 10.2591L17.2 10.8685L13.7415 11.268L15.0674 8.91266Z" fill="#366CC9"/>
<path fill-rule="evenodd" clip-rule="evenodd" d="M13.5946 7.9134L14.036 7.5L14.4697 8.56177L15.0519 7.5L15.5526 10.5265L14.72 10.3571L12 9.11352L13.5946 7.9134Z" fill="#CF6200"/>
<rect x="13" y="4" width="5" height="3" fill="#FFFF00"/>
</g>
<path d="M13.3333 7.5V7.43425V7.36792V7.30104V7.23367V7.16585V7.09763V7.02904V6.96015V6.9256V6.89099V6.82161V6.75206V6.68238V6.66494V6.66059V6.65623V6.64751V6.61262V6.54282V6.53846V6.5341V6.52974V6.52537V6.52101V6.51665V6.51229V6.50793V6.50357V6.4992V6.49484V6.49048V6.48612V6.48176V6.4774V6.47304V6.46868V6.46432V6.45996V6.4556V6.45124V6.44688V6.44253V6.43817V6.43381V6.42945V6.42509V6.42074V6.41638V6.41203V6.40767V6.40331V6.39896V6.3946V6.39025V6.3859V6.38154V6.37719V6.37284V6.36849V6.36414V6.35979V6.35543V6.35109V6.34674V6.34239V6.33804V6.33369V6.32934V6.325V6.32065V6.31631V6.31196V6.30762V6.30328V6.29893V6.29459V6.29025V6.28591V6.28157V6.27723V6.27289V6.26856V6.26422V6.25988V6.25555V6.25121V6.24688V6.24255V6.23821V6.23388V6.22955V6.22522V6.2209V6.21657V6.21224V6.20791V6.20359V6.19927V6.19494V6.19062V6.1863V6.18198V6.17766V6.17334V6.16902V6.16471V6.16039V6.15608V6.15176V6.14745V6.14314V6.13883V6.13452V6.13021V6.12591V6.1216V6.1173V6.11299V6.10869V6.10439V6.10009V6.09579V6.0915V6.0872V6.0829V6.07861V6.07432V6.07003V6.06574V6.06145V6.05716V6.05287V6.04859V6.04431V6.04002V6.03574V6.03146V6.02719V6.02291V6.01863V6.01436V6.01009V6.00582V6.00155V5.99728V5.99301V5.98875V5.98448V5.98022V5.97596V5.9717V5.96744V5.96319V5.95893V5.95468V5.95043V5.94618V5.94193V5.93769V5.93344V5.9292V5.92496V5.92072V5.85311V5.83628V5.81948V5.78598V5.71936V5.65331V5.58787V5.52309V5.45901V5.39568V5.33315C13.3333 4.78092 13.781 4.33333 14.3333 4.33333H16.6667C17.219 4.33333 17.6667 4.78092 17.6667 5.33315V5.33703V5.34092V5.34481V5.34871V5.3526V5.3565V5.36041V5.36431V5.36822V5.37214V5.37605V5.37997V5.3839V5.38782V5.39175V5.39568V5.39962V5.40356V5.4075V5.41144V5.41539V5.41934V5.42329V5.42725V5.43121V5.43517V5.43914V5.44311V5.44708V5.45105V5.45503V5.45901V5.463V5.46698V5.47097V5.47496V5.47896V5.48296V5.48696V5.49096V5.49497V5.49898V5.50299V5.507V5.51102V5.51504V5.51907V5.52309V5.52712V5.53115V5.53519V5.53922V5.54326V5.5473V5.55135V5.5554V5.55945V5.5635V5.56756V5.57161V5.57568V5.57974V5.5838V5.58787V5.59194V5.59602V5.60009V5.60417V5.60825V5.61234V5.61642V5.62051V5.6246V5.6287V5.63279V5.63689V5.64099V5.6451V5.6492V5.65331V5.65742V5.66154V5.66565V5.66977V5.67389V5.67801V5.68214V5.68626V5.69039V5.69452V5.69866V5.70279V5.70693V5.71107V5.71522V5.71936V5.72351V5.72766V5.73181V5.73596V5.74012V5.74428V5.74844V5.7526V5.75677V5.76093V5.7651V5.76927V5.77345V5.77762V5.7818V5.78598V5.79016V5.79434V5.79853V5.80271V5.8069V5.81109V5.81529V5.81948V5.82368V5.82788V5.83208V5.83628V5.84048V5.84469V5.8489V5.85311V5.85732V5.86154V5.86575V5.86997V5.87419V5.87841V5.88263V5.88686V5.89108V5.89531V5.89954V5.90377V5.90801V5.91224V5.91648V5.92072V5.92496V5.9292V5.93344V5.93769V5.94193V5.94618V5.95043V5.95468V5.95893V5.96319V5.96745V5.9717V5.97596V5.98022V5.98448V5.98875V5.99301V5.99728V6.00155V6.00582V6.01009V6.01436V6.01863V6.02291V6.02719V6.03146V6.03574V6.04002V6.04431V6.04859V6.05287V6.05716V6.06145V6.06574V6.07003V6.07432V6.07861V6.0829V6.0872V6.0915V6.09579V6.10009V6.10439V6.10869V6.11299V6.1173V6.1216V6.12591V6.13021V6.13452V6.13883V6.14314V6.14745V6.15176V6.15608V6.16039V6.16471V6.16902V6.17334V6.17766V6.18198V6.1863V6.19062V6.19494V6.19927V6.20359V6.20791V6.21224V6.21657V6.2209V6.22522V6.22955V6.23388V6.23821V6.24255V6.24688V6.25121V6.25555V6.25988V6.26422V6.26856V6.27289V6.27723V6.28157V6.28591V6.29025V6.29459V6.29893V6.30328V6.30762V6.31196V6.31631V6.32065V6.325V6.32935V6.33369V6.33804V6.34239V6.34674V6.35109V6.35544V6.35979V6.36414V6.36849V6.37284V6.37719V6.38154V6.3859V6.39025V6.3946V6.39896V6.40331V6.40767V6.41203V6.41638V6.42074V6.42509V6.42945V6.43381V6.43817V6.44253V6.44688V6.45124V6.4556V6.45996V6.46432V6.46868V6.47304V6.4774V6.48176V6.48612V6.49048V6.49484V6.4992V6.50357V6.50793V6.51229V6.51665V6.52101V6.52538V6.52974V6.5341V6.53846V6.54282V6.54719V6.55155V6.55591V6.56027V6.56464V6.569V6.57336V6.57772V6.58209V6.58645V6.59081V6.59517V6.59953V6.6039V6.60826V6.61262V6.61698V6.62134V6.6257V6.63006V6.63442V6.63879V6.64315V6.64751V6.65187V6.65623V6.66059V6.66494V6.6693V6.67366V6.67802V6.68238V6.68674V6.69109V6.69545V6.69981V6.70416V6.70852V6.71288V6.71723V6.72159V6.72594V6.73029V6.73465V6.739V6.74335V6.74771V6.75206V6.75641V6.76076V6.76511V6.76946V6.77381V6.77816V6.78251V6.78685V6.7912V6.79555V6.79989V6.80424V6.80858V6.81292V6.81727V6.82161V6.82595V6.83029V6.83463V6.83897V6.84331V6.84765V6.85199V6.85632V6.86066V6.865V6.86933V6.87366V6.878V6.88233V6.88666V6.89099V6.89532V6.89965V6.90397V6.9083V6.91263V6.91695V6.92128V6.9256V6.92992V6.93424V6.93856V6.94288V6.9472V6.95152V6.95583V6.96015V6.96446V6.96878V6.97309V6.9774V6.98171V6.98602V6.99033V6.99463V6.99894V7.00324V7.00754V7.01185V7.01615V7.02045V7.02475V7.02904V7.03334V7.03763V7.04193V7.04622V7.05051V7.0548V7.05909V7.06338V7.06766V7.07195V7.07623V7.08051V7.08479V7.08907V7.09335V7.09763V7.1019V7.10617V7.11045V7.11472V7.11899V7.12326V7.12752V7.13179V7.13605V7.14031V7.14457V7.14883V7.15309V7.15734V7.1616V7.16585V7.1701V7.17435V7.1786V7.18285V7.18709V7.19133V7.19558V7.19982V7.20405V7.20829V7.21252V7.21676V7.22099V7.22522V7.22945V7.23367V7.2379V7.24212V7.24634V7.25056V7.25478V7.25899V7.26321V7.26742V7.27163V7.27584V7.28004V7.28425V7.28845V7.29265V7.29685V7.30104V7.30524V7.30943V7.31362V7.31781V7.322V7.32618V7.33037V7.33455V7.33873V7.3429V7.34708V7.35125V7.35542V7.35959V7.36376V7.36792V7.37208V7.37624V7.3804V7.38456V7.38871V7.39286V7.39701V7.40116V7.4053V7.40945V7.41359V7.41772V7.42186V7.42599V7.43012V7.43425V7.43838V7.4425V7.44663V7.45075V7.45486V7.45898V7.46309V7.4672V7.47131V7.47542V7.47952V7.48362V7.48772V7.49181V7.49591V7.5C17.6667 8.62601 17.1072 9.41758 16.527 9.93973C16.2367 10.201 15.9452 10.3906 15.7263 10.5147C15.6361 10.5658 15.5589 10.6054 15.5 10.634C15.4411 10.6054 15.3639 10.5658 15.2737 10.5147C15.0548 10.3906 14.7633 10.201 14.473 9.93973C13.8928 9.41758 13.3333 8.62601 13.3333 7.5Z" stroke="white" stroke-width="0.666667"/>
<mask id="mask2_2314_22135" style="mask-type:alpha" maskUnits="userSpaceOnUse" x="13" y="4" width="5" height="7">
<path d="M13.3333 7.5V7.43425V7.36792V7.30104V7.23367V7.16585V7.09763V7.02904V6.96015V6.9256V6.89099V6.82161V6.75206V6.68238V6.66494V6.66059V6.65623V6.64751V6.61262V6.54282V6.53846V6.5341V6.52974V6.52537V6.52101V6.51665V6.51229V6.50793V6.50357V6.4992V6.49484V6.49048V6.48612V6.48176V6.4774V6.47304V6.46868V6.46432V6.45996V6.4556V6.45124V6.44688V6.44253V6.43817V6.43381V6.42945V6.42509V6.42074V6.41638V6.41203V6.40767V6.40331V6.39896V6.3946V6.39025V6.3859V6.38154V6.37719V6.37284V6.36849V6.36414V6.35979V6.35543V6.35109V6.34674V6.34239V6.33804V6.33369V6.32934V6.325V6.32065V6.31631V6.31196V6.30762V6.30328V6.29893V6.29459V6.29025V6.28591V6.28157V6.27723V6.27289V6.26856V6.26422V6.25988V6.25555V6.25121V6.24688V6.24255V6.23821V6.23388V6.22955V6.22522V6.2209V6.21657V6.21224V6.20791V6.20359V6.19927V6.19494V6.19062V6.1863V6.18198V6.17766V6.17334V6.16902V6.16471V6.16039V6.15608V6.15176V6.14745V6.14314V6.13883V6.13452V6.13021V6.12591V6.1216V6.1173V6.11299V6.10869V6.10439V6.10009V6.09579V6.0915V6.0872V6.0829V6.07861V6.07432V6.07003V6.06574V6.06145V6.05716V6.05287V6.04859V6.04431V6.04002V6.03574V6.03146V6.02719V6.02291V6.01863V6.01436V6.01009V6.00582V6.00155V5.99728V5.99301V5.98875V5.98448V5.98022V5.97596V5.9717V5.96744V5.96319V5.95893V5.95468V5.95043V5.94618V5.94193V5.93769V5.93344V5.9292V5.92496V5.92072V5.85311V5.83628V5.81948V5.78598V5.71936V5.65331V5.58787V5.52309V5.45901V5.39568V5.33315C13.3333 4.78092 13.781 4.33333 14.3333 4.33333H16.6667C17.219 4.33333 17.6667 4.78092 17.6667 5.33315V5.33703V5.34092V5.34481V5.34871V5.3526V5.3565V5.36041V5.36431V5.36822V5.37214V5.37605V5.37997V5.3839V5.38782V5.39175V5.39568V5.39962V5.40356V5.4075V5.41144V5.41539V5.41934V5.42329V5.42725V5.43121V5.43517V5.43914V5.44311V5.44708V5.45105V5.45503V5.45901V5.463V5.46698V5.47097V5.47496V5.47896V5.48296V5.48696V5.49096V5.49497V5.49898V5.50299V5.507V5.51102V5.51504V5.51907V5.52309V5.52712V5.53115V5.53519V5.53922V5.54326V5.5473V5.55135V5.5554V5.55945V5.5635V5.56756V5.57161V5.57568V5.57974V5.5838V5.58787V5.59194V5.59602V5.60009V5.60417V5.60825V5.61234V5.61642V5.62051V5.6246V5.6287V5.63279V5.63689V5.64099V5.6451V5.6492V5.65331V5.65742V5.66154V5.66565V5.66977V5.67389V5.67801V5.68214V5.68626V5.69039V5.69452V5.69866V5.70279V5.70693V5.71107V5.71522V5.71936V5.72351V5.72766V5.73181V5.73596V5.74012V5.74428V5.74844V5.7526V5.75677V5.76093V5.7651V5.76927V5.77345V5.77762V5.7818V5.78598V5.79016V5.79434V5.79853V5.80271V5.8069V5.81109V5.81529V5.81948V5.82368V5.82788V5.83208V5.83628V5.84048V5.84469V5.8489V5.85311V5.85732V5.86154V5.86575V5.86997V5.87419V5.87841V5.88263V5.88686V5.89108V5.89531V5.89954V5.90377V5.90801V5.91224V5.91648V5.92072V5.92496V5.9292V5.93344V5.93769V5.94193V5.94618V5.95043V5.95468V5.95893V5.96319V5.96745V5.9717V5.97596V5.98022V5.98448V5.98875V5.99301V5.99728V6.00155V6.00582V6.01009V6.01436V6.01863V6.02291V6.02719V6.03146V6.03574V6.04002V6.04431V6.04859V6.05287V6.05716V6.06145V6.06574V6.07003V6.07432V6.07861V6.0829V6.0872V6.0915V6.09579V6.10009V6.10439V6.10869V6.11299V6.1173V6.1216V6.12591V6.13021V6.13452V6.13883V6.14314V6.14745V6.15176V6.15608V6.16039V6.16471V6.16902V6.17334V6.17766V6.18198V6.1863V6.19062V6.19494V6.19927V6.20359V6.20791V6.21224V6.21657V6.2209V6.22522V6.22955V6.23388V6.23821V6.24255V6.24688V6.25121V6.25555V6.25988V6.26422V6.26856V6.27289V6.27723V6.28157V6.28591V6.29025V6.29459V6.29893V6.30328V6.30762V6.31196V6.31631V6.32065V6.325V6.32935V6.33369V6.33804V6.34239V6.34674V6.35109V6.35544V6.35979V6.36414V6.36849V6.37284V6.37719V6.38154V6.3859V6.39025V6.3946V6.39896V6.40331V6.40767V6.41203V6.41638V6.42074V6.42509V6.42945V6.43381V6.43817V6.44253V6.44688V6.45124V6.4556V6.45996V6.46432V6.46868V6.47304V6.4774V6.48176V6.48612V6.49048V6.49484V6.4992V6.50357V6.50793V6.51229V6.51665V6.52101V6.52538V6.52974V6.5341V6.53846V6.54282V6.54719V6.55155V6.55591V6.56027V6.56464V6.569V6.57336V6.57772V6.58209V6.58645V6.59081V6.59517V6.59953V6.6039V6.60826V6.61262V6.61698V6.62134V6.6257V6.63006V6.63442V6.63879V6.64315V6.64751V6.65187V6.65623V6.66059V6.66494V6.6693V6.67366V6.67802V6.68238V6.68674V6.69109V6.69545V6.69981V6.70416V6.70852V6.71288V6.71723V6.72159V6.72594V6.73029V6.73465V6.739V6.74335V6.74771V6.75206V6.75641V6.76076V6.76511V6.76946V6.77381V6.77816V6.78251V6.78685V6.7912V6.79555V6.79989V6.80424V6.80858V6.81292V6.81727V6.82161V6.82595V6.83029V6.83463V6.83897V6.84331V6.84765V6.85199V6.85632V6.86066V6.865V6.86933V6.87366V6.878V6.88233V6.88666V6.89099V6.89532V6.89965V6.90397V6.9083V6.91263V6.91695V6.92128V6.9256V6.92992V6.93424V6.93856V6.94288V6.9472V6.95152V6.95583V6.96015V6.96446V6.96878V6.97309V6.9774V6.98171V6.98602V6.99033V6.99463V6.99894V7.00324V7.00754V7.01185V7.01615V7.02045V7.02475V7.02904V7.03334V7.03763V7.04193V7.04622V7.05051V7.0548V7.05909V7.06338V7.06766V7.07195V7.07623V7.08051V7.08479V7.08907V7.09335V7.09763V7.1019V7.10617V7.11045V7.11472V7.11899V7.12326V7.12752V7.13179V7.13605V7.14031V7.14457V7.14883V7.15309V7.15734V7.1616V7.16585V7.1701V7.17435V7.1786V7.18285V7.18709V7.19133V7.19558V7.19982V7.20405V7.20829V7.21252V7.21676V7.22099V7.22522V7.22945V7.23367V7.2379V7.24212V7.24634V7.25056V7.25478V7.25899V7.26321V7.26742V7.27163V7.27584V7.28004V7.28425V7.28845V7.29265V7.29685V7.30104V7.30524V7.30943V7.31362V7.31781V7.322V7.32618V7.33037V7.33455V7.33873V7.3429V7.34708V7.35125V7.35542V7.35959V7.36376V7.36792V7.37208V7.37624V7.3804V7.38456V7.38871V7.39286V7.39701V7.40116V7.4053V7.40945V7.41359V7.41772V7.42186V7.42599V7.43012V7.43425V7.43838V7.4425V7.44663V7.45075V7.45486V7.45898V7.46309V7.4672V7.47131V7.47542V7.47952V7.48362V7.48772V7.49181V7.49591V7.5C17.6667 8.62601 17.1072 9.41758 16.527 9.93973C16.2367 10.201 15.9452 10.3906 15.7263 10.5147C15.6361 10.5658 15.5589 10.6054 15.5 10.634C15.4411 10.6054 15.3639 10.5658 15.2737 10.5147C15.0548 10.3906 14.7633 10.201 14.473 9.93973C13.8928 9.41758 13.3333 8.62601 13.3333 7.5Z" fill="white" stroke="white" stroke-width="0.666667"/>
</mask>
<g mask="url(#mask2_2314_22135)">
</g>
<path d="M0 -0.333333H-0.901086L-0.21693 0.253086L3.16667 3.15331V3.82846L-0.193746 6.22876L-0.333333 6.32846V6.5V7V7.60142L0.176666 7.28267L4.0956 4.83333H4.89318L8.26313 7.24044C8.34771 7.30086 8.44905 7.33333 8.55299 7.33333C9.01598 7.33333 9.22907 6.75732 8.87754 6.45601L5.83333 3.84669V3.17154L9.05416 0.87095C9.22936 0.745809 9.33333 0.543761 9.33333 0.328461V0V-0.601416L8.82333 -0.282666L4.9044 2.16667H4.10682L0.693746 -0.271244L0.606822 -0.333333H0.5H0Z" fill="#DB1E36" stroke="white" stroke-width="0.666667"/>
<path fill-rule="evenodd" clip-rule="evenodd" d="M0 2.5V4.5H3.5V6.83333C3.5 7.20152 3.79848 7.5 4.16667 7.5H4.83333C5.20152 7.5 5.5 7.20152 5.5 6.83333V4.5H8.83333C9.20152 4.5 9.5 4.20152 9.5 3.83333V3.16667C9.5 2.79848 9.20152 2.5 8.83333 2.5H5.5V0H3.5V2.5H0Z" fill="white"/>
<path fill-rule="evenodd" clip-rule="evenodd" d="M0 3H4V2.5V0H5V2.5V3H9V4H5V4.5V7H4V4.5V4H0V3Z" fill="#DB1E36"/>
</g>
<defs>
<linearGradient id="paint0_linear_2314_22135" x1="0" y1="0" x2="0" y2="15" gradientUnits="userSpaceOnUse">
<stop stop-color="#07319C"/>
<stop offset="1" stop-color="#00247E"/>
</linearGradient>
</defs>
</svg>
