<svg width="21" height="15" viewBox="0 0 21 15" fill="none" xmlns="http://www.w3.org/2000/svg">
<rect x="0.25" y="0.25" width="20.5" height="14.5" rx="1.75" fill="white" stroke="#F5F5F5" stroke-width="0.5"/>
<mask id="mask0_2314_22119" style="mask-type:alpha" maskUnits="userSpaceOnUse" x="0" y="0" width="21" height="15">
<rect x="0.25" y="0.25" width="20.5" height="14.5" rx="1.75" fill="white" stroke="white" stroke-width="0.5"/>
</mask>
<g mask="url(#mask0_2314_22119)">
<path fill-rule="evenodd" clip-rule="evenodd" d="M0 10H21V5H6.93298V4C6.93298 4 6.22775 3.5 5.5 3.5C4.77225 3.5 4 4 4 4V5H0V10ZM6.5 6C6.5 6.55228 6.05228 7 5.5 7C4.94772 7 4.5 6.55228 4.5 6C4.5 5.44772 4.94772 5 5.5 5C6.05228 5 6.5 5.44772 6.5 6Z" fill="#0C47B7"/>
<g filter="url(#filter0_d_2314_22119)">
<path fill-rule="evenodd" clip-rule="evenodd" d="M0 15H21V10H0V15Z" fill="#E53B35"/>
</g>
</g>
<defs>
<filter id="filter0_d_2314_22119" x="0" y="10" width="21" height="5" filterUnits="userSpaceOnUse" color-interpolation-filters="sRGB">
<feFlood flood-opacity="0" result="BackgroundImageFix"/>
<feColorMatrix in="SourceAlpha" type="matrix" values="0 0 0 0 0 0 0 0 0 0 0 0 0 0 0 0 0 0 127 0" result="hardAlpha"/>
<feOffset/>
<feColorMatrix type="matrix" values="0 0 0 0 0 0 0 0 0 0 0 0 0 0 0 0 0 0 0.06 0"/>
<feBlend mode="normal" in2="BackgroundImageFix" result="effect1_dropShadow_2314_22119"/>
<feBlend mode="normal" in="SourceGraphic" in2="effect1_dropShadow_2314_22119" result="shape"/>
</filter>
</defs>
</svg>
