<svg width="21" height="15" viewBox="0 0 21 15" fill="none" xmlns="http://www.w3.org/2000/svg">
<rect x="0.25" y="0.25" width="20.5" height="14.5" rx="1.75" fill="white" stroke="#F5F5F5" stroke-width="0.5"/>
<mask id="mask0_2314_22047" style="mask-type:alpha" maskUnits="userSpaceOnUse" x="0" y="0" width="21" height="15">
<rect x="0.25" y="0.25" width="20.5" height="14.5" rx="1.75" fill="white" stroke="white" stroke-width="0.5"/>
</mask>
<g mask="url(#mask0_2314_22047)">
<path fill-rule="evenodd" clip-rule="evenodd" d="M0 10H21V5H0V10Z" fill="#0C47B7"/>
<path fill-rule="evenodd" clip-rule="evenodd" d="M0 15H21V10H0V15Z" fill="#E53B35"/>
<path d="M9.46696 2.33333H5.53304C4.45838 2.33333 3.57582 3.1826 3.53451 4.25647L3.3586 8.83028C3.33513 9.44059 3.59181 10.0282 4.05554 10.4257L5.76456 11.8905C6.7632 12.7465 8.2368 12.7465 9.23544 11.8905L10.9445 10.4257C11.4082 10.0282 11.6649 9.44059 11.6414 8.83028L11.4655 4.25647C11.4242 3.1826 10.5416 2.33333 9.46696 2.33333Z" fill="#F73744" stroke="white" stroke-width="1.33333"/>
<mask id="mask1_2314_22047" style="mask-type:alpha" maskUnits="userSpaceOnUse" x="2" y="1" width="11" height="13">
<path d="M9.46696 2.33333H5.53304C4.45838 2.33333 3.57582 3.1826 3.53451 4.25647L3.3586 8.83028C3.33513 9.44059 3.59181 10.0282 4.05554 10.4257L5.76456 11.8905C6.7632 12.7465 8.2368 12.7465 9.23544 11.8905L10.9445 10.4257C11.4082 10.0282 11.6649 9.44059 11.6414 8.83028L11.4655 4.25647C11.4242 3.1826 10.5416 2.33333 9.46696 2.33333Z" fill="white" stroke="white" stroke-width="1.33333"/>
</mask>
<g mask="url(#mask1_2314_22047)">
<path fill-rule="evenodd" clip-rule="evenodd" d="M7 8.33333C7 8.14924 6.85076 8 6.66667 8H5.83333C5.64924 8 5.5 7.85076 5.5 7.66667V7.33333C5.5 7.14924 5.64924 7 5.83333 7H6.66667C6.85076 7 7 6.85076 7 6.66667V6.33333C7 6.14924 6.85076 6 6.66667 6H6.33333C6.14924 6 6 5.85076 6 5.66667V5.33333C6 5.14924 6.14924 5 6.33333 5H6.66667C6.85076 5 7 4.85076 7 4.66667V4.33333C7 4.14924 7.14924 4 7.33333 4H7.66667C7.85076 4 8 4.14924 8 4.33333V4.66667C8 4.85076 8.14924 5 8.33333 5H8.66667C8.85076 5 9 5.14924 9 5.33333V5.66667C9 5.85076 8.85076 6 8.66667 6H8.33333C8.14924 6 8 6.14924 8 6.33333V6.66667C8 6.85076 8.14924 7 8.33333 7H9.16667C9.35076 7 9.5 7.14924 9.5 7.33333V7.66667C9.5 7.85076 9.35076 8 9.16667 8H8.33333C8.14924 8 8 8.14924 8 8.33333V9.66667C8 9.85076 7.85076 10 7.66667 10H7.33333C7.14924 10 7 9.85076 7 9.66667V8.33333Z" fill="white"/>
<path fill-rule="evenodd" clip-rule="evenodd" d="M6.59735 10.0691C5.38159 10.2606 4.5 10.8288 4.5 11.5C4.5 12.3284 5.84315 13 7.5 13C9.15685 13 10.5 12.3284 10.5 11.5C10.5 10.8288 9.61841 10.2606 8.40265 10.0691C8.24168 9.7325 7.89799 9.5 7.5 9.5C7.10201 9.5 6.75832 9.7325 6.59735 10.0691Z" fill="#1251A1"/>
</g>
</g>
</svg>
