<svg width="21" height="15" viewBox="0 0 21 15" fill="none" xmlns="http://www.w3.org/2000/svg">
<rect width="21" height="15" rx="2" fill="white"/>
<mask id="mask0_2314_22025" style="mask-type:alpha" maskUnits="userSpaceOnUse" x="0" y="0" width="21" height="15">
<rect width="21" height="15" rx="2" fill="white"/>
</mask>
<g mask="url(#mask0_2314_22025)">
<path fill-rule="evenodd" clip-rule="evenodd" d="M0 15H21V10H0V15Z" fill="#2ACB41"/>
<path fill-rule="evenodd" clip-rule="evenodd" d="M0 5H21V0H0V5Z" fill="#2ACB41"/>
<path fill-rule="evenodd" clip-rule="evenodd" d="M0 10H21V5H0V10Z" fill="#FDD043"/>
<path fill-rule="evenodd" clip-rule="evenodd" d="M0 0L8 7.5L0 15V0Z" fill="#E71E43"/>
<path fill-rule="evenodd" clip-rule="evenodd" d="M11 8.32L9.82443 9.11803L10.2201 7.75339L9.09789 6.88197L10.518 6.83661L11 5.5L11.482 6.83661L12.9021 6.88197L11.7799 7.75339L12.1756 9.11803L11 8.32Z" fill="#262626"/>
<path fill-rule="evenodd" clip-rule="evenodd" d="M16 8.32L14.8244 9.11803L15.2201 7.75339L14.0979 6.88197L15.518 6.83661L16 5.5L16.482 6.83661L17.9021 6.88197L16.7799 7.75339L17.1756 9.11803L16 8.32Z" fill="#262626"/>
</g>
</svg>
