<svg width="21" height="15" viewBox="0 0 21 15" fill="none" xmlns="http://www.w3.org/2000/svg">
<rect x="0.25" y="0.25" width="20.5" height="14.5" rx="1.75" fill="white" stroke="#F5F5F5" stroke-width="0.5"/>
<mask id="mask0_2314_21063" style="mask-type:alpha" maskUnits="userSpaceOnUse" x="0" y="0" width="21" height="15">
<rect x="0.25" y="0.25" width="20.5" height="14.5" rx="1.75" fill="white" stroke="white" stroke-width="0.5"/>
</mask>
<g mask="url(#mask0_2314_21063)">
<path fill-rule="evenodd" clip-rule="evenodd" d="M0 5H21V0H0V5Z" fill="#1B57C4"/>
<path fill-rule="evenodd" clip-rule="evenodd" d="M0 15H21V10H0V15Z" fill="#1B57C4"/>
<path fill-rule="evenodd" clip-rule="evenodd" d="M9.29996 5.89987C8.8142 6.26476 8.5 6.84568 8.5 7.49999C8.5 8.60456 9.39543 9.49999 10.5 9.49999C11.6046 9.49999 12.5 8.60456 12.5 7.49999C12.5 6.84568 12.1858 6.26476 11.7 5.89987L11 7.99999H10L9.29996 5.89987Z" fill="url(#paint0_linear_2314_21063)"/>
<path fill-rule="evenodd" clip-rule="evenodd" d="M10.5 5.5L11 8H10L10.5 5.5Z" fill="#F9C92E"/>
</g>
<defs>
<linearGradient id="paint0_linear_2314_21063" x1="8.5" y1="5.89987" x2="8.5" y2="9.49999" gradientUnits="userSpaceOnUse">
<stop stop-color="#3C7839"/>
<stop offset="1" stop-color="#31642E"/>
</linearGradient>
</defs>
</svg>
