<svg width="21" height="15" viewBox="0 0 21 15" fill="none" xmlns="http://www.w3.org/2000/svg">
<rect x="0.25" y="0.25" width="20.5" height="14.5" rx="1.75" fill="white" stroke="#F5F5F5" stroke-width="0.5"/>
<mask id="mask0_2314_22064" style="mask-type:alpha" maskUnits="userSpaceOnUse" x="0" y="0" width="21" height="15">
<rect x="0.25" y="0.25" width="20.5" height="14.5" rx="1.75" fill="white" stroke="white" stroke-width="0.5"/>
</mask>
<g mask="url(#mask0_2314_22064)">
<path fill-rule="evenodd" clip-rule="evenodd" d="M0 15H21V10H0V15Z" fill="#262626"/>
<path fill-rule="evenodd" clip-rule="evenodd" d="M0 5H21V0H0V5Z" fill="#E32139"/>
<path fill-rule="evenodd" clip-rule="evenodd" d="M7 8.32L5.82443 9.11803L6.22013 7.75339L5.09789 6.88197L6.51802 6.83661L7 5.5L7.48198 6.83661L8.90211 6.88197L7.77987 7.75339L8.17557 9.11803L7 8.32Z" fill="#128A49"/>
<path fill-rule="evenodd" clip-rule="evenodd" d="M14 8.32L12.8244 9.11803L13.2201 7.75339L12.0979 6.88197L13.518 6.83661L14 5.5L14.482 6.83661L15.9021 6.88197L14.7799 7.75339L15.1756 9.11803L14 8.32Z" fill="#128A49"/>
</g>
</svg>
