<svg width="21" height="15" viewBox="0 0 21 15" fill="none" xmlns="http://www.w3.org/2000/svg">
<rect width="21" height="15" rx="2" fill="white"/>
<mask id="mask0_2314_22012" style="mask-type:alpha" maskUnits="userSpaceOnUse" x="0" y="0" width="21" height="15">
<rect width="21" height="15" rx="2" fill="white"/>
</mask>
<g mask="url(#mask0_2314_22012)">
<path fill-rule="evenodd" clip-rule="evenodd" d="M0 3H21V0H0V3Z" fill="#486BCA"/>
<path fill-rule="evenodd" clip-rule="evenodd" d="M0 15H21V12H0V15Z" fill="#486BCA"/>
<path fill-rule="evenodd" clip-rule="evenodd" d="M0 12H21V3H0V12Z" fill="#FFDF20"/>
<path fill-rule="evenodd" clip-rule="evenodd" d="M0 11H21V4H0V11Z" fill="#CF1615"/>
<path fill-rule="evenodd" clip-rule="evenodd" d="M10.5 10C12.9853 10 15 7.5 15 7.5C15 7.5 12.9853 5 10.5 5C8.01472 5 6 7.5 6 7.5C6 7.5 8.01472 10 10.5 10Z" fill="white"/>
<mask id="mask1_2314_22012" style="mask-type:alpha" maskUnits="userSpaceOnUse" x="6" y="5" width="9" height="5">
<path fill-rule="evenodd" clip-rule="evenodd" d="M10.5 10C12.9853 10 15 7.5 15 7.5C15 7.5 12.9853 5 10.5 5C8.01472 5 6 7.5 6 7.5C6 7.5 8.01472 10 10.5 10Z" fill="white"/>
</mask>
<g mask="url(#mask1_2314_22012)">
<path fill-rule="evenodd" clip-rule="evenodd" d="M11 5H6V10H10L11 5Z" fill="#262626"/>
<path fill-rule="evenodd" clip-rule="evenodd" d="M11.5 8C11.7761 8 12 7.77614 12 7.5C12 7.22386 11.7761 7 11.5 7C11.2239 7 11 7.22386 11 7.5C11 7.77614 11.2239 8 11.5 8Z" fill="#1A1A1A"/>
<path fill-rule="evenodd" clip-rule="evenodd" d="M9.5 8C9.77614 8 10 7.77614 10 7.5C10 7.22386 9.77614 7 9.5 7C9.22386 7 9 7.22386 9 7.5C9 7.77614 9.22386 8 9.5 8Z" fill="#F6F6F6"/>
</g>
</g>
</svg>
