<svg width="21" height="15" viewBox="0 0 21 15" fill="none" xmlns="http://www.w3.org/2000/svg">
<rect width="21" height="15" rx="2" fill="white"/>
<mask id="mask0_2314_22258" style="mask-type:alpha" maskUnits="userSpaceOnUse" x="0" y="0" width="21" height="15">
<rect width="21" height="15" rx="2" fill="white"/>
</mask>
<g mask="url(#mask0_2314_22258)">
<path fill-rule="evenodd" clip-rule="evenodd" d="M0 15H21V0H0V15Z" fill="#30C375"/>
<rect x="3" width="3" height="15" fill="#DE414F"/>
<path fill-rule="evenodd" clip-rule="evenodd" d="M4.5 3C5.32843 3 6 2.55228 6 2C6 1.44772 5.32843 1 4.5 1C3.67157 1 3 1.44772 3 2C3 2.55228 3.67157 3 4.5 3Z" fill="white"/>
<mask id="mask1_2314_22258" style="mask-type:alpha" maskUnits="userSpaceOnUse" x="3" y="1" width="3" height="2">
<path fill-rule="evenodd" clip-rule="evenodd" d="M4.5 3C5.32843 3 6 2.55228 6 2C6 1.44772 5.32843 1 4.5 1C3.67157 1 3 1.44772 3 2C3 2.55228 3.67157 3 4.5 3Z" fill="white"/>
</mask>
<g mask="url(#mask1_2314_22258)">
<path fill-rule="evenodd" clip-rule="evenodd" d="M4.5 2.5C4.77614 2.5 5 2.27614 5 2C5 1.72386 4.77614 1.5 4.5 1.5C4.22386 1.5 4 1.72386 4 2C4 2.27614 4.22386 2.5 4.5 2.5Z" fill="#DD404F"/>
<rect x="3" y="1" width="1.5" height="1" fill="#FBAF29"/>
<rect x="4.5" y="2" width="1.5" height="1" fill="#FBAF29"/>
</g>
<path fill-rule="evenodd" clip-rule="evenodd" d="M4.5 14C5.32843 14 6 13.5523 6 13C6 12.4477 5.32843 12 4.5 12C3.67157 12 3 12.4477 3 13C3 13.5523 3.67157 14 4.5 14Z" fill="white"/>
<mask id="mask2_2314_22258" style="mask-type:alpha" maskUnits="userSpaceOnUse" x="3" y="12" width="3" height="2">
<path fill-rule="evenodd" clip-rule="evenodd" d="M4.5 14C5.32843 14 6 13.5523 6 13C6 12.4477 5.32843 12 4.5 12C3.67157 12 3 12.4477 3 13C3 13.5523 3.67157 14 4.5 14Z" fill="white"/>
</mask>
<g mask="url(#mask2_2314_22258)">
<path fill-rule="evenodd" clip-rule="evenodd" d="M4.5 13.5C4.77614 13.5 5 13.2761 5 13C5 12.7239 4.77614 12.5 4.5 12.5C4.22386 12.5 4 12.7239 4 13C4 13.2761 4.22386 13.5 4.5 13.5Z" fill="#DD404F"/>
<rect x="3" y="12" width="1.5" height="1" fill="#FBAF29"/>
<rect x="4.5" y="13" width="1.5" height="0.999999" fill="#FBAF29"/>
</g>
<path fill-rule="evenodd" clip-rule="evenodd" d="M4.5 9C5.32843 9 6 8.55229 6 8C6 7.44772 5.32843 7 4.5 7C3.67157 7 3 7.44772 3 8C3 8.55229 3.67157 9 4.5 9Z" fill="#28AE67"/>
<mask id="mask3_2314_22258" style="mask-type:alpha" maskUnits="userSpaceOnUse" x="3" y="7" width="3" height="2">
<path fill-rule="evenodd" clip-rule="evenodd" d="M4.5 9C5.32843 9 6 8.55229 6 8C6 7.44772 5.32843 7 4.5 7C3.67157 7 3 7.44772 3 8C3 8.55229 3.67157 9 4.5 9Z" fill="white"/>
</mask>
<g mask="url(#mask3_2314_22258)">
<path fill-rule="evenodd" clip-rule="evenodd" d="M4.5 8.5C5.05228 8.5 5.5 8.27614 5.5 8C5.5 7.72386 5.05228 7.5 4.5 7.5C3.94772 7.5 3.5 7.72386 3.5 8C3.5 8.27614 3.94772 8.5 4.5 8.5Z" fill="#DD404F"/>
</g>
<path fill-rule="evenodd" clip-rule="evenodd" d="M4.5 11C5.32843 11 6 10.7761 6 10.5C6 10.2239 5.32843 10 4.5 10C3.67157 10 3 10.2239 3 10.5C3 10.7761 3.67157 11 4.5 11Z" fill="#28AE67"/>
<mask id="mask4_2314_22258" style="mask-type:alpha" maskUnits="userSpaceOnUse" x="3" y="10" width="3" height="1">
<path fill-rule="evenodd" clip-rule="evenodd" d="M4.5 11C5.32843 11 6 10.7761 6 10.5C6 10.2239 5.32843 10 4.5 10C3.67157 10 3 10.2239 3 10.5C3 10.7761 3.67157 11 4.5 11Z" fill="white"/>
</mask>
<g mask="url(#mask4_2314_22258)">
</g>
<path fill-rule="evenodd" clip-rule="evenodd" d="M4.5 6C5.32843 6 6 5.55228 6 5C6 4.44772 5.32843 4 4.5 4C3.67157 4 3 4.44772 3 5C3 5.55228 3.67157 6 4.5 6Z" fill="#FBAF29"/>
<mask id="mask5_2314_22258" style="mask-type:alpha" maskUnits="userSpaceOnUse" x="3" y="4" width="3" height="2">
<path fill-rule="evenodd" clip-rule="evenodd" d="M4.5 6C5.32843 6 6 5.55228 6 5C6 4.44772 5.32843 4 4.5 4C3.67157 4 3 4.44772 3 5C3 5.55228 3.67157 6 4.5 6Z" fill="white"/>
</mask>
<g mask="url(#mask5_2314_22258)">
<path fill-rule="evenodd" clip-rule="evenodd" d="M4.5 5.5C4.77614 5.5 5 5.27614 5 5C5 4.72386 4.77614 4.5 4.5 4.5C4.22386 4.5 4 4.72386 4 5C4 5.27614 4.22386 5.5 4.5 5.5Z" fill="#DD404F"/>
<rect x="3" y="4" width="1" height="2" fill="#28AE67"/>
<rect x="5" y="4" width="1" height="2" fill="#28AE67"/>
</g>
<path fill-rule="evenodd" clip-rule="evenodd" d="M11.117 3.17862C10.9395 3.39016 10.9671 3.70553 11.1786 3.88303C11.3902 4.06053 11.7055 4.03294 11.883 3.82141C12.0605 3.60987 12.0329 3.29449 11.8214 3.11699C11.6099 2.93949 11.2945 2.96708 11.117 3.17862ZM9.82141 5.11699C9.60987 4.93949 9.29449 4.96708 9.11699 5.17862C8.93949 5.39016 8.96708 5.70553 9.17862 5.88303C9.39016 6.06053 9.70553 6.03294 9.88303 5.82141C10.0605 5.60987 10.0329 5.29449 9.82141 5.11699V5.11699ZM8.82141 4.11699C8.60987 3.93949 8.29449 3.96708 8.11699 4.17862C7.93949 4.39016 7.96708 4.70553 8.17862 4.88303C8.39016 5.06053 8.70553 5.03294 8.88303 4.82141C9.06054 4.60987 9.03294 4.29449 8.82141 4.11699V4.11699ZM10.8214 2.11699C10.6099 1.93949 10.2945 1.96708 10.117 2.17862C9.93949 2.39016 9.96708 2.70553 10.1786 2.88303C10.3902 3.06053 10.7055 3.03294 10.883 2.82141C11.0605 2.60987 11.0329 2.29449 10.8214 2.11699V2.11699ZM10.3214 3.61699C10.1099 3.43949 9.79449 3.46708 9.61699 3.67862C9.43949 3.89016 9.46708 4.20553 9.67862 4.38303C9.89016 4.56053 10.2055 4.53294 10.383 4.32141C10.5605 4.10987 10.5329 3.79449 10.3214 3.61699V3.61699Z" fill="white"/>
<path fill-rule="evenodd" clip-rule="evenodd" d="M13.1071 7.0879C11.916 8.27894 9.98498 8.27894 8.79395 7.0879C8.67854 6.97249 8.57431 6.85014 8.48127 6.72218C9.67386 7.58936 11.353 7.48513 12.4287 6.4095C13.5043 5.33387 13.6085 3.65469 12.7414 2.4621C12.8693 2.55514 12.9917 2.65937 13.1071 2.77477C14.2981 3.96581 14.2981 5.89686 13.1071 7.0879Z" fill="white"/>
</g>
</svg>
