<svg width="21" height="15" viewBox="0 0 21 15" fill="none" xmlns="http://www.w3.org/2000/svg">
<rect width="21" height="15" rx="2" fill="white"/>
<mask id="mask0_2314_22203" style="mask-type:alpha" maskUnits="userSpaceOnUse" x="0" y="0" width="21" height="15">
<rect width="21" height="15" rx="2" fill="white"/>
</mask>
<g mask="url(#mask0_2314_22203)">
<rect width="21" height="15" fill="#E92434"/>
<path fill-rule="evenodd" clip-rule="evenodd" d="M15 7.5C15 9.98528 12.9853 12 10.5 12C8.01472 12 6 9.98528 6 7.5C6 5.01472 8.01472 3 10.5 3C12.9853 3 15 5.01472 15 7.5ZM9 7.5C9 9.16237 10.2481 10.5332 11.8584 10.7266C11.4407 10.9027 10.9817 11 10.5 11C8.567 11 7 9.433 7 7.5C7 5.567 8.567 4 10.5 4C10.9817 4 11.4407 4.09731 11.8584 4.27336C10.2481 4.46676 9 5.83763 9 7.5ZM11.347 9.49132L12.2656 8.37758L13.6181 8.8828L12.8427 7.66498L13.7411 6.53488L12.3433 6.89596L11.5461 5.6923L11.4576 7.13329L10.0665 7.51948L11.4096 8.04897L11.347 9.49132Z" fill="white"/>
</g>
</svg>
