<svg width="21" height="15" viewBox="0 0 21 15" fill="none" xmlns="http://www.w3.org/2000/svg">
<rect x="0.25" y="0.25" width="20.5" height="14.5" rx="1.75" fill="white" stroke="#F5F5F5" stroke-width="0.5"/>
<mask id="mask0_2314_22249" style="mask-type:alpha" maskUnits="userSpaceOnUse" x="0" y="0" width="21" height="15">
<rect x="0.25" y="0.25" width="20.5" height="14.5" rx="1.75" fill="white" stroke="white" stroke-width="0.5"/>
</mask>
<g mask="url(#mask0_2314_22249)">
<path fill-rule="evenodd" clip-rule="evenodd" d="M21 0H12V8H0V15H21V0Z" fill="#E20F1B"/>
<path fill-rule="evenodd" clip-rule="evenodd" d="M5.33333 1C5.14924 1 5 1.14924 5 1.33333V3H3.33333C3.14924 3 3 3.14924 3 3.33333V4.66667C3 4.85076 3.14924 5 3.33333 5H5V6.66667C5 6.85076 5.14924 7 5.33333 7H6.66667C6.85076 7 7 6.85076 7 6.66667V5H8.66667C8.85076 5 9 4.85076 9 4.66667V3.33333C9 3.14924 8.85076 3 8.66667 3H7V1.33333C7 1.14924 6.85076 1 6.66667 1H5.33333Z" fill="url(#paint0_linear_2314_22249)"/>
</g>
<defs>
<linearGradient id="paint0_linear_2314_22249" x1="3" y1="1" x2="3" y2="7" gradientUnits="userSpaceOnUse">
<stop stop-color="#DF101B"/>
<stop offset="1" stop-color="#C00711"/>
</linearGradient>
</defs>
</svg>
