<svg width="21" height="15" viewBox="0 0 21 15" fill="none" xmlns="http://www.w3.org/2000/svg">
<rect width="21" height="15" rx="2" fill="white"/>
<mask id="mask0_2314_22214" style="mask-type:alpha" maskUnits="userSpaceOnUse" x="0" y="0" width="21" height="15">
<rect width="21" height="15" rx="2" fill="white"/>
</mask>
<g mask="url(#mask0_2314_22214)">
<rect width="21" height="15" fill="#E92434"/>
<path fill-rule="evenodd" clip-rule="evenodd" d="M14.2656 8.07627L13.347 9.19001L13.4096 7.74767L12.0665 7.21818L13.4576 6.83198L13.5461 5.391L14.3433 6.59466L15.7411 6.23357L14.8427 7.36367L15.6181 8.58149L14.2656 8.07627V8.07627V8.07627V8.07627Z" fill="white"/>
<path fill-rule="evenodd" clip-rule="evenodd" d="M13.0521 10.2631C12.2286 11.3201 10.9437 12 9.5 12C7.01472 12 5 9.98528 5 7.5C5 5.01472 7.01472 3 9.5 3C10.9437 3 12.2286 3.67987 13.0521 4.73691C12.4166 4.27508 11.6177 4 10.75 4C8.67893 4 7 5.567 7 7.5C7 9.433 8.67893 11 10.75 11C11.6177 11 12.4166 10.7249 13.0521 10.2631Z" fill="white"/>
</g>
</svg>
