<svg width="21" height="15" viewBox="0 0 21 15" fill="none" xmlns="http://www.w3.org/2000/svg">
<rect width="21" height="15" rx="2" fill="white"/>
<mask id="mask0_2314_22309" style="mask-type:alpha" maskUnits="userSpaceOnUse" x="0" y="0" width="21" height="15">
<rect width="21" height="15" rx="2" fill="white"/>
</mask>
<g mask="url(#mask0_2314_22309)">
<path fill-rule="evenodd" clip-rule="evenodd" d="M0 2H21V0H0V2Z" fill="#262626"/>
<path fill-rule="evenodd" clip-rule="evenodd" d="M0 10H21V8H0V10Z" fill="#262626"/>
<path fill-rule="evenodd" clip-rule="evenodd" d="M0 8H21V5H0V8Z" fill="#ED1623"/>
<path fill-rule="evenodd" clip-rule="evenodd" d="M0 5H21V2H0V5Z" fill="#FEE044"/>
<path fill-rule="evenodd" clip-rule="evenodd" d="M0 15H21V13H0V15Z" fill="#ED1623"/>
<path fill-rule="evenodd" clip-rule="evenodd" d="M0 13H21V10H0V13Z" fill="#FEE044"/>
<path fill-rule="evenodd" clip-rule="evenodd" d="M10.5 11C12.433 11 14 9.433 14 7.5C14 5.567 12.433 4 10.5 4C8.567 4 7 5.567 7 7.5C7 9.433 8.567 11 10.5 11Z" fill="white"/>
<path fill-rule="evenodd" clip-rule="evenodd" d="M9.7357 5.73569C9.60553 5.60552 9.60553 5.39447 9.7357 5.26429L9.98089 5.01911C9.99361 5.00638 10.0052 4.99269 10.0162 4.97842C10.0349 4.95403 10.0686 4.91179 10.1103 4.86664C10.2651 4.69916 10.8043 4.73384 10.9416 4.9159V4.9159C11.0079 5.00368 10.9701 5.05979 10.9209 5.15814L10.5352 5.92961C10.512 5.9759 10.5 6.02693 10.5 6.07868V6.29398C10.5 6.42024 10.5713 6.53566 10.6843 6.59212L11.4516 6.9758C11.4837 6.99182 11.5129 7.01291 11.5382 7.03824L12.3301 7.83011C12.4316 7.93156 12.4567 8.08655 12.3926 8.21488L12.1838 8.63245C12.0934 8.81327 11.8524 8.85237 11.7094 8.70942V8.70942C11.5938 8.59376 11.4062 8.59376 11.2906 8.70942L11.0976 8.90236C11.0351 8.96487 11 9.04966 11 9.13806V9.39644C11 9.46274 11.0263 9.52633 11.0732 9.57322V9.57322C11.2307 9.73071 11.1192 9.99999 10.8964 9.99999H10.6036C10.3808 9.99999 10.2693 9.73071 10.4268 9.57322V9.57322C10.4737 9.52633 10.5 9.46274 10.5 9.39644V9.33333C10.5 9.14923 10.3508 8.99999 10.1667 8.99999H10.1381C10.0497 8.99999 9.96488 9.03511 9.90237 9.09762L9.7357 9.26429C9.60553 9.39447 9.39447 9.39447 9.2643 9.26429L9.2357 9.2357C9.10553 9.10552 9.10553 8.89447 9.2357 8.76429L9.40237 8.59762C9.46488 8.53511 9.54967 8.49999 9.63807 8.49999H9.69526C9.99223 8.49999 10.141 8.14095 9.93096 7.93096L9.2357 7.2357C9.10553 7.10552 9.10553 6.89447 9.2357 6.76429L9.7643 6.23569C9.89447 6.10552 9.89447 5.89447 9.7643 5.76429L9.7357 5.73569Z" fill="#262626"/>
</g>
</svg>
