<svg width="21" height="15" viewBox="0 0 21 15" fill="none" xmlns="http://www.w3.org/2000/svg">
<rect x="0.25" y="0.25" width="20.5" height="14.5" rx="1.75" fill="white" stroke="#F5F5F5" stroke-width="0.5"/>
<mask id="mask0_2314_22325" style="mask-type:alpha" maskUnits="userSpaceOnUse" x="0" y="0" width="21" height="15">
<rect x="0.25" y="0.25" width="20.5" height="14.5" rx="1.75" fill="white" stroke="white" stroke-width="0.5"/>
</mask>
<g mask="url(#mask0_2314_22325)">
<path fill-rule="evenodd" clip-rule="evenodd" d="M21 2H10V4H21V2ZM10 6V8H21V6H10ZM10 10H0V12H21V10H10ZM0 15V14H21V15H0Z" fill="#0E4DC5"/>
<path fill-rule="evenodd" clip-rule="evenodd" d="M5 6.99099L4.33244 7.98748L4.16334 6.80003L3.12953 7.40819L3.4924 6.26497L2.29709 6.36434L3.12005 5.49178L2 5.06269L3.12005 4.63361L2.29709 3.76104L3.4924 3.86042L3.12953 2.7172L4.16334 3.32536L4.33244 2.13791L5 3.1344L5.66756 2.13791L5.83666 3.32536L6.87047 2.7172L6.5076 3.86042L7.70291 3.76104L6.87995 4.63361L8 5.06269L6.87995 5.49178L7.70291 6.36434L6.5076 6.26497L6.87047 7.40819L5.83666 6.80003L5.66756 7.98748L5 6.99099ZM5 6.97178C6.05436 6.97178 6.90909 6.11705 6.90909 5.06269C6.90909 4.00833 6.05436 3.1536 5 3.1536C3.94564 3.1536 3.09091 4.00833 3.09091 5.06269C3.09091 6.11705 3.94564 6.97178 5 6.97178ZM6.5 5.00001C6.5 5.82844 5.82843 6.50001 5 6.50001C4.17157 6.50001 3.5 5.82844 3.5 5.00001C3.5 4.17159 4.17157 3.50001 5 3.50001C5.82843 3.50001 6.5 4.17159 6.5 5.00001Z" fill="#FED443"/>
</g>
</svg>
