<svg width="21" height="15" viewBox="0 0 21 15" fill="none" xmlns="http://www.w3.org/2000/svg">
<rect width="21" height="15" rx="2" fill="white"/>
<mask id="mask0_2314_22402" style="mask-type:alpha" maskUnits="userSpaceOnUse" x="0" y="0" width="21" height="15">
<rect width="21" height="15" rx="2" fill="white"/>
</mask>
<g mask="url(#mask0_2314_22402)">
<rect width="21" height="15" fill="#07319C"/>
<path fill-rule="evenodd" clip-rule="evenodd" d="M13 7.5C13 6.80202 13 5.99577 13 5.33315C13 4.59677 13.597 4 14.3333 4H16.6667C17.403 4 18 4.59677 18 5.33315C18 5.99577 18 6.80202 18 7.5C18 10 15.5 11 15.5 11C15.5 11 13 10 13 7.5Z" fill="#008339"/>
<mask id="mask1_2314_22402" style="mask-type:alpha" maskUnits="userSpaceOnUse" x="13" y="4" width="5" height="7">
<path fill-rule="evenodd" clip-rule="evenodd" d="M13 7.5C13 6.80202 13 5.99577 13 5.33315C13 4.59677 13.597 4 14.3333 4H16.6667C17.403 4 18 4.59677 18 5.33315C18 5.99577 18 6.80202 18 7.5C18 10 15.5 11 15.5 11C15.5 11 13 10 13 7.5Z" fill="white"/>
</mask>
<g mask="url(#mask1_2314_22402)">
<path fill-rule="evenodd" clip-rule="evenodd" d="M14.5 6C14.7761 6 15 5.77614 15 5.5C15 5.22386 14.7761 5 14.5 5C14.2239 5 14 5.22386 14 5.5C14 5.77614 14.2239 6 14.5 6ZM14.5 7C14.7761 7 15 6.77614 15 6.5C15 6.22386 14.7761 6 14.5 6C14.2239 6 14 6.22386 14 6.5C14 6.77612 14.2238 6.99996 14.4999 7C14.2238 7.00004 14 7.22388 14 7.5C14 7.77614 14.2239 8 14.5 8C14.2239 8 14 8.22386 14 8.5C14 8.77614 14.2239 9 14.5 9C14.7761 9 15 8.77614 15 8.5C15 8.22386 14.7761 8 14.5 8C14.7761 8 15 7.77614 15 7.5C15 7.22386 14.7761 7 14.5 7ZM17 8.5C17 8.77614 16.7761 9 16.5 9C16.2239 9 16 8.77614 16 8.5C16 8.22386 16.2239 8 16.5 8C16.7761 8 17 8.22386 17 8.5ZM16.5 7C16.7761 7 17 7.22386 17 7.5C17 7.77614 16.7761 8 16.5 8C16.2239 8 16 7.77614 16 7.5C16 7.22386 16.2239 7 16.5 7ZM16.5 6C16.7761 6 17 5.77614 17 5.5C17 5.22386 16.7761 5 16.5 5C16.2239 5 16 5.22386 16 5.5C16 5.77614 16.2239 6 16.5 6ZM16.5 6C16.2239 6 16 6.22386 16 6.5C16 6.77614 16.2239 7 16.5 7C16.7761 7 17 6.77614 17 6.5C17 6.22386 16.7761 6 16.5 6Z" fill="#FFD033"/>
<path fill-rule="evenodd" clip-rule="evenodd" d="M15.5 8.5C15.7761 8.5 16 7.82843 16 7C16 6.17157 15.7761 5.5 15.5 5.5C15.2239 5.5 15 6.17157 15 7C15 7.82843 15.2239 8.5 15.5 8.5Z" fill="white"/>
</g>
<path d="M12.5 10C12.5 10.9536 13.8659 11.5 15.5 11.5C17.1341 11.5 18.5 10.9536 18.5 10C18.5 9.72386 18.2761 9.5 18 9.5C17.7239 9.5 17.5 9.72386 17.5 10C17.5 10.0096 17.3788 10.1242 17.0821 10.2429C16.6793 10.404 16.1118 10.5 15.5 10.5C14.8882 10.5 14.3207 10.404 13.9179 10.2429C13.6212 10.1242 13.5 10.0096 13.5 10C13.5 9.72386 13.2761 9.5 13 9.5C12.7239 9.5 12.5 9.72386 12.5 10V10Z" fill="#FFD033"/>
<path d="M0 -0.333333H-0.901086L-0.21693 0.253086L3.16667 3.15331V3.82846L-0.193746 6.22876L-0.333333 6.32846V6.5V7V7.60142L0.176666 7.28267L4.0956 4.83333H4.89318L8.26313 7.24044C8.34771 7.30086 8.44905 7.33333 8.55299 7.33333C9.01598 7.33333 9.22907 6.75732 8.87754 6.45601L5.83333 3.84669V3.17154L9.05416 0.87095C9.22936 0.745809 9.33333 0.543761 9.33333 0.328461V0V-0.601416L8.82333 -0.282666L4.9044 2.16667H4.10682L0.693746 -0.271244L0.606822 -0.333333H0.5H0Z" fill="#DB1E36" stroke="white" stroke-width="0.666667"/>
<path fill-rule="evenodd" clip-rule="evenodd" d="M0 2.5V4.5H3.5V6.83333C3.5 7.20152 3.79848 7.5 4.16667 7.5H4.83333C5.20152 7.5 5.5 7.20152 5.5 6.83333V4.5H8.83333C9.20152 4.5 9.5 4.20152 9.5 3.83333V3.16667C9.5 2.79848 9.20152 2.5 8.83333 2.5H5.5V0H3.5V2.5H0Z" fill="white"/>
<path fill-rule="evenodd" clip-rule="evenodd" d="M0 3H4V2.5V0H5V2.5V3H9V4H5V4.5V7H4V4.5V4H0V3Z" fill="#DB1E36"/>
</g>
</svg>
