<svg width="21" height="15" viewBox="0 0 21 15" fill="none" xmlns="http://www.w3.org/2000/svg">
<rect width="21" height="15" rx="2" fill="white"/>
<mask id="mask0_2314_22372" style="mask-type:alpha" maskUnits="userSpaceOnUse" x="0" y="0" width="21" height="15">
<rect width="21" height="15" rx="2" fill="white"/>
</mask>
<g mask="url(#mask0_2314_22372)">
<rect width="21" height="15" fill="#E31F37"/>
<path fill-rule="evenodd" clip-rule="evenodd" d="M-1 8H11V-1H-1V8Z" fill="#083B9A"/>
<path fill-rule="evenodd" clip-rule="evenodd" d="M5.00001 2.00001L4.29291 2.20712L4.50001 1.50001L4.29291 0.792908L5.00001 1.00001L5.70712 0.792908L5.50001 1.50001L5.70712 2.20712L5.00001 2.00001ZM5.00001 7.00001L4.29291 7.20712L4.50001 6.50001L4.29291 5.79291L5.00001 6.00001L5.70712 5.79291L5.50001 6.50001L5.70712 7.20712L5.00001 7.00001ZM2.29291 4.70712L3.00001 4.50001L3.70712 4.70712L3.50001 4.00001L3.70712 3.29291L3.00001 3.50001L2.29291 3.29291L2.50001 4.00001L2.29291 4.70712ZM7.50001 4.00001L6.79291 4.20712L7.00001 3.50001L6.79291 2.79291L7.50001 3.00001L8.20712 2.79291L8.00001 3.50001L8.20712 4.20712L7.50001 4.00001ZM6.50001 5.25001C6.50001 5.38809 6.38809 5.50001 6.25001 5.50001C6.11194 5.50001 6.00002 5.38809 6.00002 5.25001C6.00002 5.11194 6.11194 5.00001 6.25001 5.00001C6.38809 5.00001 6.50001 5.11194 6.50001 5.25001Z" fill="white"/>
</g>
</svg>
