<svg width="21" height="15" viewBox="0 0 21 15" fill="none" xmlns="http://www.w3.org/2000/svg">
<rect width="21" height="15" rx="2" fill="white"/>
<mask id="mask0_2314_22484" style="mask-type:alpha" maskUnits="userSpaceOnUse" x="0" y="0" width="21" height="15">
<rect width="21" height="15" rx="2" fill="white"/>
</mask>
<g mask="url(#mask0_2314_22484)">
<rect width="21" height="15" fill="#3370EB"/>
<path fill-rule="evenodd" clip-rule="evenodd" d="M10.5 13C13.5376 13 16 10.5376 16 7.5C16 4.46243 13.5376 2 10.5 2C7.46243 2 5 4.46243 5 7.5C5 10.5376 7.46243 13 10.5 13ZM14.9725 8C14.7869 9.67938 13.6771 11.0802 12.163 11.6827C12.6505 10.6897 12.9354 9.39602 12.9902 8H14.9725ZM11.9892 8C11.9162 9.68678 11.4758 11.1776 10.7891 11.9909C10.6935 11.9969 10.5971 12 10.5 12C10.4029 12 10.3065 11.9969 10.2109 11.9909C9.5242 11.1776 9.08378 9.68678 9.01077 8H11.9892ZM8.00977 8C8.06463 9.39602 8.34946 10.6897 8.83701 11.6827C7.3229 11.0802 6.21311 9.67938 6.02746 8H8.00977ZM9.01077 7H11.9892C11.9162 5.31322 11.4758 3.82243 10.7891 3.00914C10.6935 3.00308 10.5971 3 10.5 3C10.4029 3 10.3065 3.00308 10.2109 3.00914C9.5242 3.82243 9.08378 5.31322 9.01077 7ZM8.83701 3.31727C8.34945 4.31029 8.06463 5.60398 8.00977 7H6.02746C6.21311 5.32063 7.32289 3.91978 8.83701 3.31727ZM14.9725 7H12.9902C12.9354 5.60398 12.6505 4.31029 12.163 3.31727C13.6771 3.91978 14.7869 5.32062 14.9725 7Z" fill="white"/>
</g>
</svg>
