<svg width="21" height="15" viewBox="0 0 21 15" fill="none" xmlns="http://www.w3.org/2000/svg">
<rect width="21" height="15" rx="2" fill="#009F60"/>
<mask id="mask0_2314_22787" style="mask-type:alpha" maskUnits="userSpaceOnUse" x="0" y="0" width="21" height="15">
<rect width="21" height="15" rx="2" fill="white"/>
</mask>
<g mask="url(#mask0_2314_22787)">
<rect x="18" y="8" width="3" height="7" fill="#EA8B42"/>
<path fill-rule="evenodd" clip-rule="evenodd" d="M15 15H18V8H15V15Z" fill="#1A1919"/>
<path fill-rule="evenodd" clip-rule="evenodd" d="M12 15H15V8H12V15Z" fill="#DB3C36"/>
<path fill-rule="evenodd" clip-rule="evenodd" d="M15.7606 2.61306C15.6917 2.61499 15.6411 2.59112 15.6229 2.55099C15.7353 2.48506 15.8113 2.49977 15.9055 2.58377C15.9237 2.51809 15.9055 2.44493 15.8657 2.40106C15.8258 2.35719 15.7932 2.35719 15.7389 2.35344C15.6845 2.34983 15.6301 2.33525 15.5939 2.33525C15.5408 2.21822 15.4077 2.26777 15.2799 2.31577C15.0721 2.3937 14.8854 2.53525 14.8016 2.67654C14.7633 2.74119 14.7587 2.7666 14.7351 2.80325C14.7546 2.8008 14.7533 2.8008 14.7654 2.79344C14.7508 2.95435 14.7315 3.10299 14.7605 3.19809C14.7243 3.33706 14.7533 3.4248 14.7967 3.46867C14.8403 3.51254 14.8583 3.53086 14.8656 3.58209C14.8728 3.63319 14.8946 3.68067 14.9308 3.70996C14.9671 3.73925 14.9888 3.78312 14.9924 3.8088C14.996 3.83435 15.1081 3.94454 15.1554 3.97331C15.1736 3.98415 15.1772 4.00622 15.199 4.03538C15.1518 4.31331 15.3403 4.59125 15.2967 4.86544C15.3294 4.86906 15.3729 4.86544 15.4164 4.85448C15.4526 5.08841 15.4743 5.20183 15.2714 5.27125C15.0685 5.3408 14.9576 5.40919 15.0141 5.48699C15.054 5.54183 15.1365 5.49409 15.1881 5.44673C15.228 5.41022 15.275 5.37731 15.3113 5.36635C15.3475 5.35538 15.3549 5.36635 15.3366 5.41383C15.3185 5.46144 15.2208 5.56377 15.217 5.61499C15.2134 5.66622 15.2569 5.70273 15.3258 5.66248C15.3946 5.62222 15.4551 5.51693 15.4707 5.45409C15.4815 5.41022 15.4998 5.38093 15.496 5.45409C15.4924 5.52725 15.449 5.65886 15.5468 5.6808C15.6447 5.70273 15.6737 5.5857 15.6411 5.47964C15.6084 5.3737 15.5976 5.31512 15.612 5.2786C15.6265 5.24196 15.6411 5.22015 15.6772 5.23099C15.7134 5.24196 15.786 5.22738 15.7824 5.16893C15.7786 5.11048 15.728 5.06286 15.67 5.09577C15.612 5.12867 15.5685 5.12377 15.5939 5.0519C15.612 5.00067 15.6447 4.93848 15.6483 4.89835C15.6881 4.9568 15.9127 4.96415 16.0034 4.90931C16.0251 5.01899 16.0831 5.1177 15.9563 5.22015C15.8294 5.32248 15.728 5.42119 15.7316 5.49435C15.7353 5.56751 15.7642 5.61125 15.8294 5.57473C15.8946 5.53822 15.9345 5.48699 15.949 5.43951C15.9635 5.3919 15.9926 5.3919 15.978 5.45048C15.9635 5.50893 15.9382 5.59306 15.949 5.64428C15.9599 5.69538 16.0396 5.69912 16.0722 5.65151C16.1048 5.60402 16.0975 5.54183 16.0903 5.47964C16.0831 5.41744 16.094 5.35177 16.1084 5.32609C16.1229 5.30054 16.1519 5.2639 16.1809 5.33344C16.21 5.40286 16.2244 5.4577 16.2824 5.47602C16.3404 5.49435 16.3838 5.46867 16.373 5.39925C16.3621 5.32983 16.286 5.25293 16.21 5.19448C16.1339 5.13602 16.1592 5.10673 16.1628 5.0519C16.1664 4.99706 16.1556 4.89835 16.1519 4.85448C16.2208 4.9057 16.2969 4.89835 16.333 4.89835C16.3693 4.89835 16.4288 4.88712 16.3693 4.83254C16.2497 4.72286 16.2896 4.65693 16.2063 4.57654C16.1229 4.49615 16.0468 4.37177 16.0215 4.26583C15.996 4.15977 15.9402 3.96596 15.8294 3.86725C15.7678 3.81241 15.7497 3.66248 15.7642 3.4906C15.7786 3.31873 15.7824 3.12867 15.6265 3.04093C15.4707 2.95319 15.4743 2.88002 15.5251 2.80325C15.5757 2.72648 15.6409 2.65138 15.7244 2.64596C15.7431 2.6448 15.7865 2.64119 15.8041 2.62828C15.7962 2.62222 15.7835 2.61254 15.7606 2.61306" fill="#EA8B42"/>
<path fill-rule="evenodd" clip-rule="evenodd" d="M14.7472 3.008C14.7434 3.08232 14.7452 3.14774 14.7605 3.19806C14.7243 3.33703 14.7533 3.42477 14.7967 3.46864C14.8403 3.51251 14.8583 3.53084 14.8656 3.58206C14.8728 3.63316 14.8946 3.68064 14.9308 3.70993C14.9671 3.73922 14.9888 3.78309 14.9924 3.80877C14.996 3.83432 15.1081 3.94451 15.1554 3.97329C15.1736 3.98413 15.1772 4.00619 15.199 4.03535C15.1793 4.15083 15.2 4.26632 15.2283 4.38154C14.9722 4.596 14.7194 4.49483 14.8258 4.27548C14.6131 4.44606 14.246 4.44129 14.3282 4.27548C13.9948 4.39251 13.8934 4.29496 13.9368 4.18774C13.6567 4.29987 13.5116 4.19264 13.5503 4.11458C13.3184 4.17793 13.1686 4.13896 13.1444 4.1C13.1204 4.06103 13.1783 3.97329 13.2315 3.92942C13.1252 3.96838 13.0237 3.96838 12.927 3.9538C12.8305 3.93909 12.8546 3.9098 12.8739 3.86593C12.8933 3.82206 12.9187 3.75264 12.9959 3.68438C12.8112 3.7209 12.5792 3.74658 12.4162 3.69161C12.3855 3.68129 12.3329 3.66967 12.3654 3.6369C12.3981 3.604 12.4959 3.52348 12.6155 3.47225C12.3437 3.51251 11.8292 3.5418 11.6843 3.37729C11.8256 3.40645 12.0067 3.348 12.1227 3.30051C11.6661 3.24929 11.0429 2.93484 11.0356 2.62774C11.1661 2.83974 11.3909 2.9129 11.6155 2.97871C11.311 2.79948 11.1842 2.58374 11.1734 2.44116C11.3473 2.60942 11.6117 2.79948 11.8727 2.84348C11.6879 2.74477 11.4487 2.45587 11.3835 2.25471C11.5176 2.37535 11.8618 2.56916 12.0974 2.63135C11.9343 2.50335 11.6699 2.19987 11.6843 2.03174C11.7458 2.09393 11.8981 2.21084 12.2096 2.39367C12.5213 2.57651 12.6903 2.56309 12.9476 2.61793C12.9005 2.55458 12.8582 2.47045 12.8546 2.44851C12.9308 2.45948 13.0031 2.48877 13.2206 2.624C13.438 2.75935 13.913 2.80077 14.1845 2.92025C14.3836 3.008 14.6675 2.95316 14.7472 3.008" fill="#EA8B42"/>
<path fill-rule="evenodd" clip-rule="evenodd" d="M16.3871 4.88577C16.3991 4.87623 16.3991 4.85971 16.3693 4.83248C16.2497 4.72281 16.2895 4.65687 16.2062 4.57648C16.1229 4.4961 16.0468 4.37171 16.0215 4.26577C15.996 4.15971 15.9402 3.9659 15.8294 3.86719C15.7678 3.81235 15.7497 3.66242 15.7642 3.49055C15.7765 3.34345 15.781 3.18306 15.6844 3.08487C15.8655 3.03364 16.0324 3.02255 16.0903 3.081C16.391 3.00422 16.652 2.981 16.908 2.9641C17.2027 2.94448 17.7582 2.81777 18.1545 2.54964C18.1303 2.64719 17.995 2.79339 17.8742 2.86655C18.2752 2.769 18.7584 2.58861 19.169 2.28152C19.1641 2.4961 18.9903 2.65687 18.8887 2.74474C19.169 2.58861 19.5796 2.39364 19.7197 2.1499C19.7813 2.39971 19.3623 2.72642 19.1351 2.90681C19.367 2.79468 19.6666 2.69106 19.7826 2.52526C19.7801 2.72758 19.5168 2.97868 19.2656 3.12487C19.5217 3.02745 19.8067 2.925 19.9709 2.7739C19.9902 2.97752 19.2052 3.44552 18.8162 3.57339C19.1545 3.49055 19.5941 3.37842 19.7873 3.26139C19.7777 3.30281 19.6989 3.36087 19.6415 3.40319C19.4052 3.5779 19.0428 3.67171 18.8211 3.71481C18.8502 3.83674 18.8115 3.905 18.6762 3.91468C18.541 3.92448 18.2136 3.8721 18.0494 3.78913C18.0253 3.80371 17.9962 3.80874 17.9635 3.81235C18.123 3.933 18.1774 4.02074 18.1447 4.07197C18.1122 4.12319 17.998 4.1139 17.9111 4.09571C17.9799 4.28952 17.7497 4.27674 17.5578 4.16693C17.6339 4.26577 17.6448 4.34977 17.5396 4.37171C17.4346 4.39364 17.3512 4.38642 17.2497 4.32048C17.2425 4.39364 17.1724 4.44242 17.0795 4.41803C17.3983 4.61184 17.3802 4.68255 17.3258 4.75558C17.2716 4.82874 17.0813 4.81416 16.9798 4.74835C16.9364 4.89829 16.7631 4.89881 16.6337 4.77945C16.6326 4.83919 16.5091 4.95777 16.3871 4.88577" fill="#EA8B42"/>
<path fill-rule="evenodd" clip-rule="evenodd" d="M14.9079 5.62105C14.9132 5.57485 14.9176 5.52118 14.9561 5.48698C14.9948 5.45279 15.019 5.42363 15.0528 5.45769C15.0867 5.49189 15.0649 5.52363 15.019 5.53821C14.9731 5.55279 14.9417 5.59421 14.9344 5.62105C14.9272 5.64789 14.903 5.66247 14.9079 5.62105" fill="black"/>
<path fill-rule="evenodd" clip-rule="evenodd" d="M15.1711 5.84527C15.1472 5.76862 15.1591 5.66978 15.1856 5.64049C15.2122 5.6112 15.2461 5.59172 15.2774 5.62101C15.3088 5.6503 15.3209 5.69172 15.2629 5.7161C15.2116 5.73765 15.2074 5.79159 15.205 5.83068C15.2026 5.86965 15.1856 5.89159 15.1711 5.84527" fill="black"/>
<path fill-rule="evenodd" clip-rule="evenodd" d="M15.5094 5.64786C15.4907 5.67921 15.5141 5.80631 15.577 5.83792C15.6215 5.86037 15.6422 5.85508 15.6156 5.81353C15.5891 5.77211 15.5987 5.73315 15.6133 5.71121C15.6277 5.68928 15.6253 5.65031 15.5938 5.63082C15.5625 5.61121 15.5238 5.62347 15.5094 5.64786" fill="black"/>
<path fill-rule="evenodd" clip-rule="evenodd" d="M15.7823 5.53329C15.7425 5.5031 15.7051 5.53936 15.6905 5.56491C15.6615 5.61613 15.6833 5.68929 15.7292 5.73071C15.7751 5.77213 15.7678 5.71613 15.7533 5.69174C15.7389 5.66736 15.7364 5.61858 15.7678 5.61368C15.7992 5.60891 15.821 5.56245 15.7823 5.53329" fill="black"/>
<path fill-rule="evenodd" clip-rule="evenodd" d="M16.0094 5.61615C15.9706 5.60467 15.9321 5.64544 15.9369 5.69422C15.9405 5.7306 15.9442 5.77706 15.9804 5.80144C16.0047 5.8177 16.0215 5.82828 16.0094 5.78441C15.9973 5.74054 16.0167 5.70389 16.0383 5.69177C16.0601 5.67964 16.0504 5.62841 16.0094 5.61615" fill="black"/>
<path fill-rule="evenodd" clip-rule="evenodd" d="M16.3307 5.40893C16.3025 5.4288 16.3041 5.47486 16.3307 5.4919C16.3572 5.50893 16.3959 5.53332 16.3887 5.57473C16.3814 5.61615 16.4031 5.63086 16.4225 5.58454C16.4418 5.53822 16.4442 5.46996 16.4225 5.43822C16.4006 5.40648 16.3547 5.3919 16.3307 5.40893" fill="black"/>
<path fill-rule="evenodd" clip-rule="evenodd" d="M15.6303 2.54763C15.6471 2.58483 15.6952 2.6068 15.7604 2.60497L15.7605 2.60497C15.7812 2.6045 15.7937 2.61005 15.8088 2.63477C15.7929 2.64644 15.7629 2.65163 15.7249 2.65398C15.6557 2.65848 15.5952 2.71163 15.5318 2.80768C15.4747 2.89396 15.4947 2.95742 15.6305 3.03387C15.7654 3.10984 15.7931 3.24218 15.7722 3.49126C15.7569 3.67224 15.779 3.81153 15.8348 3.86119C15.927 3.94339 15.9865 4.08542 16.0293 4.26392C16.0538 4.36617 16.1278 4.48958 16.2118 4.5707C16.2316 4.58976 16.2457 4.60898 16.257 4.63092C16.2635 4.64353 16.2682 4.65492 16.2759 4.67536C16.3024 4.74591 16.3203 4.77667 16.3747 4.82656C16.4049 4.85421 16.4107 4.8772 16.3921 4.89218C16.3798 4.90205 16.3577 4.90638 16.333 4.90638L16.3197 4.90656C16.2612 4.90764 16.2235 4.90284 16.1802 4.88126C16.1738 4.87808 16.1675 4.87457 16.1614 4.87073L16.1651 4.91141C16.1667 4.92952 16.168 4.94559 16.169 4.96088C16.1715 4.99925 16.1723 5.02988 16.1708 5.0524C16.1703 5.06093 16.1693 5.06835 16.1675 5.08005C16.1641 5.10167 16.1635 5.10759 16.1641 5.11699C16.1657 5.14005 16.1793 5.16074 16.2149 5.18805C16.308 5.25968 16.3708 5.3337 16.381 5.39798C16.3922 5.47021 16.3469 5.50483 16.28 5.48369C16.239 5.47075 16.2179 5.44394 16.1936 5.38582L16.1735 5.33653C16.1617 5.30819 16.1509 5.29909 16.1415 5.30183C16.1333 5.30418 16.1242 5.31454 16.1154 5.33002C16.1005 5.35661 16.0918 5.42252 16.0983 5.47868L16.0983 5.47928C16.1093 5.57427 16.1074 5.61438 16.0788 5.65604C16.0424 5.70924 15.9536 5.70444 15.9411 5.64592C15.9354 5.61882 15.9386 5.583 15.9488 5.53548C15.9516 5.5224 15.9549 5.50884 15.9591 5.49218L15.9703 5.4485C15.9758 5.42596 15.9743 5.41333 15.9729 5.41307C15.9707 5.41264 15.9624 5.42324 15.9567 5.44185C15.9404 5.495 15.8965 5.54638 15.8333 5.58175C15.7667 5.61906 15.728 5.5811 15.7236 5.49472C15.7202 5.42589 15.7964 5.33871 15.9513 5.21384C15.9813 5.18955 16.0016 5.16487 16.0136 5.13902C16.0353 5.09222 16.0321 5.05629 16.0082 4.96448C16.0033 4.94559 16.0003 4.93327 15.9977 4.92164C15.9062 4.96853 15.7146 4.96451 15.6537 4.91562C15.6496 4.93487 15.6406 4.95836 15.6226 5.00133L15.6226 5.00155C15.6113 5.02853 15.6064 5.04057 15.6015 5.05456C15.5907 5.08511 15.593 5.10123 15.6037 5.10562C15.6154 5.11038 15.6382 5.10449 15.666 5.08872C15.7259 5.05474 15.786 5.09923 15.7904 5.1684C15.7939 5.22566 15.7271 5.25448 15.6749 5.23869C15.6478 5.23056 15.6354 5.24131 15.6195 5.28154C15.6067 5.31401 15.6149 5.36732 15.6487 5.47723C15.6865 5.5999 15.6436 5.71072 15.5451 5.68864C15.4848 5.67513 15.469 5.62732 15.4774 5.54368C15.4785 5.53333 15.4797 5.52342 15.4818 5.50796C15.4864 5.47415 15.4874 5.46645 15.488 5.45365C15.4886 5.44187 15.4886 5.43258 15.4882 5.42587C15.4851 5.43308 15.4815 5.44392 15.4785 5.45601C15.4599 5.53113 15.3939 5.63195 15.3298 5.66942C15.2611 5.70959 15.2045 5.67838 15.209 5.61438C15.2107 5.59084 15.2275 5.56081 15.2621 5.51223L15.2717 5.49887C15.3155 5.43827 15.3228 5.42759 15.3291 5.4109C15.345 5.36946 15.3427 5.36524 15.3136 5.37404C15.2809 5.38393 15.2357 5.41399 15.1935 5.45266C15.1219 5.51843 15.046 5.54448 15.0077 5.49172C14.9773 5.44996 14.9898 5.40876 15.0406 5.3696C15.0852 5.33515 15.1605 5.30074 15.2688 5.26359C15.4405 5.20483 15.4537 5.1483 15.4184 4.86227C15.3748 4.87325 15.3302 4.87723 15.2888 4.86415C15.3066 4.7523 15.2927 4.66241 15.2396 4.45701C15.1853 4.2469 15.171 4.15225 15.1926 4.0402C15.187 4.03268 15.1822 4.0253 15.1773 4.01675L15.1669 3.99803C15.1615 3.98877 15.1572 3.98371 15.1513 3.98018C15.0998 3.94887 14.9884 3.83762 14.9845 3.80989C14.9805 3.78191 14.9568 3.74127 14.9258 3.71621C14.8893 3.68674 14.8655 3.63873 14.8577 3.58321C14.8515 3.53986 14.8423 3.52593 14.791 3.47433C14.7374 3.42021 14.7197 3.32288 14.7528 3.20042C14.7305 3.12699 14.7325 3.05628 14.7534 2.83568L14.756 2.80766C14.7536 2.80849 14.7511 2.80909 14.7477 2.80965L14.7362 2.81122L14.7284 2.79885C14.7332 2.7914 14.7374 2.78412 14.7415 2.77615L14.7483 2.76241C14.7488 2.7613 14.7616 2.73391 14.7662 2.72463C14.7745 2.70786 14.7835 2.69126 14.7947 2.67239C14.8798 2.5289 15.0684 2.38646 15.2771 2.30819C15.4748 2.23391 15.5543 2.22857 15.5939 2.32716C15.6113 2.32716 15.6202 2.32838 15.6716 2.33676C15.701 2.34155 15.7198 2.34407 15.7395 2.34537L15.7519 2.34621C15.7982 2.34933 15.8176 2.35348 15.8411 2.36885C15.8514 2.3756 15.8614 2.38436 15.8716 2.39559C15.9144 2.44268 15.9317 2.51911 15.9133 2.58589L15.9002 2.58977C15.8054 2.50529 15.733 2.4957 15.6303 2.54763ZM15.7992 2.63464C15.7865 2.62487 15.7772 2.62072 15.7608 2.62109L15.7609 2.62109C15.6898 2.62309 15.6355 2.59831 15.6189 2.544C15.7273 2.48038 15.8056 2.4881 15.9008 2.56894C15.8999 2.57319 15.8989 2.57741 15.8978 2.58159L15.9109 2.57771C15.9075 2.5747 15.9041 2.57177 15.9008 2.56894C15.9125 2.51061 15.8961 2.44648 15.8597 2.40646C15.8504 2.39619 15.8414 2.38833 15.8323 2.38236C15.8118 2.36894 15.7945 2.36525 15.7508 2.3623L15.7384 2.36146C15.7181 2.36012 15.6989 2.35755 15.669 2.35268C15.6597 2.35116 15.6518 2.34988 15.645 2.34878C15.6151 2.34393 15.6057 2.34241 15.5866 2.33856C15.5451 2.24721 15.4722 2.25211 15.2827 2.32329C15.0772 2.40037 14.8916 2.54059 14.8085 2.68064C14.7975 2.69915 14.7888 2.7154 14.7806 2.7318C14.7761 2.74094 14.7633 2.76829 14.7628 2.76936M14.7511 2.79228C14.7514 2.79217 14.7517 2.79205 14.752 2.79192C14.7536 2.79117 14.7551 2.7903 14.7612 2.78652L14.7734 2.79414L14.7694 2.8372C14.7488 3.05503 14.7467 3.12526 14.7683 3.2001C14.7366 3.32184 14.7532 3.4133 14.8024 3.46295C14.8559 3.5168 14.8668 3.53326 14.8736 3.58093C14.8809 3.63268 14.9028 3.67697 14.9359 3.70365C14.97 3.73123 14.9959 3.77552 15.0004 3.80764C15.0034 3.82899 15.112 3.93744 15.1596 3.96636C15.1682 3.97151 15.1741 3.97847 15.1808 3.98987L15.1913 4.00872C15.1925 4.01083 15.1937 4.01286 15.1949 4.01495C15.1983 4.02078 15.202 4.02703 15.207 4.03671C15.1874 4.15193 15.2014 4.24506 15.2551 4.45296C15.3088 4.66054 15.3229 4.75187 15.2976 4.8574C15.3274 4.86069 15.3659 4.85772 15.4123 4.85414C15.4163 4.85384 15.4203 4.85352 15.4244 4.85321C15.4707 5.15278 15.4558 5.21666 15.274 5.27885C15.1672 5.31547 15.0933 5.34928 15.0504 5.38239C15.0059 5.41675 14.9962 5.44855 15.0206 5.48221C15.0507 5.52358 15.1174 5.50069 15.1827 5.44075C15.2265 5.40059 15.2735 5.36932 15.309 5.3586C15.3534 5.34515 15.3642 5.36445 15.3441 5.41668C15.337 5.43541 15.3301 5.44559 15.2847 5.50834L15.2752 5.5216C15.2426 5.56745 15.2265 5.59623 15.225 5.61553C15.2215 5.66607 15.2637 5.68938 15.3218 5.65548C15.3817 5.62041 15.4453 5.5233 15.4629 5.45213C15.469 5.42738 15.4766 5.40865 15.4843 5.40347C15.4938 5.39711 15.5008 5.40417 15.503 5.41546C15.5046 5.42348 15.505 5.43637 15.5041 5.45446C15.5034 5.46792 15.5024 5.47574 15.4978 5.51014C15.4957 5.52543 15.4945 5.53518 15.4934 5.54531C15.4857 5.62177 15.4989 5.66177 15.5486 5.6729C15.6308 5.69133 15.6681 5.59488 15.6334 5.48199C15.5984 5.36836 15.5898 5.31288 15.6045 5.2756C15.6232 5.22857 15.6422 5.21204 15.6795 5.22324C15.7226 5.23626 15.777 5.21277 15.7743 5.16941C15.7706 5.11108 15.7223 5.0753 15.6739 5.10276C15.6422 5.12076 15.6152 5.12771 15.5977 5.12056C15.5766 5.11197 15.573 5.0868 15.5863 5.04917C15.5914 5.03478 15.5963 5.02257 15.6077 4.9953L15.6078 4.99509C15.6304 4.94111 15.6384 4.91869 15.6403 4.8976L15.6549 4.89376C15.692 4.94819 15.912 4.95514 15.9992 4.90238L16.0113 4.90771C16.0142 4.92272 16.0174 4.93596 16.0238 4.96041C16.0486 5.05583 16.052 5.09439 16.0281 5.14583C16.015 5.17404 15.9932 5.20063 15.9614 5.22641C15.8112 5.3475 15.7366 5.43277 15.7396 5.49391C15.7435 5.57009 15.7718 5.59777 15.8255 5.56766C15.8852 5.53424 15.9263 5.48611 15.9413 5.43712C15.9492 5.41133 15.9623 5.39465 15.9759 5.39722C15.991 5.40006 15.9935 5.42139 15.9858 5.4524L15.9747 5.49616C15.9705 5.51264 15.9673 5.52602 15.9645 5.53888C15.9548 5.58433 15.9517 5.61831 15.9568 5.64256C15.9661 5.68569 16.0365 5.68949 16.0655 5.6469C16.0911 5.6097 16.0929 5.57212 16.0824 5.48114L16.0823 5.48054C16.0754 5.42127 16.0846 5.35205 16.1014 5.32206C16.1123 5.30305 16.1235 5.29023 16.137 5.28633C16.1564 5.28071 16.1737 5.29535 16.1883 5.33029L16.2084 5.37959C16.2311 5.43373 16.2495 5.45715 16.2848 5.4683C16.3408 5.486 16.3744 5.46034 16.3651 5.40048C16.3558 5.34156 16.2952 5.27012 16.2051 5.20085C16.1662 5.17097 16.15 5.1464 16.1481 5.11811C16.1473 5.10701 16.148 5.10052 16.1516 5.07755C16.1534 5.06629 16.1543 5.05927 16.1548 5.05134C16.1562 5.0297 16.1555 4.99967 16.1529 4.96196C16.1519 4.94679 16.1507 4.93082 16.1491 4.91282L16.1439 4.85513L16.1567 4.84797C16.1665 4.85526 16.1767 4.86152 16.1873 4.86682C16.2277 4.88695 16.2633 4.89147 16.3194 4.89044L16.333 4.89025C16.3542 4.89025 16.3735 4.8865 16.3821 4.87959C16.3909 4.87251 16.3878 4.86038 16.3639 4.83847C16.3073 4.78656 16.2882 4.75376 16.2609 4.68105C16.2534 4.66116 16.2489 4.65024 16.2427 4.63832C16.2322 4.61793 16.2192 4.60014 16.2007 4.58233C16.1145 4.49915 16.0389 4.37305 16.0137 4.26769C15.9716 4.09228 15.9131 3.95256 15.8241 3.87325C15.7632 3.81904 15.7405 3.6757 15.7562 3.4899C15.7766 3.24677 15.75 3.11965 15.6226 3.04793C15.4791 2.96712 15.4559 2.89331 15.5184 2.79877C15.5843 2.69886 15.6481 2.6428 15.7239 2.63788C15.7348 2.63721 15.7451 2.63625 15.7545 2.63538C15.7748 2.6335 15.7908 2.63201 15.7992 2.63464M14.7511 2.79228C14.7496 2.79285 14.7479 2.79327 14.7451 2.79373L14.7341 2.79522L14.7419 2.80759C14.7452 2.80249 14.7482 2.79747 14.7511 2.79228Z" fill="black"/>
<path fill-rule="evenodd" clip-rule="evenodd" d="M14.5515 2.96988C14.6754 2.97426 14.7204 2.97981 14.7518 3.00135L14.7552 3.00842C14.751 3.09115 14.7545 3.15068 14.7682 3.20011C14.7366 3.32184 14.7532 3.4133 14.8024 3.46296C14.8559 3.51681 14.8668 3.53326 14.8736 3.58094C14.8809 3.63269 14.9028 3.67698 14.9359 3.70366C14.97 3.73124 14.9959 3.77553 15.0004 3.80765C15.0034 3.829 15.112 3.93745 15.1595 3.96637C15.1682 3.97151 15.1741 3.97848 15.1808 3.98987L15.1913 4.00873C15.1925 4.01084 15.1937 4.01287 15.1949 4.01495C15.1983 4.02078 15.202 4.02703 15.2069 4.03672C15.19 4.13617 15.2008 4.23553 15.2335 4.38775C15.1123 4.48925 14.9813 4.52816 14.8887 4.49889C14.8048 4.47236 14.7718 4.39559 14.8067 4.29995C14.708 4.36964 14.5769 4.41031 14.4664 4.4097C14.3526 4.40907 14.2883 4.36356 14.3138 4.28895C14.0388 4.3813 13.8858 4.32899 13.9235 4.20156C13.6958 4.28646 13.5072 4.22756 13.537 4.12645C13.3416 4.17659 13.1715 4.15889 13.1376 4.10425C13.1165 4.07004 13.1493 4.00093 13.1992 3.94855C13.1128 3.97391 13.0248 3.97671 12.9258 3.96178C12.8792 3.95468 12.8561 3.94373 12.8499 3.92505C12.8452 3.91081 12.8467 3.90649 12.8644 3.86764L12.8666 3.86267C12.8665 3.8628 12.8782 3.83589 12.8822 3.82709C12.8892 3.81169 12.8961 3.798 12.9039 3.78437C12.9217 3.7533 12.9431 3.72469 12.9702 3.69756C12.7441 3.73986 12.5513 3.74567 12.4137 3.69927L12.393 3.69262C12.3738 3.68624 12.362 3.68067 12.3545 3.67281C12.3432 3.66099 12.3449 3.64619 12.3597 3.63122C12.4037 3.58692 12.4814 3.53 12.5641 3.4876C12.1718 3.53931 11.7964 3.51675 11.6782 3.38264L11.6859 3.3694C11.796 3.39211 11.9375 3.36399 12.0905 3.30469C11.5896 3.2378 11.0344 2.91158 11.0276 2.62794L11.0425 2.62351C11.1441 2.78857 11.2797 2.86712 11.559 2.95334C11.3172 2.79693 11.1776 2.60262 11.1654 2.44178L11.179 2.43536C11.3766 2.62658 11.6119 2.77588 11.828 2.82625C11.649 2.70983 11.4372 2.44627 11.3759 2.25721L11.3889 2.24871C11.5254 2.37153 11.8421 2.54502 12.0617 2.61273C11.8618 2.44483 11.6641 2.17354 11.6763 2.03106L11.69 2.02606C11.7663 2.10318 11.9416 2.22705 12.2137 2.38672C12.3822 2.48562 12.5107 2.53102 12.6799 2.56228C12.7038 2.5667 12.7269 2.57065 12.7634 2.57662C12.8533 2.59135 12.8865 2.59702 12.929 2.6058C12.8896 2.54878 12.8507 2.47432 12.8467 2.44983L12.8558 2.44054C12.9403 2.45272 13.0211 2.49047 13.2248 2.61715C13.3229 2.67825 13.4429 2.71415 13.734 2.78188L13.7474 2.78501C13.9824 2.83968 14.0868 2.86846 14.1877 2.91288C14.2403 2.93607 14.3018 2.95057 14.3752 2.95902C14.4248 2.96474 14.4607 2.96668 14.5515 2.96988ZM14.739 3.01225C14.739 3.0107 14.7391 3.00915 14.7392 3.00759L14.7427 3.01466C14.7415 3.01383 14.7402 3.01303 14.739 3.01225ZM11.7081 3.38952C11.8251 3.40534 11.9704 3.37158 12.1257 3.30799L12.1236 3.29251C11.6412 3.23839 11.0943 2.93132 11.0469 2.66001C11.1565 2.82115 11.3073 2.89682 11.6132 2.98646L11.6195 2.97176C11.3614 2.81977 11.2077 2.6245 11.1839 2.46231C11.3945 2.66173 11.6451 2.8133 11.8714 2.85144L11.8765 2.83637C11.7025 2.74347 11.4779 2.47828 11.4013 2.28063C11.5588 2.41075 11.8845 2.58348 12.0953 2.63916L12.1023 2.62501C11.9049 2.46999 11.6976 2.19806 11.6919 2.05043C11.7753 2.12922 11.947 2.24892 12.2056 2.40064C12.3758 2.50053 12.506 2.54656 12.6769 2.57814C12.701 2.58259 12.7243 2.58655 12.7608 2.59254C12.8641 2.60946 12.8922 2.61438 12.9459 2.62583L12.954 2.61312C12.9173 2.5637 12.8775 2.49145 12.8658 2.45847C12.9435 2.4722 13.0245 2.51157 13.2163 2.63086C13.3166 2.69329 13.4372 2.72939 13.7304 2.79759L13.7438 2.80072C13.9777 2.85515 14.0816 2.88378 14.1812 2.92765C14.2355 2.95157 14.2985 2.96643 14.3733 2.97505C14.4235 2.98083 14.4597 2.98278 14.5509 2.986C14.6653 2.99004 14.7111 2.99524 14.739 3.01225C14.735 3.09429 14.7387 3.15405 14.7528 3.20042C14.7197 3.32289 14.7374 3.42022 14.791 3.47434C14.8423 3.52594 14.8515 3.53987 14.8577 3.58322C14.8655 3.63874 14.8893 3.68675 14.9258 3.71622C14.9568 3.74128 14.9805 3.78192 14.9844 3.8099C14.9884 3.83763 15.0998 3.94888 15.1513 3.98019C15.1572 3.98372 15.1615 3.98877 15.1669 3.99804L15.1773 4.01675C15.1822 4.02531 15.187 4.03269 15.1926 4.04021C15.1737 4.13613 15.1847 4.23741 15.2205 4.38348C15.1058 4.47363 14.9803 4.51093 14.8936 4.48351C14.8116 4.45758 14.7845 4.37908 14.833 4.27902L14.8208 4.26919C14.7231 4.34757 14.5827 4.39421 14.4665 4.39357C14.3541 4.39295 14.3004 4.34966 14.3354 4.27908L14.3256 4.26788C14.0383 4.36873 13.8941 4.31454 13.9443 4.19079L13.9339 4.18026C13.6983 4.27454 13.5115 4.21113 13.5575 4.11818L13.5482 4.1068C13.3526 4.16025 13.181 4.14372 13.1513 4.09574C13.1325 4.06527 13.1782 3.98381 13.2366 3.93566L13.2287 3.92185C13.1337 3.95666 13.0381 3.96241 12.9282 3.94584C12.8872 3.93958 12.8688 3.93085 12.8652 3.91996C12.8624 3.91177 12.864 3.90724 12.879 3.87435L12.8813 3.8692C12.9223 3.77655 12.9375 3.74997 12.9916 3.69919L13.0013 3.69045L12.9944 3.67648C12.7591 3.72298 12.5586 3.73111 12.4188 3.68397L12.3981 3.6773C12.3814 3.67175 12.3712 3.66695 12.3661 3.66164C12.3614 3.65675 12.362 3.65183 12.3711 3.6426C12.4222 3.59116 12.521 3.52151 12.6187 3.47968L12.6143 3.46428C12.2279 3.52152 11.8448 3.50752 11.7081 3.38952ZM11.7081 3.38952C11.7016 3.3839 11.6957 3.37805 11.6903 3.37195L11.6826 3.38519C11.691 3.38691 11.6995 3.38835 11.7081 3.38952ZM12.8658 2.45847C12.8641 2.45391 12.8631 2.4501 12.8626 2.44721L12.8535 2.4565C12.8576 2.45709 12.8617 2.45775 12.8658 2.45847ZM11.6919 2.05043C11.6917 2.04421 11.6918 2.0382 11.6923 2.03244L11.6786 2.03743C11.6827 2.04163 11.6872 2.04597 11.6919 2.05043ZM11.4013 2.28063C11.3976 2.27099 11.3942 2.26151 11.3912 2.25222L11.3782 2.26072C11.3854 2.26723 11.3931 2.27387 11.4013 2.28063ZM11.1839 2.46231C11.1828 2.45499 11.182 2.44773 11.1815 2.44055L11.1679 2.44697C11.1732 2.45211 11.1785 2.45723 11.1839 2.46231ZM11.0469 2.66001C11.045 2.64913 11.0439 2.6383 11.0437 2.62755L11.0288 2.63199C11.0347 2.64161 11.0407 2.65095 11.0469 2.66001Z" fill="black"/>
<path fill-rule="evenodd" clip-rule="evenodd" d="M16.3831 4.89279L16.3821 4.87953C16.3909 4.87252 16.3878 4.86035 16.3639 4.8385C16.3073 4.78659 16.2882 4.75379 16.2609 4.68108C16.2534 4.6612 16.2489 4.65027 16.2427 4.63836C16.2322 4.61796 16.2191 4.60018 16.2007 4.58236C16.1145 4.49918 16.0389 4.37309 16.0137 4.26772C15.9716 4.09231 15.9131 3.95259 15.8241 3.87329C15.7632 3.81907 15.7405 3.67573 15.7562 3.48993C15.7581 3.46709 15.7596 3.44538 15.7607 3.42471L15.7659 3.42749L15.7658 3.4281L15.7667 3.42792L15.7764 3.43292C15.7753 3.45155 15.7739 3.47099 15.7722 3.49129C15.7569 3.67228 15.779 3.81156 15.8347 3.86122C15.927 3.94342 15.9865 4.08545 16.0293 4.26395C16.0538 4.3662 16.1278 4.48962 16.2118 4.57073C16.2316 4.5898 16.2457 4.60901 16.257 4.63095C16.2635 4.64357 16.2682 4.65495 16.2759 4.67539C16.3024 4.74594 16.3203 4.7767 16.3747 4.82658C16.3996 4.84929 16.408 4.86896 16.3997 4.88352C16.3969 4.88209 16.394 4.88054 16.3912 4.87888L16.3922 4.89215C16.3954 4.88952 16.398 4.88664 16.3997 4.88352C16.4972 4.93228 16.6243 4.85296 16.6257 4.77936L16.6392 4.77358C16.7698 4.89409 16.9321 4.88421 16.9721 4.74616L16.9842 4.74164C17.0882 4.80908 17.2707 4.8165 17.3194 4.75082C17.3865 4.66072 17.347 4.59014 17.0753 4.42499L17.0815 4.41029C17.1664 4.43256 17.2347 4.39097 17.2417 4.31975L17.2541 4.31378C17.3478 4.37466 17.427 4.38706 17.538 4.36388C17.6291 4.34489 17.6308 4.27501 17.5514 4.17193L17.5618 4.15999C17.6571 4.21454 17.7609 4.24428 17.8314 4.23722C17.9058 4.22976 17.9339 4.18397 17.9035 4.09848L17.9127 4.08788C18.0242 4.11121 18.1127 4.10753 18.138 4.06768C18.1685 4.01981 18.1097 3.93307 17.9587 3.81886L17.9627 3.8044C18.0021 3.80004 18.0253 3.79432 18.0531 3.78199C18.2023 3.85742 18.5251 3.91761 18.6757 3.9067C18.8016 3.89768 18.8423 3.8383 18.8196 3.70695C19.1427 3.64413 19.44 3.54223 19.6368 3.39676C19.6581 3.38102 19.6677 3.3739 19.6798 3.36456C19.6971 3.35127 19.7118 3.33935 19.7247 3.32804C19.7445 3.31058 19.7594 3.29503 19.7687 3.28161C19.7766 3.27721 19.7842 3.27279 19.7915 3.26835L19.7795 3.25961C19.778 3.26613 19.7744 3.27348 19.7687 3.28161C19.603 3.37419 19.3135 3.45997 18.8182 3.58128L18.8137 3.56579C19.2537 3.42116 19.9346 2.98076 19.9624 2.79248L19.9764 2.77991L19.963 2.77473C19.9635 2.78036 19.9633 2.78628 19.9624 2.79248C19.8483 2.89219 19.6875 2.97153 19.419 3.07514L19.3433 3.10407L19.2685 3.13247L19.2616 3.11796C19.5322 2.9605 19.7503 2.72938 19.7727 2.55193C19.7785 2.54474 19.7839 2.53742 19.7892 2.52995L19.7746 2.52522C19.7745 2.53398 19.7738 2.54288 19.7727 2.55193C19.6978 2.64507 19.5739 2.71679 19.3355 2.82415L19.3279 2.82757L19.2247 2.87395C19.1917 2.88895 19.1642 2.90177 19.1386 2.91413L19.1301 2.90054C19.2492 2.80598 19.2907 2.77234 19.3555 2.71586C19.4775 2.60952 19.5705 2.51297 19.6331 2.42183C19.697 2.32879 19.726 2.24524 19.7158 2.17206C19.7196 2.16606 19.7232 2.16004 19.7267 2.154L19.7119 2.1519C19.7136 2.15853 19.7148 2.16525 19.7158 2.17206C19.6292 2.30939 19.4617 2.43528 19.1936 2.5869C19.1511 2.61094 19.0445 2.669 18.9696 2.7098L18.8927 2.75186L18.8835 2.7387C19.0544 2.59087 19.1507 2.4614 19.1603 2.29809L19.1739 2.28805L19.161 2.28139C19.1609 2.287 19.1607 2.29256 19.1603 2.29809C18.7947 2.56807 18.346 2.76014 17.8761 2.87445L17.8717 2.86384L17.8701 2.85971C17.9845 2.79042 18.1046 2.66097 18.1399 2.56913L18.159 2.55639L18.1467 2.54776C18.145 2.55461 18.1427 2.56175 18.1399 2.56913C17.7956 2.79505 17.2834 2.94726 16.9085 2.97221C16.5694 2.9946 16.3498 3.02312 16.0846 3.08675C16.034 3.03567 15.885 3.03839 15.6994 3.08913C15.6964 3.08579 15.6933 3.08251 15.6901 3.07926L15.6866 3.0927L15.6994 3.08913C15.7639 3.161 15.7836 3.25612 15.7776 3.40658L15.7627 3.40954L15.7609 3.42117C15.7689 3.25904 15.7488 3.1618 15.6787 3.0906L15.6822 3.07717C15.8793 3.02145 16.0385 3.01729 16.0883 3.07325C16.347 3.0072 16.5674 2.97856 16.9075 2.95611C17.2867 2.93088 17.8083 2.77421 18.15 2.54302L18.1623 2.55165C18.1408 2.63841 18.0318 2.76643 17.918 2.8474C18.3751 2.73092 18.8098 2.54015 19.1642 2.27511L19.1771 2.28176C19.1735 2.44117 19.0929 2.56738 18.946 2.70435L18.9622 2.69551C19.0371 2.6547 19.1434 2.5968 19.1857 2.57285C19.4631 2.41598 19.6316 2.28706 19.7128 2.14594L19.7275 2.14803C19.748 2.23124 19.7185 2.32586 19.6464 2.43098C19.5829 2.52346 19.489 2.62088 19.366 2.72803C19.3119 2.77521 19.274 2.80648 19.1941 2.8702L19.2181 2.85926L19.3214 2.81282L19.3289 2.80943C19.5829 2.69506 19.7054 2.62161 19.776 2.52069L19.7906 2.52542C19.7886 2.69725 19.5959 2.92168 19.3419 3.08736L19.4133 3.06008C19.6911 2.95287 19.8526 2.87192 19.9655 2.76802L19.9789 2.7732C19.9951 2.94393 19.4071 3.34494 18.9529 3.53124C19.3845 3.42259 19.6387 3.34208 19.7832 3.25454L19.7952 3.26328C19.7901 3.2849 19.7696 3.30998 19.7353 3.34017C19.7221 3.35174 19.7072 3.36387 19.6896 3.37736C19.6773 3.38679 19.6677 3.39395 19.6463 3.40975C19.4472 3.55699 19.1479 3.65954 18.829 3.71299C18.8602 3.84401 18.8129 3.91305 18.6768 3.92278C18.5234 3.9339 18.1978 3.87317 18.0536 3.7961C18.0349 3.80738 18.0143 3.81355 17.984 3.81796C18.13 3.93134 18.1875 4.01989 18.1515 4.07636C18.1221 4.12271 18.0349 4.12807 17.923 4.1064C17.9491 4.19359 17.9139 4.24516 17.833 4.25326C17.7665 4.25993 17.6737 4.23603 17.5846 4.19065C17.6484 4.28739 17.6382 4.35946 17.5413 4.37967C17.4304 4.40282 17.3488 4.39151 17.2559 4.33398C17.2436 4.39631 17.1883 4.43559 17.1178 4.43221C17.3659 4.58736 17.4037 4.66451 17.3323 4.76046C17.2789 4.83251 17.0957 4.82702 16.9844 4.76072C16.937 4.89867 16.7731 4.90964 16.6399 4.79573C16.6222 4.87785 16.4857 4.95333 16.3831 4.89279ZM16.1331 3.37974C16.137 3.36923 16.14 3.35787 16.1418 3.34563L16.1323 3.3365L15.7776 3.40658L15.7771 3.4176L15.7681 3.41261L15.7659 3.42749L15.7667 3.42792L15.7767 3.42587L15.7764 3.43292C15.9142 3.50211 16.0666 3.4981 16.1223 3.40281C16.243 3.46842 16.4338 3.43626 16.4953 3.34432C16.6684 3.407 16.8302 3.36937 16.8591 3.21051L16.8486 3.20143L16.5087 3.318C16.5135 3.30445 16.5158 3.28991 16.515 3.27446L16.1331 3.37974ZM16.1296 3.38845L16.1331 3.37974L16.117 3.38418L16.1153 3.39886L16.1223 3.40281L16.1245 3.39875L16.1404 3.39397C16.2541 3.44837 16.4252 3.41748 16.4865 3.34104L16.4953 3.34432C16.4966 3.34235 16.4979 3.34036 16.4991 3.33833L16.5132 3.33349C16.6681 3.38533 16.8079 3.35246 16.8403 3.2213L16.8538 3.21669L16.8433 3.20762C16.8424 3.21229 16.8414 3.21685 16.8403 3.2213L16.5132 3.33349C16.51 3.33241 16.5068 3.33129 16.5035 3.33014C16.5055 3.32619 16.5072 3.32214 16.5087 3.318L16.4993 3.32121C16.5054 3.30917 16.5089 3.29626 16.5093 3.28259L16.1404 3.39397C16.1367 3.39222 16.1331 3.39038 16.1296 3.38845ZM16.4959 3.32738C16.4985 3.32832 16.501 3.32924 16.5035 3.33014C16.5022 3.33292 16.5007 3.33565 16.4991 3.33833L16.4915 3.34095L16.4916 3.33422C16.4931 3.33197 16.4946 3.3297 16.4959 3.32738ZM16.4959 3.32738C16.4945 3.32686 16.4931 3.32632 16.4917 3.32578L16.4916 3.33422C16.49 3.33653 16.4883 3.3388 16.4865 3.34104L16.486 3.34086L16.4863 3.32569L16.4993 3.32121C16.4983 3.32329 16.4971 3.32535 16.4959 3.32738ZM16.1296 3.38845C16.128 3.39199 16.1263 3.39543 16.1245 3.39875L16.1217 3.39962L16.1234 3.38495L16.1296 3.38845ZM15.7884 3.42348L15.7767 3.42587L15.7771 3.4176L15.7884 3.42348ZM16.1238 3.35501C16.0961 3.48146 15.9358 3.49779 15.7884 3.42348L16.1238 3.35501ZM16.1238 3.35501C16.1246 3.35118 16.1253 3.34724 16.1259 3.34321L16.1354 3.35263L16.1238 3.35501ZM17.8717 2.86384L17.8769 2.87911C17.8848 2.87631 17.6573 2.95864 17.5775 2.98656L17.5088 3.0103C17.3484 3.06499 17.2276 3.10054 17.1509 3.1134L17.1471 3.09777L17.8717 2.86384ZM15.7609 3.42117L15.7607 3.42471L15.7604 3.42453L15.7609 3.42117ZM12.9374 2.62009C12.9886 2.69476 13.123 2.80424 13.2076 2.83086C13.2137 2.89013 13.2388 2.94756 13.2809 2.99385L12.8981 2.87106L12.8879 2.88083C12.8968 2.91427 12.9119 2.94373 12.9315 2.96889L12.6679 2.86199C12.6897 2.86241 12.7136 2.86093 12.7397 2.85744L12.7441 2.84347L12.5548 2.67185C12.5882 2.67942 12.6218 2.68528 12.6556 2.68933L12.6602 2.67415L11.9282 2.29634L11.919 2.30937C12.0941 2.47573 12.2975 2.60282 12.5115 2.66104C12.4979 2.69194 12.4943 2.73122 12.5045 2.7656L12.0965 2.62017L12.0887 2.634C12.1783 2.70804 12.3183 2.75185 12.5122 2.78544L12.5155 2.79169C12.5329 2.82209 12.5625 2.84345 12.6047 2.85416C12.5972 2.87235 12.5937 2.88985 12.5937 2.90626C12.3989 2.86921 12.2756 2.85735 12.2245 2.87987C12.198 2.89163 12.1804 2.90831 12.1727 2.92752C12.1383 2.91412 12.1057 2.9029 12.07 2.89189C12.0558 2.88752 12.041 2.88315 12.024 2.87827C12.034 2.88114 11.9152 2.84774 11.8751 2.8358L11.8751 2.83579L11.8751 2.83579L11.875 2.83576L11.8704 2.85176L12.1685 2.9442C12.1655 2.97224 12.1816 3.00381 12.2192 3.03275C12.2325 3.04294 12.2483 3.05268 12.2664 3.06199C12.2283 3.08026 12.2139 3.11014 12.2219 3.14212L11.6177 2.97098L11.6112 2.98555C11.7669 3.08465 11.9617 3.13756 12.2296 3.16183C12.2369 3.17558 12.2481 3.18937 12.2633 3.20246C12.2451 3.22362 12.238 3.24742 12.2408 3.27166C12.2048 3.27051 12.1533 3.27968 12.1197 3.29379L12.1239 3.30975L12.2447 3.29021C12.252 3.31345 12.2679 3.33657 12.2913 3.35764C12.4859 3.53374 12.9663 3.53034 13.4207 3.37216C13.431 3.39512 13.4575 3.4109 13.4999 3.42277C13.517 3.4276 13.5345 3.43172 13.5521 3.43514L12.9928 3.67701L12.9971 3.6924C13.167 3.66743 13.4055 3.55662 13.5817 3.4402C13.6285 3.44713 13.6764 3.44932 13.7247 3.44706C13.7041 3.48557 13.7004 3.53489 13.7154 3.5767L13.1238 3.78649L13.1287 3.80183C13.3235 3.74442 13.5782 3.65538 13.7219 3.59199C13.7396 3.62772 13.7725 3.65549 13.8218 3.66191L13.2283 3.92206L13.2335 3.93726C13.3722 3.90129 13.6472 3.78111 13.8577 3.66512C13.918 3.66841 13.9846 3.66189 14.0533 3.64773C14.0404 3.67437 14.0328 3.70064 14.0303 3.7256L13.4635 3.99156L13.4689 4.00668C13.6406 3.96264 13.7957 3.88503 14.0293 3.7452C14.0295 3.78284 14.0417 3.81673 14.0653 3.84337L13.5467 4.10495L13.552 4.12005C13.6084 4.10822 13.6756 4.08271 13.7519 4.04567C13.7937 4.02536 13.8376 4.00191 13.8834 3.97571C13.9487 3.93828 14.0001 3.90621 14.0778 3.8559C14.1041 3.87921 14.1407 3.89523 14.1871 3.90081C14.1924 3.90145 14.1978 3.90193 14.2033 3.90225L13.7789 4.10124L13.784 4.11644C13.8782 4.09641 13.9682 4.05951 14.0652 4.00611C14.0871 3.99407 14.1316 3.96753 14.1714 3.94385L14.1714 3.94382L14.1715 3.94379L14.1715 3.94378L14.1715 3.94378L14.1715 3.94377L14.1716 3.94374C14.2025 3.92533 14.2305 3.90866 14.2426 3.9019C14.291 3.89853 14.3449 3.88461 14.4019 3.8612C14.3765 3.90113 14.3629 3.93308 14.3608 3.96118L13.9272 4.1781L13.9334 4.19294C14.0096 4.1663 14.2299 4.05384 14.3611 3.97983C14.3633 3.99855 14.3712 4.01583 14.3846 4.03312C14.3981 4.05038 14.414 4.05975 14.435 4.06141L14.1376 4.19994L14.144 4.21474C14.2462 4.17347 14.3855 4.10884 14.5033 4.0483C14.535 4.03671 14.5741 4.01763 14.623 3.99126C14.6615 3.97056 14.7068 3.94118 14.7588 3.90392C14.7725 3.89413 14.7865 3.88384 14.801 3.87301C14.79 3.91325 14.7894 3.94795 14.7982 3.97689L14.3216 4.26616L14.3286 4.28059C14.4563 4.23153 14.6927 4.0835 14.8045 3.99353C14.8167 4.01985 14.8377 4.04049 14.8662 4.05524L14.5351 4.26625L14.5426 4.28049C14.6687 4.22701 14.8146 4.1327 14.885 4.06368L14.8882 4.06489C14.9618 4.09235 15.0358 4.09318 15.1053 4.05662L14.821 4.27035L14.8299 4.28374C14.9685 4.20141 15.133 4.07971 15.1871 4.01502L15.1761 4.00338L15.1754 4.00388L15.1732 3.99147L14.838 3.84503C14.8565 3.83087 14.8758 3.81592 14.8968 3.79938L14.9647 3.74559L14.9583 3.73133L14.7387 3.77202L14.8922 3.65431L14.8829 3.6412C14.8338 3.67424 14.7595 3.72825 14.69 3.78105L14.4917 3.81781C14.6094 3.75272 14.734 3.6525 14.8463 3.52525L14.8392 3.51192L14.5494 3.55329L14.5881 3.52767L14.6759 3.46881C14.7092 3.44658 14.7358 3.42921 14.7611 3.41332L14.7528 3.39953L14.7526 3.39965L14.475 3.56391L14.2187 3.6005C14.3765 3.5435 14.527 3.4555 14.6192 3.3619C14.6584 3.35647 14.6988 3.34886 14.74 3.33889L14.7421 3.3393L14.7421 3.33839L14.7455 3.33754L14.7451 3.32179L14.2641 3.22935C14.2947 3.22705 14.3263 3.22337 14.3584 3.21819L14.3594 3.20248L13.8074 3.04055L13.7972 3.0479C13.7969 3.05345 13.7971 3.05894 13.7978 3.06435L13.218 2.78129L13.2065 2.78813C13.2062 2.79433 13.2061 2.80054 13.2062 2.80674L12.9489 2.60911L12.9374 2.62009ZM13.2064 2.81346L13.2062 2.80674L13.2219 2.81879L13.2149 2.83299L13.2076 2.83086L13.2073 2.82794L13.2121 2.8316L13.219 2.8174C13.2149 2.81631 13.2107 2.81499 13.2064 2.81346ZM13.1618 2.79296L13 2.66869C12.9799 2.64847 12.9628 2.62863 12.9506 2.61094L12.9391 2.62192L13 2.66869C13.0462 2.71506 13.1081 2.7635 13.1618 2.79296ZM13.1618 2.79296C13.1776 2.8016 13.1926 2.80862 13.2064 2.81346C13.2066 2.81829 13.2069 2.82312 13.2073 2.82794L13.1618 2.79296ZM13.8159 3.07319L13.7978 3.06435C13.7983 3.06805 13.799 3.07172 13.7999 3.07536L13.789 3.07799L13.2222 2.80127L13.2225 2.78896L13.211 2.7958L13.2222 2.80127C13.2218 2.91424 13.2947 3.02622 13.427 3.06611C13.5444 3.10148 13.6595 3.10587 13.7568 3.08694C13.732 3.09438 13.7072 3.10305 13.683 3.11266C13.6019 3.11805 13.5128 3.10878 13.4224 3.08156C13.3775 3.06803 13.3391 3.04659 13.3076 3.01975L13.3114 3.01675L13.3088 3.0028L13.2809 2.99385C13.2855 2.99896 13.2904 3.00394 13.2954 3.00878L13.2891 3.01342L12.9078 2.89109C12.9062 2.88637 12.9047 2.88156 12.9034 2.87665L12.8932 2.88642L12.9078 2.89109C12.9243 2.94013 12.9555 2.9792 12.9946 3.00697L12.9577 2.99764L12.9574 2.99733L12.9609 2.99626L12.9615 2.98107L12.9315 2.96889C12.9357 2.97423 12.94 2.97938 12.9446 2.98433L12.9341 2.98733L12.6197 2.85986L12.6207 2.85761C12.6351 2.86019 12.6509 2.86167 12.6679 2.86199L12.6185 2.84197L12.6082 2.84603L12.6047 2.85416L12.614 2.85632L12.6125 2.85693L12.6197 2.85986C12.6126 2.87731 12.6095 2.89407 12.6102 2.90966L12.6065 2.90873L12.6061 2.90863L12.5937 2.90626C12.5938 2.91196 12.5942 2.91753 12.5951 2.92295C12.4023 2.88612 12.278 2.87392 12.231 2.89463C12.1719 2.92084 12.166 2.97143 12.229 3.01995C12.2453 3.03246 12.2656 3.0443 12.2893 3.05546L12.2877 3.05504L12.2832 3.05522C12.2771 3.05725 12.2715 3.05951 12.2664 3.06199C12.2721 3.06493 12.278 3.06783 12.2841 3.07068L12.2838 3.07069L12.2846 3.0709L12.2857 3.07141C12.2224 3.09403 12.2198 3.14779 12.2775 3.19408L12.2759 3.19385L12.2691 3.19615C12.267 3.19822 12.2651 3.20033 12.2633 3.20246C12.2672 3.20586 12.2714 3.20922 12.2759 3.21252C12.2418 3.25185 12.2537 3.30206 12.302 3.34565C12.4874 3.51339 12.9476 3.51343 13.389 3.36592L13.4199 3.37023L13.4207 3.37216L13.4262 3.37022L13.4247 3.35462L13.4245 3.35459L13.4255 3.34021L13.4165 3.33794C13.4186 3.32193 13.4254 3.30345 13.437 3.28199C13.4548 3.24908 13.4947 3.21373 13.5465 3.18107C13.5612 3.1786 13.5751 3.17594 13.5883 3.17307L13.5886 3.15737L13.5875 3.15711C13.6173 3.14098 13.6496 3.12592 13.683 3.11266C13.7099 3.11087 13.7359 3.10748 13.7608 3.10259C13.6234 3.14399 13.4868 3.22363 13.4511 3.28968C13.414 3.35843 13.4298 3.38641 13.5042 3.40723C13.7205 3.46808 13.9781 3.41281 14.1749 3.27487L14.1829 3.27895C14.1842 3.28132 14.1856 3.28365 14.1871 3.28594C14.1069 3.34268 14.0167 3.38589 13.923 3.41336L13.7379 3.43136L13.7321 3.43485C13.7294 3.43878 13.7269 3.44286 13.7247 3.44706L13.7417 3.44609L13.7395 3.44741L13.7433 3.44704C13.6999 3.51574 13.723 3.6331 13.8243 3.64596C13.8334 3.64711 13.8427 3.648 13.8521 3.64863L13.8218 3.66191L13.8223 3.66197L13.8285 3.6627C13.7585 3.70059 13.6823 3.73863 13.607 3.77368L13.4332 3.84986C13.353 3.88264 13.2814 3.90817 13.2295 3.92164L13.2347 3.93684L13.4332 3.84986C13.4882 3.82737 13.5473 3.80146 13.607 3.77368L13.855 3.66497L13.8577 3.66512L13.8695 3.65857L13.865 3.64934C13.926 3.65193 13.9936 3.64444 14.063 3.62917C14.0595 3.63537 14.0562 3.64156 14.0533 3.64773L14.0736 3.64333C14.0104 3.76026 14.055 3.86867 14.189 3.8848C14.2044 3.88665 14.2207 3.88706 14.2378 3.88608L14.2033 3.90225L14.2094 3.90253L14.1624 3.93043C14.1383 3.94478 14.1126 3.96009 14.0914 3.97254L13.8709 4.07592C13.8409 4.08595 13.811 4.0942 13.7806 4.10066L13.7857 4.11585L13.8709 4.07592C13.9321 4.05538 13.9932 4.02737 14.0575 3.99197C14.0659 3.98735 14.0777 3.98054 14.0914 3.97254L14.2419 3.90195L14.2426 3.9019L14.2462 3.89995L14.2393 3.88599C14.2927 3.88265 14.3536 3.86571 14.4183 3.83668C14.4124 3.84518 14.4069 3.85335 14.4019 3.8612C14.4109 3.85752 14.4199 3.85361 14.429 3.84947C14.3708 3.93398 14.3626 3.97862 14.3973 4.02319C14.4159 4.04709 14.443 4.05145 14.4906 4.0355L14.435 4.06141L14.4411 4.06167C14.3372 4.11334 14.2243 4.16495 14.138 4.19977L14.1444 4.21457L14.4952 4.05113L14.5033 4.0483L14.5214 4.03893L14.5152 4.02624C14.5425 4.01499 14.5754 3.99862 14.6154 3.97705C14.6532 3.95672 14.698 3.92769 14.7495 3.89079C14.7674 3.8779 14.7861 3.86413 14.8057 3.8494L14.8096 3.84644C14.8062 3.85555 14.8034 3.86441 14.801 3.87301L14.8153 3.86229L14.8231 3.85639C14.7873 3.95795 14.8174 4.02146 14.8938 4.04976C14.9842 4.08353 15.0745 4.07486 15.1556 4.00137L15.1668 4.00626L15.1644 3.99308L15.1556 4.00137L14.8233 3.8562L14.838 3.84503L14.8218 3.83793L14.8196 3.83886C14.8407 3.82278 14.8626 3.8058 14.8868 3.78669L14.9293 3.75311L14.9612 3.74719L14.9548 3.73292L14.9293 3.75311L14.7105 3.79365L14.7387 3.77202L14.7254 3.77449C14.7868 3.72838 14.8491 3.68339 14.8918 3.6546L14.8825 3.64149L14.7038 3.7785L14.69 3.78105L14.6617 3.8027L14.442 3.84343C14.4584 3.83562 14.475 3.82707 14.4917 3.81781L14.4371 3.82792C14.561 3.76847 14.697 3.66607 14.8196 3.53101L14.8414 3.52789L14.8343 3.51455L14.8196 3.53101L14.5174 3.57415L14.5494 3.55329L14.5167 3.55796L14.7609 3.41343L14.7526 3.39965C14.7272 3.41563 14.7004 3.43308 14.667 3.45538L14.5792 3.51424C14.5553 3.53016 14.5329 3.54493 14.5116 3.55868L14.475 3.56391L14.4387 3.58539L14.1266 3.62994C14.1573 3.62142 14.1881 3.61154 14.2187 3.6005L14.1233 3.61412C14.3012 3.56453 14.4828 3.46914 14.5928 3.36525C14.6015 3.36424 14.6103 3.36312 14.6192 3.3619L14.6213 3.35973L14.6157 3.3479C14.6446 3.34386 14.6744 3.33859 14.7046 3.33199L14.74 3.33889L14.7421 3.33839L14.7417 3.32331C14.7293 3.32643 14.7169 3.32932 14.7046 3.33199L14.1931 3.23223C14.2161 3.2321 14.2398 3.23116 14.2641 3.22935L14.1952 3.21611C14.2348 3.21578 14.2763 3.21303 14.3193 3.20754L14.3549 3.21796L14.3559 3.20226C14.3436 3.20424 14.3314 3.206 14.3193 3.20754L13.8134 3.0591C13.8131 3.05565 13.813 3.05218 13.8132 3.04868L13.8029 3.05603L13.8134 3.0591C13.8138 3.06385 13.8146 3.06855 13.8159 3.07319ZM13.8171 3.07532L13.8172 3.07381L13.8159 3.07319L13.8164 3.07499L13.8142 3.07387L13.8113 3.07351L13.8113 3.07335L13.811 3.07346L13.8088 3.0732L13.7999 3.07536L13.8002 3.07663L13.7912 3.07908L13.789 3.07799C13.7783 3.08073 13.7676 3.08372 13.7568 3.08694C13.7686 3.08466 13.78 3.08203 13.7912 3.07908L13.8027 3.08469L13.8051 3.09063C13.7904 3.09413 13.7756 3.09814 13.7608 3.10259C13.7762 3.09958 13.7911 3.09599 13.8056 3.09186C13.8298 3.14595 13.9034 3.18999 14.0074 3.21355L13.6807 3.32099L13.6841 3.3372C13.8318 3.31847 13.9161 3.28695 14.0395 3.22032L14.0394 3.21999C14.0519 3.2222 14.0648 3.22413 14.078 3.22576L14.1749 3.27487L14.1794 3.27162C14.1805 3.2741 14.1816 3.27655 14.1829 3.27895L14.1868 3.2809L14.1857 3.26717L14.1794 3.27162C14.1775 3.26687 14.1761 3.26198 14.1752 3.25696L14.194 3.26651L14.1951 3.28025L14.1871 3.28594C14.2071 3.31562 14.249 3.33885 14.3064 3.35371L14.2437 3.38217L13.923 3.41336C13.8641 3.43062 13.8039 3.44166 13.744 3.44592L13.7454 3.44392L13.7417 3.44609L13.744 3.44592L13.7433 3.44704L14.1982 3.4028L13.9239 3.52713L13.9296 3.54217C14.0396 3.50746 14.1608 3.45352 14.2678 3.39602L14.5262 3.37089C14.5478 3.36973 14.57 3.36786 14.5928 3.36525L14.5937 3.36432L14.6163 3.36212L14.6099 3.34868L14.6157 3.3479L14.6148 3.34607L14.4922 3.358C14.3057 3.36189 14.1767 3.30937 14.1915 3.23224L14.1931 3.23223L14.1915 3.23193C14.192 3.2296 14.1926 3.22724 14.1933 3.22487L14.1841 3.23048L14.1915 3.23193L14.1915 3.23224L14.1751 3.23217C14.1757 3.22821 14.1767 3.22419 14.1779 3.2201L14.1845 3.21614L14.1952 3.21611L14.1871 3.21456L14.1845 3.21614C14.1489 3.21605 14.1149 3.21398 14.083 3.2102L13.8171 3.07532ZM13.817 3.07673L13.8171 3.07532L13.8164 3.07499L13.817 3.07673ZM13.8274 3.09861C13.8228 3.0915 13.8193 3.08419 13.817 3.07673L13.816 3.08877L13.811 3.0903L13.8095 3.08957L13.8124 3.08893L13.807 3.08826L13.8095 3.08957L13.8051 3.09063L13.8056 3.09186L13.811 3.0903L13.8274 3.09861ZM14.0319 3.20235C14.0482 3.20547 14.0653 3.2081 14.083 3.2102L14.122 3.23C14.107 3.22894 14.0923 3.22752 14.078 3.22576L14.0319 3.20235ZM13.8274 3.09861L14.0319 3.20235C13.9307 3.18304 13.8569 3.14505 13.8274 3.09861ZM14.122 3.23L14.1752 3.25696C14.1738 3.24902 14.1737 3.24075 14.1751 3.23217C14.157 3.23194 14.1393 3.23121 14.122 3.23ZM14.6095 3.34874L14.6098 3.34846L14.6099 3.34868L14.6095 3.34874ZM14.6095 3.34874C14.5686 3.35422 14.5292 3.35722 14.4922 3.358L14.3885 3.36808C14.3689 3.36601 14.3502 3.3632 14.3327 3.3597L14.3346 3.35861L14.3272 3.34429L14.3064 3.35371L14.3095 3.35449C14.2944 3.36313 14.2789 3.37174 14.263 3.38028L14.2437 3.38217L14.1982 3.4028L14.2253 3.40015C14.1282 3.45021 14.022 3.49612 13.9248 3.52679L13.9305 3.54183L14.2479 3.39796L14.2678 3.39602C14.2799 3.3895 14.2919 3.38293 14.3036 3.37633L14.3885 3.36808C14.4303 3.37247 14.4766 3.37355 14.5262 3.37089L14.5937 3.36432C14.5992 3.35914 14.6045 3.35395 14.6095 3.34874ZM14.2934 3.37733L14.3036 3.37633L14.3327 3.3597L14.3324 3.35964L14.3338 3.35899L14.3265 3.34468L14.3095 3.35449C14.3169 3.35634 14.3245 3.35806 14.3324 3.35964L14.2934 3.37733ZM14.2934 3.37733L14.263 3.38028C14.2507 3.38696 14.2381 3.39359 14.2253 3.40015L14.2479 3.39796L14.2934 3.37733ZM14.0378 3.21971L14.0394 3.21999L14.0334 3.20499L14.0074 3.21355L14.0142 3.21507C13.983 3.23153 13.9542 3.24564 13.9259 3.25781L13.7937 3.3013C13.7601 3.3091 13.7237 3.31538 13.6822 3.32064L13.6856 3.33686L13.7937 3.3013C13.841 3.29032 13.8829 3.2763 13.9259 3.25781L14.0383 3.22086L14.0378 3.21971ZM14.0378 3.21971C14.0298 3.21828 14.0219 3.21673 14.0142 3.21507L14.0321 3.20552L14.0378 3.21971ZM13.8027 3.08469C13.8018 3.08203 13.8009 3.07934 13.8002 3.07663L13.811 3.07346L13.8113 3.07351L13.8102 3.08831L13.8027 3.08469ZM14.0771 3.63701L14.0736 3.64333C14.0912 3.63934 14.1089 3.63487 14.1266 3.62994L14.0771 3.63701ZM14.0771 3.63701L14.079 3.63368L14.0732 3.63756L14.0771 3.63701ZM14.4788 3.57966L14.4387 3.58539L14.2274 3.71037L14.2343 3.72487C14.3215 3.69212 14.4032 3.64777 14.5174 3.57415L14.4804 3.57943L14.5167 3.55796L14.5116 3.55868L14.4788 3.57966ZM14.4565 3.59358L14.4788 3.57966L14.4804 3.57943L14.4565 3.59358ZM14.4565 3.59358C14.4312 3.60918 14.4075 3.62323 14.3848 3.63597L14.4565 3.59358ZM14.3848 3.63597C14.3293 3.66717 14.2799 3.69054 14.2287 3.70977L14.2356 3.72427L14.3848 3.63597ZM14.4319 3.8453L14.429 3.84947L14.442 3.84343L14.4319 3.8453ZM14.4319 3.8453L14.4338 3.84261L14.4287 3.8459L14.4319 3.8453ZM14.6756 3.80013L14.6617 3.8027C14.5979 3.85179 14.5421 3.8971 14.5194 3.92002L14.5299 3.93212L14.7105 3.79365L14.6967 3.79622L14.7254 3.77449L14.7038 3.7785L14.6756 3.80013ZM14.6756 3.80013L14.5202 3.9193L14.5307 3.9314C14.5559 3.90604 14.6233 3.85204 14.6967 3.79622L14.6756 3.80013ZM14.8232 3.85613L14.8231 3.85639L14.8233 3.8562L14.8232 3.85613ZM14.8232 3.85613L14.8261 3.84819L14.8154 3.85271L14.8232 3.85613ZM14.8196 3.83886L14.8096 3.84644L14.8111 3.84245L14.8196 3.83886ZM14.5149 4.02637L14.5152 4.02624L14.5143 4.02446L14.4906 4.0355L14.4978 4.033C14.4794 4.04249 14.4604 4.05208 14.4411 4.06167C14.4563 4.06182 14.4741 4.05828 14.4952 4.05113L14.5211 4.03909L14.5149 4.02637ZM14.5149 4.02637L14.514 4.02461L14.4978 4.033C14.5032 4.03104 14.5089 4.02883 14.5149 4.02637ZM14.4371 3.82792L14.4183 3.83668L14.4206 3.83332L14.4257 3.83004L14.4371 3.82792ZM14.2389 3.88601L14.2393 3.88599L14.2391 3.8855L14.238 3.88607L14.2387 3.88566L14.2389 3.88601ZM14.2389 3.88601L14.238 3.88607C14.2328 3.88883 14.2226 3.89476 14.2094 3.90253C14.2199 3.9029 14.2308 3.90271 14.2419 3.90195L14.2459 3.90011L14.2389 3.88601ZM14.1233 3.61412C14.1031 3.61974 14.083 3.62478 14.063 3.62917L14.0652 3.62548L14.071 3.62159L14.1233 3.61412ZM13.8641 3.64929L13.8688 3.6589L13.855 3.66497C13.846 3.66444 13.8372 3.66368 13.8285 3.6627L13.854 3.64874L13.8641 3.64929ZM13.8641 3.64929L13.865 3.64934L13.8624 3.64412L13.8521 3.64863L13.854 3.64874L13.8617 3.64446L13.8641 3.64929ZM13.5849 3.15856L13.5875 3.15711L13.2179 3.06352C13.25 3.0552 13.2806 3.04074 13.3076 3.01975L13.3035 3.01618L13.3013 3.00421L13.2954 3.00878L13.3035 3.01618L13.3039 3.01816L13.2891 3.01342C13.2567 3.03618 13.2193 3.04951 13.1808 3.05412L12.9946 3.00697C13.0133 3.02028 13.0337 3.03099 13.0553 3.03897L12.9876 3.02185C12.9771 3.01454 12.9671 3.00646 12.9577 2.99764L12.957 2.99745L12.9574 2.99733L12.9555 2.99558L12.9562 2.98084L12.9446 2.98433C12.9481 2.9882 12.9518 2.99195 12.9555 2.99558L12.9555 2.99602L12.9341 2.98733L12.9259 2.98957L12.6102 2.90966C12.6105 2.9156 12.6114 2.92137 12.6128 2.92694L12.6028 2.92442L12.6031 2.92447L12.6026 2.92437L12.6028 2.92442L12.5951 2.92295C12.6093 3.00818 12.7304 3.05717 12.9259 3.00622L12.9876 3.02185C13.0431 3.06042 13.1129 3.07771 13.1797 3.07047L13.5497 3.16416C13.3417 3.20039 12.9795 3.19553 12.6803 3.15343L12.2893 3.05546C12.3802 3.09823 12.5214 3.13108 12.6803 3.15343L12.8053 3.18476C12.7616 3.18031 12.7186 3.17511 12.6768 3.16918L12.2861 3.07127L12.2883 3.07052L12.2841 3.07068L12.2846 3.0709L12.2861 3.07127L12.2857 3.07141C12.3783 3.11407 12.519 3.14683 12.6768 3.16918L13.3735 3.3438L13.3546 3.34481L12.2775 3.19408C12.2864 3.20116 12.2966 3.20807 12.3083 3.21466L12.2778 3.21039L12.2805 3.20752L12.2737 3.20982L12.2778 3.21039L12.2759 3.21252C12.2943 3.22615 12.3172 3.23876 12.3444 3.24947C12.5319 3.32327 13.051 3.37525 13.3538 3.36099L13.389 3.36592L13.4156 3.35688L13.4164 3.3568C13.417 3.36153 13.4182 3.366 13.4199 3.37023L13.4225 3.3706L13.4211 3.35636L13.4244 3.35606L13.4245 3.35459L13.4218 3.35421L13.4228 3.34L13.4162 3.34063L13.4165 3.33794L12.8053 3.18476C13.0734 3.21214 13.365 3.21161 13.5465 3.18107C13.5532 3.17686 13.5601 3.17269 13.5671 3.16858L13.5846 3.17301L13.5849 3.15856ZM13.5849 3.15856L13.5671 3.16858L13.5497 3.16416C13.562 3.16202 13.5737 3.15974 13.5849 3.15731L13.5849 3.15856ZM13.416 3.35341C13.4157 3.34934 13.4158 3.34508 13.4162 3.34063C13.4026 3.34186 13.3884 3.34292 13.3735 3.3438L13.4066 3.3521L13.3546 3.34481C13.3236 3.3463 13.2903 3.34708 13.2553 3.3472L12.3083 3.21466C12.3207 3.22167 12.3347 3.22833 12.3502 3.23446C12.5166 3.29991 12.9508 3.34831 13.2553 3.3472L13.3538 3.36099C13.3756 3.35997 13.3962 3.3586 13.4156 3.35688L13.4163 3.3566L13.4164 3.3568L13.4211 3.35636L13.421 3.35569L13.4216 3.35585L13.4218 3.35421L13.416 3.35341ZM13.4161 3.35447L13.416 3.35341L13.4066 3.3521L13.4161 3.35447ZM13.4198 3.35539L13.4163 3.3566L13.4161 3.35447L13.4198 3.35539ZM13.4198 3.35539L13.421 3.35569L13.4209 3.355L13.4198 3.35539ZM13.1117 3.05326L13.0553 3.03897C13.0735 3.04573 13.0925 3.05053 13.1117 3.05326ZM13.1117 3.05326L13.1797 3.07047C13.1926 3.06907 13.2053 3.06676 13.2179 3.06352L13.1808 3.05412C13.1579 3.05686 13.1346 3.05652 13.1117 3.05326ZM12.8924 2.99774C12.9033 2.99535 12.9144 2.99264 12.9259 2.98957L12.957 2.99745C12.9464 3.00065 12.936 3.00357 12.9259 3.00622L12.8924 2.99774ZM12.8924 2.99774L12.6128 2.92694C12.6299 2.9947 12.7287 3.03374 12.8924 2.99774ZM12.614 2.85632L12.6207 2.85761L12.6228 2.85287L12.614 2.85632ZM15.1751 4.00507L15.1756 4.00466L15.1754 4.00388L15.1053 4.05662C15.1277 4.04479 15.1497 4.02905 15.171 4.00904C15.1148 4.07305 14.9557 4.19025 14.8217 4.26986L14.8306 4.28326L15.1857 4.01629L15.1751 4.00507ZM15.1751 4.00507L15.171 4.00904L15.1747 4.00466L15.1751 4.00507ZM14.8838 4.06319L14.885 4.06368L14.8893 4.05939L14.8793 4.0469L14.8662 4.05524L14.8691 4.05668C14.8412 4.08319 14.8024 4.11333 14.7581 4.14326L14.6934 4.18453C14.6421 4.21535 14.5875 4.24393 14.5363 4.26563L14.5438 4.27987L14.6934 4.18453C14.7157 4.17107 14.7375 4.15719 14.7581 4.14326L14.8838 4.06319ZM14.8838 4.06319L14.8879 4.06052L14.8779 4.04802L14.8691 4.05668C14.8738 4.05901 14.8787 4.06117 14.8838 4.06319ZM14.8039 3.99225L14.8045 3.99353L14.8128 3.98677L14.8035 3.97365L14.7982 3.97689L14.7984 3.97771C14.7534 4.01438 14.686 4.06161 14.6135 4.10784L14.501 4.17611C14.4344 4.21445 14.3708 4.24713 14.3229 4.26553L14.3299 4.27996L14.501 4.17611C14.5383 4.15462 14.5766 4.13136 14.6135 4.10784L14.8039 3.99225ZM14.8039 3.99225C14.8018 3.98758 14.8 3.98274 14.7984 3.97771L14.8025 3.97432L14.8118 3.98745L14.8039 3.99225ZM14.361 3.97908L14.3611 3.97983L14.3732 3.97298L14.3656 3.95875L14.3608 3.96118L14.3607 3.96152C14.2314 4.03492 14.0046 4.15098 13.9282 4.1777L13.9344 4.19254L14.361 3.97908ZM14.361 3.97908C14.3604 3.97338 14.3603 3.96754 14.3607 3.96152L14.3653 3.95895L14.3728 3.97318L14.361 3.97908ZM14.0772 3.85539L14.0778 3.8559L14.0837 3.85209L14.0757 3.83812L14.0653 3.84337L14.0661 3.84428C14.0132 3.87851 13.9726 3.90424 13.931 3.92916L13.6339 4.07903C13.6031 4.09033 13.5747 4.09881 13.5487 4.10427L13.554 4.11936L13.6339 4.07903C13.6682 4.06645 13.7053 4.05038 13.7449 4.03115C13.7864 4.01101 13.83 3.98773 13.8754 3.9617C13.8948 3.95059 13.913 3.93995 13.931 3.92916L14.0772 3.85539ZM14.0772 3.85539C14.0733 3.85185 14.0696 3.84815 14.0661 3.84428L14.0749 3.83855L14.0829 3.85253L14.0772 3.85539ZM14.0293 3.74386L14.0293 3.7452L14.04 3.73882L14.0324 3.7246L14.0303 3.7256L14.0303 3.72585C13.9739 3.75965 13.9222 3.78985 13.8738 3.81685L13.5721 3.95842C13.5365 3.971 13.501 3.98179 13.4649 3.99106L13.4703 4.00617L13.5721 3.95842C13.6658 3.92531 13.7609 3.87978 13.8738 3.81685L14.0293 3.74386ZM14.0293 3.74386L14.0392 3.73921L14.0317 3.72498L14.0303 3.72585C14.0296 3.73194 14.0293 3.73795 14.0293 3.74386ZM13.7217 3.59158L13.7219 3.59199L13.7276 3.58947L13.7216 3.57449L13.7154 3.5767L13.7156 3.57716C13.5726 3.64023 13.3185 3.7291 13.1242 3.78636L13.1291 3.8017L13.7217 3.59158ZM13.7217 3.59158C13.7194 3.5869 13.7173 3.58208 13.7156 3.57716L13.721 3.57472L13.727 3.5897L13.7217 3.59158ZM13.5812 3.44012L13.5817 3.4402L13.5837 3.43889L13.5761 3.42475L13.5521 3.43514L13.5582 3.4363C13.5338 3.45208 13.5083 3.46772 13.482 3.48301L13.0711 3.66071C13.0445 3.66757 13.0189 3.67289 12.9948 3.67644L12.9991 3.69182L13.0711 3.66071C13.1984 3.62789 13.3498 3.55987 13.482 3.48301L13.5812 3.44012ZM13.5812 3.44012C13.5735 3.43897 13.5659 3.4377 13.5582 3.4363L13.5749 3.42543L13.5825 3.43957L13.5812 3.44012ZM12.2442 3.28846L12.2447 3.29021L12.2525 3.28895L12.2521 3.27242C12.2485 3.27204 12.2447 3.27178 12.2408 3.27166L12.241 3.2739L12.1215 3.29325L12.1257 3.30921C12.1586 3.29542 12.2106 3.2865 12.2442 3.28846ZM12.2442 3.28846C12.2428 3.2836 12.2417 3.27875 12.241 3.2739L12.25 3.27245L12.2504 3.28897L12.2442 3.28846ZM12.2292 3.16093L12.2296 3.16183L12.2344 3.16226L12.2372 3.14646L12.2219 3.14212L12.2227 3.145C12.1951 3.14242 12.1683 3.13954 12.1423 3.13632L11.6741 3.00372C11.6554 2.9937 11.6374 2.98311 11.6198 2.97193L11.6133 2.9865L11.6741 3.00372C11.7994 3.07101 11.9503 3.11261 12.1423 3.13632L12.2292 3.16093ZM12.2292 3.16093C12.2264 3.1556 12.2243 3.15027 12.2227 3.145L12.2358 3.14619L12.2329 3.16198L12.2292 3.16093ZM12.1685 2.94372L12.1685 2.9442L12.1748 2.94616L12.1799 2.93039L12.1727 2.92752L12.1725 2.92804L11.8751 2.8358L11.8751 2.83579L11.8705 2.85178C11.9107 2.86373 12.0298 2.89723 12.0197 2.89433C12.0366 2.89919 12.0513 2.90353 12.0654 2.90786C12.1013 2.91893 12.1339 2.9302 12.1685 2.94372ZM12.1685 2.94372L12.1742 2.94596L12.1794 2.93019L12.1725 2.92804C12.1705 2.93311 12.1691 2.93835 12.1685 2.94372ZM12.5116 2.78427L12.5122 2.78544L12.5127 2.78553L12.5168 2.76998L12.5045 2.7656L12.5052 2.76784C12.4719 2.76195 12.4402 2.75575 12.4102 2.74913L12.1467 2.6552C12.1293 2.64472 12.1134 2.63353 12.0989 2.62155L12.0911 2.63537L12.1467 2.6552C12.2133 2.6953 12.301 2.72501 12.4102 2.74913L12.5114 2.78518L12.5116 2.78427ZM12.5116 2.78427C12.5091 2.77897 12.5069 2.77347 12.5052 2.76784L12.5154 2.76963L12.5116 2.78427ZM12.5279 2.6487L12.5167 2.65056C12.5148 2.65393 12.5131 2.65743 12.5115 2.66104L12.5221 2.66386L12.5262 2.6676C12.5109 2.70227 12.5099 2.74945 12.5294 2.78366C12.5564 2.83074 12.6183 2.85393 12.7202 2.84352L12.7333 2.85543L12.7376 2.84146L12.7202 2.84352L12.5262 2.6676L12.5273 2.6652C12.5364 2.66755 12.5456 2.66977 12.5548 2.67185L12.5299 2.64923C12.5565 2.65606 12.5832 2.6618 12.61 2.6664L12.6528 2.68849L12.6575 2.67331C12.6416 2.67141 12.6258 2.6691 12.61 2.6664L11.9742 2.33822C11.9593 2.32499 11.9446 2.31146 11.9301 2.29766L11.9209 2.31069L11.9742 2.33822C12.1406 2.48592 12.33 2.59741 12.5279 2.6487ZM12.5279 2.6487L12.5291 2.6485L12.5299 2.64923L12.5279 2.6487ZM12.5273 2.6652L12.5221 2.66386L12.5183 2.66047L12.5307 2.6584L12.5273 2.6652ZM15.1817 4.12566C15.1485 4.1702 15.065 4.2689 15.0119 4.32615L15.0239 4.33687L15.1942 4.1357L15.1817 4.12566ZM15.182 4.12526L15.1945 4.13531C15.161 4.18036 15.0771 4.2795 15.0236 4.33714L15.0116 4.32642L15.182 4.12526ZM17.8715 2.86392C17.8642 2.86663 17.6493 2.94438 17.5722 2.97133L17.5036 2.99503C17.344 3.04944 17.2239 3.08482 17.1483 3.0975L17.152 3.11313L17.8767 2.87919L17.8715 2.86392Z" fill="black"/>
<path fill-rule="evenodd" clip-rule="evenodd" d="M14.768 2.80117C14.7922 2.78829 14.8043 2.78465 14.8315 2.77946C14.8382 2.77817 14.8423 2.77726 14.8468 2.77597C14.8639 2.77098 14.8788 2.76137 14.8985 2.74124C14.9175 2.72186 14.9381 2.70214 14.9599 2.68245L15.3715 2.42796L15.3782 2.43605L15.3782 2.43605L15.3796 2.43778C15.4035 2.46562 15.4297 2.47471 15.4723 2.45878C15.4991 2.44869 15.5125 2.42919 15.5178 2.40112C15.5193 2.39312 15.5198 2.38798 15.5209 2.37321C15.5223 2.35479 15.5239 2.35012 15.5269 2.34984L15.5269 2.34941L15.5276 2.34927C15.5497 2.34461 15.5713 2.34266 15.5956 2.34326L15.596 2.32714C15.5707 2.32651 15.5482 2.32851 15.5251 2.33331L15.5255 2.33327L15.5269 2.34941L15.5152 2.35167L15.5091 2.35282L15.5071 2.35327C15.508 2.34852 15.5091 2.34477 15.5108 2.34185L15.5243 2.33348L15.519 2.33464C15.499 2.33921 15.478 2.34595 15.451 2.35619C15.4332 2.36292 15.3565 2.39382 15.3573 2.39351C15.2386 2.44059 15.0278 2.58836 14.894 2.72287L14.8284 2.76363C14.7998 2.76909 14.7864 2.77315 14.7604 2.78691L14.768 2.80117ZM14.8288 2.76355L14.8284 2.76362L14.8284 2.76363L14.768 2.80117L14.8288 2.76355ZM14.8931 2.72379L14.894 2.72287L14.9619 2.68072L14.9599 2.68245L14.8931 2.72379ZM15.351 2.41357C15.2489 2.45764 15.0866 2.5686 14.9619 2.68072L15.3706 2.42685L15.3715 2.42796L15.3855 2.4193L15.3912 2.42626L15.3912 2.42627L15.3916 2.42673C15.4114 2.4498 15.4309 2.45657 15.4668 2.44314C15.4877 2.43526 15.4977 2.42072 15.502 2.39794C15.5034 2.39079 15.5038 2.38602 15.5049 2.37192C15.5055 2.36446 15.5061 2.35831 15.5071 2.35327C15.5006 2.35477 15.4931 2.35727 15.4737 2.36475L15.5108 2.34185C15.5116 2.34033 15.5126 2.33903 15.5137 2.33794L15.519 2.33464C15.5169 2.33541 15.5152 2.3365 15.5137 2.33794L15.4652 2.36806L15.3979 2.39472L15.3723 2.40488C15.3639 2.3979 15.3553 2.39603 15.3454 2.40064L15.351 2.41357ZM15.3846 2.41816L15.3706 2.42685L15.3648 2.42023C15.3595 2.4148 15.3564 2.41376 15.352 2.41582L15.351 2.41357L15.3632 2.40851L15.3723 2.40488L15.3761 2.40838C15.3777 2.41004 15.3813 2.41422 15.3846 2.41816ZM15.3846 2.41816L15.3855 2.4193L15.4737 2.36475L15.4652 2.36806L15.3846 2.41816ZM14.8931 2.72379L14.8288 2.76355C14.8349 2.76238 14.8385 2.76157 14.8423 2.76048C14.8566 2.75632 14.8691 2.74821 14.887 2.72994L14.8931 2.72379ZM18.2421 3.18338L18.2345 3.18616L18.229 3.17103L18.2419 3.16624C18.2423 3.17175 18.2424 3.17747 18.2421 3.18338ZM18.1808 3.32655C18.2052 3.29671 18.2278 3.25405 18.2372 3.21522C18.2399 3.20411 18.2415 3.19347 18.2421 3.18338C18.5927 3.05348 18.7884 2.96994 19.0236 2.83386C19.1452 2.76354 19.2582 2.68758 19.3624 2.60479L19.3524 2.59214C19.2489 2.67443 19.1365 2.74995 19.0156 2.81989C18.7826 2.95468 18.5884 3.03778 18.2419 3.16624C18.2394 3.1335 18.2236 3.108 18.1934 3.09314C18.5002 2.99319 18.787 2.85867 18.8968 2.75054L18.8856 2.73903C18.7755 2.8474 18.4806 2.9843 18.1685 3.08419L18.1685 3.08419L18.1685 3.08419C18.0769 3.11352 17.9838 3.13966 17.8935 3.16094C17.8724 3.15082 17.8469 3.14224 17.8169 3.13537C17.6249 3.09153 17.3358 3.13793 17.1591 3.24002C17.1354 3.23402 17.1118 3.2285 17.0887 3.22355C17.1423 3.17563 17.1705 3.11413 17.1486 3.05637L17.1336 3.0621C17.1779 3.17919 16.9815 3.32076 16.8129 3.28886L16.8099 3.30471C16.9029 3.32231 17.0041 3.29012 17.0729 3.23671C17.1579 3.25428 17.251 3.2802 17.3343 3.30942L17.3345 3.31048L17.3364 3.31015C17.4343 3.34461 17.5184 3.38357 17.5598 3.41881C17.6076 3.4594 17.6328 3.4955 17.6313 3.52309C17.6296 3.55335 17.5947 3.57664 17.5201 3.58988C17.4273 3.60643 17.3678 3.6106 17.2851 3.60159L17.2368 3.59234L17.2363 3.5952C17.2056 3.5906 17.1712 3.58456 17.1312 3.57704C17.0172 3.49648 16.8424 3.41725 16.6618 3.35497L16.6566 3.37022C16.8345 3.43158 17.0072 3.5098 17.1195 3.58855L17.119 3.59116L17.1247 3.59224C17.1568 3.61511 17.1837 3.63801 17.2041 3.66053C17.2534 3.71519 17.2472 3.75147 17.193 3.77239C17.1396 3.79303 17.0447 3.79536 16.9358 3.77888C16.7312 3.74779 16.3914 3.57339 16.2188 3.41877L16.2081 3.4308C16.3124 3.52421 16.4763 3.62447 16.6358 3.69687L16.6354 3.69731C16.6747 3.73705 16.7113 3.79498 16.7277 3.8477C16.743 3.89711 16.7232 3.92124 16.678 3.91765C16.6173 3.913 16.5725 3.90245 16.514 3.87454L16.5117 3.87949C16.4837 3.84738 16.446 3.81677 16.3985 3.79074C16.2686 3.71956 16.0995 3.57002 16.0208 3.46033L16.0078 3.46976C16.0879 3.58141 16.2588 3.73257 16.3908 3.8049C16.54 3.88663 16.5857 4.01209 16.5402 4.07841C16.5 4.13707 16.3659 4.14476 16.2321 4.06508C16.0722 3.96972 15.8875 3.66664 15.8627 3.45314L15.8468 3.45501C15.8721 3.67336 16.0596 3.98093 16.2239 4.07894C16.2506 4.09487 16.2775 4.10746 16.3037 4.11695C16.3159 4.15058 16.3209 4.19253 16.3178 4.25808C16.3139 4.34026 16.2537 4.39578 16.1802 4.36795C16.1076 4.34051 16.0516 4.27951 16.0142 4.20366L15.9998 4.21082C16.0389 4.29 16.0975 4.35395 16.1745 4.38304C16.1947 4.39069 16.214 4.39289 16.2318 4.39058C16.2753 4.48303 16.2992 4.55086 16.2961 4.57554C16.2915 4.61273 16.2819 4.62407 16.2479 4.61616L16.2443 4.63187C16.2898 4.64248 16.3065 4.62293 16.3121 4.57752C16.3156 4.54882 16.292 4.48112 16.248 4.38714C16.257 4.38444 16.2655 4.38053 16.2734 4.37554C16.3346 4.45663 16.3794 4.51439 16.4346 4.58119C16.4511 4.60122 16.4673 4.62029 16.4829 4.63831C16.5408 4.70521 16.5902 4.75566 16.6288 4.78586L16.6387 4.77313C16.6011 4.74373 16.5523 4.6939 16.495 4.62773C16.4795 4.60981 16.4634 4.59083 16.447 4.57089C16.392 4.50437 16.3473 4.44679 16.2863 4.36597C16.3139 4.34225 16.3317 4.30385 16.3339 4.25884C16.3357 4.21922 16.3347 4.18769 16.3309 4.16116C16.4902 4.34576 16.8645 4.69219 16.9759 4.75542L16.9838 4.74138C16.8698 4.6767 16.4704 4.30527 16.3248 4.12906L16.3245 4.12935L16.3228 4.12331C16.4161 4.15209 16.4998 4.1414 16.5411 4.10199C16.6345 4.22433 16.9255 4.39607 17.0756 4.42484L17.0786 4.40899C16.9312 4.38074 16.6403 4.2086 16.552 4.08966L16.5535 4.08755C16.5807 4.0478 16.5796 3.99094 16.5492 3.93348C16.6553 4.02248 16.8337 4.15369 16.9988 4.2687L17.008 4.25545C16.8315 4.13252 16.6395 3.99077 16.538 3.90278C16.5845 3.92164 16.6253 3.92979 16.6767 3.93373C16.7006 3.93563 16.7194 3.93049 16.7319 3.91935C16.8441 4.03647 17.1328 4.27228 17.2475 4.32905L17.2546 4.31459C17.1413 4.25852 16.8518 4.02185 16.7419 3.90658C16.7503 3.89107 16.7512 3.86945 16.743 3.84291C16.7292 3.79834 16.7018 3.75067 16.6703 3.71211C16.766 3.75332 16.8585 3.78344 16.9334 3.79482C16.9559 3.79824 16.9779 3.80086 16.9991 3.80269L16.9981 3.80386C17.1392 3.92926 17.4008 4.1009 17.5543 4.17426L17.5612 4.1597C17.4142 4.08941 17.1661 3.92753 17.0232 3.80446C17.0659 3.80701 17.1048 3.80613 17.1379 3.80183C17.1816 3.83728 17.2627 3.88697 17.3792 3.9516L17.4262 3.97747C17.466 3.99919 17.5617 4.05035 17.621 4.08205L17.6699 4.10827L17.6776 4.09408L17.6284 4.06775L17.6283 4.06768C17.5689 4.03596 17.4735 3.98495 17.4338 3.9633L17.3869 3.93749C17.2811 3.87871 17.2045 3.83235 17.1595 3.79834C17.1742 3.79551 17.1873 3.79188 17.1988 3.78744C17.2107 3.78284 17.2208 3.77741 17.2288 3.77123C17.5263 3.95928 17.7156 4.05853 17.9093 4.10361L17.9129 4.0879C17.7224 4.04354 17.5348 3.94543 17.2409 3.75978C17.2553 3.74232 17.2576 3.72047 17.2469 3.69535C17.2806 3.70889 17.3204 3.72553 17.371 3.74713L17.5366 3.81844L17.569 3.83232C17.7545 3.91159 17.8709 3.9568 17.9508 3.97737L17.9548 3.96175C17.876 3.94146 17.76 3.8964 17.5753 3.81748L17.5429 3.80361L17.3773 3.73229C17.3173 3.70665 17.2724 3.68798 17.2347 3.67315L17.2346 3.67326C17.2295 3.66564 17.2233 3.65777 17.216 3.64969C17.2007 3.63284 17.182 3.61585 17.1604 3.59884C17.208 3.60745 17.2474 3.61367 17.2826 3.61754C17.5896 3.67748 17.8859 3.75624 17.9583 3.81852L17.9688 3.80627C17.9014 3.74829 17.6584 3.67932 17.386 3.62203C17.4278 3.62065 17.4701 3.61518 17.5229 3.60576C17.5671 3.59792 17.5995 3.58619 17.6201 3.57067L17.6202 3.57178C17.6325 3.57052 17.6445 3.56912 17.6564 3.56757C17.7954 3.6277 18.0185 3.64417 18.1261 3.59238C18.1601 3.66009 18.1075 3.76208 18.047 3.78149L18.0519 3.79686C18.0853 3.78615 18.116 3.75461 18.1346 3.71617C18.2927 3.75315 18.6481 3.76028 18.8204 3.72235L18.817 3.70604C18.6482 3.74321 18.2987 3.73646 18.1413 3.70064C18.1482 3.68257 18.1523 3.66347 18.1528 3.64461C18.3891 3.66603 18.6735 3.64819 18.8185 3.57879L18.8117 3.56366C18.6696 3.63168 18.3863 3.64928 18.1524 3.62784C18.151 3.61284 18.1471 3.59826 18.1403 3.58476L18.1455 3.58146C18.1638 3.56937 18.1788 3.5559 18.1906 3.54158C18.4814 3.49978 18.6958 3.43219 18.8914 3.33409C18.9338 3.31286 19.0224 3.26287 19.094 3.22246L19.094 3.22244L19.0941 3.22243L19.0941 3.22241C19.1417 3.19555 19.1818 3.17294 19.1958 3.16583C19.2213 3.15287 19.2451 3.14188 19.2686 3.1324L19.2626 3.11743C19.2387 3.1271 19.2144 3.13828 19.1885 3.15144C19.1742 3.15871 19.1335 3.18167 19.0854 3.20881L19.0854 3.20881L19.0854 3.20882L19.0854 3.20882L19.0854 3.20883C19.0139 3.24916 18.9261 3.2987 18.8843 3.31966C18.6936 3.41527 18.4849 3.48167 18.2036 3.52338C18.2167 3.50204 18.2232 3.47944 18.2235 3.45717C18.7124 3.3343 19.1358 3.15101 19.4205 2.9167L19.4103 2.90423C19.1284 3.13631 18.7081 3.31844 18.2226 3.44078C18.2181 3.40549 18.1975 3.37209 18.1619 3.34718C18.4202 3.2919 18.5898 3.21606 18.9167 3.03347L18.9381 3.02154C19.0309 2.9697 19.081 2.94238 19.1388 2.91274L19.1314 2.89838C19.0735 2.92813 19.0233 2.95552 18.9303 3.00744L18.9089 3.01938C18.5928 3.19593 18.4248 3.27206 18.1808 3.32655ZM18.1615 3.34692C18.1679 3.34119 18.1744 3.3343 18.1808 3.32655L18.1576 3.33161L18.1607 3.34641L18.1527 3.34113L18.1443 3.35489L18.1485 3.35759C18.0096 3.46857 17.8725 3.53418 17.6884 3.56299C17.6795 3.5597 17.6708 3.55623 17.6624 3.55261L17.6561 3.56741L17.6564 3.56757C17.6672 3.56616 17.6779 3.56464 17.6884 3.56299C17.8332 3.61624 18.0496 3.62555 18.1367 3.56799C18.2292 3.50685 18.2288 3.41019 18.1485 3.35759L18.1571 3.35067L18.161 3.34737L18.1619 3.34718L18.1615 3.34692ZM18.1615 3.34692L18.1607 3.34641L18.1609 3.34738L18.161 3.34737L18.1615 3.34692ZM18.2226 3.44078L18.2105 3.4438L18.2144 3.45945L18.2235 3.45717C18.2236 3.45168 18.2233 3.44621 18.2226 3.44078ZM18.2036 3.52338L18.1823 3.52648L18.1845 3.54245L18.1906 3.54158C18.1955 3.53565 18.1998 3.52957 18.2036 3.52338ZM18.1524 3.62784C18.1529 3.63338 18.153 3.63899 18.1528 3.64461L18.144 3.64379L18.1455 3.62719L18.1524 3.62784ZM18.1413 3.70064L18.1322 3.69849L18.1285 3.7147L18.1346 3.71617C18.137 3.7111 18.1393 3.70592 18.1413 3.70064ZM18.1403 3.58476C18.1358 3.58745 18.1311 3.58999 18.1261 3.59238L18.1234 3.5873L18.1373 3.57917L18.1403 3.58476ZM17.6369 3.55372L17.6186 3.55573L17.6201 3.57067C17.627 3.56545 17.6326 3.5598 17.6369 3.55372ZM17.6005 3.43463C17.6323 3.46725 17.6488 3.49726 17.6473 3.52397C17.6467 3.53481 17.6433 3.54473 17.6369 3.55372C17.8473 3.52925 17.9952 3.46139 18.147 3.33814C18.1765 3.31411 18.21 3.25929 18.2216 3.21142C18.2352 3.15509 18.2195 3.11565 18.169 3.10101L18.1934 3.09314C18.186 3.0895 18.1777 3.0865 18.1685 3.08419L18.1685 3.08419L18.1646 3.09983L18.169 3.10101C18.0842 3.128 17.9983 3.15226 17.9145 3.1725C17.9081 3.16845 17.9011 3.1646 17.8935 3.16094L17.8929 3.16106L17.8966 3.17677L17.9145 3.1725C17.9441 3.19109 17.9616 3.21377 17.9674 3.23976C17.9759 3.27837 17.9569 3.3209 17.922 3.35388C17.8623 3.41033 17.7337 3.44344 17.6005 3.43463ZM17.5821 3.41694L17.5803 3.41676L17.5787 3.43281C17.586 3.43354 17.5933 3.43415 17.6005 3.43463C17.5949 3.42881 17.5887 3.42292 17.5821 3.41694ZM17.3691 3.30481C17.4569 3.33738 17.5312 3.37329 17.5702 3.4065L17.5821 3.41694C17.718 3.43022 17.8522 3.39778 17.911 3.34214C17.9421 3.31269 17.9588 3.27544 17.9517 3.24326C17.9428 3.20317 17.8986 3.17059 17.8133 3.1511C17.6305 3.10935 17.356 3.15146 17.1817 3.24585L17.1591 3.24002L17.1552 3.24234L17.1633 3.25626C17.1693 3.25272 17.1754 3.24926 17.1817 3.24585C17.2343 3.25975 17.2872 3.27586 17.3368 3.29318L17.3318 3.29404L17.3343 3.30942L17.3364 3.31015L17.3691 3.30481ZM17.3691 3.30481C17.4987 3.28478 17.6999 3.26526 17.8041 3.26526V3.24859C17.6906 3.24859 17.464 3.27145 17.3368 3.29318C17.3478 3.297 17.3586 3.30088 17.3691 3.30481ZM17.386 3.62203C17.3529 3.62313 17.3201 3.62166 17.2826 3.61754L17.2339 3.6082L17.2363 3.5952C17.2536 3.59779 17.2697 3.59991 17.2851 3.60159C17.319 3.6082 17.3527 3.61503 17.386 3.62203ZM17.2346 3.67326L17.2288 3.68817L17.2469 3.69535C17.2438 3.68824 17.2398 3.68087 17.2346 3.67326ZM17.2409 3.75978C17.2375 3.76384 17.2335 3.76766 17.2288 3.77123L17.2237 3.76799L17.2323 3.75435L17.2409 3.75978ZM17.1595 3.79834C17.1547 3.7947 17.1503 3.7912 17.1462 3.78784L17.136 3.80032L17.1379 3.80183C17.1454 3.80084 17.1526 3.79968 17.1595 3.79834ZM17.0232 3.80446C17.0153 3.80399 17.0073 3.8034 16.9991 3.80269L17.0087 3.79178L17.0232 3.80446ZM16.7419 3.90658L16.7376 3.90197L16.7259 3.91302L16.7319 3.91935C16.7359 3.91572 16.7393 3.91145 16.7419 3.90658ZM16.5267 3.89801L16.538 3.90278C16.5301 3.89592 16.5227 3.88938 16.516 3.88321L16.5154 3.88384L16.5117 3.87949L16.5071 3.8891L16.5096 3.89027L16.5052 3.89514C16.5179 3.90674 16.5327 3.9196 16.5492 3.93348C16.5429 3.92164 16.5354 3.90976 16.5267 3.89801ZM16.5267 3.89801C16.5211 3.89559 16.5154 3.89301 16.5096 3.89027L16.5154 3.88384C16.5194 3.88854 16.5231 3.89326 16.5267 3.89801ZM16.552 4.08966C16.5488 4.09404 16.5451 4.09815 16.5411 4.10199L16.5342 4.09248L16.5474 4.08328L16.552 4.08966ZM16.3245 4.12935C16.3271 4.13919 16.3293 4.14971 16.3309 4.16116C16.3244 4.15361 16.3182 4.14633 16.3124 4.13935L16.3245 4.12935ZM16.2863 4.36597L16.2816 4.35966L16.2688 4.36939L16.2734 4.37554C16.2779 4.3727 16.2822 4.36949 16.2863 4.36597ZM16.248 4.38714L16.2426 4.37564L16.2281 4.38258L16.2318 4.39058C16.2374 4.38986 16.2428 4.38871 16.248 4.38714ZM16.3228 4.12331C16.3165 4.12137 16.3101 4.11926 16.3037 4.11695L16.3029 4.11459L16.3179 4.10892C16.3197 4.11357 16.3213 4.11836 16.3228 4.12331ZM16.6703 3.71211C16.6588 3.70719 16.6473 3.7021 16.6358 3.69687L16.6468 3.68594C16.6548 3.69402 16.6626 3.7028 16.6703 3.71211ZM17.1604 3.59884C17.1512 3.59157 17.1414 3.5843 17.1312 3.57704L17.122 3.57531L17.1195 3.58855L17.1247 3.59224L17.1604 3.59884ZM17.0729 3.23671C17.0783 3.23245 17.0836 3.22806 17.0887 3.22355L17.069 3.21946L17.0658 3.23527L17.0729 3.23671ZM16.0919 3.07327C16.0245 3.09243 15.9867 3.1118 15.9158 3.15742L15.9243 3.17159C15.994 3.12673 16.0306 3.10799 16.0961 3.08934L16.0919 3.07327ZM16.4052 3.40626C16.5902 3.51125 16.8389 3.62926 17.0116 3.69198L17.0171 3.67682C16.8453 3.61442 16.5974 3.49679 16.4131 3.39222L16.4052 3.40626ZM17.0779 3.41536C16.9444 3.38781 16.8291 3.36977 16.7129 3.35966L16.7143 3.34359C16.8312 3.35376 16.9471 3.37189 17.0811 3.39956C17.1349 3.41066 17.1904 3.423 17.2616 3.43946L17.4472 3.48273L17.4436 3.49845L17.258 3.45518C17.1869 3.43874 17.1315 3.42643 17.0779 3.41536ZM15.9268 3.4712C15.9595 3.56979 16.1908 3.8601 16.2998 3.9289L16.3084 3.91525C16.2024 3.84841 15.9735 3.5611 15.9421 3.46611L15.9268 3.4712ZM16.1299 4.17004C16.0938 4.08189 15.8702 3.74796 15.7505 3.59058L15.7633 3.58079C15.8839 3.73934 16.108 4.07398 16.1448 4.16392L16.1299 4.17004ZM16.0735 3.44844C16.1481 3.53334 16.3926 3.72003 16.504 3.76504L16.51 3.75008C16.4011 3.70609 16.1586 3.52091 16.0855 3.43777L16.0735 3.44844ZM15.6193 2.54377C15.5743 2.56716 15.5415 2.60136 15.5144 2.64899L15.5283 2.65745C15.5539 2.61244 15.5845 2.58052 15.6265 2.55867L15.6193 2.54377ZM14.8722 3.07067C14.8677 3.00996 14.874 2.93092 14.8905 2.87414L14.9059 2.87865C14.89 2.93343 14.8839 3.01058 14.8882 3.06949L14.8722 3.07067ZM14.8831 3.17068C14.87 3.22696 14.8797 3.35793 14.8977 3.43035L14.9133 3.42645C14.8959 3.35629 14.8863 3.22771 14.8988 3.17437L14.8831 3.17068ZM14.94 3.60385C14.9325 3.59197 14.9269 3.58078 14.9233 3.57027L14.9384 3.56464C14.9416 3.5738 14.9466 3.58388 14.9535 3.59475C14.962 3.60836 14.9731 3.62286 14.9864 3.63835C14.9973 3.65116 15.0063 3.66079 15.0234 3.67865L15.012 3.6904C14.9947 3.67234 14.9856 3.66254 14.9743 3.64943C14.9606 3.63336 14.949 3.61825 14.94 3.60385ZM15.0025 3.26699C14.9952 3.36055 15.0465 3.53813 15.0987 3.59834C15.1102 3.69794 15.1792 3.84049 15.2766 3.93873L15.288 3.92736C15.1931 3.83164 15.1257 3.69237 15.1127 3.59201C15.0616 3.53098 15.0115 3.3577 15.0185 3.26826L15.0025 3.26699ZM14.9809 3.16269C14.9725 3.10356 14.9706 3.04426 14.9773 3.00659L14.9931 3.00944C14.9867 3.04508 14.9887 3.10286 14.9968 3.16043L14.9809 3.16269ZM15.119 2.63935C15.087 2.72017 15.0691 2.89118 15.0787 2.95793C15.0805 2.97072 15.0802 2.97395 15.0746 3.02765C15.0643 3.12557 15.0684 3.19983 15.1008 3.29576L15.116 3.29059C15.0845 3.19721 15.0805 3.12514 15.0906 3.02934C15.0965 2.97321 15.0967 2.9705 15.0946 2.95566C15.0854 2.89161 15.103 2.72344 15.134 2.64531L15.119 2.63935ZM15.2312 3.25897C15.1969 3.1438 15.1957 2.86727 15.2311 2.72095L15.2467 2.72475C15.2119 2.8684 15.2131 3.14205 15.2466 3.25435L15.2312 3.25897ZM15.1875 3.30236C15.1681 3.38826 15.1701 3.48771 15.195 3.56256L15.2102 3.55746C15.1864 3.48557 15.1844 3.38909 15.2031 3.30592L15.1875 3.30236ZM15.4792 3.17056C15.3829 3.06298 15.3246 2.90255 15.3286 2.7773L15.3446 2.77782C15.3408 2.89891 15.3976 3.05529 15.4912 3.15978L15.4792 3.17056ZM15.3033 3.17924C15.2922 3.31821 15.3001 3.44586 15.3254 3.51879C15.3319 3.53761 15.3365 3.56049 15.3429 3.60239L15.3492 3.6432C15.3517 3.65928 15.3541 3.67281 15.3565 3.68579C15.3687 3.74906 15.3846 3.79563 15.4099 3.83162L15.423 3.82234C15.3993 3.78861 15.3841 3.74396 15.3723 3.68274C15.3699 3.66996 15.3676 3.65659 15.3651 3.64068L15.3588 3.59993C15.3522 3.55706 15.3475 3.53355 15.3406 3.51349C15.3162 3.44309 15.3083 3.31746 15.3193 3.18053L15.3033 3.17924ZM15.4327 3.40583L15.4267 3.38299L15.4422 3.37884L15.4483 3.40179C15.4566 3.43412 15.4615 3.45849 15.4638 3.48282C15.4671 3.51795 15.464 3.54827 15.4527 3.5742L15.438 3.56776C15.448 3.54466 15.4509 3.51697 15.4478 3.48434C15.4456 3.46104 15.4408 3.4374 15.4327 3.40583ZM15.521 3.27721C15.5477 3.36504 15.5644 3.47251 15.5605 3.51922L15.5765 3.52054C15.5806 3.47149 15.5636 3.36212 15.5364 3.2725L15.521 3.27721ZM15.6341 3.98814C15.601 3.92993 15.571 3.83695 15.5641 3.76191L15.5801 3.76044C15.5868 3.83314 15.616 3.9239 15.648 3.98014L15.6341 3.98814ZM15.4449 3.98307C15.4753 4.07455 15.5274 4.16899 15.5745 4.20622L15.5844 4.19355C15.5404 4.15874 15.4896 4.06672 15.4602 3.97798L15.4449 3.98307ZM15.8907 4.23906C15.8585 4.1416 15.8374 4.09424 15.7866 4.02182L15.7997 4.01253C15.8516 4.08651 15.8733 4.13515 15.906 4.23399L15.8907 4.23906Z" fill="black"/>
<path fill-rule="evenodd" clip-rule="evenodd" d="M15.1982 4.04338C15.2082 4.04445 15.2144 4.04485 15.2317 4.04571C15.2717 4.04772 15.2858 4.0518 15.3038 4.0709C15.3157 4.08349 15.3275 4.10252 15.3402 4.13023C15.3847 4.22694 15.5063 4.3748 15.5773 4.42087L15.5773 4.42091C15.6713 4.58648 15.7131 4.80504 15.6839 4.92235C15.6755 4.87074 15.6463 4.83103 15.6012 4.7985C15.5837 4.78586 15.5725 4.77943 15.5421 4.76321C15.5018 4.79842 15.4431 4.83895 15.4135 4.84528L15.4168 4.86106C15.4503 4.85391 15.5116 4.81156 15.5443 4.77577C15.5591 4.78873 15.5688 4.79551 15.5797 4.80302L15.5918 4.81159C15.6338 4.84188 15.6605 4.87822 15.6681 4.92517L15.6839 4.92261L15.6828 4.92667L15.6983 4.93089C15.7295 4.81516 15.6918 4.60238 15.6029 4.43424C15.7124 4.48469 15.7825 4.54156 15.7962 4.62176L15.8114 4.62369L15.8193 4.60604C15.8558 4.52374 15.8697 4.46718 15.8558 4.40878L15.8572 4.41044L15.87 4.42592C15.9103 4.47446 15.94 4.51018 15.9619 4.53718L15.9604 4.5374C15.9626 4.55276 15.9646 4.57615 15.967 4.61183L15.9748 4.733C15.9806 4.81773 15.9864 4.87417 15.9942 4.91099L16.0099 4.90761C16.0023 4.87181 15.9966 4.81584 15.9908 4.7319L15.9831 4.61074C15.9816 4.58916 15.9803 4.57202 15.979 4.55834C16.0133 4.6013 16.0222 4.61635 16.0268 4.63262C16.0282 4.6375 16.0292 4.64249 16.0304 4.64838L16.0318 4.65496C16.0452 4.71908 16.0967 4.80703 16.1484 4.86353L16.1602 4.85262C16.1103 4.79808 16.0602 4.71257 16.0475 4.65164L16.0458 4.64319L16.0458 4.64319C16.0445 4.63681 16.0434 4.63144 16.0419 4.62619C16.0339 4.59814 16.0136 4.57362 15.8844 4.41805L15.8695 4.40011C15.8585 4.38689 15.8486 4.37478 15.8393 4.36309L15.8257 4.37151C15.8577 4.44122 15.8487 4.49915 15.8064 4.59549C15.7825 4.51866 15.7093 4.46434 15.6009 4.41562C15.5383 4.38753 15.4016 4.22521 15.3548 4.12347C15.3414 4.0943 15.3287 4.07385 15.3155 4.0598C15.2938 4.03689 15.2763 4.0318 15.2325 4.0296C15.2156 4.02876 15.2095 4.02837 15.1999 4.02734L15.1982 4.04338ZM15.979 4.55834C15.9781 4.54915 15.9773 4.54151 15.9764 4.53513L15.9619 4.53718C15.9682 4.54492 15.9739 4.55194 15.979 4.55834ZM15.6839 4.92261L15.684 4.92259L15.6839 4.92235L15.6839 4.92261ZM15.6029 4.43424L15.5943 4.43034C15.5891 4.42799 15.5834 4.4248 15.5773 4.42087L15.5912 4.41292C15.5952 4.41993 15.5991 4.42705 15.6029 4.43424ZM15.3109 4.28784C15.339 4.37294 15.3614 4.47512 15.3637 4.53426L15.3797 4.53363C15.3774 4.47274 15.3547 4.36918 15.3261 4.28276L15.3109 4.28784ZM15.5545 4.7074C15.552 4.65967 15.522 4.53466 15.4922 4.45138L15.5073 4.44593C15.5376 4.53056 15.5679 4.657 15.5705 4.70655L15.5545 4.7074ZM15.8352 4.67832C15.8586 4.73473 15.8733 4.82378 15.8686 4.87684L15.8846 4.87827C15.8896 4.82254 15.8744 4.7309 15.8501 4.67214L15.8352 4.67832Z" fill="black"/>
</g>
</svg>
