<svg width="21" height="15" viewBox="0 0 21 15" fill="none" xmlns="http://www.w3.org/2000/svg">
<rect width="21" height="15" rx="2" fill="white"/>
<mask id="mask0_2314_22455" style="mask-type:alpha" maskUnits="userSpaceOnUse" x="0" y="0" width="21" height="15">
<rect width="21" height="15" rx="2" fill="white"/>
</mask>
<g mask="url(#mask0_2314_22455)">
<path fill-rule="evenodd" clip-rule="evenodd" d="M0 2H21V0H0V2Z" fill="#369D0C"/>
<path fill-rule="evenodd" clip-rule="evenodd" d="M0 15H21V13H0V15Z" fill="#369D0C"/>
<path fill-rule="evenodd" clip-rule="evenodd" d="M0 6H21V4H0V6Z" fill="#369D0C"/>
<path fill-rule="evenodd" clip-rule="evenodd" d="M0 11H21V9H0V11Z" fill="#369D0C"/>
<path fill-rule="evenodd" clip-rule="evenodd" d="M0 9H21V6H0V9Z" fill="#262626"/>
<path fill-rule="evenodd" clip-rule="evenodd" d="M0 4H21V2H0V4Z" fill="#FFD40E"/>
<path fill-rule="evenodd" clip-rule="evenodd" d="M0 13H21V11H0V13Z" fill="#FFD40E"/>
<path d="M8.88889 7.5L-0.222222 14.3333H-0.333333V0.666667H-0.222222L8.88889 7.5Z" fill="white" stroke="#262626" stroke-width="1.33333"/>
<path fill-rule="evenodd" clip-rule="evenodd" d="M3 8.475L1.53054 9.52254L2.07272 7.80129L0.622359 6.72746L2.42691 6.71121L3 5L3.57309 6.71121L5.37764 6.72746L3.92728 7.80129L4.46946 9.52254L3 8.475Z" fill="url(#paint0_linear_2314_22455)"/>
</g>
<defs>
<linearGradient id="paint0_linear_2314_22455" x1="0.5" y1="5" x2="0.5" y2="10" gradientUnits="userSpaceOnUse">
<stop stop-color="#F12F1F"/>
<stop offset="1" stop-color="#DE2010"/>
</linearGradient>
</defs>
</svg>
