<svg xmlns="http://www.w3.org/2000/svg" width="116" height="116" fill="none" viewBox="0 0 32.9 116">
  <defs>
    <clipPath id="a" clipPathUnits="userSpaceOnUse">
      <path d="M.198 115.791.17-.46c49.053-.244 92.621.232 136.065.106l.081 116.473z" style="fill:none;stroke:#000;stroke-width:1px;stroke-linecap:butt;stroke-linejoin:miter;stroke-opacity:1"/>
    </clipPath>
  </defs>
  <path fill="#ff5700" fill-rule="evenodd" d="M119.947 57.636c0 31.812-25.789 57.601-57.601 57.601-12.85 0-24.716-4.207-34.298-11.32q2.462 1.381 5.071 2.5a52.8 52.8 0 0 0 20.867 4.311 53.06 53.06 0 0 0 52.884-49q.216-1.884.237-3.78c0-1.607-.134-3.474-.297-5.166-.015-.162-.02-.326-.025-.49-.006-.19-.012-.38-.033-.565l-.046.046a108 108 0 0 0-.489-3.913H64.416l-3.247 6.076-7.465 14.1h31.584a33 33 0 0 1-5.166 9.685 32.88 32.88 0 0 1-26.136 12.918 32.9 32.9 0 0 1-11.342-2.043 32.98 32.98 0 0 1-21.66-30.96 33.004 33.004 0 0 1 33.002-33.004 32.86 32.86 0 0 1 19.455 6.342l4.332-8.106 5.16-9.747a52.84 52.84 0 0 0-28.947-8.579 53.1 53.1 0 0 0-25.765 6.684C37.772 4.191 49.574.034 62.346.034c31.812 0 57.601 25.79 57.601 57.602" clip-path="url(#a)" clip-rule="evenodd" transform="translate(-54.576 .362)"/>
</svg>
