<svg xmlns="http://www.w3.org/2000/svg" width="48" height="48" fill="none">
  <path fill="url(#a)" fill-rule="evenodd" d="M23.129 9.512c.74-.67 1.255-.813 1.47-.813.217 0 .731.143 1.472.813.71.642 1.491 1.65 2.22 3.035 1.308 2.49 2.378 6.072 2.576 10.552H18.333c.198-4.48 1.267-8.062 2.576-10.552.728-1.385 1.51-2.393 2.22-3.035M15.33 23.099c.2-4.937 1.376-9.003 2.924-11.948a18 18 0 0 1 .872-1.484C13.49 11.733 9.35 16.899 8.77 23.099zm-6.56 3h6.56c.2 4.936 1.375 9.003 2.924 11.948q.416.793.872 1.485C13.49 37.465 9.35 32.299 8.77 26.099m9.563 0h12.534c-.198 4.48-1.268 8.062-2.576 10.552-.729 1.385-1.51 2.394-2.22 3.035-.74.67-1.255.813-1.471.813s-.73-.143-1.471-.813c-.71-.641-1.492-1.65-2.22-3.035-1.309-2.49-2.378-6.072-2.576-10.552m15.537 0c-.2 4.936-1.376 9.003-2.924 11.948a18 18 0 0 1-.872 1.485c5.636-2.066 9.776-7.233 10.356-13.433zm6.56-3c-.58-6.2-4.72-11.366-10.356-13.433q.455.692.872 1.485c1.548 2.945 2.723 7.011 2.924 11.948zm-15.83 20.4h-.004C14.16 43.497 5.7 35.036 5.7 24.6c0-10.438 8.462-18.9 18.9-18.9s18.9 8.462 18.9 18.9-8.462 18.9-18.9 18.9Z" clip-rule="evenodd"/>
  <defs>
    <linearGradient id="a" x1="24.6" x2="24.6" y1="5.699" y2="43.499" gradientUnits="userSpaceOnUse">
      <stop stop-color="#F65128"/>
      <stop offset="1" stop-color="#F65128" stop-opacity=".08"/>
    </linearGradient>
  </defs>
</svg>
