<svg xmlns="http://www.w3.org/2000/svg" width="48" height="48" fill="none">
  <path fill="url(#a)" fill-rule="evenodd" d="M16.7 23.82a1.5 1.5 0 0 1-2.12.078l-8.4-7.8a1.5 1.5 0 0 1 0-2.198l8.4-7.8a1.5 1.5 0 0 1 2.04 2.198l-5.6 5.201H32.4a1.5 1.5 0 0 1 0 3H11.02l5.6 5.201a1.5 1.5 0 0 1 .08 2.12m17.92 1.48a1.5 1.5 0 0 0-2.04 2.199l5.6 5.2H16.8a1.5 1.5 0 0 0 0 3h21.38l-5.6 5.202a1.5 1.5 0 0 0 2.04 2.198l8.4-7.8a1.5 1.5 0 0 0 0-2.198l-8.4-7.8Z" clip-rule="evenodd"/>
  <defs>
    <linearGradient id="a" x1="24.6" x2="24.6" y1="5.699" y2="43.5" gradientUnits="userSpaceOnUse">
      <stop stop-color="#F65128"/>
      <stop offset="1" stop-color="#F65128" stop-opacity=".08"/>
    </linearGradient>
  </defs>
</svg>
