<svg xmlns="http://www.w3.org/2000/svg" width="48" height="48" fill="none">
  <path fill="url(#a)" fill-rule="evenodd" d="M8.7 9.6a.9.9 0 0 1 .9-.9h23.7v10.2H9.6a.9.9 0 0 1-.9-.9zm27.6 9.3V8.7h3.3a.9.9 0 0 1 .9.9V18a.9.9 0 0 1-.9.9zM9.6 5.7a3.9 3.9 0 0 0-3.9 3.9V18a3.9 3.9 0 0 0 3.9 3.9h30a3.9 3.9 0 0 0 3.9-3.9V9.6a3.9 3.9 0 0 0-3.9-3.9zm-.9 25.499a.9.9 0 0 1 .9-.9h23.7v10.2H9.6a.9.9 0 0 1-.9-.9zm27.6 9.3h3.3a.9.9 0 0 0 .9-.9v-8.4a.9.9 0 0 0-.9-.9h-3.3zm-26.7-13.2a3.9 3.9 0 0 0-3.9 3.9v8.4a3.9 3.9 0 0 0 3.9 3.9h30a3.9 3.9 0 0 0 3.9-3.9v-8.4a3.9 3.9 0 0 0-3.9-3.9z" clip-rule="evenodd"/>
  <defs>
    <linearGradient id="a" x1="24.6" x2="24.6" y1="5.699" y2="43.499" gradientUnits="userSpaceOnUse">
      <stop stop-color="#F65128"/>
      <stop offset="1" stop-color="#F65128" stop-opacity=".08"/>
    </linearGradient>
  </defs>
</svg>
