<svg xmlns="http://www.w3.org/2000/svg" width="20" height="20" fill="none">
  <path stroke="#F65128" stroke-linecap="round" stroke-linejoin="round" stroke-width="1.5" d="M15.992 4.042h1.717m-15.417 0h10.275m1.717 1.7c.948 0 1.717-.761 1.717-1.7 0-.94-.769-1.7-1.717-1.7s-1.717.76-1.717 1.7c0 .939.769 1.7 1.717 1.7m1.708 10.216h1.717m-15.417 0h10.275m1.717 1.7c.948 0 1.717-.76 1.717-1.7 0-.938-.769-1.7-1.717-1.7a1.71 1.71 0 0 0-1.717 1.7c0 .94.769 1.7 1.717 1.7M7.434 10h10.275M2.292 10h1.717m1.709 1.7c.948 0 1.716-.761 1.716-1.7s-.768-1.7-1.716-1.7S4 9.061 4 10s.769 1.7 1.717 1.7Z"/>
</svg>
