<svg xmlns="http://www.w3.org/2000/svg" width="21" height="16" fill="none">
  <rect width="21" height="15" y=".5" fill="#fff" rx="2"/>
  <mask id="a" width="21" height="16" x="0" y="0" maskUnits="userSpaceOnUse" style="mask-type:alpha">
    <rect width="21" height="15" y=".5" fill="#fff" rx="2"/>
  </mask>
  <g mask="url(#a)">
    <path fill="#3370EB" d="M0 .5h21v15H0z"/>
    <path fill="#fff" fill-rule="evenodd" d="M10.5 13.5a5.5 5.5 0 1 0 0-11 5.5 5.5 0 0 0 0 11m4.473-5a4.5 4.5 0 0 1-2.81 3.683c.487-.993.772-2.287.827-3.683h1.982Zm-2.984 0c-.073 1.687-.513 3.178-1.2 3.99a5 5 0 0 1-.578 0c-.687-.812-1.127-2.303-1.2-3.99zm-3.98 0c.056 1.396.34 2.69.828 3.683A4.5 4.5 0 0 1 6.027 8.5zm1.002-1h2.978c-.073-1.687-.513-3.178-1.2-3.99a5 5 0 0 0-.578 0c-.687.812-1.127 2.303-1.2 3.99m-.174-3.683c-.488.993-.772 2.287-.827 3.683H6.027a4.5 4.5 0 0 1 2.81-3.683M14.973 7.5H12.99c-.055-1.396-.34-2.69-.827-3.683a4.5 4.5 0 0 1 2.81 3.683" clip-rule="evenodd"/>
  </g>
</svg>
