<svg xmlns="http://www.w3.org/2000/svg" width="44" height="17" fill="none">
  <path fill="#fff" d="M.817 16V.6h10.736v3.19H4.447v9.02h7.326V16zm1.76-6.314V6.65h7.986v3.036zm16.924 6.534q-1.518 0-2.75-.352a7.4 7.4 0 0 1-2.156-1.056 9 9 0 0 1-1.694-1.65l2.266-2.574q1.1 1.475 2.2 1.98a5.6 5.6 0 0 0 2.31.506q.594 0 1.078-.154.484-.155.748-.44a1.1 1.1 0 0 0 .264-.748q0-.33-.176-.594a1.5 1.5 0 0 0-.44-.462 3.3 3.3 0 0 0-.682-.352 5 5 0 0 0-.836-.286 9 9 0 0 0-.902-.22q-1.275-.285-2.222-.704-.946-.418-1.584-1.012A4.1 4.1 0 0 1 14 6.716a4.8 4.8 0 0 1-.308-1.76q0-1.035.462-1.892a4.8 4.8 0 0 1 1.276-1.496A5.8 5.8 0 0 1 17.3.6a6.9 6.9 0 0 1 2.2-.352q1.518 0 2.596.33 1.1.308 1.87.902.792.594 1.342 1.43l-2.31 2.222a4.7 4.7 0 0 0-1.012-.946 4.2 4.2 0 0 0-1.144-.572 3.9 3.9 0 0 0-1.232-.198q-.66 0-1.144.176-.462.155-.726.462a1 1 0 0 0-.264.704q0 .375.22.638.22.264.594.484.374.199.858.352.484.132 1.012.22 1.21.242 2.178.638.99.396 1.694.968.726.572 1.1 1.364.396.77.396 1.804 0 1.606-.792 2.728-.77 1.1-2.134 1.694-1.342.572-3.102.572Zm8.24-.22V.6h3.343l5.61 9.13-2.398-.022L39.972.6h3.212V16h-3.63v-4.796q0-1.98.088-3.564a38 38 0 0 1 .352-3.146l.418 1.144-4.268 6.622h-1.452l-4.18-6.578.418-1.188q.243 1.475.33 3.036.11 1.54.11 3.674V16h-3.63Z"/>
</svg>
