<svg xmlns="http://www.w3.org/2000/svg" width="44" height="17" fill="none">
  <path fill="#fff" d="M.817 16V.6h10.736v3.19H4.447v9.02h7.326V16H.817Zm1.76-6.314V6.65h7.986v3.036H2.577Zm16.924 6.534c-1.012 0-1.929-.117-2.75-.352a7.383 7.383 0 0 1-2.156-1.056 9.015 9.015 0 0 1-1.694-1.65l2.266-2.574c.733.983 1.467 1.643 2.2 1.98a5.563 5.563 0 0 0 2.31.506c.396 0 .755-.051 1.078-.154.323-.103.572-.25.748-.44a1.11 1.11 0 0 0 .264-.748c0-.22-.059-.418-.176-.594a1.457 1.457 0 0 0-.44-.462 3.292 3.292 0 0 0-.682-.352 5.097 5.097 0 0 0-.836-.286 8.991 8.991 0 0 0-.902-.22c-.85-.19-1.591-.425-2.222-.704-.63-.279-1.159-.616-1.584-1.012A4.104 4.104 0 0 1 14 6.716a4.82 4.82 0 0 1-.308-1.76c0-.69.154-1.32.462-1.892a4.816 4.816 0 0 1 1.276-1.496A5.809 5.809 0 0 1 17.3.6a6.911 6.911 0 0 1 2.2-.352c1.012 0 1.877.11 2.596.33.733.205 1.357.506 1.87.902.528.396.975.873 1.342 1.43l-2.31 2.222a4.708 4.708 0 0 0-1.012-.946 4.181 4.181 0 0 0-1.144-.572 3.87 3.87 0 0 0-1.232-.198c-.44 0-.821.059-1.144.176-.308.103-.55.257-.726.462a1 1 0 0 0-.264.704c0 .25.073.462.22.638.147.176.345.337.594.484.25.132.535.25.858.352.323.088.66.161 1.012.22.807.161 1.533.374 2.178.638.66.264 1.225.587 1.694.968.484.381.85.836 1.1 1.364.264.513.396 1.115.396 1.804 0 1.07-.264 1.98-.792 2.728-.513.733-1.225 1.298-2.134 1.694-.895.381-1.929.572-3.102.572Zm8.24-.22V.6h3.343l5.61 9.13-2.398-.022L39.972.6h3.212V16h-3.63v-4.796c0-1.32.03-2.508.088-3.564a37.92 37.92 0 0 1 .352-3.146l.418 1.144-4.268 6.622h-1.452l-4.18-6.578.418-1.188c.162.983.272 1.995.33 3.036.074 1.027.11 2.251.11 3.674V16h-3.63Z"/>
</svg>
