<svg xmlns="http://www.w3.org/2000/svg" width="107" height="22" fill="none">
  <path fill="#fff" d="m40.235 5.833-2.33 8.934-2.331-8.934h-2.347l.543 1.917-2.047 7.317-2.238-9.234h-2.256L30.404 17.5h2.472l1.905-6.242L36.56 17.5h2.464l3.34-11.667zm23.714 3.384a7.5 7.5 0 0 0-1.554-.192c-2.84 0-4.393 1.892-4.393 4.667 0 2.758 1.553 4.016 3.383 4.016a4.56 4.56 0 0 0 2.673-.975v.767h1.946V5.833h-2.055zm0 5.9c-.668.608-1.295.941-1.955.941-1.136 0-1.862-.75-1.862-2.508 0-1.9.902-2.892 2.472-2.892.46 0 .919.092 1.337.259v4.2zm-9.823-4.534h-.075V9.217h-1.922V17.5h2.064v-4.933c.643-1.217 1.428-1.617 2.74-1.617h.208V9.167a6 6 0 0 0-.56-.034c-1.119 0-1.887.434-2.455 1.459zM46.29 9.008c-2.84 0-4.177 1.834-4.177 4.359 0 2.516 1.337 4.333 4.177 4.333s4.193-1.817 4.193-4.333c0-2.525-1.37-4.359-4.202-4.359zm0 7.034c-1.337 0-2.055-.867-2.055-2.675 0-1.817.718-2.684 2.063-2.684 1.337 0 2.038.867 2.038 2.684 0 1.808-.71 2.675-2.055 2.675zm33.67-5.467h-.066V9.217h-1.93V17.5h2.055v-4.933c.643-1.217 1.428-1.617 2.74-1.617h.209V9.167a6 6 0 0 0-.56-.034c-1.111 0-1.88.434-2.456 1.459h.008zm-7.584-4.742H68.55V17.5h2.206v-4.058h1.612c2.497 0 4.31-1.342 4.31-3.85 0-2.5-1.813-3.759-4.31-3.759zm.017 5.9h-1.637V7.558h1.628c1.337 0 1.988.734 1.988 2.034 0 1.308-.61 2.141-1.988 2.141zm30.087-.191c0-.625.685-.867 1.42-.867a8.3 8.3 0 0 1 2.297.358v-1.7a8.5 8.5 0 0 0-2.464-.316c-1.988 0-3.383.941-3.383 2.475 0 2.975 4.11 2.208 4.11 3.658 0 .708-.643.9-1.587.9-.669 0-1.729-.25-2.498-.525v1.692a6.9 6.9 0 0 0 2.422.491c1.938 0 3.784-.575 3.784-2.641.025-2.875-4.093-2.134-4.093-3.525zM87.863 9.017c-2.656 0-4.034 2.058-4.034 4.3 0 3.083 1.62 4.391 4.26 4.391a9.9 9.9 0 0 0 3.049-.475v-1.708c-.86.317-1.646.508-2.481.508-1.537 0-2.564-.416-2.614-2.225h5.312c.05-.408.075-.816.067-1.216 0-1.75-.927-3.575-3.567-3.575zM86.06 12.45c.126-1.15.752-1.883 1.78-1.883 1.102 0 1.436.875 1.436 1.883zm8.938-.908c0-.625.676-.867 1.412-.867a8.3 8.3 0 0 1 2.296.358v-1.7a8.5 8.5 0 0 0-2.455-.316c-1.988 0-3.391.941-3.391 2.475 0 2.975 4.118 2.208 4.118 3.658 0 .708-.652.9-1.588.9-.668 0-1.729-.25-2.505-.525v1.692a6.9 6.9 0 0 0 2.422.491c1.938 0 3.792-.575 3.792-2.641.017-2.875-4.101-2.134-4.101-3.525m-93.06-.709c0 3.725 2.171 6.934 5.312 8.459L2.755 7.008a9.35 9.35 0 0 0-.818 3.825Zm9.422 9.4a9.5 9.5 0 0 0 3.132-.533l-.067-.125-2.898-7.917-2.823 8.192a9.3 9.3 0 0 0 2.656.383m1.294-13.808 3.408 10.108.944-3.133c.401-1.3.71-2.233.71-3.042 0-1.166-.417-1.966-.768-2.583-.485-.783-.927-1.442-.927-2.208 0-.867.651-1.667 1.587-1.667h.117a9.4 9.4 0 0 0-6.365-2.467c-1.56 0-3.097.387-4.47 1.126a9.4 9.4 0 0 0-3.4 3.108l.602.016c.985 0 2.506-.125 2.506-.125.518-.025.576.717.066.775 0 0-.51.067-1.085.092L9.02 16.608l2.063-6.166-1.47-4.017a17 17 0 0 1-.986-.083c-.51-.034-.45-.809.059-.784 0 0 1.553.125 2.48.125.986 0 2.507-.125 2.507-.125.51-.025.576.717.066.775 0 0-.51.059-1.086.092Zm3.442 12.533a9.4 9.4 0 0 0 3.43-3.438 9.38 9.38 0 0 0 .103-9.195 8.86 8.86 0 0 1-.651 4.333zm-4.736 2.709c-2.88 0-5.642-1.142-7.679-3.173a10.82 10.82 0 0 1-3.18-7.66 10.82 10.82 0 0 1 3.18-7.661A10.87 10.87 0 0 1 11.36 0c2.88 0 5.642 1.141 7.678 3.173a10.82 10.82 0 0 1 3.18 7.66 10.82 10.82 0 0 1-3.18 7.66 10.87 10.87 0 0 1-7.678 3.174"/>
</svg>
