<svg xmlns="http://www.w3.org/2000/svg" width="26" height="26">
  <svg xmlns="http://www.w3.org/2000/svg" width="26" height="26" fill="none" viewBox="0 0 26 26">
    <path fill="#17D4A7" d="M10.354 6.081a2.636 2.636 0 0 1 4.32.257 31.5 31.5 0 0 1 8.55-1.349A12.97 12.97 0 0 0 3.247 4.42a33.55 33.55 0 0 1 7.107 1.661Zm13.647.003-.764.02a30.569 30.569 0 0 0-8.235 1.3c.003.053.003.106 0 .16 0 .6-.222 1.178-.624 1.624a41.659 41.659 0 0 1 2.382 3.695c.319.557.613 1.105.884 1.645h.134c.348-.003.689.102.975.302 2.19-1.865 4.134-4.371 5.83-7.517l.052-.094m-11.16 2.616a2.653 2.653 0 0 1-2.997-.644c-3.276 1.658-6.702 4.284-9.022 8.45 1.579.6 3.232.982 4.914 1.135a1.566 1.566 0 0 1 2.811.026h.14a16.01 16.01 0 0 0 6.935-2.188 1.463 1.463 0 0 1-.097-.52 1.532 1.532 0 0 1 .475-1.105 39.12 39.12 0 0 0-3.16-5.154Z"/>
    <path fill="#17D4A7" d="M18.866 24.463c.28-2.216-.22-4.582-1.06-6.825h-.019a1.66 1.66 0 0 1-.812-.211 16.99 16.99 0 0 1-7.622 2.467h-.14a1.563 1.563 0 0 1-2.902-.026 19.018 19.018 0 0 1-4.94-1.086 13 13 0 0 0 17.479 5.801l.016-.12Zm6.324-15.97a26.534 26.534 0 0 1-5.82 7.218 1.4 1.4 0 0 1 .049.374 1.546 1.546 0 0 1-.56 1.18c.907 2.417 1.3 4.644 1.174 6.659a12.977 12.977 0 0 0 5.158-15.431Zm-15.258-.28a2.353 2.353 0 0 1-.045-1.108 32.887 32.887 0 0 0-7.46-1.658 12.974 12.974 0 0 0-1.829 11.45c2.106-3.682 5.268-6.627 9.334-8.684Z"/>
  </svg>
  <style>
    @media (prefers-color-scheme:light){:root{filter:none}}
  </style>
</svg>
