<svg xmlns="http://www.w3.org/2000/svg" width="933.333" height="933.333" version="1.0" viewBox="0 0 700 700">
  <path d="M327 .6c-12.6 1.2-31.7 3.7-41.5 5.5-56.3 10.3-113.2 37-158 74-11.1 9.2-40.1 37.6-39.3 38.5.3.2 8.4 1.6 17.9 2.9 53 7.5 113.4 21.9 162.4 38.6l9.9 3.5 6.2-6.2c21.1-21.2 54.5-26.5 81.9-13 9 4.5 18.8 12.6 24.4 20.3l4.3 6 9.7-2.9c57.3-17.2 134.9-30.2 192.6-32.3 8.3-.3 17.8-.8 21.3-1.1l6.2-.6-6.2-7.6c-9.5-11.7-36.9-38.7-49.3-48.6-50.8-40.6-110.4-66-175-74.7C380.1 1 338.4-.4 327 .6m-267.7 155C28.7 201.2 9.6 253 2.4 309.5c-2.2 16.8-2.5 61.3-.6 77 2.8 23.3 11.4 64.1 14.1 66.8.4.4 2.9-2.9 5.6-7.5 12.3-21.3 33-50.4 52.5-73.9 13.2-15.7 51.7-54.3 68-68.1 34.5-29 83.2-61.5 117.8-78.7l7.3-3.6-.8-4.5c-.5-2.5-.8-9.3-.8-15.3V191l-15-5c-55.7-18.2-127.3-33.7-178.1-38.6l-7.2-.6zm543.9 9.5c-61.1 2.8-125.6 13.3-186.3 30.5l-12.6 3.6-.6 8.3c-.8 11.4-4.9 23.2-11.3 32.6l-5.1 7.5 4.9 7c24.8 34.6 55.7 84.6 75.7 122.6l7.2 13.8h4.3c5.5 0 14.4 2.4 20.7 5.5l5.1 2.6 7.6-6.7c10.6-9.3 38-36.8 48.7-48.9 33-37.4 65.1-83.6 94.7-136.3 6.6-11.8 6.9-12.7 5.6-15.2-.7-1.5-4.4-8.4-8.3-15.3l-7-12.7-13 .2c-7.1 0-20.8.5-30.3.9m72.3 68.4c-25.1 44.3-53.7 84.7-85.9 121.5-12.7 14.6-45.1 47.5-57.9 58.8l-9.8 8.7.7 6.5c1.1 11.2-3 23.1-10.7 31.5l-4 4.3 6.1 17.8c11.4 33.5 18.8 64.6 23.1 97.4 1.7 12.5 2.2 22.2 2.3 40.2l.1 23.7 2.5-1.6c30.8-19.5 63.8-50.6 88.1-82.9q55.35-73.8 67.5-168.9c2.5-19.5 2.5-61.5 0-81-3.2-25-9.6-52.8-17.4-75.5l-1.9-5.4zM261 258.8c-10.7 6-23.3 13.3-28 16.2-81.2 50.7-143.2 113.5-188.8 191.2-4.4 7.4-4.8 8.7-3.4 9.3 7.8 3.1 33.3 11.3 44.7 14.4 24.1 6.6 58 13 78.2 14.7l8.1.6 1.5-2.8c2.4-4.6 12.2-13.3 18.1-16 3-1.4 8.2-3 11.5-3.5 15.1-2.7 32.7 5.1 41.2 18.1 3.1 4.7 3.5 5 7.5 5 7.6 0 35.4-3.9 52.9-7.5 41.9-8.5 82.9-23.5 119.8-43.7 12.2-6.7 12.9-7.2 12.3-9.7-1.7-7.7-1.8-14.9-.2-21 1.9-7.3 5.8-15 9.2-18.2l2.4-2.2-6.7-12.6c-16.5-31.2-35.6-63.2-55.6-93.1-10.7-16.1-22.6-33-23.1-33-.2 0-2.9.9-6.1 2-12.3 4.2-30.7 4.4-42.9.4-8.7-2.9-18.3-8.2-25.1-13.9-3.5-3-6.8-5.5-7.2-5.5-.5 0-9.6 4.9-20.3 10.8"/>
  <path d="M448.5 474.2c-10.7 6.6-47 24.4-62 30.3-38.4 15.2-81.5 25.7-123 30-8.2.9-15.2 1.9-15.5 2.3s-2.3 3.3-4.4 6.5c-6.4 9.6-16.2 15.7-28.5 17.8-15.9 2.8-34-6.1-42.3-20.8-2.7-4.7-3.3-5.2-7.1-5.7-2.3-.3-10-1.3-17.2-2.1-33-4.1-62.8-10.8-95.5-21.4-8.5-2.7-15.5-4.9-15.7-4.7-.1.1 3.5 6.7 8 14.7 25.6 45.1 59 82.4 100.2 112 74.9 53.9 167.7 76 259 61.8 31.9-5 64.7-15 93.7-28.6l9.6-4.5.9-9.7c1.3-15.8.8-52.1-1.1-66.3-3.9-30.4-10.5-58.7-21.2-90.8l-6.5-19.6-7.4-1.1c-4.1-.7-9.2-2.1-11.4-3.3-2.2-1.1-4.2-2-4.3-1.9-.2 0-3.9 2.3-8.3 5.1"/>
</svg>
