<svg width="20" height="20" viewBox="0 0 20 20" fill="none" xmlns="http://www.w3.org/2000/svg">
<path d="M10.2083 12.9167C11.7041 12.9167 12.9167 11.7041 12.9167 10.2083C12.9167 8.71256 11.7041 7.5 10.2083 7.5C8.71256 7.5 7.5 8.71256 7.5 10.2083C7.5 11.7041 8.71256 12.9167 10.2083 12.9167Z" stroke="white" stroke-width="1.5" stroke-linecap="round" stroke-linejoin="round"/>
<path d="M10.2082 16.25C6.87145 16.25 4.1665 13.545 4.1665 10.2083C4.1665 6.87158 6.87145 4.16663 10.2082 4.16663C15.8853 4.16663 16.2498 7.81246 16.2498 10.2083V11.25C16.2498 12.1705 15.5037 12.9166 14.5832 12.9166C13.6627 12.9166 12.9165 12.1705 12.9165 11.25V7.49996" stroke="white" stroke-width="1.5" stroke-linecap="round" stroke-linejoin="round"/>
</svg>
