<svg width="20" height="20" viewBox="0 0 20 20" fill="none" xmlns="http://www.w3.org/2000/svg">
<path d="M17.25 3.75C17.25 3.19772 16.8023 2.75 16.25 2.75H12C10.8954 2.75 10 3.64543 10 4.75V17.25L10.8284 16.4216C11.5786 15.6714 12.596 15.25 13.6569 15.25H16.25C16.8023 15.25 17.25 14.8023 17.25 14.25V3.75Z" stroke="#111A2C" stroke-width="1.5" stroke-linecap="round" stroke-linejoin="round"/>
<path d="M2.75 3.75C2.75 3.19772 3.19772 2.75 3.75 2.75H8C9.1046 2.75 10 3.64543 10 4.75V17.25L9.1716 16.4216C8.4214 15.6714 7.40401 15.25 6.34315 15.25H3.75C3.19772 15.25 2.75 14.8023 2.75 14.25V3.75Z" stroke="#111A2C" stroke-width="1.5" stroke-linecap="round" stroke-linejoin="round"/>
</svg>
