<svg xmlns="http://www.w3.org/2000/svg" width="20" height="20" viewBox="-1 -1 22 22">
  <path d="M2.969 9.375a1.749 1.749 0 001.217-.494l1.734.867a1.722 1.722 0 00-.022.213 1.758 1.758 0 103.516 0 1.736 1.736 0 00-.176-.753l2.353-2.353a1.736 1.736 0 00.753.176 1.76 1.76 0 001.758-1.758 1.731 1.731 0 00-.088-.521l2.044-1.532a1.757 1.757 0 10-.785-1.462 1.731 1.731 0 00.088.521l-2.044 1.532a1.75 1.75 0 00-2.555 2.215L8.411 8.379a1.727 1.727 0 00-1.97.318L4.705 7.83a1.722 1.722 0 00.022-.213 1.758 1.758 0 10-1.758 1.758zm0 0"/>
  <path d="M19.414 18.828h-.625V6.445a.586.586 0 00-.589-.586h-2.341a.586.586 0 00-.586.586v12.383H14.1V9.959a.586.586 0 00-.586-.586h-2.342a.586.586 0 00-.586.586v8.867H9.414v-4.18a.586.586 0 00-.586-.586H6.484a.586.586 0 00-.586.586v4.18H4.727v-6.523a.586.586 0 00-.586-.586H1.8a.586.586 0 00-.586.586v6.523H.586a.586.586 0 000 1.172h18.828a.586.586 0 000-1.172zm0 0"/>
</svg>
