<svg width="18" height="18" viewBox="0 0 18 18" fill="none" xmlns="http://www.w3.org/2000/svg">
<path fill-rule="evenodd" clip-rule="evenodd" d="M16.3987 3.87451C17.4084 5.32919 18 7.09555 18 9.00035C18 10.9051 17.4084 12.6717 16.3987 14.1262L14.0674 11.7949C14.5253 10.9665 14.7859 10.0137 14.7859 9.00035C14.7859 7.98695 14.5253 7.03436 14.0674 6.20596L16.3987 3.87451Z" fill="#8FC7FF"/>
<path fill-rule="evenodd" clip-rule="evenodd" d="M14.1258 1.60135L11.7944 3.93265C10.966 3.47482 10.0134 3.21422 9 3.21422C5.80466 3.21422 3.21423 5.80466 3.21423 9C3.21423 12.1953 5.80466 14.7858 9 14.7858C10.0134 14.7858 10.966 14.5252 11.7944 14.0673L14.1258 16.3987C12.6712 17.4083 10.9048 18 9 18C4.02948 18 0 13.9705 0 9C0 4.02947 4.02948 0 9 0C10.9048 0 12.6712 0.591733 14.1258 1.60135Z" fill="#297EFF"/>
</svg>
