<svg xmlns="http://www.w3.org/2000/svg" width="20" height="20" viewBox="-1 -1 22 22">
  <g id="Openbase_-_generic_icon_for_JSDeliver" data-name="Openbase - generic icon for JSDeliver" transform="translate(0 0)">
    <path id="Path_24142" data-name="Path 24142" d="M32.758,9.375a1.749,1.749,0,0,0,1.217-.494l1.734.867a1.722,1.722,0,0,0-.022.213,1.758,1.758,0,1,0,3.516,0,1.736,1.736,0,0,0-.176-.753L41.38,6.855a1.736,1.736,0,0,0,.753.176,1.76,1.76,0,0,0,1.758-1.758,1.731,1.731,0,0,0-.088-.521L45.847,3.22a1.757,1.757,0,1,0-.785-1.462,1.731,1.731,0,0,0,.088.521L43.106,3.811a1.75,1.75,0,0,0-2.555,2.215L38.2,8.379a1.727,1.727,0,0,0-1.97.318L34.494,7.83a1.722,1.722,0,0,0,.022-.213,1.758,1.758,0,1,0-1.758,1.758Zm0,0" transform="translate(-29.789)" fill="#000"/>
    <path id="Path_24143" data-name="Path 24143" d="M19.414,162.969h-.625V150.586A.586.586,0,0,0,18.2,150H15.859a.586.586,0,0,0-.586.586v12.383H14.1V154.1a.586.586,0,0,0-.586-.586H11.172a.586.586,0,0,0-.586.586v8.867H9.414v-4.18a.586.586,0,0,0-.586-.586H6.484a.586.586,0,0,0-.586.586v4.18H4.727v-6.523a.586.586,0,0,0-.586-.586H1.8a.586.586,0,0,0-.586.586v6.523H.586a.586.586,0,0,0,0,1.172H19.414a.586.586,0,0,0,0-1.172Zm0,0" transform="translate(0 -144.141)" fill="#000"/>
  </g>
</svg>
