<svg xmlns="http://www.w3.org/2000/svg" width="20" height="20" fill="none">
  <path fill="#fff" d="M18 5.42a6.967 6.967 0 0 1-1.885.477 3.094 3.094 0 0 0 1.443-1.676c-.634.347-1.337.6-2.084.735A3.415 3.415 0 0 0 13.078 4c-1.812 0-3.282 1.356-3.282 3.03 0 .237.03.467.084.69-2.729-.127-5.147-1.334-6.766-3.166a2.851 2.851 0 0 0-.444 1.523c0 1.05.58 1.979 1.46 2.522a3.486 3.486 0 0 1-1.487-.38v.04c0 1.467 1.131 2.692 2.634 2.97a3.569 3.569 0 0 1-1.483.052c.418 1.203 1.63 2.08 3.067 2.103a6.945 6.945 0 0 1-4.077 1.297c-.265 0-.527-.014-.784-.042A9.855 9.855 0 0 0 7.031 16c6.04 0 9.34-4.616 9.34-8.619 0-.13-.003-.261-.01-.391A6.413 6.413 0 0 0 18 5.423V5.42Z"/>
</svg>
