<svg xmlns="http://www.w3.org/2000/svg" width="909" height="428" fill="none">
  <path fill="#DFE3E7" d="M265.995 4a2 2 0 1 0 0-4 2 2 0 0 0 0 4Zm8.002 0a2 2 0 1 0 0-4 2 2 0 0 0 0 4Zm8.002 0a2 2 0 1 0 0-4 2 2 0 0 0 0 4Zm8.002 0a2 2 0 1 0 0-4 2 2 0 0 0 0 4ZM330 4a2 2 0 1 0 0-4 2 2 0 0 0 0 4Zm8.001 0a2 2 0 1 0 0-4 2 2 0 0 0 0 4Zm8.003 0a2 2 0 1 0 0-4 2 2 0 0 0 0 4Zm8.002 0a2 2 0 1 0 0-4 2 2 0 0 0 0 4Zm7.989 0a2 2 0 1 0 0-4 2 2 0 0 0 0 4Zm-127.996 8.002a2 2 0 1 0 0-4 2 2 0 0 0 0 4Zm8.002 0a2 2 0 1 0 0-4 2 2 0 0 0 0 4Zm15.992 0a2 2 0 1 0 0-4 2 2 0 0 0 0 4Zm8.002 0a2 2 0 1 0 0-4 2 2 0 0 0 0 4Zm8.002 0a2 2 0 1 0 0-4 2 2 0 0 0 0 4Zm8.002 0a2 2 0 1 0 0-4 2 2 0 0 0 0 4Zm8.002 0a2 2 0 1 0 0-4 2 2 0 0 0 0 4Zm8.003 0a2 2 0 1 0 0-4 2 2 0 0 0 0 4Zm8.002 0a2 2 0 1 0 0-4 2 2 0 0 0 0 4Zm7.989 0a2 2 0 1 0 0-4 2 2 0 0 0 0 4Zm8.003 0a2 2 0 1 0 0-4 2 2 0 0 0 0 4Zm8.002 0a2 2 0 1 0 0-4 2 2 0 0 0 0 4Zm8.001 0a2 2 0 1 0 0-4 2 2 0 0 0 0 4Zm8.003 0a2 2 0 1 0 0-4 2 2 0 0 0 0 4Zm8.002 0a2 2 0 1 0 0-4 2 2 0 0 0 0 4Zm7.989 0a2 2 0 1 0 0-4 2 2 0 0 0 0 4Zm8.003 0a2 2 0 1 0 0-4 2 2 0 0 0 0 4Zm72.006 0a2 2 0 1 0 0-4 2 2 0 0 0 0 4Zm8.002 0a2 2 0 1 0 0-4 2 2 0 0 0 0 4Zm39.999 0a2 2 0 1 0 0-4 2 2 0 0 0 0 4Zm87.998 0a2 2 0 1 0 0-4 2 2 0 0 0 0 4Zm-384.002 7.99a2 2 0 1 0 0-4 2 2 0 0 0 0 4Zm48 0a2 2 0 1 0 0-4 2 2 0 0 0 0 4Zm8.002 0a2 2 0 1 0 0-4 2 2 0 0 0 0 4Zm23.994 0a2 2 0 1 0 0-4 2 2 0 0 0 0 4Zm8.002 0a2 2 0 1 0 0-4 2 2 0 0 0 0 4Zm8.002 0a2 2 0 1 0 0-4 2 2 0 0 0 0 4Zm8.003 0a2 2 0 1 0 0-4.001 2 2 0 0 0 0 4Zm8.002 0a2 2 0 1 0 0-4.001 2 2 0 0 0 0 4Zm7.989 0a2 2 0 1 0 0-4 2 2 0 0 0 0 4Zm8.003 0a2 2 0 1 0 0-4.001 2 2 0 0 0 0 4Zm8.002 0a2 2 0 1 0 0-4.001 2 2 0 0 0 0 4Zm8.001 0a2 2 0 1 0 0-4 2 2 0 0 0 0 4Zm8.003 0a2 2 0 1 0 0-4.001 2 2 0 0 0 0 4Zm8.002 0a2 2 0 1 0 0-4.001 2 2 0 0 0 0 4Zm7.989 0a2 2 0 1 0 0-4 2 2 0 0 0 0 4Zm72.007 0a2 2 0 1 0 0-4 2 2 0 0 0 0 4Zm16.004 0a2 2 0 1 0 0-4 2 2 0 0 0 0 4Zm-272.009 8.002a2 2 0 1 0 0-4.001 2 2 0 0 0 0 4Zm8.002 0a2 2 0 1 0 0-4.001 2 2 0 0 0 0 4Zm8.002 0a2 2 0 1 0 0-4 2 2 0 0 0 0 4Zm15.991 0a2 2 0 1 0 0-4 2 2 0 0 0 0 4Zm8.003 0a2 2 0 1 0 0-4 2 2 0 0 0 0 4Zm8.002 0a2 2 0 1 0 0-4 2 2 0 0 0 0 4Zm8.002 0a2 2 0 1 0 0-4 2 2 0 0 0 0 4Zm8.002 0a2 2 0 1 0 0-4 2 2 0 0 0 0 4Zm48 0a2 2 0 1 0 0-4 2 2 0 0 0 0 4Zm8.003 0a2 2 0 1 0 0-4.001 2 2 0 0 0 0 4Zm8.002 0a2 2 0 1 0 0-4.001 2 2 0 0 0 0 4Zm7.989 0a2 2 0 1 0 0-4 2 2 0 0 0 0 4Zm8.003 0a2 2 0 1 0 0-4.001 2 2 0 0 0 0 4Zm8.002 0a2 2 0 1 0 0-4.001 2 2 0 0 0 0 4Zm8.001 0a2 2 0 1 0 0-4 2 2 0 0 0 0 4Zm8.003 0a2 2 0 1 0 0-4.001 2 2 0 0 0 0 4Zm8.002 0a2 2 0 1 0 0-4.001 2 2 0 0 0 0 4Zm7.989 0a2 2 0 1 0 0-4 2 2 0 0 0 0 4Zm160.005 0a2 2 0 1 0 0-4.002 2 2 0 0 0 0 4.002Zm56.003 0a2 2 0 1 0 0-4 2 2 0 0 0 0 4Zm8.002 0a2 2 0 1 0 0-4.001 2 2 0 0 0 0 4Zm8.002 0a2 2 0 1 0 0-4 2 2 0 0 0 0 4Zm8.002 0a2 2 0 1 0 0-4 2 2 0 0 0 0 4Zm7.99 0a2 2 0 1 0 0-4.001 2 2 0 0 0 0 4Zm8.002 0a2 2 0 1 0 0-4 2 2 0 0 0 0 4Zm8.002 0a2 2 0 1 0 0-4 2 2 0 0 0 0 4Zm48 0a2 2 0 1 0 0-4 2 2 0 0 0 0 4Zm8.002 0a2 2 0 1 0 0-4 2 2 0 0 0 0 4Zm16.005 0a2 2 0 1 0 0-4.001 2 2 0 0 0 0 4Zm-544.007 8.002a2 2 0 1 0 0-4 2 2 0 0 0 0 4Zm7.989 0a2 2 0 1 0 0-4 2 2 0 0 0 0 4Zm8.003 0a2 2 0 1 0 0-4 2 2 0 0 0 0 4Zm16.004 0a2 2 0 1 0 0-4 2 2 0 0 0 0 4Zm16.004 0a2 2 0 1 0 0-4 2 2 0 0 0 0 4Zm7.989 0a2 2 0 1 0 0-4 2 2 0 0 0 0 4Zm16.005 0a2 2 0 1 0 0-4 2 2 0 0 0 0 4Zm8.002 0a2 2 0 1 0 0-4 2 2 0 0 0 0 4Zm64.005 0a2 2 0 1 0 0-4 2 2 0 0 0 0 4Zm8.002 0a2 2 0 1 0 0-4 2 2 0 0 0 0 4Zm7.989 0a2 2 0 1 0 0-4 2 2 0 0 0 0 4Zm8.003 0a2 2 0 1 0 0-4 2 2 0 0 0 0 4Zm8.002 0a2 2 0 1 0 0-4 2 2 0 0 0 0 4Zm8.001 0a2 2 0 1 0 0-4 2 2 0 0 0 0 4Zm8.003 0a2 2 0 1 0 0-4 2 2 0 0 0 0 4Zm8.002 0a2 2 0 1 0 0-4 2 2 0 0 0 0 4Zm159.992 0a2 2 0 1 0 0-4 2 2 0 0 0 0 4Zm32.009 0a2 2 0 1 0 0-4 2 2 0 0 0 0 4Zm23.994 0a2 2 0 1 0 0-4 2 2 0 0 0 0 4Zm8.002 0a2 2 0 1 0 0-4 2 2 0 0 0 0 4Zm8.002 0a2 2 0 1 0 0-4 2 2 0 0 0 0 4Zm8.002 0a2 2 0 1 0 0-4 2 2 0 0 0 0 4Zm8.002 0a2 2 0 1 0 0-4 2 2 0 0 0 0 4Zm7.99 0a2 2 0 1 0 0-4 2 2 0 0 0 0 4Zm8.002 0a2 2 0 1 0 0-4 2 2 0 0 0 0 4Zm8.002 0a2 2 0 1 0 0-4 2 2 0 0 0 0 4Zm8.002 0a2 2 0 1 0 0-4 2 2 0 0 0 0 4Zm8.003 0a2 2 0 1 0 0-4 2 2 0 0 0 0 4Zm8.002 0a2 2 0 1 0 0-4 2 2 0 0 0 0 4Zm7.989 0a2 2 0 1 0 0-4 2 2 0 0 0 0 4Zm8.002 0a2 2 0 1 0 0-4 2 2 0 0 0 0 4Zm24.006 0a2 2 0 1 0 0-4 2 2 0 0 0 0 4ZM65.992 43.998a2 2 0 1 0 0-4 2 2 0 0 0 0 4Zm8.002 0a2 2 0 1 0 0-4 2 2 0 0 0 0 4Zm8.002 0a2 2 0 1 0 0-4 2 2 0 0 0 0 4Zm8.003 0a2 2 0 1 0 0-4 2 2 0 0 0 0 4Zm8.001 0a2 2 0 1 0 0-4 2 2 0 0 0 0 4Zm31.996 0a2 2 0 1 0 0-4 2 2 0 0 0 0 4Zm8.003 0a2 2 0 1 0 0-4 2 2 0 0 0 0 4Zm23.993 0a2 2 0 1 0 0-4 2 2 0 0 0 0 4Zm8.003 0a2 2 0 1 0 0-4 2 2 0 0 0 0 4Zm8.002 0a2 2 0 1 0 0-4 2 2 0 0 0 0 4Zm8.002 0a2 2 0 1 0 0-4 2 2 0 0 0 0 4Zm16.004 0a2 2 0 1 0 0-4 2 2 0 0 0 0 4Zm7.989 0a2 2 0 1 0 0-4 2 2 0 0 0 0 4Zm16.005 0a2 2 0 1 0 0-4 2 2 0 0 0 0 4Zm8.002 0a2 2 0 1 0 0-4 2 2 0 0 0 0 4Zm8.002 0a2 2 0 1 0 0-4 2 2 0 0 0 0 4Zm8.002 0a2 2 0 1 0 0-4 2 2 0 0 0 0 4Zm7.99 0a2 2 0 1 0 0-4 2 2 0 0 0 0 4Zm32.008 0a2 2 0 1 0 0-4 2 2 0 0 0 0 4Zm8.003 0a2 2 0 1 0 0-4 2 2 0 0 0 0 4Zm8.002 0a2 2 0 1 0 0-4 2 2 0 0 0 0 4Zm7.989 0a2 2 0 1 0 0-4 2 2 0 0 0 0 4Zm8.003 0a2 2 0 1 0 0-4 2 2 0 0 0 0 4Zm8.002 0a2 2 0 1 0 0-4 2 2 0 0 0 0 4Zm8.001 0a2 2 0 1 0 0-4 2 2 0 0 0 0 4Zm8.003 0a2 2 0 1 0 0-4 2 2 0 0 0 0 4Zm8.002 0a2 2 0 1 0 0-4 2 2 0 0 0 0 4Zm96 0a2 2 0 1 0 0-4 2 2 0 0 0 0 4Zm7.99 0a2 2 0 1 0 0-4 2 2 0 0 0 0 4Zm8.002 0a2 2 0 1 0 0-4 2 2 0 0 0 0 4Zm80.009 0a2 2 0 1 0 0-4 2 2 0 0 0 0 4Zm8.002 0a2 2 0 1 0 0-4 2 2 0 0 0 0 4Zm7.989 0a2 2 0 1 0 0-4 2 2 0 0 0 0 4Zm8.003 0a2 2 0 1 0 0-4 2 2 0 0 0 0 4Zm8.002 0a2 2 0 1 0 0-4 2 2 0 0 0 0 4Zm8.002 0a2 2 0 1 0 0-4 2 2 0 0 0 0 4Zm8.002 0a2 2 0 1 0 0-4 2 2 0 0 0 0 4Zm8.002 0a2 2 0 1 0 0-4 2 2 0 0 0 0 4Zm7.99 0a2 2 0 1 0 0-4 2 2 0 0 0 0 4Zm8.002 0a2 2 0 1 0 0-4 2 2 0 0 0 0 4Zm8.002 0a2 2 0 1 0 0-4 2 2 0 0 0 0 4Zm8.002 0a2 2 0 1 0 0-4 2 2 0 0 0 0 4Zm8.003 0a2 2 0 1 0 0-4 2 2 0 0 0 0 4Zm8.002 0a2 2 0 1 0 0-4 2 2 0 0 0 0 4Zm7.989 0a2 2 0 1 0 0-4 2 2 0 0 0 0 4Zm8.002 0a2 2 0 1 0 0-4 2 2 0 0 0 0 4Zm8.002 0a2 2 0 1 0 0-4 2 2 0 0 0 0 4Zm8.002 0a2 2 0 1 0 0-4 2 2 0 0 0 0 4Zm8.002 0a2 2 0 1 0 0-4 2 2 0 0 0 0 4Zm8.003 0a2 2 0 1 0 0-4 2 2 0 0 0 0 4Zm7.989 0a2 2 0 1 0 0-4 2 2 0 0 0 0 4Zm8.002 0a2 2 0 1 0 0-4 2 2 0 0 0 0 4Zm8.002 0a2 2 0 1 0 0-4 2 2 0 0 0 0 4Zm8.003 0a2 2 0 1 0 0-4 2 2 0 0 0 0 4Zm8.002 0a2 2 0 1 0 0-4 2 2 0 0 0 0 4Zm23.993 0a2 2 0 1 0 0-4 2 2 0 0 0 0 4ZM50 52a2 2 0 1 0 0-4 2 2 0 0 0 0 4Zm8.002 0a2 2 0 1 0 0-4 2 2 0 0 0 0 4Zm7.99 0a2 2 0 1 0 0-4 2 2 0 0 0 0 4Zm8.002 0a2 2 0 1 0 0-4 2 2 0 0 0 0 4Zm8.002 0a2 2 0 1 0 0-4 2 2 0 0 0 0 4Zm8.003 0a2 2 0 1 0 0-4 2 2 0 0 0 0 4ZM98 52a2 2 0 1 0 0-4 2 2 0 0 0 0 4Zm8.002 0a2 2 0 1 0 0-3.999 2 2 0 0 0 0 4Zm7.99 0a2 2 0 1 0 0-3.999 2 2 0 0 0 0 4Zm8.002 0a2 2 0 1 0 0-3.999 2 2 0 0 0 0 4Zm8.002 0a2 2 0 1 0 0-3.999 2 2 0 0 0 0 4Zm8.003 0a2 2 0 1 0 0-4 2 2 0 0 0 0 4Zm8.002 0a2 2 0 1 0 0-3.999 2 2 0 0 0 0 4Zm8.002 0a2 2 0 1 0 0-3.999 2 2 0 0 0 0 4Zm7.989 0a2 2 0 1 0 0-3.999 2 2 0 0 0 0 4Zm8.003 0a2 2 0 1 0 0-4 2 2 0 0 0 0 4Zm8.002 0a2 2 0 1 0 0-4 2 2 0 0 0 0 4Zm8.002 0a2 2 0 1 0 0-4 2 2 0 0 0 0 4Zm8.002 0a2 2 0 1 0 0-3.999 2 2 0 0 0 0 4Zm8.002 0a2 2 0 1 0 0-3.999 2 2 0 0 0 0 4Zm7.989 0a2 2 0 1 0 0-3.999 2 2 0 0 0 0 4Zm8.003 0a2 2 0 1 0 0-3.999 2 2 0 0 0 0 4Zm8.002 0a2 2 0 1 0 0-3.999 2 2 0 0 0 0 4Zm24.006 0a2 2 0 1 0 0-3.999 2 2 0 0 0 0 4Zm7.99 0a2 2 0 1 0 0-4 2 2 0 0 0 0 4Zm32.008 0a2 2 0 1 0 0-3.999 2 2 0 0 0 0 4Zm8.003 0a2 2 0 1 0 0-4 2 2 0 0 0 0 4Zm8.002 0a2 2 0 1 0 0-4 2 2 0 0 0 0 4Zm7.989 0a2 2 0 1 0 0-3.999 2 2 0 0 0 0 4Zm8.003 0a2 2 0 1 0 0-4 2 2 0 0 0 0 4ZM330 52a2 2 0 1 0 0-4 2 2 0 0 0 0 4Zm120.006 0a2 2 0 1 0 0-3.999 2 2 0 0 0 0 4Zm7.99 0a2 2 0 1 0 0-4 2 2 0 0 0 0 4Zm8.002 0a2 2 0 1 0 0-3.999 2 2 0 0 0 0 4ZM474 52a2 2 0 1 0 0-3.999 2 2 0 0 0 0 4Zm8.002 0a2 2 0 1 0 0-3.999 2 2 0 0 0 0 4Zm8.003 0a2 2 0 1 0 0-4 2 2 0 0 0 0 4Zm23.993 0a2 2 0 1 0 0-3.999 2 2 0 0 0 0 4ZM522 52a2 2 0 1 0 0-4 2 2 0 0 0 0 4Zm8.002 0a2 2 0 1 0 0-3.999 2 2 0 0 0 0 4Zm8.002 0a2 2 0 1 0 0-3.999 2 2 0 0 0 0 4Zm8.003 0a2 2 0 1 0 0-4 2 2 0 0 0 0 4Zm8.002 0a2 2 0 1 0 0-4 2 2 0 0 0 0 4Zm7.989 0a2 2 0 1 0 0-3.999 2 2 0 0 0 0 4Zm8.003 0a2 2 0 1 0 0-3.999 2 2 0 0 0 0 4Zm8.002 0a2 2 0 1 0 0-3.999 2 2 0 0 0 0 4Zm8.002 0a2 2 0 1 0 0-4 2 2 0 0 0 0 4Zm8.002 0a2 2 0 1 0 0-3.999 2 2 0 0 0 0 4Zm8.002 0a2 2 0 1 0 0-3.999 2 2 0 0 0 0 4Zm7.99 0a2 2 0 1 0 0-4 2 2 0 0 0 0 4Zm8.002 0a2 2 0 1 0 0-3.999 2 2 0 0 0 0 4Zm8.002 0a2 2 0 1 0 0-3.999 2 2 0 0 0 0 4Zm8.002 0a2 2 0 1 0 0-4 2 2 0 0 0 0 4Zm8.003 0a2 2 0 1 0 0-4 2 2 0 0 0 0 4Zm8.002 0a2 2 0 1 0 0-4 2 2 0 0 0 0 4Zm7.989 0a2 2 0 1 0 0-3.999 2 2 0 0 0 0 4Zm8.002 0a2 2 0 1 0 0-3.999 2 2 0 0 0 0 4Zm8.002 0a2 2 0 1 0 0-3.999 2 2 0 0 0 0 4Zm8.002 0a2 2 0 1 0 0-3.999 2 2 0 0 0 0 4Zm8.002 0a2 2 0 1 0 0-3.999 2 2 0 0 0 0 4Zm8.003 0a2 2 0 1 0 0-4 2 2 0 0 0 0 4Zm7.989 0a2 2 0 1 0 0-3.999 2 2 0 0 0 0 4Zm8.002 0a2 2 0 1 0 0-3.999 2 2 0 0 0 0 4Zm8.002 0a2 2 0 1 0 0-3.999 2 2 0 0 0 0 4Zm8.003 0a2 2 0 1 0 0-4 2 2 0 0 0 0 4Zm8.002 0a2 2 0 1 0 0-4 2 2 0 0 0 0 4Zm8.002 0a2 2 0 1 0 0-3.999 2 2 0 0 0 0 4Zm7.99 0a2 2 0 1 0 0-4 2 2 0 0 0 0 4Zm8.001 0a2 2 0 1 0 0-3.999 2 2 0 0 0 0 4Zm8.003 0a2 2 0 1 0 0-4 2 2 0 0 0 0 4Zm8.002 0a2 2 0 1 0 0-4 2 2 0 0 0 0 4Zm8.002 0a2 2 0 1 0 0-4 2 2 0 0 0 0 4Zm8.002 0a2 2 0 1 0 0-3.999 2 2 0 0 0 0 4Zm8.003 0a2 2 0 1 0 0-4 2 2 0 0 0 0 4ZM33.996 59.99a2 2 0 1 0 0-4 2 2 0 0 0 0 4Zm8.002 0a2 2 0 1 0 0-4 2 2 0 0 0 0 4Zm8.002 0a2 2 0 1 0 0-4 2 2 0 0 0 0 4Zm8.002 0a2 2 0 1 0 0-4 2 2 0 0 0 0 4Zm7.99 0a2 2 0 1 0 0-4 2 2 0 0 0 0 4Zm8.002 0a2 2 0 1 0 0-4 2 2 0 0 0 0 4Zm8.002 0a2 2 0 1 0 0-4 2 2 0 0 0 0 4Zm8.003 0a2 2 0 1 0 0-4 2 2 0 0 0 0 4Zm8.001 0a2 2 0 1 0 0-4.001 2 2 0 0 0 0 4Zm8.002 0a2 2 0 1 0 0-4 2 2 0 0 0 0 4Zm7.99 0a2 2 0 1 0 0-4 2 2 0 0 0 0 4Zm8.002 0a2 2 0 1 0 0-4 2 2 0 0 0 0 4Zm8.002 0a2 2 0 1 0 0-4 2 2 0 0 0 0 4Zm8.003 0a2 2 0 1 0 0-4.001 2 2 0 0 0 0 4Zm8.002 0a2 2 0 1 0 0-4 2 2 0 0 0 0 4Zm8.002 0a2 2 0 1 0 0-4 2 2 0 0 0 0 4Zm7.989 0a2 2 0 1 0 0-4 2 2 0 0 0 0 4Zm8.003 0a2 2 0 1 0 0-4.001 2 2 0 0 0 0 4Zm8.002 0a2 2 0 1 0 0-4.001 2 2 0 0 0 0 4Zm8.002 0a2 2 0 1 0 0-4.001 2 2 0 0 0 0 4Zm8.002 0a2 2 0 1 0 0-4 2 2 0 0 0 0 4Zm8.002 0a2 2 0 1 0 0-4 2 2 0 0 0 0 4Zm7.989 0a2 2 0 1 0 0-4 2 2 0 0 0 0 4Zm8.003 0a2 2 0 1 0 0-4 2 2 0 0 0 0 4Zm16.004 0a2 2 0 1 0 0-4 2 2 0 0 0 0 4Zm8.002 0a2 2 0 1 0 0-4 2 2 0 0 0 0 4Zm8.002 0a2 2 0 1 0 0-4 2 2 0 0 0 0 4Zm39.998 0a2 2 0 1 0 0-4 2 2 0 0 0 0 4Zm8.003 0a2 2 0 1 0 0-4.001 2 2 0 0 0 0 4Zm8.002 0a2 2 0 1 0 0-4.001 2 2 0 0 0 0 4Zm7.989 0a2 2 0 1 0 0-4 2 2 0 0 0 0 4Zm40.011 0a2 2 0 1 0 0-4.001 2 2 0 0 0 0 4Zm7.989 0a2 2 0 1 0 0-4 2 2 0 0 0 0 4Zm8.003 0a2 2 0 1 0 0-4.001 2 2 0 0 0 0 4Zm64.004 0a2 2 0 1 0 0-4 2 2 0 0 0 0 4Zm8.002 0a2 2 0 1 0 0-4 2 2 0 0 0 0 4Zm8.002 0a2 2 0 1 0 0-4 2 2 0 0 0 0 4Zm15.992 0a2 2 0 1 0 0-4 2 2 0 0 0 0 4Zm8.002 0a2 2 0 1 0 0-4 2 2 0 0 0 0 4Zm8.002 0a2 2 0 1 0 0-4 2 2 0 0 0 0 4Zm16.005 0a2 2 0 1 0 0-4.001 2 2 0 0 0 0 4Zm7.989 0a2 2 0 1 0 0-4 2 2 0 0 0 0 4Zm8.002 0a2 2 0 1 0 0-4 2 2 0 0 0 0 4Zm8.002 0a2 2 0 1 0 0-4.001 2 2 0 0 0 0 4Zm8.002 0a2 2 0 1 0 0-4 2 2 0 0 0 0 4Zm8.002 0a2 2 0 1 0 0-4 2 2 0 0 0 0 4Zm8.003 0a2 2 0 1 0 0-4.001 2 2 0 0 0 0 4Zm8.002 0a2 2 0 1 0 0-4.001 2 2 0 0 0 0 4Zm7.989 0a2 2 0 1 0 0-4 2 2 0 0 0 0 4Zm8.003 0a2 2 0 1 0 0-4 2 2 0 0 0 0 4Zm8.002 0a2 2 0 1 0 0-4 2 2 0 0 0 0 4Zm8.002 0a2 2 0 1 0 0-4.001 2 2 0 0 0 0 4Zm8.002 0a2 2 0 1 0 0-4 2 2 0 0 0 0 4Zm8.002 0a2 2 0 1 0 0-4 2 2 0 0 0 0 4Zm7.99 0a2 2 0 1 0 0-4.001 2 2 0 0 0 0 4Zm8.002 0a2 2 0 1 0 0-4 2 2 0 0 0 0 4Zm8.002 0a2 2 0 1 0 0-4 2 2 0 0 0 0 4Zm8.002 0a2 2 0 1 0 0-4.001 2 2 0 0 0 0 4Zm8.003 0a2 2 0 1 0 0-4.001 2 2 0 0 0 0 4Zm8.002 0a2 2 0 1 0 0-4.001 2 2 0 0 0 0 4Zm7.989 0a2 2 0 1 0 0-4 2 2 0 0 0 0 4Zm8.002 0a2 2 0 1 0 0-4 2 2 0 0 0 0 4Zm8.002 0a2 2 0 1 0 0-4 2 2 0 0 0 0 4Zm8.002 0a2 2 0 1 0 0-4 2 2 0 0 0 0 4Zm8.002 0a2 2 0 1 0 0-4 2 2 0 0 0 0 4Zm8.003 0a2 2 0 1 0 0-4.001 2 2 0 0 0 0 4Zm7.989 0a2 2 0 1 0 0-4 2 2 0 0 0 0 4Zm8.002 0a2 2 0 1 0 0-4 2 2 0 0 0 0 4Zm8.002 0a2 2 0 1 0 0-4 2 2 0 0 0 0 4Zm8.003 0a2 2 0 1 0 0-4.001 2 2 0 0 0 0 4Zm8.002 0a2 2 0 1 0 0-4.001 2 2 0 0 0 0 4Zm8.002 0a2 2 0 1 0 0-4 2 2 0 0 0 0 4Zm7.99 0a2 2 0 1 0 0-4.001 2 2 0 0 0 0 4Zm8.001 0a2 2 0 1 0 0-4 2 2 0 0 0 0 4Zm8.003 0a2 2 0 1 0 0-4.001 2 2 0 0 0 0 4Zm8.002 0a2 2 0 1 0 0-4.001 2 2 0 0 0 0 4Zm8.002 0a2 2 0 1 0 0-4.001 2 2 0 0 0 0 4Zm8.002 0a2 2 0 1 0 0-4 2 2 0 0 0 0 4Zm8.003 0a2 2 0 1 0 0-4.001 2 2 0 0 0 0 4Zm15.991 0a2 2 0 1 0 0-4.001 2 2 0 0 0 0 4Zm-792.01 8.002a2 2 0 1 0 0-4 2 2 0 0 0 0 4Zm8.002 0a2 2 0 1 0 0-4 2 2 0 0 0 0 4Zm8.002 0a2 2 0 1 0 0-4 2 2 0 0 0 0 4Zm8.002 0a2 2 0 1 0 0-4 2 2 0 0 0 0 4Zm8.002 0a2 2 0 1 0 0-4 2 2 0 0 0 0 4Zm7.99 0a2 2 0 1 0 0-4 2 2 0 0 0 0 4Zm8.002 0a2 2 0 1 0 0-4 2 2 0 0 0 0 4Zm8.002 0a2 2 0 1 0 0-4 2 2 0 0 0 0 4Zm8.003 0a2 2 0 1 0 0-4 2 2 0 0 0 0 4Zm8.001 0a2 2 0 1 0 0-4.001 2 2 0 0 0 0 4Zm8.002 0a2 2 0 1 0 0-4 2 2 0 0 0 0 4Zm7.99 0a2 2 0 1 0 0-4 2 2 0 0 0 0 4Zm8.002 0a2 2 0 1 0 0-4 2 2 0 0 0 0 4Zm8.002 0a2 2 0 1 0 0-4 2 2 0 0 0 0 4Zm8.003 0a2 2 0 1 0 0-4.001 2 2 0 0 0 0 4Zm8.002 0a2 2 0 1 0 0-4 2 2 0 0 0 0 4Zm8.002 0a2 2 0 1 0 0-4 2 2 0 0 0 0 4Zm7.989 0a2 2 0 1 0 0-4 2 2 0 0 0 0 4Zm8.003 0a2 2 0 1 0 0-4.001 2 2 0 0 0 0 4Zm8.002 0a2 2 0 1 0 0-4.001 2 2 0 0 0 0 4Zm8.002 0a2 2 0 1 0 0-4.001 2 2 0 0 0 0 4Zm39.998 0a2 2 0 1 0 0-4 2 2 0 0 0 0 4Zm24.006 0a2 2 0 1 0 0-4 2 2 0 0 0 0 4Zm39.998 0a2 2 0 1 0 0-4 2 2 0 0 0 0 4Zm8.003 0a2 2 0 1 0 0-4.001 2 2 0 0 0 0 4Zm8.002 0a2 2 0 1 0 0-4.001 2 2 0 0 0 0 4Zm111.992 0a2 2 0 1 0 0-4 2 2 0 0 0 0 4Zm8.002 0a2 2 0 1 0 0-4 2 2 0 0 0 0 4Zm8.002 0a2 2 0 1 0 0-4 2 2 0 0 0 0 4Zm8.002 0a2 2 0 1 0 0-4 2 2 0 0 0 0 4Zm15.992 0a2 2 0 1 0 0-4.001 2 2 0 0 0 0 4Zm8.002 0a2 2 0 1 0 0-4 2 2 0 0 0 0 4Zm8.002 0a2 2 0 1 0 0-4 2 2 0 0 0 0 4Zm8.002 0a2 2 0 1 0 0-4 2 2 0 0 0 0 4Zm8.003 0a2 2 0 1 0 0-4.001 2 2 0 0 0 0 4Zm8.002 0a2 2 0 1 0 0-4.001 2 2 0 0 0 0 4Zm7.989 0a2 2 0 1 0 0-4 2 2 0 0 0 0 4Zm8.002 0a2 2 0 1 0 0-4 2 2 0 0 0 0 4Zm8.002 0a2 2 0 1 0 0-4.001 2 2 0 0 0 0 4Zm8.002 0a2 2 0 1 0 0-4 2 2 0 0 0 0 4Zm8.002 0a2 2 0 1 0 0-4 2 2 0 0 0 0 4Zm8.003 0a2 2 0 1 0 0-4.001 2 2 0 0 0 0 4Zm8.002 0a2 2 0 1 0 0-4.001 2 2 0 0 0 0 4Zm7.989 0a2 2 0 1 0 0-4 2 2 0 0 0 0 4Zm8.003 0a2 2 0 1 0 0-4 2 2 0 0 0 0 4Zm8.002 0a2 2 0 1 0 0-4 2 2 0 0 0 0 4Zm8.002 0a2 2 0 1 0 0-4.001 2 2 0 0 0 0 4Zm8.002 0a2 2 0 1 0 0-4 2 2 0 0 0 0 4Zm8.002 0a2 2 0 1 0 0-4 2 2 0 0 0 0 4Zm7.99 0a2 2 0 1 0 0-4.001 2 2 0 0 0 0 4Zm8.002 0a2 2 0 1 0 0-4 2 2 0 0 0 0 4Zm8.002 0a2 2 0 1 0 0-4 2 2 0 0 0 0 4Zm8.002 0a2 2 0 1 0 0-4.001 2 2 0 0 0 0 4Zm8.003 0a2 2 0 1 0 0-4.001 2 2 0 0 0 0 4Zm8.002 0a2 2 0 1 0 0-4.001 2 2 0 0 0 0 4Zm7.989 0a2 2 0 1 0 0-4 2 2 0 0 0 0 4Zm8.002 0a2 2 0 1 0 0-4 2 2 0 0 0 0 4Zm8.002 0a2 2 0 1 0 0-4 2 2 0 0 0 0 4Zm8.002 0a2 2 0 1 0 0-4 2 2 0 0 0 0 4Zm8.002 0a2 2 0 1 0 0-4 2 2 0 0 0 0 4Zm8.003 0a2 2 0 1 0 0-4.001 2 2 0 0 0 0 4Zm7.989 0a2 2 0 1 0 0-4 2 2 0 0 0 0 4Zm8.002 0a2 2 0 1 0 0-4 2 2 0 0 0 0 4Zm8.002 0a2 2 0 1 0 0-4 2 2 0 0 0 0 4Zm8.003 0a2 2 0 1 0 0-4.001 2 2 0 0 0 0 4Zm8.002 0a2 2 0 1 0 0-4.001 2 2 0 0 0 0 4Zm8.002 0a2 2 0 1 0 0-4 2 2 0 0 0 0 4Zm7.99 0a2 2 0 1 0 0-4.001 2 2 0 0 0 0 4Zm8.001 0a2 2 0 1 0 0-4 2 2 0 0 0 0 4Zm8.003 0a2 2 0 1 0 0-4.001 2 2 0 0 0 0 4Zm8.002 0a2 2 0 1 0 0-4.001 2 2 0 0 0 0 4Zm8.002 0a2 2 0 1 0 0-4.001 2 2 0 0 0 0 4Zm8.002 0a2 2 0 1 0 0-4 2 2 0 0 0 0 4Zm8.003 0a2 2 0 1 0 0-4.001 2 2 0 0 0 0 4Zm7.989 0a2 2 0 1 0 0-4 2 2 0 0 0 0 4ZM25.994 75.994a2 2 0 1 0 0-4 2 2 0 0 0 0 4Zm16.004 0a2 2 0 1 0 0-4 2 2 0 0 0 0 4Zm8.002 0a2 2 0 1 0 0-4 2 2 0 0 0 0 4Zm23.994 0a2 2 0 1 0 0-4 2 2 0 0 0 0 4Zm8.002 0a2 2 0 1 0 0-4 2 2 0 0 0 0 4Zm8.003 0a2 2 0 1 0 0-4 2 2 0 0 0 0 4Zm8.001 0a2 2 0 1 0 0-4 2 2 0 0 0 0 4Zm8.002 0a2 2 0 1 0 0-4 2 2 0 0 0 0 4Zm7.99 0a2 2 0 1 0 0-4 2 2 0 0 0 0 4Zm8.002 0a2 2 0 1 0 0-4 2 2 0 0 0 0 4Zm8.002 0a2 2 0 1 0 0-4 2 2 0 0 0 0 4Zm8.003 0a2 2 0 1 0 0-4 2 2 0 0 0 0 4Zm8.002 0a2 2 0 1 0 0-4 2 2 0 0 0 0 4Zm8.002 0a2 2 0 1 0 0-4 2 2 0 0 0 0 4Zm7.989 0a2 2 0 1 0 0-4 2 2 0 0 0 0 4Zm8.003 0a2 2 0 1 0 0-4 2 2 0 0 0 0 4Zm8.002 0a2 2 0 1 0 0-4 2 2 0 0 0 0 4Zm48 0a2 2 0 1 0 0-4 2 2 0 0 0 0 4Zm8.002 0a2 2 0 1 0 0-4 2 2 0 0 0 0 4Zm183.999 0a2 2 0 1 0 0-4 2 2 0 0 0 0 4Zm8.002 0a2 2 0 1 0 0-4 2 2 0 0 0 0 4Zm8.002 0a2 2 0 1 0 0-4 2 2 0 0 0 0 4Zm8.002 0a2 2 0 1 0 0-4 2 2 0 0 0 0 4Zm15.992 0a2 2 0 1 0 0-4 2 2 0 0 0 0 4Zm16.004 0a2 2 0 1 0 0-4 2 2 0 0 0 0 4Zm8.002 0a2 2 0 1 0 0-4 2 2 0 0 0 0 4Zm8.003 0a2 2 0 1 0 0-4 2 2 0 0 0 0 4Zm8.002 0a2 2 0 1 0 0-4 2 2 0 0 0 0 4Zm7.989 0a2 2 0 1 0 0-4 2 2 0 0 0 0 4Zm8.002 0a2 2 0 1 0 0-4 2 2 0 0 0 0 4Zm8.002 0a2 2 0 1 0 0-4.001 2 2 0 0 0 0 4.001Zm8.002 0a2 2 0 1 0 0-4 2 2 0 0 0 0 4Zm8.002 0a2 2 0 1 0 0-4 2 2 0 0 0 0 4Zm8.003 0a2 2 0 1 0 0-4 2 2 0 0 0 0 4Zm8.002 0a2 2 0 1 0 0-4 2 2 0 0 0 0 4Zm7.989 0a2 2 0 1 0 0-4 2 2 0 0 0 0 4Zm8.003 0a2 2 0 1 0 0-4 2 2 0 0 0 0 4Zm8.002 0a2 2 0 1 0 0-4 2 2 0 0 0 0 4Zm8.002 0a2 2 0 1 0 0-4 2 2 0 0 0 0 4Zm8.002 0a2 2 0 1 0 0-4 2 2 0 0 0 0 4Zm8.002 0a2 2 0 1 0 0-4 2 2 0 0 0 0 4Zm7.99 0a2 2 0 1 0 0-4 2 2 0 0 0 0 4Zm8.002 0a2 2 0 1 0 0-4 2 2 0 0 0 0 4Zm8.002 0a2 2 0 1 0 0-4 2 2 0 0 0 0 4Zm8.002 0a2 2 0 1 0 0-4 2 2 0 0 0 0 4Zm8.003 0a2 2 0 1 0 0-4 2 2 0 0 0 0 4Zm8.002 0a2 2 0 1 0 0-4 2 2 0 0 0 0 4Zm7.989 0a2 2 0 1 0 0-4 2 2 0 0 0 0 4Zm8.002 0a2 2 0 1 0 0-4 2 2 0 0 0 0 4Zm8.002 0a2 2 0 1 0 0-4 2 2 0 0 0 0 4Zm8.002 0a2 2 0 1 0 0-4 2 2 0 0 0 0 4Zm8.002 0a2 2 0 1 0 0-4 2 2 0 0 0 0 4Zm8.003 0a2 2 0 1 0 0-4 2 2 0 0 0 0 4Zm7.989 0a2 2 0 1 0 0-4 2 2 0 0 0 0 4Zm8.002 0a2 2 0 1 0 0-4 2 2 0 0 0 0 4Zm8.002 0a2 2 0 1 0 0-4 2 2 0 0 0 0 4Zm8.003 0a2 2 0 1 0 0-4 2 2 0 0 0 0 4Zm8.002 0a2 2 0 1 0 0-4 2 2 0 0 0 0 4Zm8.002 0a2 2 0 1 0 0-4 2 2 0 0 0 0 4Zm8.002 0a2 2 0 1 0 0-4 2 2 0 0 0 0 4Zm7.989 0a2 2 0 1 0 0-4 2 2 0 0 0 0 4Zm24.007 0a2 2 0 1 0 0-4 2 2 0 0 0 0 4ZM25.994 83.996a2 2 0 1 0 0-4 2 2 0 0 0 0 4Zm8.002 0a2 2 0 1 0 0-4 2 2 0 0 0 0 4Zm48 0a2 2 0 1 0 0-4 2 2 0 0 0 0 4Zm8.003 0a2 2 0 1 0 0-4 2 2 0 0 0 0 4Zm8.001 0a2 2 0 1 0 0-4 2 2 0 0 0 0 4Zm8.002 0a2 2 0 1 0 0-4 2 2 0 0 0 0 4Zm7.99 0a2 2 0 1 0 0-4 2 2 0 0 0 0 4Zm8.002 0a2 2 0 1 0 0-4 2 2 0 0 0 0 4Zm8.002 0a2 2 0 1 0 0-4 2 2 0 0 0 0 4Zm8.003 0a2 2 0 1 0 0-4 2 2 0 0 0 0 4Zm8.002 0a2 2 0 1 0 0-4 2 2 0 0 0 0 4Zm8.002 0a2 2 0 1 0 0-4 2 2 0 0 0 0 4Zm7.989 0a2 2 0 1 0 0-4 2 2 0 0 0 0 4Zm8.003 0a2 2 0 1 0 0-4 2 2 0 0 0 0 4Zm8.002 0a2 2 0 1 0 0-4 2 2 0 0 0 0 4Zm48 0a2 2 0 1 0 0-4 2 2 0 0 0 0 4Zm8.002 0a2 2 0 1 0 0-4 2 2 0 0 0 0 4Zm8.002 0a2 2 0 1 0 0-4 2 2 0 0 0 0 4Zm8.002 0a2 2 0 1 0 0-4 2 2 0 0 0 0 4Zm144.001 0a2 2 0 1 0 0-4 2 2 0 0 0 0 4Zm39.998 0a2 2 0 1 0 0-4 2 2 0 0 0 0 4Zm8.002 0a2 2 0 1 0 0-4 2 2 0 0 0 0 4Zm15.992 0a2 2 0 1 0 0-4 2 2 0 0 0 0 4Zm8.002 0a2 2 0 1 0 0-4 2 2 0 0 0 0 4Zm8.002 0a2 2 0 1 0 0-4 2 2 0 0 0 0 4Zm8.002 0a2 2 0 1 0 0-4 2 2 0 0 0 0 4Zm8.003 0a2 2 0 1 0 0-4 2 2 0 0 0 0 4Zm8.002 0a2 2 0 1 0 0-4 2 2 0 0 0 0 4Zm7.989 0a2 2 0 1 0 0-4 2 2 0 0 0 0 4Zm8.002 0a2 2 0 1 0 0-4 2 2 0 0 0 0 4Zm8.002 0a2 2 0 1 0 0-4.001 2 2 0 0 0 0 4.001Zm8.002 0a2 2 0 1 0 0-4 2 2 0 0 0 0 4Zm8.002 0a2 2 0 1 0 0-4 2 2 0 0 0 0 4Zm8.003 0a2 2 0 1 0 0-4 2 2 0 0 0 0 4Zm8.002 0a2 2 0 1 0 0-4 2 2 0 0 0 0 4Zm7.989 0a2 2 0 1 0 0-4 2 2 0 0 0 0 4Zm8.003 0a2 2 0 1 0 0-4 2 2 0 0 0 0 4Zm8.002 0a2 2 0 1 0 0-4 2 2 0 0 0 0 4Zm8.002 0a2 2 0 1 0 0-4 2 2 0 0 0 0 4Zm8.002 0a2 2 0 1 0 0-4 2 2 0 0 0 0 4Zm8.002 0a2 2 0 1 0 0-4 2 2 0 0 0 0 4Zm7.99 0a2 2 0 1 0 0-4 2 2 0 0 0 0 4Zm8.002 0a2 2 0 1 0 0-4 2 2 0 0 0 0 4Zm8.002 0a2 2 0 1 0 0-4 2 2 0 0 0 0 4Zm8.002 0a2 2 0 1 0 0-4 2 2 0 0 0 0 4Zm8.003 0a2 2 0 1 0 0-4 2 2 0 0 0 0 4Zm8.002 0a2 2 0 1 0 0-4 2 2 0 0 0 0 4Zm7.989 0a2 2 0 1 0 0-4 2 2 0 0 0 0 4Zm8.002 0a2 2 0 1 0 0-4 2 2 0 0 0 0 4Zm8.002 0a2 2 0 1 0 0-4 2 2 0 0 0 0 4Zm8.002 0a2 2 0 1 0 0-4 2 2 0 0 0 0 4Zm8.002 0a2 2 0 1 0 0-4 2 2 0 0 0 0 4Zm8.003 0a2 2 0 1 0 0-4 2 2 0 0 0 0 4Zm7.989 0a2 2 0 1 0 0-4 2 2 0 0 0 0 4Zm8.002 0a2 2 0 1 0 0-4 2 2 0 0 0 0 4Zm8.002 0a2 2 0 1 0 0-4 2 2 0 0 0 0 4Zm8.003 0a2 2 0 1 0 0-4 2 2 0 0 0 0 4Zm8.002 0a2 2 0 1 0 0-4 2 2 0 0 0 0 4Zm48 0a2 2 0 1 0 0-4 2 2 0 0 0 0 4Zm8.002 0a2 2 0 1 0 0-4 2 2 0 0 0 0 4ZM2 91.999a2 2 0 1 0 0-4 2 2 0 0 0 0 4Zm79.996 0a2 2 0 1 0 0-4 2 2 0 0 0 0 4Zm8.003 0a2 2 0 1 0 0-4 2 2 0 0 0 0 4Zm8.001 0a2 2 0 1 0 0-4.001 2 2 0 0 0 0 4Zm8.002 0a2 2 0 1 0 0-4 2 2 0 0 0 0 4Zm7.99 0a2 2 0 1 0 0-4 2 2 0 0 0 0 4Zm8.002 0a2 2 0 1 0 0-4 2 2 0 0 0 0 4Zm8.002 0a2 2 0 1 0 0-4 2 2 0 0 0 0 4Zm8.003 0a2 2 0 1 0 0-4.001 2 2 0 0 0 0 4Zm8.002 0a2 2 0 1 0 0-4 2 2 0 0 0 0 4Zm8.002 0a2 2 0 1 0 0-4 2 2 0 0 0 0 4Zm7.989 0a2 2 0 1 0 0-4 2 2 0 0 0 0 4Zm8.003 0a2 2 0 1 0 0-4.001 2 2 0 0 0 0 4Zm8.002 0a2 2 0 1 0 0-4.001 2 2 0 0 0 0 4Zm8.002 0a2 2 0 1 0 0-4.001 2 2 0 0 0 0 4Zm8.002 0a2 2 0 1 0 0-4 2 2 0 0 0 0 4Zm15.991 0a2 2 0 1 0 0-4 2 2 0 0 0 0 4Zm8.003 0a2 2 0 1 0 0-4 2 2 0 0 0 0 4Zm8.002 0a2 2 0 1 0 0-4 2 2 0 0 0 0 4Zm8.002 0a2 2 0 1 0 0-4 2 2 0 0 0 0 4Zm8.002 0a2 2 0 1 0 0-4 2 2 0 0 0 0 4Zm8.002 0a2 2 0 1 0 0-4 2 2 0 0 0 0 4Zm7.99 0a2 2 0 1 0 0-4.001 2 2 0 0 0 0 4Zm128.009 0a2 2 0 1 0 0-4 2 2 0 0 0 0 4Zm8.002 0a2 2 0 1 0 0-4.001 2 2 0 0 0 0 4Zm31.996 0a2 2 0 1 0 0-4 2 2 0 0 0 0 4Zm8.002 0a2 2 0 1 0 0-4 2 2 0 0 0 0 4Zm23.994 0a2 2 0 1 0 0-4.001 2 2 0 0 0 0 4Zm8.002 0a2 2 0 1 0 0-4 2 2 0 0 0 0 4Zm8.002 0a2 2 0 1 0 0-4 2 2 0 0 0 0 4Zm8.002 0a2 2 0 1 0 0-4 2 2 0 0 0 0 4Zm8.003 0a2 2 0 1 0 0-4.001 2 2 0 0 0 0 4Zm8.002 0a2 2 0 1 0 0-4.001 2 2 0 0 0 0 4Zm7.989 0a2 2 0 1 0 0-4 2 2 0 0 0 0 4Zm8.002 0a2 2 0 1 0 0-4 2 2 0 0 0 0 4Zm8.002 0a2 2 0 1 0 0-4.002A2 2 0 0 0 522 92Zm8.002 0a2 2 0 1 0 0-4 2 2 0 0 0 0 4Zm8.002 0a2 2 0 1 0 0-4 2 2 0 0 0 0 4Zm8.003 0a2 2 0 1 0 0-4.001 2 2 0 0 0 0 4Zm8.002 0a2 2 0 1 0 0-4.001 2 2 0 0 0 0 4Zm7.989 0a2 2 0 1 0 0-4 2 2 0 0 0 0 4Zm8.003 0a2 2 0 1 0 0-4 2 2 0 0 0 0 4Zm8.002 0a2 2 0 1 0 0-4 2 2 0 0 0 0 4Zm8.002 0a2 2 0 1 0 0-4.001 2 2 0 0 0 0 4Zm8.002 0a2 2 0 1 0 0-4 2 2 0 0 0 0 4Zm8.002 0a2 2 0 1 0 0-4 2 2 0 0 0 0 4Zm7.99 0a2 2 0 1 0 0-4.001 2 2 0 0 0 0 4Zm8.002 0a2 2 0 1 0 0-4 2 2 0 0 0 0 4Zm8.002 0a2 2 0 1 0 0-4 2 2 0 0 0 0 4Zm8.002 0a2 2 0 1 0 0-4.001 2 2 0 0 0 0 4Zm8.003 0a2 2 0 1 0 0-4.001 2 2 0 0 0 0 4Zm8.002 0a2 2 0 1 0 0-4.001 2 2 0 0 0 0 4Zm7.989 0a2 2 0 1 0 0-4 2 2 0 0 0 0 4Zm8.002 0a2 2 0 1 0 0-4 2 2 0 0 0 0 4Zm8.002 0a2 2 0 1 0 0-4 2 2 0 0 0 0 4Zm8.002 0a2 2 0 1 0 0-4 2 2 0 0 0 0 4Zm8.002 0a2 2 0 1 0 0-4 2 2 0 0 0 0 4Zm8.003 0a2 2 0 1 0 0-4.001 2 2 0 0 0 0 4Zm7.989 0a2 2 0 1 0 0-4 2 2 0 0 0 0 4Zm8.002 0a2 2 0 1 0 0-4 2 2 0 0 0 0 4Zm8.002 0a2 2 0 1 0 0-4 2 2 0 0 0 0 4Zm8.003 0a2 2 0 1 0 0-4.001 2 2 0 0 0 0 4Zm8.002 0a2 2 0 1 0 0-4.001 2 2 0 0 0 0 4Zm56.002 0a2 2 0 1 0 0-4 2 2 0 0 0 0 4Zm8.003 0a2 2 0 1 0 0-4.001 2 2 0 0 0 0 4Zm-720.017 8.002a2 2 0 1 0 0-4 2 2 0 0 0 0 4Zm8.003 0a2 2 0 1 0-.001-4 2 2 0 0 0 0 4Zm8.001 0a2 2 0 1 0 0-4.002 2 2 0 0 0 0 4.002Zm8.002 0a2 2 0 1 0 0-4 2 2 0 0 0 0 4Zm7.99 0a2 2 0 1 0 0-4 2 2 0 0 0 0 4Zm8.002 0a2 2 0 1 0 0-4 2 2 0 0 0 0 4Zm8.002 0a2 2 0 1 0 0-4 2 2 0 0 0 0 4Zm8.003 0a2 2 0 1 0-.002-4.002 2 2 0 0 0 .002 4.002Zm8.002 0a2 2 0 1 0 0-4 2 2 0 0 0 0 4Zm8.002 0a2 2 0 1 0 0-4 2 2 0 0 0 0 4Zm7.989 0a2 2 0 1 0 0-4 2 2 0 0 0 0 4Zm8.003 0a2 2 0 1 0-.002-4.002 2 2 0 0 0 .002 4.002Zm8.002 0a2 2 0 1 0-.002-4.002 2 2 0 0 0 .002 4.002Zm8.002 0a2 2 0 1 0-.002-4.002 2 2 0 0 0 .002 4.002Zm8.002 0a2 2 0 1 0 0-4 2 2 0 0 0 0 4Zm15.991 0a2 2 0 1 0 0-4 2 2 0 0 0 0 4Zm8.003 0a2 2 0 1 0 0-4 2 2 0 0 0 0 4Zm8.002 0a2 2 0 1 0 0-4 2 2 0 0 0 0 4Zm8.002 0a2 2 0 1 0 0-4 2 2 0 0 0 0 4Zm8.002 0a2 2 0 1 0 0-4 2 2 0 0 0 0 4Zm8.002 0a2 2 0 1 0 0-4 2 2 0 0 0 0 4Zm7.99 0a2 2 0 1 0-.002-4.002 2 2 0 0 0 .002 4.002Zm136.011 0a2 2 0 1 0-.002-4.002 2 2 0 0 0 .002 4.002Zm8.002 0a2 2 0 1 0 0-4 2 2 0 0 0 0 4Zm15.992 0a2 2 0 1 0 0-4 2 2 0 0 0 0 4Zm8.002 0a2 2 0 1 0 0-4 2 2 0 0 0 0 4Zm8.002 0a2 2 0 1 0 0-4 2 2 0 0 0 0 4Zm8.002 0a2 2 0 1 0 0-4 2 2 0 0 0 0 4Zm15.992 0a2 2 0 1 0-.002-4.002 2 2 0 0 0 .002 4.002Zm8.002 0a2 2 0 1 0 0-4 2 2 0 0 0 0 4Zm8.002 0a2 2 0 1 0 0-4 2 2 0 0 0 0 4Zm8.002 0a2 2 0 1 0 0-4 2 2 0 0 0 0 4Zm8.003 0a2 2 0 1 0-.002-4.002 2 2 0 0 0 .002 4.002Zm8.002 0a2 2 0 1 0-.002-4.002 2 2 0 0 0 .002 4.002Zm7.989 0a2 2 0 1 0 0-4 2 2 0 0 0 0 4Zm8.002 0a2 2 0 1 0 0-4 2 2 0 0 0 0 4Zm8.002 0a2.001 2.001 0 1 0 0-4.002 2.001 2.001 0 0 0 0 4.002Zm8.002 0a2 2 0 1 0 0-4 2 2 0 0 0 0 4Zm8.002 0a2 2 0 1 0 0-4 2 2 0 0 0 0 4Zm8.003 0a2 2 0 1 0-.002-4.002 2 2 0 0 0 .002 4.002Zm8.002 0a2 2 0 1 0-.002-4.002 2 2 0 0 0 .002 4.002Zm7.989 0a2 2 0 1 0 0-4 2 2 0 0 0 0 4Zm8.003 0a2 2 0 1 0 0-4 2 2 0 0 0 0 4Zm8.002 0a2 2 0 1 0 0-4 2 2 0 0 0 0 4Zm8.002 0a2 2 0 1 0-.002-4.002 2 2 0 0 0 .002 4.002Zm8.002 0a2 2 0 1 0 0-4 2 2 0 0 0 0 4Zm8.002 0a2 2 0 1 0 0-4 2 2 0 0 0 0 4Zm7.99 0a2 2 0 1 0-.002-4.002 2 2 0 0 0 .002 4.002Zm8.002 0a2 2 0 1 0 0-4 2 2 0 0 0 0 4Zm8.002 0a2 2 0 1 0 0-4 2 2 0 0 0 0 4Zm8.002 0a2 2 0 1 0-.002-4.002 2 2 0 0 0 .002 4.002Zm8.003 0a2 2 0 1 0-.002-4.002 2 2 0 0 0 .002 4.002Zm8.002 0a2 2 0 1 0-.002-4.002 2 2 0 0 0 .002 4.002Zm7.989 0a2 2 0 1 0 0-4 2 2 0 0 0 0 4Zm8.002 0a2 2 0 1 0 0-4 2 2 0 0 0 0 4Zm8.002 0a2 2 0 1 0 0-4 2 2 0 0 0 0 4Zm8.002 0a2 2 0 1 0 0-4 2 2 0 0 0 0 4Zm8.002 0a2 2 0 1 0 0-4 2 2 0 0 0 0 4Zm8.003 0a2 2 0 1 0-.002-4.002 2 2 0 0 0 .002 4.002Zm7.989 0a2 2 0 1 0 0-4 2 2 0 0 0 0 4Zm8.002 0a2 2 0 1 0 0-4 2 2 0 0 0 0 4Zm8.002 0a2 2 0 1 0 0-4 2 2 0 0 0 0 4Zm8.003 0a2 2 0 1 0-.002-4.002 2 2 0 0 0 .002 4.002Zm8.002 0a2 2 0 1 0-.002-4.002 2 2 0 0 0 .002 4.002Zm8.002 0a2 2 0 1 0 0-4 2 2 0 0 0 0 4Zm7.99 0a2 2 0 1 0-.002-4.002 2 2 0 0 0 .002 4.002Zm8.001 0a2 2 0 1 0 0-4 2 2 0 0 0 0 4Zm40.012 0a2 2 0 1 0-.002-4.002 2 2 0 0 0 .002 4.002ZM89.999 107.99a2 2 0 1 0-.001-4 2 2 0 0 0 0 4Zm8.001 0a2 2 0 1 0 0-4.002 2 2 0 0 0 0 4.002Zm15.992 0a2 2 0 1 0 0-4 2 2 0 0 0 0 4Zm8.002 0a2 2 0 1 0 0-4 2 2 0 0 0 0 4Zm8.002 0a2 2 0 1 0 0-4 2 2 0 0 0 0 4Zm8.003 0a2 2 0 1 0-.001-4.001 2 2 0 0 0 .001 4.001Zm8.002 0a2 2 0 1 0 0-4 2 2 0 0 0 0 4Zm8.002 0a2 2 0 1 0 0-4 2 2 0 0 0 0 4Zm7.989 0a2 2 0 1 0 0-4 2 2 0 0 0 0 4Zm8.003 0a2 2 0 1 0-.001-4.001 2 2 0 0 0 .001 4.001Zm8.002 0a2 2 0 1 0-.001-4.001 2 2 0 0 0 .001 4.001Zm8.002 0a2 2 0 1 0-.001-4.001 2 2 0 0 0 .001 4.001Zm8.002 0a2 2 0 1 0 0-4 2 2 0 0 0 0 4Zm8.002 0a2 2 0 1 0 0-4 2 2 0 0 0 0 4Zm7.989 0a2 2 0 1 0 0-4 2 2 0 0 0 0 4Zm8.003 0a2 2 0 1 0 0-4 2 2 0 0 0 0 4Zm8.002 0a2 2 0 1 0 0-4 2 2 0 0 0 0 4Zm16.004 0a2 2 0 1 0 0-4 2 2 0 0 0 0 4Zm15.992 0a2 2 0 1 0-.001-4.001 2 2 0 0 0 .001 4.001Zm152.003 0a2 2 0 1 0-.001-4.001 2 2 0 0 0 .001 4.001Zm8.002 0a2 2 0 1 0 0-4 2 2 0 0 0 0 4Zm8.002 0a2 2 0 1 0 0-4 2 2 0 0 0 0 4Zm8.002 0a2 2 0 1 0 0-4 2 2 0 0 0 0 4Zm8.002 0a2 2 0 1 0 0-4 2 2 0 0 0 0 4Zm8.002 0a2 2 0 1 0 0-4 2 2 0 0 0 0 4Zm7.99 0a2 2 0 1 0-.001-4.001 2 2 0 0 0 .001 4.001Zm8.002 0a2 2 0 1 0 0-4 2 2 0 0 0 0 4Zm8.002 0a2 2 0 1 0 0-4 2 2 0 0 0 0 4Zm8.002 0a2 2 0 1 0 0-4 2 2 0 0 0 0 4Zm8.003 0a2 2 0 1 0-.001-4.001 2 2 0 0 0 .001 4.001Zm8.002 0a2 2 0 1 0-.001-4.001 2 2 0 0 0 .001 4.001Zm7.989 0a2 2 0 1 0 0-4 2 2 0 0 0 0 4Zm8.002 0a2 2 0 1 0 0-4 2 2 0 0 0 0 4Zm8.002 0a2 2 0 1 0 0-4.002 2 2 0 0 0 0 4.002Zm8.002 0a2 2 0 1 0 0-4 2 2 0 0 0 0 4Zm8.002 0a2 2 0 1 0 0-4 2 2 0 0 0 0 4Zm8.003 0a2 2 0 1 0-.001-4.001 2 2 0 0 0 .001 4.001Zm8.002 0a2 2 0 1 0-.001-4.001 2 2 0 0 0 .001 4.001Zm7.989 0a2 2 0 1 0 0-4 2 2 0 0 0 0 4Zm8.003 0a2 2 0 1 0 0-4 2 2 0 0 0 0 4Zm8.002 0a2 2 0 1 0 0-4 2 2 0 0 0 0 4Zm8.002 0a2 2 0 1 0-.001-4.001 2 2 0 0 0 .001 4.001Zm8.002 0a2 2 0 1 0 0-4 2 2 0 0 0 0 4Zm8.002 0a2 2 0 1 0 0-4 2 2 0 0 0 0 4Zm7.99 0a2 2 0 1 0-.001-4.001 2 2 0 0 0 .001 4.001Zm8.002 0a2 2 0 1 0 0-4 2 2 0 0 0 0 4Zm8.002 0a2 2 0 1 0 0-4 2 2 0 0 0 0 4Zm8.002 0a2 2 0 1 0-.001-4.001 2 2 0 0 0 .001 4.001Zm8.003 0a2 2 0 1 0-.001-4.001 2 2 0 0 0 .001 4.001Zm8.002 0a2 2 0 1 0-.001-4.001 2 2 0 0 0 .001 4.001Zm7.989 0a2 2 0 1 0 0-4 2 2 0 0 0 0 4Zm8.002 0a2 2 0 1 0 0-4 2 2 0 0 0 0 4Zm8.002 0a2 2 0 1 0 0-4 2 2 0 0 0 0 4Zm8.002 0a2 2 0 1 0 0-4 2 2 0 0 0 0 4Zm8.002 0a2 2 0 1 0 0-4 2 2 0 0 0 0 4Zm8.003 0a2 2 0 1 0-.001-4.001 2 2 0 0 0 .001 4.001Zm7.989 0a2 2 0 1 0 0-4 2 2 0 0 0 0 4Zm8.002 0a2 2 0 1 0 0-4 2 2 0 0 0 0 4Zm8.002 0a2 2 0 1 0 0-4 2 2 0 0 0 0 4Zm8.003 0a2 2 0 1 0-.001-4.001 2 2 0 0 0 .001 4.001Zm8.002 0a2 2 0 1 0-.001-4.001 2 2 0 0 0 .001 4.001Zm8.002 0a2 2 0 1 0 0-4 2 2 0 0 0 0 4Zm7.99 0a2 2 0 1 0-.001-4.001 2 2 0 0 0 .001 4.001Zm8.001 0a2 2 0 1 0 0-4 2 2 0 0 0 0 4Zm-680.005 8.002a2 2 0 1 0 0-4 2 2 0 0 0 0 4Zm8.003 0a2 2 0 1 0 0-4 2 2 0 0 0 0 4Zm8.001 0a2 2 0 1 0 .001-4 2 2 0 0 0 0 4Zm8.002 0a2 2 0 1 0 .001-3.999 2 2 0 0 0-.001 3.999Zm7.99 0a2 2 0 1 0 .001-3.999 2 2 0 0 0-.001 3.999Zm8.002 0a2 2 0 1 0 .001-3.999 2 2 0 0 0-.001 3.999Zm8.002 0a2 2 0 1 0 .001-3.999 2 2 0 0 0-.001 3.999Zm8.003 0a2 2 0 1 0 0-4 2 2 0 0 0 0 4Zm8.002 0a2 2 0 1 0 .001-3.999 2 2 0 0 0-.001 3.999Zm8.002 0a2 2 0 1 0 .001-3.999 2 2 0 0 0-.001 3.999Zm7.989 0a2 2 0 1 0 .001-3.999 2 2 0 0 0-.001 3.999Zm8.003 0a2 2 0 1 0 0-4 2 2 0 0 0 0 4Zm16.004 0a2 2 0 1 0 0-4 2 2 0 0 0 0 4Zm8.002 0a2 2 0 1 0 .001-3.999 2 2 0 0 0-.001 3.999Zm8.002 0a2 2 0 1 0 .001-3.999 2 2 0 0 0-.001 3.999Zm7.989 0a2 2 0 1 0 .001-3.999 2 2 0 0 0-.001 3.999Zm8.003 0a2 2 0 1 0 .001-3.999 2 2 0 0 0-.001 3.999Zm8.002 0a2 2 0 1 0 .001-3.999 2 2 0 0 0-.001 3.999Zm31.996 0a2 2 0 1 0 0-4 2 2 0 0 0 0 4Zm144.013 0a2 2 0 1 0 .001-3.999 2 2 0 0 0-.001 3.999Zm7.99 0a2 2 0 1 0 0-4 2 2 0 0 0 0 4Zm8.002 0a2 2 0 1 0 .001-3.999 2 2 0 0 0-.001 3.999Zm8.002 0a2 2 0 1 0 .001-3.999 2 2 0 0 0-.001 3.999Zm16.004 0a2 2 0 1 0 .001-3.999 2 2 0 0 0-.001 3.999Zm8.002 0a2 2 0 1 0 .001-3.999 2 2 0 0 0-.001 3.999Zm15.992 0a2 2 0 1 0 .001-3.999 2 2 0 0 0-.001 3.999Zm8.002 0a2 2 0 1 0 .001-3.999 2 2 0 0 0-.001 3.999Zm8.002 0a2 2 0 1 0 .001-3.999 2 2 0 0 0-.001 3.999Zm8.003 0a2 2 0 1 0 0-4 2 2 0 0 0 0 4Zm8.002 0a2 2 0 1 0 0-4 2 2 0 0 0 0 4Zm15.991 0a2 2 0 1 0 .001-3.999 2 2 0 0 0-.001 3.999Zm8.002 0a2 2 0 1 0 .001-4 2 2 0 0 0-.001 4Zm8.002 0a2 2 0 1 0 .001-3.999 2 2 0 0 0-.001 3.999Zm8.002 0a2 2 0 1 0 .001-3.999 2 2 0 0 0-.001 3.999Zm8.003 0a2 2 0 1 0 0-4 2 2 0 0 0 0 4Zm8.002 0a2 2 0 1 0 0-4 2 2 0 0 0 0 4Zm7.989 0a2 2 0 1 0 .001-3.999 2 2 0 0 0-.001 3.999Zm8.003 0a2 2 0 1 0 .001-3.999 2 2 0 0 0-.001 3.999Zm8.002 0a2 2 0 1 0 .001-3.999 2 2 0 0 0-.001 3.999Zm8.002 0a2 2 0 1 0 0-4 2 2 0 0 0 0 4Zm8.002 0a2 2 0 1 0 .001-3.999 2 2 0 0 0-.001 3.999Zm8.002 0a2 2 0 1 0 .001-3.999 2 2 0 0 0-.001 3.999Zm7.99 0a2 2 0 1 0 0-4 2 2 0 0 0 0 4Zm8.002 0a2 2 0 1 0 .001-3.999 2 2 0 0 0-.001 3.999Zm8.002 0a2 2 0 1 0 .001-3.999 2 2 0 0 0-.001 3.999Zm8.002 0a2 2 0 1 0 0-4 2 2 0 0 0 0 4Zm8.003 0a2 2 0 1 0 0-4 2 2 0 0 0 0 4Zm8.002 0a2 2 0 1 0 0-4 2 2 0 0 0 0 4Zm7.989 0a2 2 0 1 0 .001-3.999 2 2 0 0 0-.001 3.999Zm8.002 0a2 2 0 1 0 .001-3.999 2 2 0 0 0-.001 3.999Zm8.002 0a2 2 0 1 0 .001-3.999 2 2 0 0 0-.001 3.999Zm8.002 0a2 2 0 1 0 .001-3.999 2 2 0 0 0-.001 3.999Zm8.002 0a2 2 0 1 0 .001-3.999 2 2 0 0 0-.001 3.999Zm8.003 0a2 2 0 1 0 0-4 2 2 0 0 0 0 4Zm7.989 0a2 2 0 1 0 .001-3.999 2 2 0 0 0-.001 3.999Zm8.002 0a2 2 0 1 0 .001-3.999 2 2 0 0 0-.001 3.999Zm8.002 0a2 2 0 1 0 .001-3.999 2 2 0 0 0-.001 3.999Zm8.003 0a2 2 0 1 0 0-4 2 2 0 0 0 0 4Zm8.002 0a2 2 0 1 0 0-4 2 2 0 0 0 0 4Zm8.002 0a2 2 0 1 0 .001-3.999 2 2 0 0 0-.001 3.999Zm7.99 0a2 2 0 1 0 0-4 2 2 0 0 0 0 4Zm8.001 0a2 2 0 1 0 .001-3.999 2 2 0 0 0-.001 3.999Zm16.005 0a2 2 0 1 0 0-4 2 2 0 0 0 0 4Zm-704.012 8.002a2 2 0 1 0 0-4 2 2 0 0 0 0 4Zm8.002 0a2 2 0 1 0 0-4 2 2 0 0 0 0 4Zm8.003 0a2 2 0 1 0 0-4 2 2 0 0 0 0 4Zm8.001 0a2 2 0 1 0 .001-4 2 2 0 0 0 0 4Zm8.002 0a2 2 0 1 0 .001-3.999 2 2 0 0 0-.001 3.999Zm7.99 0a2 2 0 1 0 .001-3.999 2 2 0 0 0-.001 3.999Zm8.002 0a2 2 0 1 0 .001-3.999 2 2 0 0 0-.001 3.999Zm8.002 0a2 2 0 1 0 .001-3.999 2 2 0 0 0-.001 3.999Zm8.003 0a2 2 0 1 0 0-4 2 2 0 0 0 0 4Zm16.004 0a2 2 0 1 0 .001-3.999 2 2 0 0 0-.001 3.999Zm7.989 0a2 2 0 1 0 .001-3.999 2 2 0 0 0-.001 3.999Zm16.005 0a2 2 0 1 0 0-4 2 2 0 0 0 0 4Zm8.002 0a2 2 0 1 0 0-4 2 2 0 0 0 0 4Zm8.002 0a2 2 0 1 0 .001-3.999 2 2 0 0 0-.001 3.999Zm8.002 0a2 2 0 1 0 .001-3.999 2 2 0 0 0-.001 3.999Zm7.989 0a2 2 0 1 0 .001-3.999 2 2 0 0 0-.001 3.999Zm8.003 0a2 2 0 1 0 .001-3.999 2 2 0 0 0-.001 3.999Zm16.004 0a2 2 0 1 0 .001-3.999 2 2 0 0 0-.001 3.999Zm168.007 0a2 2 0 1 0 .001-3.999 2 2 0 0 0-.001 3.999Zm7.99 0a2 2 0 1 0 0-4 2 2 0 0 0 0 4Zm8.002 0a2 2 0 1 0 .001-3.999 2 2 0 0 0-.001 3.999Zm8.002 0a2 2 0 1 0 .001-3.999 2 2 0 0 0-.001 3.999Zm8.002 0a2 2 0 1 0 .001-3.999 2 2 0 0 0-.001 3.999Zm16.004 0a2 2 0 1 0 .001-3.999 2 2 0 0 0-.001 3.999Zm7.99 0a2 2 0 1 0 0-4 2 2 0 0 0 0 4Zm8.002 0a2 2 0 1 0 .001-3.999 2 2 0 0 0-.001 3.999Zm8.002 0a2 2 0 1 0 .001-3.999 2 2 0 0 0-.001 3.999Zm31.996 0a2 2 0 1 0 .001-3.999 2 2 0 0 0-.001 3.999Zm8.002 0a2 2 0 1 0 .001-3.999 2 2 0 0 0-.001 3.999Zm8.002 0a2 2 0 1 0 .001-4 2 2 0 0 0-.001 4Zm24.007 0a2 2 0 1 0 0-4 2 2 0 0 0 0 4Zm8.002 0a2 2 0 1 0 0-4 2 2 0 0 0 0 4Zm7.989 0a2 2 0 1 0 .001-3.999 2 2 0 0 0-.001 3.999Zm8.003 0a2 2 0 1 0 .001-3.999 2 2 0 0 0-.001 3.999Zm8.002 0a2 2 0 1 0 .001-3.999 2 2 0 0 0-.001 3.999Zm8.002 0a2 2 0 1 0 0-4 2 2 0 0 0 0 4Zm8.002 0a2 2 0 1 0 .001-3.999 2 2 0 0 0-.001 3.999Zm8.002 0a2 2 0 1 0 .001-3.999 2 2 0 0 0-.001 3.999Zm7.99 0a2 2 0 1 0 0-4 2 2 0 0 0 0 4Zm8.002 0a2 2 0 1 0 .001-3.999 2 2 0 0 0-.001 3.999Zm8.002 0a2 2 0 1 0 .001-3.999 2 2 0 0 0-.001 3.999Zm8.002 0a2 2 0 1 0 0-4 2 2 0 0 0 0 4Zm8.003 0a2 2 0 1 0 0-4 2 2 0 0 0 0 4Zm8.002 0a2 2 0 1 0 0-4 2 2 0 0 0 0 4Zm7.989 0a2 2 0 1 0 .001-3.999 2 2 0 0 0-.001 3.999Zm8.002 0a2 2 0 1 0 .001-3.999 2 2 0 0 0-.001 3.999Zm8.002 0a2 2 0 1 0 .001-3.999 2 2 0 0 0-.001 3.999Zm8.002 0a2 2 0 1 0 .001-3.999 2 2 0 0 0-.001 3.999Zm8.002 0a2 2 0 1 0 .001-3.999 2 2 0 0 0-.001 3.999Zm8.003 0a2 2 0 1 0 0-4 2 2 0 0 0 0 4Zm7.989 0a2 2 0 1 0 .001-3.999 2 2 0 0 0-.001 3.999Zm8.002 0a2 2 0 1 0 .001-3.999 2 2 0 0 0-.001 3.999Zm8.002 0a2 2 0 1 0 .001-3.999 2 2 0 0 0-.001 3.999Zm8.003 0a2 2 0 1 0 0-4 2 2 0 0 0 0 4Zm8.002 0a2 2 0 1 0 0-4 2 2 0 0 0 0 4Zm8.002 0a2 2 0 1 0 .001-3.999 2 2 0 0 0-.001 3.999Zm7.99 0a2 2 0 1 0 0-4 2 2 0 0 0 0 4Zm8.001 0a2 2 0 1 0 .001-3.999 2 2 0 0 0-.001 3.999Zm24.007 0a2 2 0 1 0 0-4 2 2 0 0 0 0 4Zm-720.016 8.002a2 2 0 1 0 0-4 2 2 0 0 0 0 4Zm8.002 0a2 2 0 1 0 0-4 2 2 0 0 0 0 4Zm8.002 0a2 2 0 1 0 0-4 2 2 0 0 0 0 4Zm8.003 0a2 2 0 1 0 0-4 2 2 0 0 0 0 4Zm8.001 0a2 2 0 1 0 .001-4 2 2 0 0 0 0 4Zm8.002 0a2 2 0 1 0 .001-3.999 2 2 0 0 0-.001 3.999Zm7.99 0a2 2 0 1 0 .001-3.999 2 2 0 0 0-.001 3.999Zm8.002 0a2 2 0 1 0 .001-3.999 2 2 0 0 0-.001 3.999Zm8.002 0a2 2 0 1 0 .001-3.999 2 2 0 0 0-.001 3.999Zm8.003 0a2 2 0 1 0 0-4 2 2 0 0 0 0 4Zm8.002 0a2 2 0 1 0 .001-3.999 2 2 0 0 0-.001 3.999Zm8.002 0a2 2 0 1 0 .001-3.999 2 2 0 0 0-.001 3.999Zm7.989 0a2 2 0 1 0 .001-3.999 2 2 0 0 0-.001 3.999Zm8.003 0a2 2 0 1 0 0-4 2 2 0 0 0 0 4Zm8.002 0a2 2 0 1 0 0-4 2 2 0 0 0 0 4Zm8.002 0a2 2 0 1 0 0-4 2 2 0 0 0 0 4Zm8.002 0a2 2 0 1 0 .001-3.999 2 2 0 0 0-.001 3.999Zm8.002 0a2 2 0 1 0 .001-3.999 2 2 0 0 0-.001 3.999Zm7.989 0a2 2 0 1 0 .001-3.999 2 2 0 0 0-.001 3.999Zm176.01 0a2 2 0 1 0 .001-3.999 2 2 0 0 0-.001 3.999Zm8.002 0a2 2 0 1 0 0-4 2 2 0 0 0 0 4Zm8.002 0a2 2 0 1 0 .001-3.999 2 2 0 0 0-.001 3.999Zm7.99 0a2 2 0 1 0 0-4 2 2 0 0 0 0 4Zm32.008 0a2 2 0 1 0 .001-3.999 2 2 0 0 0-.001 3.999Zm15.992 0a2 2 0 1 0 0-4 2 2 0 0 0 0 4Zm8.002 0a2 2 0 1 0 .001-3.999 2 2 0 0 0-.001 3.999Zm8.002 0a2 2 0 1 0 .001-3.999 2 2 0 0 0-.001 3.999Zm24.007 0a2 2 0 1 0 0-4 2 2 0 0 0 0 4Zm23.993 0a2 2 0 1 0 .001-4 2 2 0 0 0-.001 4Zm8.002 0a2 2 0 1 0 .001-3.999 2 2 0 0 0-.001 3.999Zm24.007 0a2 2 0 1 0 0-4 2 2 0 0 0 0 4Zm7.989 0a2 2 0 1 0 .001-3.999 2 2 0 0 0-.001 3.999Zm8.003 0a2 2 0 1 0 .001-3.999 2 2 0 0 0-.001 3.999Zm8.002 0a2 2 0 1 0 .001-3.999 2 2 0 0 0-.001 3.999Zm8.002 0a2 2 0 1 0 0-4 2 2 0 0 0 0 4Zm8.002 0a2 2 0 1 0 .001-3.999 2 2 0 0 0-.001 3.999Zm8.002 0a2 2 0 1 0 .001-3.999 2 2 0 0 0-.001 3.999Zm7.99 0a2 2 0 1 0 0-4 2 2 0 0 0 0 4Zm8.002 0a2 2 0 1 0 .001-3.999 2 2 0 0 0-.001 3.999Zm8.002 0a2 2 0 1 0 .001-3.999 2 2 0 0 0-.001 3.999Zm8.002 0a2 2 0 1 0 0-4 2 2 0 0 0 0 4Zm8.003 0a2 2 0 1 0 0-4 2 2 0 0 0 0 4Zm8.002 0a2 2 0 1 0 0-4 2 2 0 0 0 0 4Zm7.989 0a2 2 0 1 0 .001-3.999 2 2 0 0 0-.001 3.999Zm8.002 0a2 2 0 1 0 .001-3.999 2 2 0 0 0-.001 3.999Zm8.002 0a2 2 0 1 0 .001-3.999 2 2 0 0 0-.001 3.999Zm8.002 0a2 2 0 1 0 .001-3.999 2 2 0 0 0-.001 3.999Zm8.002 0a2 2 0 1 0 .001-3.999 2 2 0 0 0-.001 3.999Zm8.003 0a2 2 0 1 0 0-4 2 2 0 0 0 0 4Zm7.989 0a2 2 0 1 0 .001-3.999 2 2 0 0 0-.001 3.999Zm8.002 0a2 2 0 1 0 .001-3.999 2 2 0 0 0-.001 3.999Zm8.002 0a2 2 0 1 0 .001-3.999 2 2 0 0 0-.001 3.999Zm8.003 0a2 2 0 1 0 0-4 2 2 0 0 0 0 4Zm8.002 0a2 2 0 1 0 0-4 2 2 0 0 0 0 4Zm8.002 0a2 2 0 1 0 .001-3.999 2 2 0 0 0-.001 3.999Zm8.002 0a2 2 0 1 0 .001-3.999 2 2 0 0 0-.001 3.999Zm31.996 0a2 2 0 1 0 0-4 2 2 0 0 0 0 4Zm-720.016 8.003a2 2 0 1 0 0-4 2 2 0 0 0 0 4Zm8.002 0a2 2 0 1 0 0-4 2 2 0 0 0 0 4Zm8.002 0a2 2 0 1 0 0-4 2 2 0 0 0 0 4Zm8.003 0a2 2 0 1 0-.001-4 2 2 0 0 0 0 4Zm8.001 0a2 2 0 1 0 0-4.002A2 2 0 0 0 98 140Zm8.002 0a2 2 0 1 0 0-4 2 2 0 0 0 0 4Zm7.99 0a2 2 0 1 0 0-4 2 2 0 0 0 0 4Zm8.002 0a2 2 0 1 0 0-4 2 2 0 0 0 0 4Zm8.002 0a2 2 0 1 0 0-4 2 2 0 0 0 0 4Zm8.003 0a2 2 0 1 0-.001-4.001 2 2 0 0 0 .001 4.001Zm8.002 0a2 2 0 1 0 0-4 2 2 0 0 0 0 4Zm8.002 0a2 2 0 1 0 0-4 2 2 0 0 0 0 4Zm7.989 0a2 2 0 1 0 0-4 2 2 0 0 0 0 4Zm8.003 0a2 2 0 1 0-.001-4.001 2 2 0 0 0 .001 4.001Zm8.002 0a2 2 0 1 0-.001-4.001 2 2 0 0 0 .001 4.001Zm8.002 0a2 2 0 1 0-.001-4.001 2 2 0 0 0 .001 4.001Zm8.002 0a2 2 0 1 0 0-4 2 2 0 0 0 0 4Zm183.999 0a2 2 0 1 0-.001-4.001 2 2 0 0 0 .001 4.001Zm8.002 0a2 2 0 1 0 0-4 2 2 0 0 0 0 4Zm16.004 0a2 2 0 1 0 0-4 2 2 0 0 0 0 4Zm48 0a2 2 0 1 0 0-4 2 2 0 0 0 0 4Zm15.992 0a2 2 0 1 0 0-4 2 2 0 0 0 0 4Zm16.004 0a2 2 0 1 0 0-4 2 2 0 0 0 0 4Zm8.003 0a2 2 0 1 0-.001-4.001 2 2 0 0 0 .001 4.001Zm8.002 0a2 2 0 1 0-.001-4.001 2 2 0 0 0 .001 4.001Zm7.989 0a2 2 0 1 0 0-4 2 2 0 0 0 0 4Zm8.002 0a2 2 0 1 0 0-4 2 2 0 0 0 0 4Zm8.002 0a2 2 0 1 0 0-4.002 2 2 0 0 0 0 4.002Zm8.002 0a2 2 0 1 0 0-4 2 2 0 0 0 0 4Zm8.002 0a2 2 0 1 0 0-4 2 2 0 0 0 0 4Zm16.005 0a2 2 0 1 0-.001-4.001 2 2 0 0 0 .001 4.001Zm7.989 0a2 2 0 1 0 0-4 2 2 0 0 0 0 4Zm8.003 0a2 2 0 1 0 0-4 2 2 0 0 0 0 4Zm8.002 0a2 2 0 1 0 0-4 2 2 0 0 0 0 4Zm8.002 0a2 2 0 1 0-.001-4.001 2 2 0 0 0 .001 4.001Zm8.002 0a2 2 0 1 0 0-4 2 2 0 0 0 0 4Zm8.002 0a2 2 0 1 0 0-4 2 2 0 0 0 0 4Zm7.99 0a2 2 0 1 0-.001-4.001 2 2 0 0 0 .001 4.001Zm8.002 0a2 2 0 1 0 0-4 2 2 0 0 0 0 4Zm8.002 0a2 2 0 1 0 0-4 2 2 0 0 0 0 4Zm8.002 0a2 2 0 1 0-.001-4.001 2 2 0 0 0 .001 4.001Zm8.003 0a2 2 0 1 0-.001-4.001 2 2 0 0 0 .001 4.001Zm8.002 0a2 2 0 1 0-.001-4.001 2 2 0 0 0 .001 4.001Zm7.989 0a2 2 0 1 0 0-4 2 2 0 0 0 0 4Zm8.002 0a2 2 0 1 0 0-4 2 2 0 0 0 0 4Zm8.002 0a2 2 0 1 0 0-4 2 2 0 0 0 0 4Zm8.002 0a2 2 0 1 0 0-4 2 2 0 0 0 0 4Zm8.002 0a2 2 0 1 0 0-4 2 2 0 0 0 0 4Zm8.003 0a2 2 0 1 0-.001-4.001 2 2 0 0 0 .001 4.001Zm7.989 0a2 2 0 1 0 0-4 2 2 0 0 0 0 4Zm8.002 0a2 2 0 1 0 0-4 2 2 0 0 0 0 4Zm8.002 0a2 2 0 1 0 0-4 2 2 0 0 0 0 4Zm8.003 0a2 2 0 1 0-.001-4.001 2 2 0 0 0 .001 4.001Zm23.994 0a2 2 0 1 0-.001-4.001 2 2 0 0 0 .001 4.001Zm40.01 0a2 2 0 1 0 0-4 2 2 0 0 0 0 4Zm-728.018 8.002a2 2 0 1 0 0-4.001 2 2 0 0 0 0 4.001Zm8.002 0a2 2 0 1 0-.001-4.001 2 2 0 0 0 .001 4.001Zm8.002 0a2 2 0 1 0-.001-4.001 2 2 0 0 0 .001 4.001Zm8.003 0a2 2 0 1 0-.002-4.001 2 2 0 0 0 .003 4Zm8.001 0a2.001 2.001 0 1 0 0-4.002 2.001 2.001 0 0 0 0 4.002Zm8.002 0a2 2 0 1 0 0-4 2 2 0 0 0 0 4Zm7.99 0a2 2 0 1 0 0-4 2 2 0 0 0 0 4Zm8.002 0a2 2 0 1 0 0-4 2 2 0 0 0 0 4Zm8.002 0a2 2 0 1 0 0-4 2 2 0 0 0 0 4Zm8.003 0a2 2 0 1 0-.002-4.002 2 2 0 0 0 .002 4.002Zm8.002 0a2 2 0 1 0 0-4 2 2 0 0 0 0 4Zm8.002 0a2 2 0 1 0 0-4 2 2 0 0 0 0 4Zm7.989 0a2 2 0 1 0 0-4 2 2 0 0 0 0 4Zm8.003 0a2 2 0 1 0-.002-4.002 2 2 0 0 0 .002 4.002Zm8.002 0a2 2 0 1 0-.002-4.002 2 2 0 0 0 .002 4.002Zm8.002 0a2 2 0 1 0-.002-4.002 2 2 0 0 0 .002 4.002Zm200.003 0a2 2 0 1 0 0-4 2 2 0 0 0 0 4Zm8.002 0a2 2 0 1 0-.002-4.002 2 2 0 0 0 .002 4.002Zm23.994 0a2 2 0 1 0 0-4 2 2 0 0 0 0 4Zm8.002 0a2 2 0 1 0 0-4 2 2 0 0 0 0 4Zm8.002 0a2 2 0 1 0 0-4 2 2 0 0 0 0 4Zm31.996 0a2 2 0 1 0 0-4 2 2 0 0 0 0 4Zm16.004 0a2 2 0 1 0 0-4 2 2 0 0 0 0 4Zm8.003 0a2 2 0 1 0-.002-4.002 2 2 0 0 0 .002 4.002Zm8.002 0a2 2 0 1 0-.002-4.002 2 2 0 0 0 .002 4.002Zm7.989 0a2 2 0 1 0 0-4 2 2 0 0 0 0 4Zm8.002 0a2 2 0 1 0 0-4 2 2 0 0 0 0 4Zm8.002 0a2.001 2.001 0 1 0 0-4.002 2.001 2.001 0 0 0 0 4.002Zm8.002 0a2 2 0 1 0 0-4 2 2 0 0 0 0 4Zm8.002 0a2 2 0 1 0 0-4 2 2 0 0 0 0 4Zm8.003 0a2 2 0 1 0-.002-4.002 2 2 0 0 0 .002 4.002Zm8.002 0a2 2 0 1 0-.002-4.002 2 2 0 0 0 .002 4.002Zm7.989 0a2 2 0 1 0 0-4 2 2 0 0 0 0 4Zm8.003 0a2 2 0 1 0 0-4 2 2 0 0 0 0 4Zm8.002 0a2 2 0 1 0 0-4 2 2 0 0 0 0 4Zm8.002 0a2 2 0 1 0-.002-4.002 2 2 0 0 0 .002 4.002Zm8.002 0a2 2 0 1 0 0-4 2 2 0 0 0 0 4Zm8.002 0a2 2 0 1 0 0-4 2 2 0 0 0 0 4Zm7.99 0a2 2 0 1 0-.002-4.002 2 2 0 0 0 .002 4.002Zm8.002 0a2 2 0 1 0 0-4 2 2 0 0 0 0 4Zm8.002 0a2 2 0 1 0 0-4 2 2 0 0 0 0 4Zm8.002 0a2 2 0 1 0-.002-4.002 2 2 0 0 0 .002 4.002Zm8.003 0a2 2 0 1 0-.002-4.002 2 2 0 0 0 .002 4.002Zm8.002 0a2 2 0 1 0-.002-4.002 2 2 0 0 0 .002 4.002Zm7.989 0a2 2 0 1 0 0-4 2 2 0 0 0 0 4Zm8.002 0a2 2 0 1 0 0-4 2 2 0 0 0 0 4Zm8.002 0a2 2 0 1 0 0-4 2 2 0 0 0 0 4Zm8.002 0a2 2 0 1 0 0-4 2 2 0 0 0 0 4Zm8.002 0a2 2 0 1 0 0-4 2 2 0 0 0 0 4Zm8.003 0a2 2 0 1 0-.002-4.002 2 2 0 0 0 .002 4.002Zm7.989 0a2 2 0 1 0 0-4 2 2 0 0 0 0 4Zm8.002 0a2 2 0 1 0 0-4 2 2 0 0 0 0 4Zm8.002 0a2 2 0 1 0 0-4 2 2 0 0 0 0 4Zm8.003 0a2 2 0 1 0-.002-4.002 2 2 0 0 0 .002 4.002Zm8.002 0a2 2 0 1 0-.002-4.002 2 2 0 0 0 .002 4.002Zm8.002 0a2 2 0 1 0 0-4 2 2 0 0 0 0 4Zm15.991 0a2 2 0 1 0 0-4 2 2 0 0 0 0 4Zm32.009 0a2 2 0 1 0 0-4 2 2 0 0 0 0 4ZM65.992 155.99a2 2 0 1 0 0-4 2 2 0 0 0 0 4Zm8.002 0a2 2 0 1 0 0-4 2 2 0 0 0 0 4Zm8.002 0a2 2 0 1 0 0-4 2 2 0 0 0 0 4Zm8.003 0a2 2 0 1 0 0-4 2 2 0 0 0 0 4Zm8.001 0a2 2 0 1 0 .001-4 2 2 0 0 0 0 4Zm8.002 0a2 2 0 1 0 .001-3.999 2 2 0 0 0-.001 3.999Zm7.99 0a2 2 0 1 0 .001-3.999 2 2 0 0 0-.001 3.999Zm8.002 0a2 2 0 1 0 .001-3.999 2 2 0 0 0-.001 3.999Zm8.002 0a2 2 0 1 0 .001-3.999 2 2 0 0 0-.001 3.999Zm8.003 0a2 2 0 1 0 0-4 2 2 0 0 0 0 4Zm8.002 0a2 2 0 1 0 .001-3.999 2 2 0 0 0-.001 3.999Zm8.002 0a2 2 0 1 0 .001-3.999 2 2 0 0 0-.001 3.999Zm7.989 0a2 2 0 1 0 .001-3.999 2 2 0 0 0-.001 3.999Zm8.003 0a2 2 0 1 0 0-4 2 2 0 0 0 0 4Zm8.002 0a2 2 0 1 0 0-4 2 2 0 0 0 0 4Zm208.005 0a2 2 0 1 0 .001-3.999 2 2 0 0 0-.001 3.999Zm8.002 0a2 2 0 1 0 0-4 2 2 0 0 0 0 4Zm8.002 0a2 2 0 1 0 .001-3.999 2 2 0 0 0-.001 3.999Zm7.99 0a2 2 0 1 0 0-4 2 2 0 0 0 0 4Zm8.002 0a2 2 0 1 0 .001-3.999 2 2 0 0 0-.001 3.999Zm8.002 0a2 2 0 1 0 .001-3.999 2 2 0 0 0-.001 3.999Zm79.996 0a2 2 0 1 0 .001-3.999 2 2 0 0 0-.001 3.999Zm8.002 0a2 2 0 1 0 .001-3.999 2 2 0 0 0-.001 3.999Zm8.002 0a2 2 0 1 0 .001-4 2 2 0 0 0-.001 4Zm8.002 0a2 2 0 1 0 .001-3.999 2 2 0 0 0-.001 3.999Zm8.002 0a2 2 0 1 0 .001-3.999 2 2 0 0 0-.001 3.999Zm8.003 0a2 2 0 1 0 0-4 2 2 0 0 0 0 4Zm8.002 0a2 2 0 1 0 0-4 2 2 0 0 0 0 4Zm7.989 0a2 2 0 1 0 .001-3.999 2 2 0 0 0-.001 3.999Zm8.003 0a2 2 0 1 0 .001-3.999 2 2 0 0 0-.001 3.999Zm8.002 0a2 2 0 1 0 .001-3.999 2 2 0 0 0-.001 3.999Zm8.002 0a2 2 0 1 0 0-4 2 2 0 0 0 0 4Zm8.002 0a2 2 0 1 0 .001-3.999 2 2 0 0 0-.001 3.999Zm8.002 0a2 2 0 1 0 .001-3.999 2 2 0 0 0-.001 3.999Zm7.99 0a2 2 0 1 0 0-4 2 2 0 0 0 0 4Zm8.002 0a2 2 0 1 0 .001-3.999 2 2 0 0 0-.001 3.999Zm8.002 0a2 2 0 1 0 .001-3.999 2 2 0 0 0-.001 3.999Zm8.002 0a2 2 0 1 0 0-4 2 2 0 0 0 0 4Zm8.003 0a2 2 0 1 0 0-4 2 2 0 0 0 0 4Zm8.002 0a2 2 0 1 0 0-4 2 2 0 0 0 0 4Zm7.989 0a2 2 0 1 0 .001-3.999 2 2 0 0 0-.001 3.999Zm8.002 0a2 2 0 1 0 .001-3.999 2 2 0 0 0-.001 3.999Zm8.002 0a2 2 0 1 0 .001-3.999 2 2 0 0 0-.001 3.999Zm8.002 0a2 2 0 1 0 .001-3.999 2 2 0 0 0-.001 3.999Zm8.002 0a2 2 0 1 0 .001-3.999 2 2 0 0 0-.001 3.999Zm8.003 0a2 2 0 1 0 0-4 2 2 0 0 0 0 4Zm7.989 0a2 2 0 1 0 .001-3.999 2 2 0 0 0-.001 3.999Zm8.002 0a2 2 0 1 0 .001-3.999 2 2 0 0 0-.001 3.999Zm8.002 0a2 2 0 1 0 .001-3.999 2 2 0 0 0-.001 3.999Zm8.003 0a2 2 0 1 0 0-4 2 2 0 0 0 0 4Zm8.002 0a2 2 0 1 0 0-4 2 2 0 0 0 0 4Zm56.002 0a2 2 0 1 0 .001-3.999 2 2 0 0 0-.001 3.999Zm-728.018 8.002a2 2 0 1 0 0-4 2 2 0 0 0 0 4Zm8.002 0a2 2 0 1 0 0-4 2 2 0 0 0 0 4Zm8.002 0a2 2 0 1 0 0-4 2 2 0 0 0 0 4Zm8.003 0a2 2 0 1 0 0-4 2 2 0 0 0 0 4Zm8.001 0a2 2 0 1 0 .001-4 2 2 0 0 0 0 4Zm8.002 0a2 2 0 1 0 .001-3.999 2 2 0 0 0-.001 3.999Zm7.99 0a2 2 0 1 0 .001-3.999 2 2 0 0 0-.001 3.999Zm8.002 0a2 2 0 1 0 .001-3.999 2 2 0 0 0-.001 3.999Zm8.002 0a2 2 0 1 0 .001-3.999 2 2 0 0 0-.001 3.999Zm8.003 0a2 2 0 1 0 0-4 2 2 0 0 0 0 4Zm8.002 0a2 2 0 1 0 .001-3.999 2 2 0 0 0-.001 3.999Zm8.002 0a2 2 0 1 0 .001-3.999 2 2 0 0 0-.001 3.999Zm7.989 0a2 2 0 1 0 .001-3.999 2 2 0 0 0-.001 3.999Zm216.008 0a2 2 0 1 0 0-4 2 2 0 0 0 0 4Zm8.002 0a2 2 0 1 0 .001-3.999 2 2 0 0 0-.001 3.999Zm8.002 0a2 2 0 1 0 0-4 2 2 0 0 0 0 4Zm8.002 0a2 2 0 1 0 .001-3.999 2 2 0 0 0-.001 3.999Zm7.99 0a2 2 0 1 0 0-4 2 2 0 0 0 0 4Zm8.002 0a2 2 0 1 0 .001-3.999 2 2 0 0 0-.001 3.999Zm8.002 0a2 2 0 1 0 .001-3.999 2 2 0 0 0-.001 3.999Zm8.002 0a2 2 0 1 0 .001-3.999 2 2 0 0 0-.001 3.999Zm8.002 0a2 2 0 1 0 .001-3.999 2 2 0 0 0-.001 3.999Zm23.994 0a2 2 0 1 0 .001-3.999 2 2 0 0 0-.001 3.999Zm8.002 0a2 2 0 1 0 .001-3.999 2 2 0 0 0-.001 3.999Zm31.996 0a2 2 0 1 0 .001-3.999 2 2 0 0 0-.001 3.999Zm8.002 0a2 2 0 1 0 .001-3.999 2 2 0 0 0-.001 3.999Zm8.002 0a2 2 0 1 0 .001-4 2 2 0 0 0-.001 4Zm8.002 0a2 2 0 1 0 .001-3.999 2 2 0 0 0-.001 3.999Zm8.002 0a2 2 0 1 0 .001-3.999 2 2 0 0 0-.001 3.999Zm8.003 0a2 2 0 1 0 0-4 2 2 0 0 0 0 4Zm8.002 0a2 2 0 1 0 0-4 2 2 0 0 0 0 4Zm7.989 0a2 2 0 1 0 .001-3.999 2 2 0 0 0-.001 3.999Zm8.003 0a2 2 0 1 0 .001-3.999 2 2 0 0 0-.001 3.999Zm8.002 0a2 2 0 1 0 .001-3.999 2 2 0 0 0-.001 3.999Zm8.002 0a2 2 0 1 0 0-4 2 2 0 0 0 0 4Zm8.002 0a2 2 0 1 0 .001-3.999 2 2 0 0 0-.001 3.999Zm8.002 0a2 2 0 1 0 .001-3.999 2 2 0 0 0-.001 3.999Zm7.99 0a2 2 0 1 0 0-4 2 2 0 0 0 0 4Zm8.002 0a2 2 0 1 0 .001-3.999 2 2 0 0 0-.001 3.999Zm8.002 0a2 2 0 1 0 .001-3.999 2 2 0 0 0-.001 3.999Zm8.002 0a2 2 0 1 0 0-4 2 2 0 0 0 0 4Zm8.003 0a2 2 0 1 0 0-4 2 2 0 0 0 0 4Zm8.002 0a2 2 0 1 0 0-4 2 2 0 0 0 0 4Zm7.989 0a2 2 0 1 0 .001-3.999 2 2 0 0 0-.001 3.999Zm8.002 0a2 2 0 1 0 .001-3.999 2 2 0 0 0-.001 3.999Zm8.002 0a2 2 0 1 0 .001-3.999 2 2 0 0 0-.001 3.999Zm8.002 0a2 2 0 1 0 .001-3.999 2 2 0 0 0-.001 3.999Zm8.002 0a2 2 0 1 0 .001-3.999 2 2 0 0 0-.001 3.999Zm8.003 0a2 2 0 1 0 0-4 2 2 0 0 0 0 4Zm7.989 0a2 2 0 1 0 .001-3.999 2 2 0 0 0-.001 3.999Zm8.002 0a2 2 0 1 0 .001-3.999 2 2 0 0 0-.001 3.999Zm8.002 0a2 2 0 1 0 .001-3.999 2 2 0 0 0-.001 3.999Zm8.003 0a2 2 0 1 0 0-4 2 2 0 0 0 0 4Zm8.002 0a2 2 0 1 0 0-4 2 2 0 0 0 0 4Zm8.002 0a2 2 0 1 0 .001-3.999 2 2 0 0 0-.001 3.999Zm7.99 0a2 2 0 1 0 0-4 2 2 0 0 0 0 4Zm-672.004 8.003a2 2 0 1 0 0-4 2 2 0 0 0 0 4Zm8.003 0a2 2 0 1 0-.001-4 2 2 0 0 0 0 4Zm8.001 0a2 2 0 1 0 0-4.002 2 2 0 0 0 0 4.002Zm8.002 0a2 2 0 1 0 0-4 2 2 0 0 0 0 4Zm7.99 0a2 2 0 1 0 0-4 2 2 0 0 0 0 4Zm8.002 0a2 2 0 1 0 0-4 2 2 0 0 0 0 4Zm16.005 0a2 2 0 1 0-.001-4.001 2 2 0 0 0 .001 4.001Zm23.993 0a2 2 0 1 0 0-4 2 2 0 0 0 0 4Zm216.008 0a2 2 0 1 0-.001-4.001 2 2 0 0 0 .001 4.001Zm8.002 0a2 2 0 1 0 0-4 2 2 0 0 0 0 4Zm8.002 0a2 2 0 1 0-.001-4.001 2 2 0 0 0 .001 4.001Zm8.002 0a2 2 0 1 0 0-4 2 2 0 0 0 0 4Zm7.99 0a2 2 0 1 0-.001-4.001 2 2 0 0 0 .001 4.001Zm8.002 0a2 2 0 1 0 0-4 2 2 0 0 0 0 4Zm8.002 0a2 2 0 1 0 0-4 2 2 0 0 0 0 4Zm8.002 0a2 2 0 1 0 0-4 2 2 0 0 0 0 4Zm8.002 0a2 2 0 1 0 0-4 2 2 0 0 0 0 4Zm8.002 0a2 2 0 1 0 0-4 2 2 0 0 0 0 4Zm7.99 0a2 2 0 1 0-.001-4.001 2 2 0 0 0 .001 4.001Zm8.002 0a2 2 0 1 0 0-4 2 2 0 0 0 0 4Zm8.002 0a2 2 0 1 0 0-4 2 2 0 0 0 0 4Zm8.002 0a2 2 0 1 0 0-4 2 2 0 0 0 0 4Zm8.003 0a2 2 0 1 0-.001-4.001 2 2 0 0 0 .001 4.001Zm8.002 0a2 2 0 1 0-.001-4.001 2 2 0 0 0 .001 4.001Zm7.989 0a2 2 0 1 0 0-4 2 2 0 0 0 0 4Zm8.002 0a2 2 0 1 0 0-4 2 2 0 0 0 0 4Zm8.002 0a2 2 0 1 0 0-4.002 2 2 0 0 0 0 4.002Zm8.002 0a2 2 0 1 0 0-4 2 2 0 0 0 0 4Zm8.002 0a2 2 0 1 0 0-4 2 2 0 0 0 0 4Zm16.005 0a2 2 0 1 0-.001-4.001 2 2 0 0 0 .001 4.001Zm7.989 0a2 2 0 1 0 0-4 2 2 0 0 0 0 4Zm8.003 0a2 2 0 1 0 0-4 2 2 0 0 0 0 4Zm8.002 0a2 2 0 1 0 0-4 2 2 0 0 0 0 4Zm8.002 0a2 2 0 1 0-.001-4.001 2 2 0 0 0 .001 4.001Zm8.002 0a2 2 0 1 0 0-4 2 2 0 0 0 0 4Zm8.002 0a2 2 0 1 0 0-4 2 2 0 0 0 0 4Zm7.99 0a2 2 0 1 0-.001-4.001 2 2 0 0 0 .001 4.001Zm8.002 0a2 2 0 1 0 0-4 2 2 0 0 0 0 4Zm8.002 0a2 2 0 1 0 0-4 2 2 0 0 0 0 4Zm8.002 0a2 2 0 1 0-.001-4.001 2 2 0 0 0 .001 4.001Zm8.003 0a2 2 0 1 0-.001-4.001 2 2 0 0 0 .001 4.001Zm8.002 0a2 2 0 1 0-.001-4.001 2 2 0 0 0 .001 4.001Zm7.989 0a2 2 0 1 0 0-4 2 2 0 0 0 0 4Zm8.002 0a2 2 0 1 0 0-4 2 2 0 0 0 0 4Zm8.002 0a2 2 0 1 0 0-4 2 2 0 0 0 0 4Zm8.002 0a2 2 0 1 0 0-4 2 2 0 0 0 0 4Zm8.002 0a2 2 0 1 0 0-4 2 2 0 0 0 0 4Zm8.003 0a2 2 0 1 0-.001-4.001 2 2 0 0 0 .001 4.001Zm7.989 0a2 2 0 1 0 0-4 2 2 0 0 0 0 4Zm8.002 0a2 2 0 1 0 0-4 2 2 0 0 0 0 4Zm8.002 0a2 2 0 1 0 0-4 2 2 0 0 0 0 4Zm8.003 0a2 2 0 1 0-.001-4.001 2 2 0 0 0 .001 4.001Zm8.002 0a2 2 0 1 0-.001-4.001 2 2 0 0 0 .001 4.001Zm16.004 0a2 2 0 1 0 0-4 2 2 0 0 0 0 4Zm7.989 0a2 2 0 1 0 0-4 2 2 0 0 0 0 4Zm-680.005 8.002a2 2 0 1 0 0-4 2 2 0 0 0 0 4Zm8.003 0a2 2 0 1 0-.001-4 2 2 0 0 0 0 4Zm8.001 0a2 2 0 1 0 0-4.002 2 2 0 0 0 0 4.002Zm8.002 0a2 2 0 1 0 0-4 2 2 0 0 0 0 4Zm7.99 0a2 2 0 1 0 0-4 2 2 0 0 0 0 4Zm48 0a2 2 0 1 0 0-4 2 2 0 0 0 0 4Zm8.003 0a2 2 0 1 0-.001-4.001 2 2 0 0 0 .001 4.001Zm200.003 0a2 2 0 1 0-.001-4.001 2 2 0 0 0 .001 4.001Zm8.002 0a2 2 0 1 0-.001-4.001 2 2 0 0 0 .001 4.001Zm8.002 0a2 2 0 1 0 0-4 2 2 0 0 0 0 4Zm8.002 0a2 2 0 1 0-.001-4.001 2 2 0 0 0 .001 4.001Zm8.002 0a2 2 0 1 0 0-4 2 2 0 0 0 0 4Zm7.99 0a2 2 0 1 0-.001-4.001 2 2 0 0 0 .001 4.001Zm8.002 0a2 2 0 1 0 0-4 2 2 0 0 0 0 4Zm8.002 0a2 2 0 1 0 0-4 2 2 0 0 0 0 4Zm8.002 0a2 2 0 1 0 0-4 2 2 0 0 0 0 4Zm8.002 0a2 2 0 1 0 0-4 2 2 0 0 0 0 4Zm8.002 0a2 2 0 1 0 0-4 2 2 0 0 0 0 4Zm7.99 0a2 2 0 1 0-.001-4.001 2 2 0 0 0 .001 4.001Zm8.002 0a2 2 0 1 0 0-4 2 2 0 0 0 0 4Zm8.002 0a2 2 0 1 0 0-4 2 2 0 0 0 0 4Zm8.002 0a2 2 0 1 0 0-4 2 2 0 0 0 0 4Zm8.003 0a2 2 0 1 0-.001-4.001 2 2 0 0 0 .001 4.001Zm8.002 0a2 2 0 1 0-.001-4.001 2 2 0 0 0 .001 4.001Zm15.991 0a2 2 0 1 0 0-4 2 2 0 0 0 0 4Zm8.002 0a2 2 0 1 0 0-4.002 2 2 0 0 0 0 4.002Zm8.002 0a2 2 0 1 0 0-4 2 2 0 0 0 0 4Zm8.002 0a2 2 0 1 0 0-4 2 2 0 0 0 0 4Zm8.003 0a2 2 0 1 0-.001-4.001 2 2 0 0 0 .001 4.001Zm31.996 0a2 2 0 1 0 0-4 2 2 0 0 0 0 4Zm8.002 0a2 2 0 1 0-.001-4.001 2 2 0 0 0 .001 4.001Zm8.002 0a2 2 0 1 0 0-4 2 2 0 0 0 0 4Zm8.002 0a2 2 0 1 0 0-4 2 2 0 0 0 0 4Zm7.99 0a2 2 0 1 0-.001-4.001 2 2 0 0 0 .001 4.001Zm8.002 0a2 2 0 1 0 0-4 2 2 0 0 0 0 4Zm8.002 0a2 2 0 1 0 0-4 2 2 0 0 0 0 4Zm8.002 0a2 2 0 1 0-.001-4.001 2 2 0 0 0 .001 4.001Zm8.003 0a2 2 0 1 0-.001-4.001 2 2 0 0 0 .001 4.001Zm8.002 0a2 2 0 1 0-.001-4.001 2 2 0 0 0 .001 4.001Zm7.989 0a2 2 0 1 0 0-4 2 2 0 0 0 0 4Zm8.002 0a2 2 0 1 0 0-4 2 2 0 0 0 0 4Zm8.002 0a2 2 0 1 0 0-4 2 2 0 0 0 0 4Zm8.002 0a2 2 0 1 0 0-4 2 2 0 0 0 0 4Zm8.002 0a2 2 0 1 0 0-4 2 2 0 0 0 0 4Zm8.003 0a2 2 0 1 0-.001-4.001 2 2 0 0 0 .001 4.001Zm7.989 0a2 2 0 1 0 0-4 2 2 0 0 0 0 4Zm8.002 0a2 2 0 1 0 0-4 2 2 0 0 0 0 4Zm8.002 0a2 2 0 1 0 0-4 2 2 0 0 0 0 4Zm8.003 0a2 2 0 1 0-.001-4.001 2 2 0 0 0 .001 4.001Zm8.002 0a2 2 0 1 0-.001-4.001 2 2 0 0 0 .001 4.001Zm8.002 0a2 2 0 1 0 0-4 2 2 0 0 0 0 4Zm7.99 0a2 2 0 1 0-.001-4.001 2 2 0 0 0 .001 4.001Zm-680.006 8.002a2 2 0 1 0 0-4 2 2 0 0 0 0 4Zm16.005 0a2 2 0 1 0-.001-4 2 2 0 0 0 0 4Zm8.001 0a2 2 0 1 0 0-4.002A2 2 0 0 0 98 188Zm8.002 0a2 2 0 1 0 0-4 2 2 0 0 0 0 4Zm255.993 0a2 2 0 1 0 0-4 2 2 0 0 0 0 4Zm8.003 0a2 2 0 1 0-.001-4.001 2 2 0 0 0 .001 4.001Zm8.002 0a2 2 0 1 0-.001-4.001 2 2 0 0 0 .001 4.001Zm8.002 0a2 2 0 1 0 0-4 2 2 0 0 0 0 4Zm8.002 0a2 2 0 1 0-.001-4.001 2 2 0 0 0 .001 4.001Zm8.002 0a2 2 0 1 0 0-4 2 2 0 0 0 0 4Zm7.99 0a2 2 0 1 0-.001-4.001 2 2 0 0 0 .001 4.001Zm8.002 0a2 2 0 1 0 0-4 2 2 0 0 0 0 4Zm8.002 0a2 2 0 1 0 0-4 2 2 0 0 0 0 4Zm8.002 0a2 2 0 1 0 0-4 2 2 0 0 0 0 4Zm8.002 0a2 2 0 1 0 0-4 2 2 0 0 0 0 4Zm8.002 0a2 2 0 1 0 0-4 2 2 0 0 0 0 4Zm7.99 0a2 2 0 1 0-.001-4.001 2 2 0 0 0 .001 4.001Zm8.002 0a2 2 0 1 0 0-4 2 2 0 0 0 0 4Zm8.002 0a2 2 0 1 0 0-4 2 2 0 0 0 0 4Zm8.002 0a2 2 0 1 0 0-4 2 2 0 0 0 0 4Zm16.005 0a2 2 0 1 0-.001-4.001 2 2 0 0 0 .001 4.001Zm7.989 0a2 2 0 1 0 0-4 2 2 0 0 0 0 4Zm16.004 0a2 2 0 1 0 0-4.002 2 2 0 0 0 0 4.002Zm8.002 0a2 2 0 1 0 0-4 2 2 0 0 0 0 4Zm8.002 0a2 2 0 1 0 0-4 2 2 0 0 0 0 4Zm8.003 0a2 2 0 1 0-.001-4.001 2 2 0 0 0 .001 4.001Zm8.002 0a2 2 0 1 0-.001-4.001 2 2 0 0 0 .001 4.001Zm7.989 0a2 2 0 1 0 0-4 2 2 0 0 0 0 4Zm8.003 0a2 2 0 1 0 0-4 2 2 0 0 0 0 4Zm39.998 0a2 2 0 1 0-.001-4.001 2 2 0 0 0 .001 4.001Zm8.002 0a2 2 0 1 0 0-4 2 2 0 0 0 0 4Zm8.002 0a2 2 0 1 0 0-4 2 2 0 0 0 0 4Zm8.002 0a2 2 0 1 0-.001-4.001 2 2 0 0 0 .001 4.001Zm8.003 0a2 2 0 1 0-.001-4.001 2 2 0 0 0 .001 4.001Zm8.002 0a2 2 0 1 0-.001-4.001 2 2 0 0 0 .001 4.001Zm7.989 0a2 2 0 1 0 0-4 2 2 0 0 0 0 4Zm8.002 0a2 2 0 1 0 0-4 2 2 0 0 0 0 4Zm8.002 0a2 2 0 1 0 0-4 2 2 0 0 0 0 4Zm8.002 0a2 2 0 1 0 0-4 2 2 0 0 0 0 4Zm8.002 0a2 2 0 1 0 0-4 2 2 0 0 0 0 4Zm8.003 0a2 2 0 1 0-.001-4.001 2 2 0 0 0 .001 4.001Zm7.989 0a2 2 0 1 0 0-4 2 2 0 0 0 0 4Zm8.002 0a2 2 0 1 0 0-4 2 2 0 0 0 0 4Zm8.002 0a2 2 0 1 0 0-4 2 2 0 0 0 0 4Zm8.003 0a2 2 0 1 0-.001-4.001 2 2 0 0 0 .001 4.001Zm8.002 0a2 2 0 1 0-.001-4.001 2 2 0 0 0 .001 4.001Zm8.002 0a2 2 0 1 0 0-4 2 2 0 0 0 0 4Zm8.002 0a2 2 0 1 0 0-4 2 2 0 0 0 0 4Zm-664.013 8.002a2 2 0 1 0 0-4 2 2 0 0 0 0 4Zm8.001 0a2 2 0 1 0 .001-4 2 2 0 0 0 0 4Zm8.002 0a2 2 0 1 0 .001-3.999 2 2 0 0 0-.001 3.999Zm31.997 0a2 2 0 1 0 0-4 2 2 0 0 0 0 4Zm31.996 0a2 2 0 1 0 0-4 2 2 0 0 0 0 4Zm184.011 0a2 2 0 1 0 0-4 2 2 0 0 0 0 4Zm7.989 0a2 2 0 1 0 .001-3.999 2 2 0 0 0-.001 3.999Zm8.003 0a2 2 0 1 0 0-4 2 2 0 0 0 0 4Zm8.002 0a2 2 0 1 0 0-4 2 2 0 0 0 0 4Zm8.002 0a2 2 0 1 0 .001-3.999 2 2 0 0 0-.001 3.999Zm8.002 0a2 2 0 1 0 0-4 2 2 0 0 0 0 4Zm8.002 0a2 2 0 1 0 .001-3.999 2 2 0 0 0-.001 3.999Zm7.99 0a2 2 0 1 0 0-4 2 2 0 0 0 0 4Zm8.002 0a2 2 0 1 0 .001-3.999 2 2 0 0 0-.001 3.999Zm8.002 0a2 2 0 1 0 .001-3.999 2 2 0 0 0-.001 3.999Zm8.002 0a2 2 0 1 0 .001-3.999 2 2 0 0 0-.001 3.999Zm8.002 0a2 2 0 1 0 .001-3.999 2 2 0 0 0-.001 3.999Zm8.002 0a2 2 0 1 0 .001-3.999 2 2 0 0 0-.001 3.999Zm7.99 0a2 2 0 1 0 0-4 2 2 0 0 0 0 4Zm8.002 0a2 2 0 1 0 .001-3.999 2 2 0 0 0-.001 3.999Zm8.002 0a2 2 0 1 0 .001-3.999 2 2 0 0 0-.001 3.999Zm8.002 0a2 2 0 1 0 .001-3.999 2 2 0 0 0-.001 3.999Zm8.003 0a2 2 0 1 0 0-4 2 2 0 0 0 0 4Zm8.002 0a2 2 0 1 0 0-4 2 2 0 0 0 0 4Zm7.989 0a2 2 0 1 0 .001-3.999 2 2 0 0 0-.001 3.999Zm8.002 0a2 2 0 1 0 .001-3.999 2 2 0 0 0-.001 3.999Zm16.004 0a2 2 0 1 0 .001-3.999 2 2 0 0 0-.001 3.999Zm8.002 0a2 2 0 1 0 .001-3.999 2 2 0 0 0-.001 3.999Zm8.003 0a2 2 0 1 0 0-4 2 2 0 0 0 0 4Zm8.002 0a2 2 0 1 0 0-4 2 2 0 0 0 0 4Zm7.989 0a2 2 0 1 0 .001-3.999 2 2 0 0 0-.001 3.999Zm8.003 0a2 2 0 1 0 .001-3.999 2 2 0 0 0-.001 3.999Zm8.002 0a2 2 0 1 0 .001-3.999 2 2 0 0 0-.001 3.999Zm39.998 0a2 2 0 1 0 .001-3.999 2 2 0 0 0-.001 3.999Zm8.002 0a2 2 0 1 0 .001-3.999 2 2 0 0 0-.001 3.999Zm8.002 0a2 2 0 1 0 0-4 2 2 0 0 0 0 4Zm8.003 0a2 2 0 1 0 0-4 2 2 0 0 0 0 4Zm8.002 0a2 2 0 1 0 0-4 2 2 0 0 0 0 4Zm7.989 0a2 2 0 1 0 .001-3.999 2 2 0 0 0-.001 3.999Zm8.002 0a2 2 0 1 0 .001-3.999 2 2 0 0 0-.001 3.999Zm24.006 0a2 2 0 1 0 .001-3.999 2 2 0 0 0-.001 3.999Zm8.003 0a2 2 0 1 0 0-4 2 2 0 0 0 0 4Zm7.989 0a2 2 0 1 0 .001-3.999 2 2 0 0 0-.001 3.999Zm8.002 0a2 2 0 1 0 .001-3.999 2 2 0 0 0-.001 3.999Zm8.002 0a2 2 0 1 0 .001-3.999 2 2 0 0 0-.001 3.999Zm8.003 0a2 2 0 1 0 0-4 2 2 0 0 0 0 4Zm8.002 0a2 2 0 1 0 0-4 2 2 0 0 0 0 4ZM89.999 203.99a2 2 0 1 0 0-4 2 2 0 0 0 0 4Zm8.001 0a2 2 0 1 0 .001-4 2 2 0 0 0 0 4Zm8.002 0a2 2 0 1 0 .001-3.999 2 2 0 0 0-.001 3.999Zm23.994 0a2 2 0 1 0 .001-3.999 2 2 0 0 0-.001 3.999Zm56.003 0a2 2 0 1 0 0-4 2 2 0 0 0 0 4Zm8.002 0a2 2 0 1 0 .001-3.999 2 2 0 0 0-.001 3.999Zm167.994 0a2 2 0 1 0 .001-3.999 2 2 0 0 0-.001 3.999Zm8.003 0a2 2 0 1 0 0-4 2 2 0 0 0 0 4Zm8.002 0a2 2 0 1 0 0-4 2 2 0 0 0 0 4Zm8.002 0a2 2 0 1 0 .001-3.999 2 2 0 0 0-.001 3.999Zm8.002 0a2 2 0 1 0 0-4 2 2 0 0 0 0 4Zm8.002 0a2 2 0 1 0 .001-3.999 2 2 0 0 0-.001 3.999Zm7.99 0a2 2 0 1 0 0-4 2 2 0 0 0 0 4Zm8.002 0a2 2 0 1 0 .001-3.999 2 2 0 0 0-.001 3.999Zm8.002 0a2 2 0 1 0 .001-3.999 2 2 0 0 0-.001 3.999Zm8.002 0a2 2 0 1 0 .001-3.999 2 2 0 0 0-.001 3.999Zm8.002 0a2 2 0 1 0 .001-3.999 2 2 0 0 0-.001 3.999Zm8.002 0a2 2 0 1 0 .001-3.999 2 2 0 0 0-.001 3.999Zm7.99 0a2 2 0 1 0 0-4 2 2 0 0 0 0 4Zm8.002 0a2 2 0 1 0 .001-3.999 2 2 0 0 0-.001 3.999Zm8.002 0a2 2 0 1 0 .001-3.999 2 2 0 0 0-.001 3.999Zm8.002 0a2 2 0 1 0 .001-3.999 2 2 0 0 0-.001 3.999Zm8.003 0a2 2 0 1 0 0-4 2 2 0 0 0 0 4Zm8.002 0a2 2 0 1 0 0-4 2 2 0 0 0 0 4Zm7.989 0a2 2 0 1 0 .001-3.999 2 2 0 0 0-.001 3.999Zm8.002 0a2 2 0 1 0 .001-3.999 2 2 0 0 0-.001 3.999Zm16.004 0a2 2 0 1 0 .001-3.999 2 2 0 0 0-.001 3.999Zm8.002 0a2 2 0 1 0 .001-3.999 2 2 0 0 0-.001 3.999Zm8.003 0a2 2 0 1 0 0-4 2 2 0 0 0 0 4Zm8.002 0a2 2 0 1 0 0-4 2 2 0 0 0 0 4Zm7.989 0a2 2 0 1 0 .001-3.999 2 2 0 0 0-.001 3.999Zm8.003 0a2 2 0 1 0 .001-3.999 2 2 0 0 0-.001 3.999Zm8.002 0a2 2 0 1 0 .001-3.999 2 2 0 0 0-.001 3.999Zm48 0a2 2 0 1 0 .001-3.999 2 2 0 0 0-.001 3.999Zm8.002 0a2 2 0 1 0 0-4 2 2 0 0 0 0 4Zm8.003 0a2 2 0 1 0 0-4 2 2 0 0 0 0 4Zm8.002 0a2 2 0 1 0 0-4 2 2 0 0 0 0 4Zm7.989 0a2 2 0 1 0 .001-3.999 2 2 0 0 0-.001 3.999Zm32.008 0a2 2 0 1 0 .001-3.999 2 2 0 0 0-.001 3.999Zm8.003 0a2 2 0 1 0 0-4 2 2 0 0 0 0 4Zm7.989 0a2 2 0 1 0 .001-3.999 2 2 0 0 0-.001 3.999Zm8.002 0a2 2 0 1 0 .001-3.999 2 2 0 0 0-.001 3.999Zm8.002 0a2 2 0 1 0 .001-3.999 2 2 0 0 0-.001 3.999Zm16.005 0a2 2 0 1 0 0-4 2 2 0 0 0 0 4Zm-632.006 8.003a2 2 0 1 0 0-4 2 2 0 0 0 0 4Zm7.99 0a2 2 0 1 0 0-4 2 2 0 0 0 0 4Zm8.002 0a2 2 0 1 0 0-4 2 2 0 0 0 0 4Zm8.002 0a2 2 0 1 0 0-4 2 2 0 0 0 0 4Zm224.01 0a2 2 0 1 0-.001-4.001 2 2 0 0 0 .001 4.001Zm7.989 0a2 2 0 1 0 0-4 2 2 0 0 0 0 4Zm8.003 0a2 2 0 1 0-.001-4.001 2 2 0 0 0 .001 4.001Zm8.002 0a2 2 0 1 0-.001-4.001 2 2 0 0 0 .001 4.001Zm8.002 0a2 2 0 1 0 0-4 2 2 0 0 0 0 4Zm8.002 0a2 2 0 1 0-.001-4.001 2 2 0 0 0 .001 4.001Zm8.002 0a2 2 0 1 0 0-4 2 2 0 0 0 0 4Zm7.99 0a2 2 0 1 0-.001-4.001 2 2 0 0 0 .001 4.001Zm8.002 0a2 2 0 1 0 0-4 2 2 0 0 0 0 4Zm8.002 0a2 2 0 1 0 0-4 2 2 0 0 0 0 4Zm8.002 0a2 2 0 1 0 0-4 2 2 0 0 0 0 4Zm8.002 0a2 2 0 1 0 0-4 2 2 0 0 0 0 4Zm8.002 0a2 2 0 1 0 0-4 2 2 0 0 0 0 4Zm7.99 0a2 2 0 1 0-.001-4.001 2 2 0 0 0 .001 4.001Zm8.002 0a2 2 0 1 0 0-4 2 2 0 0 0 0 4Zm8.002 0a2 2 0 1 0 0-4 2 2 0 0 0 0 4Zm8.002 0a2 2 0 1 0 0-4 2 2 0 0 0 0 4Zm8.003 0a2 2 0 1 0-.001-4.001 2 2 0 0 0 .001 4.001Zm8.002 0a2 2 0 1 0-.001-4.001 2 2 0 0 0 .001 4.001Zm7.989 0a2 2 0 1 0 0-4 2 2 0 0 0 0 4Zm8.002 0a2 2 0 1 0 0-4 2 2 0 0 0 0 4Zm8.002 0a2 2 0 1 0 0-4.002 2 2 0 0 0 0 4.002Zm16.004 0a2 2 0 1 0 0-4 2 2 0 0 0 0 4Zm8.003 0a2 2 0 1 0-.001-4.001 2 2 0 0 0 .001 4.001Zm8.002 0a2 2 0 1 0-.001-4.001 2 2 0 0 0 .001 4.001Zm7.989 0a2 2 0 1 0 0-4 2 2 0 0 0 0 4Zm72.007 0a2 2 0 1 0-.001-4.001 2 2 0 0 0 .001 4.001Zm8.003 0a2 2 0 1 0-.001-4.001 2 2 0 0 0 .001 4.001Zm8.002 0a2 2 0 1 0-.001-4.001 2 2 0 0 0 .001 4.001Zm48 0a2 2 0 1 0-.001-4.001 2 2 0 0 0 .001 4.001Zm7.989 0a2 2 0 1 0 0-4 2 2 0 0 0 0 4Zm8.002 0a2 2 0 1 0 0-4 2 2 0 0 0 0 4Zm8.002 0a2 2 0 1 0 0-4 2 2 0 0 0 0 4Zm8.003 0a2 2 0 1 0-.001-4.001 2 2 0 0 0 .001 4.001Zm48 0a2 2 0 1 0-.001-4.001 2 2 0 0 0 .001 4.001Zm-648.01 8.002a2 2 0 1 0 0-4 2 2 0 0 0 0 4Zm8.003 0a2 2 0 1 0-.001-4.001 2 2 0 0 0 .001 4.001Zm8.002 0a2 2 0 1 0 0-4 2 2 0 0 0 0 4Zm208.005 0a2 2 0 1 0-.001-4.001 2 2 0 0 0 .001 4.001Zm7.989 0a2 2 0 1 0 0-4 2 2 0 0 0 0 4Zm8.003 0a2 2 0 1 0-.001-4.001 2 2 0 0 0 .001 4.001Zm8.002 0a2 2 0 1 0-.001-4.001 2 2 0 0 0 .001 4.001Zm8.002 0a2 2 0 1 0 0-4 2 2 0 0 0 0 4Zm8.002 0a2 2 0 1 0-.001-4.001 2 2 0 0 0 .001 4.001Zm8.002 0a2 2 0 1 0 0-4 2 2 0 0 0 0 4Zm7.99 0a2 2 0 1 0-.001-4.001 2 2 0 0 0 .001 4.001Zm8.002 0a2 2 0 1 0 0-4 2 2 0 0 0 0 4Zm8.002 0a2 2 0 1 0 0-4 2 2 0 0 0 0 4Zm8.002 0a2 2 0 1 0 0-4 2 2 0 0 0 0 4Zm8.002 0a2 2 0 1 0 0-4 2 2 0 0 0 0 4Zm8.002 0a2 2 0 1 0 0-4 2 2 0 0 0 0 4Zm7.99 0a2 2 0 1 0-.001-4.001 2 2 0 0 0 .001 4.001Zm8.002 0a2 2 0 1 0 0-4 2 2 0 0 0 0 4Zm8.002 0a2 2 0 1 0 0-4 2 2 0 0 0 0 4Zm8.002 0a2 2 0 1 0 0-4 2 2 0 0 0 0 4Zm8.003 0a2 2 0 1 0-.001-4.001 2 2 0 0 0 .001 4.001Zm8.002 0a2 2 0 1 0-.001-4.001 2 2 0 0 0 .001 4.001Zm7.989 0a2 2 0 1 0 0-4 2 2 0 0 0 0 4Zm8.002 0a2 2 0 1 0 0-4 2 2 0 0 0 0 4Zm8.002 0a2 2 0 1 0 0-4.002 2 2 0 0 0 0 4.002Zm8.002 0a2 2 0 1 0 0-4 2 2 0 0 0 0 4Zm8.002 0a2 2 0 1 0 0-4 2 2 0 0 0 0 4Zm8.003 0a2 2 0 1 0-.001-4.001 2 2 0 0 0 .001 4.001Zm96.001 0a2 2 0 1 0-.001-4.001 2 2 0 0 0 .001 4.001Zm8.002 0a2 2 0 1 0-.001-4.001 2 2 0 0 0 .001 4.001Zm63.991 0a2 2 0 1 0 0-4 2 2 0 0 0 0 4Zm8.002 0a2 2 0 1 0 0-4 2 2 0 0 0 0 4Zm8.003 0a2 2 0 1 0-.001-4.001 2 2 0 0 0 .001 4.001Zm8.002 0a2 2 0 1 0-.001-4.001 2 2 0 0 0 .001 4.001Zm39.998 0a2 2 0 1 0-.001-4.001 2 2 0 0 0 .001 4.001Zm8.002 0a2 2 0 1 0-.001-4.001 2 2 0 0 0 .001 4.001Zm-648.009 8.002a2 2 0 1 0 0-4 2 2 0 0 0 0 4Zm39.998 0a2 2 0 1 0 0-4 2 2 0 0 0 0 4Zm8.002 0a2 2 0 1 0 0-4 2 2 0 0 0 0 4Zm175.996 0a2 2 0 1 0 .001-3.999 2 2 0 0 0-.001 3.999Zm8.003 0a2 2 0 1 0 0-4 2 2 0 0 0 0 4Zm8.002 0a2 2 0 1 0 0-4 2 2 0 0 0 0 4Zm8.002 0a2 2 0 1 0 .001-3.999 2 2 0 0 0-.001 3.999Zm8.002 0a2 2 0 1 0 0-4 2 2 0 0 0 0 4Zm8.002 0a2 2 0 1 0 .001-3.999 2 2 0 0 0-.001 3.999Zm7.99 0a2 2 0 1 0 0-4 2 2 0 0 0 0 4Zm8.002 0a2 2 0 1 0 .001-3.999 2 2 0 0 0-.001 3.999Zm8.002 0a2 2 0 1 0 .001-3.999 2 2 0 0 0-.001 3.999Zm8.002 0a2 2 0 1 0 .001-3.999 2 2 0 0 0-.001 3.999Zm8.002 0a2 2 0 1 0 .001-3.999 2 2 0 0 0-.001 3.999Zm8.002 0a2 2 0 1 0 .001-3.999 2 2 0 0 0-.001 3.999Zm7.99 0a2 2 0 1 0 0-4 2 2 0 0 0 0 4Zm8.002 0a2 2 0 1 0 .001-3.999 2 2 0 0 0-.001 3.999Zm8.002 0a2 2 0 1 0 .001-3.999 2 2 0 0 0-.001 3.999Zm8.002 0a2 2 0 1 0 .001-3.999 2 2 0 0 0-.001 3.999Zm8.003 0a2 2 0 1 0 0-4 2 2 0 0 0 0 4Zm8.002 0a2 2 0 1 0 0-4 2 2 0 0 0 0 4Zm7.989 0a2 2 0 1 0 .001-3.999 2 2 0 0 0-.001 3.999Zm8.002 0a2 2 0 1 0 .001-3.999 2 2 0 0 0-.001 3.999Zm8.002 0a2 2 0 1 0 .001-4 2 2 0 0 0-.001 4Zm8.002 0a2 2 0 1 0 .001-3.999 2 2 0 0 0-.001 3.999Zm8.002 0a2 2 0 1 0 .001-3.999 2 2 0 0 0-.001 3.999Zm16.005 0a2 2 0 1 0 0-4 2 2 0 0 0 0 4Zm7.989 0a2 2 0 1 0 .001-3.999 2 2 0 0 0-.001 3.999Zm80.01 0a2 2 0 1 0 0-4 2 2 0 0 0 0 4Zm8.002 0a2 2 0 1 0 0-4 2 2 0 0 0 0 4Zm79.996 0a2 2 0 1 0 0-4 2 2 0 0 0 0 4Zm8.002 0a2 2 0 1 0 0-4 2 2 0 0 0 0 4Zm48 0a2 2 0 1 0 0-4 2 2 0 0 0 0 4Zm8.002 0a2 2 0 1 0 .001-3.999 2 2 0 0 0-.001 3.999Zm-648.009 8.002a2 2 0 1 0 .001-3.999 2 2 0 0 0-.001 3.999Zm8.002 0a2 2 0 1 0 .001-3.999 2 2 0 0 0-.001 3.999Zm7.989 0a2 2 0 1 0 .001-3.999 2 2 0 0 0-.001 3.999Zm8.003 0a2 2 0 1 0 0-4 2 2 0 0 0 0 4Zm8.002 0a2 2 0 1 0 0-4 2 2 0 0 0 0 4Zm8.002 0a2 2 0 1 0 0-4 2 2 0 0 0 0 4Zm8.002 0a2 2 0 1 0 .001-3.999 2 2 0 0 0-.001 3.999Zm8.002 0a2 2 0 1 0 .001-3.999 2 2 0 0 0-.001 3.999Zm7.989 0a2 2 0 1 0 .001-3.999 2 2 0 0 0-.001 3.999Zm160.006 0a2 2 0 1 0 0-4 2 2 0 0 0 0 4Zm8.002 0a2 2 0 1 0 0-4 2 2 0 0 0 0 4Zm8.002 0a2 2 0 1 0 .001-3.999 2 2 0 0 0-.001 3.999Zm8.002 0a2 2 0 1 0 0-4 2 2 0 0 0 0 4Zm8.002 0a2 2 0 1 0 .001-3.999 2 2 0 0 0-.001 3.999Zm7.99 0a2 2 0 1 0 0-4 2 2 0 0 0 0 4Zm8.002 0a2 2 0 1 0 .001-3.999 2 2 0 0 0-.001 3.999Zm8.002 0a2 2 0 1 0 .001-3.999 2 2 0 0 0-.001 4Zm8.002 0a2 2 0 1 0 .001-3.999 2 2 0 0 0-.001 3.999Zm8.002 0a2 2 0 1 0 .001-3.999 2 2 0 0 0-.001 3.999Zm8.002 0a2 2 0 1 0 .001-3.999 2 2 0 0 0-.001 3.999Zm7.99 0a2 2 0 1 0 0-4 2 2 0 0 0 0 4Zm8.002 0a2 2 0 1 0 .001-3.999 2 2 0 0 0-.001 3.999Zm8.002 0a2 2 0 1 0 .001-3.999 2 2 0 0 0-.001 4Zm8.002 0a2 2 0 1 0 .001-3.999 2 2 0 0 0-.001 3.999Zm8.003 0a2 2 0 1 0 0-4 2 2 0 0 0 0 4Zm8.002 0a2 2 0 1 0 0-4 2 2 0 0 0 0 4Zm7.989 0a2 2 0 1 0 .001-3.999 2 2 0 0 0-.001 3.999Zm8.002 0a2 2 0 1 0 .001-3.999 2 2 0 0 0-.001 3.999Zm8.002 0a2 2 0 1 0 .001-4 2 2 0 0 0-.001 4Zm8.002 0a2 2 0 1 0 .001-3.999 2 2 0 0 0-.001 3.999Zm8.002 0a2 2 0 1 0 .001-3.999 2 2 0 0 0-.001 3.999Zm8.003 0a2 2 0 1 0 0-4 2 2 0 0 0 0 4Zm8.002 0a2 2 0 1 0 0-4 2 2 0 0 0 0 4Zm159.992 0a2 2 0 1 0 .001-3.999 2 2 0 0 0-.001 3.999Zm80.009 0a2 2 0 1 0 .001-3.999 2 2 0 0 0-.001 3.999Zm-624.015 8.002a2 2 0 1 0 0-4 2 2 0 0 0 0 4Zm8.002 0a2 2 0 1 0 0-4 2 2 0 0 0 0 4Zm8.002 0a2 2 0 1 0 0-4 2 2 0 0 0 0 4Zm8.002 0a2 2 0 1 0 .001-3.999 2 2 0 0 0-.001 3.999Zm8.002 0a2 2 0 1 0 .001-3.999 2 2 0 0 0-.001 3.999Zm7.989 0a2 2 0 1 0 .001-3.999 2 2 0 0 0-.001 3.999Zm8.003 0a2 2 0 1 0 .001-3.999 2 2 0 0 0-.001 3.999Zm8.002 0a2 2 0 1 0 .001-3.999 2 2 0 0 0-.001 3.999Zm152.003 0a2 2 0 1 0 0-4 2 2 0 0 0 0 4Zm8.002 0a2 2 0 1 0 .001-3.999 2 2 0 0 0-.001 3.999Zm8.002 0a2 2 0 1 0 0-4 2 2 0 0 0 0 4Zm8.002 0a2 2 0 1 0 .001-3.999 2 2 0 0 0-.001 3.999Zm23.994 0a2 2 0 1 0 .001-3.999 2 2 0 0 0-.001 3.999Zm8.002 0a2 2 0 1 0 .001-3.999 2 2 0 0 0-.001 3.999Zm8.002 0a2 2 0 1 0 .001-3.999 2 2 0 0 0-.001 3.999Zm8.002 0a2 2 0 1 0 .001-3.999 2 2 0 0 0-.001 3.999Zm7.99 0a2 2 0 1 0 0-4 2 2 0 0 0 0 4Zm8.002 0a2 2 0 1 0 .001-3.999 2 2 0 0 0-.001 3.999Zm8.002 0a2 2 0 1 0 .001-3.999 2 2 0 0 0-.001 3.999Zm8.002 0a2 2 0 1 0 .001-3.999 2 2 0 0 0-.001 3.999Zm8.003 0a2 2 0 1 0 0-4 2 2 0 0 0 0 4Zm8.002 0a2 2 0 1 0 0-4 2 2 0 0 0 0 4Zm7.989 0a2 2 0 1 0 .001-3.999 2 2 0 0 0-.001 3.999Zm8.002 0a2 2 0 1 0 .001-3.999 2 2 0 0 0-.001 3.999Zm8.002 0a2 2 0 1 0 .001-4 2 2 0 0 0-.001 4Zm8.002 0a2 2 0 1 0 .001-3.999 2 2 0 0 0-.001 3.999Zm8.002 0a2 2 0 1 0 .001-3.999 2 2 0 0 0-.001 3.999Zm8.003 0a2 2 0 1 0 0-4 2 2 0 0 0 0 4Zm8.002 0a2 2 0 1 0 0-4 2 2 0 0 0 0 4Zm167.994 0a2 2 0 1 0 .001-3.999 2 2 0 0 0-.001 3.999Zm48.001 0a2 2 0 1 0 0-4 2 2 0 0 0 0 4Zm24.006 0a2 2 0 1 0 .001-3.999 2 2 0 0 0-.001 3.999Zm-632.018 7.99a2 2 0 1 0 0-4 2 2 0 0 0 0 4Zm8.003 0a2 2 0 1 0-.001-4.001 2 2 0 0 0 .001 4.001Zm8.002 0a2 2 0 1 0-.001-4.001 2 2 0 0 0 .001 4.001Zm8.002 0a2 2 0 1 0-.001-4.001 2 2 0 0 0 .001 4.001Zm8.002 0a2 2 0 1 0 0-4 2 2 0 0 0 0 4Zm8.002 0a2 2 0 1 0 0-4 2 2 0 0 0 0 4Zm7.989 0a2 2 0 1 0 0-4 2 2 0 0 0 0 4Zm8.003 0a2 2 0 1 0 0-4 2 2 0 0 0 0 4Zm8.002 0a2 2 0 1 0 0-4 2 2 0 0 0 0 4Zm8.002 0a2 2 0 1 0 0-4 2 2 0 0 0 0 4Zm8.002 0a2 2 0 1 0 0-4 2 2 0 0 0 0 4Zm192.001 0a2 2 0 1 0 0-4 2 2 0 0 0 0 4Zm8.002 0a2 2 0 1 0 0-4 2 2 0 0 0 0 4Zm8.002 0a2 2 0 1 0 0-4 2 2 0 0 0 0 4Zm7.99 0a2 2 0 1 0-.001-4.001 2 2 0 0 0 .001 4.001Zm8.002 0a2 2 0 1 0 0-4 2 2 0 0 0 0 4Zm8.002 0a2 2 0 1 0 0-4 2 2 0 0 0 0 4Zm8.002 0a2 2 0 1 0 0-4 2 2 0 0 0 0 4Zm8.003 0a2 2 0 1 0-.001-4.001 2 2 0 0 0 .001 4.001Zm8.002 0a2 2 0 1 0-.001-4.001 2 2 0 0 0 .001 4.001Zm7.989 0a2 2 0 1 0 0-4 2 2 0 0 0 0 4Zm8.002 0a2 2 0 1 0 0-4 2 2 0 0 0 0 4Zm8.002 0a2 2 0 1 0 0-4.002 2 2 0 0 0 0 4.002Zm8.002 0a2 2 0 1 0 0-4 2 2 0 0 0 0 4Zm8.002 0a2 2 0 1 0 0-4 2 2 0 0 0 0 4Zm8.003 0a2 2 0 1 0-.001-4.001 2 2 0 0 0 .001 4.001Zm167.994 0a2 2 0 1 0 0-4 2 2 0 0 0 0 4Zm8.002 0a2 2 0 1 0 0-4 2 2 0 0 0 0 4Zm39.998 0a2 2 0 1 0 0-4 2 2 0 0 0 0 4Zm8.003 0a2 2 0 1 0-.001-4.001 2 2 0 0 0 .001 4.001Zm-616.001 8.002a2 2 0 1 0 0-4 2 2 0 0 0 0 4Zm7.989 0a2 2 0 1 0 0-4 2 2 0 0 0 0 4Zm8.003 0a2 2 0 1 0-.001-4.001 2 2 0 0 0 .001 4.001Zm8.002 0a2 2 0 1 0-.001-4.001 2 2 0 0 0 .001 4.001Zm8.002 0a2 2 0 1 0-.001-4.001 2 2 0 0 0 .001 4.001Zm8.002 0a2 2 0 1 0 0-4 2 2 0 0 0 0 4Zm8.002 0a2 2 0 1 0 0-4 2 2 0 0 0 0 4Zm7.989 0a2 2 0 1 0 0-4 2 2 0 0 0 0 4Zm8.003 0a2 2 0 1 0 0-4 2 2 0 0 0 0 4Zm8.002 0a2 2 0 1 0 0-4 2 2 0 0 0 0 4Zm8.002 0a2 2 0 1 0 0-4 2 2 0 0 0 0 4Zm8.002 0a2 2 0 1 0 0-4 2 2 0 0 0 0 4Zm192.001 0a2 2 0 1 0 0-4 2 2 0 0 0 0 4Zm8.002 0a2 2 0 1 0 0-4 2 2 0 0 0 0 4Zm8.002 0a2 2 0 1 0 0-4 2 2 0 0 0 0 4Zm7.99 0a2 2 0 1 0-.001-4.001 2 2 0 0 0 .001 4.001Zm8.002 0a2 2 0 1 0 0-4 2 2 0 0 0 0 4Zm8.002 0a2 2 0 1 0 0-4 2 2 0 0 0 0 4Zm8.002 0a2 2 0 1 0 0-4 2 2 0 0 0 0 4Zm8.003 0a2 2 0 1 0-.001-4.001 2 2 0 0 0 .001 4.001Zm8.002 0a2 2 0 1 0-.001-4.001 2 2 0 0 0 .001 4.001Zm7.989 0a2 2 0 1 0 0-4 2 2 0 0 0 0 4Zm8.002 0a2 2 0 1 0 0-4 2 2 0 0 0 0 4Zm8.002 0a2 2 0 1 0 0-4.002 2 2 0 0 0 0 4.002Zm8.002 0a2 2 0 1 0 0-4 2 2 0 0 0 0 4Zm8.002 0a2 2 0 1 0 0-4 2 2 0 0 0 0 4Zm175.997 0a2 2 0 1 0 0-4 2 2 0 0 0 0 4Zm8.002 0a2 2 0 1 0 0-4 2 2 0 0 0 0 4Zm24.007 0a2 2 0 1 0 0-4 2 2 0 0 0 0 4Zm8.002 0a2 2 0 1 0 0-4 2 2 0 0 0 0 4Zm7.989 0a2 2 0 1 0 0-4 2 2 0 0 0 0 4Zm8.003 0a2 2 0 1 0-.001-4.001 2 2 0 0 0 .001 4.001Zm16.004 0a2 2 0 1 0-.001-4.001 2 2 0 0 0 .001 4.001Zm8.002 0a2 2 0 1 0 0-4 2 2 0 0 0 0 4Zm-640.007 8.002a2 2 0 1 0 .001-3.999 2 2 0 0 0-.001 3.999Zm7.989 0a2 2 0 1 0 .001-3.999 2 2 0 0 0-.001 3.999Zm8.003 0a2 2 0 1 0 0-4 2 2 0 0 0 0 4Zm8.002 0a2 2 0 1 0 0-4 2 2 0 0 0 0 4Zm8.002 0a2 2 0 1 0 0-4 2 2 0 0 0 0 4Zm8.002 0a2 2 0 1 0 .001-3.999 2 2 0 0 0-.001 3.999Zm8.002 0a2 2 0 1 0 .001-3.999 2 2 0 0 0-.001 3.999Zm7.989 0a2 2 0 1 0 .001-3.999 2 2 0 0 0-.001 3.999Zm8.003 0a2 2 0 1 0 .001-3.999 2 2 0 0 0-.001 3.999Zm8.002 0a2 2 0 1 0 .001-3.999 2 2 0 0 0-.001 3.999Zm8.002 0a2 2 0 1 0 .001-3.999 2 2 0 0 0-.001 3.999Zm8.002 0a2 2 0 1 0 .001-3.999 2 2 0 0 0-.001 3.999Zm8.002 0a2 2 0 1 0 .001-3.999 2 2 0 0 0-.001 3.999Zm7.99 0a2 2 0 1 0 0-4 2 2 0 0 0 0 4Zm176.009 0a2 2 0 1 0 .001-3.999 2 2 0 0 0-.001 3.999Zm8.002 0a2 2 0 1 0 .001-3.999 2 2 0 0 0-.001 3.999Zm8.002 0a2 2 0 1 0 .001-3.999 2 2 0 0 0-.001 3.999Zm7.99 0a2 2 0 1 0 0-4 2 2 0 0 0 0 4Zm8.002 0a2 2 0 1 0 .001-3.999 2 2 0 0 0-.001 3.999Zm8.002 0a2 2 0 1 0 .001-3.999 2 2 0 0 0-.001 3.999Zm8.002 0a2 2 0 1 0 .001-3.999 2 2 0 0 0-.001 3.999Zm8.003 0a2 2 0 1 0 0-4 2 2 0 0 0 0 4Zm8.002 0a2 2 0 1 0 0-4 2 2 0 0 0 0 4Zm7.989 0a2 2 0 1 0 .001-3.999 2 2 0 0 0-.001 3.999Zm8.002 0a2 2 0 1 0 .001-3.999 2 2 0 0 0-.001 3.999Zm8.002 0a2 2 0 1 0 .001-4 2 2 0 0 0-.001 4Zm8.002 0a2 2 0 1 0 .001-3.999 2 2 0 0 0-.001 3.999Zm192.001 0a2 2 0 1 0 .001-3.999 2 2 0 0 0-.001 3.999Zm8.003 0a2 2 0 1 0 0-4 2 2 0 0 0 0 4Zm24.006 0a2 2 0 1 0 .001-3.999 2 2 0 0 0-.001 3.999Zm7.989 0a2 2 0 1 0 .001-3.999 2 2 0 0 0-.001 3.999Zm16.005 0a2 2 0 1 0 0-4 2 2 0 0 0 0 4Zm8.002 0a2 2 0 1 0 0-4 2 2 0 0 0 0 4Zm31.996 0a2 2 0 1 0 0-4 2 2 0 0 0 0 4Zm16.004 0a2 2 0 1 0 .001-3.999 2 2 0 0 0-.001 3.999Zm-680.005 8.002a2 2 0 1 0 .001-3.999 2 2 0 0 0-.001 3.999Zm7.989 0a2 2 0 1 0 .001-3.999 2 2 0 0 0-.001 3.999Zm8.003 0a2 2 0 1 0 0-4 2 2 0 0 0 0 4Zm8.002 0a2 2 0 1 0 0-4 2 2 0 0 0 0 4Zm8.002 0a2 2 0 1 0 0-4 2 2 0 0 0 0 4Zm8.002 0a2 2 0 1 0 .001-3.999 2 2 0 0 0-.001 3.999Zm8.002 0a2 2 0 1 0 .001-3.999 2 2 0 0 0-.001 3.999Zm7.989 0a2 2 0 1 0 .001-3.999 2 2 0 0 0-.001 3.999Zm8.003 0a2 2 0 1 0 .001-3.999 2 2 0 0 0-.001 3.999Zm8.002 0a2 2 0 1 0 .001-3.999 2 2 0 0 0-.001 3.999Zm8.002 0a2 2 0 1 0 .001-3.999 2 2 0 0 0-.001 3.999Zm8.002 0a2 2 0 1 0 .001-3.999 2 2 0 0 0-.001 3.999Zm8.002 0a2 2 0 1 0 .001-3.999 2 2 0 0 0-.001 3.999Zm7.99 0a2 2 0 1 0 0-4 2 2 0 0 0 0 4Zm8.002 0a2 2 0 1 0 .001-3.999 2 2 0 0 0-.001 3.999Zm8.002 0a2 2 0 1 0 .001-3.999 2 2 0 0 0-.001 3.999Zm8.002 0a2 2 0 1 0 .001-3.999 2 2 0 0 0-.001 3.999Zm160.005 0a2 2 0 1 0 .001-3.999 2 2 0 0 0-.001 3.999Zm8.002 0a2 2 0 1 0 .001-3.999 2 2 0 0 0-.001 3.999Zm7.99 0a2 2 0 1 0 0-4 2 2 0 0 0 0 4Zm8.002 0a2 2 0 1 0 .001-3.999 2 2 0 0 0-.001 3.999Zm8.002 0a2 2 0 1 0 .001-3.999 2 2 0 0 0-.001 3.999Zm8.002 0a2 2 0 1 0 .001-3.999 2 2 0 0 0-.001 3.999Zm8.003 0a2 2 0 1 0 0-4 2 2 0 0 0 0 4Zm8.002 0a2 2 0 1 0 0-4 2 2 0 0 0 0 4Zm7.989 0a2 2 0 1 0 .001-3.999 2 2 0 0 0-.001 3.999Zm8.002 0a2 2 0 1 0 .001-3.999 2 2 0 0 0-.001 3.999Zm8.002 0a2 2 0 1 0 .001-4 2 2 0 0 0-.001 4Zm208.006 0a2 2 0 1 0 0-4 2 2 0 0 0 0 4Zm48 0a2 2 0 1 0 0-4 2 2 0 0 0 0 4Zm8.002 0a2 2 0 1 0 0-4 2 2 0 0 0 0 4Zm39.998 0a2 2 0 1 0 0-4 2 2 0 0 0 0 4Zm8.002 0a2 2 0 1 0 .001-3.999 2 2 0 0 0-.001 3.999Zm8.003 0a2 2 0 1 0 0-4 2 2 0 0 0 0 4Zm8.002 0a2 2 0 1 0 0-4 2 2 0 0 0 0 4Zm7.989 0a2 2 0 1 0 .001-3.999 2 2 0 0 0-.001 3.999Zm24.006 0a2 2 0 1 0 .001-3.999 2 2 0 0 0-.001 3.999Zm-728.005 8.002a2 2 0 1 0 .001-3.999 2 2 0 0 0-.001 3.999Zm7.989 0a2 2 0 1 0 .001-3.999 2 2 0 0 0-.001 3.999Zm8.003 0a2 2 0 1 0 0-4 2 2 0 0 0 0 4Zm8.002 0a2 2 0 1 0 0-4 2 2 0 0 0 0 4Zm16.004 0a2 2 0 1 0 .001-3.999 2 2 0 0 0-.001 3.999Zm8.002 0a2 2 0 1 0 .001-3.999 2 2 0 0 0-.001 3.999Zm7.989 0a2 2 0 1 0 .001-3.999 2 2 0 0 0-.001 3.999Zm8.003 0a2 2 0 1 0 .001-3.999 2 2 0 0 0-.001 3.999Zm8.002 0a2 2 0 1 0 .001-3.999 2 2 0 0 0-.001 3.999Zm8.002 0A2 2 0 1 0 234 280a2 2 0 0 0 0 4Zm8.002 0a2 2 0 1 0 .001-3.999 2 2 0 0 0-.001 3.999Zm8.002 0a2 2 0 1 0 .001-3.999 2 2 0 0 0-.001 3.999Zm7.99 0a2 2 0 1 0 0-4 2 2 0 0 0 0 4Zm8.002 0a2 2 0 1 0 .001-3.999 2 2 0 0 0-.001 3.999Zm8.002 0a2 2 0 1 0 .001-3.999 2 2 0 0 0-.001 3.999Zm8.002 0A2 2 0 1 0 282 280a2 2 0 0 0 0 4Zm8.002 0a2 2 0 1 0 .001-3.999 2 2 0 0 0-.001 3.999Zm160.005 0a2 2 0 1 0 .001-3.999 2 2 0 0 0-.001 3.999Zm7.99 0a2 2 0 1 0 0-4 2 2 0 0 0 0 4Zm8.002 0a2 2 0 1 0 .001-3.999 2 2 0 0 0-.001 3.999Zm8.002 0a2 2 0 1 0 .001-3.999 2 2 0 0 0-.001 4Zm8.002 0a2 2 0 1 0 .001-3.999 2 2 0 0 0-.001 3.999Zm8.003 0a2 2 0 1 0 0-4 2 2 0 0 0 0 4Zm8.002 0a2 2 0 1 0 0-4 2 2 0 0 0 0 4Zm7.989 0a2 2 0 1 0 .001-3.999 2 2 0 0 0-.001 3.999Zm8.002 0a2 2 0 1 0 .001-3.999 2 2 0 0 0-.001 3.999Zm8.002 0a2 2 0 1 0 .001-4 2 2 0 0 0-.001 4Zm216.008 0a2 2 0 1 0 0-4 2 2 0 0 0 0 4Zm8.002 0a2 2 0 1 0 .001-3.999 2 2 0 0 0-.001 3.999Zm7.99 0a2 2 0 1 0 0-4 2 2 0 0 0 0 4Zm88.011 0a2 2 0 1 0 0-4 2 2 0 0 0 0 4Zm8.002 0a2 2 0 1 0 0-4 2 2 0 0 0 0 4Zm7.989 0a2 2 0 1 0 .001-3.999 2 2 0 0 0-.001 3.999Zm32.009 0a2 2 0 1 0 0-4 2 2 0 0 0 0 4Zm-728.019 8.002a2 2 0 1 0 .001-3.999 2 2 0 0 0-.001 3.999Zm8.003 0a2 2 0 1 0 0-4 2 2 0 0 0 0 4Zm8.002 0a2 2 0 1 0 0-4 2 2 0 0 0 0 4Zm8.002 0a2 2 0 1 0 0-4 2 2 0 0 0 0 4Zm8.002 0a2 2 0 1 0 .001-3.999 2 2 0 0 0-.001 3.999Zm8.002 0a2 2 0 1 0 .001-3.999 2 2 0 0 0-.001 3.999Zm7.989 0a2 2 0 1 0 .001-3.999 2 2 0 0 0-.001 3.999Zm8.003 0a2 2 0 1 0 .001-3.999 2 2 0 0 0-.001 3.999Zm8.002 0a2 2 0 1 0 .001-3.999 2 2 0 0 0-.001 3.999Zm8.002 0a2 2 0 1 0 .001-3.999 2 2 0 0 0-.001 3.999Zm8.002 0a2 2 0 1 0 .001-3.999 2 2 0 0 0-.001 3.999Zm8.002 0a2 2 0 1 0 .001-3.999 2 2 0 0 0-.001 3.999Zm7.99 0a2 2 0 1 0 0-4 2 2 0 0 0 0 4Zm16.004 0a2 2 0 1 0 .001-3.999 2 2 0 0 0-.001 3.999Zm8.002 0a2 2 0 1 0 .001-3.999 2 2 0 0 0-.001 3.999Zm8.002 0a2 2 0 1 0 .001-3.999 2 2 0 0 0-.001 3.999Zm160.005 0a2 2 0 1 0 .001-3.999 2 2 0 0 0-.001 3.999Zm7.99 0a2 2 0 1 0 0-4 2 2 0 0 0 0 4Zm8.002 0a2 2 0 1 0 .001-3.999 2 2 0 0 0-.001 3.999Zm8.002 0a2 2 0 1 0 .001-3.999 2 2 0 0 0-.001 3.999Zm8.002 0a2 2 0 1 0 .001-3.999 2 2 0 0 0-.001 3.999Zm8.003 0a2 2 0 1 0 0-4 2 2 0 0 0 0 4Zm8.002 0a2 2 0 1 0 0-4 2 2 0 0 0 0 4Zm7.989 0a2 2 0 1 0 .001-3.999 2 2 0 0 0-.001 3.999Zm8.002 0a2 2 0 1 0 .001-3.999 2 2 0 0 0-.001 3.999Zm8.002 0a2 2 0 1 0 .001-4 2 2 0 0 0-.001 4Zm344.004 0a2 2 0 1 0 0-4 2 2 0 0 0 0 4Zm39.998 0a2 2 0 1 0 .001-3.999 2 2 0 0 0-.001 3.999Zm-736.007 7.99a2 2 0 1 0-.001-4.001 2 2 0 0 0 .001 4.001Zm8.002 0a2 2 0 1 0-.001-4.001 2 2 0 0 0 .001 4.001Zm8.002 0a2 2 0 1 0-.001-4.001 2 2 0 0 0 .001 4.001Zm8.002 0a2 2 0 1 0 0-4 2 2 0 0 0 0 4Zm8.002 0a2 2 0 1 0 0-4 2 2 0 0 0 0 4Zm7.989 0a2 2 0 1 0 0-4 2 2 0 0 0 0 4Zm8.003 0a2 2 0 1 0 0-4 2 2 0 0 0 0 4Zm8.002 0a2 2 0 1 0 0-4 2 2 0 0 0 0 4Zm8.002 0a2 2 0 1 0 0-4 2 2 0 0 0 0 4Zm8.002 0a2 2 0 1 0 0-4 2 2 0 0 0 0 4Zm8.002 0a2 2 0 1 0 0-4 2 2 0 0 0 0 4Zm7.99 0a2 2 0 1 0-.001-4.001 2 2 0 0 0 .001 4.001Zm8.002 0a2 2 0 1 0 0-4 2 2 0 0 0 0 4Zm8.002 0a2 2 0 1 0 0-4 2 2 0 0 0 0 4Zm8.002 0a2 2 0 1 0 0-4 2 2 0 0 0 0 4Zm168.007 0a2 2 0 1 0 0-4 2 2 0 0 0 0 4Zm7.99 0a2 2 0 1 0-.001-4.001 2 2 0 0 0 .001 4.001Zm8.002 0a2 2 0 1 0 0-4 2 2 0 0 0 0 4Zm8.002 0a2 2 0 1 0 0-4 2 2 0 0 0 0 4Zm8.002 0a2 2 0 1 0 0-4 2 2 0 0 0 0 4Zm8.003 0a2 2 0 1 0-.001-4.001 2 2 0 0 0 .001 4.001Zm8.002 0a2 2 0 1 0-.001-4.001 2 2 0 0 0 .001 4.001Zm7.989 0a2 2 0 1 0 0-4 2 2 0 0 0 0 4Zm8.002 0a2 2 0 1 0 0-4 2 2 0 0 0 0 4Zm8.002 0a2 2 0 1 0 0-4.002 2 2 0 0 0 0 4.002Zm296.004 0a2 2 0 1 0-.001-4.001 2 2 0 0 0 .001 4.001Zm8.002 0a2 2 0 1 0-.001-4.001 2 2 0 0 0 .001 4.001Zm-656.011 8.002a2 2 0 1 0 0-4 2 2 0 0 0 0 4Zm8.002 0a2 2 0 1 0 0-4 2 2 0 0 0 0 4Zm8.002 0a2 2 0 1 0 0-4 2 2 0 0 0 0 4Zm8.002 0a2 2 0 1 0 .001-3.999 2 2 0 0 0-.001 3.999Zm8.002 0a2 2 0 1 0 .001-3.999 2 2 0 0 0-.001 3.999Zm7.989 0a2 2 0 1 0 .001-3.999 2 2 0 0 0-.001 3.999Zm8.003 0a2 2 0 1 0 .001-3.999 2 2 0 0 0-.001 3.999Zm8.002 0a2 2 0 1 0 .001-3.999 2 2 0 0 0-.001 3.999Zm8.002 0a2 2 0 1 0 .001-3.999 2 2 0 0 0-.001 3.999Zm8.002 0a2 2 0 1 0 .001-3.999 2 2 0 0 0-.001 3.999Zm8.002 0a2 2 0 1 0 .001-3.999 2 2 0 0 0-.001 3.999Zm7.99 0a2 2 0 1 0 0-4 2 2 0 0 0 0 4Zm8.002 0a2 2 0 1 0 .001-3.999 2 2 0 0 0-.001 3.999Zm8.002 0a2 2 0 1 0 .001-3.999 2 2 0 0 0-.001 3.999Zm8.002 0a2 2 0 1 0 .001-3.999 2 2 0 0 0-.001 3.999Zm160.005 0a2 2 0 1 0 .001-3.999 2 2 0 0 0-.001 3.999Zm8.002 0a2 2 0 1 0 .001-3.999 2 2 0 0 0-.001 3.999Zm7.99 0a2 2 0 1 0 0-4 2 2 0 0 0 0 4Zm8.002 0a2 2 0 1 0 .001-3.999 2 2 0 0 0-.001 3.999Zm8.002 0a2 2 0 1 0 .001-3.999 2 2 0 0 0-.001 3.999Zm8.002 0a2 2 0 1 0 .001-3.999 2 2 0 0 0-.001 3.999Zm8.003 0a2 2 0 1 0 0-4 2 2 0 0 0 0 4Zm8.002 0a2 2 0 1 0 0-4 2 2 0 0 0 0 4Zm7.989 0a2 2 0 1 0 .001-3.999 2 2 0 0 0-.001 3.999Zm8.002 0a2 2 0 1 0 .001-3.999 2 2 0 0 0-.001 3.999Zm8.002 0a2 2 0 1 0 .001-4 2 2 0 0 0-.001 4Zm32.009 0a2 2 0 1 0 0-4 2 2 0 0 0 0 4Zm240.001 0a2 2 0 1 0 .001-3.999 2 2 0 0 0-.001 3.999Zm15.992 0a2 2 0 1 0 .001-3.999 2 2 0 0 0-.001 3.999Zm8.002 0a2 2 0 1 0 0-4 2 2 0 0 0 0 4Zm24.007 0a2 2 0 1 0 0-4 2 2 0 0 0 0 4Zm8.002 0a2 2 0 1 0 0-4 2 2 0 0 0 0 4Zm-664.014 8.002a2 2 0 1 0 0-4 2 2 0 0 0 0 4Zm8.002 0a2 2 0 1 0 .001-3.999 2 2 0 0 0-.001 3.999Zm8.002 0a2 2 0 1 0 .001-3.999 2 2 0 0 0-.001 3.999Zm7.989 0a2 2 0 1 0 .001-3.999 2 2 0 0 0-.001 3.999Zm8.003 0a2 2 0 1 0 .001-3.999 2 2 0 0 0-.001 3.999Zm8.002 0a2 2 0 1 0 .001-3.999 2 2 0 0 0-.001 3.999Zm8.002 0a2 2 0 1 0 .001-3.999 2 2 0 0 0-.001 3.999Zm8.002 0a2 2 0 1 0 .001-3.999 2 2 0 0 0-.001 3.999Zm8.002 0a2 2 0 1 0 .001-3.999 2 2 0 0 0-.001 3.999Zm7.99 0a2 2 0 1 0 0-4 2 2 0 0 0 0 4Zm8.002 0a2 2 0 1 0 .001-3.999 2 2 0 0 0-.001 3.999Zm8.002 0a2 2 0 1 0 .001-3.999 2 2 0 0 0-.001 3.999Zm8.002 0a2 2 0 1 0 .001-3.999 2 2 0 0 0-.001 3.999Zm160.005 0a2 2 0 1 0 .001-3.999 2 2 0 0 0-.001 3.999Zm8.002 0a2 2 0 1 0 .001-3.999 2 2 0 0 0-.001 3.999Zm7.99 0a2 2 0 1 0 0-4 2 2 0 0 0 0 4Zm8.002 0a2 2 0 1 0 .001-3.999 2 2 0 0 0-.001 3.999Zm8.002 0a2 2 0 1 0 .001-3.999 2 2 0 0 0-.001 3.999Zm8.002 0a2 2 0 1 0 .001-3.999 2 2 0 0 0-.001 3.999Zm8.003 0a2 2 0 1 0 0-4 2 2 0 0 0 0 4Zm8.002 0a2 2 0 1 0 0-4 2 2 0 0 0 0 4Zm7.989 0a2 2 0 1 0 .001-3.999 2 2 0 0 0-.001 3.999Zm8.002 0a2 2 0 1 0 .001-3.999 2 2 0 0 0-.001 3.999Zm8.002 0a2 2 0 1 0 .001-4 2 2 0 0 0-.001 4Zm24.007 0a2 2 0 1 0 0-4 2 2 0 0 0 0 4Zm8.002 0a2 2 0 1 0 0-4 2 2 0 0 0 0 4Zm231.999 0a2 2 0 1 0 0-4 2 2 0 0 0 0 4Zm8.002 0a2 2 0 1 0 .001-3.999 2 2 0 0 0-.001 3.999Zm8.003 0a2 2 0 1 0 0-4 2 2 0 0 0 0 4Zm7.989 0a2 2 0 1 0 .001-3.999 2 2 0 0 0-.001 3.999Zm8.002 0a2 2 0 1 0 0-4 2 2 0 0 0 0 4Zm8.002 0a2 2 0 1 0 0-4 2 2 0 0 0 0 4Zm16.005 0a2 2 0 1 0 0-4 2 2 0 0 0 0 4Zm8.002 0a2 2 0 1 0 0-4 2 2 0 0 0 0 4Zm-656.012 8.002a2 2 0 1 0 .001-3.999 2 2 0 0 0-.001 3.999Zm8.002 0a2 2 0 1 0 .001-3.999 2 2 0 0 0-.001 3.999Zm7.989 0a2 2 0 1 0 .001-3.999 2 2 0 0 0-.001 3.999Zm8.003 0a2 2 0 1 0 .001-3.999 2 2 0 0 0-.001 3.999Zm8.002 0a2 2 0 1 0 .001-3.999 2 2 0 0 0-.001 3.999Zm8.002 0a2 2 0 1 0 .001-3.999 2 2 0 0 0-.001 3.999Zm8.002 0a2 2 0 1 0 .001-3.999 2 2 0 0 0-.001 3.999Zm8.002 0a2 2 0 1 0 .001-3.999 2 2 0 0 0-.001 3.999Zm7.99 0a2 2 0 1 0 0-4 2 2 0 0 0 0 4Zm8.002 0a2 2 0 1 0 .001-3.999 2 2 0 0 0-.001 3.999Zm8.002 0a2 2 0 1 0 .001-3.999 2 2 0 0 0-.001 3.999Zm8.002 0a2 2 0 1 0 .001-3.999 2 2 0 0 0-.001 3.999Zm168.007 0a2 2 0 1 0 .001-3.999 2 2 0 0 0-.001 3.999Zm7.99 0a2 2 0 1 0 0-4 2 2 0 0 0 0 4Zm8.002 0a2 2 0 1 0 .001-3.999 2 2 0 0 0-.001 3.999Zm8.002 0a2 2 0 1 0 .001-3.999 2 2 0 0 0-.001 3.999Zm8.002 0a2 2 0 1 0 .001-3.999 2 2 0 0 0-.001 3.999Zm8.003 0a2 2 0 1 0 0-4 2 2 0 0 0 0 4Zm8.002 0a2 2 0 1 0 0-4 2 2 0 0 0 0 4Zm7.989 0a2 2 0 1 0 .001-3.999 2 2 0 0 0-.001 3.999Zm40.011 0a2 2 0 1 0 0-4 2 2 0 0 0 0 4Zm231.999 0a2 2 0 1 0 0-4 2 2 0 0 0 0 4Zm8.002 0a2 2 0 1 0 0-4 2 2 0 0 0 0 4Zm8.002 0a2 2 0 1 0 .001-3.999 2 2 0 0 0-.001 3.999Zm8.003 0a2 2 0 1 0 0-4 2 2 0 0 0 0 4Zm7.989 0a2 2 0 1 0 .001-3.999 2 2 0 0 0-.001 3.999Zm8.002 0a2 2 0 1 0 0-4 2 2 0 0 0 0 4Zm8.002 0a2 2 0 1 0 0-4 2 2 0 0 0 0 4Zm8.002 0a2 2 0 1 0 .001-3.999 2 2 0 0 0-.001 3.999Zm8.003 0a2 2 0 1 0 0-4 2 2 0 0 0 0 4Zm8.002 0a2 2 0 1 0 0-4 2 2 0 0 0 0 4ZM194.001 332a2 2 0 1 0 0-4 2 2 0 0 0 0 4Zm8.002 0a2 2 0 1 0 0-4 2 2 0 0 0 0 4Zm7.989 0a2 2 0 1 0 0-4 2 2 0 0 0 0 4Zm8.003 0a2 2 0 1 0 0-4 2 2 0 0 0 0 4Zm8.002 0a2 2 0 1 0 0-4 2 2 0 0 0 0 4Zm8.002 0a2 2 0 1 0 0-4 2 2 0 0 0 0 4Zm8.002 0a2 2 0 1 0 0-4 2 2 0 0 0 0 4Zm8.002 0a2 2 0 1 0 0-4 2 2 0 0 0 0 4Zm7.99 0a2 2 0 1 0-.001-4.001 2 2 0 0 0 .001 4.001Zm8.002 0a2 2 0 1 0 0-4 2 2 0 0 0 0 4Zm8.002 0a2 2 0 1 0 0-4 2 2 0 0 0 0 4Zm176.009 0a2 2 0 1 0 0-4 2 2 0 0 0 0 4Zm7.99 0a2 2 0 1 0-.001-4.001 2 2 0 0 0 .001 4.001Zm8.002 0a2 2 0 1 0 0-4 2 2 0 0 0 0 4Zm8.002 0a2 2 0 1 0 0-4 2 2 0 0 0 0 4Zm8.002 0a2 2 0 1 0 0-4 2 2 0 0 0 0 4Zm8.003 0a2 2 0 1 0-.001-4.001 2 2 0 0 0 .001 4.001Zm8.002 0a2 2 0 1 0-.001-4.001 2 2 0 0 0 .001 4.001Zm7.989 0a2 2 0 1 0 0-4 2 2 0 0 0 0 4Zm32.008 0a2 2 0 1 0 0-4 2 2 0 0 0 0 4Zm8.003 0a2 2 0 1 0-.001-4.001 2 2 0 0 0 .001 4.001ZM754 332a2 2 0 1 0-.001-4.001A2 2 0 0 0 754 332Zm8.001 0a2 2 0 1 0 0-4 2 2 0 0 0 0 4Zm8.003 0a2 2 0 1 0-.001-4.001 2 2 0 0 0 .001 4.001Zm8.002 0a2 2 0 1 0-.001-4.001 2 2 0 0 0 .001 4.001Zm8.002 0a2 2 0 1 0-.001-4.001 2 2 0 0 0 .001 4.001Zm8.002 0a2 2 0 1 0 0-4 2 2 0 0 0 0 4Zm8.003 0a2 2 0 1 0-.001-4.001 2 2 0 0 0 .001 4.001Zm7.989 0a2 2 0 1 0 0-4 2 2 0 0 0 0 4Zm8.002 0a2 2 0 1 0-.001-4.001 2 2 0 0 0 .001 4.001Zm8.002 0a2 2 0 1 0-.001-4.001 2 2 0 0 0 .001 4.001Zm8.002 0a2 2 0 1 0 0-4 2 2 0 0 0 0 4Zm8.003 0a2 2 0 1 0-.001-4.001 2 2 0 0 0 .001 4.001Zm8.002 0a2 2 0 1 0-.001-4.001 2 2 0 0 0 .001 4.001Zm55.989 0a2 2 0 1 0 0-4 2 2 0 0 0 0 4Zm-712.001 8.001a2 2 0 1 0 .001-3.999 2 2 0 0 0-.001 3.999Zm8.002 0a2 2 0 1 0 .001-3.999 2 2 0 0 0-.001 3.999Zm7.989 0a2 2 0 1 0 .001-3.999 2 2 0 0 0-.001 3.999Zm8.003 0a2 2 0 1 0 .001-3.999 2 2 0 0 0-.001 3.999Zm8.002 0a2 2 0 1 0 .001-3.999 2 2 0 0 0-.001 3.999Zm8.002 0a2 2 0 1 0 .001-3.999 2 2 0 0 0-.001 3.999Zm8.002 0a2 2 0 1 0 .001-3.999 2 2 0 0 0-.001 3.999Zm8.002 0a2 2 0 1 0 .001-3.999 2 2 0 0 0-.001 3.999Zm7.99 0a2 2 0 1 0 0-4 2 2 0 0 0 0 4Zm192.013 0a2 2 0 1 0 .001-3.999 2 2 0 0 0-.001 3.999Zm7.99 0a2 2 0 1 0 0-4 2 2 0 0 0 0 4Zm8.002 0a2 2 0 1 0 .001-3.999 2 2 0 0 0-.001 3.999Zm8.002 0a2 2 0 1 0 .001-3.999 2 2 0 0 0-.001 3.999Zm8.002 0a2 2 0 1 0 .001-3.999 2 2 0 0 0-.001 3.999Zm8.003 0a2 2 0 1 0 0-4 2 2 0 0 0 0 4Zm8.002 0a2 2 0 1 0 0-4 2 2 0 0 0 0 4Zm7.989 0a2 2 0 1 0 .001-3.999 2 2 0 0 0-.001 3.999Zm32.008 0a2 2 0 1 0 .001-3.999 2 2 0 0 0-.001 3.999Zm208.006 0a2 2 0 1 0 .001-3.999 2 2 0 0 0-.001 3.999Zm7.99 0a2 2 0 1 0 0-4 2 2 0 0 0 0 4Zm8.001 0a2 2 0 1 0 .001-3.999 2 2 0 0 0-.001 3.999Zm8.003 0a2 2 0 1 0 0-4 2 2 0 0 0 0 4Zm8.002 0a2 2 0 1 0 0-4 2 2 0 0 0 0 4Zm8.002 0a2 2 0 1 0 0-4 2 2 0 0 0 0 4Zm8.002 0a2 2 0 1 0 .001-3.999 2 2 0 0 0-.001 3.999Zm8.003 0a2 2 0 1 0 0-4 2 2 0 0 0 0 4Zm7.989 0a2 2 0 1 0 .001-3.999 2 2 0 0 0-.001 3.999Zm8.002 0a2 2 0 1 0 0-4 2 2 0 0 0 0 4Zm8.002 0a2 2 0 1 0 0-4 2 2 0 0 0 0 4Zm8.002 0a2 2 0 1 0 .001-3.999 2 2 0 0 0-.001 3.999Zm8.003 0a2 2 0 1 0 0-4 2 2 0 0 0 0 4Zm8.002 0a2 2 0 1 0 0-4 2 2 0 0 0 0 4Zm7.989 0a2 2 0 1 0 .001-3.999 2 2 0 0 0-.001 3.999Zm-655.999 7.99a2 2 0 1 0 .001-3.999 2 2 0 0 0-.001 3.999Zm7.989 0a2 2 0 1 0 .001-3.999 2 2 0 0 0-.001 3.999Zm8.003 0a2 2 0 1 0 .001-3.999 2 2 0 0 0-.001 3.999Zm8.002 0a2 2 0 1 0 .001-3.999 2 2 0 0 0-.001 3.999Zm8.002 0a2 2 0 1 0 .001-3.999 2 2 0 0 0-.001 3.999Zm8.002 0a2 2 0 1 0 .001-3.999 2 2 0 0 0-.001 3.999Zm8.002 0a2 2 0 1 0 .001-3.999 2 2 0 0 0-.001 3.999Zm7.99 0a2 2 0 1 0 0-4 2 2 0 0 0 0 4Zm192.013 0a2 2 0 1 0 .001-3.999 2 2 0 0 0-.001 3.999Zm7.99 0a2 2 0 1 0 0-4 2 2 0 0 0 0 4Zm8.002 0a2 2 0 1 0 .001-3.999 2 2 0 0 0-.001 3.999Zm8.002 0a2 2 0 1 0 .001-3.999 2 2 0 0 0-.001 3.999Zm8.002 0a2 2 0 1 0 .001-3.999 2 2 0 0 0-.001 3.999Zm8.003 0a2 2 0 1 0 0-4 2 2 0 0 0 0 4Zm8.002 0a2 2 0 1 0 0-4 2 2 0 0 0 0 4Zm248.003 0a2 2 0 1 0 .001-3.999 2 2 0 0 0-.001 3.999Zm7.99 0a2 2 0 1 0 0-4 2 2 0 0 0 0 4Zm8.001 0a2 2 0 1 0 .001-3.999 2 2 0 0 0-.001 3.999Zm8.003 0a2 2 0 1 0 0-4 2 2 0 0 0 0 4Zm8.002 0a2 2 0 1 0 0-4 2 2 0 0 0 0 4Zm8.002 0a2 2 0 1 0 0-4 2 2 0 0 0 0 4Zm8.002 0a2 2 0 1 0 .001-3.999 2 2 0 0 0-.001 3.999Zm8.003 0a2 2 0 1 0 0-4 2 2 0 0 0 0 4Zm7.989 0a2 2 0 1 0 .001-3.999 2 2 0 0 0-.001 3.999Zm8.002 0a2 2 0 1 0 0-4 2 2 0 0 0 0 4Zm8.002 0a2 2 0 1 0 0-4 2 2 0 0 0 0 4Zm8.002 0a2 2 0 1 0 .001-3.999 2 2 0 0 0-.001 3.999Zm8.003 0a2 2 0 1 0 0-4 2 2 0 0 0 0 4Zm8.002 0a2 2 0 1 0 0-4 2 2 0 0 0 0 4Zm-648.01 8.002a2 2 0 1 0 .001-3.999 2 2 0 0 0-.001 3.999Zm7.989 0a2 2 0 1 0 .001-3.999 2 2 0 0 0-.001 3.999Zm8.003 0a2 2 0 1 0 .001-3.999 2 2 0 0 0-.001 3.999Zm8.002 0a2 2 0 1 0 .001-3.999 2 2 0 0 0-.001 3.999Zm8.002 0a2 2 0 1 0 .001-3.999 2 2 0 0 0-.001 3.999Zm8.002 0a2 2 0 1 0 .001-3.999 2 2 0 0 0-.001 3.999Zm8.002 0a2 2 0 1 0 .001-3.999 2 2 0 0 0-.001 3.999Zm207.993 0a2 2 0 1 0 0-4 2 2 0 0 0 0 4Zm8.002 0a2 2 0 1 0 .001-3.999 2 2 0 0 0-.001 3.999Zm8.002 0a2 2 0 1 0 .001-3.999 2 2 0 0 0-.001 3.999Zm8.002 0a2 2 0 1 0 .001-3.999 2 2 0 0 0-.001 3.999Zm8.003 0a2 2 0 1 0 0-4 2 2 0 0 0 0 4Zm256.005 0a2 2 0 1 0 .001-3.999 2 2 0 0 0-.001 3.999Zm8.002 0a2 2 0 1 0 .001-3.999 2 2 0 0 0-.001 3.999Zm7.989 0a2 2 0 1 0 .001-3.999 2 2 0 0 0-.001 3.999Zm8.003 0a2 2 0 1 0 0-4 2 2 0 0 0 0 4Zm8.002 0a2 2 0 1 0 0-4 2 2 0 0 0 0 4Zm8.002 0a2 2 0 1 0 0-4 2 2 0 0 0 0 4Zm8.002 0a2 2 0 1 0 .001-3.999 2 2 0 0 0-.001 3.999Zm8.003 0a2 2 0 1 0 0-4 2 2 0 0 0 0 4Zm7.989 0a2 2 0 1 0 .001-3.999 2 2 0 0 0-.001 3.999Zm8.002 0a2 2 0 1 0 0-4 2 2 0 0 0 0 4Zm8.002 0a2 2 0 1 0 0-4 2 2 0 0 0 0 4Zm8.002 0a2 2 0 1 0 .001-3.999 2 2 0 0 0-.001 3.999Zm8.003 0a2 2 0 1 0 0-4 2 2 0 0 0 0 4Zm8.002 0a2 2 0 1 0 0-4 2 2 0 0 0 0 4Zm-648.01 8.003a2 2 0 1 0 0-4 2 2 0 0 0 0 4Zm7.989 0a2 2 0 1 0 0-4 2 2 0 0 0 0 4Zm8.003 0a2 2 0 1 0 0-4 2 2 0 0 0 0 4Zm8.002 0a2 2 0 1 0 0-4 2 2 0 0 0 0 4Zm8.002 0a2 2 0 1 0 0-4 2 2 0 0 0 0 4Zm8.002 0a2 2 0 1 0 0-4 2 2 0 0 0 0 4Zm8.002 0a2 2 0 1 0 0-4 2 2 0 0 0 0 4Zm207.993 0a2 2 0 1 0-.001-4.001 2 2 0 0 0 .001 4.001Zm8.002 0a2 2 0 1 0 0-4 2 2 0 0 0 0 4Zm8.002 0a2 2 0 1 0 0-4 2 2 0 0 0 0 4Zm8.002 0a2 2 0 1 0 0-4 2 2 0 0 0 0 4Zm256.006 0a2 2 0 1 0-.001-4.001 2 2 0 0 0 .001 4.001Zm8.002 0a2 2 0 1 0 0-4 2 2 0 0 0 0 4Zm7.99 0a2 2 0 1 0-.001-4.001 2 2 0 0 0 .001 4.001Zm8.001 0a2 2 0 1 0 0-4 2 2 0 0 0 0 4Zm32.009 0a2 2 0 1 0 0-4 2 2 0 0 0 0 4Zm8.003 0a2 2 0 1 0-.001-4.001 2 2 0 0 0 .001 4.001Zm7.989 0a2 2 0 1 0 0-4 2 2 0 0 0 0 4Zm8.002 0a2 2 0 1 0-.001-4.001 2 2 0 0 0 .001 4.001Zm8.002 0a2 2 0 1 0-.001-4.001 2 2 0 0 0 .001 4.001Zm8.002 0a2 2 0 1 0 0-4 2 2 0 0 0 0 4Zm8.003 0a2 2 0 1 0-.001-4.001 2 2 0 0 0 .001 4.001Zm-640.008 8.002a2 2 0 1 0 0-4 2 2 0 0 0 0 4Zm7.989 0a2 2 0 1 0 0-4 2 2 0 0 0 0 4Zm8.003 0a2 2 0 1 0 0-4 2 2 0 0 0 0 4Zm8.002 0a2 2 0 1 0 0-4 2 2 0 0 0 0 4Zm8.002 0a2 2 0 1 0 0-4 2 2 0 0 0 0 4Zm504.009 0a2 2 0 1 0-.001-4.001 2 2 0 0 0 .001 4.001Zm56.002 0a2 2 0 1 0 0-4 2 2 0 0 0 0 4Zm8.003 0a2 2 0 1 0-.001-4.001 2 2 0 0 0 .001 4.001Zm7.989 0a2 2 0 1 0 0-4 2 2 0 0 0 0 4Zm8.002 0a2 2 0 1 0-.001-4.001 2 2 0 0 0 .001 4.001Zm8.002 0a2 2 0 1 0-.001-4.001 2 2 0 0 0 .001 4.001Zm72.007 0a2 2 0 1 0-.001-4.001 2 2 0 0 0 .001 4.001ZM202.003 380a2 2 0 1 0 0-4 2 2 0 0 0 0 4Zm7.989 0a2 2 0 1 0 0-4 2 2 0 0 0 0 4Zm8.003 0a2 2 0 1 0 0-4 2 2 0 0 0 0 4Zm8.002 0a2 2 0 1 0 0-4 2 2 0 0 0 0 4Zm8.002 0a2 2 0 1 0 0-4 2 2 0 0 0 0 4Zm8.002 0a2 2 0 1 0 0-4 2 2 0 0 0 0 4Zm560.012 0a2 2 0 1 0-.001-4.001 2 2 0 0 0 .001 4.001Zm7.989 0a2 2 0 1 0 0-4 2 2 0 0 0 0 4Zm8.002 0a2 2 0 1 0-.001-4.001 2 2 0 0 0 .001 4.001Zm80.009 0a2 2 0 1 0-.001-4.001 2 2 0 0 0 .001 4.001Zm-696.01 8.002a2 2 0 1 0 .001-3.999 2 2 0 0 0-.001 3.999Zm7.989 0a2 2 0 1 0 .001-3.999 2 2 0 0 0-.001 3.999Zm8.003 0a2 2 0 1 0 .001-3.999 2 2 0 0 0-.001 3.999Zm8.002 0a2 2 0 1 0 .001-3.999 2 2 0 0 0-.001 3.999Zm664.014 0a2 2 0 1 0 0-4 2 2 0 0 0 0 4Zm-680.019 7.989a2 2 0 1 0 .001-3.999 2 2 0 0 0-.001 3.999Zm8.003 0a2 2 0 1 0 .001-3.999 2 2 0 0 0-.001 3.999Zm8.002 0a2 2 0 1 0 .001-3.999 2 2 0 0 0-.001 3.999Zm576.016 0a2 2 0 1 0 0-4 2 2 0 0 0 0 4Zm71.993 0a2 2 0 1 0 .001-3.999 2 2 0 0 0-.001 3.999Zm-664.014 8.003a2 2 0 1 0 0-4 2 2 0 0 0 0 4Zm8.003 0a2 2 0 1 0 0-4 2 2 0 0 0 0 4Zm632.018 0a2 2 0 1 0-.001-4.001 2 2 0 0 0 .001 4.001Zm7.989 0a2 2 0 1 0 0-4 2 2 0 0 0 0 4Zm-648.01 8.002a2 2 0 1 0 0-4 2 2 0 0 0 0 4Zm8.003 0a2 2 0 1 0 0-4 2 2 0 0 0 0 4Zm8.002 0a2 2 0 1 0 0-4 2 2 0 0 0 0 4Zm-8.002 8.002a2 2 0 1 0 .001-3.999 2 2 0 0 0-.001 3.999Zm8.002 0a2 2 0 1 0 .001-3.999 2 2 0 0 0-.001 3.999ZM217.995 428a2 2 0 1 0 .001-3.999 2 2 0 0 0-.001 3.999Zm8.002 0a2 2 0 1 0 .001-3.999 2 2 0 0 0-.001 3.999Z" opacity=".4"/>
</svg>
