<?xml version="1.0" encoding="UTF-8"?>
<svg width="157px" height="48px" viewBox="0 0 157 48" version="1.1" xmlns="http://www.w3.org/2000/svg" xmlns:xlink="http://www.w3.org/1999/xlink">
    <!-- Generator: Sketch 51.2 (57519) - http://www.bohemiancoding.com/sketch -->
    <title>PerfOps_logo_default</title>
    <desc>Created with Sketch.</desc>
    <defs></defs>
    <g id="Logo" stroke="none" stroke-width="1" fill="none" fill-rule="evenodd">
        <g id="Desktop" transform="translate(-143.000000, -169.000000)" fill-rule="nonzero">
            <g id="PerfOps_logo_default" transform="translate(143.000000, 169.000000)">
                <g id="Logo">
                    <g id="Desktop">
                        <g id="color_logo">
                            <g id="logo">
                                <path d="M40.5,10.8 L23.6,1 C22.4,0.3 20.9,0.3 19.6,1 L2.7,10.8 C1.5,11.5 0.7,12.8 0.7,14.2 L0.7,18 C5.9,18 9.1,20.7 11.8,23.1 C14.5,25.4 17.1,27.7 21.6,27.7 C25.8,27.7 28.2,24 30.8,20.1 C33.3,16.3 36.1,11.9 41.1,11.2 C40.9,11 40.7,10.9 40.5,10.8" id="Fill-1" fill="#5055A5"></path>
                                <path d="M42.5,14.2 C38.8,14.7 35.7,18.2 33.3,21.8 C30.5,26 27.4,30.8 21.6,30.8 C16,30.8 12.7,28 9.9,25.5 C7.2,23.2 4.9,21.1 0.7,21.1 L0.7,33.8 C0.7,35.2 1.5,36.5 2.7,37.2 L19.6,47 C20.8,47.7 22.3,47.7 23.6,47 L40.5,37.2 C41.7,36.5 42.5,35.2 42.5,33.8 L42.5,14.2" id="Fill-4" fill="#33377A"></path>
                                <path d="M61.1,24 C62.9,24 64.1,23 64.1,21.6 C64.1,20.2 62.9,19.3 61.1,19.3 L57.6,19.3 L57.6,24 L61.1,24 L61.1,23.9 L61.1,24 Z M54.1,16 L61.5,16 C65.1,16 67.7,18.3 67.7,21.6 C67.7,24.9 65.1,27.2 61.5,27.2 L57.6,27.2 L57.6,32.5 L54.1,32.5 C54.1,32.5 54.1,16 54.1,16 Z" id="Fill-10" fill="#33377A"></path>
                                <path d="M72.8,24.9 L78.3,24.9 C78,23.7 77.1,22.9 75.6,22.9 C74.4,22.9 73.3,23.7 72.8,24.9 M78.6,28.6 L80.8,30.9 C79.7,32.1 77.6,32.8 75.7,32.8 C72,32.8 69.1,30.1 69.1,26.3 C69.1,22.6 71.9,19.8 75.5,19.8 C79.4,19.8 81.7,22.8 81.7,27.4 L72.7,27.4 C73.1,28.7 74.2,29.7 75.7,29.7 C76.7,29.7 77.9,29.2 78.6,28.6" id="Fill-12" fill="#33377A"></path>
                                <path d="M91.8,19.8 L91.8,22.8 C89.2,22.8 87.6,24.3 87.6,26.6 L87.6,32.5 L84.1,32.5 L84.1,20.1 L87.6,20.1 L87.6,22.4 C88.4,20.8 89.9,19.8 91.8,19.8" id="Fill-14" fill="#33377A"></path>
                                <path d="M98,20.1 L100.7,20.1 L100.7,22.9 L98,22.9 L98,32.5 L94.6,32.5 L94.6,22.9 L92.9,22.9 L92.9,20.1 L94.6,20.1 L94.6,19 C94.6,16.8 96.1,15.2 98.3,15.2 C99.3,15.2 100.4,15.6 101.2,16.3 L100.4,18.4 C100.2,18.2 99.7,18 99.2,18 C98.6,18 98,18.6 98,19.4 L98,20.1 Z" id="Fill-16" fill="#33377A"></path>
                                <path d="M116.3,24.2 C116.3,21.3 113.9,18.9 111.2,18.9 C108.4,18.9 106.1,21.3 106.1,24.2 C106.1,27.1 108.5,29.5 111.2,29.5 C113.9,29.6 116.3,27.1 116.3,24.2 M102.4,24.2 C102.4,19.6 106.4,15.7 111.2,15.7 C116,15.7 120,19.6 120,24.2 C120,28.8 116,32.7 111.2,32.7 C106.4,32.8 102.4,28.9 102.4,24.2" id="Fill-18" fill="#33377A"></path>
                                <path d="M132.4,26.3 C132.4,24.2 131,22.8 129.1,22.8 C127.4,22.8 126.1,24 126,25.8 L126,26.8 C126.2,28.6 127.4,29.9 129.1,29.9 C131,29.8 132.4,28.4 132.4,26.3 M135.8,26.3 C135.8,30.1 133.4,32.8 130.1,32.8 C128.4,32.8 126.9,32.1 125.9,30.8 L125.9,36.7 L122.4,36.7 L122.4,20.1 L125.9,20.1 L125.9,21.8 C126.9,20.5 128.3,19.8 130.1,19.8 C133.4,19.8 135.8,22.5 135.8,26.3" id="Fill-20" fill="#33377A"></path>
                                <path d="M137.3,30.9 L138.8,28.5 C139.9,29.3 141.3,29.9 143,29.9 C143.9,29.9 144.6,29.5 144.6,29 C144.6,28.2 143.7,28 142.4,27.7 C139.9,27.1 137.9,26.4 137.9,23.9 C137.9,21.5 139.8,19.9 142.7,19.9 C144.5,19.9 146.2,20.5 147.6,21.4 L146.2,23.9 C145.1,23.2 143.8,22.8 142.7,22.8 C141.8,22.8 141.2,23.1 141.2,23.5 C141.2,24.2 141.7,24.4 143.4,24.8 C145.5,25.4 147.9,26.1 147.9,28.8 C147.9,31.2 145.9,32.8 142.9,32.8 C140.9,32.8 138.8,32.1 137.3,30.9" id="Fill-22" fill="#33377A"></path>
                            </g>
                        </g>
                    </g>
                </g>
                <g id="Group" transform="translate(147.000000, 10.000000)" fill="#33377A">
                    <path d="M6.8,7.1 L5.9,7.1 L4.9,5.7 L4,5.7 L4,7.1 L3.2,7.1 L3.2,2.9 L5.1,2.9 C6,2.9 6.7,3.5 6.7,4.3 C6.7,4.9 6.3,5.4 5.6,5.6 L6.8,7.1 Z M4,3.6 L4,5 L5,5 C5.6,5 5.9,4.7 5.9,4.3 C5.9,3.9 5.5,3.6 5,3.6 L4,3.6 Z" id="R"></path>
                    <path d="M5,9.2 C2.7,9.2 0.8,7.3 0.8,5 C0.8,2.7 2.7,0.8 5,0.8 C7.3,0.8 9.2,2.7 9.2,5 C9.2,7.3 7.3,9.2 5,9.2 Z M5,8.5 C7,8.5 8.5,6.9 8.5,5 C8.5,3.1 7,1.5 5,1.5 C3,1.5 1.5,3 1.5,5 C1.5,7 3,8.5 5,8.5 Z" id="Combined-Shape"></path>
                </g>
            </g>
        </g>
    </g>
</svg>