<svg id="logo" xmlns="http://www.w3.org/2000/svg" viewBox="0 0 733.78 183.53"><title>logo-color</title><g id="color"><path d="M247.7,98.61h-17v29.32h-9.61V55.45h24q12.25,0,18.84,5.58t6.6,16.23a19.52,19.52,0,0,1-3.66,11.8,21.84,21.84,0,0,1-10.18,7.52l17,30.77v0.6H263.43Zm-17-7.82h14.69q7.12,0,11.33-3.69a12.48,12.48,0,0,0,4.21-9.88q0-6.73-4-10.32t-11.58-3.64H230.67V90.8Z" transform="translate(-0.11 -0.23)" fill="#595a5c"/><path d="M281.63,59.78A5.5,5.5,0,0,1,283,56a5.14,5.14,0,0,1,4.06-1.54A5.22,5.22,0,0,1,291.14,56a5.44,5.44,0,0,1,1.39,3.78A5.45,5.45,0,1,1,281.63,59.78Zm10,68.15h-9.21V74.07h9.21v53.87Z" transform="translate(-0.11 -0.23)" fill="#595a5c"/><path d="M335.59,113.65a6.78,6.78,0,0,0-2.81-5.8q-2.81-2.06-9.81-3.56a46.41,46.41,0,0,1-11.1-3.58,15.78,15.78,0,0,1-6.07-5,11.89,11.89,0,0,1-2-6.87,14,14,0,0,1,5.6-11.2q5.6-4.58,14.31-4.58,9.16,0,14.86,4.73a15,15,0,0,1,5.7,12.1H335a8.31,8.31,0,0,0-3.21-6.52,12,12,0,0,0-8.09-2.74q-5,0-7.87,2.19A6.89,6.89,0,0,0,313,88.56a5.58,5.58,0,0,0,2.64,5q2.64,1.69,9.53,3.24a49.74,49.74,0,0,1,11.18,3.68,16.33,16.33,0,0,1,6.35,5.15A12.67,12.67,0,0,1,344.8,113,13.78,13.78,0,0,1,339,124.58q-5.78,4.36-15,4.36a27.12,27.12,0,0,1-11.45-2.29,18.62,18.62,0,0,1-7.79-6.4,15.42,15.42,0,0,1-2.81-8.89h9.21a9.53,9.53,0,0,0,3.71,7.34,14.38,14.38,0,0,0,9.14,2.71,14.85,14.85,0,0,0,8.39-2.12A6.5,6.5,0,0,0,335.59,113.65Z" transform="translate(-0.11 -0.23)" fill="#595a5c"/><path d="M354.94,59.78A5.5,5.5,0,0,1,356.31,56a5.14,5.14,0,0,1,4.06-1.54A5.22,5.22,0,0,1,364.45,56a5.44,5.44,0,0,1,1.39,3.78A5.45,5.45,0,1,1,354.94,59.78Zm10,68.15h-9.21V74.07h9.21v53.87Z" transform="translate(-0.11 -0.23)" fill="#595a5c"/><path d="M386.78,74.07l0.3,6.77a19.62,19.62,0,0,1,16.13-7.77q17.08,0,17.23,19.27v35.6h-9.21V92.29q-0.05-5.82-2.66-8.61t-8.14-2.79a13.29,13.29,0,0,0-7.87,2.39,16.22,16.22,0,0,0-5.28,6.27v38.38h-9.21V74.07h8.71Z" transform="translate(-0.11 -0.23)" fill="#595a5c"/><path d="M430.74,100.56q0-12.6,5.82-20A18.63,18.63,0,0,1,452,73.07q9.86,0,15.38,7l0.45-6h8.41v52.57q0,10.46-6.2,16.48t-16.65,6a27.71,27.71,0,0,1-11.4-2.49,19.63,19.63,0,0,1-8.51-6.82l4.78-5.53q5.92,7.32,14.49,7.32,6.72,0,10.48-3.78T467,127.19v-4.63q-5.53,6.37-15.09,6.37a18.4,18.4,0,0,1-15.31-7.62Q430.74,113.7,430.74,100.56Zm9.26,1q0,9.11,3.73,14.31a12.13,12.13,0,0,0,10.45,5.2q8.71,0,12.8-7.92V88.61q-4.23-7.72-12.7-7.72a12.24,12.24,0,0,0-10.5,5.23Q440,91.34,440,101.6Z" transform="translate(-0.11 -0.23)" fill="#595a5c"/><path d="M511.93,95.63q-12.3-3.54-17.9-8.69a16.6,16.6,0,0,1-5.6-12.72,17.54,17.54,0,0,1,6.84-14.16q6.85-5.6,17.8-5.6a29.71,29.71,0,0,1,13.32,2.89,21.91,21.91,0,0,1,9.06,8,20.37,20.37,0,0,1,3.21,11.1h-9.61q0-6.59-4.18-10.37t-11.8-3.77q-7.07,0-11,3.12a10.4,10.4,0,0,0-4,8.65,9.35,9.35,0,0,0,3.76,7.51q3.76,3.07,12.79,5.61a59.48,59.48,0,0,1,14.14,5.61,21.44,21.44,0,0,1,7.57,7.14,18.22,18.22,0,0,1,2.46,9.61,16.94,16.94,0,0,1-6.87,14.12q-6.87,5.3-18.37,5.3a34.08,34.08,0,0,1-13.94-2.86,23.45,23.45,0,0,1-10-7.84,19.13,19.13,0,0,1-3.51-11.3h9.61a12.49,12.49,0,0,0,4.85,10.38q4.85,3.81,13,3.81,7.57,0,11.6-3.09a10,10,0,0,0,4-8.41,9.84,9.84,0,0,0-3.73-8.24Q521.74,98.46,511.93,95.63Z" transform="translate(-0.11 -0.23)" fill="#595a5c"/><path d="M564,61v13H574v7.12H564v33.45a7.48,7.48,0,0,0,1.34,4.86q1.34,1.62,4.58,1.62a22.4,22.4,0,0,0,4.38-.6v7.42a26.84,26.84,0,0,1-7.07,1q-6.17,0-9.31-3.73t-3.14-10.6V81.19H545V74.07h9.81V61H564Z" transform="translate(-0.11 -0.23)" fill="#595a5c"/><path d="M616.31,127.94a19.29,19.29,0,0,1-1.29-5.68,20.55,20.55,0,0,1-15.33,6.67q-8,0-13.07-4.5a14.57,14.57,0,0,1-5.1-11.43q0-8.41,6.4-13.07t18-4.65h9V91A10.34,10.34,0,0,0,612,83.36q-2.89-2.86-8.51-2.86A13.43,13.43,0,0,0,595.2,83a7.34,7.34,0,0,0-3.34,6h-9.26a12.7,12.7,0,0,1,2.86-7.79,19.54,19.54,0,0,1,7.77-5.95A26.12,26.12,0,0,1,604,73.07q9.31,0,14.59,4.65t5.48,12.82v24.79q0,7.42,1.89,11.8v0.8h-9.66Zm-15.28-7a16.19,16.19,0,0,0,8.21-2.24,13.55,13.55,0,0,0,5.63-5.82V101.8h-7.22q-16.93,0-16.93,9.91a8.39,8.39,0,0,0,2.89,6.77A11.1,11.1,0,0,0,601,120.92Z" transform="translate(-0.11 -0.23)" fill="#595a5c"/><path d="M658.36,121.42a13.27,13.27,0,0,0,8.61-3,10.51,10.51,0,0,0,4.08-7.47h8.71a16.71,16.71,0,0,1-3.19,8.81,21,21,0,0,1-7.84,6.67,22.63,22.63,0,0,1-10.38,2.49q-11,0-17.5-7.34t-6.5-20.09V100a32.43,32.43,0,0,1,2.89-14,22,22,0,0,1,8.29-9.51,23.54,23.54,0,0,1,12.77-3.38,21.61,21.61,0,0,1,15.06,5.43,19.39,19.39,0,0,1,6.4,14.09h-8.71a12.7,12.7,0,0,0-4-8.59,12.32,12.32,0,0,0-8.79-3.36q-7,0-10.88,5.05t-3.86,14.61V102q0,9.31,3.83,14.34T658.36,121.42Z" transform="translate(-0.11 -0.23)" fill="#595a5c"/><path d="M704.32,103l-5.77,6v18.92h-9.21V51.47h9.21V97.72l4.93-5.93,16.78-17.72h11.2l-21,22.5,23.4,31.36h-10.8Z" transform="translate(-0.11 -0.23)" fill="#595a5c"/><path d="M80.11,74.2l39,14.61,19.81-7.43L80.42,59.46l-0.34-.1-58.57,22,19.81,7.43Zm0-.88v0h0l0,0h0Z" transform="translate(-0.11 -0.23)" fill="#3a6b53"/><polygon points="146.09 135.58 146.09 143.89 80 168.67 13.91 143.89 13.91 135.58 0 130.37 0 153.53 79.69 183.42 80 183.53 160 153.53 160 130.37 146.09 135.58" fill="#35664f"/><polygon points="140.07 66.89 140.07 52.03 80.31 29.66 79.97 29.56 19.93 52.12 19.93 66.98 80 44.41 140.07 66.89" fill="#709751"/><polygon points="146.09 106.11 146.09 114.33 80 139.11 13.91 114.33 13.91 106.02 0 100.81 0 123.97 79.69 153.86 80 153.97 160 123.97 160 100.89 146.09 106.11" fill="#709751"/><path d="M80.42,0.34l-0.34-.1-80,30V94.65L79.8,124.53l0.31,0.12,80-30V30.22ZM146.2,39.86V85L80.11,109.79,14,85V39.86L80.11,15.08Z" transform="translate(-0.11 -0.23)" fill="#b1cb57"/></g></svg>