<svg width="449" height="288" viewBox="0 0 449 288" fill="none" xmlns="http://www.w3.org/2000/svg">
<g filter="url(#filter0_dd_1328:7513)">
<path d="M262 60C262 58.8954 262.895 58 264 58V58C265.105 58 266 58.8954 266 60V80C266 81.1046 265.105 82 264 82V82C262.895 82 262 81.1046 262 80V60Z" fill="white"/>
<rect x="208" y="18" width="112" height="32" rx="6" fill="white"/>
<path d="M233.788 38V29.6H237.232C237.848 29.6 238.404 29.704 238.9 29.912C239.404 30.112 239.836 30.4 240.196 30.776C240.564 31.144 240.844 31.584 241.036 32.096C241.228 32.608 241.324 33.176 241.324 33.8C241.324 34.416 241.228 34.984 241.036 35.504C240.844 36.016 240.568 36.46 240.208 36.836C239.848 37.204 239.416 37.492 238.912 37.7C238.408 37.9 237.848 38 237.232 38H233.788ZM235.588 36.692L235.396 36.38H237.172C237.532 36.38 237.856 36.32 238.144 36.2C238.432 36.072 238.676 35.9 238.876 35.684C239.084 35.46 239.24 35.188 239.344 34.868C239.448 34.548 239.5 34.192 239.5 33.8C239.5 33.408 239.448 33.056 239.344 32.744C239.24 32.424 239.084 32.152 238.876 31.928C238.676 31.704 238.432 31.532 238.144 31.412C237.856 31.284 237.532 31.22 237.172 31.22H235.36L235.588 30.932V36.692ZM245.925 38.12C245.237 38.12 244.637 37.98 244.125 37.7C243.613 37.42 243.213 37.036 242.925 36.548C242.637 36.06 242.493 35.5 242.493 34.868C242.493 34.38 242.573 33.932 242.733 33.524C242.893 33.116 243.117 32.764 243.405 32.468C243.693 32.164 244.033 31.932 244.425 31.772C244.825 31.604 245.257 31.52 245.721 31.52C246.153 31.52 246.553 31.6 246.921 31.76C247.289 31.912 247.605 32.132 247.869 32.42C248.141 32.7 248.349 33.032 248.493 33.416C248.637 33.8 248.701 34.22 248.685 34.676L248.673 35.204H243.573L243.297 34.16H247.269L247.077 34.376V34.112C247.061 33.896 246.989 33.7 246.861 33.524C246.741 33.348 246.585 33.212 246.393 33.116C246.201 33.02 245.985 32.972 245.745 32.972C245.393 32.972 245.093 33.04 244.845 33.176C244.605 33.312 244.421 33.512 244.293 33.776C244.165 34.04 244.101 34.36 244.101 34.736C244.101 35.12 244.181 35.452 244.341 35.732C244.509 36.012 244.741 36.232 245.037 36.392C245.341 36.544 245.697 36.62 246.105 36.62C246.385 36.62 246.641 36.576 246.873 36.488C247.105 36.4 247.353 36.248 247.617 36.032L248.433 37.172C248.201 37.38 247.945 37.556 247.665 37.7C247.385 37.836 247.097 37.94 246.801 38.012C246.505 38.084 246.213 38.12 245.925 38.12ZM252.904 38.12C252.296 38.12 251.752 37.976 251.272 37.688C250.792 37.4 250.412 37.008 250.132 36.512C249.86 36.016 249.724 35.452 249.724 34.82C249.724 34.196 249.86 33.636 250.132 33.14C250.412 32.636 250.792 32.24 251.272 31.952C251.752 31.664 252.296 31.52 252.904 31.52C253.472 31.52 253.992 31.624 254.464 31.832C254.936 32.04 255.304 32.328 255.568 32.696L254.632 33.824C254.52 33.672 254.38 33.536 254.212 33.416C254.044 33.288 253.86 33.188 253.66 33.116C253.468 33.044 253.268 33.008 253.06 33.008C252.732 33.008 252.44 33.088 252.184 33.248C251.936 33.4 251.74 33.612 251.596 33.884C251.452 34.156 251.38 34.468 251.38 34.82C251.38 35.164 251.452 35.472 251.596 35.744C251.748 36.008 251.952 36.224 252.208 36.392C252.464 36.552 252.752 36.632 253.072 36.632C253.28 36.632 253.476 36.604 253.66 36.548C253.844 36.484 254.016 36.392 254.176 36.272C254.344 36.152 254.496 36.008 254.632 35.84L255.556 36.968C255.284 37.312 254.908 37.592 254.428 37.808C253.948 38.016 253.44 38.12 252.904 38.12ZM259.86 38.12C259.172 38.12 258.572 37.98 258.06 37.7C257.548 37.42 257.148 37.036 256.86 36.548C256.572 36.06 256.428 35.5 256.428 34.868C256.428 34.38 256.508 33.932 256.668 33.524C256.828 33.116 257.052 32.764 257.34 32.468C257.628 32.164 257.968 31.932 258.36 31.772C258.76 31.604 259.192 31.52 259.656 31.52C260.088 31.52 260.488 31.6 260.856 31.76C261.224 31.912 261.54 32.132 261.804 32.42C262.076 32.7 262.284 33.032 262.428 33.416C262.572 33.8 262.636 34.22 262.62 34.676L262.608 35.204H257.508L257.232 34.16H261.204L261.012 34.376V34.112C260.996 33.896 260.924 33.7 260.796 33.524C260.676 33.348 260.52 33.212 260.328 33.116C260.136 33.02 259.92 32.972 259.68 32.972C259.328 32.972 259.028 33.04 258.78 33.176C258.54 33.312 258.356 33.512 258.228 33.776C258.1 34.04 258.036 34.36 258.036 34.736C258.036 35.12 258.116 35.452 258.276 35.732C258.444 36.012 258.676 36.232 258.972 36.392C259.276 36.544 259.632 36.62 260.04 36.62C260.32 36.62 260.576 36.576 260.808 36.488C261.04 36.4 261.288 36.248 261.552 36.032L262.368 37.172C262.136 37.38 261.88 37.556 261.6 37.7C261.32 37.836 261.032 37.94 260.736 38.012C260.44 38.084 260.148 38.12 259.86 38.12ZM264.067 38V31.652H265.711L265.747 32.864L265.495 32.912C265.583 32.704 265.699 32.516 265.843 32.348C265.987 32.18 266.155 32.036 266.347 31.916C266.547 31.796 266.755 31.704 266.971 31.64C267.187 31.568 267.403 31.532 267.619 31.532C267.947 31.532 268.243 31.584 268.507 31.688C268.771 31.792 268.995 31.956 269.179 32.18C269.363 32.396 269.507 32.684 269.611 33.044L269.347 33.02L269.431 32.828C269.535 32.636 269.667 32.464 269.827 32.312C269.987 32.152 270.167 32.016 270.367 31.904C270.567 31.784 270.775 31.692 270.991 31.628C271.207 31.564 271.419 31.532 271.627 31.532C272.123 31.532 272.535 31.632 272.863 31.832C273.191 32.024 273.435 32.316 273.595 32.708C273.763 33.1 273.847 33.58 273.847 34.148V38H272.143V34.268C272.143 33.98 272.103 33.744 272.023 33.56C271.943 33.376 271.827 33.24 271.675 33.152C271.523 33.056 271.327 33.008 271.087 33.008C270.903 33.008 270.731 33.04 270.571 33.104C270.419 33.16 270.283 33.244 270.163 33.356C270.051 33.46 269.963 33.584 269.899 33.728C269.835 33.872 269.803 34.032 269.803 34.208V38H268.099V34.256C268.099 33.992 268.055 33.768 267.967 33.584C267.887 33.392 267.771 33.248 267.619 33.152C267.467 33.056 267.279 33.008 267.055 33.008C266.871 33.008 266.699 33.04 266.539 33.104C266.387 33.16 266.255 33.244 266.143 33.356C266.031 33.46 265.939 33.584 265.867 33.728C265.803 33.872 265.771 34.028 265.771 34.196V38H264.067ZM279.33 38.12C279.05 38.12 278.778 38.08 278.514 38C278.25 37.92 278.01 37.812 277.794 37.676C277.578 37.532 277.398 37.372 277.254 37.196C277.11 37.012 277.018 36.824 276.978 36.632L277.362 36.488L277.278 37.976H275.67V29.12H277.374V33.14L277.05 33.008C277.098 32.816 277.19 32.632 277.326 32.456C277.462 32.272 277.634 32.112 277.842 31.976C278.05 31.832 278.278 31.72 278.526 31.64C278.774 31.56 279.03 31.52 279.294 31.52C279.846 31.52 280.338 31.664 280.77 31.952C281.202 32.232 281.542 32.62 281.79 33.116C282.046 33.612 282.174 34.18 282.174 34.82C282.174 35.46 282.05 36.028 281.802 36.524C281.554 37.02 281.214 37.412 280.782 37.7C280.358 37.98 279.874 38.12 279.33 38.12ZM278.922 36.668C279.242 36.668 279.518 36.592 279.75 36.44C279.99 36.28 280.178 36.064 280.314 35.792C280.45 35.512 280.518 35.188 280.518 34.82C280.518 34.46 280.45 34.14 280.314 33.86C280.186 33.58 280.002 33.364 279.762 33.212C279.522 33.06 279.242 32.984 278.922 32.984C278.602 32.984 278.322 33.06 278.082 33.212C277.842 33.364 277.654 33.58 277.518 33.86C277.382 34.14 277.314 34.46 277.314 34.82C277.314 35.188 277.382 35.512 277.518 35.792C277.654 36.064 277.842 36.28 278.082 36.44C278.322 36.592 278.602 36.668 278.922 36.668ZM286.675 38.12C285.987 38.12 285.387 37.98 284.875 37.7C284.363 37.42 283.963 37.036 283.675 36.548C283.387 36.06 283.243 35.5 283.243 34.868C283.243 34.38 283.323 33.932 283.483 33.524C283.643 33.116 283.867 32.764 284.155 32.468C284.443 32.164 284.783 31.932 285.175 31.772C285.575 31.604 286.007 31.52 286.471 31.52C286.903 31.52 287.303 31.6 287.671 31.76C288.039 31.912 288.355 32.132 288.619 32.42C288.891 32.7 289.099 33.032 289.243 33.416C289.387 33.8 289.451 34.22 289.435 34.676L289.423 35.204H284.323L284.047 34.16H288.019L287.827 34.376V34.112C287.811 33.896 287.739 33.7 287.611 33.524C287.491 33.348 287.335 33.212 287.143 33.116C286.951 33.02 286.735 32.972 286.495 32.972C286.143 32.972 285.843 33.04 285.595 33.176C285.355 33.312 285.171 33.512 285.043 33.776C284.915 34.04 284.851 34.36 284.851 34.736C284.851 35.12 284.931 35.452 285.091 35.732C285.259 36.012 285.491 36.232 285.787 36.392C286.091 36.544 286.447 36.62 286.855 36.62C287.135 36.62 287.391 36.576 287.623 36.488C287.855 36.4 288.103 36.248 288.367 36.032L289.183 37.172C288.951 37.38 288.695 37.556 288.415 37.7C288.135 37.836 287.847 37.94 287.551 38.012C287.255 38.084 286.963 38.12 286.675 38.12ZM290.894 38V31.652H292.538L292.598 33.692L292.31 33.272C292.406 32.944 292.562 32.648 292.778 32.384C292.994 32.112 293.246 31.9 293.534 31.748C293.83 31.596 294.138 31.52 294.458 31.52C294.594 31.52 294.726 31.532 294.854 31.556C294.982 31.58 295.09 31.608 295.178 31.64L294.722 33.512C294.626 33.464 294.51 33.424 294.374 33.392C294.238 33.352 294.098 33.332 293.954 33.332C293.762 33.332 293.582 33.368 293.414 33.44C293.254 33.504 293.114 33.6 292.994 33.728C292.874 33.848 292.778 33.992 292.706 34.16C292.642 34.328 292.61 34.512 292.61 34.712V38H290.894Z" fill="#F65128"/>
<rect x="67" y="18" width="125" height="12" rx="6" fill="white"/>
<rect x="20" y="38" width="172" height="12" rx="6" fill="white"/>
<rect x="208" y="238" width="112" height="32" rx="6" fill="white"/>
<path d="M233.144 258V249.6H234.752L239.396 255.876H239.06C239.028 255.628 239 255.388 238.976 255.156C238.952 254.916 238.928 254.676 238.904 254.436C238.888 254.188 238.872 253.936 238.856 253.68C238.848 253.416 238.84 253.14 238.832 252.852C238.824 252.556 238.82 252.236 238.82 251.892V249.6H240.584V258H238.952L234.212 251.664L234.668 251.676C234.708 252.092 234.74 252.448 234.764 252.744C234.796 253.032 234.82 253.284 234.836 253.5C234.852 253.716 234.864 253.904 234.872 254.064C234.888 254.224 234.896 254.376 234.896 254.52C234.904 254.664 234.908 254.816 234.908 254.976V258H233.144ZM245.677 258.12C245.029 258.12 244.449 257.98 243.937 257.7C243.433 257.412 243.033 257.02 242.737 256.524C242.449 256.028 242.305 255.46 242.305 254.82C242.305 254.18 242.449 253.616 242.737 253.128C243.033 252.632 243.433 252.24 243.937 251.952C244.449 251.664 245.029 251.52 245.677 251.52C246.317 251.52 246.889 251.664 247.393 251.952C247.905 252.24 248.305 252.632 248.593 253.128C248.881 253.616 249.025 254.18 249.025 254.82C249.025 255.46 248.881 256.028 248.593 256.524C248.305 257.02 247.905 257.412 247.393 257.7C246.889 257.98 246.317 258.12 245.677 258.12ZM245.677 256.632C245.989 256.632 246.269 256.556 246.517 256.404C246.765 256.244 246.957 256.028 247.093 255.756C247.237 255.476 247.309 255.164 247.309 254.82C247.309 254.468 247.237 254.156 247.093 253.884C246.957 253.604 246.765 253.388 246.517 253.236C246.269 253.076 245.989 252.996 245.677 252.996C245.357 252.996 245.073 253.076 244.825 253.236C244.577 253.396 244.381 253.612 244.237 253.884C244.093 254.156 244.025 254.468 244.033 254.82C244.025 255.164 244.093 255.476 244.237 255.756C244.381 256.028 244.577 256.244 244.825 256.404C245.073 256.556 245.357 256.632 245.677 256.632ZM252.323 258L249.659 251.652H251.531L253.223 256.392L252.827 256.464L254.603 251.652H256.427L253.631 258H252.323ZM260.504 258.12C259.816 258.12 259.216 257.98 258.704 257.7C258.192 257.42 257.792 257.036 257.504 256.548C257.216 256.06 257.072 255.5 257.072 254.868C257.072 254.38 257.152 253.932 257.312 253.524C257.472 253.116 257.696 252.764 257.984 252.468C258.272 252.164 258.612 251.932 259.004 251.772C259.404 251.604 259.836 251.52 260.3 251.52C260.732 251.52 261.132 251.6 261.5 251.76C261.868 251.912 262.184 252.132 262.448 252.42C262.72 252.7 262.928 253.032 263.072 253.416C263.216 253.8 263.28 254.22 263.264 254.676L263.252 255.204H258.152L257.876 254.16H261.848L261.656 254.376V254.112C261.64 253.896 261.568 253.7 261.44 253.524C261.32 253.348 261.164 253.212 260.972 253.116C260.78 253.02 260.564 252.972 260.324 252.972C259.972 252.972 259.672 253.04 259.424 253.176C259.184 253.312 259 253.512 258.872 253.776C258.744 254.04 258.68 254.36 258.68 254.736C258.68 255.12 258.76 255.452 258.92 255.732C259.088 256.012 259.32 256.232 259.616 256.392C259.92 256.544 260.276 256.62 260.684 256.62C260.964 256.62 261.22 256.576 261.452 256.488C261.684 256.4 261.932 256.248 262.196 256.032L263.012 257.172C262.78 257.38 262.524 257.556 262.244 257.7C261.964 257.836 261.676 257.94 261.38 258.012C261.084 258.084 260.792 258.12 260.504 258.12ZM264.711 258V251.652H266.355L266.391 252.864L266.139 252.912C266.227 252.704 266.343 252.516 266.487 252.348C266.631 252.18 266.799 252.036 266.991 251.916C267.191 251.796 267.399 251.704 267.615 251.64C267.831 251.568 268.047 251.532 268.263 251.532C268.591 251.532 268.887 251.584 269.151 251.688C269.415 251.792 269.639 251.956 269.823 252.18C270.007 252.396 270.151 252.684 270.255 253.044L269.991 253.02L270.075 252.828C270.179 252.636 270.311 252.464 270.471 252.312C270.631 252.152 270.811 252.016 271.011 251.904C271.211 251.784 271.419 251.692 271.635 251.628C271.851 251.564 272.063 251.532 272.271 251.532C272.767 251.532 273.179 251.632 273.507 251.832C273.835 252.024 274.079 252.316 274.239 252.708C274.407 253.1 274.491 253.58 274.491 254.148V258H272.787V254.268C272.787 253.98 272.747 253.744 272.667 253.56C272.587 253.376 272.471 253.24 272.319 253.152C272.167 253.056 271.971 253.008 271.731 253.008C271.547 253.008 271.375 253.04 271.215 253.104C271.063 253.16 270.927 253.244 270.807 253.356C270.695 253.46 270.607 253.584 270.543 253.728C270.479 253.872 270.447 254.032 270.447 254.208V258H268.743V254.256C268.743 253.992 268.699 253.768 268.611 253.584C268.531 253.392 268.415 253.248 268.263 253.152C268.111 253.056 267.923 253.008 267.699 253.008C267.515 253.008 267.343 253.04 267.183 253.104C267.031 253.16 266.899 253.244 266.787 253.356C266.675 253.46 266.583 253.584 266.511 253.728C266.447 253.872 266.415 254.028 266.415 254.196V258H264.711ZM279.974 258.12C279.694 258.12 279.422 258.08 279.158 258C278.894 257.92 278.654 257.812 278.438 257.676C278.222 257.532 278.042 257.372 277.898 257.196C277.754 257.012 277.662 256.824 277.622 256.632L278.006 256.488L277.922 257.976H276.314V249.12H278.018V253.14L277.694 253.008C277.742 252.816 277.834 252.632 277.97 252.456C278.106 252.272 278.278 252.112 278.486 251.976C278.694 251.832 278.922 251.72 279.17 251.64C279.418 251.56 279.674 251.52 279.938 251.52C280.49 251.52 280.982 251.664 281.414 251.952C281.846 252.232 282.186 252.62 282.434 253.116C282.69 253.612 282.818 254.18 282.818 254.82C282.818 255.46 282.694 256.028 282.446 256.524C282.198 257.02 281.858 257.412 281.426 257.7C281.002 257.98 280.518 258.12 279.974 258.12ZM279.566 256.668C279.886 256.668 280.162 256.592 280.394 256.44C280.634 256.28 280.822 256.064 280.958 255.792C281.094 255.512 281.162 255.188 281.162 254.82C281.162 254.46 281.094 254.14 280.958 253.86C280.83 253.58 280.646 253.364 280.406 253.212C280.166 253.06 279.886 252.984 279.566 252.984C279.246 252.984 278.966 253.06 278.726 253.212C278.486 253.364 278.298 253.58 278.162 253.86C278.026 254.14 277.958 254.46 277.958 254.82C277.958 255.188 278.026 255.512 278.162 255.792C278.298 256.064 278.486 256.28 278.726 256.44C278.966 256.592 279.246 256.668 279.566 256.668ZM287.319 258.12C286.631 258.12 286.031 257.98 285.519 257.7C285.007 257.42 284.607 257.036 284.319 256.548C284.031 256.06 283.887 255.5 283.887 254.868C283.887 254.38 283.967 253.932 284.127 253.524C284.287 253.116 284.511 252.764 284.799 252.468C285.087 252.164 285.427 251.932 285.819 251.772C286.219 251.604 286.651 251.52 287.115 251.52C287.547 251.52 287.947 251.6 288.315 251.76C288.683 251.912 288.999 252.132 289.263 252.42C289.535 252.7 289.743 253.032 289.887 253.416C290.031 253.8 290.095 254.22 290.079 254.676L290.067 255.204H284.967L284.691 254.16H288.663L288.471 254.376V254.112C288.455 253.896 288.383 253.7 288.255 253.524C288.135 253.348 287.979 253.212 287.787 253.116C287.595 253.02 287.379 252.972 287.139 252.972C286.787 252.972 286.487 253.04 286.239 253.176C285.999 253.312 285.815 253.512 285.687 253.776C285.559 254.04 285.495 254.36 285.495 254.736C285.495 255.12 285.575 255.452 285.735 255.732C285.903 256.012 286.135 256.232 286.431 256.392C286.735 256.544 287.091 256.62 287.499 256.62C287.779 256.62 288.035 256.576 288.267 256.488C288.499 256.4 288.747 256.248 289.011 256.032L289.827 257.172C289.595 257.38 289.339 257.556 289.059 257.7C288.779 257.836 288.491 257.94 288.195 258.012C287.899 258.084 287.607 258.12 287.319 258.12ZM291.538 258V251.652H293.182L293.242 253.692L292.954 253.272C293.05 252.944 293.206 252.648 293.422 252.384C293.638 252.112 293.89 251.9 294.178 251.748C294.474 251.596 294.782 251.52 295.102 251.52C295.238 251.52 295.37 251.532 295.498 251.556C295.626 251.58 295.734 251.608 295.822 251.64L295.366 253.512C295.27 253.464 295.154 253.424 295.018 253.392C294.882 253.352 294.742 253.332 294.598 253.332C294.406 253.332 294.226 253.368 294.058 253.44C293.898 253.504 293.758 253.6 293.638 253.728C293.518 253.848 293.422 253.992 293.35 254.16C293.286 254.328 293.254 254.512 293.254 254.712V258H291.538Z" fill="#F65128"/>
<rect x="67" y="238" width="125" height="12" rx="6" fill="white"/>
<rect x="20" y="258" width="172" height="12" rx="6" fill="white"/>
<path d="M262 -12C262 -13.1046 262.895 -14 264 -14V-14C265.105 -14 266 -13.1046 266 -12V8C266 9.10457 265.105 10 264 10V10C262.895 10 262 9.10457 262 8V-12Z" fill="white"/>
<path d="M262 208C262 206.895 262.895 206 264 206V206C265.105 206 266 206.895 266 208V228C266 229.105 265.105 230 264 230V230C262.895 230 262 229.105 262 228V208Z" fill="white"/>
<path d="M262 280C262 278.895 262.895 278 264 278V278C265.105 278 266 278.895 266 280V300C266 301.105 265.105 302 264 302V302C262.895 302 262 301.105 262 300V280Z" fill="white"/>
<rect x="208" y="166" width="112" height="32" rx="6" fill="white"/>
<path d="M242.983 186.12C242.367 186.12 241.799 186.012 241.279 185.796C240.759 185.58 240.303 185.28 239.911 184.896C239.527 184.504 239.231 184.044 239.023 183.516C238.815 182.98 238.711 182.4 238.711 181.776C238.711 181.144 238.815 180.568 239.023 180.048C239.231 179.52 239.527 179.06 239.911 178.668C240.303 178.276 240.759 177.972 241.279 177.756C241.799 177.54 242.367 177.432 242.983 177.432C243.607 177.432 244.175 177.54 244.687 177.756C245.207 177.972 245.659 178.276 246.043 178.668C246.435 179.06 246.735 179.52 246.943 180.048C247.151 180.576 247.255 181.152 247.255 181.776C247.255 182.4 247.151 182.976 246.943 183.504C246.735 184.032 246.435 184.492 246.043 184.884C245.659 185.276 245.207 185.58 244.687 185.796C244.175 186.012 243.607 186.12 242.983 186.12ZM242.983 184.416C243.335 184.416 243.659 184.352 243.955 184.224C244.259 184.096 244.519 183.912 244.735 183.672C244.951 183.432 245.119 183.152 245.239 182.832C245.367 182.512 245.431 182.16 245.431 181.776C245.431 181.392 245.367 181.04 245.239 180.72C245.119 180.4 244.951 180.124 244.735 179.892C244.519 179.652 244.259 179.468 243.955 179.34C243.659 179.204 243.335 179.136 242.983 179.136C242.631 179.136 242.307 179.204 242.011 179.34C241.715 179.468 241.455 179.652 241.231 179.892C241.007 180.124 240.835 180.4 240.715 180.72C240.603 181.04 240.547 181.392 240.547 181.776C240.547 182.16 240.603 182.512 240.715 182.832C240.835 183.152 241.007 183.432 241.231 183.672C241.455 183.912 241.715 184.096 242.011 184.224C242.307 184.352 242.631 184.416 242.983 184.416ZM251.605 186.12C250.997 186.12 250.453 185.976 249.973 185.688C249.493 185.4 249.113 185.008 248.833 184.512C248.561 184.016 248.425 183.452 248.425 182.82C248.425 182.196 248.561 181.636 248.833 181.14C249.113 180.636 249.493 180.24 249.973 179.952C250.453 179.664 250.997 179.52 251.605 179.52C252.173 179.52 252.693 179.624 253.165 179.832C253.637 180.04 254.005 180.328 254.269 180.696L253.333 181.824C253.221 181.672 253.081 181.536 252.913 181.416C252.745 181.288 252.561 181.188 252.361 181.116C252.169 181.044 251.969 181.008 251.761 181.008C251.433 181.008 251.141 181.088 250.885 181.248C250.637 181.4 250.441 181.612 250.297 181.884C250.153 182.156 250.081 182.468 250.081 182.82C250.081 183.164 250.153 183.472 250.297 183.744C250.449 184.008 250.653 184.224 250.909 184.392C251.165 184.552 251.453 184.632 251.773 184.632C251.981 184.632 252.177 184.604 252.361 184.548C252.545 184.484 252.717 184.392 252.877 184.272C253.045 184.152 253.197 184.008 253.333 183.84L254.257 184.968C253.985 185.312 253.609 185.592 253.129 185.808C252.649 186.016 252.141 186.12 251.605 186.12ZM256.16 186V178.044H257.864V186H256.16ZM254.972 181.176V179.652H259.16V181.176H254.972ZM263.365 186.12C262.717 186.12 262.137 185.98 261.625 185.7C261.121 185.412 260.721 185.02 260.425 184.524C260.137 184.028 259.993 183.46 259.993 182.82C259.993 182.18 260.137 181.616 260.425 181.128C260.721 180.632 261.121 180.24 261.625 179.952C262.137 179.664 262.717 179.52 263.365 179.52C264.005 179.52 264.577 179.664 265.081 179.952C265.593 180.24 265.993 180.632 266.281 181.128C266.569 181.616 266.713 182.18 266.713 182.82C266.713 183.46 266.569 184.028 266.281 184.524C265.993 185.02 265.593 185.412 265.081 185.7C264.577 185.98 264.005 186.12 263.365 186.12ZM263.365 184.632C263.677 184.632 263.957 184.556 264.205 184.404C264.453 184.244 264.645 184.028 264.781 183.756C264.925 183.476 264.997 183.164 264.997 182.82C264.997 182.468 264.925 182.156 264.781 181.884C264.645 181.604 264.453 181.388 264.205 181.236C263.957 181.076 263.677 180.996 263.365 180.996C263.045 180.996 262.761 181.076 262.513 181.236C262.265 181.396 262.069 181.612 261.925 181.884C261.781 182.156 261.713 182.468 261.721 182.82C261.713 183.164 261.781 183.476 261.925 183.756C262.069 184.028 262.265 184.244 262.513 184.404C262.761 184.556 263.045 184.632 263.365 184.632ZM271.855 186.12C271.575 186.12 271.303 186.08 271.039 186C270.775 185.92 270.535 185.812 270.319 185.676C270.103 185.532 269.923 185.372 269.779 185.196C269.635 185.012 269.543 184.824 269.503 184.632L269.887 184.488L269.803 185.976H268.195V177.12H269.899V181.14L269.575 181.008C269.623 180.816 269.715 180.632 269.851 180.456C269.987 180.272 270.159 180.112 270.367 179.976C270.575 179.832 270.803 179.72 271.051 179.64C271.299 179.56 271.555 179.52 271.819 179.52C272.371 179.52 272.863 179.664 273.295 179.952C273.727 180.232 274.067 180.62 274.315 181.116C274.571 181.612 274.699 182.18 274.699 182.82C274.699 183.46 274.575 184.028 274.327 184.524C274.079 185.02 273.739 185.412 273.307 185.7C272.883 185.98 272.399 186.12 271.855 186.12ZM271.447 184.668C271.767 184.668 272.043 184.592 272.275 184.44C272.515 184.28 272.703 184.064 272.839 183.792C272.975 183.512 273.043 183.188 273.043 182.82C273.043 182.46 272.975 182.14 272.839 181.86C272.711 181.58 272.527 181.364 272.287 181.212C272.047 181.06 271.767 180.984 271.447 180.984C271.127 180.984 270.847 181.06 270.607 181.212C270.367 181.364 270.179 181.58 270.043 181.86C269.907 182.14 269.839 182.46 269.839 182.82C269.839 183.188 269.907 183.512 270.043 183.792C270.179 184.064 270.367 184.28 270.607 184.44C270.847 184.592 271.127 184.668 271.447 184.668ZM279.2 186.12C278.512 186.12 277.912 185.98 277.4 185.7C276.888 185.42 276.488 185.036 276.2 184.548C275.912 184.06 275.768 183.5 275.768 182.868C275.768 182.38 275.848 181.932 276.008 181.524C276.168 181.116 276.392 180.764 276.68 180.468C276.968 180.164 277.308 179.932 277.7 179.772C278.1 179.604 278.532 179.52 278.996 179.52C279.428 179.52 279.828 179.6 280.196 179.76C280.564 179.912 280.88 180.132 281.144 180.42C281.416 180.7 281.624 181.032 281.768 181.416C281.912 181.8 281.976 182.22 281.96 182.676L281.948 183.204H276.848L276.572 182.16H280.544L280.352 182.376V182.112C280.336 181.896 280.264 181.7 280.136 181.524C280.016 181.348 279.86 181.212 279.668 181.116C279.476 181.02 279.26 180.972 279.02 180.972C278.668 180.972 278.368 181.04 278.12 181.176C277.88 181.312 277.696 181.512 277.568 181.776C277.44 182.04 277.376 182.36 277.376 182.736C277.376 183.12 277.456 183.452 277.616 183.732C277.784 184.012 278.016 184.232 278.312 184.392C278.616 184.544 278.972 184.62 279.38 184.62C279.66 184.62 279.916 184.576 280.148 184.488C280.38 184.4 280.628 184.248 280.892 184.032L281.708 185.172C281.476 185.38 281.22 185.556 280.94 185.7C280.66 185.836 280.372 185.94 280.076 186.012C279.78 186.084 279.488 186.12 279.2 186.12ZM283.419 186V179.652H285.063L285.123 181.692L284.835 181.272C284.931 180.944 285.087 180.648 285.303 180.384C285.519 180.112 285.771 179.9 286.059 179.748C286.355 179.596 286.663 179.52 286.983 179.52C287.119 179.52 287.251 179.532 287.379 179.556C287.507 179.58 287.615 179.608 287.703 179.64L287.247 181.512C287.151 181.464 287.035 181.424 286.899 181.392C286.763 181.352 286.623 181.332 286.479 181.332C286.287 181.332 286.107 181.368 285.939 181.44C285.779 181.504 285.639 181.6 285.519 181.728C285.399 181.848 285.303 181.992 285.231 182.16C285.167 182.328 285.135 182.512 285.135 182.712V186H283.419Z" fill="#F65128"/>
<rect x="336" y="166" width="93" height="12" rx="6" fill="white"/>
<rect x="336" y="186" width="64" height="12" rx="6" fill="white"/>
<path d="M262 136C262 134.895 262.895 134 264 134V134C265.105 134 266 134.895 266 136V156C266 157.105 265.105 158 264 158V158C262.895 158 262 157.105 262 156V136Z" fill="white"/>
</g>
<defs>
<filter id="filter0_dd_1328:7513" x="0" y="-28" width="449" height="356" filterUnits="userSpaceOnUse" color-interpolation-filters="sRGB">
<feFlood flood-opacity="0" result="BackgroundImageFix"/>
<feColorMatrix in="SourceAlpha" type="matrix" values="0 0 0 0 0 0 0 0 0 0 0 0 0 0 0 0 0 0 127 0" result="hardAlpha"/>
<feOffset dy="6"/>
<feGaussianBlur stdDeviation="10"/>
<feComposite in2="hardAlpha" operator="out"/>
<feColorMatrix type="matrix" values="0 0 0 0 0.616667 0 0 0 0 0.122735 0 0 0 0 0 0 0 0 0.12 0"/>
<feBlend mode="normal" in2="BackgroundImageFix" result="effect1_dropShadow_1328:7513"/>
<feColorMatrix in="SourceAlpha" type="matrix" values="0 0 0 0 0 0 0 0 0 0 0 0 0 0 0 0 0 0 127 0" result="hardAlpha"/>
<feOffset dy="2"/>
<feGaussianBlur stdDeviation="1.5"/>
<feComposite in2="hardAlpha" operator="out"/>
<feColorMatrix type="matrix" values="0 0 0 0 0.615686 0 0 0 0 0.121569 0 0 0 0 0 0 0 0 0.12 0"/>
<feBlend mode="normal" in2="effect1_dropShadow_1328:7513" result="effect2_dropShadow_1328:7513"/>
<feBlend mode="normal" in="SourceGraphic" in2="effect2_dropShadow_1328:7513" result="shape"/>
</filter>
</defs>
</svg>
