<svg xmlns="http://www.w3.org/2000/svg" width="280" height="88" fill="none">
  <path fill="url(#a)" d="M30.4 86.36c-5.52 0-10.56-1.08-15.12-3.24-4.56-2.24-8.2-5.2-10.92-8.88C1.72 70.48.4 66.28.4 61.64c0-4.88 1.08-9.04 3.24-12.48 2.24-3.44 5.48-6.28 9.72-8.52-3.28-1.84-5.84-4.16-7.68-6.96-1.84-2.88-2.76-6.08-2.76-9.6 0-4.32 1.2-8.2 3.6-11.64C9 9 12.32 6.28 16.48 4.28c4.16-2.08 8.8-3.12 13.92-3.12 5.04 0 9.64 1.04 13.8 3.12 4.16 2 7.48 4.72 9.96 8.16 2.48 3.44 3.72 7.32 3.72 11.64 0 7.2-3.6 12.76-10.8 16.68 4 2 7.2 4.8 9.6 8.4 2.48 3.6 3.72 7.76 3.72 12.48 0 4.64-1.36 8.84-4.08 12.6-2.64 3.76-6.24 6.72-10.8 8.88-4.56 2.16-9.6 3.24-15.12 3.24Zm0-51.72c3.28 0 6-.92 8.16-2.76 2.24-1.84 3.36-4.2 3.36-7.08s-1.12-5.28-3.36-7.2c-2.16-1.92-4.88-2.88-8.16-2.88-3.36 0-6.16.96-8.4 2.88-2.16 1.92-3.24 4.32-3.24 7.2s1.08 5.24 3.24 7.08c2.24 1.84 5.04 2.76 8.4 2.76Zm0 37.32c3.84 0 7-1.04 9.48-3.12 2.56-2.16 3.84-4.88 3.84-8.16 0-3.44-1.28-6.28-3.84-8.52-2.48-2.24-5.64-3.36-9.48-3.36-3.76 0-6.92 1.12-9.48 3.36-2.56 2.24-3.84 5.08-3.84 8.52 0 3.2 1.28 5.88 3.84 8.04 2.56 2.16 5.72 3.24 9.48 3.24Zm68.221 14.88c-6 0-11.44-1.24-16.32-3.72-4.88-2.56-8.92-6.24-12.12-11.04l9.36-10.32c3.44 3.84 6.56 6.48 9.36 7.92 2.8 1.36 5.88 2.04 9.24 2.04 4.4 0 8-1.32 10.8-3.96 2.88-2.72 4.32-6.04 4.32-9.96 0-4.16-1.4-7.6-4.2-10.32-2.8-2.72-6.28-4.08-10.44-4.08-1.68 0-3.28.12-4.8.36-1.44.24-3.08.76-4.92 1.56-1.84.72-4.16 1.84-6.96 3.36l-7.92-10.56 5.16-36.48h47.04v15h-34.68l-2.28 15.24c1.92-.8 4-1.44 6.24-1.92s4.4-.72 6.48-.72c5.28 0 9.96 1.2 14.04 3.6 4.16 2.4 7.44 5.72 9.84 9.96 2.4 4.24 3.6 9.12 3.6 14.64 0 5.52-1.36 10.52-4.08 15-2.72 4.4-6.4 7.92-11.04 10.56-4.64 2.56-9.88 3.84-15.72 3.84Zm76.398.36c-7.12 0-13.2-1.72-18.24-5.16-4.96-3.44-8.8-8.4-11.52-14.88-2.64-6.48-3.96-14.2-3.96-23.16s1.32-16.68 3.96-23.16c2.72-6.48 6.56-11.44 11.52-14.88 5.04-3.44 11.12-5.16 18.24-5.16 7.04 0 13.08 1.72 18.12 5.16 5.04 3.44 8.88 8.4 11.52 14.88 2.72 6.48 4.08 14.2 4.08 23.16s-1.36 16.68-4.08 23.16c-2.64 6.48-6.48 11.44-11.52 14.88-5.04 3.44-11.08 5.16-18.12 5.16Zm0-15c5.44 0 9.64-2.44 12.6-7.32 3.04-4.88 4.56-11.84 4.56-20.88 0-9.12-1.52-16.16-4.56-21.12-2.96-5.04-7.16-7.56-12.6-7.56-5.52 0-9.76 2.52-12.72 7.56-2.96 4.96-4.44 12-4.44 21.12 0 9.04 1.48 16 4.44 20.88 2.96 4.88 7.2 7.32 12.72 7.32ZM219.678 59V45.32h22.32V22.76h15.24v22.56h22.56V59h-22.56v22.2h-15.24V59h-22.32Z"/>
  <defs>
    <linearGradient id="a" x1="140.5" x2="140.5" y1="-7" y2="89" gradientUnits="userSpaceOnUse">
      <stop stop-color="#5C667A" stop-opacity=".4"/>
      <stop offset="1" stop-color="#5C667A" stop-opacity="0"/>
    </linearGradient>
  </defs>
</svg>
