<?xml version="1.0" encoding="UTF-8"?>
<!-- Generator: Adobe Illustrator 24.3.0, SVG Export Plug-In . SVG Version: 6.00 Build 0)  -->
<svg version="1.1" id="Layer_1" xmlns="http://www.w3.org/2000/svg" xmlns:xlink="http://www.w3.org/1999/xlink" x="0px" y="0px" viewBox="0 0 960.5 167.9" style="enable-background:new 0 0 960.5 167.9;" xml:space="preserve">
<style type="text/css">
	.st0{fill:#18A9E1;}
	.st1{fill:#FF6F00;}
</style>
<g>
	<path class="st0" d="M336.6,6.8h-64.3v157.5h34.6v-47.1h26.3c35.3,0,63.7-18.9,63.7-55.3v-0.4C396.9,29,374.2,6.8,336.6,6.8z    M361.8,62.3c0,13.5-10.1,23.8-27.4,23.8h-27.4v-48h26.8c17.3,0,28.1,8.3,28.1,23.8L361.8,62.3z"/>
	<path class="st0" d="M446.6,67.9V43.7h-34.2v120.6h34.2v-44.5c0-28.8,13.9-42.5,36.7-42.5h1.8V41.4   C464.8,40.5,453.6,51.3,446.6,67.9z"/>
	<path class="st0" d="M553.4,41.4c-35.1,0-59.6,28.4-59.6,62.7v0.5c0,36.9,26.8,62.3,63,62.3c21.8,0,38-8.5,49.3-22.5L586.5,127   c-9.5,8.8-17.8,12.4-29.3,12.4c-15.3,0-26.1-8.1-29.5-23.6h83.9c0.2-3.2,0.4-6.3,0.4-9C612.2,72.7,593.8,41.4,553.4,41.4z    M527.4,94.5C530.1,79,539.3,69,553.5,69s23.4,10.4,25.5,25.5H527.4z"/>
	<path class="st0" d="M703.9,41.4c-17.8,0-29.3,8.3-37.6,19.6V0h-34.2v164.2h34.2v-15.7c8.1,9.7,19.3,18,37.6,18   c28.6,0,54.9-22.1,54.9-62.3v-0.4C758.8,63.4,732,41.4,703.9,41.4z M724.6,104.1c0,20.2-13.5,33.3-29.5,33.3   c-16,0-29.2-13.3-29.2-33.3v-0.4c0-20,13.3-33.3,29.2-33.3c16,0,29.5,13.3,29.5,33.3V104.1z"/>
	<rect x="778.8" y="0.4" class="st0" width="36" height="30.4"/>
	<rect x="779.9" y="43.7" class="st0" width="34.2" height="120.6"/>
	<path class="st0" d="M927.3,0v59.4c-8.1-9.7-19.3-18-37.6-18c-28.6,0-54.9,22-54.9,62.3v0.4c0,40.3,26.8,62.3,54.9,62.3   c17.8,0,29.2-8.3,37.6-19.6v17.3h34.2V0H927.3z M927.8,104.2c0,20-13.3,33.3-29.2,33.3c-16,0-29.5-13.3-29.5-33.3v-0.4   c0-20.2,13.5-33.3,29.5-33.3c16,0,29.2,13.3,29.2,33.3V104.2z"/>
	<path class="st1" d="M139.1,32.6H6.9c-3,0-5.4-2.4-5.4-5.4v0c0-3,2.4-5.4,5.4-5.4h132.3c3,0,5.4,2.4,5.4,5.4v0   C144.5,30.2,142.1,32.6,139.1,32.6z"/>
	<path class="st1" d="M190,61.1H31.8c-3,0-5.4-2.4-5.4-5.4v0c0-3,2.4-5.4,5.4-5.4H190c3,0,5.4,2.4,5.4,5.4v0   C195.4,58.7,192.9,61.1,190,61.1z"/>
	<path class="st1" d="M174.2,146.6H16c-3,0-5.4-2.4-5.4-5.4v0c0-3,2.4-5.4,5.4-5.4h158.2c3,0,5.4,2.4,5.4,5.4v0   C179.6,144.2,177.2,146.6,174.2,146.6z"/>
	<path class="st1" d="M120.3,89.6h-98c-3,0-5.4-2.4-5.4-5.4v0c0-3,2.4-5.4,5.4-5.4h98c3,0,5.4,2.4,5.4,5.4v0   C125.7,87.2,123.3,89.6,120.3,89.6z"/>
	<path class="st1" d="M162.7,118.1H50.2c-3,0-5.4-2.4-5.4-5.4v0c0-3,2.4-5.4,5.4-5.4h112.5c3,0,5.4,2.4,5.4,5.4v0   C168.1,115.7,165.7,118.1,162.7,118.1z"/>
</g>
</svg>