<svg width="44" height="48" viewBox="0 0 44 48" fill="none" xmlns="http://www.w3.org/2000/svg">
<path fill-rule="evenodd" clip-rule="evenodd" d="M30 11V18H22H14V11C14 6.58172 17.5817 3 22 3C26.4183 3 30 6.58172 30 11ZM11 18V11C11 4.92487 15.9249 0 22 0C28.0751 0 33 4.92487 33 11V18H36C40.4183 18 44 21.5817 44 26V40C44 44.4183 40.4183 48 36 48H8C3.58172 48 0 44.4183 0 40V26C0 21.5817 3.58172 18 8 18H11ZM33 21H30H22H14H11H8C5.23858 21 3 23.2386 3 26V40C3 42.7614 5.23858 45 8 45H36C38.7614 45 41 42.7614 41 40V26C41 23.2386 38.7614 21 36 21H33Z" fill="url(#paint0_linear)"/>
<defs>
<linearGradient id="paint0_linear" x1="22" y1="0" x2="22" y2="48" gradientUnits="userSpaceOnUse">
<stop stop-color="#F65128"/>
<stop offset="1" stop-color="#F65128" stop-opacity="0.08"/>
</linearGradient>
</defs>
</svg>

