<svg width="20" height="16" viewBox="0 0 20 16" fill="none" xmlns="http://www.w3.org/2000/svg">
<path d="M19.5999 2.5048C18.8938 2.79352 18.1353 2.9886 17.3379 3.07677C18.1514 2.62731 18.7754 1.9141 19.0697 1.06511C18.3087 1.4818 17.4656 1.78457 16.5685 1.94687C15.8497 1.24147 14.8265 0.799805 13.6934 0.799805C11.5186 0.799805 9.75468 2.42755 9.75468 4.43609C9.75468 4.72013 9.79019 4.99636 9.85615 5.26323C6.58118 5.11107 3.67995 3.66357 1.73678 1.46464C1.39855 2.00306 1.20406 2.62731 1.20406 3.29214C1.20406 4.55314 1.89998 5.66665 2.95613 6.31822C2.31009 6.29871 1.70296 6.13562 1.17193 5.86329V5.91011C1.17193 7.67129 2.5291 9.14063 4.3319 9.47461C4.00043 9.55732 3.65289 9.60102 3.29436 9.60102C3.04068 9.60102 2.79293 9.57917 2.55278 9.53703C3.05421 10.9806 4.50863 12.0325 6.23279 12.0606C4.88407 13.036 3.18528 13.6173 1.3402 13.6173C1.02226 13.6173 0.708543 13.6002 0.399902 13.5666C2.14351 14.599 4.21352 15.1998 6.43743 15.1998C13.6841 15.1998 17.6457 9.6611 17.6457 4.85746C17.6457 4.7014 17.6415 4.54377 17.6339 4.38771C18.4034 3.87426 19.0714 3.23518 19.5982 2.50714L19.5999 2.5048Z" fill="#1DA1F2"/>
</svg>
