<svg xmlns="http://www.w3.org/2000/svg" width="14" height="29">
  <path fill="#FFF" d="M1.52 13.5a1.02 1.02 0 0 1-1.021-1.02V1.521A1.023 1.023 0 0 1 1.52.5h10.958c.563 0 1.021.458 1.021 1.021v10.96c0 .562-.458 1.02-1.021 1.02H1.52z"/>
  <path fill="#B5BAC0" d="M12.479 1c.287 0 .521.233.521.521v10.96c0 .287-.234.52-.521.52H1.52A.52.52 0 0 1 1 12.48V1.521A.52.52 0 0 1 1.52 1zm0-1H1.52C.681 0 0 .682 0 1.521v10.96A1.52 1.52 0 0 0 1.52 14h10.958c.841 0 1.522-.681 1.522-1.52V1.521C14 .682 13.319 0 12.479 0"/>
  <path fill="#FFF" d="M1.52 28.5a1.02 1.02 0 0 1-1.021-1.02V16.52c0-.563.458-1.021 1.021-1.021h10.958c.563 0 1.021.458 1.021 1.021v10.96c0 .563-.458 1.02-1.021 1.02z"/>
  <path fill="#B5BAC0" d="M12.479 16c.287 0 .521.233.521.521v10.96c0 .287-.234.52-.521.52H1.52A.52.52 0 0 1 1 27.48V16.52a.52.52 0 0 1 .52-.52zm0-1H1.52C.681 15 0 15.682 0 16.521v10.96A1.52 1.52 0 0 0 1.52 29h10.958c.841 0 1.522-.681 1.522-1.52V16.52c0-.838-.681-1.52-1.521-1.52"/>
  <path d="m11.337 20.293-4.203 4.203-.79.791a.565.565 0 0 1-.791 0l-.79-.791-2.102-2.102a.566.566 0 0 1 .002-.789l.79-.791a.567.567 0 0 1 .79 0l1.707 1.715 3.809-3.816a.567.567 0 0 1 .79 0l.79.789a.57.57 0 0 1 .163.396.58.58 0 0 1-.165.395"/>
</svg>
