<?xml version="1.0" encoding="UTF-8" standalone="no"?>
<svg
   id="Layer_1"
   data-name="Layer 1"
   width="320"
   height="127.67673"
   viewBox="0 0 320 127.67673"
   version="1.1"
   sodipodi:docname="ibm (copy).svg"
   inkscape:version="1.1.1 (3bf5ae0, 2021-09-20)"
   xmlns:inkscape="http://www.inkscape.org/namespaces/inkscape"
   xmlns:sodipodi="http://sodipodi.sourceforge.net/DTD/sodipodi-0.dtd"
   xmlns="http://www.w3.org/2000/svg"
   xmlns:svg="http://www.w3.org/2000/svg">
  <sodipodi:namedview
     pagecolor="#ffffff"
     bordercolor="#386e82"
     borderopacity="1.0"
     inkscape:pageshadow="2"
     inkscape:pageopacity="0"
     inkscape:pagecheckerboard="false"
     showgrid="false"
     fit-margin-top="0"
     fit-margin-left="0"
     fit-margin-right="0"
     fit-margin-bottom="0"
     inkscape:zoom="1.4652778"
     inkscape:cx="159.35545"
     inkscape:cy="64.49289"
     inkscape:window-width="1848"
     inkscape:window-height="1016"
     inkscape:window-x="72"
     inkscape:window-y="27"
     inkscape:window-maximized="1"
     inkscape:current-layer="Layer_1" />
  <defs>
    <style>
      .cls-1 {
        fill: #fff;
      }
    </style>
  </defs>
  <rect
     class="cls-1"
     width="576"
     height="576"
     x="-128"
     y="-224.16167"
     style="fill:#074e68" />
  <g
     transform="translate(-128,-224.16167)"
     style="fill:#386e82">
    <rect
       x="128"
       y="342.94949"
       width="62.222198"
       height="8.8888998"
       style="fill:#386e82" />
    <rect
       x="128"
       y="325.97971"
       width="62.222198"
       height="8.8888998"
       style="fill:#386e82" />
    <rect
       x="145.77769"
       y="309.01001"
       width="26.6667"
       height="8.8889999"
       style="fill:#386e82" />
    <rect
       x="145.77769"
       y="292.04041"
       width="26.6667"
       height="8.8888998"
       style="fill:#386e82" />
    <rect
       x="145.77769"
       y="275.07059"
       width="26.6667"
       height="8.8888998"
       style="fill:#386e82" />
    <rect
       x="145.77769"
       y="258.10101"
       width="26.6667"
       height="8.8888998"
       style="fill:#386e82" />
    <rect
       x="128"
       y="241.1313"
       width="62.222198"
       height="8.8888998"
       style="fill:#386e82" />
    <rect
       x="128"
       y="224.1617"
       width="62.222198"
       height="8.8888998"
       style="fill:#386e82" />
    <path
       d="m 199.1112,334.8686 h 94.842 a 33.7121,33.7121 0 0 0 3.576,-8.8889 h -98.418 z"
       style="fill:#386e82" />
    <path
       d="m 286.5286,292.04 h -69.64 v 8.8888 h 77.0547 a 34.0754,34.0754 0 0 0 -7.4147,-8.8888 z"
       style="fill:#386e82" />
    <path
       d="m 216.8889,275.0706 v 8.8894 h 69.64 a 34.0774,34.0774 0 0 0 7.415,-8.8889 z"
       style="fill:#386e82" />
    <path
       d="m 293.9532,241.1313 h -94.842 v 8.8887 h 98.418 a 33.7148,33.7148 0 0 0 -3.576,-8.8887 z"
       style="fill:#386e82" />
    <path
       d="m 264.5656,224.1617 h -65.4544 v 8.8888 h 88.35 a 33.8138,33.8138 0 0 0 -22.8956,-8.8888 z"
       style="fill:#386e82" />
    <rect
       x="216.8889"
       y="258.10101"
       width="26.6667"
       height="8.8888998"
       style="fill:#386e82" />
    <path
       d="m 268.6061,266.99 h 28.71 a 33.9492,33.9492 0 0 0 1.189,-8.8889 h -29.899 z"
       style="fill:#386e82" />
    <rect
       x="216.8889"
       y="309.01001"
       width="26.6667"
       height="8.8889999"
       style="fill:#386e82" />
    <path
       d="m 268.6061,309.01 v 8.889 h 29.899 a 33.9488,33.9488 0 0 0 -1.189,-8.889 z"
       style="fill:#386e82" />
    <path
       d="m 199.1112,351.75 65.4544,0.0879 a 33.6926,33.6926 0 0 0 22.8959,-8.8888 h -88.35 z"
       style="fill:#386e82" />
    <polygon
       points="373.799,342.949 376.875,351.838 379.979,342.949 "
       style="fill:#386e82" />
    <polygon
       points="385.936,325.98 367.842,325.98 370.962,334.869 382.816,334.869 "
       style="fill:#386e82" />
    <polygon
       points="391.894,309.01 361.884,309.01 365.005,317.899 388.773,317.899 "
       style="fill:#386e82" />
    <polygon
       points="397.851,292.04 355.927,292.04 359.047,300.929 394.731,300.929 "
       style="fill:#386e82" />
    <polygon
       points="368.489,258.101 323.556,258.101 323.556,266.99 371.58,266.99 "
       style="fill:#386e82" />
    <polygon
       points="448,241.131 391.19,241.131 388.099,250.02 448,250.02 "
       style="fill:#386e82" />
    <polygon
       points="448,233.051 448,224.162 397.091,224.162 394,233.051 "
       style="fill:#386e82" />
    <rect
       x="305.77789"
       y="342.94949"
       width="44.4445"
       height="8.8888998"
       style="fill:#386e82" />
    <rect
       x="305.77789"
       y="325.97971"
       width="44.4445"
       height="8.8888998"
       style="fill:#386e82" />
    <rect
       x="323.5556"
       y="309.01001"
       width="26.6667"
       height="8.8889999"
       style="fill:#386e82" />
    <rect
       x="323.5556"
       y="292.04041"
       width="26.6667"
       height="8.8888998"
       style="fill:#386e82" />
    <polygon
       points="382.198,266.99 430.222,266.99 430.222,258.101 385.289,258.101 "
       style="fill:#386e82" />
    <polygon
       points="430.222,275.071 403.556,275.071 403.556,275.071 379.387,275.071 376.889,282.256 374.39,275.071 350.222,275.071 323.556,275.071 323.556,283.96 350.222,283.96 350.222,275.791 353.09,283.96 400.688,283.96 403.556,275.792 403.556,283.96 430.222,283.96 "
       style="fill:#386e82" />
    <rect
       x="403.55551"
       y="292.04041"
       width="26.6667"
       height="8.8888998"
       style="fill:#386e82" />
    <rect
       x="403.55551"
       y="309.01001"
       width="26.6667"
       height="8.8889999"
       style="fill:#386e82" />
    <rect
       x="403.55551"
       y="325.97971"
       width="44.4445"
       height="8.8888998"
       style="fill:#386e82" />
    <rect
       x="403.55551"
       y="342.94949"
       width="44.4445"
       height="8.8888998"
       style="fill:#386e82" />
    <polygon
       points="305.778,241.131 305.778,250.02 365.679,250.02 362.588,241.131 "
       style="fill:#386e82" />
    <polygon
       points="305.778,224.162 305.778,233.051 359.778,233.051 356.687,224.162 "
       style="fill:#386e82" />
  </g>
</svg>
