<svg xmlns="http://www.w3.org/2000/svg" width="320" height="127.677" data-name="Layer 1">
  <path d="M-128-224.162h576v576h-576z" style="fill:#074e68"/>
  <path d="M128 342.949h62.222v8.889H128zm0-16.969h62.222v8.889H128zm17.778-16.97h26.667v8.889h-26.667zm0-16.97h26.667v8.889h-26.667zm0-16.969h26.667v8.889h-26.667zm0-16.97h26.667v8.889h-26.667zM128 241.131h62.222v8.889H128zm0-16.969h62.222v8.889H128zm71.111 110.707h94.842a33.7 33.7 0 0 0 3.576-8.89h-98.418zm87.418-42.829h-69.64v8.889h77.054a34.1 34.1 0 0 0-7.414-8.889m-69.64-16.97v8.89h69.64a34.1 34.1 0 0 0 7.415-8.889zm77.064-33.939h-94.842v8.889h98.418a33.7 33.7 0 0 0-3.576-8.889m-29.387-16.969H199.11v8.888h88.35a33.8 33.8 0 0 0-22.895-8.888m-47.676 33.939h26.667v8.889h-26.667zm51.717 8.889h28.71a34 34 0 0 0 1.19-8.889h-29.9zm-51.717 42.02h26.667v8.889h-26.667zm51.717 0v8.889h29.9a34 34 0 0 0-1.19-8.889zm-69.495 42.74 65.455.088a33.7 33.7 0 0 0 22.896-8.889h-88.35zm174.688-8.801 3.076 8.889 3.104-8.889zm12.137-16.969h-18.094l3.12 8.889h11.854zm5.958-16.97h-30.01l3.121 8.889h23.768zm5.957-16.97h-41.924l3.12 8.889h35.684zm-29.362-33.939h-44.933v8.889h48.024zM448 241.131h-56.81l-3.091 8.889H448zm0-8.08v-8.889h-50.909L394 233.051zM305.778 342.949h44.444v8.889h-44.444zm0-16.969h44.444v8.889h-44.444zm17.778-16.97h26.667v8.889h-26.667zm0-16.97h26.667v8.889h-26.667zm58.642-25.05h48.024v-8.889h-44.933zm48.024 8.081h-50.835l-2.498 7.185-2.499-7.185h-50.834v8.889h26.666v-8.169l2.868 8.169h47.598l2.868-8.168v8.168h26.666zm-26.666 16.969h26.667v8.889h-26.667zm0 16.97h26.667v8.889h-26.667zm0 16.97H448v8.889h-44.444zm0 16.969H448v8.889h-44.444zm-97.778-101.818v8.889h59.901l-3.091-8.889zm0-16.969v8.889h54l-3.091-8.889z" style="fill:#386e82" transform="translate(-128 -224.162)"/>
</svg>
