<svg xmlns="http://www.w3.org/2000/svg" id="Layer_1" viewBox="0 0 182 26">
  <style>
    .st1{fill:#b44639}.st3{fill:#f3c136}.st4{fill:#d89712}
  </style>
  <path fill="#fff" d="M105.5 15c0 3.1-1.1 4.7-3.3 4.7-.3 0-.7 0-1-.1v-.9c.4.1.7.2 1 .2.8 0 1.5-.3 1.8-.9.4-.6.6-1.6.6-2.9V6.5h.9zm2.8 4v-1c.9.6 1.9.9 2.9.9s1.8-.2 2.4-.6c.5-.4.8-1 .8-1.8 0-.7-.2-1.2-.5-1.6-.4-.4-1.1-.9-2.3-1.6-1.3-.8-2.2-1.4-2.5-1.9-.4-.5-.5-1.1-.5-1.8 0-.9.4-1.7 1.1-2.3s1.7-1 2.9-1c.8 0 1.6.1 2.4.4v.9c-.8-.3-1.6-.5-2.5-.5s-1.6.2-2.1.7c-.5.4-.8 1-.8 1.7s.2 1.2.5 1.6c.4.4 1.1.9 2.3 1.6s2.1 1.3 2.5 1.8q.6.75.6 1.8c0 1-.4 1.8-1.1 2.4q-1.05.9-3 .9c-.5 0-1-.1-1.6-.2-.7 0-1.2-.2-1.5-.4m9.6.5v-13h4.7c4.7 0 7.1 2.1 7.1 6.3 0 2-.6 3.6-1.9 4.8q-1.95 1.8-5.1 1.8h-4.8zm3-10.6v8.2h1.5c1.3 0 2.3-.4 3-1.1.7-.8 1.1-1.8 1.1-3.1 0-1.2-.4-2.2-1.1-2.9s-1.8-1.1-3.1-1.1zM140 19.5h-7.9v-13h7.6v2.4H135v2.9h4.3v2.4H135v3h5zm10.4 0h-7.9v-13h3v10.6h4.9zm4.9-13v12.9h-3V6.5zm14.2 0-4.5 13h-3.4l-4.5-12.9h3.2l2.8 9c.1.5.2.9.3 1.3h.1c0-.4.1-.8.3-1.3l2.7-9h3zm12.9 13H179l-2.1-3.3c-.2-.3-.3-.5-.4-.7s-.3-.4-.4-.5-.3-.2-.5-.3-.3-.1-.5-.1h-.8v5h-3V6.5h4.7c3.2 0 4.8 1.2 4.8 3.5 0 .5-.1.9-.2 1.3s-.3.7-.6 1-.6.6-.9.8c-.4.2-.8.4-1.2.5l.6.3c.2.1.4.3.5.5.2.2.3.4.5.6s.3.4.4.6zm-8.1-10.8v3.6h1.3c.6 0 1.2-.2 1.5-.5.4-.4.6-.8.6-1.4 0-1.1-.7-1.7-2.1-1.7z"/>
  <path d="m83.9 25.4-.9.6-1-.6V.4l1-.4.9.4z" class="st1"/>
  <path d="m83 0 12.6 4.3-2 16L83 26z" class="st1"/>
  <path fill="#db4c3c" d="M83 0 70.4 4.3l2 16L83 26z"/>
  <path d="M80.8 19.3c-1.2-.4-2.3-1-3.1-1.9l-.3-.3c-.7-.8-1.2-1.7-1.5-2.6.2.2.4.3.6.5.3.2.7.4 1 .6.1.1.2.1.3.1.1.1.3.1.4.2h.1c.1.6.5 1.1 1.1 1.2.3.8.7 1.6 1.4 2.2M81.2 9c0 .3.1.5.2.7-1 1.4-1.7 2.8-2 4.3 0 .2-.1.3-.1.5-.3.1-.6.3-.8.6-.1 0-.2-.1-.3-.1-.2-.1-.3-.1-.5-.2-.5-.3-1-.6-1.4-1-.1-.1-.2-.2-.2-.3l-.1-.1v-.1c0-.1-.1-.1-.1-.2v-.5c0-1.5.4-2.8 1.2-4-.3-.4-.2-.5-.1-.6s.2-.2.3-.4c.9-1 2.1-1.8 3.4-2.2 0 .1 0 .3.1.4.2.8.4 1.5.8 2.3-.2.2-.4.5-.4.9m-.8 6.7c0 .2-.1.3-.2.5 0 0 0 .1-.1.1-.1.1-.3.2-.5.2-.1 0-.3 0-.4-.1l-.3-.3c0-.1-.1-.2-.1-.3 0-.2.1-.4.2-.5l.1-.1c.1-.1.3-.1.4-.1.2 0 .3.1.4.1s.1.1.2.2c.3.1.3.2.3.3M83.3 9c0 .1 0 .2-.1.3-.1.2-.4.4-.6.4h-.1q-.45-.15-.6-.6v-.3c.1-.3.4-.5.7-.5s.6.2.7.5z" class="st3"/>
  <path d="M90.5 12.3c0 .7-.1 1.4-.3 2-.6-.2-1.3-.4-1.9-.7v-.3c0-.2 0-.3-.1-.5 0 0 .1 0 .1-.1.8-.8 1.4-1.6 1.9-2.5q.3 1.2.3 2.1m-.7-3c-.1.1-.1.2-.2.3-.5 1-1.2 1.9-2 2.7-.2-.1-.4-.2-.7-.2s-.6.1-.8.3c-.4-.3-.8-.7-1.2-1-.5-.5-.9-1-1.3-1.5.2-.3.4-.6.4-.9 0-.2-.1-.5-.2-.7 1-.9 2-1.6 3.1-2.2 1.2.8 2.3 1.9 2.9 3.2m-2.1 4.1c0 .3-.2.5-.4.7-.1 0-.2.1-.3.1h-.1q-.45-.15-.6-.6c0-.3.2-.6.5-.7h.4c.2-.1.4.2.5.5m.1 1c-.2.2-.6.3-.9.3s-.5-.1-.8-.2c0 0-.1 0-.1.1-1 .6-2 1.1-3.1 1.3v3.8c3.1 0 5.8-1.8 6.9-4.5-.6-.2-1.3-.5-2-.8" class="st4"/>
  <path d="M83 15.9c-.6.2-1.3.3-1.9.3H81c-.1.3-.4.6-.7.7.2.7.5 1.3 1.1 1.8q.6.6 1.5.9h.1z" class="st3"/>
  <path d="M85.6 13.4c0-.1 0-.3.1-.4-.4-.3-.9-.7-1.3-1.1-.5-.5-.9-1-1.3-1.5V15c.9-.3 1.8-.6 2.6-1.2-.1-.1-.1-.2-.1-.4" class="st4"/>
  <path d="m83 10.4-.1-.1h-.3c-.2 0-.4 0-.5-.1q-1.35 1.95-1.8 3.9c0 .1 0 .3-.1.4.4.1.7.5.8.8.6 0 1.3-.1 1.9-.3v-4.6z" class="st3"/>
  <path d="M83 5.1v2.6h.1C84 6.9 85 6.2 86 5.6c-.9-.3-1.9-.5-3-.5" class="st4"/>
  <path d="M83 5.1c-.5 0-1 0-1.4.1 0 .2 0 .3.1.5.1.7.4 1.3.7 2h.3c.1 0 .3 0 .4.1V5.1z" class="st3"/>
  <path fill="#757c82" d="M0 17.2v-8h3.2c.8 0 1.4.2 1.8.7s.7 1 .7 1.7-.2 1.3-.7 1.8-1 .7-1.8.7H1v3.2H0zm1-4h2.1c.5 0 .9-.1 1.2-.4s.4-.7.4-1.1-.1-.8-.4-1.1-.7-.4-1.2-.4H1zm6.3 3.3c-.5-.6-.8-1.3-.8-2.2s.3-1.6.8-2.2q.75-.9 2.1-.9c1.35 0 1.6.3 2.1.9s.8 1.3.8 2.2-.3 1.6-.8 2.2q-.75.9-2.1.9c-1.35 0-1.6-.3-2.1-.9m.7-3.7c-.3.4-.5 1-.5 1.6s.2 1.2.5 1.6.8.7 1.4.7 1.1-.2 1.4-.7c.3-.4.5-1 .5-1.6s-.2-1.2-.5-1.6-.8-.7-1.4-.7-1.1.2-1.4.7m5-1.4h.9l1.4 4.6 1.5-4.6h.8l1.5 4.6 1.4-4.6h.9l-1.9 5.8h-.9l-1.5-4.7-1.5 4.7h-.9zm9.2 2.9c0-.9.3-1.6.8-2.2s1.2-.9 2-.9c.9 0 1.5.3 2 .9s.8 1.3.8 2.2v.2h-4.7c0 .5.2 1 .6 1.4q.6.6 1.5.6c.7 0 1.3-.2 1.8-.7l.4.6c-.6.6-1.4 1-2.3 1s-1.6-.3-2.1-.8c-.5-.6-.8-1.4-.8-2.3m.9-.3h3.8c0-.5-.2-.9-.5-1.3s-.8-.6-1.4-.6-1 .2-1.4.6-.5.8-.5 1.3m6.2 3.2v-5.8h.9v.9c.6-.7 1.2-1 1.9-1v.9h-.3q-.45 0-.9.3c-.3.2-.5.4-.7.6v4.1zm3.6-2.9c0-.9.3-1.6.8-2.2s1.2-.9 2-.9c.9 0 1.5.3 2 .9s.8 1.3.8 2.2v.2h-4.7c0 .5.2 1 .6 1.4q.6.6 1.5.6c.7 0 1.3-.2 1.8-.7l.4.6c-.6.6-1.4 1-2.3 1s-1.6-.3-2.1-.8c-.5-.6-.8-1.4-.8-2.3m.9-.3h3.8c0-.5-.2-.9-.5-1.3s-.8-.6-1.4-.6-1 .2-1.4.6-.5.8-.5 1.3m5.8.3c0-.9.2-1.7.7-2.2s1.1-.8 1.9-.8 1.4.3 1.9 1V9.2h.9v8h-.9v-.9c-.5.7-1.1 1-1.9 1s-1.4-.3-1.9-.8c-.4-.5-.7-1.2-.7-2.2m1.5-1.6c-.3.4-.5 1-.5 1.6s.2 1.2.5 1.6.8.6 1.4.6c.3 0 .7-.1 1-.3s.6-.4.7-.7V13c-.2-.3-.4-.5-.7-.7s-.7-.3-1-.3c-.6.1-1.1.3-1.4.7m8.9 4.5v-8h.9v3.1c.5-.7 1.2-1 2-1s1.4.3 1.9.8.7 1.3.7 2.2-.2 1.7-.7 2.2-1.1.8-1.9.8-1.5-.3-2-1v.9zm.9-1.5c.2.3.4.5.7.6.3.2.7.3 1 .3.6 0 1-.2 1.4-.6.3-.4.5-1 .5-1.6s-.2-1.2-.5-1.6-.8-.6-1.4-.6c-.4 0-.7.1-1 .3s-.6.4-.7.7zm5.1-4.3h1l1.9 4.8 1.9-4.8h1l-2.9 7c-.3.8-.9 1.2-1.7 1.2-.3 0-.5 0-.7-.1l.1-.8c.1.1.3.1.5.1s.4 0 .5-.1.3-.2.3-.5l.4-.9z"/>
</svg>
