<svg xmlns="http://www.w3.org/2000/svg" width="40" height="40" fill="none">
  <g clip-path="url(#a)">
    <path fill="#fff" d="M.167 0H0v.167h.167V0Z"/>
    <path fill="#000" d="M0 0v40h40V0H0Zm14.372 22.56v-7.13c0-2.683 3.468-3.972 5.303-.853.133.225 3.023 5.203 3.023 5.203v-4.35c0-2.683 3.467-3.972 5.302-.853.133.225 3.023 5.203 3.023 5.203v-6.97h1.73v11.702a.351.351 0 0 1-.251.356c-.184.05-.377-.063-.519-.303-.028-.047-1.5-2.577-2.913-5.022l-2.593-4.465c-.364-.616-.905-.725-1.29-.62a1.039 1.039 0 0 0-.759 1.022v9.032a.353.353 0 0 1-.251.356c-.185.05-.379-.063-.519-.303-.025-.042-1.39-2.393-2.708-4.667l-2.8-4.825c-.363-.618-.907-.725-1.295-.62a1.04 1.04 0 0 0-.76 1.022v8.842a.483.483 0 0 1-.453.451h-4.489a4.774 4.774 0 0 1 0-9.546h2.334v1.726h-2.314a3.047 3.047 0 0 0 0 6.094h2.722a.475.475 0 0 0 .477-.482Zm20.795 2.008c0 2.684-3.469 3.972-5.304.855l-3.023-5.205v4.35c0 2.684-3.467 3.972-5.302.855a6006.26 6006.26 0 0 1-3.023-5.205v4.102c0 1.862-1.105 2.87-2.833 2.87h-4.525a7.19 7.19 0 1 1 0-14.38h2.333v1.727h-2.333a5.464 5.464 0 1 0 0 10.926h4.485a1.167 1.167 0 0 0 1.143-1.141V15.48a.35.35 0 0 1 .252-.355c.183-.05.376.063.518.303l2.798 4.822c1.627 2.805 2.695 4.647 2.709 4.667.365.616.908.725 1.296.618a1.037 1.037 0 0 0 .757-1.023v-9.03a.351.351 0 0 1 .248-.357c.182-.05.374.063.514.303l2.593 4.469 2.915 5.025c.285.483.682.655 1.027.655a1.038 1.038 0 0 0 1.037-1.065V12.81h1.723l-.005 11.758Z"/>
  </g>
  <defs>
    <clipPath id="a">
      <path fill="#fff" d="M0 0h40v40H0z"/>
    </clipPath>
  </defs>
</svg>
