<svg xmlns="http://www.w3.org/2000/svg" width="140" height="24" fill="none">
  <path fill="#000" fill-rule="evenodd" d="M20.575 14.341c-.42.265-.912.298-1.287.087-.477-.27-.738-.898-.738-1.774v-2.618c0-1.264-.5-2.164-1.337-2.407-1.418-.413-2.484 1.32-2.884 1.972l-2.5 4.05v-4.95c-.029-1.14-.399-1.821-1.102-2.027-.465-.135-1.16-.081-1.837.953l-5.6 8.987A9.868 9.868 0 0 1 2.15 12c0-5.414 4.342-9.818 9.678-9.818 5.337 0 9.678 4.404 9.678 9.818 0 .01.003.018.003.026 0 .01-.002.018-.001.027.05 1.049-.29 1.883-.933 2.289Zm3.082-2.34v-.028l-.001-.027C23.626 5.353 18.332 0 11.828 0 5.307 0 0 5.383 0 12c0 6.616 5.307 12 11.829 12a11.7 11.7 0 0 0 8.041-3.2 1.1 1.1 0 0 0-.281-1.79 1.067 1.067 0 0 0-1.181.19 9.57 9.57 0 0 1-6.58 2.618c-2.857 0-5.428-1.264-7.201-3.268l5.051-8.105v3.737c0 1.794.697 2.374 1.28 2.544.585.17 1.479.054 2.416-1.468l2.779-4.5c.089-.146.17-.271.246-.38v2.276c0 1.678.672 3.02 1.844 3.68 1.057.596 2.386.543 3.468-.14 1.312-.828 2.02-2.354 1.946-4.193Zm16.467-4.1c.284.172.53.556.53.902a1.03 1.03 0 0 1-1.003 1.018c-.132 0-.265-.038-.378-.077-.625-.46-1.42-.768-2.253-.768-1.969 0-3.332 1.613-3.332 3.61 0 1.997 1.363 3.59 3.332 3.59.984 0 1.855-.403 2.517-1.017.172-.123.377-.19.587-.192.53 0 .947.422.947.96 0 .345-.209.652-.473.825-.947.807-2.234 1.344-3.559 1.344-3.028 0-5.49-2.496-5.49-5.568 0-3.072 2.461-5.568 5.49-5.568 1.136 0 2.214.345 3.085.94Zm5.538 2.323c2.063 0 3.805 1.747 3.805 3.897 0 2.151-1.742 3.975-3.805 3.975-2.158 0-3.956-1.824-3.956-3.975 0-2.15 1.798-3.897 3.956-3.897Zm-.02 5.952c.91 0 1.686-.864 1.686-2.035 0-1.171-.776-1.901-1.685-1.901-.984 0-1.798.71-1.798 1.9 0 1.172.814 2.036 1.798 2.036Zm5.122.73v-5.491c0-.596.474-1.095 1.06-1.095.587 0 1.08.5 1.08 1.095v5.49A1.1 1.1 0 0 1 51.824 18c-.586 0-1.06-.5-1.06-1.095Zm-.17-8.66c0-.71.549-1.286 1.23-1.286.7 0 1.269.576 1.269 1.287 0 .69-.568 1.248-1.268 1.248-.682 0-1.23-.558-1.23-1.248Zm6.409 5.683v2.976c0 .596-.492 1.095-1.08 1.095-.586 0-1.06-.5-1.06-1.095v-5.74c0-.461.379-.845.834-.845.453 0 .814.384.814.845.87-.806 1.627-.941 2.346-.941 2.14 0 3.086 1.613 3.086 3.437v3.244c0 .596-.492 1.095-1.079 1.095s-1.06-.5-1.06-1.095V13.93c0-.94-.114-1.728-1.457-1.728-.947 0-1.345.788-1.345 1.728ZM68.9 15.063c-.246 0-.415-.116-.548-.27l-2.5-2.706v4.818c0 .596-.491 1.095-1.078 1.095-.587 0-1.06-.5-1.06-1.095V7.364a.418.418 0 0 1 .398-.27c.188 0 .34.155.454.27l3.975 4.473c.114.135.265.212.34.212.076 0 .228-.077.341-.211l3.976-4.474c.113-.115.265-.27.454-.27s.34.116.397.27v9.541c0 .596-.473 1.095-1.06 1.095-.587 0-1.079-.5-1.079-1.095v-4.818l-2.498 2.706c-.133.154-.303.27-.512.27Zm10.29 1.113c.965 0 1.779-.864 1.779-2.035 0-1.171-.833-1.94-1.78-1.94-.946 0-1.703.788-1.703 1.94 0 1.132.757 2.035 1.704 2.035Zm2.271.98-.038-.25c-.416.825-1.742 1.19-2.594 1.19-2.006 0-3.483-1.824-3.483-3.975 0-2.15 1.515-3.897 3.597-3.897.36 0 1.552.096 2.48 1.19l.038-.25c0-.46.36-.844.814-.844.454 0 .832.384.832.845v5.99a.846.846 0 0 1-.833.845c-.454 0-.814-.384-.814-.845h.001Zm7.582-4.955h-.227c-1.344.078-1.609.846-1.609 1.728v2.976c0 .596-.492 1.095-1.079 1.095s-1.06-.5-1.06-1.095v-5.74c0-.461.378-.845.833-.845.454 0 .814.384.814.845.795-.749 1.439-.902 2.101-.941h.208c.512 0 .984.441.984.999 0 .518-.454.978-.965.978Zm8.245 4.206a.972.972 0 0 1 .151.518c0 .556-.511 1.075-1.06 1.075-.378 0-.7-.288-.946-.595l-2.46-2.861v2.361A1.1 1.1 0 0 1 91.892 18c-.587 0-1.06-.5-1.06-1.095V8.19c0-.596.473-1.094 1.06-1.094.587 0 1.079.498 1.079 1.094v5.434l2.46-2.727c.247-.288.55-.576.928-.576.53 0 1.023.5 1.023 1.056a.94.94 0 0 1-.133.5l-1.95 2.13 1.988 2.4Zm4.194-4.167c-.587 0-1.534.307-1.534 1.21h3.086c0-.922-.985-1.21-1.553-1.21h.001Zm2.801 2.573h-4.335c0 1.286 1.23 1.478 1.779 1.478.399 0 .966-.076 1.401-.269.133-.095.36-.173.549-.173.474 0 .871.404.871.884 0 .326-.208.614-.473.768-.662.48-1.515.595-2.328.595-2.158 0-3.957-1.17-3.957-3.879 0-2.13 1.098-3.993 3.654-3.993 2.063 0 3.634 1.344 3.672 3.744 0 .46-.378.845-.833.845Zm5.954 3.283h-.587c-1.628 0-2.574-.71-2.574-3.264v-2.63h-.549c-.511 0-.965-.461-.965-.98 0-.557.454-.998.965-.998h.549V8.189c0-.596.473-1.095 1.06-1.095.587 0 1.079.5 1.079 1.095v2.035h.889c.512 0 .966.441.966.999 0 .518-.454.978-.966.978h-.889v2.208c0 1.46.076 1.767.72 1.767h.302c.511 0 .946.423.946.96 0 .519-.435.96-.946.96Zm10.365-10.195c.284.172.53.556.53.902 0 .557-.473 1.018-1.003 1.018-.133 0-.266-.038-.379-.077-.625-.46-1.42-.768-2.253-.768-1.968 0-3.331 1.613-3.331 3.61 0 1.997 1.363 3.59 3.331 3.59.985 0 1.856-.403 2.518-1.017.171-.123.376-.19.587-.192.53 0 .946.422.946.96 0 .345-.208.652-.473.825-.946.807-2.234 1.344-3.559 1.344-3.028 0-5.489-2.496-5.489-5.568 0-3.072 2.46-5.568 5.489-5.568 1.137 0 2.215.345 3.086.94Zm5.424 8.275c.966 0 1.779-.864 1.779-2.035 0-1.171-.833-1.94-1.779-1.94s-1.704.788-1.704 1.94c0 1.132.758 2.035 1.704 2.035Zm2.271.98-.037-.25c-.417.825-1.742 1.19-2.594 1.19-2.006 0-3.483-1.824-3.483-3.975 0-2.15 1.515-3.897 3.597-3.897a3.32 3.32 0 0 1 2.48 1.19l.037-.25c0-.46.36-.844.815-.844.454 0 .833.384.833.845v5.99a.847.847 0 0 1-.833.845c-.455 0-.815-.384-.815-.845Zm7.526-.98c.946 0 1.703-.903 1.703-2.035 0-1.152-.757-1.94-1.703-1.94-.947 0-1.78.768-1.78 1.94 0 1.171.814 2.035 1.78 2.035Zm-1.78 1.287v2.726c0 .595-.492 1.094-1.079 1.094-.586 0-1.06-.499-1.06-1.094v-9.024c0-.461.379-.845.834-.845.454 0 .814.384.814.921.794-.825 1.779-1.017 2.517-1.017 2.082 0 3.597 1.747 3.597 3.897 0 2.151-1.477 3.975-3.483 3.975-.625 0-1.553-.192-2.14-.633Z" clip-rule="evenodd"/>
</svg>
