<svg xmlns="http://www.w3.org/2000/svg" width="137" height="18" fill="none">
  <path fill="#000" d="M4.94 15V3h3.855v12H4.94Zm7.35 1.08V1.92C12.29.84 11.325 0 10.361 0H0v3h1.446v12H0v3h10.482c.964 0 1.807-.84 1.807-1.92Zm10.843-4.44V15h-4.096v-4.92h5.422v-3h-5.422V3h4.096v2.52h3.375V0H14.216v3h1.325v12h-1.325v3h12.29v-6.36h-3.374Zm10.121-4.56V3h3.977v4.08h-3.977Zm7.59 7.92v-4.32a1.9 1.9 0 0 0-1.927-1.92 1.9 1.9 0 0 0 1.928-1.92v-4.8c0-.96-.843-1.92-1.807-1.92H28.314v3h1.566v12h-1.566V18H34.7v-3h-1.325v-4.92h3.976V15h-1.446v3h6.265v-3h-1.325Zm25.664-7.92V3h4.097v4.08h-4.097ZM74.1 8.16V1.92C74.1.84 73.257 0 72.173 0H61.569v3h1.445v12H61.57v3h6.265v-3h-1.326v-4.92h5.664c1.084 0 1.927-.84 1.927-1.92ZM80.244 15V3h1.446V0h-6.266v3h1.446v12h-1.446v3h6.266v-3h-1.446Zm11.928-3.36V15h-4.097v-4.92h5.422v-3h-5.422V3h4.097v2.52h3.494V0h-12.41v3h1.326v12h-1.326v3h12.41v-6.36h-3.494Zm9.88-4.56v3h2.771V15h-4.097V3h4.097v2.52h3.614v-3.6c0-1.08-.843-1.92-1.927-1.92h-7.229c-.482 0-.964.24-1.205.48-.361.36-.723.84-.723 1.44v14.16c0 .6.241 1.08.723 1.44.361.36.844.48 1.325.48h9.036V7.08h-6.385Zm16.988 4.56V15h-4.096v-4.92h5.422v-3h-5.422V3h4.096v2.52h3.494V0h-12.409v3h1.325v12h-1.325v3h12.409v-6.36h-3.494Zm14.097 0V15h-3.975V3h1.445V0h-6.386v3h1.446v12h-1.446v3h12.411v-6.36h-3.495Zm-73.135 4.548v-9.06h-7.47V3.02h3.977v2.537h3.614V1.933C60.123.773 59.038 0 57.955 0h-7.108a1.905 1.905 0 0 0-1.929 1.933v8.214h7.47v4.954h-3.976v-3.383h-3.494v4.349c0 1.088.843 1.933 1.928 1.933h7.108c1.11 0 2.049-.725 2.049-1.812Z"/>
</svg>
