<svg width="137" height="18" viewBox="0 0 137 18" fill="none" xmlns="http://www.w3.org/2000/svg">
<path d="M4.93983 15.0003V2.99974H8.7954V15.0003H4.93983ZM12.2893 16.0803V1.91974C12.2893 0.839739 11.3264 0 10.3619 0H0V2.99974H1.44594V15.0003H0V18H10.4825C11.4462 18 12.2893 17.1603 12.2893 16.0803ZM23.1334 11.6397V15.0003H19.0367V10.08H24.4588V7.08026H19.0367V2.99974H23.1334V5.51974H26.5075V0H14.2167V2.99974H15.5421V15.0003H14.2167V18H26.5075V11.6397H23.1334ZM33.2542 7.08026V2.99974H37.2311V7.08026H33.2542ZM40.8448 15.0003V10.6803C40.8448 9.60026 40.0017 8.75974 38.9174 8.75974C40.0017 8.75974 40.8448 7.92 40.8448 6.84V2.04026C40.8448 1.08 40.0017 0.119739 39.038 0.119739H28.3144V3.12026H29.8801V15.12H28.3144V18H34.7001V15.0003H33.3748V10.08H37.3509V15.0003H35.905V18H42.1702V15.0003H40.8448ZM66.5084 7.08026V2.99974H70.6051V7.08026H66.5084ZM74.099 8.16026V1.91974C74.099 0.839739 73.2559 0 72.1716 0H61.5686V2.99974H63.0145V15.0003H61.5686V18H67.8338V15.0003H66.5084V10.08H72.1716C73.2559 10.08 74.099 9.24026 74.099 8.16026ZM80.2436 15.0003V2.99974H81.6896V0H75.4244V2.99974H76.8703V15.0003H75.4244V18H81.6896V15.0003H80.2436ZM92.172 11.6397V15.0003H88.0753V10.08H93.4974V7.08026H88.0753V2.99974H92.172V5.51974H95.6659V0H83.2561V2.99974H84.5815V15.0003H83.2561V18H95.6659V11.6397H92.172ZM102.052 7.08026V10.08H104.823V15.0003H100.726V2.99974H104.823V5.51974H108.437V1.91974C108.437 0.839739 107.594 0 106.51 0H99.2812C98.7989 0 98.3167 0.240261 98.0756 0.479739C97.7147 0.839739 97.353 1.32026 97.353 1.91974V16.0803C97.353 16.6797 97.5941 17.1603 98.0756 17.5203C98.4372 17.8803 98.9195 18 99.4009 18H108.437V7.08026H102.052ZM119.04 11.6397V15.0003H114.944V10.08H120.366V7.08026H114.944V2.99974H119.04V5.51974H122.534V0H110.125V2.99974H111.45V15.0003H110.125V18H122.534V11.6397H119.04ZM133.137 11.6397V15.0003H129.162V2.99974H130.607V0H124.221V2.99974H125.667V15.0003H124.221V18H136.632V11.6397H133.137ZM60.0021 16.1883V7.12722H52.5321V3.02087H56.509V5.55809H60.1226V1.93304C60.1234 0.773217 59.0384 0 57.9549 0H50.8466C49.7615 0 48.9184 0.845217 48.9184 1.93304V10.1473H56.3884V15.1012H52.4123V11.718H48.9184V16.067C48.9184 17.1548 49.7615 18 50.8458 18H57.9541C59.0634 18 60.0029 17.2753 60.0029 16.1883H60.0021Z" fill="black"/>
</svg>
