<svg width="101" height="29" viewBox="0 0 101 29" fill="none" xmlns="http://www.w3.org/2000/svg">
<path d="M48.1932 5.04007V15.5358C48.1932 21.031 45.5233 23.4142 41.3355 23.4142C38.8233 23.4142 36.6243 22.0541 35.551 19.8287L38.0632 18.6766C38.6655 19.8813 39.9993 20.6653 41.3355 20.6653C43.6899 20.6653 45.1575 19.3053 45.1575 15.8226V15.6386C44.2947 16.8959 42.5928 17.5221 41.1012 17.5221C37.8815 17.5221 35.0825 15.0362 35.0825 11.1353C35.0825 7.21044 37.8576 4.77475 41.0749 4.77475C42.6454 4.77475 44.2947 5.3771 45.1575 6.632V5.03529H48.1932V5.04007ZM45.105 11.1138C45.105 8.9673 43.3242 7.60723 41.5721 7.60723C39.6886 7.60723 38.1445 9.07247 38.1445 11.1138C38.1445 13.1551 39.6886 14.6729 41.5721 14.6729C43.4294 14.6729 45.105 13.2602 45.105 11.1138Z" fill="black"/>
<path d="M50.1289 11.1138C50.1289 7.23912 53.1383 4.77953 56.6185 4.77953C60.0988 4.77953 63.1344 7.23912 63.1344 11.1138C63.1344 14.9884 60.0988 17.5269 56.6185 17.5269C53.1407 17.5245 50.1289 14.986 50.1289 11.1138ZM60.0749 11.1138C60.0749 9.01988 58.5044 7.60723 56.6209 7.60723C54.7374 7.60723 53.1932 9.01988 53.1932 11.1138C53.1932 13.2602 54.7374 14.6992 56.6209 14.6992C58.5044 14.6992 60.0749 13.2602 60.0749 11.1138Z" fill="black"/>
<path d="M76.1968 5.03994L71.041 17.2614H68.2658L63.1626 5.03994H66.4349L69.6809 13.4155L72.9006 5.03994H76.1968Z" fill="black"/>
<path d="M89.3631 5.04007V15.5358C89.3631 21.031 86.6932 23.4142 82.5054 23.4142C79.9932 23.4142 77.7942 22.0541 76.7209 19.8287L79.2331 18.6766C79.8355 19.8813 81.1692 20.6653 82.5054 20.6653C84.8598 20.6653 86.3275 19.3053 86.3275 15.8226V15.6386C85.4646 16.8959 83.7627 17.5221 82.2712 17.5221C79.0515 17.5221 76.2524 15.0362 76.2524 11.1353C76.2524 7.21044 79.0275 4.77475 82.2449 4.77475C83.8153 4.77475 85.4646 5.3771 86.3275 6.632V5.03529H89.3631V5.04007ZM86.2749 11.1138C86.2749 8.9673 84.4941 7.60723 82.742 7.60723C80.8585 7.60723 79.3144 9.07247 79.3144 11.1138C79.3144 13.1551 80.8585 14.6729 82.742 14.6729C84.5993 14.6729 86.2749 13.2602 86.2749 11.1138Z" fill="black"/>
<path d="M100.59 5.19782L99.9876 8.07572C99.28 7.71001 98.6538 7.63113 98.2068 7.63113C96.2181 7.63113 95.1186 9.56725 95.1186 12.9973V17.264H92.0566V5.04007H95.0923V7.65742C95.7472 5.61612 97.081 4.77953 98.5988 4.77953C99.335 4.77953 100.119 4.93728 100.59 5.19782Z" fill="black"/>
<path d="M24.7557 9.43817C24.7844 9.43817 24.8083 9.43339 24.8346 9.42622C24.8824 9.41427 24.9254 9.39754 24.9565 9.36646C25.0043 9.31866 25.0402 9.24695 25.0402 9.17524C25.0402 9.10353 25.0043 9.03183 24.9565 8.98402C24.9087 8.93621 24.8394 8.90036 24.7557 8.90036C24.684 8.90036 24.6123 8.93621 24.5645 8.98402C24.5167 9.03183 24.4809 9.10353 24.4809 9.17524C24.4809 9.24695 24.5167 9.31866 24.5645 9.36646C24.5956 9.39515 24.6338 9.41427 24.6769 9.42383C24.7032 9.43339 24.7294 9.43817 24.7557 9.43817ZM18.749 26.4378C18.6773 26.4378 18.6199 26.4617 18.5721 26.5096C18.5362 26.5574 18.5004 26.6171 18.5004 26.6745C18.5004 26.7462 18.5362 26.8059 18.5721 26.8538C18.6032 26.8777 18.6414 26.892 18.682 26.9016C18.7035 26.9087 18.7274 26.9135 18.7514 26.9135C18.7776 26.9135 18.8039 26.9087 18.8278 26.9016C18.847 26.8944 18.8637 26.8848 18.8804 26.8753C18.8828 26.8753 18.8852 26.8729 18.8852 26.8729C18.8995 26.8633 18.9139 26.8561 18.9282 26.8418C18.976 26.8059 18.9999 26.7486 18.9999 26.6769C18.9999 26.6171 18.976 26.5574 18.9282 26.5119C18.8804 26.4617 18.8207 26.4378 18.749 26.4378ZM26.4911 21.3203C26.4767 21.3155 26.46 21.3131 26.4457 21.3107C26.4409 21.3107 26.3668 21.3131 26.3429 21.3226C26.2999 21.3322 26.2592 21.3513 26.2281 21.38C26.1803 21.4278 26.1445 21.4995 26.1445 21.5712C26.1445 21.6406 26.1803 21.7123 26.2281 21.7601C26.276 21.8079 26.3453 21.8437 26.417 21.8437C26.5006 21.8437 26.5723 21.8079 26.6202 21.7601C26.668 21.7123 26.7038 21.6406 26.7038 21.5712C26.7038 21.4995 26.668 21.4278 26.6202 21.38C26.5867 21.3465 26.5413 21.3298 26.4911 21.3203ZM10.7367 26.7462C10.7367 26.6745 10.7009 26.6028 10.6531 26.555C10.6053 26.5072 10.5336 26.4833 10.4619 26.4833C10.3901 26.4833 10.3184 26.5072 10.2706 26.555C10.2228 26.6028 10.187 26.6745 10.187 26.7462C10.187 26.8179 10.2228 26.8896 10.2706 26.935C10.3184 26.9828 10.3901 27.0187 10.4619 27.0187C10.5336 27.0187 10.6053 26.9828 10.6531 26.935C10.7009 26.8896 10.7367 26.8179 10.7367 26.7462ZM27.8535 13.9367H27.8416C27.7723 13.9367 27.7006 13.9725 27.6504 14.0203C27.605 14.0681 27.5667 14.1375 27.5667 14.2092C27.5667 14.2809 27.605 14.3526 27.6504 14.4004C27.6982 14.4482 27.7699 14.4841 27.8416 14.4841H27.8535C27.9252 14.4841 27.997 14.4482 28.0448 14.4004C28.0926 14.3526 28.1284 14.2833 28.1284 14.2092C28.1284 14.1375 28.0926 14.0658 28.0448 14.0203C27.997 13.9725 27.9252 13.9486 27.8535 13.9367ZM20.2811 2.88403C20.0995 2.82427 19.9202 2.75495 19.7409 2.68563C19.7314 2.67607 19.7218 2.66173 19.7122 2.64739C19.6764 2.49441 19.6286 2.33904 19.5688 2.18367C19.5091 2.01874 19.4398 1.85143 19.3441 1.6865C19.3202 1.63869 19.2485 1.62674 19.2007 1.65064C19.1529 1.67454 19.129 1.74625 19.1649 1.79406C19.2485 1.94943 19.3202 2.1024 19.38 2.25777C19.4158 2.36295 19.4469 2.4729 19.4708 2.58046C19.2414 2.48485 19.0119 2.38446 18.78 2.2745C18.7585 2.14304 18.7442 2.00918 18.7012 1.87772C18.6653 1.7343 18.6055 1.59327 18.5099 1.44986C18.4741 1.40205 18.4048 1.3901 18.357 1.42596C18.3091 1.46181 18.3092 1.53352 18.3331 1.58132C18.4167 1.68889 18.4645 1.80601 18.5004 1.93748C18.5219 2.01396 18.5362 2.09045 18.5506 2.16694C18.498 2.14304 18.4454 2.11914 18.3952 2.09284C18.1896 1.99006 17.9841 1.88011 17.7785 1.76777C17.7785 1.69845 17.7905 1.65303 17.7905 1.59327C17.8144 1.47376 17.8383 1.36859 17.7427 1.21322C17.7188 1.16541 17.659 1.15346 17.5992 1.17737C17.5514 1.21322 17.5395 1.27298 17.5634 1.31839C17.6207 1.414 17.5992 1.47376 17.5873 1.55503C17.5825 1.5861 17.5777 1.61957 17.5753 1.65303C17.2287 1.45942 16.8798 1.25625 16.5212 1.0459C16.4734 1.022 16.4017 1.03395 16.3778 1.08176C16.3419 1.12956 16.3659 1.19888 16.4137 1.22278C16.7387 1.42118 17.059 1.61001 17.3769 1.78928C17.365 1.79406 17.353 1.80123 17.3387 1.80601C17.2311 1.86577 17.1379 1.91357 16.9825 1.91357C16.9228 1.91357 16.875 1.97333 16.875 2.01874C16.875 2.0785 16.9228 2.12631 16.9825 2.12631C17.1857 2.11436 17.3028 2.06894 17.4343 1.99723C17.4893 1.97333 17.5466 1.94704 17.6088 1.91835C17.8407 2.04504 18.0725 2.16694 18.2996 2.28168C18.3331 2.3008 18.3689 2.31514 18.4024 2.32948C18.2733 2.37729 18.1347 2.40597 17.9912 2.43704C17.9434 2.449 17.8956 2.46095 17.8359 2.4729C17.7881 2.48485 17.7522 2.53026 17.7642 2.59002C17.7761 2.64978 17.8239 2.68563 17.8813 2.67368L18.0247 2.63783C18.2422 2.59719 18.4478 2.55178 18.6462 2.4466C18.8302 2.53265 19.0143 2.61631 19.2007 2.69519C19.1744 2.70236 19.1434 2.71193 19.1171 2.7191C18.9641 2.7669 18.8207 2.79081 18.6677 2.81471C18.6079 2.82666 18.5721 2.87446 18.5721 2.93422C18.584 2.99398 18.6438 3.02983 18.6916 3.02983C18.8565 3.00593 19.0119 2.97008 19.1649 2.92227C19.2748 2.89837 19.3872 2.86251 19.5019 2.81949C19.7361 2.9151 19.9704 3.00593 20.2094 3.08959C20.2692 3.11349 20.3289 3.07764 20.3385 3.02983C20.3648 2.96769 20.3289 2.90793 20.2811 2.88403ZM2.98984 21.6549C2.96594 21.6477 2.93964 21.6405 2.91335 21.6405C2.88706 21.6405 2.86076 21.6453 2.83686 21.6549C2.79384 21.6668 2.7532 21.6836 2.72452 21.7123C2.66476 21.7601 2.64086 21.8318 2.64086 21.9035C2.64086 21.9752 2.66476 22.0469 2.72452 22.0947C2.77232 22.1425 2.84164 22.1784 2.91335 22.1784C2.98506 22.1784 3.05677 22.1425 3.10457 22.0947C3.16433 22.0469 3.18823 21.9752 3.18823 21.9035C3.18823 21.8318 3.16433 21.7601 3.10457 21.7123C3.0735 21.6836 3.03286 21.6668 2.98984 21.6549ZM24.3924 6.52442C24.3948 6.49335 24.402 6.45988 24.4115 6.42164C24.4235 6.37383 24.4354 6.33798 24.4474 6.29017C24.4832 6.06549 24.5071 5.82646 24.5071 5.57787C24.5071 5.51811 24.4593 5.4727 24.3996 5.4727C24.3398 5.4727 24.2944 5.5205 24.2944 5.57787C24.2944 5.81212 24.2705 6.03441 24.2347 6.24476C24.1414 6.08222 24.0434 5.92207 23.9454 5.76431C23.9526 5.74758 23.9717 5.63763 23.9861 5.60177C24.0219 5.40099 24.0339 5.17391 24.0219 4.93728C24.0219 4.88947 23.9741 4.84167 23.9167 4.84167C23.857 4.84167 23.8092 4.90142 23.8211 4.94923C23.8307 5.14284 23.814 5.33884 23.7829 5.50616C23.6705 5.33406 23.5534 5.16435 23.4339 4.99225C23.4698 4.88469 23.4913 4.76518 23.5032 4.64088C23.5152 4.49747 23.5271 4.34449 23.5152 4.20346C23.5152 4.1437 23.4674 4.0959 23.41 4.0959C23.3503 4.0959 23.3144 4.1437 23.3144 4.20346C23.3144 4.34688 23.3144 4.4879 23.2905 4.61937C23.2857 4.66718 23.2785 4.71259 23.2714 4.75801C23.1997 4.65761 23.1232 4.55722 23.0419 4.45205C22.9224 4.28712 22.7933 4.13175 22.6619 3.97877C22.626 3.93097 22.5543 3.93097 22.5065 3.96682C22.4706 4.00268 22.4587 4.06243 22.4945 4.11024C22.6236 4.26322 22.7575 4.43054 22.8746 4.58591C22.9439 4.67435 23.0108 4.76757 23.0802 4.8584C22.9343 4.82971 22.7909 4.78908 22.6619 4.66957C22.614 4.63371 22.5543 4.63371 22.5065 4.68152C22.4706 4.71737 22.4706 4.78908 22.5184 4.82493C22.7312 5.01616 22.9463 5.05201 23.171 5.09982C23.1973 5.09982 23.2307 5.1046 23.2642 5.11416C23.3981 5.30538 23.5271 5.49899 23.6514 5.6926C23.5941 5.68543 23.5391 5.67348 23.4937 5.65675C23.3742 5.63285 23.2785 5.58504 23.1734 5.54919C23.1256 5.51333 23.0658 5.53724 23.0419 5.59699C23.0061 5.6448 23.03 5.71412 23.0897 5.74041C23.1949 5.78822 23.3144 5.83602 23.4339 5.87188C23.5463 5.89339 23.661 5.91012 23.7829 5.91012C23.8881 6.07983 23.9908 6.25193 24.0889 6.42403C24.0267 6.41208 23.9669 6.39535 23.9096 6.37144C23.7805 6.33559 23.6466 6.27583 23.5295 6.20652C23.4698 6.18261 23.4124 6.19456 23.3861 6.25432C23.3503 6.30213 23.3742 6.36188 23.422 6.39774C23.5654 6.46706 23.6945 6.52681 23.8379 6.57462C23.9598 6.61525 24.0841 6.63677 24.2131 6.64872C24.3924 6.97858 24.5645 7.30843 24.7175 7.64307C24.7414 7.69088 24.8012 7.71478 24.849 7.69088C24.9087 7.66698 24.9326 7.60722 24.9087 7.54746C24.7438 7.19609 24.5765 6.85906 24.3924 6.52442ZM21.1488 2.55178C21.2325 2.55178 21.3042 2.52787 21.3496 2.48007C21.3974 2.43226 21.4332 2.36055 21.4332 2.28885C21.4332 2.20519 21.3974 2.14543 21.3496 2.09762C21.3018 2.04982 21.2325 2.01396 21.1488 2.01396C21.0771 2.01396 21.0054 2.04982 20.9576 2.09762C20.9098 2.14543 20.8739 2.2028 20.8739 2.28885C20.8739 2.36055 20.9098 2.43226 20.9576 2.48007C21.0054 2.52787 21.0771 2.55178 21.1488 2.55178ZM25.7238 8.00161C25.7477 8.00879 25.774 8.01357 25.8003 8.01357C25.829 8.01357 25.8553 8.00879 25.8792 8.00161C25.927 7.98966 25.97 7.97293 26.0011 7.94186C26.0489 7.89644 26.0847 7.82473 26.0847 7.75303C26.0847 7.68132 26.0489 7.60961 26.0011 7.5618C25.9533 7.514 25.8816 7.47814 25.7979 7.47814C25.7286 7.47814 25.6545 7.514 25.6067 7.5618C25.5589 7.60961 25.523 7.67893 25.523 7.75303C25.523 7.82473 25.5589 7.89644 25.6067 7.94186C25.6401 7.97293 25.6808 7.98966 25.7238 8.00161ZM7.42381 3.21867C7.50747 3.21867 7.56723 3.19476 7.62698 3.14696C7.65806 3.11588 7.67479 3.07286 7.68674 3.02505C7.69152 3.00354 7.69869 2.97964 7.69869 2.95573C7.69869 2.87207 7.67479 2.81232 7.61503 2.7669C7.56723 2.7191 7.50747 2.68324 7.42381 2.68324C7.3521 2.68324 7.28039 2.7191 7.23498 2.7669C7.18717 2.81232 7.15132 2.87207 7.15132 2.95573C7.15132 3.02744 7.18717 3.09915 7.23498 3.14457C7.28278 3.19237 7.3521 3.21867 7.42381 3.21867ZM0.87205 14.9573C0.943759 14.9573 1.01308 14.9215 1.06088 14.8737L1.0561 14.8665C1.10391 14.8187 1.13259 14.7542 1.13259 14.6824H1.14454C1.14454 14.6131 1.12064 14.539 1.06088 14.4912C1.0322 14.4625 0.991564 14.4434 0.948539 14.4339C0.924637 14.4267 0.898343 14.4219 0.87205 14.4219C0.843367 14.4219 0.819464 14.4267 0.795561 14.4339C0.752536 14.4434 0.711901 14.4625 0.680828 14.4912C0.621071 14.539 0.597168 14.6107 0.597168 14.6824C0.597168 14.7542 0.621071 14.8259 0.680828 14.8737C0.728633 14.9239 0.800342 14.9573 0.87205 14.9573ZM2.79384 8.48923C2.86554 8.48923 2.92291 8.46533 2.97311 8.41752C3.00896 8.36972 3.04482 8.31235 3.04482 8.25259C3.04482 8.18089 3.00896 8.12352 2.97311 8.07571C2.9253 8.03986 2.86554 8.00401 2.79384 8.00401C2.72452 8.00401 2.66476 8.03986 2.61696 8.07571C2.56915 8.12352 2.54525 8.18328 2.54525 8.25259C2.54525 8.31235 2.56915 8.36972 2.61696 8.41752C2.66237 8.46533 2.72452 8.48923 2.79384 8.48923ZM7.89948 4.73649C7.92577 4.73649 7.94967 4.73171 7.97357 4.72454C8.01899 4.71498 8.06201 4.69825 8.10026 4.66717C8.13133 4.6361 8.14806 4.59308 8.15763 4.54766C8.1648 4.52615 8.16958 4.50225 8.16958 4.47834C8.16958 4.40663 8.14567 4.33493 8.08592 4.28712C8.03811 4.23931 7.97835 4.20346 7.89469 4.20346C7.82299 4.20346 7.75128 4.23931 7.70347 4.28712C7.65567 4.33493 7.61981 4.40663 7.61981 4.47834C7.61981 4.55005 7.65567 4.62176 7.70347 4.66957C7.73455 4.70064 7.77279 4.71737 7.81821 4.72693C7.84689 4.73171 7.87318 4.73649 7.89948 4.73649ZM8.28909 24.9559L7.67479 23.983C7.63894 23.9233 7.57918 23.9113 7.53137 23.9472C7.48357 23.9711 7.45966 24.0428 7.49552 24.0906L7.93294 24.7981C7.72259 24.7025 7.51225 24.6069 7.3043 24.5089C7.22303 24.3607 7.12024 24.2029 7.01985 24.0547C6.91229 23.8898 6.81668 23.7225 6.73541 23.5695C6.69955 23.5217 6.6398 23.4978 6.59199 23.5217C6.53223 23.5576 6.52028 23.6173 6.54419 23.6651V23.6771L6.54897 23.6747C6.63024 23.8372 6.73541 23.9998 6.84058 24.1623C6.88122 24.2244 6.92185 24.2866 6.9601 24.3463C6.74019 24.2388 6.52267 24.1264 6.30516 24.0141C6.23584 23.9089 6.15218 23.7894 6.04701 23.6269C5.9514 23.4978 5.86774 23.3544 5.78647 23.2492C5.76256 23.1895 5.69086 23.1775 5.64305 23.2134C5.59525 23.2492 5.58568 23.309 5.6072 23.3568C5.70281 23.4882 5.78647 23.6197 5.86774 23.7488C5.87969 23.7679 5.89403 23.7918 5.90598 23.8109C5.47573 23.5838 5.05026 23.3472 4.63196 23.0962C4.58416 23.0723 4.51245 23.0843 4.48854 23.1321C4.45269 23.1799 4.47659 23.2516 4.5244 23.2755C4.9666 23.536 5.41358 23.787 5.86296 24.026C5.82471 24.0308 5.78647 24.0332 5.74822 24.0356C5.58329 24.0476 5.42793 24.0595 5.27256 24.0834C5.2128 24.0834 5.17695 24.1432 5.17695 24.2029C5.1889 24.2627 5.24865 24.2985 5.30841 24.2866C5.45183 24.2627 5.60481 24.2507 5.76017 24.2388C5.89881 24.2268 6.04701 24.2173 6.18564 24.1982C6.39838 24.3081 6.61111 24.4181 6.82385 24.5232C6.74975 24.528 6.67565 24.5328 6.60155 24.5376C6.38643 24.5495 6.17369 24.5615 5.98486 24.5854C5.9251 24.5854 5.88925 24.6451 5.88925 24.7049C5.9012 24.7623 5.94901 24.8005 6.00637 24.7862C6.19521 24.7623 6.41033 24.7503 6.61111 24.7384C6.80951 24.7288 7.00551 24.7145 7.18239 24.6953C7.41425 24.8029 7.64611 24.9105 7.87796 25.0156L7.07961 25.2045C7.01985 25.2164 6.984 25.2762 7.0079 25.324C7.01985 25.3813 7.07961 25.4196 7.12742 25.4076L8.19109 25.1447C8.3608 25.2212 8.5329 25.2953 8.705 25.3694C8.4349 25.4793 7.93533 25.5487 7.89948 25.5487C7.83972 25.5606 7.80386 25.6204 7.81582 25.6777C7.81582 25.7255 7.87557 25.7733 7.93294 25.7614C7.95684 25.7614 8.5831 25.6658 8.97032 25.4793C9.0994 25.5319 9.22608 25.5869 9.35755 25.6419C9.40535 25.6658 9.46272 25.6419 9.48662 25.5821C9.51052 25.5224 9.48662 25.4626 9.42686 25.4387C9.0492 25.2857 8.66676 25.1232 8.28909 24.9559ZM28.7332 14.5892C28.7332 14.5199 28.6495 14.4697 28.5921 14.4936C28.0758 14.735 27.6265 15.0195 27.2416 15.3374C27.2058 15.0123 27.1532 14.6896 27.0671 14.3669C27.8272 13.3224 28.1619 12.1989 28.1045 11.0038C28.0448 9.78237 27.6073 8.49879 26.7994 7.1459C26.7516 7.07419 26.6441 7.07419 26.6106 7.15546L25.8744 8.8669C25.8099 9.04139 25.7573 9.21349 25.7118 9.38559C25.566 9.0127 25.3294 8.3745 25.3294 8.22391C25.3294 8.15459 25.3414 8.08288 25.3414 8.01118C25.3533 7.4399 25.3533 6.97857 25.0928 5.64958L25.0808 5.63763C24.7127 4.55722 23.6323 3.65609 22.7288 3.09676C22.5639 2.97725 22.3965 2.88403 22.2436 2.80037C22.0882 2.71671 21.9472 2.645 21.8396 2.59958C21.7679 2.56373 21.6866 2.61153 21.6866 2.68324C21.6675 2.99876 21.6794 3.29993 21.7153 3.58677C21.6771 3.56048 21.6412 3.53657 21.603 3.51506C21.5241 3.4553 21.4428 3.38598 21.3209 3.31189C21.3185 3.3095 21.3185 3.3095 21.3161 3.30711C21.297 3.29515 20.893 2.93422 20.6875 2.70715C20.513 2.50158 20.3457 2.28646 20.2524 2.09284C20.2309 2.05221 20.219 2.00679 20.1999 1.97333L20.2023 1.97094C20.1951 1.96377 20.1903 1.95899 20.1855 1.95182C20.1855 1.95182 20.1831 1.95182 20.1831 1.94943C19.9298 1.68411 19.6836 1.4403 19.3489 1.21083C19.0047 0.974192 18.5888 0.771019 18.0199 0.594138C18.0199 0.594138 17.3793 0.465063 16.7005 0.417257C16.1077 0.369452 15.5149 0.321646 15.0153 0.132814C14.9986 0.128034 14.9843 0.123253 14.9747 0.125643C14.9173 0.137595 14.891 0.151936 14.8815 0.178229C14.8719 0.204522 14.8648 0.202133 14.8743 0.252328C14.9412 0.627602 15.0894 0.95029 15.2926 1.25146C14.891 1.45703 14.5421 1.67933 14.2457 1.90401C13.9134 2.16455 13.6529 2.42748 13.4282 2.71193C13.3804 2.77168 13.4162 2.8649 13.4999 2.87686C14.0688 2.98442 14.6281 3.03222 15.197 3.00593C15.7372 2.98442 16.2798 2.90554 16.8582 2.78602C16.8798 2.80037 17.1666 2.98203 17.2981 3.05374C17.9363 3.39077 18.651 3.56765 19.3967 3.56526V3.56765C19.3967 3.56765 20.0636 3.5294 20.3242 3.5055C20.5847 3.4816 21.1106 3.44335 21.1177 3.44096C21.1297 3.44574 21.646 3.79711 21.7607 3.86404C21.9782 5.08786 22.6021 6.00573 23.0323 6.50769C23.1399 6.63916 23.2331 6.73238 23.3048 6.80408C23.3742 6.87579 23.422 6.9236 23.4483 6.93555C23.7207 7.15068 23.9932 7.39926 24.2777 7.69566C24.5597 7.98966 24.8298 8.32908 25.1238 8.68045C25.2075 8.84538 25.2888 9.02465 25.3724 9.21349C25.4657 9.40232 25.5469 9.58876 25.6282 9.74174C25.5732 9.9975 25.5302 10.2509 25.5015 10.4971C25.4537 10.9034 25.4465 11.3026 25.4657 11.6898C25.3629 11.5751 25.2601 11.458 25.1573 11.3408C24.9326 11.0899 24.6936 10.8293 24.4809 10.5688C24.4211 10.509 24.3255 10.521 24.2896 10.5927C23.9215 11.6611 23.8498 12.5862 23.9932 13.3941C24.1367 14.202 24.5048 14.9024 25.0019 15.4951C25.0019 15.4951 25.3939 15.8274 25.5947 15.9923C25.7955 16.1596 26.0059 16.327 26.2066 16.5038C26.0537 16.7429 25.9198 16.9915 25.8075 17.252C25.7118 17.4671 25.6306 17.7038 25.5589 17.9404C25.523 18.0862 25.4896 18.2296 25.4609 18.3754C25.3963 18.2416 25.3246 18.1077 25.2386 17.9786C25.0975 17.7277 24.9183 17.503 24.7055 17.2663C24.6577 17.2066 24.5502 17.2305 24.5287 17.3022C24.3733 17.8352 24.1845 18.3348 23.9574 18.8105C23.9215 18.9061 23.8737 18.9873 23.8259 19.083C23.7925 19.1642 23.6968 19.3315 23.6968 19.3315C23.269 19.9363 22.9845 20.5171 22.7957 21.0525C22.6045 21.5975 22.5352 22.121 22.5447 22.6062C22.4802 22.6301 22.418 22.654 22.3559 22.6779C21.3113 23.1177 20.4795 23.7703 19.8389 24.6499C19.6142 25.0061 19.3752 25.2905 19.0788 25.4913C18.8278 25.6467 18.5458 25.7494 18.2135 25.7972C18.8374 25.1136 19.2629 24.2627 19.5545 23.3305C19.5784 23.2468 19.4971 23.1632 19.4111 23.2014C19.1386 23.3185 18.8661 23.4022 18.5793 23.4739C18.2829 23.5313 17.9984 23.5695 17.6877 23.5934H17.6686L17.6853 23.6651L17.6877 23.6938L17.6709 23.591C16.9706 23.6986 16.2941 23.8874 15.699 24.1958C15.3715 24.3655 15.0655 24.5758 14.7859 24.8268C14.5684 24.5925 14.2385 24.4037 13.8106 24.2555C13.3469 24.0906 12.0777 23.8994 12.0777 23.8994C11.7096 23.8755 11.3415 23.8396 10.9734 23.7799C10.6053 23.732 10.2372 23.6603 9.86907 23.5671C9.78541 23.5552 9.71609 23.6388 9.75194 23.7201C10.0961 24.4204 10.6435 24.9559 11.2961 25.4052C11.5375 25.5678 11.7932 25.7184 12.061 25.8594C11.9869 25.8379 11.9175 25.8188 11.841 25.7972C11.2411 25.6204 10.6411 25.4196 10.0507 25.2092C8.98944 24.246 7.91621 23.5169 6.81907 23.0675C6.74019 23.0341 6.66131 23.0078 6.58243 22.9767C6.5896 22.4939 6.54419 22.0087 6.41511 21.5019C6.27169 20.9784 6.03506 20.4335 5.655 19.8765C5.655 19.8765 5.21519 19.3052 5.01441 18.985C4.81123 18.6527 4.6224 18.2965 4.46942 17.8926C4.43357 17.8209 4.31405 17.8089 4.2782 17.8806C4.09893 18.1985 3.96985 18.538 3.89097 18.9037C3.61131 18.177 3.19779 17.4982 2.65042 16.8696C3.57546 16.0091 4.22083 15.0792 4.55069 14.104C4.89489 13.1049 4.9188 12.0484 4.6224 10.9345C4.61045 10.8628 4.52679 10.8389 4.47898 10.8628C4.21844 10.9823 3.97942 11.1472 3.75473 11.348C3.58741 11.4986 3.42726 11.6731 3.27906 11.8715C3.26233 11.6229 3.23126 11.3695 3.19779 11.1138C3.17389 10.9464 3.13804 10.6261 3.13804 10.6261C3.08545 10.423 3.03286 10.2341 2.98267 10.0573C3.08784 9.91623 3.14282 9.80628 3.18584 9.7011C3.23365 9.59354 3.40097 9.30671 3.40575 9.29237C4.34035 8.69958 5.20563 7.82234 5.83188 6.86384C5.9514 6.67501 6.06852 6.48379 6.17608 6.29257C6.28365 6.09178 6.37687 5.90056 6.46053 5.71173C6.46053 5.71173 6.77365 4.68391 6.84536 4.25366C7.00551 4.16283 7.16566 4.08156 7.32581 4.01463C7.49074 3.93097 7.66762 3.8497 7.84211 3.74453C8.09787 3.76126 8.33451 3.7517 8.5831 3.74214C8.83169 3.73018 9.07071 3.71823 9.33125 3.73019C9.88819 3.75409 10.4236 3.70628 10.9208 3.56287C11.4204 3.43379 11.8817 3.20671 12.3095 2.85056C12.7255 2.48246 13.0577 2.11436 13.3063 1.7343C13.5429 1.3423 13.6983 0.926387 13.7341 0.450722C13.7461 0.379013 13.6624 0.319256 13.5907 0.343159C12.9382 0.603699 12.2378 0.759067 11.5375 0.912045C11.3008 0.959851 11.0499 1.01961 10.8013 1.07936V1.08176C9.95273 1.24907 9.33842 1.59088 8.8532 2.02831C8.37275 2.4729 8.01899 2.99876 7.71542 3.57243C7.55527 3.66087 7.39752 3.74214 7.22781 3.82102C7.11546 3.86882 7.00073 3.9238 6.88361 3.98356C6.90034 3.87121 6.91707 3.75648 6.93141 3.64413C6.95532 3.45291 6.99117 3.24018 7.01507 3.04896C7.03897 2.9653 6.94336 2.90554 6.87165 2.94378C6.07569 3.28798 5.62632 3.66804 5.0909 4.11741C4.93553 4.24888 4.55308 4.56678 4.55308 4.56678L4.55547 4.56917C3.24082 5.82646 3.21453 7.64785 3.20257 8.93621V9.22783C3.08067 9.38081 3.03286 9.50271 2.97789 9.61266C2.95877 9.67003 2.93486 9.7274 2.89901 9.79193C2.83447 9.58159 2.76993 9.38559 2.7054 9.19675C2.55003 8.7928 2.39705 8.42469 2.19388 8.03269C2.15802 7.96337 2.05046 7.94903 2.0146 8.02074C1.58674 8.70914 1.38596 9.28041 1.15888 9.93296C1.07522 10.1457 0.898343 10.6333 0.898343 10.6333C0.422677 12.438 1.23059 14.1709 1.78753 15.3685C1.81621 15.4449 1.85207 15.519 1.87119 15.5573V15.868C1.87119 15.923 1.87119 15.9732 1.86641 16.0831C1.7445 15.9756 1.62021 15.8704 1.49352 15.7724C1.29035 15.617 1.07761 15.4641 0.852928 15.3087C0.78122 15.2609 0.69756 15.3087 0.685608 15.3924C0.625851 16.6018 0.733414 17.6703 1.02981 18.5619C1.33816 19.4511 1.84729 20.1657 2.58588 20.6749C3.16672 21.0788 3.65434 21.5282 4.04634 22.0278C4.11805 22.1353 4.18976 22.2286 4.26147 22.3361C4.27342 22.3552 4.28776 22.3768 4.29971 22.3983C4.31166 22.4317 4.32123 22.4652 4.33318 22.4987C4.01766 22.4867 3.70214 22.4939 3.37945 22.525C3.2958 22.525 3.25038 22.6325 3.30775 22.7042C3.58024 22.9887 3.84078 23.309 4.11566 23.6651C4.38815 24.0213 4.92358 24.8053 4.92358 24.8053C5.54027 25.5295 6.27647 25.9454 7.09634 26.1343C7.90665 26.3112 8.79822 26.2777 9.7376 26.1152L12.7015 26.9231C12.1088 27.241 11.3988 27.4896 10.5742 27.6784C10.5383 27.6903 10.5025 27.7501 10.5025 27.786C10.5025 27.8696 10.5025 27.9628 10.5383 28.0465C10.5622 28.1397 10.622 28.2353 10.7176 28.3309C10.7296 28.3429 10.7893 28.3668 10.8013 28.3668C11.1933 28.2951 11.5733 28.2114 11.9534 28.0943C12.3454 27.9867 13.1294 27.6664 13.1294 27.6664C13.3421 27.5469 13.6529 27.535 14.0305 27.523C14.2218 27.5111 14.4226 27.4991 14.6616 27.4752C14.8313 27.4561 14.9962 27.4322 15.1564 27.4035C15.1683 27.4155 16.2989 27.7716 16.8702 27.8911C17.4271 28.0202 17.9984 28.1039 18.5912 28.1278C18.6151 28.1278 18.6605 28.1015 18.6749 28.08C18.7705 27.9509 18.8183 27.8075 18.8302 27.676C18.8422 27.5326 18.8183 27.4035 18.7466 27.2601C18.7346 27.2362 18.6868 27.2123 18.6629 27.2027C18.3187 27.1669 17.9626 27.131 17.6064 27.0713C17.3076 27.0235 17.0184 26.9613 16.7292 26.8872C17.1427 26.6817 17.5084 26.4331 17.8311 26.1462C18.0104 26.1462 18.1586 26.1343 18.3068 26.1223C18.4669 26.1104 18.6271 26.0984 18.7896 26.0865C19.7481 26.2634 20.6468 26.2753 21.4763 26.0745C22.3081 25.8713 23.0658 25.4698 23.7566 24.8387C24.4091 24.234 24.9087 23.7105 25.2529 23.2612C25.6091 22.8094 25.8099 22.4437 25.9055 22.1329C25.9174 22.0612 25.8577 21.9895 25.7764 22.0015C25.5804 22.0445 25.3844 22.0756 25.1908 22.1043C25.3461 21.8533 25.4776 21.588 25.5804 21.3107C26.0895 21.1099 26.5867 20.8709 27.0719 20.3378C27.5476 19.8168 28.3961 17.8687 28.4726 17.6321C28.5491 17.393 28.6973 16.1596 28.7332 15.3995C28.7451 15.2466 28.7451 15.1031 28.7451 14.9597C28.7451 14.8402 28.7451 14.7087 28.7332 14.5892ZM15.1755 2.79081C14.6879 2.81232 14.2026 2.77168 13.7079 2.69041C13.8943 2.47529 14.107 2.27211 14.3676 2.06894C14.6616 1.85143 15.0082 1.63391 15.4121 1.42596C15.4289 1.44508 15.6798 1.74147 15.8017 1.86816C15.3356 1.9805 14.4871 2.30558 14.4871 2.30558C14.4273 2.32948 14.4034 2.38924 14.4273 2.449C14.4393 2.4968 14.511 2.53265 14.5588 2.50875C14.5588 2.50875 15.6368 2.09045 15.981 2.04982C16.1507 2.21714 16.5977 2.60197 16.6264 2.62349C16.1292 2.71671 15.6488 2.77885 15.1755 2.79081ZM20.305 3.28798C20.0325 3.31189 19.76 3.33579 19.521 3.34774C18.749 3.37164 18.0367 3.20432 17.3961 2.86012C17.2646 2.80037 16.1292 2.10479 15.6153 1.35425C15.601 1.33512 15.5555 1.28493 15.4791 1.1702C15.4026 1.05068 15.2185 0.854679 15.111 0.383794C15.5986 0.536771 16.1364 0.589358 16.6718 0.629993C17.1116 0.665847 17.5012 0.668237 17.953 0.797312C18.4048 0.923997 18.9043 1.16541 19.2246 1.3901C19.5378 1.59806 19.784 1.84186 20.0278 2.09762C20.1138 2.33187 20.3098 2.60675 20.5297 2.85056C20.6588 2.99637 20.7974 3.13022 20.9169 3.24496C20.709 3.26169 20.5034 3.27842 20.305 3.28798ZM24.4235 7.54985C24.1414 7.25585 23.5678 6.76584 23.5678 6.76584C23.5558 6.75389 23.2833 6.49335 23.1758 6.37384C22.669 5.76431 21.8444 4.52137 21.8874 2.85773C21.9663 2.89598 22.0475 2.939 22.1408 2.99159C22.2842 3.06091 22.4491 3.15652 22.6164 3.26408C23.4793 3.80667 24.5167 4.68152 24.8776 5.69739L24.8705 5.69978C25.143 7.00487 25.131 7.45663 25.1215 8.01357V8.2263C25.1215 8.26455 25.1334 8.32669 25.1525 8.40318C24.9111 8.09484 24.6673 7.80322 24.4235 7.54985ZM8.99183 2.18367C9.45555 1.76777 10.0483 1.44747 10.8539 1.28254C11.1025 1.22278 11.3415 1.17737 11.5901 1.11761C12.2426 0.976583 12.8856 0.833166 13.5071 0.60848C13.4473 0.969412 13.3278 1.30644 13.1318 1.61479C12.8952 1.98289 12.5725 2.33904 12.1709 2.69519C11.7789 3.01549 11.3391 3.23062 10.8658 3.35969C10.3901 3.49116 9.88102 3.53657 9.3456 3.52462C9.0731 3.50072 8.82451 3.51267 8.57353 3.52462C8.37753 3.53418 8.17914 3.54374 7.97835 3.53418C8.2628 3.03222 8.57353 2.5709 8.99183 2.18367ZM3.42248 8.9386C3.43443 7.66937 3.44638 5.87666 4.75148 4.67674C4.93075 4.53332 5.08372 4.40424 5.23909 4.28473C5.71954 3.86882 6.13306 3.52462 6.78799 3.21388C6.76887 3.3573 6.75214 3.48877 6.73541 3.62023C6.65175 4.22497 6.56809 4.81776 6.25974 5.62568C6.18803 5.8169 6.09242 5.99378 5.98725 6.18261C5.89164 6.37383 5.77452 6.56267 5.655 6.73955C5.06938 7.62873 4.28059 8.45099 3.42248 9.01748C3.42248 8.99597 3.42248 8.96729 3.42248 8.9386ZM11.4132 25.226C10.8467 24.8411 10.3686 24.387 10.0436 23.8157C10.3447 23.885 10.6435 23.9448 10.9495 23.9926C11.3128 24.05 11.6761 24.0858 12.0538 24.1097C12.7183 24.1814 13.2896 24.289 13.7389 24.442C14.1357 24.5806 14.4369 24.7599 14.6305 24.9702C14.4775 25.1256 14.3317 25.2929 14.1979 25.4793C13.9827 25.3861 13.7676 25.2977 13.5525 25.2116C13.476 25.061 13.3493 24.8961 13.2035 24.7503C13.1796 24.7144 13.029 24.5447 13.0051 24.5447C12.9597 24.5161 12.9047 24.528 12.8593 24.5615C12.8282 24.6021 12.8354 24.6619 12.8617 24.7001V24.7025C12.8617 24.7025 13.1605 25.0132 13.2083 25.073C13.0338 25.0037 12.8593 24.9344 12.6848 24.8626C12.5581 24.6021 12.4099 24.4085 12.2665 24.3009C12.2307 24.277 12.1948 24.2531 12.159 24.2412C12.1231 24.2173 12.0872 24.2053 12.0514 24.2053C11.9916 24.1934 11.9438 24.2412 11.9319 24.3009C11.9199 24.3487 12.0514 24.4181 12.0753 24.43C12.0992 24.442 12.2952 24.6164 12.3741 24.736C11.9367 24.5567 11.4873 24.3726 11.0068 24.1814C10.9495 24.1575 10.8897 24.1814 10.8634 24.2388C10.8395 24.2866 10.8754 24.3583 10.9232 24.3703C11.3558 24.5495 11.8195 24.7407 12.2976 24.932C12.2665 24.9344 12.2378 24.9367 12.2044 24.9391C12.0753 24.9511 11.9319 24.9391 11.7789 24.9272C11.7191 24.9272 11.6713 24.963 11.6713 25.0228C11.6594 25.0826 11.7072 25.1304 11.7669 25.1423C11.9223 25.1543 12.0753 25.1543 12.2187 25.1543C12.3693 25.1423 12.5199 25.1184 12.649 25.073C12.8402 25.1495 13.0362 25.2284 13.2322 25.3048C13.1629 25.3288 13.0888 25.3503 13.0147 25.367C12.8593 25.3909 12.6944 25.4148 12.539 25.4268C12.4793 25.4268 12.4338 25.4746 12.4434 25.5343C12.4434 25.5941 12.4912 25.6419 12.551 25.6419C12.7183 25.6299 12.8952 25.606 13.0625 25.5702C13.2155 25.5367 13.3589 25.4817 13.5023 25.4196C13.6959 25.5009 13.8919 25.5797 14.0879 25.6586C13.9612 25.8857 13.7987 26.0936 13.6075 26.2849C13.5095 26.2586 13.4115 26.2323 13.3135 26.206C12.6227 25.9263 11.9773 25.6132 11.4132 25.226ZM3.2934 12.2157C3.29819 12.2109 3.30058 12.2085 3.30536 12.2037C3.48463 11.9193 3.68541 11.6922 3.88619 11.5034C4.06547 11.3432 4.2543 11.2189 4.4503 11.1114C4.69889 12.1416 4.66782 13.1073 4.35947 14.0323C4.02961 14.9836 3.41053 15.8776 2.50939 16.7142C2.44964 16.6473 2.3851 16.5827 2.32295 16.5158C2.48549 16.2505 2.64564 15.9684 2.80101 15.672C2.8034 15.672 2.8034 15.672 2.8034 15.672C2.93247 15.5884 2.93247 15.5884 2.94681 15.5884C3.10218 15.4808 3.26711 15.3852 3.42248 15.292C3.47029 15.2561 3.48224 15.1964 3.45833 15.1486C3.42248 15.1031 3.36272 15.0768 3.31492 15.1127C3.1954 15.1844 3.09023 15.2489 2.98506 15.3135C3.09262 15.0984 3.1954 14.8761 3.29819 14.6442C3.40336 14.5629 3.50614 14.4936 3.59936 14.4362C3.70692 14.3884 3.80014 14.3406 3.89576 14.3191C3.95551 14.3072 3.99137 14.2474 3.97942 14.1996C3.96746 14.1399 3.90771 14.104 3.84795 14.116C3.73083 14.1518 3.62326 14.1877 3.50375 14.2594C3.48702 14.2665 3.4679 14.2809 3.45116 14.2904C3.52048 14.1279 3.58741 13.9582 3.65195 13.7885C3.65195 13.7861 3.65673 13.7861 3.65673 13.7837C3.71648 13.7144 3.7858 13.6546 3.88141 13.5829C3.98898 13.5232 4.09415 13.4634 4.22561 13.406C4.28537 13.3821 4.29732 13.3104 4.27342 13.2626C4.24952 13.2029 4.18976 13.1909 4.14195 13.2148C4.0081 13.2722 3.89337 13.3367 3.79058 13.406C3.84795 13.2363 3.90293 13.0666 3.95551 12.8993C3.96268 12.8945 3.96985 12.8897 3.97703 12.8802C4.03678 12.8085 4.09654 12.7391 4.1563 12.689C4.228 12.6292 4.28537 12.5814 4.36903 12.536C4.41684 12.5121 4.42879 12.4523 4.40489 12.3926C4.38098 12.3448 4.32123 12.3328 4.26147 12.3567C4.2041 12.3902 4.14673 12.4308 4.09176 12.4714C4.12522 12.3615 4.15869 12.2515 4.18976 12.144C4.20171 12.0842 4.16586 12.0268 4.1061 12.0149C4.05829 11.991 3.99854 12.0268 3.97463 12.0866C3.91488 12.3352 3.84317 12.5742 3.77385 12.7989C3.69019 13.0355 3.61848 13.2626 3.53721 13.4873C3.12848 14.606 2.65281 15.5645 2.1628 16.3628C2.13412 16.3341 2.10544 16.3054 2.07675 16.2768C2.06958 16.2696 2.07675 15.7557 2.0887 15.5549C2.26319 15.2609 2.42573 14.8904 2.58827 14.5199C2.69344 14.2737 2.92052 13.7957 2.92052 13.7957C3.20974 13.2435 3.29579 12.7296 3.2934 12.2157ZM1.1063 10.6955C1.2043 10.4588 1.28796 10.2222 1.35967 10.0071C1.56523 9.42144 1.75167 8.90514 2.10065 8.30518C2.2608 8.62548 2.38988 8.9386 2.51178 9.27085C2.6552 9.67481 2.79623 10.1266 2.93964 10.6716H2.94203C2.95398 10.8317 2.97789 10.9847 2.9994 11.1353C3.10218 12.0149 3.19779 12.8204 2.74603 13.6881C2.74603 13.6881 2.50939 14.1877 2.40183 14.4362C2.26558 14.747 2.13173 15.0458 1.99548 15.3015C1.99309 15.2944 0.649754 12.4236 1.1063 10.6955ZM2.71018 20.5028C2.00982 20.0271 1.53416 19.3507 1.23776 18.4973C0.967661 17.6775 0.860099 16.7094 0.898343 15.6027C1.05849 15.715 1.21625 15.8298 1.36684 15.9445C1.56762 16.0999 1.75884 16.2648 1.93812 16.4202C2.83925 17.2759 3.45594 18.2248 3.80253 19.2694C3.80492 19.2885 3.81449 19.3029 3.82644 19.3148C3.80492 19.5252 3.79297 19.7427 3.80253 19.9674C3.81927 20.5243 3.92683 21.129 4.11088 21.7816C3.72844 21.3131 3.26472 20.8828 2.71018 20.5028ZM4.01766 19.9554C3.99615 19.2909 4.1061 18.7029 4.35708 18.1818C4.5005 18.5117 4.66065 18.8128 4.83753 19.0901C5.03831 19.4224 5.26539 19.7188 5.49007 19.9913C5.84622 20.5267 6.07091 21.0478 6.21433 21.5473C6.33384 22.0182 6.37209 22.458 6.36731 22.8954C6.17369 22.8285 5.98008 22.7712 5.78647 22.7233C5.75061 22.6469 5.71954 22.5704 5.68608 22.4939C5.73149 22.4054 5.6789 22.5202 5.69086 22.4963C5.81037 22.2118 5.92749 21.913 6.03506 21.6525C6.05896 21.5927 6.02311 21.533 5.9753 21.5091C5.91554 21.4971 5.85579 21.521 5.83188 21.5688C5.74105 21.8031 5.65978 22.0158 5.57134 22.2238C5.48768 22.0182 5.4088 21.8103 5.33231 21.6023C5.38012 21.4995 5.42793 21.4015 5.47573 21.2964C5.54744 21.1529 5.60481 21 5.66695 20.8685C5.69086 20.8207 5.66695 20.749 5.61915 20.737C5.55939 20.7155 5.49963 20.737 5.47573 20.7848C5.41597 20.9282 5.34427 21.0693 5.2869 21.2127C5.27017 21.2509 5.25104 21.2868 5.23431 21.325C5.2128 21.2605 5.1889 21.196 5.16738 21.129C5.12914 21.0143 5.09329 20.902 5.05982 20.7896C5.07177 20.7777 5.08134 20.7633 5.08372 20.7514C5.09568 20.6558 5.11958 20.5601 5.15304 20.4526C5.20085 20.357 5.24865 20.2638 5.32036 20.1681C5.35622 20.1323 5.35622 20.0606 5.30841 20.0247C5.26061 19.9889 5.20324 19.9889 5.16738 20.0367C5.07177 20.1442 5.01202 20.2638 4.96421 20.3809C4.95704 20.3952 4.95465 20.4096 4.94987 20.4239C4.86143 20.1203 4.78255 19.8168 4.71562 19.5132C4.70367 19.4534 4.64391 19.4176 4.59611 19.4415C4.53635 19.4534 4.5005 19.5012 4.51245 19.5586C4.58177 19.8837 4.66782 20.2088 4.76104 20.5291C4.63913 20.4621 4.51245 20.3785 4.38337 20.2709C4.33557 20.2351 4.27581 20.247 4.23996 20.2948C4.19215 20.3307 4.2041 20.4 4.25191 20.4382C4.40728 20.5673 4.58416 20.6868 4.74909 20.7585C4.78255 20.7681 4.81362 20.7801 4.83753 20.792C4.87816 20.9235 4.92119 21.0549 4.96421 21.1864C4.99289 21.2701 5.02158 21.3561 5.05026 21.4398C5.00485 21.4159 4.95943 21.3967 4.91641 21.3752C4.78494 21.3035 4.66782 21.2438 4.53635 21.196C4.47659 21.1721 4.41684 21.196 4.39532 21.2438C4.38337 21.3035 4.40727 21.3633 4.45269 21.3872C4.58416 21.435 4.70128 21.4947 4.82079 21.5545C4.92119 21.6095 5.02397 21.6668 5.14587 21.7123C5.26061 22.0278 5.38729 22.3409 5.52832 22.654C5.22714 22.5895 4.92597 22.5441 4.62001 22.5178C4.57938 22.4437 4.53635 22.372 4.49093 22.2955C4.20171 21.4278 4.03917 20.651 4.01766 19.9554ZM9.73999 25.9048C8.81495 26.0841 7.93533 26.1175 7.15132 25.9287C6.37448 25.7518 5.67651 25.3622 5.09807 24.6834H5.10046C4.82797 24.2914 4.56503 23.8994 4.29254 23.5432C4.06547 23.2492 3.84078 22.9719 3.6137 22.7233C4.68933 22.6564 5.72432 22.8357 6.7378 23.2588C7.81821 23.7105 8.88666 24.4228 9.93121 25.3837C9.94317 25.3837 11.1789 25.8235 11.7837 26.0028C12.257 26.1414 12.7302 26.2729 13.2035 26.3972C13.268 26.4259 13.3326 26.4498 13.3995 26.4761C13.2657 26.586 13.1222 26.6888 12.9669 26.7844L9.73999 25.9048ZM17.5753 27.2816C17.9004 27.339 18.247 27.382 18.584 27.4179C18.6223 27.5039 18.6318 27.5828 18.6318 27.6617C18.6223 27.7477 18.5888 27.829 18.5434 27.9198C17.9912 27.8935 17.451 27.8123 16.9108 27.6975C16.4519 27.5971 15.993 27.4728 15.5364 27.3294C15.8663 27.2481 16.1722 27.1478 16.4591 27.0259C16.471 27.0426 16.4878 27.0593 16.5069 27.0689C16.863 27.1501 17.2168 27.2219 17.5753 27.2816ZM17.7642 25.9263C17.016 26.6386 15.9954 27.1262 14.6401 27.2792C14.4273 27.3031 14.2122 27.3031 14.0234 27.3151C13.6194 27.327 13.2991 27.3509 13.0266 27.4943L13.029 27.4967C12.6514 27.6497 12.2761 27.7907 11.8984 27.8983C11.547 27.9987 11.1885 28.0895 10.8276 28.1493C10.7869 28.0943 10.7535 28.0393 10.7463 27.9939C10.732 27.9509 10.7248 27.915 10.7176 27.8768C11.5925 27.6664 12.3454 27.3892 12.9549 27.033C13.5525 26.684 14.0066 26.249 14.2959 25.7184C14.3246 25.7088 14.3485 25.6873 14.3556 25.6562C14.3628 25.6419 14.3628 25.6228 14.3628 25.606C14.762 25.0682 15.2472 24.6643 15.8041 24.375C16.373 24.0786 17.016 23.9018 17.7044 23.7942C18.0199 23.7822 18.3139 23.7464 18.6055 23.6747C18.8398 23.6221 19.0573 23.5504 19.2724 23.4691C18.9497 24.4252 18.4717 25.2738 17.7642 25.9263ZM25.6951 10.5186C25.7525 10.0071 25.872 9.48598 26.0728 8.9386L26.7134 7.43751C27.44 8.68762 27.844 9.88516 27.8894 11.0038C27.9444 12.1129 27.6528 13.1455 26.993 14.116C26.962 14.0203 26.9309 13.9247 26.8926 13.8315C26.6799 13.2626 26.3477 12.6961 25.8409 12.1392L25.8481 12.1344C25.7955 12.0747 25.7429 12.0149 25.6903 11.9551C25.6354 11.4914 25.6378 11.0158 25.6951 10.5186ZM25.7166 15.825C25.5302 15.672 25.3414 15.519 25.1549 15.3565C24.6697 14.7876 24.3279 14.1255 24.1845 13.3558C24.0626 12.6196 24.1199 11.7854 24.4235 10.8389C24.6051 11.054 24.7964 11.2667 24.9924 11.4819C25.1621 11.6683 25.327 11.8571 25.4896 12.046C25.4991 12.0651 25.5135 12.0794 25.5278 12.089C25.578 12.1487 25.6282 12.2061 25.6808 12.2635V12.2754C26.166 12.8085 26.4887 13.3558 26.7014 13.9152C26.895 14.441 27.0002 14.9764 27.0385 15.5119C26.9333 15.6051 26.8353 15.7055 26.7421 15.8035C26.5771 15.5406 26.417 15.2776 26.264 15.0147C26.3238 14.8593 26.3692 14.6036 26.3907 14.2928C26.3907 14.2092 26.4146 13.8435 26.4146 13.8315C26.4146 13.7717 26.3668 13.7239 26.307 13.7239C26.2497 13.7239 26.2019 13.7717 26.2019 13.8315C26.2019 13.8315 26.1899 14.2116 26.178 14.2713C26.1636 14.4602 26.1421 14.6251 26.1158 14.7542C25.982 14.5175 25.6664 13.9223 25.6354 13.8602C25.6736 13.7574 25.7071 13.6116 25.7286 13.4395C25.7644 13.2387 25.7883 12.9997 25.7979 12.775C25.7979 12.7272 25.762 12.6674 25.7023 12.6674C25.6425 12.6674 25.5947 12.7033 25.5828 12.7631C25.5708 12.9877 25.5469 13.2148 25.523 13.4156C25.5111 13.4706 25.5015 13.5255 25.4919 13.5734C25.2649 13.1001 25.0545 12.6268 24.8585 12.144C24.8346 12.0842 24.7749 12.0603 24.7175 12.0842C24.6697 12.1081 24.6458 12.1679 24.6697 12.2157C24.8705 12.7176 25.0856 13.21 25.3246 13.7C25.2505 13.669 25.1764 13.6307 25.0952 13.5829C24.9517 13.4993 24.7988 13.3797 24.6458 13.2626C24.598 13.2268 24.5382 13.2268 24.5024 13.2746C24.4665 13.3224 24.4665 13.3821 24.5143 13.418C24.6673 13.5471 24.8346 13.6666 24.99 13.7741C25.1454 13.8626 25.3031 13.9295 25.4585 13.9678C25.4872 14.0251 25.7764 14.5868 25.8983 14.8043C25.8122 14.7637 25.284 14.4721 25.1071 14.343C25.0593 14.3191 24.9995 14.3311 24.9637 14.3789C24.9278 14.4267 24.9398 14.4864 24.9876 14.5223C25.1788 14.6514 25.8887 15.0386 26.0728 15.1175C26.2377 15.4019 26.4122 15.684 26.5939 15.966C26.4959 16.0808 26.4026 16.1979 26.3166 16.3198C26.1254 16.1572 25.9222 15.9875 25.7166 15.825ZM25.6401 22.2453C25.5445 22.4987 25.3605 22.7998 25.088 23.1512C24.7438 23.5791 24.2681 24.0906 23.6156 24.6953C22.963 25.3001 22.2268 25.6921 21.4309 25.8809C20.6229 26.0721 19.7577 26.0602 18.8183 25.8809C18.8183 25.8809 19.043 25.7542 19.1744 25.6682C19.5067 25.4435 19.7696 25.1351 20.0062 24.767L19.9991 24.7623C20.6158 23.9233 21.4213 23.2946 22.4276 22.8811C22.6188 22.7974 22.8196 22.7257 23.0323 22.654C23.2355 22.5967 23.4602 22.5345 23.6849 22.4891C23.6873 22.4843 25.0545 22.3529 25.6401 22.2453ZM24.935 22.1162C24.9278 22.1258 24.9231 22.1377 24.9207 22.1473C24.6195 22.1855 24.3207 22.2142 24.0243 22.2357C24.0649 22.1449 24.1056 22.0517 24.1414 21.9608C24.2012 21.8055 24.3327 21.4469 24.3374 21.4278C24.4617 21.3848 24.5908 21.3011 24.7103 21.2007C24.8537 21.0812 24.9948 20.9402 25.1382 20.7848C25.174 20.749 25.174 20.6797 25.1262 20.6414C25.0904 20.5936 25.0187 20.6056 24.9828 20.6414C24.8537 20.7968 24.7103 20.9259 24.5789 21.0334C24.5263 21.0812 24.4737 21.1219 24.4187 21.1529C24.4952 20.89 24.5573 20.6199 24.6099 20.345C24.6864 20.3068 24.7749 20.247 24.8609 20.1777C24.9685 20.0821 25.076 19.9769 25.1932 19.8455C25.229 19.7976 25.229 19.7403 25.1812 19.6901C25.1454 19.6542 25.0736 19.6542 25.0378 19.702C24.9207 19.8215 24.8107 19.9291 24.7175 20.0104C24.6984 20.0295 24.6792 20.0462 24.6601 20.063C24.7294 19.6566 24.7796 19.2383 24.8107 18.8105C24.8107 18.7507 24.7749 18.7029 24.7175 18.7029C24.6577 18.6909 24.6099 18.7388 24.598 18.7985C24.5693 19.2264 24.5215 19.6471 24.4498 20.0582C24.4187 20.0247 24.39 19.9889 24.3613 19.9506C24.3016 19.8431 24.2442 19.7259 24.1845 19.5945C24.1725 19.5347 24.1128 19.5108 24.0554 19.5228C23.9956 19.5467 23.9717 19.6064 23.9956 19.6662C24.0554 19.8215 24.1151 19.9506 24.1988 20.0701C24.2562 20.1657 24.3303 20.2422 24.4068 20.3068C24.3518 20.5817 24.2872 20.8518 24.2108 21.1147C24.1868 21.0788 24.1606 21.0406 24.139 20.9952C24.0673 20.8637 23.9956 20.6988 23.9144 20.4717C23.8905 20.4239 23.8307 20.388 23.7709 20.4119C23.7231 20.4358 23.6873 20.4956 23.7112 20.541C23.7948 20.7777 23.8785 20.945 23.9478 21.0884C24.0076 21.2103 24.0697 21.294 24.1295 21.3704C24.1247 21.3872 23.9359 21.9083 23.9311 21.9226C23.8426 21.8031 23.759 21.6812 23.6873 21.5641C23.6753 21.5282 23.6156 21.4087 23.6036 21.3728C23.5797 21.325 23.52 21.3011 23.4745 21.3131C23.4148 21.337 23.3909 21.3967 23.4148 21.4565C23.4267 21.4804 23.4865 21.6214 23.5104 21.6573C23.5988 21.8222 23.7088 21.9776 23.8379 22.1377C23.8187 22.176 23.802 22.2118 23.7853 22.2477C23.7781 22.2477 22.8268 22.4915 22.7527 22.5154C22.7503 22.0732 22.822 21.6071 22.9917 21.1099C23.1686 20.5864 23.4554 20.0295 23.8713 19.4367C23.8713 19.4367 24.108 18.973 24.1438 18.8798C24.3422 18.4591 24.5143 18.0002 24.6649 17.5293C24.8155 17.7038 24.9446 17.883 25.0569 18.0719C25.2003 18.2965 25.3198 18.5332 25.4011 18.7603C25.8361 19.9554 25.5756 21.1553 24.935 22.1162ZM28.5324 15.3971C28.4965 16.1453 28.3651 17.0225 28.2599 17.6034C28.2599 17.6034 27.3803 19.7068 26.9189 20.204C26.5102 20.6414 26.0943 20.8709 25.6664 21.0549C25.8792 20.3259 25.8839 19.5299 25.6043 18.7388C25.6067 18.7316 25.6975 18.232 25.7549 17.9954C25.8266 17.7707 25.8983 17.5436 25.9915 17.3309C26.264 16.7046 26.656 16.1477 27.1843 15.6649C27.2201 15.6577 27.2464 15.6362 27.256 15.6027C27.6193 15.2824 28.0448 14.998 28.5372 14.7518C28.5396 14.8211 28.5443 14.8928 28.5443 14.9693C28.5419 15.1007 28.5324 15.2442 28.5324 15.3971ZM2.12934 14.2689C2.15324 14.006 2.16041 13.7168 2.15563 13.4132C2.34924 13.2674 2.47115 13.0379 2.59305 12.7965C2.59305 12.7965 2.71257 12.5575 2.76993 12.4643C2.80579 12.4165 2.79384 12.3448 2.74603 12.3089C2.69823 12.285 2.62891 12.2969 2.60261 12.3448C2.51895 12.4523 2.4592 12.5814 2.40183 12.7009C2.32295 12.8587 2.24407 13.0093 2.14846 13.1288C2.1389 12.8467 2.12456 12.5503 2.10783 12.2491C2.28949 12.1488 2.38749 11.9743 2.48788 11.7998C2.54764 11.7042 2.59544 11.5966 2.66476 11.5153C2.70062 11.4795 2.70061 11.4078 2.65281 11.3719C2.605 11.3361 2.54764 11.3361 2.50939 11.3839C2.42573 11.4795 2.36598 11.5846 2.30861 11.6922C2.24168 11.8093 2.17953 11.9217 2.09348 12.0006C2.07675 11.7496 2.06241 11.4938 2.05046 11.2404C2.22495 11.097 2.39227 10.6118 2.45203 10.5186C2.48788 10.4708 2.47593 10.4134 2.44007 10.3752C2.39227 10.3393 2.32056 10.3513 2.2871 10.3991C2.20344 10.5066 2.07914 10.8771 2.03851 10.944C2.01938 10.411 2.02178 9.88994 2.07197 9.41427C2.08392 9.35451 2.03612 9.29476 1.97636 9.29476C1.9166 9.2828 1.8688 9.33061 1.85685 9.39037C1.81143 9.83974 1.80904 10.3202 1.82338 10.815C1.78992 10.7648 1.64411 10.5066 1.61782 10.4708C1.59391 10.423 1.53416 10.3991 1.47679 10.423C1.42899 10.4588 1.40508 10.5186 1.42899 10.5664C1.45289 10.6046 1.73255 11.0492 1.83533 11.1616C1.84728 11.4149 1.85924 11.6683 1.87358 11.9217C1.70626 11.7759 1.46484 11.4102 1.46484 11.4102C1.44094 11.3623 1.38118 11.3408 1.32142 11.3623C1.27362 11.3743 1.23776 11.446 1.26167 11.4914C1.37879 11.783 1.66562 12.0292 1.89031 12.2061C1.90943 12.5216 1.92616 12.83 1.93573 13.124C1.85924 13.0427 1.77558 12.9447 1.70387 12.8443C1.58435 12.689 1.50069 12.4523 1.45289 12.4165C1.40508 12.3806 1.29752 12.4404 1.29752 12.4523C1.24971 12.536 1.36923 12.7487 1.53416 12.9758C1.66801 13.1527 1.83294 13.3415 1.94051 13.4228C1.9429 13.7144 1.93812 13.9917 1.91421 14.245C1.91421 14.3048 1.95007 14.3526 2.00982 14.3645C2.06958 14.3645 2.11739 14.3287 2.12934 14.2689ZM3.28384 19.8598C3.31731 19.6877 3.32926 19.5132 3.31731 19.3531C3.31731 19.1762 3.30536 19.0089 3.28145 18.8296C3.28145 18.7698 3.2217 18.734 3.16433 18.734C3.11652 18.7459 3.06872 18.7937 3.08067 18.8535C3.09262 19.0208 3.10457 19.1857 3.11652 19.3531C3.11652 19.408 3.11413 19.463 3.11174 19.5156C3.01613 19.3339 2.91813 19.1523 2.82013 18.973C2.82491 18.6455 2.76037 18.2081 2.72452 17.8926V17.8806C2.71257 17.8209 2.65281 17.785 2.605 17.785C2.54525 17.797 2.49983 17.8448 2.50939 17.9045V17.9165C2.53569 18.1029 2.56676 18.3252 2.58588 18.538C2.57632 18.5212 2.56676 18.5021 2.5572 18.4854C2.4831 18.3444 2.40183 18.2009 2.32534 18.0599C2.32773 18.0504 2.29666 17.7133 2.27275 17.5484C2.2608 17.3691 2.2369 17.2042 2.22495 17.0369C2.22495 16.9771 2.17714 16.9293 2.11739 16.9293C2.05763 16.9293 2.00982 16.9891 2.00982 17.0369V17.0488C2.02178 17.2161 2.04568 17.393 2.06958 17.5723C2.06958 17.5795 2.06958 17.5866 2.07197 17.5938C1.87597 17.24 1.67757 16.8839 1.47679 16.5277C1.44094 16.468 1.38118 16.456 1.33576 16.4799C1.27601 16.5158 1.26406 16.5732 1.28796 16.621C1.51743 17.0249 1.74211 17.4241 1.96202 17.8209C1.92377 17.8042 1.88314 17.7874 1.84489 17.7731C1.69192 17.7133 1.53655 17.6536 1.39552 17.6058C1.34772 17.5819 1.29035 17.6058 1.26406 17.6655C1.24015 17.7253 1.27601 17.785 1.32381 17.797C1.46723 17.8448 1.62021 17.9165 1.77319 17.9763C1.8927 18.0264 2.00743 18.0695 2.12456 18.1149C2.20822 18.2703 2.29666 18.428 2.38032 18.581C2.42095 18.6575 2.46159 18.7364 2.50461 18.8129C2.43529 18.7818 2.36837 18.7483 2.29905 18.7101C2.11978 18.6168 1.95485 18.5332 1.79948 18.4854C1.73972 18.4615 1.67997 18.4973 1.65606 18.5451C1.64411 18.6049 1.67997 18.6647 1.72538 18.6766C1.8688 18.7244 2.03373 18.8057 2.20105 18.8893C2.34924 18.9802 2.507 19.059 2.65759 19.1069C2.7532 19.2909 2.84881 19.4726 2.94442 19.6542C2.93964 19.6518 2.93247 19.6494 2.92769 19.6471C2.69105 19.5514 2.45203 19.42 2.20344 19.2551C2.15563 19.2192 2.08392 19.2311 2.06002 19.279C2.02417 19.3268 2.03612 19.3841 2.08392 19.42C2.34446 19.5993 2.59544 19.7427 2.85598 19.8478C2.90379 19.8598 2.95159 19.8837 2.9994 19.8956C3.02808 19.9076 3.05438 19.9195 3.08306 19.9267C3.17867 20.1156 3.27667 20.302 3.3675 20.4884C3.39141 20.5482 3.45116 20.5601 3.51092 20.5362C3.55873 20.5123 3.58263 20.4526 3.55873 20.3952C3.4679 20.2183 3.37467 20.0391 3.28384 19.8598ZM3.9579 9.17763C3.89815 9.22544 3.87424 9.29715 3.87424 9.36885C3.87424 9.44056 3.89815 9.51227 3.9579 9.56008C3.98898 9.58876 4.02722 9.60549 4.07264 9.61744C4.09654 9.62461 4.12283 9.63179 4.14913 9.63179C4.17781 9.63179 4.20171 9.62701 4.228 9.61744C4.27103 9.60549 4.31166 9.58876 4.34035 9.56008C4.4001 9.51227 4.42401 9.44056 4.42401 9.36885C4.42401 9.29715 4.4001 9.22544 4.34035 9.17763C4.29254 9.12983 4.22083 9.09397 4.14913 9.09397C4.07742 9.09397 4.00571 9.12983 3.9579 9.17763ZM18.4406 24.0045C17.9817 24.3153 17.5251 24.6164 17.0662 24.9057C17.0782 24.8387 17.0925 24.7718 17.1116 24.7049C17.1475 24.5854 17.1953 24.4563 17.2646 24.3248C17.3005 24.277 17.2765 24.2173 17.2287 24.1838C17.1809 24.1599 17.1116 24.1719 17.0853 24.2316C17.0017 24.375 16.9419 24.5161 16.9084 24.6595C16.8654 24.7909 16.8439 24.92 16.8391 25.0515C16.6646 25.1614 16.4925 25.269 16.318 25.3742C16.3396 25.2475 16.3874 25.0945 16.4591 24.9224C16.471 24.8746 16.4949 24.8268 16.5284 24.767C16.5523 24.7073 16.5762 24.6475 16.612 24.6021C16.636 24.5424 16.6121 24.4826 16.5642 24.4587C16.5164 24.4228 16.4471 24.4467 16.4208 24.4945V24.5065C16.385 24.5663 16.3611 24.626 16.3372 24.6714C16.3133 24.7192 16.2894 24.779 16.2535 24.8364C16.1507 25.0945 16.0934 25.324 16.0981 25.5032C15.8926 25.6251 15.687 25.747 15.4838 25.8666C15.4862 25.7733 15.4982 25.6682 15.5293 25.5487C15.589 25.3479 15.6846 25.1208 15.84 24.8483C15.8639 24.8005 15.84 24.7407 15.7922 24.7049C15.7444 24.681 15.6846 24.6929 15.6488 24.7527C15.4934 25.0371 15.3858 25.2762 15.3285 25.4889C15.2759 25.6753 15.2615 25.8427 15.2759 25.9861C15.1325 26.0697 14.9914 26.1486 14.8504 26.2275C14.8719 26.1104 14.8934 25.9909 14.9245 25.869C14.9723 25.6921 15.044 25.5128 15.1157 25.324C15.1396 25.2762 15.1157 25.2164 15.0679 25.1925C15.0082 25.1686 14.9484 25.1925 14.9245 25.2403C14.8409 25.4411 14.7715 25.6323 14.7237 25.8211C14.6807 25.9956 14.6496 26.1701 14.6233 26.3542C14.3532 26.5024 14.0855 26.6458 13.8202 26.7844C13.7604 26.8083 13.7485 26.8657 13.7724 26.9255C13.7963 26.9733 13.8561 26.9972 13.9134 26.9613C14.1907 26.8203 14.4704 26.6721 14.7476 26.5215C14.9197 26.5621 15.0942 26.5956 15.2783 26.6171C15.4695 26.653 15.6703 26.6649 15.8711 26.653C15.9308 26.653 15.9786 26.6052 15.9786 26.5478C15.9786 26.5 15.9308 26.4522 15.8711 26.4522C15.6798 26.4522 15.491 26.4402 15.3022 26.4163C15.209 26.4044 15.1157 26.39 15.0225 26.3709C15.1516 26.2992 15.2807 26.2251 15.4097 26.151C15.5771 26.1916 15.7587 26.2132 15.9428 26.2251C16.134 26.2371 16.3348 26.2251 16.5475 26.2132C16.6073 26.2012 16.6431 26.1534 16.6431 26.0936C16.6431 26.0339 16.5834 25.998 16.538 25.998C16.3348 26.0219 16.134 26.0219 15.9428 26.01C15.8567 26.01 15.7683 26.0052 15.6822 25.9932C15.8591 25.8881 16.0384 25.7829 16.2153 25.673C16.385 25.7136 16.5714 25.7255 16.7507 25.7351C16.9539 25.7471 17.1427 25.7351 17.3315 25.7351C17.3913 25.7351 17.4391 25.6873 17.4391 25.6299C17.4391 25.5702 17.3913 25.5248 17.3315 25.5248C17.1427 25.5367 16.9515 25.5367 16.7626 25.5248C16.667 25.5248 16.5762 25.5176 16.4878 25.508C16.6503 25.4076 16.8152 25.3072 16.9778 25.2045L17.7833 25.2284C17.843 25.2284 17.8909 25.1806 17.8909 25.1208C17.8909 25.061 17.843 25.0156 17.7952 25.0156L17.3005 25.0013C17.7164 24.7336 18.1347 24.4587 18.5553 24.1719C18.6032 24.136 18.6151 24.0762 18.5793 24.0284C18.5601 23.9806 18.4884 23.9687 18.4406 24.0045ZM26.0871 11.5273C26.0513 11.4795 25.9796 11.4795 25.9318 11.5034C25.8839 11.5392 25.8839 11.6109 25.9222 11.6564C26.0393 11.8237 26.1827 11.9767 26.3118 12.1081C26.4409 12.2372 26.5795 12.3448 26.7277 12.4404L26.7516 13.0451C26.7516 13.1049 26.7994 13.1527 26.8592 13.1407C26.9189 13.1407 26.9644 13.0929 26.9548 13.0332L26.9309 12.4332C26.9596 12.4069 26.9883 12.383 27.0122 12.3567C27.048 12.3209 27.0839 12.285 27.1317 12.2372C27.3109 12.0245 27.4998 11.752 27.6647 11.4317C27.6886 11.3719 27.6767 11.3122 27.6169 11.2882C27.5691 11.2524 27.5117 11.2763 27.4878 11.3241C27.3229 11.6444 26.9333 12.1392 26.9189 12.1559L26.8831 11.2404C27.005 11.1257 27.1197 10.9799 27.2129 10.8221C27.3205 10.6429 27.4161 10.4421 27.4974 10.2413C27.5213 10.1816 27.4854 10.1218 27.4376 10.0979C27.3779 10.074 27.3181 10.1098 27.2942 10.1576C27.2249 10.3608 27.1293 10.5497 27.0337 10.7146C26.9835 10.8006 26.9285 10.8771 26.8687 10.9464L26.8425 10.2317C27.0695 10.0142 27.1699 9.68198 27.2703 9.33778V9.32583C27.2823 9.27802 27.2584 9.21827 27.1986 9.19675C27.1388 9.1848 27.0815 9.22066 27.0695 9.26607V9.27802C27.0026 9.5051 26.9333 9.73218 26.8305 9.91145L26.7851 8.74499C26.7731 8.68524 26.7253 8.63743 26.668 8.63743C26.6082 8.63743 26.5724 8.68524 26.5724 8.74499L26.6249 10.0357C26.6178 10.0334 26.3214 9.8254 26.1803 9.67242C26.1445 9.62461 26.0728 9.62461 26.025 9.66047C25.9891 9.70827 25.9891 9.76803 26.025 9.81584C26.1803 9.98316 26.3453 10.1242 26.5006 10.2078C26.5365 10.2317 26.6225 10.2772 26.6369 10.2796L26.668 11.0636C26.6464 11.0564 26.6249 11.0468 26.6082 11.0397C26.4409 10.956 26.276 10.803 26.1086 10.6022C26.0728 10.564 26.0011 10.5544 25.9652 10.5903C25.9174 10.6261 25.9055 10.6979 25.9413 10.7433C26.1325 10.9584 26.3094 11.1353 26.5126 11.2309C26.5484 11.2428 26.5819 11.2667 26.6297 11.2787C26.6465 11.2835 26.6608 11.2882 26.6775 11.293L26.7134 12.1727C26.6273 12.1057 26.5437 12.0316 26.4648 11.9527C26.3238 11.8356 26.2042 11.6826 26.0871 11.5273ZM27.997 16.7859C27.832 16.9413 27.4424 17.1922 27.44 17.1946C27.6193 16.7787 27.8033 16.3509 27.997 15.8967C28.0089 15.8489 27.985 15.7891 27.9372 15.7676C27.8798 15.7437 27.8177 15.7676 27.7962 15.8154C27.6289 16.2074 27.452 16.621 27.2703 17.0488C27.2249 16.8719 27.1938 16.6879 27.1795 16.5038C27.1795 16.456 27.1675 16.1596 27.1675 16.1477C27.1675 16.0879 27.1197 16.0401 27.06 16.0401C27.0122 16.0401 26.9644 16.0879 26.9644 16.1477C26.9644 16.1596 26.9644 16.456 26.9763 16.5158C26.9978 16.7978 27.0432 17.0823 27.1436 17.3476C27.0361 17.5962 26.9285 17.8496 26.8186 18.1029C26.7038 17.9093 26.6202 17.7038 26.5724 17.5006C26.5604 17.4528 26.5484 17.393 26.5365 17.3476C26.5365 17.2998 26.5245 17.24 26.5245 17.1922C26.5245 17.1325 26.4648 17.0847 26.405 17.0847C26.3572 17.0847 26.3094 17.142 26.3094 17.1922V17.2042C26.3094 17.2639 26.3214 17.3213 26.3333 17.3811C26.3333 17.4289 26.3453 17.4886 26.3572 17.5484C26.4242 17.8161 26.5461 18.0838 26.7182 18.33C26.6608 18.4615 26.4457 18.9587 26.3955 19.0758C26.3548 18.9515 26.3166 18.8296 26.2879 18.7101C26.2401 18.5093 26.2042 18.2942 26.1684 18.0934C26.1684 18.0336 26.111 17.9978 26.0513 17.9978C26.0035 18.0097 25.9557 18.0575 25.9676 18.1173C25.9915 18.33 26.0393 18.5451 26.0871 18.7579C26.1301 18.9634 26.1971 19.1594 26.2783 19.3483C26.1947 19.5443 26.1134 19.7379 26.0274 19.9339C26.0035 19.9936 26.0274 20.0534 26.0871 20.0773C26.1349 20.1012 26.1947 20.0773 26.2162 20.0176C26.2999 19.8263 26.3835 19.6351 26.4672 19.4463C26.613 19.3674 26.7588 19.2885 26.9165 19.1881C27.0839 19.0806 27.2488 18.973 27.4257 18.832C27.4735 18.8081 27.4854 18.7364 27.4496 18.6909C27.4137 18.6431 27.354 18.6312 27.3062 18.667C27.1269 18.7961 26.962 18.9156 26.8066 19.0112C26.7349 19.0519 26.6656 19.0925 26.5986 19.1308C26.6441 19.0232 26.8544 18.5332 26.9142 18.3969C27.0743 18.33 27.2368 18.2511 27.3874 18.1436C27.5643 18.0241 27.7436 17.895 27.9229 17.7157C27.9707 17.6799 27.9707 17.6081 27.9229 17.5627C27.887 17.5269 27.8153 17.5269 27.7794 17.5627C27.6026 17.7277 27.4352 17.8591 27.2823 17.9667C27.201 18.0193 27.1221 18.0647 27.0432 18.1053C27.1341 17.895 27.2273 17.6846 27.3181 17.4719C27.3492 17.4623 27.495 17.3954 27.5428 17.3715C27.7436 17.2639 27.9587 17.111 28.1356 16.9437C28.1834 16.9078 28.1834 16.8361 28.1475 16.8002C28.1165 16.7524 28.0448 16.7524 27.997 16.7859ZM8.86037 3.21867C9.0731 3.14218 9.28584 3.0633 9.49857 2.97964C9.63721 3.02744 9.77346 3.07047 9.90731 3.1111C10.0627 3.14696 10.2157 3.18281 10.371 3.20671C10.4308 3.20671 10.4905 3.17086 10.4905 3.1111C10.5025 3.05135 10.4666 3.00354 10.4069 2.99398C10.2515 2.97008 10.0985 2.94617 9.95512 2.91032C9.90492 2.89359 9.85472 2.87686 9.80214 2.86012C9.99814 2.77885 10.1941 2.69519 10.3878 2.60675C10.5981 2.72388 10.818 2.77168 11.0475 2.81471C11.0953 2.82666 11.1431 2.83861 11.1909 2.85056C11.2387 2.86251 11.2985 2.82666 11.3104 2.7669C11.3224 2.70715 11.2865 2.64739 11.2267 2.63544C11.1789 2.62349 11.1311 2.62349 11.0833 2.61153C10.928 2.57807 10.7774 2.54939 10.634 2.49441C10.677 2.4729 10.72 2.45617 10.763 2.43465C10.9112 2.36055 11.0618 2.28646 11.2076 2.20758C11.4873 2.27929 12.0681 2.29124 12.0801 2.29124C12.1398 2.30319 12.1876 2.25538 12.1876 2.19563C12.1876 2.13587 12.1398 2.08806 12.092 2.08806C12.0681 2.08806 11.6857 2.07133 11.5064 2.04743C11.8841 1.84425 12.2617 1.62913 12.649 1.39966C12.6968 1.36381 12.7207 1.30405 12.6848 1.24429C12.6609 1.19649 12.5892 1.18454 12.5414 1.20844C12.1255 1.46181 11.7168 1.69128 11.3128 1.90401C11.3367 1.82513 11.3678 1.74147 11.4012 1.65781C11.4251 1.63391 11.4371 1.59806 11.449 1.57415C11.461 1.55025 11.4729 1.5144 11.4968 1.49049C11.5208 1.44269 11.5088 1.37098 11.461 1.34708C11.4012 1.31122 11.3415 1.33512 11.3176 1.38293C11.3176 1.38293 11.0905 1.88728 11.0642 2.03309C10.9304 2.1024 10.7989 2.17172 10.665 2.23865C10.6148 2.26255 10.567 2.28407 10.5168 2.30797C10.5288 2.23865 10.5407 2.17172 10.5599 2.10719C10.5957 1.97811 10.6435 1.8586 10.7272 1.75103C10.763 1.70323 10.7511 1.63152 10.7033 1.59567C10.6555 1.55981 10.5838 1.57176 10.5479 1.61957C10.4523 1.76298 10.3949 1.90401 10.3591 2.04743C10.3304 2.16933 10.3089 2.29124 10.2969 2.41075C10.0675 2.51592 9.83799 2.61392 9.60614 2.70954C9.63004 2.61631 9.65633 2.52309 9.69458 2.42748C9.74238 2.28407 9.8117 2.13109 9.90731 1.96377C9.93121 1.91596 9.91926 1.85621 9.85951 1.82035C9.8117 1.79645 9.75194 1.8084 9.71609 1.86816C9.62048 2.03309 9.54877 2.19802 9.4914 2.35338C9.43404 2.51114 9.40057 2.65695 9.36711 2.80276C9.17589 2.87685 8.98466 2.95095 8.79105 3.01788C8.73129 3.02983 8.70739 3.08959 8.73129 3.14935C8.74085 3.21867 8.80061 3.24018 8.86037 3.21867ZM5.11002 7.25346C5.15782 7.2176 5.16978 7.15785 5.14587 7.11004C5.12197 7.05267 5.05026 7.04072 5.00246 7.06223C4.89489 7.12199 4.79928 7.18175 4.71801 7.24151C4.62957 7.30365 4.55069 7.35146 4.45986 7.38253C4.56742 7.18892 4.67977 6.97619 4.7945 6.74911C5.00485 6.76345 5.18651 6.64872 5.37056 6.54115C5.46617 6.4814 5.54744 6.42164 5.6311 6.39774C5.69086 6.37383 5.71476 6.31408 5.70281 6.26627C5.67891 6.20891 5.61915 6.18261 5.57134 6.19695C5.46378 6.23281 5.35861 6.29256 5.263 6.36188C5.14348 6.4312 5.02397 6.50291 4.90445 6.53159C4.90445 6.5292 4.90445 6.5292 4.90684 6.52681C4.99528 6.35232 5.08612 6.17305 5.18173 5.99139C5.45661 5.96749 5.86774 5.68543 5.93945 5.63763C5.98725 5.61373 5.9992 5.54202 5.96335 5.49421C5.93945 5.44641 5.86774 5.43445 5.81993 5.45836C5.74822 5.50616 5.43988 5.72368 5.30363 5.75714C5.59764 5.2026 6.29321 4.09351 6.30516 4.09351C6.32906 4.0457 6.31711 3.97638 6.2693 3.95009C6.21672 3.91663 6.16413 3.93575 6.12828 3.97399C5.7793 4.47117 5.46856 5.0042 5.18651 5.52528C5.1626 5.40577 5.12914 4.95879 5.12914 4.93489C5.14109 4.87513 5.10524 4.81537 5.04548 4.80581C4.98572 4.80581 4.93792 4.84167 4.92597 4.90142C4.91402 4.93728 4.9905 5.6448 5.03114 5.81451C4.93075 6.00334 4.83514 6.18978 4.7443 6.37144C4.73235 6.34754 4.72279 6.32603 4.71323 6.30452C4.62957 6.12525 4.53396 5.94836 4.58177 5.78104C4.59372 5.72129 4.55786 5.66153 4.49811 5.64958C4.4503 5.63763 4.39054 5.67348 4.37859 5.73324C4.30688 5.96988 4.41445 6.18261 4.52201 6.39774C4.55786 6.47184 4.59372 6.54354 4.61762 6.61286C4.48854 6.86384 4.36664 7.10048 4.24952 7.31321C4.21127 7.18175 4.17781 7.00965 4.15391 6.86145C4.15391 6.81365 4.14195 6.76584 4.14195 6.72999C4.14195 6.69413 4.13 6.67262 4.13 6.63438V6.62242C4.13 6.56267 4.0822 6.51486 4.02244 6.51486C3.96268 6.51486 3.91488 6.56267 3.92683 6.62242V6.75628C3.93878 6.80408 3.93878 6.85189 3.95073 6.88535C3.9842 7.11482 4.05351 7.40883 4.11088 7.55702C4.02483 7.70522 3.93878 7.83908 3.85512 7.95381C3.81927 7.98966 3.83122 8.06137 3.87902 8.09723C3.92683 8.13308 3.99854 8.12113 4.02244 8.07332C4.11566 7.94664 4.21366 7.79605 4.31166 7.63112C4.53157 7.612 4.66304 7.52595 4.83036 7.42078C4.90684 7.36102 4.9905 7.31321 5.11002 7.25346ZM23.4028 23.3161C23.4387 23.1608 23.508 23.0197 23.5797 22.8763C23.6156 22.8285 23.5917 22.7688 23.5439 22.7329C23.4961 22.709 23.4244 22.721 23.4004 22.7807C23.3168 22.9337 23.2451 23.0891 23.1973 23.254C23.1566 23.3926 23.1232 23.5384 23.116 23.6866C22.877 23.8348 22.6356 23.983 22.3917 24.1241C22.4109 23.9328 22.4443 23.744 22.4969 23.5623C22.5089 23.5026 22.5686 23.3257 22.5925 23.2659C22.6164 23.2062 22.5806 23.1464 22.5328 23.1345C22.4754 23.1106 22.4157 23.1345 22.3894 23.1942C22.3798 23.242 22.3081 23.4548 22.2937 23.5026C22.2268 23.7536 22.191 24.0021 22.1671 24.2507C21.8994 24.3989 21.6292 24.5424 21.3568 24.6834C21.3639 24.5639 21.3831 24.4443 21.4165 24.3224C21.4763 24.1551 21.5599 23.9782 21.6794 23.8109C21.7153 23.7631 21.7033 23.6938 21.6555 23.6675C21.6077 23.6317 21.548 23.6436 21.5121 23.6914C21.3807 23.8802 21.2874 24.0715 21.2133 24.2603C21.1608 24.43 21.1369 24.6093 21.1416 24.7909C20.7018 25.0108 20.2524 25.2188 19.7887 25.4124C19.7409 25.4363 19.717 25.4961 19.7409 25.5415C19.7529 25.6012 19.8246 25.6251 19.8724 25.6012C20.0445 25.5319 20.2118 25.4554 20.3791 25.3837C20.3887 25.3909 20.3959 25.3957 20.4054 25.4005C20.5584 25.4722 20.7138 25.508 20.8811 25.5319C21.0341 25.5439 21.2014 25.5439 21.3544 25.52C21.4141 25.508 21.4619 25.4602 21.45 25.4005C21.438 25.3407 21.3902 25.3048 21.3329 25.3048C21.1894 25.3288 21.0365 25.3288 20.893 25.3168C20.8118 25.3096 20.7281 25.2881 20.6421 25.2642C20.8548 25.1662 21.0651 25.0634 21.2731 24.9606C21.4428 25.0108 21.5958 25.0443 21.7368 25.0539C21.9041 25.0778 22.0452 25.0897 22.1886 25.0778C22.2483 25.0778 22.2937 25.03 22.2937 24.9726C22.2818 24.9128 22.2364 24.865 22.1766 24.865C22.0452 24.877 21.9137 24.877 21.7727 24.8531C21.7033 24.8435 21.634 24.8292 21.5647 24.8148C21.8181 24.681 22.0715 24.5495 22.32 24.4085C22.4396 24.442 22.5567 24.4659 22.6762 24.485C22.8196 24.4969 22.9606 24.5089 23.1041 24.5089C23.1638 24.5208 23.2116 24.473 23.2116 24.4133C23.2116 24.3535 23.1638 24.3057 23.1041 24.3057C22.9606 24.3057 22.6236 24.2579 22.5854 24.2507C22.8077 24.1193 23.0252 23.9854 23.2403 23.8516C23.355 23.8826 23.4626 23.9018 23.5797 23.9018C23.6968 23.9137 23.8283 23.9137 23.9598 23.9018C24.0171 23.9018 24.0554 23.842 24.0554 23.7846C24.0434 23.7368 23.9956 23.689 23.9359 23.701C23.8164 23.7129 23.5343 23.6914 23.5056 23.6866C23.8761 23.45 24.2394 23.2086 24.6004 22.9624C24.6482 22.9265 24.6601 22.8572 24.6243 22.8094C24.5884 22.7616 24.5191 22.7496 24.4713 22.7855C24.1056 23.0413 23.7303 23.2946 23.3479 23.5384C23.3598 23.4691 23.3765 23.3926 23.4028 23.3161ZM20.9695 4.33493C21.0173 4.28712 21.0532 4.21541 21.0532 4.1437C21.0532 4.072 21.0173 4.00029 20.9695 3.95248C20.9217 3.90468 20.85 3.86882 20.7664 3.86882C20.6947 3.86882 20.6229 3.90468 20.5751 3.95248C20.5273 4.00029 20.4915 4.06004 20.4915 4.1437C20.4915 4.21541 20.5273 4.28712 20.5751 4.33493C20.6229 4.38273 20.6947 4.40663 20.7664 4.40663C20.85 4.40424 20.9217 4.38034 20.9695 4.33493ZM7.18956 18.7459C7.18956 20.2207 7.85884 20.9737 9.22847 21.0478C10.3686 21.0478 11.5494 21.0478 12.7183 21.1314C13.476 21.184 14.1214 21.5282 14.6568 22.1736C15.099 21.5856 15.7109 21.2533 16.6383 21.1314C17.745 21.0478 18.8733 21.0478 19.9656 21.0478C21.2874 20.9522 21.9328 20.259 21.9328 18.9252C21.9328 18.8678 21.9328 18.8081 21.928 18.7483C21.928 18.7483 21.928 6.88057 21.928 6.59613H7.18956C7.18956 6.87579 7.18956 18.7459 7.18956 18.7459ZM16.5977 11.8715H21.1679V11.4221H16.6575V11.1018H21.1679V10.65H16.6575V10.3178H21.1679V9.92579H16.6575V9.59354H21.1679V9.10831H16.6575V8.77607H21.1679V8.23825H16.6575V7.91796H21.1679V7.44229H16.5977V6.94511H21.5838V12.2157H16.5977V11.8715ZM16.5858 20.4167H19.6262C20.1377 20.4526 20.85 20.1442 20.85 19.9052L16.5881 19.8933V19.6088H21.0269C21.0388 19.561 21.1106 19.3244 21.1106 19.1236H16.5858V18.8391L21.1082 18.8272V18.33H16.5858V18.0456H21.1082L21.1201 17.4623H16.5977V17.1779H21.1201V16.5971H16.5977V16.2887H21.1201V15.7413H16.5977V15.2059H21.5838V19.1714C21.548 20.1323 20.752 20.8087 19.6238 20.7131H16.5858V20.4167ZM12.6131 20.7131H9.17111C8.86276 20.7251 8.51856 20.5936 8.31538 20.4167H12.1374V19.9052H7.99509C7.87557 19.8096 7.80386 19.6901 7.77996 19.6088H12.1374V19.1236H7.63655C7.60069 19.0399 7.59113 18.9085 7.59113 18.8272H12.1374V18.33H7.59113V18.0456H12.1374V17.4623H7.59113V17.1779H12.1374V16.5971H7.59113V16.2887H12.1374V15.7413H7.59113V15.2059H12.6131V20.7131ZM7.58874 11.8715H12.159V11.4221H7.6485V11.1018H12.159V10.65H7.6485V10.3178H12.159V9.92579H7.6485V9.59354H12.159V9.10831H7.6485V8.77607H12.159V8.23825H7.6485V7.91796H12.159V7.44229H7.58874V6.94511H12.5773V12.2157H7.58874V11.8715ZM6.59677 6.63198C6.59677 6.81365 6.59677 18.734 6.59677 18.734C6.71151 20.7418 7.7704 21.6764 9.85233 21.5904L12.7374 21.674L12.7613 21.6812C13.6505 21.9274 14.272 22.4174 14.6735 23.1703C15.1038 22.3337 15.7515 21.8198 16.6455 21.674C16.6455 21.674 19.7194 21.5904 19.7218 21.5904C21.3591 21.5665 22.1503 20.8183 22.2149 19.2431C22.2149 19.2431 22.2149 19.1547 22.2149 19.0041C22.1862 20.4406 21.4428 21.2318 19.9847 21.3346C19.9847 21.3346 19.98 21.2629 19.9752 21.1888C19.9752 21.2605 19.9752 21.3346 19.9752 21.3346C18.8374 21.3346 17.7618 21.3346 16.6718 21.4159C15.7492 21.5378 15.1827 21.8557 14.7811 22.4771L14.6688 22.6445L14.5134 22.4485C14.5134 22.4485 14.4345 22.3337 14.4512 22.36C13.9803 21.7816 13.3899 21.4637 12.7015 21.4159C11.5375 21.337 10.3639 21.337 9.2213 21.337C7.68196 21.2533 6.90034 20.3833 6.90034 18.7459V6.38818C6.79995 6.46706 6.6637 6.57701 6.59677 6.63198Z" fill="black"/>
</svg>
