<svg width="120" height="30" viewBox="0 0 120 30" fill="none" xmlns="http://www.w3.org/2000/svg">
<g clip-path="url(#clip0_3628_19508)">
<path d="M48.3902 20.7102C48.3902 20.4545 48.2204 20.2841 47.8808 20.1988V20.0284C48.0506 20.0284 48.6874 20.071 48.8573 20.071C48.9846 20.071 49.6214 20.0284 49.7912 20.0284V20.1988C49.4941 20.2841 49.3242 20.4545 49.3242 20.7102V23.9062C49.3242 24.9289 49.8762 25.4829 51.0224 25.4829C52.0413 25.4829 52.8055 25.0142 52.8055 23.9488V20.6676C52.8055 20.4119 52.6357 20.2414 52.2961 20.1562V20.0284C52.4234 20.0284 52.9329 20.071 53.1027 20.071C53.2725 20.071 53.782 20.0284 53.9093 20.0284V20.1988C53.5272 20.2841 53.3999 20.4545 53.3999 20.7102V23.821C53.3999 25.2272 52.5932 26.0369 50.8526 26.0369C49.2393 26.0369 48.3902 25.3125 48.3902 23.9914V20.7102ZM55.3528 25.7812C55.7349 25.696 55.8622 25.5255 55.8622 25.2698V20.838C55.8622 20.4545 55.65 20.2841 55.3103 20.1988V20.0284H56.5415L60.3624 24.5454V20.7102C60.3624 20.4545 60.1926 20.2841 59.853 20.1988V20.0284C59.9803 20.0284 60.4898 20.071 60.6596 20.071C60.8294 20.071 61.3389 20.0284 61.4662 20.0284V20.1988C61.0841 20.2841 60.9143 20.4545 60.9143 20.7102V26.0369H60.7021C60.5747 25.9943 60.2775 25.8664 59.853 25.3977L56.4142 21.392V25.3125C56.4142 25.5681 56.5415 25.7386 56.9236 25.8238V25.9943C56.7962 25.9943 56.2868 25.9517 56.117 25.9517C55.9471 25.9517 55.4377 25.9943 55.3103 25.9943L55.3528 25.7812ZM85.5804 24.588H85.7502C85.8351 24.9289 86.0049 25.2272 86.3021 25.3977C86.5569 25.6108 87.0239 25.696 87.3635 25.696C88.1277 25.696 88.6371 25.3125 88.6371 24.7159C88.6371 24.0767 88.0003 23.7784 87.2786 23.3948C86.7267 23.0965 85.6228 22.6704 85.6228 21.6051C85.6228 20.625 86.387 19.9858 87.5758 19.9858C88.3824 19.9858 88.722 20.1988 89.2739 20.1562V21.3494H89.1041C88.8919 20.625 88.255 20.4119 87.5333 20.4119C86.7267 20.4119 86.4719 20.8806 86.4719 21.3068C86.4719 21.946 87.1088 22.2869 87.8305 22.6278C88.6371 22.9687 89.5287 23.4375 89.5287 24.4602C89.5287 25.4403 88.7645 26.1221 87.4059 26.1221C86.5993 26.1221 86.0899 25.8664 85.6653 25.8238L85.5804 24.588ZM102.01 23.4801L100.439 20.9659C100.185 20.5397 99.9725 20.2841 99.6753 20.1988V20.0284C99.8876 20.0284 100.482 20.071 100.609 20.071C100.779 20.071 101.373 20.0284 101.628 20.0284V20.1988C101.416 20.2414 101.331 20.3267 101.331 20.4971C101.331 20.625 101.416 20.7954 101.501 20.9659C101.586 21.0937 102.647 22.8835 102.647 22.8835L103.751 20.9659C103.878 20.7528 103.921 20.5823 103.921 20.4545C103.921 20.3267 103.836 20.2414 103.666 20.2414V20.0284C103.836 20.0284 104.26 20.071 104.388 20.071C104.515 20.071 104.982 20.0284 105.152 20.0284V20.1988C104.727 20.3693 104.473 20.7528 104.218 21.1789L102.817 23.5653L102.01 23.4801ZM102.902 23.267V25.2698C102.902 25.4829 103.072 25.7386 103.411 25.7812V25.9517C103.241 25.9517 102.605 25.909 102.435 25.909C102.265 25.909 101.671 25.9517 101.458 25.9517V25.7812C101.798 25.696 101.968 25.4829 101.968 25.2698V23.3522L102.902 23.267ZM73.0563 20.0284H76.7074C76.8348 20.0284 77.0046 20.0284 77.132 19.9431H77.3018L77.2593 21.1363H77.0895C76.9621 20.7528 76.7923 20.4545 76.113 20.4545H74.5422V22.5852H75.7734C75.9432 22.5852 76.1555 22.5852 76.2404 22.5426C76.4951 22.5 76.6225 22.3295 76.7074 22.0738H76.8772V23.5653H76.7074C76.6225 23.3096 76.5376 23.1392 76.2404 23.0965C76.1555 23.0539 75.9432 23.0539 75.7734 23.0539H74.5422V25.4829H76.2829C77.047 25.4829 77.2593 25.1846 77.4291 24.7159H77.5989L77.4291 25.9517C76.8772 25.909 76.5376 25.909 75.9008 25.909H74.0752C73.9054 25.909 73.2686 25.9517 73.0563 25.9517V25.7812C73.396 25.696 73.5658 25.5681 73.5658 25.2272V20.7102C73.5658 20.4119 73.396 20.2414 73.0563 20.1988V20.0284ZM63.7163 20.7528C63.7163 20.4545 63.5465 20.2841 63.2069 20.1988V20.0284C63.4191 20.0284 64.0135 20.071 64.2258 20.071C64.3956 20.071 65.0324 20.0284 65.2447 20.0284V20.1988C64.9051 20.2841 64.6928 20.4119 64.6928 20.7528V25.2272C64.6928 25.5255 64.8626 25.696 65.2447 25.7812V25.9517C65.0324 25.9517 64.4381 25.909 64.2258 25.909C64.056 25.909 63.4191 25.9517 63.2069 25.9517V25.7812C63.589 25.696 63.7588 25.5681 63.7588 25.2272L63.7163 20.7528ZM91.4391 20.7528C91.4391 20.4545 91.2693 20.2841 90.9297 20.1988V20.0284C91.1419 20.0284 91.7788 20.071 91.9486 20.071C92.1184 20.071 92.7552 20.0284 92.9675 20.0284V20.1988C92.6278 20.2841 92.458 20.4119 92.458 20.7528V25.2272C92.458 25.5255 92.6278 25.696 92.9675 25.7812V25.9517C92.7552 25.9517 92.1608 25.909 91.9486 25.909C91.7788 25.909 91.1419 25.9517 90.9297 25.9517V25.7812C91.3118 25.696 91.4391 25.5681 91.4391 25.2272V20.7528ZM96.5337 20.071C94.5383 20.071 94.1987 20.0284 93.8166 19.9858V21.1789H93.9864C94.1562 20.625 94.4534 20.4971 94.8355 20.4971H96.1091V25.1846C96.1091 25.4829 95.9393 25.6534 95.5572 25.7386V25.909C95.7695 25.909 96.4063 25.8664 96.5761 25.8664C96.7459 25.8664 97.3828 25.909 97.595 25.909V25.7386C97.2554 25.6534 97.0431 25.4829 97.0431 25.1846V20.4971H98.2743C98.6564 20.4971 98.9536 20.625 99.1234 21.1789H99.2932V19.9858C98.8262 20.0284 98.529 20.071 96.5337 20.071ZM80.5283 25.2272C80.5283 25.5255 80.6981 25.696 81.0802 25.7812V25.9517C80.8679 25.9517 80.2311 25.909 80.0613 25.909C79.8915 25.909 79.2971 25.9517 79.0849 25.9517V25.7812C79.4245 25.696 79.5943 25.5681 79.5943 25.2272V20.7102C79.5943 20.4119 79.4245 20.2414 79.0849 20.1988V20.0284C79.2971 20.0284 79.8915 20.071 80.0613 20.071C80.3585 20.071 81.1651 20.0284 81.5048 20.0284C82.9058 20.0284 83.6699 20.625 83.6699 21.6051C83.6699 22.3721 83.0756 22.9261 82.184 23.1392C82.184 23.1392 82.3963 23.267 82.6086 23.4801C82.8633 23.7784 83.5426 24.7159 83.7973 25.0568C84.052 25.3977 84.4341 25.7812 84.8162 25.7812V25.909C84.6464 25.9517 84.3492 25.9943 84.1369 25.9943C83.6699 25.9943 83.2879 25.8238 82.9058 25.3977C82.5661 25.0142 82.0567 24.2045 81.717 23.7784C81.5048 23.5227 81.25 23.3096 80.8255 23.2244C80.7406 23.2244 80.6557 23.1818 80.5708 23.1818L80.5283 25.2272ZM80.5283 22.8409C80.6981 22.8835 80.9953 22.8835 81.25 22.8835C82.3539 22.8835 82.6935 22.2443 82.6935 21.6903C82.6935 20.8806 82.184 20.4119 81.2076 20.4119C80.9953 20.4119 80.7406 20.4545 80.5283 20.4971V22.8409ZM66.6032 20.7528C66.4759 20.4545 66.2636 20.2414 65.924 20.1988V20.0284C66.1362 20.0284 66.858 20.071 67.0278 20.071C67.1551 20.071 67.792 20.0284 68.0042 20.0284V20.1988C67.8344 20.2414 67.5797 20.3267 67.5797 20.5397C67.5797 20.6676 67.6646 20.8806 67.8344 21.2215L69.3628 24.6733L70.8062 21.2215C70.9336 20.9233 71.0185 20.7102 71.0185 20.5823C71.0185 20.4119 70.8487 20.284 70.594 20.2414V20.0284C70.7638 20.0284 71.2308 20.071 71.4006 20.071C71.528 20.071 72.0799 20.0284 72.2921 20.0284V20.1988C71.9525 20.2841 71.6978 20.4971 71.528 20.9659L69.4052 25.9517H68.9382L66.6032 20.7528ZM72.0374 5.02837C71.7827 4.4744 71.4006 4.09087 70.8062 3.96303V3.66474C71.1883 3.66474 72.5044 3.70735 72.8016 3.70735C73.0563 3.70735 74.33 3.66474 74.7545 3.66474V3.96303C74.4149 4.04826 73.9903 4.21871 73.9903 4.60224C73.9903 4.85792 74.1601 5.24144 74.4573 5.88065L77.3442 12.4431L80.0613 5.88065C80.2736 5.36928 80.4434 4.94315 80.4434 4.64485C80.4434 4.30394 80.1038 4.04826 79.6792 3.96303V3.66474C80.0613 3.66474 80.9104 3.70735 81.2076 3.70735C81.4623 3.70735 82.4812 3.66474 82.9058 3.66474V3.96303C82.2265 4.13349 81.8019 4.55962 81.4199 5.4119L77.4291 14.8721H76.5376L72.0374 5.02837ZM33.4038 14.4886C33.9133 14.3608 34.2954 14.1477 34.2954 13.5511V4.90053C34.2954 4.34655 33.9557 4.09087 33.4038 3.96303V3.62212C33.6585 3.62212 34.8473 3.66474 35.1444 3.66474C35.4841 3.66474 36.7153 3.62212 36.97 3.62212V3.92042C36.4605 4.04826 36.0784 4.26133 36.0784 4.85792V8.52269H42.5315V4.90053C42.5315 4.30394 42.1919 4.04826 41.64 3.96303V3.62212C41.8947 3.62212 43.1259 3.66474 43.4655 3.66474C43.7627 3.66474 44.9514 3.62212 45.2486 3.62212V3.92042C44.7392 4.04826 44.3571 4.26133 44.3571 4.85792V13.5085C44.3571 14.0625 44.6967 14.3181 45.2486 14.446V14.7443C44.9939 14.7443 43.7627 14.7017 43.4655 14.7017C43.1259 14.7017 41.9372 14.7443 41.64 14.7443V14.4886C42.1494 14.3608 42.5315 14.1477 42.5315 13.5511V9.46019H36.0784V13.5511C36.0784 14.1477 36.4181 14.3608 36.97 14.4886V14.7869C36.7153 14.7869 35.4416 14.7443 35.1444 14.7443C34.8473 14.7443 33.701 14.7869 33.4038 14.7869V14.4886ZM107.784 14.4886C108.463 14.3608 108.803 14.1051 108.803 13.5085V4.90053C108.803 4.30394 108.421 4.04826 107.784 3.96303V3.62212C108.166 3.62212 109.355 3.66474 109.695 3.66474C110.246 3.66474 111.732 3.5369 112.921 3.5369C116.869 3.5369 119.289 5.7528 119.289 9.11928C119.289 12.4005 116.784 14.8295 112.709 14.8295C111.52 14.8295 110.162 14.7443 109.61 14.7443C109.27 14.7443 108.166 14.7869 107.784 14.7869V14.4886ZM110.586 13.9346C111.011 14.0198 111.732 14.0625 112.327 14.0625C115.638 14.0625 117.379 12.0596 117.379 9.24712C117.379 6.3494 115.553 4.30394 112.454 4.30394C111.817 4.30394 111.011 4.34655 110.586 4.43178V13.9346ZM62.9946 13.4659C62.9946 14.0198 63.3767 14.3608 64.0135 14.4886V14.7869C63.6314 14.7869 62.4427 14.7443 62.0606 14.7443C61.7634 14.7443 60.5747 14.7869 60.1926 14.7869V14.4886C60.8294 14.3608 61.1691 14.0625 61.1691 13.4659V4.94315C61.1691 4.43178 60.8719 4.09087 60.1926 3.96303V3.62212C60.5747 3.62212 61.721 3.66474 62.0606 3.66474C62.6125 3.66474 64.1409 3.57951 64.7777 3.57951C67.4523 3.57951 68.9382 4.68746 68.9382 6.56246C68.9382 8.05394 67.8344 9.03405 66.1362 9.46019C66.1362 9.46019 66.5183 9.67326 66.9004 10.142C67.3674 10.696 68.6835 12.571 69.193 13.2102C69.7024 13.8494 70.3817 14.5738 71.1034 14.5738V14.8295C70.7638 14.9147 70.2119 14.9573 69.7873 14.9573C68.8958 14.9573 68.1741 14.6164 67.4523 13.7642C66.858 13.0397 65.7966 11.463 65.2022 10.696C64.8201 10.1846 64.3531 9.8011 63.5041 9.67326C63.3342 9.63064 63.1644 9.63064 62.9946 9.58803V13.4659ZM62.9946 8.94883C63.3342 8.99144 63.8861 9.03405 64.3956 9.03405C66.4759 9.03405 67.1127 7.84087 67.1127 6.77553C67.1127 5.28405 66.0938 4.34655 64.3107 4.34655C63.9286 4.34655 63.3767 4.38917 62.9946 4.4744V8.94883ZM98.062 13.4659C98.062 14.0198 98.4441 14.3608 99.0809 14.4886V14.7869C98.6988 14.7869 97.5101 14.7443 97.1705 14.7443C96.8733 14.7443 95.6846 14.7869 95.3025 14.7869V14.4886C95.9393 14.3608 96.2789 14.0625 96.2789 13.4659V4.94315C96.2789 4.43178 95.9817 4.09087 95.3025 3.96303V3.62212C95.6846 3.62212 96.8308 3.66474 97.1705 3.66474C97.7224 3.66474 99.2507 3.57951 99.8451 3.57951C102.52 3.57951 104.006 4.68746 104.006 6.56246C104.006 8.05394 102.902 9.03405 101.204 9.46019C101.204 9.46019 101.586 9.67326 101.968 10.142C102.435 10.696 103.751 12.571 104.26 13.2102C104.77 13.8494 105.449 14.5738 106.171 14.5738V14.8295C105.831 14.9147 105.279 14.9573 104.855 14.9573C103.963 14.9573 103.241 14.6164 102.52 13.7642C101.925 13.0397 100.864 11.463 100.27 10.696C99.8876 10.1846 99.4206 9.8011 98.5715 9.67326C98.4017 9.63064 98.2318 9.63064 98.062 9.58803V13.4659ZM98.062 8.94883C98.4017 8.99144 98.9536 9.03405 99.463 9.03405C101.543 9.03405 102.18 7.84087 102.18 6.77553C102.18 5.28405 101.161 4.34655 99.3781 4.34655C98.996 4.34655 98.4441 4.38917 98.062 4.4744V8.94883ZM46.8619 14.4886C47.5836 14.3181 47.9657 13.8494 48.2204 13.2528L51.7866 4.64485C51.9564 4.30394 52.1262 3.57951 52.1262 3.57951H53.1452C53.1452 3.57951 53.315 4.30394 53.4848 4.68746L57.2632 13.2954C57.518 13.892 57.8151 14.3181 58.5793 14.4886V14.7869C58.1548 14.7869 56.9236 14.7443 56.6264 14.7443C56.3292 14.7443 55.1405 14.7869 54.716 14.7869V14.4886C55.2679 14.3608 55.4377 14.0625 55.4377 13.8068C55.4377 13.5937 55.3528 13.2954 55.2254 13.0397L54.4188 11.2073H50.2582L49.5365 13.0823C49.4516 13.2954 49.3667 13.5937 49.3667 13.8068C49.3667 14.1051 49.5365 14.3608 50.1309 14.5312V14.8295C49.7488 14.8295 48.7723 14.7869 48.5601 14.7869L46.9468 14.8295L46.8619 14.4886ZM53.9518 10.3125L52.1687 6.17894L50.513 10.3125H53.9518ZM82.184 14.4886C82.9058 14.3181 83.2879 13.8494 83.5426 13.2528L87.1088 4.64485C87.2786 4.30394 87.4484 3.57951 87.4484 3.57951H88.4673C88.4673 3.57951 88.6371 4.30394 88.8069 4.68746L92.5854 13.2954C92.8401 13.892 93.1373 14.3181 93.9015 14.4886V14.7869C93.4769 14.7869 92.2458 14.7443 91.9486 14.7443C91.6514 14.7443 90.4627 14.7869 90.0381 14.7869V14.4886C90.59 14.3608 90.7598 14.0625 90.7598 13.8068C90.7598 13.5937 90.6749 13.2954 90.5476 13.0397L89.7409 11.2073H85.5804L84.8587 13.0823C84.7738 13.2954 84.6889 13.5937 84.6889 13.8068C84.6889 14.1051 84.8587 14.3608 85.453 14.5312V14.8295C85.0709 14.8295 84.0945 14.7869 83.8822 14.7869L82.2689 14.8295V14.4886H82.184ZM89.2315 10.3125L87.4484 6.17894L85.7927 10.3125H89.2315Z" fill="black"/>
<path d="M0.501953 0.170532H25.3378V9.58815C25.3378 13.8921 23.7246 23.0541 13.026 29.8722C13.026 29.8722 1.3935 25.0143 0.501953 9.58815V0.170532Z" fill="black"/>
<path d="M12.9835 30L12.8986 29.9574C12.8137 29.9148 1.22358 24.8864 0.332031 9.58807V0H25.4651V9.54545C25.4651 13.2955 24.2764 22.8409 13.0684 29.9148L12.9835 30ZM0.629213 0.298295V9.54545C1.4783 24.0341 12.007 29.233 12.9835 29.6591C23.9792 22.6278 25.1679 13.2528 25.1679 9.54545V0.298295H0.629213Z" fill="black"/>
<path d="M19.3094 12.2726C19.3094 12.2726 19.0971 12.9971 18.1207 12.2726L14.7243 12.1874C14.7243 12.1874 14.2997 12.3153 14.2148 11.8465C14.2148 11.8465 14.2997 10.909 14.2573 10.8238C14.2573 10.8238 14.2573 10.5681 13.8327 10.5681C13.8327 10.5681 13.1535 10.6533 13.111 10.0567C13.111 10.0567 12.9837 9.41753 13.9177 9.41753C13.9177 9.41753 14.2148 9.54537 14.2573 9.16185C14.2573 9.16185 14.2148 6.51981 14.2573 6.34935C14.2573 6.34935 14.3422 6.09367 13.8752 6.05106C13.8752 6.05106 13.1959 6.1789 13.111 5.75276C13.111 5.75276 13.0686 5.07094 13.5356 5.02833C13.5356 5.02833 14.0875 5.07094 14.1724 4.9431C14.1724 4.9431 14.2997 5.02833 14.2573 4.55958V3.70731C14.2573 3.70731 14.2997 3.49424 14.6818 3.49424C14.6818 3.49424 15.3187 3.53685 15.4036 3.49424C15.4036 3.49424 15.5309 3.32378 15.5734 3.23856C15.5734 3.23856 15.913 3.23856 15.9555 3.28117C15.9555 3.28117 16.4225 3.62208 18.2905 3.49424C18.2905 3.49424 18.5877 3.49424 18.6301 3.57946C18.6301 3.57946 18.9697 3.83515 19.182 3.57946C19.182 3.57946 19.4792 3.53685 20.3707 3.53685C20.3707 3.53685 21.3472 3.79253 22.0265 3.23856L22.2387 3.28117C22.2387 3.28117 22.5359 3.74992 22.7057 3.62208C22.7057 3.62208 23.3001 3.57947 23.4275 3.66469C23.4275 3.66469 23.6397 3.96299 23.5124 4.77265C23.5124 4.77265 23.385 5.11356 23.9794 5.11356C23.9794 5.11356 24.6586 4.98572 24.5737 5.62492C24.5737 5.62492 24.7436 6.34935 23.6397 6.22151C23.6397 6.22151 23.5124 6.43458 23.5124 6.56242C23.5124 6.56242 23.4699 8.86356 23.4699 9.11924C23.4699 9.11924 23.4275 9.46015 23.9369 9.46015C23.9369 9.46015 24.5737 9.41753 24.6162 10.0141C24.6162 10.0141 24.7011 10.7812 23.7671 10.6533C23.7671 10.6533 23.4699 10.6959 23.4275 10.8664L23.385 11.8891C23.385 11.8891 23.4275 12.4005 22.8331 12.2726C22.7482 12.2726 19.6915 12.3153 19.4367 12.2726C19.4792 12.1874 19.3518 12.1874 19.3094 12.2726ZM12.8138 15.6391C12.8138 15.6391 12.9412 15.5965 12.9837 15.4687C12.9837 15.4687 13.4082 15.4261 13.4507 15.3834L14.7667 15.4687C14.7667 15.4687 16.0828 15.5539 16.6347 15.1704C16.6347 15.1704 16.847 15.1704 16.9744 15.213C16.9744 15.213 17.2716 15.2556 17.314 15.3834H18.0782C18.0782 15.3834 18.5027 15.5113 18.5027 15.8096V16.1931C18.5027 16.1931 18.4178 16.9175 18.6301 16.9601H19.2245C19.2245 16.9601 19.6915 17.1732 19.649 17.4715C19.649 17.4715 19.649 17.8976 19.2245 17.9403C19.2245 17.9403 18.7999 18.0681 18.6726 18.0255C18.6726 18.0255 18.5452 18.1959 18.5027 18.4516L18.4603 21.0937C18.4603 21.0937 18.4178 21.392 18.8424 21.3494C18.8424 21.3494 19.4792 21.3067 19.649 21.6476C19.649 21.6476 19.8188 22.2442 19.4792 22.3295L19.2245 22.4573L18.715 22.5425C18.715 22.5425 18.5027 22.5851 18.4603 22.9261V23.6505C18.4603 23.6505 18.4603 24.1192 18.1207 24.1192L17.5687 24.1619C17.5687 24.1619 17.4414 24.2897 17.1442 24.2045C17.1442 24.2045 13.7054 24.2471 13.6205 24.2471L13.1959 24.3323C13.1959 24.3323 12.7714 24.7158 12.3893 24.4175L12.0921 24.2045C12.0921 24.2045 11.8798 24.2471 11.7949 24.2471C11.71 24.2045 8.01648 24.2897 8.01648 24.2897C8.01648 24.2897 7.20984 24.3749 7.16739 24.1192C7.16739 24.1192 7.08248 23.0965 7.12493 22.9687C7.12493 22.9687 7.12493 22.6704 6.95512 22.6278C6.95512 22.6278 6.14848 22.5851 6.14848 22.4999C6.14848 22.4999 5.72394 22.2016 5.8513 21.9033C5.8513 21.9033 5.97866 21.5198 6.40321 21.4772C6.40321 21.4772 7.04003 21.5624 7.04003 21.392C7.04003 21.392 7.08248 21.2641 7.08248 21.0511C7.08248 21.0511 7.12493 18.6647 7.08248 18.4942C7.08248 18.4942 7.12493 18.1959 6.87021 18.1959C6.87021 18.1959 6.57303 18.2812 6.40321 18.1533C6.40321 18.1533 5.93621 18.1533 5.80884 17.8124C5.80884 17.8124 5.72394 17.5567 5.8513 17.3863C5.8513 17.3863 6.06357 16.9601 6.70039 17.088C6.70039 17.088 7.04003 17.1732 7.12493 16.9175V15.9374C7.12493 15.9374 7.04003 15.6817 7.54948 15.5113C7.54948 15.5113 8.1863 15.6817 8.39857 15.3834C8.39857 15.3834 8.61084 14.9573 8.82311 15.2556C8.82311 15.2556 9.2052 15.6391 10.2666 15.5965C10.2666 15.5965 12.0921 15.4687 12.1346 15.5113C12.1346 15.5113 12.5591 15.5965 12.6865 15.7244L12.8138 15.6391ZM7.33721 12.2726C7.33721 12.2726 7.12493 12.9971 6.14848 12.2726L2.75212 12.1874C2.75212 12.1874 2.32757 12.3153 2.24267 11.8465C2.24267 11.8465 2.32757 10.909 2.28512 10.8238C2.28512 10.8238 2.32757 10.5681 1.86058 10.5681C1.86058 10.5681 1.1813 10.6533 1.13885 10.0567C1.13885 10.0567 1.01149 9.41753 1.94548 9.41753C1.94548 9.41753 2.24267 9.54537 2.28512 9.16185C2.28512 9.16185 2.24267 6.51981 2.24267 6.34935C2.24267 6.34935 2.32757 6.09367 1.86058 6.05106C1.86058 6.05106 1.1813 6.1789 1.09639 5.75276C1.09639 5.75276 1.05394 5.07094 1.47848 5.02833C1.47848 5.02833 2.03039 5.07094 2.1153 4.9431C2.1153 4.9431 2.24267 5.02833 2.20021 4.51697L2.24267 3.70731C2.24267 3.70731 2.28512 3.49424 2.62476 3.49424C2.62476 3.49424 3.26157 3.53685 3.34648 3.49424C3.34648 3.49424 3.47385 3.32378 3.5163 3.23856C3.5163 3.23856 3.85594 3.23856 3.89839 3.28117C3.89839 3.28117 4.36539 3.62208 6.23339 3.49424C6.23339 3.49424 6.53057 3.49424 6.57303 3.57946C6.57303 3.57946 6.91266 3.83515 7.12493 3.57946C7.12493 3.57946 7.42212 3.53685 8.35611 3.53685C8.35611 3.53685 9.33257 3.79253 10.0118 3.23856L10.2241 3.28117C10.2241 3.28117 10.5213 3.74992 10.6911 3.62208C10.6911 3.62208 11.2855 3.57947 11.4128 3.66469C11.4128 3.66469 11.6251 3.96299 11.4977 4.77265C11.4977 4.77265 11.3704 5.11356 11.9647 5.11356C11.9647 5.11356 12.644 4.98572 12.5591 5.62492C12.5591 5.62492 12.7289 6.34935 11.6251 6.22151C11.6251 6.22151 11.4977 6.43458 11.4977 6.56242C11.4977 6.56242 11.4977 8.86356 11.4553 9.11924C11.4553 9.11924 11.4553 9.46015 11.9223 9.46015C11.9223 9.46015 12.5591 9.41753 12.6016 10.0141C12.6016 10.0141 12.6865 10.7812 11.7525 10.6533C11.7525 10.6533 11.4553 10.6959 11.4128 10.8664L11.3704 11.8891C11.3704 11.8891 11.3704 12.4005 10.8185 12.2726C10.7336 12.2726 7.67684 12.3153 7.42212 12.2726C7.50703 12.1874 7.37966 12.1874 7.33721 12.2726Z" fill="white"/>
<path d="M19.3097 12.2726C19.3097 12.2726 19.0974 12.9971 18.121 12.2726L14.7246 12.1874C14.7246 12.1874 14.3 12.3153 14.2151 11.8465C14.2151 11.8465 14.3 10.909 14.2576 10.8238C14.2576 10.8238 14.2576 10.5681 13.833 10.5681C13.833 10.5681 13.1538 10.6533 13.1113 10.0567C13.1113 10.0567 12.984 9.41753 13.918 9.41753C13.918 9.41753 14.2151 9.54537 14.2576 9.16185C14.2576 9.16185 14.2151 6.51981 14.2576 6.34935C14.2576 6.34935 14.3425 6.09367 13.8755 6.05106C13.8755 6.05106 13.1962 6.1789 13.1113 5.75276C13.1113 5.75276 13.0689 5.07094 13.5359 5.02833C13.5359 5.02833 14.0878 5.07094 14.1727 4.9431C14.1727 4.9431 14.3 5.02833 14.2576 4.55958V3.70731C14.2576 3.70731 14.3 3.49424 14.6821 3.49424C14.6821 3.49424 15.319 3.53685 15.4039 3.49424C15.4039 3.49424 15.5312 3.32378 15.5737 3.23856C15.5737 3.23856 15.9133 3.23856 15.9558 3.28117C15.9558 3.28117 16.4228 3.62208 18.2908 3.49424C18.2908 3.49424 18.5879 3.49424 18.6304 3.57946C18.6304 3.57946 18.97 3.83515 19.1823 3.57946C19.1823 3.57946 19.4795 3.53685 20.371 3.53685C20.371 3.53685 21.3475 3.79253 22.0268 3.23856L22.239 3.28117C22.239 3.28117 22.5362 3.74992 22.706 3.62208C22.706 3.62208 23.3004 3.57947 23.4278 3.66469C23.4278 3.66469 23.64 3.96299 23.5127 4.77265C23.5127 4.77265 23.3853 5.11356 23.9797 5.11356C23.9797 5.11356 24.6589 4.98572 24.574 5.62492C24.574 5.62492 24.7439 6.34935 23.64 6.22151C23.64 6.22151 23.5127 6.43458 23.5127 6.56242C23.5127 6.56242 23.4702 8.86356 23.4702 9.11924C23.4702 9.11924 23.4278 9.46015 23.9372 9.46015C23.9372 9.46015 24.574 9.41753 24.6165 10.0141C24.6165 10.0141 24.7014 10.7812 23.7674 10.6533C23.7674 10.6533 23.4702 10.6959 23.4278 10.8664L23.3853 11.8891C23.3853 11.8891 23.4278 12.4005 22.8334 12.2726C22.7485 12.2726 19.6918 12.3153 19.437 12.2726C19.4795 12.1874 19.3521 12.1874 19.3097 12.2726Z" fill="black"/>
<path d="M19.3097 12.2726C19.3097 12.2726 19.0974 12.9971 18.121 12.2726L14.7246 12.1874C14.7246 12.1874 14.3 12.3153 14.2151 11.8465C14.2151 11.8465 14.3 10.909 14.2576 10.8238C14.2576 10.8238 14.2576 10.5681 13.833 10.5681C13.833 10.5681 13.1538 10.6533 13.1113 10.0567C13.1113 10.0567 12.984 9.41753 13.918 9.41753C13.918 9.41753 14.2151 9.54537 14.2576 9.16185C14.2576 9.16185 14.2151 6.51981 14.2576 6.34935C14.2576 6.34935 14.3425 6.09367 13.8755 6.05106C13.8755 6.05106 13.1962 6.1789 13.1113 5.75276C13.1113 5.75276 13.0689 5.07094 13.5359 5.02833C13.5359 5.02833 14.0878 5.07094 14.1727 4.9431C14.1727 4.9431 14.3 5.02833 14.2576 4.55958V3.70731C14.2576 3.70731 14.3 3.49424 14.6821 3.49424C14.6821 3.49424 15.319 3.53685 15.4039 3.49424C15.4039 3.49424 15.5312 3.32378 15.5737 3.23856C15.5737 3.23856 15.9133 3.23856 15.9558 3.28117C15.9558 3.28117 16.4228 3.62208 18.2908 3.49424C18.2908 3.49424 18.5879 3.49424 18.6304 3.57946C18.6304 3.57946 18.97 3.83515 19.1823 3.57946C19.1823 3.57946 19.4795 3.53685 20.371 3.53685C20.371 3.53685 21.3475 3.79253 22.0268 3.23856L22.239 3.28117C22.239 3.28117 22.5362 3.74992 22.706 3.62208C22.706 3.62208 23.3004 3.57947 23.4278 3.66469C23.4278 3.66469 23.64 3.96299 23.5127 4.77265C23.5127 4.77265 23.3853 5.11356 23.9797 5.11356C23.9797 5.11356 24.6589 4.98572 24.574 5.62492C24.574 5.62492 24.7439 6.34935 23.64 6.22151C23.64 6.22151 23.5127 6.43458 23.5127 6.56242C23.5127 6.56242 23.4702 8.86356 23.4702 9.11924C23.4702 9.11924 23.4278 9.46015 23.9372 9.46015C23.9372 9.46015 24.574 9.41753 24.6165 10.0141C24.6165 10.0141 24.7014 10.7812 23.7674 10.6533C23.7674 10.6533 23.4702 10.6959 23.4278 10.8664L23.3853 11.8891C23.3853 11.8891 23.4278 12.4005 22.8334 12.2726C22.7485 12.2726 19.6918 12.3153 19.437 12.2726C19.4795 12.1874 19.3521 12.1874 19.3097 12.2726V12.2726Z" stroke="black" stroke-width="0.164"/>
<path d="M15.5305 3.9205C15.5305 3.9205 15.5729 4.34664 15.5729 4.43187C15.5729 4.51709 15.5305 10.2699 15.5305 10.2699C15.5305 10.2699 15.5729 10.6961 15.1908 10.9518C15.1908 10.9518 15.1059 10.9944 15.0635 10.6961L15.1059 4.64493C15.1059 4.64493 15.1484 3.9205 15.5305 3.9205Z" fill="white"/>
<path d="M15.5305 3.9205C15.5305 3.9205 15.5729 4.34664 15.5729 4.43187C15.5729 4.51709 15.5305 10.2699 15.5305 10.2699C15.5305 10.2699 15.5729 10.6961 15.1908 10.9518C15.1908 10.9518 15.1059 10.9944 15.0635 10.6961L15.1059 4.64493C15.1059 4.64493 15.1484 3.9205 15.5305 3.9205V3.9205Z" stroke="black" stroke-width="0.1722"/>
<path d="M14.8516 10.9942C14.8516 10.9942 14.8941 5.28402 14.8516 5.1988V5.28402C14.8516 5.28402 14.8092 4.30391 15.0639 3.87777C15.0639 3.87777 14.979 3.53687 14.512 3.963V4.77266C14.512 4.77266 14.512 5.24141 14.0874 5.1988C14.0874 5.1988 13.6204 5.1988 13.3657 5.41186C13.3657 5.41186 13.2383 5.838 13.7053 5.79539C13.7053 5.79539 14.4271 5.79539 14.4695 6.09368L14.4271 9.16186C14.4271 9.16186 14.5969 9.67323 14.0025 9.67323C14.0025 9.67323 13.3232 9.63061 13.3232 10.0568C13.3232 10.0568 13.4506 10.3977 14.045 10.3124C14.045 10.3124 14.4695 10.3977 14.4695 10.7812V11.5482C14.4695 11.5482 14.4271 11.8465 14.8092 11.8891H17.9508C17.9508 11.8891 18.1206 11.8891 18.1206 11.7187C18.1206 11.7187 18.1206 11.5482 17.8659 11.5482L15.3186 11.5056C15.3186 11.5056 14.8941 11.6335 14.8516 10.9942Z" fill="white"/>
<path d="M15.4463 10.9943C15.4463 10.9943 15.3614 11.2926 15.6586 11.2074H17.7388L18.2907 11.3352C18.2907 11.3352 18.8851 11.2074 18.2907 10.8665H16.2954C16.2954 10.8665 15.9133 10.7813 15.8284 10.7387C15.8284 10.7387 15.6161 10.6534 15.4463 10.9943Z" fill="white"/>
<path d="M15.4463 10.9943C15.4463 10.9943 15.3614 11.2926 15.6586 11.2074H17.7388L18.2907 11.3352C18.2907 11.3352 18.8851 11.2074 18.2907 10.8665H16.2954C16.2954 10.8665 15.9133 10.7813 15.8284 10.7387C15.8284 10.7387 15.6161 10.6534 15.4463 10.9943V10.9943Z" stroke="black" stroke-width="0.1722"/>
<path d="M18.8844 11.2927C18.8844 11.2927 18.5023 11.2927 18.5448 11.804C18.5448 11.804 18.5873 12.1876 18.9693 12.1876C18.9693 12.1876 19.309 12.145 19.309 11.7188C19.309 11.7188 19.0543 11.2075 18.8844 11.2927ZM19.1816 11.0796C19.1816 11.0796 19.3514 10.8665 19.4788 10.8665C19.4788 10.8665 21.4742 11.037 21.8138 10.8239C21.8138 10.8239 22.111 10.7813 22.1959 10.8239C22.1959 10.8239 22.4931 11.0796 22.4931 11.2075C22.4931 11.2075 22.4931 11.3779 22.111 11.2927H19.7335C19.7335 11.2927 19.0967 11.4631 19.1816 11.0796Z" fill="white"/>
<path d="M19.1816 11.0796C19.1816 11.0796 19.3514 10.8665 19.4788 10.8665C19.4788 10.8665 21.4742 11.037 21.8138 10.8239C21.8138 10.8239 22.111 10.7813 22.1959 10.8239C22.1959 10.8239 22.4931 11.0796 22.4931 11.2075C22.4931 11.2075 22.4931 11.3779 22.111 11.2927H19.7335C19.7335 11.2927 19.0967 11.4631 19.1816 11.0796V11.0796Z" stroke="black" stroke-width="0.1722"/>
<path d="M19.4367 11.7188C19.4367 11.7188 19.4367 11.5484 19.7339 11.5484H22.5359C22.5359 11.5484 22.7906 11.6762 22.7906 11.2075C22.7906 11.2075 22.8755 8.99155 22.918 6.56257C22.918 5.83814 22.9604 5.0711 22.918 4.38928C22.918 4.38928 22.8331 4.09098 22.7906 4.00576C22.7906 4.00576 22.7906 3.66485 23.1302 3.79269C23.1302 3.79269 23.4274 3.79269 23.3425 4.26144V4.94326C23.3425 4.94326 23.3001 5.24155 23.8095 5.15632C23.8095 5.15632 24.3614 5.24155 24.3614 5.45462C24.3614 5.45462 24.5312 5.88076 23.8944 5.83814H23.4274C23.4274 5.83814 23.2152 5.96598 23.3001 6.22167L23.2576 9.16201C23.2576 9.16201 23.2152 9.67337 23.6822 9.63076C23.6822 9.63076 24.1916 9.63076 24.2765 9.7586C24.2765 9.7586 24.6162 10.27 23.8944 10.2273C23.8944 10.2273 23.4274 10.2273 23.3425 10.27C23.3425 10.27 23.2576 10.3552 23.2152 11.3353C23.2152 11.3353 23.2576 11.8893 22.8331 11.8467C22.8331 11.8467 20.0311 11.8893 19.7763 11.8467C19.7763 11.8893 19.4792 11.9745 19.4367 11.7188ZM15.8281 3.75008L15.7432 10.2273C15.7432 10.2273 15.7432 10.5256 16.2102 10.5683C16.2102 10.5683 16.8045 10.6109 16.9319 10.5683H18.2904C18.2904 10.5683 18.5452 10.8239 18.5452 10.483C18.5452 10.483 18.715 5.24155 18.6301 4.1336C18.6301 4.1336 18.6301 3.66485 18.248 3.66485C18.248 3.66485 16.7196 3.79269 16.5923 3.66485L16.0403 3.57962C16.0403 3.57962 15.7856 3.57962 15.8281 3.75008Z" fill="white"/>
<path d="M19.0126 4.09092C19.0126 4.09092 18.9701 7.1591 18.9701 7.24433L18.9277 9.80115L18.8428 10.696C18.8428 10.696 18.9701 10.8665 19.055 10.7386C19.055 10.7386 19.6919 10.5682 20.1164 10.6534C20.1164 10.6534 21.39 10.7813 21.6872 10.5682C21.6872 10.5682 21.8995 10.6534 21.942 10.3551C21.942 10.3551 22.0269 4.68751 21.9844 4.60228C21.9844 4.60228 22.0693 3.79262 22.0269 3.7074C22.0269 3.7074 22.0269 3.53694 21.6872 3.7074C21.6872 3.7074 21.7297 3.87785 19.8192 3.79262C19.7768 3.79262 19.0126 3.75001 19.0126 4.09092ZM22.1967 4.00569V10.3977C22.1967 10.3977 22.3665 10.9517 22.6212 10.9091C22.6212 10.9091 22.6637 10.7813 22.6637 10.5682L22.7486 4.47444C22.7486 4.47444 22.5363 3.53694 22.1967 4.00569Z" fill="white"/>
<path d="M22.1963 4.00567V10.3977C22.1963 10.3977 22.3661 10.9517 22.6208 10.9091C22.6208 10.9091 22.6633 10.7812 22.6633 10.5682L22.7482 4.47442C22.7482 4.47442 22.5359 3.53692 22.1963 4.00567V4.00567Z" stroke="black" stroke-width="0.1722"/>
<path d="M19.7336 5.92323C19.6911 5.75278 20.0732 5.75278 20.0732 5.75278L20.2855 5.79539C20.4128 5.79539 20.5827 5.83801 20.5827 5.83801C20.71 6.05108 20.4977 6.17892 20.4977 6.17892L20.4128 6.4346V8.56528C20.4553 8.65051 20.6251 8.86357 20.6251 8.86357C20.6251 9.03403 20.4128 8.99142 20.4128 8.99142H19.8185C19.6487 8.99142 19.6911 8.77835 19.6911 8.77835C19.9034 8.69312 19.9458 8.3096 19.9458 8.3096V6.30676L19.7336 5.92323ZM17.0165 7.79823L16.974 8.43744L17.1438 8.73573C17.2712 8.90619 17.0589 9.03403 17.0589 9.03403L16.4221 8.9488C16.2948 8.90619 16.4221 8.69312 16.4221 8.69312C16.5919 8.60789 16.5919 8.35221 16.5919 8.35221V6.30676C16.5919 6.22153 16.4221 6.00846 16.4221 6.00846C16.2948 6.00846 16.3372 5.79539 16.3372 5.79539C16.3797 5.71017 16.7193 5.75278 16.7193 5.75278H17.5684C18.375 6.00846 18.2477 6.60505 18.2477 6.60505C18.2901 7.20164 17.6958 7.41471 17.6958 7.41471L17.6533 7.75562L18.2477 8.69312C18.3326 8.77835 18.3326 8.86357 18.3326 8.86357C18.2477 9.07664 17.908 8.86357 17.908 8.86357L17.1863 7.71301C17.1014 7.62778 17.0165 7.79823 17.0165 7.79823ZM17.0165 6.17892V7.24426C17.3986 7.54255 17.6108 7.11642 17.6108 7.11642C18.1203 6.64767 17.6108 6.17892 17.5259 6.05108C17.441 5.92323 17.0589 6.05108 17.0589 6.05108L17.0165 6.17892ZM12.8135 15.6391C12.8135 15.6391 12.9408 15.5965 12.9833 15.4687C12.9833 15.4687 13.4078 15.4261 13.4503 15.3835L14.7664 15.4687C14.7664 15.4687 16.0825 15.5539 16.6344 15.1704C16.6344 15.1704 16.8467 15.1704 16.974 15.213C16.974 15.213 17.2712 15.2556 17.3137 15.3835H18.0778C18.0778 15.3835 18.5024 15.5113 18.5024 15.8096V16.1931C18.5024 16.1931 18.4175 16.9176 18.6297 16.9602H19.2241C19.2241 16.9602 19.6911 17.1732 19.6487 17.4715C19.6487 17.4715 19.6487 17.8977 19.2241 17.9403C19.2241 17.9403 18.7996 18.0681 18.6722 18.0255C18.6722 18.0255 18.5448 18.196 18.5024 18.4516L18.4599 21.0937C18.4599 21.0937 18.4175 21.392 18.842 21.3494C18.842 21.3494 19.4788 21.3068 19.6487 21.6477C19.6487 21.6477 19.8185 22.2443 19.4788 22.3295L19.2241 22.4573L18.7147 22.5426C18.7147 22.5426 18.5024 22.5852 18.4599 22.9261V23.6505C18.4599 23.6505 18.4599 24.1193 18.1203 24.1193L17.5684 24.1619C17.5684 24.1619 17.441 24.2897 17.1438 24.2045C17.1438 24.2045 13.705 24.2471 13.6201 24.2471L13.1956 24.3323C13.1956 24.3323 12.771 24.7158 12.3889 24.4176L12.0918 24.2045C12.0918 24.2045 11.8795 24.2471 11.7946 24.2471C11.7097 24.2045 8.01612 24.2897 8.01612 24.2897C8.01612 24.2897 7.20949 24.3749 7.16703 24.1193C7.16703 24.1193 7.08212 23.0965 7.12458 22.9687C7.12458 22.9687 7.12458 22.6704 6.95476 22.6278C6.95476 22.6278 6.14812 22.5852 6.14812 22.4999C6.14812 22.4999 5.72358 22.2016 5.85094 21.9033C5.85094 21.9033 5.97831 21.5198 6.40285 21.4772C6.40285 21.4772 7.03967 21.5624 7.03967 21.392C7.03967 21.392 7.08212 21.2641 7.08212 21.0511C7.08212 21.0511 7.12458 18.6647 7.08212 18.4943C7.08212 18.4943 7.12458 18.196 6.86985 18.196C6.86985 18.196 6.57267 18.2812 6.40285 18.1533C6.40285 18.1533 5.93585 18.1533 5.80849 17.8124C5.80849 17.8124 5.72358 17.5568 5.85094 17.3863C5.85094 17.3863 6.06321 16.9602 6.70003 17.088C6.70003 17.088 7.03967 17.1732 7.12458 16.9176V15.9374C7.12458 15.9374 7.03967 15.6818 7.54912 15.5113C7.54912 15.5113 8.18594 15.6818 8.39821 15.3835C8.39821 15.3835 8.61048 14.9573 8.82276 15.2556C8.82276 15.2556 9.20485 15.6391 10.2662 15.5965C10.2662 15.5965 12.0918 15.4687 12.1342 15.5113C12.1342 15.5113 12.5588 15.5965 12.6861 15.7244L12.8135 15.6391Z" fill="black"/>
<path d="M12.8135 15.5966C12.8135 15.5966 12.9408 15.554 12.9833 15.4261C12.9833 15.4261 13.4078 15.3835 13.4503 15.3409L14.7664 15.4261C14.7664 15.4261 16.0825 15.5113 16.6344 15.1278C16.6344 15.1278 16.8467 15.1278 16.974 15.1704C16.974 15.1704 17.2712 15.213 17.3137 15.3409H18.0778C18.0778 15.3409 18.5024 15.4687 18.5024 15.767V16.1079C18.5024 16.1079 18.4175 16.8324 18.6298 16.875H19.2241C19.2241 16.875 19.6911 17.088 19.6487 17.3863C19.6487 17.3863 19.6487 17.8125 19.2241 17.8551C19.2241 17.8551 18.7996 17.9829 18.6722 17.9403C18.6722 17.9403 18.5448 18.1108 18.5024 18.3665L18.4599 21.0085C18.4599 21.0085 18.4175 21.3068 18.842 21.2642C18.842 21.2642 19.4788 21.2216 19.6487 21.5625C19.6487 21.5625 19.8185 22.1591 19.4788 22.2443L19.2241 22.3721L18.7147 22.4574C18.7147 22.4574 18.5024 22.5 18.4599 22.8409V23.5653C18.4599 23.5653 18.4599 24.0341 18.1203 24.0341L17.5684 24.0767C17.5684 24.0767 17.441 24.2045 17.1438 24.1193C17.1438 24.1193 13.705 24.1619 13.6201 24.1619L13.1956 24.2471C13.1956 24.2471 12.771 24.6307 12.3889 24.3324L12.0918 24.1193C12.0918 24.1193 11.8795 24.1619 11.7946 24.1619C11.7097 24.1193 8.01612 24.2045 8.01612 24.2045C8.01612 24.2045 7.20949 24.2897 7.16703 24.0341C7.16703 24.0341 7.08212 23.0113 7.12458 22.8835C7.12458 22.8835 7.12458 22.5852 6.95476 22.5426C6.95476 22.5426 6.14812 22.5 6.14812 22.4147C6.14812 22.4147 5.72358 22.1165 5.85094 21.8182C5.85094 21.8182 5.97831 21.4346 6.40285 21.392C6.40285 21.392 7.03967 21.4772 7.03967 21.3068C7.03967 21.3068 7.08212 21.179 7.08212 20.9659C7.08212 20.9659 7.12458 18.5795 7.08212 18.4091C7.08212 18.4091 7.12458 18.1108 6.86985 18.1108C6.86985 18.1108 6.57267 18.196 6.40285 18.0682C6.40285 18.0682 5.93585 18.0682 5.80849 17.7272C5.80849 17.7272 5.72358 17.4716 5.85094 17.3011C5.85094 17.3011 6.06321 16.875 6.70003 17.0028C6.70003 17.0028 7.08212 17.088 7.12458 16.8324V15.8523C7.12458 15.8523 7.03967 15.5966 7.54912 15.4261C7.54912 15.4261 8.18594 15.5966 8.39821 15.2983C8.39821 15.2983 8.61049 14.8721 8.82276 15.1704C8.82276 15.1704 9.20485 15.554 10.2662 15.5113C10.2662 15.5113 12.0918 15.3835 12.1342 15.4261C12.1342 15.4261 12.5588 15.5113 12.6861 15.6392L12.8135 15.5966V15.5966Z" stroke="black" stroke-width="0.164"/>
<path d="M13.3231 23.5653C13.3231 23.5653 13.5779 23.4374 13.7477 23.4801C13.9175 23.5227 16.2525 23.4374 16.2525 23.4374C16.2525 23.4374 17.2714 23.5227 17.4412 23.3522L17.696 23.267C17.696 23.267 17.7809 23.1391 17.7809 22.9687V22.2443L17.8233 22.0312V16.4488C17.8233 16.4488 17.9082 16.0227 17.6535 15.767C17.6535 15.767 17.6535 15.5965 17.7384 15.6391C17.8233 15.6818 17.7809 15.6391 17.7809 15.6391C17.7809 15.6391 18.1205 15.5539 18.2054 15.6818C18.2054 15.6818 18.3752 16.1505 18.2054 16.4488C18.2054 16.4488 18.163 17.0454 18.4601 17.0454C18.4601 17.0454 18.5875 17.1732 18.7998 17.088C18.7998 17.088 19.3092 17.1306 19.3092 17.3011C19.3092 17.3011 19.3092 17.6846 18.9696 17.5994L18.5026 17.642C18.5026 17.642 18.163 17.7272 18.2054 18.0681C18.2479 18.4516 18.2054 21.2215 18.2054 21.2215C18.2054 21.2215 18.2054 21.5624 18.7149 21.5198C18.7149 21.5198 19.3517 21.4772 19.3517 21.6903C19.3517 21.6903 19.5215 22.0738 19.0545 22.1164C19.0545 22.1164 18.2054 22.0738 18.2903 22.3295C18.2903 22.3295 18.2479 22.8835 18.2054 23.0113C18.2054 23.0113 18.2903 23.4801 18.2054 23.5653C18.2054 23.5653 18.163 23.821 17.6111 23.7784C17.6111 23.7784 14.1722 23.7784 13.6203 23.821C13.5779 23.9062 13.2382 23.8636 13.3231 23.5653ZM12.7288 23.1818C12.7288 23.1818 13.0684 23.2244 13.0684 23.5653C13.0684 23.9062 13.0684 24.0766 12.8986 24.1193C12.6863 24.1619 12.4741 24.0766 12.4316 23.821C12.3467 23.5653 12.4316 23.267 12.7288 23.1818Z" fill="white"/>
<path d="M13.1111 23.0114C13.1111 23.0114 13.4507 22.7557 13.6205 22.7983C13.6205 22.7983 15.4461 22.9262 15.998 22.8409C16.5499 22.7557 16.2102 22.7983 16.2102 22.7983C16.2102 22.7983 16.6772 22.7983 16.8471 22.6279C16.8471 22.6279 16.9744 22.5853 17.0593 22.7131L17.3565 23.054C17.3565 23.054 17.3565 23.2671 17.0169 23.2244C17.0169 23.2244 13.7479 23.2244 13.6205 23.2671C13.663 23.2671 13.0686 23.3523 13.1111 23.0114Z" fill="white"/>
<path d="M13.1111 23.0114C13.1111 23.0114 13.4507 22.7557 13.6205 22.7983C13.6205 22.7983 15.4461 22.9262 15.998 22.8409C16.5499 22.7557 16.2102 22.7983 16.2102 22.7983C16.2102 22.7983 16.6772 22.7983 16.8471 22.6279C16.8471 22.6279 16.9744 22.5853 17.0593 22.7131L17.3565 23.054C17.3565 23.054 17.3565 23.2671 17.0169 23.2244C17.0169 23.2244 13.7479 23.2244 13.6205 23.2671C13.663 23.2671 13.0686 23.3523 13.1111 23.0114V23.0114Z" stroke="black" stroke-width="0.1722"/>
<path d="M8.35572 15.8523C8.35572 15.8523 8.48309 15.8523 8.48309 16.108L8.44063 22.2017C8.44063 22.2017 8.48309 22.5853 8.14345 22.8836C8.14345 22.8836 7.97363 23.0966 7.97363 22.7557L8.05854 16.5341C8.05854 16.5341 8.05854 16.0654 8.35572 15.8523Z" fill="white"/>
<path d="M8.35572 15.8523C8.35572 15.8523 8.48309 15.8523 8.48309 16.108L8.44063 22.2017C8.44063 22.2017 8.48309 22.5853 8.14345 22.8836C8.14345 22.8836 7.97363 23.0966 7.97363 22.7557L8.05854 16.5341C8.05854 16.5341 8.05854 16.0654 8.35572 15.8523V15.8523Z" stroke="black" stroke-width="0.1722"/>
<path d="M8.01671 15.895C8.01671 15.895 7.76198 16.3211 7.80443 16.4489V23.1819C7.80443 23.1819 7.76198 23.6507 8.14407 23.5228C8.14407 23.5228 11.6678 23.4376 11.9225 23.5228C11.9225 23.5228 12.2622 23.5654 12.1348 23.7359C12.1348 23.7359 12.1348 23.8637 11.9225 23.8211C11.9225 23.8211 10.2668 23.9916 8.73843 23.9063C8.73843 23.9063 7.71952 23.9489 7.67707 23.8637C7.67707 23.8637 7.50725 23.8211 7.50725 23.2671C7.50725 23.2671 7.50725 22.7132 7.4648 22.6279C7.4648 22.6279 7.50725 22.3296 6.9978 22.287C6.9978 22.287 6.27607 22.4149 6.27607 21.9887C6.27607 21.9887 6.36098 21.6904 7.08271 21.733C7.08271 21.733 7.59216 21.8183 7.4648 21.3921L7.50725 18.4092C7.50725 18.4092 7.59216 17.8978 7.21007 17.8552H6.78552C6.78552 17.8552 6.19116 17.8552 6.23362 17.5143C6.23362 17.5143 6.44589 17.1734 7.04025 17.216C7.04025 17.216 7.4648 17.3012 7.50725 16.7899C7.50725 16.7899 7.50725 15.7671 7.71952 15.7245C7.67707 15.7245 8.18652 15.7671 8.01671 15.895Z" fill="white"/>
<path d="M8.6108 22.5852C8.6108 22.5852 8.90798 22.8835 9.37498 22.8835L12.0921 22.9261C12.0921 22.9261 12.3893 22.9688 12.3893 23.0966C12.3893 23.0966 12.3468 23.3523 11.9647 23.2671L8.65326 23.2244L8.27116 23.2671C8.27116 23.2671 8.01644 23.2244 8.39853 22.7557L8.6108 22.5852Z" fill="white"/>
<path d="M8.6108 22.5852C8.6108 22.5852 8.90798 22.8835 9.37498 22.8835L12.0921 22.9261C12.0921 22.9261 12.3893 22.9688 12.3893 23.0966C12.3893 23.0966 12.3468 23.3523 11.9647 23.2671L8.65326 23.2244L8.27116 23.2671C8.27116 23.2671 8.01644 23.2244 8.39853 22.7557L8.6108 22.5852V22.5852Z" stroke="black" stroke-width="0.1722"/>
<path d="M17.0586 22.3296C17.0586 22.3296 17.3133 22.7983 17.3982 22.8409C17.3982 22.8409 17.6105 23.0966 17.5681 22.6279L17.6105 16.7898C17.6105 16.7898 17.5681 16.5767 17.6105 16.2784L17.3558 15.8523C17.3558 15.8523 17.101 15.6392 17.101 15.9801V22.1591L17.0586 22.3296Z" fill="white"/>
<path d="M17.0586 22.3296C17.0586 22.3296 17.3133 22.7983 17.3982 22.8409C17.3982 22.8409 17.6105 23.0966 17.5681 22.6279L17.6105 16.7898C17.6105 16.7898 17.5681 16.5767 17.6105 16.2784L17.3558 15.8523C17.3558 15.8523 17.101 15.6392 17.101 15.9801V22.1591L17.0586 22.3296V22.3296Z" stroke="black" stroke-width="0.1722"/>
<path d="M12.6016 19.5597C12.6016 19.5597 12.6016 20.0285 12.5592 20.4972C12.5167 20.7529 12.6441 21.9461 12.5592 22.5427C12.5592 22.5427 12.5592 22.7558 12.1346 22.5853C12.1346 22.5853 9.54492 22.6279 9.50246 22.5427C9.50246 22.5427 8.78074 22.5853 8.73828 22.2018C8.73828 22.2018 8.82319 19.4319 8.78074 19.3467C8.78074 19.3467 8.73828 17.8552 8.78074 17.6847C8.78074 17.6847 8.82319 16.2785 8.78074 16.108C8.78074 16.108 8.78074 15.7671 8.73828 15.6393C8.73828 15.6393 8.73828 15.4262 9.07792 15.5541C9.07792 15.5541 9.20528 15.7671 9.8421 15.6819C9.8421 15.6819 10.3091 15.7671 10.7761 15.6819C10.7761 15.6819 11.795 15.5967 12.0497 15.6819C12.0497 15.6819 12.4743 15.5967 12.5592 16.0654V17.3012L12.6866 17.7274L12.8139 17.6421L12.8564 17.3438V16.0228C12.8564 16.0228 12.9413 15.7671 13.2809 15.7245C13.2809 15.7245 13.7904 15.6819 13.8753 15.7245C13.9602 15.7671 15.064 15.8097 15.3612 15.7671C15.6584 15.7245 15.7008 15.9802 16.6348 15.5114C16.6348 15.5114 16.8895 15.5114 16.8895 15.6819C16.8895 15.6819 16.8046 17.3864 16.8895 17.7274C16.8895 17.7274 16.8895 20.8808 16.8046 21.0938L16.8471 22.1166C16.8471 22.1166 16.8895 22.5427 16.1678 22.5853C16.1678 22.5853 16.5924 22.6279 13.8328 22.5427C13.8328 22.5427 13.4083 22.5001 12.8988 22.7558C12.8988 22.7558 12.8139 22.7132 12.8139 22.4575C12.8139 22.4575 12.8988 21.52 12.8139 20.5825L12.7715 19.5597H12.6016Z" fill="white"/>
<path d="M10.8185 18.1107C10.8185 18.1107 10.8609 19.6022 10.8185 19.8153V20.1562C10.8185 20.1562 10.9034 20.3692 11.0308 20.4545C11.0308 20.4545 11.1157 20.7528 10.9034 20.7102C10.9034 20.7102 10.3939 20.6675 10.2666 20.7102C10.2666 20.7102 9.96939 20.7102 10.2666 20.3692C10.2666 20.3692 10.3515 20.2414 10.3515 19.8579C10.3515 19.8579 10.3515 18.1533 10.3939 18.0681C10.3939 18.0681 10.4364 17.855 10.309 17.7698H10.0543L9.75712 18.0681C9.75712 18.0681 9.67221 18.3664 9.54484 18.0681V17.8977L9.71466 17.4289H9.84202C9.84202 17.4289 10.0118 17.5567 10.1817 17.5994H11.1157L11.4553 17.4289C11.4553 17.4289 11.5827 17.4289 11.5402 17.642C11.5402 17.642 11.5827 18.1107 11.3279 18.1533C11.3279 18.1533 11.1581 18.1107 11.0732 17.855C11.0732 17.8124 10.8185 17.642 10.8185 18.1107ZM15.2337 17.5567C15.2337 17.5567 14.4696 17.4715 14.4696 18.3238C14.4696 18.3238 14.3847 18.8778 15.2337 19.2613C15.2337 19.2613 15.8706 19.5596 15.8281 19.9431C15.8281 19.9431 15.7432 20.6249 15.0639 20.284C15.0639 20.284 14.7243 20.1136 14.7667 19.9431C14.7667 19.9431 14.6818 19.73 14.5545 19.7727C14.5545 19.7727 14.4271 19.8153 14.4696 20.4971C14.4696 20.4971 14.4696 20.7528 14.7667 20.4971L14.9366 20.5397C14.9366 20.5397 15.4885 20.9658 15.9555 20.4545C15.9555 20.4545 16.4649 19.9857 16.0828 19.4317C16.0828 19.4317 15.8281 19.0056 15.3611 18.8352C15.3611 18.8352 14.9366 18.6221 14.8092 18.2812C14.8092 18.2812 14.9366 17.6846 15.4885 17.9829C15.4885 17.9829 15.7007 18.2386 15.8281 18.2812C15.8281 18.2812 15.9979 18.2812 15.9555 17.8977L15.913 17.5994C15.913 17.5994 15.8706 17.3863 15.5734 17.5994C15.5734 17.5567 15.3187 17.6846 15.2337 17.5567ZM12.8138 17.1306C12.9412 17.2158 12.9837 17.4289 12.9837 17.4289C13.4082 18.4942 13.7478 20.0709 13.7478 20.0709C13.8328 20.284 14.045 20.4119 14.045 20.4119C14.3847 20.5397 14.045 20.6249 14.045 20.6249C13.9177 20.6675 13.4507 20.6249 13.4507 20.6249C13.1959 20.5823 13.3233 20.4971 13.3233 20.4971C13.4082 20.4119 13.3233 19.9857 13.3233 19.9857C13.3233 19.8153 13.111 19.5596 13.111 19.5596C13.0261 19.517 12.8988 19.6874 12.8988 19.6874C12.8988 19.6874 12.6865 19.7727 12.644 19.6874C12.6016 19.6022 12.4742 19.517 12.4742 19.517C12.2195 19.517 12.1346 20.1136 12.1346 20.1136C12.2619 20.6249 12.1346 20.5397 12.1346 20.5397C12.0072 20.7102 11.6251 20.5823 11.6251 20.5823C11.4553 20.5397 11.5827 20.4119 11.5827 20.4119C11.7949 20.3692 11.8798 20.1136 11.8798 20.1136C11.9648 19.9857 12.644 17.3437 12.644 17.3437C12.6016 17.3011 12.644 17.0454 12.8138 17.1306ZM12.4742 18.4942C12.4742 18.5795 12.3044 19.1761 12.3044 19.1761L12.4318 19.3891H12.8563C12.9412 19.3891 12.9837 19.3039 12.9837 19.1761C12.9837 19.0908 12.7714 18.4516 12.7714 18.4516L12.6865 18.3238L12.4742 18.4942ZM7.33721 12.2726C7.33721 12.2726 7.12494 12.9971 6.14848 12.2726L2.75212 12.1874C2.75212 12.1874 2.32758 12.3153 2.24267 11.8465C2.24267 11.8465 2.32758 10.909 2.28512 10.8238C2.28512 10.8238 2.32758 10.5681 1.86058 10.5681C1.86058 10.5681 1.1813 10.6533 1.13885 10.0567C1.13885 10.0567 1.01149 9.41754 1.94548 9.41754C1.94548 9.41754 2.24267 9.54538 2.28512 9.16185C2.28512 9.16185 2.24267 6.51981 2.24267 6.34935C2.24267 6.34935 2.32758 6.09367 1.86058 6.05106C1.86058 6.05106 1.1813 6.1789 1.09639 5.75276C1.09639 5.75276 1.05394 5.07094 1.47848 5.02833C1.47848 5.02833 2.03039 5.07094 2.1153 4.9431C2.1153 4.9431 2.24267 5.02833 2.20021 4.51697L2.24267 3.70731C2.24267 3.70731 2.28512 3.49424 2.62476 3.49424C2.62476 3.49424 3.26157 3.53685 3.34648 3.49424C3.34648 3.49424 3.47385 3.32378 3.5163 3.23856C3.5163 3.23856 3.85594 3.23856 3.89839 3.28117C3.89839 3.28117 4.36539 3.62208 6.23339 3.49424C6.23339 3.49424 6.53057 3.49424 6.57303 3.57947C6.57303 3.57947 6.91266 3.83515 7.12494 3.57947C7.12494 3.57947 7.42212 3.53685 8.35612 3.53685C8.35612 3.53685 9.33257 3.79253 10.0118 3.23856L10.2241 3.28117C10.2241 3.28117 10.5213 3.74992 10.6911 3.62208C10.6911 3.62208 11.2855 3.57947 11.4128 3.66469C11.4128 3.66469 11.6251 3.96299 11.4978 4.77265C11.4978 4.77265 11.3704 5.11356 11.9648 5.11356C11.9648 5.11356 12.644 4.98572 12.5591 5.62492C12.5591 5.62492 12.7289 6.34935 11.6251 6.22151C11.6251 6.22151 11.4978 6.43458 11.4978 6.56242C11.4978 6.56242 11.4978 8.86356 11.4553 9.11924C11.4553 9.11924 11.4553 9.46015 11.9223 9.46015C11.9223 9.46015 12.5591 9.41754 12.6016 10.0141C12.6016 10.0141 12.6865 10.7812 11.7525 10.6533C11.7525 10.6533 11.4553 10.6959 11.4128 10.8664L11.3704 11.8891C11.3704 11.8891 11.3704 12.4005 10.8185 12.2726C10.7336 12.2726 7.67685 12.3153 7.42212 12.2726C7.50703 12.1874 7.37966 12.1874 7.33721 12.2726Z" fill="black"/>
<path d="M7.33721 12.2726C7.33721 12.2726 7.12493 12.9971 6.14848 12.2726L2.75212 12.1874C2.75212 12.1874 2.32757 12.3153 2.24267 11.8465C2.24267 11.8465 2.32757 10.909 2.28512 10.8238C2.28512 10.8238 2.32757 10.5681 1.86058 10.5681C1.86058 10.5681 1.1813 10.6533 1.13885 10.0567C1.13885 10.0567 1.01149 9.41753 1.94548 9.41753C1.94548 9.41753 2.24267 9.54537 2.28512 9.16185C2.28512 9.16185 2.24267 6.51981 2.24267 6.34935C2.24267 6.34935 2.32757 6.09367 1.86058 6.05106C1.86058 6.05106 1.1813 6.1789 1.09639 5.75276C1.09639 5.75276 1.05394 5.07094 1.47848 5.02833C1.47848 5.02833 2.03039 5.07094 2.1153 4.9431C2.1153 4.9431 2.24267 5.02833 2.20021 4.51697L2.24267 3.70731C2.24267 3.70731 2.28512 3.49424 2.62476 3.49424C2.62476 3.49424 3.26157 3.53685 3.34648 3.49424C3.34648 3.49424 3.47385 3.32378 3.5163 3.23856C3.5163 3.23856 3.85594 3.23856 3.89839 3.28117C3.89839 3.28117 4.36539 3.62208 6.23339 3.49424C6.23339 3.49424 6.53057 3.49424 6.57303 3.57946C6.57303 3.57946 6.91266 3.83515 7.12493 3.57946C7.12493 3.57946 7.42212 3.53685 8.35611 3.53685C8.35611 3.53685 9.33257 3.79253 10.0118 3.23856L10.2241 3.28117C10.2241 3.28117 10.5213 3.74992 10.6911 3.62208C10.6911 3.62208 11.2855 3.57947 11.4128 3.66469C11.4128 3.66469 11.6251 3.96299 11.4977 4.77265C11.4977 4.77265 11.3704 5.11356 11.9647 5.11356C11.9647 5.11356 12.644 4.98572 12.5591 5.62492C12.5591 5.62492 12.7289 6.34935 11.6251 6.22151C11.6251 6.22151 11.4977 6.43458 11.4977 6.56242C11.4977 6.56242 11.4977 8.86356 11.4553 9.11924C11.4553 9.11924 11.4553 9.46015 11.9223 9.46015C11.9223 9.46015 12.5591 9.41753 12.6016 10.0141C12.6016 10.0141 12.6865 10.7812 11.7525 10.6533C11.7525 10.6533 11.4553 10.6959 11.4128 10.8664L11.3704 11.8891C11.3704 11.8891 11.3704 12.4005 10.8185 12.2726C10.7336 12.2726 7.67684 12.3153 7.42212 12.2726C7.50702 12.1874 7.37966 12.1874 7.33721 12.2726V12.2726Z" stroke="black" stroke-width="0.164"/>
<path d="M3.5588 3.9205C3.5588 3.9205 3.60125 4.34664 3.60125 4.43187C3.60125 4.51709 3.5588 10.2699 3.5588 10.2699C3.5588 10.2699 3.60125 10.6961 3.21916 10.9518C3.21916 10.9518 3.13425 10.9944 3.0918 10.6961L3.13425 4.64493C3.13425 4.64493 3.17671 3.9205 3.5588 3.9205Z" fill="white"/>
<path d="M3.5588 3.9205C3.5588 3.9205 3.60125 4.34664 3.60125 4.43187C3.60125 4.51709 3.5588 10.2699 3.5588 10.2699C3.5588 10.2699 3.60125 10.6961 3.21916 10.9518C3.21916 10.9518 3.13425 10.9944 3.0918 10.6961L3.13425 4.64493C3.13425 4.64493 3.17671 3.9205 3.5588 3.9205Z" stroke="black" stroke-width="0.1722"/>
<path d="M2.87922 10.9942C2.87922 10.9942 2.92167 5.28402 2.92167 5.1988C2.87921 5.11357 2.92167 5.28402 2.92167 5.28402C2.92167 5.28402 2.87921 4.30391 3.13394 3.87777C3.13394 3.87777 3.04903 3.53687 2.58203 3.963L2.53958 4.81527C2.53958 4.81527 2.53958 5.28402 2.11503 5.24141C2.11503 5.24141 1.64803 5.24141 1.39331 5.45448C1.39331 5.45448 1.26594 5.88061 1.73294 5.838C1.73294 5.838 2.45467 5.838 2.49712 6.1363L2.45467 9.20448C2.45467 9.20448 2.62449 9.71584 2.07258 9.71584C2.07258 9.71584 1.39331 9.67323 1.39331 10.0994C1.39331 10.0994 1.52067 10.4403 2.11503 10.355C2.11503 10.355 2.53958 10.4403 2.49712 10.8238V11.5908C2.49712 11.5908 2.45467 11.8891 2.87922 11.9317H6.02085C6.02085 11.9317 6.19067 11.9317 6.19067 11.7613C6.19067 11.7613 6.19067 11.5908 5.93594 11.5908L3.34621 11.5056C3.34621 11.5056 2.92167 11.6335 2.87922 10.9942Z" fill="white"/>
<path d="M3.43115 11.0369C3.43115 11.0369 3.34624 11.3352 3.64342 11.25H5.72369L6.2756 11.3778C6.2756 11.3778 6.86996 11.25 6.2756 10.9091H4.28024C4.28024 10.9091 3.89815 10.8238 3.81324 10.7812C3.81324 10.7812 3.60097 10.696 3.43115 11.0369Z" fill="white"/>
<path d="M3.43115 11.0369C3.43115 11.0369 3.34624 11.3352 3.64342 11.25H5.72369L6.2756 11.3778C6.2756 11.3778 6.86996 11.25 6.2756 10.9091H4.28024C4.28024 10.9091 3.89815 10.8238 3.81324 10.7812C3.81324 10.7812 3.60097 10.696 3.43115 11.0369V11.0369Z" stroke="black" stroke-width="0.1722"/>
<path d="M6.86988 11.3352C6.86988 11.3352 6.48779 11.3352 6.48779 11.8466C6.48779 11.8466 6.53025 12.2301 6.91234 12.2301C6.91234 12.2301 7.25197 12.1449 7.25197 11.7613C7.25197 11.7613 7.0397 11.25 6.86988 11.3352ZM7.12461 11.1221C7.12461 11.1221 7.29443 10.9091 7.42179 10.9091C7.42179 10.9091 9.41716 11.0795 9.75679 10.8664C9.75679 10.8664 10.054 10.8238 10.1389 10.8664C10.1389 10.8664 10.4361 11.1221 10.4361 11.25C10.4361 11.25 10.4361 11.4204 10.054 11.3352H7.67652C7.71897 11.3352 7.08216 11.5056 7.12461 11.1221Z" fill="white"/>
<path d="M7.12508 11.1221C7.12508 11.1221 7.2949 10.9091 7.42226 10.9091C7.42226 10.9091 9.41762 11.0795 9.75726 10.8664C9.75726 10.8664 10.0544 10.8238 10.1394 10.8664C10.1394 10.8664 10.4365 11.1221 10.4365 11.25C10.4365 11.25 10.4365 11.4204 10.0544 11.3352H7.67699C7.71944 11.3352 7.08263 11.5056 7.12508 11.1221V11.1221Z" stroke="black" stroke-width="0.1722"/>
<path d="M7.46454 11.7188C7.46454 11.7188 7.46454 11.5484 7.76172 11.5484H10.5637C10.5637 11.5484 10.8184 11.6762 10.8184 11.2075C10.8184 11.2075 10.9034 8.99155 10.9458 6.56257C10.9458 5.83814 10.9883 5.0711 10.9458 4.38928C10.9458 4.38928 10.9034 4.09098 10.8184 4.00576C10.8184 4.00576 10.8184 3.66485 11.1581 3.79269C11.1581 3.79269 11.4553 3.79269 11.3704 4.26144V4.98587C11.3704 4.98587 11.3279 5.28417 11.8374 5.19894C11.8374 5.19894 12.3893 5.28417 12.3893 5.49723C12.3893 5.49723 12.5591 5.92337 11.9223 5.88076H11.4553C11.4553 5.88076 11.243 6.0086 11.3279 6.26428L11.2854 9.20462C11.2854 9.20462 11.243 9.71598 11.71 9.67337C11.71 9.67337 12.2194 9.67337 12.3044 9.80121C12.3044 9.80121 12.644 10.3126 11.8798 10.27C11.8798 10.27 11.4128 10.27 11.3279 10.3126C11.3279 10.3126 11.243 10.3978 11.2005 11.3779C11.2005 11.3779 11.243 11.9319 10.8184 11.8893C10.8184 11.8893 8.01645 11.9319 7.76172 11.8893C7.76172 11.8893 7.50699 11.9745 7.46454 11.7188ZM3.85591 3.75008L3.771 10.2273C3.771 10.2273 3.771 10.5256 4.238 10.5683C4.238 10.5683 4.83236 10.6109 4.95972 10.5683H6.31827C6.31827 10.5683 6.57299 10.8239 6.57299 10.5256C6.57299 10.5256 6.74281 5.28417 6.6579 4.17621C6.6579 4.17621 6.6579 3.70746 6.27581 3.70746C6.27581 3.70746 4.74745 3.8353 4.62009 3.70746L4.06818 3.57962C4.06818 3.57962 3.81345 3.57962 3.85591 3.75008Z" fill="white"/>
<path d="M10.2241 4.00573V10.3978C10.2241 10.3978 10.3939 10.9517 10.6487 10.9091C10.6487 10.9091 10.6911 10.7813 10.6911 10.5682L10.776 4.47448C10.776 4.47448 10.5638 3.49436 10.2241 4.00573Z" fill="white"/>
<path d="M10.2241 4.00573V10.3978C10.2241 10.3978 10.3939 10.9517 10.6487 10.9091C10.6487 10.9091 10.6911 10.7813 10.6911 10.5682L10.776 4.47448C10.776 4.47448 10.5638 3.49436 10.2241 4.00573V4.00573Z" stroke="black" stroke-width="0.1722"/>
<path d="M6.99699 4.04839C6.99699 4.04839 6.95454 7.11657 6.95454 7.2018L6.91208 9.75862L6.86963 10.6535C6.86963 10.6535 6.99699 10.824 7.0819 10.6961C7.0819 10.6961 7.71872 10.5257 8.14326 10.6109C8.14326 10.6109 9.4169 10.7387 9.71408 10.5257C9.71408 10.5257 9.92635 10.6109 9.96881 10.3126C9.96881 10.3126 10.0537 4.64498 10.0113 4.55975C10.0113 4.55975 10.0962 3.7501 10.0537 3.66487C10.0537 3.66487 10.0537 3.49441 9.67163 3.66487C9.67163 3.66487 9.71408 3.83532 7.80363 3.7501C7.76117 3.7501 7.03945 3.7501 6.99699 4.04839Z" fill="white"/>
<path d="M6.40283 5.92338L6.23301 6.30691C6.23301 6.30691 5.80847 8.26713 5.55374 8.65066C5.55374 8.65066 5.51129 9.07679 5.17165 8.73588C5.17165 8.73588 4.36502 6.26429 4.32256 6.17907L4.06783 6.00861C4.06783 6.00861 3.89802 5.79554 4.1952 5.75293H4.95938C4.95938 5.75293 5.21411 5.966 4.87447 6.17907C4.87447 6.17907 4.91693 6.51997 5.34147 7.75577C5.34147 7.75577 5.46883 8.22452 5.5962 7.88361L6.02074 6.43475L5.89338 6.00861C5.89338 6.00861 5.76602 5.79554 5.93583 5.79554C5.93583 5.79554 6.36038 5.75293 6.40283 5.92338ZM7.5491 6.26429V8.39497L7.50665 8.56543C7.50665 8.56543 7.29438 8.82111 7.4642 8.86372C7.4642 8.86372 7.29438 8.99156 8.73783 8.99156C8.73783 8.99156 9.28974 9.07679 9.16238 8.35236C9.16238 8.35236 9.11992 8.09668 8.90765 8.4802C8.90765 8.4802 8.86519 8.82111 8.10101 8.69327C8.10101 8.69327 7.9312 8.56543 7.9312 8.39497V7.50009C7.9312 7.50009 7.9312 7.28702 8.27083 7.28702C8.27083 7.28702 8.65292 7.5427 8.69538 7.41486C8.69538 7.41486 8.82274 7.07395 8.69538 6.9035C8.69538 6.9035 8.52556 6.9035 8.4831 6.94611C8.4831 6.94611 8.35574 7.20179 8.0161 7.03134C8.0161 7.03134 7.84629 6.69043 7.97365 6.43475C7.97365 6.43475 7.9312 5.92338 8.27083 5.966C8.27083 5.966 8.69538 6.05122 8.69538 6.17907C8.69538 6.17907 8.78029 6.43475 8.90765 6.13645L8.82274 5.83816C8.82274 5.83816 8.78029 5.71032 8.65292 5.75293C8.65292 5.75293 7.97365 5.83816 7.88874 5.75293L7.33683 5.79554C7.33683 5.79554 7.25192 6.00861 7.50665 6.09384C7.50665 6.13645 7.5491 6.17907 7.5491 6.26429Z" fill="black"/>
</g>
<defs>
<clipPath id="clip0_3628_19508">
<rect width="119" height="30" fill="white" transform="translate(0.332031)"/>
</clipPath>
</defs>
</svg>
