<svg xmlns="http://www.w3.org/2000/svg" width="103" height="20" fill="none">
  <path fill="#000" d="M1.459 19.122c.658-.326.612-1.455.614-1.593V3.009a1.293 1.293 0 0 0-.507-1.08h11.876s-.51.293-.51 1.09v14.812c0 .207.09.993.614 1.273l-12.087.018Zm28.638 0c-.609-.415-.583-1.286-.587-1.484v-5.562s3.317 5.218 3.627 5.979c.34.834-.046 1.067-.046 1.067h13.661s-.138-.091-.344-.247a5.422 5.422 0 0 1-1.219-1.191c-.484-.648-5.482-8.75-5.482-8.75s3.763-5.24 4.351-6c.308-.382.668-.72 1.07-1.003H33.425s.65.456.077 1.289c-.574.833-3.989 5.553-3.989 5.553V3.01a1.285 1.285 0 0 1 .52-1.08H18.464a1.297 1.297 0 0 1 .505 1.08c.009.556 0 14.243 0 14.52 0 .147.044 1.273-.614 1.593l11.74-.002ZM49.153 1.929a1.296 1.296 0 0 1 .51 1.08v14.52c0 .147.044 1.273-.614 1.593H68.97v-5.84a1.87 1.87 0 0 1-1.35.56h-7.768V12.47h5.6c.338 0 1.274.107 1.515.424V7.65c-.252.35-1.197.433-1.508.433h-5.61V6.71h7.302a2.698 2.698 0 0 1 1.82.77V1.93H49.152Zm38.254 17.193s.524-.587.34-1.298a17.097 17.097 0 0 0-.836-2.102h-5.109s-.641 1.354-.836 2.102c-.182.71.34 1.298.34 1.298H70.975c.404-.374.728-.826.952-1.33.364-.834 5.282-13.94 5.477-14.412.365-.909-.238-1.442-.238-1.442H93.6a1.4 1.4 0 0 0-.271 1.466c.308.927 5.557 13.916 5.794 14.389.249.526.624.983 1.093 1.329H87.407Zm-1.68-6.52s-1.23-3.033-1.275-3.147a3 3 0 0 1-.182-.884h-.018c-.01.301-.065.599-.164.884l-1.275 3.147h2.914Zm10.176-9.024A2.905 2.905 0 0 1 97.677.865a2.92 2.92 0 0 1 3.188.607 2.904 2.904 0 0 1-.425 4.486 2.917 2.917 0 0 1-1.623.493 2.872 2.872 0 0 1-2.694-1.763 2.857 2.857 0 0 1-.22-1.11Zm2.914 2.397c1.299 0 2.324-1.017 2.324-2.397a2.325 2.325 0 0 0-2.33-2.327 2.333 2.333 0 0 0-2.332 2.327c0 1.38 1.025 2.397 2.338 2.397Zm-.606-.737h-.5V1.935h1.261c.782 0 1.17.287 1.17.94 0 .59-.365.849-.858.909l.939 1.454h-.56l-.873-1.433h-.577l-.002 1.433Zm.6-1.856c.425 0 .804-.031.804-.546 0-.409-.364-.485-.728-.485h-.683v1.03h.606Z"/>
</svg>
