<svg xmlns="http://www.w3.org/2000/svg" width="120" height="22" fill="none">
  <path fill="#000" d="M117.794 17.642v-.33h.208c.11 0 .268.011.268.146 0 .135-.085.184-.219.184h-.257Zm0 .232h.147l.329.576h.354l-.366-.6a.319.319 0 0 0 .342-.306v-.05c0-.317-.22-.415-.586-.415h-.525v1.37h.305v-.575Zm1.538-.11c0-.808-.622-1.273-1.318-1.273-.696 0-1.319.465-1.319 1.273 0 .808.623 1.273 1.319 1.273s1.318-.465 1.318-1.273Zm-.39 0a.941.941 0 0 1-.891.98h-.037a.98.98 0 0 1-.073-1.96.98.98 0 0 1 1.013.944c-.012.012-.012.024-.012.036ZM70.925 4.162V18.61h4.065V4.162h-4.065Zm-31.987-.024v14.458h4.102V7.37l3.198.012c1.05 0 1.783.257 2.284.796.647.686.903 1.8.903 3.82v6.598h3.98v-7.982c0-5.705-3.626-6.476-7.167-6.476h-7.3Zm38.543.024V18.61h6.593c3.516 0 4.663-.588 5.897-1.898.879-.918 1.44-2.95 1.44-5.166 0-2.033-.476-3.844-1.318-4.97-1.49-2.02-3.663-2.413-6.91-2.413H77.48Zm4.029 3.135h1.746c2.54 0 4.175 1.138 4.175 4.1 0 2.963-1.636 4.114-4.175 4.114H81.51V7.297ZM65.064 4.162 61.67 15.61 58.423 4.162h-4.395l4.639 14.447h5.86l4.689-14.447h-4.151ZM93.316 18.61h4.065V4.162h-4.065V18.61Zm11.403-14.447-5.677 14.434h4.004l.904-2.558h6.715l.854 2.546h4.359l-5.726-14.422h-5.433Zm2.637 2.633 2.466 6.758h-5.005l2.539-6.758ZM12.7 6.562V4.58c.196-.013.391-.025.587-.025 5.42-.171 8.973 4.677 8.973 4.677s-3.834 5.338-7.948 5.338a5.03 5.03 0 0 1-1.6-.257V8.288c2.113.257 2.54 1.188 3.798 3.306l2.82-2.375s-2.063-2.706-5.53-2.706a8.25 8.25 0 0 0-1.1.05ZM12.7 0v2.963l.587-.037C20.82 2.669 25.74 9.121 25.74 9.121S20.1 16 14.227 16a8.924 8.924 0 0 1-1.514-.135v1.837c.415.049.842.085 1.257.085 5.47 0 9.426-2.803 13.26-6.108.634.514 3.235 1.75 3.772 2.289-3.639 3.06-12.124 5.521-16.934 5.521-.464 0-.903-.024-1.343-.073V22h20.78V0H12.7Zm0 14.312v1.567c-5.054-.906-6.458-6.183-6.458-6.183s2.43-2.693 6.459-3.134v1.714h-.013c-2.112-.257-3.772 1.726-3.772 1.726s.94 3.342 3.785 4.31ZM3.728 9.476s2.991-4.432 8.986-4.897V2.963C6.07 3.5.333 9.133.333 9.133s3.248 9.427 12.368 10.284v-1.714c-6.69-.833-8.974-8.227-8.974-8.227Z"/>
</svg>
