<svg xmlns="http://www.w3.org/2000/svg" width="127" height="22" fill="none">
  <path fill="#000" d="m25.27 0-4.494 17.497L38.234 22l4.493-17.497L25.269 0Zm57.938 1.96v18.066h18.027V1.96H83.208Zm20.181 0 7.041 8.924-7.041 9.142h8.662l2.759-3.589 2.855 3.59h8.735l-7.259-9.192 6.823-8.876h-8.662l-2.541 3.323L112.1 1.96h-8.711Zm-102.99 0v18.067h7.986v-6.693c2.153 0 3.17 1.89 3.508 6.693h8.275c-.363-3.468-1.548-6.45-3.484-8.658 1.331-.921 2.057-2.328 2.057-4.001 0-2.692-2.008-5.408-6.557-5.408H.4Zm44.19 0v18.067H57.17c4.21 0 6.17-2.207 6.17-4.996 0-1.552-.556-2.934-2.83-4.147 1.814-1.043 2.346-2.4 2.346-3.88 0-2.086-1.16-5.044-6.992-5.044H44.588Zm21.198 0v18.067h14.977v-4.535h-6.993V1.96h-7.984ZM52.573 5.597h.484c1.621 0 2.105.752 2.105 1.746 0 1.286-.653 1.77-2.395 1.77h-.194V5.598ZM8.385 5.67h.484c1.5 0 1.887 1.019 1.887 1.795 0 1.164-.701 1.697-2.153 1.697h-.218V5.67Zm22.1 3.182 3.408.879-.877 3.416-3.407-.88.877-3.415Zm59.976.377h3.52v3.527h-3.52V9.229Zm-37.888 2.916h.556c1.67 0 2.227.849 2.227 2.037 0 1.358-.702 1.868-2.541 1.868h-.242v-3.905Z"/>
</svg>
