<svg xmlns="http://www.w3.org/2000/svg" width="98" height="32" fill="none">
  <path fill="#000" fill-rule="evenodd" d="M2.698 12.026s.645.645.774 1.29v1.807l-.258 2.064c0 .774.13 1.032.258 1.42l.13 1.032-.13 3.096-.129 1.936.388.903.516-.516.387.774c.258.387 1.291.774 1.291.774l1.29.387 4.132-1.677.903.516 2.323.903 1.55.259 1.549-.388 1.161-.387.258-1.548-3.098-2.065-.645.517-.387-3.355-.388-2.71.388-.258-.388-2.58.259-2.065.129-1.032v-.646l-.904-.387-1.033.387-1.807-.774-1.678.903.13 1.033h2.84l1.161.774v.774l-.387.387-.13 2.194-.258 2.967c-.129 1.29-.387 2.452-.774 3.484l-2.324 1.29c-1.161.388-2.194.388-2.194.388l-1.807-.774-.646-4.259v-1.032l.259-1.806-.388-.387.388-2.065.258-1.42.129-.773-.258-.904-1.55-.516-1.032-.258H1.923l-1.032.13-.775.773.258.517.13.258.387.129.516.645.904-.13h.387Zm17.684-2.194 1.291-.258 1.807-.129 2.97.258.386-.516.517.645h1.29l2.324.645 1.807 2.065v.903c0 .645.258 1.42.13 1.678l-.517 1.935-2.194 1.936s.903 1.677 1.161 2.967c.13 1.29-.258 2.58-.258 2.58l.517.646.903-.129.387-.258 1.033.387-.516 1.677-1.291-.258-.387.258-.517-.516-.387.387s-.645-.774-1.033-2.064c-.516-1.548.13-2.323.13-2.323l-.388-1.935-1.549-1.42-2.84-.645-.258.387.13 1.42.128-.13v1.291h-.129v.258H24.9v2.968l.387.387 1.291.13h1.033v.386l.387.387-.774.774-.646-.129-.645-.129-.258.258-1.291-.129-2.97.387-.903-.645v-1.16l2.711-.775.387-3.871-.387-.774.13-1.162-.388-3.225.516-1.033-.129-1.16-.129-1.291h-.258l-.258.387-2.324-.645-.258-.774v-.904h.258Zm4.776 2.58 1.162-.128 1.29-.13.26.13 1.16-.13 1.292 1.162-.13.516-.128.387.258.258v.646l-.646 1.29-1.807.516-.774.258h-.388l-.129.387-.645-.774h-.775l-.129-2.323-.129-1.935.258-.13Zm9.81-10.838s.388.774 1.033 1.161l1.291.646 1.033.258.516 2.322.258 1.549-.258 3.354-.129 2.71.258 2.323.258 1.677c.13.645 0 1.549-.129 2.323l-.258 2.71h1.42l.645-.646h1.162l.517.774h4.647s1.032-.645 1.678-1.548c.645-.774.903-1.29 1.29-2.194a22.184 22.184 0 0 0 1.291-5.032l-.258-.258-.129-1.677-.129-1.162-1.29-1.677-.517-.774-.646-1.548-1.161-.388h-.517l-.903-.129h-.646l-.516.13-1.29.516-1.292 1.032-.387.516h-.774l-.259-.516.646-3.355-.387-1.161.387-1.678-.387-.774-.259-.645-2.194-.13c-1.42-.128-2.323-.386-2.582-.257-.387.129-.516.387-.774.774l-.258.774Zm8.65 7.613s-.517.516-1.292 1.936c-.774 1.29-.903 1.806-1.161 2.838l-.258 1.807.129.903-.13.774s.646 1.161 1.679 1.807l2.065 1.419c.387.258.904.258.904.258l.516-.516.774-.516c.34-.662.775-1.27 1.291-1.807.108-.863.237-1.723.387-2.58l-.258-1.033-.258-.903.13-.387-.13-1.161-.129-.774-.775-1.033-.774-1.16h-.645l-.775-.13-.645.13h-.646v.128Zm15.747 1.42-.387.516-.387.258-.387.258-.775.645h-1.162l-.645-1.549-.258-.645c-.003-1.002.128-2 .387-2.967l1.033-.775 1.678-.903.645-.258h.258v-.129l.388-.129h.903l.775.13h1.549l1.032.386 2.066.645.516.775.646.774.129 1.935.129 2.323v2.451h-.258l.129 1.033.129 1.032-.13.258-.128.258.645.645.516.645.646-.129 1.161-.129h.388l.129 1.549.129 1.161-1.162 1.29-.903.13-1.162.128-1.162-.774-1.033-.774-1.936 1.29-1.936.645h-2.195l-1.807-.129-1.42-.129-.903-1.032-.646-.774-.387-2.323v-2.064l.516-.903.646-1.033 2.452-.774 1.162-.258.904-.129 1.807-.774.774-.516.259-.258h.387l1.032-.387.517-.13.387-.387.387-.258v-1.16l-1.549-.904-1.807-.774-1.032-.258-1.033.258-.775.258-.387.387-.258.516-.13.129.13.774.516.903.258.13Zm-.774 4.903-1.936 1.29.129 1.935.774 1.162h3.486l1.032-.387 1.162-.387h.129l1.162-1.936-.13-1.29v-1.29h-1.032l-1.42.386-1.033.388h-2.581l.258.129ZM73.177 4.8 71.5 6.22l.258.903.775.258.904.258.387.129.387.387-.258.903v.13l.387 1.031.387.904h-.903v1.16l.774 1.033-.258 1.548-.516 1.033.258.258-.387 1.548v.13l.387.644-.13.904v.516l-1.548.774-.775 1.548 1.033.387 1.29.258c.646-.129.904-.387.904-.387l.904.258.904.259v-.13l.258.259.387-.646h.258l1.291.258.775-.645v-.774l-.259-.258-.387-.645h-.645l-1.42-.516-.258-4.258-.259-3.226.259-.258-.259-1.807v-.516l.13-.387 1.161 1.678 1.162 2.58.645 1.42.775 1.29-.13-2.323c0-.903-.386-1.677-.516-2.193l-.774-1.807.258-.903-1.29-1.29.516-1.549-.904-.903h-.516l-.904-.129-.516-.129-.258.258-1.162-.258c-.258-.258-.904-.387-.904-.387Zm7.358 11.355 1.033.387h.903v.129h1.162v1.161l.516.774-.258.258v.13h.13l.128 2.58-.387.516-.387.645-1.033-.258c-.516-.258-.774-.774-.774-.774v-.774l-.517-.645h-.516v-1.42l.516-.516-.387-.645-.258-.516.258-.903-.129-.13Zm2.065-.13h.904v-1.031l.13-1.678-.13-.774v-.645l.387-1.42v-.645h-.258l.258-.129-.129-.903-.129-.774.258-.258.258-.258 1.162.258.646-.645.516-.775.129-.387-.775-.516-.645-.516h-.645l-1.55.258h-1.032l-.775-.258-1.032.387-.646.258-.258 1.032.517.775.903.258.904.258.129-.13.258.259.258.258.13 1.548.257 1.936v.774c-.258.129-.516 1.548-.516 1.548l.258.903.258 1.033Z" clip-rule="evenodd"/>
  <path fill="#000" d="m33.033 22.22 64.67 2.193v7.742l-64.67-2.194V22.22Z"/>
  <path fill="#fff" fill-rule="evenodd" d="M51.104 25.445c0-.387.258-.645.646-.645h2.323c.387 0 .645.258.645.645v.516l-.903.13v-.646h-1.807v1.807h1.807v-.646l.904.258v.517c0 .387-.259.645-.646.645H51.75c-.388 0-.646-.258-.646-.645v-1.936Zm-4.389-.774h.904v3.226h-.904V24.67Zm16.007.258h.903v3.226h-.903v-3.226Zm-4.39 0h.904v3.226h-.903v-3.226Z" clip-rule="evenodd"/>
  <path fill="#fff" fill-rule="evenodd" d="m57.042 24.8 3.744.129v.645h-3.744V24.8Zm16.91.516 2.324 1.936v-1.807h.903v3.226h-.774l-2.195-2.065-.129 1.936h-.903l.129-3.226h.645Zm-7.616.387c0-.387.258-.645.646-.645l2.84.13c.387 0 .645.257.645.644v1.936c0 .387-.258.645-.646.645h-2.84c-.387 0-.645-.258-.645-.645v-2.065Zm.904.13h2.194v1.806l-2.194-.13v-1.677Zm14.457-.388 1.807 3.226h-1.032l-.388-.645h-1.807l-.387.645h-.904l1.937-3.226h.774Zm.13 1.807-.517-1.033-.517.904h1.033v.129Zm3.484-1.678h3.098c.259 0 .517.258.517.516v.904c0 .258-.258.516-.517.516h-.387l1.42 1.161h-1.29L86.86 27.51h-.516v1.161h-.903l-.13-3.097Zm.904.645v.645h1.678l.13-.129v-.387l-.13-.129h-1.678Zm4.26-.516h1.29l1.033 1.162 1.033-1.033h1.162l-1.807 1.678v1.419h-.904v-1.42l-1.807-1.806Zm-49.568-1.161h2.065c.904 0 1.55.774 1.55 1.548v.13c0 .903-.775 1.548-1.55 1.548H40.52v-3.226h.388Zm.516 2.451h1.29c.388 0 .775-.387.775-.774v-.129c0-.387-.387-.774-.774-.774l-1.29-.129v1.806Z" clip-rule="evenodd"/>
</svg>
