<svg xmlns="http://www.w3.org/2000/svg" width="80" height="80" fill="none">
  <rect width="80" height="80" fill="#79849a" opacity=".2" rx="24"/>
  <g filter="url(#a)" transform="translate(-12)">
    <rect width="72" height="72" x="16" y="4" fill="#fff" rx="20"/>
  </g>
  <path fill="#0b8e5f" d="M27.5 39a1 1 0 1 0 0 2zm4 1v1a1 1 0 0 0 .858-.485zm6-10 .98-.196a1 1 0 0 0-1.837-.319zm4 20-.98.196a1 1 0 0 0 1.837.319zm6-10v-1a1 1 0 0 0-.858.485zm4 1a1 1 0 1 0 0-2zm-24 0h4v-2h-4zm4.857-.485 6-10-1.714-1.03-6 10zm4.162-10.319 4 20 1.962-.392-4-20zm5.839 20.318 6-10-1.715-1.029-6 10zM47.5 41h4v-2h-4z"/>
  <defs>
    <filter id="a" width="104" height="104" x="0" y="-6" color-interpolation-filters="sRGB" filterUnits="userSpaceOnUse">
      <feFlood flood-opacity="0" result="BackgroundImageFix"/>
      <feColorMatrix in="SourceAlpha" result="hardAlpha" values="0 0 0 0 0 0 0 0 0 0 0 0 0 0 0 0 0 0 127 0"/>
      <feMorphology in="SourceAlpha" radius="2" result="effect1_dropShadow_2240_13003"/>
      <feOffset dy="6"/>
      <feGaussianBlur stdDeviation="9"/>
      <feColorMatrix values="0 0 0 0 0.47451 0 0 0 0 0.517647 0 0 0 0 0.603922 0 0 0 0.14 0"/>
      <feBlend in2="BackgroundImageFix" result="effect1_dropShadow_2240_13003"/>
      <feColorMatrix in="SourceAlpha" result="hardAlpha" values="0 0 0 0 0 0 0 0 0 0 0 0 0 0 0 0 0 0 127 0"/>
      <feMorphology in="SourceAlpha" operator="dilate" radius="1" result="effect2_dropShadow_2240_13003"/>
      <feOffset/>
      <feGaussianBlur stdDeviation=".5"/>
      <feComposite in2="hardAlpha" operator="out"/>
      <feColorMatrix values="0 0 0 0 0.47451 0 0 0 0 0.517647 0 0 0 0 0.603922 0 0 0 0.11 0"/>
      <feBlend in2="effect1_dropShadow_2240_13003" result="effect2_dropShadow_2240_13003"/>
      <feColorMatrix in="SourceAlpha" result="hardAlpha" values="0 0 0 0 0 0 0 0 0 0 0 0 0 0 0 0 0 0 127 0"/>
      <feOffset dy="4"/>
      <feGaussianBlur stdDeviation="5"/>
      <feComposite in2="hardAlpha" operator="out"/>
      <feColorMatrix values="0 0 0 0 0.47451 0 0 0 0 0.517647 0 0 0 0 0.603922 0 0 0 0.14 0"/>
      <feBlend in2="effect2_dropShadow_2240_13003" result="effect3_dropShadow_2240_13003"/>
      <feBlend in="SourceGraphic" in2="effect3_dropShadow_2240_13003" result="shape"/>
    </filter>
  </defs>
</svg>
