<?xml version="1.0" encoding="utf-8"?>
<svg version="1.1" id="Layer_1" xmlns="http://www.w3.org/2000/svg" xmlns:xlink="http://www.w3.org/1999/xlink" x="0px" y="0px"
     viewBox="0 0 896.554 170.231" style="enable-background:new 0 0 896.554 170.231;" xml:space="preserve">
<style type="text/css">
	.st0{fill-rule:evenodd;clip-rule:evenodd;fill:none;}
	.st1{fill:#1F74BD;}
</style>
	<rect x="-109.973" y="-112.911" class="st0" width="1118" height="412"/>
	<path class="st1" d="M821.936,107.009h58.298c4.157,0.336,4.582-2.977,3.926-5.899c-3.108-13.856-14.78-25.442-29.744-25.442
	C837.939,75.667,824.573,87.429,821.936,107.009z M897.554,106.883c0,8.083-4.619,13.856-15.01,13.965h-61.097
	c1.284,22.637,15.669,36.5,33.545,36.5c10.803,0,24.086-7.681,28.705-16.98c1.704-3.432,5.806-4.014,9.237-2.309
	c3.406,1.704,3.713,5.11,1.986,8.517c-6.595,15.731-24.506,24.61-39.928,24.61c-26.675,0-47.5-21.982-47.5-54.678
	c0-32.696,20.227-54.656,46.925-54.656C880.798,61.851,897.554,87.481,897.554,106.883z M759.989,119.584v44.731
	c0,3.824-3.101,6.916-6.928,6.916c-3.826,0-6.928-3.101-6.928-6.928V68.883c0-3.826,3.101-6.928,6.928-6.928
	c3.827,0,6.928,3.099,6.928,6.925v2.208c0,3.348-0.12,6.101-0.259,9.328c-0.039,0.886-0.078,2.278-0.118,3.258
	c8.454-13.171,21.273-21.823,35.016-21.823c11.027,0,10.505,13.856,0,13.856C773.104,75.707,759.989,97.645,759.989,119.584z
	 M678.151,157.345c19.017,0,31.956-15.655,31.956-40.829c0-25.198-12.962-40.83-31.956-40.83s-31.933,15.655-31.933,40.83
	S659.157,157.345,678.151,157.345z M678.151,61.851c26.719,0,45.791,21.978,45.791,54.642c0,32.71-19.096,54.664-45.791,54.664
	c-26.67,0-45.77-21.978-45.77-54.664C632.381,83.806,651.458,61.851,678.151,61.851z M577.426,75.71
	c-18.361,0-30.884,15.632-30.928,40.806c0,25.174,12.523,40.829,30.906,40.829c11.11,0,20.833-5.623,25.982-16.214
	c1.647-3.409,5.69-4.808,8.987-3.081c3.297,1.702,4.653,5.856,2.982,9.286c-7.362,15.142-21.917,23.82-37.951,23.82
	c-25.812,0-44.298-21.978-44.298-54.664c0-32.687,18.464-54.642,44.298-54.642c16.101,0,30.656,8.679,37.973,23.821
	c1.672,3.406,0.34,7.583-2.982,9.286c-3.297,1.68-7.34,0.35-8.965-3.08C598.281,81.309,588.583,75.71,577.426,75.71z
	 M490.278,113.52c21.774,7.118,25.624,19.068,25.088,27.912c-0.982,16.964-18.063,29.778-39.697,29.778
	c-18.063,0-33.162-9.524-39.394-24.832c-1.446-3.547,0.259-7.584,3.783-9.032c3.522-1.423,7.584,0.256,9.029,3.803
	c4.131,10.152,14.073,16.221,26.582,16.221c15.59,0,25.414-8.519,25.88-16.756c0.118-2.381,0.49-8.658-14.96-13.699l-26.091-8.542
	c-16.872-5.577-24.714-14.492-24.014-27.211c0.91-16.709,17.666-29.312,38.997-29.312c17.969,0,33.162,9.638,38.764,24.574
	c1.353,3.57-0.492,7.561-4.062,8.892c-3.524,1.353-7.538-0.49-8.891-4.061c-3.524-9.475-13.653-15.589-25.788-15.589
	c-13.84,0-24.668,6.978-25.181,16.243c-0.164,2.917-0.466,8.331,14.562,13.302L490.278,113.52z M341.526,107.009h58.298
	c4.157,0.336,4.582-2.977,3.926-5.899c-3.108-13.856-14.777-25.442-29.744-25.442C357.529,75.667,344.163,87.429,341.526,107.009z
	 M417.144,106.883c0,8.083-4.619,13.856-15.01,13.965h-61.097c1.284,22.637,15.671,36.5,33.547,36.5
	c10.803,0,24.086-7.681,28.705-16.98c1.704-3.432,5.806-4.014,9.237-2.309c3.406,1.704,3.713,5.11,1.986,8.517
	c-6.595,15.731-24.506,24.61-39.928,24.61c-26.675,0-47.502-21.982-47.502-54.678c0-32.696,20.227-54.656,46.925-54.656
	C400.39,61.851,417.144,87.481,417.144,106.883z M284.045,113.52c21.774,7.118,25.624,19.068,25.088,27.912
	c-0.981,16.964-18.063,29.778-39.697,29.778c-18.063,0-33.162-9.524-39.394-24.832c-1.446-3.547,0.259-7.584,3.78-9.032
	c3.524-1.423,7.586,0.256,9.032,3.803c4.131,10.152,14.073,16.221,26.582,16.221c15.59,0,25.414-8.519,25.88-16.756
	c0.118-2.381,0.49-8.658-14.96-13.699l-26.09-8.542c-16.872-5.577-24.714-14.492-24.014-27.211
	c0.91-16.709,17.666-29.312,38.997-29.312c17.969,0,33.162,9.638,38.764,24.574c1.353,3.57-0.492,7.561-4.062,8.892
	c-3.524,1.353-7.538-0.49-8.891-4.061c-3.524-9.475-13.653-15.589-25.788-15.589c-13.84,0-24.668,6.978-25.181,16.243
	c-0.164,2.917-0.466,8.331,14.562,13.302L284.045,113.52z M168.037,33.464c5.053,0,9.145,4.092,9.145,9.145
	s-4.092,9.145-9.145,9.145c-5.053,0-9.145-4.092-9.145-9.145S162.984,33.464,168.037,33.464z M166.7,13.356
	c-17.645,0-27.85,15.01-27.85,28.866c0,10.392-13.847,10.392-13.849,0c0-24.248,18.28-42.722,41.699-42.722
	c23.419,0,41.704,18.474,41.704,42.722c0,10.392-13.888,10.392-13.888,0C194.515,28.366,184.345,13.356,166.7,13.356z
	 M38.051,61.851c12.089,0,25.063,5.974,31.644,15.076c6.582-9.101,19.569-16.23,31.658-16.23c20.539,0,38.551,14.99,38.551,43.696
	l0.462,19.361c0,29.763,19.629,33.571,27.712,33.571s26.973-5.411,26.973-30.813V72.929c0-9.217,13.902-9.217,13.902,0v53.582
	c-0.494,33.485-24.71,44.65-40.875,44.65c-16.165,0-41.567-9.562-41.567-47.408l-0.469-20.482c0-24.101-16.851-27.582-24.689-27.582
	c-12.346,0-24.691,10.262-24.691,27.582v60.983c0,3.827-3.104,6.907-6.93,6.907h-0.03h-0.03c-3.827,0-6.93-3.081-6.93-6.907v-60.983
	c0-17.32-12.346-27.582-24.691-27.582s-24.696,6.515-24.689,32.107v56.457c0,3.803-3.104,6.907-6.933,6.907
	c-3.827,0-6.93-3.081-6.93-6.907v-56.457C-0.5,74.122,18.076,61.851,38.051,61.851z"/>
</svg>
