<svg width="1171" height="600" viewBox="0 0 1171 600" fill="none" xmlns="http://www.w3.org/2000/svg">
<path fill-rule="evenodd" clip-rule="evenodd" d="M367.622 -66.1962L430.124 -30.1108C431.98 -29.039 433.124 -27.0582 433.124 -24.9146V47.256C433.124 49.3996 431.98 51.3804 430.124 52.4522L367.622 88.5376C365.766 89.6093 363.478 89.6094 361.622 88.5376L299.12 52.4522C297.264 51.3804 296.12 49.3996 296.12 47.2561V-24.9146C296.12 -27.0582 297.264 -29.039 299.12 -30.1108L361.622 -66.1962C363.478 -67.2679 365.766 -67.268 367.622 -66.1962ZM360.622 -67.9282C363.097 -69.3573 366.147 -69.3573 368.622 -67.9282L431.124 -31.8429C433.599 -30.4138 435.124 -27.7728 435.124 -24.9146V47.256C435.124 50.1142 433.599 52.7552 431.124 54.1843L368.622 90.2696C366.147 91.6987 363.097 91.6987 360.622 90.2696L298.12 54.1843C295.645 52.7552 294.12 50.1142 294.12 47.2561V-24.9146C294.12 -27.7728 295.645 -30.4138 298.12 -31.8429L360.622 -67.9282ZM136.003 -30.1108L73.5017 -66.1961C71.6453 -67.2679 69.3581 -67.2679 67.5017 -66.1961L5 -30.1108C3.14359 -29.039 2 -27.0582 2 -24.9146V47.2561C2 49.3997 3.1436 51.3804 5.00001 52.4522L67.5017 88.5376C69.3581 89.6094 71.6453 89.6094 73.5017 88.5376L136.003 52.4522C137.86 51.3804 139.003 49.3997 139.003 47.2561V-24.9146C139.003 -27.0582 137.86 -29.039 136.003 -30.1108ZM74.5017 -67.9282C72.0265 -69.3573 68.9769 -69.3573 66.5017 -67.9282L4 -31.8428C1.52479 -30.4138 0 -27.7728 0 -24.9146V47.2561C0 50.1142 1.5248 52.7552 4.00001 54.1843L66.5017 90.2696C68.9769 91.6987 72.0265 91.6987 74.5017 90.2696L137.003 54.1843C139.479 52.7552 141.003 50.1142 141.003 47.2561V-24.9146C141.003 -27.7728 139.479 -30.4138 137.003 -31.8428L74.5017 -67.9282ZM209.533 97.2538L147.032 61.1685C145.175 60.0967 142.888 60.0967 141.032 61.1685L78.5301 97.2538C76.6737 98.3256 75.5301 100.306 75.5301 102.45V174.621C75.5301 176.764 76.6737 178.745 78.5301 179.817L141.032 215.902C142.888 216.974 145.175 216.974 147.032 215.902L209.533 179.817C211.39 178.745 212.533 176.764 212.533 174.621V102.45C212.533 100.306 211.39 98.3256 209.533 97.2538ZM148.032 59.4364C145.557 58.0073 142.507 58.0073 140.032 59.4364L77.5301 95.5218C75.0549 96.9508 73.5301 99.5918 73.5301 102.45V174.621C73.5301 177.479 75.0549 180.12 77.5301 181.549L140.032 217.634C142.507 219.063 145.557 219.063 148.032 217.634L210.533 181.549C213.009 180.12 214.533 177.479 214.533 174.621V102.45C214.533 99.5918 213.009 96.9508 210.533 95.5218L148.032 59.4364ZM209.533 351.983L147.032 315.898C145.175 314.826 142.888 314.826 141.032 315.898L78.5301 351.983C76.6737 353.055 75.5301 355.036 75.5301 357.179V429.35C75.5301 431.494 76.6737 433.474 78.5301 434.546L141.032 470.631C142.888 471.703 145.175 471.703 147.032 470.631L209.533 434.546C211.39 433.474 212.533 431.494 212.533 429.35V357.179C212.533 355.036 211.39 353.055 209.533 351.983ZM148.032 314.166C145.557 312.737 142.507 312.737 140.032 314.166L77.5301 350.251C75.0549 351.68 73.5301 354.321 73.5301 357.179V429.35C73.5301 432.208 75.0549 434.849 77.5301 436.278L140.032 472.363C142.507 473.793 145.557 473.793 148.032 472.363L210.533 436.278C213.009 434.849 214.533 432.208 214.533 429.35V357.179C214.533 354.321 213.009 351.68 210.533 350.251L148.032 314.166ZM294.092 315.898L356.594 351.983C358.45 353.055 359.594 355.036 359.594 357.179V429.35C359.594 431.494 358.45 433.474 356.594 434.546L294.092 470.631C292.236 471.703 289.948 471.703 288.092 470.631L225.59 434.546C223.734 433.474 222.59 431.494 222.59 429.35V357.179C222.59 355.036 223.734 353.055 225.59 351.983L288.092 315.898C289.948 314.826 292.236 314.826 294.092 315.898ZM287.092 314.166C289.567 312.737 292.617 312.737 295.092 314.166L357.594 350.251C360.069 351.68 361.594 354.321 361.594 357.179V429.35C361.594 432.208 360.069 434.849 357.594 436.278L295.092 472.363C292.617 473.793 289.567 473.793 287.092 472.363L224.59 436.278C222.115 434.849 220.59 432.208 220.59 429.35V357.179C220.59 354.321 222.115 351.68 224.59 350.251L287.092 314.166ZM503.654 97.2538L441.152 61.1685C439.296 60.0967 437.009 60.0967 435.152 61.1685L372.65 97.2538C370.794 98.3256 369.65 100.306 369.65 102.45V174.621C369.65 176.764 370.794 178.745 372.65 179.817L435.152 215.902C437.009 216.974 439.296 216.974 441.152 215.902L503.654 179.817C505.51 178.745 506.654 176.764 506.654 174.621V102.45C506.654 100.306 505.51 98.3256 503.654 97.2538ZM442.152 59.4364C439.677 58.0073 436.627 58.0073 434.152 59.4364L371.65 95.5218C369.175 96.9508 367.65 99.5918 367.65 102.45V174.621C367.65 177.479 369.175 180.12 371.65 181.549L434.152 217.634C436.627 219.063 439.677 219.063 442.152 217.634L504.654 181.549C507.129 180.12 508.654 177.479 508.654 174.621V102.45C508.654 99.5918 507.129 96.9508 504.654 95.5218L442.152 59.4364ZM735.272 61.1685L797.774 97.2538C799.63 98.3256 800.774 100.306 800.774 102.45V174.621C800.774 176.764 799.63 178.745 797.774 179.817L735.272 215.902C733.416 216.974 731.129 216.974 729.272 215.902L666.771 179.817C664.914 178.745 663.771 176.764 663.771 174.621V102.45C663.771 100.306 664.914 98.3256 666.771 97.2538L729.272 61.1685C731.129 60.0967 733.416 60.0967 735.272 61.1685ZM728.272 59.4364C730.748 58.0073 733.797 58.0073 736.272 59.4364L798.774 95.5218C801.249 96.9508 802.774 99.5918 802.774 102.45V174.621C802.774 177.479 801.249 180.12 798.774 181.549L736.272 217.634C733.797 219.063 730.748 219.063 728.272 217.634L665.771 181.549C663.296 180.12 661.771 177.479 661.771 174.621V102.45C661.771 99.5918 663.296 96.9508 665.771 95.5218L728.272 59.4364ZM1091.89 97.2538L1029.39 61.1685C1027.54 60.0967 1025.25 60.0967 1023.39 61.1685L960.891 97.2538C959.035 98.3256 957.891 100.306 957.891 102.45V174.621C957.891 176.764 959.035 178.745 960.891 179.817L1023.39 215.902C1025.25 216.974 1027.54 216.974 1029.39 215.902L1091.89 179.817C1093.75 178.745 1094.89 176.764 1094.89 174.621V102.45C1094.89 100.306 1093.75 98.3256 1091.89 97.2538ZM1030.39 59.4364C1027.92 58.0073 1024.87 58.0073 1022.39 59.4364L959.891 95.5218C957.416 96.9508 955.891 99.5918 955.891 102.45V174.621C955.891 177.479 957.416 180.12 959.891 181.549L1022.39 217.634C1024.87 219.063 1027.92 219.063 1030.39 217.634L1092.89 181.549C1095.37 180.12 1096.89 177.479 1096.89 174.621V102.45C1096.89 99.5918 1095.37 96.9508 1092.89 95.5218L1030.39 59.4364ZM1029.39 315.898L1091.89 351.983C1093.75 353.055 1094.89 355.036 1094.89 357.179V429.35C1094.89 431.494 1093.75 433.474 1091.89 434.546L1029.39 470.631C1027.54 471.703 1025.25 471.703 1023.39 470.631L960.891 434.546C959.035 433.474 957.891 431.494 957.891 429.35V357.179C957.891 355.036 959.035 353.055 960.891 351.983L1023.39 315.898C1025.25 314.826 1027.54 314.826 1029.39 315.898ZM1022.39 314.166C1024.87 312.737 1027.92 312.737 1030.39 314.166L1092.89 350.251C1095.37 351.68 1096.89 354.321 1096.89 357.179V429.35C1096.89 432.208 1095.37 434.849 1092.89 436.278L1030.39 472.363C1027.92 473.793 1024.87 473.793 1022.39 472.363L959.891 436.278C957.416 434.849 955.891 432.208 955.891 429.35V357.179C955.891 354.321 957.416 351.68 959.891 350.251L1022.39 314.166ZM430.124 224.618L367.622 188.533C365.766 187.461 363.478 187.461 361.622 188.533L299.12 224.618C297.264 225.69 296.12 227.671 296.12 229.815V301.985C296.12 304.129 297.264 306.11 299.12 307.181L361.622 343.267C363.478 344.339 365.766 344.339 367.622 343.267L430.124 307.181C431.98 306.11 433.124 304.129 433.124 301.985V229.815C433.124 227.671 431.98 225.69 430.124 224.618ZM368.622 186.801C366.147 185.372 363.097 185.372 360.622 186.801L298.12 222.886C295.645 224.315 294.12 226.956 294.12 229.815V301.985C294.12 304.843 295.645 307.484 298.12 308.913L360.622 344.999C363.097 346.428 366.147 346.428 368.622 344.999L431.124 308.913C433.599 307.484 435.124 304.843 435.124 301.985V229.815C435.124 226.956 433.599 224.315 431.124 222.886L368.622 186.801ZM514.682 188.533L577.184 224.618C579.04 225.69 580.184 227.671 580.184 229.815V301.985C580.184 304.129 579.04 306.11 577.184 307.181L514.682 343.267C512.826 344.339 510.539 344.339 508.682 343.267L446.181 307.181C444.324 306.11 443.181 304.129 443.181 301.985V229.815C443.181 227.671 444.324 225.69 446.181 224.618L508.682 188.533C510.539 187.461 512.826 187.461 514.682 188.533ZM507.682 186.801C510.157 185.372 513.207 185.372 515.682 186.801L578.184 222.886C580.659 224.315 582.184 226.956 582.184 229.815V301.985C582.184 304.843 580.659 307.484 578.184 308.913L515.682 344.999C513.207 346.428 510.157 346.428 507.682 344.999L445.181 308.913C442.705 307.484 441.181 304.843 441.181 301.985V229.815C441.181 226.956 442.705 224.315 445.181 222.886L507.682 186.801ZM724.244 224.618L661.742 188.533C659.886 187.461 657.599 187.461 655.742 188.533L593.241 224.618C591.384 225.69 590.241 227.671 590.241 229.815V301.985C590.241 304.129 591.384 306.11 593.241 307.181L655.742 343.267C657.599 344.339 659.886 344.339 661.742 343.267L724.244 307.181C726.1 306.11 727.244 304.129 727.244 301.985V229.815C727.244 227.671 726.1 225.69 724.244 224.618ZM662.742 186.801C660.267 185.372 657.218 185.372 654.742 186.801L592.241 222.886C589.765 224.315 588.241 226.956 588.241 229.815V301.985C588.241 304.843 589.765 307.484 592.241 308.913L654.742 344.999C657.218 346.428 660.267 346.428 662.742 344.999L725.244 308.913C727.719 307.484 729.244 304.843 729.244 301.985V229.815C729.244 226.956 727.719 224.315 725.244 222.886L662.742 186.801ZM808.802 188.533L871.304 224.618C873.161 225.69 874.304 227.671 874.304 229.815V301.985C874.304 304.129 873.161 306.11 871.304 307.181L808.802 343.267C806.946 344.339 804.659 344.339 802.802 343.267L740.301 307.181C738.444 306.11 737.301 304.129 737.301 301.985V229.815C737.301 227.671 738.444 225.69 740.301 224.618L802.802 188.533C804.659 187.461 806.946 187.461 808.802 188.533ZM801.802 186.801C804.278 185.372 807.327 185.372 809.802 186.801L872.304 222.886C874.779 224.315 876.304 226.956 876.304 229.815V301.985C876.304 304.843 874.779 307.484 872.304 308.913L809.802 344.999C807.327 346.428 804.278 346.428 801.802 344.999L739.301 308.913C736.826 307.484 735.301 304.843 735.301 301.985V229.815C735.301 226.956 736.826 224.315 739.301 222.886L801.802 186.801ZM1018.36 224.618L955.863 188.533C954.006 187.461 951.719 187.461 949.863 188.533L887.361 224.618C885.505 225.69 884.361 227.671 884.361 229.815V301.985C884.361 304.129 885.505 306.11 887.361 307.181L949.863 343.267C951.719 344.339 954.006 344.339 955.863 343.267L1018.36 307.181C1020.22 306.11 1021.36 304.129 1021.36 301.985V229.815C1021.36 227.671 1020.22 225.69 1018.36 224.618ZM956.863 186.801C954.388 185.372 951.338 185.372 948.863 186.801L886.361 222.886C883.886 224.315 882.361 226.956 882.361 229.815V301.985C882.361 304.843 883.886 307.484 886.361 308.913L948.863 344.999C951.338 346.428 954.388 346.428 956.863 344.999L1019.36 308.913C1021.84 307.484 1023.36 304.843 1023.36 301.985V229.815C1023.36 226.956 1021.84 224.315 1019.36 222.886L956.863 186.801ZM1102.92 188.533L1165.42 224.618C1167.28 225.69 1168.42 227.671 1168.42 229.815V301.985C1168.42 304.129 1167.28 306.11 1165.42 307.181L1102.92 343.267C1101.07 344.339 1098.78 344.339 1096.92 343.267L1034.42 307.181C1032.56 306.11 1031.42 304.129 1031.42 301.985V229.815C1031.42 227.671 1032.56 225.69 1034.42 224.618L1096.92 188.533C1098.78 187.461 1101.07 187.461 1102.92 188.533ZM1095.92 186.801C1098.4 185.372 1101.45 185.372 1103.92 186.801L1166.42 222.886C1168.9 224.315 1170.42 226.956 1170.42 229.815V301.985C1170.42 304.843 1168.9 307.484 1166.42 308.913L1103.92 344.999C1101.45 346.428 1098.4 346.428 1095.92 344.999L1033.42 308.913C1030.95 307.484 1029.42 304.843 1029.42 301.985V229.815C1029.42 226.956 1030.95 224.315 1033.42 222.886L1095.92 186.801ZM724.244 -30.1108L661.742 -66.1962C659.886 -67.268 657.599 -67.2679 655.742 -66.1962L593.241 -30.1108C591.384 -29.039 590.241 -27.0582 590.241 -24.9146V47.2561C590.241 49.3996 591.384 51.3804 593.241 52.4522L655.742 88.5376C657.599 89.6094 659.886 89.6093 661.742 88.5376L724.244 52.4522C726.1 51.3804 727.244 49.3996 727.244 47.256V-24.9146C727.244 -27.0582 726.1 -29.039 724.244 -30.1108ZM662.742 -67.9282C660.267 -69.3573 657.218 -69.3573 654.742 -67.9282L592.241 -31.8429C589.765 -30.4138 588.241 -27.7728 588.241 -24.9146V47.2561C588.241 50.1142 589.765 52.7552 592.241 54.1843L654.742 90.2696C657.218 91.6987 660.267 91.6987 662.742 90.2696L725.244 54.1843C727.719 52.7552 729.244 50.1142 729.244 47.256V-24.9146C729.244 -27.7728 727.719 -30.4138 725.244 -31.8429L662.742 -67.9282ZM808.802 -66.1962L871.304 -30.1108C873.161 -29.039 874.304 -27.0582 874.304 -24.9146V47.256C874.304 49.3996 873.161 51.3804 871.304 52.4522L808.802 88.5376C806.946 89.6093 804.659 89.6094 802.802 88.5376L740.301 52.4522C738.444 51.3804 737.301 49.3996 737.301 47.2561V-24.9146C737.301 -27.0582 738.444 -29.039 740.301 -30.1108L802.802 -66.1962C804.659 -67.2679 806.946 -67.268 808.802 -66.1962ZM801.802 -67.9282C804.278 -69.3573 807.327 -69.3573 809.802 -67.9282L872.304 -31.8429C874.779 -30.4138 876.304 -27.7728 876.304 -24.9146V47.256C876.304 50.1142 874.779 52.7552 872.304 54.1843L809.802 90.2696C807.327 91.6987 804.278 91.6987 801.802 90.2696L739.301 54.1843C736.826 52.7552 735.301 50.1142 735.301 47.2561V-24.9146C735.301 -27.7728 736.826 -30.4138 739.301 -31.8429L801.802 -67.9282ZM1018.36 -30.1108L955.863 -66.1962C954.006 -67.268 951.719 -67.2679 949.863 -66.1962L887.361 -30.1108C885.505 -29.039 884.361 -27.0582 884.361 -24.9146V47.2561C884.361 49.3996 885.505 51.3804 887.361 52.4522L949.863 88.5376C951.719 89.6094 954.006 89.6093 955.863 88.5376L1018.36 52.4522C1020.22 51.3804 1021.36 49.3996 1021.36 47.256V-24.9146C1021.36 -27.0582 1020.22 -29.039 1018.36 -30.1108ZM956.863 -67.9282C954.387 -69.3573 951.338 -69.3573 948.863 -67.9282L886.361 -31.8429C883.886 -30.4138 882.361 -27.7728 882.361 -24.9146V47.2561C882.361 50.1142 883.886 52.7552 886.361 54.1843L948.863 90.2696C951.338 91.6987 954.387 91.6987 956.863 90.2696L1019.36 54.1843C1021.84 52.7552 1023.36 50.1142 1023.36 47.256V-24.9146C1023.36 -27.7728 1021.84 -30.4138 1019.36 -31.8429L956.863 -67.9282ZM1102.92 -66.1962L1165.42 -30.1108C1167.28 -29.039 1168.42 -27.0582 1168.42 -24.9146V47.256C1168.42 49.3996 1167.28 51.3804 1165.42 52.4522L1102.92 88.5376C1101.07 89.6093 1098.78 89.6094 1096.92 88.5376L1034.42 52.4522C1032.56 51.3804 1031.42 49.3996 1031.42 47.2561V-24.9146C1031.42 -27.0582 1032.56 -29.039 1034.42 -30.1108L1096.92 -66.1962C1098.78 -67.2679 1101.07 -67.268 1102.92 -66.1962ZM1095.92 -67.9282C1098.4 -69.3573 1101.45 -69.3573 1103.92 -67.9282L1166.42 -31.8429C1168.9 -30.4138 1170.42 -27.7728 1170.42 -24.9146V47.256C1170.42 50.1142 1168.9 52.7552 1166.42 54.1843L1103.92 90.2696C1101.45 91.6987 1098.4 91.6987 1095.92 90.2696L1033.42 54.1843C1030.95 52.7552 1029.42 50.1142 1029.42 47.2561V-24.9146C1029.42 -27.7728 1030.95 -30.4138 1033.42 -31.8429L1095.92 -67.9282ZM283.063 479.348L220.562 443.262C218.705 442.191 216.418 442.191 214.562 443.262L152.06 479.348C150.204 480.419 149.06 482.4 149.06 484.544V556.715C149.06 558.858 150.204 560.839 152.06 561.911L214.562 597.996C216.418 599.068 218.705 599.068 220.562 597.996L283.063 561.911C284.92 560.839 286.063 558.858 286.063 556.715V484.544C286.063 482.4 284.92 480.419 283.063 479.348ZM221.562 441.53C219.087 440.101 216.037 440.101 213.562 441.53L151.06 477.616C148.585 479.045 147.06 481.686 147.06 484.544V556.715C147.06 559.573 148.585 562.214 151.06 563.643L213.562 599.728C216.037 601.157 219.087 601.157 221.562 599.728L284.063 563.643C286.539 562.214 288.063 559.573 288.063 556.715V484.544C288.063 481.686 286.539 479.045 284.063 477.616L221.562 441.53ZM73.5017 443.262L136.003 479.348C137.86 480.419 139.003 482.4 139.003 484.544V556.714C139.003 558.858 137.86 560.839 136.003 561.911L73.5017 597.996C71.6453 599.068 69.3581 599.068 67.5017 597.996L5.00001 561.911C3.1436 560.839 2 558.858 2 556.715V484.544C2 482.4 3.14359 480.419 5 479.348L67.5017 443.262C69.3581 442.191 71.6453 442.191 73.5017 443.262ZM66.5017 441.53C68.9769 440.101 72.0265 440.101 74.5017 441.53L137.003 477.616C139.479 479.045 141.003 481.686 141.003 484.544V556.714C141.003 559.573 139.479 562.214 137.003 563.643L74.5017 599.728C72.0265 601.157 68.9769 601.157 66.5017 599.728L4.00001 563.643C1.5248 562.214 0 559.573 0 556.715V484.544C0 481.686 1.52479 479.045 4 477.616L66.5017 441.53ZM430.124 479.348L367.622 443.262C365.766 442.191 363.478 442.191 361.622 443.262L299.12 479.348C297.264 480.419 296.12 482.4 296.12 484.544V556.715C296.12 558.858 297.264 560.839 299.12 561.911L361.622 597.996C363.478 599.068 365.766 599.068 367.622 597.996L430.124 561.911C431.98 560.839 433.124 558.858 433.124 556.715V484.544C433.124 482.4 431.98 480.419 430.124 479.348ZM368.622 441.53C366.147 440.101 363.097 440.101 360.622 441.53L298.12 477.616C295.645 479.045 294.12 481.686 294.12 484.544V556.715C294.12 559.573 295.645 562.214 298.12 563.643L360.622 599.728C363.097 601.157 366.147 601.157 368.622 599.728L431.124 563.643C433.599 562.214 435.124 559.573 435.124 556.715V484.544C435.124 481.686 433.599 479.045 431.124 477.616L368.622 441.53ZM514.682 443.262L577.184 479.348C579.04 480.419 580.184 482.4 580.184 484.544V556.715C580.184 558.858 579.04 560.839 577.184 561.911L514.682 597.996C512.826 599.068 510.539 599.068 508.682 597.996L446.181 561.911C444.324 560.839 443.181 558.858 443.181 556.715V484.544C443.181 482.4 444.324 480.419 446.181 479.348L508.682 443.262C510.539 442.191 512.826 442.191 514.682 443.262ZM507.682 441.53C510.157 440.101 513.207 440.101 515.682 441.53L578.184 477.616C580.659 479.045 582.184 481.686 582.184 484.544V556.715C582.184 559.573 580.659 562.214 578.184 563.643L515.682 599.728C513.207 601.157 510.157 601.157 507.682 599.728L445.181 563.643C442.705 562.214 441.181 559.573 441.181 556.715V484.544C441.181 481.686 442.705 479.045 445.181 477.616L507.682 441.53ZM724.244 479.348L661.742 443.262C659.886 442.191 657.599 442.191 655.742 443.262L593.241 479.348C591.384 480.419 590.241 482.4 590.241 484.544V556.715C590.241 558.858 591.384 560.839 593.241 561.911L655.742 597.996C657.599 599.068 659.886 599.068 661.742 597.996L724.244 561.911C726.1 560.839 727.244 558.858 727.244 556.715V484.544C727.244 482.4 726.1 480.419 724.244 479.348ZM662.742 441.53C660.267 440.101 657.218 440.101 654.742 441.53L592.241 477.616C589.765 479.045 588.241 481.686 588.241 484.544V556.715C588.241 559.573 589.765 562.214 592.241 563.643L654.742 599.728C657.218 601.157 660.267 601.157 662.742 599.728L725.244 563.643C727.719 562.214 729.244 559.573 729.244 556.715V484.544C729.244 481.686 727.719 479.045 725.244 477.616L662.742 441.53ZM808.802 443.262L871.304 479.348C873.161 480.419 874.304 482.4 874.304 484.544V556.715C874.304 558.858 873.161 560.839 871.304 561.911L808.802 597.996C806.946 599.068 804.659 599.068 802.802 597.996L740.301 561.911C738.444 560.839 737.301 558.858 737.301 556.715V484.544C737.301 482.4 738.444 480.419 740.301 479.348L802.802 443.262C804.659 442.191 806.946 442.191 808.802 443.262ZM801.802 441.53C804.278 440.101 807.327 440.101 809.802 441.53L872.304 477.616C874.779 479.045 876.304 481.686 876.304 484.544V556.715C876.304 559.573 874.779 562.214 872.304 563.643L809.802 599.728C807.327 601.157 804.278 601.157 801.802 599.728L739.301 563.643C736.826 562.214 735.301 559.573 735.301 556.715V484.544C735.301 481.686 736.826 479.045 739.301 477.616L801.802 441.53ZM1018.36 479.348L955.863 443.262C954.006 442.191 951.719 442.191 949.863 443.262L887.361 479.348C885.505 480.419 884.361 482.4 884.361 484.544V556.715C884.361 558.858 885.505 560.839 887.361 561.911L949.863 597.996C951.719 599.068 954.006 599.068 955.863 597.996L1018.36 561.911C1020.22 560.839 1021.36 558.858 1021.36 556.715V484.544C1021.36 482.4 1020.22 480.419 1018.36 479.348ZM956.863 441.53C954.387 440.101 951.338 440.101 948.863 441.53L886.361 477.616C883.886 479.045 882.361 481.686 882.361 484.544V556.715C882.361 559.573 883.886 562.214 886.361 563.643L948.863 599.728C951.338 601.157 954.387 601.157 956.863 599.728L1019.36 563.643C1021.84 562.214 1023.36 559.573 1023.36 556.715V484.544C1023.36 481.686 1021.84 479.045 1019.36 477.616L956.863 441.53ZM1102.92 443.262L1165.42 479.348C1167.28 480.419 1168.42 482.4 1168.42 484.544V556.715C1168.42 558.858 1167.28 560.839 1165.42 561.911L1102.92 597.996C1101.07 599.068 1098.78 599.068 1096.92 597.996L1034.42 561.911C1032.56 560.839 1031.42 558.858 1031.42 556.715V484.544C1031.42 482.4 1032.56 480.419 1034.42 479.348L1096.92 443.262C1098.78 442.191 1101.07 442.191 1102.92 443.262ZM1095.92 441.53C1098.4 440.101 1101.45 440.101 1103.92 441.53L1166.42 477.616C1168.9 479.045 1170.42 481.686 1170.42 484.544V556.715C1170.42 559.573 1168.9 562.214 1166.42 563.643L1103.92 599.728C1101.45 601.157 1098.4 601.157 1095.92 599.728L1033.42 563.643C1030.95 562.214 1029.42 559.573 1029.42 556.715V484.544C1029.42 481.686 1030.95 479.045 1033.42 477.616L1095.92 441.53Z" fill="url(#paint0_radial_4457_13956)"/>
<path fill-rule="evenodd" clip-rule="evenodd" d="M367.622 -66.1962L430.124 -30.1108C431.98 -29.039 433.124 -27.0582 433.124 -24.9146V47.256C433.124 49.3996 431.98 51.3804 430.124 52.4522L367.622 88.5376C365.766 89.6093 363.478 89.6094 361.622 88.5376L299.12 52.4522C297.264 51.3804 296.12 49.3996 296.12 47.2561V-24.9146C296.12 -27.0582 297.264 -29.039 299.12 -30.1108L361.622 -66.1962C363.478 -67.2679 365.766 -67.268 367.622 -66.1962ZM360.622 -67.9282C363.097 -69.3573 366.147 -69.3573 368.622 -67.9282L431.124 -31.8429C433.599 -30.4138 435.124 -27.7728 435.124 -24.9146V47.256C435.124 50.1142 433.599 52.7552 431.124 54.1843L368.622 90.2696C366.147 91.6987 363.097 91.6987 360.622 90.2696L298.12 54.1843C295.645 52.7552 294.12 50.1142 294.12 47.2561V-24.9146C294.12 -27.7728 295.645 -30.4138 298.12 -31.8429L360.622 -67.9282ZM136.003 -30.1108L73.5017 -66.1961C71.6453 -67.2679 69.3581 -67.2679 67.5017 -66.1961L5 -30.1108C3.14359 -29.039 2 -27.0582 2 -24.9146V47.2561C2 49.3997 3.1436 51.3804 5.00001 52.4522L67.5017 88.5376C69.3581 89.6094 71.6453 89.6094 73.5017 88.5376L136.003 52.4522C137.86 51.3804 139.003 49.3997 139.003 47.2561V-24.9146C139.003 -27.0582 137.86 -29.039 136.003 -30.1108ZM74.5017 -67.9282C72.0265 -69.3573 68.9769 -69.3573 66.5017 -67.9282L4 -31.8428C1.52479 -30.4138 0 -27.7728 0 -24.9146V47.2561C0 50.1142 1.5248 52.7552 4.00001 54.1843L66.5017 90.2696C68.9769 91.6987 72.0265 91.6987 74.5017 90.2696L137.003 54.1843C139.479 52.7552 141.003 50.1142 141.003 47.2561V-24.9146C141.003 -27.7728 139.479 -30.4138 137.003 -31.8428L74.5017 -67.9282ZM209.533 97.2538L147.032 61.1685C145.175 60.0967 142.888 60.0967 141.032 61.1685L78.5301 97.2538C76.6737 98.3256 75.5301 100.306 75.5301 102.45V174.621C75.5301 176.764 76.6737 178.745 78.5301 179.817L141.032 215.902C142.888 216.974 145.175 216.974 147.032 215.902L209.533 179.817C211.39 178.745 212.533 176.764 212.533 174.621V102.45C212.533 100.306 211.39 98.3256 209.533 97.2538ZM148.032 59.4364C145.557 58.0073 142.507 58.0073 140.032 59.4364L77.5301 95.5218C75.0549 96.9508 73.5301 99.5918 73.5301 102.45V174.621C73.5301 177.479 75.0549 180.12 77.5301 181.549L140.032 217.634C142.507 219.063 145.557 219.063 148.032 217.634L210.533 181.549C213.009 180.12 214.533 177.479 214.533 174.621V102.45C214.533 99.5918 213.009 96.9508 210.533 95.5218L148.032 59.4364ZM209.533 351.983L147.032 315.898C145.175 314.826 142.888 314.826 141.032 315.898L78.5301 351.983C76.6737 353.055 75.5301 355.036 75.5301 357.179V429.35C75.5301 431.494 76.6737 433.474 78.5301 434.546L141.032 470.631C142.888 471.703 145.175 471.703 147.032 470.631L209.533 434.546C211.39 433.474 212.533 431.494 212.533 429.35V357.179C212.533 355.036 211.39 353.055 209.533 351.983ZM148.032 314.166C145.557 312.737 142.507 312.737 140.032 314.166L77.5301 350.251C75.0549 351.68 73.5301 354.321 73.5301 357.179V429.35C73.5301 432.208 75.0549 434.849 77.5301 436.278L140.032 472.363C142.507 473.793 145.557 473.793 148.032 472.363L210.533 436.278C213.009 434.849 214.533 432.208 214.533 429.35V357.179C214.533 354.321 213.009 351.68 210.533 350.251L148.032 314.166ZM294.092 315.898L356.594 351.983C358.45 353.055 359.594 355.036 359.594 357.179V429.35C359.594 431.494 358.45 433.474 356.594 434.546L294.092 470.631C292.236 471.703 289.948 471.703 288.092 470.631L225.59 434.546C223.734 433.474 222.59 431.494 222.59 429.35V357.179C222.59 355.036 223.734 353.055 225.59 351.983L288.092 315.898C289.948 314.826 292.236 314.826 294.092 315.898ZM287.092 314.166C289.567 312.737 292.617 312.737 295.092 314.166L357.594 350.251C360.069 351.68 361.594 354.321 361.594 357.179V429.35C361.594 432.208 360.069 434.849 357.594 436.278L295.092 472.363C292.617 473.793 289.567 473.793 287.092 472.363L224.59 436.278C222.115 434.849 220.59 432.208 220.59 429.35V357.179C220.59 354.321 222.115 351.68 224.59 350.251L287.092 314.166ZM503.654 97.2538L441.152 61.1685C439.296 60.0967 437.009 60.0967 435.152 61.1685L372.65 97.2538C370.794 98.3256 369.65 100.306 369.65 102.45V174.621C369.65 176.764 370.794 178.745 372.65 179.817L435.152 215.902C437.009 216.974 439.296 216.974 441.152 215.902L503.654 179.817C505.51 178.745 506.654 176.764 506.654 174.621V102.45C506.654 100.306 505.51 98.3256 503.654 97.2538ZM442.152 59.4364C439.677 58.0073 436.627 58.0073 434.152 59.4364L371.65 95.5218C369.175 96.9508 367.65 99.5918 367.65 102.45V174.621C367.65 177.479 369.175 180.12 371.65 181.549L434.152 217.634C436.627 219.063 439.677 219.063 442.152 217.634L504.654 181.549C507.129 180.12 508.654 177.479 508.654 174.621V102.45C508.654 99.5918 507.129 96.9508 504.654 95.5218L442.152 59.4364ZM735.272 61.1685L797.774 97.2538C799.63 98.3256 800.774 100.306 800.774 102.45V174.621C800.774 176.764 799.63 178.745 797.774 179.817L735.272 215.902C733.416 216.974 731.129 216.974 729.272 215.902L666.771 179.817C664.914 178.745 663.771 176.764 663.771 174.621V102.45C663.771 100.306 664.914 98.3256 666.771 97.2538L729.272 61.1685C731.129 60.0967 733.416 60.0967 735.272 61.1685ZM728.272 59.4364C730.748 58.0073 733.797 58.0073 736.272 59.4364L798.774 95.5218C801.249 96.9508 802.774 99.5918 802.774 102.45V174.621C802.774 177.479 801.249 180.12 798.774 181.549L736.272 217.634C733.797 219.063 730.748 219.063 728.272 217.634L665.771 181.549C663.296 180.12 661.771 177.479 661.771 174.621V102.45C661.771 99.5918 663.296 96.9508 665.771 95.5218L728.272 59.4364ZM1091.89 97.2538L1029.39 61.1685C1027.54 60.0967 1025.25 60.0967 1023.39 61.1685L960.891 97.2538C959.035 98.3256 957.891 100.306 957.891 102.45V174.621C957.891 176.764 959.035 178.745 960.891 179.817L1023.39 215.902C1025.25 216.974 1027.54 216.974 1029.39 215.902L1091.89 179.817C1093.75 178.745 1094.89 176.764 1094.89 174.621V102.45C1094.89 100.306 1093.75 98.3256 1091.89 97.2538ZM1030.39 59.4364C1027.92 58.0073 1024.87 58.0073 1022.39 59.4364L959.891 95.5218C957.416 96.9508 955.891 99.5918 955.891 102.45V174.621C955.891 177.479 957.416 180.12 959.891 181.549L1022.39 217.634C1024.87 219.063 1027.92 219.063 1030.39 217.634L1092.89 181.549C1095.37 180.12 1096.89 177.479 1096.89 174.621V102.45C1096.89 99.5918 1095.37 96.9508 1092.89 95.5218L1030.39 59.4364ZM1029.39 315.898L1091.89 351.983C1093.75 353.055 1094.89 355.036 1094.89 357.179V429.35C1094.89 431.494 1093.75 433.474 1091.89 434.546L1029.39 470.631C1027.54 471.703 1025.25 471.703 1023.39 470.631L960.891 434.546C959.035 433.474 957.891 431.494 957.891 429.35V357.179C957.891 355.036 959.035 353.055 960.891 351.983L1023.39 315.898C1025.25 314.826 1027.54 314.826 1029.39 315.898ZM1022.39 314.166C1024.87 312.737 1027.92 312.737 1030.39 314.166L1092.89 350.251C1095.37 351.68 1096.89 354.321 1096.89 357.179V429.35C1096.89 432.208 1095.37 434.849 1092.89 436.278L1030.39 472.363C1027.92 473.793 1024.87 473.793 1022.39 472.363L959.891 436.278C957.416 434.849 955.891 432.208 955.891 429.35V357.179C955.891 354.321 957.416 351.68 959.891 350.251L1022.39 314.166ZM430.124 224.618L367.622 188.533C365.766 187.461 363.478 187.461 361.622 188.533L299.12 224.618C297.264 225.69 296.12 227.671 296.12 229.815V301.985C296.12 304.129 297.264 306.11 299.12 307.181L361.622 343.267C363.478 344.339 365.766 344.339 367.622 343.267L430.124 307.181C431.98 306.11 433.124 304.129 433.124 301.985V229.815C433.124 227.671 431.98 225.69 430.124 224.618ZM368.622 186.801C366.147 185.372 363.097 185.372 360.622 186.801L298.12 222.886C295.645 224.315 294.12 226.956 294.12 229.815V301.985C294.12 304.843 295.645 307.484 298.12 308.913L360.622 344.999C363.097 346.428 366.147 346.428 368.622 344.999L431.124 308.913C433.599 307.484 435.124 304.843 435.124 301.985V229.815C435.124 226.956 433.599 224.315 431.124 222.886L368.622 186.801ZM514.682 188.533L577.184 224.618C579.04 225.69 580.184 227.671 580.184 229.815V301.985C580.184 304.129 579.04 306.11 577.184 307.181L514.682 343.267C512.826 344.339 510.539 344.339 508.682 343.267L446.181 307.181C444.324 306.11 443.181 304.129 443.181 301.985V229.815C443.181 227.671 444.324 225.69 446.181 224.618L508.682 188.533C510.539 187.461 512.826 187.461 514.682 188.533ZM507.682 186.801C510.157 185.372 513.207 185.372 515.682 186.801L578.184 222.886C580.659 224.315 582.184 226.956 582.184 229.815V301.985C582.184 304.843 580.659 307.484 578.184 308.913L515.682 344.999C513.207 346.428 510.157 346.428 507.682 344.999L445.181 308.913C442.705 307.484 441.181 304.843 441.181 301.985V229.815C441.181 226.956 442.705 224.315 445.181 222.886L507.682 186.801ZM724.244 224.618L661.742 188.533C659.886 187.461 657.599 187.461 655.742 188.533L593.241 224.618C591.384 225.69 590.241 227.671 590.241 229.815V301.985C590.241 304.129 591.384 306.11 593.241 307.181L655.742 343.267C657.599 344.339 659.886 344.339 661.742 343.267L724.244 307.181C726.1 306.11 727.244 304.129 727.244 301.985V229.815C727.244 227.671 726.1 225.69 724.244 224.618ZM662.742 186.801C660.267 185.372 657.218 185.372 654.742 186.801L592.241 222.886C589.765 224.315 588.241 226.956 588.241 229.815V301.985C588.241 304.843 589.765 307.484 592.241 308.913L654.742 344.999C657.218 346.428 660.267 346.428 662.742 344.999L725.244 308.913C727.719 307.484 729.244 304.843 729.244 301.985V229.815C729.244 226.956 727.719 224.315 725.244 222.886L662.742 186.801ZM808.802 188.533L871.304 224.618C873.161 225.69 874.304 227.671 874.304 229.815V301.985C874.304 304.129 873.161 306.11 871.304 307.181L808.802 343.267C806.946 344.339 804.659 344.339 802.802 343.267L740.301 307.181C738.444 306.11 737.301 304.129 737.301 301.985V229.815C737.301 227.671 738.444 225.69 740.301 224.618L802.802 188.533C804.659 187.461 806.946 187.461 808.802 188.533ZM801.802 186.801C804.278 185.372 807.327 185.372 809.802 186.801L872.304 222.886C874.779 224.315 876.304 226.956 876.304 229.815V301.985C876.304 304.843 874.779 307.484 872.304 308.913L809.802 344.999C807.327 346.428 804.278 346.428 801.802 344.999L739.301 308.913C736.826 307.484 735.301 304.843 735.301 301.985V229.815C735.301 226.956 736.826 224.315 739.301 222.886L801.802 186.801ZM1018.36 224.618L955.863 188.533C954.006 187.461 951.719 187.461 949.863 188.533L887.361 224.618C885.505 225.69 884.361 227.671 884.361 229.815V301.985C884.361 304.129 885.505 306.11 887.361 307.181L949.863 343.267C951.719 344.339 954.006 344.339 955.863 343.267L1018.36 307.181C1020.22 306.11 1021.36 304.129 1021.36 301.985V229.815C1021.36 227.671 1020.22 225.69 1018.36 224.618ZM956.863 186.801C954.388 185.372 951.338 185.372 948.863 186.801L886.361 222.886C883.886 224.315 882.361 226.956 882.361 229.815V301.985C882.361 304.843 883.886 307.484 886.361 308.913L948.863 344.999C951.338 346.428 954.388 346.428 956.863 344.999L1019.36 308.913C1021.84 307.484 1023.36 304.843 1023.36 301.985V229.815C1023.36 226.956 1021.84 224.315 1019.36 222.886L956.863 186.801ZM1102.92 188.533L1165.42 224.618C1167.28 225.69 1168.42 227.671 1168.42 229.815V301.985C1168.42 304.129 1167.28 306.11 1165.42 307.181L1102.92 343.267C1101.07 344.339 1098.78 344.339 1096.92 343.267L1034.42 307.181C1032.56 306.11 1031.42 304.129 1031.42 301.985V229.815C1031.42 227.671 1032.56 225.69 1034.42 224.618L1096.92 188.533C1098.78 187.461 1101.07 187.461 1102.92 188.533ZM1095.92 186.801C1098.4 185.372 1101.45 185.372 1103.92 186.801L1166.42 222.886C1168.9 224.315 1170.42 226.956 1170.42 229.815V301.985C1170.42 304.843 1168.9 307.484 1166.42 308.913L1103.92 344.999C1101.45 346.428 1098.4 346.428 1095.92 344.999L1033.42 308.913C1030.95 307.484 1029.42 304.843 1029.42 301.985V229.815C1029.42 226.956 1030.95 224.315 1033.42 222.886L1095.92 186.801ZM724.244 -30.1108L661.742 -66.1962C659.886 -67.268 657.599 -67.2679 655.742 -66.1962L593.241 -30.1108C591.384 -29.039 590.241 -27.0582 590.241 -24.9146V47.2561C590.241 49.3996 591.384 51.3804 593.241 52.4522L655.742 88.5376C657.599 89.6094 659.886 89.6093 661.742 88.5376L724.244 52.4522C726.1 51.3804 727.244 49.3996 727.244 47.256V-24.9146C727.244 -27.0582 726.1 -29.039 724.244 -30.1108ZM662.742 -67.9282C660.267 -69.3573 657.218 -69.3573 654.742 -67.9282L592.241 -31.8429C589.765 -30.4138 588.241 -27.7728 588.241 -24.9146V47.2561C588.241 50.1142 589.765 52.7552 592.241 54.1843L654.742 90.2696C657.218 91.6987 660.267 91.6987 662.742 90.2696L725.244 54.1843C727.719 52.7552 729.244 50.1142 729.244 47.256V-24.9146C729.244 -27.7728 727.719 -30.4138 725.244 -31.8429L662.742 -67.9282ZM808.802 -66.1962L871.304 -30.1108C873.161 -29.039 874.304 -27.0582 874.304 -24.9146V47.256C874.304 49.3996 873.161 51.3804 871.304 52.4522L808.802 88.5376C806.946 89.6093 804.659 89.6094 802.802 88.5376L740.301 52.4522C738.444 51.3804 737.301 49.3996 737.301 47.2561V-24.9146C737.301 -27.0582 738.444 -29.039 740.301 -30.1108L802.802 -66.1962C804.659 -67.2679 806.946 -67.268 808.802 -66.1962ZM801.802 -67.9282C804.278 -69.3573 807.327 -69.3573 809.802 -67.9282L872.304 -31.8429C874.779 -30.4138 876.304 -27.7728 876.304 -24.9146V47.256C876.304 50.1142 874.779 52.7552 872.304 54.1843L809.802 90.2696C807.327 91.6987 804.278 91.6987 801.802 90.2696L739.301 54.1843C736.826 52.7552 735.301 50.1142 735.301 47.2561V-24.9146C735.301 -27.7728 736.826 -30.4138 739.301 -31.8429L801.802 -67.9282ZM1018.36 -30.1108L955.863 -66.1962C954.006 -67.268 951.719 -67.2679 949.863 -66.1962L887.361 -30.1108C885.505 -29.039 884.361 -27.0582 884.361 -24.9146V47.2561C884.361 49.3996 885.505 51.3804 887.361 52.4522L949.863 88.5376C951.719 89.6094 954.006 89.6093 955.863 88.5376L1018.36 52.4522C1020.22 51.3804 1021.36 49.3996 1021.36 47.256V-24.9146C1021.36 -27.0582 1020.22 -29.039 1018.36 -30.1108ZM956.863 -67.9282C954.387 -69.3573 951.338 -69.3573 948.863 -67.9282L886.361 -31.8429C883.886 -30.4138 882.361 -27.7728 882.361 -24.9146V47.2561C882.361 50.1142 883.886 52.7552 886.361 54.1843L948.863 90.2696C951.338 91.6987 954.387 91.6987 956.863 90.2696L1019.36 54.1843C1021.84 52.7552 1023.36 50.1142 1023.36 47.256V-24.9146C1023.36 -27.7728 1021.84 -30.4138 1019.36 -31.8429L956.863 -67.9282ZM1102.92 -66.1962L1165.42 -30.1108C1167.28 -29.039 1168.42 -27.0582 1168.42 -24.9146V47.256C1168.42 49.3996 1167.28 51.3804 1165.42 52.4522L1102.92 88.5376C1101.07 89.6093 1098.78 89.6094 1096.92 88.5376L1034.42 52.4522C1032.56 51.3804 1031.42 49.3996 1031.42 47.2561V-24.9146C1031.42 -27.0582 1032.56 -29.039 1034.42 -30.1108L1096.92 -66.1962C1098.78 -67.2679 1101.07 -67.268 1102.92 -66.1962ZM1095.92 -67.9282C1098.4 -69.3573 1101.45 -69.3573 1103.92 -67.9282L1166.42 -31.8429C1168.9 -30.4138 1170.42 -27.7728 1170.42 -24.9146V47.256C1170.42 50.1142 1168.9 52.7552 1166.42 54.1843L1103.92 90.2696C1101.45 91.6987 1098.4 91.6987 1095.92 90.2696L1033.42 54.1843C1030.95 52.7552 1029.42 50.1142 1029.42 47.2561V-24.9146C1029.42 -27.7728 1030.95 -30.4138 1033.42 -31.8429L1095.92 -67.9282ZM283.063 479.348L220.562 443.262C218.705 442.191 216.418 442.191 214.562 443.262L152.06 479.348C150.204 480.419 149.06 482.4 149.06 484.544V556.715C149.06 558.858 150.204 560.839 152.06 561.911L214.562 597.996C216.418 599.068 218.705 599.068 220.562 597.996L283.063 561.911C284.92 560.839 286.063 558.858 286.063 556.715V484.544C286.063 482.4 284.92 480.419 283.063 479.348ZM221.562 441.53C219.087 440.101 216.037 440.101 213.562 441.53L151.06 477.616C148.585 479.045 147.06 481.686 147.06 484.544V556.715C147.06 559.573 148.585 562.214 151.06 563.643L213.562 599.728C216.037 601.157 219.087 601.157 221.562 599.728L284.063 563.643C286.539 562.214 288.063 559.573 288.063 556.715V484.544C288.063 481.686 286.539 479.045 284.063 477.616L221.562 441.53ZM73.5017 443.262L136.003 479.348C137.86 480.419 139.003 482.4 139.003 484.544V556.714C139.003 558.858 137.86 560.839 136.003 561.911L73.5017 597.996C71.6453 599.068 69.3581 599.068 67.5017 597.996L5.00001 561.911C3.1436 560.839 2 558.858 2 556.715V484.544C2 482.4 3.14359 480.419 5 479.348L67.5017 443.262C69.3581 442.191 71.6453 442.191 73.5017 443.262ZM66.5017 441.53C68.9769 440.101 72.0265 440.101 74.5017 441.53L137.003 477.616C139.479 479.045 141.003 481.686 141.003 484.544V556.714C141.003 559.573 139.479 562.214 137.003 563.643L74.5017 599.728C72.0265 601.157 68.9769 601.157 66.5017 599.728L4.00001 563.643C1.5248 562.214 0 559.573 0 556.715V484.544C0 481.686 1.52479 479.045 4 477.616L66.5017 441.53ZM430.124 479.348L367.622 443.262C365.766 442.191 363.478 442.191 361.622 443.262L299.12 479.348C297.264 480.419 296.12 482.4 296.12 484.544V556.715C296.12 558.858 297.264 560.839 299.12 561.911L361.622 597.996C363.478 599.068 365.766 599.068 367.622 597.996L430.124 561.911C431.98 560.839 433.124 558.858 433.124 556.715V484.544C433.124 482.4 431.98 480.419 430.124 479.348ZM368.622 441.53C366.147 440.101 363.097 440.101 360.622 441.53L298.12 477.616C295.645 479.045 294.12 481.686 294.12 484.544V556.715C294.12 559.573 295.645 562.214 298.12 563.643L360.622 599.728C363.097 601.157 366.147 601.157 368.622 599.728L431.124 563.643C433.599 562.214 435.124 559.573 435.124 556.715V484.544C435.124 481.686 433.599 479.045 431.124 477.616L368.622 441.53ZM514.682 443.262L577.184 479.348C579.04 480.419 580.184 482.4 580.184 484.544V556.715C580.184 558.858 579.04 560.839 577.184 561.911L514.682 597.996C512.826 599.068 510.539 599.068 508.682 597.996L446.181 561.911C444.324 560.839 443.181 558.858 443.181 556.715V484.544C443.181 482.4 444.324 480.419 446.181 479.348L508.682 443.262C510.539 442.191 512.826 442.191 514.682 443.262ZM507.682 441.53C510.157 440.101 513.207 440.101 515.682 441.53L578.184 477.616C580.659 479.045 582.184 481.686 582.184 484.544V556.715C582.184 559.573 580.659 562.214 578.184 563.643L515.682 599.728C513.207 601.157 510.157 601.157 507.682 599.728L445.181 563.643C442.705 562.214 441.181 559.573 441.181 556.715V484.544C441.181 481.686 442.705 479.045 445.181 477.616L507.682 441.53ZM724.244 479.348L661.742 443.262C659.886 442.191 657.599 442.191 655.742 443.262L593.241 479.348C591.384 480.419 590.241 482.4 590.241 484.544V556.715C590.241 558.858 591.384 560.839 593.241 561.911L655.742 597.996C657.599 599.068 659.886 599.068 661.742 597.996L724.244 561.911C726.1 560.839 727.244 558.858 727.244 556.715V484.544C727.244 482.4 726.1 480.419 724.244 479.348ZM662.742 441.53C660.267 440.101 657.218 440.101 654.742 441.53L592.241 477.616C589.765 479.045 588.241 481.686 588.241 484.544V556.715C588.241 559.573 589.765 562.214 592.241 563.643L654.742 599.728C657.218 601.157 660.267 601.157 662.742 599.728L725.244 563.643C727.719 562.214 729.244 559.573 729.244 556.715V484.544C729.244 481.686 727.719 479.045 725.244 477.616L662.742 441.53ZM808.802 443.262L871.304 479.348C873.161 480.419 874.304 482.4 874.304 484.544V556.715C874.304 558.858 873.161 560.839 871.304 561.911L808.802 597.996C806.946 599.068 804.659 599.068 802.802 597.996L740.301 561.911C738.444 560.839 737.301 558.858 737.301 556.715V484.544C737.301 482.4 738.444 480.419 740.301 479.348L802.802 443.262C804.659 442.191 806.946 442.191 808.802 443.262ZM801.802 441.53C804.278 440.101 807.327 440.101 809.802 441.53L872.304 477.616C874.779 479.045 876.304 481.686 876.304 484.544V556.715C876.304 559.573 874.779 562.214 872.304 563.643L809.802 599.728C807.327 601.157 804.278 601.157 801.802 599.728L739.301 563.643C736.826 562.214 735.301 559.573 735.301 556.715V484.544C735.301 481.686 736.826 479.045 739.301 477.616L801.802 441.53ZM1018.36 479.348L955.863 443.262C954.006 442.191 951.719 442.191 949.863 443.262L887.361 479.348C885.505 480.419 884.361 482.4 884.361 484.544V556.715C884.361 558.858 885.505 560.839 887.361 561.911L949.863 597.996C951.719 599.068 954.006 599.068 955.863 597.996L1018.36 561.911C1020.22 560.839 1021.36 558.858 1021.36 556.715V484.544C1021.36 482.4 1020.22 480.419 1018.36 479.348ZM956.863 441.53C954.387 440.101 951.338 440.101 948.863 441.53L886.361 477.616C883.886 479.045 882.361 481.686 882.361 484.544V556.715C882.361 559.573 883.886 562.214 886.361 563.643L948.863 599.728C951.338 601.157 954.387 601.157 956.863 599.728L1019.36 563.643C1021.84 562.214 1023.36 559.573 1023.36 556.715V484.544C1023.36 481.686 1021.84 479.045 1019.36 477.616L956.863 441.53ZM1102.92 443.262L1165.42 479.348C1167.28 480.419 1168.42 482.4 1168.42 484.544V556.715C1168.42 558.858 1167.28 560.839 1165.42 561.911L1102.92 597.996C1101.07 599.068 1098.78 599.068 1096.92 597.996L1034.42 561.911C1032.56 560.839 1031.42 558.858 1031.42 556.715V484.544C1031.42 482.4 1032.56 480.419 1034.42 479.348L1096.92 443.262C1098.78 442.191 1101.07 442.191 1102.92 443.262ZM1095.92 441.53C1098.4 440.101 1101.45 440.101 1103.92 441.53L1166.42 477.616C1168.9 479.045 1170.42 481.686 1170.42 484.544V556.715C1170.42 559.573 1168.9 562.214 1166.42 563.643L1103.92 599.728C1101.45 601.157 1098.4 601.157 1095.92 599.728L1033.42 563.643C1030.95 562.214 1029.42 559.573 1029.42 556.715V484.544C1029.42 481.686 1030.95 479.045 1033.42 477.616L1095.92 441.53Z" fill="url(#paint1_radial_4457_13956)"/>
<defs>
<radialGradient id="paint0_radial_4457_13956" cx="0" cy="0" r="1" gradientUnits="userSpaceOnUse" gradientTransform="translate(197 114) rotate(17.3975) scale(471.573 378.318)">
<stop stop-color="#17D4A7" stop-opacity="0.3"/>
<stop offset="1" stop-color="#17D4A7" stop-opacity="0"/>
</radialGradient>
<radialGradient id="paint1_radial_4457_13956" cx="0" cy="0" r="1" gradientUnits="userSpaceOnUse" gradientTransform="translate(822 385) rotate(-142.214) scale(225.229 251.849)">
<stop stop-color="#17D4A7" stop-opacity="0.5"/>
<stop offset="1" stop-color="#17D4A7" stop-opacity="0"/>
</radialGradient>
</defs>
</svg>
