<svg width="28" height="26" viewBox="0 0 28 26" fill="none" xmlns="http://www.w3.org/2000/svg">
	<path d="M18.7925 17.41H6.32001V25H18.7925V17.41Z" stroke="#17233A" stroke-width="2" stroke-linecap="round" stroke-linejoin="round"/>
	<path d="M14.2925 25H1.82001V1H14.2925V17.455" stroke="#17233A" stroke-width="2" stroke-linecap="round" stroke-linejoin="round"/>
	<path d="M26.18 9.5125H18.7925V25H26.18V9.5125Z" stroke="#17233A" stroke-width="2" stroke-linecap="round" stroke-linejoin="round"/>
	<path d="M22.025 9.5125V6.445L18.1625 3.9025L14.2925 6.58" stroke="#17233A" stroke-width="2" stroke-linecap="round" stroke-linejoin="round"/>
	<path d="M11.0038 6H10.0038V7H11.0038V6Z" stroke="#17233A" stroke-width="2" stroke-linecap="round" stroke-linejoin="round"/>
	<path d="M6.00378 6H5.00378V7H6.00378V6Z" stroke="#17233A" stroke-width="2" stroke-linecap="round" stroke-linejoin="round"/>
	<path d="M11.0038 12H10.0038V13H11.0038V12Z" stroke="#17233A" stroke-width="2" stroke-linecap="round" stroke-linejoin="round"/>
	<path d="M6.00378 12H5.00378V13H6.00378V12Z" stroke="#17233A" stroke-width="2" stroke-linecap="round" stroke-linejoin="round"/>
	<path d="M11.0038 21H10.0038V22H11.0038V21Z" stroke="#17233A" stroke-width="2" stroke-linecap="round" stroke-linejoin="round"/>
	<path d="M15.0038 21H14.0038V22H15.0038V21Z" stroke="#17233A" stroke-width="2" stroke-linecap="round" stroke-linejoin="round"/>
	<path d="M26 13H22V14H26V13Z" stroke="#17233A" stroke-width="2" stroke-linecap="round" stroke-linejoin="round"/>
	<path d="M26 18H22V19H26V18Z" stroke="#17233A" stroke-width="2" stroke-linecap="round" stroke-linejoin="round"/>
</svg>
