<svg width="26" height="26" viewBox="0 0 26 26" fill="none" xmlns="http://www.w3.org/2000/svg">
	<path d="M13.2325 23.8825C19.2428 23.8825 24.115 19.0103 24.115 13C24.115 6.98977 19.2428 2.11751 13.2325 2.11751C7.2223 2.11751 2.35004 6.98977 2.35004 13C2.35004 19.0103 7.2223 23.8825 13.2325 23.8825Z" stroke="#17233A" stroke-width="2" stroke-miterlimit="10"/>
	<path d="M13.2325 23.8825C15.8462 23.8825 17.965 19.0103 17.965 13C17.965 6.98977 15.8462 2.11751 13.2325 2.11751C10.6188 2.11751 8.5 6.98977 8.5 13C8.5 19.0103 10.6188 23.8825 13.2325 23.8825Z" stroke="#17233A" stroke-width="2" stroke-miterlimit="10"/>
	<path d="M3.0025 9.28H23.17" stroke="#17233A" stroke-width="2" stroke-miterlimit="10"/>
	<path d="M3.0025 16.7725H23.17" stroke="#17233A" stroke-width="2" stroke-miterlimit="10"/>
	<path d="M17.965 10.3975C18.5822 10.3975 19.0825 9.89718 19.0825 9.28001C19.0825 8.66283 18.5822 8.16251 17.965 8.16251C17.3479 8.16251 16.8475 8.66283 16.8475 9.28001C16.8475 9.89718 17.3479 10.3975 17.965 10.3975Z" stroke="#17233A" stroke-width="2" stroke-miterlimit="10"/>
	<path d="M13.2326 25C13.8497 25 14.3501 24.4997 14.3501 23.8825C14.3501 23.2653 13.8497 22.765 13.2326 22.765C12.6154 22.765 12.1151 23.2653 12.1151 23.8825C12.1151 24.4997 12.6154 25 13.2326 25Z" stroke="#17233A" stroke-width="2" stroke-miterlimit="10"/>
	<path d="M8.84498 17.89C9.46216 17.89 9.96248 17.3897 9.96248 16.7725C9.96248 16.1553 9.46216 15.655 8.84498 15.655C8.2278 15.655 7.72748 16.1553 7.72748 16.7725C7.72748 17.3897 8.2278 17.89 8.84498 17.89Z" stroke="#17233A" stroke-width="2" stroke-miterlimit="10"/>
	<path d="M13.2326 3.235C13.8497 3.235 14.3501 2.73468 14.3501 2.1175C14.3501 1.50032 13.8497 1 13.2326 1C12.6154 1 12.1151 1.50032 12.1151 2.1175C12.1151 2.73468 12.6154 3.235 13.2326 3.235Z" stroke="#17233A" stroke-width="2" stroke-miterlimit="10"/>
	<path d="M3.00251 10.3975C3.61969 10.3975 4.12001 9.89718 4.12001 9.28001C4.12001 8.66283 3.61969 8.16251 3.00251 8.16251C2.38533 8.16251 1.88501 8.66283 1.88501 9.28001C1.88501 9.89718 2.38533 10.3975 3.00251 10.3975Z" stroke="#17233A" stroke-width="2" stroke-miterlimit="10"/>
</svg>
