<svg xmlns="http://www.w3.org/2000/svg" width="26" height="26" fill="none">
  <path stroke="#17233A" stroke-miterlimit="10" stroke-width="2" d="M13.233 23.883c6.01 0 10.882-4.873 10.882-10.883S19.243 2.118 13.233 2.118 2.35 6.99 2.35 13s4.872 10.883 10.883 10.883Z"/>
  <path stroke="#17233A" stroke-miterlimit="10" stroke-width="2" d="M13.233 23.883c2.613 0 4.732-4.873 4.732-10.883S15.846 2.118 13.233 2.118 8.5 6.99 8.5 13s2.119 10.883 4.733 10.883ZM3.003 9.28H23.17M3.003 16.773H23.17"/>
  <path stroke="#17233A" stroke-miterlimit="10" stroke-width="2" d="M17.965 10.398a1.117 1.117 0 1 0 0-2.235 1.117 1.117 0 0 0 0 2.235ZM13.233 25a1.118 1.118 0 1 0 0-2.235 1.118 1.118 0 0 0 0 2.235Zm-4.388-7.11a1.117 1.117 0 1 0 0-2.235 1.117 1.117 0 0 0 0 2.235Zm4.388-14.655a1.118 1.118 0 1 0 0-2.235 1.118 1.118 0 0 0 0 2.235Zm-10.23 7.163a1.117 1.117 0 1 0 0-2.235 1.117 1.117 0 0 0 0 2.235Z"/>
</svg>
