<svg xmlns="http://www.w3.org/2000/svg" width="20" height="20" fill="none">
  <path fill="#F65128" stroke="#F65128" d="M4.615 13.415c.714.13 1.088.828 1.088.828.714 1.253 1.873.89 2.329.68zm0 0-.053-.05m.053.05-.029-.005a.2.2 0 0 0-.024-.044m0 0Zm-.141.535h.003l.007-.001-.04.006.029-.005Zm0 0-.215.445zm1.08 2.311c.437.373 1.088.643 2.01.565q0 .2.003.359l.003.336C4.6 16.422 2.5 13.569 2.5 10.202 2.5 5.938 5.87 2.5 10 2.5s7.5 3.437 7.5 7.703c0 3.366-2.1 6.218-5.016 7.27l.004-.694c.003-.393.005-.89.005-1.439 0-.441-.075-.826-.203-1.146.693-.148 1.397-.41 1.98-.912.83-.71 1.333-1.828 1.333-3.508 0-.91-.283-1.683-.763-2.31.114-.444.211-1.25-.173-2.242L14.582 5l-.225-.074-.156.475.155-.475h-.001l-.002-.001-.004-.002-.01-.003-.079-.018a1 1 0 0 0-.164-.018 2 2 0 0 0-.527.05c-.402.088-.949.3-1.657.766a8 8 0 0 0-1.91-.235h-.004a8 8 0 0 0-1.91.235c-.709-.466-1.256-.678-1.658-.765a2 2 0 0 0-.527-.051 1.2 1.2 0 0 0-.244.036l-.009.003-.004.002h-.003l.155.476-.156-.475L5.417 5l-.086.22c-.383.994-.286 1.8-.17 2.243a3.72 3.72 0 0 0-.765 2.31c0 1.677.503 2.793 1.329 3.506.583.504 1.287.77 1.98.919a3 3 0 0 0-.113.36 1.5 1.5 0 0 1-.582.075c-.273-.025-.595-.154-.87-.636l-.007-.011a2 2 0 0 0-.098-.154 2.5 2.5 0 0 0-.291-.347c-.254-.251-.666-.547-1.23-.588h-.029l-.007.5.006-.5h-.019a1 1 0 0 0-.154.009 1 1 0 0 0-.385.117.63.63 0 0 0-.265.295.6.6 0 0 0 .002.474c.088.216.286.381.473.512l.034.024.027.013a1 1 0 0 1 .176.147c.127.131.31.37.467.773a1 1 0 0 0 .032.088 2.3 2.3 0 0 0 .628.862ZM4.39 13.906h.002z"/>
</svg>
