<svg xmlns="http://www.w3.org/2000/svg" width="20" height="21" fill="none">
  <path stroke="#17233A" stroke-linecap="round" stroke-linejoin="round" stroke-width="2" d="M13.334 19.333v-3.225a2.8 2.8 0 0 0-.784-2.175c2.617-.291 5.367-1.283 5.367-5.833a4.53 4.53 0 0 0-1.25-3.125 4.22 4.22 0 0 0-.075-3.142s-.983-.291-3.258 1.234a11.15 11.15 0 0 0-5.834 0C5.225 1.542 4.242 1.833 4.242 1.833a4.22 4.22 0 0 0-.075 3.142 4.53 4.53 0 0 0-1.25 3.15c0 4.517 2.75 5.508 5.367 5.833a2.8 2.8 0 0 0-.784 2.15v3.225m0-2.5c-4.166 1.25-4.166-2.083-5.833-2.5z"/>
</svg>
