<svg xmlns="http://www.w3.org/2000/svg" width="32" height="34">
  <style>
    .st0{fill:#bd483b}.st2{fill:#fec82f}.st3{fill:#df9c26}
  </style>
  <path d="m15.817.338-3.106 11.038v11.143l3.106 11.143 3.195-11.143V11.376z" class="st0"/>
  <path d="M15.817.338.432 5.88l2.186 20.492 13.199 7.29" style="fill:#e64e3d"/>
  <path d="m15.817 33.662 13.269-7.365 2.482-20.49L15.817.338" class="st0"/>
  <path d="M13.025 25.088a9.36 9.36 0 0 1-3.94-2.431l-.003-.002a9.34 9.34 0 0 1-2.238-3.814q.378.348.796.647.006.011.011.027-.005-.017-.011-.027a8.6 8.6 0 0 0 1.696.923q.267.105.542.195c.011.006.024.006.035.01q.048.018.097.033a1.7 1.7 0 0 0 1.39 1.504c.288 1.157.834 2.146 1.625 2.935m.58-13.294c0 .324.088.627.243.883-1.25 1.753-2.108 3.656-2.479 5.539q-.062.314-.105.619c-.429.113-.79.393-1.016.762a.1.1 0 0 1-.035-.01c-.023-.006-.04-.014-.061-.021a7.16 7.16 0 0 1-2.796-1.715 7 7 0 0 1-.311-.332l-.041-.049-.115-.137-.047-.059q-.02-.026-.037-.045l-.017-.023q-.03-.035-.053-.068l-.023-.029-.004-.008c-.013-.014-.024-.033-.037-.049a4 4 0 0 1-.157-.225q-.015-.017-.025-.039l-.02-.027a9.34 9.34 0 0 1 2.227-6.703 9.36 9.36 0 0 1 4.299-2.847q.04.274.095.553c.192.967.513 1.942.949 2.898-.27.3-.434.698-.434 1.132m-.997 8.685a.89.89 0 0 1-.308.68.9.9 0 0 1-1.068.09.9.9 0 0 1-.342-.375.9.9 0 0 1-.089-.395.9.9 0 0 1 .377-.732.9.9 0 0 1 1.285.245.87.87 0 0 1 .145.487m3.601-8.685a.9.9 0 0 1-.902.905q-.066 0-.128-.006-.012-.005-.025-.006a.902.902 0 0 1 .153-1.794h.038a.907.907 0 0 1 .864.901" class="st2"/>
  <path d="M25.183 16.143c0 .907-.129 1.782-.368 2.61a13 13 0 0 1-2.4-.914 1.7 1.7 0 0 0-.092-.975 15 15 0 0 0 2.499-3.306 9.4 9.4 0 0 1 .361 2.585m-.87-3.947a11 11 0 0 1-.201.416 13.8 13.8 0 0 1-2.487 3.434 1.7 1.7 0 0 0-1.883.084 17 17 0 0 1-1.49-1.327 17 17 0 0 1-1.647-1.909 1.695 1.695 0 0 0 .168-1.964 16 16 0 0 1 3.917-2.788 9.4 9.4 0 0 1 3.623 4.054m-2.664 5.307a.902.902 0 0 1-1.804.081l.028-.022q-.016-.01-.03-.023l-.001-.037a.907.907 0 0 1 1.165-.864.91.91 0 0 1 .642.865m.235 1.264a1.7 1.7 0 0 1-2.088.151q-.059.039-.115.072a13.7 13.7 0 0 1-3.864 1.698v4.824a9.37 9.37 0 0 0 8.64-5.744 14 14 0 0 1-2.573-1.001" class="st3"/>
  <path d="M15.817 20.688a11.7 11.7 0 0 1-2.385.367l-.128.008c-.151.41-.454.744-.839.94.245.909.688 1.698 1.319 2.327.524.524 1.162.92 1.891 1.18l.142.002z" class="st2"/>
  <path d="M19.043 17.503q.001-.26.074-.498a18 18 0 0 1-3.3-3.376v5.946a12.9 12.9 0 0 0 3.321-1.511 1.7 1.7 0 0 1-.095-.561" class="st3"/>
  <path d="M15.817 13.629c-.045-.059-.091-.113-.132-.174a1.7 1.7 0 0 1-1.015-.08c-1.134 1.606-1.912 3.341-2.25 5.049q-.048.243-.083.475c.477.195.848.596.996 1.092q.022-.005.046-.004c.809-.039 1.627-.18 2.438-.412z" class="st2"/>
  <path d="M15.817 6.778v3.394q.073.023.145.055a17.2 17.2 0 0 1 3.573-2.681 9.3 9.3 0 0 0-3.718-.768" class="st3"/>
  <path d="M15.817 6.778q-.914 0-1.773.168c.025.197.06.404.101.606.168.86.449 1.725.829 2.575a1.7 1.7 0 0 1 .843.045z" class="st2"/>
</svg>
