<svg width="20" height="20" viewBox="0 0 20 20" fill="none" xmlns="http://www.w3.org/2000/svg">
<path d="M9.99967 11.6666C10.9201 11.6666 11.6663 10.9204 11.6663 9.99992C11.6663 9.07944 10.9201 8.33325 9.99967 8.33325C9.0792 8.33325 8.33301 9.07944 8.33301 9.99992C8.33301 10.9204 9.0792 11.6666 9.99967 11.6666Z" stroke="#17233A" stroke-width="2" stroke-linecap="round" stroke-linejoin="round"/>
<path d="M13.5329 6.46673C13.9977 6.9311 14.3665 7.48254 14.6182 8.08953C14.8698 8.69652 14.9993 9.34715 14.9993 10.0042C14.9993 10.6613 14.8698 11.3119 14.6182 11.9189C14.3665 12.5259 13.9977 13.0774 13.5329 13.5417M6.46619 13.5334C6.00131 13.069 5.63251 12.5176 5.38089 11.9106C5.12927 11.3036 4.99976 10.653 4.99976 9.9959C4.99976 9.33882 5.12927 8.68819 5.38089 8.0812C5.63251 7.47421 6.00131 6.92276 6.46619 6.4584M15.8912 4.1084C17.4534 5.67113 18.3311 7.79036 18.3311 10.0001C18.3311 12.2098 17.4534 14.329 15.8912 15.8917M4.10786 15.8917C2.5456 14.329 1.66797 12.2098 1.66797 10.0001C1.66797 7.79036 2.5456 5.67113 4.10786 4.1084" stroke="#17233A" stroke-width="2" stroke-linecap="round" stroke-linejoin="round"/>
</svg>
