<svg xmlns="http://www.w3.org/2000/svg" width="20" height="20" fill="none">
  <path stroke="#111A2C" stroke-linecap="round" stroke-linejoin="round" stroke-width="1.5" d="M11.12 3.613a1 1 0 0 0-.991-.863H9.87a1 1 0 0 0-.99.863l-.087.632c-.056.403-.354.724-.732.874l-.167.07c-.373.163-.81.15-1.136-.095l-.308-.23a1 1 0 0 0-1.307.092l-.188.188a1 1 0 0 0-.092 1.307l.23.308c.244.325.258.763.095 1.136l-.07.167c-.15.378-.47.676-.874.732l-.632.087a1 1 0 0 0-.863.99v.258a1 1 0 0 0 .863.99l.632.087c.403.056.724.354.874.732l.07.167c.163.373.15.81-.095 1.136l-.23.308a1 1 0 0 0 .092 1.307l.188.188a1 1 0 0 0 1.307.092l.308-.23c.325-.244.763-.258 1.136-.095l.167.07c.378.15.676.47.732.874l.087.632a1 1 0 0 0 .99.863h.258a1 1 0 0 0 .99-.863l.087-.632c.056-.403.354-.724.732-.874l.167-.07c.373-.163.81-.15 1.136.095l.308.23a1 1 0 0 0 1.307-.092l.188-.188a1 1 0 0 0 .092-1.307l-.23-.308c-.244-.325-.258-.763-.095-1.136l.07-.167c.15-.378.47-.676.874-.732l.632-.087a1 1 0 0 0 .863-.99V9.87a1 1 0 0 0-.863-.99l-.632-.087c-.403-.056-.724-.354-.874-.732l-.07-.167c-.163-.373-.15-.81.095-1.136l.23-.308a1 1 0 0 0-.092-1.307l-.188-.188a1 1 0 0 0-1.307-.092l-.308.23c-.325.244-.763.258-1.136.095l-.167-.07c-.378-.15-.676-.47-.732-.874l-.087-.632Z"/>
  <path stroke="#111A2C" stroke-linecap="round" stroke-linejoin="round" stroke-width="1.5" d="M11.25 10a1.25 1.25 0 1 1-2.5 0 1.25 1.25 0 0 1 2.5 0"/>
</svg>
