<svg xmlns="http://www.w3.org/2000/svg" width="20" height="20" fill="none">
  <path fill="#fff" d="M18 5.42a7 7 0 0 1-1.885.477 3.1 3.1 0 0 0 1.443-1.676c-.634.347-1.337.6-2.084.735A3.42 3.42 0 0 0 13.078 4c-1.812 0-3.282 1.356-3.282 3.03q.002.355.084.69c-2.729-.127-5.147-1.334-6.766-3.166a2.85 2.85 0 0 0-.444 1.523c0 1.05.58 1.979 1.46 2.522a3.5 3.5 0 0 1-1.487-.38v.04c0 1.467 1.131 2.692 2.634 2.97a3.6 3.6 0 0 1-1.483.052c.418 1.203 1.63 2.08 3.067 2.103a6.95 6.95 0 0 1-4.077 1.297q-.398 0-.784-.042A9.86 9.86 0 0 0 7.031 16c6.04 0 9.34-4.616 9.34-8.619q0-.196-.01-.391A6.4 6.4 0 0 0 18 5.423z"/>
</svg>
