<svg xmlns="http://www.w3.org/2000/svg" xml:space="preserve" style="fill-rule:evenodd;clip-rule:evenodd;stroke-linejoin:round;stroke-miterlimit:2" viewBox="0 0 3390 1290">
    <path d="M509.8 908.6h3459.1v2004.2H509.8z" style="fill:none" transform="matrix(.97983 0 0 .643424 -499.6 -584.6)"/>
    <path d="M221.7 530.4h-34.5v-5.8h34.5v5.8Zm-43-.5a2.5 2.5 0 0 1-2.5-2.4c0-1.3 1.1-2.4 2.4-2.4 1.4 0 2.4 1 2.4 2.4 0 1.3-1 2.4-2.4 2.4Zm-10.2 0a2.4 2.4 0 0 1-2.4-2.4c0-1.3 1-2.4 2.4-2.4 1.3 0 2.4 1 2.4 2.4 0 1.3-1 2.4-2.4 2.4Zm-10.1 0a2.4 2.4 0 0 1-2.4-2.4c0-1.3 1-2.4 2.4-2.4a2.4 2.4 0 1 1 0 4.8Zm-7-8.1v11.4h75v-11.4h-75Zm70.3-10.4h-34.5v-5.7h34.5v5.7Zm-43-.5c-1.4 0-2.5-1-2.5-2.4a2.4 2.4 0 0 1 4.8 0c0 1.4-1 2.4-2.4 2.4Zm-10.2 0a2.4 2.4 0 1 1 0-4.8c1.3 0 2.4 1.1 2.4 2.4 0 1.4-1 2.4-2.4 2.4Zm-10.1 0c-1.3 0-2.4-1-2.4-2.4 0-1.3 1-2.4 2.4-2.4 1.3 0 2.4 1.1 2.4 2.4 0 1.4-1 2.4-2.4 2.4Zm-7-8v11.3h75v-11.4h-75Zm70.3-10.4h-34.5v-5.8h34.5v5.8Zm-43-.5c-1.4 0-2.5-1-2.5-2.4 0-1.3 1.1-2.4 2.4-2.4 1.4 0 2.4 1 2.4 2.4 0 1.3-1 2.4-2.4 2.4Zm-10.2 0a2.4 2.4 0 1 1 0-4.8c1.3 0 2.4 1 2.4 2.4 0 1.3-1 2.4-2.4 2.4Zm-10.1 0a2.4 2.4 0 1 1 0-4.8 2.4 2.4 0 1 1 0 4.8Zm-7-8.1v11.4h75v-11.4h-75Zm70.3-10.4h-34.5v-5.7h34.5v5.7Zm-43-.5c-1.4 0-2.5-1-2.5-2.4 0-1.3 1.1-2.3 2.4-2.3 1.4 0 2.4 1 2.4 2.3 0 1.4-1 2.4-2.4 2.4Zm-10.2 0a2.4 2.4 0 1 1 0-4.8c1.3 0 2.4 1.1 2.4 2.4 0 1.4-1 2.4-2.4 2.4Zm-10.1 0a2.4 2.4 0 1 1 0-4.8c1.3 0 2.4 1.1 2.4 2.4 0 1.4-1 2.4-2.4 2.4Zm-7-8v11.4h75v-11.5h-75Zm70.3-10.4h-34.5v-5.8h34.5v5.8Zm-43-.5c-1.4 0-2.5-1-2.5-2.4a2.4 2.4 0 0 1 4.8 0c0 1.3-1 2.4-2.4 2.4Zm-10.2 0a2.4 2.4 0 1 1 0-4.8c1.3 0 2.4 1 2.4 2.4 0 1.3-1 2.4-2.4 2.4Zm-10.1 0c-1.3 0-2.4-1-2.4-2.4 0-1.3 1-2.4 2.4-2.4a2.4 2.4 0 1 1 0 4.8Zm-7-8.1v11.4h75V446h-75Zm526.1 125.8 77.5-98.6-6-.3h-51.4c-9.5 0-15.9-5.7-16-14.2 0-8 6.9-14.5 15.8-14.5h90c7 0 12.4 2.4 15 9.2 2.7 6.6.7 11.9-4 16.7-22.7 22.7-45.1 45.5-67.6 68.2l-3.1 3.4c5.4-1 10.1-2 15-2.6 23.6-3.6 45.8 2.6 67.8 10.2 12.9 4.5 25.7 9.3 38.8 12.9 25.3 7 49.5 6.2 71.5-13.4a46.5 46.5 0 0 1-17.6 21.4 73 73 0 0 1-58 10.1c-19-4-37.9-10-56.5-16.2-36.7-12.2-72-9.4-106.5 7.7l-3.1 1.4-1.6-1.4Zm-93.9-65.6 53.7-22a32.5 32.5 0 0 0-35-5.9 31.4 31.4 0 0 0-18.7 27.9Zm10.6 26.9a31 31 0 0 0 41.6 1c3-2.7 5.6-6.1 8.3-9.3a14.2 14.2 0 0 1 23.1 16.4 60.1 60.1 0 0 1-80.1 22 61.5 61.5 0 0 1 19.8-115.3c29.8-5 55 14.5 64.7 37 3.5 8.1.2 16-8.3 19.6L598.8 531l-4.6 2Zm-87.4-48.6a31.5 31.5 0 0 0-34.6-6.1c-10.5 4.6-19.1 17.4-18.4 27.7l53-21.6Zm-42.4 48.7a31 31 0 0 0 43.8-1.1c2.4-2.5 4.4-5.4 6.7-8a14 14 0 0 1 19-2.1c5.9 4.4 7.7 13 3.4 19.2-13.8 20-32.4 31-57.2 28.6a58.5 58.5 0 0 1-50.2-36 61.5 61.5 0 0 1 79.8-81.8 63.8 63.8 0 0 1 31.6 32c4.1 8.7 1 16.8-7.9 20.5l-65.5 27c-1.2.4-2.3 1-3.5 1.7Z" style="fill:#0b72ba;fill-rule:nonzero" transform="matrix(4.166668 0 0 4.166666 -578.8 -1622.7)"/>
    <path d="m838.4 493.8 54.4-22.2a31 31 0 0 0-32-7c-13 4.4-19.8 14.4-22.4 29.2Zm11.4 26.6a30.8 30.8 0 0 0 41.8 1c3.2-3 5.7-6.5 8.6-9.8 5-5.6 13-6.7 19-2.5a14.7 14.7 0 0 1 3.8 19.2 60.6 60.6 0 0 1-89 16.7 61.7 61.7 0 0 1 37.3-110.4 61 61 0 0 1 56.3 38.5c3 8-.6 15.5-9 19l-64.7 26.4-4 1.9ZM166 635.3h359.3v9.6H166zm211.1-178.6c10-6 20.5-9.6 32-9.7 8.4-.1 15 5.8 15.2 13.8.3 8-5.4 14-13.9 14.7-21.4 1.9-32.9 14.4-33 36 0 14.7.2 29.3 0 44a14 14 0 0 1-11.5 14.3c-6.3 1.3-13-2-15.5-8.2-1-2.7-1.4-5.8-1.4-8.7v-89c0-8.8 4-15 10.6-16.6 7.3-1.9 12.8 1 17.5 9.4Z" style="fill:#0b72ba;fill-rule:nonzero" transform="matrix(4.166668 0 0 4.166666 -578.8 -1622.7)"/>
    <path d="M868.2 590.4c-8.8 3.2-18 3.9-27.2 3.3a210 210 0 0 1-54.7-13.1c-18.9-6.5-37.9-12.6-58.2-12.4-4 0-8 .5-12 .4a90 90 0 0 1 40.7-2.8c15.6 3 31 7.2 46.2 12 21.3 6.6 42.4 13.8 65.2 12.6Z" style="fill:#4aa3db;fill-rule:nonzero" transform="matrix(4.166668 0 0 4.166666 -578.8 -1622.7)"/>
    <path d="M262.5 496.9c.9 0 3.4 0 0 0Zm48.9-22.8c1.3-2.9 2.6-5.4 3.6-8 12-31.5-10-66-42.9-66.2-42-.2-47 0-89 0-8.9 0-14.6 6-14.6 14.8v13.5c0 6.5 5.2 11.8 11.8 11.8h4.9c6.5 0 11.7-5.3 11.7-11.8h70.3c2.1 0 4.3.1 6.4.5 11 1.7 16.7 9.3 16 21-.8 11.4-7.6 18.3-18.8 18.3h-19.5c-11 0-17.7 8.6-14.9 18.6 1.8 6.4 7.6 10.3 15.4 10.3h35c12.9 0 21.1 8.2 21.6 21.2.5 12.7-7.5 22-19.8 23.1a87 87 0 0 1-8 .3H181a14.3 14.3 0 0 0 0 28.6l107-.1a47.6 47.6 0 0 0 47.5-40.4c4-23.5-3.2-42.3-24.2-55.5Z" style="fill:#0b72ba;fill-rule:nonzero" transform="matrix(4.166668 0 0 4.166666 -578.8 -1622.7)"/>
    <path d="M183.4 533h11v25h-11z" style="fill:#0b72ba;fill-rule:nonzero" transform="matrix(4.166668 0 0 4.166666 -578.8 -1622.7)"/>
    <path d="M679.6 640.5c0-14.4-11-26.4-24.3-26.5-13.4 0-24.6 11.8-24.7 26.2 0 14.3 11 26.5 24.4 26.7 13.2.1 24.6-12 24.6-26.4ZM655 680.2c-21 0-37.6-17.7-37.6-39.8 0-22.4 17-40 38.1-39.9 21.2.2 37.7 17.9 37.6 40.4-.1 22-17 39.4-38.1 39.3Zm-97-46.7h29.3v-24.2c0-1.8-.2-4.3.9-5.2 1.9-1.6 4.6-3.2 7-3.2 3.6.1 5.3 3 5.3 6.6v65c0 5-2.4 7.6-6.6 7.7-4.2 0-6.5-2.6-6.6-7.5v-25.3H558v20.7c0 2.4 0 4.7-.4 7-.8 3.6-3.4 5.3-7 5-3.5-.1-5.4-2.3-6-5.6-.3-1.4-.1-3-.1-4.5v-61.4c0-5 2.2-7.8 6.3-8 4.3-.3 7 2.5 7.1 7.7.2 8 0 16.2 0 25.2Zm365.6 7c0-14.4-11-26.4-24.3-26.5-13.4 0-24.6 11.8-24.7 26.2 0 14.3 11 26.5 24.4 26.7 13.2.1 24.6-12 24.6-26.4ZM899 680.2c-21 0-37.6-17.7-37.6-39.8 0-22.4 17-40 38.1-39.9 21.2.2 37.7 17.9 37.6 40.4-.1 22-17 39.4-38.1 39.3Zm-49.5-60.9v-11.8c0-3.6-1.7-6.5-5.3-6.6h-1.4a6 6 0 0 0-5.5 3l-.1.2c-.8.7-.9 2.3-.9 3.9v65.6c0 3.7 1.7 6.5 5.3 6.6h1.3c2.6 0 4.5-1 5.6-3l.1-.2c.8-.6.9-2.3.8-3.9v-53.8ZM726 680a23.4 23.4 0 0 1-19.4-12.8c-2.3-4.1-1.4-8.2 1.8-10.1 3.6-2.2 7.2-1 10 3.3 4 6 11.3 7.9 17.4 4.3 7.3-4.2 7.8-12.2.8-16.7-3.8-2.5-8.3-4-12.5-6-8.1-3.7-13.7-9.3-14.6-18.6-1.8-19 19.2-26.7 31.3-21.5a31 31 0 0 1 5.7 3c3.4 2.2 4.2 5.5 2.5 9.1-1.6 3.3-5.8 4-9.6 2.5-3.2-1.2-6.8-2.6-9.9-2-2.5.5-5.9 3.4-6.4 5.7-.4 2.3 2 5.6 3.8 7.8 1.2 1.5 3.7 2 5.7 2.9 2.7 1.2 5.6 2.2 8.2 3.6 11.9 6.4 16.4 15.6 13.4 27-3 11-13.2 18.5-28.3 18.5Zm57.4-82.5h25.4c-17-5.4-33.9-11-51-16-20.4-6-41.1-6.3-61.8-.8 24.5-3 47.3 4 70.2 11.6 5.7 1.9 11.4 3.6 17.2 5.2Zm2.2 16.5h-12c-4.7-.1-7.6-2.8-7.4-7 .2-4.5 2.9-6.4 7.2-6.5h38.4c4.5.1 7.3 2.9 7 6.8-.2 4.2-2.7 6.6-7 6.7h-12.5v56.7c0 6.4-2.3 9.5-7 9.5-4.5 0-6.6-3.1-6.7-9.7v-56.4Zm40.4 59a7 7 0 1 1-14 0 7 7 0 0 1 14 0Z" style="fill:#4aa3db;fill-rule:nonzero" transform="matrix(4.166668 0 0 4.166666 -578.8 -1622.7)"/>
</svg>