<svg xmlns="http://www.w3.org/2000/svg" fill="#082c1b" viewBox="0 0 159.5 49.4">
  <path d="M124.3 48.4c.2-.2.6-.2.8 0s.2.6 0 .8-.6.2-.8 0c-.3-.2-.3-.6 0-.8m6.4-4q-.6-.6-1.5-.6c-.9 0-1.2.2-1.6.7s-.7 1-.7 1.7.2 1.2.7 1.7c.4.5 1 .7 1.6.7s1-.2 1.4-.5q.6-.45.6-1.2h-1.8v-.7h2.7c0 2.1-1.1 3.2-2.9 3.2-.9 0-1.6-.3-2.2-.9s-.9-1.4-.9-2.3.3-1.6.9-2.3c.6-.6 1.4-.9 2.2-.9s1.5.3 2.1.8zm2.6-1.3h.8v5.4h2.5v.8h-3.4v-6.2zm4.8.9c.6-.6 1.4-.9 2.2-.9.9 0 1.6.3 2.2.9s.9 1.4.9 2.3-.3 1.6-.9 2.3c-.6.6-1.4.9-2.2.9-.9 0-1.6-.3-2.2-.9s-.9-1.4-.9-2.3c-.1-1 .3-1.7.9-2.3m.6.5c-.4.5-.7 1-.7 1.7s.2 1.2.7 1.7 1 .7 1.6.7 1.2-.2 1.6-.7.7-1 .7-1.7-.2-1.2-.7-1.7c-.4-.5-1-.7-1.6-.7-.7 0-1.2.3-1.6.7M148 46c.3.1.6.3.8.6s.3.6.3 1c0 .5-.2.9-.5 1.3-.3.3-.8.5-1.3.5h-2.5v-6.2h2.3c1 0 1.7.6 1.7 1.6 0 .6-.3 1-.8 1.2m-2.4-.3h1.5c.5 0 .8-.4.8-.9s-.4-.9-.9-.9h-1.4zm0 .7v2.1h1.7c.6 0 1-.5 1-1 0-.3-.1-.5-.3-.7s-.4-.3-.7-.3h-1.7zm8.1 1.3h-2.6l-.6 1.6h-.9l2.4-6.2h.9l2.3 6.2h-.9zm-2.3-.7h2.1l-1-2.8zm4.7-3.9h.8v5.4h2.5v.8H156v-6.2zm-40.2-26.9c-1.8-2-4.2-3-7.1-3-3.3 0-6.2 1.3-8.7 3.7-1.6 1.6-2.7 3.6-3.3 5.9-.5-2.4-1.7-4.4-3.4-6-2.5-2.4-5.6-3.6-9.4-3.6s-7 1.3-9.6 3.7c-2.6 2.5-3.9 5.6-3.9 9.5s1.3 7.2 3.9 9.7c2.7 2.5 5.9 3.7 9.6 3.7 5.3 0 9.1-1.6 11.6-4.8q-.45-.3-3-2.1c-1.6-1.2-2.7-1.9-3.1-2.2-1.2 1.4-2.8 2.1-4.9 2.1-2.9 0-5.6-1.5-5.9-3.9h17.8c.4 2.9 1.6 5.2 3.5 7.2 2.5 2.5 5.4 3.7 8.7 3.7 3.1 0 6.2-1.4 7.6-4.2v3.7h8.2V.4h-8.7v15.8zm-37.1 7.9c.4-2 2.1-3.3 3.3-3.6.6-.2 1.2-.2 1.8-.2 2 0 4.4.9 5.1 3.8zm35.5 6.2c-2 2-5.4 2-7.5 0-2-2.1-2-5.5 0-7.5 2.1-2.1 5.5-2.1 7.5 0 2.2 2.1 2.2 5.4 0 7.5m12.8-16.5h8.7v25.5h-8.7zM131.4.4c-2.8 0-5.3 2.1-5.3 4.9 0 2.7 2.4 5 5.3 5s5.2-2.2 5.2-5-2.3-4.9-5.2-4.9m27 27.5c-.8-1.6-3-3.1-6-3.9l-4.5-1.3c-1.3-.3-1.9-.8-1.9-1.6 0-.9.7-1.4 2.1-1.4 1.7 0 2.6.8 2.6 2.3h8.2c0-6.6-5.8-8.8-11.2-8.8-2.8 0-5.3.8-7.3 2.4-2 1.5-3.1 3.3-3.1 5.3 0 1.1-.1 1.6.4 3.2.3.8.7 1.5 1.2 2 1 1.1 3.2 2.6 6.2 3.4l3.2.9c1.9.5 2.3.8 2.3 1.5 0 1-1.2 1.7-2.7 1.7-2 0-3-1.3-3-2.6h-8.2q0 4.2 3.3 6.6c2.2 1.6 4.9 2.4 7.8 2.4 3 0 5.7-.7 8-2.1 2.4-1.4 3.5-3.4 3.5-6 .2-1.3 0-2.4-.9-4"/>
  <linearGradient id="a" x1="0" x2="67.821" y1="23.593" y2="23.593" gradientUnits="userSpaceOnUse">
    <stop offset="0" style="stop-color:#6f9d00"/>
    <stop offset="1" style="stop-color:#00d6d9"/>
  </linearGradient>
  <path d="M.4 27.8c4 0 9.3 0 13-.2 2.9-.2 2.8-3.5 5.7-3.5 5.3-.1 8.9 6.8 13.1 6.8 4.4 0 5.2-14.6 10.4-14.6 4.3 0 6.9 11.3 12.6 11.4 5.3.1 9.3.1 12.2 0" class="css-1035m7t" style="stroke:url(#a)"/>
  <linearGradient id="b" x1="0" x2="67.821" y1="31.938" y2="31.938" gradientUnits="userSpaceOnUse">
    <stop class="css-uqlhai" offset="0"/>
    <stop class="css-1a7bcov" offset="1"/>
  </linearGradient>
  <path d="M.4 27.7h16.8c4.3 0 7-3.7 9.3-3.7 3.7 0 6.4 15.7 13.9 15.7 5.3 0 6-15.7 10.4-15.7 3 0 5.2 3.6 7.4 3.6h9.3" class="css-1035m7t" style="stroke:url(#b)"/>
  <linearGradient id="c" x1="0" x2="67.821" y1="14.076" y2="14.076" gradientUnits="userSpaceOnUse">
    <stop offset="0" style="stop-color:#ff3a29"/>
    <stop offset="1" style="stop-color:#e7d400"/>
  </linearGradient>
  <path d="M.4 27.8c3 0 6.8 0 10.4-.1 6-.2 5.4-18.4 9.8-18.4 3.6 0 4.6 11.8 8.1 11.5 4.9-.5 5-20.4 10.6-20.4 5.7 0 9.2 27.2 19.5 27.3h8.7" class="css-1035m7t" style="stroke:url(#c)"/>
</svg>
