<?xml version="1.0" encoding="utf-8"?>
<svg version="1.1" id="Layer_1" xmlns="http://www.w3.org/2000/svg" xmlns:xlink="http://www.w3.org/1999/xlink" x="0px" y="0px"
     viewBox="0 0 487 65" style="enable-background:new 0 0 487 65;" xml:space="preserve">
<style type="text/css">
	.st0{fill:#333333;}
</style>
	<path class="st0" d="M37.9,0L0,65h5.4L37.9,9.3v9.3L10.8,65h5.4l21.7-37.1v9.2L21.7,65h5.4l10.8-18.6v9.3L32.5,65h43.3L37.9,0z
	 M92.2,9.3H127v7.3h-26.5v12.1H124v7.4h-23.5v12.4h26.9v7.3H92.2V9.3z M180.4,9.3L164.1,32l17,23.7h-9.7L159,38l-12.3,17.7h-9.4
	l16.9-23.6L137.9,9.3h9.7l11.6,16.8L171,9.3H180.4z M187.9,32.6L187.9,32.6c0-13.2,10.2-24.1,24.6-24.1c14.4,0,24.4,10.8,24.4,23.9
	v0.1c0,13.1-10.2,24-24.6,24C198,56.5,187.9,45.7,187.9,32.6z M228.3,32.6L228.3,32.6c0-9.1-6.6-16.5-15.9-16.5s-15.8,7.3-15.8,16.3
	v0.1c0,9,6.6,16.4,15.9,16.4S228.3,41.6,228.3,32.6z M247.2,48.9l5-5.8c4.5,3.8,9,6,14.8,6c5.1,0,8.3-2.4,8.3-5.8v-0.1
	c0-3.3-1.9-5.1-10.6-7.1c-10-2.4-15.6-5.3-15.6-13.8v-0.1c0-8,6.7-13.4,16-13.4c6.8,0,12.3,2.1,17,5.8l-4.4,6.2
	c-4.2-3.1-8.4-4.8-12.7-4.8c-4.8,0-7.6,2.5-7.6,5.5c0,3.6,2.1,5.2,11.2,7.3c9.9,2.4,15,5.9,15,13.6v0.1c0,8.7-6.9,13.8-16.7,13.8
	C259.6,56.4,252.8,53.9,247.2,48.9L247.2,48.9z M294.9,32.6L294.9,32.6c0-13.3,10-24.1,24.1-24.1c8.7,0,13.9,3,18.4,7.2l-5.3,6
	c-3.8-3.4-7.8-5.7-13.2-5.7c-8.8,0-15.4,7.2-15.4,16.3v0.2c0,9.1,6.5,16.4,15.5,16.4c5.8,0,9.4-2.3,13.5-6l5.3,5.3
	c-4.9,5-10.2,8.2-19,8.2C305,56.5,294.9,46,294.9,32.6z M366.7,9h7.6L395,55.7h-8.7l-4.8-11.2h-22.2l-4.8,11.2h-8.4L366.7,9z
	 M378.5,37.3l-8.1-18.6l-8,18.6H378.5z M406.8,9.3h8.2v39h24.6v7.4h-32.9L406.8,9.3L406.8,9.3z M451.9,9.3h34.8v7.3h-26.5v12.1h23.5
	v7.4h-23.5v12.4H487v7.3h-35.1V9.3z"/>
</svg>
