<svg xmlns="http://www.w3.org/2000/svg" width="140.083" height="41.398">
  <g fill="#1b21ed" data-name="Group 11">
    <path d="M97.641 15.224c0-.022-.022-.045-.045-.067.022.022.022.045.045.067Z" data-name="Path 24"/>
    <path d="M52.818 18.54a5.419 5.419 0 0 0-.6.022v-.022Z" data-name="Path 25"/>
    <path d="M52.818 18.54a5.419 5.419 0 0 0-.6.022v-.022Z" data-name="Path 26"/>
    <path d="M121.611 27.576a.558.558 0 0 1 .089-.156.556.556 0 0 0-.089.156Z" data-name="Path 27"/>
    <path d="M126.352 24.393a6.811 6.811 0 0 0-1.291.2 6.24 6.24 0 0 1 1.291-.2Z" data-name="Path 28"/>
    <path d="M17.432 24.972a1.836 1.836 0 0 1-.534 1.291 1.8 1.8 0 0 1-1.291.534H4.098a1.809 1.809 0 0 1-1.8-1.8 1.836 1.836 0 0 1 .534-1.291 1.728 1.728 0 0 1 1.266-.559h11.509a1.833 1.833 0 0 1 1.825 1.825Z" data-name="Path 29"/>
    <path d="M23.619 17.714a1.836 1.836 0 0 1-.534 1.291 1.8 1.8 0 0 1-1.291.534H13.98a1.8 1.8 0 0 1-1.8-1.8 1.836 1.836 0 0 1 .534-1.291 1.8 1.8 0 0 1 1.291-.534h7.834a1.791 1.791 0 0 1 1.78 1.8Z" data-name="Path 30"/>
    <path d="M36.928 10.481a1.836 1.836 0 0 1-.534 1.291 1.8 1.8 0 0 1-1.291.534h-8.215a1.8 1.8 0 0 1-1.8-1.8 1.836 1.836 0 0 1 .534-1.291 1.8 1.8 0 0 1 1.291-.534h8.212a1.8 1.8 0 0 1 1.8 1.8Z" data-name="Path 31"/>
    <path d="M101.959 35.477a5.855 5.855 0 0 0 3.85-1.736 5.421 5.421 0 0 1-3.85 1.736Z" data-name="Path 32"/>
    <path d="m140.083 18.54-3.628 5.853h-9.57a3.11 3.11 0 0 0-.512 0 6.24 6.24 0 0 0-1.291.2c-.044.022-.089.022-.133.045a5.449 5.449 0 0 0-3.244 2.78.556.556 0 0 1-.089.156 48.661 48.661 0 0 0-4.006-4.74c1.469-1.825 4.518-4.318 10.238-4.318 8.986.024 12.235.024 12.235.024Z" data-name="Path 33"/>
    <path d="M111.973 34.92a10.47 10.47 0 0 1-10.126 6.41H88.673V27.353h5.92v8.123h7.367a5.855 5.855 0 0 0 3.85-1.736c.022-.045.067-.067.089-.089.089-.111.178-.2.267-.312.022-.044.067-.067.089-.111a.676.676 0 0 0 .111-.156l.134-.2a7.544 7.544 0 0 0 .445-.846 5.738 5.738 0 0 0 .356-2.248 16.748 16.748 0 0 1 4.1 4.318c.062.089.262.401.572.824Z" data-name="Path 34"/>
    <path d="M90.631 7.88a13.171 13.171 0 0 0-3.383-.423 12.978 12.978 0 0 0-2.96.334c-.334.067-.645.156-.957.245a17.472 17.472 0 0 0-4.006-4.473A16.708 16.708 0 0 0 70.067.046c-.111 0-.245-.022-.356-.022s-.245-.023-.378-.023h-.827a2.419 2.419 0 0 0-.4.022c-.134 0-.289.022-.423.022a16.373 16.373 0 0 0-5.519 1.38h-8.766a1.836 1.836 0 0 0-1.292.535 1.81 1.81 0 0 0 1.269 3.094h3.539a.022.022 0 0 1-.022.022h.022a1.816 1.816 0 0 1 1.536 1.78 1.836 1.836 0 0 1-.534 1.291 1.8 1.8 0 0 1-1.291.534H42.336a1.836 1.836 0 0 0-1.291.534 1.81 1.81 0 0 0 1.269 3.094h9.859a1.736 1.736 0 0 1 .49.067 1.8 1.8 0 0 1 1.291 1.736 1.758 1.758 0 0 1-.2.846 2.116 2.116 0 0 1-.334.445 1.8 1.8 0 0 1-1.291.534H29.072a1.836 1.836 0 0 0-1.291.534 1.81 1.81 0 0 0 1.269 3.094h13.042a1.7 1.7 0 0 1 .6.111 1.817 1.817 0 0 1 1.2 1.714 1.836 1.836 0 0 1-.534 1.291 1.8 1.8 0 0 1-1.291.534H22.84a1.836 1.836 0 0 0-1.291.534 1.81 1.81 0 0 0 1.269 3.094h17.07a1.8 1.8 0 0 1 1.8 1.8 1.836 1.836 0 0 1-.534 1.291 1.8 1.8 0 0 1-1.291.534H1.831a1.836 1.836 0 0 0-1.291.533 1.81 1.81 0 0 0 1.266 3.1h40.708a1.8 1.8 0 0 1 1.8 1.8 1.836 1.836 0 0 1-.534 1.291 1.358 1.358 0 0 1-.356.267 1.826 1.826 0 0 1-.935.245H17.566a1.847 1.847 0 1 0 0 3.694h45.112v-3.697h-9.881a9.556 9.556 0 1 1-.6-19.1v-.02h3.939a14.079 14.079 0 0 1-.111-1.691v-.356a9.752 9.752 0 0 1 .089-1.157 12.981 12.981 0 0 1 7.521-10.276 11.624 11.624 0 0 1 1.981-.712 12.93 12.93 0 0 1 14.021 5.16c.045.045.067.089.111.134a.022.022 0 0 0 .022.022l.134.2a16.384 16.384 0 0 1 1.424 3.338 9.8 9.8 0 0 1 5.942-2 9.678 9.678 0 0 1 3.939.823 9.959 9.959 0 0 1 4.206 3.516h4.3a13.8 13.8 0 0 0-9.084-7.7Zm7.011 7.344a.078.078 0 0 1-.022-.045.069.069 0 0 0 .022.045Z" data-name="Path 35"/>
    <path d="M65.66 41.33V18.54h21.5l-3.761 5.853H71.691v2.96h14.422l-3.4 5.675H71.78v8.3Z" data-name="Path 36"/>
    <path d="M140.017 41.33h-13.821c-6.81 0-12.33-8.88-12.33-8.88-5.141-7.745-11.439-8.079-12.441-8.079H88.673V18.54h12.152c10.193 0 15.557 6.944 19.3 12 3.739 5.074 6.41 4.941 6.41 4.941h9.926Z" data-name="Path 37"/>
  </g>
</svg>
