<svg xmlns="http://www.w3.org/2000/svg" width="409" height="116" fill="none">
  <path fill="#FF5700" fill-rule="evenodd" d="M119.947 57.636c0 31.812-25.789 57.601-57.601 57.601-12.85 0-24.716-4.207-34.298-11.32q2.462 1.381 5.071 2.5a52.8 52.8 0 0 0 20.867 4.311 53.06 53.06 0 0 0 52.884-49q.216-1.884.237-3.78c0-1.607-.134-3.474-.297-5.166-.015-.162-.02-.326-.025-.49-.006-.19-.012-.38-.033-.565l-.046.046a108 108 0 0 0-.489-3.913H64.416l-3.247 6.076-7.465 14.1h31.584a33 33 0 0 1-5.166 9.685 32.88 32.88 0 0 1-26.136 12.918 32.9 32.9 0 0 1-11.342-2.043 32.98 32.98 0 0 1-21.66-30.96 33.004 33.004 0 0 1 33.002-33.004 32.86 32.86 0 0 1 19.455 6.342l4.332-8.106 5.16-9.747a52.84 52.84 0 0 0-28.947-8.579 53.1 53.1 0 0 0-25.765 6.684C37.772 4.191 49.574.034 62.346.034c31.812 0 57.601 25.79 57.601 57.602" clip-rule="evenodd"/>
  <path fill="#27333F" d="M198.971 70.352a21.3 21.3 0 0 1-7.57 5.774 20.2 20.2 0 0 1-8.302 1.709 21.05 21.05 0 0 1-10.461-2.57c-.116-.065-.214-.147-.328-.214a18.25 18.25 0 0 1-6.842-6.956 21.06 21.06 0 0 1-2.57-10.461 21.1 21.1 0 0 1 2.57-10.46 18.25 18.25 0 0 1 6.841-6.956c.114-.067.213-.15.329-.215a21.1 21.1 0 0 1 10.461-2.57 20.4 20.4 0 0 1 8.312 1.693l5.945-11.181c-.049-.022-.093-.05-.143-.073a36.8 36.8 0 0 0-14.835-2.883 36.74 36.74 0 0 0-16.251 3.603c-.425.206-.873.364-1.29.588a31.3 31.3 0 0 0-12.264 11.636 32.04 32.04 0 0 0-4.464 16.818 32.05 32.05 0 0 0 4.464 16.821 31.3 31.3 0 0 0 12.264 11.632c.418.224.865.383 1.291.59a36.5 36.5 0 0 0 16.16 3.605 37.1 37.1 0 0 0 14.881-2.887c.061-.027.116-.062.177-.089a29.25 29.25 0 0 0 11.004-8.297zm30.707 15.689a31.4 31.4 0 0 1-12.354-11.677 31.9 31.9 0 0 1-4.464-16.73 31.9 31.9 0 0 1 4.464-16.73 31.47 31.47 0 0 1 12.354-11.678A36.86 36.86 0 0 1 247.4 24.99a36.6 36.6 0 0 1 17.676 4.237 31.9 31.9 0 0 1 12.354 11.678 31.65 31.65 0 0 1 4.509 16.73 31.65 31.65 0 0 1-4.509 16.73 31.85 31.85 0 0 1-12.354 11.677 36.56 36.56 0 0 1-17.676 4.241 36.8 36.8 0 0 1-17.722-4.24ZM257.5 75.264a18.44 18.44 0 0 0 7.08-7.17 21.1 21.1 0 0 0 2.57-10.46 21.1 21.1 0 0 0-2.57-10.46 18.44 18.44 0 0 0-7.08-7.17 20.05 20.05 0 0 0-10.1-2.57 20.04 20.04 0 0 0-10.101 2.57 18.44 18.44 0 0 0-7.08 7.17 21.1 21.1 0 0 0-2.57 10.46 21.06 21.06 0 0 0 2.57 10.46 18.43 18.43 0 0 0 7.08 7.17 20 20 0 0 0 10.101 2.57 20 20 0 0 0 10.1-2.57m75.665 13.935L320.99 71.614h-13.437V89.2h-14.61V26.07h27.325a35.1 35.1 0 0 1 14.565 2.795 21.66 21.66 0 0 1 9.514 7.94 21.86 21.86 0 0 1 3.337 12.173 21.44 21.44 0 0 1-3.381 12.13 21.45 21.45 0 0 1-9.605 7.8L348.856 89.2h-15.691Zm-3.699-48.383a15.33 15.33 0 0 0-10.009-2.842h-11.904V59.98h11.904a15.17 15.17 0 0 0 10.009-2.887 10.02 10.02 0 0 0 3.428-8.115 10 10 0 0 0-3.428-8.161Zm78.639 36.66v11.723h-48.879v-63.13h47.706v11.726h-33.188v13.707h29.31v11.364h-29.31v14.61z"/>
</svg>
