<svg xmlns="http://www.w3.org/2000/svg" xml:space="preserve" viewBox="0 0 660 140">
  <g transform="translate(-70 -280)">
    <linearGradient id="a" x1="227.805" x2="227.805" y1="283.85" y2="398.42" gradientUnits="userSpaceOnUse">
      <stop offset="0" style="stop-color:#939598"/>
      <stop offset="1" style="stop-color:#58595b"/>
    </linearGradient>
    <path fill="url(#a)" d="M260.9 358c0 5.3-2.4 9.3-7.1 12.2-3.2 2.1-8 3.1-14.4 3.1h-22.6c-7.2 0-12.7-1.4-16.5-4.1s-5.7-6.5-5.7-11.2v-27.8c0-5.4 2.4-9.6 7.3-12.5 3.4-2.1 8.3-3.1 14.9-3.1h22.6c6.6 0 11.4 1 14.6 3.1 4.6 2.8 6.9 7 6.9 12.5zm-16-2.6v-22.6c0-2-.8-3.5-2.4-4.4-1.4-1-3.6-1.5-6.7-1.5h-15.5q-4.95 0-7.2 1.5c-1.6.9-2.4 2.4-2.4 4.4v22.5q0 2.7 2.4 4.2c1.4.9 3.5 1.3 6.2 1.3h17.3c2.6 0 4.6-.4 5.9-1.3 1.6-.9 2.4-2.3 2.4-4.1"/>
    <linearGradient id="b" x1="298.847" x2="298.847" y1="283.85" y2="398.42" gradientUnits="userSpaceOnUse">
      <stop offset="0" style="stop-color:#939598"/>
      <stop offset="1" style="stop-color:#58595b"/>
    </linearGradient>
    <path fill="url(#b)" d="M329.2 327.1h-36c-2.9 0-5 .3-6.3 1-1.6.7-2.4 1.7-2.4 2.7v2.3c0 2.9 3 4.3 9 4.3h17c5.3 0 9.7 1.3 13.2 4s5.3 6.1 5.3 10.4v6.8c0 4-1.8 7.5-5.3 10.5-2.1 1.9-4.4 3-6.7 3.5-1.8.4-4.5.7-7.9.7h-40.5v-12.5h37c3.2 0 5.3-.5 6.2-1.6.6-.8 1-2.4 1-5 0-2.8-2.3-4.2-7-4.2h-16.1c-5.7 0-10.5-1.1-14.2-3.4-4.4-2.7-6.7-6.2-6.7-10.5v-7.5c0-4.7 2.5-8.5 7.6-11.3q4.5-2.7 13.5-2.7h39.4v12.5z"/>
    <linearGradient id="c" x1="351.171" x2="351.171" y1="283.85" y2="398.42" gradientUnits="userSpaceOnUse">
      <stop offset="0" style="stop-color:#939598"/>
      <stop offset="1" style="stop-color:#58595b"/>
    </linearGradient>
    <path fill="url(#c)" d="M366.7 327h-16.5v45.6h-14.5v-75.8h14.5v19.4h16.5z"/>
    <linearGradient id="d" x1="408.944" x2="408.944" y1="283.85" y2="398.42" gradientUnits="userSpaceOnUse">
      <stop offset="0" style="stop-color:#00aeef"/>
      <stop offset="1" style="stop-color:#2b3990"/>
    </linearGradient>
    <path fill="url(#d)" d="M376.4 359.5h37.8c5.7 0 9.2-1 10.4-3 .5-1 .8-4.1.8-9.3 0-4.1-3.6-6.1-10.8-6.1H399c-6.8 0-12.3-1.3-16.7-3.9-5-3-7.6-7.1-7.6-12.4v-11.6c0-5.7 2.7-10.3 8.1-13.6 3.7-2.3 9-3.5 15.9-3.5h42.5V310h-37.3c-5.6 0-9.1.9-10.3 2.7-.7 1.1-1.1 4-1.1 8.6 0 2 .9 3.6 2.7 4.7q2.55 1.5 8.7 1.5h15.6c7 0 12.6 1.4 17 4.3 4.3 2.9 6.5 7 6.5 12.4V356c0 5.6-2.2 9.9-6.7 12.9-4.4 2.9-10.4 4.4-17.8 4.4h-42.2v-13.8z"/>
    <linearGradient id="e" x1="465.901" x2="465.901" y1="283.85" y2="398.42" gradientUnits="userSpaceOnUse">
      <stop offset="0" style="stop-color:#00aeef"/>
      <stop offset="1" style="stop-color:#2b3990"/>
    </linearGradient>
    <path fill="url(#e)" d="M481.4 327h-16.5v45.6h-14.5v-75.8h14.5v19.4h16.5z"/>
    <linearGradient id="f" x1="521.786" x2="521.786" y1="283.85" y2="398.42" gradientUnits="userSpaceOnUse">
      <stop offset="0" style="stop-color:#00aeef"/>
      <stop offset="1" style="stop-color:#2b3990"/>
    </linearGradient>
    <path fill="url(#f)" d="M554.2 357.9c0 4.4-1.7 7.9-5.2 10.6s-8.1 4-13.9 4h-24.9c-6.1 0-10.9-1.2-14.6-3.5-4.1-2.5-6.2-6.1-6.2-10.7v-9.9c0-4.7 1.8-8.4 5.4-10.9s8.5-3.8 14.6-3.8h30.4c-.1-2.4-.7-4.2-1.7-5.4-1.2-1.4-3.7-2.1-7.6-2.1h-40.8v-11h42.6c14.6 0 21.9 5 21.9 14.9zm-14.5-1.9v-10.7c0-.7-.8-1.1-2.3-1.1h-24.9c-5.7 0-8.5 2.1-8.5 6.2v5.5c0 1.7.8 3.1 2.5 4 1.7 1 3.7 1.4 6.2 1.4h18.7c5.5.1 8.3-1.7 8.3-5.3"/>
    <linearGradient id="g" x1="665.842" x2="665.842" y1="283.85" y2="398.42" gradientUnits="userSpaceOnUse">
      <stop offset="0" style="stop-color:#00aeef"/>
      <stop offset="1" style="stop-color:#2b3990"/>
    </linearGradient>
    <path fill="url(#g)" d="m698.2 338.6-50 14.8v1.3q0 3.9 3 5.7c1.4.7 3.9 1.1 7.6 1.1H698v11h-41.7c-7.2 0-12.6-1.1-16-3.3-4.5-2.7-6.7-6.9-6.7-12.7v-26.4c0-9.9 7.2-14.9 21.6-14.9H678c13.4 0 20.2 5.3 20.2 15.8zm-14.9-6.4v-.3c0-3.8-3.2-5.6-9.6-5.6h-14.4c-7.5 0-11.3 2.1-11.3 6.4v9.9z"/>
    <linearGradient id="h" x1="112.151" x2="112.151" y1="391.694" y2="417.641" gradientUnits="userSpaceOnUse">
      <stop offset="0" style="stop-color:#939598"/>
      <stop offset="1" style="stop-color:#58595b"/>
    </linearGradient>
    <path fill="url(#h)" d="M122.5 403.5h-3.1v-11.2l-4.9 9.9c-.5 1.1-1.3 1.6-2.3 1.6-.6 0-1.1-.2-1.4-.5-.2-.2-.5-.6-.7-1l-5.1-10v11.2h-3.1v-13.1c0-.6.2-1.1.7-1.5s1.1-.6 2-.6c1.3 0 2.1.5 2.6 1.5l5 10.3 5.1-10.3c.5-1 1.4-1.5 2.6-1.5.9 0 1.5.2 2 .6s.7.9.7 1.6v13z"/>
    <linearGradient id="i" x1="139.819" x2="139.819" y1="391.694" y2="417.641" gradientUnits="userSpaceOnUse">
      <stop offset="0" style="stop-color:#939598"/>
      <stop offset="1" style="stop-color:#58595b"/>
    </linearGradient>
    <path fill="url(#i)" d="M149 403.5h-3.5l-1.8-3.6h-7.8l-1.8 3.6h-3.5l6.7-13.7c.5-1 1.3-1.4 2.5-1.4s2 .5 2.5 1.4zm-6.3-6-3-6.1-2.7 6.1z"/>
    <linearGradient id="j" x1="164.654" x2="164.654" y1="391.694" y2="417.641" gradientUnits="userSpaceOnUse">
      <stop offset="0" style="stop-color:#939598"/>
      <stop offset="1" style="stop-color:#58595b"/>
    </linearGradient>
    <path fill="url(#j)" d="M172.2 399.9c0 1.1-.4 2-1.2 2.6s-1.9 1-3.4 1h-10.5v-15.2h10.4c3.1 0 4.6 1.2 4.6 3.5v8.1zm-3.3-.7v-6.8c0-1.1-.8-1.6-2.3-1.6h-6.2V401h6.2c1.6 0 2.3-.6 2.3-1.8"/>
    <linearGradient id="k" x1="189.425" x2="189.425" y1="391.694" y2="417.641" gradientUnits="userSpaceOnUse">
      <stop offset="0" style="stop-color:#939598"/>
      <stop offset="1" style="stop-color:#58595b"/>
    </linearGradient>
    <path fill="url(#k)" d="M195.7 397.3h-9.6v2.2c0 .9.8 1.4 2.3 1.4h7.9v2.8h-8.7c-1.5 0-2.7-.3-3.6-.8-1-.6-1.5-1.5-1.5-2.6v-8.4c0-1.1.4-2 1.3-2.7.9-.6 2-1 3.5-1h9v2.8h-8c-1.5 0-2.3.4-2.3 1.3v2.2h9.6v2.8z"/>
    <linearGradient id="l" x1="224.701" x2="224.701" y1="391.694" y2="417.641" gradientUnits="userSpaceOnUse">
      <stop offset="0" style="stop-color:#939598"/>
      <stop offset="1" style="stop-color:#58595b"/>
    </linearGradient>
    <path fill="url(#l)" d="M232.1 399.9c0 1.1-.4 2-1.1 2.6-.8.6-1.9 1-3.4 1h-10.3v-15.2h10.3c3 0 4.5 1.2 4.5 3.5v1.2c0 .8-.1 1.3-.4 1.7-.3.5-.7.9-1.4 1.1 0 0 .2.1.7.3.6.4.9 1 1.1 1.8zm-3.2-.4v-1c0-.9-.7-1.4-2.1-1.4h-6.2v3.9h6.2q2.1 0 2.1-1.5m0-6.2v-1.1c0-1-.8-1.4-2.3-1.4h-6v3.9h6.2c1.4 0 2.1-.5 2.1-1.4"/>
    <linearGradient id="m" x1="248.639" x2="248.639" y1="391.694" y2="417.641" gradientUnits="userSpaceOnUse">
      <stop offset="0" style="stop-color:#939598"/>
      <stop offset="1" style="stop-color:#58595b"/>
    </linearGradient>
    <path fill="url(#m)" d="m257.2 388.3-7 9v6.2H247v-6.2l-6.9-9h3.7l4.7 6.3 4.9-6.3z"/>
    <linearGradient id="n" x1="278.164" x2="278.164" y1="391.694" y2="417.641" gradientUnits="userSpaceOnUse">
      <stop offset="0" style="stop-color:#939598"/>
      <stop offset="1" style="stop-color:#58595b"/>
    </linearGradient>
    <path fill="url(#n)" d="M279.8 403.5h-3.3v-15.2h3.3z"/>
    <linearGradient id="o" x1="300.013" x2="300.013" y1="391.694" y2="417.641" gradientUnits="userSpaceOnUse">
      <stop offset="0" style="stop-color:#939598"/>
      <stop offset="1" style="stop-color:#58595b"/>
    </linearGradient>
    <path fill="url(#o)" d="M310.3 403.5h-3.1v-11.2l-4.9 9.9c-.5 1.1-1.3 1.6-2.3 1.6-.6 0-1.1-.2-1.4-.5-.2-.2-.5-.6-.7-1l-5.1-10v11.2h-3.1v-13.1c0-.6.2-1.1.7-1.5s1.1-.6 2-.6c1.3 0 2.1.5 2.6 1.5l5 10.3 5.1-10.3c.5-1 1.4-1.5 2.6-1.5.9 0 1.5.2 2 .6s.7.9.7 1.6v13z"/>
    <linearGradient id="p" x1="327.599" x2="327.599" y1="391.694" y2="417.641" gradientUnits="userSpaceOnUse">
      <stop offset="0" style="stop-color:#939598"/>
      <stop offset="1" style="stop-color:#58595b"/>
    </linearGradient>
    <path fill="url(#p)" d="M333.9 397.3h-9.6v2.2c0 .9.8 1.4 2.3 1.4h7.9v2.8h-8.7c-1.5 0-2.7-.3-3.6-.8-1-.6-1.5-1.5-1.5-2.6v-8.4c0-1.1.4-2 1.3-2.7.9-.6 2-1 3.5-1h9v2.8h-8c-1.5 0-2.3.4-2.3 1.3v2.2h9.6v2.8z"/>
    <linearGradient id="q" x1="351.529" x2="351.529" y1="391.694" y2="417.641" gradientUnits="userSpaceOnUse">
      <stop offset="0" style="stop-color:#939598"/>
      <stop offset="1" style="stop-color:#58595b"/>
    </linearGradient>
    <path fill="url(#q)" d="M359.1 403.5h-4.2l-7.3-5.7c-.3-.2-.4-.6-.4-1.1 0-.9.7-1.4 2-1.4h4.3c1.3 0 2-.4 2-1.3v-1.7c0-.9-.8-1.4-2.3-1.4h-6v12.7H344v-15.1h10.1c3.1 0 4.7 1.1 4.7 3.3v2.6c0 1-.4 1.8-1.2 2.3-.8.6-1.9.9-3.2.9h-3z"/>
    <linearGradient id="r" x1="386.486" x2="386.486" y1="391.694" y2="417.641" gradientUnits="userSpaceOnUse">
      <stop offset="0" style="stop-color:#939598"/>
      <stop offset="1" style="stop-color:#58595b"/>
    </linearGradient>
    <path fill="url(#r)" d="M393.2 397.1H383v6.3h-3.3v-12c0-1 .5-1.8 1.4-2.5.8-.5 1.9-.7 3.3-.7h8.7v2.5h-7.9c-1.5 0-2.3.5-2.3 1.4v2.5h10.3z"/>
    <linearGradient id="s" x1="410.877" x2="410.877" y1="391.694" y2="417.641" gradientUnits="userSpaceOnUse">
      <stop offset="0" style="stop-color:#939598"/>
      <stop offset="1" style="stop-color:#58595b"/>
    </linearGradient>
    <path fill="url(#s)" d="M418.1 399.9c0 2.3-1.7 3.5-5 3.5h-4.5c-1.6 0-2.8-.3-3.6-.8q-1.5-.9-1.5-2.7v-8.1q0-1.8 1.5-2.7c.8-.5 2-.8 3.6-.8h4.5c3.3 0 5 1.2 5 3.6zm-3.2-.5v-6.9c0-.6-.2-1.1-.6-1.3s-1-.4-1.9-.4h-3.1c-.9 0-1.6.1-1.9.4-.4.2-.6.7-.6 1.3v6.9c0 .6.2 1 .6 1.3.3.2 1 .4 1.9.4h3.1c.9 0 1.5-.1 1.9-.4s.6-.7.6-1.3"/>
    <linearGradient id="t" x1="435.632" x2="435.632" y1="391.694" y2="417.641" gradientUnits="userSpaceOnUse">
      <stop offset="0" style="stop-color:#939598"/>
      <stop offset="1" style="stop-color:#58595b"/>
    </linearGradient>
    <path fill="url(#t)" d="M443.2 403.5H439l-7.3-5.7c-.3-.2-.4-.6-.4-1.1 0-.9.7-1.4 2-1.4h4.3c1.3 0 2-.4 2-1.3v-1.7c0-.9-.8-1.4-2.3-1.4h-6v12.7H428v-15.1h10.1c3.1 0 4.7 1.1 4.7 3.3v2.6c0 1-.4 1.8-1.2 2.3-.8.6-1.9.9-3.2.9h-3z"/>
    <linearGradient id="u" x1="465.461" x2="465.461" y1="391.694" y2="417.641" gradientUnits="userSpaceOnUse">
      <stop offset="0" style="stop-color:#939598"/>
      <stop offset="1" style="stop-color:#58595b"/>
    </linearGradient>
    <path fill="url(#u)" d="M467.1 403.5h-3.3v-15.2h3.3z"/>
    <linearGradient id="v" x1="487.312" x2="487.312" y1="391.694" y2="417.641" gradientUnits="userSpaceOnUse">
      <stop offset="0" style="stop-color:#939598"/>
      <stop offset="1" style="stop-color:#58595b"/>
    </linearGradient>
    <path fill="url(#v)" d="M497.6 403.5h-3.1v-11.2l-4.9 9.9c-.5 1.1-1.3 1.6-2.3 1.6-.6 0-1.1-.2-1.4-.5-.2-.2-.5-.6-.7-1l-5.1-10v11.2H477v-13.1c0-.6.2-1.1.7-1.5s1.1-.6 2-.6c1.3 0 2.1.5 2.6 1.5l5 10.3 5.1-10.3c.5-1 1.4-1.5 2.6-1.5.9 0 1.5.2 2 .6s.7.9.7 1.6v13z"/>
    <linearGradient id="w" x1="514.896" x2="514.896" y1="391.694" y2="417.641" gradientUnits="userSpaceOnUse">
      <stop offset="0" style="stop-color:#939598"/>
      <stop offset="1" style="stop-color:#58595b"/>
    </linearGradient>
    <path fill="url(#w)" d="M521.2 397.3h-9.6v2.2c0 .9.8 1.4 2.3 1.4h7.9v2.8H513c-1.5 0-2.7-.3-3.6-.8-1-.6-1.5-1.5-1.5-2.6v-8.4c0-1.1.4-2 1.3-2.7.9-.6 2-1 3.5-1h9v2.8h-8c-1.5 0-2.3.4-2.3 1.3v2.2h9.6v2.8z"/>
    <linearGradient id="x" x1="538.827" x2="538.827" y1="391.694" y2="417.641" gradientUnits="userSpaceOnUse">
      <stop offset="0" style="stop-color:#939598"/>
      <stop offset="1" style="stop-color:#58595b"/>
    </linearGradient>
    <path fill="url(#x)" d="M546.4 403.5h-4.2l-7.3-5.7c-.3-.2-.4-.6-.4-1.1 0-.9.7-1.4 2-1.4h4.3c1.3 0 2-.4 2-1.3v-1.7c0-.9-.8-1.4-2.3-1.4h-6v12.7h-3.3v-15.1h10.1c3.1 0 4.7 1.1 4.7 3.3v2.6c0 1-.4 1.8-1.2 2.3s-1.9.9-3.2.9h-3z"/>
    <linearGradient id="y" x1="109.956" x2="109.956" y1="283.85" y2="398.42" gradientUnits="userSpaceOnUse">
      <stop offset="0" style="stop-color:#00aeef"/>
      <stop offset="1" style="stop-color:#2b3990"/>
    </linearGradient>
    <path fill="url(#y)" d="M118.1 328.8V297h-16.3v75.6h16.3v-31.7z"/>
    <linearGradient id="z" x1="179.311" x2="179.311" y1="283.85" y2="398.42" gradientUnits="userSpaceOnUse">
      <stop offset="0" style="stop-color:#00aeef"/>
      <stop offset="1" style="stop-color:#2b3990"/>
    </linearGradient>
    <path fill="url(#z)" d="M171.2 297v75.6h16.2V297z"/>
    <linearGradient id="A" x1="121.806" x2="167.423" y1="311.726" y2="311.726" gradientUnits="userSpaceOnUse">
      <stop offset="0" style="stop-color:#939598"/>
      <stop offset="1" style="stop-color:#58595b"/>
    </linearGradient>
    <path fill="url(#A)" d="M159.8 321.2h-30.5c-4.2 0-7.6-3.4-7.6-7.6v-3.8c0-4.2 3.4-7.6 7.6-7.6h30.5c4.2 0 7.6 3.4 7.6 7.6v3.8c0 4.2-3.4 7.6-7.6 7.6m-30.4-15.8c-2.4 0-4.4 2-4.4 4.4v3.8c0 2.4 2 4.4 4.4 4.4h30.5c2.4 0 4.4-2 4.4-4.4v-3.8c0-2.4-2-4.4-4.4-4.4z"/>
    <linearGradient id="B" x1="754.176" x2="683.649" y1="334.759" y2="334.759" gradientTransform="matrix(-1 0 0 1 867.666 0)" gradientUnits="userSpaceOnUse">
      <stop offset="0" style="stop-color:#00aeef"/>
      <stop offset="1" style="stop-color:#2b3990"/>
    </linearGradient>
    <path fill="url(#B)" d="M121.8 336.7v-3.8c0-4.2 3.4-7.6 7.6-7.6h30.5c4.2 0 7.6 3.4 7.6 7.6v3.8c0 4.2-3.4 7.6-7.6 7.6h-30.5c-4.2-.1-7.6-3.5-7.6-7.6m7.6-8.2c-2.4 0-4.4 2-4.4 4.4v3.8c0 2.4 2 4.4 4.4 4.4h30.5c2.4 0 4.4-2 4.4-4.4v-3.8c0-2.4-2-4.4-4.4-4.4z"/>
    <linearGradient id="C" x1="121.806" x2="167.423" y1="357.793" y2="357.793" gradientUnits="userSpaceOnUse">
      <stop offset="0" style="stop-color:#939598"/>
      <stop offset="1" style="stop-color:#58595b"/>
    </linearGradient>
    <path fill="url(#C)" d="M159.8 367.3h-30.5c-4.2 0-7.6-3.4-7.6-7.6v-3.8c0-4.2 3.4-7.6 7.6-7.6h30.5c4.2 0 7.6 3.4 7.6 7.6v3.8c0 4.2-3.4 7.6-7.6 7.6m-30.4-15.8c-2.4 0-4.4 2-4.4 4.4v3.8c0 2.4 2 4.4 4.4 4.4h30.5c2.4 0 4.4-2 4.4-4.4v-3.8c0-2.4-2-4.4-4.4-4.4z"/>
    <linearGradient id="D" x1="129.617" x2="152.883" y1="311.725" y2="311.725" gradientUnits="userSpaceOnUse">
      <stop offset="0" style="stop-color:#939598"/>
      <stop offset="1" style="stop-color:#58595b"/>
    </linearGradient>
    <path fill="url(#D)" d="M151.3 313.3h-20.1c-.9 0-1.6-.7-1.6-1.6s.7-1.6 1.6-1.6h20.1c.9 0 1.6.7 1.6 1.6s-.7 1.6-1.6 1.6"/>
    <linearGradient id="E" x1="154.304" x2="158.026" y1="311.725" y2="311.725" gradientUnits="userSpaceOnUse">
      <stop offset="0" style="stop-color:#939598"/>
      <stop offset="1" style="stop-color:#58595b"/>
    </linearGradient>
    <circle cx="156.2" cy="311.7" r="1.9" fill="url(#E)"/>
    <linearGradient id="F" x1="129.617" x2="152.883" y1="357.794" y2="357.794" gradientUnits="userSpaceOnUse">
      <stop offset="0" style="stop-color:#939598"/>
      <stop offset="1" style="stop-color:#58595b"/>
    </linearGradient>
    <path fill="url(#F)" d="M151.3 359.4h-20.1c-.9 0-1.6-.7-1.6-1.6s.7-1.6 1.6-1.6h20.1c.9 0 1.6.7 1.6 1.6s-.7 1.6-1.6 1.6"/>
    <linearGradient id="G" x1="154.304" x2="158.026" y1="357.793" y2="357.793" gradientUnits="userSpaceOnUse">
      <stop offset="0" style="stop-color:#939598"/>
      <stop offset="1" style="stop-color:#58595b"/>
    </linearGradient>
    <circle cx="156.2" cy="357.8" r="1.9" fill="url(#G)"/>
    <linearGradient id="H" x1="714.785" x2="738.05" y1="334.759" y2="334.759" gradientTransform="matrix(-1 0 0 1 867.666 0)" gradientUnits="userSpaceOnUse">
      <stop offset="0" style="stop-color:#939598"/>
      <stop offset="1" style="stop-color:#58595b"/>
    </linearGradient>
    <path fill="url(#H)" d="M131.2 336.3h20.1c.9 0 1.6-.7 1.6-1.6s-.7-1.6-1.6-1.6h-20.1c-.9 0-1.6.7-1.6 1.6s.7 1.6 1.6 1.6"/>
    <linearGradient id="I" x1="709.641" x2="713.363" y1="334.759" y2="334.759" gradientTransform="matrix(-1 0 0 1 867.666 0)" gradientUnits="userSpaceOnUse">
      <stop offset="0" style="stop-color:#939598"/>
      <stop offset="1" style="stop-color:#58595b"/>
    </linearGradient>
    <circle cx="156.2" cy="334.8" r="1.9" fill="url(#I)"/>
    <linearGradient id="J" x1="593.849" x2="593.849" y1="279.658" y2="409.7" gradientUnits="userSpaceOnUse">
      <stop offset="0" style="stop-color:#00aeef"/>
      <stop offset="1" style="stop-color:#2b3990"/>
    </linearGradient>
    <path fill="url(#J)" d="M621.1 318.5c-3.6-2.4-9.1-3.6-16.7-3.6h-21.6q-11.25 0-16.2 4.2c-3.3 2.8-4.9 7-4.9 12.7v27.1c0 4.8 1.9 8.5 5.7 11.2s9.3 4 16.6 4h27.9v7.7c0 3-.4 5.1-1.3 6.5-1.4 1.7-4.3 2.6-8.7 2.6h-40.5v11.4h42.2c15.3 0 22.9-5.5 22.9-16.4v-55.3c-.1-5.7-1.9-9.7-5.4-12.1m-11.2 44.1h-23.2c-7.1 0-10.7-2.3-10.7-6.8v-22.5q0-7.2 9.6-7.2h16.3c3.4 0 6.2.8 8.3 2.5 1.2.9 1.9 2.6 1.9 5.3v27.3c-.1.9-.8 1.4-2.2 1.4"/>
  </g>
</svg>
