<?xml version="1.0" encoding="utf-8"?>
<!-- Generator: Adobe Illustrator 18.0.0, SVG Export Plug-In . SVG Version: 6.00 Build 0)  -->
<!DOCTYPE svg PUBLIC "-//W3C//DTD SVG 1.1//EN" "http://www.w3.org/Graphics/SVG/1.1/DTD/svg11.dtd">
<svg version="1.1" id="Layer_1" xmlns="http://www.w3.org/2000/svg" xmlns:xlink="http://www.w3.org/1999/xlink" x="0px" y="0px"
	 viewBox="0 0 660 140" enable-background="new 0 0 660 140" xml:space="preserve">
<g transform="translate(-70, -280)">
	<g>
		<linearGradient id="SVGID_1_" gradientUnits="userSpaceOnUse" x1="227.8048" y1="283.85" x2="227.8048" y2="398.4197">
			<stop  offset="0" style="stop-color:#939598"/>
			<stop  offset="1" style="stop-color:#58595B"/>
		</linearGradient>
		<path fill="url(#SVGID_1_)" d="M260.9,358c0,5.3-2.4,9.3-7.1,12.2c-3.2,2.1-8,3.1-14.4,3.1h-22.6c-7.2,0-12.7-1.4-16.5-4.1
			c-3.8-2.7-5.7-6.5-5.7-11.2v-27.8c0-5.4,2.4-9.6,7.3-12.5c3.4-2.1,8.3-3.1,14.9-3.1h22.6c6.6,0,11.4,1,14.6,3.1
			c4.6,2.8,6.9,7,6.9,12.5V358z M244.9,355.4v-22.6c0-2-0.8-3.5-2.4-4.4c-1.4-1-3.6-1.5-6.7-1.5h-15.5c-3.3,0-5.7,0.5-7.2,1.5
			c-1.6,0.9-2.4,2.4-2.4,4.4v22.5c0,1.8,0.8,3.2,2.4,4.2c1.4,0.9,3.5,1.3,6.2,1.3h17.3c2.6,0,4.6-0.4,5.9-1.3
			C244.1,358.6,244.9,357.2,244.9,355.4z"/>
		<linearGradient id="SVGID_2_" gradientUnits="userSpaceOnUse" x1="298.8471" y1="283.85" x2="298.8471" y2="398.4197">
			<stop  offset="0" style="stop-color:#939598"/>
			<stop  offset="1" style="stop-color:#58595B"/>
		</linearGradient>
		<path fill="url(#SVGID_2_)" d="M329.2,327.1h-36c-2.9,0-5,0.3-6.3,1c-1.6,0.7-2.4,1.7-2.4,2.7v2.3c0,2.9,3,4.3,9,4.3h17
			c5.3,0,9.7,1.3,13.2,4c3.5,2.7,5.3,6.1,5.3,10.4v6.8c0,4-1.8,7.5-5.3,10.5c-2.1,1.9-4.4,3-6.7,3.5c-1.8,0.4-4.5,0.7-7.9,0.7h-40.5
			v-12.5h37c3.2,0,5.3-0.5,6.2-1.6c0.6-0.8,1-2.4,1-5c0-2.8-2.3-4.2-7-4.2h-16.1c-5.7,0-10.5-1.1-14.2-3.4
			c-4.4-2.7-6.7-6.2-6.7-10.5v-7.5c0-4.7,2.5-8.5,7.6-11.3c3-1.8,7.5-2.7,13.5-2.7h39.4V327.1z"/>
		<linearGradient id="SVGID_3_" gradientUnits="userSpaceOnUse" x1="351.1714" y1="283.85" x2="351.1714" y2="398.4197">
			<stop  offset="0" style="stop-color:#939598"/>
			<stop  offset="1" style="stop-color:#58595B"/>
		</linearGradient>
		<path fill="url(#SVGID_3_)" d="M366.7,327h-16.5v45.6h-14.5v-75.8h14.5v19.4h16.5V327z"/>
		<linearGradient id="SVGID_4_" gradientUnits="userSpaceOnUse" x1="408.9437" y1="283.85" x2="408.9437" y2="398.4197">
			<stop  offset="0" style="stop-color:#00AEEF"/>
			<stop  offset="1" style="stop-color:#2B3990"/>
		</linearGradient>
		<path fill="url(#SVGID_4_)" d="M376.4,359.5h37.8c5.7,0,9.2-1,10.4-3c0.5-1,0.8-4.1,0.8-9.3c0-4.1-3.6-6.1-10.8-6.1H399
			c-6.8,0-12.3-1.3-16.7-3.9c-5-3-7.6-7.1-7.6-12.4v-11.6c0-5.7,2.7-10.3,8.1-13.6c3.7-2.3,9-3.5,15.9-3.5h42.5V310h-37.3
			c-5.6,0-9.1,0.9-10.3,2.7c-0.7,1.1-1.1,4-1.1,8.6c0,2,0.9,3.6,2.7,4.7c1.7,1,4.6,1.5,8.7,1.5h15.6c7,0,12.6,1.4,17,4.3
			c4.3,2.9,6.5,7,6.5,12.4V356c0,5.6-2.2,9.9-6.7,12.9c-4.4,2.9-10.4,4.4-17.8,4.4h-42.2V359.5z"/>
		<linearGradient id="SVGID_5_" gradientUnits="userSpaceOnUse" x1="465.9014" y1="283.85" x2="465.9014" y2="398.4197">
			<stop  offset="0" style="stop-color:#00AEEF"/>
			<stop  offset="1" style="stop-color:#2B3990"/>
		</linearGradient>
		<path fill="url(#SVGID_5_)" d="M481.4,327h-16.5v45.6h-14.5v-75.8h14.5v19.4h16.5V327z"/>
		<linearGradient id="SVGID_6_" gradientUnits="userSpaceOnUse" x1="521.7856" y1="283.85" x2="521.7856" y2="398.4197">
			<stop  offset="0" style="stop-color:#00AEEF"/>
			<stop  offset="1" style="stop-color:#2B3990"/>
		</linearGradient>
		<path fill="url(#SVGID_6_)" d="M554.2,357.9c0,4.4-1.7,7.9-5.2,10.6s-8.1,4-13.9,4h-24.9c-6.1,0-10.9-1.2-14.6-3.5
			c-4.1-2.5-6.2-6.1-6.2-10.7v-9.9c0-4.7,1.8-8.4,5.4-10.9c3.6-2.5,8.5-3.8,14.6-3.8h30.4c-0.1-2.4-0.7-4.2-1.7-5.4
			c-1.2-1.4-3.7-2.1-7.6-2.1h-40.8v-11h42.6c14.6,0,21.9,5,21.9,14.9V357.9z M539.7,356v-10.7c0-0.7-0.8-1.1-2.3-1.1h-24.9
			c-5.7,0-8.5,2.1-8.5,6.2v5.5c0,1.7,0.8,3.1,2.5,4c1.7,1,3.7,1.4,6.2,1.4h18.7C536.9,361.4,539.7,359.6,539.7,356z"/>
		<linearGradient id="SVGID_7_" gradientUnits="userSpaceOnUse" x1="665.8425" y1="283.85" x2="665.8425" y2="398.4197">
			<stop  offset="0" style="stop-color:#00AEEF"/>
			<stop  offset="1" style="stop-color:#2B3990"/>
		</linearGradient>
		<path fill="url(#SVGID_7_)" d="M698.2,338.6l-50,14.8v1.3c0,2.6,1,4.5,3,5.7c1.4,0.7,3.9,1.1,7.6,1.1H698v11h-41.7
			c-7.2,0-12.6-1.1-16-3.3c-4.5-2.7-6.7-6.9-6.7-12.7v-26.4c0-9.9,7.2-14.9,21.6-14.9H678c13.4,0,20.2,5.3,20.2,15.8V338.6z
			 M683.3,332.2v-0.3c0-3.8-3.2-5.6-9.6-5.6h-14.4c-7.5,0-11.3,2.1-11.3,6.4v9.9L683.3,332.2z"/>
	</g>
	<g>
		<linearGradient id="SVGID_8_" gradientUnits="userSpaceOnUse" x1="112.1507" y1="391.6938" x2="112.1507" y2="417.6411">
			<stop  offset="0" style="stop-color:#939598"/>
			<stop  offset="1" style="stop-color:#58595B"/>
		</linearGradient>
		<path fill="url(#SVGID_8_)" d="M122.5,403.5h-3.1v-11.2l-4.9,9.9c-0.5,1.1-1.3,1.6-2.3,1.6c-0.6,0-1.1-0.2-1.4-0.5
			c-0.2-0.2-0.5-0.6-0.7-1l-5.1-10v11.2h-3.1v-13.1c0-0.6,0.2-1.1,0.7-1.5c0.5-0.4,1.1-0.6,2-0.6c1.3,0,2.1,0.5,2.6,1.5l5,10.3
			l5.1-10.3c0.5-1,1.4-1.5,2.6-1.5c0.9,0,1.5,0.2,2,0.6c0.5,0.4,0.7,0.9,0.7,1.6V403.5z"/>
		<linearGradient id="SVGID_9_" gradientUnits="userSpaceOnUse" x1="139.8193" y1="391.6938" x2="139.8193" y2="417.6411">
			<stop  offset="0" style="stop-color:#939598"/>
			<stop  offset="1" style="stop-color:#58595B"/>
		</linearGradient>
		<path fill="url(#SVGID_9_)" d="M149,403.5h-3.5l-1.8-3.6h-7.8l-1.8,3.6h-3.5l6.7-13.7c0.5-1,1.3-1.4,2.5-1.4c1.2,0,2,0.5,2.5,1.4
			L149,403.5z M142.7,397.5l-3-6.1l-2.7,6.1H142.7z"/>
		<linearGradient id="SVGID_10_" gradientUnits="userSpaceOnUse" x1="164.6539" y1="391.6938" x2="164.6539" y2="417.6411">
			<stop  offset="0" style="stop-color:#939598"/>
			<stop  offset="1" style="stop-color:#58595B"/>
		</linearGradient>
		<path fill="url(#SVGID_10_)" d="M172.2,399.9c0,1.1-0.4,2-1.2,2.6c-0.8,0.6-1.9,1-3.4,1h-10.5v-15.2h10.4c3.1,0,4.6,1.2,4.6,3.5
			V399.9z M168.9,399.2v-6.8c0-1.1-0.8-1.6-2.3-1.6h-6.2V401h6.2C168.2,401,168.9,400.4,168.9,399.2z"/>
		<linearGradient id="SVGID_11_" gradientUnits="userSpaceOnUse" x1="189.4246" y1="391.6938" x2="189.4246" y2="417.6411">
			<stop  offset="0" style="stop-color:#939598"/>
			<stop  offset="1" style="stop-color:#58595B"/>
		</linearGradient>
		<path fill="url(#SVGID_11_)" d="M195.7,397.3h-9.6v2.2c0,0.9,0.8,1.4,2.3,1.4h7.9v2.8h-8.7c-1.5,0-2.7-0.3-3.6-0.8
			c-1-0.6-1.5-1.5-1.5-2.6v-8.4c0-1.1,0.4-2,1.3-2.7c0.9-0.6,2-1,3.5-1h9v2.8h-8c-1.5,0-2.3,0.4-2.3,1.3v2.2h9.6V397.3z"/>
		<linearGradient id="SVGID_12_" gradientUnits="userSpaceOnUse" x1="224.7005" y1="391.6938" x2="224.7005" y2="417.6411">
			<stop  offset="0" style="stop-color:#939598"/>
			<stop  offset="1" style="stop-color:#58595B"/>
		</linearGradient>
		<path fill="url(#SVGID_12_)" d="M232.1,399.9c0,1.1-0.4,2-1.1,2.6c-0.8,0.6-1.9,1-3.4,1h-10.3v-15.2h10.3c3,0,4.5,1.2,4.5,3.5v1.2
			c0,0.8-0.1,1.3-0.4,1.7c-0.3,0.5-0.7,0.9-1.4,1.1c0,0,0.2,0.1,0.7,0.3c0.6,0.4,0.9,1,1.1,1.8C232.1,398.2,232.1,398.8,232.1,399.9
			z M228.9,399.5v-1c0-0.9-0.7-1.4-2.1-1.4h-6.2v3.9h6.2C228.2,401,228.9,400.5,228.9,399.5z M228.9,393.3v-1.1c0-1-0.8-1.4-2.3-1.4
			h-6v3.9h6.2C228.2,394.7,228.9,394.2,228.9,393.3z"/>
		<linearGradient id="SVGID_13_" gradientUnits="userSpaceOnUse" x1="248.6388" y1="391.6938" x2="248.6388" y2="417.6411">
			<stop  offset="0" style="stop-color:#939598"/>
			<stop  offset="1" style="stop-color:#58595B"/>
		</linearGradient>
		<path fill="url(#SVGID_13_)" d="M257.2,388.3l-7,9v6.2H247v-6.2l-6.9-9h3.7l4.7,6.3l4.9-6.3H257.2z"/>
		<linearGradient id="SVGID_14_" gradientUnits="userSpaceOnUse" x1="278.1638" y1="391.6938" x2="278.1638" y2="417.6411">
			<stop  offset="0" style="stop-color:#939598"/>
			<stop  offset="1" style="stop-color:#58595B"/>
		</linearGradient>
		<path fill="url(#SVGID_14_)" d="M279.8,403.5h-3.3v-15.2h3.3V403.5z"/>
		<linearGradient id="SVGID_15_" gradientUnits="userSpaceOnUse" x1="300.0131" y1="391.6938" x2="300.0131" y2="417.6411">
			<stop  offset="0" style="stop-color:#939598"/>
			<stop  offset="1" style="stop-color:#58595B"/>
		</linearGradient>
		<path fill="url(#SVGID_15_)" d="M310.3,403.5h-3.1v-11.2l-4.9,9.9c-0.5,1.1-1.3,1.6-2.3,1.6c-0.6,0-1.1-0.2-1.4-0.5
			c-0.2-0.2-0.5-0.6-0.7-1l-5.1-10v11.2h-3.1v-13.1c0-0.6,0.2-1.1,0.7-1.5c0.5-0.4,1.1-0.6,2-0.6c1.3,0,2.1,0.5,2.6,1.5l5,10.3
			l5.1-10.3c0.5-1,1.4-1.5,2.6-1.5c0.9,0,1.5,0.2,2,0.6c0.5,0.4,0.7,0.9,0.7,1.6V403.5z"/>
		<linearGradient id="SVGID_16_" gradientUnits="userSpaceOnUse" x1="327.5995" y1="391.6938" x2="327.5995" y2="417.6411">
			<stop  offset="0" style="stop-color:#939598"/>
			<stop  offset="1" style="stop-color:#58595B"/>
		</linearGradient>
		<path fill="url(#SVGID_16_)" d="M333.9,397.3h-9.6v2.2c0,0.9,0.8,1.4,2.3,1.4h7.9v2.8h-8.7c-1.5,0-2.7-0.3-3.6-0.8
			c-1-0.6-1.5-1.5-1.5-2.6v-8.4c0-1.1,0.4-2,1.3-2.7c0.9-0.6,2-1,3.5-1h9v2.8h-8c-1.5,0-2.3,0.4-2.3,1.3v2.2h9.6V397.3z"/>
		<linearGradient id="SVGID_17_" gradientUnits="userSpaceOnUse" x1="351.5287" y1="391.6938" x2="351.5287" y2="417.6411">
			<stop  offset="0" style="stop-color:#939598"/>
			<stop  offset="1" style="stop-color:#58595B"/>
		</linearGradient>
		<path fill="url(#SVGID_17_)" d="M359.1,403.5h-4.2l-7.3-5.7c-0.3-0.2-0.4-0.6-0.4-1.1c0-0.9,0.7-1.4,2-1.4l4.3,0
			c1.3,0,2-0.4,2-1.3v-1.7c0-0.9-0.8-1.4-2.3-1.4h-6v12.7H344v-15.1h10.1c3.1,0,4.7,1.1,4.7,3.3v2.6c0,1-0.4,1.8-1.2,2.3
			c-0.8,0.6-1.9,0.9-3.2,0.9h-3L359.1,403.5z"/>
		<linearGradient id="SVGID_18_" gradientUnits="userSpaceOnUse" x1="386.4855" y1="391.6938" x2="386.4855" y2="417.6411">
			<stop  offset="0" style="stop-color:#939598"/>
			<stop  offset="1" style="stop-color:#58595B"/>
		</linearGradient>
		<path fill="url(#SVGID_18_)" d="M393.2,397.1H383v6.3h-3.3v-12c0-1,0.5-1.8,1.4-2.5c0.8-0.5,1.9-0.7,3.3-0.7h8.7v2.5h-7.9
			c-1.5,0-2.3,0.5-2.3,1.4v2.5h10.3V397.1z"/>
		<linearGradient id="SVGID_19_" gradientUnits="userSpaceOnUse" x1="410.8769" y1="391.6938" x2="410.8769" y2="417.6411">
			<stop  offset="0" style="stop-color:#939598"/>
			<stop  offset="1" style="stop-color:#58595B"/>
		</linearGradient>
		<path fill="url(#SVGID_19_)" d="M418.1,399.9c0,2.3-1.7,3.5-5,3.5h-4.5c-1.6,0-2.8-0.3-3.6-0.8c-1-0.6-1.5-1.5-1.5-2.7v-8.1
			c0-1.2,0.5-2.1,1.5-2.7c0.8-0.5,2-0.8,3.6-0.8h4.5c3.3,0,5,1.2,5,3.6V399.9z M414.9,399.4v-6.9c0-0.6-0.2-1.1-0.6-1.3
			c-0.4-0.2-1-0.4-1.9-0.4h-3.1c-0.9,0-1.6,0.1-1.9,0.4c-0.4,0.2-0.6,0.7-0.6,1.3v6.9c0,0.6,0.2,1,0.6,1.3c0.3,0.2,1,0.4,1.9,0.4
			h3.1c0.9,0,1.5-0.1,1.9-0.4C414.7,400.4,414.9,400,414.9,399.4z"/>
		<linearGradient id="SVGID_20_" gradientUnits="userSpaceOnUse" x1="435.6322" y1="391.6938" x2="435.6322" y2="417.6411">
			<stop  offset="0" style="stop-color:#939598"/>
			<stop  offset="1" style="stop-color:#58595B"/>
		</linearGradient>
		<path fill="url(#SVGID_20_)" d="M443.2,403.5H439l-7.3-5.7c-0.3-0.2-0.4-0.6-0.4-1.1c0-0.9,0.7-1.4,2-1.4l4.3,0c1.3,0,2-0.4,2-1.3
			v-1.7c0-0.9-0.8-1.4-2.3-1.4h-6v12.7h-3.3v-15.1h10.1c3.1,0,4.7,1.1,4.7,3.3v2.6c0,1-0.4,1.8-1.2,2.3c-0.8,0.6-1.9,0.9-3.2,0.9h-3
			L443.2,403.5z"/>
		<linearGradient id="SVGID_21_" gradientUnits="userSpaceOnUse" x1="465.4608" y1="391.6938" x2="465.4608" y2="417.6411">
			<stop  offset="0" style="stop-color:#939598"/>
			<stop  offset="1" style="stop-color:#58595B"/>
		</linearGradient>
		<path fill="url(#SVGID_21_)" d="M467.1,403.5h-3.3v-15.2h3.3V403.5z"/>
		<linearGradient id="SVGID_22_" gradientUnits="userSpaceOnUse" x1="487.3119" y1="391.6938" x2="487.3119" y2="417.6411">
			<stop  offset="0" style="stop-color:#939598"/>
			<stop  offset="1" style="stop-color:#58595B"/>
		</linearGradient>
		<path fill="url(#SVGID_22_)" d="M497.6,403.5h-3.1v-11.2l-4.9,9.9c-0.5,1.1-1.3,1.6-2.3,1.6c-0.6,0-1.1-0.2-1.4-0.5
			c-0.2-0.2-0.5-0.6-0.7-1l-5.1-10v11.2H477v-13.1c0-0.6,0.2-1.1,0.7-1.5c0.5-0.4,1.1-0.6,2-0.6c1.3,0,2.1,0.5,2.6,1.5l5,10.3
			l5.1-10.3c0.5-1,1.4-1.5,2.6-1.5c0.9,0,1.5,0.2,2,0.6c0.5,0.4,0.7,0.9,0.7,1.6V403.5z"/>
		<linearGradient id="SVGID_23_" gradientUnits="userSpaceOnUse" x1="514.8965" y1="391.6938" x2="514.8965" y2="417.6411">
			<stop  offset="0" style="stop-color:#939598"/>
			<stop  offset="1" style="stop-color:#58595B"/>
		</linearGradient>
		<path fill="url(#SVGID_23_)" d="M521.2,397.3h-9.6v2.2c0,0.9,0.8,1.4,2.3,1.4h7.9v2.8H513c-1.5,0-2.7-0.3-3.6-0.8
			c-1-0.6-1.5-1.5-1.5-2.6v-8.4c0-1.1,0.4-2,1.3-2.7c0.9-0.6,2-1,3.5-1h9v2.8h-8c-1.5,0-2.3,0.4-2.3,1.3v2.2h9.6V397.3z"/>
		<linearGradient id="SVGID_24_" gradientUnits="userSpaceOnUse" x1="538.8275" y1="391.6938" x2="538.8275" y2="417.6411">
			<stop  offset="0" style="stop-color:#939598"/>
			<stop  offset="1" style="stop-color:#58595B"/>
		</linearGradient>
		<path fill="url(#SVGID_24_)" d="M546.4,403.5h-4.2l-7.3-5.7c-0.3-0.2-0.4-0.6-0.4-1.1c0-0.9,0.7-1.4,2-1.4l4.3,0
			c1.3,0,2-0.4,2-1.3v-1.7c0-0.9-0.8-1.4-2.3-1.4h-6v12.7h-3.3v-15.1h10.1c3.1,0,4.7,1.1,4.7,3.3v2.6c0,1-0.4,1.8-1.2,2.3
			s-1.9,0.9-3.2,0.9h-3L546.4,403.5z"/>
	</g>
	<g>
		<linearGradient id="SVGID_25_" gradientUnits="userSpaceOnUse" x1="109.9556" y1="283.85" x2="109.9556" y2="398.4197">
			<stop  offset="0" style="stop-color:#00AEEF"/>
			<stop  offset="1" style="stop-color:#2B3990"/>
		</linearGradient>
		<polygon fill="url(#SVGID_25_)" points="118.1,328.8 118.1,297 101.8,297 101.8,372.6 118.1,372.6 118.1,340.9 		"/>
		<linearGradient id="SVGID_26_" gradientUnits="userSpaceOnUse" x1="179.3111" y1="283.85" x2="179.3111" y2="398.4197">
			<stop  offset="0" style="stop-color:#00AEEF"/>
			<stop  offset="1" style="stop-color:#2B3990"/>
		</linearGradient>
		<polygon fill="url(#SVGID_26_)" points="171.2,297 171.2,328.8 171.2,340.9 171.2,372.6 187.4,372.6 187.4,297 		"/>
	</g>
	<linearGradient id="SVGID_27_" gradientUnits="userSpaceOnUse" x1="121.8057" y1="311.7255" x2="167.4227" y2="311.7255">
		<stop  offset="0" style="stop-color:#939598"/>
		<stop  offset="1" style="stop-color:#58595B"/>
	</linearGradient>
	<path fill="url(#SVGID_27_)" d="M159.8,321.2h-30.5c-4.2,0-7.6-3.4-7.6-7.6v-3.8c0-4.2,3.4-7.6,7.6-7.6h30.5c4.2,0,7.6,3.4,7.6,7.6
		v3.8C167.4,317.8,164,321.2,159.8,321.2z M129.4,305.4c-2.4,0-4.4,2-4.4,4.4v3.8c0,2.4,2,4.4,4.4,4.4h30.5c2.4,0,4.4-2,4.4-4.4
		v-3.8c0-2.4-2-4.4-4.4-4.4H129.4z"/>
	
		<linearGradient id="SVGID_28_" gradientUnits="userSpaceOnUse" x1="754.1761" y1="334.7592" x2="683.6495" y2="334.7592" gradientTransform="matrix(-1 0 0 1 867.666 0)">
		<stop  offset="0" style="stop-color:#00AEEF"/>
		<stop  offset="1" style="stop-color:#2B3990"/>
	</linearGradient>
	<path fill="url(#SVGID_28_)" d="M121.8,336.7v-3.8c0-4.2,3.4-7.6,7.6-7.6h30.5c4.2,0,7.6,3.4,7.6,7.6v3.8c0,4.2-3.4,7.6-7.6,7.6
		h-30.5C125.2,344.2,121.8,340.8,121.8,336.7z M129.4,328.5c-2.4,0-4.4,2-4.4,4.4v3.8c0,2.4,2,4.4,4.4,4.4h30.5c2.4,0,4.4-2,4.4-4.4
		v-3.8c0-2.4-2-4.4-4.4-4.4H129.4z"/>
	<linearGradient id="SVGID_29_" gradientUnits="userSpaceOnUse" x1="121.8057" y1="357.7929" x2="167.4227" y2="357.7929">
		<stop  offset="0" style="stop-color:#939598"/>
		<stop  offset="1" style="stop-color:#58595B"/>
	</linearGradient>
	<path fill="url(#SVGID_29_)" d="M159.8,367.3h-30.5c-4.2,0-7.6-3.4-7.6-7.6v-3.8c0-4.2,3.4-7.6,7.6-7.6h30.5c4.2,0,7.6,3.4,7.6,7.6
		v3.8C167.4,363.9,164,367.3,159.8,367.3z M129.4,351.5c-2.4,0-4.4,2-4.4,4.4v3.8c0,2.4,2,4.4,4.4,4.4h30.5c2.4,0,4.4-2,4.4-4.4
		v-3.8c0-2.4-2-4.4-4.4-4.4H129.4z"/>
	<linearGradient id="SVGID_30_" gradientUnits="userSpaceOnUse" x1="129.6165" y1="311.7246" x2="152.8827" y2="311.7246">
		<stop  offset="0" style="stop-color:#939598"/>
		<stop  offset="1" style="stop-color:#58595B"/>
	</linearGradient>
	<path fill="url(#SVGID_30_)" d="M151.3,313.3h-20.1c-0.9,0-1.6-0.7-1.6-1.6c0-0.9,0.7-1.6,1.6-1.6h20.1c0.9,0,1.6,0.7,1.6,1.6
		C152.9,312.6,152.2,313.3,151.3,313.3z"/>
	<linearGradient id="SVGID_31_" gradientUnits="userSpaceOnUse" x1="154.3036" y1="311.725" x2="158.0257" y2="311.725">
		<stop  offset="0" style="stop-color:#939598"/>
		<stop  offset="1" style="stop-color:#58595B"/>
	</linearGradient>
	<circle fill="url(#SVGID_31_)" cx="156.2" cy="311.7" r="1.9"/>
	<linearGradient id="SVGID_32_" gradientUnits="userSpaceOnUse" x1="129.6165" y1="357.7939" x2="152.8827" y2="357.7939">
		<stop  offset="0" style="stop-color:#939598"/>
		<stop  offset="1" style="stop-color:#58595B"/>
	</linearGradient>
	<path fill="url(#SVGID_32_)" d="M151.3,359.4h-20.1c-0.9,0-1.6-0.7-1.6-1.6c0-0.9,0.7-1.6,1.6-1.6h20.1c0.9,0,1.6,0.7,1.6,1.6
		C152.9,358.7,152.2,359.4,151.3,359.4z"/>
	<linearGradient id="SVGID_33_" gradientUnits="userSpaceOnUse" x1="154.3036" y1="357.793" x2="158.0257" y2="357.793">
		<stop  offset="0" style="stop-color:#939598"/>
		<stop  offset="1" style="stop-color:#58595B"/>
	</linearGradient>
	<circle fill="url(#SVGID_33_)" cx="156.2" cy="357.8" r="1.9"/>
	
		<linearGradient id="SVGID_34_" gradientUnits="userSpaceOnUse" x1="714.7852" y1="334.7592" x2="738.0496" y2="334.7592" gradientTransform="matrix(-1 0 0 1 867.666 0)">
		<stop  offset="0" style="stop-color:#939598"/>
		<stop  offset="1" style="stop-color:#58595B"/>
	</linearGradient>
	<path fill="url(#SVGID_34_)" d="M131.2,336.3h20.1c0.9,0,1.6-0.7,1.6-1.6s-0.7-1.6-1.6-1.6h-20.1c-0.9,0-1.6,0.7-1.6,1.6
		S130.3,336.3,131.2,336.3z"/>
	
		<linearGradient id="SVGID_35_" gradientUnits="userSpaceOnUse" x1="709.641" y1="334.759" x2="713.363" y2="334.759" gradientTransform="matrix(-1 0 0 1 867.666 0)">
		<stop  offset="0" style="stop-color:#939598"/>
		<stop  offset="1" style="stop-color:#58595B"/>
	</linearGradient>
	<circle fill="url(#SVGID_35_)" cx="156.2" cy="334.8" r="1.9"/>
	<linearGradient id="SVGID_36_" gradientUnits="userSpaceOnUse" x1="593.8489" y1="279.6576" x2="593.8489" y2="409.7002">
		<stop  offset="0" style="stop-color:#00AEEF"/>
		<stop  offset="1" style="stop-color:#2B3990"/>
	</linearGradient>
	<path fill="url(#SVGID_36_)" d="M621.1,318.5c-3.6-2.4-9.1-3.6-16.7-3.6h-21.6c-7.5,0-12.9,1.4-16.2,4.2c-3.3,2.8-4.9,7-4.9,12.7
		v27.1c0,4.8,1.9,8.5,5.7,11.2c3.8,2.7,9.3,4,16.6,4h27.9v7.7v0c0,3-0.4,5.1-1.3,6.5c-1.4,1.7-4.3,2.6-8.7,2.6h-40.5v11.4h42.2
		c15.3,0,22.9-5.5,22.9-16.4v-3.5v-0.7v-3.5V374v-43.4C626.4,324.9,624.6,320.9,621.1,318.5z M609.9,362.6h-23.2
		c-7.1,0-10.7-2.3-10.7-6.8v-22.5c0-4.8,3.2-7.2,9.6-7.2h16.3c3.4,0,6.2,0.8,8.3,2.5c1.2,0.9,1.9,2.6,1.9,5.3v27.3
		C612,362.1,611.3,362.6,609.9,362.6z"/>
</g>
</svg>
