<?xml version="1.0" encoding="UTF-8"?>
<!-- Generator: Adobe Illustrator 23.0.5, SVG Export Plug-In . SVG Version: 6.00 Build 0)  -->
<svg version="1.1" id="Layer_1" xmlns="http://www.w3.org/2000/svg" xmlns:xlink="http://www.w3.org/1999/xlink" x="0px" y="0px" viewBox="0 0 1024 170" style="enable-background:new 0 0 1024 170;" xml:space="preserve">
<style type="text/css">
	.st0{fill:#535EAB;}
</style>
<g transform="translate(0.000000,170.000000) scale(0.100000,-0.100000)">
	<path class="st0" d="M1050,1487c-67-9-169-56-226-102c-55-45-107-125-134-206c-19-54-21-81-18-169l4-105l86-200   c164-380,214-489,225-492c6-2,30,14,53,36c40,38,42,43,36,79c-3,22-31,97-62,168c-189,437-198,463-198,549c0,67,4,88,26,131   c32,60,93,118,157,147c71,33,179,30,253-6c188-92,239-346,100-490c-46-48-97-75-185-98c-38-10-71-19-73-22c-2-2,5-27,17-55   c27-64,54-78,124-62c200,45,345,233,345,446c0,125-42,227-134,322C1340,1468,1210,1510,1050,1487z"/>
	<path class="st0" d="M455,1466c-38-17-59-42-75-86c-11-32-10-41,8-76c26-52,60-74,113-74c51,0,94,25,114,66c19,40,19,65,1,109   C591,1465,515,1494,455,1466z"/>
	<path class="st0" d="M5975,1022c-16-2-40-11-51-20c-12-9-94-119-183-244l-160-228h88h89l113,160c61,88,115,160,118,160   c6,0,122-172,129-191c2-5-43-9-100-9h-104l-42-60l-43-60h281c265,0,280,1,271,18c-6,9-79,116-163,236   C6057,1015,6042,1030,5975,1022z"/>
	<path class="st0" d="M1900,775V530h73h72l-2,242l-2,243l-71,3l-70,3V775z"/>
	<path class="st0" d="M2160,955v-65h235h235l17-26c15-24,15-29,2-53l-15-26l-237-3l-237-2V655V530h70h70v59v58l174,5   c168,5,177,6,233,34c71,36,97,76,97,149c0,62-24,108-72,140c-58,38-111,44-349,45h-223V955z"/>
	<path class="st0" d="M2936,961c-25-33-46-62-46-65s96-6,214-6c223,0,245-4,230-44c-9-23-27-25-214-28c-234-4-251-16-258-185l-4-103   h265h266l46,60l46,60h-235h-236v30c0,19,7,33,19,40c11,6,88,10,179,10c147,0,162,2,203,23c79,42,92,146,26,212   c-44,44-104,55-296,55h-158L2936,961z"/>
	<path class="st0" d="M3580,775V530h218h217l43,55c23,30,42,57,42,60s-83,5-185,5h-185v185v185h-75h-75V775z"/>
	<path class="st0" d="M4327,1009c-85-20-144-65-172-131c-18-44-19-158-2-206c39-107,180-161,386-149c220,13,310,86,311,252   c0,125-68,208-190,234C4600,1022,4382,1022,4327,1009z M4633,886c53-22,70-49,70-109c0-108-31-127-208-127c-145,0-178,11-201,65   c-30,73-10,139,50,166C4395,904,4582,908,4633,886z"/>
	<path class="st0" d="M5112,1004c-232-62-261-330-48-442c49-26,59-27,226-30l175-3l43,56c23,30,42,57,42,60s-83,5-185,5   c-203,0-235,7-273,55c-34,43-30,97,12,143l34,37l161,3l161,3l45,59c25,32,45,61,45,64C5550,1027,5165,1019,5112,1004z"/>
	<path class="st0" d="M6236,993c9-16,28-45,42-65l25-38h88h89V710V530h75h75v180v180h89h89l39,53c22,28,43,58,47,65   c6,9-64,12-335,12h-341L6236,993z"/>
	<path class="st0" d="M6940,775V530h75h75v245v245h-75h-75V775z"/>
	<path class="st0" d="M7356,1005c-109-31-165-98-173-208c-9-114,27-186,116-232c121-61,353-60,478,1c65,31,98,77,114,155   c24,122-25,222-134,270c-46,20-70,23-202,26C7449,1018,7390,1015,7356,1005z M7673,889c54-15,79-58,74-127c-3-41-10-59-31-80   c-26-26-30-27-161-30c-189-5-225,16-225,126c0,56,19,88,64,108C7432,902,7618,905,7673,889z"/>
	<path class="st0" d="M7994,1012c-29-19-34-55-34-266V530h68h67l-2,140c-1,77,2,140,6,140c5,0,39-28,77-63c214-195,254-227,284-227   c19,0,40,9,55,25l25,24v226v225h-65h-64l-3-146l-3-146l-163,146c-148,133-166,146-200,146C8022,1020,8000,1016,7994,1012z"/>
	<path class="st0" d="M8890,770V520h75h75l-2,248l-3,247l-72,3l-73,3V770z"/>
	<path class="st0" d="M9306,1005c-67-19-126-62-155-114c-19-35-24-58-24-120c0-81,14-123,57-169c89-98,384-123,544-46   c66,32,105,84,122,162c10,51,10,67-6,122c-37,134-130,181-358,179C9410,1019,9334,1013,9306,1005z M9614,889c64-18,86-48,86-117   c0-106-42-132-210-132c-165,0-214,28-214,124c-1,65,23,105,75,123C9394,902,9562,903,9614,889z"/>
	<path class="st0" d="M8660,630c-60-60,25-150,103-109c30,16,37,28,37,66c0,22-7,37-22,47C8746,657,8684,654,8660,630z"/>
</g>
</svg>