<svg xmlns="http://www.w3.org/2000/svg" xml:space="preserve" viewBox="0 0 1024 170">
  <path d="M105 21.3c-6.7.9-16.9 5.6-22.6 10.2C76.9 36 71.7 44 69 52.1c-1.9 5.4-2.1 8.1-1.8 16.9l.4 10.5 8.6 20c16.4 38 21.4 48.9 22.5 49.2.6.2 3-1.4 5.3-3.6 4-3.8 4.2-4.3 3.6-7.9-.3-2.2-3.1-9.7-6.2-16.8-18.9-43.7-19.8-46.3-19.8-54.9 0-6.7.4-8.8 2.6-13.1 3.2-6 9.3-11.8 15.7-14.7 7.1-3.3 17.9-3 25.3.6 18.8 9.2 23.9 34.6 10 49-4.6 4.8-9.7 7.5-18.5 9.8-3.8 1-7.1 1.9-7.3 2.2-.2.2.5 2.7 1.7 5.5 2.7 6.4 5.4 7.8 12.4 6.2 20-4.5 34.5-23.3 34.5-44.6 0-12.5-4.2-22.7-13.4-32.2C134 23.2 121 19 105 21.3m-59.5 2.1c-3.8 1.7-5.9 4.2-7.5 8.6-1.1 3.2-1 4.1.8 7.6 2.6 5.2 6 7.4 11.3 7.4 5.1 0 9.4-2.5 11.4-6.6 1.9-4 1.9-6.5.1-10.9-2.5-6-10.1-8.9-16.1-6.1m552 44.4c-1.6.2-4 1.1-5.1 2-1.2.9-9.4 11.9-18.3 24.4l-16 22.8h17.7l11.3-16c6.1-8.8 11.5-16 11.8-16 .6 0 12.2 17.2 12.9 19.1.2.5-4.3.9-10 .9h-10.4l-4.2 6-4.3 6H611c26.5 0 28-.1 27.1-1.8-.6-.9-7.9-11.6-16.3-23.6-16.1-23.1-17.6-24.6-24.3-23.8M190 92.5V117h14.5l-.2-24.2-.2-24.3-7.1-.3-7-.3zm26-18V81h47l1.7 2.6c1.5 2.4 1.5 2.9.2 5.3l-1.5 2.6-23.7.3-23.7.2v25h14v-11.7l17.4-.5c16.8-.5 17.7-.6 23.3-3.4 7.1-3.6 9.7-7.6 9.7-14.9 0-6.2-2.4-10.8-7.2-14-5.8-3.8-11.1-4.4-34.9-4.5H216zm77.6-.6c-2.5 3.3-4.6 6.2-4.6 6.5s9.6.6 21.4.6c22.3 0 24.5.4 23 4.4-.9 2.3-2.7 2.5-21.4 2.8-23.4.4-25.1 1.6-25.8 18.5l-.4 10.3h53.1l4.6-6 4.6-6H301v-3c0-1.9.7-3.3 1.9-4 1.1-.6 8.8-1 17.9-1 14.7 0 16.2-.2 20.3-2.3 7.9-4.2 9.2-14.6 2.6-21.2-4.4-4.4-10.4-5.5-29.6-5.5h-15.8zM358 92.5V117h43.5l4.3-5.5c2.3-3 4.2-5.7 4.2-6s-8.3-.5-18.5-.5H373V68h-15zm74.7-23.4c-8.5 2-14.4 6.5-17.2 13.1-1.8 4.4-1.9 15.8-.2 20.6 3.9 10.7 18 16.1 38.6 14.9 22-1.3 31-8.6 31.1-25.2 0-12.5-6.8-20.8-19-23.4-6-1.3-27.8-1.3-33.3 0m30.6 12.3c5.3 2.2 7 4.9 7 10.9 0 10.8-3.1 12.7-20.8 12.7-14.5 0-17.8-1.1-20.1-6.5-3-7.3-1-13.9 5-16.6 5.1-2.3 23.8-2.7 28.9-.5m47.9-11.8c-23.2 6.2-26.1 33-4.8 44.2 4.9 2.6 5.9 2.7 22.6 3l17.5.3 4.3-5.6c2.3-3 4.2-5.7 4.2-6s-8.3-.5-18.5-.5c-20.3 0-23.5-.7-27.3-5.5-3.4-4.3-3-9.7 1.2-14.3l3.4-3.7 16.1-.3 16.1-.3 4.5-5.9c2.5-3.2 4.5-6.1 4.5-6.4 0-1.3-38.5-.5-43.8 1m112.4 1.1c.9 1.6 2.8 4.5 4.2 6.5l2.5 3.8H648v36h15V81h17.8l3.9-5.3c2.2-2.8 4.3-5.8 4.7-6.5.6-.9-6.4-1.2-33.5-1.2h-34.1zM694 92.5V117h15V68h-15zm41.6-23c-10.9 3.1-16.5 9.8-17.3 20.8-.9 11.4 2.7 18.6 11.6 23.2 12.1 6.1 35.3 6 47.8-.1 6.5-3.1 9.8-7.7 11.4-15.5 2.4-12.2-2.5-22.2-13.4-27-4.6-2-7-2.3-20.2-2.6-10.6-.1-16.5.2-19.9 1.2m31.7 11.6c5.4 1.5 7.9 5.8 7.4 12.7-.3 4.1-1 5.9-3.1 8-2.6 2.6-3 2.7-16.1 3-18.9.5-22.5-1.6-22.5-12.6 0-5.6 1.9-8.8 6.4-10.8 3.8-1.6 22.4-1.9 27.9-.3m32.1-12.3c-2.9 1.9-3.4 5.5-3.4 26.6V117h13.5l-.2-14c-.1-7.7.2-14 .6-14 .5 0 3.9 2.8 7.7 6.3C839 114.8 843 118 846 118c1.9 0 4-.9 5.5-2.5l2.5-2.4V68h-12.9l-.3 14.6-.3 14.6-16.3-14.6c-14.8-13.3-16.6-14.6-20-14.6-2 0-4.2.4-4.8.8M889 93v25h15l-.2-24.8-.3-24.7-7.2-.3-7.3-.3zm41.6-23.5c-6.7 1.9-12.6 6.2-15.5 11.4-1.9 3.5-2.4 5.8-2.4 12 0 8.1 1.4 12.3 5.7 16.9 8.9 9.8 38.4 12.3 54.4 4.6 6.6-3.2 10.5-8.4 12.2-16.2 1-5.1 1-6.7-.6-12.2-3.7-13.4-13-18.1-35.8-17.9-7.6 0-15.2.6-18 1.4m30.8 11.6c6.4 1.8 8.6 4.8 8.6 11.7 0 10.6-4.2 13.2-21 13.2-16.5 0-21.4-2.8-21.4-12.4-.1-6.5 2.3-10.5 7.5-12.3 4.3-1.5 21.1-1.6 26.3-.2M866 107c-6 6 2.5 15 10.3 10.9 3-1.6 3.7-2.8 3.7-6.6 0-2.2-.7-3.7-2.2-4.7-3.2-2.3-9.4-2-11.8.4" style="fill:#535eab"/>
</svg>
