<svg xmlns="http://www.w3.org/2000/svg" width="100" height="30" fill="none">
  <g clip-path="url(#a)">
    <path fill="#1E283A" d="M31.422 6.08a1.54 1.54 0 0 1 1.13.48 1.6 1.6 0 0 1 .47 1.161 1.57 1.57 0 0 1-.466 1.15 1.5 1.5 0 0 1-1.115.475 1.52 1.52 0 0 1-1.14-.487 1.6 1.6 0 0 1-.472-1.174 1.57 1.57 0 0 1 .465-1.137 1.55 1.55 0 0 1 1.129-.469zm-1.256 4.132h2.51V20.25h-2.51zm7.25 0v1.11c.419-.43.916-.777 1.465-1.02a4.2 4.2 0 0 1 1.684-.344 4.33 4.33 0 0 1 3.315 1.486 5.42 5.42 0 0 1 1.362 3.81 5.28 5.28 0 0 1-1.41 3.75 4.44 4.44 0 0 1-3.339 1.508c-.55.004-1.094-.1-1.603-.309a4.9 4.9 0 0 1-1.475-1.01v4.73h-2.481V10.211zm2.627 2.068a2.6 2.6 0 0 0-1.96.813 2.92 2.92 0 0 0-.777 2.118 3.02 3.02 0 0 0 .778 2.163 2.6 2.6 0 0 0 1.96.827 2.53 2.53 0 0 0 1.927-.84 3 3 0 0 0 .78-2.14c.03-.78-.246-1.54-.768-2.117a2.55 2.55 0 0 0-1.94-.827zm8.247-6.2a1.54 1.54 0 0 1 1.132.48 1.6 1.6 0 0 1 .47 1.162 1.57 1.57 0 0 1-.466 1.15 1.5 1.5 0 0 1-1.115.475 1.52 1.52 0 0 1-1.14-.487 1.6 1.6 0 0 1-.472-1.174 1.57 1.57 0 0 1 .465-1.137 1.55 1.55 0 0 1 1.129-.469zm-1.255 4.132h2.51V20.25h-2.51zm4.768 0h2.49v1.026c.46-.412.98-.75 1.545-1a3.7 3.7 0 0 1 1.412-.285A3.4 3.4 0 0 1 59.768 11a3.57 3.57 0 0 1 .87 2.62v6.63h-2.472v-4.398c.03-.8-.024-1.6-.164-2.388a1.64 1.64 0 0 0-.56-.9 1.56 1.56 0 0 0-.98-.309 1.83 1.83 0 0 0-1.306.513c-.387.385-.65.877-.756 1.414a11.7 11.7 0 0 0-.11 2.04v4.03H51.8v-10.04zm10.06 0h.89q.009-1.97.064-2.335a1.93 1.93 0 0 1 .69-1.314 2.57 2.57 0 0 1 1.672-.486c.601.017 1.195.14 1.755.363v1.92a3.2 3.2 0 0 0-.888-.157.94.94 0 0 0-.64.182.8.8 0 0 0-.145.574l-.01 1.253h1.585v2.14H65.25v7.897h-2.497v-7.896h-.888v-2.14h-.002Zm11.115-.259a5.3 5.3 0 0 1 2.652.712 5.2 5.2 0 0 1 1.929 1.918c.462.801.705 1.712.702 2.638a5.3 5.3 0 0 1-.7 2.657 5.1 5.1 0 0 1-1.91 1.934c-.81.465-1.73.705-2.664.695a4.93 4.93 0 0 1-3.656-1.536 5.13 5.13 0 0 1-1.515-3.73 5.1 5.1 0 0 1 1.712-3.92 4.98 4.98 0 0 1 3.45-1.367Zm.039 2.372a2.55 2.55 0 0 0-1.938.818 2.9 2.9 0 0 0-.772 2.088c-.036.781.24 1.545.764 2.124a2.55 2.55 0 0 0 1.934.812 2.56 2.56 0 0 0 1.95-.82 2.93 2.93 0 0 0 .777-2.114 2.93 2.93 0 0 0-.762-2.097 2.6 2.6 0 0 0-1.953-.81Zm8.65 5.295a1.38 1.38 0 0 1 1.013.42 1.45 1.45 0 0 1-.47 2.354 1.425 1.425 0 0 1-1.812-.653 1.46 1.46 0 0 1-.06-1.233 1.44 1.44 0 0 1 .778-.779c.174-.072.36-.108.549-.107zm4.86-11.54a1.54 1.54 0 0 1 1.132.48 1.6 1.6 0 0 1 .469 1.162 1.57 1.57 0 0 1-.466 1.15 1.52 1.52 0 0 1-1.115.475 1.52 1.52 0 0 1-1.14-.487 1.6 1.6 0 0 1-.472-1.174c0-.425.166-.833.465-1.136a1.6 1.6 0 0 1 1.128-.47zm-1.255 4.132h2.51V20.25h-2.51zm9.446-.259a5.3 5.3 0 0 1 2.652.712 5.2 5.2 0 0 1 1.929 1.918c.462.803.704 1.713.702 2.638a5.3 5.3 0 0 1-.7 2.657 5.1 5.1 0 0 1-1.91 1.934 5.24 5.24 0 0 1-2.665.695 4.93 4.93 0 0 1-3.653-1.536 5.13 5.13 0 0 1-1.515-3.73 5.1 5.1 0 0 1 1.708-3.92 4.98 4.98 0 0 1 3.45-1.368zm.037 2.372a2.55 2.55 0 0 0-1.937.818 2.9 2.9 0 0 0-.773 2.088 2.96 2.96 0 0 0 .766 2.124 2.55 2.55 0 0 0 1.934.812 2.56 2.56 0 0 0 1.949-.82 2.94 2.94 0 0 0 .778-2.114 2.93 2.93 0 0 0-.762-2.097 2.6 2.6 0 0 0-1.956-.809z"/>
    <path fill="#0095E5" fill-rule="evenodd" d="m13.206 22.609 1.952 2.273 2.255-1.966 2.21-1.926a12.03 12.03 0 0 0 4.055-8.184 12.05 12.05 0 0 0-2.85-8.687 11.87 11.87 0 0 0-8.12-4.087 11.85 11.85 0 0 0-8.62 2.87A12.03 12.03 0 0 0 .03 11.089a12.06 12.06 0 0 0 2.85 8.686l7.79 9.07c.695.81 1.427 1.688 2.558.752l.034-.03.032-.028c1.082-.995.325-1.851-.37-2.662l-.487-.565-7.302-8.507a9.033 9.033 0 0 1 .905-12.63 8.88 8.88 0 0 1 6.453-2.146 8.9 8.9 0 0 1 6.08 3.058 9.03 9.03 0 0 1 2.13 6.503 9 9 0 0 1-3.034 6.127l-2.208 1.926-1.952-2.273-1.952-2.273-1.91-2.225a2.99 2.99 0 0 1 .297-4.15 2.94 2.94 0 0 1 4.12.299 2.996 2.996 0 0 1 .1 3.726 1.56 1.56 0 0 0 .095 1.893c.98 1.14 2.061.356 2.637-.61a6.03 6.03 0 0 0-.579-6.975 5.906 5.906 0 0 0-8.327-.606 6.01 6.01 0 0 0-.6 8.39l1.91 2.226 1.953 2.27 1.952 2.273z" clip-rule="evenodd"/>
  </g>
  <defs>
    <clipPath id="a">
      <path fill="#fff" d="M0 0h100v30H0z"/>
    </clipPath>
  </defs>
</svg>
