<svg xmlns="http://www.w3.org/2000/svg" width="100" height="30" fill="none">
  <g clip-path="url(#a)">
    <path fill="#1E283A" d="M31.422 6.08a1.536 1.536 0 0 1 1.13.48 1.6 1.6 0 0 1 .47 1.161 1.574 1.574 0 0 1-.466 1.15 1.513 1.513 0 0 1-1.115.475 1.52 1.52 0 0 1-1.14-.487 1.61 1.61 0 0 1-.472-1.174 1.568 1.568 0 0 1 .465-1.137 1.546 1.546 0 0 1 1.129-.469l-.001.002Zm-1.256 4.132h2.51V20.25h-2.51V10.212Zm7.25 0v1.11c.419-.43.916-.777 1.465-1.02a4.206 4.206 0 0 1 1.684-.344 4.33 4.33 0 0 1 3.315 1.486 5.416 5.416 0 0 1 1.362 3.81 5.277 5.277 0 0 1-1.41 3.75 4.442 4.442 0 0 1-3.339 1.508c-.55.004-1.094-.1-1.603-.309a4.931 4.931 0 0 1-1.475-1.01v4.73h-2.481V10.211h2.481l.001.001Zm2.627 2.068a2.588 2.588 0 0 0-1.96.813 2.922 2.922 0 0 0-.777 2.118 3.023 3.023 0 0 0 .778 2.163 2.587 2.587 0 0 0 1.96.827 2.526 2.526 0 0 0 1.927-.84 3.01 3.01 0 0 0 .78-2.14c.03-.78-.246-1.54-.768-2.117a2.545 2.545 0 0 0-1.94-.827v.003Zm8.247-6.2a1.536 1.536 0 0 1 1.132.48 1.6 1.6 0 0 1 .47 1.162 1.574 1.574 0 0 1-.466 1.15 1.514 1.514 0 0 1-1.115.475 1.52 1.52 0 0 1-1.14-.487 1.61 1.61 0 0 1-.472-1.174 1.567 1.567 0 0 1 .465-1.137 1.546 1.546 0 0 1 1.129-.469h-.003Zm-1.255 4.132h2.51V20.25h-2.51V10.212Zm4.768 0h2.49v1.026c.46-.412.98-.75 1.545-1a3.686 3.686 0 0 1 1.412-.285A3.405 3.405 0 0 1 59.768 11a3.57 3.57 0 0 1 .87 2.62v6.63h-2.472v-4.398c.03-.8-.024-1.6-.164-2.388a1.644 1.644 0 0 0-.56-.9 1.556 1.556 0 0 0-.98-.309 1.827 1.827 0 0 0-1.306.513c-.387.385-.65.877-.756 1.414a11.697 11.697 0 0 0-.11 2.04v4.03H51.8v-10.04h.003Zm10.06 0h.89c.007-1.314.026-2.092.064-2.335a1.932 1.932 0 0 1 .69-1.314 2.566 2.566 0 0 1 1.672-.486c.601.017 1.195.14 1.755.363v1.92a3.213 3.213 0 0 0-.888-.157.936.936 0 0 0-.64.182.813.813 0 0 0-.145.574l-.01 1.253h1.585v2.14H65.25v7.897h-2.497v-7.896h-.888v-2.14h-.002Zm11.115-.259a5.272 5.272 0 0 1 2.652.712 5.193 5.193 0 0 1 1.929 1.918c.462.801.705 1.712.702 2.638a5.32 5.32 0 0 1-.7 2.657 5.09 5.09 0 0 1-1.91 1.934c-.81.465-1.73.705-2.664.695a4.935 4.935 0 0 1-3.656-1.536 5.13 5.13 0 0 1-1.515-3.73 5.103 5.103 0 0 1 1.712-3.92 4.978 4.978 0 0 1 3.45-1.367Zm.039 2.372a2.553 2.553 0 0 0-1.938.818 2.903 2.903 0 0 0-.772 2.088c-.036.781.24 1.545.764 2.124a2.548 2.548 0 0 0 1.934.812 2.564 2.564 0 0 0 1.95-.82 2.934 2.934 0 0 0 .777-2.114 2.932 2.932 0 0 0-.762-2.097 2.59 2.59 0 0 0-1.953-.81Zm8.65 5.295a1.379 1.379 0 0 1 1.013.42 1.45 1.45 0 0 1-.47 2.354 1.425 1.425 0 0 1-1.812-.653 1.455 1.455 0 0 1-.06-1.233 1.44 1.44 0 0 1 .778-.779c.174-.072.36-.108.549-.107l.001-.002h.001Zm4.86-11.54a1.535 1.535 0 0 1 1.132.48 1.6 1.6 0 0 1 .469 1.162 1.574 1.574 0 0 1-.466 1.15 1.516 1.516 0 0 1-1.115.475 1.52 1.52 0 0 1-1.14-.487 1.61 1.61 0 0 1-.472-1.174c0-.425.166-.833.465-1.136a1.589 1.589 0 0 1 1.128-.47h-.001Zm-1.255 4.132h2.51V20.25h-2.51V10.212Zm9.446-.259a5.272 5.272 0 0 1 2.652.712 5.192 5.192 0 0 1 1.929 1.918c.462.803.704 1.713.702 2.638a5.324 5.324 0 0 1-.7 2.657 5.09 5.09 0 0 1-1.91 1.934 5.24 5.24 0 0 1-2.665.695 4.933 4.933 0 0 1-3.653-1.536 5.131 5.131 0 0 1-1.515-3.73 5.093 5.093 0 0 1 1.708-3.92 4.978 4.978 0 0 1 3.45-1.368h.002Zm.037 2.372a2.549 2.549 0 0 0-1.937.818 2.905 2.905 0 0 0-.773 2.088 2.96 2.96 0 0 0 .766 2.124 2.548 2.548 0 0 0 1.934.812 2.564 2.564 0 0 0 1.949-.82 2.936 2.936 0 0 0 .778-2.114 2.934 2.934 0 0 0-.762-2.097 2.59 2.59 0 0 0-1.956-.809l.001-.002Z"/>
    <path fill="#0095E5" fill-rule="evenodd" d="m13.206 22.609 1.952 2.273 2.255-1.966 2.21-1.926a12.028 12.028 0 0 0 4.055-8.184 12.054 12.054 0 0 0-2.85-8.687 11.871 11.871 0 0 0-8.12-4.087 11.845 11.845 0 0 0-8.62 2.87A12.029 12.029 0 0 0 .03 11.089a12.055 12.055 0 0 0 2.85 8.686l7.79 9.07c.695.81 1.427 1.688 2.558.752l.034-.03.032-.028c1.082-.995.325-1.851-.37-2.662l-.487-.565-7.302-8.507a9.033 9.033 0 0 1 .905-12.63 8.875 8.875 0 0 1 6.453-2.146 8.895 8.895 0 0 1 6.08 3.058 9.033 9.033 0 0 1 2.13 6.503 9.013 9.013 0 0 1-3.034 6.127l-2.208 1.926-1.952-2.273-1.952-2.273-1.91-2.225a2.99 2.99 0 0 1 .297-4.15 2.938 2.938 0 0 1 4.12.299 2.996 2.996 0 0 1 .1 3.726 1.56 1.56 0 0 0 .095 1.893c.98 1.14 2.061.356 2.637-.61a6.027 6.027 0 0 0-.579-6.975 5.906 5.906 0 0 0-8.327-.606 6.011 6.011 0 0 0-.6 8.39l1.91 2.226 1.953 2.27 1.952 2.273v.002Z" clip-rule="evenodd"/>
  </g>
  <defs>
    <clipPath id="a">
      <path fill="#fff" d="M0 0h100v30H0z"/>
    </clipPath>
  </defs>
</svg>
