<svg width="144" height="24" viewBox="0 0 144 24" fill="none" xmlns="http://www.w3.org/2000/svg">
<path d="M12 4V0C8.8174 0 5.76516 1.26428 3.51472 3.51472C1.26428 5.76516 0 8.8174 0 12H4C4 9.87827 4.84285 7.84344 6.34315 6.34315C7.84344 4.84285 9.87827 4 12 4V4Z" fill="#57ADE8"/>
<path d="M20 12C20 14.1217 19.1571 16.1566 17.6569 17.6569C16.1566 19.1571 14.1217 20 12 20V24C15.1826 24 18.2348 22.7357 20.4853 20.4853C22.7357 18.2348 24 15.1826 24 12H20Z" fill="#57ADE8"/>
<path d="M12 17C14.7614 17 17 14.7614 17 12C17 9.23858 14.7614 7 12 7C9.23858 7 7 9.23858 7 12C7 14.7614 9.23858 17 12 17Z" fill="#3A7DBA"/>
<path d="M32.36 1.57999H36.9V22.92H32.36V1.57999Z" fill="#333333"/>
<path d="M39.53 1.57999H49.53C54.17 1.57999 56.7 4.71999 56.7 8.45999C56.7 12.2 54.14 15.28 49.53 15.28H44.07V22.93H39.53V1.57999ZM48.91 5.47999H44.07V11.37H48.9C49.3012 11.3934 49.7029 11.3345 50.0805 11.1971C50.4582 11.0597 50.8037 10.8466 51.096 10.5708C51.3883 10.295 51.6212 9.96245 51.7804 9.59346C51.9396 9.22447 52.0217 8.82685 52.0217 8.42499C52.0217 8.02313 51.9396 7.62551 51.7804 7.25652C51.6212 6.88752 51.3883 6.55495 51.096 6.27918C50.8037 6.00342 50.4582 5.79028 50.0805 5.65285C49.7029 5.51542 49.3012 5.4566 48.9 5.47999H48.91Z" fill="#333333"/>
<path d="M57.9 1.57999H62.44V18.92H71.44V22.92H57.9V1.57999Z" fill="#333333"/>
<path d="M71.6 15.18C71.6741 13.0613 72.5679 11.0542 74.0929 9.58158C75.6179 8.10898 77.6551 7.28595 79.775 7.28595C81.895 7.28595 83.9321 8.10898 85.4571 9.58158C86.9822 11.0542 87.8759 13.0613 87.95 15.18C87.8759 17.2986 86.9822 19.3058 85.4571 20.7784C83.9321 22.251 81.895 23.074 79.775 23.074C77.6551 23.074 75.6179 22.251 74.0929 20.7784C72.5679 19.3058 71.6741 17.2986 71.6 15.18ZM83.73 15.18C83.73 12.78 82.29 10.7 79.73 10.7C77.17 10.7 75.79 12.78 75.79 15.18C75.79 17.58 77.2 19.69 79.73 19.69C82.26 19.69 83.72 17.61 83.72 15.18H83.73Z" fill="#333333"/>
<path d="M96.55 7.09C97.722 7.01983 98.8932 7.24059 99.9592 7.7326C101.025 8.22461 101.953 8.97262 102.66 9.91L100 12.37C99.6389 11.8427 99.1512 11.4144 98.5816 11.1244C98.0121 10.8344 97.3789 10.6919 96.74 10.71C96.1619 10.6995 95.588 10.8105 95.0555 11.0359C94.523 11.2613 94.0437 11.5959 93.6487 12.0182C93.2538 12.4405 92.9519 12.9411 92.7626 13.4875C92.5733 14.0338 92.5009 14.6139 92.55 15.19C92.55 17.88 94.28 19.7 96.74 19.7C97.3813 19.7065 98.0143 19.5548 98.5829 19.2583C99.1515 18.9617 99.6383 18.5295 100 18L102.66 20.46C101.953 21.3974 101.025 22.1454 99.9592 22.6374C98.8932 23.1294 97.722 23.3502 96.55 23.28C95.4669 23.3277 94.3856 23.1505 93.3744 22.7596C92.3631 22.3687 91.4438 21.7726 90.6744 21.0088C89.905 20.245 89.3021 19.33 88.9038 18.3217C88.5054 17.3134 88.3203 16.2334 88.36 15.15C88.3286 14.0719 88.5201 12.999 88.9223 11.9983C89.3245 10.9976 89.9288 10.0906 90.6975 9.33414C91.4662 8.57765 92.3827 7.98789 93.3897 7.60175C94.3967 7.21561 95.4726 7.04139 96.55 7.09V7.09Z" fill="#333333"/>
<path d="M113 21.32C112.374 21.9841 111.612 22.5062 110.767 22.8511C109.922 23.1961 109.012 23.356 108.1 23.32C107.408 23.3496 106.717 23.2393 106.069 22.9956C105.42 22.752 104.827 22.38 104.326 21.902C103.825 21.424 103.425 20.8498 103.151 20.2137C102.877 19.5776 102.733 18.8927 102.73 18.2C102.73 14.58 105.64 13.27 108.11 13.27C109.015 13.21 109.922 13.348 110.769 13.6744C111.615 14.0008 112.38 14.5078 113.01 15.16V13C113.01 11.43 111.67 10.41 109.62 10.41C107.938 10.4102 106.322 11.0622 105.111 12.229L103.57 9.51001C105.449 7.90454 107.849 7.04041 110.32 7.08001C113.84 7.08001 117.07 8.49001 117.07 12.94V22.94H113V21.32ZM113 17.32C112.592 16.866 112.087 16.5098 111.523 16.2778C110.959 16.0458 110.349 15.944 109.74 15.98C108.14 15.98 106.83 16.84 106.83 18.32C106.83 19.8 108.14 20.59 109.74 20.59C110.352 20.6211 110.964 20.513 111.528 20.274C112.093 20.035 112.596 19.6713 113 19.21V17.32Z" fill="#333333"/>
<path d="M120.3 19.08V11H117.74V7.47H120.3V3.25H124.4V7.47H127.54V11H124.4V18C124.4 19 124.91 19.7 125.81 19.7C126.318 19.7157 126.815 19.5569 127.22 19.25L128.08 22.32C127.109 23.0549 125.904 23.4105 124.69 23.32C121.83 23.31 120.3 21.84 120.3 19.08Z" fill="#333333"/>
<path d="M135.72 7.08999C140.33 7.08999 143.46 10.55 143.46 15.6V16.5H132C132.145 17.5519 132.686 18.5087 133.514 19.1743C134.341 19.8399 135.391 20.1639 136.45 20.08C137.967 20.0789 139.433 19.5323 140.58 18.54L142.37 21.16C140.579 22.6275 138.314 23.3919 136 23.31C131.3 23.31 127.75 20.14 127.75 15.18C127.719 14.1193 127.903 13.0633 128.291 12.0756C128.679 11.0879 129.263 10.1889 130.007 9.433C130.752 8.67705 131.642 8.07974 132.624 7.67706C133.606 7.27439 134.659 7.07468 135.72 7.08999V7.08999ZM131.91 13.75H139.53C139.51 13.2735 139.394 12.8058 139.191 12.3745C138.987 11.9432 138.7 11.5569 138.345 11.2383C137.99 10.9197 137.575 10.6752 137.124 10.5192C136.673 10.3633 136.196 10.2989 135.72 10.33C134.769 10.3013 133.843 10.6392 133.134 11.2738C132.425 11.9085 131.987 12.7914 131.91 13.74V13.75Z" fill="#333333"/>
</svg>
