<svg xmlns="http://www.w3.org/2000/svg" width="400" height="90" fill="none">
  <g clip-path="url(#a)">
    <path fill="#CCC" fill-rule="evenodd" d="M59.659 15.728c.26.78-.167 1.623-.954 1.881l-.47.154a1.5 1.5 0 0 1-1.895-.946 1.487 1.487 0 0 1 .953-1.881l.471-.155a1.5 1.5 0 0 1 1.895.947m-8 2.624c.26.78-.167 1.622-.954 1.88l-.47.155a1.5 1.5 0 0 1-1.895-.947c-.26-.78.167-1.623.953-1.88l.471-.155a1.5 1.5 0 0 1 1.895.947m-8 2.623c.26.78-.167 1.623-.954 1.88l-.47.155a1.503 1.503 0 0 1-1.895-.947c-.26-.78.167-1.622.954-1.88l.47-.155a1.503 1.503 0 0 1 1.895.947m-8 2.623a1.486 1.486 0 0 1-.954 1.881l-.47.155a1.5 1.5 0 0 1-1.895-.947 1.486 1.486 0 0 1 .954-1.881l.47-.154a1.503 1.503 0 0 1 1.895.946m-8 2.624c.26.78-.167 1.623-.954 1.88l-.47.155a1.5 1.5 0 0 1-1.895-.947c-.26-.78.167-1.623.954-1.88l.47-.155a1.5 1.5 0 0 1 1.895.947m-8 2.623a1.486 1.486 0 0 1-.954 1.881l-.47.154a1.5 1.5 0 0 1-1.895-.946 1.486 1.486 0 0 1 .954-1.881l.47-.155a1.5 1.5 0 0 1 1.895.947m54.914-13.673a1.5 1.5 0 0 1 1.891-.953l.231.075a1.487 1.487 0 0 1 .96 1.877 1.503 1.503 0 0 1-1.892.953l-.23-.074a1.487 1.487 0 0 1-.96-1.878m7.613 2.469a1.5 1.5 0 0 1 1.891-.953l.462.15a1.487 1.487 0 0 1 .96 1.877 1.5 1.5 0 0 1-1.892.953l-.461-.15a1.487 1.487 0 0 1-.96-1.877m7.843 2.543a1.5 1.5 0 0 1 1.892-.953l.461.15a1.487 1.487 0 0 1 .96 1.878 1.5 1.5 0 0 1-1.891.953l-.462-.15a1.487 1.487 0 0 1-.96-1.878m7.844 2.544a1.5 1.5 0 0 1 1.892-.953l.461.15a1.486 1.486 0 0 1 .96 1.877 1.5 1.5 0 0 1-1.891.953l-.462-.15a1.487 1.487 0 0 1-.96-1.877m7.844 2.544a1.5 1.5 0 0 1 1.892-.953l.461.15a1.487 1.487 0 0 1 .96 1.877 1.5 1.5 0 0 1-1.892.953l-.461-.15a1.487 1.487 0 0 1-.96-1.877m7.844 2.543a1.5 1.5 0 0 1 1.891-.953l.462.15a1.487 1.487 0 0 1 .96 1.878 1.503 1.503 0 0 1-1.892.953l-.461-.15a1.486 1.486 0 0 1-.96-1.878m7.843 2.544a1.503 1.503 0 0 1 1.892-.953l.461.15a1.486 1.486 0 0 1 .96 1.877 1.5 1.5 0 0 1-1.891.953l-.462-.15a1.487 1.487 0 0 1-.96-1.877m7.844 2.544a1.5 1.5 0 0 1 1.892-.953l.461.15a1.486 1.486 0 0 1 .96 1.877 1.5 1.5 0 0 1-1.891.953l-.462-.15a1.487 1.487 0 0 1-.96-1.877m7.844 2.543a1.5 1.5 0 0 1 1.892-.953l.23.075a1.486 1.486 0 0 1 .96 1.878 1.5 1.5 0 0 1-1.891.953l-.231-.075a1.486 1.486 0 0 1-.96-1.878M242.863 9.355a1.505 1.505 0 0 1 1.961-.804l.228.094a1.486 1.486 0 0 1 .81 1.947 1.505 1.505 0 0 1-1.961.804l-.228-.094a1.485 1.485 0 0 1-.81-1.947m7.522 3.101a1.505 1.505 0 0 1 1.961-.803l.456.188a1.486 1.486 0 0 1 .81 1.946 1.504 1.504 0 0 1-1.961.804l-.456-.188a1.485 1.485 0 0 1-.81-1.947m-15.475 1.202a1.49 1.49 0 0 1 1.33 1.64l-.027.245a1.497 1.497 0 0 1-1.653 1.32 1.49 1.49 0 0 1-1.33-1.64l.027-.245a1.497 1.497 0 0 1 1.653-1.32m23.225 1.994a1.504 1.504 0 0 1 1.961-.804l.456.188a1.486 1.486 0 0 1 .81 1.946 1.504 1.504 0 0 1-1.961.804l-.456-.188a1.485 1.485 0 0 1-.81-1.946m7.75 3.195a1.504 1.504 0 0 1 1.961-.804l.456.188a1.486 1.486 0 0 1 .81 1.946 1.504 1.504 0 0 1-1.961.804l-.456-.188a1.485 1.485 0 0 1-.81-1.946m7.75 3.195a1.504 1.504 0 0 1 1.961-.804l.456.188a1.486 1.486 0 0 1 .81 1.946 1.505 1.505 0 0 1-1.961.804l-.456-.188a1.485 1.485 0 0 1-.81-1.946m-39.605-.316a1.49 1.49 0 0 1 1.33 1.641l-.053.489a1.497 1.497 0 0 1-1.653 1.32 1.49 1.49 0 0 1-1.33-1.64l.054-.49a1.497 1.497 0 0 1 1.652-1.32m-32.332 3.451a1.49 1.49 0 0 1-1.063 1.822l-.265.07c-.8.212-1.622-.26-1.836-1.055a1.49 1.49 0 0 1 1.063-1.822l.265-.07c.8-.212 1.622.26 1.836 1.055m79.687.06a1.505 1.505 0 0 1 1.961-.804l.456.188a1.486 1.486 0 0 1 .81 1.946 1.505 1.505 0 0 1-1.961.804l-.456-.188a1.485 1.485 0 0 1-.81-1.946m-88.423 2.252a1.487 1.487 0 0 1-1.062 1.823l-.53.14c-.8.212-1.622-.26-1.836-1.055a1.49 1.49 0 0 1 1.063-1.823l.53-.14a1.5 1.5 0 0 1 1.835 1.055m96.173.943a1.505 1.505 0 0 1 1.961-.804l.456.188a1.486 1.486 0 0 1 .81 1.946 1.505 1.505 0 0 1-1.961.804l-.456-.188a1.485 1.485 0 0 1-.81-1.946m-105.173 1.44a1.487 1.487 0 0 1-1.062 1.822l-.53.14c-.8.212-1.622-.26-1.836-1.055a1.49 1.49 0 0 1 1.063-1.822l.53-.14a1.5 1.5 0 0 1 1.835 1.055m49.162.168a1.49 1.49 0 0 1 1.33 1.64l-.053.49a1.5 1.5 0 0 1-1.653 1.32 1.49 1.49 0 0 1-1.33-1.64l.053-.49a1.497 1.497 0 0 1 1.653-1.32m-20.494.281a1.5 1.5 0 0 1 1.822 1.078l.067.259a1.49 1.49 0 0 1-1.086 1.81 1.5 1.5 0 0 1-1.822-1.078l-.067-.26a1.49 1.49 0 0 1 1.086-1.809m84.255 1.306a1.505 1.505 0 0 1 1.961-.804l.456.188a1.486 1.486 0 0 1 .81 1.946 1.505 1.505 0 0 1-1.961.804l-.456-.188a1.485 1.485 0 0 1-.81-1.946m-121.923.627a1.487 1.487 0 0 1-1.062 1.822l-.53.14c-.8.212-1.622-.26-1.836-1.055a1.49 1.49 0 0 1 1.063-1.822l.53-.14a1.5 1.5 0 0 1 1.835 1.055m-9 2.382a1.487 1.487 0 0 1-1.062 1.823l-.53.14c-.8.212-1.622-.26-1.836-1.055a1.49 1.49 0 0 1 1.063-1.822l.53-.14a1.5 1.5 0 0 1 1.835 1.054m138.673.186a1.504 1.504 0 0 1 1.961-.804l.228.094a1.486 1.486 0 0 1 .81 1.946 1.504 1.504 0 0 1-1.961.804l-.228-.094a1.485 1.485 0 0 1-.81-1.946M156.962 37.02a1.487 1.487 0 0 1-1.062 1.822l-.265.07a1.5 1.5 0 0 1-1.836-1.055 1.49 1.49 0 0 1 1.063-1.822l.265-.07a1.5 1.5 0 0 1 1.835 1.055m75.256 1.334a1.49 1.49 0 0 1 1.33 1.64l-.054.49a1.497 1.497 0 0 1-1.652 1.32 1.49 1.49 0 0 1-1.33-1.64l.053-.49a1.497 1.497 0 0 1 1.653-1.32m-17.404.52a1.5 1.5 0 0 1 1.822 1.077l.133.518a1.49 1.49 0 0 1-1.086 1.809 1.5 1.5 0 0 1-1.822-1.078l-.133-.518a1.49 1.49 0 0 1 1.086-1.809Zm16.497 7.794a1.49 1.49 0 0 1 1.33 1.64l-.053.49a1.497 1.497 0 0 1-1.653 1.32 1.49 1.49 0 0 1-1.33-1.641l.054-.49a1.497 1.497 0 0 1 1.652-1.32Zm-14.247 1.015a1.5 1.5 0 0 1 1.822 1.077l.133.518a1.49 1.49 0 0 1-1.086 1.81 1.5 1.5 0 0 1-1.822-1.078l-.133-.518a1.49 1.49 0 0 1 1.086-1.81Zm13.341 7.298a1.49 1.49 0 0 1 1.33 1.64l-.053.49a1.497 1.497 0 0 1-1.653 1.32 1.49 1.49 0 0 1-1.33-1.64l.054-.49a1.497 1.497 0 0 1 1.652-1.32m-11.091 1.512a1.5 1.5 0 0 1 1.822 1.077l.133.518a1.49 1.49 0 0 1-1.086 1.81 1.5 1.5 0 0 1-1.822-1.078l-.133-.518a1.49 1.49 0 0 1 1.086-1.81Zm10.185 6.802a1.49 1.49 0 0 1 1.33 1.64l-.053.49a1.5 1.5 0 0 1-1.653 1.32 1.49 1.49 0 0 1-1.33-1.641l.053-.49a1.497 1.497 0 0 1 1.653-1.32Zm-7.935 2.007a1.5 1.5 0 0 1 1.822 1.078l.133.518a1.49 1.49 0 0 1-1.086 1.81 1.5 1.5 0 0 1-1.822-1.078l-.133-.519a1.49 1.49 0 0 1 1.086-1.809m7.029 6.306a1.49 1.49 0 0 1 1.33 1.64l-.054.49a1.497 1.497 0 0 1-1.652 1.32 1.49 1.49 0 0 1-1.33-1.64l.053-.49a1.497 1.497 0 0 1 1.653-1.32m-4.779 2.504a1.5 1.5 0 0 1 1.822 1.077l.133.519a1.49 1.49 0 0 1-1.086 1.809 1.5 1.5 0 0 1-1.822-1.078l-.133-.518a1.49 1.49 0 0 1 1.086-1.809m3.872 5.81a1.49 1.49 0 0 1 1.33 1.64l-.026.244a1.497 1.497 0 0 1-1.744 1.308c.307.197.543.505.64.885l.066.26a1.49 1.49 0 0 1-1.085 1.809 1.5 1.5 0 0 1-1.823-1.078l-.066-.259a1.49 1.49 0 0 1 1.086-1.81c.209-.052.419-.058.62-.024a1.48 1.48 0 0 1-.677-1.41l.027-.245a1.497 1.497 0 0 1 1.652-1.32M383.47 25.017a1.49 1.49 0 0 1-1.172 1.755l-.244.049a1.5 1.5 0 0 1-1.768-1.164 1.49 1.49 0 0 1 1.173-1.755l.243-.049a1.5 1.5 0 0 1 1.768 1.164m-8.042 1.617a1.49 1.49 0 0 1-1.172 1.755l-.487.098a1.5 1.5 0 0 1-1.768-1.164 1.49 1.49 0 0 1 1.172-1.755l.487-.098a1.5 1.5 0 0 1 1.768 1.164m-8.285 1.666a1.49 1.49 0 0 1-1.173 1.755l-.487.098a1.5 1.5 0 0 1-1.768-1.163 1.49 1.49 0 0 1 1.172-1.755l.488-.098a1.5 1.5 0 0 1 1.768 1.163m-8.286 1.666a1.49 1.49 0 0 1-1.172 1.755l-.488.099a1.5 1.5 0 0 1-1.768-1.164 1.49 1.49 0 0 1 1.173-1.755l.487-.098a1.5 1.5 0 0 1 1.768 1.163m-8.286 1.667a1.49 1.49 0 0 1-1.172 1.755l-.487.098a1.5 1.5 0 0 1-1.768-1.164 1.49 1.49 0 0 1 1.172-1.755l.487-.098a1.5 1.5 0 0 1 1.768 1.164m-8.285 1.666a1.49 1.49 0 0 1-1.173 1.755l-.487.098a1.5 1.5 0 0 1-1.768-1.164 1.49 1.49 0 0 1 1.172-1.755l.488-.098a1.5 1.5 0 0 1 1.768 1.164M334 34.965a1.49 1.49 0 0 1-1.172 1.755l-.488.098a1.5 1.5 0 0 1-1.768-1.163 1.49 1.49 0 0 1 1.172-1.755l.488-.099A1.5 1.5 0 0 1 334 34.965m-8.286 1.666a1.49 1.49 0 0 1-1.172 1.755l-.244.05a1.5 1.5 0 0 1-1.768-1.164 1.49 1.49 0 0 1 1.172-1.755l.244-.05a1.5 1.5 0 0 1 1.768 1.165Z" clip-rule="evenodd"/>
    <path fill="#000" d="M18.819 82.873q3.028 0 3.027 3.339c0 2.281-1.008 3.395-3.027 3.395H3.907c-2.635 0-3.811-1.17-3.811-3.784v-29.66c0-2.004 1.232-3.005 3.811-3.005 2.58 0 3.813 1.001 3.813 3.005v26.71zm21.079.835c6.055 0 10.091-4.507 10.091-12.187s-4.036-12.186-10.09-12.186c-5.999 0-10.035 4.507-10.035 12.186S33.9 83.708 39.898 83.708m0-30.94c10.876 0 17.883 7.234 17.883 18.753s-7.007 18.753-17.883 18.753c-10.819 0-17.882-7.234-17.882-18.753s7.063-18.753 17.882-18.753m39.751 30.94c6.054 0 10.09-4.507 10.09-12.187s-4.036-12.186-10.09-12.186c-5.999 0-10.035 4.507-10.035 12.186s4.036 12.187 10.035 12.187m0-30.94c10.875 0 17.883 7.234 17.883 18.753s-7.008 18.753-17.883 18.753c-10.82 0-17.883-7.234-17.883-18.753s7.064-18.753 17.883-18.753m51.577 35.114c0 1.28-.953 2.003-3.643 2.003-2.524 0-3.757-.501-5.607-2.894L110.54 72.3v14.58c0 2.004-1.233 3.005-3.812 3.005s-3.812-1.002-3.812-3.005V56.163c0-2.004 1.234-3.005 3.812-3.005 2.579 0 3.812 1.001 3.812 3.005v13.244l11.829-13.968c1.401-1.725 2.634-2.282 5.045-2.282 2.635 0 3.532.725 3.532 1.949 0 1.223-1.065 2.504-1.794 3.283l-11.436 12.297 11.997 14.135c.84.946 1.513 2.003 1.513 3.06Zm12.169-1.002c0 2.003-1.233 3.005-3.812 3.005s-3.812-1.002-3.812-3.005V56.163c0-2.003 1.234-3.005 3.812-3.005 2.579 0 3.812 1.002 3.812 3.005zm13.735 0c0 2.003-1.121 3.005-3.475 3.005q-3.532 0-3.532-3.005V57.22c0-2.782 1.682-4.062 4.933-4.062s4.878 1.28 6.055 3.339l13.398 23.15V56.162q0-3.005 3.532-3.005t3.531 3.005v29.66c0 2.727-1.569 4.062-4.652 4.062-2.915 0-4.373-1.113-5.719-3.45L157.13 62.896zm48.552-10.795c-2.017 0-3.027-1.058-3.027-3.284s1.01-3.283 3.027-3.283h8.184c2.635 0 3.812 1.168 3.812 3.784V83.82c0 2.225-.728 3.505-3.195 4.563-2.186.945-5.774 1.613-9.193 1.613-10.427 0-18.388-6.399-18.388-18.53 0-12.076 7.793-18.642 18.107-18.642 3.476 0 6.728.723 9.307 2.225 1.85 1.059 2.914 2.227 2.914 3.506 0 1.614-1.681 3.618-3.364 3.618-.896 0-1.624-.557-2.802-1.225-1.738-.946-3.756-1.447-5.998-1.447-6.167 0-10.315 3.952-10.315 11.798 0 8.013 4.429 12.13 10.819 12.13 1.626 0 3.364-.278 4.82-.722v-6.622zm61.109-19.922V86.88c0 2.003-1.234 3.005-3.757 3.005-2.579 0-3.812-1.002-3.812-3.005V74.415h-14.406V86.88c0 2.003-1.234 3.005-3.813 3.005s-3.812-1.002-3.812-3.005V56.163c0-2.003 1.233-3.005 3.812-3.005s3.813 1.002 3.813 3.005v11.519h14.406v-11.52c0-2.002 1.233-3.004 3.757-3.004 2.578 0 3.812 1.002 3.812 3.005m67.502 23.538c.448-1.113.617-2.393.617-3.895V56.163c0-2.004 1.176-3.005 3.588-3.005 2.465 0 3.643 1.001 3.643 3.005v19.588c0 2.782-.392 5.175-1.289 7.233-2.242 5.287-7.119 7.29-13.174 7.29-6.447 0-10.932-2.225-13.119-7.29-.84-1.947-1.288-4.34-1.288-7.178V56.163c0-2.004 1.233-3.005 3.812-3.005s3.812 1.001 3.812 3.005v19.643c0 1.502.168 2.782.616 3.895 1.066 2.727 3.252 4.007 6.391 4.007 3.533 0 5.381-1.503 6.391-4.007m13.234-16.415c0-6.288 5.156-10.463 12.501-10.463 3.195 0 6.671.891 9.026 2.394 1.457.946 2.074 1.725 2.074 2.893 0 1.67-1.457 3.84-3.197 3.84-.616 0-1.176-.334-2.353-.946-1.851-.946-3.533-1.614-5.605-1.614-3.14 0-4.934 1.558-4.934 3.506 0 5.62 16.873 4.563 16.873 16.416 0 6.844-5.549 10.906-13.005 10.906-3.588 0-6.783-.834-9.643-2.782-1.401-.946-2.129-1.891-2.129-3.06 0-1.725 1.625-3.84 3.25-3.84.785 0 1.402.39 2.524 1.058 1.794 1.057 3.531 2.058 6.053 2.058 3.197 0 5.439-1.558 5.439-3.95 0-6.4-16.874-5.065-16.874-16.416m46.81 4.451c2.019 0 3.028 1.058 3.028 3.283 0 2.226-1.009 3.284-3.028 3.284h-10.146v8.736h12.781c2.018 0 3.027 1.058 3.027 3.284s-1.009 3.283-3.027 3.283H380.77c-2.634 0-3.811-1.17-3.811-3.784V57.22c0-2.616 1.177-3.783 3.811-3.783h15.865c2.019 0 3.028 1.056 3.028 3.282s-1.009 3.283-3.028 3.283h-12.444v7.735z"/>
    <path fill="#EE5D89" fill-rule="evenodd" d="M14.417 32.832c0-3.951-3.228-7.155-7.209-7.155S0 28.88 0 32.832s3.227 7.156 7.208 7.156 7.209-3.204 7.209-7.156" clip-rule="evenodd"/>
    <path fill="#2184F7" d="M146.98 34.541c-1.949 0-3.534 1.573-3.534 3.507s1.585 3.507 3.534 3.507 3.532-1.573 3.532-3.507-1.584-3.507-3.532-3.507m0 9.4c-3.274 0-5.937-2.644-5.937-5.893s2.663-5.892 5.937-5.892c3.272 0 5.936 2.643 5.936 5.892s-2.664 5.893-5.936 5.893"/>
    <path fill="#FDDF4C" d="M235.702 2.681c-1.949 0-3.534 1.573-3.534 3.507s1.585 3.508 3.534 3.508 3.533-1.574 3.533-3.508-1.585-3.507-3.533-3.507m0 9.4c-3.273 0-5.936-2.644-5.936-5.893s2.663-5.892 5.936-5.892c3.272 0 5.935 2.643 5.935 5.892s-2.663 5.893-5.935 5.893M67.493 9.553c-1.948 0-3.534 1.573-3.534 3.507s1.586 3.508 3.534 3.508 3.533-1.574 3.533-3.508-1.585-3.507-3.533-3.507m0 9.4c-3.274 0-5.936-2.644-5.936-5.893s2.662-5.892 5.936-5.892c3.272 0 5.936 2.643 5.936 5.892s-2.664 5.893-5.936 5.893"/>
    <path fill="#EE5D89" d="M315.345 34.025c-1.948 0-3.533 1.573-3.533 3.507s1.585 3.508 3.533 3.508c1.949 0 3.534-1.574 3.534-3.508s-1.585-3.507-3.534-3.507m0 9.4c-3.273 0-5.935-2.644-5.935-5.893s2.662-5.892 5.935-5.892 5.936 2.643 5.936 5.892-2.663 5.893-5.936 5.893"/>
    <path fill="#CC6FDB" fill-rule="evenodd" d="M232.578 84.14c0-3.075-2.51-5.566-5.606-5.566s-5.607 2.491-5.607 5.565 2.51 5.565 5.607 5.565c3.096 0 5.606-2.49 5.606-5.565Z" clip-rule="evenodd"/>
    <path fill="#67DC39" d="M210.01 19.523c-1.948 0-3.534 1.573-3.534 3.507s1.586 3.508 3.534 3.508 3.534-1.574 3.534-3.508-1.586-3.507-3.534-3.507m0 9.4c-3.273 0-5.936-2.644-5.936-5.893s2.663-5.892 5.936-5.892 5.936 2.643 5.936 5.892-2.663 5.893-5.936 5.893"/>
    <path fill="#67DC39" fill-rule="evenodd" d="M399.999 23.03c0-3.952-3.228-7.155-7.209-7.155s-7.208 3.203-7.208 7.156c0 3.951 3.227 7.155 7.208 7.155s7.209-3.204 7.209-7.155Z" clip-rule="evenodd"/>
    <path fill="#FDDF4C" d="M308.668 71.47c0 5.119-2.099 9.751-5.459 13.11l-5.787-5.744a10.3 10.3 0 0 0 3.079-7.365c0-2.872-1.166-5.49-3.079-7.366l5.787-5.745c3.36 3.36 5.459 7.992 5.459 13.11"/>
    <path fill="#67DC39" d="m303.208 58.36-5.786 5.746a10.44 10.44 0 0 0-7.421-3.058 10.44 10.44 0 0 0-7.419 3.058l-5.787-5.745a18.77 18.77 0 0 1 13.206-5.42 18.77 18.77 0 0 1 13.207 5.42Z"/>
    <path fill="#2184F7" d="M279.503 71.47c0 2.873 1.166 5.49 3.08 7.366l-5.787 5.744c-3.36-3.359-5.46-7.991-5.46-13.11s2.1-9.75 5.46-13.11l5.787 5.745a10.28 10.28 0 0 0-3.08 7.366Z"/>
    <path fill="#EE5D89" d="M303.208 84.58A18.77 18.77 0 0 1 290.001 90a18.77 18.77 0 0 1-13.206-5.42l5.787-5.744a10.44 10.44 0 0 0 7.419 3.057 10.44 10.44 0 0 0 7.421-3.057z"/>
  </g>
  <defs>
    <clipPath id="a">
      <path fill="#fff" d="M0 0h400v90H0z"/>
    </clipPath>
  </defs>
</svg>
