<svg width="400" height="90" viewBox="0 0 400 90" fill="none" xmlns="http://www.w3.org/2000/svg">
	<g clip-path="url(#clip0_640_76)">
		<path fill-rule="evenodd" clip-rule="evenodd"
		      d="M59.6589 15.7281C59.9188 16.5089 59.4918 17.3511 58.7052 17.609L58.2346 17.7633C57.448 18.0213 56.5996 17.5974 56.3398 16.8166C56.0799 16.0357 56.5069 15.1936 57.2935 14.9357L57.7641 14.7814C58.5507 14.5234 59.3991 14.9473 59.6589 15.7281ZM51.659 18.3515C51.9188 19.1324 51.4918 19.9745 50.7052 20.2324L50.2346 20.3867C49.448 20.6447 48.5996 20.2208 48.3398 19.44C48.0799 18.6592 48.5069 17.8171 49.2935 17.5591L49.7641 17.4048C50.5508 17.1468 51.3991 17.5707 51.659 18.3515ZM43.659 20.975C43.9188 21.7558 43.4918 22.5979 42.7052 22.8559L42.2346 23.0102C41.448 23.2681 40.5996 22.8442 40.3398 22.0634C40.0799 21.2826 40.5069 20.4405 41.2936 20.1825L41.7641 20.0282C42.5508 19.7703 43.3991 20.1941 43.659 20.975ZM35.659 23.5984C35.9188 24.3792 35.4918 25.2213 34.7052 25.4793L34.2346 25.6336C33.448 25.8915 32.5997 25.4677 32.3398 24.6868C32.0799 23.906 32.5069 23.0639 33.2936 22.806L33.7641 22.6516C34.5508 22.3937 35.3991 22.8176 35.659 23.5984ZM27.659 26.2218C27.9188 27.0026 27.4918 27.8447 26.7052 28.1027L26.2346 28.257C25.448 28.515 24.5996 28.0911 24.3398 27.3103C24.0799 26.5294 24.5069 25.6873 25.2936 25.4294L25.7641 25.2751C26.5508 25.0171 27.3991 25.441 27.659 26.2218ZM19.659 28.8452C19.9188 29.6261 19.4918 30.4682 18.7052 30.7261L18.2346 30.8804C17.448 31.1384 16.5997 30.7145 16.3398 29.9337C16.0799 29.1529 16.5069 28.3108 17.2936 28.0528L17.7641 27.8985C18.5508 27.6405 19.3991 28.0644 19.659 28.8452Z"
		      fill="#CCCCCC"/>
		<path fill-rule="evenodd" clip-rule="evenodd"
		      d="M74.5726 15.1718C74.8299 14.3901 75.6768 13.9635 76.4643 14.2189L76.695 14.2937C77.4824 14.549 77.9123 15.3897 77.655 16.1714C77.3977 16.9531 76.5508 17.3797 75.7633 17.1244L75.5326 17.0496C74.7452 16.7942 74.3154 15.9535 74.5726 15.1718ZM82.1857 17.6407C82.4429 16.859 83.2898 16.4323 84.0773 16.6877L84.5387 16.8373C85.3262 17.0927 85.756 17.9334 85.4987 18.7151C85.2415 19.4967 84.3946 19.9234 83.6071 19.668L83.1457 19.5184C82.3582 19.263 81.9284 18.4223 82.1857 17.6407ZM90.0294 20.1843C90.2867 19.4026 91.1336 18.976 91.9211 19.2314L92.3825 19.381C93.1699 19.6364 93.5998 20.477 93.3425 21.2587C93.0852 22.0404 92.2383 22.4671 91.4508 22.2117L90.9894 22.0621C90.202 21.8067 89.7722 20.966 90.0294 20.1843ZM97.8732 22.728C98.1304 21.9463 98.9773 21.5196 99.7648 21.775L100.226 21.9246C101.014 22.18 101.444 23.0207 101.186 23.8024C100.929 24.5841 100.082 25.0107 99.2946 24.7554L98.8332 24.6057C98.0457 24.3504 97.6159 23.5097 97.8732 22.728ZM105.717 25.2716C105.974 24.49 106.821 24.0633 107.609 24.3187L108.07 24.4683C108.857 24.7237 109.287 25.5644 109.03 26.346C108.773 27.1277 107.926 27.5544 107.138 27.299L106.677 27.1494C105.889 26.894 105.46 26.0533 105.717 25.2716ZM113.561 27.8153C113.818 27.0336 114.665 26.607 115.452 26.8623L115.914 27.012C116.701 27.2673 117.131 28.108 116.874 28.8897C116.616 29.6714 115.77 30.098 114.982 29.8427L114.521 29.693C113.733 29.4377 113.303 28.597 113.561 27.8153ZM121.404 30.359C121.662 29.5773 122.509 29.1506 123.296 29.406L123.757 29.5556C124.545 29.811 124.975 30.6517 124.717 31.4334C124.46 32.215 123.613 32.6417 122.826 32.3863L122.364 32.2367C121.577 31.9813 121.147 31.1406 121.404 30.359ZM129.248 32.9026C129.505 32.1209 130.352 31.6943 131.14 31.9496L131.601 32.0993C132.389 32.3546 132.819 33.1953 132.561 33.977C132.304 34.7587 131.457 35.1854 130.67 34.93L130.208 34.7804C129.421 34.525 128.991 33.6843 129.248 32.9026ZM137.092 35.4463C137.349 34.6646 138.196 34.2379 138.984 34.4933L139.214 34.5681C140.002 34.8235 140.432 35.6642 140.174 36.4459C139.917 37.2275 139.07 37.6542 138.283 37.3988L138.052 37.324C137.264 37.0686 136.835 36.228 137.092 35.4463Z"
		      fill="#CCCCCC"/>
		<path fill-rule="evenodd" clip-rule="evenodd"
		      d="M242.863 9.35539C243.181 8.59595 244.059 8.23599 244.824 8.5514L245.052 8.64538C245.817 8.96079 246.179 9.83213 245.862 10.5916C245.544 11.351 244.666 11.711 243.901 11.3956L243.673 11.3016C242.908 10.9862 242.545 10.1148 242.863 9.35539ZM250.385 12.4565C250.703 11.6971 251.581 11.3371 252.346 11.6525L252.802 11.8405C253.567 12.1559 253.929 13.0272 253.612 13.7867C253.294 14.5461 252.416 14.9061 251.651 14.5906L251.195 14.4027C250.43 14.0873 250.067 13.2159 250.385 12.4565ZM234.91 13.6576C235.733 13.746 236.329 14.4805 236.24 15.2981L236.213 15.5426C236.124 16.3602 235.384 16.9512 234.56 16.8627C233.737 16.7743 233.141 16.0398 233.23 15.2222L233.257 14.9777C233.346 14.1601 234.086 13.5691 234.91 13.6576ZM258.135 15.6516C258.453 14.8921 259.331 14.5322 260.096 14.8476L260.552 15.0355C261.317 15.351 261.679 16.2223 261.362 16.9817C261.044 17.7412 260.166 18.1011 259.401 17.7857L258.945 17.5978C258.18 17.2824 257.817 16.411 258.135 15.6516ZM265.885 18.8467C266.203 18.0872 267.081 17.7273 267.846 18.0427L268.302 18.2306C269.067 18.546 269.429 19.4174 269.112 20.1768C268.794 20.9363 267.916 21.2962 267.151 20.9808L266.695 20.7929C265.93 20.4774 265.567 19.6061 265.885 18.8467ZM273.635 22.0417C273.953 21.2823 274.831 20.9223 275.596 21.2378L276.052 21.4257C276.817 21.7411 277.179 22.6125 276.862 23.3719C276.544 24.1313 275.666 24.4913 274.901 24.1759L274.445 23.9879C273.68 23.6725 273.317 22.8012 273.635 22.0417ZM234.03 21.7265C234.854 21.8149 235.449 22.5494 235.36 23.367L235.307 23.856C235.218 24.6736 234.478 25.2646 233.654 25.1762C232.831 25.0877 232.235 24.3532 232.324 23.5356L232.378 23.0466C232.467 22.229 233.207 21.638 234.03 21.7265ZM201.698 25.177C201.911 25.9716 201.435 26.7875 200.635 26.9994L200.37 27.0694C199.57 27.2813 198.748 26.809 198.534 26.0144C198.321 25.2198 198.797 24.4039 199.597 24.1921L199.862 24.122C200.662 23.9101 201.484 24.3825 201.698 25.177ZM281.385 25.2368C281.703 24.4774 282.581 24.1174 283.346 24.4328L283.802 24.6208C284.567 24.9362 284.929 25.8075 284.612 26.567C284.294 27.3264 283.416 27.6864 282.651 27.371L282.195 27.183C281.43 26.8676 281.067 25.9963 281.385 25.2368ZM192.962 27.4893C193.176 28.2839 192.7 29.0998 191.9 29.3117L191.37 29.4518C190.57 29.6637 189.748 29.1913 189.534 28.3968C189.321 27.6022 189.797 26.7863 190.597 26.5744L191.127 26.4343C191.927 26.2224 192.749 26.6947 192.962 27.4893ZM289.135 28.4319C289.453 27.6725 290.331 27.3125 291.096 27.6279L291.552 27.8159C292.317 28.1313 292.679 29.0026 292.362 29.7621C292.044 30.5215 291.166 30.8815 290.401 30.5661L289.945 30.3781C289.18 30.0627 288.817 29.1914 289.135 28.4319ZM183.962 29.8717C184.176 30.6662 183.7 31.4821 182.9 31.694L182.37 31.8342C181.57 32.046 180.748 31.5737 180.534 30.7791C180.321 29.9845 180.797 29.1687 181.597 28.9568L182.127 28.8166C182.927 28.6047 183.749 29.0771 183.962 29.8717ZM233.124 30.0399C233.948 30.1284 234.543 30.8628 234.454 31.6804L234.401 32.1694C234.311 32.987 233.572 33.578 232.748 33.4896C231.924 33.4011 231.329 32.6666 231.418 31.8491L231.471 31.36C231.56 30.5425 232.3 29.9514 233.124 30.0399ZM212.63 30.3214C213.433 30.1193 214.249 30.6017 214.452 31.3988L214.519 31.6579C214.722 32.4551 214.236 33.2651 213.433 33.4672C212.63 33.6692 211.814 33.1869 211.611 32.3898L211.544 32.1306C211.341 31.3335 211.827 30.5235 212.63 30.3214ZM296.885 31.627C297.203 30.8676 298.081 30.5076 298.846 30.823L299.302 31.011C300.067 31.3264 300.429 32.1977 300.112 32.9572C299.794 33.7166 298.916 34.0765 298.151 33.7611L297.695 33.5732C296.93 33.2578 296.567 32.3864 296.885 31.627ZM174.962 32.254C175.176 33.0486 174.7 33.8645 173.9 34.0764L173.37 34.2165C172.57 34.4284 171.748 33.956 171.534 33.1615C171.321 32.3669 171.797 31.551 172.597 31.3391L173.127 31.199C173.927 30.9871 174.749 31.4595 174.962 32.254ZM165.962 34.6364C166.176 35.4309 165.7 36.2468 164.9 36.4587L164.37 36.5989C163.57 36.8107 162.748 36.3384 162.534 35.5438C162.321 34.7492 162.797 33.9334 163.597 33.7215L164.127 33.5813C164.927 33.3694 165.749 33.8418 165.962 34.6364ZM304.635 34.8221C304.953 34.0626 305.831 33.7027 306.596 34.0181L306.824 34.1121C307.589 34.4275 307.951 35.2988 307.634 36.0583C307.316 36.8177 306.438 37.1777 305.673 36.8622L305.445 36.7683C304.68 36.4529 304.317 35.5815 304.635 34.8221ZM156.962 37.0187C157.176 37.8133 156.7 38.6292 155.9 38.8411L155.635 38.9111C154.834 39.123 154.013 38.6507 153.799 37.8561C153.586 37.0615 154.061 36.2456 154.862 36.0338L155.127 35.9637C155.927 35.7518 156.749 36.2242 156.962 37.0187ZM232.218 38.3533C233.041 38.4418 233.637 39.1763 233.548 39.9938L233.494 40.4828C233.405 41.3004 232.665 41.8915 231.842 41.803C231.018 41.7145 230.423 40.98 230.512 40.1625L230.565 39.6735C230.654 38.8559 231.394 38.2648 232.218 38.3533ZM214.814 38.8721C215.617 38.67 216.433 39.1523 216.636 39.9495L216.769 40.4677C216.972 41.2648 216.486 42.0748 215.683 42.2769C214.88 42.479 214.064 41.9966 213.861 41.1995L213.728 40.6813C213.525 39.8842 214.011 39.0741 214.814 38.8721ZM231.311 46.6667C232.135 46.7552 232.73 47.4897 232.641 48.3072L232.588 48.7963C232.499 49.6138 231.759 50.2049 230.935 50.1164C230.112 50.0279 229.516 49.2935 229.605 48.4759L229.659 47.9869C229.748 47.1693 230.488 46.5783 231.311 46.6667ZM217.064 47.6818C217.867 47.4797 218.683 47.9621 218.886 48.7592L219.019 49.2774C219.222 50.0745 218.736 50.8845 217.933 51.0866C217.13 51.2887 216.314 50.8064 216.111 50.0092L215.978 49.491C215.775 48.6939 216.261 47.8839 217.064 47.6818ZM230.405 54.9801C231.229 55.0686 231.824 55.8031 231.735 56.6207L231.682 57.1097C231.593 57.9273 230.853 58.5183 230.029 58.4298C229.206 58.3414 228.61 57.6069 228.699 56.7893L228.753 56.3003C228.842 55.4827 229.582 54.8917 230.405 54.9801ZM219.314 56.4915C220.117 56.2895 220.933 56.7718 221.136 57.5689L221.269 58.0872C221.472 58.8843 220.986 59.6943 220.183 59.8964C219.38 60.0985 218.564 59.6161 218.361 58.819L218.228 58.3008C218.025 57.5036 218.511 56.6936 219.314 56.4915ZM229.499 63.2936C230.323 63.382 230.918 64.1165 230.829 64.9341L230.776 65.4231C230.686 66.2407 229.947 66.8317 229.123 66.7433C228.299 66.6548 227.704 65.9203 227.793 65.1027L227.846 64.6137C227.935 63.7961 228.675 63.2051 229.499 63.2936ZM221.564 65.3013C222.367 65.0992 223.183 65.5816 223.386 66.3787L223.519 66.8969C223.722 67.694 223.236 68.504 222.433 68.7061C221.63 68.9082 220.814 68.4258 220.611 67.6287L220.478 67.1105C220.275 66.3134 220.761 65.5034 221.564 65.3013ZM228.593 71.607C229.416 71.6955 230.012 72.4299 229.923 73.2475L229.869 73.7365C229.78 74.5541 229.04 75.1451 228.217 75.0567C227.393 74.9682 226.798 74.2337 226.887 73.4162L226.94 72.9271C227.029 72.1096 227.769 71.5185 228.593 71.607ZM223.814 74.111C224.617 73.9089 225.433 74.3913 225.636 75.1884L225.769 75.7066C225.972 76.5038 225.486 77.3138 224.683 77.5159C223.88 77.7179 223.064 77.2356 222.861 76.4385L222.728 75.9202C222.525 75.1231 223.011 74.3131 223.814 74.111ZM227.686 79.9204C228.51 80.0089 229.105 80.7434 229.016 81.5609L228.99 81.8054C228.901 82.623 228.161 83.214 227.337 83.1256C227.306 83.1223 227.276 83.118 227.246 83.1129C227.553 83.3098 227.789 83.6183 227.886 83.9982L227.952 84.2573C228.156 85.0544 227.67 85.8644 226.867 86.0665C226.064 86.2686 225.248 85.7862 225.044 84.9891L224.978 84.73C224.775 83.9329 225.261 83.1228 226.064 82.9208C226.273 82.868 226.483 82.8619 226.684 82.8958C226.223 82.5998 225.944 82.0632 226.007 81.4851L226.034 81.2406C226.123 80.423 226.863 79.8319 227.686 79.9204Z"
		      fill="#CCCCCC"/>
		<path fill-rule="evenodd" clip-rule="evenodd"
		      d="M383.47 25.0169C383.635 25.8228 383.11 26.6086 382.298 26.7718L382.054 26.8208C381.242 26.9841 380.451 26.4631 380.286 25.6571C380.122 24.8512 380.647 24.0655 381.459 23.9022L381.702 23.8532C382.514 23.6899 383.306 24.2109 383.47 25.0169ZM375.428 26.6341C375.593 27.44 375.068 28.2258 374.256 28.3891L373.769 28.4871C372.957 28.6503 372.165 28.1293 372.001 27.3234C371.836 26.5174 372.361 25.7317 373.173 25.5684L373.66 25.4704C374.472 25.3071 375.264 25.8281 375.428 26.6341ZM367.143 28.3003C367.307 29.1063 366.782 29.892 365.97 30.0553L365.483 30.1533C364.671 30.3166 363.88 29.7956 363.715 28.9896C363.551 28.1836 364.075 27.3979 364.887 27.2346L365.375 27.1366C366.187 26.9734 366.978 27.4944 367.143 28.3003ZM358.857 29.9665C359.021 30.7725 358.497 31.5582 357.685 31.7215L357.197 31.8195C356.385 31.9828 355.594 31.4618 355.429 30.6558C355.265 29.8499 355.79 29.0641 356.602 28.9009L357.089 28.8029C357.901 28.6396 358.692 29.1606 358.857 29.9665ZM350.571 31.6328C350.736 32.4387 350.211 33.2245 349.399 33.3877L348.912 33.4858C348.1 33.649 347.308 33.128 347.144 32.3221C346.979 31.5161 347.504 30.7304 348.316 30.5671L348.803 30.4691C349.615 30.3058 350.407 30.8268 350.571 31.6328ZM342.286 33.299C342.45 34.105 341.925 34.8907 341.113 35.054L340.626 35.152C339.814 35.3153 339.022 34.7943 338.858 33.9883C338.693 33.1823 339.218 32.3966 340.03 32.2333L340.518 32.1353C341.33 31.972 342.121 32.493 342.286 33.299ZM334 34.9652C334.164 35.7712 333.639 36.5569 332.828 36.7202L332.34 36.8182C331.528 36.9815 330.737 36.4605 330.572 35.6545C330.408 34.8486 330.933 34.0628 331.744 33.8996L332.232 33.8015C333.044 33.6383 333.835 34.1593 334 34.9652ZM325.714 36.6315C325.879 37.4374 325.354 38.2231 324.542 38.3864L324.298 38.4354C323.486 38.5987 322.695 38.0777 322.53 37.2717C322.366 36.4658 322.891 35.6801 323.702 35.5168L323.946 35.4678C324.758 35.3045 325.55 35.8255 325.714 36.6315Z"
		      fill="#CCCCCC"/>
		<path
			d="M18.819 82.8731C20.8377 82.8731 21.8464 83.9862 21.8464 86.2117C21.8464 88.4935 20.8377 89.6066 18.819 89.6066H3.90704C1.27237 89.6066 0.0957031 88.4379 0.0957031 85.8226V56.163C0.0957031 54.1591 1.32837 53.1579 3.90704 53.1579C6.48637 53.1579 7.7197 54.1591 7.7197 56.163V82.8731H18.819Z"
			fill="black"/>
		<path
			d="M39.8983 83.708C45.953 83.708 49.989 79.2007 49.989 71.521C49.989 63.8418 45.953 59.3346 39.8983 59.3346C33.9003 59.3346 29.8636 63.8418 29.8636 71.521C29.8636 79.2007 33.9003 83.708 39.8983 83.708ZM39.8983 52.7679C50.7736 52.7679 57.781 60.0023 57.781 71.521C57.781 83.0396 50.7736 90.274 39.8983 90.274C29.079 90.274 22.0156 83.0396 22.0156 71.521C22.0156 60.0023 29.079 52.7679 39.8983 52.7679Z"
			fill="black"/>
		<path
			d="M79.649 83.708C85.703 83.708 89.739 79.2007 89.739 71.521C89.739 63.8418 85.703 59.3346 79.649 59.3346C73.6503 59.3346 69.6143 63.8418 69.6143 71.521C69.6143 79.2007 73.6503 83.708 79.649 83.708ZM79.649 52.7679C90.5243 52.7679 97.5316 60.0023 97.5316 71.521C97.5316 83.0396 90.5243 90.274 79.649 90.274C68.8296 90.274 61.7656 83.0396 61.7656 71.521C61.7656 60.0023 68.8296 52.7679 79.649 52.7679Z"
			fill="black"/>
		<path
			d="M131.226 87.8816C131.226 89.1615 130.273 89.8848 127.583 89.8848C125.059 89.8848 123.826 89.3838 121.976 86.9909L110.54 72.3004V86.8797C110.54 88.8835 109.307 89.8848 106.728 89.8848C104.15 89.8848 102.916 88.8835 102.916 86.8797V56.1626C102.916 54.1594 104.15 53.1575 106.728 53.1575C109.307 53.1575 110.54 54.1594 110.54 56.1626V69.4071L122.369 55.4393C123.77 53.714 125.003 53.1575 127.414 53.1575C130.049 53.1575 130.946 53.8815 130.946 55.1057C130.946 56.3293 129.881 57.6098 129.152 58.3887L117.716 70.6863L129.713 84.8209C130.553 85.7673 131.226 86.8241 131.226 87.8816Z"
			fill="black"/>
		<path
			d="M143.395 86.8799C143.395 88.8831 142.162 89.885 139.583 89.885C137.005 89.885 135.771 88.8831 135.771 86.8799V56.1628C135.771 54.1596 137.005 53.1577 139.583 53.1577C142.162 53.1577 143.395 54.1596 143.395 56.1628V86.8799Z"
			fill="black"/>
		<path
			d="M157.13 86.8799C157.13 88.8831 156.009 89.885 153.655 89.885C151.3 89.885 150.123 88.8831 150.123 86.8799V57.2203C150.123 54.4382 151.805 53.1577 155.056 53.1577C158.308 53.1577 159.934 54.4382 161.111 56.497L174.509 79.6462V56.1628C174.509 54.1596 175.686 53.1577 178.041 53.1577C180.395 53.1577 181.572 54.1596 181.572 56.1628V85.8224C181.572 88.5496 180.003 89.885 176.92 89.885C174.005 89.885 172.547 88.7719 171.201 86.4346L157.13 62.8963V86.8799Z"
			fill="black"/>
		<path
			d="M205.682 76.0849C203.665 76.0849 202.655 75.0267 202.655 72.8012C202.655 70.575 203.665 69.5182 205.682 69.5182H213.866C216.501 69.5182 217.678 70.6862 217.678 73.3022V83.8196C217.678 86.0451 216.95 87.325 214.483 88.3825C212.297 89.3281 208.709 89.9958 205.29 89.9958C194.863 89.9958 186.902 83.5972 186.902 71.4658C186.902 59.3899 194.695 52.8239 205.009 52.8239C208.485 52.8239 211.737 53.5472 214.316 55.0494C216.166 56.1075 217.23 57.2756 217.23 58.5554C217.23 60.1695 215.549 62.1726 213.866 62.1726C212.97 62.1726 212.242 61.6161 211.064 60.9484C209.326 60.002 207.308 59.5011 205.066 59.5011C198.899 59.5011 194.751 63.4525 194.751 71.299C194.751 79.3123 199.18 83.4298 205.57 83.4298C207.196 83.4298 208.934 83.1512 210.39 82.7072V76.0849H205.682Z"
			fill="black"/>
		<path
			d="M266.791 56.1628V86.8799C266.791 88.8831 265.557 89.885 263.034 89.885C260.455 89.885 259.222 88.8831 259.222 86.8799V74.4149H244.816V86.8799C244.816 88.8831 243.582 89.885 241.003 89.885C238.424 89.885 237.191 88.8831 237.191 86.8799V56.1628C237.191 54.1596 238.424 53.1577 241.003 53.1577C243.582 53.1577 244.816 54.1596 244.816 56.1628V67.6815H259.222V56.1628C259.222 54.1596 260.455 53.1577 262.979 53.1577C265.557 53.1577 266.791 54.1596 266.791 56.1628Z"
			fill="black"/>
		<path
			d="M334.293 79.7013C334.741 78.5882 334.91 77.3083 334.91 75.8061V56.163C334.91 54.1591 336.086 53.1579 338.498 53.1579C340.963 53.1579 342.141 54.1591 342.141 56.163V75.7505C342.141 78.5326 341.749 80.9262 340.852 82.9843C338.61 88.2711 333.733 90.2743 327.678 90.2743C321.231 90.2743 316.746 88.0488 314.559 82.9843C313.719 81.0374 313.271 78.6438 313.271 75.8061V56.163C313.271 54.1591 314.504 53.1579 317.083 53.1579C319.662 53.1579 320.895 54.1591 320.895 56.163V75.8061C320.895 77.3083 321.063 78.5882 321.511 79.7013C322.577 82.4284 324.763 83.7083 327.902 83.7083C331.435 83.7083 333.283 82.2054 334.293 79.7013Z"
			fill="black"/>
		<path
			d="M347.527 63.2858C347.527 56.9977 352.683 52.8233 360.028 52.8233C363.223 52.8233 366.699 53.714 369.054 55.2169C370.511 56.1625 371.128 56.9421 371.128 58.1101C371.128 59.7797 369.671 61.9497 367.931 61.9497C367.315 61.9497 366.755 61.6161 365.578 61.004C363.727 60.0583 362.045 59.39 359.973 59.39C356.833 59.39 355.039 60.9484 355.039 62.896C355.039 68.5163 371.912 67.4588 371.912 79.3124C371.912 86.1563 366.363 90.2183 358.907 90.2183C355.319 90.2183 352.124 89.3838 349.264 87.4362C347.863 86.4899 347.135 85.5449 347.135 84.3755C347.135 82.651 348.76 80.536 350.385 80.536C351.17 80.536 351.787 80.9258 352.909 81.5935C354.703 82.651 356.44 83.6522 358.962 83.6522C362.159 83.6522 364.401 82.0944 364.401 79.7015C364.401 73.3022 347.527 74.637 347.527 63.2858Z"
			fill="black"/>
		<path
			d="M394.337 67.7372C396.356 67.7372 397.365 68.7947 397.365 71.0202C397.365 73.2464 396.356 74.3039 394.337 74.3039H384.191V83.0399H396.972C398.99 83.0399 399.999 84.098 399.999 86.3236C399.999 88.5497 398.99 89.6066 396.972 89.6066H380.77C378.136 89.6066 376.959 88.4379 376.959 85.8226V57.2198C376.959 54.6038 378.136 53.4365 380.77 53.4365H396.635C398.654 53.4365 399.663 54.4927 399.663 56.7195C399.663 58.945 398.654 60.0025 396.635 60.0025H384.191V67.7372H394.337Z"
			fill="black"/>
		<path fill-rule="evenodd" clip-rule="evenodd"
		      d="M14.4167 32.8323C14.4167 28.8809 11.1893 25.6767 7.208 25.6767C3.22733 25.6767 0 28.8809 0 32.8323C0 36.7844 3.22733 39.988 7.208 39.988C11.1893 39.988 14.4167 36.7844 14.4167 32.8323Z"
		      fill="#EE5D89"/>
		<path
			d="M146.98 34.541C145.031 34.541 143.446 36.114 143.446 38.0484C143.446 39.9821 145.031 41.5551 146.98 41.5551C148.928 41.5551 150.512 39.9821 150.512 38.0484C150.512 36.114 148.928 34.541 146.98 34.541ZM146.98 43.9407C143.706 43.9407 141.043 41.297 141.043 38.0484C141.043 34.7991 143.706 32.156 146.98 32.156C150.252 32.156 152.916 34.7991 152.916 38.0484C152.916 41.297 150.252 43.9407 146.98 43.9407Z"
			fill="#2184F7"/>
		<path
			d="M235.702 2.68098C233.753 2.68098 232.168 4.254 232.168 6.18834C232.168 8.12201 233.753 9.69569 235.702 9.69569C237.65 9.69569 239.235 8.12201 239.235 6.18834C239.235 4.254 237.65 2.68098 235.702 2.68098ZM235.702 12.0807C232.429 12.0807 229.766 9.43694 229.766 6.18834C229.766 2.93907 232.429 0.295983 235.702 0.295983C238.974 0.295983 241.637 2.93907 241.637 6.18834C241.637 9.43694 238.974 12.0807 235.702 12.0807Z"
			fill="#FDDF4C"/>
		<path
			d="M67.4926 9.55293C65.5446 9.55293 63.9593 11.1259 63.9593 13.0603C63.9593 14.994 65.5446 16.5676 67.4926 16.5676C69.4406 16.5676 71.026 14.994 71.026 13.0603C71.026 11.1259 69.4406 9.55293 67.4926 9.55293ZM67.4926 18.9526C64.2193 18.9526 61.5566 16.3089 61.5566 13.0603C61.5566 9.81102 64.2193 7.16793 67.4926 7.16793C70.7653 7.16793 73.4286 9.81102 73.4286 13.0603C73.4286 16.3089 70.7653 18.9526 67.4926 18.9526Z"
			fill="#FDDF4C"/>
		<path
			d="M315.345 34.025C313.397 34.025 311.812 35.598 311.812 37.5323C311.812 39.466 313.397 41.0397 315.345 41.0397C317.294 41.0397 318.879 39.466 318.879 37.5323C318.879 35.598 317.294 34.025 315.345 34.025ZM315.345 43.4247C312.072 43.4247 309.41 40.7809 309.41 37.5323C309.41 34.2831 312.072 31.64 315.345 31.64C318.618 31.64 321.281 34.2831 321.281 37.5323C321.281 40.7809 318.618 43.4247 315.345 43.4247Z"
			fill="#EE5D89"/>
		<path fill-rule="evenodd" clip-rule="evenodd"
		      d="M232.578 84.1392C232.578 81.0653 230.068 78.5738 226.972 78.5738C223.875 78.5738 221.365 81.0653 221.365 84.1392C221.365 87.2131 223.875 89.704 226.972 89.704C230.068 89.704 232.578 87.2131 232.578 84.1392Z"
		      fill="#CC6FDB"/>
		<path
			d="M210.01 19.5231C208.062 19.5231 206.476 21.0961 206.476 23.0304C206.476 24.9641 208.062 26.5378 210.01 26.5378C211.958 26.5378 213.544 24.9641 213.544 23.0304C213.544 21.0961 211.958 19.5231 210.01 19.5231ZM210.01 28.9228C206.737 28.9228 204.074 26.279 204.074 23.0304C204.074 19.7812 206.737 17.1381 210.01 17.1381C213.283 17.1381 215.946 19.7812 215.946 23.0304C215.946 26.279 213.283 28.9228 210.01 28.9228Z"
			fill="#67DC39"/>
		<path fill-rule="evenodd" clip-rule="evenodd"
		      d="M399.999 23.0306C399.999 19.0785 396.771 15.8749 392.79 15.8749C388.809 15.8749 385.582 19.0785 385.582 23.0306C385.582 26.982 388.809 30.1856 392.79 30.1856C396.771 30.1856 399.999 26.982 399.999 23.0306Z"
		      fill="#67DC39"/>
		<path
			d="M308.668 71.4706C308.668 76.5887 306.569 81.2211 303.209 84.5802L297.422 78.8361C299.335 76.96 300.501 74.3427 300.501 71.4706C300.501 68.5986 299.335 65.9813 297.422 64.1052L303.209 58.3604C306.569 61.7195 308.668 66.3519 308.668 71.4706Z"
			fill="#FDDF4C"/>
		<path
			d="M303.208 58.3607L297.422 64.1055C295.532 62.2062 292.895 61.0481 290.001 61.0481C287.108 61.0481 284.472 62.2062 282.582 64.1055L276.795 58.3607C280.178 55.0254 284.845 52.9415 290.001 52.9415C295.158 52.9415 299.825 55.0254 303.208 58.3607Z"
			fill="#67DC39"/>
		<path
			d="M279.503 71.4706C279.503 74.3427 280.669 76.96 282.583 78.8361L276.796 84.5802C273.436 81.2211 271.336 76.5887 271.336 71.4706C271.336 66.3519 273.436 61.7195 276.796 58.3604L282.583 64.1052C280.669 65.9813 279.503 68.5986 279.503 71.4706Z"
			fill="#2184F7"/>
		<path
			d="M303.208 84.5799C299.825 87.9152 295.158 89.9998 290.001 89.9998C284.845 89.9998 280.178 87.9152 276.795 84.5799L282.582 78.8358C284.472 80.7351 287.108 81.8931 290.001 81.8931C292.895 81.8931 295.532 80.7351 297.422 78.8358L303.208 84.5799Z"
			fill="#EE5D89"/>
	</g>
	<defs>
		<clipPath id="clip0_640_76">
			<rect width="400" height="90" fill="white"/>
		</clipPath>
	</defs>
</svg>
