<?xml version="1.0" encoding="UTF-8" standalone="no"?>
<svg
   viewBox="0 0 640.00006 188.86595"
   version="1.1"
   id="svg125"
   sodipodi:docname="misaka.svg"
   width="640.00006"
   height="188.86595"
   inkscape:version="1.1.1 (3bf5ae0, 2021-09-20)"
   xmlns:inkscape="http://www.inkscape.org/namespaces/inkscape"
   xmlns:sodipodi="http://sodipodi.sourceforge.net/DTD/sodipodi-0.dtd"
   xmlns="http://www.w3.org/2000/svg"
   xmlns:svg="http://www.w3.org/2000/svg"
   xmlns:rdf="http://www.w3.org/1999/02/22-rdf-syntax-ns#"
   xmlns:cc="http://creativecommons.org/ns#"
   xmlns:dc="http://purl.org/dc/elements/1.1/">
  <defs
     id="defs129" />
  <sodipodi:namedview
     id="namedview127"
     pagecolor="#ffffff"
     bordercolor="#666666"
     borderopacity="1.0"
     inkscape:pageshadow="2"
     inkscape:pageopacity="0.0"
     inkscape:pagecheckerboard="0"
     showgrid="false"
     fit-margin-top="0"
     fit-margin-left="0"
     fit-margin-right="0"
     fit-margin-bottom="0"
     inkscape:zoom="0.807"
     inkscape:cx="320.32218"
     inkscape:cy="94.795539"
     inkscape:window-width="1848"
     inkscape:window-height="1016"
     inkscape:window-x="72"
     inkscape:window-y="27"
     inkscape:window-maximized="1"
     inkscape:current-layer="svg125" />
  <title
     id="title86">Misaka</title>
  <g
     id="Logo_Color"
     data-name="Logo Color"
     transform="translate(-180,-405.568)">
    <path
       d="m 215.944,440.707 h 27.532 l -2.717,10.056 a 70.767,70.767 0 0 1 11.411,-8.27 27.853,27.853 0 0 1 14.309,-3.6 q 9.959,0 16.392,4.676 a 26.307,26.307 0 0 1 9.328,12.766 52.2,52.2 0 0 1 15.034,-12.586 39.79,39.79 0 0 1 19.742,-4.856 q 13.041,0 20.559,7.517 7.518,7.517 7.517,20.739 a 44.385,44.385 0 0 1 -1,8.965 q -1,4.8 -2.264,9.51 l -13.947,52.165 h -27.528 l 14.309,-53.382 a 38.639,38.639 0 0 0 0.905,-4.449 29.642,29.642 0 0 0 0.363,-4.268 q 0,-11.979 -12.86,-11.982 a 17.374,17.374 0 0 0 -13.223,5.357 32.272,32.272 0 0 0 -7.426,14.072 l -14.672,54.652 h -27.531 l 14.309,-53.382 a 38.418,38.418 0 0 0 0.906,-4.449 29.931,29.931 0 0 0 0.363,-4.268 q 0,-11.979 -12.861,-11.982 a 17.372,17.372 0 0 0 -13.222,5.357 32.263,32.263 0 0 0 -7.427,14.072 l -14.671,54.652 h -27.531 z"
       id="path88" />
    <path
       d="m 389.1,440.707 h 27.531 l -26.081,97.085 h -27.532 z m 43.659,-19.686 v 0 a 11.532,11.532 0 0 1 -11.783,8.465 L 217.3,417.8 421,406.459 a 11.531,11.531 0 0 1 11.76,14.562 z"
       id="path90" />
    <path
       d="m 445.067,538.879 a 65.8,65.8 0 0 1 -11.683,-3.261 63.779,63.779 0 0 1 -10.958,-5.434 49.194,49.194 0 0 1 -9.6,-7.788 l 15.939,-16.483 q 7.608,7.608 15.4,10.324 a 43.732,43.732 0 0 0 14.31,2.718 q 5.433,0 8.512,-2.174 a 7.272,7.272 0 0 0 3.08,-6.34 q 0,-2.715 -3.08,-4.8 a 50.185,50.185 0 0 0 -8.151,-4.255 q -5.8,-2.353 -10.867,-4.982 A 48.819,48.819 0 0 1 439,490.517 25.1,25.1 0 0 1 432.841,483 a 21.08,21.08 0 0 1 -2.264,-10.052 33.481,33.481 0 0 1 2.717,-13.494 31.209,31.209 0 0 1 7.7,-10.778 36.372,36.372 0 0 1 12.227,-7.153 47.622,47.622 0 0 1 16.3,-2.627 55.052,55.052 0 0 1 11.5,1.178 64.636,64.636 0 0 1 10.5,3.169 63.559,63.559 0 0 1 9.057,4.437 48.671,48.671 0 0 1 7.155,5.163 l -14.853,17.388 a 51.351,51.351 0 0 0 -13.222,-7.969 33.867,33.867 0 0 0 -12.137,-2.355 q -5.072,0 -7.878,2.173 a 7.14,7.14 0 0 0 -2.808,5.978 q 0,2.9 3.351,5.161 a 62.722,62.722 0 0 0 9.514,4.981 q 4.709,2.173 9.51,4.528 a 40.7,40.7 0 0 1 8.6,5.615 27.179,27.179 0 0 1 6.158,7.517 20.073,20.073 0 0 1 2.355,9.872 33.151,33.151 0 0 1 -2.988,14.308 31.506,31.506 0 0 1 -8.242,10.777 36.512,36.512 0 0 1 -12.588,6.793 52.253,52.253 0 0 1 -16.03,2.354 63.789,63.789 0 0 1 -11.408,-1.085 z"
       id="path92" />
    <path
       d="m 525.76,537.7 a 25.152,25.152 0 0 1 -16.755,-24.181 32.177,32.177 0 0 1 12.136,-25.9 38.177,38.177 0 0 1 13.223,-6.792 57.552,57.552 0 0 1 16.482,-2.264 83.419,83.419 0 0 1 14.581,1.178 96.655,96.655 0 0 1 12.773,3.169 l 0.363,-1.268 c 0.24,-1.087 0.481,-2.2 0.725,-3.35 a 19.11,19.11 0 0 0 0.361,-3.895 10.048,10.048 0 0 0 -3.985,-8.241 q -3.985,-3.166 -14.308,-3.17 a 62.627,62.627 0 0 0 -13.857,1.539 75.1,75.1 0 0 0 -12.045,3.714 L 531.1,446.5 a 98.051,98.051 0 0 1 16.663,-4.98 94.139,94.139 0 0 1 19.382,-1.9 q 19.74,0 29.524,7.788 9.784,7.788 9.781,22.1 a 43.161,43.161 0 0 1 -0.634,7.426 q -0.637,3.626 -1.54,7.245 l -14.306,53.613 h -26.626 l 2.9,-11.23 a 40.864,40.864 0 0 1 -13.041,9.691 37.543,37.543 0 0 1 -15.939,3.351 33.078,33.078 0 0 1 -11.504,-1.904 z m 31.516,-18.476 a 26.078,26.078 0 0 0 7.155,-4.256 29.147,29.147 0 0 0 5.615,-6.249 25.714,25.714 0 0 0 3.441,-7.517 l 0.724,-2.536 a 51.209,51.209 0 0 0 -8.331,-2.445 47.322,47.322 0 0 0 -9.781,-1 q -8.694,0 -14.219,4.075 a 13.1,13.1 0 0 0 -5.524,11.139 9.268,9.268 0 0 0 3.441,7.427 q 3.439,2.9 9.238,2.9 a 22.184,22.184 0 0 0 8.241,-1.536 z"
       id="path94" />
    <path
       d="m 649.2,405.568 h 27.532 l -18.475,68.467 39.306,-33.328 h 35.863 l -46.912,37.856 21.186,59.229 h -30.789 l -13.767,-41.116 -13.944,11.23 -7.969,29.886 H 613.7 Z"
       id="path96" />
    <path
       d="m 739.307,537.7 a 25.152,25.152 0 0 1 -16.755,-24.181 32.177,32.177 0 0 1 12.136,-25.9 38.186,38.186 0 0 1 13.223,-6.792 57.552,57.552 0 0 1 16.482,-2.264 83.419,83.419 0 0 1 14.581,1.178 96.709,96.709 0 0 1 12.77,3.169 l 0.362,-1.268 c 0.24,-1.087 0.481,-2.2 0.725,-3.35 a 19.105,19.105 0 0 0 0.362,-3.895 10.049,10.049 0 0 0 -3.986,-8.241 q -3.986,-3.166 -14.308,-3.17 A 62.627,62.627 0 0 0 761.042,464.525 75.1,75.1 0 0 0 749,468.239 L 744.65,446.5 a 98.063,98.063 0 0 1 16.664,-4.98 94.123,94.123 0 0 1 19.381,-1.9 q 19.74,0 29.524,7.788 9.784,7.788 9.781,22.1 a 43.161,43.161 0 0 1 -0.634,7.426 q -0.637,3.626 -1.539,7.245 l -14.31,53.614 h -26.626 l 2.9,-11.23 a 40.864,40.864 0 0 1 -13.041,9.691 37.543,37.543 0 0 1 -15.939,3.351 33.078,33.078 0 0 1 -11.504,-1.905 z m 31.516,-18.476 a 26.063,26.063 0 0 0 7.155,-4.256 29.121,29.121 0 0 0 5.615,-6.249 25.714,25.714 0 0 0 3.441,-7.517 l 0.724,-2.536 a 51.209,51.209 0 0 0 -8.331,-2.445 47.322,47.322 0 0 0 -9.781,-1 q -8.694,0 -14.219,4.075 a 13.1,13.1 0 0 0 -5.524,11.139 9.268,9.268 0 0 0 3.441,7.427 q 3.439,2.9 9.238,2.9 a 22.184,22.184 0 0 0 8.241,-1.536 z"
       id="path98" />
    <path
       d="m 188.441,555.726 h 6.376 l 9.16,19.981 5.388,-19.981 h 6.825 l -8.441,31.431 h -5.883 l -9.518,-20.611 -5.524,20.611 H 180 Z"
       id="path100" />
    <path
       d="m 223.733,555.726 h 23.483 l -1.661,6.151 h -16.614 l -1.706,6.422 h 14.593 l -1.661,6.061 h -14.593 l -1.8,6.645 h 16.886 l -1.66,6.152 h -23.708 z"
       id="path102" />
    <path
       d="m 258.486,562.1 h -9.563 l 1.7,-6.377 h 26.043 l -1.706,6.377 h -9.56 l -6.735,25.054 h -6.915 z"
       id="path104" />
    <path
       d="m 278.287,555.726 h 7.184 l 0.808,21.282 12.663,-21.372 h 5.926 l 1.437,21.372 12.214,-21.282 h 7.812 l -19.218,31.655 h -6.421 l -1.526,-20.161 -12.3,20.161 h -6.331 z"
       id="path106" />
    <path
       d="m 333.7,586.64 a 13.077,13.077 0 0 1 -7.454,-7.365 14.425,14.425 0 0 1 -1.032,-5.5 17.935,17.935 0 0 1 1.368,-6.849 18.886,18.886 0 0 1 3.862,-5.949 19.3,19.3 0 0 1 5.973,-4.2 18.272,18.272 0 0 1 7.7,-1.594 15.761,15.761 0 0 1 5.883,1.055 13.082,13.082 0 0 1 7.454,7.363 14.464,14.464 0 0 1 1.032,5.5 17.924,17.924 0 0 1 -1.37,6.847 18.858,18.858 0 0 1 -3.86,5.949 19.264,19.264 0 0 1 -5.973,4.2 18.3,18.3 0 0 1 -7.7,1.593 15.792,15.792 0 0 1 -5.883,-1.05 z m 11.194,-6.4 a 11.54,11.54 0 0 0 3.451,-2.763 12.731,12.731 0 0 0 2.211,-3.792 11.76,11.76 0 0 0 0.79,-4.133 9.514,9.514 0 0 0 -0.52,-3.208 7.123,7.123 0 0 0 -1.533,-2.537 6.748,6.748 0 0 0 -2.527,-1.663 10.189,10.189 0 0 0 -7.962,0.494 11.533,11.533 0 0 0 -3.451,2.761 12.8,12.8 0 0 0 -2.211,3.8 11.753,11.753 0 0 0 -0.789,4.129 9.5,9.5 0 0 0 0.519,3.212 7.122,7.122 0 0 0 1.534,2.537 6.756,6.756 0 0 0 2.526,1.661 10.213,10.213 0 0 0 7.962,-0.494 z"
       id="path108" />
    <path
       d="m 368.538,555.726 h 11.449 a 19.682,19.682 0 0 1 5.949,0.785 9.829,9.829 0 0 1 4.019,2.357 8.567,8.567 0 0 1 2.425,6.333 10.424,10.424 0 0 1 -2.559,7.161 14.027,14.027 0 0 1 -7.588,4.062 l 5.343,10.733 h -7.858 L 374.869,577.1 h -5.164 l -2.694,10.058 H 360.1 Z m 8.98,15.22 a 12.858,12.858 0 0 0 3.008,-0.333 8.067,8.067 0 0 0 2.425,-0.985 4.871,4.871 0 0 0 1.616,-1.608 4.254,4.254 0 0 0 0.584,-2.254 3.375,3.375 0 0 0 -0.988,-2.5 q -1.3,-1.3 -4.579,-1.3 h -5.793 l -2.425,8.98 z"
       id="path110" />
    <path
       d="m 401.18,555.726 h 6.92 l -3.727,13.918 15.527,-13.918 h 9.34 l -15.312,13.157 7.409,18.274 h -7.588 l -5.3,-14.145 -6.511,5.569 -2.29,8.576 h -6.915 z"
       id="path112" />
    <path
       d="m 422.1,591.6 a 7.188,7.188 0 0 0 4.131,-1.368 5.12,5.12 0 0 0 1.706,-3.075 h -2.784 l 1.931,-7.184 h 7.274 l -1.616,6.061 q -1.17,4.444 -3.683,6.376 a 10.83,10.83 0 0 1 -6.51,2.022 z"
       id="path114" />
    <path
       d="m 461.929,555.726 h 6.915 l -8.444,31.431 h -6.915 z"
       id="path116" />
    <path
       d="m 476.7,555.726 h 6.376 l 9.16,19.981 5.388,-19.981 h 6.824 l -8.441,31.431 h -5.882 l -9.518,-20.611 -5.524,20.611 h -6.824 z"
       id="path118" />
    <path
       d="m 514.847,586.73 a 13.775,13.775 0 0 1 -4.676,-2.739 12.23,12.23 0 0 1 -3.056,-4.312 14.2,14.2 0 0 1 -1.093,-5.679 17.559,17.559 0 0 1 1.494,-7.161 19.872,19.872 0 0 1 4.064,-6 19.235,19.235 0 0 1 6.049,-4.129 18.358,18.358 0 0 1 7.475,-1.528 14.876,14.876 0 0 1 7.612,1.8 14,14 0 0 1 4.96,4.894 l -5.7,4 a 12.108,12.108 0 0 0 -3.144,-3.143 8.12,8.12 0 0 0 -4.58,-1.168 9.447,9.447 0 0 0 -4.153,0.966 12.113,12.113 0 0 0 -3.547,2.6 12.522,12.522 0 0 0 -2.469,3.861 12.241,12.241 0 0 0 -0.921,4.737 8.183,8.183 0 0 0 0.561,3.1 6.949,6.949 0 0 0 1.594,2.4 7.117,7.117 0 0 0 2.424,1.549 8.527,8.527 0 0 0 3.1,0.537 8.723,8.723 0 0 0 3.951,-0.829 18.509,18.509 0 0 0 3.413,-2.269 l 4.49,4.671 a 20.52,20.52 0 0 1 -5.119,3.459 15.653,15.653 0 0 1 -6.78,1.345 17.642,17.642 0 0 1 -5.949,-0.962 z"
       id="path120" />
    <path
       d="m 537.857,579.973 h 7.274 l -1.931,7.184 h -7.274 z"
       id="path122" />
  </g>
  <metadata
     id="metadata211">
    <rdf:RDF>
      <cc:Work
         rdf:about="">
        <dc:title>Misaka</dc:title>
      </cc:Work>
    </rdf:RDF>
  </metadata>
</svg>
