<svg xmlns="http://www.w3.org/2000/svg" width="640" height="188.866">
  <path d="M35.944 35.139h27.532l-2.717 10.056a70.767 70.767 0 0 1 11.411-8.27 27.853 27.853 0 0 1 14.309-3.6q9.959 0 16.392 4.676a26.307 26.307 0 0 1 9.328 12.766 52.2 52.2 0 0 1 15.034-12.586 39.79 39.79 0 0 1 19.742-4.856q13.041 0 20.559 7.517 7.518 7.517 7.517 20.739a44.385 44.385 0 0 1-1 8.965q-1 4.8-2.264 9.51l-13.947 52.165h-27.528l14.309-53.382a38.639 38.639 0 0 0 .905-4.449 29.642 29.642 0 0 0 .363-4.268q0-11.979-12.86-11.982a17.374 17.374 0 0 0-13.223 5.357 32.272 32.272 0 0 0-7.426 14.072l-14.672 54.652H70.177l14.309-53.382a38.418 38.418 0 0 0 .906-4.449 29.931 29.931 0 0 0 .363-4.268q0-11.979-12.861-11.982a17.372 17.372 0 0 0-13.222 5.357 32.263 32.263 0 0 0-7.427 14.072l-14.671 54.652H10.043zm173.156 0h27.531l-26.081 97.085h-27.532zm43.659-19.686a11.532 11.532 0 0 1-11.783 8.465L37.3 12.232 241 .891a11.531 11.531 0 0 1 11.76 14.562zm12.308 117.858a65.8 65.8 0 0 1-11.683-3.261 63.779 63.779 0 0 1-10.958-5.434 49.194 49.194 0 0 1-9.6-7.788l15.939-16.483q7.608 7.608 15.4 10.324a43.732 43.732 0 0 0 14.31 2.718q5.433 0 8.512-2.174a7.272 7.272 0 0 0 3.08-6.34q0-2.715-3.08-4.8a50.185 50.185 0 0 0-8.151-4.255q-5.8-2.353-10.867-4.982A48.819 48.819 0 0 1 259 84.949a25.1 25.1 0 0 1-6.159-7.517 21.08 21.08 0 0 1-2.264-10.052 33.481 33.481 0 0 1 2.717-13.494 31.209 31.209 0 0 1 7.7-10.778 36.372 36.372 0 0 1 12.227-7.153 47.622 47.622 0 0 1 16.3-2.627 55.052 55.052 0 0 1 11.5 1.178 64.636 64.636 0 0 1 10.5 3.169 63.559 63.559 0 0 1 9.057 4.437 48.671 48.671 0 0 1 7.155 5.163L312.88 64.663a51.351 51.351 0 0 0-13.222-7.969 33.867 33.867 0 0 0-12.137-2.355q-5.072 0-7.878 2.173a7.14 7.14 0 0 0-2.808 5.978q0 2.9 3.351 5.161a62.722 62.722 0 0 0 9.514 4.981q4.709 2.173 9.51 4.528a40.7 40.7 0 0 1 8.6 5.615 27.179 27.179 0 0 1 6.158 7.517 20.073 20.073 0 0 1 2.355 9.872 33.151 33.151 0 0 1-2.988 14.308 31.506 31.506 0 0 1-8.242 10.777 36.512 36.512 0 0 1-12.588 6.793 52.253 52.253 0 0 1-16.03 2.354 63.789 63.789 0 0 1-11.408-1.085zm80.693-1.179a25.152 25.152 0 0 1-16.755-24.181 32.177 32.177 0 0 1 12.136-25.9 38.177 38.177 0 0 1 13.223-6.792 57.552 57.552 0 0 1 16.482-2.264 83.419 83.419 0 0 1 14.581 1.178 96.655 96.655 0 0 1 12.773 3.169l.363-1.268c.24-1.087.481-2.2.725-3.35a19.11 19.11 0 0 0 .361-3.895 10.048 10.048 0 0 0-3.985-8.241q-3.985-3.166-14.308-3.17a62.627 62.627 0 0 0-13.857 1.539 75.1 75.1 0 0 0-12.045 3.714L351.1 40.932a98.051 98.051 0 0 1 16.663-4.98 94.139 94.139 0 0 1 19.382-1.9q19.74 0 29.524 7.788 9.784 7.788 9.781 22.1a43.161 43.161 0 0 1-.634 7.426q-.637 3.626-1.54 7.245l-14.306 53.613h-26.626l2.9-11.23a40.864 40.864 0 0 1-13.041 9.691 37.543 37.543 0 0 1-15.939 3.351 33.078 33.078 0 0 1-11.504-1.904zm31.516-18.476a26.078 26.078 0 0 0 7.155-4.256 29.147 29.147 0 0 0 5.615-6.249 25.714 25.714 0 0 0 3.441-7.517l.724-2.536a51.209 51.209 0 0 0-8.331-2.445 47.322 47.322 0 0 0-9.781-1q-8.694 0-14.219 4.075a13.1 13.1 0 0 0-5.524 11.139 9.268 9.268 0 0 0 3.441 7.427q3.439 2.9 9.238 2.9a22.184 22.184 0 0 0 8.241-1.536zM469.2 0h27.532l-18.475 68.467 39.306-33.328h35.863l-46.912 37.856 21.186 59.229h-30.789l-13.767-41.116-13.944 11.23-7.969 29.886H433.7Zm90.107 132.132a25.152 25.152 0 0 1-16.755-24.181 32.177 32.177 0 0 1 12.136-25.9 38.186 38.186 0 0 1 13.223-6.792 57.552 57.552 0 0 1 16.482-2.264 83.419 83.419 0 0 1 14.581 1.178 96.709 96.709 0 0 1 12.77 3.169l.362-1.268c.24-1.087.481-2.2.725-3.35a19.105 19.105 0 0 0 .362-3.895 10.049 10.049 0 0 0-3.986-8.241q-3.986-3.166-14.308-3.17a62.627 62.627 0 0 0-13.857 1.539A75.1 75.1 0 0 0 569 62.671l-4.35-21.739a98.063 98.063 0 0 1 16.664-4.98 94.123 94.123 0 0 1 19.381-1.9q19.74 0 29.524 7.788 9.784 7.788 9.781 22.1a43.161 43.161 0 0 1-.634 7.426q-.637 3.626-1.539 7.245l-14.31 53.614h-26.626l2.9-11.23a40.864 40.864 0 0 1-13.041 9.691 37.543 37.543 0 0 1-15.939 3.351 33.078 33.078 0 0 1-11.504-1.905zm31.516-18.476a26.063 26.063 0 0 0 7.155-4.256 29.121 29.121 0 0 0 5.615-6.249 25.714 25.714 0 0 0 3.441-7.517l.724-2.536a51.209 51.209 0 0 0-8.331-2.445 47.322 47.322 0 0 0-9.781-1q-8.694 0-14.219 4.075a13.1 13.1 0 0 0-5.524 11.139 9.268 9.268 0 0 0 3.441 7.427q3.439 2.9 9.238 2.9a22.184 22.184 0 0 0 8.241-1.536zM8.441 150.158h6.376l9.16 19.981 5.388-19.981h6.825l-8.441 31.431h-5.883l-9.518-20.611-5.524 20.611H0Zm35.292 0h23.483l-1.661 6.151H48.941l-1.706 6.422h14.593l-1.661 6.061H45.574l-1.8 6.645H60.66L59 181.589H35.292zm34.753 6.374h-9.563l1.7-6.377h26.043l-1.706 6.377H85.4l-6.735 25.054H71.75zm19.801-6.374h7.184l.808 21.282 12.663-21.372h5.926l1.437 21.372 12.214-21.282h7.812l-19.218 31.655h-6.421l-1.526-20.161-12.3 20.161h-6.331zm55.413 30.914a13.077 13.077 0 0 1-7.454-7.365 14.425 14.425 0 0 1-1.032-5.5 17.935 17.935 0 0 1 1.368-6.849 18.886 18.886 0 0 1 3.862-5.949 19.3 19.3 0 0 1 5.973-4.2 18.272 18.272 0 0 1 7.7-1.594A15.761 15.761 0 0 1 170 150.67a13.082 13.082 0 0 1 7.454 7.363 14.464 14.464 0 0 1 1.032 5.5 17.924 17.924 0 0 1-1.37 6.847 18.858 18.858 0 0 1-3.86 5.949 19.264 19.264 0 0 1-5.973 4.2 18.3 18.3 0 0 1-7.7 1.593 15.792 15.792 0 0 1-5.883-1.05zm11.194-6.4a11.54 11.54 0 0 0 3.451-2.763 12.731 12.731 0 0 0 2.211-3.792 11.76 11.76 0 0 0 .79-4.133 9.514 9.514 0 0 0-.52-3.208 7.123 7.123 0 0 0-1.533-2.537 6.748 6.748 0 0 0-2.527-1.663 10.189 10.189 0 0 0-7.962.494 11.533 11.533 0 0 0-3.451 2.761 12.8 12.8 0 0 0-2.211 3.8 11.753 11.753 0 0 0-.789 4.129 9.5 9.5 0 0 0 .519 3.212 7.122 7.122 0 0 0 1.534 2.537 6.756 6.756 0 0 0 2.526 1.661 10.213 10.213 0 0 0 7.962-.494zm23.644-24.514h11.449a19.682 19.682 0 0 1 5.949.785 9.829 9.829 0 0 1 4.019 2.357 8.567 8.567 0 0 1 2.425 6.333 10.424 10.424 0 0 1-2.559 7.161 14.027 14.027 0 0 1-7.588 4.062l5.343 10.733h-7.858l-4.849-10.057h-5.164l-2.694 10.058H180.1Zm8.98 15.22a12.858 12.858 0 0 0 3.008-.333 8.067 8.067 0 0 0 2.425-.985 4.871 4.871 0 0 0 1.616-1.608 4.254 4.254 0 0 0 .584-2.254 3.375 3.375 0 0 0-.988-2.5q-1.3-1.3-4.579-1.3h-5.793l-2.425 8.98zm23.662-15.22h6.92l-3.727 13.918 15.527-13.918h9.34l-15.312 13.157 7.409 18.274h-7.588l-5.3-14.145-6.511 5.569-2.29 8.576h-6.915zm20.92 35.874a7.188 7.188 0 0 0 4.131-1.368 5.12 5.12 0 0 0 1.706-3.075h-2.784l1.931-7.184h7.274l-1.616 6.061q-1.17 4.444-3.683 6.376a10.83 10.83 0 0 1-6.51 2.022zm39.829-35.874h6.915l-8.444 31.431h-6.915zm14.771 0h6.376l9.16 19.981 5.388-19.981h6.824l-8.441 31.431h-5.882l-9.518-20.611-5.524 20.611h-6.824zm38.147 31.004a13.775 13.775 0 0 1-4.676-2.739 12.23 12.23 0 0 1-3.056-4.312 14.2 14.2 0 0 1-1.093-5.679 17.559 17.559 0 0 1 1.494-7.161 19.872 19.872 0 0 1 4.064-6 19.235 19.235 0 0 1 6.049-4.129 18.358 18.358 0 0 1 7.475-1.528 14.876 14.876 0 0 1 7.612 1.8 14 14 0 0 1 4.96 4.894l-5.7 4a12.108 12.108 0 0 0-3.144-3.143 8.12 8.12 0 0 0-4.58-1.168 9.447 9.447 0 0 0-4.153.966 12.113 12.113 0 0 0-3.547 2.6 12.522 12.522 0 0 0-2.469 3.861 12.241 12.241 0 0 0-.921 4.737 8.183 8.183 0 0 0 .561 3.1 6.949 6.949 0 0 0 1.594 2.4 7.117 7.117 0 0 0 2.424 1.549 8.527 8.527 0 0 0 3.1.537 8.723 8.723 0 0 0 3.951-.829 18.509 18.509 0 0 0 3.413-2.269l4.49 4.671a20.52 20.52 0 0 1-5.119 3.459 15.653 15.653 0 0 1-6.78 1.345 17.642 17.642 0 0 1-5.949-.962zm23.01-6.757h7.274l-1.931 7.184h-7.274z" data-name="Logo Color"/>
</svg>
