<svg xmlns="http://www.w3.org/2000/svg" xml:space="preserve" width="2888" height="912" style="max-height:500px" viewBox="559.734 1567.464 2888 912">
  <defs>
    <clipPath id="a" clipPathUnits="userSpaceOnUse">
      <path d="M0 3000h3000V0H0Z"/>
    </clipPath>
    <clipPath id="b" clipPathUnits="userSpaceOnUse">
      <path d="M738.562 1687.802c-17.629 15.057-40.462 24.197-65.462 24.197-55.738 0-100.922-45.186-100.922-100.922 0-11.673 2.081-22.833 5.726-33.261-39.311-13.792-67.547-51.131-67.547-95.154 0-55.738 45.184-100.922 100.922-100.922 2.751 0 5.468.141 8.164.357v164.975h367.916V1382.09c2.694-.215 5.412-.35 8.162-.35 55.739 0 100.924 45.184 100.924 100.922 0 47.341-32.64 86.955-76.612 97.851a151 151 0 0 1 6.115 42.527c0 83.384-67.596 150.981-150.981 150.981-60.201 0-112.16-35.244-136.405-86.219"/>
    </clipPath>
    <clipPath id="c" clipPathUnits="userSpaceOnUse">
      <path d="M0 3000h3000V0H0Z"/>
    </clipPath>
  </defs>
  <g clip-path="url(#a)" transform="matrix(1.33333 0 0 -1.33333 0 4000)">
    <path d="M0 0a151 151 0 0 1 6.115 42.527c0 83.384-67.596 150.98-150.98 150.98-60.203 0-112.161-35.244-136.406-86.218-17.629 15.056-40.461 24.196-65.462 24.196-3.35 0-6.661-.172-9.928-.491v-63.85l-13.318 8.424-41.142 26.025-4.402 2.784c-19.761-18.422-32.132-44.668-32.132-73.815 0-11.671 2.081-22.832 5.726-33.259-39.311-13.793-67.547-51.131-67.547-95.155 0-55.738 45.184-100.921 100.922-100.921 2.752 0 5.469.14 8.164.356v164.975h367.915v-164.981c2.695-.216 5.413-.35 8.164-.35 55.738 0 100.923 45.183 100.923 100.921C76.612-50.511 43.972-10.896 0 0" style="fill:#d9151f;fill-opacity:1;fill-rule:nonzero;stroke:none" transform="translate(1019.833 1580.514)"/>
    <path d="M0 0v-52.049l-41.142 26.025z" style="fill:#d9151f;fill-opacity:1;fill-rule:nonzero;stroke:none" transform="translate(633.922 1794.687)"/>
    <path d="M0 0v-52.049l-41.142 26.025z" style="fill:#d9151f;fill-opacity:1;fill-rule:nonzero;stroke:none" transform="translate(582.425 1746.082)"/>
    <path d="M0 0v-52.049l-41.142 26.025z" style="fill:#d9151f;fill-opacity:1;fill-rule:nonzero;stroke:none" transform="translate(541.283 1663.417)"/>
    <path d="M0 0v-52.049l41.142 26.025z" style="fill:#d9151f;fill-opacity:1;fill-rule:nonzero;stroke:none" transform="translate(459 1611.368)"/>
    <path d="M0 0v-52.049l41.142 26.025z" style="fill:#d9151f;fill-opacity:1;fill-rule:nonzero;stroke:none" transform="translate(592.78 1746.082)"/>
    <path d="M716.206 1411.847h176.048v-20.667H716.206Zm219.485-95.105h-31.765v25.259h31.765zm-82.857 25.259h31.765v-25.259h-31.765zm-136.628-74.438h176.048v-41.077H716.206Zm-43.438 74.438h123.808v-25.259H672.768Zm0 144.283h123.808v-25.259H672.768Zm180.066 0h31.765v-25.259h-31.765zm51.092 0h31.765v-25.259h-31.765zm70.611-74.437v123.616H633.922v-123.616h51.666v-20.667h-51.666v-123.617h51.666v-41.077h-51.666v-21.173h340.615v21.173h-51.666v41.077h51.666v123.617h-51.666v20.667z" style="fill:#292528;fill-opacity:1;fill-rule:nonzero;stroke:none"/>
    <path d="M0 0h54.333l60.224-96.883L174.78 0h54.334v-229.113h-50.082v149.578l-64.475-97.864h-1.309L49.424-80.516v-148.597H0Z" style="fill:#c8131d;fill-opacity:1;fill-rule:nonzero;stroke:none" transform="translate(1178.613 1613.666)"/>
    <path d="M0 0h55.637l59.901-161.361L175.432 0h54.333l-92.628-230.749H92.623Z" style="fill:#c8131d;fill-opacity:1;fill-rule:nonzero;stroke:none" transform="translate(1443.104 1613.666)"/>
    <path d="M0 0c25.205 0 39.934 15.054 39.934 34.692v.655c0 22.586-15.71 34.695-40.915 34.695h-38.947V0Zm-90.333 115.537H3.276c54.657 0 87.719-32.402 87.719-79.206v-.655c0-53.024-41.243-80.52-92.628-80.52h-38.295v-68.732h-50.405z" style="fill:#c8131d;fill-opacity:1;fill-rule:nonzero;stroke:none" transform="translate(1798.58 1498.129)"/>
    <path d="m0 0 29.785 35.676C50.41 18.657 72.01 7.854 98.195 7.854c20.619 0 33.057 8.184 33.057 21.603v.654c0 12.765-7.857 19.313-46.152 29.132C38.953 71.026 9.167 83.79 9.167 129.285v.655c0 41.566 33.386 69.062 80.19 69.062 33.386 0 61.862-10.474 85.1-29.131l-26.186-37.967c-20.29 14.074-40.256 22.583-59.572 22.583-19.308 0-29.457-8.838-29.457-19.966v-.652c0-15.057 9.82-19.967 49.424-30.115 46.481-12.109 72.662-28.802 72.662-68.733v-.655c0-45.495-34.695-71.026-84.113-71.026C62.52-36.66 27.495-24.548 0 0" style="fill:#c8131d;fill-opacity:1;fill-rule:nonzero;stroke:none" transform="translate(1911.198 1417.938)"/>
    <path d="M2124.74 1416.426h30.939v-31.873h-30.939z" style="fill:#595959;fill-opacity:1;fill-rule:nonzero;stroke:none"/>
    <path d="M0 0h28.153v-19.079C36.059-7.445 47.462 2.56 66.538 2.56c27.687 0 43.736-18.613 43.736-47.23v-78.172H82.128v69.797c0 19.076-9.538 30.014-26.294 30.014-16.283 0-27.681-11.402-27.681-30.48v-69.331H0Z" style="fill:#595959;fill-opacity:1;fill-rule:nonzero;stroke:none" transform="translate(2189.191 1507.395)"/>
    <path d="M0 0c-1.859 18.146-12.563 32.34-31.173 32.34-17.223 0-29.319-13.264-31.879-32.34Zm-90.966-9.074v.463c0 35.132 24.894 63.982 60.02 63.982 39.091 0 58.866-30.71 58.866-66.075 0-2.56-.233-5.118-.466-7.908h-90.272c3.025-20.009 17.215-31.176 35.364-31.176 13.725 0 23.501 5.118 33.272 14.656l16.517-14.656C10.704-63.748-5.352-72.823-27.92-72.823c-35.593 0-63.046 25.824-63.046 63.749" style="fill:#595959;fill-opacity:1;fill-rule:nonzero;stroke:none" transform="translate(2417.677 1454.583)"/>
    <path d="M0 0v64.676h-15.589v24.197H0v33.736h28.147V88.873h33.04V64.676h-33.04V4.419c0-10.934 5.585-15.357 15.124-15.357 6.285 0 11.864 1.397 17.449 4.19V-29.78c-6.979-3.955-14.89-6.282-25.361-6.282C14.657-36.062 0-26.99 0 0" style="fill:#595959;fill-opacity:1;fill-rule:nonzero;stroke:none" transform="translate(2479.814 1418.522)"/>
  </g>
  <g clip-path="url(#b)" transform="matrix(1.33333 0 0 -1.33333 0 4000)">
    <path d="m0 0 2.177-52.003-42.194 24.28z" style="fill:#fd2531;fill-opacity:1;fill-rule:nonzero;stroke:none" transform="translate(917.522 1770.625)"/>
    <path d="M0 0v-52.049l41.142 26.025z" style="fill:#fd2531;fill-opacity:1;fill-rule:nonzero;stroke:none" transform="translate(968.656 1681.175)"/>
    <path d="m0 0 84.848-48.987v97.974Z" style="fill:#fd2531;fill-opacity:1;fill-rule:nonzero;stroke:none" transform="translate(877.527 1632.188)"/>
    <path d="m0 0-84.848-48.987v97.974Z" style="fill:#fd2531;fill-opacity:1;fill-rule:nonzero;stroke:none" transform="translate(871.672 1634.99)"/>
    <path d="m0 0 84.023-48.511v97.022Z" style="fill:#fd2531;fill-opacity:1;fill-rule:nonzero;stroke:none" transform="translate(583.277 1464.01)"/>
    <path d="m0 0 84.849-48.987v97.974Z" style="fill:#fd2531;fill-opacity:1;fill-rule:nonzero;stroke:none" transform="translate(786.738 1690.17)"/>
    <path d="m0 0 195.023-112.597v225.194Z" style="fill:#fd2531;fill-opacity:1;fill-rule:nonzero;stroke:none" transform="translate(585.913 1574.639)"/>
    <path d="m0 0-84.848-48.987v97.974Z" style="fill:#fd2531;fill-opacity:1;fill-rule:nonzero;stroke:none" transform="translate(962.375 1687.55)"/>
    <path d="m0 0-88.875-51.311V51.312Z" style="fill:#fd2531;fill-opacity:1;fill-rule:nonzero;stroke:none" transform="translate(875.876 1518.591)"/>
    <path d="m0 0-88.01-50.813V50.813Z" style="fill:#fd2531;fill-opacity:1;fill-rule:nonzero;stroke:none" transform="translate(670.104 1407.713)"/>
    <path d="m0 0-212.18-122.502v245.004Z" style="fill:#fd2531;fill-opacity:1;fill-rule:nonzero;stroke:none" transform="translate(667.936 1520.249)"/>
  </g>
  <g clip-path="url(#c)" transform="matrix(1.33333 0 0 -1.33333 0 4000)">
    <path d="M0 0v-52.049l-41.142 26.025z" style="fill:#d9151f;fill-opacity:1;fill-rule:nonzero;stroke:none" transform="translate(654.493 1715.465)"/>
  </g>
</svg>
