<svg version="1.1" id="svg2" xml:space="preserve" viewBox="559.7336 1567.464 2888 912" xmlns="http://www.w3.org/2000/svg" style="max-height: 500px" width="2888" height="912"><metadata id="metadata8">image/svg+xml</metadata><defs id="defs6"><clipPath clipPathUnits="userSpaceOnUse" id="clipPath18"><path d="M 0,3000 H 3000 V 0 H 0 Z" id="path16"/></clipPath><clipPath clipPathUnits="userSpaceOnUse" id="clipPath82"><path d="m 738.562,1687.802 c -17.629,15.057 -40.462,24.197 -65.462,24.197 v 0 c -55.738,0 -100.922,-45.186 -100.922,-100.922 v 0 c 0,-11.673 2.081,-22.833 5.726,-33.261 v 0 c -39.311,-13.792 -67.547,-51.131 -67.547,-95.154 v 0 c 0,-55.738 45.184,-100.922 100.922,-100.922 v 0 c 2.751,0 5.468,0.141 8.164,0.357 v 0 164.975 H 987.359 V 1382.09 c 2.694,-0.215 5.412,-0.35 8.162,-0.35 v 0 c 55.739,0 100.924,45.184 100.924,100.922 v 0 c 0,47.341 -32.64,86.955 -76.612,97.851 v 0 c 3.955,13.494 6.115,27.755 6.115,42.527 v 0 c 0,83.384 -67.596,150.981 -150.981,150.981 v 0 c -60.201,0 -112.16,-35.244 -136.405,-86.219" id="path80"/></clipPath><clipPath clipPathUnits="userSpaceOnUse" id="clipPath134"><path d="M 0,3000 H 3000 V 0 H 0 Z" id="path132"/></clipPath></defs><g id="g10" transform="matrix(1.3333333,0,0,-1.3333333,0,4000)"><g id="g12"><g id="g14" clip-path="url(#clipPath18)"><g id="g20" transform="translate(1019.833,1580.5137)"><path d="m 0,0 c 3.955,13.493 6.115,27.754 6.115,42.527 0,83.384 -67.596,150.98 -150.98,150.98 -60.203,0 -112.161,-35.244 -136.406,-86.218 -17.629,15.056 -40.461,24.196 -65.462,24.196 -3.35,0 -6.661,-0.172 -9.928,-0.491 V 82.903 67.144 l -13.318,8.424 -41.142,26.025 -4.402,2.784 c -19.761,-18.422 -32.132,-44.668 -32.132,-73.815 0,-11.671 2.081,-22.832 5.726,-33.259 -39.311,-13.793 -67.547,-51.131 -67.547,-95.155 0,-55.738 45.184,-100.921 100.922,-100.921 2.752,0 5.469,0.14 8.164,0.356 v 164.975 h 367.915 v -164.981 c 2.695,-0.216 5.413,-0.35 8.164,-0.35 55.738,0 100.923,45.183 100.923,100.921 C 76.612,-50.511 43.972,-10.896 0,0" style="fill:#d9151f;fill-opacity:1;fill-rule:nonzero;stroke:none" id="path22"/></g><g id="g24" transform="translate(633.9224,1794.687)"><path d="m 0,0 v -52.049 l -41.142,26.025 z" style="fill:#d9151f;fill-opacity:1;fill-rule:nonzero;stroke:none" id="path26"/></g><g id="g28" transform="translate(582.4248,1746.0825)"><path d="m 0,0 v -52.049 l -41.142,26.025 z" style="fill:#d9151f;fill-opacity:1;fill-rule:nonzero;stroke:none" id="path30"/></g><g id="g32" transform="translate(541.2832,1663.4165)"><path d="m 0,0 v -52.049 l -41.142,26.025 z" style="fill:#d9151f;fill-opacity:1;fill-rule:nonzero;stroke:none" id="path34"/></g><g id="g36" transform="translate(459,1611.3677)"><path d="m 0,0 v -52.049 l 41.142,26.025 z" style="fill:#d9151f;fill-opacity:1;fill-rule:nonzero;stroke:none" id="path38"/></g><g id="g40" transform="translate(592.7808,1746.0825)"><path d="m 0,0 v -52.049 l 41.142,26.025 z" style="fill:#d9151f;fill-opacity:1;fill-rule:nonzero;stroke:none" id="path42"/></g><path d="M 716.206,1411.847 H 892.254 V 1391.18 H 716.206 Z m 219.485,-95.105 h -31.765 v 25.259 h 31.765 z m -82.857,25.259 h 31.765 v -25.259 h -31.765 z m -136.628,-74.438 h 176.048 v -41.077 H 716.206 Z m -43.438,74.438 h 123.808 v -25.259 H 672.768 Z m 0,144.283 h 123.808 v -25.259 H 672.768 Z m 180.066,0 h 31.765 v -25.259 h -31.765 z m 51.092,0 h 31.765 v -25.259 h -31.765 z m 70.611,-74.437 v 123.616 H 633.922 v -123.616 h 51.666 v -20.667 h -51.666 v -123.617 h 51.666 v -41.077 h -51.666 v -21.173 h 340.615 v 21.173 h -51.666 v 41.077 h 51.666 v 123.617 h -51.666 v 20.667 z" style="fill:#292528;fill-opacity:1;fill-rule:nonzero;stroke:none" id="path44"/><g id="g46" transform="translate(1178.6133,1613.666)"><path d="M 0,0 H 54.333 L 114.557,-96.883 174.78,0 h 54.334 v -229.113 h -50.082 v 149.578 l -64.475,-97.864 h -1.309 L 49.424,-80.516 V -229.113 H 0 Z" style="fill:#c8131d;fill-opacity:1;fill-rule:nonzero;stroke:none" id="path48"/></g><g id="g50" transform="translate(1443.104,1613.666)"><path d="M 0,0 H 55.637 L 115.538,-161.361 175.432,0 h 54.333 L 137.137,-230.749 H 92.623 Z" style="fill:#c8131d;fill-opacity:1;fill-rule:nonzero;stroke:none" id="path52"/></g><g id="g54" transform="translate(1798.5791,1498.1289)"><path d="m 0,0 c 25.205,0 39.934,15.054 39.934,34.692 v 0.655 c 0,22.586 -15.71,34.695 -40.915,34.695 H -39.928 L -39.928,0 Z M -90.333,115.537 H 3.276 c 54.657,0 87.719,-32.402 87.719,-79.206 v -0.655 c 0,-53.024 -41.243,-80.52 -92.628,-80.52 h -38.295 v -68.732 h -50.405 z" style="fill:#c8131d;fill-opacity:1;fill-rule:nonzero;stroke:none" id="path56"/></g><g id="g58" transform="translate(1911.1982,1417.9385)"><path d="M 0,0 29.785,35.676 C 50.41,18.657 72.01,7.854 98.195,7.854 c 20.619,0 33.057,8.184 33.057,21.603 v 0.654 c 0,12.765 -7.857,19.313 -46.152,29.132 C 38.953,71.026 9.167,83.79 9.167,129.285 v 0.655 c 0,41.566 33.386,69.062 80.19,69.062 33.386,0 61.862,-10.474 85.1,-29.131 l -26.186,-37.967 c -20.29,14.074 -40.256,22.583 -59.572,22.583 -19.308,0 -29.457,-8.838 -29.457,-19.966 v -0.652 c 0,-15.057 9.82,-19.967 49.424,-30.115 46.481,-12.109 72.662,-28.802 72.662,-68.733 v -0.655 c 0,-45.495 -34.695,-71.026 -84.113,-71.026 C 62.52,-36.66 27.495,-24.548 0,0" style="fill:#c8131d;fill-opacity:1;fill-rule:nonzero;stroke:none" id="path60"/></g><path d="m 2124.74,1416.426 h 30.939 v -31.873 h -30.939 z" style="fill:#595959;fill-opacity:1;fill-rule:nonzero;stroke:none" id="path62"/><g id="g64" transform="translate(2189.1914,1507.3945)"><path d="M 0,0 H 28.153 V -19.079 C 36.059,-7.445 47.462,2.56 66.538,2.56 c 27.687,0 43.736,-18.613 43.736,-47.23 v -78.172 H 82.128 v 69.797 c 0,19.076 -9.538,30.014 -26.294,30.014 -16.283,0 -27.681,-11.402 -27.681,-30.48 v -69.331 H 0 Z" style="fill:#595959;fill-opacity:1;fill-rule:nonzero;stroke:none" id="path66"/></g><g id="g68" transform="translate(2417.6768,1454.583)"><path d="M 0,0 C -1.859,18.146 -12.563,32.34 -31.173,32.34 -48.396,32.34 -60.492,19.076 -63.052,0 Z m -90.966,-9.074 v 0.463 c 0,35.132 24.894,63.982 60.02,63.982 39.091,0 58.866,-30.71 58.866,-66.075 0,-2.56 -0.233,-5.118 -0.466,-7.908 h -90.272 c 3.025,-20.009 17.215,-31.176 35.364,-31.176 13.725,0 23.501,5.118 33.272,14.656 l 16.517,-14.656 c -11.631,-13.96 -27.687,-23.035 -50.255,-23.035 -35.593,0 -63.046,25.824 -63.046,63.749" style="fill:#595959;fill-opacity:1;fill-rule:nonzero;stroke:none" id="path70"/></g><g id="g72" transform="translate(2479.8135,1418.5215)"><path d="M 0,0 V 64.676 H -15.589 V 88.873 H 0 v 33.736 H 28.147 V 88.873 h 33.04 V 64.676 H 28.147 V 4.419 c 0,-10.934 5.585,-15.357 15.124,-15.357 6.285,0 11.864,1.397 17.449,4.19 V -29.78 C 53.741,-33.735 45.83,-36.062 35.359,-36.062 14.657,-36.062 0,-26.99 0,0" style="fill:#595959;fill-opacity:1;fill-rule:nonzero;stroke:none" id="path74"/></g></g></g><g id="g76"><g id="g78" clip-path="url(#clipPath82)"><g id="g84" transform="translate(917.522,1770.625)"><path d="m 0,0 2.177,-52.003 -42.194,24.28 z" style="fill:#fd2531;fill-opacity:1;fill-rule:nonzero;stroke:none" id="path86"/></g><g id="g88" transform="translate(968.6562,1681.1748)"><path d="m 0,0 v -52.049 l 41.142,26.025 z" style="fill:#fd2531;fill-opacity:1;fill-rule:nonzero;stroke:none" id="path90"/></g><g id="g92" transform="translate(877.5273,1632.1875)"><path d="M 0,0 84.848,-48.987 V 48.987 Z" style="fill:#fd2531;fill-opacity:1;fill-rule:nonzero;stroke:none" id="path94"/></g><g id="g96" transform="translate(871.6724,1634.9893)"><path d="M 0,0 -84.848,-48.987 V 48.987 Z" style="fill:#fd2531;fill-opacity:1;fill-rule:nonzero;stroke:none" id="path98"/></g><g id="g100" transform="translate(583.2773,1464.0098)"><path d="M 0,0 84.023,-48.511 V 48.511 Z" style="fill:#fd2531;fill-opacity:1;fill-rule:nonzero;stroke:none" id="path102"/></g><g id="g104" transform="translate(786.7378,1690.1699)"><path d="M 0,0 84.849,-48.987 V 48.987 Z" style="fill:#fd2531;fill-opacity:1;fill-rule:nonzero;stroke:none" id="path106"/></g><g id="g108" transform="translate(585.9131,1574.6387)"><path d="M 0,0 195.023,-112.597 V 112.597 Z" style="fill:#fd2531;fill-opacity:1;fill-rule:nonzero;stroke:none" id="path110"/></g><g id="g112" transform="translate(962.3755,1687.5498)"><path d="M 0,0 -84.848,-48.987 V 48.987 Z" style="fill:#fd2531;fill-opacity:1;fill-rule:nonzero;stroke:none" id="path114"/></g><g id="g116" transform="translate(875.876,1518.5913)"><path d="M 0,0 -88.875,-51.311 V 51.312 Z" style="fill:#fd2531;fill-opacity:1;fill-rule:nonzero;stroke:none" id="path118"/></g><g id="g120" transform="translate(670.104,1407.7129)"><path d="M 0,0 -88.01,-50.813 V 50.813 Z" style="fill:#fd2531;fill-opacity:1;fill-rule:nonzero;stroke:none" id="path122"/></g><g id="g124" transform="translate(667.936,1520.249)"><path d="M 0,0 -212.18,-122.502 V 122.502 Z" style="fill:#fd2531;fill-opacity:1;fill-rule:nonzero;stroke:none" id="path126"/></g></g></g><g id="g128"><g id="g130" clip-path="url(#clipPath134)"><g id="g136" transform="translate(654.4932,1715.4653)"><path d="m 0,0 v -52.049 l -41.142,26.025 z" style="fill:#d9151f;fill-opacity:1;fill-rule:nonzero;stroke:none" id="path138"/></g></g></g></g></svg>