<svg width="181" height="50" viewBox="0 0 181 50" fill="none" xmlns="http://www.w3.org/2000/svg">
<path d="M68.1308 20.1592V36.4459C68.1308 36.727 67.9434 36.9144 67.6623 36.9144H64.0552C63.7741 36.9144 63.5867 36.727 63.5867 36.4459V20.534C63.5867 17.8794 62.4 16.3491 60.3544 16.3491C58.1682 16.3491 56.8878 17.9575 56.8878 20.7214V36.4303C56.8878 36.7114 56.7004 36.8988 56.4193 36.8988H52.8122C52.5311 36.8988 52.3438 36.7114 52.3438 36.4303V13.2261C52.3438 12.945 52.5311 12.7576 52.8122 12.7576H56.4193C56.7004 12.7576 56.8878 12.945 56.8878 13.2261V14.4597C56.8878 14.6002 57.0283 14.647 57.1689 14.5065C58.4493 12.945 60.2607 12.4141 61.9627 12.4141C65.9446 12.4141 68.1308 15.2717 68.1308 20.1592Z" fill="black"/>
<path d="M87.8692 26.702H77.1416C77.0479 26.702 76.9542 26.7957 76.9542 26.8894V29.4503C76.9542 31.7301 78.3752 33.3385 80.3739 33.3385C82.1853 33.3385 83.4189 32.1049 83.7468 30.4496C83.8405 30.1686 83.981 30.0749 84.2621 30.0749L87.7755 30.2623C88.0566 30.2623 88.244 30.4496 88.1971 30.7307C87.7755 34.7595 85.0585 37.2891 80.3583 37.2891C75.4707 37.2891 72.3789 34.3535 72.3789 29.7938V19.925C72.3789 15.459 75.4707 12.3828 80.3583 12.3828C85.3396 12.3828 88.3377 15.4746 88.3377 19.925V26.2335C88.3533 26.5146 88.1659 26.702 87.8692 26.702ZM76.9542 20.206V22.7201C76.9542 22.8138 77.0479 22.9075 77.1416 22.9075H83.6375C83.7312 22.9075 83.8249 22.8138 83.8249 22.7201V20.206C83.8249 17.9262 82.4507 16.3179 80.3583 16.3179C78.3752 16.3022 76.9542 17.9262 76.9542 20.206Z" fill="black"/>
<path d="M101.408 16.0684H98.0815C97.9878 16.0684 97.8941 16.1621 97.8941 16.2558V29.5912C97.8941 32.2458 98.8466 32.9641 100.642 32.9172H101.064C101.345 32.9172 101.532 33.1046 101.532 33.3857V36.4307C101.532 36.7117 101.345 36.8991 101.064 36.8991H99.5961C95.9422 36.8991 93.475 35.9466 93.475 31.1996V16.2402C93.475 16.1465 93.3813 16.0528 93.2876 16.0528H91.4294C91.1483 16.0528 90.9609 15.8654 90.9609 15.5843V13.2264C90.9609 12.9453 91.1483 12.758 91.4294 12.758H93.2876C93.3813 12.758 93.475 12.6643 93.475 12.5706V7.19893C93.475 6.91785 93.6624 6.73047 93.9434 6.73047H97.41C97.6911 6.73047 97.8785 6.91785 97.8785 7.19893V12.5706C97.8785 12.6643 97.9722 12.758 98.0659 12.758H101.392C101.673 12.758 101.86 12.9453 101.86 13.2264V15.5999C101.876 15.881 101.689 16.0684 101.408 16.0684Z" fill="black"/>
<path d="M104.672 30.7933V30.3717C104.672 30.0906 104.859 29.9032 105.14 29.9032H108.529C108.81 29.9032 108.997 30.0437 108.997 30.278V30.6996C108.997 32.4016 110.465 33.7445 112.464 33.7445C114.416 33.7445 115.649 32.4173 115.649 30.6996C115.649 28.4666 113.37 27.6546 111.043 26.7177C108.529 25.6246 104.875 24.1099 104.875 19.3629C104.875 14.9906 107.811 12.5234 112.323 12.5234C117.024 12.5234 119.866 15.178 119.866 19.4098V19.5503C119.866 19.8314 119.678 20.0188 119.397 20.0188H116.118C115.837 20.0188 115.649 19.8314 115.649 19.5971V19.2068C115.649 17.5047 114.322 16.1149 112.417 16.1149C110.371 16.1149 109.232 17.5828 109.232 19.2068C109.232 21.2992 111.324 22.0487 113.744 23.095C116.399 24.2817 120.193 25.8901 120.193 30.4966C120.193 34.5722 117.195 37.1955 112.355 37.1955C107.623 37.1955 104.672 34.6815 104.672 30.7933Z" fill="black"/>
<path d="M139.666 20.1596V36.4463C139.666 36.7274 139.479 36.9148 139.197 36.9148H135.59C135.309 36.9148 135.122 36.7274 135.122 36.4463V20.5344C135.122 17.8798 133.935 16.3495 131.89 16.3495C129.703 16.3495 128.423 17.9579 128.423 20.7218V36.4307C128.423 36.7118 128.236 36.8992 127.954 36.8992H124.347C124.066 36.8992 123.879 36.7118 123.879 36.4307V4.154C123.879 3.87293 124.066 3.68555 124.347 3.68555H127.954C128.236 3.68555 128.423 3.87293 128.423 4.154V14.4601C128.423 14.6006 128.563 14.6474 128.704 14.5069C129.984 12.9454 131.796 12.4145 133.498 12.4145C137.48 12.4145 139.666 15.2721 139.666 20.1596Z" fill="black"/>
<path d="M143.941 29.7938V19.925C143.941 15.459 147.033 12.3828 151.968 12.3828C156.949 12.3828 159.994 15.4746 159.994 19.925V29.7938C159.994 34.3535 156.949 37.2891 151.968 37.2891C147.018 37.2891 143.941 34.3535 143.941 29.7938ZM155.419 29.4659V20.206C155.419 17.9262 153.998 16.3179 151.952 16.3179C149.906 16.3179 148.485 17.9262 148.485 20.206V29.4659C148.485 31.7457 149.906 33.3072 151.952 33.3072C153.998 33.3072 155.419 31.7301 155.419 29.4659Z" fill="black"/>
<path d="M180.67 19.8625V29.7313C180.67 34.4315 178.203 37.2266 174.064 37.2266C172.597 37.2266 170.785 36.7113 169.505 35.1811C169.364 35.0405 169.271 35.1342 169.271 35.2747V45.4871C169.271 45.7682 169.083 45.9556 168.802 45.9556H165.195C164.914 45.9556 164.727 45.7682 164.727 45.4871V13.226C164.727 12.945 164.914 12.7576 165.195 12.7576H168.802C169.083 12.7576 169.271 12.945 169.271 13.226V14.3191C169.271 14.4596 169.411 14.5065 169.552 14.3191C170.832 12.8981 172.597 12.3672 174.064 12.3672C178.296 12.3672 180.67 15.3653 180.67 19.8625ZM172.706 16.3022C170.66 16.3022 169.333 17.8638 169.333 20.1436V29.4503C169.333 31.7301 170.66 33.3385 172.706 33.3385C174.752 33.3385 176.126 31.7301 176.126 29.4503V20.1436C176.126 17.8794 174.736 16.3022 172.706 16.3022Z" fill="black"/>
<path d="M54.9829 49.8587H52.7031V42.4727H55.0766C55.7949 42.4727 56.4039 42.6132 56.9192 42.9099C57.4345 43.2066 57.8249 43.6282 58.0904 44.1747C58.3558 44.7212 58.4964 45.3771 58.4964 46.1422C58.4964 46.9074 58.3558 47.5788 58.0904 48.1254C57.8093 48.6719 57.4189 49.1091 56.888 49.4058C56.3571 49.7025 55.7325 49.8587 54.9829 49.8587ZM53.5932 49.0623H54.9205C55.8418 49.0623 56.5132 48.7968 56.9661 48.2815C57.4189 47.7662 57.6375 47.0479 57.6375 46.1422C57.6375 45.2522 57.4189 44.5495 56.9817 44.0342C56.5445 43.5189 55.8886 43.269 55.0298 43.269H53.6088V49.0623H53.5932Z" fill="black"/>
<path d="M61.8074 49.9984C61.4639 49.9984 61.136 49.9359 60.8549 49.7954C60.5738 49.6548 60.3396 49.4675 60.1678 49.2176C59.996 48.9678 59.918 48.6555 59.918 48.2963C59.918 47.984 59.9804 47.7185 60.1053 47.5155C60.2303 47.3125 60.402 47.1564 60.605 47.0471C60.808 46.9378 61.0423 46.8441 61.2921 46.7972C61.542 46.7348 61.8074 46.7036 62.0573 46.6567C62.4008 46.6099 62.6663 46.5786 62.8849 46.563C63.1035 46.5474 63.244 46.5006 63.3533 46.4381C63.447 46.3756 63.4939 46.2819 63.4939 46.157V46.1258C63.4939 45.7666 63.4002 45.5012 63.1972 45.2982C63.0098 45.0952 62.7131 45.0015 62.3227 45.0015C61.9167 45.0015 61.6044 45.0952 61.3702 45.267C61.136 45.4387 60.9798 45.6417 60.8861 45.8291L60.0741 45.548C60.2147 45.2045 60.4177 44.9547 60.6519 44.7673C60.8861 44.5799 61.1516 44.4393 61.4483 44.3769C61.7293 44.2988 62.026 44.2676 62.2915 44.2676C62.4633 44.2676 62.6819 44.2832 62.9005 44.33C63.1347 44.3769 63.3533 44.455 63.5719 44.5955C63.7905 44.7204 63.9623 44.9234 64.1185 45.1889C64.259 45.4543 64.3371 45.7979 64.3371 46.2351V49.8891H63.4939V49.1395H63.447C63.3845 49.2645 63.2909 49.3894 63.1659 49.5299C63.0254 49.6705 62.8536 49.7798 62.635 49.8734C62.4164 49.9359 62.1353 49.9984 61.8074 49.9984ZM61.948 49.2332C62.2915 49.2332 62.5726 49.1708 62.8068 49.0302C63.041 48.9053 63.2128 48.7335 63.3377 48.5149C63.4626 48.2963 63.5095 48.0933 63.5095 47.8591V47.0783C63.4782 47.1252 63.4002 47.1564 63.2752 47.2032C63.1503 47.2345 63.0098 47.2657 62.8536 47.2969C62.6975 47.3282 62.5413 47.3438 62.4008 47.3594C62.2603 47.375 62.1353 47.3906 62.0416 47.4062C61.823 47.4375 61.62 47.4843 61.417 47.5468C61.2296 47.6092 61.0735 47.7029 60.9486 47.8279C60.8236 47.9528 60.7768 48.1245 60.7768 48.3432C60.7768 48.6398 60.8861 48.8585 61.1047 49.0146C61.3233 49.1551 61.6044 49.2332 61.948 49.2332Z" fill="black"/>
<path d="M68.6154 44.3312V45.0495H67.4286V48.2819C67.4286 48.5161 67.4599 48.7035 67.538 48.8284C67.616 48.9533 67.6941 49.0314 67.819 49.0626C67.9283 49.1095 68.0533 49.1251 68.1782 49.1251C68.2719 49.1251 68.35 49.1251 68.4124 49.1095C68.4749 49.0939 68.5217 49.0938 68.5529 49.0782L68.7247 49.8434C68.6623 49.859 68.5842 49.8902 68.4905 49.9058C68.3812 49.9215 68.2563 49.9371 68.1001 49.9371C67.8659 49.9371 67.6316 49.8902 67.3974 49.7809C67.1632 49.6716 66.9758 49.5155 66.8353 49.3125C66.6791 49.0938 66.6167 48.8284 66.6167 48.5161V45.0495H65.7734V44.3312H66.6167V43.0039H67.4599V44.3312H68.6154Z" fill="black"/>
<path d="M71.8933 49.9984C71.5498 49.9984 71.2219 49.9359 70.9408 49.7954C70.6597 49.6548 70.4255 49.4675 70.2538 49.2176C70.082 48.9678 70.0039 48.6555 70.0039 48.2963C70.0039 47.984 70.0664 47.7185 70.1913 47.5155C70.3162 47.3125 70.488 47.1564 70.691 47.0471C70.894 46.9378 71.1282 46.8441 71.378 46.7972C71.6279 46.7348 71.8933 46.7036 72.1432 46.6567C72.4867 46.6099 72.7522 46.5786 72.9708 46.563C73.1894 46.5474 73.3299 46.5006 73.4392 46.4381C73.5329 46.3756 73.5798 46.2819 73.5798 46.157V46.1258C73.5798 45.7666 73.4861 45.5012 73.2831 45.2982C73.0957 45.0952 72.799 45.0015 72.4086 45.0015C72.0027 45.0015 71.6903 45.0952 71.4561 45.267C71.2219 45.4387 71.0657 45.6417 70.972 45.8291L70.1601 45.548C70.3006 45.2045 70.5036 44.9547 70.7378 44.7673C70.972 44.5799 71.2375 44.4393 71.5342 44.3769C71.8153 44.2988 72.112 44.2676 72.3774 44.2676C72.5492 44.2676 72.7678 44.2832 72.9864 44.33C73.2206 44.3769 73.4392 44.455 73.6579 44.5955C73.8765 44.7204 74.0482 44.9234 74.2044 45.1889C74.3449 45.4543 74.423 45.7979 74.423 46.2351V49.8891H73.5798V49.1395H73.5329C73.4705 49.2645 73.3768 49.3894 73.2519 49.5299C73.1113 49.6705 72.9396 49.7798 72.721 49.8734C72.4867 49.9359 72.2213 49.9984 71.8933 49.9984ZM72.0183 49.2332C72.3618 49.2332 72.6429 49.1708 72.8771 49.0302C73.1113 48.9053 73.2831 48.7335 73.408 48.5149C73.5329 48.2963 73.5798 48.0933 73.5798 47.8591V47.0783C73.5486 47.1252 73.4705 47.1564 73.3456 47.2032C73.2206 47.2345 73.0801 47.2657 72.9239 47.2969C72.7678 47.3282 72.6116 47.3438 72.4711 47.3594C72.3306 47.375 72.2056 47.3906 72.112 47.4062C71.8933 47.4375 71.6903 47.4843 71.4873 47.5468C71.3 47.6092 71.1438 47.7029 71.0189 47.8279C70.894 47.9528 70.8471 48.1245 70.8471 48.3432C70.8471 48.6398 70.9564 48.8585 71.175 49.0146C71.4093 49.1551 71.6903 49.2332 72.0183 49.2332Z" fill="black"/>
<path d="M85.5117 44.7837H84.6217C84.5436 44.4401 84.4187 44.159 84.2 43.9248C83.997 43.6906 83.7472 43.5188 83.4661 43.3939C83.1851 43.269 82.8727 43.2065 82.5448 43.2065C82.092 43.2065 81.686 43.3158 81.3268 43.55C80.9677 43.7687 80.671 44.1122 80.468 44.5494C80.2494 44.9866 80.1557 45.5332 80.1557 46.1734C80.1557 46.8136 80.265 47.3446 80.468 47.7974C80.6866 48.2346 80.9677 48.5625 81.3268 48.7968C81.686 49.0154 82.092 49.1403 82.5448 49.1403C82.8727 49.1403 83.1851 49.0778 83.4661 48.9529C83.7472 48.828 83.997 48.6562 84.2 48.422C84.403 48.1878 84.5436 47.9067 84.6217 47.5632H85.5117C85.418 48.0629 85.2306 48.5001 84.9496 48.8592C84.6685 49.2184 84.325 49.4995 83.9034 49.6868C83.4817 49.8742 83.0289 49.9679 82.5448 49.9679C81.9202 49.9679 81.3581 49.8118 80.8584 49.4995C80.3743 49.1872 79.9839 48.7499 79.7029 48.1878C79.4218 47.6256 79.2812 46.9542 79.2812 46.1734C79.2812 45.3927 79.4218 44.7212 79.7029 44.159C79.9839 43.5969 80.3743 43.1597 80.8584 42.8474C81.3425 42.5351 81.9046 42.3789 82.5448 42.3789C83.0445 42.3789 83.4974 42.4726 83.9034 42.66C84.3093 42.8474 84.6685 43.1284 84.9496 43.4876C85.2306 43.8467 85.418 44.284 85.5117 44.7837Z" fill="black"/>
<path d="M89.4632 49.9828C88.9323 49.9828 88.4639 49.8578 88.0891 49.6236C87.7143 49.3894 87.402 49.0615 87.199 48.6242C86.996 48.187 86.8867 47.7029 86.8867 47.1408C86.8867 46.5786 86.996 46.0789 87.199 45.6417C87.402 45.2045 87.6987 44.8766 88.0735 44.6267C88.4482 44.3769 88.8855 44.2676 89.3852 44.2676C89.6662 44.2676 89.9629 44.3144 90.244 44.4081C90.5251 44.5018 90.7749 44.658 91.0091 44.8766C91.2434 45.0952 91.4308 45.3763 91.5557 45.7354C91.6962 46.0946 91.7587 46.5162 91.7587 47.0471V47.4062H87.7456C87.7612 47.9996 87.9329 48.4525 88.2452 48.7648C88.5575 49.0771 88.9635 49.2332 89.4632 49.2332C89.7912 49.2332 90.0878 49.1551 90.3221 49.0146C90.5563 48.8741 90.7437 48.6555 90.8374 48.3588L91.665 48.593C91.5401 49.0146 91.2746 49.3425 90.8842 49.608C90.4938 49.8422 90.0254 49.9828 89.4632 49.9828ZM87.7299 46.6411H90.8842C90.8842 46.1726 90.7437 45.7823 90.4782 45.47C90.1972 45.1576 89.838 45.0015 89.3695 45.0015C89.0416 45.0015 88.7605 45.0796 88.5263 45.2357C88.2921 45.3919 88.1047 45.5949 87.9642 45.8291C87.8236 46.0633 87.7612 46.36 87.7299 46.6411Z" fill="black"/>
<path d="M94.2065 46.5318V49.8578H93.3633V44.3144H94.1909V45.1732H94.269C94.3939 44.8922 94.5969 44.6579 94.8623 44.4862C95.1278 44.3144 95.4713 44.2207 95.8929 44.2207C96.4551 44.2207 96.9079 44.3925 97.2515 44.736C97.595 45.0795 97.7668 45.6105 97.7668 46.3131V49.8266H96.9236V46.36C96.9236 45.9228 96.8142 45.5792 96.58 45.345C96.3614 45.0952 96.0491 44.9858 95.6431 44.9858C95.2371 44.9858 94.8936 45.1108 94.6281 45.3762C94.3314 45.6729 94.2065 46.0477 94.2065 46.5318Z" fill="black"/>
<path d="M101.998 44.3312V45.0495H100.811V48.2819C100.811 48.5161 100.843 48.7035 100.921 48.8284C100.999 48.9533 101.077 49.0314 101.202 49.0626C101.327 49.0939 101.436 49.1251 101.561 49.1251C101.655 49.1251 101.733 49.1251 101.795 49.1095C101.858 49.0939 101.905 49.0938 101.936 49.0782L102.108 49.8434C102.045 49.859 101.967 49.8902 101.873 49.9058C101.764 49.9215 101.639 49.9371 101.483 49.9371C101.249 49.9371 101.014 49.8902 100.78 49.7809C100.546 49.6716 100.359 49.5155 100.218 49.3125C100.062 49.0938 99.9995 48.8284 99.9995 48.5161V45.0495H99.1562V44.3312H99.9995V43.0039H100.843V44.3312H101.998Z" fill="black"/>
<path d="M105.92 49.9828C105.389 49.9828 104.921 49.8578 104.546 49.6236C104.156 49.3894 103.859 49.0615 103.656 48.6242C103.453 48.2026 103.344 47.7029 103.344 47.1408C103.344 46.5786 103.453 46.0789 103.656 45.6417C103.859 45.2045 104.156 44.8766 104.531 44.6267C104.905 44.3769 105.343 44.2676 105.842 44.2676C106.123 44.2676 106.42 44.3144 106.701 44.4081C106.982 44.5018 107.232 44.658 107.466 44.8766C107.7 45.0952 107.888 45.3763 108.013 45.7354C108.153 46.0946 108.216 46.5162 108.216 47.0471V47.4062H104.203C104.218 47.9996 104.39 48.4525 104.702 48.7648C105.015 49.0771 105.421 49.2332 105.92 49.2332C106.248 49.2332 106.545 49.1551 106.779 49.0146C107.013 48.8741 107.201 48.6555 107.294 48.3588L108.122 48.593C107.997 49.0146 107.732 49.3425 107.341 49.608C106.951 49.8422 106.482 49.9828 105.92 49.9828ZM104.187 46.6411H107.341C107.341 46.1726 107.201 45.7823 106.935 45.47C106.654 45.1576 106.295 45.0015 105.827 45.0015C105.499 45.0015 105.218 45.0796 104.983 45.2357C104.749 45.3919 104.562 45.5949 104.421 45.8291C104.281 46.0633 104.203 46.36 104.187 46.6411Z" fill="black"/>
<path d="M109.809 49.8578V44.3144H110.636V45.1576H110.699C110.792 44.8766 110.98 44.6579 111.245 44.4862C111.511 44.3144 111.807 44.2363 112.135 44.2363C112.291 44.2363 112.416 44.2519 112.541 44.2832C112.651 44.3144 112.76 44.3613 112.838 44.4237L112.557 45.142C112.494 45.1108 112.432 45.0796 112.338 45.0639C112.26 45.0483 112.166 45.0327 112.057 45.0327C111.651 45.0327 111.323 45.1576 111.058 45.4075C110.792 45.6573 110.667 45.9696 110.667 46.3288V49.8266H109.809V49.8578Z" fill="black"/>
<path d="M121.318 44.3308C121.271 43.9717 121.099 43.675 120.787 43.4876C120.474 43.2846 120.1 43.1909 119.662 43.1909C119.178 43.1909 118.772 43.3002 118.476 43.5344C118.179 43.7687 118.023 44.0654 118.023 44.4089C118.023 44.6743 118.101 44.893 118.273 45.0491C118.429 45.2053 118.632 45.3302 118.85 45.4239C119.069 45.5176 119.272 45.58 119.459 45.6269L120.209 45.8299C120.396 45.8767 120.615 45.9548 120.849 46.0329C121.083 46.1266 121.318 46.2359 121.536 46.392C121.755 46.5482 121.927 46.7356 122.083 46.9854C122.239 47.2352 122.301 47.5163 122.301 47.8599C122.301 48.2659 122.192 48.625 121.989 48.9373C121.786 49.2652 121.474 49.5151 121.083 49.7025C120.693 49.8898 120.209 49.9835 119.631 49.9835C118.835 49.9835 118.21 49.7961 117.742 49.4214C117.273 49.0466 117.023 48.5625 116.977 47.9535H117.898C117.929 48.2346 118.023 48.4689 118.179 48.6406C118.351 48.828 118.554 48.9529 118.804 49.0466C119.053 49.1403 119.334 49.1715 119.631 49.1715C119.975 49.1715 120.271 49.1091 120.552 48.9998C120.818 48.8905 121.037 48.7343 121.193 48.5313C121.349 48.3283 121.427 48.0941 121.427 47.8286C121.427 47.5788 121.364 47.3914 121.224 47.2352C121.083 47.0791 120.912 46.9542 120.677 46.8605C120.459 46.7668 120.209 46.6731 119.959 46.6106L119.053 46.3452C118.476 46.1734 118.023 45.9392 117.679 45.6425C117.336 45.3458 117.18 44.9398 117.18 44.4401C117.18 44.0341 117.289 43.6594 117.523 43.3627C117.742 43.0504 118.054 42.8161 118.429 42.6444C118.804 42.4726 119.241 42.3789 119.709 42.3789C120.178 42.3789 120.615 42.457 120.974 42.6288C121.333 42.8005 121.646 43.0347 121.849 43.3158C122.067 43.6125 122.176 43.9404 122.192 44.3152H121.318V44.3308Z" fill="black"/>
<path d="M126.268 49.9828C125.737 49.9828 125.269 49.8578 124.894 49.6236C124.503 49.3894 124.207 49.0615 124.004 48.6242C123.801 48.2026 123.691 47.7029 123.691 47.1408C123.691 46.5786 123.801 46.0789 124.004 45.6417C124.207 45.2045 124.503 44.8766 124.878 44.6267C125.253 44.3769 125.69 44.2676 126.19 44.2676C126.471 44.2676 126.768 44.3144 127.049 44.4081C127.33 44.5018 127.58 44.658 127.814 44.8766C128.048 45.0952 128.235 45.3763 128.36 45.7354C128.501 46.0946 128.563 46.5162 128.563 47.0471V47.4062H124.55C124.566 47.9996 124.738 48.4525 125.05 48.7648C125.362 49.0771 125.768 49.2332 126.268 49.2332C126.596 49.2332 126.893 49.1551 127.127 49.0146C127.361 48.8741 127.548 48.6555 127.642 48.3588L128.47 48.593C128.345 49.0146 128.079 49.3425 127.689 49.608C127.299 49.8422 126.83 49.9828 126.268 49.9828ZM124.535 46.6411H127.689C127.689 46.1726 127.548 45.7823 127.283 45.47C127.017 45.1576 126.643 45.0015 126.174 45.0015C125.846 45.0015 125.565 45.0796 125.331 45.2357C125.097 45.3919 124.909 45.5949 124.769 45.8291C124.628 46.0633 124.566 46.36 124.535 46.6411Z" fill="black"/>
<path d="M130.156 49.8578V44.3144H130.984V45.1576H131.046C131.14 44.8766 131.327 44.6579 131.593 44.4862C131.858 44.3144 132.155 44.2363 132.483 44.2363C132.639 44.2363 132.764 44.2519 132.889 44.2832C132.998 44.3144 133.108 44.3613 133.186 44.4237L132.905 45.142C132.842 45.1108 132.78 45.0796 132.702 45.0639C132.623 45.0483 132.53 45.0327 132.42 45.0327C132.014 45.0327 131.687 45.1576 131.421 45.4075C131.156 45.6573 131.031 45.9696 131.031 46.3288V49.8266H130.156V49.8578Z" fill="black"/>
<path d="M138.884 44.3301L136.838 49.8735H135.979L133.934 44.3301H134.855L136.385 48.7492H136.448L137.978 44.3301H138.884Z" fill="black"/>
<path d="M141.086 43.4251C140.914 43.4251 140.773 43.3626 140.664 43.2533C140.539 43.144 140.492 43.0034 140.492 42.8473C140.492 42.6911 140.555 42.5506 140.664 42.4413C140.789 42.332 140.929 42.2695 141.086 42.2695C141.257 42.2695 141.398 42.332 141.507 42.4413C141.632 42.5506 141.679 42.6911 141.679 42.8473C141.679 43.0034 141.616 43.144 141.507 43.2533C141.398 43.3626 141.257 43.4251 141.086 43.4251ZM140.664 49.8585V44.3151H141.507V49.8585H140.664Z" fill="black"/>
<path d="M145.616 49.9828C145.1 49.9828 144.647 49.8578 144.273 49.608C143.898 49.3581 143.617 49.0302 143.414 48.593C143.211 48.1558 143.117 47.6717 143.117 47.1252C143.117 46.563 143.226 46.0633 143.429 45.6417C143.632 45.2045 143.929 44.8766 144.304 44.6267C144.679 44.3769 145.116 44.2676 145.616 44.2676C146.006 44.2676 146.35 44.3457 146.662 44.4862C146.974 44.6267 147.224 44.8297 147.427 45.0952C147.63 45.3606 147.755 45.6573 147.802 46.0009H146.943C146.88 45.751 146.74 45.5324 146.506 45.3294C146.287 45.1264 145.99 45.0327 145.616 45.0327C145.116 45.0327 144.71 45.2201 144.413 45.5949C144.117 45.9696 143.96 46.4693 143.96 47.1096C143.96 47.7498 144.117 48.2651 144.413 48.6555C144.71 49.0458 145.116 49.2332 145.616 49.2332C145.944 49.2332 146.225 49.1552 146.474 48.9834C146.709 48.8116 146.865 48.5774 146.943 48.2807H147.786C147.739 48.6086 147.614 48.9053 147.427 49.1551C147.24 49.4206 146.99 49.6236 146.677 49.7798C146.396 49.9047 146.037 49.9828 145.616 49.9828Z" fill="black"/>
<path d="M151.655 49.9828C151.124 49.9828 150.655 49.8578 150.281 49.6236C149.89 49.3894 149.593 49.0615 149.39 48.6242C149.187 48.2026 149.078 47.7029 149.078 47.1408C149.078 46.5786 149.187 46.0789 149.39 45.6417C149.593 45.2045 149.89 44.8766 150.265 44.6267C150.64 44.3769 151.077 44.2676 151.577 44.2676C151.858 44.2676 152.154 44.3144 152.435 44.4081C152.716 44.5018 152.966 44.658 153.201 44.8766C153.435 45.0952 153.622 45.3763 153.747 45.7354C153.888 46.0946 153.95 46.5162 153.95 47.0471V47.4062H149.937C149.953 47.9996 150.124 48.4525 150.437 48.7648C150.749 49.0771 151.155 49.2332 151.655 49.2332C151.983 49.2332 152.279 49.1551 152.513 49.0146C152.748 48.8741 152.935 48.6555 153.029 48.3588L153.856 48.593C153.731 49.0146 153.466 49.3425 153.076 49.608C152.701 49.8422 152.217 49.9828 151.655 49.9828ZM149.937 46.6411H153.091C153.091 46.1726 152.951 45.7823 152.685 45.47C152.404 45.1576 152.045 45.0015 151.577 45.0015C151.249 45.0015 150.968 45.0796 150.733 45.2357C150.499 45.3919 150.312 45.5949 150.171 45.8291C150.031 46.0633 149.953 46.36 149.937 46.6411Z" fill="black"/>
<path d="M159.482 45.5636L158.717 45.7822C158.639 45.5949 158.514 45.4075 158.342 45.2357C158.17 45.0639 157.889 44.9859 157.514 44.9859C157.171 44.9859 156.89 45.0639 156.671 45.2201C156.452 45.3763 156.327 45.5792 156.327 45.8135C156.327 46.0321 156.406 46.1882 156.562 46.3132C156.718 46.4381 156.952 46.5318 157.28 46.6255L158.108 46.8285C159.091 47.0627 159.575 47.5624 159.575 48.3275C159.575 48.6398 159.482 48.9209 159.31 49.1708C159.138 49.4206 158.873 49.6236 158.545 49.7641C158.217 49.9047 157.842 49.9827 157.421 49.9827C156.858 49.9827 156.39 49.8578 156.015 49.608C155.64 49.3581 155.406 48.999 155.312 48.5305L156.124 48.3275C156.281 48.9209 156.702 49.2176 157.405 49.2176C157.795 49.2176 158.123 49.1395 158.357 48.9678C158.592 48.796 158.717 48.593 158.717 48.3588C158.717 47.9684 158.436 47.7029 157.889 47.578L156.968 47.3594C156.468 47.2345 156.093 47.0471 155.859 46.7972C155.625 46.5474 155.5 46.2195 155.5 45.8447C155.5 45.5324 155.594 45.2513 155.765 45.0171C155.937 44.7829 156.187 44.5955 156.484 44.455C156.796 44.3144 157.139 44.252 157.53 44.252C158.076 44.252 158.514 44.3769 158.826 44.6111C159.123 44.861 159.341 45.1733 159.482 45.5636Z" fill="black"/>
<path d="M26.5459 26.5459L0 37.2736V10.7277L26.5459 0V26.5459Z" fill="#0F3B93"/>
<path d="M30.917 30.4971L4.38672 41.2248V14.6788L30.917 3.95117V30.4971Z" fill="#0D40BF"/>
<path d="M35.3037 34.4619L8.75781 45.174V18.6437L35.3037 7.91602V34.4619Z" fill="#1152F4"/>
<path d="M15.1484 23.3293V49.8127L41.6943 39.0851V12.6953L15.1484 23.3293ZM22.2221 40.912L22.1441 27.561L36.1353 22.0801V35.1656L22.2221 40.912Z" fill="#FC7D1D"/>
</svg>
