<svg xmlns="http://www.w3.org/2000/svg" width="181" height="50" fill="none">
  <path fill="#000" d="M68.13 20.16v16.286c0 .281-.187.468-.468.468h-3.607c-.28 0-.468-.187-.468-.468V20.534c0-2.655-1.187-4.185-3.233-4.185-2.186 0-3.466 1.608-3.466 4.372v15.71c0 .28-.188.468-.469.468h-3.607c-.28 0-.468-.188-.468-.469V13.226c0-.281.187-.468.468-.468h3.607c.281 0 .469.187.469.468v1.234c0 .14.14.187.28.046 1.281-1.561 3.093-2.092 4.795-2.092 3.982 0 6.168 2.858 6.168 7.745m19.739 6.543H77.141a.2.2 0 0 0-.188.187v2.561c0 2.28 1.421 3.889 3.42 3.889 1.811 0 3.045-1.234 3.373-2.89.094-.28.234-.374.515-.374l3.513.187c.282 0 .469.188.422.469-.422 4.029-3.139 6.558-7.839 6.558-4.887 0-7.98-2.936-7.98-7.495v-9.869c0-4.466 3.093-7.542 7.98-7.542 4.982 0 7.98 3.092 7.98 7.542v6.308c.015.282-.172.469-.469.469m-10.916-6.496v2.514c0 .094.094.188.188.188h6.496a.2.2 0 0 0 .187-.188v-2.514c0-2.28-1.374-3.888-3.467-3.888-1.983-.016-3.404 1.608-3.404 3.888m24.456-4.138h-3.326a.2.2 0 0 0-.188.188V29.59c0 2.655.953 3.373 2.748 3.326h.422c.281 0 .468.188.468.469v3.045c0 .28-.187.468-.468.468h-1.468c-3.654 0-6.121-.952-6.121-5.7V16.24a.2.2 0 0 0-.187-.187h-1.859c-.28 0-.468-.188-.468-.469v-2.358c0-.28.187-.468.468-.468h1.859a.2.2 0 0 0 .187-.187V7.199c0-.281.187-.469.468-.469h3.467c.281 0 .469.188.469.469v5.372c0 .093.093.187.187.187h3.326c.281 0 .468.187.468.468V15.6c.016.281-.171.468-.452.468m3.264 14.725v-.421c0-.281.187-.469.468-.469h3.389c.281 0 .468.14.468.375v.422c0 1.702 1.468 3.045 3.467 3.045 1.952 0 3.185-1.328 3.185-3.045 0-2.233-2.279-3.045-4.606-3.982-2.514-1.093-6.168-2.608-6.168-7.355 0-4.372 2.936-6.84 7.448-6.84 4.701 0 7.543 2.655 7.543 6.887v.14c0 .281-.188.469-.469.469h-3.279c-.281 0-.469-.188-.469-.422v-.39c0-1.702-1.327-3.092-3.232-3.092-2.046 0-3.185 1.468-3.185 3.092 0 2.092 2.092 2.842 4.512 3.888 2.655 1.187 6.449 2.795 6.449 7.402 0 4.075-2.998 6.699-7.838 6.699-4.732 0-7.683-2.514-7.683-6.403m34.994-10.633v16.286c0 .281-.187.469-.469.469h-3.607c-.281 0-.468-.188-.468-.469V20.534c0-2.654-1.187-4.184-3.232-4.184-2.187 0-3.467 1.608-3.467 4.372V36.43c0 .28-.187.468-.469.468h-3.607c-.281 0-.468-.187-.468-.468V4.154c0-.281.187-.468.468-.468h3.607c.282 0 .469.187.469.468V14.46c0 .14.14.187.281.047 1.28-1.562 3.092-2.092 4.794-2.092 3.982 0 6.168 2.857 6.168 7.745m4.275 9.634v-9.869c0-4.466 3.092-7.542 8.027-7.542 4.981 0 8.026 3.092 8.026 7.542v9.869c0 4.56-3.045 7.495-8.026 7.495-4.95 0-8.027-2.936-8.027-7.495m11.478-.328v-9.26c0-2.28-1.421-3.888-3.467-3.888s-3.467 1.608-3.467 3.888v9.26c0 2.28 1.421 3.841 3.467 3.841s3.467-1.577 3.467-3.841m25.251-9.603v9.868c0 4.7-2.467 7.496-6.606 7.496-1.467 0-3.279-.516-4.559-2.046-.141-.14-.234-.047-.234.094v10.212c0 .281-.188.469-.469.469h-3.607c-.281 0-.468-.188-.468-.469V13.226c0-.281.187-.468.468-.468h3.607c.281 0 .469.187.469.468v1.093c0 .14.14.188.281 0 1.28-1.42 3.045-1.952 4.512-1.952 4.232 0 6.606 2.998 6.606 7.496m-7.964-3.56c-2.046 0-3.373 1.56-3.373 3.84v9.307c0 2.28 1.327 3.889 3.373 3.889s3.42-1.609 3.42-3.889v-9.306c0-2.265-1.39-3.842-3.42-3.842M54.983 49.859h-2.28v-7.386h2.374c.718 0 1.327.14 1.842.437q.774.445 1.171 1.265c.266.546.406 1.202.406 1.967s-.14 1.437-.406 1.983c-.28.547-.671.984-1.202 1.28s-1.155.454-1.905.454m-1.39-.797h1.327c.922 0 1.593-.265 2.046-.78.453-.516.672-1.234.672-2.14q-.001-1.335-.656-2.108c-.437-.515-1.093-.765-1.952-.765h-1.421v5.793zm8.214.936c-.343 0-.671-.062-.952-.203a1.8 1.8 0 0 1-.687-.577c-.172-.25-.25-.562-.25-.922 0-.312.062-.578.187-.78s.297-.36.5-.469a2.4 2.4 0 0 1 .687-.25c.25-.062.515-.093.765-.14.344-.047.61-.078.828-.094s.359-.062.468-.125a.32.32 0 0 0 .14-.281v-.031c0-.36-.093-.625-.296-.828-.187-.203-.484-.297-.874-.297-.406 0-.719.094-.953.266s-.39.375-.484.562l-.812-.281c.14-.343.344-.593.578-.78s.5-.329.796-.391a3.2 3.2 0 0 1 1.453-.047c.234.047.452.125.67.266.22.124.391.327.547.593.141.265.22.609.22 1.046v3.654h-.844v-.75h-.047c-.062.125-.156.25-.281.39-.14.141-.312.25-.531.344a3 3 0 0 1-.828.125m.141-.765c.343 0 .625-.062.859-.203a1.3 1.3 0 0 0 .53-.515 1.25 1.25 0 0 0 .172-.656v-.78c-.03.046-.109.077-.234.124a9 9 0 0 1-.421.094c-.157.031-.313.047-.453.062-.14.016-.266.032-.36.047a4 4 0 0 0-.624.14 1.2 1.2 0 0 0-.468.282c-.125.125-.172.296-.172.515 0 .297.11.515.328.672.218.14.5.218.843.218m6.667-4.902v.718H67.43v3.233c0 .234.03.422.109.546.078.125.156.203.281.235.11.046.234.062.36.062.093 0 .171 0 .233-.016.063-.015.11-.015.14-.03l.173.764c-.063.016-.14.047-.234.063a3 3 0 0 1-.39.031c-.235 0-.47-.047-.704-.156a1.4 1.4 0 0 1-.562-.468c-.156-.22-.218-.485-.218-.797V45.05h-.844v-.719h.844v-1.327h.843v1.327zm3.278 5.667c-.343 0-.671-.062-.952-.203a1.8 1.8 0 0 1-.687-.577c-.172-.25-.25-.562-.25-.922 0-.312.062-.578.187-.78s.297-.36.5-.469a2.4 2.4 0 0 1 .687-.25c.25-.062.515-.093.765-.14.344-.047.61-.078.828-.094s.359-.062.468-.125a.32.32 0 0 0 .14-.281v-.031c0-.36-.093-.625-.296-.828-.187-.203-.484-.297-.874-.297-.406 0-.719.094-.953.266s-.39.375-.484.562l-.812-.281c.14-.343.344-.593.578-.78s.5-.329.796-.391a3.2 3.2 0 0 1 1.452-.047c.235.047.453.125.672.266.218.124.39.327.546.593.14.265.219.609.219 1.046v3.654h-.843v-.75h-.047c-.062.125-.156.25-.281.39-.14.141-.312.25-.531.344a3 3 0 0 1-.828.125m.125-.765c.344 0 .625-.062.86-.203a1.3 1.3 0 0 0 .53-.515 1.25 1.25 0 0 0 .172-.656v-.78c-.031.046-.11.077-.234.124a9 9 0 0 1-.422.094c-.156.031-.312.047-.453.062-.14.016-.265.032-.359.047a4 4 0 0 0-.625.14 1.2 1.2 0 0 0-.468.282c-.125.125-.172.296-.172.515 0 .297.11.515.328.672.234.14.515.218.843.218m13.494-4.449h-.89c-.078-.344-.203-.625-.422-.86a2.1 2.1 0 0 0-.734-.53 2.3 2.3 0 0 0-.921-.187c-.453 0-.859.109-1.218.343-.36.219-.656.562-.859 1-.219.437-.312.983-.312 1.623s.109 1.172.312 1.624c.219.438.5.766.859 1 .359.218.765.343 1.218.343.328 0 .64-.062.921-.187s.531-.297.734-.531.344-.515.422-.859h.89a2.96 2.96 0 0 1-.562 1.296 2.7 2.7 0 0 1-1.047.828 3.3 3.3 0 0 1-1.358.28 3.1 3.1 0 0 1-1.687-.468 3.27 3.27 0 0 1-1.155-1.311q-.422-.843-.422-2.015 0-1.17.422-2.014c.28-.562.671-1 1.155-1.312q.727-.468 1.687-.468.75 0 1.358.281c.406.187.765.468 1.047.828.28.359.468.796.562 1.296m3.951 5.199c-.53 0-1-.125-1.374-.36a2.3 2.3 0 0 1-.89-.999 3.45 3.45 0 0 1-.312-1.483c0-.562.109-1.062.312-1.5.203-.436.5-.764.874-1.014.375-.25.813-.36 1.312-.36.281 0 .578.047.859.141s.53.25.765.469.422.5.547.858c.14.36.203.781.203 1.312v.36h-4.013c.015.593.187 1.046.5 1.358q.468.468 1.217.468c.328 0 .625-.078.86-.218.233-.14.42-.36.514-.656l.828.234c-.125.422-.39.75-.78 1.015-.391.234-.86.375-1.422.375M87.73 46.64h3.154c0-.468-.14-.859-.406-1.171-.28-.312-.64-.468-1.108-.468q-.493 0-.844.234a1.9 1.9 0 0 0-.562.593c-.14.234-.203.531-.234.812m6.477-.108v3.326h-.844v-5.544h.828v.86h.078a1.6 1.6 0 0 1 .593-.688c.266-.172.61-.265 1.03-.265q.844 0 1.36.515c.343.344.515.875.515 1.577v3.514h-.843V46.36c0-.437-.11-.78-.344-1.015-.219-.25-.53-.36-.937-.36-.406 0-.75.126-1.015.391-.297.297-.421.672-.421 1.156m7.791-2.201v.718h-1.187v3.233c0 .234.032.422.11.546s.156.203.281.235c.125.03.234.062.359.062.094 0 .172 0 .234-.016.063-.015.11-.015.141-.03l.172.764c-.063.016-.141.047-.235.063a3 3 0 0 1-.39.031 1.64 1.64 0 0 1-.703-.156 1.4 1.4 0 0 1-.562-.468c-.156-.22-.219-.485-.219-.797V45.05h-.843v-.719H100v-1.327h.844v1.327zm3.922 5.652c-.531 0-.999-.125-1.374-.36a2.2 2.2 0 0 1-.89-.999c-.203-.421-.312-.921-.312-1.483s.109-1.062.312-1.5c.203-.436.5-.764.875-1.014.374-.25.812-.36 1.311-.36.281 0 .578.047.859.141s.531.25.765.469.422.5.547.858c.14.36.203.781.203 1.312v.36h-4.013c.015.593.187 1.046.499 1.358q.47.468 1.218.468c.328 0 .625-.078.859-.218s.422-.36.515-.656l.828.234c-.125.422-.39.75-.781 1.015-.39.234-.859.375-1.421.375m-1.733-3.342h3.154c0-.468-.14-.859-.406-1.171-.281-.312-.64-.468-1.108-.468a1.5 1.5 0 0 0-.844.234 1.9 1.9 0 0 0-.562.593c-.14.234-.218.531-.234.812m5.622 3.217v-5.544h.827v.844h.063c.093-.281.281-.5.546-.672.266-.172.562-.25.89-.25.156 0 .281.016.406.047.11.031.219.078.297.14l-.281.719c-.063-.031-.125-.062-.219-.078a1.4 1.4 0 0 0-.281-.031c-.406 0-.734.125-.999.374-.266.25-.391.563-.391.922v3.498h-.858zm11.509-5.528c-.047-.358-.219-.655-.531-.842-.313-.203-.687-.297-1.125-.297-.484 0-.89.11-1.186.343-.297.235-.453.531-.453.875 0 .265.078.484.25.64.156.156.359.281.577.375.219.094.422.156.609.203l.75.203c.187.047.406.125.64.203.234.094.469.203.687.359s.391.344.547.593c.156.25.218.531.218.875 0 .406-.109.765-.312 1.077-.203.328-.515.578-.906.766q-.585.28-1.452.28c-.796 0-1.421-.187-1.889-.562-.469-.374-.719-.858-.765-1.468h.921c.031.282.125.516.281.688.172.187.375.312.625.406.249.093.53.125.827.125.344 0 .64-.063.921-.172a1.5 1.5 0 0 0 .641-.469q.234-.305.234-.702c0-.25-.063-.438-.203-.594a1.4 1.4 0 0 0-.547-.374 5 5 0 0 0-.718-.25l-.906-.266c-.577-.172-1.03-.406-1.374-.703-.343-.296-.499-.702-.499-1.202 0-.406.109-.78.343-1.077.219-.313.531-.547.906-.719a3.1 3.1 0 0 1 1.28-.265c.469 0 .906.078 1.265.25s.672.406.875.687c.218.296.327.624.343 1h-.874zm4.95 5.653c-.531 0-.999-.125-1.374-.36a2.2 2.2 0 0 1-.89-.999c-.203-.421-.313-.921-.313-1.483s.11-1.062.313-1.5c.203-.436.499-.764.874-1.014s.812-.36 1.312-.36c.281 0 .578.047.859.141s.531.25.765.469.421.5.546.858c.141.36.203.781.203 1.312v.36h-4.013c.016.593.188 1.046.5 1.358q.468.468 1.218.468c.328 0 .625-.078.859-.218s.421-.36.515-.656l.828.234c-.125.422-.391.75-.781 1.015-.39.234-.859.375-1.421.375m-1.733-3.342h3.154c0-.468-.141-.859-.406-1.171-.266-.312-.64-.468-1.109-.468q-.492 0-.843.234a1.85 1.85 0 0 0-.562.593c-.141.234-.203.531-.234.812m5.621 3.217v-5.544h.828v.844h.062c.094-.281.281-.5.547-.672.265-.172.562-.25.89-.25.156 0 .281.016.406.047a.9.9 0 0 1 .297.14l-.281.719c-.063-.031-.125-.062-.203-.078a1.4 1.4 0 0 0-.282-.031c-.406 0-.733.125-.999.374a1.22 1.22 0 0 0-.39.922v3.498h-.875zm8.728-5.528-2.046 5.544h-.859l-2.045-5.544h.921l1.53 4.42h.063l1.53-4.42zm2.202-.905a.58.58 0 0 1-.422-.172.51.51 0 0 1-.172-.406.57.57 0 0 1 .172-.406.63.63 0 0 1 .422-.172c.171 0 .312.063.421.172a.51.51 0 0 1 .172.406.57.57 0 0 1-.172.406.58.58 0 0 1-.421.172m-.422 6.434v-5.544h.843v5.544zm4.952.124c-.516 0-.969-.125-1.343-.375a2.4 2.4 0 0 1-.859-1.015c-.203-.437-.297-.921-.297-1.468 0-.562.109-1.062.312-1.483.203-.437.5-.765.875-1.015s.812-.36 1.312-.36c.39 0 .734.079 1.046.22.312.14.562.343.765.608.203.266.328.562.375.906h-.859c-.063-.25-.203-.469-.437-.672-.219-.203-.516-.296-.89-.296-.5 0-.906.187-1.203.562-.296.375-.453.874-.453 1.515s.157 1.155.453 1.546c.297.39.703.577 1.203.577.328 0 .609-.078.858-.25q.352-.257.469-.702h.843a1.9 1.9 0 0 1-.359.874 1.96 1.96 0 0 1-.75.625c-.281.125-.64.203-1.061.203m6.039 0c-.531 0-1-.125-1.374-.36a2.2 2.2 0 0 1-.891-.999c-.203-.421-.312-.921-.312-1.483s.109-1.062.312-1.5c.203-.436.5-.764.875-1.014s.812-.36 1.312-.36c.281 0 .577.047.858.141s.531.25.766.469.421.5.546.858c.141.36.203.781.203 1.312v.36h-4.013c.016.593.187 1.046.5 1.358q.468.468 1.218.468c.328 0 .624-.078.858-.218.235-.14.422-.36.516-.656l.827.234c-.125.422-.39.75-.78 1.015-.375.234-.859.375-1.421.375m-1.718-3.342h3.154c0-.468-.14-.859-.406-1.171-.281-.312-.64-.468-1.108-.468a1.5 1.5 0 0 0-.844.234 1.9 1.9 0 0 0-.562.593c-.14.234-.218.531-.234.812m9.545-1.077-.765.218a1.7 1.7 0 0 0-.375-.546c-.172-.172-.453-.25-.828-.25q-.514 0-.843.234c-.219.156-.344.36-.344.593 0 .22.079.375.235.5s.39.219.718.313l.828.203c.983.234 1.467.733 1.467 1.499 0 .312-.093.593-.265.843s-.437.453-.765.593a2.8 2.8 0 0 1-1.124.219q-.844 0-1.406-.375t-.703-1.077l.812-.203c.157.593.578.89 1.281.89.39 0 .718-.079.952-.25.235-.172.36-.375.36-.61 0-.39-.281-.655-.828-.78l-.921-.219c-.5-.125-.875-.312-1.109-.562a1.36 1.36 0 0 1-.359-.952c0-.313.094-.594.265-.828s.422-.422.719-.562c.312-.14.655-.203 1.046-.203.546 0 .984.125 1.296.36.297.249.515.561.656.952"/>
  <path fill="#0F3B93" d="M26.546 26.546 0 37.274V10.728L26.546 0z"/>
  <path fill="#0D40BF" d="M30.917 30.497 4.387 41.225V14.679L30.917 3.95z"/>
  <path fill="#1152F4" d="M35.304 34.462 8.758 45.174v-26.53L35.304 7.916z"/>
  <path fill="#FC7D1D" d="M15.148 23.33v26.483l26.546-10.728v-26.39zm7.074 17.582-.078-13.351 13.991-5.48v13.085z"/>
</svg>
