<svg xmlns="http://www.w3.org/2000/svg" width="285" height="70" version="1.0" viewBox="0 0 213.75 52.5">
  <defs>
    <clipPath id="b">
      <path d="M14.566 11.96H57.25v35.364H14.566Zm0 0"/>
    </clipPath>
    <clipPath id="c">
      <path d="M31.71 11.96h20.075c1.723 0 3.336.83 4.344 2.224a5.34 5.34 0 0 1 .734 4.824l-7.086 21.27a10.315 10.315 0 0 1-9.78 7.046H19.921a5.36 5.36 0 0 1-4.344-2.222 5.37 5.37 0 0 1-.734-4.825l7.09-21.27a10.31 10.31 0 0 1 9.777-7.046m0 0"/>
    </clipPath>
    <clipPath id="f">
      <path d="M3.156.453h42.688v35.363H3.156Zm0 0"/>
    </clipPath>
    <clipPath id="g">
      <path d="M20.3.453h20.075A5.354 5.354 0 0 1 45.457 7.5l-7.09 21.27a10.31 10.31 0 0 1-9.781 7.046H8.516a5.356 5.356 0 0 1-5.082-7.047L10.524 7.5A10.305 10.305 0 0 1 20.3.453m0 0"/>
    </clipPath>
    <clipPath id="e">
      <path d="M0 0h48v36H0z"/>
    </clipPath>
    <filter id="a" width="100%" height="100%" x="0%" y="0%">
      <feColorMatrix color-interpolation-filters="sRGB" values="0 0 0 0 1 0 0 0 0 1 0 0 0 0 1 0 0 0 1 0"/>
    </filter>
    <mask id="d">
      <g filter="url(#a)">
        <path fill-opacity=".8" d="M-21.375-5.25h256.5v63h-256.5z"/>
      </g>
    </mask>
  </defs>
  <g clip-path="url(#b)">
    <g clip-path="url(#c)">
      <path fill="#0558ee" d="M12.496 11.96h46.692v35.364H12.496Zm0 0"/>
    </g>
  </g>
  <g mask="url(#d)">
    <g clip-path="url(#e)" transform="translate(5 5)">
      <g clip-path="url(#f)">
        <g clip-path="url(#g)">
          <path fill="#38b6ff" d="M1.086.453h46.691v35.363H1.086Zm0 0"/>
        </g>
      </g>
    </g>
  </g>
  <path d="M77.582 42.872q-3.659 0-6.484-1.61-2.814-1.606-4.391-4.484c-1.055-1.926-1.578-4.164-1.578-6.719 0-2.457.523-4.625 1.578-6.5a11.36 11.36 0 0 1 4.375-4.422c1.863-1.07 4.031-1.61 6.5-1.61 2.457 0 4.625.54 6.5 1.61a11.36 11.36 0 0 1 4.406 4.422q1.576 2.814 1.578 6.5-.002 3.785-1.562 6.672a11.46 11.46 0 0 1-4.39 4.516q-2.816 1.627-6.532 1.625m0-5.047q2.86 0 4.64-2.156 1.782-2.17 1.782-5.61c0-1.445-.274-2.734-.813-3.86q-.798-1.684-2.234-2.655-1.441-.985-3.375-.985-1.876.002-3.36.953-1.47.957-2.296 2.657-.814 1.687-.813 3.89-.002 3.47 1.813 5.625c1.218 1.43 2.77 2.14 4.656 2.14m23.332 4.563h-5.86V18.044h5.86v3.078q1.483-2.028 3.078-2.813 1.605-.78 3.562-.781 3.341 0 5.047 1.203 1.716 1.188 2.547 2.875a9.7 9.7 0 0 1 .86 3.281q.14 1.658.14 3.485v14.015h-5.813v-14.11q0-1.855-.312-3-.299-1.155-.906-1.858-1.05-1.08-3.078-1.079c-1.649 0-2.875.493-3.688 1.47q-.737.877-1.094 2.312-.344 1.423-.343 3.859Zm23.996-27.031q-1.472.001-2.532-.906-1.065-.92-1.063-2.438c0-.976.352-1.781 1.063-2.406q1.06-.937 2.531-.937 1.481 0 2.547.937c.707.625 1.063 1.43 1.063 2.406q-.001 1.518-1.063 2.438-1.065.907-2.547.906m2.905 27.031h-5.859V18.044h5.86Zm15.8.485c-2.117 0-3.984-.536-5.61-1.61q-2.424-1.607-3.765-4.468-1.345-2.873-1.344-6.594-.002-3.734 1.344-6.594 1.34-2.873 3.766-4.469c1.625-1.07 3.492-1.61 5.61-1.61 1.444 0 2.71.259 3.796.767q1.622.752 3.11 2.828V9.278h5.843v33.11h-5.844v-3.079q-1.487 2.035-3.11 2.797-1.627.764-3.796.766m1.344-5.047q2.826.001 4.562-2.125 1.735-2.123 1.735-5.5 0-3.388-1.735-5.516c-1.156-1.414-2.68-2.125-4.562-2.125q-2.783 0-4.469 2.156-1.687 2.145-1.687 5.485 0 3.3 1.687 5.469 1.686 2.156 4.469 2.156m28.816 5.047q-3.737.001-6.531-1.625a11.5 11.5 0 0 1-4.344-4.453q-1.533-2.825-1.531-6.422c0-1.594.242-3.157.734-4.688a12.4 12.4 0 0 1 2.25-4.14c1.008-1.227 2.281-2.204 3.813-2.922q2.308-1.092 5.437-1.094c1.563 0 3.07.246 4.531.734a11.2 11.2 0 0 1 3.922 2.282c1.157 1.023 2.07 2.328 2.75 3.921.688 1.594 1.032 3.493 1.032 5.688v1.25H167.43a7.9 7.9 0 0 0 .922 2.875c.57 1.125 1.344 2 2.313 2.625q1.452.924 3.328.922 2.077 0 3.484-1.078c.938-.72 1.598-1.57 1.985-2.563h5.984a13.5 13.5 0 0 1-2.219 4.328q-1.517 1.97-3.86 3.172-2.345 1.186-5.593 1.188m-6.078-15.844h12.156a5 5 0 0 0-.25-1.078 3.3 3.3 0 0 0-.672-1.172 5.16 5.16 0 0 0-2.203-1.953 6.7 6.7 0 0 0-2.953-.656q-1.613 0-2.937.656c-.875.43-1.606 1.078-2.188 1.953a3.6 3.6 0 0 0-.672 1.172q-.188.598-.281 1.078M200.1 42.387h-3.765q-2.69.002-4.172-1.25-1.47-1.264-1.469-4.093V9.278h5.86v26.031c0 .813.148 1.387.453 1.719q.451.502 1.531.5h1.563Zm0 0"/>
</svg>
