<svg xmlns="http://www.w3.org/2000/svg" xmlns:xlink="http://www.w3.org/1999/xlink" width="285" zoomAndPan="magnify" viewBox="0 0 213.75 52.499999" height="70" preserveAspectRatio="xMidYMid meet" version="1.0"><defs><filter x="0%" y="0%" width="100%" height="100%" id="b3e68e8884"><feColorMatrix values="0 0 0 0 1 0 0 0 0 1 0 0 0 0 1 0 0 0 1 0" color-interpolation-filters="sRGB"/></filter><g/><clipPath id="e58e2d26e8"><path d="M 14.566406 11.960938 L 57.25 11.960938 L 57.25 47.324219 L 14.566406 47.324219 Z M 14.566406 11.960938 " clip-rule="nonzero"/></clipPath><clipPath id="cea5f6b7fe"><path d="M 31.710938 11.960938 L 51.785156 11.960938 C 53.507812 11.960938 55.121094 12.789062 56.128906 14.183594 C 57.136719 15.582031 57.410156 17.375 56.863281 19.007812 L 49.777344 40.277344 C 48.371094 44.484375 44.433594 47.324219 39.996094 47.324219 L 19.921875 47.324219 C 18.203125 47.324219 16.585938 46.496094 15.578125 45.101562 C 14.574219 43.703125 14.300781 41.910156 14.84375 40.277344 L 21.933594 19.007812 C 23.335938 14.800781 27.273438 11.960938 31.710938 11.960938 Z M 31.710938 11.960938 " clip-rule="nonzero"/></clipPath><mask id="6cd61b3d9f"><g filter="url(#b3e68e8884)"><rect x="-21.375" width="256.5" fill="#000000" y="-5.25" height="62.999998" fill-opacity="0.8"/></g></mask><clipPath id="b9d6e3274c"><path d="M 3.15625 0.453125 L 45.84375 0.453125 L 45.84375 35.816406 L 3.15625 35.816406 Z M 3.15625 0.453125 " clip-rule="nonzero"/></clipPath><clipPath id="535356dcb0"><path d="M 20.300781 0.453125 L 40.375 0.453125 C 42.097656 0.453125 43.714844 1.28125 44.71875 2.675781 C 45.726562 4.070312 46 5.867188 45.457031 7.5 L 38.367188 28.769531 C 36.964844 32.976562 33.023438 35.816406 28.585938 35.816406 L 8.515625 35.816406 C 6.792969 35.816406 5.175781 34.988281 4.171875 33.59375 C 3.164062 32.195312 2.890625 30.402344 3.433594 28.769531 L 10.523438 7.5 C 11.925781 3.289062 15.867188 0.453125 20.300781 0.453125 Z M 20.300781 0.453125 " clip-rule="nonzero"/></clipPath><clipPath id="0c408be91a"><rect x="0" width="48" y="0" height="36"/></clipPath></defs><g clip-path="url(#e58e2d26e8)"><g clip-path="url(#cea5f6b7fe)"><path fill="#0558ee" d="M 12.496094 11.960938 L 59.1875 11.960938 L 59.1875 47.324219 L 12.496094 47.324219 Z M 12.496094 11.960938 " fill-opacity="1" fill-rule="nonzero"/></g></g><g mask="url(#6cd61b3d9f)"><g transform="matrix(1, 0, 0, 1, 5, 5)"><g clip-path="url(#0c408be91a)"><g clip-path="url(#b9d6e3274c)"><g clip-path="url(#535356dcb0)"><path fill="#38b6ff" d="M 1.085938 0.453125 L 47.777344 0.453125 L 47.777344 35.816406 L 1.085938 35.816406 Z M 1.085938 0.453125 " fill-opacity="1" fill-rule="nonzero"/></g></g></g></g></g><g fill="#000000" fill-opacity="1"><g transform="translate(63.472508, 42.387265)"><g><path d="M 14.109375 0.484375 C 11.671875 0.484375 9.507812 -0.0507812 7.625 -1.125 C 5.75 -2.195312 4.285156 -3.691406 3.234375 -5.609375 C 2.179688 -7.535156 1.65625 -9.773438 1.65625 -12.328125 C 1.65625 -14.785156 2.179688 -16.953125 3.234375 -18.828125 C 4.285156 -20.710938 5.742188 -22.1875 7.609375 -23.25 C 9.472656 -24.320312 11.640625 -24.859375 14.109375 -24.859375 C 16.566406 -24.859375 18.734375 -24.320312 20.609375 -23.25 C 22.492188 -22.1875 23.960938 -20.710938 25.015625 -18.828125 C 26.066406 -16.953125 26.59375 -14.785156 26.59375 -12.328125 C 26.59375 -9.804688 26.070312 -7.582031 25.03125 -5.65625 C 23.988281 -3.738281 22.523438 -2.234375 20.640625 -1.140625 C 18.765625 -0.0546875 16.585938 0.484375 14.109375 0.484375 Z M 14.109375 -4.5625 C 16.015625 -4.5625 17.5625 -5.28125 18.75 -6.71875 C 19.9375 -8.164062 20.53125 -10.035156 20.53125 -12.328125 C 20.53125 -13.773438 20.257812 -15.0625 19.71875 -16.1875 C 19.1875 -17.3125 18.441406 -18.195312 17.484375 -18.84375 C 16.523438 -19.5 15.398438 -19.828125 14.109375 -19.828125 C 12.859375 -19.828125 11.738281 -19.507812 10.75 -18.875 C 9.769531 -18.238281 9.003906 -17.351562 8.453125 -16.21875 C 7.910156 -15.09375 7.640625 -13.796875 7.640625 -12.328125 C 7.640625 -10.015625 8.242188 -8.140625 9.453125 -6.703125 C 10.671875 -5.273438 12.222656 -4.5625 14.109375 -4.5625 Z M 14.109375 -4.5625 "/></g></g></g><g fill="#000000" fill-opacity="1"><g transform="translate(92.413604, 42.387265)"><g><path d="M 8.5 0 L 2.640625 0 L 2.640625 -24.34375 L 8.5 -24.34375 L 8.5 -21.265625 C 9.488281 -22.617188 10.515625 -23.554688 11.578125 -24.078125 C 12.648438 -24.597656 13.835938 -24.859375 15.140625 -24.859375 C 17.367188 -24.859375 19.050781 -24.457031 20.1875 -23.65625 C 21.332031 -22.863281 22.179688 -21.90625 22.734375 -20.78125 C 23.222656 -19.707031 23.507812 -18.613281 23.59375 -17.5 C 23.6875 -16.394531 23.734375 -15.234375 23.734375 -14.015625 L 23.734375 0 L 17.921875 0 L 17.921875 -14.109375 C 17.921875 -15.347656 17.816406 -16.347656 17.609375 -17.109375 C 17.410156 -17.878906 17.109375 -18.5 16.703125 -18.96875 C 16.003906 -19.6875 14.976562 -20.046875 13.625 -20.046875 C 11.976562 -20.046875 10.75 -19.554688 9.9375 -18.578125 C 9.445312 -17.992188 9.082031 -17.222656 8.84375 -16.265625 C 8.613281 -15.316406 8.5 -14.03125 8.5 -12.40625 Z M 8.5 0 "/></g></g></g><g fill="#000000" fill-opacity="1"><g transform="translate(119.315384, 42.387265)"><g><path d="M 5.59375 -27.03125 C 4.613281 -27.03125 3.769531 -27.332031 3.0625 -27.9375 C 2.351562 -28.550781 2 -29.363281 2 -30.375 C 2 -31.351562 2.351562 -32.15625 3.0625 -32.78125 C 3.769531 -33.40625 4.613281 -33.71875 5.59375 -33.71875 C 6.582031 -33.71875 7.429688 -33.40625 8.140625 -32.78125 C 8.847656 -32.15625 9.203125 -31.351562 9.203125 -30.375 C 9.203125 -29.363281 8.847656 -28.550781 8.140625 -27.9375 C 7.429688 -27.332031 6.582031 -27.03125 5.59375 -27.03125 Z M 8.5 0 L 2.640625 0 L 2.640625 -24.34375 L 8.5 -24.34375 Z M 8.5 0 "/></g></g></g><g fill="#000000" fill-opacity="1"><g transform="translate(131.160938, 42.387265)"><g><path d="M 12.453125 0.484375 C 10.335938 0.484375 8.46875 -0.0507812 6.84375 -1.125 C 5.226562 -2.195312 3.972656 -3.6875 3.078125 -5.59375 C 2.179688 -7.507812 1.734375 -9.707031 1.734375 -12.1875 C 1.734375 -14.675781 2.179688 -16.875 3.078125 -18.78125 C 3.972656 -20.695312 5.226562 -22.1875 6.84375 -23.25 C 8.46875 -24.320312 10.335938 -24.859375 12.453125 -24.859375 C 13.898438 -24.859375 15.164062 -24.601562 16.25 -24.09375 C 17.332031 -23.59375 18.367188 -22.648438 19.359375 -21.265625 L 19.359375 -33.109375 L 25.203125 -33.109375 L 25.203125 0 L 19.359375 0 L 19.359375 -3.078125 C 18.367188 -1.722656 17.332031 -0.789062 16.25 -0.28125 C 15.164062 0.226562 13.898438 0.484375 12.453125 0.484375 Z M 13.796875 -4.5625 C 15.679688 -4.5625 17.203125 -5.269531 18.359375 -6.6875 C 19.515625 -8.101562 20.09375 -9.9375 20.09375 -12.1875 C 20.09375 -14.445312 19.515625 -16.285156 18.359375 -17.703125 C 17.203125 -19.117188 15.679688 -19.828125 13.796875 -19.828125 C 11.941406 -19.828125 10.453125 -19.109375 9.328125 -17.671875 C 8.203125 -16.242188 7.640625 -14.414062 7.640625 -12.1875 C 7.640625 -9.988281 8.203125 -8.164062 9.328125 -6.71875 C 10.453125 -5.28125 11.941406 -4.5625 13.796875 -4.5625 Z M 13.796875 -4.5625 "/></g></g></g><g fill="#000000" fill-opacity="1"><g transform="translate(159.711525, 42.387265)"><g><path d="M 14.0625 0.484375 C 11.570312 0.484375 9.394531 -0.0546875 7.53125 -1.140625 C 5.664062 -2.234375 4.21875 -3.71875 3.1875 -5.59375 C 2.164062 -7.476562 1.65625 -9.617188 1.65625 -12.015625 C 1.65625 -13.609375 1.898438 -15.171875 2.390625 -16.703125 C 2.878906 -18.234375 3.628906 -19.613281 4.640625 -20.84375 C 5.648438 -22.070312 6.921875 -23.046875 8.453125 -23.765625 C 9.992188 -24.492188 11.804688 -24.859375 13.890625 -24.859375 C 15.453125 -24.859375 16.960938 -24.613281 18.421875 -24.125 C 19.878906 -23.632812 21.1875 -22.875 22.34375 -21.84375 C 23.5 -20.820312 24.414062 -19.515625 25.09375 -17.921875 C 25.78125 -16.328125 26.125 -14.429688 26.125 -12.234375 L 26.125 -10.984375 L 7.71875 -10.984375 C 7.78125 -10.460938 7.894531 -9.945312 8.0625 -9.4375 C 8.238281 -8.925781 8.429688 -8.484375 8.640625 -8.109375 C 9.210938 -6.984375 9.984375 -6.109375 10.953125 -5.484375 C 11.921875 -4.867188 13.03125 -4.5625 14.28125 -4.5625 C 15.664062 -4.5625 16.828125 -4.921875 17.765625 -5.640625 C 18.703125 -6.359375 19.363281 -7.210938 19.75 -8.203125 L 25.734375 -8.203125 C 25.265625 -6.640625 24.523438 -5.195312 23.515625 -3.875 C 22.503906 -2.5625 21.21875 -1.503906 19.65625 -0.703125 C 18.09375 0.0859375 16.226562 0.484375 14.0625 0.484375 Z M 7.984375 -15.359375 L 20.140625 -15.359375 C 20.109375 -15.679688 20.023438 -16.039062 19.890625 -16.4375 C 19.765625 -16.84375 19.539062 -17.234375 19.21875 -17.609375 C 18.664062 -18.484375 17.929688 -19.132812 17.015625 -19.5625 C 16.109375 -20 15.125 -20.21875 14.0625 -20.21875 C 12.988281 -20.21875 12.007812 -20 11.125 -19.5625 C 10.25 -19.132812 9.519531 -18.484375 8.9375 -17.609375 C 8.625 -17.234375 8.398438 -16.84375 8.265625 -16.4375 C 8.140625 -16.039062 8.046875 -15.679688 7.984375 -15.359375 Z M 7.984375 -15.359375 "/></g></g></g><g fill="#000000" fill-opacity="1"><g transform="translate(188.131941, 42.387265)"><g><path d="M 11.96875 0 L 8.203125 0 C 6.410156 0 5.019531 -0.414062 4.03125 -1.25 C 3.050781 -2.09375 2.5625 -3.457031 2.5625 -5.34375 L 2.5625 -33.109375 L 8.421875 -33.109375 L 8.421875 -7.078125 C 8.421875 -6.265625 8.570312 -5.691406 8.875 -5.359375 C 9.175781 -5.023438 9.6875 -4.859375 10.40625 -4.859375 L 11.96875 -4.859375 Z M 11.96875 0 "/></g></g></g></svg>