<svg xmlns="http://www.w3.org/2000/svg" viewBox="0 0 108 30">
	<style>
		.fill-gray-700 {
			fill: #374151;
		}

		.fill-gray-400 {
			fill: #9ca3af;
		}
	</style>
	<g fill="none" fill-rule="nonzero">
		<g class="fill-gray-700 dark:fill-gray-50">
			<path
				d="M57.3125 11.1875h-7.375V26.5H43.875V11.1875h-7.4375V6.25h20.875v4.9375zM80.8125 16.3125c0 1.875-.4375 3.625-1.3125 5.1875s-2.1875 2.8125-3.875 3.75c-1.75.9375-3.8125 1.375-6.25 1.375-2.5 0-4.625-.5-6.3125-1.4375-1.75-1-3-2.25-3.875-3.8125-.8125-1.5625-1.25-3.25-1.25-5.0625s.4375-3.5 1.25-5.0625 2.125-2.875 3.875-3.8125S66.9375 6 69.4375 6c1.875 0 3.5.25 5 .8125s2.6875 1.3125 3.625 2.25 1.625 2.0625 2.125 3.3125c.375 1.25.625 2.5625.625 3.9375Zm-6.25 0c0-.75-.125-1.4375-.3125-2.0625-.25-.625-.5625-1.1875-1-1.625s-1-.8125-1.625-1.0625-1.375-.375-2.25-.375c-1.625 0-2.9375.5-3.875 1.4375s-1.375 2.1875-1.375 3.75.5 2.8125 1.375 3.75c.9375.9375 2.1875 1.4375 3.8125 1.4375 1.125 0 2.0625-.25 2.875-.6875s1.375-1.0625 1.8125-1.8125.5625-1.75.5625-2.75ZM108.0625 26.4375H102V14.75l-5.5 6.75H96l-5.5-6.75v11.6875h-5.9375V6.25h5.5l6.1875 7.5625L102.5 6.25h5.5v20.1875z"></path>
		</g>
		<g class="fill-gray-700 dark:fill-gray-50">
			<path
				d="M7.3125 11.9375H15.5L5.1875 1.625c-1.125-1.125-3-1.125-4.125 0s-1.125 3 0 4.125l6.25 6.1875ZM21.3125 17.75H13.125l10.8125 10.8125c1.125 1.125 3 1.125 4.125 0s1.125-3 0-4.125l-6.75-6.6875Z"></path>
		</g>
		<g class="fill-gray-400 dark:fill-gray-600">
			<path
				d="M21.5625 11.9375 28 5.5c1.125-1.125 1.125-3 0-4.125s-3-1.125-4.125 0L13.3125 11.9375h8.25ZM7.5 17.75l-6.4375 6.4375c-1.125 1.125-1.125 3 0 4.125s3 1.125 4.125 0L15.75 17.75H7.5Z"></path>
		</g>
	</g>
</svg>
