<svg xmlns="http://www.w3.org/2000/svg" viewBox="0 0 108 30">
  <g fill="none">
    <path d="M57.313 11.188h-7.376V26.5h-6.062V11.187h-7.438V6.25h20.876zm23.5 5.124c0 1.875-.438 3.625-1.313 5.188s-2.188 2.813-3.875 3.75c-1.75.938-3.813 1.375-6.25 1.375-2.5 0-4.625-.5-6.313-1.438-1.75-1-3-2.25-3.874-3.812-.813-1.563-1.25-3.25-1.25-5.063s.437-3.5 1.25-5.062 2.124-2.875 3.874-3.813S66.939 6 69.439 6c1.874 0 3.5.25 5 .813s2.687 1.312 3.624 2.25 1.626 2.062 2.126 3.312c.374 1.25.624 2.563.624 3.938Zm-6.25 0a7.2 7.2 0 0 0-.313-2.062c-.25-.625-.563-1.188-1-1.625s-1-.813-1.625-1.063-1.375-.374-2.25-.374c-1.625 0-2.938.5-3.875 1.437s-1.375 2.188-1.375 3.75.5 2.813 1.375 3.75c.938.938 2.188 1.438 3.813 1.438 1.124 0 2.062-.25 2.874-.688s1.376-1.063 1.813-1.813.563-1.75.563-2.75m33.5 10.125H102V14.75l-5.5 6.75H96l-5.5-6.75v11.688h-5.938V6.25h5.5l6.188 7.563 6.25-7.563h5.5v20.188zM7.313 11.938H15.5L5.187 1.624C4.063.5 2.188.5 1.063 1.625s-1.125 3 0 4.125zm14 5.812h-8.188l10.813 10.813c1.125 1.125 3 1.125 4.125 0s1.125-3 0-4.125z" class="dark:fill-gray-50" style="fill:#374151"/>
    <path d="M21.563 11.938 28 5.5c1.125-1.125 1.125-3 0-4.125s-3-1.125-4.125 0L13.312 11.938h8.25ZM7.5 17.75l-6.438 6.438c-1.125 1.125-1.125 3 0 4.125s3 1.125 4.125 0L15.75 17.75z" class="dark:fill-gray-600" style="fill:#9ca3af"/>
  </g>
</svg>
