<svg xmlns="http://www.w3.org/2000/svg" width="246" height="54">
  <defs>
    <linearGradient id="a" x1="5.582%" x2="98.358%" y1="31.803%" y2="68.31%">
      <stop offset="0%" stop-color="#1DBFFF"/>
      <stop offset="100%" stop-color="#1EA0F3"/>
    </linearGradient>
    <linearGradient id="b" x1="10.134%" x2="97.029%" y1="31.338%" y2="67.025%">
      <stop offset="0%" stop-color="#2BCDFD"/>
      <stop offset="100%" stop-color="#87E6FF"/>
    </linearGradient>
    <linearGradient id="c" x1="17.674%" x2="100.053%" y1="17.313%" y2="72.428%">
      <stop offset="0%" stop-color="#32B4F8"/>
      <stop offset="100%" stop-color="#1073D8"/>
    </linearGradient>
  </defs>
  <g fill="none" fill-rule="evenodd">
    <path fill="url(#a)" fill-rule="nonzero" d="M32.343 6.802A17 17 0 0 0 26.92 5.56h-1.046a17.142 17.142 0 0 0-16.04 23.162v-.85c0-8.7 7.053-15.752 15.753-15.752s15.752 7.053 15.752 15.752a16 16 0 0 1-.54 4.113 16 16 0 0 1-2.298 4.86A20.865 20.865 0 0 1 0 26.253v.598a26.862 26.862 0 0 0 36.57 25.035 24.794 24.794 0 0 0-4.227-45.084"/>
    <path fill="url(#b)" fill-rule="nonzero" d="M25.564 43.66c-8.384.004-15.3-6.563-15.73-14.937A17.142 17.142 0 0 1 25.92 5.526h1.046l-.862-.08c-.678 0-1.367-.08-2.057-.08A25.2 25.2 0 0 0 .655 20.933l-.241.609A20.7 20.7 0 0 0 0 25.702v.551a20.865 20.865 0 0 0 38.5 10.593 15.73 15.73 0 0 1-12.936 6.814"/>
    <path fill="url(#c)" fill-rule="nonzero" d="M26.85 0A26.85 26.85 0 0 0 1.69 17.464a20.5 20.5 0 0 0-1.275 4.079l.24-.61A25.2 25.2 0 0 1 24.002 5.4c.69 0 1.379 0 2.057.08l.862.08c1.863.115 3.695.534 5.423 1.242a24.794 24.794 0 0 1 4.228 45.084c12.054-4.673 19.067-17.272 16.686-29.98C50.877 9.2 39.78-.006 26.851 0z"/>
    <path fill="#081E5E" d="M88.87 18.13v1.84l-12.53 15.2h13v2.69H72v-1.84l12.6-15.24h-12v-2.65zm19.5 0a6.33 6.33 0 0 1 4.49 1.67 5.13 5.13 0 0 1 1.84 4.07v3.83l-1.25.53c-.33.12-.68.24-1 .35a3.4 3.4 0 0 1-.87.15h-10.76a2.54 2.54 0 0 1-1.41-.46 18 18 0 0 1-1.75-1.34v4.57a3.4 3.4 0 0 0 1.17 2.59 4 4 0 0 0 2.82 1.07h6.17a3.9 3.9 0 0 0 2.79-1.07 3.37 3.37 0 0 0 1.18-2.59v-.22h2.91v.79a5.19 5.19 0 0 1-1.88 4.09 6.45 6.45 0 0 1-4.45 1.69h-7.59a6.54 6.54 0 0 1-4.45-1.69 5.4 5.4 0 0 1-1.86-4.09v-8.2a5.37 5.37 0 0 1 1.86-4.09 6.24 6.24 0 0 1 4.45-1.65zm-9.57 3.55a3.38 3.38 0 0 0-1.14 2.6v1.95h13.88v-1.95a3.29 3.29 0 0 0-1.18-2.6 4.07 4.07 0 0 0-2.84-1.09h-5.87a4.14 4.14 0 0 0-2.85 1.09m25.2-3.55.51 1.78c.48-.37.89-.66 1.23-.88a11 11 0 0 1 1-.62 2 2 0 0 1 .89-.28H134a6.33 6.33 0 0 1 4.49 1.67 5.13 5.13 0 0 1 1.84 4.07v14h-3.16V24.5a3.34 3.34 0 0 0-1.18-2.62 4 4 0 0 0-2.84-1.06h-8.69v17.04h-3.18V18.13zM147.86 9h3.19v28.86h-3.19zm21.72 9.13a6.33 6.33 0 0 1 4.5 1.67 5.19 5.19 0 0 1 1.84 4.09v14h-2.67l-.5-1.8c-.5.39-.92.7-1.25.92q-.485.33-1 .61c-.27.152-.57.244-.88.27h-6.46a6.68 6.68 0 0 1-4.49-1.69 5.23 5.23 0 0 1-1.86-4.05v-.48a5.37 5.37 0 0 1 1.86-4.09 6.3 6.3 0 0 1 4.45-1.66h9.67v-1.61a3.36 3.36 0 0 0-1.18-2.63 4.05 4.05 0 0 0-2.84-1.09h-9.84v-2.46zm-8.49 11.37a2.88 2.88 0 0 0-1.09 2.36 3.2 3.2 0 0 0 1.14 2.36 4.3 4.3 0 0 0 2.86 1h8.8v-6.86H164a4.16 4.16 0 0 0-2.91 1.14m23.31-11.37 7.29 17 7.64-17h3.72L189.83 45.5h-3.66l2.83-4.82a19 19 0 0 1 1.36-1.82l-9.66-20.73zm37.01 0a6.33 6.33 0 0 1 4.49 1.67 5.13 5.13 0 0 1 1.84 4.07v3.83l-1.25.53c-.33.12-.68.24-1 .35a3.4 3.4 0 0 1-.87.15h-10.76a2.56 2.56 0 0 1-1.41-.46 19 19 0 0 1-1.76-1.34v4.57a3.41 3.41 0 0 0 1.18 2.59 4 4 0 0 0 2.82 1.07h6.17a3.9 3.9 0 0 0 2.79-1.07 3.37 3.37 0 0 0 1.18-2.59v-.22h2.91v.79a5.19 5.19 0 0 1-1.88 4.09 6.45 6.45 0 0 1-4.45 1.69h-7.59a6.56 6.56 0 0 1-4.45-1.69 5.4 5.4 0 0 1-1.86-4.09v-8.2a5.37 5.37 0 0 1 1.86-4.09 6.25 6.25 0 0 1 4.45-1.65zm-9.57 3.55a3.39 3.39 0 0 0-1.15 2.6v1.95h13.89v-1.95a3.29 3.29 0 0 0-1.18-2.6 4.07 4.07 0 0 0-2.84-1.09h-5.87a4.14 4.14 0 0 0-2.85 1.09M237 18.13l.52 1.78c.47-.37.88-.66 1.22-.88s.69-.43 1.05-.62a2 2 0 0 1 .89-.28h5.19v2.65h-8.35v17.08h-3.17V18.13z"/>
  </g>
</svg>
