<svg xmlns="http://www.w3.org/2000/svg" width="320" height="127.677" data-name="Layer 1">
  <path d="M-128-224.162h576v576h-576z" style="fill:#fff"/>
  <path d="M0 118.787h62.222v8.89H0zm0-16.969h62.222v8.89H0zm17.778-16.97h26.667v8.89H17.778zm0-16.97h26.667v8.89H17.778zm0-16.968h26.667v8.888H17.778zm0-16.97h26.667v8.888H17.778zM0 16.97h62.222v8.888H0zM0 0h62.222v8.89H0zm71.111 110.707h94.842a33.7 33.7 0 0 0 3.576-8.889H71.111zm87.418-42.829h-69.64v8.89h77.054a34.1 34.1 0 0 0-7.414-8.89m-69.64-16.969v8.89h69.64a34.1 34.1 0 0 0 7.415-8.89zm77.064-33.939H71.111v8.888h98.418a33.7 33.7 0 0 0-3.576-8.888M136.566 0H71.11v8.889h88.35A33.8 33.8 0 0 0 136.566 0M88.889 33.94h26.667v8.888H88.889zm51.717 8.888h28.71a34 34 0 0 0 1.19-8.889h-29.9zm-51.717 42.02h26.667v8.89H88.889zm51.717 0v8.89h29.9a34 34 0 0 0-1.19-8.89zm-69.495 42.74 65.455.088a33.7 33.7 0 0 0 22.896-8.889h-88.35zm174.688-8.801 3.076 8.89 3.104-8.89zm12.137-16.969h-18.094l3.12 8.89h11.854zm5.958-16.97h-30.01l3.121 8.89h23.768zm5.957-16.97h-41.924l3.12 8.89h35.684zM240.489 33.94h-44.933v8.888h48.024zM320 16.97h-56.81l-3.091 8.888H320zm0-8.08V0h-50.909L266 8.89zM177.778 118.787h44.444v8.89h-44.444zm0-16.969h44.444v8.89h-44.444zm17.778-16.97h26.667v8.89h-26.667zm0-16.97h26.667v8.89h-26.667zm58.642-25.05h48.024V33.94h-44.933zm48.024 8.082h-50.835l-2.498 7.184-2.499-7.185h-50.834v8.89h26.666v-8.17l2.868 8.17h47.598l2.868-8.169v8.168h26.666zm-26.666 16.968h26.667v8.89h-26.667zm0 16.97h26.667v8.89h-26.667zm0 16.97H320v8.89h-44.444zm0 16.969H320v8.89h-44.444zM177.778 16.97v8.888h59.901l-3.091-8.889zm0-16.97v8.89h54L228.687 0z"/>
</svg>
