<svg xmlns="http://www.w3.org/2000/svg" width="297" height="60" fill="none">
  <g fill="#17D4A7" clip-path="url(#a)">
    <path d="M23.895 14.033a6.083 6.083 0 0 1 9.967.592 72.687 72.687 0 0 1 19.733-3.113A29.932 29.932 0 0 0 7.492 10.2a77.415 77.415 0 0 1 16.403 3.833Zm31.493.007-1.763.045a70.54 70.54 0 0 0-19.005 3c.008.122.008.245 0 .367a5.595 5.595 0 0 1-1.44 3.75 96.105 96.105 0 0 1 5.498 8.528 79.38 79.38 0 0 1 2.04 3.795h.307a3.863 3.863 0 0 1 2.25.697c5.055-4.305 9.54-10.087 13.455-17.347l.12-.218m-25.755 6.038a6.121 6.121 0 0 1-2.415.495 6.045 6.045 0 0 1-4.5-1.98c-7.56 3.825-15.465 9.885-20.82 19.5a42.752 42.752 0 0 0 11.34 2.617 3.615 3.615 0 0 1 6.487.06h.323a36.944 36.944 0 0 0 16.005-5.047 3.375 3.375 0 0 1-.225-1.2 3.532 3.532 0 0 1 1.095-2.55 90.243 90.243 0 0 0-7.29-11.895Z"/>
    <path d="M43.538 56.453c.645-5.116-.51-10.576-2.445-15.75h-.046a3.832 3.832 0 0 1-1.874-.488 39.21 39.21 0 0 1-17.588 5.692h-.323a3.608 3.608 0 0 1-6.697-.06 43.897 43.897 0 0 1-11.4-2.505A30 30 0 0 0 43.5 56.73l.038-.277Zm14.594-36.855A61.236 61.236 0 0 1 44.7 36.255c.076.281.114.571.112.862a3.57 3.57 0 0 1-1.29 2.723c2.093 5.58 3 10.717 2.708 15.367a29.947 29.947 0 0 0 11.902-35.61Zm-35.212-.645a5.43 5.43 0 0 1-.105-2.558A75.894 75.894 0 0 0 5.603 12.57 29.94 29.94 0 0 0 1.38 38.992c4.86-8.497 12.158-15.292 21.54-20.04Z"/>
  </g>
  <path fill="#212121" d="M101.86 29.028v13.004c-.512.616-1.3 1.284-2.367 2.005-1.066.706-2.442 1.315-4.124 1.826-1.683.51-3.718.766-6.107.766-2.119 0-4.05-.346-5.792-1.037a12.515 12.515 0 0 1-4.507-3.087c-1.247-1.352-2.209-3.005-2.885-4.958-.676-1.968-1.014-4.214-1.014-6.738v-2.051c0-2.524.323-4.77.969-6.738.661-1.969 1.6-3.629 2.817-4.98a12.054 12.054 0 0 1 4.35-3.088c1.682-.707 3.553-1.06 5.611-1.06 2.855 0 5.198.466 7.031 1.398 1.833.916 3.23 2.193 4.192 3.83.976 1.623 1.577 3.486 1.803 5.59h-6.558c-.165-1.112-.48-2.081-.947-2.908a4.887 4.887 0 0 0-2.005-1.938c-.857-.465-1.969-.698-3.336-.698-1.126 0-2.133.233-3.02.698-.871.451-1.607 1.12-2.208 2.006-.601.887-1.06 1.983-1.375 3.29-.315 1.308-.473 2.825-.473 4.553v2.096c0 1.712.165 3.23.496 4.552.33 1.307.819 2.411 1.465 3.313a6.385 6.385 0 0 0 2.433 2.005c.962.451 2.081.676 3.358.676 1.067 0 1.954-.09 2.66-.27.721-.18 1.299-.398 1.734-.654.452-.27.797-.525 1.037-.766v-5.814h-6.174v-4.823h12.936Zm11.898-17.465v34.615h-6.512V11.563h6.512Zm4.328 22.671v-.473c0-1.788.254-3.433.766-4.936.51-1.517 1.254-2.832 2.231-3.943.976-1.112 2.178-1.976 3.605-2.592 1.427-.631 3.065-.947 4.913-.947 1.848 0 3.494.316 4.936.947 1.442.616 2.652 1.48 3.628 2.592.992 1.111 1.743 2.426 2.253 3.943.512 1.503.767 3.148.767 4.936v.473c0 1.773-.255 3.418-.767 4.935-.51 1.503-1.261 2.818-2.253 3.944-.976 1.112-2.178 1.976-3.606 2.592-1.427.616-3.065.924-4.913.924-1.848 0-3.493-.308-4.935-.924-1.428-.616-2.637-1.48-3.628-2.592-.977-1.127-1.721-2.441-2.231-3.944-.512-1.517-.766-3.162-.766-4.935Zm6.49-.473v.473c0 1.022.09 1.976.27 2.862.18.887.466 1.668.857 2.344a4.46 4.46 0 0 0 1.577 1.555c.646.376 1.435.563 2.366.563.902 0 1.676-.188 2.322-.563a4.28 4.28 0 0 0 1.554-1.555c.392-.676.677-1.457.857-2.344.195-.886.293-1.84.293-2.862v-.473c0-.992-.098-1.923-.293-2.795-.18-.886-.474-1.667-.879-2.343A4.36 4.36 0 0 0 131.945 27c-.646-.39-1.427-.586-2.344-.586-.916 0-1.698.195-2.344.586a4.61 4.61 0 0 0-1.554 1.623c-.391.676-.677 1.457-.857 2.343a13.8 13.8 0 0 0-.27 2.795Zm20.597-22.198h6.491v29.026l-.653 5.59h-5.838V11.562Zm21.928 22.175v.474c0 1.817-.195 3.485-.585 5.002-.376 1.518-.962 2.833-1.759 3.944a8.428 8.428 0 0 1-2.974 2.57c-1.172.6-2.554.9-4.147.9-1.487 0-2.78-.3-3.876-.9-1.082-.602-1.99-1.45-2.727-2.547-.736-1.097-1.329-2.381-1.781-3.854-.45-1.472-.788-3.08-1.013-4.822v-1.037c.225-1.743.563-3.35 1.013-4.823.452-1.472 1.045-2.757 1.781-3.854.737-1.096 1.645-1.945 2.727-2.546 1.082-.601 2.359-.902 3.831-.902 1.607 0 3.005.308 4.192.924a7.904 7.904 0 0 1 2.974 2.57c.797 1.096 1.383 2.403 1.759 3.92.39 1.503.585 3.163.585 4.981Zm-6.49.474v-.474c0-.991-.075-1.923-.225-2.794-.136-.887-.376-1.66-.721-2.321a4.091 4.091 0 0 0-1.42-1.6c-.586-.391-1.345-.587-2.276-.587-.887 0-1.638.15-2.255.451-.615.3-1.126.721-1.532 1.262-.39.541-.683 1.187-.879 1.938a11.996 11.996 0 0 0-.361 2.434v2.953c.046 1.187.241 2.238.587 3.155.361.901.901 1.615 1.622 2.14.737.511 1.691.767 2.863.767.916 0 1.674-.18 2.275-.541a3.637 3.637 0 0 0 1.398-1.532c.345-.662.586-1.435.721-2.322.135-.901.203-1.878.203-2.93Zm23.685 6.467V29.817c0-.781-.127-1.45-.383-2.006a2.85 2.85 0 0 0-1.195-1.33c-.525-.315-1.209-.473-2.05-.473-.722 0-1.345.128-1.871.384-.525.24-.931.593-1.216 1.059-.286.45-.429.984-.429 1.6h-6.49c0-1.037.24-2.02.721-2.952.481-.932 1.18-1.75 2.096-2.457.916-.721 2.005-1.284 3.268-1.69 1.277-.406 2.704-.609 4.281-.609 1.894 0 3.576.316 5.049.947 1.472.631 2.629 1.577 3.47 2.84.857 1.262 1.284 2.839 1.284 4.732v10.434c0 1.337.083 2.434.249 3.29.165.842.405 1.578.721 2.209v.383h-6.558c-.316-.66-.557-1.487-.722-2.479a20.599 20.599 0 0 1-.225-3.02Zm.857-9.352.045 3.673h-3.629c-.856 0-1.599.098-2.231.293-.63.196-1.149.474-1.554.834a3.227 3.227 0 0 0-.902 1.217c-.18.466-.271.977-.271 1.532 0 .556.128 1.06.383 1.51.256.436.624.782 1.104 1.037.481.24 1.045.36 1.691.36.976 0 1.825-.195 2.546-.585.722-.39 1.278-.872 1.668-1.443.406-.57.616-1.111.632-1.622l1.712 2.75c-.24.615-.571 1.254-.991 1.915a8.93 8.93 0 0 1-1.556 1.87c-.63.571-1.389 1.044-2.276 1.42-.886.36-1.938.54-3.155.54-1.547 0-2.952-.307-4.214-.923-1.247-.631-2.238-1.495-2.975-2.592-.721-1.111-1.082-2.374-1.082-3.786 0-1.277.241-2.411.722-3.403a6.635 6.635 0 0 1 2.118-2.501c.947-.691 2.126-1.21 3.539-1.555 1.412-.36 3.049-.541 4.912-.541h3.764Zm17.533-19.764v34.615h-6.513V11.563h6.513Zm11.854 14.919v29.071h-6.49V21.794h6.016l.474 4.688Zm15.437 7.234v.473c0 1.773-.21 3.418-.631 4.935-.405 1.518-1.006 2.84-1.803 3.967a8.567 8.567 0 0 1-2.975 2.614c-1.171.616-2.524.924-4.056.924-1.488 0-2.779-.3-3.877-.901-1.097-.602-2.021-1.443-2.771-2.525-.737-1.096-1.33-2.366-1.781-3.808a30.103 30.103 0 0 1-1.036-4.643v-1.24c.24-1.772.586-3.395 1.036-4.867.451-1.487 1.044-2.772 1.781-3.854.75-1.096 1.667-1.945 2.749-2.546 1.097-.601 2.381-.902 3.854-.902 1.547 0 2.907.294 4.079.88a8.015 8.015 0 0 1 2.974 2.523c.811 1.097 1.421 2.404 1.826 3.922.421 1.517.631 3.2.631 5.048Zm-6.513.473v-.473c0-1.037-.09-1.991-.27-2.862-.166-.887-.436-1.66-.812-2.322-.361-.66-.841-1.172-1.442-1.532-.586-.376-1.299-.564-2.141-.564-.886 0-1.645.143-2.277.429a3.807 3.807 0 0 0-1.509 1.24c-.391.54-.684 1.186-.879 1.937-.195.752-.315 1.6-.36 2.547v3.132c.074 1.112.285 2.111.63 2.998.346.871.88 1.562 1.601 2.073.721.51 1.668.766 2.839.766.857 0 1.578-.188 2.164-.563.586-.39 1.058-.924 1.419-1.6.376-.676.639-1.458.789-2.344.165-.886.248-1.84.248-2.862Zm17.398-12.395v24.384h-6.513V21.794h6.513Zm-6.919-6.355c0-.947.331-1.728.992-2.344.661-.616 1.547-.924 2.659-.924 1.097 0 1.976.308 2.637.924.675.616 1.014 1.397 1.014 2.344 0 .947-.339 1.728-1.014 2.344-.661.616-1.54.924-2.637.924-1.112 0-1.998-.308-2.659-.924-.661-.616-.992-1.398-.992-2.344ZM252.581 27v19.178h-6.491V21.794h6.084l.407 5.206Zm-.947 6.13h-1.758c0-1.803.233-3.426.699-4.868.466-1.457 1.119-2.697 1.96-3.718a8.429 8.429 0 0 1 2.998-2.367c1.172-.556 2.479-.834 3.921-.834 1.142 0 2.186.166 3.133.496a5.99 5.99 0 0 1 2.433 1.578c.691.72 1.218 1.675 1.578 2.862.375 1.187.564 2.637.564 4.35v15.55h-6.536V30.605c0-1.082-.15-1.923-.451-2.524-.3-.601-.743-1.022-1.329-1.262-.571-.256-1.277-.384-2.119-.384-.871 0-1.63.173-2.276.519a4.528 4.528 0 0 0-1.578 1.442c-.405.601-.713 1.307-.924 2.119-.21.81-.315 1.682-.315 2.614Zm35.9-11.336h5.882v23.573c0 2.223-.496 4.109-1.487 5.656-.977 1.563-2.344 2.742-4.103 3.539-1.757.81-3.8 1.217-6.129 1.217-1.022 0-2.103-.136-3.245-.406a12.997 12.997 0 0 1-3.245-1.262 8.584 8.584 0 0 1-2.57-2.164l2.863-3.83a8.08 8.08 0 0 0 2.614 2.028c.991.495 2.088.743 3.29.743 1.172 0 2.163-.218 2.975-.653a4.33 4.33 0 0 0 1.871-1.87c.436-.812.653-1.796.653-2.953V27.428l.631-5.634ZM271.128 34.28v-.473c0-1.863.225-3.553.676-5.07.466-1.533 1.119-2.848 1.96-3.945a8.929 8.929 0 0 1 3.11-2.546c1.218-.601 2.592-.902 4.124-.902 1.623 0 2.983.3 4.08.902 1.096.6 1.998 1.457 2.704 2.569.706 1.097 1.255 2.396 1.645 3.899.405 1.487.721 3.117.946 4.89v1.037a28.909 28.909 0 0 1-1.013 4.732c-.452 1.458-1.045 2.735-1.781 3.831-.737 1.082-1.652 1.923-2.75 2.524-1.081.601-2.373.902-3.876.902-1.502 0-2.861-.308-4.079-.924a9.104 9.104 0 0 1-3.087-2.592c-.856-1.111-1.517-2.419-1.983-3.921-.451-1.502-.676-3.14-.676-4.913Zm6.49-.473v.473c0 1.007.098 1.946.293 2.817.195.872.495 1.645.902 2.321.421.661.938 1.18 1.554 1.555.631.36 1.375.541 2.231.541 1.187 0 2.156-.248 2.908-.743.751-.511 1.314-1.21 1.69-2.096.376-.887.594-1.908.654-3.065v-2.953c-.031-.946-.158-1.795-.384-2.546-.225-.766-.54-1.42-.947-1.96a4.088 4.088 0 0 0-1.576-1.263c-.646-.3-1.413-.45-2.3-.45-.855 0-1.599.195-2.231.585a4.803 4.803 0 0 0-1.554 1.556c-.406.66-.714 1.442-.924 2.343a12.444 12.444 0 0 0-.316 2.885Z"/>
  <defs>
    <clipPath id="a">
      <path fill="#fff" d="M0 0h60v60H0z"/>
    </clipPath>
  </defs>
</svg>
