<?xml version="1.0" encoding="UTF-8"?>
<svg xmlns="http://www.w3.org/2000/svg" xmlns:xlink="http://www.w3.org/1999/xlink" width="219px" height="50px" viewBox="0 0 218 50" version="1.1">
<g id="surface1">
<path style=" stroke:none;fill-rule:nonzero;fill:rgb(100%,40%,0%);fill-opacity:1;" d="M 209.058594 44.890625 C 208.46875 47.542969 205.730469 49.707031 203.089844 49.707031 L 4.414062 49.707031 C 1.675781 49.707031 0.0117188 47.542969 0.597656 44.890625 L 9.792969 4.8125 C 10.480469 2.160156 13.121094 0 15.859375 0 L 214.4375 0 C 217.175781 0 218.839844 2.160156 218.253906 4.8125 L 209.058594 44.890625 "/>
<path style=" stroke:none;fill-rule:nonzero;fill:rgb(100%,100%,100%);fill-opacity:1;" d="M 89.8125 18.566406 L 85.410156 39.488281 L 64.964844 39.488281 C 62.714844 39.488281 60.953125 38.605469 59.683594 36.738281 C 58.410156 34.871094 58.117188 32.710938 58.605469 30.355469 C 59.097656 27.898438 60.367188 25.835938 62.324219 23.96875 C 64.378906 22.101562 66.53125 21.21875 68.78125 21.21875 L 82.085938 21.21875 L 82.574219 18.957031 C 82.671875 18.371094 82.574219 17.78125 82.28125 17.386719 C 81.988281 16.894531 81.496094 16.699219 80.910156 16.699219 L 63.300781 16.699219 L 64.867188 9.136719 L 82.867188 9.136719 C 85.3125 9.136719 87.269531 10.019531 88.636719 11.984375 C 89.910156 13.753906 90.398438 16.011719 89.8125 18.566406 Z M 68.585938 27.308594 C 67.996094 27.308594 67.410156 27.503906 66.921875 27.996094 C 66.433594 28.488281 66.042969 28.980469 65.945312 29.566406 C 65.847656 29.863281 65.847656 30.15625 65.945312 30.453125 C 66.042969 30.746094 66.140625 30.941406 66.238281 31.140625 C 66.433594 31.335938 66.628906 31.53125 66.824219 31.628906 C 67.019531 31.730469 67.3125 31.828125 67.605469 31.828125 L 79.835938 31.828125 L 80.8125 27.308594 Z M 107.617188 24.261719 L 114.167969 39.488281 L 104.972656 39.488281 L 101.648438 30.648438 L 94.605469 39.488281 L 85.507812 39.488281 L 98.519531 24.261719 L 91.867188 9.136719 L 101.0625 9.136719 L 104.386719 17.976562 L 111.429688 9.136719 L 120.625 9.136719 Z M 107.617188 24.261719 "/>
<path style=" stroke:none;fill-rule:nonzero;fill:rgb(100%,100%,100%);fill-opacity:1;" d="M 140.679688 16.699219 L 127.082031 16.699219 C 126.398438 16.699219 125.710938 16.996094 125.125 17.484375 C 124.539062 17.976562 124.148438 18.664062 123.953125 19.351562 L 121.800781 29.175781 C 121.605469 29.960938 121.703125 30.550781 122.09375 31.042969 C 122.484375 31.53125 123.070312 31.828125 123.757812 31.828125 L 139.210938 31.828125 L 137.550781 39.390625 L 121.410156 39.390625 C 118.964844 39.390625 117.007812 38.507812 115.636719 36.640625 C 114.269531 34.773438 113.875 32.515625 114.367188 29.960938 L 116.8125 18.566406 C 117.398438 16.011719 118.667969 13.753906 120.820312 11.886719 C 122.972656 10.019531 125.320312 9.039062 127.765625 9.039062 L 142.148438 9.039062 Z M 172.375 24.164062 C 173.15625 20.335938 172.375 16.503906 170.027344 13.652344 C 167.777344 10.804688 164.15625 9.136719 160.242188 9.136719 L 146.453125 9.136719 L 139.996094 39.488281 L 156.429688 39.488281 C 163.667969 39 170.320312 33.300781 171.886719 26.128906 Z M 164.84375 22.496094 L 164.449219 24.460938 C 163.667969 28.292969 159.460938 31.730469 155.449219 31.730469 L 149.582031 31.730469 L 152.710938 16.796875 L 160.242188 16.796875 C 161.808594 16.796875 163.179688 17.386719 164.058594 18.371094 C 164.941406 19.449219 165.136719 20.921875 164.84375 22.496094 Z M 203.578125 18.566406 L 199.175781 39.488281 L 192.035156 39.488281 L 196.339844 19.351562 C 196.4375 18.957031 196.4375 18.664062 196.339844 18.371094 C 196.242188 18.074219 196.144531 17.78125 195.949219 17.484375 C 195.753906 17.289062 195.558594 17.09375 195.265625 16.894531 C 194.972656 16.796875 194.679688 16.699219 194.382812 16.699219 L 182.449219 16.699219 L 177.558594 39.488281 L 170.417969 39.488281 L 176.875 9.136719 L 196.632812 9.136719 C 199.078125 9.136719 201.035156 10.019531 202.40625 11.984375 C 203.675781 13.753906 204.070312 16.011719 203.578125 18.566406 Z M 56.648438 12.769531 C 54.792969 10.414062 51.855469 9.136719 48.726562 9.136719 L 18.5 9.136719 L 22.117188 16.894531 L 17.324219 39.488281 L 25.25 39.488281 L 30.042969 16.894531 L 36.792969 16.894531 L 32 39.488281 L 39.921875 39.488281 L 44.714844 16.894531 L 48.726562 16.894531 C 49.605469 16.894531 50.292969 17.191406 50.683594 17.683594 C 51.074219 18.171875 51.269531 18.957031 51.074219 19.746094 L 46.867188 39.488281 L 54.792969 39.488281 L 58.605469 21.414062 C 59.195312 18.269531 58.507812 15.128906 56.648438 12.769531 Z M 56.648438 12.769531 "/>
</g>
</svg>
