<?xml version="1.0" encoding="utf-8"?>
<!-- Generator: Adobe Illustrator 22.0.1, SVG Export Plug-In . SVG Version: 6.00 Build 0)  -->
<svg version="1.1"
	 id="图层_1" inkscape:version="0.92.4 (5da689c313, 2019-01-14)" sodipodi:docname="ns1-ar21.svg" xmlns:cc="http://creativecommons.org/ns#" xmlns:dc="http://purl.org/dc/elements/1.1/" xmlns:inkscape="http://www.inkscape.org/namespaces/inkscape" xmlns:rdf="http://www.w3.org/1999/02/22-rdf-syntax-ns#" xmlns:sodipodi="http://sodipodi.sourceforge.net/DTD/sodipodi-0.dtd" xmlns:svg="http://www.w3.org/2000/svg"
	 xmlns="http://www.w3.org/2000/svg" xmlns:xlink="http://www.w3.org/1999/xlink" x="0px" y="0px" viewBox="0 0 79.9 33.9"
	 style="enable-background:new 0 0 79.9 33.9;" xml:space="preserve">
<style type="text/css">
	.st0{fill:#211F1F;}
	.st1{fill:#EE1A6E;}
</style>
<sodipodi:namedview  bordercolor="#666666" borderopacity="1" gridtolerance="10" guidetolerance="10" id="namedview18" inkscape:current-layer="图层_1" inkscape:cx="40.510914" inkscape:cy="61.290001" inkscape:pageopacity="0" inkscape:pageshadow="2" inkscape:window-height="1001" inkscape:window-maximized="1" inkscape:window-width="1920" inkscape:window-x="-9" inkscape:window-y="-9" inkscape:zoom="1.1725235" objecttolerance="10" pagecolor="#ffffff" showgrid="false">
	</sodipodi:namedview>
<title  id="title6">ns1</title>
<g id="g846" transform="matrix(0.27628482,0,0,0.27628482,20.068548,13.063115)">
	<path id="path8" inkscape:connector-curvature="0" class="st0" d="M-72.6-47.2c9.5,0,18.9,0.1,28.4,0c1.7-0.2,3.4,0.7,4,2.3
		c11,21.7,22.1,43.3,33,65C-4.8,24.7-3,29.7-1,34.5c0.2,0.6,0.6,1.2,1.1,1.7C-1.8,8.4-0.6-19.3-1-47.1h24.5V71.5
		c-0.7,0-1.4,0.1-2.2,0.1c-8.8,0-17.5,0-26.3,0c-1.1,0.1-2.2-0.5-2.6-1.5c-9.4-18.3-19.2-36.6-28.3-55c-4.5-9.1-8-18.6-12-27.9
		c-0.2-0.7-0.6-1.3-1.1-1.8c2.2,28.6,1.1,57.3,1.4,86c-0.4,0.1-0.9,0.2-1.3,0.3c-7.4,0-14.8,0-22.3,0c-0.5,0-1-0.1-1.5-0.2
		L-72.6-47.2z"/>
	<path id="path10" inkscape:connector-curvature="0" class="st0" d="M74.1,75.3c-3.1-0.4-6.2-0.8-9.3-1.3
		c-9.7-1.7-18.7-5.2-26.4-11.5c-0.7-0.6-1.3-1.2-2.1-2c4.9-7.2,9.8-14.2,14.4-20.9c4.7,3.2,8.9,6.8,13.7,9.4
		c7.2,4,15.1,5.6,23.2,3.3c7.3-2,10.9-9.3,7.3-15.1c-1.5-2.3-3.5-4.3-5.8-5.6c-5.1-2.9-10.5-5.1-15.7-7.8c-6.2-3.2-12.6-6.1-18.3-10
		C35.5,0.5,37.7-26.8,56-39.1c7.4-4.9,16-7.7,24.8-7.9c12.9-0.5,24.7,2.4,35,10.5c0.9,0.7,1.7,1.5,2.5,2.3c0.4,0.3,0.6,0.7,1.1,1.3
		l-16,19.1c-3.4-4-7.2-7.2-12-9.1c-4.6-2-9.8-2.5-14.7-1.4c-4.1,1-7.3,3.2-8.5,7.6c-1.2,3.9,0.2,8.1,3.5,10.3
		c4,2.8,8.1,5.3,12.5,7.4c7.5,4,15.4,7.3,22.7,11.6c7.5,4.2,12.9,11.4,14.7,19.8c3.3,15.2-3.7,29.6-17.8,36.9
		C97.2,72.7,90,74.6,82.7,75c-0.6,0.1-1.2,0.2-1.8,0.4L74.1,75.3z"/>
	<path id="path12" inkscape:connector-curvature="0" class="st0" d="M179.3-46.4V71.8h-24.1v-91.2l-13.3,8.8l-10-20
		c4.6-3.2,9.2-6.4,13.7-9.5c2.9-2,5.7-4.9,9-5.9s7.3-0.3,10.9-0.3L179.3-46.4z"/>
	<path id="path14" inkscape:connector-curvature="0" class="st1" d="M202.4,72.3c-7.4,0.1-13.5-5.8-13.6-13.2c0-0.1,0-0.2,0-0.2
		c0-8,5.9-14.1,13.7-14.1c8.2,0,14.1,6,14.1,14.2C216.5,66.5,210.5,72.3,202.4,72.3z"/>
</g>
</svg>
