<svg xmlns="http://www.w3.org/2000/svg" width="552" height="552" fill="none">
  <g opacity=".64" style="mix-blend-mode:overlay">
    <circle cx="276" cy="276" r="275.5" stroke="#17233A"/>
    <circle cx="184.5" cy="378.5" r="13" fill="#17233A" stroke="#17233A"/>
    <circle cx="367.5" cy="173.5" r="13" fill="#17233A" stroke="#17233A"/>
    <circle cx="276" cy="276" r="137.5" stroke="#17233A"/>
    <mask id="a" width="464" height="179" x="42" y="192" fill="#000" maskUnits="userSpaceOnUse">
      <path fill="#fff" d="M42 192h464v179H42z"/>
      <path d="M123.4 367V228.896l17.08.976-60.024 73.444-4.148-6.1h110.776v30.988H58.496l-15.128-28.792L129.5 195.224h29.28V367zm152.363 2.44q-21.96 0-37.576-10.492-15.373-10.493-23.668-30.012-8.052-19.764-8.052-47.336t8.052-47.092q8.296-19.764 23.668-30.256 15.615-10.492 37.576-10.492t37.576 10.492 23.668 30.256q8.296 19.52 8.296 47.092t-8.296 47.336q-8.052 19.52-23.668 30.012t-37.576 10.492m0-31.476q16.347 0 25.376-14.64t9.028-41.724q0-27.571-9.028-42.456-9.029-14.884-25.376-14.884-16.593 0-25.62 14.884-8.784 14.884-8.784 42.456 0 27.084 8.784 41.724 9.027 14.64 25.62 14.64M441.029 367V228.896l17.08.976-60.024 73.444-4.148-6.1h110.776v30.988H376.125l-15.128-28.792 86.132-104.188h29.28V367z"/>
    </mask>
    <path fill="#fff" d="M123.4 367V228.896l17.08.976-60.024 73.444-4.148-6.1h110.776v30.988H58.496l-15.128-28.792L129.5 195.224h29.28V367zm152.363 2.44q-21.96 0-37.576-10.492-15.373-10.493-23.668-30.012-8.052-19.764-8.052-47.336t8.052-47.092q8.296-19.764 23.668-30.256 15.615-10.492 37.576-10.492t37.576 10.492 23.668 30.256q8.296 19.52 8.296 47.092t-8.296 47.336q-8.052 19.52-23.668 30.012t-37.576 10.492m0-31.476q16.347 0 25.376-14.64t9.028-41.724q0-27.571-9.028-42.456-9.029-14.884-25.376-14.884-16.593 0-25.62 14.884-8.784 14.884-8.784 42.456 0 27.084 8.784 41.724 9.027 14.64 25.62 14.64M441.029 367V228.896l17.08.976-60.024 73.444-4.148-6.1h110.776v30.988H376.125l-15.128-28.792 86.132-104.188h29.28V367z"/>
    <path fill="#17233A" d="M123.4 367h-1v1h1zm0-138.104.057-.998-1.057-.061v1.059zm17.08.976.774.633 1.242-1.519-1.959-.112zm-60.024 73.444-.827.562.753 1.108.848-1.037zm-4.148-6.1v-1h-1.89l1.063 1.562zm110.776 0h1v-1h-1zm0 30.988v1h1v-1zm-128.588 0-.885.465.28.535h.605zm-15.128-28.792-.77-.637-.425.513.31.589zM129.5 195.224v-1h-.471l-.3.363zm29.28 0h1v-1h-1zm0 171.776v1h1v-1zm-34.38 0V228.896h-2V367zm-1.057-137.106 17.08.976.114-1.996-17.08-.976zm16.363-.655-60.024 73.444 1.548 1.266 60.024-73.444zm-58.423 73.515-4.148-6.1-1.654 1.124 4.148 6.1zm-4.975-4.538h110.776v-2H76.308zm109.776-1v30.988h2v-30.988zm1 29.988H58.496v2h128.588zm-127.703.535-15.128-28.792-1.77.93 15.128 28.792zm-15.242-27.69 86.132-104.188-1.542-1.274-86.132 104.188zM129.5 196.224h29.28v-2H129.5zm28.28-1V367h2V195.224zm1 170.776H123.4v2h35.38zm79.407-7.052-.564.826.006.004zm-23.668-30.012-.926.377.002.007.003.007zm0-94.428-.922-.387-.003.006zm23.668-30.256-.558-.83-.006.004zm75.152 0 .557-.83zm23.668 30.256-.926.377.002.007.003.007zm0 94.428-.922-.387-.003.006zm-23.668 30.012.557.83zm-12.2-119.804.855-.519zm-50.996 0-.855-.519-.006.011zm0 84.18-.858.515.007.01zm25.62 45.116c-14.476 0-26.799-3.456-37.019-10.322l-1.115 1.66c10.602 7.123 23.329 10.662 38.134 10.662zm-37.013-10.318c-10.068-6.872-17.844-16.715-23.311-29.577l-1.841.782c5.595 13.164 13.598 23.33 24.025 30.447zm-23.305-29.563c-5.307-13.027-7.978-28.671-7.978-46.959h-2c0 18.475 2.697 34.388 8.126 47.713zm-7.978-46.959c0-18.289 2.671-33.849 7.976-46.711l-1.849-.762c-5.43 13.165-8.127 28.999-8.127 47.473zm7.974-46.705c5.467-13.026 13.244-22.947 23.309-29.817l-1.127-1.652c-10.43 7.119-18.433 17.369-24.026 30.695zm23.303-29.813c10.22-6.866 22.543-10.322 37.019-10.322v-2c-14.805 0-27.532 3.539-38.134 10.662zm37.019-10.322c14.475 0 26.798 3.456 37.018 10.322l1.115-1.66c-10.601-7.123-23.329-10.662-38.133-10.662zm37.018 10.322c10.224 6.869 17.996 16.786 23.3 29.803l1.852-.754c-5.433-13.335-13.439-23.589-24.037-30.709zm23.305 29.817c5.465 12.859 8.217 28.416 8.217 46.701h2c0-18.477-2.779-34.315-8.376-47.483zm8.217 46.701c0 18.285-2.752 33.925-8.218 46.949l1.844.774c5.594-13.328 8.374-29.245 8.374-47.723zm-8.221 46.955c-5.302 12.854-13.074 22.692-23.301 29.563l1.115 1.66c10.595-7.118 18.601-17.288 24.035-30.461zm-23.301 29.563c-10.22 6.866-22.543 10.322-37.018 10.322v2c14.804 0 27.532-3.539 38.133-10.662zm-37.018-19.154c11.267 0 20.038-5.078 26.227-15.115l-1.702-1.05c-5.848 9.483-13.995 14.165-24.525 14.165zm26.227-15.115c6.157-9.984 9.177-24.105 9.177-42.249h-2c0 17.968-2.999 31.663-8.879 41.199zm9.177-42.249c0-18.467-3.02-32.829-9.173-42.975l-1.71 1.038c5.883 9.7 8.883 23.641 8.883 41.937zm-9.173-42.975c-6.186-10.198-14.956-15.365-26.231-15.365v2c10.522 0 18.669 4.755 24.521 14.403zm-26.231-15.365c-11.432 0-20.286 5.162-26.475 15.365l1.71 1.038c5.848-9.642 14.073-14.403 24.765-14.403zm-26.481 15.376c-5.986 10.142-8.923 24.5-8.923 42.964h2c0-18.299 2.919-32.245 8.645-41.948zm-8.923 42.964c0 18.141 2.937 32.257 8.926 42.239L251 322.81c-5.723-9.539-8.641-23.239-8.641-41.21zm8.933 42.249c6.192 10.042 15.047 15.115 26.471 15.115v-2c-10.699 0-18.924-4.687-24.769-14.165zM441.029 367h-1v1h1zm0-138.104.057-.998-1.057-.061v1.059zm17.08.976.774.633 1.242-1.519-1.959-.112zm-60.024 73.444-.827.562.753 1.108.848-1.037zm-4.148-6.1v-1h-1.889l1.062 1.562zm110.776 0h1v-1h-1zm0 30.988v1h1v-1zm-128.588 0-.885.465.281.535h.604zm-15.128-28.792-.771-.637-.424.513.31.589zm86.132-104.188v-1h-.471l-.3.363zm29.28 0h1v-1h-1zm0 171.776v1h1v-1zm-34.38 0V228.896h-2V367zm-1.057-137.106 17.08.976.114-1.996-17.08-.976zm16.363-.655-60.024 73.444 1.548 1.266 60.024-73.444zm-58.423 73.515-4.148-6.1-1.654 1.124 4.148 6.1zm-4.975-4.538h110.776v-2H393.937zm109.776-1v30.988h2v-30.988zm1 29.988H376.125v2h128.588zm-127.703.535-15.128-28.792-1.77.93 15.128 28.792zm-15.242-27.69L447.9 195.861l-1.542-1.274-86.132 104.188zm85.361-103.825h29.28v-2h-29.28zm28.28-1V367h2V195.224zm1 170.776h-35.38v2h35.38z" mask="url(#a)"/>
  </g>
</svg>
