<svg width="104" height="98" viewBox="0 0 104 98" fill="none" xmlns="http://www.w3.org/2000/svg">
<rect opacity="0.2" x="12" width="80" height="80" rx="24" fill="#79849A"/>
<g filter="url(#filter0_ddd_2240_13003)">
<rect x="16" y="4" width="72" height="72" rx="20" fill="white"/>
</g>
<path d="M39.5 39C38.9477 39 38.5 39.4477 38.5 40C38.5 40.5523 38.9477 41 39.5 41V39ZM43.5 40V41C43.8513 41 44.1768 40.8157 44.3575 40.5145L43.5 40ZM49.5 30L50.4806 29.8039C50.3996 29.3988 50.0777 29.0852 49.6707 29.0147C49.2636 28.9442 48.8551 29.1312 48.6425 29.4855L49.5 30ZM53.5 50L52.5194 50.1961C52.6004 50.6012 52.9223 50.9148 53.3293 50.9853C53.7364 51.0558 54.1449 50.8688 54.3575 50.5145L53.5 50ZM59.5 40V39C59.1487 39 58.8232 39.1843 58.6425 39.4855L59.5 40ZM63.5 41C64.0523 41 64.5 40.5523 64.5 40C64.5 39.4477 64.0523 39 63.5 39V41ZM39.5 41H43.5V39H39.5V41ZM44.3575 40.5145L50.3575 30.5145L48.6425 29.4855L42.6425 39.4855L44.3575 40.5145ZM48.5194 30.1961L52.5194 50.1961L54.4806 49.8039L50.4806 29.8039L48.5194 30.1961ZM54.3575 50.5145L60.3575 40.5145L58.6425 39.4855L52.6425 49.4855L54.3575 50.5145ZM59.5 41H63.5V39H59.5V41Z" fill="#0B8E5F"/>
<defs>
<filter id="filter0_ddd_2240_13003" x="0" y="-6" width="104" height="104" filterUnits="userSpaceOnUse" color-interpolation-filters="sRGB">
<feFlood flood-opacity="0" result="BackgroundImageFix"/>
<feColorMatrix in="SourceAlpha" type="matrix" values="0 0 0 0 0 0 0 0 0 0 0 0 0 0 0 0 0 0 127 0" result="hardAlpha"/>
<feMorphology radius="2" operator="erode" in="SourceAlpha" result="effect1_dropShadow_2240_13003"/>
<feOffset dy="6"/>
<feGaussianBlur stdDeviation="9"/>
<feColorMatrix type="matrix" values="0 0 0 0 0.47451 0 0 0 0 0.517647 0 0 0 0 0.603922 0 0 0 0.14 0"/>
<feBlend mode="normal" in2="BackgroundImageFix" result="effect1_dropShadow_2240_13003"/>
<feColorMatrix in="SourceAlpha" type="matrix" values="0 0 0 0 0 0 0 0 0 0 0 0 0 0 0 0 0 0 127 0" result="hardAlpha"/>
<feMorphology radius="1" operator="dilate" in="SourceAlpha" result="effect2_dropShadow_2240_13003"/>
<feOffset/>
<feGaussianBlur stdDeviation="0.5"/>
<feComposite in2="hardAlpha" operator="out"/>
<feColorMatrix type="matrix" values="0 0 0 0 0.47451 0 0 0 0 0.517647 0 0 0 0 0.603922 0 0 0 0.11 0"/>
<feBlend mode="normal" in2="effect1_dropShadow_2240_13003" result="effect2_dropShadow_2240_13003"/>
<feColorMatrix in="SourceAlpha" type="matrix" values="0 0 0 0 0 0 0 0 0 0 0 0 0 0 0 0 0 0 127 0" result="hardAlpha"/>
<feOffset dy="4"/>
<feGaussianBlur stdDeviation="5"/>
<feComposite in2="hardAlpha" operator="out"/>
<feColorMatrix type="matrix" values="0 0 0 0 0.47451 0 0 0 0 0.517647 0 0 0 0 0.603922 0 0 0 0.14 0"/>
<feBlend mode="normal" in2="effect2_dropShadow_2240_13003" result="effect3_dropShadow_2240_13003"/>
<feBlend mode="normal" in="SourceGraphic" in2="effect3_dropShadow_2240_13003" result="shape"/>
</filter>
</defs>
</svg>
