<svg xmlns="http://www.w3.org/2000/svg" id="Laag_1" data-name="Laag 1" viewBox="0 0 783.71 107.38">
  <defs>
    <style>
      .cls-1{fill:#1186f3}
    </style>
  </defs>
  <path d="M422.34 12.19a2.16 2.16 0 0 0-2-1.38h-3.77a2.15 2.15 0 0 0-2 1.37L383.49 93.3a2.15 2.15 0 0 0 2 2.93h3.77a2.16 2.16 0 0 0 2-1.38l8.18-21.23h38l8.07 21.22a2.17 2.17 0 0 0 2 1.39h3.77a2.16 2.16 0 0 0 2-2.92Zm-20.08 54 16.17-42.22 16.08 42.22Z" class="cls-1"/>
  <rect width="7.83" height="85.42" x="460.9" y="10.8" class="cls-1" rx="2.15"/>
  <rect width="7.83" height="85.42" x="484.91" y="10.8" class="cls-1" rx="2.15"/>
  <path d="M512.83 10.84a5.51 5.51 0 1 0 5.92 5.56 5.62 5.62 0 0 0-5.92-5.56" class="cls-1"/>
  <rect width="7.83" height="59.28" x="508.92" y="36.95" class="cls-1" rx="2.15"/>
  <path d="M588.3 36.95h-3.54a2.15 2.15 0 0 0-2.15 2.15v6.84a30.82 30.82 0 1 0 0 41.28v6.86a2.15 2.15 0 0 0 2.15 2.15h3.54a2.16 2.16 0 0 0 2.15-2.15v-55a2.15 2.15 0 0 0-2.15-2.13m-28.73 6.65c13.13 0 23 10.1 23 23.51 0 12.59-10.12 22.46-23 22.46a23 23 0 0 1 0-46Zm73.09-7.83c-7.65 0-14 2.66-18.22 7.38V39.1a2.15 2.15 0 0 0-2.15-2.15h-3.53a2.15 2.15 0 0 0-2.15 2.15v55a2.15 2.15 0 0 0 2.15 2.15h3.53a2.15 2.15 0 0 0 2.15-2.15V62.71c.53-17.25 12.92-19.11 18.22-19.11 10 0 16.81 7.27 16.81 18.1v32.38a2.15 2.15 0 0 0 2.15 2.15h3.56a2.15 2.15 0 0 0 2.15-2.15V61.7c-.03-15.27-10.15-25.93-24.67-25.93m84.35 49.48a2.15 2.15 0 0 0-3-.44 24.42 24.42 0 0 1-14.61 4.76c-13.29 0-22.93-9.74-22.93-23.16 0-13.22 9.64-22.81 22.93-22.81a25.76 25.76 0 0 1 14.65 4.79 2.14 2.14 0 0 0 3-.52l2-2.83a2.15 2.15 0 0 0-.51-3 33.3 33.3 0 0 0-19.14-6.28c-17.83 0-30.76 12.89-30.76 30.64s13.22 31 30.76 31a32.05 32.05 0 0 0 19.3-6.31 2.16 2.16 0 0 0 .43-3Zm37.7-49.48c-17.27 0-29.81 12.89-29.81 30.64 0 18 12.54 31 29.81 31a29.58 29.58 0 0 0 25.47-13.87 2.14 2.14 0 0 0-.71-2.95l-3.06-1.89a2.18 2.18 0 0 0-3 .69 21.65 21.65 0 0 1-18.78 10.18c-11.74 0-20.08-7.57-21.75-19.48h48.6a2.15 2.15 0 0 0 2.15-2.15v-1.53c.08-18.04-11.84-30.64-28.92-30.64m-21.63 26.84c1.66-11.63 9.94-19 21.63-19 11.49 0 19.52 7.38 21 19ZM77.5 10.96h19.21v19.21zm9.84 62.55L73.55 87.33l-53.5-53.49 13.83-13.79zM67.32 93.55l-13.83 13.83L0 53.89l13.83-13.8z" class="cls-1"/>
  <path d="M166.84 25.59a26 26 0 0 1 20.46 9.67 2.15 2.15 0 0 0 3 .33l9-7.18a2.2 2.2 0 0 0 .8-1.44 2.14 2.14 0 0 0-.47-1.58 41.77 41.77 0 0 0-32.88-15.41 43.71 43.71 0 0 0 0 87.42A41.79 41.79 0 0 0 199.63 82a2.16 2.16 0 0 0 .47-1.58 2.2 2.2 0 0 0-.8-1.45l-9-7.18a2.15 2.15 0 0 0-3 .32 26.25 26.25 0 0 1-20.46 9.73c-15.16 0-27-12.35-27-28.1s11.84-28.15 27-28.15m77.22-14.75h-31.55a2.15 2.15 0 0 0-2.15 2.15v81.12a2.15 2.15 0 0 0 2.15 2.15h31.55c23.25 0 38.88-17.1 38.88-42.53 0-25.69-15.63-42.89-38.88-42.89m22.45 42.89c0 13.13-5.89 27.16-22.45 27.16h-17.28V26.18h17.28c16.56 0 22.45 14.21 22.45 27.52Zm90.08-42.89h-12.13a2.15 2.15 0 0 0-2.15 2.15v50.85l-31.13-52a2.13 2.13 0 0 0-1.84-1H297.6a2.15 2.15 0 0 0-2.15 2.15v81.12a2.15 2.15 0 0 0 2.15 2.15h12.13a2.15 2.15 0 0 0 2.15-2.15V42.74l31.45 52.44a2.13 2.13 0 0 0 1.84 1.05h11.42a2.15 2.15 0 0 0 2.15-2.15V12.96a2.15 2.15 0 0 0-2.15-2.12M96.71 76.77v19.67h-19.6zM29.87 96.42H10.7V77.18zm.43-85.46L10.7 30.64V10.96zm77.08 42.53L93.66 67.22l-.07.07-53.5-53.46L53.92 0z" style="fill:#211d53"/>
</svg>
