<svg id="Laag_1" data-name="Laag 1" xmlns="http://www.w3.org/2000/svg" viewBox="0 0 783.71 107.38"><defs><style>.cls-1{fill:#1186f3;}.cls-2{fill:#211d53;}</style></defs><path class="cls-1" d="M451.16,256.35a2.16,2.16,0,0,0-2-1.38h-3.77a2.15,2.15,0,0,0-2,1.37l-31.08,81.12a2.15,2.15,0,0,0,2,2.93h3.77a2.16,2.16,0,0,0,2-1.38l8.18-21.23h38L474.33,339a2.17,2.17,0,0,0,2,1.39h3.77a2.16,2.16,0,0,0,2-2.92Zm-20.08,54,16.17-42.22,16.08,42.22Z" transform="translate(-28.82 -244.16)"/><rect class="cls-1" x="460.9" y="10.8" width="7.83" height="85.42" rx="2.15"/><rect class="cls-1" x="484.91" y="10.8" width="7.83" height="85.42" rx="2.15"/><path class="cls-1" d="M541.65,255a5.51,5.51,0,1,0,5.92,5.56A5.62,5.62,0,0,0,541.65,255Z" transform="translate(-28.82 -244.16)"/><rect class="cls-1" x="508.92" y="36.95" width="7.83" height="59.28" rx="2.15"/><path class="cls-1" d="M617.12,281.11h-3.54a2.15,2.15,0,0,0-2.15,2.15v6.84a30.82,30.82,0,1,0,0,41.28v6.86a2.15,2.15,0,0,0,2.15,2.15h3.54a2.16,2.16,0,0,0,2.15-2.15v-55A2.15,2.15,0,0,0,617.12,281.11Zm-28.73,6.65c13.13,0,23,10.1,23,23.51,0,12.59-10.12,22.46-23,22.46a23,23,0,0,1,0-46Z" transform="translate(-28.82 -244.16)"/><path class="cls-1" d="M661.48,279.93c-7.65,0-14,2.66-18.22,7.38v-4.05a2.15,2.15,0,0,0-2.15-2.15h-3.53a2.15,2.15,0,0,0-2.15,2.15v55a2.15,2.15,0,0,0,2.15,2.15h3.53a2.15,2.15,0,0,0,2.15-2.15V306.87c.53-17.25,12.92-19.11,18.22-19.11,10,0,16.81,7.27,16.81,18.1v32.38a2.15,2.15,0,0,0,2.15,2.15H684a2.15,2.15,0,0,0,2.15-2.15V305.86C686.12,290.59,676,279.93,661.48,279.93Z" transform="translate(-28.82 -244.16)"/><path class="cls-1" d="M745.83,329.41a2.15,2.15,0,0,0-3-.44,24.42,24.42,0,0,1-14.61,4.76c-13.29,0-22.93-9.74-22.93-23.16,0-13.22,9.64-22.81,22.93-22.81a25.76,25.76,0,0,1,14.65,4.79,2.14,2.14,0,0,0,3-.52l2-2.83a2.15,2.15,0,0,0-.51-3,33.29,33.29,0,0,0-19.14-6.28c-17.83,0-30.76,12.89-30.76,30.64s13.22,31,30.76,31a32.05,32.05,0,0,0,19.3-6.31,2.16,2.16,0,0,0,.43-3Z" transform="translate(-28.82 -244.16)"/><path class="cls-1" d="M783.53,279.93c-17.27,0-29.81,12.89-29.81,30.64,0,18,12.54,31,29.81,31A29.58,29.58,0,0,0,809,327.7a2.14,2.14,0,0,0-.71-2.95l-3.06-1.89a2.18,2.18,0,0,0-3,.69,21.65,21.65,0,0,1-18.78,10.18c-11.74,0-20.08-7.57-21.75-19.48h48.6a2.15,2.15,0,0,0,2.15-2.15v-1.53C812.53,292.53,800.61,279.93,783.53,279.93ZM761.9,306.77c1.66-11.63,9.94-19,21.63-19,11.49,0,19.52,7.38,21,19Z" transform="translate(-28.82 -244.16)"/><polygon class="cls-1" points="77.5 10.96 96.71 10.96 96.71 30.17 77.5 10.96"/><polygon class="cls-1" points="87.34 73.51 73.55 87.33 20.05 33.84 33.88 20.05 87.34 73.51"/><polygon class="cls-1" points="67.32 93.55 53.49 107.38 0 53.89 13.83 40.09 67.32 93.55"/><path class="cls-2" d="M195.66,269.75a26,26,0,0,1,20.46,9.67,2.15,2.15,0,0,0,3,.33l9-7.18a2.19,2.19,0,0,0,.8-1.44,2.14,2.14,0,0,0-.47-1.58,41.77,41.77,0,0,0-32.88-15.41,43.71,43.71,0,0,0,0,87.42,41.79,41.79,0,0,0,32.88-15.4,2.16,2.16,0,0,0,.47-1.58,2.19,2.19,0,0,0-.8-1.45l-9-7.18a2.15,2.15,0,0,0-3,.32A26.25,26.25,0,0,1,195.66,326c-15.16,0-27-12.35-27-28.1S180.5,269.75,195.66,269.75Z" transform="translate(-28.82 -244.16)"/><path class="cls-2" d="M272.88,255H241.33a2.15,2.15,0,0,0-2.15,2.15v81.12a2.15,2.15,0,0,0,2.15,2.15h31.55c23.25,0,38.88-17.1,38.88-42.53C311.76,272.2,296.13,255,272.88,255Zm22.45,42.89c0,13.13-5.89,27.16-22.45,27.16H255.6V270.34h17.28C289.44,270.34,295.33,284.55,295.33,297.86Z" transform="translate(-28.82 -244.16)"/><path class="cls-2" d="M385.41,255H373.28a2.15,2.15,0,0,0-2.15,2.15V308L340,256a2.13,2.13,0,0,0-1.84-1H326.42a2.15,2.15,0,0,0-2.15,2.15v81.12a2.15,2.15,0,0,0,2.15,2.15h12.13a2.15,2.15,0,0,0,2.15-2.15V286.9l31.45,52.44a2.13,2.13,0,0,0,1.84,1.05h11.42a2.15,2.15,0,0,0,2.15-2.15V257.12A2.15,2.15,0,0,0,385.41,255Z" transform="translate(-28.82 -244.16)"/><polygon class="cls-2" points="96.71 76.77 96.71 96.44 77.11 96.44 96.71 76.77"/><polygon class="cls-2" points="29.87 96.42 10.7 96.42 10.7 77.18 29.87 96.42"/><polygon class="cls-2" points="30.3 10.96 10.7 30.64 10.7 10.96 30.3 10.96"/><polygon class="cls-2" points="107.38 53.49 93.66 67.22 93.59 67.29 40.09 13.83 53.92 0 107.38 53.49"/></svg>