<svg xmlns="http://www.w3.org/2000/svg" width="602" height="203" fill="none" style="width:auto;height:40px">
  <path fill="#F6821F" d="m510.338 128.167 1.471-5.086c1.753-6.05 1.101-11.643-1.84-15.752-2.707-3.785-7.217-6.014-12.695-6.273l-103.746-1.313a2.05 2.05 0 0 1-1.637-.869 2.1 2.1 0 0 1-.338-.907 2.1 2.1 0 0 1 .105-.962 2.76 2.76 0 0 1 2.41-1.838l104.707-1.327c12.421-.57 25.869-10.641 30.577-22.922l5.971-15.592a3.8 3.8 0 0 0 .162-2.062C528.705 22.789 501.487 0 468.944 0c-29.984 0-55.443 19.338-64.575 46.218a30.62 30.62 0 0 0-21.539-5.957c-14.385 1.427-25.951 13-27.375 27.377a30.8 30.8 0 0 0 .791 10.713c-23.499.685-42.344 19.923-42.344 43.571a44 44 0 0 0 .467 6.308 2.03 2.03 0 0 0 1.999 1.747l191.534.024a2.53 2.53 0 0 0 1.549-.523c.429-.331.74-.79.887-1.311"/>
  <path fill="#FBAD41" d="M544.899 56.457q-1.442 0-2.873.072a1.6 1.6 0 0 0-.449.099 1.64 1.64 0 0 0-1.045 1.1l-4.079 14.08c-1.754 6.05-1.102 11.638 1.842 15.748 2.705 3.789 7.215 6.013 12.692 6.272l22.117 1.327a2 2 0 0 1 1.575.855 2.1 2.1 0 0 1 .234 1.88 2.76 2.76 0 0 1-2.405 1.84l-22.98 1.326c-12.477.575-25.922 10.641-30.626 22.922l-1.66 4.336a1.226 1.226 0 0 0 1.092 1.661h79.133a2.105 2.105 0 0 0 2.041-1.521 56.6 56.6 0 0 0 2.104-15.346c-.009-31.285-25.397-56.65-56.713-56.65Z"/>
  <path fill="#222" d="M66.96 153.39h13.49v36.824h23.572v11.81H66.959zm51.033 24.457v-.138c0-13.965 11.264-25.293 26.283-25.293s26.142 11.188 26.142 25.153v.14c0 13.965-11.266 25.286-26.28 25.286s-26.145-11.183-26.145-25.148m38.657 0v-.138c0-7.008-5.073-13.134-12.512-13.134-7.371 0-12.309 5.976-12.309 12.994v.14c0 7.009 5.076 13.132 12.447 13.132 7.439 0 12.374-5.976 12.374-12.994m30.278 2.848v-27.307h13.698v27.031c0 7.008 3.547 10.351 8.968 10.351 5.422 0 8.968-3.195 8.968-10.005v-27.377h13.7v26.952c0 15.703-8.968 22.578-22.806 22.578s-22.528-7.008-22.528-22.23m65.978-27.296h18.773c17.385 0 27.466 10.004 27.466 24.037v.142c0 14.031-10.221 24.455-27.742 24.455h-18.497zm18.984 36.678c8.068 0 13.417-4.439 13.417-12.3v-.138c0-7.779-5.349-12.297-13.417-12.297h-5.494v24.739zm46.86-36.68h38.936v11.814H332.24v8.265h23.014v11.185H332.24v17.37h-13.49zm57.707 0h13.489v36.824h23.573v11.81h-37.062zm72.311-.348h12.998l20.723 48.982h-14.462l-3.549-8.686h-18.775l-3.474 8.686h-14.184zm11.818 29.807-5.424-13.828-5.494 13.828zm39.279-29.461h23.014c7.444 0 12.585 1.948 15.853 5.282 2.855 2.78 4.313 6.541 4.313 11.328v.137c0 7.432-3.974 12.366-10.013 14.935l11.613 16.956h-15.58l-9.803-14.732h-5.908v14.732h-13.489zm22.39 23.347c4.589 0 7.233-2.224 7.233-5.768v-.138c0-3.822-2.782-5.765-7.306-5.765h-8.828v11.68zm40.253-23.345h39.144v11.466H575.86v7.361h23.363v10.632H575.86v7.713H602v11.462h-39.492zM37.425 183.547c-1.889 4.268-5.863 7.291-11.145 7.291-7.373 0-12.447-6.114-12.447-13.131v-.14c0-7.009 4.936-12.994 12.307-12.994 5.557 0 9.789 3.416 11.575 8.062h14.219c-2.277-11.575-12.456-20.217-25.654-20.217-15.02 0-26.28 11.335-26.28 25.289v.138C0 191.81 11.121 203 26.14 203c12.847 0 22.888-8.312 25.537-19.451z"/>
</svg>
