<svg xmlns="http://www.w3.org/2000/svg" xmlns:xlink="http://www.w3.org/1999/xlink" width="152" height="36">
  <defs>
    <rect id="a" width="36" height="36" x="0" y="0" rx="8"/>
  </defs>
  <g fill="none" fill-rule="evenodd">
    <path fill="#16171B" d="M57.288 14.627h-6.352v2.111h5.768v2.627h-5.768v4.429H48V12h9.288zM62.923 24c-2.678 0-4.927-2.129-4.927-4.652s2.249-4.636 4.927-4.636 4.927 2.112 4.927 4.636S65.601 24 62.923 24m0-2.42c1.185 0 2.18-1.03 2.18-2.232s-.995-2.215-2.18-2.215-2.18 1.013-2.18 2.215.995 2.231 2.18 2.231Zm11.438-6.868c1.906 0 3.262 1.425 3.262 3.434v5.648h-2.781v-4.996c0-.978-.618-1.665-1.511-1.665s-1.562.67-1.562 1.545l-.018-.051v5.167H68.85v-8.876h2.901v1.013c.55-.755 1.494-1.219 2.61-1.219m9.67 6.576.583 1.87c-.532.499-1.407.842-2.163.842-1.665 0-2.833-1.185-2.833-2.85v-3.914h-1.167v-2.318h1.167v-2.437H82.4v2.437h1.837v2.318H82.4v3.382c0 .567.343.961.807.961.326 0 .652-.12.824-.291m11.417-6.661h-6.353v2.111h5.769v2.627h-5.769v4.429H86.16V12h9.289v2.627Zm5.768.085c2.283 0 4 1.443 4 3.812v5.27h-2.798v-.755c-.618.618-1.545.961-2.455.961-1.889 0-3.382-1.15-3.382-2.833 0-1.734 1.665-2.952 3.76-2.952.652 0 1.39.154 2.077.429v-.12c0-.945-.721-1.631-1.94-1.631-.841 0-1.477.257-2.232.652l-.91-1.82c1.236-.618 2.507-1.013 3.88-1.013m-.55 7.503c.86 0 1.632-.412 1.752-1.082v-.944a4.9 4.9 0 0 0-1.665-.292c-.79 0-1.408.498-1.408 1.185 0 .686.55 1.133 1.322 1.133Zm17.358-7.503c1.854 0 3.33 1.425 3.33 3.434v5.665h-2.78v-5.15c0-.893-.584-1.528-1.409-1.528-.875 0-1.493.6-1.493 1.408v5.27h-2.781v-5.15c0-.893-.584-1.528-1.408-1.528-.876 0-1.494.6-1.494 1.408v5.253h-2.901v-8.876h2.901v1.15c.43-.84 1.288-1.356 2.37-1.356 1.184 0 2.214.584 2.798 1.528.48-.927 1.562-1.528 2.867-1.528M127.74 24c-2.678 0-4.927-2.129-4.927-4.652s2.249-4.636 4.927-4.636 4.927 2.112 4.927 4.636S130.418 24 127.74 24m0-2.42c1.185 0 2.18-1.03 2.18-2.232s-.995-2.215-2.18-2.215c-1.184 0-2.18 1.013-2.18 2.215s.996 2.231 2.18 2.231Zm12.241-6.662h2.902v8.876h-2.902v-1.013c-.55.755-1.493 1.219-2.61 1.219-1.905 0-3.261-1.425-3.261-3.433v-5.649h2.78v4.996c0 .979.619 1.665 1.512 1.665.892 0 1.562-.67 1.562-1.545l.017.052zM148.274 24c-1.493 0-3.038-.498-4.12-1.34l1.168-1.87c.824.583 1.957 1.013 3.021 1.013.635 0 .996-.206.996-.55 0-.429-.584-.6-1.46-.807-1.716-.394-3.313-.84-3.33-2.764 0-1.7 1.39-2.97 3.588-2.97 1.322 0 2.61.464 3.605 1.133l-1.064 1.906c-.773-.498-1.734-.875-2.54-.875-.533 0-.91.24-.91.515 0 .394.377.48 1.424.755 1.58.378 3.348.893 3.348 2.918 0 1.786-1.442 2.936-3.726 2.936"/>
    <mask id="b" fill="#fff">
      <use xlink:href="#a"/>
    </mask>
    <use xlink:href="#a" fill="#2B42EA"/>
    <path fill="#000" d="M14.97-.096C15.505-1.255 16.69-2 18-2s2.495.745 3.03 1.904l3.935 8.513c.178.386.458.72.81.969a2.55 2.55 0 0 0 1.2.449l9.56 1c1.3.136 2.398 1.001 2.803 2.208a3.16 3.16 0 0 1-.93 3.386L31.28 22.69a2.4 2.4 0 0 0-.699 1.047 2.35 2.35 0 0 0-.069 1.246l1.974 9.132c.268 1.243-.24 2.522-1.298 3.269a3.41 3.41 0 0 1-3.606.188l-8.34-4.643a2.56 2.56 0 0 0-2.485 0l-8.34 4.643a3.41 3.41 0 0 1-3.605-.188c-1.058-.747-1.566-2.026-1.298-3.27l1.974-9.131c.09-.414.066-.843-.069-1.246a2.4 2.4 0 0 0-.7-1.047l-7.127-6.262a3.16 3.16 0 0 1-.93-3.386c.405-1.207 1.502-2.072 2.803-2.207l9.56-1.001a2.54 2.54 0 0 0 1.2-.45c.352-.248.632-.582.81-.968z" mask="url(#b)" opacity=".3"/>
    <path fill="#FFF" d="M16.802 10.762c.212-.464.68-.762 1.198-.762s.986.298 1.198.762l1.555 3.405a1 1 0 0 0 .321.387 1 1 0 0 0 .475.18l3.779.4c.514.055.948.4 1.108.883s.016 1.014-.368 1.354l-2.818 2.505a.95.95 0 0 0-.304.917l.78 3.653a1.28 1.28 0 0 1-.512 1.308 1.33 1.33 0 0 1-1.426.075l-3.297-1.857a1 1 0 0 0-.982 0l-3.297 1.857a1.33 1.33 0 0 1-1.426-.075 1.28 1.28 0 0 1-.513-1.308l.78-3.652a.95.95 0 0 0-.303-.918l-2.818-2.505a1.27 1.27 0 0 1-.368-1.354 1.31 1.31 0 0 1 1.108-.883l3.78-.4a1 1 0 0 0 .474-.18.96.96 0 0 0 .32-.387z"/>
  </g>
</svg>
