<svg xmlns="http://www.w3.org/2000/svg" width="297" height="60" fill="none">
  <g fill="#17D4A7" clip-path="url(#a)">
    <path d="M23.895 14.033a6.083 6.083 0 0 1 9.967.592 72.7 72.7 0 0 1 19.733-3.113A29.932 29.932 0 0 0 7.492 10.2a77.4 77.4 0 0 1 16.403 3.833m31.493.007-1.763.045a70.5 70.5 0 0 0-19.005 3q.012.184 0 .367a5.6 5.6 0 0 1-1.44 3.75 96 96 0 0 1 5.498 8.528 79 79 0 0 1 2.04 3.795h.307a3.86 3.86 0 0 1 2.25.697q7.582-6.457 13.455-17.347l.12-.218m-25.755 6.038a6.1 6.1 0 0 1-2.415.495 6.05 6.05 0 0 1-4.5-1.98c-7.56 3.825-15.465 9.885-20.82 19.5a42.8 42.8 0 0 0 11.34 2.617 3.615 3.615 0 0 1 6.487.06h.323a36.94 36.94 0 0 0 16.005-5.047 3.4 3.4 0 0 1-.225-1.2 3.53 3.53 0 0 1 1.095-2.55 90 90 0 0 0-7.29-11.895"/>
    <path d="M43.538 56.453c.645-5.116-.51-10.576-2.445-15.75h-.046a3.83 3.83 0 0 1-1.874-.488 39.2 39.2 0 0 1-17.588 5.692h-.323a3.608 3.608 0 0 1-6.697-.06 44 44 0 0 1-11.4-2.505A30 30 0 0 0 43.5 56.73zm14.594-36.855A61.2 61.2 0 0 1 44.7 36.255q.114.423.112.862a3.57 3.57 0 0 1-1.29 2.723c2.093 5.58 3 10.717 2.708 15.367a29.95 29.95 0 0 0 11.902-35.61Zm-35.212-.645a5.4 5.4 0 0 1-.105-2.558A76 76 0 0 0 5.603 12.57 29.94 29.94 0 0 0 1.38 38.992c4.86-8.497 12.158-15.292 21.54-20.04Z"/>
  </g>
  <path fill="#212121" d="M101.86 29.028v13.004q-.767.924-2.367 2.005-1.6 1.06-4.124 1.826t-6.107.766q-3.179 0-5.792-1.037a12.5 12.5 0 0 1-4.507-3.087q-1.87-2.028-2.885-4.958-1.014-2.952-1.014-6.738v-2.051q0-3.786.969-6.738.992-2.953 2.817-4.98a12.05 12.05 0 0 1 4.35-3.088q2.523-1.06 5.611-1.06 4.282 0 7.031 1.398 2.75 1.374 4.192 3.83 1.464 2.434 1.803 5.59h-6.558q-.247-1.668-.947-2.908a4.9 4.9 0 0 0-2.005-1.938q-1.285-.698-3.336-.698-1.69 0-3.02.698-1.306.677-2.208 2.006-.902 1.33-1.375 3.29-.473 1.962-.473 4.553v2.096q0 2.569.496 4.552.495 1.96 1.465 3.313a6.4 6.4 0 0 0 2.433 2.005q1.443.676 3.358.676 1.6 0 2.66-.27 1.082-.27 1.734-.654.677-.405 1.037-.766v-5.814h-6.174v-4.823zm11.898-17.465v34.615h-6.512V11.563zm4.328 22.671v-.473q-.001-2.682.766-4.936.765-2.276 2.231-3.943 1.464-1.668 3.605-2.592 2.14-.947 4.913-.947 2.772 0 4.936.947 2.163.924 3.628 2.592 1.488 1.667 2.253 3.943.767 2.254.767 4.936v.473q0 2.66-.767 4.935-.765 2.255-2.253 3.944-1.464 1.668-3.606 2.592-2.14.924-4.913.924-2.772 0-4.935-.924-2.142-.924-3.628-2.592-1.466-1.69-2.231-3.944-.767-2.276-.766-4.935m6.49-.473v.473q0 1.533.27 2.862t.857 2.344a4.46 4.46 0 0 0 1.577 1.555q.97.564 2.366.563 1.353 0 2.322-.563a4.3 4.3 0 0 0 1.554-1.555q.587-1.014.857-2.344.293-1.329.293-2.862v-.473q0-1.487-.293-2.795-.27-1.329-.879-2.343A4.36 4.36 0 0 0 131.945 27q-.969-.585-2.344-.586-1.375 0-2.344.586a4.6 4.6 0 0 0-1.554 1.623q-.587 1.014-.857 2.343a13.8 13.8 0 0 0-.27 2.795m20.597-22.198h6.491v29.026l-.653 5.59h-5.838V11.562Zm21.928 22.175v.474q0 2.726-.585 5.002-.564 2.277-1.759 3.944a8.4 8.4 0 0 1-2.974 2.57q-1.758.9-4.147.9-2.231 0-3.876-.9-1.622-.902-2.727-2.547-1.103-1.645-1.781-3.854-.675-2.209-1.013-4.822v-1.037q.338-2.614 1.013-4.823.677-2.208 1.781-3.854 1.105-1.644 2.727-2.546 1.623-.902 3.831-.902 2.411 0 4.192.924a7.9 7.9 0 0 1 2.974 2.57q1.195 1.644 1.759 3.92.585 2.254.585 4.981m-6.49.474v-.474q0-1.487-.225-2.794-.204-1.33-.721-2.321a4.1 4.1 0 0 0-1.42-1.6q-.88-.587-2.276-.587-1.33 0-2.255.451-.923.45-1.532 1.262-.585.811-.879 1.938a12 12 0 0 0-.361 2.434v2.953q.069 1.78.587 3.155.541 1.352 1.622 2.14 1.105.767 2.863.767 1.374 0 2.275-.541a3.64 3.64 0 0 0 1.398-1.532q.518-.992.721-2.322.203-1.352.203-2.93Zm23.685 6.467V29.817q0-1.172-.383-2.006a2.85 2.85 0 0 0-1.195-1.33q-.788-.473-2.05-.473-1.083 0-1.871.384-.788.36-1.216 1.059-.429.675-.429 1.6h-6.49q0-1.555.721-2.952.722-1.397 2.096-2.457 1.374-1.081 3.268-1.69 1.916-.609 4.281-.609 2.84 0 5.049.947 2.208.946 3.47 2.84 1.285 1.893 1.284 4.732v10.434q0 2.006.249 3.29.247 1.263.721 2.209v.383h-6.558q-.474-.99-.722-2.479a20.6 20.6 0 0 1-.225-3.02m.857-9.352.045 3.673h-3.629q-1.283 0-2.231.293-.946.294-1.554.834a3.2 3.2 0 0 0-.902 1.217q-.27.7-.271 1.532 0 .835.383 1.51.384.654 1.104 1.037.722.36 1.691.36 1.464 0 2.546-.585 1.083-.586 1.668-1.443.608-.855.632-1.622l1.712 2.75q-.36.923-.991 1.915a9 9 0 0 1-1.556 1.87q-.945.856-2.276 1.42-1.33.54-3.155.54-2.32 0-4.214-.923-1.87-.947-2.975-2.592-1.082-1.667-1.082-3.786 0-1.915.722-3.403a6.64 6.64 0 0 1 2.118-2.501q1.42-1.037 3.539-1.555 2.118-.54 4.912-.541zm17.533-19.764v34.615h-6.513V11.563zm11.854 14.919v29.071h-6.49V21.794h6.016zm15.437 7.234v.473q0 2.66-.631 4.935-.608 2.277-1.803 3.967a8.6 8.6 0 0 1-2.975 2.614q-1.757.924-4.056.924-2.231 0-3.877-.901-1.646-.902-2.771-2.525-1.105-1.645-1.781-3.808a30 30 0 0 1-1.036-4.643v-1.24q.36-2.658 1.036-4.867.676-2.23 1.781-3.854 1.125-1.644 2.749-2.546 1.645-.902 3.854-.902 2.32 0 4.079.88a8 8 0 0 1 2.974 2.523q1.217 1.645 1.826 3.922.631 2.276.631 5.048m-6.513.473v-.473q0-1.555-.27-2.862-.249-1.33-.812-2.322-.541-.991-1.442-1.532-.879-.564-2.141-.564-1.329 0-2.277.429a3.8 3.8 0 0 0-1.509 1.24q-.587.81-.879 1.937t-.36 2.547v3.132q.112 1.668.63 2.998.52 1.307 1.601 2.073 1.082.765 2.839.766 1.285 0 2.164-.563.878-.586 1.419-1.6.564-1.014.789-2.344.248-1.329.248-2.862m17.398-12.395v24.384h-6.513V21.794zm-6.919-6.355q0-1.42.992-2.344.991-.924 2.659-.924 1.646 0 2.637.924 1.013.924 1.014 2.344 0 1.42-1.014 2.344-.991.924-2.637.924-1.668 0-2.659-.924-.992-.924-.992-2.344M252.581 27v19.178h-6.491V21.794h6.084zm-.947 6.13h-1.758q0-2.705.699-4.868.699-2.186 1.96-3.718a8.4 8.4 0 0 1 2.998-2.367q1.758-.834 3.921-.834 1.713 0 3.133.496a6 6 0 0 1 2.433 1.578q1.037 1.08 1.578 2.862.563 1.78.564 4.35v15.55h-6.536V30.605q0-1.623-.451-2.524-.45-.902-1.329-1.262-.856-.384-2.119-.384-1.307 0-2.276.519a4.5 4.5 0 0 0-1.578 1.442q-.607.901-.924 2.119-.315 1.215-.315 2.614Zm35.9-11.336h5.882v23.573q0 3.335-1.487 5.656-1.465 2.344-4.103 3.539-2.636 1.216-6.129 1.217-1.532 0-3.245-.406a13 13 0 0 1-3.245-1.262 8.6 8.6 0 0 1-2.57-2.164l2.863-3.83a8.1 8.1 0 0 0 2.614 2.028q1.487.743 3.29.743 1.757 0 2.975-.653a4.33 4.33 0 0 0 1.871-1.87q.653-1.218.653-2.953V27.428zM271.128 34.28v-.473q0-2.794.676-5.07.699-2.3 1.96-3.945a8.9 8.9 0 0 1 3.11-2.546q1.827-.902 4.124-.902 2.435 0 4.08.902 1.644.9 2.704 2.569 1.06 1.645 1.645 3.899.608 2.23.946 4.89v1.037a29 29 0 0 1-1.013 4.732q-.678 2.187-1.781 3.831-1.104 1.623-2.75 2.524-1.622.902-3.876.902-2.252 0-4.079-.924a9.1 9.1 0 0 1-3.087-2.592q-1.284-1.667-1.983-3.921-.676-2.253-.676-4.913m6.49-.473v.473q0 1.51.293 2.817.292 1.308.902 2.321.63.992 1.554 1.555.947.54 2.231.541 1.78 0 2.908-.743 1.126-.767 1.69-2.096t.654-3.065v-2.953q-.046-1.42-.384-2.546-.337-1.15-.947-1.96a4.1 4.1 0 0 0-1.576-1.263q-.97-.45-2.3-.45-1.283 0-2.231.585a4.8 4.8 0 0 0-1.554 1.556q-.609.99-.924 2.343a12.4 12.4 0 0 0-.316 2.885"/>
  <defs>
    <clipPath id="a">
      <path fill="#fff" d="M0 0h60v60H0z"/>
    </clipPath>
  </defs>
</svg>
