<svg xmlns="http://www.w3.org/2000/svg" width="219" height="50" viewBox="0 0 218 50">
  <path d="M209.059 44.89c-.59 2.653-3.329 4.817-5.97 4.817H4.415c-2.738 0-4.402-2.164-3.816-4.816L9.793 4.813C10.48 2.16 13.121 0 15.859 0h198.578c2.739 0 4.403 2.16 3.817 4.813l-9.195 40.078" style="stroke:none;fill-rule:nonzero;fill:#f60;fill-opacity:1"/>
  <path d="M89.813 18.566 85.41 39.488H64.965c-2.25 0-4.012-.883-5.281-2.75-1.274-1.867-1.567-4.027-1.079-6.383.493-2.457 1.762-4.52 3.72-6.386 2.054-1.867 4.206-2.75 6.456-2.75h13.305l.488-2.262c.098-.586 0-1.176-.293-1.57-.293-.492-.785-.688-1.37-.688H63.3l1.566-7.562h18c2.445 0 4.403.883 5.77 2.847 1.273 1.77 1.761 4.028 1.175 6.582ZM68.585 27.31c-.59 0-1.176.195-1.664.687s-.879.984-.977 1.57q-.145.444 0 .887c.098.293.196.488.293.688.196.195.39.39.586.488.196.101.489.2.781.2h12.23l.978-4.52Zm39.031-3.047 6.551 15.226h-9.195l-3.325-8.84-7.043 8.84h-9.097L98.52 24.262 91.867 9.137h9.195l3.325 8.84 7.043-8.84h9.195Zm0 0" style="stroke:none;fill-rule:nonzero;fill:#fff;fill-opacity:1"/>
  <path d="M140.68 16.7h-13.598c-.684 0-1.371.296-1.957.784-.586.493-.977 1.18-1.172 1.868l-2.152 9.824c-.196.785-.098 1.375.293 1.867.39.488.976.785 1.664.785h15.453l-1.66 7.563h-16.14c-2.446 0-4.403-.883-5.774-2.75-1.367-1.868-1.762-4.125-1.27-6.68l2.445-11.395c.586-2.554 1.856-4.812 4.008-6.68 2.153-1.866 4.5-2.847 6.946-2.847h14.382Zm31.695 7.464c.781-3.828 0-7.66-2.348-10.512-2.25-2.847-5.87-4.515-9.785-4.515h-13.789l-6.457 30.351h16.434c7.238-.488 13.89-6.187 15.457-13.36Zm-7.531-1.668-.395 1.965c-.781 3.832-4.988 7.27-9 7.27h-5.867l3.129-14.934h7.531c1.567 0 2.938.59 3.817 1.574.882 1.078 1.078 2.55.785 4.125m38.734-3.93-4.402 20.922h-7.14l4.304-20.136c.097-.395.097-.688 0-.98-.098-.298-.195-.59-.39-.888a4.5 4.5 0 0 0-.684-.59c-.293-.097-.586-.195-.883-.195h-11.934l-4.89 22.79h-7.141l6.457-30.352h19.758c2.445 0 4.402.883 5.773 2.847 1.27 1.77 1.664 4.028 1.172 6.582M56.648 12.77c-1.855-2.356-4.793-3.633-7.921-3.633H18.5l3.617 7.758-4.793 22.593h7.926l4.793-22.593h6.75L32 39.488h7.922l4.793-22.593h4.012c.878 0 1.566.296 1.957.789.39.488.586 1.273.39 2.062l-4.207 19.742h7.926l3.812-18.074c.59-3.144-.097-6.285-1.957-8.644m0 0" style="stroke:none;fill-rule:nonzero;fill:#fff;fill-opacity:1"/>
</svg>
