<svg xmlns="http://www.w3.org/2000/svg" xml:space="preserve" id="图层_1" x="0" y="0" version="1.1" viewBox="0 0 79.9 33.9">
  <style>
    .st0{fill:#211f1f}
  </style>
  <g id="g846" transform="translate(20.069 13.063)scale(.27628)">
    <path id="path8" d="M-72.6-47.2c9.5 0 18.9.1 28.4 0 1.7-.2 3.4.7 4 2.3 11 21.7 22.1 43.3 33 65C-4.8 24.7-3 29.7-1 34.5c.2.6.6 1.2 1.1 1.7C-1.8 8.4-.6-19.3-1-47.1h24.5V71.5c-.7 0-1.4.1-2.2.1H-5c-1.1.1-2.2-.5-2.6-1.5-9.4-18.3-19.2-36.6-28.3-55-4.5-9.1-8-18.6-12-27.9-.2-.7-.6-1.3-1.1-1.8 2.2 28.6 1.1 57.3 1.4 86-.4.1-.9.2-1.3.3h-22.3c-.5 0-1-.1-1.5-.2z" class="st0"/>
    <path id="path10" d="M74.1 75.3c-3.1-.4-6.2-.8-9.3-1.3-9.7-1.7-18.7-5.2-26.4-11.5-.7-.6-1.3-1.2-2.1-2 4.9-7.2 9.8-14.2 14.4-20.9 4.7 3.2 8.9 6.8 13.7 9.4 7.2 4 15.1 5.6 23.2 3.3 7.3-2 10.9-9.3 7.3-15.1-1.5-2.3-3.5-4.3-5.8-5.6-5.1-2.9-10.5-5.1-15.7-7.8-6.2-3.2-12.6-6.1-18.3-10C35.5.5 37.7-26.8 56-39.1c7.4-4.9 16-7.7 24.8-7.9 12.9-.5 24.7 2.4 35 10.5.9.7 1.7 1.5 2.5 2.3.4.3.6.7 1.1 1.3l-16 19.1c-3.4-4-7.2-7.2-12-9.1-4.6-2-9.8-2.5-14.7-1.4-4.1 1-7.3 3.2-8.5 7.6-1.2 3.9.2 8.1 3.5 10.3 4 2.8 8.1 5.3 12.5 7.4 7.5 4 15.4 7.3 22.7 11.6 7.5 4.2 12.9 11.4 14.7 19.8 3.3 15.2-3.7 29.6-17.8 36.9-6.6 3.4-13.8 5.3-21.1 5.7-.6.1-1.2.2-1.8.4z" class="st0"/>
    <path id="path12" d="M179.3-46.4V71.8h-24.1v-91.2l-13.3 8.8-10-20c4.6-3.2 9.2-6.4 13.7-9.5 2.9-2 5.7-4.9 9-5.9s7.3-.3 10.9-.3z" class="st0"/>
    <path id="path14" d="M202.4 72.3c-7.4.1-13.5-5.8-13.6-13.2v-.2c0-8 5.9-14.1 13.7-14.1 8.2 0 14.1 6 14.1 14.2-.1 7.5-6.1 13.3-14.2 13.3" style="fill:#ee1a6e"/>
  </g>
</svg>
