<svg xmlns="http://www.w3.org/2000/svg" width="80" height="80" fill="none">
  <rect width="78" height="78" x="1" y="1" fill="#fff" rx="39"/>
  <path fill="#F65128" fill-rule="evenodd" d="M32.7 39.82a1.5 1.5 0 0 1-2.12.079l-8.4-7.8a1.5 1.5 0 0 1 0-2.198l8.4-7.8a1.5 1.5 0 0 1 2.04 2.198l-5.6 5.2H48.4a1.5 1.5 0 0 1 0 3H27.02l5.6 5.201a1.5 1.5 0 0 1 .08 2.12m17.92 1.481a1.5 1.5 0 0 0-2.04 2.198l5.6 5.201H32.8a1.5 1.5 0 0 0 0 3h21.38l-5.6 5.201a1.5 1.5 0 0 0 2.04 2.198l8.4-7.8a1.5 1.5 0 0 0 0-2.198z" clip-rule="evenodd"/>
  <rect width="78" height="78" x="1" y="1" stroke="#F65128" stroke-width="2" rx="39"/>
</svg>
