<svg xmlns="http://www.w3.org/2000/svg" xmlns:xlink="http://www.w3.org/1999/xlink" width="157" height="48">
  <defs>
    <path id="a" d="m175.5 42.805-16.9-9.8c-1.2-.7-2.7-.7-4 0l-16.9 9.8c-1.2.7-2 2-2 3.4v3.8c5.2 0 8.4 2.7 11.1 5.1 2.7 2.3 5.3 4.6 9.8 4.6 4.2 0 6.6-3.7 9.2-7.6 2.5-3.8 5.3-8.2 10.3-8.9-.2-.2-.4-.3-.6-.4"/>
    <path id="b" d="M177.5 46.2c-3.7.5-6.8 4-9.2 7.6-2.8 4.2-5.9 9-11.7 9-5.6 0-8.9-2.8-11.7-5.3-2.7-2.3-5-4.4-9.2-4.4v12.7c0 1.4.8 2.7 2 3.4l16.9 9.8c1.2.7 2.7.7 4 0l16.9-9.8c1.2-.7 2-2 2-3.4z"/>
    <path id="c" d="M189.1 48h7.4c3.6 0 6.2 2.3 6.2 5.6s-2.6 5.6-6.2 5.6h-3.9v5.3h-3.5zm7 8c1.8 0 3-1 3-2.4s-1.2-2.3-3-2.3h-3.5V56zv-.1z"/>
    <path id="d" d="m213.6 60.6 2.2 2.3c-1.1 1.2-3.2 1.9-5.1 1.9-3.7 0-6.6-2.7-6.6-6.5 0-3.7 2.8-6.5 6.4-6.5 3.9 0 6.2 3 6.2 7.6h-9c.4 1.3 1.5 2.3 3 2.3 1 0 2.2-.5 2.9-1.1m-5.8-3.7h5.5c-.3-1.2-1.2-2-2.7-2-1.2 0-2.3.8-2.8 2"/>
    <path id="e" d="M226.8 51.8v3c-2.6 0-4.2 1.5-4.2 3.8v5.9h-3.5V52.1h3.5v2.3c.8-1.6 2.3-2.6 4.2-2.6"/>
    <path id="f" d="M233 52.1h2.7v2.8H233v9.6h-3.4v-9.6h-1.7v-2.8h1.7V51c0-2.2 1.5-3.8 3.7-3.8 1 0 2.1.4 2.9 1.1l-.8 2.1c-.2-.2-.7-.4-1.2-.4-.6 0-1.2.6-1.2 1.4z"/>
    <path id="g" d="M237.4 56.2c0-4.6 4-8.5 8.8-8.5s8.8 3.9 8.8 8.5-4 8.5-8.8 8.5c-4.8.1-8.8-3.8-8.8-8.5m13.9 0c0-2.9-2.4-5.3-5.1-5.3-2.8 0-5.1 2.4-5.1 5.3s2.4 5.3 5.1 5.3c2.7.1 5.1-2.4 5.1-5.3"/>
    <path id="h" d="M270.8 58.3c0 3.8-2.4 6.5-5.7 6.5-1.7 0-3.2-.7-4.2-2v5.9h-3.5V52.1h3.5v1.7c1-1.3 2.4-2 4.2-2 3.3 0 5.7 2.7 5.7 6.5m-3.4 0c0-2.1-1.4-3.5-3.3-3.5-1.7 0-3 1.2-3.1 3v1c.2 1.8 1.4 3.1 3.1 3.1 1.9-.1 3.3-1.5 3.3-3.6"/>
    <path id="i" d="m272.3 62.9 1.5-2.4c1.1.8 2.5 1.4 4.2 1.4.9 0 1.6-.4 1.6-.9 0-.8-.9-1-2.2-1.3-2.5-.6-4.5-1.3-4.5-3.8 0-2.4 1.9-4 4.8-4 1.8 0 3.5.6 4.9 1.5l-1.4 2.5c-1.1-.7-2.4-1.1-3.5-1.1-.9 0-1.5.3-1.5.7 0 .7.5.9 2.2 1.3 2.1.6 4.5 1.3 4.5 4 0 2.4-2 4-5 4-2 0-4.1-.7-5.6-1.9"/>
    <path id="j" d="M286 45.6V47h1c.6 0 .9-.3.9-.7s-.4-.7-.9-.7zm2.8 3.5h-.9l-1-1.4h-.9v1.4h-.8v-4.2h1.9c.9 0 1.6.6 1.6 1.4 0 .6-.4 1.1-1.1 1.3z"/>
    <path id="k" d="M287 50.5c2 0 3.5-1.6 3.5-3.5s-1.5-3.5-3.5-3.5-3.5 1.5-3.5 3.5 1.5 3.5 3.5 3.5m0 .7c-2.3 0-4.2-1.9-4.2-4.2s1.9-4.2 4.2-4.2 4.2 1.9 4.2 4.2-1.9 4.2-4.2 4.2"/>
  </defs>
  <use xlink:href="#a" fill="#5055a5" transform="translate(-135 -32)"/>
  <use xlink:href="#b" fill="#33377a" transform="translate(-135 -32)"/>
  <use xlink:href="#c" fill="#33377a" transform="translate(-135 -32)"/>
  <use xlink:href="#d" fill="#33377a" transform="translate(-135 -32)"/>
  <use xlink:href="#e" fill="#33377a" transform="translate(-135 -32)"/>
  <use xlink:href="#f" fill="#33377a" transform="translate(-135 -32)"/>
  <use xlink:href="#g" fill="#33377a" transform="translate(-135 -32)"/>
  <use xlink:href="#h" fill="#33377a" transform="translate(-135 -32)"/>
  <use xlink:href="#i" fill="#33377a" transform="translate(-135 -32)"/>
  <use xlink:href="#j" fill="#33377a" transform="translate(-135 -32)"/>
  <use xlink:href="#k" fill="#33377a" transform="translate(-135 -32)"/>
</svg>
