<svg xmlns="http://www.w3.org/2000/svg" width="80" height="80" fill="none">
  <rect width="78" height="78" x="1" y="1" fill="#fff" rx="39"/>
  <g clip-path="url(#a)">
    <path fill="#F65128" fill-rule="evenodd" d="M53.987 27.29c0-.62-.503-1.123-1.123-1.123a19.48 19.48 0 0 0-13.775 5.706l-3.33 3.329-.003.004-8.553 8.553 9.192 9.192 8.557-8.557.636-.635.001-.002 2.692-2.692a19.48 19.48 0 0 0 5.706-13.775M41.03 57.586l-2.513-2.514 3.455-3.455zm4.22-7.488a6.5 6.5 0 0 1 1.824-3.583l.635-.635 2.693-2.693a22.48 22.48 0 0 0 6.585-15.897 4.123 4.123 0 0 0-4.123-4.123 22.48 22.48 0 0 0-15.897 6.585l-2.691 2.691-.002.002-.639.639a6.5 6.5 0 0 1-3.579 1.82L19.191 36.62a1.5 1.5 0 0 0-.827 2.543l5.657 5.656-1.414 1.415a1.5 1.5 0 1 0 2.121 2.12l1.414-1.413 2.122 2.121-4.243 4.243a1.5 1.5 0 1 0 2.121 2.121l4.243-4.243 2.121 2.122-1.414 1.414a1.5 1.5 0 1 0 2.121 2.121l1.414-1.414 6.364 6.364a1.5 1.5 0 0 0 2.543-.827l1.715-10.865Zm-20.168-8.46 3.455-3.456-5.969.942 2.514 2.513Zm19.091-5.657a3 3 0 1 0 4.243-4.243 3 3 0 0 0-4.242 4.242Z" clip-rule="evenodd"/>
  </g>
  <rect width="78" height="78" x="1" y="1" stroke="#F65128" stroke-width="2" rx="39"/>
  <defs>
    <clipPath id="a">
      <path fill="#fff" d="M16 16h48v48H16z"/>
    </clipPath>
  </defs>
</svg>
