<?xml version="1.0" encoding="utf-8"?><!DOCTYPE svg PUBLIC "-//W3C//DTD SVG 1.1//EN" "http://www.w3.org/Graphics/SVG/1.1/DTD/svg11.dtd" [<!ENTITY ns_flows "http://ns.adobe.com/Flows/1.0/"><!ENTITY ns_extend "http://ns.adobe.com/Extensibility/1.0/"><!ENTITY ns_ai "http://ns.adobe.com/AdobeIllustrator/10.0/"><!ENTITY ns_graphs "http://ns.adobe.com/Graphs/1.0/">]>
<svg version="1.1" id="Layer_1" xmlns:x="&ns_extend;" xmlns:i="&ns_ai;" xmlns:graph="&ns_graphs;" xmlns="http://www.w3.org/2000/svg" xmlns:xlink="http://www.w3.org/1999/xlink" xmlns:a="http://ns.adobe.com/AdobeSVGViewerExtensions/3.0/" x="0px" y="0px" width="14px" height="29px" viewBox="0 0 14 29" enable-background="new 0 0 14 29" xml:space="preserve">
<g><path fill="#FFFFFF" d="M1.52,13.5c-0.563,0-1.021-0.458-1.021-1.02V1.521C0.5,0.958,0.958,0.5,1.52,0.5h10.958
		c0.563,0,1.021,0.458,1.021,1.021v10.96c0,0.562-0.458,1.02-1.021,1.02H1.52z"/><path fill="#B5BAC0" d="M12.479,1C12.766,1,13,1.233,13,1.521v10.96c0,0.287-0.234,0.52-0.521,0.52H1.52C1.233,13,1,12.767,1,12.48
		V1.521C1,1.233,1.233,1,1.52,1H12.479 M12.479,0H1.52C0.681,0,0,0.682,0,1.521v10.96C0,13.319,0.681,14,1.52,14h10.958
		C13.319,14,14,13.319,14,12.48V1.521C14,0.682,13.319,0,12.479,0L12.479,0z"/></g>
<g><path fill="#FFFFFF" d="M1.52,28.5c-0.563,0-1.021-0.457-1.021-1.02v-10.96c0-0.563,0.458-1.021,1.021-1.021h10.958
		c0.563,0,1.021,0.458,1.021,1.021v10.96c0,0.563-0.458,1.02-1.021,1.02H1.52z"/><path fill="#B5BAC0" d="M12.479,16C12.766,16,13,16.233,13,16.521v10.96c0,0.287-0.234,0.52-0.521,0.52H1.52
		C1.233,28,1,27.768,1,27.48v-10.96C1,16.233,1.233,16,1.52,16H12.479 M12.479,15H1.52C0.681,15,0,15.682,0,16.521v10.96
		C0,28.319,0.681,29,1.52,29h10.958C13.319,29,14,28.319,14,27.48v-10.96C14,15.682,13.319,15,12.479,15L12.479,15z"/></g>
<g><path d="M11.337,20.293l-4.203,4.203l-0.79,0.791c-0.104,0.104-0.25,0.162-0.396,0.162c-0.145,0-0.29-0.059-0.395-0.162
		l-0.79-0.791l-2.102-2.102C2.558,22.29,2.5,22.145,2.5,22s0.058-0.29,0.163-0.395l0.79-0.791c0.105-0.104,0.25-0.162,0.396-0.162
		c0.144,0,0.289,0.059,0.394,0.162l1.707,1.715l3.809-3.816c0.105-0.104,0.25-0.162,0.396-0.162c0.145,0,0.29,0.059,0.394,0.162
		l0.79,0.789c0.104,0.105,0.163,0.252,0.163,0.396C11.5,20.043,11.441,20.188,11.337,20.293z"/></g>
</svg>
