<svg id="Layer_1" xmlns="http://www.w3.org/2000/svg" viewBox="0 0 182 26"><style>.st0{fill:#FFFFFF;} .st1{fill:#B44639;} .st2{fill:#DB4C3C;} .st3{fill:#F3C136;} .st4{fill:#D89712;} .st5{fill:#757C82;}</style><path class="st0" d="M105.5 15c0 3.1-1.1 4.7-3.3 4.7-.3 0-.7 0-1-.1v-.9c.4.1.7.2 1 .2.8 0 1.5-.3 1.8-.9.4-.6.6-1.6.6-2.9V6.5h.9V15zM108.3 19v-1c.9.6 1.9.9 2.9.9s1.8-.2 2.4-.6c.5-.4.8-1 .8-1.8 0-.7-.2-1.2-.5-1.6-.4-.4-1.1-.9-2.3-1.6-1.3-.8-2.2-1.4-2.5-1.9-.4-.5-.5-1.1-.5-1.8 0-.9.4-1.7 1.1-2.3.7-.6 1.7-1 2.9-1 .8 0 1.6.1 2.4.4v.9c-.8-.3-1.6-.5-2.5-.5-.9 0-1.6.2-2.1.7-.5.4-.8 1-.8 1.7s.2 1.2.5 1.6c.4.4 1.1.9 2.3 1.6 1.2.7 2.1 1.3 2.5 1.8.4.5.6 1.1.6 1.8 0 1-.4 1.8-1.1 2.4-.7.6-1.7.9-3 .9-.5 0-1-.1-1.6-.2-.7 0-1.2-.2-1.5-.4zM117.9 19.5v-13h4.7c4.7 0 7.1 2.1 7.1 6.3 0 2-.6 3.6-1.9 4.8-1.3 1.2-3 1.8-5.1 1.8h-4.8zm3-10.6v8.2h1.5c1.3 0 2.3-.4 3-1.1.7-.8 1.1-1.8 1.1-3.1 0-1.2-.4-2.2-1.1-2.9-.7-.7-1.8-1.1-3.1-1.1h-1.4zM140 19.5h-7.9v-13h7.6v2.4H135v2.9h4.3v2.4H135v3h5v2.3zM150.4 19.5h-7.9v-13h3v10.6h4.9v2.4zM155.3 6.5v12.9h-3V6.5h3zM169.5 6.5l-4.5 13h-3.4l-4.5-12.9h3.2l2.8 9c.1.5.2.9.3 1.3h.1c0-.4.1-.8.3-1.3l2.7-9h3zM182.4 19.5H179l-2.1-3.3c-.2-.3-.3-.5-.4-.7-.1-.2-.3-.4-.4-.5-.1-.1-.3-.2-.5-.3-.2-.1-.3-.1-.5-.1h-.8v5h-3V6.5h4.7c3.2 0 4.8 1.2 4.8 3.5 0 .5-.1.9-.2 1.3s-.3.7-.6 1c-.3.3-.6.6-.9.8-.4.2-.8.4-1.2.5l.6.3c.2.1.4.3.5.5.2.2.3.4.5.6.2.2.3.4.4.6l2.5 3.9zm-8.1-10.8v3.6h1.3c.6 0 1.2-.2 1.5-.5.4-.4.6-.8.6-1.4 0-1.1-.7-1.7-2.1-1.7h-1.3z"/><g><path class="st1" d="M83.9 25.4l-.9.6-1-.6V.4l1-.4.9.4z"/><path class="st1" d="M83 0l12.6 4.3-2 16L83 26z"/><path class="st2" d="M83 0L70.4 4.3l2 16L83 26z"/><path class="st3" d="M80.8 19.3c-1.2-.4-2.3-1-3.1-1.9l-.3-.3c-.7-.8-1.2-1.7-1.5-2.6.2.2.4.3.6.5.3.2.7.4 1 .6.1.1.2.1.3.1.1.1.3.1.4.2h.1c.1.6.5 1.1 1.1 1.2.3.8.7 1.6 1.4 2.2zM81.2 9c0 .3.1.5.2.7-1 1.4-1.7 2.8-2 4.3 0 .2-.1.3-.1.5-.3.1-.6.3-.8.6-.1 0-.2-.1-.3-.1-.2-.1-.3-.1-.5-.2-.5-.3-1-.6-1.4-1-.1-.1-.2-.2-.2-.3l-.1-.1v-.1c0-.1-.1-.1-.1-.2v-.5c0-1.5.4-2.8 1.2-4-.3-.4-.2-.5-.1-.6.1-.1.2-.2.3-.4.9-1 2.1-1.8 3.4-2.2 0 .1 0 .3.1.4.2.8.4 1.5.8 2.3-.2.2-.4.5-.4.9zM80.4 15.7c0 .2-.1.3-.2.5 0 0 0 .1-.1.1-.1.1-.3.2-.5.2-.1 0-.3 0-.4-.1l-.3-.3c0-.1-.1-.2-.1-.3 0-.2.1-.4.2-.5l.1-.1c.1-.1.3-.1.4-.1.2 0 .3.1.4.1.1 0 .1.1.2.2.3.1.3.2.3.3zM83.3 9c0 .1 0 .2-.1.3-.1.2-.4.4-.6.4h-.1c-.3-.1-.5-.3-.6-.6V9v-.2c.1-.3.4-.5.7-.5.3 0 .6.2.7.5V9z"/><path class="st4" d="M90.5 12.3c0 .7-.1 1.4-.3 2-.6-.2-1.3-.4-1.9-.7v-.3c0-.2 0-.3-.1-.5 0 0 .1 0 .1-.1.8-.8 1.4-1.6 1.9-2.5.2.8.3 1.5.3 2.1zM89.8 9.3c-.1.1-.1.2-.2.3-.5 1-1.2 1.9-2 2.7-.2-.1-.4-.2-.7-.2-.3 0-.6.1-.8.3-.4-.3-.8-.7-1.2-1-.5-.5-.9-1-1.3-1.5.2-.3.4-.6.4-.9 0-.2-.1-.5-.2-.7 1-.9 2-1.6 3.1-2.2 1.2.8 2.3 1.9 2.9 3.2zM87.7 13.4c0 .3-.2.5-.4.7-.1 0-.2.1-.3.1h-.1c-.3-.1-.5-.3-.6-.6 0-.3.2-.6.5-.7h.4c.2-.1.4.2.5.5zM87.8 14.4c-.2.2-.6.3-.9.3-.3 0-.5-.1-.8-.2 0 0-.1 0-.1.1-1 .6-2 1.1-3.1 1.3v3.8c3.1 0 5.8-1.8 6.9-4.5-.6-.2-1.3-.5-2-.8z"/><path class="st3" d="M83 15.9c-.6.2-1.3.3-1.9.3H81c-.1.3-.4.6-.7.7.2.7.5 1.3 1.1 1.8.4.4.9.7 1.5.9h.1v-3.7z"/><path class="st4" d="M85.6 13.4c0-.1 0-.3.1-.4-.4-.3-.9-.7-1.3-1.1-.5-.5-.9-1-1.3-1.5V15c.9-.3 1.8-.6 2.6-1.2-.1-.1-.1-.2-.1-.4z"/><path class="st3" d="M83 10.4l-.1-.1h-.3c-.2 0-.4 0-.5-.1-.9 1.3-1.5 2.6-1.8 3.9 0 .1 0 .3-.1.4.4.1.7.5.8.8.6 0 1.3-.1 1.9-.3v-4.6z"/><path class="st4" d="M83 5.1v2.6h.1C84 6.9 85 6.2 86 5.6c-.9-.3-1.9-.5-3-.5z"/><path class="st3" d="M83 5.1c-.5 0-1 0-1.4.1 0 .2 0 .3.1.5.1.7.4 1.3.7 2h.3c.1 0 .3 0 .4.1V5.1z"/></g><g><path class="st5" d="M0 17.2v-8h3.2c.8 0 1.4.2 1.8.7s.7 1 .7 1.7-.2 1.3-.7 1.8-1 .7-1.8.7H1v3.2H0zm1-4h2.1c.5 0 .9-.1 1.2-.4s.4-.7.4-1.1-.1-.8-.4-1.1-.7-.4-1.2-.4H1v3zM7.3 16.5c-.5-.6-.8-1.3-.8-2.2s.3-1.6.8-2.2c.5-.6 1.2-.9 2.1-.9s1.6.3 2.1.9c.5.6.8 1.3.8 2.2s-.3 1.6-.8 2.2c-.5.6-1.2.9-2.1.9s-1.6-.3-2.1-.9zm.7-3.7c-.3.4-.5 1-.5 1.6s.2 1.2.5 1.6c.3.4.8.7 1.4.7s1.1-.2 1.4-.7c.3-.4.5-1 .5-1.6s-.2-1.2-.5-1.6-.8-.7-1.4-.7-1.1.2-1.4.7zM13 11.4h.9l1.4 4.6 1.5-4.6h.8l1.5 4.6 1.4-4.6h.9l-1.9 5.8h-.9l-1.5-4.7-1.5 4.7h-.9L13 11.4zM22.2 14.3c0-.9.3-1.6.8-2.2.5-.6 1.2-.9 2-.9.9 0 1.5.3 2 .9s.8 1.3.8 2.2v.2h-4.7c0 .5.2 1 .6 1.4.4.4.9.6 1.5.6.7 0 1.3-.2 1.8-.7l.4.6c-.6.6-1.4 1-2.3 1-.9 0-1.6-.3-2.1-.8-.5-.6-.8-1.4-.8-2.3zm.9-.3h3.8c0-.5-.2-.9-.5-1.3s-.8-.6-1.4-.6c-.6 0-1 .2-1.4.6s-.5.8-.5 1.3zM29.3 17.2v-5.8h.9v.9c.6-.7 1.2-1 1.9-1v.9h-.3c-.3 0-.6.1-.9.3-.3.2-.5.4-.7.6v4.1h-.9zM32.9 14.3c0-.9.3-1.6.8-2.2.5-.6 1.2-.9 2-.9.9 0 1.5.3 2 .9s.8 1.3.8 2.2v.2h-4.7c0 .5.2 1 .6 1.4.4.4.9.6 1.5.6.7 0 1.3-.2 1.8-.7l.4.6c-.6.6-1.4 1-2.3 1-.9 0-1.6-.3-2.1-.8-.5-.6-.8-1.4-.8-2.3zm.9-.3h3.8c0-.5-.2-.9-.5-1.3s-.8-.6-1.4-.6c-.6 0-1 .2-1.4.6s-.5.8-.5 1.3zM39.6 14.3c0-.9.2-1.7.7-2.2s1.1-.8 1.9-.8c.8 0 1.4.3 1.9 1V9.2h.9v8h-.9v-.9c-.5.7-1.1 1-1.9 1-.8 0-1.4-.3-1.9-.8-.4-.5-.7-1.2-.7-2.2zm1.5-1.6c-.3.4-.5 1-.5 1.6s.2 1.2.5 1.6c.3.4.8.6 1.4.6.3 0 .7-.1 1-.3.3-.2.6-.4.7-.7V13c-.2-.3-.4-.5-.7-.7-.3-.2-.7-.3-1-.3-.6.1-1.1.3-1.4.7zM50 17.2v-8h.9v3.1c.5-.7 1.2-1 2-1s1.4.3 1.9.8.7 1.3.7 2.2c0 .9-.2 1.7-.7 2.2-.5.5-1.1.8-1.9.8-.8 0-1.5-.3-2-1v.9H50zm.9-1.5c.2.3.4.5.7.6.3.2.7.3 1 .3.6 0 1-.2 1.4-.6.3-.4.5-1 .5-1.6s-.2-1.2-.5-1.6-.8-.6-1.4-.6c-.4 0-.7.1-1 .3-.3.2-.6.4-.7.7v2.5zM56 11.4h1l1.9 4.8 1.9-4.8h1l-2.9 7c-.3.8-.9 1.2-1.7 1.2-.3 0-.5 0-.7-.1l.1-.8c.1.1.3.1.5.1s.4 0 .5-.1.3-.2.3-.5l.4-.9-2.3-5.9z"/></g></svg>