<svg xmlns="http://www.w3.org/2000/svg" width="1329" height="160" viewBox="0 0 1329 160"><circle cx="1011" cy="45" r="1.5" fill="#028cb9" opacity=".6"/><circle cx="678.5" cy="55" r="1.5" fill="#028cb9" opacity=".6"/><circle cx="811.5" cy="75" r="1.5" fill="#028cb9" opacity=".6"/><circle cx="545.5" cy="75" r="1.5" fill="#028cb9" opacity=".6"/><circle cx="1210.5" cy="55" r="1.5" fill="#028cb9" opacity=".6"/><circle cx="1077.5" cy="75" r="1.5" fill="#028cb9" opacity=".6"/><circle cx="1144" cy="25" r="1.5" fill="#028cb9" opacity=".6"/><circle cx="878" cy="25" r="1.5" fill="#028cb9" opacity=".6"/><circle cx="944.5" cy="55" r="1.5" fill="#028cb9" opacity=".6"/><circle cx="589.407" cy="56.258" r="1.5" fill="#028cb9" opacity=".6"/><circle cx="745" cy="45" r="1.5" fill="#028cb9" opacity=".6"/><circle cx="479" cy="45" r="1.5" fill="#028cb9" opacity=".6"/><circle cx="1041" cy="94" r="1.5" fill="#028cb9" opacity=".6"/><circle cx="708.5" cy="104" r="1.5" fill="#028cb9" opacity=".6"/><circle cx="841.5" cy="124" r="1.5" fill="#028cb9" opacity=".6"/><circle cx="575.5" cy="124" r="1.5" fill="#028cb9" opacity=".6"/><circle cx="1240.5" cy="104" r="1.5" fill="#028cb9" opacity=".6"/><circle cx="1107.5" cy="124" r="1.5" fill="#028cb9" opacity=".6"/><circle cx="1174" cy="74" r="1.5" fill="#028cb9" opacity=".6"/><circle cx="908" cy="74" r="1.5" fill="#028cb9" opacity=".6"/><circle cx="974.5" cy="104" r="1.5" fill="#028cb9" opacity=".6"/><circle cx="642" cy="74" r="1.5" fill="#028cb9" opacity=".6"/><circle cx="775" cy="94" r="1.5" fill="#028cb9" opacity=".6"/><circle cx="509" cy="94" r="1.5" fill="#028cb9" opacity=".6"/><circle cx="121" cy="53" r="1.5" fill="#028cb9" opacity=".6"/><circle cx="54.5" cy="23" r="1.5" fill="#028cb9" opacity=".6"/><circle cx="151" cy="102" r="1.5" fill="#028cb9" opacity=".6"/><circle cx="18" cy="122" r="1.5" fill="#028cb9" opacity=".6"/><circle cx="84.5" cy="72" r="1.5" fill="#028cb9" opacity=".6"/><g opacity=".6"><circle cx="575.747" cy="42.918" r="6.738" fill="#fff" opacity=".05"/><circle cx="575.747" cy="42.918" r="2.383" fill="#9fd2e7"/></g><g opacity=".6"><circle cx="602" cy="34.689" r="10.6" fill="#fff" opacity=".05"/><circle cx="602" cy="34.689" r="3.749" fill="#9fd2e7"/><circle cx="601.839" cy="34.689" r="6.69" fill="#fff" opacity=".1"/></g><g opacity=".6"><circle cx="935.732" cy="32.854" r="5.486" fill="#fff" opacity=".05"/><circle cx="935.732" cy="32.854" r="1.94" fill="#9fd2e7"/></g><g opacity=".6"><circle cx="931.755" cy="71.144" r="11.245" fill="#fff" opacity=".05"/><circle cx="931.755" cy="71.144" r="3.977" fill="#9fd2e7"/><circle cx="931.755" cy="71.315" r="7.097" fill="#fff" opacity=".1"/></g><g opacity=".6"><circle cx="825.06" cy="66.014" r="5.486" fill="#fff" opacity=".05"/><circle cx="825.06" cy="66.014" r="1.94" fill="#9fd2e7"/></g><g opacity=".6"><circle cx="812.376" cy="60.904" r="2.156" fill="#fff" opacity=".05"/><circle cx="812.376" cy="60.904" r=".762" fill="#9fd2e7"/></g><g opacity=".6"><circle cx="916.568" cy="52.244" r="6.738" fill="#fff" opacity=".05"/><circle cx="916.568" cy="52.244" r="2.383" fill="#9fd2e7"/></g><g opacity=".6"><circle cx="1026.849" cy="127.147" r="10.6" fill="#fff" opacity=".05"/><circle cx="1026.849" cy="127.147" r="3.749" fill="#9fd2e7"/><circle cx="1026.688" cy="127.147" r="6.69" fill="#fff" opacity=".1"/></g><g opacity=".6"><circle cx="1252.493" cy="96.725" r="5.486" fill="#fff" opacity=".05"/><circle cx="1252.493" cy="96.725" r="1.94" fill="#9fd2e7"/></g><g opacity=".6"><circle cx="1308.925" cy="34.689" r="11.245" fill="#fff" opacity=".05"/><circle cx="1308.925" cy="34.689" r="3.977" fill="#9fd2e7"/><circle cx="1308.925" cy="34.86" r="7.097" fill="#fff" opacity=".1"/></g><g opacity=".6"><circle cx="1165.89" cy="69.204" r="5.486" fill="#fff" opacity=".05"/><circle cx="1165.89" cy="69.204" r="1.94" fill="#9fd2e7"/></g><circle cx="1278.731" cy="58.208" r="1.5" fill="#028cb9" opacity=".6"/><g opacity=".6"><circle cx="1263.732" cy="51.91" r="5.486" fill="#fff" opacity=".05"/><circle cx="1263.732" cy="51.91" r="1.94" fill="#9fd2e7"/></g><g opacity=".6"><circle cx="1266.517" cy="65.298" r="2.156" fill="#fff" opacity=".05"/><circle cx="1266.517" cy="65.298" r=".762" fill="#9fd2e7"/></g><g opacity=".6"><circle cx="98.952" cy="44.1" r="11.245" fill="#fff" opacity=".05"/><circle cx="98.952" cy="44.1" r="3.977" fill="#9fd2e7"/><circle cx="99.096" cy="44.008" r="7.097" fill="#fff" opacity=".1"/></g><g opacity=".6"><circle cx="118.144" cy="71.144" r="6.738" fill="#fff" opacity=".05"/><circle cx="118.144" cy="71.144" r="2.383" fill="#9fd2e7"/></g><g opacity=".6"><circle cx="170.514" cy="34.689" r="5.486" fill="#fff" opacity=".05"/><circle cx="170.514" cy="34.689" r="1.94" fill="#9fd2e7"/></g><g opacity=".6"><circle cx="1271.963" cy="118.511" r="9.21" fill="#fff" opacity=".05"/><circle cx="1271.963" cy="118.511" r="3.257" fill="#9fd2e7"/></g><g opacity=".6"><circle cx="552.486" cy="135.042" r="5.486" fill="#fff" opacity=".05"/><circle cx="552.486" cy="135.042" r="1.94" fill="#9fd2e7"/></g><g opacity=".6"><circle cx="1074" cy="21.5" r="5.486" fill="#fff" opacity=".05"/><circle cx="1074" cy="21.5" r="1.94" fill="#9fd2e7"/></g><g opacity=".6"><circle cx="47.514" cy="140.233" r="5.486" fill="#fff" opacity=".05"/><circle cx="47.514" cy="140.233" r="1.94" fill="#9fd2e7"/></g><circle cx="361.315" cy="85.721" r="1.5" fill="#028cb9" opacity=".6"/><circle cx="317.409" cy="124.463" r="1.5" fill="#028cb9" opacity=".6"/><circle cx="427.815" cy="115.721" r="1.5" fill="#028cb9" opacity=".6"/><circle cx="309.399" cy="26.815" r="1.5" fill="#028cb9" opacity=".6"/><circle cx="264.815" cy="86.721" r="1.5" fill="#028cb9" opacity=".6"/><circle cx="397.815" cy="66.721" r="1.5" fill="#028cb9" opacity=".6"/><g opacity=".6"><circle cx="329.042" cy="135.775" r="4.711" fill="#fff" opacity=".05"/><circle cx="329.042" cy="135.775" r="1.666" fill="#9fd2e7"/></g><g opacity=".6"><circle cx="345.956" cy="143.932" r="7.412" fill="#fff" opacity=".05"/><circle cx="345.956" cy="143.932" r="2.621" fill="#9fd2e7"/><circle cx="346.069" cy="143.932" r="4.678" fill="#fff" opacity=".1"/></g><g opacity=".6"><circle cx="297.726" cy="35.282" r="5.486" fill="#fff" opacity=".05"/><circle cx="297.726" cy="35.282" r="1.94" fill="#9fd2e7"/></g><circle cx="411.862" cy="44.087" r="1.5" fill="#028cb9" opacity=".6"/><g opacity=".6"><circle cx="410.468" cy="27.88" r="5.486" fill="#fff" opacity=".05"/><circle cx="410.468" cy="27.88" r="1.94" fill="#9fd2e7"/></g><g opacity=".6"><circle cx="399.907" cy="36.568" r="2.156" fill="#fff" opacity=".05"/><circle cx="399.907" cy="36.568" r=".762" fill="#9fd2e7"/></g></svg>