<svg width="100" height="8" viewBox="0 0 100 8" fill="none" xmlns="http://www.w3.org/2000/svg">
<path d="M0.335469 7.57617V0.576171H3.31547C3.71547 0.576171 4.08214 0.676172 4.41547 0.876172C4.75547 1.0695 5.02547 1.33617 5.22547 1.67617C5.42547 2.0095 5.52547 2.38617 5.52547 2.80617C5.52547 3.18617 5.42547 3.53951 5.22547 3.86617C5.02547 4.19284 4.7588 4.45617 4.42547 4.65617C4.09214 4.84951 3.72214 4.94617 3.31547 4.94617H1.41547V7.57617H0.335469ZM4.49547 7.57617L2.71547 4.41617L3.82547 4.16617L5.80547 7.58617L4.49547 7.57617ZM1.41547 3.90617H3.41547C3.6088 3.90617 3.78214 3.85951 3.93547 3.76617C4.0888 3.66617 4.2088 3.53284 4.29547 3.36617C4.38214 3.19284 4.42547 3.00284 4.42547 2.79617C4.42547 2.56284 4.3688 2.35951 4.25547 2.18617C4.1488 2.00617 3.99547 1.86617 3.79547 1.76617C3.60214 1.66617 3.38214 1.61617 3.13547 1.61617H1.41547V3.90617ZM10.1209 7.67617C9.6276 7.67617 9.17094 7.58617 8.75094 7.40617C8.3376 7.22617 7.97427 6.97617 7.66094 6.65617C7.35427 6.32951 7.11427 5.94951 6.94094 5.51617C6.77427 5.07617 6.69094 4.59617 6.69094 4.07617C6.69094 3.55617 6.77427 3.0795 6.94094 2.64617C7.11427 2.20617 7.35427 1.82617 7.66094 1.50617C7.97427 1.1795 8.3376 0.926172 8.75094 0.746172C9.17094 0.566172 9.6276 0.476171 10.1209 0.476171C10.6143 0.476171 11.0676 0.566172 11.4809 0.746172C11.9009 0.926172 12.2643 1.1795 12.5709 1.50617C12.8843 1.83284 13.1243 2.21617 13.2909 2.65617C13.4643 3.08951 13.5509 3.56284 13.5509 4.07617C13.5509 4.58951 13.4643 5.06617 13.2909 5.50617C13.1243 5.93951 12.8843 6.31951 12.5709 6.64617C12.2643 6.97284 11.9009 7.22617 11.4809 7.40617C11.0676 7.58617 10.6143 7.67617 10.1209 7.67617ZM10.1209 6.62617C10.4609 6.62617 10.7709 6.56284 11.0509 6.43617C11.3376 6.30951 11.5843 6.13284 11.7909 5.90617C11.9976 5.67284 12.1576 5.40284 12.2709 5.09617C12.3909 4.78284 12.4509 4.44284 12.4509 4.07617C12.4509 3.7095 12.3909 3.37284 12.2709 3.06617C12.1576 2.75284 11.9976 2.48284 11.7909 2.25617C11.5843 2.02284 11.3376 1.84284 11.0509 1.71617C10.7709 1.5895 10.4609 1.52617 10.1209 1.52617C9.78094 1.52617 9.4676 1.5895 9.18094 1.71617C8.90094 1.84284 8.65427 2.0195 8.44094 2.24617C8.23427 2.47284 8.07427 2.74284 7.96094 3.05617C7.8476 3.36284 7.79094 3.70284 7.79094 4.07617C7.79094 4.44284 7.8476 4.78284 7.96094 5.09617C8.07427 5.40951 8.23427 5.67951 8.44094 5.90617C8.65427 6.13284 8.90094 6.30951 9.18094 6.43617C9.4676 6.56284 9.78094 6.62617 10.1209 6.62617ZM15.0132 7.57617V0.576171H17.9332C18.3799 0.576171 18.7565 0.642838 19.0632 0.776172C19.3699 0.909505 19.5999 1.10951 19.7532 1.37617C19.9132 1.63617 19.9932 1.95617 19.9932 2.33617C19.9932 2.71617 19.8865 3.03951 19.6732 3.30617C19.4665 3.57284 19.1765 3.75617 18.8032 3.85617V3.65617C19.1165 3.72284 19.3899 3.84284 19.6232 4.01617C19.8565 4.18284 20.0365 4.39284 20.1632 4.64617C20.2965 4.8995 20.3632 5.1895 20.3632 5.51617C20.3632 5.84951 20.3099 6.14617 20.2032 6.40617C20.1032 6.65951 19.9499 6.87284 19.7432 7.04617C19.5432 7.21951 19.2999 7.35284 19.0132 7.44617C18.7265 7.53284 18.3999 7.57617 18.0332 7.57617H15.0132ZM16.0932 6.53617H17.9732C18.2465 6.53617 18.4765 6.49617 18.6632 6.41617C18.8565 6.33617 19.0032 6.21951 19.1032 6.06617C19.2099 5.90617 19.2632 5.71617 19.2632 5.49617C19.2632 5.28951 19.2065 5.11284 19.0932 4.96617C18.9865 4.81951 18.8332 4.70951 18.6332 4.63617C18.4332 4.55617 18.1965 4.51617 17.9232 4.51617H16.0932V6.53617ZM16.0932 3.47617H17.8732C18.0732 3.47617 18.2499 3.43617 18.4032 3.35617C18.5632 3.27617 18.6865 3.16617 18.7732 3.02617C18.8665 2.88617 18.9132 2.72617 18.9132 2.54617C18.9132 2.24617 18.8132 2.01617 18.6132 1.85617C18.4132 1.69617 18.1265 1.61617 17.7532 1.61617H16.0932V3.47617ZM21.8198 7.57617V0.576171H26.2298V1.61617H22.8998V6.53617H26.2298V7.57617H21.8198ZM22.3098 4.50617V3.46617H25.6798V4.50617H22.3098ZM27.9624 7.57617V0.576171H30.9424C31.3424 0.576171 31.7091 0.676172 32.0424 0.876172C32.3824 1.0695 32.6524 1.33617 32.8524 1.67617C33.0524 2.0095 33.1524 2.38617 33.1524 2.80617C33.1524 3.18617 33.0524 3.53951 32.8524 3.86617C32.6524 4.19284 32.3858 4.45617 32.0524 4.65617C31.7191 4.84951 31.3491 4.94617 30.9424 4.94617H29.0424V7.57617H27.9624ZM32.1224 7.57617L30.3424 4.41617L31.4524 4.16617L33.4324 7.58617L32.1224 7.57617ZM29.0424 3.90617H31.0424C31.2358 3.90617 31.4091 3.85951 31.5624 3.76617C31.7158 3.66617 31.8358 3.53284 31.9224 3.36617C32.0091 3.19284 32.0524 3.00284 32.0524 2.79617C32.0524 2.56284 31.9958 2.35951 31.8824 2.18617C31.7758 2.00617 31.6224 1.86617 31.4224 1.76617C31.2291 1.66617 31.0091 1.61617 30.7624 1.61617H29.0424V3.90617ZM36.0502 7.57617V1.61617H34.0902V0.576171H39.1502V1.61617H37.1302V7.57617H36.0502ZM46.9874 5.45617L46.9274 4.24617L50.5974 0.576171H52.0174L46.9874 5.45617ZM46.0874 7.57617V0.576171H47.1674V7.57617H46.0874ZM50.7274 7.57617L48.0474 3.99617L48.8474 3.30617L52.0774 7.57617H50.7274ZM55.8924 7.67617C55.3991 7.67617 54.9424 7.58617 54.5224 7.40617C54.1091 7.22617 53.7458 6.97617 53.4324 6.65617C53.1258 6.32951 52.8858 5.94951 52.7124 5.51617C52.5458 5.07617 52.4624 4.59617 52.4624 4.07617C52.4624 3.55617 52.5458 3.0795 52.7124 2.64617C52.8858 2.20617 53.1258 1.82617 53.4324 1.50617C53.7458 1.1795 54.1091 0.926172 54.5224 0.746172C54.9424 0.566172 55.3991 0.476171 55.8924 0.476171C56.3858 0.476171 56.8391 0.566172 57.2524 0.746172C57.6724 0.926172 58.0358 1.1795 58.3424 1.50617C58.6558 1.83284 58.8958 2.21617 59.0624 2.65617C59.2358 3.08951 59.3224 3.56284 59.3224 4.07617C59.3224 4.58951 59.2358 5.06617 59.0624 5.50617C58.8958 5.93951 58.6558 6.31951 58.3424 6.64617C58.0358 6.97284 57.6724 7.22617 57.2524 7.40617C56.8391 7.58617 56.3858 7.67617 55.8924 7.67617ZM55.8924 6.62617C56.2324 6.62617 56.5424 6.56284 56.8224 6.43617C57.1091 6.30951 57.3558 6.13284 57.5624 5.90617C57.7691 5.67284 57.9291 5.40284 58.0424 5.09617C58.1624 4.78284 58.2224 4.44284 58.2224 4.07617C58.2224 3.7095 58.1624 3.37284 58.0424 3.06617C57.9291 2.75284 57.7691 2.48284 57.5624 2.25617C57.3558 2.02284 57.1091 1.84284 56.8224 1.71617C56.5424 1.5895 56.2324 1.52617 55.8924 1.52617C55.5524 1.52617 55.2391 1.5895 54.9524 1.71617C54.6724 1.84284 54.4258 2.0195 54.2124 2.24617C54.0058 2.47284 53.8458 2.74284 53.7324 3.05617C53.6191 3.36284 53.5624 3.70284 53.5624 4.07617C53.5624 4.44284 53.6191 4.78284 53.7324 5.09617C53.8458 5.40951 54.0058 5.67951 54.2124 5.90617C54.4258 6.13284 54.6724 6.30951 54.9524 6.43617C55.2391 6.56284 55.5524 6.62617 55.8924 6.62617ZM62.2259 7.57617L59.9959 0.576171H61.1459L62.4959 4.95617C62.5359 5.06284 62.5725 5.18951 62.6059 5.33617C62.6392 5.47617 62.6692 5.61951 62.6959 5.76617C62.7225 5.91284 62.7459 6.04951 62.7659 6.17617C62.7925 6.30284 62.8159 6.40617 62.8359 6.48617L62.5459 6.47617C62.6459 6.12284 62.7225 5.84951 62.7759 5.65617C62.8359 5.46284 62.8825 5.31617 62.9159 5.21617C62.9492 5.10951 62.9792 5.01951 63.0059 4.94617L64.2659 1.78617H65.2359L66.4559 4.94617C66.5225 5.10617 66.5792 5.26617 66.6259 5.42617C66.6792 5.57951 66.7259 5.73617 66.7659 5.89617C66.8059 6.04951 66.8492 6.21284 66.8959 6.38617L66.6359 6.45617C66.6692 6.27617 66.6925 6.13617 66.7059 6.03617C66.7259 5.92951 66.7425 5.84284 66.7559 5.77617C66.7692 5.70951 66.7825 5.64617 66.7959 5.58617C66.8092 5.51951 66.8292 5.43617 66.8559 5.33617C66.8892 5.23617 66.9325 5.09951 66.9859 4.92617L68.3159 0.576171H69.4759L67.2459 7.57617H66.4959L64.6459 3.19617L64.7359 3.23617L62.9559 7.57617H62.2259ZM69.5664 7.57617L72.2764 0.576171H73.3764L76.0664 7.57617H74.9164L73.3164 3.35617C73.2964 3.30951 73.2564 3.19617 73.1964 3.01617C73.1431 2.83617 73.0797 2.63617 73.0064 2.41617C72.9331 2.19617 72.8664 1.99617 72.8064 1.81617C72.7464 1.6295 72.7064 1.5095 72.6864 1.45617L72.9164 1.44617C72.8764 1.5595 72.8264 1.70284 72.7664 1.87617C72.7131 2.0495 72.6531 2.23284 72.5864 2.42617C72.5264 2.6195 72.4664 2.80284 72.4064 2.97617C72.3464 3.14284 72.2964 3.28284 72.2564 3.39617L70.6664 7.57617H69.5664ZM70.7664 5.83617L71.1664 4.79617H74.3464L74.8064 5.83617H70.7664ZM77.2984 7.57617V0.576171H78.3784V6.53617H81.6584V7.57617H77.2984ZM85.4447 7.67617C85.0647 7.67617 84.7114 7.62617 84.3847 7.52617C84.0647 7.42617 83.7714 7.27617 83.5047 7.07617C83.2447 6.86951 83.0114 6.61617 82.8047 6.31617L83.5447 5.46617C83.8714 5.93284 84.1847 6.25617 84.4847 6.43617C84.7847 6.61617 85.1414 6.70617 85.5547 6.70617C85.808 6.70617 86.038 6.66617 86.2447 6.58617C86.4514 6.50617 86.6147 6.39617 86.7347 6.25617C86.8547 6.11617 86.9147 5.95617 86.9147 5.77617C86.9147 5.65617 86.8947 5.54284 86.8547 5.43617C86.8147 5.32951 86.7514 5.23284 86.6647 5.14617C86.5847 5.05951 86.478 4.97951 86.3447 4.90617C86.218 4.83284 86.068 4.7695 85.8947 4.71617C85.7214 4.65617 85.5214 4.60617 85.2947 4.56617C84.9347 4.49284 84.6214 4.39617 84.3547 4.27617C84.088 4.15617 83.8647 4.00617 83.6847 3.82617C83.5047 3.64617 83.3714 3.44284 83.2847 3.21617C83.198 2.98284 83.1547 2.72284 83.1547 2.43617C83.1547 2.15617 83.2147 1.89617 83.3347 1.65617C83.4614 1.41617 83.6314 1.2095 83.8447 1.03617C84.0647 0.856171 84.3214 0.719505 84.6147 0.626171C84.908 0.526171 85.2247 0.476171 85.5647 0.476171C85.9247 0.476171 86.2547 0.522838 86.5547 0.616171C86.8547 0.709505 87.1214 0.849505 87.3547 1.03617C87.588 1.21617 87.7814 1.4395 87.9347 1.70617L87.1747 2.45617C87.0414 2.23617 86.8914 2.05284 86.7247 1.90617C86.558 1.75284 86.3747 1.6395 86.1747 1.56617C85.9747 1.48617 85.7614 1.44617 85.5347 1.44617C85.2747 1.44617 85.048 1.48617 84.8547 1.56617C84.6614 1.64617 84.508 1.7595 84.3947 1.90617C84.288 2.04617 84.2347 2.21284 84.2347 2.40617C84.2347 2.54617 84.2614 2.67617 84.3147 2.79617C84.368 2.9095 84.448 3.01284 84.5547 3.10617C84.668 3.19284 84.818 3.27284 85.0047 3.34617C85.1914 3.41284 85.4147 3.47284 85.6747 3.52617C86.0414 3.60617 86.368 3.70951 86.6547 3.83617C86.9414 3.95617 87.1847 4.09951 87.3847 4.26617C87.5847 4.43284 87.7347 4.61951 87.8347 4.82617C87.9414 5.03284 87.9947 5.25617 87.9947 5.49617C87.9947 5.94284 87.8914 6.32951 87.6847 6.65617C87.478 6.98284 87.1847 7.23617 86.8047 7.41617C86.4247 7.58951 85.9714 7.67617 85.4447 7.67617ZM90.4249 5.45617L90.3649 4.24617L94.0349 0.576171H95.4549L90.4249 5.45617ZM89.5249 7.57617V0.576171H90.6049V7.57617H89.5249ZM94.1649 7.57617L91.4849 3.99617L92.2849 3.30617L95.5149 7.57617H94.1649ZM96.5891 7.57617V6.57617H97.7191V1.57617H96.5891V0.576171H99.9291V1.57617H98.7991V6.57617H99.9291V7.57617H96.5891Z" fill="#17233A"/>
</svg>
