<svg width="110" height="8" viewBox="0 0 110 8" fill="none" xmlns="http://www.w3.org/2000/svg">
<path d="M0.421406 7.57617V0.576171H1.48141L4.03141 4.72617L3.52141 4.71617L6.10141 0.576171H7.10141V7.57617H6.02141V4.70617C6.02141 4.10617 6.03474 3.56617 6.06141 3.08617C6.09474 2.60617 6.14807 2.1295 6.22141 1.65617L6.36141 2.02617L4.07141 5.56617H3.41141L1.19141 2.06617L1.30141 1.65617C1.37474 2.10284 1.42474 2.56284 1.45141 3.03617C1.48474 3.50284 1.50141 4.05951 1.50141 4.70617V7.57617H0.421406ZM8.33398 7.57617L11.044 0.576171H12.144L14.834 7.57617H13.684L12.084 3.35617C12.064 3.30951 12.024 3.19617 11.964 3.01617C11.9107 2.83617 11.8473 2.63617 11.774 2.41617C11.7007 2.19617 11.634 1.99617 11.574 1.81617C11.514 1.6295 11.474 1.5095 11.454 1.45617L11.684 1.44617C11.644 1.5595 11.594 1.70284 11.534 1.87617C11.4807 2.0495 11.4207 2.23284 11.354 2.42617C11.294 2.6195 11.234 2.80284 11.174 2.97617C11.114 3.14284 11.064 3.28284 11.024 3.39617L9.43398 7.57617H8.33398ZM9.53398 5.83617L9.93398 4.79617H13.114L13.574 5.83617H9.53398ZM19.0006 7.67617C18.494 7.67617 18.0206 7.58617 17.5806 7.40617C17.1406 7.21951 16.754 6.96284 16.4206 6.63617C16.0873 6.30951 15.8273 5.92951 15.6406 5.49617C15.4606 5.05617 15.3706 4.58284 15.3706 4.07617C15.3706 3.57617 15.4606 3.10951 15.6406 2.67617C15.8273 2.24284 16.084 1.86617 16.4106 1.54617C16.744 1.2195 17.1306 0.966172 17.5706 0.786172C18.0106 0.606172 18.484 0.516172 18.9906 0.516172C19.344 0.516172 19.6873 0.566172 20.0206 0.666171C20.3606 0.766171 20.6673 0.906171 20.9406 1.08617C21.214 1.26617 21.4373 1.47284 21.6106 1.70617L20.9106 2.43617C20.7106 2.24284 20.504 2.08284 20.2906 1.95617C20.084 1.8295 19.8706 1.73284 19.6506 1.66617C19.4306 1.59951 19.2106 1.56617 18.9906 1.56617C18.6306 1.56617 18.2973 1.62951 17.9906 1.75617C17.6906 1.88284 17.424 2.0595 17.1906 2.28617C16.964 2.51284 16.7873 2.7795 16.6606 3.08617C16.534 3.38617 16.4706 3.71617 16.4706 4.07617C16.4706 4.42284 16.5373 4.75284 16.6706 5.06617C16.804 5.37284 16.9873 5.64284 17.2206 5.87617C17.4606 6.10951 17.734 6.29284 18.0406 6.42617C18.354 6.55951 18.684 6.62617 19.0306 6.62617C19.2906 6.62617 19.5373 6.58951 19.7706 6.51617C20.004 6.43617 20.2106 6.32617 20.3906 6.18617C20.5706 6.04617 20.7106 5.88617 20.8106 5.70617C20.9106 5.51951 20.9606 5.32284 20.9606 5.11617V4.91617L21.1106 5.05617H18.9706V3.98617H22.0706C22.084 4.0595 22.094 4.13284 22.1006 4.20617C22.1073 4.27284 22.1106 4.33951 22.1106 4.40617C22.1173 4.46617 22.1206 4.52617 22.1206 4.58617C22.1206 5.04617 22.0406 5.46617 21.8806 5.84617C21.7206 6.21951 21.4973 6.54284 21.2106 6.81617C20.9306 7.08951 20.6006 7.30284 20.2206 7.45617C19.8473 7.60284 19.4406 7.67617 19.0006 7.67617ZM23.5269 7.57617V0.576171H26.2669C26.7669 0.576171 27.2169 0.659505 27.6169 0.826172C28.0235 0.992838 28.3702 1.23284 28.6569 1.54617C28.9435 1.8595 29.1635 2.2295 29.3169 2.65617C29.4702 3.08284 29.5469 3.55617 29.5469 4.07617C29.5469 4.59617 29.4702 5.07284 29.3169 5.50617C29.1635 5.93284 28.9435 6.30284 28.6569 6.61617C28.3769 6.92284 28.0335 7.15951 27.6269 7.32617C27.2202 7.49284 26.7669 7.57617 26.2669 7.57617H23.5269ZM24.6069 6.64617L24.5769 6.53617H26.2169C26.5702 6.53617 26.8835 6.47951 27.1569 6.36617C27.4369 6.25284 27.6702 6.09284 27.8569 5.88617C28.0502 5.67284 28.1969 5.41284 28.2969 5.10617C28.3969 4.79951 28.4469 4.45617 28.4469 4.07617C28.4469 3.69617 28.3969 3.35617 28.2969 3.05617C28.1969 2.7495 28.0502 2.4895 27.8569 2.27617C27.6635 2.06284 27.4302 1.8995 27.1569 1.78617C26.8835 1.67284 26.5702 1.61617 26.2169 1.61617H24.5469L24.6069 1.52617V6.64617ZM30.082 7.57617L32.792 0.576171H33.892L36.582 7.57617H35.432L33.832 3.35617C33.812 3.30951 33.772 3.19617 33.712 3.01617C33.6587 2.83617 33.5954 2.63617 33.522 2.41617C33.4487 2.19617 33.382 1.99617 33.322 1.81617C33.262 1.6295 33.222 1.5095 33.202 1.45617L33.432 1.44617C33.392 1.5595 33.342 1.70284 33.282 1.87617C33.2287 2.0495 33.1687 2.23284 33.102 2.42617C33.042 2.6195 32.982 2.80284 32.922 2.97617C32.862 3.14284 32.812 3.28284 32.772 3.39617L31.182 7.57617H30.082ZM31.282 5.83617L31.682 4.79617H34.862L35.322 5.83617H31.282ZM37.814 7.57617V0.576171H38.894V6.53617H42.174V7.57617H37.814ZM43.8003 7.57617V0.576171H48.2103V1.61617H44.8803V6.53617H48.2103V7.57617H43.8003ZM44.2903 4.50617V3.46617H47.6603V4.50617H44.2903ZM49.9429 7.57617V0.576171H50.9129L55.1929 6.30617L55.0329 6.39617C55.0062 6.22951 54.9829 6.04951 54.9629 5.85617C54.9429 5.65617 54.9229 5.44617 54.9029 5.22617C54.8896 4.99951 54.8762 4.76284 54.8629 4.51617C54.8562 4.26284 54.8496 3.99951 54.8429 3.72617C54.8362 3.45284 54.8329 3.1695 54.8329 2.87617V0.576171H55.9129V7.57617H54.9229L50.7129 2.05617L50.8229 1.91617C50.8562 2.32284 50.8829 2.66951 50.9029 2.95617C50.9296 3.23617 50.9496 3.47617 50.9629 3.67617C50.9829 3.8695 50.9962 4.0295 51.0029 4.15617C51.0096 4.27617 51.0129 4.37617 51.0129 4.45617C51.0196 4.53617 51.0229 4.60617 51.0229 4.66617V7.57617H49.9429ZM57.8726 7.57617V0.576171H62.2826V1.61617H58.9526V6.53617H62.2826V7.57617H57.8726ZM58.3626 4.50617V3.46617H61.7326V4.50617H58.3626ZM68.1479 7.57617V1.61617H66.1879V0.576171H71.2479V1.61617H69.2279V7.57617H68.1479ZM71.3516 7.57617L74.0616 0.576171H75.1616L77.8516 7.57617H76.7016L75.1016 3.35617C75.0816 3.30951 75.0416 3.19617 74.9816 3.01617C74.9282 2.83617 74.8649 2.63617 74.7916 2.41617C74.7182 2.19617 74.6516 1.99617 74.5916 1.81617C74.5316 1.6295 74.4916 1.5095 74.4716 1.45617L74.7016 1.44617C74.6616 1.5595 74.6116 1.70284 74.5516 1.87617C74.4982 2.0495 74.4382 2.23284 74.3716 2.42617C74.3116 2.6195 74.2516 2.80284 74.1916 2.97617C74.1316 3.14284 74.0816 3.28284 74.0416 3.39617L72.4516 7.57617H71.3516ZM72.5516 5.83617L72.9516 4.79617H76.1316L76.5916 5.83617H72.5516ZM79.0835 7.57617V0.576171H82.0035C82.4502 0.576171 82.8268 0.642838 83.1335 0.776172C83.4402 0.909505 83.6702 1.10951 83.8235 1.37617C83.9835 1.63617 84.0635 1.95617 84.0635 2.33617C84.0635 2.71617 83.9568 3.03951 83.7435 3.30617C83.5368 3.57284 83.2468 3.75617 82.8735 3.85617V3.65617C83.1868 3.72284 83.4602 3.84284 83.6935 4.01617C83.9268 4.18284 84.1068 4.39284 84.2335 4.64617C84.3668 4.8995 84.4335 5.1895 84.4335 5.51617C84.4335 5.84951 84.3802 6.14617 84.2735 6.40617C84.1735 6.65951 84.0202 6.87284 83.8135 7.04617C83.6135 7.21951 83.3702 7.35284 83.0835 7.44617C82.7968 7.53284 82.4702 7.57617 82.1035 7.57617H79.0835ZM80.1635 6.53617H82.0435C82.3168 6.53617 82.5468 6.49617 82.7335 6.41617C82.9268 6.33617 83.0735 6.21951 83.1735 6.06617C83.2802 5.90617 83.3335 5.71617 83.3335 5.49617C83.3335 5.28951 83.2768 5.11284 83.1635 4.96617C83.0568 4.81951 82.9035 4.70951 82.7035 4.63617C82.5035 4.55617 82.2668 4.51617 81.9935 4.51617H80.1635V6.53617ZM80.1635 3.47617H81.9435C82.1435 3.47617 82.3202 3.43617 82.4735 3.35617C82.6335 3.27617 82.7568 3.16617 82.8435 3.02617C82.9368 2.88617 82.9835 2.72617 82.9835 2.54617C82.9835 2.24617 82.8835 2.01617 82.6835 1.85617C82.4835 1.69617 82.1968 1.61617 81.8235 1.61617H80.1635V3.47617ZM90.4602 7.57617V0.576171H91.5402V7.57617H90.4602ZM85.8902 7.57617V0.576171H86.9702V7.57617H85.8902ZM86.3602 4.60617V3.56617H90.9402V4.60617H86.3602ZM93.2376 7.57617V6.57617H94.3676V1.57617H93.2376V0.576171H96.5776V1.57617H95.4476V6.57617H96.5776V7.57617H93.2376ZM99.603 7.57617V1.61617H97.643V0.576171H102.703V1.61617H100.683V7.57617H99.603ZM102.807 7.57617L105.517 0.576171H106.617L109.307 7.57617H108.157L106.557 3.35617C106.537 3.30951 106.497 3.19617 106.437 3.01617C106.383 2.83617 106.32 2.63617 106.247 2.41617C106.173 2.19617 106.107 1.99617 106.047 1.81617C105.987 1.6295 105.947 1.5095 105.927 1.45617L106.157 1.44617C106.117 1.5595 106.067 1.70284 106.007 1.87617C105.953 2.0495 105.893 2.23284 105.827 2.42617C105.767 2.6195 105.707 2.80284 105.647 2.97617C105.587 3.14284 105.537 3.28284 105.497 3.39617L103.907 7.57617H102.807ZM104.007 5.83617L104.407 4.79617H107.587L108.047 5.83617H104.007Z" fill="#17233A"/>
</svg>
