<svg width="88" height="8" viewBox="0 0 88 8" fill="none" xmlns="http://www.w3.org/2000/svg">
<path d="M3.00212 7.90273C2.62212 7.90273 2.26879 7.85273 1.94212 7.75273C1.62212 7.65273 1.32879 7.50273 1.06212 7.30273C0.802122 7.09607 0.568788 6.84273 0.362122 6.54273L1.10212 5.69273C1.42879 6.1594 1.74212 6.48273 2.04212 6.66273C2.34212 6.84273 2.69879 6.93273 3.11212 6.93273C3.36546 6.93273 3.59546 6.89273 3.80212 6.81273C4.00879 6.73273 4.17212 6.62273 4.29212 6.48273C4.41212 6.34273 4.47212 6.18273 4.47212 6.00273C4.47212 5.88273 4.45212 5.7694 4.41212 5.66273C4.37212 5.55607 4.30879 5.4594 4.22212 5.37273C4.14212 5.28607 4.03546 5.20607 3.90212 5.13273C3.77546 5.0594 3.62546 4.99607 3.45212 4.94273C3.27879 4.88273 3.07879 4.83273 2.85212 4.79273C2.49212 4.7194 2.17879 4.62273 1.91212 4.50273C1.64546 4.38273 1.42212 4.23273 1.24212 4.05273C1.06212 3.87273 0.928788 3.6694 0.842122 3.44273C0.755455 3.2094 0.712122 2.9494 0.712122 2.66273C0.712122 2.38273 0.772122 2.12273 0.892122 1.88273C1.01879 1.64273 1.18879 1.43607 1.40212 1.26273C1.62212 1.08273 1.87879 0.946067 2.17212 0.852734C2.46545 0.752734 2.78212 0.702734 3.12212 0.702734C3.48212 0.702734 3.81212 0.749401 4.11212 0.842734C4.41212 0.936067 4.67879 1.07607 4.91212 1.26273C5.14546 1.44273 5.33879 1.66607 5.49212 1.93273L4.73212 2.68273C4.59879 2.46273 4.44879 2.2794 4.28212 2.13273C4.11546 1.9794 3.93212 1.86607 3.73212 1.79273C3.53212 1.71273 3.31879 1.67273 3.09212 1.67273C2.83212 1.67273 2.60546 1.71273 2.41212 1.79273C2.21879 1.87273 2.06546 1.98607 1.95212 2.13273C1.84545 2.27273 1.79212 2.4394 1.79212 2.63273C1.79212 2.77273 1.81879 2.90273 1.87212 3.02273C1.92545 3.13607 2.00545 3.2394 2.11212 3.33273C2.22546 3.4194 2.37546 3.4994 2.56212 3.57273C2.74879 3.6394 2.97212 3.6994 3.23212 3.75273C3.59879 3.83273 3.92546 3.93607 4.21212 4.06273C4.49879 4.18273 4.74212 4.32607 4.94212 4.49273C5.14212 4.6594 5.29212 4.84607 5.39212 5.05273C5.49879 5.2594 5.55212 5.48273 5.55212 5.72273C5.55212 6.1694 5.44879 6.55607 5.24212 6.88273C5.03546 7.2094 4.74212 7.46273 4.36212 7.64273C3.98212 7.81607 3.52879 7.90273 3.00212 7.90273ZM7.08236 7.80273V0.802734H11.4924V1.84273H8.16236V6.76273H11.4924V7.80273H7.08236ZM7.57236 4.73273V3.69273H10.9424V4.73273H7.57236ZM13.2249 7.80273V0.802734H14.3049V6.76273H17.5849V7.80273H13.2249ZM19.9493 7.80273L17.7193 0.802734H18.8693L20.2193 5.18273C20.2593 5.2894 20.296 5.41607 20.3293 5.56273C20.3626 5.70273 20.3926 5.84607 20.4193 5.99273C20.446 6.1394 20.4693 6.27607 20.4893 6.40273C20.516 6.5294 20.5393 6.63273 20.5593 6.71273L20.2693 6.70273C20.3693 6.3494 20.446 6.07607 20.4993 5.88273C20.5593 5.6894 20.606 5.54273 20.6393 5.44273C20.6726 5.33607 20.7026 5.24607 20.7293 5.17273L21.9893 2.01273H22.9593L24.1793 5.17273C24.246 5.33273 24.3026 5.49273 24.3493 5.65273C24.4026 5.80607 24.4493 5.96273 24.4893 6.12273C24.5293 6.27607 24.5726 6.4394 24.6193 6.61273L24.3593 6.68273C24.3926 6.50273 24.416 6.36273 24.4293 6.26273C24.4493 6.15607 24.466 6.0694 24.4793 6.00273C24.4926 5.93607 24.506 5.87273 24.5193 5.81273C24.5326 5.74607 24.5526 5.66273 24.5793 5.56273C24.6126 5.46273 24.656 5.32607 24.7093 5.15273L26.0393 0.802734H27.1993L24.9693 7.80273H24.2193L22.3693 3.42273L22.4593 3.46273L20.6793 7.80273H19.9493ZM30.3002 7.80273V4.31273L30.3702 4.80273L27.5402 0.802734H28.8402L31.0002 3.90273L30.7502 3.87273L32.7002 0.802734H33.9402L31.2302 4.91273L31.3802 4.23273V7.80273H30.3002ZM35.0218 7.80273V0.802734H35.9918L40.2718 6.53273L40.1118 6.62273C40.0851 6.45607 40.0618 6.27607 40.0418 6.08273C40.0218 5.88273 40.0018 5.67273 39.9818 5.45273C39.9685 5.22607 39.9551 4.9894 39.9418 4.74273C39.9351 4.4894 39.9285 4.22607 39.9218 3.95273C39.9151 3.6794 39.9118 3.39607 39.9118 3.10273V0.802734H40.9918V7.80273H40.0018L35.7918 2.28273L35.9018 2.14273C35.9351 2.5494 35.9618 2.89607 35.9818 3.18273C36.0085 3.46273 36.0285 3.70273 36.0418 3.90273C36.0618 4.09607 36.0751 4.25607 36.0818 4.38273C36.0885 4.50273 36.0918 4.60273 36.0918 4.68273C36.0985 4.76273 36.1018 4.83273 36.1018 4.89273V7.80273H35.0218ZM45.7542 7.80273V0.802734H48.7342C49.1342 0.802734 49.5009 0.902734 49.8342 1.10273C50.1742 1.29607 50.4442 1.56273 50.6442 1.90273C50.8442 2.23607 50.9442 2.61273 50.9442 3.03273C50.9442 3.41273 50.8442 3.76607 50.6442 4.09273C50.4442 4.4194 50.1776 4.68273 49.8442 4.88273C49.5109 5.07607 49.1409 5.17273 48.7342 5.17273H46.8342V7.80273H45.7542ZM49.9142 7.80273L48.1342 4.64273L49.2442 4.39273L51.2242 7.81273L49.9142 7.80273ZM46.8342 4.13273H48.8342C49.0276 4.13273 49.2009 4.08607 49.3542 3.99273C49.5076 3.89273 49.6276 3.7594 49.7142 3.59273C49.8009 3.4194 49.8442 3.2294 49.8442 3.02273C49.8442 2.7894 49.7876 2.58607 49.6742 2.41273C49.5676 2.23273 49.4142 2.09273 49.2142 1.99273C49.0209 1.89273 48.8009 1.84273 48.5542 1.84273H46.8342V4.13273ZM55.5397 7.90273C55.0464 7.90273 54.5897 7.81273 54.1697 7.63273C53.7564 7.45273 53.393 7.20273 53.0797 6.88273C52.773 6.55607 52.533 6.17607 52.3597 5.74273C52.193 5.30273 52.1097 4.82273 52.1097 4.30273C52.1097 3.78273 52.193 3.30607 52.3597 2.87273C52.533 2.43273 52.773 2.05273 53.0797 1.73273C53.393 1.40607 53.7564 1.15273 54.1697 0.972734C54.5897 0.792734 55.0464 0.702734 55.5397 0.702734C56.033 0.702734 56.4864 0.792734 56.8997 0.972734C57.3197 1.15273 57.683 1.40607 57.9897 1.73273C58.303 2.0594 58.543 2.44273 58.7097 2.88273C58.883 3.31607 58.9697 3.7894 58.9697 4.30273C58.9697 4.81607 58.883 5.29273 58.7097 5.73273C58.543 6.16607 58.303 6.54607 57.9897 6.87273C57.683 7.1994 57.3197 7.45273 56.8997 7.63273C56.4864 7.81273 56.033 7.90273 55.5397 7.90273ZM55.5397 6.85273C55.8797 6.85273 56.1897 6.7894 56.4697 6.66273C56.7564 6.53607 57.003 6.3594 57.2097 6.13273C57.4164 5.8994 57.5764 5.6294 57.6897 5.32273C57.8097 5.0094 57.8697 4.6694 57.8697 4.30273C57.8697 3.93607 57.8097 3.5994 57.6897 3.29273C57.5764 2.9794 57.4164 2.7094 57.2097 2.48273C57.003 2.2494 56.7564 2.0694 56.4697 1.94273C56.1897 1.81607 55.8797 1.75273 55.5397 1.75273C55.1997 1.75273 54.8864 1.81607 54.5997 1.94273C54.3197 2.0694 54.073 2.24607 53.8597 2.47273C53.653 2.6994 53.493 2.9694 53.3797 3.28273C53.2664 3.5894 53.2097 3.9294 53.2097 4.30273C53.2097 4.6694 53.2664 5.0094 53.3797 5.32273C53.493 5.63607 53.653 5.90607 53.8597 6.13273C54.073 6.3594 54.3197 6.53607 54.5997 6.66273C54.8864 6.7894 55.1997 6.85273 55.5397 6.85273ZM60.432 7.80273V0.802734H63.172C63.672 0.802734 64.122 0.886067 64.522 1.05273C64.9286 1.2194 65.2753 1.4594 65.562 1.77273C65.8486 2.08607 66.0686 2.45607 66.222 2.88273C66.3753 3.3094 66.452 3.78273 66.452 4.30273C66.452 4.82273 66.3753 5.2994 66.222 5.73273C66.0686 6.1594 65.8486 6.5294 65.562 6.84273C65.282 7.1494 64.9386 7.38607 64.532 7.55273C64.1253 7.7194 63.672 7.80273 63.172 7.80273H60.432ZM61.512 6.87273L61.482 6.76273H63.122C63.4753 6.76273 63.7886 6.70607 64.062 6.59273C64.342 6.4794 64.5753 6.3194 64.762 6.11273C64.9553 5.8994 65.102 5.6394 65.202 5.33273C65.302 5.02607 65.352 4.68273 65.352 4.30273C65.352 3.92273 65.302 3.58273 65.202 3.28273C65.102 2.97607 64.9553 2.71607 64.762 2.50273C64.5686 2.2894 64.3353 2.12607 64.062 2.01273C63.7886 1.8994 63.4753 1.84273 63.122 1.84273H61.452L61.512 1.75273V6.87273ZM71.0424 7.90273C70.5358 7.90273 70.0624 7.81273 69.6224 7.63273C69.1824 7.44607 68.7958 7.1894 68.4624 6.86273C68.1291 6.53607 67.8691 6.15607 67.6824 5.72273C67.5024 5.28273 67.4124 4.8094 67.4124 4.30273C67.4124 3.80273 67.5024 3.33607 67.6824 2.90273C67.8691 2.4694 68.1258 2.09273 68.4524 1.77273C68.7858 1.44607 69.1724 1.19273 69.6124 1.01273C70.0524 0.832734 70.5258 0.742734 71.0324 0.742734C71.3858 0.742734 71.7291 0.792734 72.0624 0.892734C72.4024 0.992734 72.7091 1.13273 72.9824 1.31273C73.2558 1.49273 73.4791 1.6994 73.6524 1.93273L72.9524 2.66273C72.7524 2.4694 72.5458 2.3094 72.3324 2.18273C72.1258 2.05607 71.9124 1.9594 71.6924 1.89273C71.4724 1.82607 71.2524 1.79273 71.0324 1.79273C70.6724 1.79273 70.3391 1.85607 70.0324 1.98273C69.7324 2.1094 69.4658 2.28607 69.2324 2.51273C69.0058 2.7394 68.8291 3.00607 68.7024 3.31273C68.5758 3.61273 68.5124 3.94273 68.5124 4.30273C68.5124 4.6494 68.5791 4.9794 68.7124 5.29273C68.8458 5.5994 69.0291 5.8694 69.2624 6.10273C69.5024 6.33607 69.7758 6.5194 70.0824 6.65273C70.3958 6.78607 70.7258 6.85273 71.0724 6.85273C71.3324 6.85273 71.5791 6.81607 71.8124 6.74273C72.0458 6.66273 72.2524 6.55273 72.4324 6.41273C72.6124 6.27273 72.7524 6.11273 72.8524 5.93273C72.9524 5.74607 73.0024 5.5494 73.0024 5.34273V5.14273L73.1524 5.28273H71.0124V4.21273H74.1124C74.1258 4.28607 74.1358 4.3594 74.1424 4.43273C74.1491 4.4994 74.1524 4.56607 74.1524 4.63273C74.1591 4.69273 74.1624 4.75273 74.1624 4.81273C74.1624 5.27273 74.0824 5.69273 73.9224 6.07273C73.7624 6.44607 73.5391 6.7694 73.2524 7.04273C72.9724 7.31607 72.6424 7.5294 72.2624 7.68273C71.8891 7.8294 71.4824 7.90273 71.0424 7.90273ZM75.5687 7.80273V0.802734H79.9787V1.84273H76.6487V6.76273H79.9787V7.80273H75.5687ZM76.0587 4.73273V3.69273H79.4287V4.73273H76.0587ZM81.7113 7.80273V0.802734H84.6913C85.0913 0.802734 85.4579 0.902734 85.7913 1.10273C86.1313 1.29607 86.4013 1.56273 86.6013 1.90273C86.8013 2.23607 86.9013 2.61273 86.9013 3.03273C86.9013 3.41273 86.8013 3.76607 86.6013 4.09273C86.4013 4.4194 86.1346 4.68273 85.8013 4.88273C85.4679 5.07607 85.0979 5.17273 84.6913 5.17273H82.7913V7.80273H81.7113ZM85.8713 7.80273L84.0913 4.64273L85.2013 4.39273L87.1813 7.81273L85.8713 7.80273ZM82.7913 4.13273H84.7913C84.9846 4.13273 85.1579 4.08607 85.3113 3.99273C85.4646 3.89273 85.5846 3.7594 85.6713 3.59273C85.7579 3.4194 85.8013 3.2294 85.8013 3.02273C85.8013 2.7894 85.7446 2.58607 85.6313 2.41273C85.5246 2.23273 85.3713 2.09273 85.1713 1.99273C84.9779 1.89273 84.7579 1.84273 84.5113 1.84273H82.7913V4.13273Z" fill="#17233A"/>
</svg>
