<svg width="75" height="9" viewBox="0 0 75 9" fill="none" xmlns="http://www.w3.org/2000/svg">
<path d="M2.65604 7.94482V1.98482H0.696039V0.944824H5.75604V1.98482H3.73604V7.94482H2.65604ZM7.08776 7.94482V0.944824H10.0678C10.4678 0.944824 10.8344 1.04482 11.1678 1.24482C11.5078 1.43816 11.7778 1.70482 11.9778 2.04482C12.1778 2.37816 12.2778 2.75482 12.2778 3.17482C12.2778 3.55482 12.1778 3.90816 11.9778 4.23482C11.7778 4.56149 11.5111 4.82482 11.1778 5.02482C10.8444 5.21816 10.4744 5.31482 10.0678 5.31482H8.16776V7.94482H7.08776ZM11.2478 7.94482L9.46776 4.78482L10.5778 4.53482L12.5578 7.95482L11.2478 7.94482ZM8.16776 4.27482H10.1678C10.3611 4.27482 10.5344 4.22816 10.6878 4.13482C10.8411 4.03482 10.9611 3.90149 11.0478 3.73482C11.1344 3.56149 11.1778 3.37149 11.1778 3.16482C11.1778 2.93149 11.1211 2.72816 11.0078 2.55482C10.9011 2.37482 10.7478 2.23482 10.5478 2.13482C10.3544 2.03482 10.1344 1.98482 9.88776 1.98482H8.16776V4.27482ZM14.0409 7.94482V0.944824H18.4509V1.98482H15.1209V6.90482H18.4509V7.94482H14.0409ZM14.5309 4.87482V3.83482H17.9009V4.87482H14.5309ZM20.1835 7.94482V0.944824H21.1535L25.4335 6.67482L25.2735 6.76482C25.2468 6.59816 25.2235 6.41816 25.2035 6.22482C25.1835 6.02482 25.1635 5.81482 25.1435 5.59482C25.1301 5.36816 25.1168 5.13149 25.1035 4.88482C25.0968 4.63149 25.0901 4.36816 25.0835 4.09482C25.0768 3.82149 25.0735 3.53816 25.0735 3.24482V0.944824H26.1535V7.94482H25.1635L20.9535 2.42482L21.0635 2.28482C21.0968 2.69149 21.1235 3.03816 21.1435 3.32482C21.1701 3.60482 21.1901 3.84482 21.2035 4.04482C21.2235 4.23816 21.2368 4.39816 21.2435 4.52482C21.2501 4.64482 21.2535 4.74482 21.2535 4.82482C21.2601 4.90482 21.2635 4.97482 21.2635 5.03482V7.94482H20.1835ZM30.9531 8.04482C30.4665 8.04482 30.0198 7.95816 29.6131 7.78482C29.2065 7.61149 28.8531 7.36482 28.5531 7.04482C28.2531 6.71816 28.0198 6.33482 27.8531 5.89482C27.6931 5.45482 27.6131 4.97149 27.6131 4.44482C27.6131 3.94482 27.6998 3.48149 27.8731 3.05482C28.0531 2.62149 28.2998 2.24149 28.6131 1.91482C28.9265 1.58816 29.2898 1.33482 29.7031 1.15482C30.1165 0.974824 30.5631 0.884824 31.0431 0.884824C31.3831 0.884824 31.7131 0.938157 32.0331 1.04482C32.3598 1.14482 32.6531 1.28816 32.9131 1.47482C33.1798 1.65482 33.3965 1.86149 33.5631 2.09482L32.8431 2.84482C32.6498 2.65149 32.4531 2.49149 32.2531 2.36482C32.0598 2.23149 31.8598 2.13149 31.6531 2.06482C31.4531 1.99816 31.2498 1.96482 31.0431 1.96482C30.7165 1.96482 30.4098 2.02816 30.1231 2.15482C29.8431 2.27482 29.5965 2.44482 29.3831 2.66482C29.1765 2.88482 29.0131 3.14816 28.8931 3.45482C28.7731 3.75482 28.7131 4.08482 28.7131 4.44482C28.7131 4.82482 28.7698 5.17149 28.8831 5.48482C29.0031 5.79149 29.1698 6.05482 29.3831 6.27482C29.5965 6.49482 29.8498 6.66482 30.1431 6.78482C30.4431 6.89816 30.7731 6.95482 31.1331 6.95482C31.3531 6.95482 31.5698 6.92482 31.7831 6.86482C31.9965 6.80482 32.1965 6.71816 32.3831 6.60482C32.5698 6.49149 32.7398 6.35816 32.8931 6.20482L33.4331 7.08482C33.2798 7.26482 33.0698 7.42816 32.8031 7.57482C32.5431 7.72149 32.2498 7.83816 31.9231 7.92482C31.6031 8.00482 31.2798 8.04482 30.9531 8.04482ZM34.9003 7.94482V0.944824H39.3103V1.98482H35.9803V6.90482H39.3103V7.94482H34.9003ZM35.3903 4.87482V3.83482H38.7603V4.87482H35.3903ZM45.4256 8.04482C45.1989 8.04482 44.9822 8.01482 44.7756 7.95482C44.5689 7.89482 44.3756 7.80816 44.1956 7.69482C44.0222 7.58149 43.8656 7.44816 43.7256 7.29482C43.5856 7.13482 43.4656 6.96149 43.3656 6.77482L44.0456 6.06482C44.1856 6.26482 44.3122 6.42482 44.4256 6.54482C44.5456 6.66482 44.6589 6.75816 44.7656 6.82482C44.8722 6.89149 44.9789 6.93816 45.0856 6.96482C45.1922 6.98482 45.3056 6.99482 45.4256 6.99482C45.6656 6.99482 45.8756 6.94149 46.0556 6.83482C46.2356 6.72149 46.3756 6.56816 46.4756 6.37482C46.5756 6.18149 46.6256 5.96149 46.6256 5.71482V1.94482H45.3456V0.944824H48.7856V1.94482H47.7056V5.81482C47.7056 6.13482 47.6489 6.43149 47.5356 6.70482C47.4289 6.97149 47.2722 7.20482 47.0656 7.40482C46.8656 7.60482 46.6256 7.76149 46.3456 7.87482C46.0722 7.98816 45.7656 8.04482 45.4256 8.04482ZM48.7796 7.94482L51.4896 0.944824H52.5896L55.2796 7.94482H54.1296L52.5296 3.72482C52.5096 3.67816 52.4696 3.56482 52.4096 3.38482C52.3563 3.20482 52.293 3.00482 52.2196 2.78482C52.1463 2.56482 52.0796 2.36482 52.0196 2.18482C51.9596 1.99816 51.9196 1.87816 51.8996 1.82482L52.1296 1.81482C52.0896 1.92816 52.0396 2.07149 51.9796 2.24482C51.9263 2.41816 51.8663 2.60149 51.7996 2.79482C51.7396 2.98816 51.6796 3.17149 51.6196 3.34482C51.5596 3.51149 51.5096 3.65149 51.4696 3.76482L49.8796 7.94482H48.7796ZM49.9796 6.20482L50.3796 5.16482H53.5596L54.0196 6.20482H49.9796ZM57.5908 7.94482V4.45482L57.6608 4.94482L54.8308 0.944824H56.1308L58.2908 4.04482L58.0408 4.01482L59.9908 0.944824H61.2308L58.5208 5.05482L58.6708 4.37482V7.94482H57.5908ZM62.3124 7.94482V0.944824H63.3924V6.90482H66.6724V7.94482H62.3124ZM67.5687 7.94482L70.2787 0.944824H71.3787L74.0687 7.94482H72.9187L71.3187 3.72482C71.2987 3.67816 71.2587 3.56482 71.1987 3.38482C71.1454 3.20482 71.082 3.00482 71.0087 2.78482C70.9354 2.56482 70.8687 2.36482 70.8087 2.18482C70.7487 1.99816 70.7087 1.87816 70.6887 1.82482L70.9187 1.81482C70.8787 1.92816 70.8287 2.07149 70.7687 2.24482C70.7154 2.41816 70.6554 2.60149 70.5887 2.79482C70.5287 2.98816 70.4687 3.17149 70.4087 3.34482C70.3487 3.51149 70.2987 3.65149 70.2587 3.76482L68.6687 7.94482H67.5687ZM68.7687 6.20482L69.1687 5.16482H72.3487L72.8087 6.20482H68.7687Z" fill="#17233A"/>
</svg>
