<svg xmlns="http://www.w3.org/2000/svg" xml:space="preserve" id="Layer_1" x="0" y="0" style="enable-background:new 0 0 34 34" version="1.1" viewBox="0 0 34 34">
  <style>
    .st0{fill:#bd483b}.st2{fill:#fec82f}.st3{fill:#df9c26}@media (prefers-color-scheme:light){:root{filter:none}}
  </style>
  <path d="m16.817.338-3.106 11.038v11.143l3.106 11.143 3.195-11.143V11.376z" class="st0"/>
  <path d="M16.817.338 1.432 5.88l2.186 20.492 13.199 7.29" style="fill:#e64e3d"/>
  <path d="m16.817 33.662 13.269-7.365 2.482-20.49L16.817.338" class="st0"/>
  <path d="M14.025 25.088a9.358 9.358 0 0 1-3.94-2.431l-.003-.002a9.342 9.342 0 0 1-2.238-3.814c.251.233.518.447.796.647.003.008.008.016.011.027-.003-.012-.008-.02-.011-.027a8.622 8.622 0 0 0 1.696.923c.177.07.36.135.542.195.011.006.024.006.035.01.032.012.065.023.097.033a1.702 1.702 0 0 0 1.39 1.504c.288 1.157.834 2.146 1.625 2.935zm.58-13.294c0 .324.088.627.243.883-1.25 1.753-2.108 3.656-2.479 5.539-.041.209-.077.416-.105.619-.429.113-.79.393-1.016.762a.071.071 0 0 1-.035-.01c-.023-.006-.04-.014-.061-.021a7.157 7.157 0 0 1-2.796-1.715 6.814 6.814 0 0 1-.311-.332l-.041-.049-.115-.137-.047-.059c-.014-.018-.024-.031-.037-.045-.005-.01-.013-.016-.017-.023-.02-.022-.037-.047-.053-.068-.008-.012-.017-.022-.023-.029l-.004-.008c-.013-.014-.024-.033-.037-.049a3.928 3.928 0 0 1-.157-.225c-.009-.012-.019-.024-.025-.039a.146.146 0 0 1-.02-.027 9.338 9.338 0 0 1 2.227-6.703 9.361 9.361 0 0 1 4.299-2.847c.026.182.059.367.095.553.192.967.513 1.942.949 2.898-.27.3-.434.698-.434 1.132zm-.997 8.685a.89.89 0 0 1-.308.68.899.899 0 0 1-1.068.09.91.91 0 0 1-.342-.375.901.901 0 0 1-.089-.395.896.896 0 0 1 .377-.732.898.898 0 0 1 1.285.245.867.867 0 0 1 .145.487zm3.601-8.685a.902.902 0 0 1-.902.905c-.044 0-.087-.002-.128-.006-.008-.004-.016-.004-.025-.006a.902.902 0 0 1 .153-1.794h.038a.907.907 0 0 1 .864.901z" class="st2"/>
  <path d="M26.183 16.143c0 .907-.129 1.782-.368 2.61a12.751 12.751 0 0 1-2.4-.914 1.694 1.694 0 0 0-.092-.975 14.936 14.936 0 0 0 2.499-3.306 9.39 9.39 0 0 1 .361 2.585zm-.87-3.947a11.29 11.29 0 0 1-.201.416 13.81 13.81 0 0 1-2.487 3.434 1.703 1.703 0 0 0-1.883.084 16.75 16.75 0 0 1-1.49-1.327 16.677 16.677 0 0 1-1.647-1.909 1.695 1.695 0 0 0 .168-1.964 15.981 15.981 0 0 1 3.917-2.788 9.42 9.42 0 0 1 3.623 4.054zm-2.664 5.307a.902.902 0 0 1-1.804.081c.011-.01.021-.016.028-.022-.01-.008-.021-.014-.03-.023l-.001-.037a.907.907 0 0 1 1.165-.864.909.909 0 0 1 .642.865zm.235 1.264a1.7 1.7 0 0 1-2.088.151c-.039.025-.078.051-.115.072a13.708 13.708 0 0 1-3.864 1.698v4.824a9.373 9.373 0 0 0 8.64-5.744 14.047 14.047 0 0 1-2.573-1.001z" class="st3"/>
  <path d="M16.817 20.688a11.72 11.72 0 0 1-2.385.367l-.128.008c-.151.41-.454.744-.839.94.245.909.688 1.698 1.319 2.327.524.524 1.162.92 1.891 1.18l.142.002v-4.824z" class="st2"/>
  <path d="M20.043 17.503c0-.172.026-.34.074-.498a17.925 17.925 0 0 1-3.3-3.376v5.946a12.866 12.866 0 0 0 3.321-1.511 1.698 1.698 0 0 1-.095-.561z" class="st3"/>
  <path d="M16.817 13.629c-.045-.059-.091-.113-.132-.174a1.716 1.716 0 0 1-1.015-.08c-1.134 1.606-1.912 3.341-2.25 5.049-.032.162-.059.32-.083.475.477.195.848.596.996 1.092.016-.004.029-.004.046-.004.809-.039 1.627-.18 2.438-.412v-5.946z" class="st2"/>
  <path d="M16.817 6.778v3.394c.048.016.098.033.145.055a17.238 17.238 0 0 1 3.573-2.681 9.297 9.297 0 0 0-3.718-.768z" class="st3"/>
  <path d="M16.817 6.778c-.608 0-1.201.055-1.773.168.025.197.06.404.101.606.168.86.449 1.725.829 2.575a1.694 1.694 0 0 1 .843.045V6.778z" class="st2"/>
</svg>
