<svg xmlns="http://www.w3.org/2000/svg" width="725.333" height="725.333" version="1.0" viewBox="0 0 544 544">
  <path d="M145.6 50.1C78.5 74.3 23.5 94.2 23.4 94.3c-.1.1 7.6 73.6 17.2 163.2C50.1 347.2 58 420.8 58 421.1c0 .6 203.3 113.3 209.1 115.9 2.3 1.1 10.2-3.2 108.2-57.5 83.1-46.1 105.8-59.1 106.2-60.8.6-3 38.5-317.3 38.8-322l.2-3.8-125-43.5C326.8 25.6 269.8 6 269 6.1c-.8 0-56.4 19.8-123.4 44zM284.1 110c11.7 1.2 27 4.6 36.7 8.3l6.4 2.4-7.9 4.8c-15 9.4-29.9 20.7-42.3 32.1-4.5 4.2-6.2 5.2-8.1 4.8-1.3-.3-4.9-.5-8-.5l-5.5-.1-3.8-9.7c-3.9-9.9-9-28.1-10.1-36.2-.7-4.7-.7-4.7 2.6-5.4 4.4-1 21.5-2.2 25.9-1.8 1.9.2 8.3.7 14.1 1.3zm-59.5 9.7c2 12 6.7 27.9 12.1 41.5l3.5 8.8-3.1 6.1c-3.6 7.2-4.2 16.1-1.5 22.9l1.6 4-6.7 10.2c-8.4 12.9-20.3 37.1-25 50.8-3.3 9.5-7.3 24.8-8.9 34-.5 3-1.3 3.8-5.1 5.3-2.4 1-6 3.7-8 5.9-3.1 3.3-4.1 3.9-6.3 3.3-4.7-1.1-20.7-9.1-27.2-13.5-8.2-5.5-20-16.9-26.1-24.9-4.8-6.3-4.9-6.5-4.9-13.8 0-57.5 32-110.2 82.4-135.5 8.4-4.2 19.2-8.7 21.3-8.8.7 0 1.5 1.7 1.9 3.7zm130.2 16.5c16.4 11.2 35.7 33.1 46.3 52.5l3.4 6.2-3.3 6.7c-7.4 14.9-20.9 34.4-32.6 47.1l-6.5 7-5.8-1.9c-6.8-2.3-12.9-2-19.9 1.2l-4.7 2-3.6-2.7c-6.6-5-30.2-28.7-37.8-38.1l-7.6-9.3 2.9-5.7c2.4-4.7 2.9-6.9 2.8-12.7 0-4.5-.6-8.1-1.7-10.2l-1.7-3.1 6.2-5.7c7.4-6.9 21.2-17.7 30.9-24.1 6.3-4.2 23.8-14.4 24.7-14.4.2 0 3.8 2.4 8 5.2zm-85.6 41c10.3 7.2 6 24.1-6.4 25.5-10.4 1.2-17.9-7.3-15.7-17.6.9-4.1 5.3-8.8 9.4-10.1 4-1.2 9.3-.3 12.7 2.2zm-8.7 38.4 6.9.3 2.9 4.3c7.7 11.2 30.1 34.9 44.1 46.5l5.9 4.9.1 8.8.2 8.9-3.7 2.2c-12.2 7.8-41.9 20.3-56.4 23.9-6.3 1.5-16 3.1-25.7 4.1-4.6.5-5.8.4-5.8-.8 0-2.7-6.2-10.7-10.5-13.4-3.4-2.1-4.4-3.4-4.5-5.4 0-4.9 5.8-25.6 10.5-37.6 8.2-20.6 24.5-48.9 27.5-47.7.8.4 4.6.8 8.5 1zM415.7 230c2.8 12.9 2.5 44.9-.4 58.4-1.2 5.4-2.4 10.1-2.7 10.3-.8.8-15.9-4.2-27.1-9l-10-4.3.3-3.6c.2-2-.2-5.5-.8-7.7l-1.1-4.2 7.1-7.6c8.7-9.3 20.2-24.4 26.7-35.1 2.8-4.6 5.1-7.5 5.5-6.8.3.6 1.5 5 2.5 9.6zm-59.8 38.7c8.5 6.3 7.5 18.6-2 23.6-9.2 4.9-20.8-3.3-19.5-13.7 1.2-10.4 13.3-15.9 21.5-9.9zm42.4 45.5c4.2 1.2 7.7 2.7 7.7 3.3 0 2.1-10.2 20.1-15.8 27.9-7.8 11.1-24.9 27.9-35.7 35.2-21.2 14.4-46.8 24.1-68.5 25.8-20.5 1.7-19.6 1.7-25.6-.9-13.4-5.9-26.2-16.9-34.2-29.4-4.4-6.7-10.2-19.9-10.2-22.8.1-1 1.5-2.7 3.3-3.8 1.8-1.1 4.7-4.3 6.6-7.1l3.3-5.1 10.9-1.2c12.9-1.4 32.7-5.3 41.9-8.3 11.1-3.6 28.5-11.4 39.6-17.8 6-3.4 11.4-5.9 12.3-5.6.9.2 3.6 1.2 6.1 2.1 6.4 2.4 14.5 1.5 21.2-2.2l5.2-3 12.1 5.3c6.6 2.9 15.5 6.3 19.8 7.6zm-250.7 3.5c4.9 2.9 13.2 6.9 18.6 9 8.8 3.4 9.8 4.1 10.4 6.8 1.8 8.1 8.9 16.4 16.8 19.4 4.7 1.8 4.9 2 7.1 8.7 4.4 13.4 11 25.5 19.1 34.3 2 2.3 3.5 4.3 3.2 4.6-.7.8-21.1-8-28.4-12.3-24.1-14.1-45-35.6-57.2-59.1-4.9-9.2-11.2-24.1-11.2-26.1 0-.6 2.9 1.3 6.4 4.3 3.6 2.9 10.4 7.6 15.2 10.4zm60.7-3.3c4.3 1.7 8.5 6.8 9.3 11 .8 4.3-2.4 11.8-6.1 14.2-1.4.9-4.7 1.9-7.3 2.1-14 1.2-20.9-17.4-9.5-25.5 4.7-3.3 8.8-3.9 13.6-1.8z"/>
</svg>
