<svg xmlns="http://www.w3.org/2000/svg" xml:space="preserve" viewBox="0 0 1475.1 436.8">
  <path d="M313.6 241.7c0 28.9-23.4 52.4-52.3 52.4h-75.9c-42.2-1.8-75-37.5-73.3-79.7s37.5-75 79.7-73.3c30.2 1.3 56.8 20.2 67.9 48.3h1.5c29 0 52.4 23.4 52.4 52.3M111.4 270c0 13.3-10.8 24-24 24s-24-10.8-24-24 10.8-24 24-24 24 10.7 24 24m371.3 19.4c.7 1.8-.2 3.8-1.9 4.5-.4.2-.8.2-1.2.2h-8.1c-1.2-.1-2.2-.8-2.9-1.7-1.1-1.3-2.1-2.7-2.9-4.2-.9-1.6-1.7-3.3-2.5-5.1-.8-1.7-1.3-3.4-1.8-4.6L451 252.9c-.3-.9-1.2-1.5-2.1-1.4h-65.2c-.9 0-1.8.6-2.1 1.4l-10 25.7c-.6 1.2-1.3 2.7-2 4.5s-1.6 3.5-2.6 5.2c-.8 1.5-1.8 2.9-2.9 4.2-.7 1-1.8 1.6-3 1.7h-7.9c-1.9 0-3.4-1.6-3.4-3.5 0-.4.1-.8.2-1.2L406.2 152c1.1-2.6 3.6-4.3 6.4-4.3h7.6c2.8 0 5.3 1.7 6.4 4.3zm-38.4-49.6c.7 0 1.3-.6 1.3-1.4 0-.2 0-.3-.1-.5l-17.8-44.8c-2-4.6-4-9.5-6.1-14.7-1.4-3.4-2.7-7.1-3.9-10.6-.3-.8-1.1-1.3-1.9-1-.5.2-.9.5-1 1q-1.8 5.4-3.9 10.8c-2.1 5.2-4.2 10-6.3 14.5L387.1 238c-.3.7.1 1.5.8 1.7.1.1.3.1.5.1zm71.3-26.5c2.4-7.1 6.4-13.5 11.9-18.6 5.3-4.4 12-6.8 18.9-6.5 2.1 0 4.3.2 6.4.5.7.1 1.5.3 2.2.6 2 .7 3.2 2.7 2.9 4.8l-.9 7.7c-.5 1.5-1.3 2.3-2.5 2.3-1.4-.1-2.8-.3-4.2-.8-8.3-2.1-17 0-23.4 5.6-4.7 5.5-8.2 12-10.3 19v61.8c0 2.4-1.9 4.3-4.3 4.3h-6.9c-2.4 0-4.3-1.9-4.3-4.3v-95.4c0-2.4 1.9-4.3 4.3-4.3h4.2c1.2-.1 2.5.2 3.4 1 .7.9 1.2 1.9 1.3 3zm146.1-19.6-40.6 97.5c-.7 1.8-2.5 2.9-4.4 2.9h-7.4c-1.9 0-3.6-1.2-4.4-2.9l-40.3-97.5c-.6-1.4.1-2.9 1.4-3.5.3-.1.7-.2 1-.2h8.6c1.1 0 2.2.3 3 1 .7.6 1.3 1.3 1.7 2.1l29.3 73.3c1.5 4 2.7 8.2 3.6 12.4.3-2.1.8-4.2 1.4-6.2.7-2 1.4-4.1 2.1-6.2l29.4-73.3c.6-2 2.6-3.4 4.7-3.2h8.1c1.5 0 2.7 1.3 2.7 2.8.2.3.2.7.1 1m19.7 15.6c-1.5-2.9-.9-6.4 1.6-8.5 4.2-3.4 8.8-6.3 13.7-8.5 6.8-2.9 14.2-4.3 21.5-4.2 11.7 0 20.6 3.4 26.4 10.6 6.2 8 9.3 18 8.8 28.2v60.6c0 3.6-2.9 6.5-6.5 6.5-1.3.1-2.5-.2-3.7-.7-1-.7-1.7-1.7-1.9-2.9l-1.6-11.9q-3.75 3.9-8.1 7.2-3.9 3.15-8.4 5.4c-3 1.5-6.2 2.7-9.6 3.4-3.8.8-7.6 1.1-11.4 1.1q-5.7 0-11.1-1.5c-3.4-1-6.5-2.7-9.2-4.9-2.7-2.3-4.8-5.2-6.3-8.4-1.6-3.9-2.4-8-2.3-12.2 0-4.2 1.2-8.4 3.4-12 2.9-4.3 6.8-7.7 11.3-10.1 6.3-3.3 13.1-5.7 20.1-7.1 9.9-2 20-3 30.1-3.1v-9.2c.5-7.1-1.5-14.2-5.6-20.1-4.1-4.7-10.2-7.3-16.4-6.9-4-.1-8 .6-11.8 1.9-2.9 1.1-5.6 2.5-8.2 4.1-2.3 1.5-4.2 2.9-5.8 4.2-1.3 1.1-2.8 1.8-4.5 1.9-2.1.1-4-1.1-4.9-2.9m57.6 36.2c-17.8.8-30.6 3-38.5 6.9-7.9 3.8-11.8 8.9-11.8 15.4-.5 5.2 1.5 10.3 5.5 13.7 3.8 2.8 8.4 4.2 13.1 4.1 6.3.2 12.5-1.3 18-4.4 5.1-3.1 9.7-7 13.7-11.3zm59.3-38.7c4.4-5.4 9.7-10 15.7-13.6 6.2-3.5 13.1-5.2 20.2-5.1 11.7 0 20.4 3.4 26.1 10.8 6.1 8.4 9.2 18.6 8.6 29v62.6c0 1.9-1.5 3.4-3.4 3.4H857c-1.9 0-3.4-1.5-3.4-3.4v-62.6c.4-7.3-1.7-14.5-5.9-20.4-4.4-5.2-11-7.9-17.8-7.4-5.9-.1-11.7 1.5-16.7 4.6-5.3 3.3-9.9 7.5-13.7 12.4v73.4c0 1.9-1.5 3.4-3.4 3.4h-8.5c-1.9 0-3.4-1.5-3.4-3.4v-96.8c0-2 1.6-3.7 3.7-3.7h5.1c2.2-.3 4.2 1.3 4.5 3.4zm204.6 52.9h1c.3-.1.7-.1 1 0 .4.3.8.5 1.2.7s.8.5 1 .9l8.3 8.5c1.6 1.6 1.6 4.2 0 5.8-5.6 6.1-12.4 11-20 14.3-10.1 4-21 6-31.8 5.7-10.3.2-20.4-1.7-30-5.6-8.6-3.5-16.4-8.9-22.8-15.6-6.4-6.9-11.4-15-14.5-23.9-3.4-9.8-5.1-20.1-5-30.5-.1-10.4 1.7-20.7 5.3-30.5 3.3-9 8.3-17.3 14.9-24.3 6.6-6.9 14.5-12.4 23.4-16 9.6-4 19.9-6 30.3-5.8 9.9-.2 19.8 1.6 29 5.3 6.8 2.8 13.2 6.7 18.8 11.6 1.7 1.4 2 3.9.7 5.7l-3.6 4.9c-1.5 2-2.7 3.4-3.7 4.7-.7.9-1.6 1.6-2.6 2.2-.8.4-1.6.6-2.5.6-1.7-.1-3.3-.6-4.7-1.4-2.9-1.9-5.5-3.4-7.9-4.9-2.3-1.4-4.8-2.5-7.3-3.4s-5-1.5-7.6-1.9c-2.9-.4-5.8-.6-8.7-.5-6.6-.1-13.2 1.3-19.2 4-5.5 2.6-10.4 6.4-14.4 11.1-4.2 5-7.2 10.9-9 17.2-2.1 7-3.1 14.3-3.1 21.6-.2 7.7 1 15.3 3.4 22.6 2.1 6.1 5.4 11.7 9.7 16.5 4 4.5 9 8 14.6 10.3 5.7 2.3 11.9 3.5 18.1 3.4 5.5.1 11.1-.5 16.5-1.7 5.1-1.3 9.8-3.9 13.7-7.5 2.2-1.5 4.6-2.8 7.2-3.8m56.4-115.3v145.9c0 1.9-1.5 3.4-3.4 3.4h-18.7c-1.9 0-3.4-1.5-3.4-3.4V144.7c0-1.9 1.5-3.4 3.4-3.4h18.7c1.8 0 3.4 1.5 3.4 3.4m72 41.7c7.4-.1 14.7 1.2 21.5 3.8 6.2 2.4 11.8 6.1 16.5 10.9 4.7 4.9 8.3 10.8 10.5 17.2 2.6 7.3 3.8 15 3.7 22.7.1 7.8-1.2 15.5-3.7 22.8-2.3 6.4-5.9 12.3-10.5 17.2-4.7 4.8-10.3 8.5-16.5 10.9-13.9 5.1-29.2 5.1-43.1 0-12.8-4.8-22.8-15.2-27.3-28.1-2.6-7.3-3.8-15-3.7-22.8-.1-7.7 1.1-15.4 3.7-22.7 4.5-12.9 14.5-23.2 27.3-28 6.9-2.6 14.2-3.9 21.5-3.8m.1 90c7.7.6 15.2-2.8 19.9-9.1 4.3-6.1 6.4-14.8 6.4-26.4s-2.1-20.6-6.4-26.7c-9.3-11-25.7-12.3-36.7-3.1-1.1.9-2.1 2-3.1 3.1-4.3 6.2-6.4 15.1-6.4 26.7 0 11.5 2.1 20.3 6.4 26.4 4.7 6.2 12.2 9.6 19.9 9.1m163.3-85v102.6h-15.3c-3.1.4-6-1.5-6.9-4.5l-1.5-9.2c-4 4.6-8.9 8.5-14.4 11.2-5.9 2.8-12.3 4.2-18.9 4-11.7 0-20.6-3.7-26.6-11.1-6.3-8.2-9.5-18.4-9.1-28.8v-64.2c0-1.9 1.5-3.4 3.4-3.4h18.7c1.9 0 3.4 1.5 3.4 3.4v64.3c-.4 5.5 1.2 10.9 4.5 15.4 3.5 3.8 8.6 5.7 13.7 5.3 9.2-.3 17.8-4.5 23.5-11.7v-73.2c0-1.9 1.5-3.4 3.4-3.4h18.7c1.9 0 3.4 1.5 3.4 3.4m117.9-46.7-.2 143.5c0 3.1-2.5 5.6-5.6 5.7h-9.9c-3.1.4-6-1.5-6.9-4.5l-1.8-10.5c-4.1 4.9-9.2 9-14.8 12.1-6.1 3.1-12.9 4.7-19.8 4.5-5.5.1-11-1.1-15.9-3.4-4.9-2.4-9.1-6-12.3-10.3-3.7-5.1-6.4-10.8-8.1-16.9-2.1-7.6-3-15.5-2.9-23.3 0-7.4 1.2-14.7 3.4-21.8 2-6.3 5-12.2 9.1-17.5 3.8-4.9 8.7-8.9 14.3-11.7 5.9-2.9 12.4-4.4 19-4.3 5.2-.1 10.5.8 15.4 2.7 4.3 1.8 8.1 4.5 11.3 7.8l.4-51.8c0-2 1.7-3.6 3.7-3.6h18.1c2 0 3.6 1.6 3.6 3.6m-25.9 69.9c-2.5-3.3-5.7-6-9.5-7.7-3.4-1.4-7.2-2.2-10.9-2.1-7.4-.3-14.4 3-18.9 8.9s-6.9 15-6.9 27.5c0 12.4 2 21.6 5.8 26.8 3.7 5.1 9.7 8 15.9 7.8 4.8.1 9.5-1 13.7-3.3 4.2-2.5 7.8-5.8 10.6-9.8z" style="fill:#00baba"/>
</svg>
