<svg xmlns="http://www.w3.org/2000/svg" viewBox="0 0 1080 277.77">
  <path d="M330.72 140.09q15.84-7.02 15.84-26.07c0-10.03-3.3-17.38-9.9-22.73s-16.5-8.02-28.39-8.02h-44.23v122.99h46.87c13.2 0 23.76-3.34 31.03-9.36 7.26-6.02 11.22-14.71 11.22-26.07 0-7.35-1.98-13.37-5.94-19.38-4.62-5.35-9.9-8.69-16.5-11.36m-48.19-40.1h22.44c7.26 0 12.54 1.34 15.84 4.01s5.28 6.68 5.28 12.03c0 6.68-1.98 11.36-5.28 14.04-3.96 3.34-9.24 4.68-17.16 4.68h-21.12zm43.57 84.89c-3.96 3.34-9.24 4.68-16.5 4.68h-27.07v-38.77h25.09c15.84 0 24.43 6.68 24.43 19.38 0 6.68-1.98 11.36-5.94 14.71m103.01-49.04c-2.64-4.52-6.6-7.75-11.22-9.69-4.62-2.58-9.9-3.23-15.84-3.23-7.26 0-13.86 1.94-20.46 5.82q-8.91 5.82-13.86 15.51c-3.3 6.46-4.62 13.57-4.62 20.68 0 8.4 1.98 15.51 5.28 21.97s7.92 10.99 13.86 14.86c5.94 3.23 12.54 5.17 19.8 5.17 13.2 0 22.44-4.52 28.39-13.57l.03 11.86h17.78v-80.53h-17.89l-1.24 11.15Zm-5.94 46.53c-4.62 4.52-10.56 7.11-17.82 7.11s-13.2-2.58-17.82-7.11c-4.62-4.52-6.6-10.99-6.6-18.74s1.98-13.57 6.6-18.74c4.62-4.52 10.56-7.11 17.82-7.11s13.2 2.58 17.82 7.11c4.62 4.52 6.6 10.99 6.6 18.74s-2.64 14.22-6.6 18.74m45.06-57.68h18.48v80.54h-18.48zm9.24-41.51c-3.3 0-5.94 1.32-7.92 3.3s-3.3 4.62-3.3 7.92 1.32 5.94 3.3 7.92 4.62 3.3 7.92 3.3 5.94-1.32 7.92-3.3 3.3-4.62 3.3-7.92-1.32-5.94-3.3-7.92-4.62-3.3-7.92-3.3m69.81 40.19q-7.92 0-13.86 3.96c-3.96 2.64-7.26 5.94-9.24 11.22v-13.86h-17.82v80.54h18.48V167.6c0-8.58 1.98-15.18 5.28-19.8s8.58-7.26 15.18-7.26c3.3 0 6.6.66 9.24 1.98l1.98-17.16c-1.32-.66-2.64-.66-4.62-1.32s-3.3-.66-4.62-.66m134.33 33.75c-3.97-1.11-7.25-1.61-9.91-2.78-2.01-1.21-4-1.77-4.71-3.04s-1.43-2.55-1.52-4.5c-.13-2.61 1.08-4.63 3.61-6.06s5.76-2.24 10.31-2.47c3.9-.19 7.84.27 11.8 1.38 3.97 1.11 7.93 2.23 11.28 4.02l1.87-15.13c-3.35-1.8-6.66-2.94-11.93-3.99-4.62-1.08-9.2-1.51-14.4-1.26-9.75.48-16.81 2.78-22.44 7.64-5.63 4.85-7.94 10.85-7.59 18.02.32 6.52 2.49 10.99 6.59 14.71 4.09 3.72 10.76 6.67 19.99 8.83 4.62 1.08 7.93 2.23 10.56 2.75 2.67 1.18 4 1.77 5.36 3.01s1.43 2.55 1.56 5.15c.29 5.87-4.76 9.39-15.81 9.93-3.9.19-8.49-.24-13.78-1.94-4.62-1.08-8.61-2.85-12.64-5.27l-1.87 15.13c3.38 2.45 7.34 3.56 12.61 4.61s10.5 1.45 16.35 1.16c10.4-.51 18.11-2.85 24.39-7.73 5.63-4.85 8.59-10.88 8.24-18.06-.32-6.52-2.53-11.64-7.27-15.34-3.41-3.1-10.72-6.01-20.64-8.8m135.54-57.61c-11.88-10.82-28.81-16.54-48.95-16.54h-47.4v125.1h45.5c21.99 0 38.89-5.57 50.23-16.55 12.19-11.18 18.12-26.33 18.12-46.29.65-19.1-5.24-34.48-17.48-45.72Zm-11.95 46.33c0 25.11-12.73 37.31-38.91 37.31h-16.06v-74.61h16.7c26.11 0 38.27 11.86 38.27 37.31Zm178.73-22.01-17 49.2-15.78-49.2h-29.68l31.98 83.21h26.25l32.62-83.21zm-80.88 5.23c-5.75-3.22-12.5-4.85-20.05-4.85-8.17 0-15.47 1.9-21.69 5.64s-11.08 8.93-14.46 15.41c-3.35 6.44-5.05 13.78-5.05 21.82 0 8.68 1.97 16.36 5.86 22.82 3.9 6.49 9.44 11.49 16.45 14.86 6.93 3.34 13.38 5.03 22.6 5.03 5.86 0 9.8-.58 15.15-1.71 5.41-1.15 10.06-2.79 13.84-4.89l1.04-.58-2.59-20.18-2.22 1.14c-3.39 1.75-7.26 3.1-11.48 4.02-4.25.93-6.94 1.4-11.46 1.4-13.1 0-19.21-4.52-22.21-13.8h53.63l.27-1.43c.52-2.82.79-5.99.79-9.42 0-8.14-1.63-15.31-4.83-21.31-3.23-6.03-7.8-10.74-13.58-13.98m-5.5 27.92h-31.07c.97-3.97 2.68-7.1 5.11-9.33 2.83-2.6 6.36-3.87 10.8-3.87s8.03 1.25 10.7 3.83c2.3 2.22 3.8 5.37 4.46 9.36M620.56 129.5c-5.7-3.2-12.23-4.8-19.58-4.8-8.1 0-15.25 1.89-21.43 5.68-6.18 3.78-10.95 8.93-14.31 15.43-3.36 6.51-5.04 13.86-5.04 22.06 0 8.74 1.92 16.36 5.75 22.86 3.84 6.5 9.22 11.43 16.15 14.79s13.13 5.04 22.3 5.04c5.65 0 9.35-.62 14.79-1.84s10.13-2.9 14.07-5.03l-1.92-14.39c-8.53 4.16-15.74 6.24-25.34 6.24-8.21 0-13-1.89-18.06-5.68-5.06-3.78-8.18-9.14-9.35-16.07h59.48c.42-2.02.64-5.06.64-9.11 0-8.1-1.6-15.19-4.8-21.26-3.2-6.08-7.65-10.71-13.35-13.91m-42.13 30.38c.85-6.61 3.2-11.72 7.03-15.35 3.84-3.62 8.79-5.43 14.87-5.43s11.03 1.81 14.55 5.43c3.52 3.63 5.49 8.74 5.92 15.35zM192.29 49.96H96.85c-25.75 0-46.67 20.84-46.67 46.67v94.76c0 25.75 20.91 46.67 46.67 46.67h95.43c25.75 0 46.67-20.91 46.67-46.67V96.63c0-25.82-20.91-46.67-46.67-46.67ZM87.91 166.63c-19.83-22.39-18.49-73.9 15.81-90.44 17.21-7.88 34.36 8.6 24.47 21.18-24.47 31.01-40.28 67.99-40.28 69.27Zm11.23 0c3.3-7.26 25.69-53.45 48.15-75.24 23.81-23.74 73.97 26.43 50.17 50.17-22.46 22.46-68.66 44.92-75.24 48.22-11.23 4.64-27.71-11.91-23.07-23.14Zm112.85 18.49c-15.81 34.37-67.32 35.65-89.78 15.87 1.34 0 38.33-15.87 69.33-39.61 12.51-10.56 28.39 7.27 20.45 23.74m817.82 4.98c0 2.81-.41 5.26-1.22 7.35-.81 2.1-1.96 3.86-3.44 5.28-1.48 1.43-3.24 2.5-5.28 3.22-2.05.71-4.28 1.07-6.69 1.07s-4.72-.36-6.76-1.07c-2.05-.71-3.81-1.75-5.28-3.1-1.48-1.35-2.64-3.05-3.47-5.1-.84-2.04-1.26-4.4-1.26-7.06s.41-5.19 1.22-7.28 1.96-3.84 3.44-5.25 3.23-2.45 5.25-3.14 4.26-1.03 6.73-1.03 4.66.35 6.73 1.03c2.07.69 3.84 1.71 5.32 3.07s2.64 3.03 3.47 5.03c.84 2 1.26 4.32 1.26 6.98Zm-2.51.3c0-2.46-.38-4.61-1.15-6.43-.76-1.82-1.8-3.33-3.1-4.51a13 13 0 0 0-4.55-2.66c-1.73-.59-3.55-.89-5.47-.89s-3.73.27-5.43.81-3.2 1.39-4.51 2.55-2.33 2.66-3.07 4.51-1.11 4.05-1.11 6.61.34 4.69 1.03 6.54 1.66 3.38 2.92 4.58c1.26 1.21 2.76 2.12 4.51 2.73 1.75.62 3.68.92 5.8.92 1.92 0 3.73-.28 5.43-.85s3.2-1.45 4.51-2.66 2.33-2.73 3.07-4.58q1.11-2.775 1.11-6.69Zm-20.18-9.31h7.32c1.97 0 3.49.53 4.55 1.59s1.59 2.38 1.59 3.95-.38 2.72-1.15 3.58c-.76.86-1.64 1.49-2.62 1.88l4.8 7.61h-3.62l-4.21-7.1h-3.7v7.1h-2.96v-18.63Zm2.96 9.09h3.1c1.23 0 2.25-.26 3.07-.78s1.22-1.39 1.22-2.62-.33-2.01-1-2.48-1.61-.7-2.85-.7h-3.55v6.58Z" style="fill:#3075b2"/>
</svg>
