<?xml version="1.0" encoding="UTF-8"?>
<svg xmlns="http://www.w3.org/2000/svg" id="Layer_1" data-name="Layer 1" width="206.11" height="20.86" viewBox="0 0 206.11 20.86"><defs><style> .cls-1 { fill: #4daf4e; } .cls-2 { fill: #2d98d4; } </style></defs><g id="Layer_2" data-name="Layer 2"><g id="Layer_1-2" data-name="Layer 1-2"><path class="cls-1" d="M14.53,19.78a6.68,6.68,0,0,1-2,4.9,6.68,6.68,0,0,1-4.9,2,6.78,6.78,0,0,1-4.92-2,6.67,6.67,0,0,1-2-4.92,6.63,6.63,0,0,1,2-4.88,6.68,6.68,0,0,1,4.9-2,6.92,6.92,0,0,1,3.39.89V5.87h3.49Zm-3.49,0a3.41,3.41,0,0,0-3.4-3.4,3.32,3.32,0,0,0-2.43,1,3.38,3.38,0,0,0,0,4.78l0,0a3.36,3.36,0,0,0,2.43,1A3.41,3.41,0,0,0,11,19.78Zm19.09,0a6.83,6.83,0,0,1-6.75,6.91h-.14A6.84,6.84,0,0,1,16.32,20v-.2a6.6,6.6,0,0,1,2-4.89,6.7,6.7,0,0,1,4.91-2,6.85,6.85,0,0,1,6.9,6.77v.11Zm-3.49,0a3.43,3.43,0,0,0-3.41-3.39,3.36,3.36,0,0,0-2.43,1,3.26,3.26,0,0,0-1,2.39,3.32,3.32,0,0,0,1,2.43,3.36,3.36,0,0,0,2.43,1,3.28,3.28,0,0,0,2.42-1,3.22,3.22,0,0,0,1-2.41Zm12,6.52a6.68,6.68,0,0,1-4.9-2,6.56,6.56,0,0,1-2-4.89V5.87h3.49v7H38.6v3H35.17v3.54a3.26,3.26,0,0,0,1,2.41,3.36,3.36,0,0,0,2.43,1ZM52.1,24.75a6.88,6.88,0,0,1-11.7-5,6.6,6.6,0,0,1,2-4.88,7,7,0,0,1,9.51-.24l-2.1,2.81a3.27,3.27,0,0,0-2.5-1.08,3.32,3.32,0,0,0-2.43,1,3.26,3.26,0,0,0-1,2.39,3.44,3.44,0,0,0,3.44,3.43A3.18,3.18,0,0,0,49.83,22Zm15-5a6.68,6.68,0,0,1-2,4.9,6.91,6.91,0,0,1-11.82-4.9,6.6,6.6,0,0,1,2-4.88,7,7,0,0,1,9.8,0,6.6,6.6,0,0,1,2,4.91Zm-3.48,0a3.44,3.44,0,0,0-3.41-3.39,3.32,3.32,0,0,0-2.43,1,3.26,3.26,0,0,0-1,2.39,3.42,3.42,0,1,0,6.84,0ZM92,26.3H88.56V19.79a3.39,3.39,0,0,0-3.38-3.4h0a3.24,3.24,0,0,0-3,1.61v8.3H78.73V19.79a3.43,3.43,0,0,0-3.42-3.4,3.37,3.37,0,0,0-2.44,1,3.26,3.26,0,0,0-1,2.39V26.3H68.38V19.78a6.63,6.63,0,0,1,2-4.88,7,7,0,0,1,9.81,0,7,7,0,0,1,9.82,0,6.6,6.6,0,0,1,2,4.89Z" transform="translate(-0.71 -5.87)"/><path class="cls-2" d="M101,18.23V20H94.39V18.23Zm26.25,8.07h-3.48V19.79a3.38,3.38,0,0,0-3.36-3.4h0a3.25,3.25,0,0,0-3,1.61v8.3h-3.48V19.79a3.45,3.45,0,0,0-3.43-3.4,3.37,3.37,0,0,0-2.44,1,3.26,3.26,0,0,0-1,2.39V26.3h-3.49V19.78a6.63,6.63,0,0,1,2-4.88,7,7,0,0,1,9.82,0,7,7,0,0,1,9.81,0,6.6,6.6,0,0,1,2,4.89Zm15.21-6.52a6.91,6.91,0,0,1-13.82,0h0a6.6,6.6,0,0,1,2-4.88,7,7,0,0,1,9.81,0,6.67,6.67,0,0,1,2,4.88Zm-3.49,0a3.43,3.43,0,0,0-3.41-3.39,3.28,3.28,0,0,0-2.42,1,3.18,3.18,0,0,0-1,2.39,3.28,3.28,0,0,0,1,2.43,3.42,3.42,0,0,0,4.84,0h0a3.22,3.22,0,0,0,1-2.41Zm18.75,6.52H154.2V19.79a3.29,3.29,0,0,0-1-2.4,3.45,3.45,0,0,0-4.85,0,3.26,3.26,0,0,0-1,2.39V26.3h-3.49V19.78a6.63,6.63,0,0,1,2-4.88,7,7,0,0,1,9.81,0,6.63,6.63,0,0,1,2,4.88Zm5.84-16.37a2.07,2.07,0,0,1-2.07,2.1,2.08,2.08,0,0,1-2.13-2h0A2,2,0,0,1,160,8.46a2.13,2.13,0,0,1,2.95,0,2,2,0,0,1,.6,1.46Zm-.31,16.37h-3.49V12.9h3.49Zm9.22,0a6.68,6.68,0,0,1-4.9-2,6.56,6.56,0,0,1-2-4.89V5.87H169v7h3.43v3H169v3.54a3.26,3.26,0,0,0,1,2.41,3.36,3.36,0,0,0,2.43,1Zm15.06-6.52a6.68,6.68,0,0,1-2,4.9,6.91,6.91,0,0,1-11.82-4.9,6.53,6.53,0,0,1,2-4.88,7,7,0,0,1,9.8,0,6.63,6.63,0,0,1,2,4.88Zm-3.49,0a3.43,3.43,0,0,0-3.41-3.39,3.41,3.41,0,0,0-3.42,3.39,3.42,3.42,0,0,0,6.84,0h0Zm11.71-3.4a3.33,3.33,0,0,0-2.44,1,3.29,3.29,0,0,0-1,2.4V26.3h-3.49V19.78a6.6,6.6,0,0,1,2-4.88,6.7,6.7,0,0,1,4.91-2Zm11.07-2.56a4,4,0,1,1-4.15-3.93h.12a4,4,0,0,1,4,3.87Zm-7.07,0A3,3,0,0,0,202.56,17h.21a3,3,0,0,0,3-3v-.11a3,3,0,0,0-6.06-.11Zm2.42,2.06h-.91V12a7.63,7.63,0,0,1,1.51-.12,2.38,2.38,0,0,1,1.36.29,1.09,1.09,0,0,1,.39.86,1,1,0,0,1-.82.91h0a1.12,1.12,0,0,1,.72,1,2.9,2.9,0,0,0,.3,1h-1a3.54,3.54,0,0,1-.32-1c-.07-.43-.31-.62-.81-.62h-.43Zm0-2.23h.44c.5,0,.91-.16.91-.57s-.27-.6-.84-.6a2.18,2.18,0,0,0-.51,0Z" transform="translate(-0.71 -5.87)"/></g></g></svg>