<?xml version="1.0" encoding="UTF-8"?>
<svg xmlns="http://www.w3.org/2000/svg" xmlns:xlink="http://www.w3.org/1999/xlink" width="388px" height="110px" viewBox="0 0 387 110" version="1.1">
<g id="surface1">
<path style=" stroke:none;fill-rule:evenodd;fill:rgb(100%,34.117647%,0%);fill-opacity:1;" data-message="rnXx3b25JNsJ" d="M 113.496094 54.65625 C 113.496094 84.820312 89.09375 109.277344 58.992188 109.277344 C 46.832031 109.277344 35.605469 105.285156 26.539062 98.542969 C 28.089844 99.414062 29.691406 100.207031 31.335938 100.914062 C 37.574219 103.605469 44.292969 104.996094 51.082031 105 C 77.3125 104.992188 99.117188 84.746094 101.121094 58.535156 C 101.257812 57.34375 101.332031 56.148438 101.347656 54.949219 C 101.347656 53.425781 101.21875 51.65625 101.066406 50.050781 C 101.050781 49.898438 101.046875 49.742188 101.042969 49.585938 C 101.035156 49.40625 101.03125 49.226562 101.011719 49.050781 L 100.964844 49.09375 C 100.835938 47.855469 100.679688 46.617188 100.503906 45.382812 L 60.949219 45.382812 L 57.878906 51.144531 L 50.816406 64.515625 L 80.699219 64.515625 C 79.59375 67.832031 77.941406 70.933594 75.8125 73.699219 C 69.925781 81.425781 60.78125 85.953125 51.082031 85.949219 C 47.417969 85.945312 43.785156 85.289062 40.351562 84.011719 C 28.046875 79.507812 19.863281 67.78125 19.855469 54.65625 C 19.855469 37.371094 33.835938 23.359375 51.082031 23.359375 C 57.699219 23.347656 64.148438 25.453125 69.492188 29.371094 L 73.589844 21.683594 L 78.472656 12.441406 C 70.324219 7.117188 60.808594 4.292969 51.082031 4.308594 C 42.550781 4.308594 34.160156 6.492188 26.703125 10.644531 C 35.742188 3.972656 46.90625 0.03125 58.992188 0.03125 C 89.09375 0.03125 113.496094 24.488281 113.496094 54.65625 Z M 113.496094 54.65625 "/>
<path style=" stroke:none;fill-rule:nonzero;fill:rgb(15.294118%,20%,24.705882%);fill-opacity:1;" d="M 188.269531 66.714844 C 186.324219 69.054688 183.875 70.929688 181.105469 72.1875 C 178.628906 73.277344 175.953125 73.832031 173.25 73.808594 C 169.796875 73.871094 166.382812 73.03125 163.351562 71.371094 C 163.242188 71.308594 163.148438 71.234375 163.042969 71.167969 C 160.324219 69.601562 158.089844 67.320312 156.566406 64.574219 C 154.914062 61.535156 154.074219 58.113281 154.136719 54.652344 C 154.074219 51.191406 154.914062 47.773438 156.566406 44.734375 C 158.085938 41.988281 160.324219 39.707031 163.039062 38.136719 C 163.148438 38.074219 163.242188 37.996094 163.351562 37.933594 C 166.386719 36.277344 169.796875 35.4375 173.25 35.496094 C 175.953125 35.472656 178.632812 36.023438 181.113281 37.101562 L 186.742188 26.5 C 186.695312 26.480469 186.652344 26.453125 186.605469 26.429688 C 182.164062 24.558594 177.386719 23.625 172.566406 23.695312 C 167.25 23.640625 161.988281 24.808594 157.191406 27.113281 C 156.789062 27.308594 156.363281 27.457031 155.96875 27.671875 C 151.164062 30.210938 147.148438 34.027344 144.367188 38.703125 C 141.515625 43.527344 140.054688 49.046875 140.140625 54.652344 C 140.054688 60.257812 141.515625 65.777344 144.367188 70.605469 C 147.152344 75.277344 151.164062 79.09375 155.96875 81.632812 C 156.367188 81.847656 156.789062 81.996094 157.191406 82.195312 C 161.960938 84.492188 167.191406 85.660156 172.484375 85.613281 C 177.3125 85.679688 182.109375 84.75 186.5625 82.875 C 186.621094 82.847656 186.671875 82.816406 186.730469 82.789062 C 190.777344 81.035156 194.347656 78.339844 197.144531 74.921875 Z M 217.324219 81.589844 C 212.484375 79.046875 208.441406 75.214844 205.632812 70.519531 C 202.792969 65.722656 201.332031 60.230469 201.410156 54.652344 C 201.332031 49.074219 202.792969 43.585938 205.632812 38.789062 C 208.441406 34.09375 212.488281 30.261719 217.324219 27.714844 C 222.488281 24.988281 228.253906 23.609375 234.09375 23.699219 C 239.914062 23.605469 245.667969 24.988281 250.816406 27.714844 C 255.640625 30.277344 259.683594 34.105469 262.507812 38.789062 C 265.375 43.578125 266.851562 49.070312 266.773438 54.652344 C 266.851562 60.238281 265.375 65.730469 262.507812 70.519531 C 259.683594 75.203125 255.644531 79.03125 250.816406 81.589844 C 245.667969 84.320312 239.917969 85.707031 234.09375 85.613281 C 228.253906 85.703125 222.488281 84.320312 217.324219 81.59375 Z M 243.648438 71.371094 C 246.46875 69.773438 248.789062 67.417969 250.347656 64.570312 C 252.003906 61.53125 252.839844 58.113281 252.78125 54.652344 C 252.839844 51.191406 252.003906 47.773438 250.347656 44.734375 C 248.789062 41.886719 246.46875 39.535156 243.648438 37.933594 C 240.734375 36.292969 237.4375 35.453125 234.09375 35.496094 C 230.746094 35.449219 227.449219 36.292969 224.535156 37.933594 C 221.714844 39.535156 219.394531 41.886719 217.835938 44.734375 C 216.179688 47.773438 215.34375 51.191406 215.402344 54.652344 C 215.34375 58.113281 216.179688 61.53125 217.835938 64.570312 C 219.394531 67.417969 221.714844 69.773438 224.535156 71.371094 C 227.449219 73.015625 230.746094 73.855469 234.09375 73.808594 C 237.4375 73.855469 240.734375 73.015625 243.648438 71.371094 Z M 315.246094 84.585938 L 303.722656 67.910156 L 291.011719 67.910156 L 291.011719 84.585938 L 277.1875 84.585938 L 277.1875 24.722656 L 303.039062 24.722656 C 307.769531 24.609375 312.46875 25.515625 316.824219 27.371094 C 320.492188 28.949219 323.621094 31.566406 325.824219 34.902344 C 327.988281 38.355469 329.085938 42.371094 328.980469 46.445312 C 329.089844 50.511719 327.972656 54.519531 325.78125 57.945312 C 323.542969 61.253906 320.382812 63.828125 316.695312 65.34375 L 330.089844 84.585938 Z M 311.742188 38.703125 C 308.996094 36.726562 305.648438 35.773438 302.273438 36.011719 L 291.011719 36.011719 L 291.011719 56.878906 L 302.273438 56.878906 C 305.652344 57.113281 309.007812 56.144531 311.742188 54.140625 C 313.953125 52.214844 315.148438 49.375 314.988281 46.445312 C 315.167969 43.5 313.96875 40.640625 311.742188 38.707031 Z M 386.152344 73.46875 L 386.152344 84.585938 L 339.902344 84.585938 L 339.902344 24.71875 L 385.042969 24.71875 L 385.042969 35.839844 L 353.640625 35.839844 L 353.640625 48.839844 L 381.375 48.839844 L 381.375 59.613281 L 353.640625 59.613281 L 353.640625 73.46875 Z M 386.152344 73.46875 "/>
</g>
</svg>
