<svg xmlns="http://www.w3.org/2000/svg" width="909" height="428" fill="none">
  <path fill="#DFE3E7" d="M265.995 4a2 2 0 1 0 0-4 2 2 0 0 0 0 4m8.002 0a2 2 0 1 0 0-4 2 2 0 0 0 0 4m8.002 0a2 2 0 1 0 0-4 2 2 0 0 0 0 4m8.002 0a2 2 0 1 0 0-4 2 2 0 0 0 0 4M330 4a2 2 0 1 0 0-4 2 2 0 0 0 0 4m8.001 0a2 2 0 1 0 0-4 2 2 0 0 0 0 4m8.003 0a2 2 0 1 0 0-4 2 2 0 0 0 0 4m8.002 0a2 2 0 1 0 0-4 2 2 0 0 0 0 4m7.989 0a2 2 0 1 0 0-4 2 2 0 0 0 0 4m-127.996 8.002a2 2 0 1 0 0-4 2 2 0 0 0 0 4m8.002 0a2 2 0 1 0 0-4 2 2 0 0 0 0 4m15.992 0a2 2 0 1 0 0-4 2 2 0 0 0 0 4m8.002 0a2 2 0 1 0 0-4 2 2 0 0 0 0 4m8.002 0a2 2 0 1 0 0-4 2 2 0 0 0 0 4m8.002 0a2 2 0 1 0 0-4 2 2 0 0 0 0 4m8.002 0a2 2 0 1 0 0-4 2 2 0 0 0 0 4m8.003 0a2 2 0 1 0 0-4 2 2 0 0 0 0 4m8.002 0a2 2 0 1 0 0-4 2 2 0 0 0 0 4m7.989 0a2 2 0 1 0 0-4 2 2 0 0 0 0 4m8.003 0a2 2 0 1 0 0-4 2 2 0 0 0 0 4m8.002 0a2 2 0 1 0 0-4 2 2 0 0 0 0 4m8.001 0a2 2 0 1 0 0-4 2 2 0 0 0 0 4m8.003 0a2 2 0 1 0 0-4 2 2 0 0 0 0 4m8.002 0a2 2 0 1 0 0-4 2 2 0 0 0 0 4m7.989 0a2 2 0 1 0 0-4 2 2 0 0 0 0 4m8.003 0a2 2 0 1 0 0-4 2 2 0 0 0 0 4m72.006 0a2 2 0 1 0 0-4 2 2 0 0 0 0 4m8.002 0a2 2 0 1 0 0-4 2 2 0 0 0 0 4m39.999 0a2 2 0 1 0 0-4 2 2 0 0 0 0 4m87.998 0a2 2 0 1 0 0-4 2 2 0 0 0 0 4m-384.002 7.99a2 2 0 1 0 0-4 2 2 0 0 0 0 4m48 0a2 2 0 1 0 0-4 2 2 0 0 0 0 4m8.002 0a2 2 0 1 0 0-4 2 2 0 0 0 0 4m23.994 0a2 2 0 1 0 0-4 2 2 0 0 0 0 4m8.002 0a2 2 0 1 0 0-4 2 2 0 0 0 0 4m8.002 0a2 2 0 1 0 0-4 2 2 0 0 0 0 4m8.003 0a2 2 0 1 0 0-4.001 2 2 0 0 0 0 4Zm8.002 0a2 2 0 1 0 0-4.001 2 2 0 0 0 0 4Zm7.989 0a2 2 0 1 0 0-4 2 2 0 0 0 0 4m8.003 0a2 2 0 1 0 0-4.001 2 2 0 0 0 0 4Zm8.002 0a2 2 0 1 0 0-4.001 2 2 0 0 0 0 4Zm8.001 0a2 2 0 1 0 0-4 2 2 0 0 0 0 4m8.003 0a2 2 0 1 0 0-4.001 2 2 0 0 0 0 4Zm8.002 0a2 2 0 1 0 0-4.001 2 2 0 0 0 0 4Zm7.989 0a2 2 0 1 0 0-4 2 2 0 0 0 0 4m72.007 0a2 2 0 1 0 0-4 2 2 0 0 0 0 4m16.004 0a2 2 0 1 0 0-4 2 2 0 0 0 0 4m-272.009 8.002a2 2 0 1 0 0-4.001 2 2 0 0 0 0 4Zm8.002 0a2 2 0 1 0 0-4.001 2 2 0 0 0 0 4Zm8.002 0a2 2 0 1 0 0-4 2 2 0 0 0 0 4m15.991 0a2 2 0 1 0 0-4 2 2 0 0 0 0 4m8.003 0a2 2 0 1 0 0-4 2 2 0 0 0 0 4m8.002 0a2 2 0 1 0 0-4 2 2 0 0 0 0 4m8.002 0a2 2 0 1 0 0-4 2 2 0 0 0 0 4m8.002 0a2 2 0 1 0 0-4 2 2 0 0 0 0 4m48 0a2 2 0 1 0 0-4 2 2 0 0 0 0 4m8.003 0a2 2 0 1 0 0-4.001 2 2 0 0 0 0 4Zm8.002 0a2 2 0 1 0 0-4.001 2 2 0 0 0 0 4Zm7.989 0a2 2 0 1 0 0-4 2 2 0 0 0 0 4m8.003 0a2 2 0 1 0 0-4.001 2 2 0 0 0 0 4Zm8.002 0a2 2 0 1 0 0-4.001 2 2 0 0 0 0 4Zm8.001 0a2 2 0 1 0 0-4 2 2 0 0 0 0 4m8.003 0a2 2 0 1 0 0-4.001 2 2 0 0 0 0 4Zm8.002 0a2 2 0 1 0 0-4.001 2 2 0 0 0 0 4Zm7.989 0a2 2 0 1 0 0-4 2 2 0 0 0 0 4m160.005 0a2 2 0 1 0 0-4.002 2 2 0 0 0 0 4.002m56.003 0a2 2 0 1 0 0-4 2 2 0 0 0 0 4m8.002 0a2 2 0 1 0 0-4.001 2 2 0 0 0 0 4Zm8.002 0a2 2 0 1 0 0-4 2 2 0 0 0 0 4m8.002 0a2 2 0 1 0 0-4 2 2 0 0 0 0 4m7.99 0a2 2 0 1 0 0-4.001 2 2 0 0 0 0 4Zm8.002 0a2 2 0 1 0 0-4 2 2 0 0 0 0 4m8.002 0a2 2 0 1 0 0-4 2 2 0 0 0 0 4m48 0a2 2 0 1 0 0-4 2 2 0 0 0 0 4m8.002 0a2 2 0 1 0 0-4 2 2 0 0 0 0 4m16.005 0a2 2 0 1 0 0-4.001 2 2 0 0 0 0 4Zm-544.007 8.002a2 2 0 1 0 0-4 2 2 0 0 0 0 4m7.989 0a2 2 0 1 0 0-4 2 2 0 0 0 0 4m8.003 0a2 2 0 1 0 0-4 2 2 0 0 0 0 4m16.004 0a2 2 0 1 0 0-4 2 2 0 0 0 0 4m16.004 0a2 2 0 1 0 0-4 2 2 0 0 0 0 4m7.989 0a2 2 0 1 0 0-4 2 2 0 0 0 0 4m16.005 0a2 2 0 1 0 0-4 2 2 0 0 0 0 4m8.002 0a2 2 0 1 0 0-4 2 2 0 0 0 0 4m64.005 0a2 2 0 1 0 0-4 2 2 0 0 0 0 4m8.002 0a2 2 0 1 0 0-4 2 2 0 0 0 0 4m7.989 0a2 2 0 1 0 0-4 2 2 0 0 0 0 4m8.003 0a2 2 0 1 0 0-4 2 2 0 0 0 0 4m8.002 0a2 2 0 1 0 0-4 2 2 0 0 0 0 4m8.001 0a2 2 0 1 0 0-4 2 2 0 0 0 0 4m8.003 0a2 2 0 1 0 0-4 2 2 0 0 0 0 4m8.002 0a2 2 0 1 0 0-4 2 2 0 0 0 0 4m159.992 0a2 2 0 1 0 0-4 2 2 0 0 0 0 4m32.009 0a2 2 0 1 0 0-4 2 2 0 0 0 0 4m23.994 0a2 2 0 1 0 0-4 2 2 0 0 0 0 4m8.002 0a2 2 0 1 0 0-4 2 2 0 0 0 0 4m8.002 0a2 2 0 1 0 0-4 2 2 0 0 0 0 4m8.002 0a2 2 0 1 0 0-4 2 2 0 0 0 0 4m8.002 0a2 2 0 1 0 0-4 2 2 0 0 0 0 4m7.99 0a2 2 0 1 0 0-4 2 2 0 0 0 0 4m8.002 0a2 2 0 1 0 0-4 2 2 0 0 0 0 4m8.002 0a2 2 0 1 0 0-4 2 2 0 0 0 0 4m8.002 0a2 2 0 1 0 0-4 2 2 0 0 0 0 4m8.003 0a2 2 0 1 0 0-4 2 2 0 0 0 0 4m8.002 0a2 2 0 1 0 0-4 2 2 0 0 0 0 4m7.989 0a2 2 0 1 0 0-4 2 2 0 0 0 0 4m8.002 0a2 2 0 1 0 0-4 2 2 0 0 0 0 4m24.006 0a2 2 0 1 0 0-4 2 2 0 0 0 0 4M65.992 43.998a2 2 0 1 0 0-4 2 2 0 0 0 0 4m8.002 0a2 2 0 1 0 0-4 2 2 0 0 0 0 4m8.002 0a2 2 0 1 0 0-4 2 2 0 0 0 0 4m8.003 0a2 2 0 1 0 0-4 2 2 0 0 0 0 4m8.001 0a2 2 0 1 0 0-4 2 2 0 0 0 0 4m31.996 0a2 2 0 1 0 0-4 2 2 0 0 0 0 4m8.003 0a2 2 0 1 0 0-4 2 2 0 0 0 0 4m23.993 0a2 2 0 1 0 0-4 2 2 0 0 0 0 4m8.003 0a2 2 0 1 0 0-4 2 2 0 0 0 0 4m8.002 0a2 2 0 1 0 0-4 2 2 0 0 0 0 4m8.002 0a2 2 0 1 0 0-4 2 2 0 0 0 0 4m16.004 0a2 2 0 1 0 0-4 2 2 0 0 0 0 4m7.989 0a2 2 0 1 0 0-4 2 2 0 0 0 0 4m16.005 0a2 2 0 1 0 0-4 2 2 0 0 0 0 4m8.002 0a2 2 0 1 0 0-4 2 2 0 0 0 0 4m8.002 0a2 2 0 1 0 0-4 2 2 0 0 0 0 4m8.002 0a2 2 0 1 0 0-4 2 2 0 0 0 0 4m7.99 0a2 2 0 1 0 0-4 2 2 0 0 0 0 4m32.008 0a2 2 0 1 0 0-4 2 2 0 0 0 0 4m8.003 0a2 2 0 1 0 0-4 2 2 0 0 0 0 4m8.002 0a2 2 0 1 0 0-4 2 2 0 0 0 0 4m7.989 0a2 2 0 1 0 0-4 2 2 0 0 0 0 4m8.003 0a2 2 0 1 0 0-4 2 2 0 0 0 0 4m8.002 0a2 2 0 1 0 0-4 2 2 0 0 0 0 4m8.001 0a2 2 0 1 0 0-4 2 2 0 0 0 0 4m8.003 0a2 2 0 1 0 0-4 2 2 0 0 0 0 4m8.002 0a2 2 0 1 0 0-4 2 2 0 0 0 0 4m96 0a2 2 0 1 0 0-4 2 2 0 0 0 0 4m7.99 0a2 2 0 1 0 0-4 2 2 0 0 0 0 4m8.002 0a2 2 0 1 0 0-4 2 2 0 0 0 0 4m80.009 0a2 2 0 1 0 0-4 2 2 0 0 0 0 4m8.002 0a2 2 0 1 0 0-4 2 2 0 0 0 0 4m7.989 0a2 2 0 1 0 0-4 2 2 0 0 0 0 4m8.003 0a2 2 0 1 0 0-4 2 2 0 0 0 0 4m8.002 0a2 2 0 1 0 0-4 2 2 0 0 0 0 4m8.002 0a2 2 0 1 0 0-4 2 2 0 0 0 0 4m8.002 0a2 2 0 1 0 0-4 2 2 0 0 0 0 4m8.002 0a2 2 0 1 0 0-4 2 2 0 0 0 0 4m7.99 0a2 2 0 1 0 0-4 2 2 0 0 0 0 4m8.002 0a2 2 0 1 0 0-4 2 2 0 0 0 0 4m8.002 0a2 2 0 1 0 0-4 2 2 0 0 0 0 4m8.002 0a2 2 0 1 0 0-4 2 2 0 0 0 0 4m8.003 0a2 2 0 1 0 0-4 2 2 0 0 0 0 4m8.002 0a2 2 0 1 0 0-4 2 2 0 0 0 0 4m7.989 0a2 2 0 1 0 0-4 2 2 0 0 0 0 4m8.002 0a2 2 0 1 0 0-4 2 2 0 0 0 0 4m8.002 0a2 2 0 1 0 0-4 2 2 0 0 0 0 4m8.002 0a2 2 0 1 0 0-4 2 2 0 0 0 0 4m8.002 0a2 2 0 1 0 0-4 2 2 0 0 0 0 4m8.003 0a2 2 0 1 0 0-4 2 2 0 0 0 0 4m7.989 0a2 2 0 1 0 0-4 2 2 0 0 0 0 4m8.002 0a2 2 0 1 0 0-4 2 2 0 0 0 0 4m8.002 0a2 2 0 1 0 0-4 2 2 0 0 0 0 4m8.003 0a2 2 0 1 0 0-4 2 2 0 0 0 0 4m8.002 0a2 2 0 1 0 0-4 2 2 0 0 0 0 4m23.993 0a2 2 0 1 0 0-4 2 2 0 0 0 0 4M50 52a2 2 0 1 0 0-4 2 2 0 0 0 0 4m8.002 0a2 2 0 1 0 0-4 2 2 0 0 0 0 4m7.99 0a2 2 0 1 0 0-4 2 2 0 0 0 0 4m8.002 0a2 2 0 1 0 0-4 2 2 0 0 0 0 4m8.002 0a2 2 0 1 0 0-4 2 2 0 0 0 0 4m8.003 0a2 2 0 1 0 0-4 2 2 0 0 0 0 4M98 52a2 2 0 1 0 0-4 2 2 0 0 0 0 4m8.002 0a2 2 0 1 0 0-3.999 2 2 0 0 0 0 4Zm7.99 0a2 2 0 1 0 0-3.999 2 2 0 0 0 0 4Zm8.002 0a2 2 0 1 0 0-3.999 2 2 0 0 0 0 4Zm8.002 0a2 2 0 1 0 0-3.999 2 2 0 0 0 0 4Zm8.003 0a2 2 0 1 0 0-4 2 2 0 0 0 0 4m8.002 0a2 2 0 1 0 0-3.999 2 2 0 0 0 0 4Zm8.002 0a2 2 0 1 0 0-3.999 2 2 0 0 0 0 4Zm7.989 0a2 2 0 1 0 0-3.999 2 2 0 0 0 0 4Zm8.003 0a2 2 0 1 0 0-4 2 2 0 0 0 0 4m8.002 0a2 2 0 1 0 0-4 2 2 0 0 0 0 4m8.002 0a2 2 0 1 0 0-4 2 2 0 0 0 0 4m8.002 0a2 2 0 1 0 0-3.999 2 2 0 0 0 0 4Zm8.002 0a2 2 0 1 0 0-3.999 2 2 0 0 0 0 4Zm7.989 0a2 2 0 1 0 0-3.999 2 2 0 0 0 0 4Zm8.003 0a2 2 0 1 0 0-3.999 2 2 0 0 0 0 4Zm8.002 0a2 2 0 1 0 0-3.999 2 2 0 0 0 0 4Zm24.006 0a2 2 0 1 0 0-3.999 2 2 0 0 0 0 4Zm7.99 0a2 2 0 1 0 0-4 2 2 0 0 0 0 4m32.008 0a2 2 0 1 0 0-3.999 2 2 0 0 0 0 4Zm8.003 0a2 2 0 1 0 0-4 2 2 0 0 0 0 4m8.002 0a2 2 0 1 0 0-4 2 2 0 0 0 0 4m7.989 0a2 2 0 1 0 0-3.999 2 2 0 0 0 0 4Zm8.003 0a2 2 0 1 0 0-4 2 2 0 0 0 0 4M330 52a2 2 0 1 0 0-4 2 2 0 0 0 0 4m120.006 0a2 2 0 1 0 0-3.999 2 2 0 0 0 0 4Zm7.99 0a2 2 0 1 0 0-4 2 2 0 0 0 0 4m8.002 0a2 2 0 1 0 0-3.999 2 2 0 0 0 0 4ZM474 52a2 2 0 1 0 0-3.999 2 2 0 0 0 0 4Zm8.002 0a2 2 0 1 0 0-3.999 2 2 0 0 0 0 4Zm8.003 0a2 2 0 1 0 0-4 2 2 0 0 0 0 4m23.993 0a2 2 0 1 0 0-3.999 2 2 0 0 0 0 4ZM522 52a2 2 0 1 0 0-4 2 2 0 0 0 0 4m8.002 0a2 2 0 1 0 0-3.999 2 2 0 0 0 0 4Zm8.002 0a2 2 0 1 0 0-3.999 2 2 0 0 0 0 4Zm8.003 0a2 2 0 1 0 0-4 2 2 0 0 0 0 4m8.002 0a2 2 0 1 0 0-4 2 2 0 0 0 0 4m7.989 0a2 2 0 1 0 0-3.999 2 2 0 0 0 0 4Zm8.003 0a2 2 0 1 0 0-3.999 2 2 0 0 0 0 4Zm8.002 0a2 2 0 1 0 0-3.999 2 2 0 0 0 0 4Zm8.002 0a2 2 0 1 0 0-4 2 2 0 0 0 0 4m8.002 0a2 2 0 1 0 0-3.999 2 2 0 0 0 0 4Zm8.002 0a2 2 0 1 0 0-3.999 2 2 0 0 0 0 4Zm7.99 0a2 2 0 1 0 0-4 2 2 0 0 0 0 4m8.002 0a2 2 0 1 0 0-3.999 2 2 0 0 0 0 4Zm8.002 0a2 2 0 1 0 0-3.999 2 2 0 0 0 0 4Zm8.002 0a2 2 0 1 0 0-4 2 2 0 0 0 0 4m8.003 0a2 2 0 1 0 0-4 2 2 0 0 0 0 4m8.002 0a2 2 0 1 0 0-4 2 2 0 0 0 0 4m7.989 0a2 2 0 1 0 0-3.999 2 2 0 0 0 0 4Zm8.002 0a2 2 0 1 0 0-3.999 2 2 0 0 0 0 4Zm8.002 0a2 2 0 1 0 0-3.999 2 2 0 0 0 0 4Zm8.002 0a2 2 0 1 0 0-3.999 2 2 0 0 0 0 4Zm8.002 0a2 2 0 1 0 0-3.999 2 2 0 0 0 0 4Zm8.003 0a2 2 0 1 0 0-4 2 2 0 0 0 0 4m7.989 0a2 2 0 1 0 0-3.999 2 2 0 0 0 0 4Zm8.002 0a2 2 0 1 0 0-3.999 2 2 0 0 0 0 4Zm8.002 0a2 2 0 1 0 0-3.999 2 2 0 0 0 0 4Zm8.003 0a2 2 0 1 0 0-4 2 2 0 0 0 0 4m8.002 0a2 2 0 1 0 0-4 2 2 0 0 0 0 4m8.002 0a2 2 0 1 0 0-3.999 2 2 0 0 0 0 4Zm7.99 0a2 2 0 1 0 0-4 2 2 0 0 0 0 4m8.001 0a2 2 0 1 0 0-3.999 2 2 0 0 0 0 4Zm8.003 0a2 2 0 1 0 0-4 2 2 0 0 0 0 4m8.002 0a2 2 0 1 0 0-4 2 2 0 0 0 0 4m8.002 0a2 2 0 1 0 0-4 2 2 0 0 0 0 4m8.002 0a2 2 0 1 0 0-3.999 2 2 0 0 0 0 4Zm8.003 0a2 2 0 1 0 0-4 2 2 0 0 0 0 4M33.996 59.99a2 2 0 1 0 0-4 2 2 0 0 0 0 4m8.002 0a2 2 0 1 0 0-4 2 2 0 0 0 0 4m8.002 0a2 2 0 1 0 0-4 2 2 0 0 0 0 4m8.002 0a2 2 0 1 0 0-4 2 2 0 0 0 0 4m7.99 0a2 2 0 1 0 0-4 2 2 0 0 0 0 4m8.002 0a2 2 0 1 0 0-4 2 2 0 0 0 0 4m8.002 0a2 2 0 1 0 0-4 2 2 0 0 0 0 4m8.003 0a2 2 0 1 0 0-4 2 2 0 0 0 0 4m8.001 0a2 2 0 1 0 0-4.001 2 2 0 0 0 0 4Zm8.002 0a2 2 0 1 0 0-4 2 2 0 0 0 0 4m7.99 0a2 2 0 1 0 0-4 2 2 0 0 0 0 4m8.002 0a2 2 0 1 0 0-4 2 2 0 0 0 0 4m8.002 0a2 2 0 1 0 0-4 2 2 0 0 0 0 4m8.003 0a2 2 0 1 0 0-4.001 2 2 0 0 0 0 4Zm8.002 0a2 2 0 1 0 0-4 2 2 0 0 0 0 4m8.002 0a2 2 0 1 0 0-4 2 2 0 0 0 0 4m7.989 0a2 2 0 1 0 0-4 2 2 0 0 0 0 4m8.003 0a2 2 0 1 0 0-4.001 2 2 0 0 0 0 4Zm8.002 0a2 2 0 1 0 0-4.001 2 2 0 0 0 0 4Zm8.002 0a2 2 0 1 0 0-4.001 2 2 0 0 0 0 4Zm8.002 0a2 2 0 1 0 0-4 2 2 0 0 0 0 4m8.002 0a2 2 0 1 0 0-4 2 2 0 0 0 0 4m7.989 0a2 2 0 1 0 0-4 2 2 0 0 0 0 4m8.003 0a2 2 0 1 0 0-4 2 2 0 0 0 0 4m16.004 0a2 2 0 1 0 0-4 2 2 0 0 0 0 4m8.002 0a2 2 0 1 0 0-4 2 2 0 0 0 0 4m8.002 0a2 2 0 1 0 0-4 2 2 0 0 0 0 4m39.998 0a2 2 0 1 0 0-4 2 2 0 0 0 0 4m8.003 0a2 2 0 1 0 0-4.001 2 2 0 0 0 0 4Zm8.002 0a2 2 0 1 0 0-4.001 2 2 0 0 0 0 4Zm7.989 0a2 2 0 1 0 0-4 2 2 0 0 0 0 4m40.011 0a2 2 0 1 0 0-4.001 2 2 0 0 0 0 4Zm7.989 0a2 2 0 1 0 0-4 2 2 0 0 0 0 4m8.003 0a2 2 0 1 0 0-4.001 2 2 0 0 0 0 4Zm64.004 0a2 2 0 1 0 0-4 2 2 0 0 0 0 4m8.002 0a2 2 0 1 0 0-4 2 2 0 0 0 0 4m8.002 0a2 2 0 1 0 0-4 2 2 0 0 0 0 4m15.992 0a2 2 0 1 0 0-4 2 2 0 0 0 0 4m8.002 0a2 2 0 1 0 0-4 2 2 0 0 0 0 4m8.002 0a2 2 0 1 0 0-4 2 2 0 0 0 0 4m16.005 0a2 2 0 1 0 0-4.001 2 2 0 0 0 0 4Zm7.989 0a2 2 0 1 0 0-4 2 2 0 0 0 0 4m8.002 0a2 2 0 1 0 0-4 2 2 0 0 0 0 4m8.002 0a2 2 0 1 0 0-4.001 2 2 0 0 0 0 4Zm8.002 0a2 2 0 1 0 0-4 2 2 0 0 0 0 4m8.002 0a2 2 0 1 0 0-4 2 2 0 0 0 0 4m8.003 0a2 2 0 1 0 0-4.001 2 2 0 0 0 0 4Zm8.002 0a2 2 0 1 0 0-4.001 2 2 0 0 0 0 4Zm7.989 0a2 2 0 1 0 0-4 2 2 0 0 0 0 4m8.003 0a2 2 0 1 0 0-4 2 2 0 0 0 0 4m8.002 0a2 2 0 1 0 0-4 2 2 0 0 0 0 4m8.002 0a2 2 0 1 0 0-4.001 2 2 0 0 0 0 4Zm8.002 0a2 2 0 1 0 0-4 2 2 0 0 0 0 4m8.002 0a2 2 0 1 0 0-4 2 2 0 0 0 0 4m7.99 0a2 2 0 1 0 0-4.001 2 2 0 0 0 0 4Zm8.002 0a2 2 0 1 0 0-4 2 2 0 0 0 0 4m8.002 0a2 2 0 1 0 0-4 2 2 0 0 0 0 4m8.002 0a2 2 0 1 0 0-4.001 2 2 0 0 0 0 4Zm8.003 0a2 2 0 1 0 0-4.001 2 2 0 0 0 0 4Zm8.002 0a2 2 0 1 0 0-4.001 2 2 0 0 0 0 4Zm7.989 0a2 2 0 1 0 0-4 2 2 0 0 0 0 4m8.002 0a2 2 0 1 0 0-4 2 2 0 0 0 0 4m8.002 0a2 2 0 1 0 0-4 2 2 0 0 0 0 4m8.002 0a2 2 0 1 0 0-4 2 2 0 0 0 0 4m8.002 0a2 2 0 1 0 0-4 2 2 0 0 0 0 4m8.003 0a2 2 0 1 0 0-4.001 2 2 0 0 0 0 4Zm7.989 0a2 2 0 1 0 0-4 2 2 0 0 0 0 4m8.002 0a2 2 0 1 0 0-4 2 2 0 0 0 0 4m8.002 0a2 2 0 1 0 0-4 2 2 0 0 0 0 4m8.003 0a2 2 0 1 0 0-4.001 2 2 0 0 0 0 4Zm8.002 0a2 2 0 1 0 0-4.001 2 2 0 0 0 0 4Zm8.002 0a2 2 0 1 0 0-4 2 2 0 0 0 0 4m7.99 0a2 2 0 1 0 0-4.001 2 2 0 0 0 0 4Zm8.001 0a2 2 0 1 0 0-4 2 2 0 0 0 0 4m8.003 0a2 2 0 1 0 0-4.001 2 2 0 0 0 0 4Zm8.002 0a2 2 0 1 0 0-4.001 2 2 0 0 0 0 4Zm8.002 0a2 2 0 1 0 0-4.001 2 2 0 0 0 0 4Zm8.002 0a2 2 0 1 0 0-4 2 2 0 0 0 0 4m8.003 0a2 2 0 1 0 0-4.001 2 2 0 0 0 0 4Zm15.991 0a2 2 0 1 0 0-4.001 2 2 0 0 0 0 4Zm-792.01 8.002a2 2 0 1 0 0-4 2 2 0 0 0 0 4m8.002 0a2 2 0 1 0 0-4 2 2 0 0 0 0 4m8.002 0a2 2 0 1 0 0-4 2 2 0 0 0 0 4m8.002 0a2 2 0 1 0 0-4 2 2 0 0 0 0 4m8.002 0a2 2 0 1 0 0-4 2 2 0 0 0 0 4m7.99 0a2 2 0 1 0 0-4 2 2 0 0 0 0 4m8.002 0a2 2 0 1 0 0-4 2 2 0 0 0 0 4m8.002 0a2 2 0 1 0 0-4 2 2 0 0 0 0 4m8.003 0a2 2 0 1 0 0-4 2 2 0 0 0 0 4m8.001 0a2 2 0 1 0 0-4.001 2 2 0 0 0 0 4Zm8.002 0a2 2 0 1 0 0-4 2 2 0 0 0 0 4m7.99 0a2 2 0 1 0 0-4 2 2 0 0 0 0 4m8.002 0a2 2 0 1 0 0-4 2 2 0 0 0 0 4m8.002 0a2 2 0 1 0 0-4 2 2 0 0 0 0 4m8.003 0a2 2 0 1 0 0-4.001 2 2 0 0 0 0 4Zm8.002 0a2 2 0 1 0 0-4 2 2 0 0 0 0 4m8.002 0a2 2 0 1 0 0-4 2 2 0 0 0 0 4m7.989 0a2 2 0 1 0 0-4 2 2 0 0 0 0 4m8.003 0a2 2 0 1 0 0-4.001 2 2 0 0 0 0 4Zm8.002 0a2 2 0 1 0 0-4.001 2 2 0 0 0 0 4Zm8.002 0a2 2 0 1 0 0-4.001 2 2 0 0 0 0 4Zm39.998 0a2 2 0 1 0 0-4 2 2 0 0 0 0 4m24.006 0a2 2 0 1 0 0-4 2 2 0 0 0 0 4m39.998 0a2 2 0 1 0 0-4 2 2 0 0 0 0 4m8.003 0a2 2 0 1 0 0-4.001 2 2 0 0 0 0 4Zm8.002 0a2 2 0 1 0 0-4.001 2 2 0 0 0 0 4Zm111.992 0a2 2 0 1 0 0-4 2 2 0 0 0 0 4m8.002 0a2 2 0 1 0 0-4 2 2 0 0 0 0 4m8.002 0a2 2 0 1 0 0-4 2 2 0 0 0 0 4m8.002 0a2 2 0 1 0 0-4 2 2 0 0 0 0 4m15.992 0a2 2 0 1 0 0-4.001 2 2 0 0 0 0 4Zm8.002 0a2 2 0 1 0 0-4 2 2 0 0 0 0 4m8.002 0a2 2 0 1 0 0-4 2 2 0 0 0 0 4m8.002 0a2 2 0 1 0 0-4 2 2 0 0 0 0 4m8.003 0a2 2 0 1 0 0-4.001 2 2 0 0 0 0 4Zm8.002 0a2 2 0 1 0 0-4.001 2 2 0 0 0 0 4Zm7.989 0a2 2 0 1 0 0-4 2 2 0 0 0 0 4m8.002 0a2 2 0 1 0 0-4 2 2 0 0 0 0 4m8.002 0a2 2 0 1 0 0-4.001 2 2 0 0 0 0 4Zm8.002 0a2 2 0 1 0 0-4 2 2 0 0 0 0 4m8.002 0a2 2 0 1 0 0-4 2 2 0 0 0 0 4m8.003 0a2 2 0 1 0 0-4.001 2 2 0 0 0 0 4Zm8.002 0a2 2 0 1 0 0-4.001 2 2 0 0 0 0 4Zm7.989 0a2 2 0 1 0 0-4 2 2 0 0 0 0 4m8.003 0a2 2 0 1 0 0-4 2 2 0 0 0 0 4m8.002 0a2 2 0 1 0 0-4 2 2 0 0 0 0 4m8.002 0a2 2 0 1 0 0-4.001 2 2 0 0 0 0 4Zm8.002 0a2 2 0 1 0 0-4 2 2 0 0 0 0 4m8.002 0a2 2 0 1 0 0-4 2 2 0 0 0 0 4m7.99 0a2 2 0 1 0 0-4.001 2 2 0 0 0 0 4Zm8.002 0a2 2 0 1 0 0-4 2 2 0 0 0 0 4m8.002 0a2 2 0 1 0 0-4 2 2 0 0 0 0 4m8.002 0a2 2 0 1 0 0-4.001 2 2 0 0 0 0 4Zm8.003 0a2 2 0 1 0 0-4.001 2 2 0 0 0 0 4Zm8.002 0a2 2 0 1 0 0-4.001 2 2 0 0 0 0 4Zm7.989 0a2 2 0 1 0 0-4 2 2 0 0 0 0 4m8.002 0a2 2 0 1 0 0-4 2 2 0 0 0 0 4m8.002 0a2 2 0 1 0 0-4 2 2 0 0 0 0 4m8.002 0a2 2 0 1 0 0-4 2 2 0 0 0 0 4m8.002 0a2 2 0 1 0 0-4 2 2 0 0 0 0 4m8.003 0a2 2 0 1 0 0-4.001 2 2 0 0 0 0 4Zm7.989 0a2 2 0 1 0 0-4 2 2 0 0 0 0 4m8.002 0a2 2 0 1 0 0-4 2 2 0 0 0 0 4m8.002 0a2 2 0 1 0 0-4 2 2 0 0 0 0 4m8.003 0a2 2 0 1 0 0-4.001 2 2 0 0 0 0 4Zm8.002 0a2 2 0 1 0 0-4.001 2 2 0 0 0 0 4Zm8.002 0a2 2 0 1 0 0-4 2 2 0 0 0 0 4m7.99 0a2 2 0 1 0 0-4.001 2 2 0 0 0 0 4Zm8.001 0a2 2 0 1 0 0-4 2 2 0 0 0 0 4m8.003 0a2 2 0 1 0 0-4.001 2 2 0 0 0 0 4Zm8.002 0a2 2 0 1 0 0-4.001 2 2 0 0 0 0 4Zm8.002 0a2 2 0 1 0 0-4.001 2 2 0 0 0 0 4Zm8.002 0a2 2 0 1 0 0-4 2 2 0 0 0 0 4m8.003 0a2 2 0 1 0 0-4.001 2 2 0 0 0 0 4Zm7.989 0a2 2 0 1 0 0-4 2 2 0 0 0 0 4M25.994 75.994a2 2 0 1 0 0-4 2 2 0 0 0 0 4m16.004 0a2 2 0 1 0 0-4 2 2 0 0 0 0 4m8.002 0a2 2 0 1 0 0-4 2 2 0 0 0 0 4m23.994 0a2 2 0 1 0 0-4 2 2 0 0 0 0 4m8.002 0a2 2 0 1 0 0-4 2 2 0 0 0 0 4m8.003 0a2 2 0 1 0 0-4 2 2 0 0 0 0 4m8.001 0a2 2 0 1 0 0-4 2 2 0 0 0 0 4m8.002 0a2 2 0 1 0 0-4 2 2 0 0 0 0 4m7.99 0a2 2 0 1 0 0-4 2 2 0 0 0 0 4m8.002 0a2 2 0 1 0 0-4 2 2 0 0 0 0 4m8.002 0a2 2 0 1 0 0-4 2 2 0 0 0 0 4m8.003 0a2 2 0 1 0 0-4 2 2 0 0 0 0 4m8.002 0a2 2 0 1 0 0-4 2 2 0 0 0 0 4m8.002 0a2 2 0 1 0 0-4 2 2 0 0 0 0 4m7.989 0a2 2 0 1 0 0-4 2 2 0 0 0 0 4m8.003 0a2 2 0 1 0 0-4 2 2 0 0 0 0 4m8.002 0a2 2 0 1 0 0-4 2 2 0 0 0 0 4m48 0a2 2 0 1 0 0-4 2 2 0 0 0 0 4m8.002 0a2 2 0 1 0 0-4 2 2 0 0 0 0 4m183.999 0a2 2 0 1 0 0-4 2 2 0 0 0 0 4m8.002 0a2 2 0 1 0 0-4 2 2 0 0 0 0 4m8.002 0a2 2 0 1 0 0-4 2 2 0 0 0 0 4m8.002 0a2 2 0 1 0 0-4 2 2 0 0 0 0 4m15.992 0a2 2 0 1 0 0-4 2 2 0 0 0 0 4m16.004 0a2 2 0 1 0 0-4 2 2 0 0 0 0 4m8.002 0a2 2 0 1 0 0-4 2 2 0 0 0 0 4m8.003 0a2 2 0 1 0 0-4 2 2 0 0 0 0 4m8.002 0a2 2 0 1 0 0-4 2 2 0 0 0 0 4m7.989 0a2 2 0 1 0 0-4 2 2 0 0 0 0 4m8.002 0a2 2 0 1 0 0-4 2 2 0 0 0 0 4m8.002 0a2 2 0 1 0 0-4.001 2 2 0 0 0 0 4.001m8.002 0a2 2 0 1 0 0-4 2 2 0 0 0 0 4m8.002 0a2 2 0 1 0 0-4 2 2 0 0 0 0 4m8.003 0a2 2 0 1 0 0-4 2 2 0 0 0 0 4m8.002 0a2 2 0 1 0 0-4 2 2 0 0 0 0 4m7.989 0a2 2 0 1 0 0-4 2 2 0 0 0 0 4m8.003 0a2 2 0 1 0 0-4 2 2 0 0 0 0 4m8.002 0a2 2 0 1 0 0-4 2 2 0 0 0 0 4m8.002 0a2 2 0 1 0 0-4 2 2 0 0 0 0 4m8.002 0a2 2 0 1 0 0-4 2 2 0 0 0 0 4m8.002 0a2 2 0 1 0 0-4 2 2 0 0 0 0 4m7.99 0a2 2 0 1 0 0-4 2 2 0 0 0 0 4m8.002 0a2 2 0 1 0 0-4 2 2 0 0 0 0 4m8.002 0a2 2 0 1 0 0-4 2 2 0 0 0 0 4m8.002 0a2 2 0 1 0 0-4 2 2 0 0 0 0 4m8.003 0a2 2 0 1 0 0-4 2 2 0 0 0 0 4m8.002 0a2 2 0 1 0 0-4 2 2 0 0 0 0 4m7.989 0a2 2 0 1 0 0-4 2 2 0 0 0 0 4m8.002 0a2 2 0 1 0 0-4 2 2 0 0 0 0 4m8.002 0a2 2 0 1 0 0-4 2 2 0 0 0 0 4m8.002 0a2 2 0 1 0 0-4 2 2 0 0 0 0 4m8.002 0a2 2 0 1 0 0-4 2 2 0 0 0 0 4m8.003 0a2 2 0 1 0 0-4 2 2 0 0 0 0 4m7.989 0a2 2 0 1 0 0-4 2 2 0 0 0 0 4m8.002 0a2 2 0 1 0 0-4 2 2 0 0 0 0 4m8.002 0a2 2 0 1 0 0-4 2 2 0 0 0 0 4m8.003 0a2 2 0 1 0 0-4 2 2 0 0 0 0 4m8.002 0a2 2 0 1 0 0-4 2 2 0 0 0 0 4m8.002 0a2 2 0 1 0 0-4 2 2 0 0 0 0 4m8.002 0a2 2 0 1 0 0-4 2 2 0 0 0 0 4m7.989 0a2 2 0 1 0 0-4 2 2 0 0 0 0 4m24.007 0a2 2 0 1 0 0-4 2 2 0 0 0 0 4M25.994 83.996a2 2 0 1 0 0-4 2 2 0 0 0 0 4m8.002 0a2 2 0 1 0 0-4 2 2 0 0 0 0 4m48 0a2 2 0 1 0 0-4 2 2 0 0 0 0 4m8.003 0a2 2 0 1 0 0-4 2 2 0 0 0 0 4m8.001 0a2 2 0 1 0 0-4 2 2 0 0 0 0 4m8.002 0a2 2 0 1 0 0-4 2 2 0 0 0 0 4m7.99 0a2 2 0 1 0 0-4 2 2 0 0 0 0 4m8.002 0a2 2 0 1 0 0-4 2 2 0 0 0 0 4m8.002 0a2 2 0 1 0 0-4 2 2 0 0 0 0 4m8.003 0a2 2 0 1 0 0-4 2 2 0 0 0 0 4m8.002 0a2 2 0 1 0 0-4 2 2 0 0 0 0 4m8.002 0a2 2 0 1 0 0-4 2 2 0 0 0 0 4m7.989 0a2 2 0 1 0 0-4 2 2 0 0 0 0 4m8.003 0a2 2 0 1 0 0-4 2 2 0 0 0 0 4m8.002 0a2 2 0 1 0 0-4 2 2 0 0 0 0 4m48 0a2 2 0 1 0 0-4 2 2 0 0 0 0 4m8.002 0a2 2 0 1 0 0-4 2 2 0 0 0 0 4m8.002 0a2 2 0 1 0 0-4 2 2 0 0 0 0 4m8.002 0a2 2 0 1 0 0-4 2 2 0 0 0 0 4m144.001 0a2 2 0 1 0 0-4 2 2 0 0 0 0 4m39.998 0a2 2 0 1 0 0-4 2 2 0 0 0 0 4m8.002 0a2 2 0 1 0 0-4 2 2 0 0 0 0 4m15.992 0a2 2 0 1 0 0-4 2 2 0 0 0 0 4m8.002 0a2 2 0 1 0 0-4 2 2 0 0 0 0 4m8.002 0a2 2 0 1 0 0-4 2 2 0 0 0 0 4m8.002 0a2 2 0 1 0 0-4 2 2 0 0 0 0 4m8.003 0a2 2 0 1 0 0-4 2 2 0 0 0 0 4m8.002 0a2 2 0 1 0 0-4 2 2 0 0 0 0 4m7.989 0a2 2 0 1 0 0-4 2 2 0 0 0 0 4m8.002 0a2 2 0 1 0 0-4 2 2 0 0 0 0 4m8.002 0a2 2 0 1 0 0-4.001 2 2 0 0 0 0 4.001m8.002 0a2 2 0 1 0 0-4 2 2 0 0 0 0 4m8.002 0a2 2 0 1 0 0-4 2 2 0 0 0 0 4m8.003 0a2 2 0 1 0 0-4 2 2 0 0 0 0 4m8.002 0a2 2 0 1 0 0-4 2 2 0 0 0 0 4m7.989 0a2 2 0 1 0 0-4 2 2 0 0 0 0 4m8.003 0a2 2 0 1 0 0-4 2 2 0 0 0 0 4m8.002 0a2 2 0 1 0 0-4 2 2 0 0 0 0 4m8.002 0a2 2 0 1 0 0-4 2 2 0 0 0 0 4m8.002 0a2 2 0 1 0 0-4 2 2 0 0 0 0 4m8.002 0a2 2 0 1 0 0-4 2 2 0 0 0 0 4m7.99 0a2 2 0 1 0 0-4 2 2 0 0 0 0 4m8.002 0a2 2 0 1 0 0-4 2 2 0 0 0 0 4m8.002 0a2 2 0 1 0 0-4 2 2 0 0 0 0 4m8.002 0a2 2 0 1 0 0-4 2 2 0 0 0 0 4m8.003 0a2 2 0 1 0 0-4 2 2 0 0 0 0 4m8.002 0a2 2 0 1 0 0-4 2 2 0 0 0 0 4m7.989 0a2 2 0 1 0 0-4 2 2 0 0 0 0 4m8.002 0a2 2 0 1 0 0-4 2 2 0 0 0 0 4m8.002 0a2 2 0 1 0 0-4 2 2 0 0 0 0 4m8.002 0a2 2 0 1 0 0-4 2 2 0 0 0 0 4m8.002 0a2 2 0 1 0 0-4 2 2 0 0 0 0 4m8.003 0a2 2 0 1 0 0-4 2 2 0 0 0 0 4m7.989 0a2 2 0 1 0 0-4 2 2 0 0 0 0 4m8.002 0a2 2 0 1 0 0-4 2 2 0 0 0 0 4m8.002 0a2 2 0 1 0 0-4 2 2 0 0 0 0 4m8.003 0a2 2 0 1 0 0-4 2 2 0 0 0 0 4m8.002 0a2 2 0 1 0 0-4 2 2 0 0 0 0 4m48 0a2 2 0 1 0 0-4 2 2 0 0 0 0 4m8.002 0a2 2 0 1 0 0-4 2 2 0 0 0 0 4M2 91.999a2 2 0 1 0 0-4 2 2 0 0 0 0 4m79.996 0a2 2 0 1 0 0-4 2 2 0 0 0 0 4m8.003 0a2 2 0 1 0 0-4 2 2 0 0 0 0 4m8.001 0a2 2 0 1 0 0-4.001 2 2 0 0 0 0 4Zm8.002 0a2 2 0 1 0 0-4 2 2 0 0 0 0 4m7.99 0a2 2 0 1 0 0-4 2 2 0 0 0 0 4m8.002 0a2 2 0 1 0 0-4 2 2 0 0 0 0 4m8.002 0a2 2 0 1 0 0-4 2 2 0 0 0 0 4m8.003 0a2 2 0 1 0 0-4.001 2 2 0 0 0 0 4Zm8.002 0a2 2 0 1 0 0-4 2 2 0 0 0 0 4m8.002 0a2 2 0 1 0 0-4 2 2 0 0 0 0 4m7.989 0a2 2 0 1 0 0-4 2 2 0 0 0 0 4m8.003 0a2 2 0 1 0 0-4.001 2 2 0 0 0 0 4Zm8.002 0a2 2 0 1 0 0-4.001 2 2 0 0 0 0 4Zm8.002 0a2 2 0 1 0 0-4.001 2 2 0 0 0 0 4Zm8.002 0a2 2 0 1 0 0-4 2 2 0 0 0 0 4m15.991 0a2 2 0 1 0 0-4 2 2 0 0 0 0 4m8.003 0a2 2 0 1 0 0-4 2 2 0 0 0 0 4m8.002 0a2 2 0 1 0 0-4 2 2 0 0 0 0 4m8.002 0a2 2 0 1 0 0-4 2 2 0 0 0 0 4m8.002 0a2 2 0 1 0 0-4 2 2 0 0 0 0 4m8.002 0a2 2 0 1 0 0-4 2 2 0 0 0 0 4m7.99 0a2 2 0 1 0 0-4.001 2 2 0 0 0 0 4Zm128.009 0a2 2 0 1 0 0-4 2 2 0 0 0 0 4m8.002 0a2 2 0 1 0 0-4.001 2 2 0 0 0 0 4Zm31.996 0a2 2 0 1 0 0-4 2 2 0 0 0 0 4m8.002 0a2 2 0 1 0 0-4 2 2 0 0 0 0 4m23.994 0a2 2 0 1 0 0-4.001 2 2 0 0 0 0 4Zm8.002 0a2 2 0 1 0 0-4 2 2 0 0 0 0 4m8.002 0a2 2 0 1 0 0-4 2 2 0 0 0 0 4m8.002 0a2 2 0 1 0 0-4 2 2 0 0 0 0 4m8.003 0a2 2 0 1 0 0-4.001 2 2 0 0 0 0 4Zm8.002 0a2 2 0 1 0 0-4.001 2 2 0 0 0 0 4Zm7.989 0a2 2 0 1 0 0-4 2 2 0 0 0 0 4m8.002 0a2 2 0 1 0 0-4 2 2 0 0 0 0 4m8.002 0a2 2 0 1 0 0-4.002A2 2 0 0 0 522 92Zm8.002 0a2 2 0 1 0 0-4 2 2 0 0 0 0 4m8.002 0a2 2 0 1 0 0-4 2 2 0 0 0 0 4m8.003 0a2 2 0 1 0 0-4.001 2 2 0 0 0 0 4Zm8.002 0a2 2 0 1 0 0-4.001 2 2 0 0 0 0 4Zm7.989 0a2 2 0 1 0 0-4 2 2 0 0 0 0 4m8.003 0a2 2 0 1 0 0-4 2 2 0 0 0 0 4m8.002 0a2 2 0 1 0 0-4 2 2 0 0 0 0 4m8.002 0a2 2 0 1 0 0-4.001 2 2 0 0 0 0 4Zm8.002 0a2 2 0 1 0 0-4 2 2 0 0 0 0 4m8.002 0a2 2 0 1 0 0-4 2 2 0 0 0 0 4m7.99 0a2 2 0 1 0 0-4.001 2 2 0 0 0 0 4Zm8.002 0a2 2 0 1 0 0-4 2 2 0 0 0 0 4m8.002 0a2 2 0 1 0 0-4 2 2 0 0 0 0 4m8.002 0a2 2 0 1 0 0-4.001 2 2 0 0 0 0 4Zm8.003 0a2 2 0 1 0 0-4.001 2 2 0 0 0 0 4Zm8.002 0a2 2 0 1 0 0-4.001 2 2 0 0 0 0 4Zm7.989 0a2 2 0 1 0 0-4 2 2 0 0 0 0 4m8.002 0a2 2 0 1 0 0-4 2 2 0 0 0 0 4m8.002 0a2 2 0 1 0 0-4 2 2 0 0 0 0 4m8.002 0a2 2 0 1 0 0-4 2 2 0 0 0 0 4m8.002 0a2 2 0 1 0 0-4 2 2 0 0 0 0 4m8.003 0a2 2 0 1 0 0-4.001 2 2 0 0 0 0 4Zm7.989 0a2 2 0 1 0 0-4 2 2 0 0 0 0 4m8.002 0a2 2 0 1 0 0-4 2 2 0 0 0 0 4m8.002 0a2 2 0 1 0 0-4 2 2 0 0 0 0 4m8.003 0a2 2 0 1 0 0-4.001 2 2 0 0 0 0 4Zm8.002 0a2 2 0 1 0 0-4.001 2 2 0 0 0 0 4Zm56.002 0a2 2 0 1 0 0-4 2 2 0 0 0 0 4m8.003 0a2 2 0 1 0 0-4.001 2 2 0 0 0 0 4Zm-720.017 8.002a2 2 0 1 0 0-4 2 2 0 0 0 0 4m8.003 0a2 2 0 1 0-.001-4 2 2 0 0 0 0 4Zm8.001 0a2 2 0 1 0 0-4.002 2 2 0 0 0 0 4.002m8.002 0a2 2 0 1 0 0-4 2 2 0 0 0 0 4m7.99 0a2 2 0 1 0 0-4 2 2 0 0 0 0 4m8.002 0a2 2 0 1 0 0-4 2 2 0 0 0 0 4m8.002 0a2 2 0 1 0 0-4 2 2 0 0 0 0 4m8.003 0a2 2 0 1 0-.002-4.002 2 2 0 0 0 .002 4.002m8.002 0a2 2 0 1 0 0-4 2 2 0 0 0 0 4m8.002 0a2 2 0 1 0 0-4 2 2 0 0 0 0 4m7.989 0a2 2 0 1 0 0-4 2 2 0 0 0 0 4m8.003 0a2 2 0 1 0-.002-4.002 2 2 0 0 0 .002 4.002m8.002 0a2 2 0 1 0-.002-4.002 2 2 0 0 0 .002 4.002m8.002 0a2 2 0 1 0-.002-4.002 2 2 0 0 0 .002 4.002m8.002 0a2 2 0 1 0 0-4 2 2 0 0 0 0 4m15.991 0a2 2 0 1 0 0-4 2 2 0 0 0 0 4m8.003 0a2 2 0 1 0 0-4 2 2 0 0 0 0 4m8.002 0a2 2 0 1 0 0-4 2 2 0 0 0 0 4m8.002 0a2 2 0 1 0 0-4 2 2 0 0 0 0 4m8.002 0a2 2 0 1 0 0-4 2 2 0 0 0 0 4m8.002 0a2 2 0 1 0 0-4 2 2 0 0 0 0 4m7.99 0a2 2 0 1 0-.002-4.002 2 2 0 0 0 .002 4.002m136.011 0a2 2 0 1 0-.002-4.002 2 2 0 0 0 .002 4.002m8.002 0a2 2 0 1 0 0-4 2 2 0 0 0 0 4m15.992 0a2 2 0 1 0 0-4 2 2 0 0 0 0 4m8.002 0a2 2 0 1 0 0-4 2 2 0 0 0 0 4m8.002 0a2 2 0 1 0 0-4 2 2 0 0 0 0 4m8.002 0a2 2 0 1 0 0-4 2 2 0 0 0 0 4m15.992 0a2 2 0 1 0-.002-4.002 2 2 0 0 0 .002 4.002m8.002 0a2 2 0 1 0 0-4 2 2 0 0 0 0 4m8.002 0a2 2 0 1 0 0-4 2 2 0 0 0 0 4m8.002 0a2 2 0 1 0 0-4 2 2 0 0 0 0 4m8.003 0a2 2 0 1 0-.002-4.002 2 2 0 0 0 .002 4.002m8.002 0a2 2 0 1 0-.002-4.002 2 2 0 0 0 .002 4.002m7.989 0a2 2 0 1 0 0-4 2 2 0 0 0 0 4m8.002 0a2 2 0 1 0 0-4 2 2 0 0 0 0 4m8.002 0a2.001 2.001 0 1 0 0-4.002 2.001 2.001 0 0 0 0 4.002m8.002 0a2 2 0 1 0 0-4 2 2 0 0 0 0 4m8.002 0a2 2 0 1 0 0-4 2 2 0 0 0 0 4m8.003 0a2 2 0 1 0-.002-4.002 2 2 0 0 0 .002 4.002m8.002 0a2 2 0 1 0-.002-4.002 2 2 0 0 0 .002 4.002m7.989 0a2 2 0 1 0 0-4 2 2 0 0 0 0 4m8.003 0a2 2 0 1 0 0-4 2 2 0 0 0 0 4m8.002 0a2 2 0 1 0 0-4 2 2 0 0 0 0 4m8.002 0a2 2 0 1 0-.002-4.002 2 2 0 0 0 .002 4.002m8.002 0a2 2 0 1 0 0-4 2 2 0 0 0 0 4m8.002 0a2 2 0 1 0 0-4 2 2 0 0 0 0 4m7.99 0a2 2 0 1 0-.002-4.002 2 2 0 0 0 .002 4.002m8.002 0a2 2 0 1 0 0-4 2 2 0 0 0 0 4m8.002 0a2 2 0 1 0 0-4 2 2 0 0 0 0 4m8.002 0a2 2 0 1 0-.002-4.002 2 2 0 0 0 .002 4.002m8.003 0a2 2 0 1 0-.002-4.002 2 2 0 0 0 .002 4.002m8.002 0a2 2 0 1 0-.002-4.002 2 2 0 0 0 .002 4.002m7.989 0a2 2 0 1 0 0-4 2 2 0 0 0 0 4m8.002 0a2 2 0 1 0 0-4 2 2 0 0 0 0 4m8.002 0a2 2 0 1 0 0-4 2 2 0 0 0 0 4m8.002 0a2 2 0 1 0 0-4 2 2 0 0 0 0 4m8.002 0a2 2 0 1 0 0-4 2 2 0 0 0 0 4m8.003 0a2 2 0 1 0-.002-4.002 2 2 0 0 0 .002 4.002m7.989 0a2 2 0 1 0 0-4 2 2 0 0 0 0 4m8.002 0a2 2 0 1 0 0-4 2 2 0 0 0 0 4m8.002 0a2 2 0 1 0 0-4 2 2 0 0 0 0 4m8.003 0a2 2 0 1 0-.002-4.002 2 2 0 0 0 .002 4.002m8.002 0a2 2 0 1 0-.002-4.002 2 2 0 0 0 .002 4.002m8.002 0a2 2 0 1 0 0-4 2 2 0 0 0 0 4m7.99 0a2 2 0 1 0-.002-4.002 2 2 0 0 0 .002 4.002m8.001 0a2 2 0 1 0 0-4 2 2 0 0 0 0 4m40.012 0a2 2 0 1 0-.002-4.002 2 2 0 0 0 .002 4.002M89.999 107.99a2 2 0 1 0-.001-4 2 2 0 0 0 0 4Zm8.001 0a2 2 0 1 0 0-4.002 2 2 0 0 0 0 4.002m15.992 0a2 2 0 1 0 0-4 2 2 0 0 0 0 4m8.002 0a2 2 0 1 0 0-4 2 2 0 0 0 0 4m8.002 0a2 2 0 1 0 0-4 2 2 0 0 0 0 4m8.003 0a2 2 0 1 0-.001-4.001 2 2 0 0 0 .001 4.001m8.002 0a2 2 0 1 0 0-4 2 2 0 0 0 0 4m8.002 0a2 2 0 1 0 0-4 2 2 0 0 0 0 4m7.989 0a2 2 0 1 0 0-4 2 2 0 0 0 0 4m8.003 0a2 2 0 1 0-.001-4.001 2 2 0 0 0 .001 4.001m8.002 0a2 2 0 1 0-.001-4.001 2 2 0 0 0 .001 4.001m8.002 0a2 2 0 1 0-.001-4.001 2 2 0 0 0 .001 4.001m8.002 0a2 2 0 1 0 0-4 2 2 0 0 0 0 4m8.002 0a2 2 0 1 0 0-4 2 2 0 0 0 0 4m7.989 0a2 2 0 1 0 0-4 2 2 0 0 0 0 4m8.003 0a2 2 0 1 0 0-4 2 2 0 0 0 0 4m8.002 0a2 2 0 1 0 0-4 2 2 0 0 0 0 4m16.004 0a2 2 0 1 0 0-4 2 2 0 0 0 0 4m15.992 0a2 2 0 1 0-.001-4.001 2 2 0 0 0 .001 4.001m152.003 0a2 2 0 1 0-.001-4.001 2 2 0 0 0 .001 4.001m8.002 0a2 2 0 1 0 0-4 2 2 0 0 0 0 4m8.002 0a2 2 0 1 0 0-4 2 2 0 0 0 0 4m8.002 0a2 2 0 1 0 0-4 2 2 0 0 0 0 4m8.002 0a2 2 0 1 0 0-4 2 2 0 0 0 0 4m8.002 0a2 2 0 1 0 0-4 2 2 0 0 0 0 4m7.99 0a2 2 0 1 0-.001-4.001 2 2 0 0 0 .001 4.001m8.002 0a2 2 0 1 0 0-4 2 2 0 0 0 0 4m8.002 0a2 2 0 1 0 0-4 2 2 0 0 0 0 4m8.002 0a2 2 0 1 0 0-4 2 2 0 0 0 0 4m8.003 0a2 2 0 1 0-.001-4.001 2 2 0 0 0 .001 4.001m8.002 0a2 2 0 1 0-.001-4.001 2 2 0 0 0 .001 4.001m7.989 0a2 2 0 1 0 0-4 2 2 0 0 0 0 4m8.002 0a2 2 0 1 0 0-4 2 2 0 0 0 0 4m8.002 0a2 2 0 1 0 0-4.002 2 2 0 0 0 0 4.002m8.002 0a2 2 0 1 0 0-4 2 2 0 0 0 0 4m8.002 0a2 2 0 1 0 0-4 2 2 0 0 0 0 4m8.003 0a2 2 0 1 0-.001-4.001 2 2 0 0 0 .001 4.001m8.002 0a2 2 0 1 0-.001-4.001 2 2 0 0 0 .001 4.001m7.989 0a2 2 0 1 0 0-4 2 2 0 0 0 0 4m8.003 0a2 2 0 1 0 0-4 2 2 0 0 0 0 4m8.002 0a2 2 0 1 0 0-4 2 2 0 0 0 0 4m8.002 0a2 2 0 1 0-.001-4.001 2 2 0 0 0 .001 4.001m8.002 0a2 2 0 1 0 0-4 2 2 0 0 0 0 4m8.002 0a2 2 0 1 0 0-4 2 2 0 0 0 0 4m7.99 0a2 2 0 1 0-.001-4.001 2 2 0 0 0 .001 4.001m8.002 0a2 2 0 1 0 0-4 2 2 0 0 0 0 4m8.002 0a2 2 0 1 0 0-4 2 2 0 0 0 0 4m8.002 0a2 2 0 1 0-.001-4.001 2 2 0 0 0 .001 4.001m8.003 0a2 2 0 1 0-.001-4.001 2 2 0 0 0 .001 4.001m8.002 0a2 2 0 1 0-.001-4.001 2 2 0 0 0 .001 4.001m7.989 0a2 2 0 1 0 0-4 2 2 0 0 0 0 4m8.002 0a2 2 0 1 0 0-4 2 2 0 0 0 0 4m8.002 0a2 2 0 1 0 0-4 2 2 0 0 0 0 4m8.002 0a2 2 0 1 0 0-4 2 2 0 0 0 0 4m8.002 0a2 2 0 1 0 0-4 2 2 0 0 0 0 4m8.003 0a2 2 0 1 0-.001-4.001 2 2 0 0 0 .001 4.001m7.989 0a2 2 0 1 0 0-4 2 2 0 0 0 0 4m8.002 0a2 2 0 1 0 0-4 2 2 0 0 0 0 4m8.002 0a2 2 0 1 0 0-4 2 2 0 0 0 0 4m8.003 0a2 2 0 1 0-.001-4.001 2 2 0 0 0 .001 4.001m8.002 0a2 2 0 1 0-.001-4.001 2 2 0 0 0 .001 4.001m8.002 0a2 2 0 1 0 0-4 2 2 0 0 0 0 4m7.99 0a2 2 0 1 0-.001-4.001 2 2 0 0 0 .001 4.001m8.001 0a2 2 0 1 0 0-4 2 2 0 0 0 0 4m-680.005 8.002a2 2 0 1 0 0-4 2 2 0 0 0 0 4m8.003 0a2 2 0 1 0 0-4 2 2 0 0 0 0 4m8.001 0a2 2 0 1 0 .001-4 2 2 0 0 0 0 4Zm8.002 0a2 2 0 1 0 .001-3.999 2 2 0 0 0-.001 3.999m7.99 0a2 2 0 1 0 .001-3.999 2 2 0 0 0-.001 3.999m8.002 0a2 2 0 1 0 .001-3.999 2 2 0 0 0-.001 3.999m8.002 0a2 2 0 1 0 .001-3.999 2 2 0 0 0-.001 3.999m8.003 0a2 2 0 1 0 0-4 2 2 0 0 0 0 4m8.002 0a2 2 0 1 0 .001-3.999 2 2 0 0 0-.001 3.999m8.002 0a2 2 0 1 0 .001-3.999 2 2 0 0 0-.001 3.999m7.989 0a2 2 0 1 0 .001-3.999 2 2 0 0 0-.001 3.999m8.003 0a2 2 0 1 0 0-4 2 2 0 0 0 0 4m16.004 0a2 2 0 1 0 0-4 2 2 0 0 0 0 4m8.002 0a2 2 0 1 0 .001-3.999 2 2 0 0 0-.001 3.999m8.002 0a2 2 0 1 0 .001-3.999 2 2 0 0 0-.001 3.999m7.989 0a2 2 0 1 0 .001-3.999 2 2 0 0 0-.001 3.999m8.003 0a2 2 0 1 0 .001-3.999 2 2 0 0 0-.001 3.999m8.002 0a2 2 0 1 0 .001-3.999 2 2 0 0 0-.001 3.999m31.996 0a2 2 0 1 0 0-4 2 2 0 0 0 0 4m144.013 0a2 2 0 1 0 .001-3.999 2 2 0 0 0-.001 3.999m7.99 0a2 2 0 1 0 0-4 2 2 0 0 0 0 4m8.002 0a2 2 0 1 0 .001-3.999 2 2 0 0 0-.001 3.999m8.002 0a2 2 0 1 0 .001-3.999 2 2 0 0 0-.001 3.999m16.004 0a2 2 0 1 0 .001-3.999 2 2 0 0 0-.001 3.999m8.002 0a2 2 0 1 0 .001-3.999 2 2 0 0 0-.001 3.999m15.992 0a2 2 0 1 0 .001-3.999 2 2 0 0 0-.001 3.999m8.002 0a2 2 0 1 0 .001-3.999 2 2 0 0 0-.001 3.999m8.002 0a2 2 0 1 0 .001-3.999 2 2 0 0 0-.001 3.999m8.003 0a2 2 0 1 0 0-4 2 2 0 0 0 0 4m8.002 0a2 2 0 1 0 0-4 2 2 0 0 0 0 4m15.991 0a2 2 0 1 0 .001-3.999 2 2 0 0 0-.001 3.999m8.002 0a2 2 0 1 0 .001-4 2 2 0 0 0-.001 4m8.002 0a2 2 0 1 0 .001-3.999 2 2 0 0 0-.001 3.999m8.002 0a2 2 0 1 0 .001-3.999 2 2 0 0 0-.001 3.999m8.003 0a2 2 0 1 0 0-4 2 2 0 0 0 0 4m8.002 0a2 2 0 1 0 0-4 2 2 0 0 0 0 4m7.989 0a2 2 0 1 0 .001-3.999 2 2 0 0 0-.001 3.999m8.003 0a2 2 0 1 0 .001-3.999 2 2 0 0 0-.001 3.999m8.002 0a2 2 0 1 0 .001-3.999 2 2 0 0 0-.001 3.999m8.002 0a2 2 0 1 0 0-4 2 2 0 0 0 0 4m8.002 0a2 2 0 1 0 .001-3.999 2 2 0 0 0-.001 3.999m8.002 0a2 2 0 1 0 .001-3.999 2 2 0 0 0-.001 3.999m7.99 0a2 2 0 1 0 0-4 2 2 0 0 0 0 4m8.002 0a2 2 0 1 0 .001-3.999 2 2 0 0 0-.001 3.999m8.002 0a2 2 0 1 0 .001-3.999 2 2 0 0 0-.001 3.999m8.002 0a2 2 0 1 0 0-4 2 2 0 0 0 0 4m8.003 0a2 2 0 1 0 0-4 2 2 0 0 0 0 4m8.002 0a2 2 0 1 0 0-4 2 2 0 0 0 0 4m7.989 0a2 2 0 1 0 .001-3.999 2 2 0 0 0-.001 3.999m8.002 0a2 2 0 1 0 .001-3.999 2 2 0 0 0-.001 3.999m8.002 0a2 2 0 1 0 .001-3.999 2 2 0 0 0-.001 3.999m8.002 0a2 2 0 1 0 .001-3.999 2 2 0 0 0-.001 3.999m8.002 0a2 2 0 1 0 .001-3.999 2 2 0 0 0-.001 3.999m8.003 0a2 2 0 1 0 0-4 2 2 0 0 0 0 4m7.989 0a2 2 0 1 0 .001-3.999 2 2 0 0 0-.001 3.999m8.002 0a2 2 0 1 0 .001-3.999 2 2 0 0 0-.001 3.999m8.002 0a2 2 0 1 0 .001-3.999 2 2 0 0 0-.001 3.999m8.003 0a2 2 0 1 0 0-4 2 2 0 0 0 0 4m8.002 0a2 2 0 1 0 0-4 2 2 0 0 0 0 4m8.002 0a2 2 0 1 0 .001-3.999 2 2 0 0 0-.001 3.999m7.99 0a2 2 0 1 0 0-4 2 2 0 0 0 0 4m8.001 0a2 2 0 1 0 .001-3.999 2 2 0 0 0-.001 3.999m16.005 0a2 2 0 1 0 0-4 2 2 0 0 0 0 4m-704.012 8.002a2 2 0 1 0 0-4 2 2 0 0 0 0 4m8.002 0a2 2 0 1 0 0-4 2 2 0 0 0 0 4m8.003 0a2 2 0 1 0 0-4 2 2 0 0 0 0 4m8.001 0a2 2 0 1 0 .001-4 2 2 0 0 0 0 4Zm8.002 0a2 2 0 1 0 .001-3.999 2 2 0 0 0-.001 3.999m7.99 0a2 2 0 1 0 .001-3.999 2 2 0 0 0-.001 3.999m8.002 0a2 2 0 1 0 .001-3.999 2 2 0 0 0-.001 3.999m8.002 0a2 2 0 1 0 .001-3.999 2 2 0 0 0-.001 3.999m8.003 0a2 2 0 1 0 0-4 2 2 0 0 0 0 4m16.004 0a2 2 0 1 0 .001-3.999 2 2 0 0 0-.001 3.999m7.989 0a2 2 0 1 0 .001-3.999 2 2 0 0 0-.001 3.999m16.005 0a2 2 0 1 0 0-4 2 2 0 0 0 0 4m8.002 0a2 2 0 1 0 0-4 2 2 0 0 0 0 4m8.002 0a2 2 0 1 0 .001-3.999 2 2 0 0 0-.001 3.999m8.002 0a2 2 0 1 0 .001-3.999 2 2 0 0 0-.001 3.999m7.989 0a2 2 0 1 0 .001-3.999 2 2 0 0 0-.001 3.999m8.003 0a2 2 0 1 0 .001-3.999 2 2 0 0 0-.001 3.999m16.004 0a2 2 0 1 0 .001-3.999 2 2 0 0 0-.001 3.999m168.007 0a2 2 0 1 0 .001-3.999 2 2 0 0 0-.001 3.999m7.99 0a2 2 0 1 0 0-4 2 2 0 0 0 0 4m8.002 0a2 2 0 1 0 .001-3.999 2 2 0 0 0-.001 3.999m8.002 0a2 2 0 1 0 .001-3.999 2 2 0 0 0-.001 3.999m8.002 0a2 2 0 1 0 .001-3.999 2 2 0 0 0-.001 3.999m16.004 0a2 2 0 1 0 .001-3.999 2 2 0 0 0-.001 3.999m7.99 0a2 2 0 1 0 0-4 2 2 0 0 0 0 4m8.002 0a2 2 0 1 0 .001-3.999 2 2 0 0 0-.001 3.999m8.002 0a2 2 0 1 0 .001-3.999 2 2 0 0 0-.001 3.999m31.996 0a2 2 0 1 0 .001-3.999 2 2 0 0 0-.001 3.999m8.002 0a2 2 0 1 0 .001-3.999 2 2 0 0 0-.001 3.999m8.002 0a2 2 0 1 0 .001-4 2 2 0 0 0-.001 4m24.007 0a2 2 0 1 0 0-4 2 2 0 0 0 0 4m8.002 0a2 2 0 1 0 0-4 2 2 0 0 0 0 4m7.989 0a2 2 0 1 0 .001-3.999 2 2 0 0 0-.001 3.999m8.003 0a2 2 0 1 0 .001-3.999 2 2 0 0 0-.001 3.999m8.002 0a2 2 0 1 0 .001-3.999 2 2 0 0 0-.001 3.999m8.002 0a2 2 0 1 0 0-4 2 2 0 0 0 0 4m8.002 0a2 2 0 1 0 .001-3.999 2 2 0 0 0-.001 3.999m8.002 0a2 2 0 1 0 .001-3.999 2 2 0 0 0-.001 3.999m7.99 0a2 2 0 1 0 0-4 2 2 0 0 0 0 4m8.002 0a2 2 0 1 0 .001-3.999 2 2 0 0 0-.001 3.999m8.002 0a2 2 0 1 0 .001-3.999 2 2 0 0 0-.001 3.999m8.002 0a2 2 0 1 0 0-4 2 2 0 0 0 0 4m8.003 0a2 2 0 1 0 0-4 2 2 0 0 0 0 4m8.002 0a2 2 0 1 0 0-4 2 2 0 0 0 0 4m7.989 0a2 2 0 1 0 .001-3.999 2 2 0 0 0-.001 3.999m8.002 0a2 2 0 1 0 .001-3.999 2 2 0 0 0-.001 3.999m8.002 0a2 2 0 1 0 .001-3.999 2 2 0 0 0-.001 3.999m8.002 0a2 2 0 1 0 .001-3.999 2 2 0 0 0-.001 3.999m8.002 0a2 2 0 1 0 .001-3.999 2 2 0 0 0-.001 3.999m8.003 0a2 2 0 1 0 0-4 2 2 0 0 0 0 4m7.989 0a2 2 0 1 0 .001-3.999 2 2 0 0 0-.001 3.999m8.002 0a2 2 0 1 0 .001-3.999 2 2 0 0 0-.001 3.999m8.002 0a2 2 0 1 0 .001-3.999 2 2 0 0 0-.001 3.999m8.003 0a2 2 0 1 0 0-4 2 2 0 0 0 0 4m8.002 0a2 2 0 1 0 0-4 2 2 0 0 0 0 4m8.002 0a2 2 0 1 0 .001-3.999 2 2 0 0 0-.001 3.999m7.99 0a2 2 0 1 0 0-4 2 2 0 0 0 0 4m8.001 0a2 2 0 1 0 .001-3.999 2 2 0 0 0-.001 3.999m24.007 0a2 2 0 1 0 0-4 2 2 0 0 0 0 4m-720.016 8.002a2 2 0 1 0 0-4 2 2 0 0 0 0 4m8.002 0a2 2 0 1 0 0-4 2 2 0 0 0 0 4m8.002 0a2 2 0 1 0 0-4 2 2 0 0 0 0 4m8.003 0a2 2 0 1 0 0-4 2 2 0 0 0 0 4m8.001 0a2 2 0 1 0 .001-4 2 2 0 0 0 0 4Zm8.002 0a2 2 0 1 0 .001-3.999 2 2 0 0 0-.001 3.999m7.99 0a2 2 0 1 0 .001-3.999 2 2 0 0 0-.001 3.999m8.002 0a2 2 0 1 0 .001-3.999 2 2 0 0 0-.001 3.999m8.002 0a2 2 0 1 0 .001-3.999 2 2 0 0 0-.001 3.999m8.003 0a2 2 0 1 0 0-4 2 2 0 0 0 0 4m8.002 0a2 2 0 1 0 .001-3.999 2 2 0 0 0-.001 3.999m8.002 0a2 2 0 1 0 .001-3.999 2 2 0 0 0-.001 3.999m7.989 0a2 2 0 1 0 .001-3.999 2 2 0 0 0-.001 3.999m8.003 0a2 2 0 1 0 0-4 2 2 0 0 0 0 4m8.002 0a2 2 0 1 0 0-4 2 2 0 0 0 0 4m8.002 0a2 2 0 1 0 0-4 2 2 0 0 0 0 4m8.002 0a2 2 0 1 0 .001-3.999 2 2 0 0 0-.001 3.999m8.002 0a2 2 0 1 0 .001-3.999 2 2 0 0 0-.001 3.999m7.989 0a2 2 0 1 0 .001-3.999 2 2 0 0 0-.001 3.999m176.01 0a2 2 0 1 0 .001-3.999 2 2 0 0 0-.001 3.999m8.002 0a2 2 0 1 0 0-4 2 2 0 0 0 0 4m8.002 0a2 2 0 1 0 .001-3.999 2 2 0 0 0-.001 3.999m7.99 0a2 2 0 1 0 0-4 2 2 0 0 0 0 4m32.008 0a2 2 0 1 0 .001-3.999 2 2 0 0 0-.001 3.999m15.992 0a2 2 0 1 0 0-4 2 2 0 0 0 0 4m8.002 0a2 2 0 1 0 .001-3.999 2 2 0 0 0-.001 3.999m8.002 0a2 2 0 1 0 .001-3.999 2 2 0 0 0-.001 3.999m24.007 0a2 2 0 1 0 0-4 2 2 0 0 0 0 4m23.993 0a2 2 0 1 0 .001-4 2 2 0 0 0-.001 4m8.002 0a2 2 0 1 0 .001-3.999 2 2 0 0 0-.001 3.999m24.007 0a2 2 0 1 0 0-4 2 2 0 0 0 0 4m7.989 0a2 2 0 1 0 .001-3.999 2 2 0 0 0-.001 3.999m8.003 0a2 2 0 1 0 .001-3.999 2 2 0 0 0-.001 3.999m8.002 0a2 2 0 1 0 .001-3.999 2 2 0 0 0-.001 3.999m8.002 0a2 2 0 1 0 0-4 2 2 0 0 0 0 4m8.002 0a2 2 0 1 0 .001-3.999 2 2 0 0 0-.001 3.999m8.002 0a2 2 0 1 0 .001-3.999 2 2 0 0 0-.001 3.999m7.99 0a2 2 0 1 0 0-4 2 2 0 0 0 0 4m8.002 0a2 2 0 1 0 .001-3.999 2 2 0 0 0-.001 3.999m8.002 0a2 2 0 1 0 .001-3.999 2 2 0 0 0-.001 3.999m8.002 0a2 2 0 1 0 0-4 2 2 0 0 0 0 4m8.003 0a2 2 0 1 0 0-4 2 2 0 0 0 0 4m8.002 0a2 2 0 1 0 0-4 2 2 0 0 0 0 4m7.989 0a2 2 0 1 0 .001-3.999 2 2 0 0 0-.001 3.999m8.002 0a2 2 0 1 0 .001-3.999 2 2 0 0 0-.001 3.999m8.002 0a2 2 0 1 0 .001-3.999 2 2 0 0 0-.001 3.999m8.002 0a2 2 0 1 0 .001-3.999 2 2 0 0 0-.001 3.999m8.002 0a2 2 0 1 0 .001-3.999 2 2 0 0 0-.001 3.999m8.003 0a2 2 0 1 0 0-4 2 2 0 0 0 0 4m7.989 0a2 2 0 1 0 .001-3.999 2 2 0 0 0-.001 3.999m8.002 0a2 2 0 1 0 .001-3.999 2 2 0 0 0-.001 3.999m8.002 0a2 2 0 1 0 .001-3.999 2 2 0 0 0-.001 3.999m8.003 0a2 2 0 1 0 0-4 2 2 0 0 0 0 4m8.002 0a2 2 0 1 0 0-4 2 2 0 0 0 0 4m8.002 0a2 2 0 1 0 .001-3.999 2 2 0 0 0-.001 3.999m8.002 0a2 2 0 1 0 .001-3.999 2 2 0 0 0-.001 3.999m31.996 0a2 2 0 1 0 0-4 2 2 0 0 0 0 4m-720.016 8.003a2 2 0 1 0 0-4 2 2 0 0 0 0 4m8.002 0a2 2 0 1 0 0-4 2 2 0 0 0 0 4m8.002 0a2 2 0 1 0 0-4 2 2 0 0 0 0 4m8.003 0a2 2 0 1 0-.001-4 2 2 0 0 0 0 4Zm8.001 0a2 2 0 1 0 0-4.002A2 2 0 0 0 98 140Zm8.002 0a2 2 0 1 0 0-4 2 2 0 0 0 0 4m7.99 0a2 2 0 1 0 0-4 2 2 0 0 0 0 4m8.002 0a2 2 0 1 0 0-4 2 2 0 0 0 0 4m8.002 0a2 2 0 1 0 0-4 2 2 0 0 0 0 4m8.003 0a2 2 0 1 0-.001-4.001 2 2 0 0 0 .001 4.001m8.002 0a2 2 0 1 0 0-4 2 2 0 0 0 0 4m8.002 0a2 2 0 1 0 0-4 2 2 0 0 0 0 4m7.989 0a2 2 0 1 0 0-4 2 2 0 0 0 0 4m8.003 0a2 2 0 1 0-.001-4.001 2 2 0 0 0 .001 4.001m8.002 0a2 2 0 1 0-.001-4.001 2 2 0 0 0 .001 4.001m8.002 0a2 2 0 1 0-.001-4.001 2 2 0 0 0 .001 4.001m8.002 0a2 2 0 1 0 0-4 2 2 0 0 0 0 4m183.999 0a2 2 0 1 0-.001-4.001 2 2 0 0 0 .001 4.001m8.002 0a2 2 0 1 0 0-4 2 2 0 0 0 0 4m16.004 0a2 2 0 1 0 0-4 2 2 0 0 0 0 4m48 0a2 2 0 1 0 0-4 2 2 0 0 0 0 4m15.992 0a2 2 0 1 0 0-4 2 2 0 0 0 0 4m16.004 0a2 2 0 1 0 0-4 2 2 0 0 0 0 4m8.003 0a2 2 0 1 0-.001-4.001 2 2 0 0 0 .001 4.001m8.002 0a2 2 0 1 0-.001-4.001 2 2 0 0 0 .001 4.001m7.989 0a2 2 0 1 0 0-4 2 2 0 0 0 0 4m8.002 0a2 2 0 1 0 0-4 2 2 0 0 0 0 4m8.002 0a2 2 0 1 0 0-4.002 2 2 0 0 0 0 4.002m8.002 0a2 2 0 1 0 0-4 2 2 0 0 0 0 4m8.002 0a2 2 0 1 0 0-4 2 2 0 0 0 0 4m16.005 0a2 2 0 1 0-.001-4.001 2 2 0 0 0 .001 4.001m7.989 0a2 2 0 1 0 0-4 2 2 0 0 0 0 4m8.003 0a2 2 0 1 0 0-4 2 2 0 0 0 0 4m8.002 0a2 2 0 1 0 0-4 2 2 0 0 0 0 4m8.002 0a2 2 0 1 0-.001-4.001 2 2 0 0 0 .001 4.001m8.002 0a2 2 0 1 0 0-4 2 2 0 0 0 0 4m8.002 0a2 2 0 1 0 0-4 2 2 0 0 0 0 4m7.99 0a2 2 0 1 0-.001-4.001 2 2 0 0 0 .001 4.001m8.002 0a2 2 0 1 0 0-4 2 2 0 0 0 0 4m8.002 0a2 2 0 1 0 0-4 2 2 0 0 0 0 4m8.002 0a2 2 0 1 0-.001-4.001 2 2 0 0 0 .001 4.001m8.003 0a2 2 0 1 0-.001-4.001 2 2 0 0 0 .001 4.001m8.002 0a2 2 0 1 0-.001-4.001 2 2 0 0 0 .001 4.001m7.989 0a2 2 0 1 0 0-4 2 2 0 0 0 0 4m8.002 0a2 2 0 1 0 0-4 2 2 0 0 0 0 4m8.002 0a2 2 0 1 0 0-4 2 2 0 0 0 0 4m8.002 0a2 2 0 1 0 0-4 2 2 0 0 0 0 4m8.002 0a2 2 0 1 0 0-4 2 2 0 0 0 0 4m8.003 0a2 2 0 1 0-.001-4.001 2 2 0 0 0 .001 4.001m7.989 0a2 2 0 1 0 0-4 2 2 0 0 0 0 4m8.002 0a2 2 0 1 0 0-4 2 2 0 0 0 0 4m8.002 0a2 2 0 1 0 0-4 2 2 0 0 0 0 4m8.003 0a2 2 0 1 0-.001-4.001 2 2 0 0 0 .001 4.001m23.994 0a2 2 0 1 0-.001-4.001 2 2 0 0 0 .001 4.001m40.01 0a2 2 0 1 0 0-4 2 2 0 0 0 0 4m-728.018 8.002a2 2 0 1 0 0-4.001 2 2 0 0 0 0 4.001m8.002 0a2 2 0 1 0-.001-4.001 2 2 0 0 0 .001 4.001m8.002 0a2 2 0 1 0-.001-4.001 2 2 0 0 0 .001 4.001m8.003 0a2 2 0 1 0-.002-4.001 2 2 0 0 0 .003 4Zm8.001 0a2.001 2.001 0 1 0 0-4.002 2.001 2.001 0 0 0 0 4.002m8.002 0a2 2 0 1 0 0-4 2 2 0 0 0 0 4m7.99 0a2 2 0 1 0 0-4 2 2 0 0 0 0 4m8.002 0a2 2 0 1 0 0-4 2 2 0 0 0 0 4m8.002 0a2 2 0 1 0 0-4 2 2 0 0 0 0 4m8.003 0a2 2 0 1 0-.002-4.002 2 2 0 0 0 .002 4.002m8.002 0a2 2 0 1 0 0-4 2 2 0 0 0 0 4m8.002 0a2 2 0 1 0 0-4 2 2 0 0 0 0 4m7.989 0a2 2 0 1 0 0-4 2 2 0 0 0 0 4m8.003 0a2 2 0 1 0-.002-4.002 2 2 0 0 0 .002 4.002m8.002 0a2 2 0 1 0-.002-4.002 2 2 0 0 0 .002 4.002m8.002 0a2 2 0 1 0-.002-4.002 2 2 0 0 0 .002 4.002m200.003 0a2 2 0 1 0 0-4 2 2 0 0 0 0 4m8.002 0a2 2 0 1 0-.002-4.002 2 2 0 0 0 .002 4.002m23.994 0a2 2 0 1 0 0-4 2 2 0 0 0 0 4m8.002 0a2 2 0 1 0 0-4 2 2 0 0 0 0 4m8.002 0a2 2 0 1 0 0-4 2 2 0 0 0 0 4m31.996 0a2 2 0 1 0 0-4 2 2 0 0 0 0 4m16.004 0a2 2 0 1 0 0-4 2 2 0 0 0 0 4m8.003 0a2 2 0 1 0-.002-4.002 2 2 0 0 0 .002 4.002m8.002 0a2 2 0 1 0-.002-4.002 2 2 0 0 0 .002 4.002m7.989 0a2 2 0 1 0 0-4 2 2 0 0 0 0 4m8.002 0a2 2 0 1 0 0-4 2 2 0 0 0 0 4m8.002 0a2.001 2.001 0 1 0 0-4.002 2.001 2.001 0 0 0 0 4.002m8.002 0a2 2 0 1 0 0-4 2 2 0 0 0 0 4m8.002 0a2 2 0 1 0 0-4 2 2 0 0 0 0 4m8.003 0a2 2 0 1 0-.002-4.002 2 2 0 0 0 .002 4.002m8.002 0a2 2 0 1 0-.002-4.002 2 2 0 0 0 .002 4.002m7.989 0a2 2 0 1 0 0-4 2 2 0 0 0 0 4m8.003 0a2 2 0 1 0 0-4 2 2 0 0 0 0 4m8.002 0a2 2 0 1 0 0-4 2 2 0 0 0 0 4m8.002 0a2 2 0 1 0-.002-4.002 2 2 0 0 0 .002 4.002m8.002 0a2 2 0 1 0 0-4 2 2 0 0 0 0 4m8.002 0a2 2 0 1 0 0-4 2 2 0 0 0 0 4m7.99 0a2 2 0 1 0-.002-4.002 2 2 0 0 0 .002 4.002m8.002 0a2 2 0 1 0 0-4 2 2 0 0 0 0 4m8.002 0a2 2 0 1 0 0-4 2 2 0 0 0 0 4m8.002 0a2 2 0 1 0-.002-4.002 2 2 0 0 0 .002 4.002m8.003 0a2 2 0 1 0-.002-4.002 2 2 0 0 0 .002 4.002m8.002 0a2 2 0 1 0-.002-4.002 2 2 0 0 0 .002 4.002m7.989 0a2 2 0 1 0 0-4 2 2 0 0 0 0 4m8.002 0a2 2 0 1 0 0-4 2 2 0 0 0 0 4m8.002 0a2 2 0 1 0 0-4 2 2 0 0 0 0 4m8.002 0a2 2 0 1 0 0-4 2 2 0 0 0 0 4m8.002 0a2 2 0 1 0 0-4 2 2 0 0 0 0 4m8.003 0a2 2 0 1 0-.002-4.002 2 2 0 0 0 .002 4.002m7.989 0a2 2 0 1 0 0-4 2 2 0 0 0 0 4m8.002 0a2 2 0 1 0 0-4 2 2 0 0 0 0 4m8.002 0a2 2 0 1 0 0-4 2 2 0 0 0 0 4m8.003 0a2 2 0 1 0-.002-4.002 2 2 0 0 0 .002 4.002m8.002 0a2 2 0 1 0-.002-4.002 2 2 0 0 0 .002 4.002m8.002 0a2 2 0 1 0 0-4 2 2 0 0 0 0 4m15.991 0a2 2 0 1 0 0-4 2 2 0 0 0 0 4m32.009 0a2 2 0 1 0 0-4 2 2 0 0 0 0 4M65.992 155.99a2 2 0 1 0 0-4 2 2 0 0 0 0 4m8.002 0a2 2 0 1 0 0-4 2 2 0 0 0 0 4m8.002 0a2 2 0 1 0 0-4 2 2 0 0 0 0 4m8.003 0a2 2 0 1 0 0-4 2 2 0 0 0 0 4m8.001 0a2 2 0 1 0 .001-4 2 2 0 0 0 0 4Zm8.002 0a2 2 0 1 0 .001-3.999 2 2 0 0 0-.001 3.999m7.99 0a2 2 0 1 0 .001-3.999 2 2 0 0 0-.001 3.999m8.002 0a2 2 0 1 0 .001-3.999 2 2 0 0 0-.001 3.999m8.002 0a2 2 0 1 0 .001-3.999 2 2 0 0 0-.001 3.999m8.003 0a2 2 0 1 0 0-4 2 2 0 0 0 0 4m8.002 0a2 2 0 1 0 .001-3.999 2 2 0 0 0-.001 3.999m8.002 0a2 2 0 1 0 .001-3.999 2 2 0 0 0-.001 3.999m7.989 0a2 2 0 1 0 .001-3.999 2 2 0 0 0-.001 3.999m8.003 0a2 2 0 1 0 0-4 2 2 0 0 0 0 4m8.002 0a2 2 0 1 0 0-4 2 2 0 0 0 0 4m208.005 0a2 2 0 1 0 .001-3.999 2 2 0 0 0-.001 3.999m8.002 0a2 2 0 1 0 0-4 2 2 0 0 0 0 4m8.002 0a2 2 0 1 0 .001-3.999 2 2 0 0 0-.001 3.999m7.99 0a2 2 0 1 0 0-4 2 2 0 0 0 0 4m8.002 0a2 2 0 1 0 .001-3.999 2 2 0 0 0-.001 3.999m8.002 0a2 2 0 1 0 .001-3.999 2 2 0 0 0-.001 3.999m79.996 0a2 2 0 1 0 .001-3.999 2 2 0 0 0-.001 3.999m8.002 0a2 2 0 1 0 .001-3.999 2 2 0 0 0-.001 3.999m8.002 0a2 2 0 1 0 .001-4 2 2 0 0 0-.001 4m8.002 0a2 2 0 1 0 .001-3.999 2 2 0 0 0-.001 3.999m8.002 0a2 2 0 1 0 .001-3.999 2 2 0 0 0-.001 3.999m8.003 0a2 2 0 1 0 0-4 2 2 0 0 0 0 4m8.002 0a2 2 0 1 0 0-4 2 2 0 0 0 0 4m7.989 0a2 2 0 1 0 .001-3.999 2 2 0 0 0-.001 3.999m8.003 0a2 2 0 1 0 .001-3.999 2 2 0 0 0-.001 3.999m8.002 0a2 2 0 1 0 .001-3.999 2 2 0 0 0-.001 3.999m8.002 0a2 2 0 1 0 0-4 2 2 0 0 0 0 4m8.002 0a2 2 0 1 0 .001-3.999 2 2 0 0 0-.001 3.999m8.002 0a2 2 0 1 0 .001-3.999 2 2 0 0 0-.001 3.999m7.99 0a2 2 0 1 0 0-4 2 2 0 0 0 0 4m8.002 0a2 2 0 1 0 .001-3.999 2 2 0 0 0-.001 3.999m8.002 0a2 2 0 1 0 .001-3.999 2 2 0 0 0-.001 3.999m8.002 0a2 2 0 1 0 0-4 2 2 0 0 0 0 4m8.003 0a2 2 0 1 0 0-4 2 2 0 0 0 0 4m8.002 0a2 2 0 1 0 0-4 2 2 0 0 0 0 4m7.989 0a2 2 0 1 0 .001-3.999 2 2 0 0 0-.001 3.999m8.002 0a2 2 0 1 0 .001-3.999 2 2 0 0 0-.001 3.999m8.002 0a2 2 0 1 0 .001-3.999 2 2 0 0 0-.001 3.999m8.002 0a2 2 0 1 0 .001-3.999 2 2 0 0 0-.001 3.999m8.002 0a2 2 0 1 0 .001-3.999 2 2 0 0 0-.001 3.999m8.003 0a2 2 0 1 0 0-4 2 2 0 0 0 0 4m7.989 0a2 2 0 1 0 .001-3.999 2 2 0 0 0-.001 3.999m8.002 0a2 2 0 1 0 .001-3.999 2 2 0 0 0-.001 3.999m8.002 0a2 2 0 1 0 .001-3.999 2 2 0 0 0-.001 3.999m8.003 0a2 2 0 1 0 0-4 2 2 0 0 0 0 4m8.002 0a2 2 0 1 0 0-4 2 2 0 0 0 0 4m56.002 0a2 2 0 1 0 .001-3.999 2 2 0 0 0-.001 3.999m-728.018 8.002a2 2 0 1 0 0-4 2 2 0 0 0 0 4m8.002 0a2 2 0 1 0 0-4 2 2 0 0 0 0 4m8.002 0a2 2 0 1 0 0-4 2 2 0 0 0 0 4m8.003 0a2 2 0 1 0 0-4 2 2 0 0 0 0 4m8.001 0a2 2 0 1 0 .001-4 2 2 0 0 0 0 4Zm8.002 0a2 2 0 1 0 .001-3.999 2 2 0 0 0-.001 3.999m7.99 0a2 2 0 1 0 .001-3.999 2 2 0 0 0-.001 3.999m8.002 0a2 2 0 1 0 .001-3.999 2 2 0 0 0-.001 3.999m8.002 0a2 2 0 1 0 .001-3.999 2 2 0 0 0-.001 3.999m8.003 0a2 2 0 1 0 0-4 2 2 0 0 0 0 4m8.002 0a2 2 0 1 0 .001-3.999 2 2 0 0 0-.001 3.999m8.002 0a2 2 0 1 0 .001-3.999 2 2 0 0 0-.001 3.999m7.989 0a2 2 0 1 0 .001-3.999 2 2 0 0 0-.001 3.999m216.008 0a2 2 0 1 0 0-4 2 2 0 0 0 0 4m8.002 0a2 2 0 1 0 .001-3.999 2 2 0 0 0-.001 3.999m8.002 0a2 2 0 1 0 0-4 2 2 0 0 0 0 4m8.002 0a2 2 0 1 0 .001-3.999 2 2 0 0 0-.001 3.999m7.99 0a2 2 0 1 0 0-4 2 2 0 0 0 0 4m8.002 0a2 2 0 1 0 .001-3.999 2 2 0 0 0-.001 3.999m8.002 0a2 2 0 1 0 .001-3.999 2 2 0 0 0-.001 3.999m8.002 0a2 2 0 1 0 .001-3.999 2 2 0 0 0-.001 3.999m8.002 0a2 2 0 1 0 .001-3.999 2 2 0 0 0-.001 3.999m23.994 0a2 2 0 1 0 .001-3.999 2 2 0 0 0-.001 3.999m8.002 0a2 2 0 1 0 .001-3.999 2 2 0 0 0-.001 3.999m31.996 0a2 2 0 1 0 .001-3.999 2 2 0 0 0-.001 3.999m8.002 0a2 2 0 1 0 .001-3.999 2 2 0 0 0-.001 3.999m8.002 0a2 2 0 1 0 .001-4 2 2 0 0 0-.001 4m8.002 0a2 2 0 1 0 .001-3.999 2 2 0 0 0-.001 3.999m8.002 0a2 2 0 1 0 .001-3.999 2 2 0 0 0-.001 3.999m8.003 0a2 2 0 1 0 0-4 2 2 0 0 0 0 4m8.002 0a2 2 0 1 0 0-4 2 2 0 0 0 0 4m7.989 0a2 2 0 1 0 .001-3.999 2 2 0 0 0-.001 3.999m8.003 0a2 2 0 1 0 .001-3.999 2 2 0 0 0-.001 3.999m8.002 0a2 2 0 1 0 .001-3.999 2 2 0 0 0-.001 3.999m8.002 0a2 2 0 1 0 0-4 2 2 0 0 0 0 4m8.002 0a2 2 0 1 0 .001-3.999 2 2 0 0 0-.001 3.999m8.002 0a2 2 0 1 0 .001-3.999 2 2 0 0 0-.001 3.999m7.99 0a2 2 0 1 0 0-4 2 2 0 0 0 0 4m8.002 0a2 2 0 1 0 .001-3.999 2 2 0 0 0-.001 3.999m8.002 0a2 2 0 1 0 .001-3.999 2 2 0 0 0-.001 3.999m8.002 0a2 2 0 1 0 0-4 2 2 0 0 0 0 4m8.003 0a2 2 0 1 0 0-4 2 2 0 0 0 0 4m8.002 0a2 2 0 1 0 0-4 2 2 0 0 0 0 4m7.989 0a2 2 0 1 0 .001-3.999 2 2 0 0 0-.001 3.999m8.002 0a2 2 0 1 0 .001-3.999 2 2 0 0 0-.001 3.999m8.002 0a2 2 0 1 0 .001-3.999 2 2 0 0 0-.001 3.999m8.002 0a2 2 0 1 0 .001-3.999 2 2 0 0 0-.001 3.999m8.002 0a2 2 0 1 0 .001-3.999 2 2 0 0 0-.001 3.999m8.003 0a2 2 0 1 0 0-4 2 2 0 0 0 0 4m7.989 0a2 2 0 1 0 .001-3.999 2 2 0 0 0-.001 3.999m8.002 0a2 2 0 1 0 .001-3.999 2 2 0 0 0-.001 3.999m8.002 0a2 2 0 1 0 .001-3.999 2 2 0 0 0-.001 3.999m8.003 0a2 2 0 1 0 0-4 2 2 0 0 0 0 4m8.002 0a2 2 0 1 0 0-4 2 2 0 0 0 0 4m8.002 0a2 2 0 1 0 .001-3.999 2 2 0 0 0-.001 3.999m7.99 0a2 2 0 1 0 0-4 2 2 0 0 0 0 4m-672.004 8.003a2 2 0 1 0 0-4 2 2 0 0 0 0 4m8.003 0a2 2 0 1 0-.001-4 2 2 0 0 0 0 4Zm8.001 0a2 2 0 1 0 0-4.002 2 2 0 0 0 0 4.002m8.002 0a2 2 0 1 0 0-4 2 2 0 0 0 0 4m7.99 0a2 2 0 1 0 0-4 2 2 0 0 0 0 4m8.002 0a2 2 0 1 0 0-4 2 2 0 0 0 0 4m16.005 0a2 2 0 1 0-.001-4.001 2 2 0 0 0 .001 4.001m23.993 0a2 2 0 1 0 0-4 2 2 0 0 0 0 4m216.008 0a2 2 0 1 0-.001-4.001 2 2 0 0 0 .001 4.001m8.002 0a2 2 0 1 0 0-4 2 2 0 0 0 0 4m8.002 0a2 2 0 1 0-.001-4.001 2 2 0 0 0 .001 4.001m8.002 0a2 2 0 1 0 0-4 2 2 0 0 0 0 4m7.99 0a2 2 0 1 0-.001-4.001 2 2 0 0 0 .001 4.001m8.002 0a2 2 0 1 0 0-4 2 2 0 0 0 0 4m8.002 0a2 2 0 1 0 0-4 2 2 0 0 0 0 4m8.002 0a2 2 0 1 0 0-4 2 2 0 0 0 0 4m8.002 0a2 2 0 1 0 0-4 2 2 0 0 0 0 4m8.002 0a2 2 0 1 0 0-4 2 2 0 0 0 0 4m7.99 0a2 2 0 1 0-.001-4.001 2 2 0 0 0 .001 4.001m8.002 0a2 2 0 1 0 0-4 2 2 0 0 0 0 4m8.002 0a2 2 0 1 0 0-4 2 2 0 0 0 0 4m8.002 0a2 2 0 1 0 0-4 2 2 0 0 0 0 4m8.003 0a2 2 0 1 0-.001-4.001 2 2 0 0 0 .001 4.001m8.002 0a2 2 0 1 0-.001-4.001 2 2 0 0 0 .001 4.001m7.989 0a2 2 0 1 0 0-4 2 2 0 0 0 0 4m8.002 0a2 2 0 1 0 0-4 2 2 0 0 0 0 4m8.002 0a2 2 0 1 0 0-4.002 2 2 0 0 0 0 4.002m8.002 0a2 2 0 1 0 0-4 2 2 0 0 0 0 4m8.002 0a2 2 0 1 0 0-4 2 2 0 0 0 0 4m16.005 0a2 2 0 1 0-.001-4.001 2 2 0 0 0 .001 4.001m7.989 0a2 2 0 1 0 0-4 2 2 0 0 0 0 4m8.003 0a2 2 0 1 0 0-4 2 2 0 0 0 0 4m8.002 0a2 2 0 1 0 0-4 2 2 0 0 0 0 4m8.002 0a2 2 0 1 0-.001-4.001 2 2 0 0 0 .001 4.001m8.002 0a2 2 0 1 0 0-4 2 2 0 0 0 0 4m8.002 0a2 2 0 1 0 0-4 2 2 0 0 0 0 4m7.99 0a2 2 0 1 0-.001-4.001 2 2 0 0 0 .001 4.001m8.002 0a2 2 0 1 0 0-4 2 2 0 0 0 0 4m8.002 0a2 2 0 1 0 0-4 2 2 0 0 0 0 4m8.002 0a2 2 0 1 0-.001-4.001 2 2 0 0 0 .001 4.001m8.003 0a2 2 0 1 0-.001-4.001 2 2 0 0 0 .001 4.001m8.002 0a2 2 0 1 0-.001-4.001 2 2 0 0 0 .001 4.001m7.989 0a2 2 0 1 0 0-4 2 2 0 0 0 0 4m8.002 0a2 2 0 1 0 0-4 2 2 0 0 0 0 4m8.002 0a2 2 0 1 0 0-4 2 2 0 0 0 0 4m8.002 0a2 2 0 1 0 0-4 2 2 0 0 0 0 4m8.002 0a2 2 0 1 0 0-4 2 2 0 0 0 0 4m8.003 0a2 2 0 1 0-.001-4.001 2 2 0 0 0 .001 4.001m7.989 0a2 2 0 1 0 0-4 2 2 0 0 0 0 4m8.002 0a2 2 0 1 0 0-4 2 2 0 0 0 0 4m8.002 0a2 2 0 1 0 0-4 2 2 0 0 0 0 4m8.003 0a2 2 0 1 0-.001-4.001 2 2 0 0 0 .001 4.001m8.002 0a2 2 0 1 0-.001-4.001 2 2 0 0 0 .001 4.001m16.004 0a2 2 0 1 0 0-4 2 2 0 0 0 0 4m7.989 0a2 2 0 1 0 0-4 2 2 0 0 0 0 4m-680.005 8.002a2 2 0 1 0 0-4 2 2 0 0 0 0 4m8.003 0a2 2 0 1 0-.001-4 2 2 0 0 0 0 4Zm8.001 0a2 2 0 1 0 0-4.002 2 2 0 0 0 0 4.002m8.002 0a2 2 0 1 0 0-4 2 2 0 0 0 0 4m7.99 0a2 2 0 1 0 0-4 2 2 0 0 0 0 4m48 0a2 2 0 1 0 0-4 2 2 0 0 0 0 4m8.003 0a2 2 0 1 0-.001-4.001 2 2 0 0 0 .001 4.001m200.003 0a2 2 0 1 0-.001-4.001 2 2 0 0 0 .001 4.001m8.002 0a2 2 0 1 0-.001-4.001 2 2 0 0 0 .001 4.001m8.002 0a2 2 0 1 0 0-4 2 2 0 0 0 0 4m8.002 0a2 2 0 1 0-.001-4.001 2 2 0 0 0 .001 4.001m8.002 0a2 2 0 1 0 0-4 2 2 0 0 0 0 4m7.99 0a2 2 0 1 0-.001-4.001 2 2 0 0 0 .001 4.001m8.002 0a2 2 0 1 0 0-4 2 2 0 0 0 0 4m8.002 0a2 2 0 1 0 0-4 2 2 0 0 0 0 4m8.002 0a2 2 0 1 0 0-4 2 2 0 0 0 0 4m8.002 0a2 2 0 1 0 0-4 2 2 0 0 0 0 4m8.002 0a2 2 0 1 0 0-4 2 2 0 0 0 0 4m7.99 0a2 2 0 1 0-.001-4.001 2 2 0 0 0 .001 4.001m8.002 0a2 2 0 1 0 0-4 2 2 0 0 0 0 4m8.002 0a2 2 0 1 0 0-4 2 2 0 0 0 0 4m8.002 0a2 2 0 1 0 0-4 2 2 0 0 0 0 4m8.003 0a2 2 0 1 0-.001-4.001 2 2 0 0 0 .001 4.001m8.002 0a2 2 0 1 0-.001-4.001 2 2 0 0 0 .001 4.001m15.991 0a2 2 0 1 0 0-4 2 2 0 0 0 0 4m8.002 0a2 2 0 1 0 0-4.002 2 2 0 0 0 0 4.002m8.002 0a2 2 0 1 0 0-4 2 2 0 0 0 0 4m8.002 0a2 2 0 1 0 0-4 2 2 0 0 0 0 4m8.003 0a2 2 0 1 0-.001-4.001 2 2 0 0 0 .001 4.001m31.996 0a2 2 0 1 0 0-4 2 2 0 0 0 0 4m8.002 0a2 2 0 1 0-.001-4.001 2 2 0 0 0 .001 4.001m8.002 0a2 2 0 1 0 0-4 2 2 0 0 0 0 4m8.002 0a2 2 0 1 0 0-4 2 2 0 0 0 0 4m7.99 0a2 2 0 1 0-.001-4.001 2 2 0 0 0 .001 4.001m8.002 0a2 2 0 1 0 0-4 2 2 0 0 0 0 4m8.002 0a2 2 0 1 0 0-4 2 2 0 0 0 0 4m8.002 0a2 2 0 1 0-.001-4.001 2 2 0 0 0 .001 4.001m8.003 0a2 2 0 1 0-.001-4.001 2 2 0 0 0 .001 4.001m8.002 0a2 2 0 1 0-.001-4.001 2 2 0 0 0 .001 4.001m7.989 0a2 2 0 1 0 0-4 2 2 0 0 0 0 4m8.002 0a2 2 0 1 0 0-4 2 2 0 0 0 0 4m8.002 0a2 2 0 1 0 0-4 2 2 0 0 0 0 4m8.002 0a2 2 0 1 0 0-4 2 2 0 0 0 0 4m8.002 0a2 2 0 1 0 0-4 2 2 0 0 0 0 4m8.003 0a2 2 0 1 0-.001-4.001 2 2 0 0 0 .001 4.001m7.989 0a2 2 0 1 0 0-4 2 2 0 0 0 0 4m8.002 0a2 2 0 1 0 0-4 2 2 0 0 0 0 4m8.002 0a2 2 0 1 0 0-4 2 2 0 0 0 0 4m8.003 0a2 2 0 1 0-.001-4.001 2 2 0 0 0 .001 4.001m8.002 0a2 2 0 1 0-.001-4.001 2 2 0 0 0 .001 4.001m8.002 0a2 2 0 1 0 0-4 2 2 0 0 0 0 4m7.99 0a2 2 0 1 0-.001-4.001 2 2 0 0 0 .001 4.001m-680.006 8.002a2 2 0 1 0 0-4 2 2 0 0 0 0 4m16.005 0a2 2 0 1 0-.001-4 2 2 0 0 0 0 4Zm8.001 0a2 2 0 1 0 0-4.002A2 2 0 0 0 98 188Zm8.002 0a2 2 0 1 0 0-4 2 2 0 0 0 0 4m255.993 0a2 2 0 1 0 0-4 2 2 0 0 0 0 4m8.003 0a2 2 0 1 0-.001-4.001 2 2 0 0 0 .001 4.001m8.002 0a2 2 0 1 0-.001-4.001 2 2 0 0 0 .001 4.001m8.002 0a2 2 0 1 0 0-4 2 2 0 0 0 0 4m8.002 0a2 2 0 1 0-.001-4.001 2 2 0 0 0 .001 4.001m8.002 0a2 2 0 1 0 0-4 2 2 0 0 0 0 4m7.99 0a2 2 0 1 0-.001-4.001 2 2 0 0 0 .001 4.001m8.002 0a2 2 0 1 0 0-4 2 2 0 0 0 0 4m8.002 0a2 2 0 1 0 0-4 2 2 0 0 0 0 4m8.002 0a2 2 0 1 0 0-4 2 2 0 0 0 0 4m8.002 0a2 2 0 1 0 0-4 2 2 0 0 0 0 4m8.002 0a2 2 0 1 0 0-4 2 2 0 0 0 0 4m7.99 0a2 2 0 1 0-.001-4.001 2 2 0 0 0 .001 4.001m8.002 0a2 2 0 1 0 0-4 2 2 0 0 0 0 4m8.002 0a2 2 0 1 0 0-4 2 2 0 0 0 0 4m8.002 0a2 2 0 1 0 0-4 2 2 0 0 0 0 4m16.005 0a2 2 0 1 0-.001-4.001 2 2 0 0 0 .001 4.001m7.989 0a2 2 0 1 0 0-4 2 2 0 0 0 0 4m16.004 0a2 2 0 1 0 0-4.002 2 2 0 0 0 0 4.002m8.002 0a2 2 0 1 0 0-4 2 2 0 0 0 0 4m8.002 0a2 2 0 1 0 0-4 2 2 0 0 0 0 4m8.003 0a2 2 0 1 0-.001-4.001 2 2 0 0 0 .001 4.001m8.002 0a2 2 0 1 0-.001-4.001 2 2 0 0 0 .001 4.001m7.989 0a2 2 0 1 0 0-4 2 2 0 0 0 0 4m8.003 0a2 2 0 1 0 0-4 2 2 0 0 0 0 4m39.998 0a2 2 0 1 0-.001-4.001 2 2 0 0 0 .001 4.001m8.002 0a2 2 0 1 0 0-4 2 2 0 0 0 0 4m8.002 0a2 2 0 1 0 0-4 2 2 0 0 0 0 4m8.002 0a2 2 0 1 0-.001-4.001 2 2 0 0 0 .001 4.001m8.003 0a2 2 0 1 0-.001-4.001 2 2 0 0 0 .001 4.001m8.002 0a2 2 0 1 0-.001-4.001 2 2 0 0 0 .001 4.001m7.989 0a2 2 0 1 0 0-4 2 2 0 0 0 0 4m8.002 0a2 2 0 1 0 0-4 2 2 0 0 0 0 4m8.002 0a2 2 0 1 0 0-4 2 2 0 0 0 0 4m8.002 0a2 2 0 1 0 0-4 2 2 0 0 0 0 4m8.002 0a2 2 0 1 0 0-4 2 2 0 0 0 0 4m8.003 0a2 2 0 1 0-.001-4.001 2 2 0 0 0 .001 4.001m7.989 0a2 2 0 1 0 0-4 2 2 0 0 0 0 4m8.002 0a2 2 0 1 0 0-4 2 2 0 0 0 0 4m8.002 0a2 2 0 1 0 0-4 2 2 0 0 0 0 4m8.003 0a2 2 0 1 0-.001-4.001 2 2 0 0 0 .001 4.001m8.002 0a2 2 0 1 0-.001-4.001 2 2 0 0 0 .001 4.001m8.002 0a2 2 0 1 0 0-4 2 2 0 0 0 0 4m8.002 0a2 2 0 1 0 0-4 2 2 0 0 0 0 4m-664.013 8.002a2 2 0 1 0 0-4 2 2 0 0 0 0 4m8.001 0a2 2 0 1 0 .001-4 2 2 0 0 0 0 4Zm8.002 0a2 2 0 1 0 .001-3.999 2 2 0 0 0-.001 3.999m31.997 0a2 2 0 1 0 0-4 2 2 0 0 0 0 4m31.996 0a2 2 0 1 0 0-4 2 2 0 0 0 0 4m184.011 0a2 2 0 1 0 0-4 2 2 0 0 0 0 4m7.989 0a2 2 0 1 0 .001-3.999 2 2 0 0 0-.001 3.999m8.003 0a2 2 0 1 0 0-4 2 2 0 0 0 0 4m8.002 0a2 2 0 1 0 0-4 2 2 0 0 0 0 4m8.002 0a2 2 0 1 0 .001-3.999 2 2 0 0 0-.001 3.999m8.002 0a2 2 0 1 0 0-4 2 2 0 0 0 0 4m8.002 0a2 2 0 1 0 .001-3.999 2 2 0 0 0-.001 3.999m7.99 0a2 2 0 1 0 0-4 2 2 0 0 0 0 4m8.002 0a2 2 0 1 0 .001-3.999 2 2 0 0 0-.001 3.999m8.002 0a2 2 0 1 0 .001-3.999 2 2 0 0 0-.001 3.999m8.002 0a2 2 0 1 0 .001-3.999 2 2 0 0 0-.001 3.999m8.002 0a2 2 0 1 0 .001-3.999 2 2 0 0 0-.001 3.999m8.002 0a2 2 0 1 0 .001-3.999 2 2 0 0 0-.001 3.999m7.99 0a2 2 0 1 0 0-4 2 2 0 0 0 0 4m8.002 0a2 2 0 1 0 .001-3.999 2 2 0 0 0-.001 3.999m8.002 0a2 2 0 1 0 .001-3.999 2 2 0 0 0-.001 3.999m8.002 0a2 2 0 1 0 .001-3.999 2 2 0 0 0-.001 3.999m8.003 0a2 2 0 1 0 0-4 2 2 0 0 0 0 4m8.002 0a2 2 0 1 0 0-4 2 2 0 0 0 0 4m7.989 0a2 2 0 1 0 .001-3.999 2 2 0 0 0-.001 3.999m8.002 0a2 2 0 1 0 .001-3.999 2 2 0 0 0-.001 3.999m16.004 0a2 2 0 1 0 .001-3.999 2 2 0 0 0-.001 3.999m8.002 0a2 2 0 1 0 .001-3.999 2 2 0 0 0-.001 3.999m8.003 0a2 2 0 1 0 0-4 2 2 0 0 0 0 4m8.002 0a2 2 0 1 0 0-4 2 2 0 0 0 0 4m7.989 0a2 2 0 1 0 .001-3.999 2 2 0 0 0-.001 3.999m8.003 0a2 2 0 1 0 .001-3.999 2 2 0 0 0-.001 3.999m8.002 0a2 2 0 1 0 .001-3.999 2 2 0 0 0-.001 3.999m39.998 0a2 2 0 1 0 .001-3.999 2 2 0 0 0-.001 3.999m8.002 0a2 2 0 1 0 .001-3.999 2 2 0 0 0-.001 3.999m8.002 0a2 2 0 1 0 0-4 2 2 0 0 0 0 4m8.003 0a2 2 0 1 0 0-4 2 2 0 0 0 0 4m8.002 0a2 2 0 1 0 0-4 2 2 0 0 0 0 4m7.989 0a2 2 0 1 0 .001-3.999 2 2 0 0 0-.001 3.999m8.002 0a2 2 0 1 0 .001-3.999 2 2 0 0 0-.001 3.999m24.006 0a2 2 0 1 0 .001-3.999 2 2 0 0 0-.001 3.999m8.003 0a2 2 0 1 0 0-4 2 2 0 0 0 0 4m7.989 0a2 2 0 1 0 .001-3.999 2 2 0 0 0-.001 3.999m8.002 0a2 2 0 1 0 .001-3.999 2 2 0 0 0-.001 3.999m8.002 0a2 2 0 1 0 .001-3.999 2 2 0 0 0-.001 3.999m8.003 0a2 2 0 1 0 0-4 2 2 0 0 0 0 4m8.002 0a2 2 0 1 0 0-4 2 2 0 0 0 0 4M89.999 203.99a2 2 0 1 0 0-4 2 2 0 0 0 0 4m8.001 0a2 2 0 1 0 .001-4 2 2 0 0 0 0 4Zm8.002 0a2 2 0 1 0 .001-3.999 2 2 0 0 0-.001 3.999m23.994 0a2 2 0 1 0 .001-3.999 2 2 0 0 0-.001 3.999m56.003 0a2 2 0 1 0 0-4 2 2 0 0 0 0 4m8.002 0a2 2 0 1 0 .001-3.999 2 2 0 0 0-.001 3.999m167.994 0a2 2 0 1 0 .001-3.999 2 2 0 0 0-.001 3.999m8.003 0a2 2 0 1 0 0-4 2 2 0 0 0 0 4m8.002 0a2 2 0 1 0 0-4 2 2 0 0 0 0 4m8.002 0a2 2 0 1 0 .001-3.999 2 2 0 0 0-.001 3.999m8.002 0a2 2 0 1 0 0-4 2 2 0 0 0 0 4m8.002 0a2 2 0 1 0 .001-3.999 2 2 0 0 0-.001 3.999m7.99 0a2 2 0 1 0 0-4 2 2 0 0 0 0 4m8.002 0a2 2 0 1 0 .001-3.999 2 2 0 0 0-.001 3.999m8.002 0a2 2 0 1 0 .001-3.999 2 2 0 0 0-.001 3.999m8.002 0a2 2 0 1 0 .001-3.999 2 2 0 0 0-.001 3.999m8.002 0a2 2 0 1 0 .001-3.999 2 2 0 0 0-.001 3.999m8.002 0a2 2 0 1 0 .001-3.999 2 2 0 0 0-.001 3.999m7.99 0a2 2 0 1 0 0-4 2 2 0 0 0 0 4m8.002 0a2 2 0 1 0 .001-3.999 2 2 0 0 0-.001 3.999m8.002 0a2 2 0 1 0 .001-3.999 2 2 0 0 0-.001 3.999m8.002 0a2 2 0 1 0 .001-3.999 2 2 0 0 0-.001 3.999m8.003 0a2 2 0 1 0 0-4 2 2 0 0 0 0 4m8.002 0a2 2 0 1 0 0-4 2 2 0 0 0 0 4m7.989 0a2 2 0 1 0 .001-3.999 2 2 0 0 0-.001 3.999m8.002 0a2 2 0 1 0 .001-3.999 2 2 0 0 0-.001 3.999m16.004 0a2 2 0 1 0 .001-3.999 2 2 0 0 0-.001 3.999m8.002 0a2 2 0 1 0 .001-3.999 2 2 0 0 0-.001 3.999m8.003 0a2 2 0 1 0 0-4 2 2 0 0 0 0 4m8.002 0a2 2 0 1 0 0-4 2 2 0 0 0 0 4m7.989 0a2 2 0 1 0 .001-3.999 2 2 0 0 0-.001 3.999m8.003 0a2 2 0 1 0 .001-3.999 2 2 0 0 0-.001 3.999m8.002 0a2 2 0 1 0 .001-3.999 2 2 0 0 0-.001 3.999m48 0a2 2 0 1 0 .001-3.999 2 2 0 0 0-.001 3.999m8.002 0a2 2 0 1 0 0-4 2 2 0 0 0 0 4m8.003 0a2 2 0 1 0 0-4 2 2 0 0 0 0 4m8.002 0a2 2 0 1 0 0-4 2 2 0 0 0 0 4m7.989 0a2 2 0 1 0 .001-3.999 2 2 0 0 0-.001 3.999m32.008 0a2 2 0 1 0 .001-3.999 2 2 0 0 0-.001 3.999m8.003 0a2 2 0 1 0 0-4 2 2 0 0 0 0 4m7.989 0a2 2 0 1 0 .001-3.999 2 2 0 0 0-.001 3.999m8.002 0a2 2 0 1 0 .001-3.999 2 2 0 0 0-.001 3.999m8.002 0a2 2 0 1 0 .001-3.999 2 2 0 0 0-.001 3.999m16.005 0a2 2 0 1 0 0-4 2 2 0 0 0 0 4m-632.006 8.003a2 2 0 1 0 0-4 2 2 0 0 0 0 4m7.99 0a2 2 0 1 0 0-4 2 2 0 0 0 0 4m8.002 0a2 2 0 1 0 0-4 2 2 0 0 0 0 4m8.002 0a2 2 0 1 0 0-4 2 2 0 0 0 0 4m224.01 0a2 2 0 1 0-.001-4.001 2 2 0 0 0 .001 4.001m7.989 0a2 2 0 1 0 0-4 2 2 0 0 0 0 4m8.003 0a2 2 0 1 0-.001-4.001 2 2 0 0 0 .001 4.001m8.002 0a2 2 0 1 0-.001-4.001 2 2 0 0 0 .001 4.001m8.002 0a2 2 0 1 0 0-4 2 2 0 0 0 0 4m8.002 0a2 2 0 1 0-.001-4.001 2 2 0 0 0 .001 4.001m8.002 0a2 2 0 1 0 0-4 2 2 0 0 0 0 4m7.99 0a2 2 0 1 0-.001-4.001 2 2 0 0 0 .001 4.001m8.002 0a2 2 0 1 0 0-4 2 2 0 0 0 0 4m8.002 0a2 2 0 1 0 0-4 2 2 0 0 0 0 4m8.002 0a2 2 0 1 0 0-4 2 2 0 0 0 0 4m8.002 0a2 2 0 1 0 0-4 2 2 0 0 0 0 4m8.002 0a2 2 0 1 0 0-4 2 2 0 0 0 0 4m7.99 0a2 2 0 1 0-.001-4.001 2 2 0 0 0 .001 4.001m8.002 0a2 2 0 1 0 0-4 2 2 0 0 0 0 4m8.002 0a2 2 0 1 0 0-4 2 2 0 0 0 0 4m8.002 0a2 2 0 1 0 0-4 2 2 0 0 0 0 4m8.003 0a2 2 0 1 0-.001-4.001 2 2 0 0 0 .001 4.001m8.002 0a2 2 0 1 0-.001-4.001 2 2 0 0 0 .001 4.001m7.989 0a2 2 0 1 0 0-4 2 2 0 0 0 0 4m8.002 0a2 2 0 1 0 0-4 2 2 0 0 0 0 4m8.002 0a2 2 0 1 0 0-4.002 2 2 0 0 0 0 4.002m16.004 0a2 2 0 1 0 0-4 2 2 0 0 0 0 4m8.003 0a2 2 0 1 0-.001-4.001 2 2 0 0 0 .001 4.001m8.002 0a2 2 0 1 0-.001-4.001 2 2 0 0 0 .001 4.001m7.989 0a2 2 0 1 0 0-4 2 2 0 0 0 0 4m72.007 0a2 2 0 1 0-.001-4.001 2 2 0 0 0 .001 4.001m8.003 0a2 2 0 1 0-.001-4.001 2 2 0 0 0 .001 4.001m8.002 0a2 2 0 1 0-.001-4.001 2 2 0 0 0 .001 4.001m48 0a2 2 0 1 0-.001-4.001 2 2 0 0 0 .001 4.001m7.989 0a2 2 0 1 0 0-4 2 2 0 0 0 0 4m8.002 0a2 2 0 1 0 0-4 2 2 0 0 0 0 4m8.002 0a2 2 0 1 0 0-4 2 2 0 0 0 0 4m8.003 0a2 2 0 1 0-.001-4.001 2 2 0 0 0 .001 4.001m48 0a2 2 0 1 0-.001-4.001 2 2 0 0 0 .001 4.001m-648.01 8.002a2 2 0 1 0 0-4 2 2 0 0 0 0 4m8.003 0a2 2 0 1 0-.001-4.001 2 2 0 0 0 .001 4.001m8.002 0a2 2 0 1 0 0-4 2 2 0 0 0 0 4m208.005 0a2 2 0 1 0-.001-4.001 2 2 0 0 0 .001 4.001m7.989 0a2 2 0 1 0 0-4 2 2 0 0 0 0 4m8.003 0a2 2 0 1 0-.001-4.001 2 2 0 0 0 .001 4.001m8.002 0a2 2 0 1 0-.001-4.001 2 2 0 0 0 .001 4.001m8.002 0a2 2 0 1 0 0-4 2 2 0 0 0 0 4m8.002 0a2 2 0 1 0-.001-4.001 2 2 0 0 0 .001 4.001m8.002 0a2 2 0 1 0 0-4 2 2 0 0 0 0 4m7.99 0a2 2 0 1 0-.001-4.001 2 2 0 0 0 .001 4.001m8.002 0a2 2 0 1 0 0-4 2 2 0 0 0 0 4m8.002 0a2 2 0 1 0 0-4 2 2 0 0 0 0 4m8.002 0a2 2 0 1 0 0-4 2 2 0 0 0 0 4m8.002 0a2 2 0 1 0 0-4 2 2 0 0 0 0 4m8.002 0a2 2 0 1 0 0-4 2 2 0 0 0 0 4m7.99 0a2 2 0 1 0-.001-4.001 2 2 0 0 0 .001 4.001m8.002 0a2 2 0 1 0 0-4 2 2 0 0 0 0 4m8.002 0a2 2 0 1 0 0-4 2 2 0 0 0 0 4m8.002 0a2 2 0 1 0 0-4 2 2 0 0 0 0 4m8.003 0a2 2 0 1 0-.001-4.001 2 2 0 0 0 .001 4.001m8.002 0a2 2 0 1 0-.001-4.001 2 2 0 0 0 .001 4.001m7.989 0a2 2 0 1 0 0-4 2 2 0 0 0 0 4m8.002 0a2 2 0 1 0 0-4 2 2 0 0 0 0 4m8.002 0a2 2 0 1 0 0-4.002 2 2 0 0 0 0 4.002m8.002 0a2 2 0 1 0 0-4 2 2 0 0 0 0 4m8.002 0a2 2 0 1 0 0-4 2 2 0 0 0 0 4m8.003 0a2 2 0 1 0-.001-4.001 2 2 0 0 0 .001 4.001m96.001 0a2 2 0 1 0-.001-4.001 2 2 0 0 0 .001 4.001m8.002 0a2 2 0 1 0-.001-4.001 2 2 0 0 0 .001 4.001m63.991 0a2 2 0 1 0 0-4 2 2 0 0 0 0 4m8.002 0a2 2 0 1 0 0-4 2 2 0 0 0 0 4m8.003 0a2 2 0 1 0-.001-4.001 2 2 0 0 0 .001 4.001m8.002 0a2 2 0 1 0-.001-4.001 2 2 0 0 0 .001 4.001m39.998 0a2 2 0 1 0-.001-4.001 2 2 0 0 0 .001 4.001m8.002 0a2 2 0 1 0-.001-4.001 2 2 0 0 0 .001 4.001m-648.009 8.002a2 2 0 1 0 0-4 2 2 0 0 0 0 4m39.998 0a2 2 0 1 0 0-4 2 2 0 0 0 0 4m8.002 0a2 2 0 1 0 0-4 2 2 0 0 0 0 4m175.996 0a2 2 0 1 0 .001-3.999 2 2 0 0 0-.001 3.999m8.003 0a2 2 0 1 0 0-4 2 2 0 0 0 0 4m8.002 0a2 2 0 1 0 0-4 2 2 0 0 0 0 4m8.002 0a2 2 0 1 0 .001-3.999 2 2 0 0 0-.001 3.999m8.002 0a2 2 0 1 0 0-4 2 2 0 0 0 0 4m8.002 0a2 2 0 1 0 .001-3.999 2 2 0 0 0-.001 3.999m7.99 0a2 2 0 1 0 0-4 2 2 0 0 0 0 4m8.002 0a2 2 0 1 0 .001-3.999 2 2 0 0 0-.001 3.999m8.002 0a2 2 0 1 0 .001-3.999 2 2 0 0 0-.001 3.999m8.002 0a2 2 0 1 0 .001-3.999 2 2 0 0 0-.001 3.999m8.002 0a2 2 0 1 0 .001-3.999 2 2 0 0 0-.001 3.999m8.002 0a2 2 0 1 0 .001-3.999 2 2 0 0 0-.001 3.999m7.99 0a2 2 0 1 0 0-4 2 2 0 0 0 0 4m8.002 0a2 2 0 1 0 .001-3.999 2 2 0 0 0-.001 3.999m8.002 0a2 2 0 1 0 .001-3.999 2 2 0 0 0-.001 3.999m8.002 0a2 2 0 1 0 .001-3.999 2 2 0 0 0-.001 3.999m8.003 0a2 2 0 1 0 0-4 2 2 0 0 0 0 4m8.002 0a2 2 0 1 0 0-4 2 2 0 0 0 0 4m7.989 0a2 2 0 1 0 .001-3.999 2 2 0 0 0-.001 3.999m8.002 0a2 2 0 1 0 .001-3.999 2 2 0 0 0-.001 3.999m8.002 0a2 2 0 1 0 .001-4 2 2 0 0 0-.001 4m8.002 0a2 2 0 1 0 .001-3.999 2 2 0 0 0-.001 3.999m8.002 0a2 2 0 1 0 .001-3.999 2 2 0 0 0-.001 3.999m16.005 0a2 2 0 1 0 0-4 2 2 0 0 0 0 4m7.989 0a2 2 0 1 0 .001-3.999 2 2 0 0 0-.001 3.999m80.01 0a2 2 0 1 0 0-4 2 2 0 0 0 0 4m8.002 0a2 2 0 1 0 0-4 2 2 0 0 0 0 4m79.996 0a2 2 0 1 0 0-4 2 2 0 0 0 0 4m8.002 0a2 2 0 1 0 0-4 2 2 0 0 0 0 4m48 0a2 2 0 1 0 0-4 2 2 0 0 0 0 4m8.002 0a2 2 0 1 0 .001-3.999 2 2 0 0 0-.001 3.999m-648.009 8.002a2 2 0 1 0 .001-3.999 2 2 0 0 0-.001 3.999m8.002 0a2 2 0 1 0 .001-3.999 2 2 0 0 0-.001 3.999m7.989 0a2 2 0 1 0 .001-3.999 2 2 0 0 0-.001 3.999m8.003 0a2 2 0 1 0 0-4 2 2 0 0 0 0 4m8.002 0a2 2 0 1 0 0-4 2 2 0 0 0 0 4m8.002 0a2 2 0 1 0 0-4 2 2 0 0 0 0 4m8.002 0a2 2 0 1 0 .001-3.999 2 2 0 0 0-.001 3.999m8.002 0a2 2 0 1 0 .001-3.999 2 2 0 0 0-.001 3.999m7.989 0a2 2 0 1 0 .001-3.999 2 2 0 0 0-.001 3.999m160.006 0a2 2 0 1 0 0-4 2 2 0 0 0 0 4m8.002 0a2 2 0 1 0 0-4 2 2 0 0 0 0 4m8.002 0a2 2 0 1 0 .001-3.999 2 2 0 0 0-.001 3.999m8.002 0a2 2 0 1 0 0-4 2 2 0 0 0 0 4m8.002 0a2 2 0 1 0 .001-3.999 2 2 0 0 0-.001 3.999m7.99 0a2 2 0 1 0 0-4 2 2 0 0 0 0 4m8.002 0a2 2 0 1 0 .001-3.999 2 2 0 0 0-.001 3.999m8.002 0a2 2 0 1 0 .001-3.999 2 2 0 0 0-.001 4Zm8.002 0a2 2 0 1 0 .001-3.999 2 2 0 0 0-.001 3.999m8.002 0a2 2 0 1 0 .001-3.999 2 2 0 0 0-.001 3.999m8.002 0a2 2 0 1 0 .001-3.999 2 2 0 0 0-.001 3.999m7.99 0a2 2 0 1 0 0-4 2 2 0 0 0 0 4m8.002 0a2 2 0 1 0 .001-3.999 2 2 0 0 0-.001 3.999m8.002 0a2 2 0 1 0 .001-3.999 2 2 0 0 0-.001 4Zm8.002 0a2 2 0 1 0 .001-3.999 2 2 0 0 0-.001 3.999m8.003 0a2 2 0 1 0 0-4 2 2 0 0 0 0 4m8.002 0a2 2 0 1 0 0-4 2 2 0 0 0 0 4m7.989 0a2 2 0 1 0 .001-3.999 2 2 0 0 0-.001 3.999m8.002 0a2 2 0 1 0 .001-3.999 2 2 0 0 0-.001 3.999m8.002 0a2 2 0 1 0 .001-4 2 2 0 0 0-.001 4m8.002 0a2 2 0 1 0 .001-3.999 2 2 0 0 0-.001 3.999m8.002 0a2 2 0 1 0 .001-3.999 2 2 0 0 0-.001 3.999m8.003 0a2 2 0 1 0 0-4 2 2 0 0 0 0 4m8.002 0a2 2 0 1 0 0-4 2 2 0 0 0 0 4m159.992 0a2 2 0 1 0 .001-3.999 2 2 0 0 0-.001 3.999m80.009 0a2 2 0 1 0 .001-3.999 2 2 0 0 0-.001 3.999m-624.015 8.002a2 2 0 1 0 0-4 2 2 0 0 0 0 4m8.002 0a2 2 0 1 0 0-4 2 2 0 0 0 0 4m8.002 0a2 2 0 1 0 0-4 2 2 0 0 0 0 4m8.002 0a2 2 0 1 0 .001-3.999 2 2 0 0 0-.001 3.999m8.002 0a2 2 0 1 0 .001-3.999 2 2 0 0 0-.001 3.999m7.989 0a2 2 0 1 0 .001-3.999 2 2 0 0 0-.001 3.999m8.003 0a2 2 0 1 0 .001-3.999 2 2 0 0 0-.001 3.999m8.002 0a2 2 0 1 0 .001-3.999 2 2 0 0 0-.001 3.999m152.003 0a2 2 0 1 0 0-4 2 2 0 0 0 0 4m8.002 0a2 2 0 1 0 .001-3.999 2 2 0 0 0-.001 3.999m8.002 0a2 2 0 1 0 0-4 2 2 0 0 0 0 4m8.002 0a2 2 0 1 0 .001-3.999 2 2 0 0 0-.001 3.999m23.994 0a2 2 0 1 0 .001-3.999 2 2 0 0 0-.001 3.999m8.002 0a2 2 0 1 0 .001-3.999 2 2 0 0 0-.001 3.999m8.002 0a2 2 0 1 0 .001-3.999 2 2 0 0 0-.001 3.999m8.002 0a2 2 0 1 0 .001-3.999 2 2 0 0 0-.001 3.999m7.99 0a2 2 0 1 0 0-4 2 2 0 0 0 0 4m8.002 0a2 2 0 1 0 .001-3.999 2 2 0 0 0-.001 3.999m8.002 0a2 2 0 1 0 .001-3.999 2 2 0 0 0-.001 3.999m8.002 0a2 2 0 1 0 .001-3.999 2 2 0 0 0-.001 3.999m8.003 0a2 2 0 1 0 0-4 2 2 0 0 0 0 4m8.002 0a2 2 0 1 0 0-4 2 2 0 0 0 0 4m7.989 0a2 2 0 1 0 .001-3.999 2 2 0 0 0-.001 3.999m8.002 0a2 2 0 1 0 .001-3.999 2 2 0 0 0-.001 3.999m8.002 0a2 2 0 1 0 .001-4 2 2 0 0 0-.001 4m8.002 0a2 2 0 1 0 .001-3.999 2 2 0 0 0-.001 3.999m8.002 0a2 2 0 1 0 .001-3.999 2 2 0 0 0-.001 3.999m8.003 0a2 2 0 1 0 0-4 2 2 0 0 0 0 4m8.002 0a2 2 0 1 0 0-4 2 2 0 0 0 0 4m167.994 0a2 2 0 1 0 .001-3.999 2 2 0 0 0-.001 3.999m48.001 0a2 2 0 1 0 0-4 2 2 0 0 0 0 4m24.006 0a2 2 0 1 0 .001-3.999 2 2 0 0 0-.001 3.999m-632.018 7.99a2 2 0 1 0 0-4 2 2 0 0 0 0 4m8.003 0a2 2 0 1 0-.001-4.001 2 2 0 0 0 .001 4.001m8.002 0a2 2 0 1 0-.001-4.001 2 2 0 0 0 .001 4.001m8.002 0a2 2 0 1 0-.001-4.001 2 2 0 0 0 .001 4.001m8.002 0a2 2 0 1 0 0-4 2 2 0 0 0 0 4m8.002 0a2 2 0 1 0 0-4 2 2 0 0 0 0 4m7.989 0a2 2 0 1 0 0-4 2 2 0 0 0 0 4m8.003 0a2 2 0 1 0 0-4 2 2 0 0 0 0 4m8.002 0a2 2 0 1 0 0-4 2 2 0 0 0 0 4m8.002 0a2 2 0 1 0 0-4 2 2 0 0 0 0 4m8.002 0a2 2 0 1 0 0-4 2 2 0 0 0 0 4m192.001 0a2 2 0 1 0 0-4 2 2 0 0 0 0 4m8.002 0a2 2 0 1 0 0-4 2 2 0 0 0 0 4m8.002 0a2 2 0 1 0 0-4 2 2 0 0 0 0 4m7.99 0a2 2 0 1 0-.001-4.001 2 2 0 0 0 .001 4.001m8.002 0a2 2 0 1 0 0-4 2 2 0 0 0 0 4m8.002 0a2 2 0 1 0 0-4 2 2 0 0 0 0 4m8.002 0a2 2 0 1 0 0-4 2 2 0 0 0 0 4m8.003 0a2 2 0 1 0-.001-4.001 2 2 0 0 0 .001 4.001m8.002 0a2 2 0 1 0-.001-4.001 2 2 0 0 0 .001 4.001m7.989 0a2 2 0 1 0 0-4 2 2 0 0 0 0 4m8.002 0a2 2 0 1 0 0-4 2 2 0 0 0 0 4m8.002 0a2 2 0 1 0 0-4.002 2 2 0 0 0 0 4.002m8.002 0a2 2 0 1 0 0-4 2 2 0 0 0 0 4m8.002 0a2 2 0 1 0 0-4 2 2 0 0 0 0 4m8.003 0a2 2 0 1 0-.001-4.001 2 2 0 0 0 .001 4.001m167.994 0a2 2 0 1 0 0-4 2 2 0 0 0 0 4m8.002 0a2 2 0 1 0 0-4 2 2 0 0 0 0 4m39.998 0a2 2 0 1 0 0-4 2 2 0 0 0 0 4m8.003 0a2 2 0 1 0-.001-4.001 2 2 0 0 0 .001 4.001m-616.001 8.002a2 2 0 1 0 0-4 2 2 0 0 0 0 4m7.989 0a2 2 0 1 0 0-4 2 2 0 0 0 0 4m8.003 0a2 2 0 1 0-.001-4.001 2 2 0 0 0 .001 4.001m8.002 0a2 2 0 1 0-.001-4.001 2 2 0 0 0 .001 4.001m8.002 0a2 2 0 1 0-.001-4.001 2 2 0 0 0 .001 4.001m8.002 0a2 2 0 1 0 0-4 2 2 0 0 0 0 4m8.002 0a2 2 0 1 0 0-4 2 2 0 0 0 0 4m7.989 0a2 2 0 1 0 0-4 2 2 0 0 0 0 4m8.003 0a2 2 0 1 0 0-4 2 2 0 0 0 0 4m8.002 0a2 2 0 1 0 0-4 2 2 0 0 0 0 4m8.002 0a2 2 0 1 0 0-4 2 2 0 0 0 0 4m8.002 0a2 2 0 1 0 0-4 2 2 0 0 0 0 4m192.001 0a2 2 0 1 0 0-4 2 2 0 0 0 0 4m8.002 0a2 2 0 1 0 0-4 2 2 0 0 0 0 4m8.002 0a2 2 0 1 0 0-4 2 2 0 0 0 0 4m7.99 0a2 2 0 1 0-.001-4.001 2 2 0 0 0 .001 4.001m8.002 0a2 2 0 1 0 0-4 2 2 0 0 0 0 4m8.002 0a2 2 0 1 0 0-4 2 2 0 0 0 0 4m8.002 0a2 2 0 1 0 0-4 2 2 0 0 0 0 4m8.003 0a2 2 0 1 0-.001-4.001 2 2 0 0 0 .001 4.001m8.002 0a2 2 0 1 0-.001-4.001 2 2 0 0 0 .001 4.001m7.989 0a2 2 0 1 0 0-4 2 2 0 0 0 0 4m8.002 0a2 2 0 1 0 0-4 2 2 0 0 0 0 4m8.002 0a2 2 0 1 0 0-4.002 2 2 0 0 0 0 4.002m8.002 0a2 2 0 1 0 0-4 2 2 0 0 0 0 4m8.002 0a2 2 0 1 0 0-4 2 2 0 0 0 0 4m175.997 0a2 2 0 1 0 0-4 2 2 0 0 0 0 4m8.002 0a2 2 0 1 0 0-4 2 2 0 0 0 0 4m24.007 0a2 2 0 1 0 0-4 2 2 0 0 0 0 4m8.002 0a2 2 0 1 0 0-4 2 2 0 0 0 0 4m7.989 0a2 2 0 1 0 0-4 2 2 0 0 0 0 4m8.003 0a2 2 0 1 0-.001-4.001 2 2 0 0 0 .001 4.001m16.004 0a2 2 0 1 0-.001-4.001 2 2 0 0 0 .001 4.001m8.002 0a2 2 0 1 0 0-4 2 2 0 0 0 0 4m-640.007 8.002a2 2 0 1 0 .001-3.999 2 2 0 0 0-.001 3.999m7.989 0a2 2 0 1 0 .001-3.999 2 2 0 0 0-.001 3.999m8.003 0a2 2 0 1 0 0-4 2 2 0 0 0 0 4m8.002 0a2 2 0 1 0 0-4 2 2 0 0 0 0 4m8.002 0a2 2 0 1 0 0-4 2 2 0 0 0 0 4m8.002 0a2 2 0 1 0 .001-3.999 2 2 0 0 0-.001 3.999m8.002 0a2 2 0 1 0 .001-3.999 2 2 0 0 0-.001 3.999m7.989 0a2 2 0 1 0 .001-3.999 2 2 0 0 0-.001 3.999m8.003 0a2 2 0 1 0 .001-3.999 2 2 0 0 0-.001 3.999m8.002 0a2 2 0 1 0 .001-3.999 2 2 0 0 0-.001 3.999m8.002 0a2 2 0 1 0 .001-3.999 2 2 0 0 0-.001 3.999m8.002 0a2 2 0 1 0 .001-3.999 2 2 0 0 0-.001 3.999m8.002 0a2 2 0 1 0 .001-3.999 2 2 0 0 0-.001 3.999m7.99 0a2 2 0 1 0 0-4 2 2 0 0 0 0 4m176.009 0a2 2 0 1 0 .001-3.999 2 2 0 0 0-.001 3.999m8.002 0a2 2 0 1 0 .001-3.999 2 2 0 0 0-.001 3.999m8.002 0a2 2 0 1 0 .001-3.999 2 2 0 0 0-.001 3.999m7.99 0a2 2 0 1 0 0-4 2 2 0 0 0 0 4m8.002 0a2 2 0 1 0 .001-3.999 2 2 0 0 0-.001 3.999m8.002 0a2 2 0 1 0 .001-3.999 2 2 0 0 0-.001 3.999m8.002 0a2 2 0 1 0 .001-3.999 2 2 0 0 0-.001 3.999m8.003 0a2 2 0 1 0 0-4 2 2 0 0 0 0 4m8.002 0a2 2 0 1 0 0-4 2 2 0 0 0 0 4m7.989 0a2 2 0 1 0 .001-3.999 2 2 0 0 0-.001 3.999m8.002 0a2 2 0 1 0 .001-3.999 2 2 0 0 0-.001 3.999m8.002 0a2 2 0 1 0 .001-4 2 2 0 0 0-.001 4m8.002 0a2 2 0 1 0 .001-3.999 2 2 0 0 0-.001 3.999m192.001 0a2 2 0 1 0 .001-3.999 2 2 0 0 0-.001 3.999m8.003 0a2 2 0 1 0 0-4 2 2 0 0 0 0 4m24.006 0a2 2 0 1 0 .001-3.999 2 2 0 0 0-.001 3.999m7.989 0a2 2 0 1 0 .001-3.999 2 2 0 0 0-.001 3.999m16.005 0a2 2 0 1 0 0-4 2 2 0 0 0 0 4m8.002 0a2 2 0 1 0 0-4 2 2 0 0 0 0 4m31.996 0a2 2 0 1 0 0-4 2 2 0 0 0 0 4m16.004 0a2 2 0 1 0 .001-3.999 2 2 0 0 0-.001 3.999m-680.005 8.002a2 2 0 1 0 .001-3.999 2 2 0 0 0-.001 3.999m7.989 0a2 2 0 1 0 .001-3.999 2 2 0 0 0-.001 3.999m8.003 0a2 2 0 1 0 0-4 2 2 0 0 0 0 4m8.002 0a2 2 0 1 0 0-4 2 2 0 0 0 0 4m8.002 0a2 2 0 1 0 0-4 2 2 0 0 0 0 4m8.002 0a2 2 0 1 0 .001-3.999 2 2 0 0 0-.001 3.999m8.002 0a2 2 0 1 0 .001-3.999 2 2 0 0 0-.001 3.999m7.989 0a2 2 0 1 0 .001-3.999 2 2 0 0 0-.001 3.999m8.003 0a2 2 0 1 0 .001-3.999 2 2 0 0 0-.001 3.999m8.002 0a2 2 0 1 0 .001-3.999 2 2 0 0 0-.001 3.999m8.002 0a2 2 0 1 0 .001-3.999 2 2 0 0 0-.001 3.999m8.002 0a2 2 0 1 0 .001-3.999 2 2 0 0 0-.001 3.999m8.002 0a2 2 0 1 0 .001-3.999 2 2 0 0 0-.001 3.999m7.99 0a2 2 0 1 0 0-4 2 2 0 0 0 0 4m8.002 0a2 2 0 1 0 .001-3.999 2 2 0 0 0-.001 3.999m8.002 0a2 2 0 1 0 .001-3.999 2 2 0 0 0-.001 3.999m8.002 0a2 2 0 1 0 .001-3.999 2 2 0 0 0-.001 3.999m160.005 0a2 2 0 1 0 .001-3.999 2 2 0 0 0-.001 3.999m8.002 0a2 2 0 1 0 .001-3.999 2 2 0 0 0-.001 3.999m7.99 0a2 2 0 1 0 0-4 2 2 0 0 0 0 4m8.002 0a2 2 0 1 0 .001-3.999 2 2 0 0 0-.001 3.999m8.002 0a2 2 0 1 0 .001-3.999 2 2 0 0 0-.001 3.999m8.002 0a2 2 0 1 0 .001-3.999 2 2 0 0 0-.001 3.999m8.003 0a2 2 0 1 0 0-4 2 2 0 0 0 0 4m8.002 0a2 2 0 1 0 0-4 2 2 0 0 0 0 4m7.989 0a2 2 0 1 0 .001-3.999 2 2 0 0 0-.001 3.999m8.002 0a2 2 0 1 0 .001-3.999 2 2 0 0 0-.001 3.999m8.002 0a2 2 0 1 0 .001-4 2 2 0 0 0-.001 4m208.006 0a2 2 0 1 0 0-4 2 2 0 0 0 0 4m48 0a2 2 0 1 0 0-4 2 2 0 0 0 0 4m8.002 0a2 2 0 1 0 0-4 2 2 0 0 0 0 4m39.998 0a2 2 0 1 0 0-4 2 2 0 0 0 0 4m8.002 0a2 2 0 1 0 .001-3.999 2 2 0 0 0-.001 3.999m8.003 0a2 2 0 1 0 0-4 2 2 0 0 0 0 4m8.002 0a2 2 0 1 0 0-4 2 2 0 0 0 0 4m7.989 0a2 2 0 1 0 .001-3.999 2 2 0 0 0-.001 3.999m24.006 0a2 2 0 1 0 .001-3.999 2 2 0 0 0-.001 3.999m-728.005 8.002a2 2 0 1 0 .001-3.999 2 2 0 0 0-.001 3.999m7.989 0a2 2 0 1 0 .001-3.999 2 2 0 0 0-.001 3.999m8.003 0a2 2 0 1 0 0-4 2 2 0 0 0 0 4m8.002 0a2 2 0 1 0 0-4 2 2 0 0 0 0 4m16.004 0a2 2 0 1 0 .001-3.999 2 2 0 0 0-.001 3.999m8.002 0a2 2 0 1 0 .001-3.999 2 2 0 0 0-.001 3.999m7.989 0a2 2 0 1 0 .001-3.999 2 2 0 0 0-.001 3.999m8.003 0a2 2 0 1 0 .001-3.999 2 2 0 0 0-.001 3.999m8.002 0a2 2 0 1 0 .001-3.999 2 2 0 0 0-.001 3.999m8.002 0A2 2 0 1 0 234 280a2 2 0 0 0 0 4Zm8.002 0a2 2 0 1 0 .001-3.999 2 2 0 0 0-.001 3.999m8.002 0a2 2 0 1 0 .001-3.999 2 2 0 0 0-.001 3.999m7.99 0a2 2 0 1 0 0-4 2 2 0 0 0 0 4m8.002 0a2 2 0 1 0 .001-3.999 2 2 0 0 0-.001 3.999m8.002 0a2 2 0 1 0 .001-3.999 2 2 0 0 0-.001 3.999m8.002 0A2 2 0 1 0 282 280a2 2 0 0 0 0 4Zm8.002 0a2 2 0 1 0 .001-3.999 2 2 0 0 0-.001 3.999m160.005 0a2 2 0 1 0 .001-3.999 2 2 0 0 0-.001 3.999m7.99 0a2 2 0 1 0 0-4 2 2 0 0 0 0 4m8.002 0a2 2 0 1 0 .001-3.999 2 2 0 0 0-.001 3.999m8.002 0a2 2 0 1 0 .001-3.999 2 2 0 0 0-.001 4Zm8.002 0a2 2 0 1 0 .001-3.999 2 2 0 0 0-.001 3.999m8.003 0a2 2 0 1 0 0-4 2 2 0 0 0 0 4m8.002 0a2 2 0 1 0 0-4 2 2 0 0 0 0 4m7.989 0a2 2 0 1 0 .001-3.999 2 2 0 0 0-.001 3.999m8.002 0a2 2 0 1 0 .001-3.999 2 2 0 0 0-.001 3.999m8.002 0a2 2 0 1 0 .001-4 2 2 0 0 0-.001 4m216.008 0a2 2 0 1 0 0-4 2 2 0 0 0 0 4m8.002 0a2 2 0 1 0 .001-3.999 2 2 0 0 0-.001 3.999m7.99 0a2 2 0 1 0 0-4 2 2 0 0 0 0 4m88.011 0a2 2 0 1 0 0-4 2 2 0 0 0 0 4m8.002 0a2 2 0 1 0 0-4 2 2 0 0 0 0 4m7.989 0a2 2 0 1 0 .001-3.999 2 2 0 0 0-.001 3.999m32.009 0a2 2 0 1 0 0-4 2 2 0 0 0 0 4m-728.019 8.002a2 2 0 1 0 .001-3.999 2 2 0 0 0-.001 3.999m8.003 0a2 2 0 1 0 0-4 2 2 0 0 0 0 4m8.002 0a2 2 0 1 0 0-4 2 2 0 0 0 0 4m8.002 0a2 2 0 1 0 0-4 2 2 0 0 0 0 4m8.002 0a2 2 0 1 0 .001-3.999 2 2 0 0 0-.001 3.999m8.002 0a2 2 0 1 0 .001-3.999 2 2 0 0 0-.001 3.999m7.989 0a2 2 0 1 0 .001-3.999 2 2 0 0 0-.001 3.999m8.003 0a2 2 0 1 0 .001-3.999 2 2 0 0 0-.001 3.999m8.002 0a2 2 0 1 0 .001-3.999 2 2 0 0 0-.001 3.999m8.002 0a2 2 0 1 0 .001-3.999 2 2 0 0 0-.001 3.999m8.002 0a2 2 0 1 0 .001-3.999 2 2 0 0 0-.001 3.999m8.002 0a2 2 0 1 0 .001-3.999 2 2 0 0 0-.001 3.999m7.99 0a2 2 0 1 0 0-4 2 2 0 0 0 0 4m16.004 0a2 2 0 1 0 .001-3.999 2 2 0 0 0-.001 3.999m8.002 0a2 2 0 1 0 .001-3.999 2 2 0 0 0-.001 3.999m8.002 0a2 2 0 1 0 .001-3.999 2 2 0 0 0-.001 3.999m160.005 0a2 2 0 1 0 .001-3.999 2 2 0 0 0-.001 3.999m7.99 0a2 2 0 1 0 0-4 2 2 0 0 0 0 4m8.002 0a2 2 0 1 0 .001-3.999 2 2 0 0 0-.001 3.999m8.002 0a2 2 0 1 0 .001-3.999 2 2 0 0 0-.001 3.999m8.002 0a2 2 0 1 0 .001-3.999 2 2 0 0 0-.001 3.999m8.003 0a2 2 0 1 0 0-4 2 2 0 0 0 0 4m8.002 0a2 2 0 1 0 0-4 2 2 0 0 0 0 4m7.989 0a2 2 0 1 0 .001-3.999 2 2 0 0 0-.001 3.999m8.002 0a2 2 0 1 0 .001-3.999 2 2 0 0 0-.001 3.999m8.002 0a2 2 0 1 0 .001-4 2 2 0 0 0-.001 4m344.004 0a2 2 0 1 0 0-4 2 2 0 0 0 0 4m39.998 0a2 2 0 1 0 .001-3.999 2 2 0 0 0-.001 3.999m-736.007 7.99a2 2 0 1 0-.001-4.001 2 2 0 0 0 .001 4.001m8.002 0a2 2 0 1 0-.001-4.001 2 2 0 0 0 .001 4.001m8.002 0a2 2 0 1 0-.001-4.001 2 2 0 0 0 .001 4.001m8.002 0a2 2 0 1 0 0-4 2 2 0 0 0 0 4m8.002 0a2 2 0 1 0 0-4 2 2 0 0 0 0 4m7.989 0a2 2 0 1 0 0-4 2 2 0 0 0 0 4m8.003 0a2 2 0 1 0 0-4 2 2 0 0 0 0 4m8.002 0a2 2 0 1 0 0-4 2 2 0 0 0 0 4m8.002 0a2 2 0 1 0 0-4 2 2 0 0 0 0 4m8.002 0a2 2 0 1 0 0-4 2 2 0 0 0 0 4m8.002 0a2 2 0 1 0 0-4 2 2 0 0 0 0 4m7.99 0a2 2 0 1 0-.001-4.001 2 2 0 0 0 .001 4.001m8.002 0a2 2 0 1 0 0-4 2 2 0 0 0 0 4m8.002 0a2 2 0 1 0 0-4 2 2 0 0 0 0 4m8.002 0a2 2 0 1 0 0-4 2 2 0 0 0 0 4m168.007 0a2 2 0 1 0 0-4 2 2 0 0 0 0 4m7.99 0a2 2 0 1 0-.001-4.001 2 2 0 0 0 .001 4.001m8.002 0a2 2 0 1 0 0-4 2 2 0 0 0 0 4m8.002 0a2 2 0 1 0 0-4 2 2 0 0 0 0 4m8.002 0a2 2 0 1 0 0-4 2 2 0 0 0 0 4m8.003 0a2 2 0 1 0-.001-4.001 2 2 0 0 0 .001 4.001m8.002 0a2 2 0 1 0-.001-4.001 2 2 0 0 0 .001 4.001m7.989 0a2 2 0 1 0 0-4 2 2 0 0 0 0 4m8.002 0a2 2 0 1 0 0-4 2 2 0 0 0 0 4m8.002 0a2 2 0 1 0 0-4.002 2 2 0 0 0 0 4.002m296.004 0a2 2 0 1 0-.001-4.001 2 2 0 0 0 .001 4.001m8.002 0a2 2 0 1 0-.001-4.001 2 2 0 0 0 .001 4.001m-656.011 8.002a2 2 0 1 0 0-4 2 2 0 0 0 0 4m8.002 0a2 2 0 1 0 0-4 2 2 0 0 0 0 4m8.002 0a2 2 0 1 0 0-4 2 2 0 0 0 0 4m8.002 0a2 2 0 1 0 .001-3.999 2 2 0 0 0-.001 3.999m8.002 0a2 2 0 1 0 .001-3.999 2 2 0 0 0-.001 3.999m7.989 0a2 2 0 1 0 .001-3.999 2 2 0 0 0-.001 3.999m8.003 0a2 2 0 1 0 .001-3.999 2 2 0 0 0-.001 3.999m8.002 0a2 2 0 1 0 .001-3.999 2 2 0 0 0-.001 3.999m8.002 0a2 2 0 1 0 .001-3.999 2 2 0 0 0-.001 3.999m8.002 0a2 2 0 1 0 .001-3.999 2 2 0 0 0-.001 3.999m8.002 0a2 2 0 1 0 .001-3.999 2 2 0 0 0-.001 3.999m7.99 0a2 2 0 1 0 0-4 2 2 0 0 0 0 4m8.002 0a2 2 0 1 0 .001-3.999 2 2 0 0 0-.001 3.999m8.002 0a2 2 0 1 0 .001-3.999 2 2 0 0 0-.001 3.999m8.002 0a2 2 0 1 0 .001-3.999 2 2 0 0 0-.001 3.999m160.005 0a2 2 0 1 0 .001-3.999 2 2 0 0 0-.001 3.999m8.002 0a2 2 0 1 0 .001-3.999 2 2 0 0 0-.001 3.999m7.99 0a2 2 0 1 0 0-4 2 2 0 0 0 0 4m8.002 0a2 2 0 1 0 .001-3.999 2 2 0 0 0-.001 3.999m8.002 0a2 2 0 1 0 .001-3.999 2 2 0 0 0-.001 3.999m8.002 0a2 2 0 1 0 .001-3.999 2 2 0 0 0-.001 3.999m8.003 0a2 2 0 1 0 0-4 2 2 0 0 0 0 4m8.002 0a2 2 0 1 0 0-4 2 2 0 0 0 0 4m7.989 0a2 2 0 1 0 .001-3.999 2 2 0 0 0-.001 3.999m8.002 0a2 2 0 1 0 .001-3.999 2 2 0 0 0-.001 3.999m8.002 0a2 2 0 1 0 .001-4 2 2 0 0 0-.001 4m32.009 0a2 2 0 1 0 0-4 2 2 0 0 0 0 4m240.001 0a2 2 0 1 0 .001-3.999 2 2 0 0 0-.001 3.999m15.992 0a2 2 0 1 0 .001-3.999 2 2 0 0 0-.001 3.999m8.002 0a2 2 0 1 0 0-4 2 2 0 0 0 0 4m24.007 0a2 2 0 1 0 0-4 2 2 0 0 0 0 4m8.002 0a2 2 0 1 0 0-4 2 2 0 0 0 0 4m-664.014 8.002a2 2 0 1 0 0-4 2 2 0 0 0 0 4m8.002 0a2 2 0 1 0 .001-3.999 2 2 0 0 0-.001 3.999m8.002 0a2 2 0 1 0 .001-3.999 2 2 0 0 0-.001 3.999m7.989 0a2 2 0 1 0 .001-3.999 2 2 0 0 0-.001 3.999m8.003 0a2 2 0 1 0 .001-3.999 2 2 0 0 0-.001 3.999m8.002 0a2 2 0 1 0 .001-3.999 2 2 0 0 0-.001 3.999m8.002 0a2 2 0 1 0 .001-3.999 2 2 0 0 0-.001 3.999m8.002 0a2 2 0 1 0 .001-3.999 2 2 0 0 0-.001 3.999m8.002 0a2 2 0 1 0 .001-3.999 2 2 0 0 0-.001 3.999m7.99 0a2 2 0 1 0 0-4 2 2 0 0 0 0 4m8.002 0a2 2 0 1 0 .001-3.999 2 2 0 0 0-.001 3.999m8.002 0a2 2 0 1 0 .001-3.999 2 2 0 0 0-.001 3.999m8.002 0a2 2 0 1 0 .001-3.999 2 2 0 0 0-.001 3.999m160.005 0a2 2 0 1 0 .001-3.999 2 2 0 0 0-.001 3.999m8.002 0a2 2 0 1 0 .001-3.999 2 2 0 0 0-.001 3.999m7.99 0a2 2 0 1 0 0-4 2 2 0 0 0 0 4m8.002 0a2 2 0 1 0 .001-3.999 2 2 0 0 0-.001 3.999m8.002 0a2 2 0 1 0 .001-3.999 2 2 0 0 0-.001 3.999m8.002 0a2 2 0 1 0 .001-3.999 2 2 0 0 0-.001 3.999m8.003 0a2 2 0 1 0 0-4 2 2 0 0 0 0 4m8.002 0a2 2 0 1 0 0-4 2 2 0 0 0 0 4m7.989 0a2 2 0 1 0 .001-3.999 2 2 0 0 0-.001 3.999m8.002 0a2 2 0 1 0 .001-3.999 2 2 0 0 0-.001 3.999m8.002 0a2 2 0 1 0 .001-4 2 2 0 0 0-.001 4m24.007 0a2 2 0 1 0 0-4 2 2 0 0 0 0 4m8.002 0a2 2 0 1 0 0-4 2 2 0 0 0 0 4m231.999 0a2 2 0 1 0 0-4 2 2 0 0 0 0 4m8.002 0a2 2 0 1 0 .001-3.999 2 2 0 0 0-.001 3.999m8.003 0a2 2 0 1 0 0-4 2 2 0 0 0 0 4m7.989 0a2 2 0 1 0 .001-3.999 2 2 0 0 0-.001 3.999m8.002 0a2 2 0 1 0 0-4 2 2 0 0 0 0 4m8.002 0a2 2 0 1 0 0-4 2 2 0 0 0 0 4m16.005 0a2 2 0 1 0 0-4 2 2 0 0 0 0 4m8.002 0a2 2 0 1 0 0-4 2 2 0 0 0 0 4m-656.012 8.002a2 2 0 1 0 .001-3.999 2 2 0 0 0-.001 3.999m8.002 0a2 2 0 1 0 .001-3.999 2 2 0 0 0-.001 3.999m7.989 0a2 2 0 1 0 .001-3.999 2 2 0 0 0-.001 3.999m8.003 0a2 2 0 1 0 .001-3.999 2 2 0 0 0-.001 3.999m8.002 0a2 2 0 1 0 .001-3.999 2 2 0 0 0-.001 3.999m8.002 0a2 2 0 1 0 .001-3.999 2 2 0 0 0-.001 3.999m8.002 0a2 2 0 1 0 .001-3.999 2 2 0 0 0-.001 3.999m8.002 0a2 2 0 1 0 .001-3.999 2 2 0 0 0-.001 3.999m7.99 0a2 2 0 1 0 0-4 2 2 0 0 0 0 4m8.002 0a2 2 0 1 0 .001-3.999 2 2 0 0 0-.001 3.999m8.002 0a2 2 0 1 0 .001-3.999 2 2 0 0 0-.001 3.999m8.002 0a2 2 0 1 0 .001-3.999 2 2 0 0 0-.001 3.999m168.007 0a2 2 0 1 0 .001-3.999 2 2 0 0 0-.001 3.999m7.99 0a2 2 0 1 0 0-4 2 2 0 0 0 0 4m8.002 0a2 2 0 1 0 .001-3.999 2 2 0 0 0-.001 3.999m8.002 0a2 2 0 1 0 .001-3.999 2 2 0 0 0-.001 3.999m8.002 0a2 2 0 1 0 .001-3.999 2 2 0 0 0-.001 3.999m8.003 0a2 2 0 1 0 0-4 2 2 0 0 0 0 4m8.002 0a2 2 0 1 0 0-4 2 2 0 0 0 0 4m7.989 0a2 2 0 1 0 .001-3.999 2 2 0 0 0-.001 3.999m40.011 0a2 2 0 1 0 0-4 2 2 0 0 0 0 4m231.999 0a2 2 0 1 0 0-4 2 2 0 0 0 0 4m8.002 0a2 2 0 1 0 0-4 2 2 0 0 0 0 4m8.002 0a2 2 0 1 0 .001-3.999 2 2 0 0 0-.001 3.999m8.003 0a2 2 0 1 0 0-4 2 2 0 0 0 0 4m7.989 0a2 2 0 1 0 .001-3.999 2 2 0 0 0-.001 3.999m8.002 0a2 2 0 1 0 0-4 2 2 0 0 0 0 4m8.002 0a2 2 0 1 0 0-4 2 2 0 0 0 0 4m8.002 0a2 2 0 1 0 .001-3.999 2 2 0 0 0-.001 3.999m8.003 0a2 2 0 1 0 0-4 2 2 0 0 0 0 4m8.002 0a2 2 0 1 0 0-4 2 2 0 0 0 0 4M194.001 332a2 2 0 1 0 0-4 2 2 0 0 0 0 4m8.002 0a2 2 0 1 0 0-4 2 2 0 0 0 0 4m7.989 0a2 2 0 1 0 0-4 2 2 0 0 0 0 4m8.003 0a2 2 0 1 0 0-4 2 2 0 0 0 0 4m8.002 0a2 2 0 1 0 0-4 2 2 0 0 0 0 4m8.002 0a2 2 0 1 0 0-4 2 2 0 0 0 0 4m8.002 0a2 2 0 1 0 0-4 2 2 0 0 0 0 4m8.002 0a2 2 0 1 0 0-4 2 2 0 0 0 0 4m7.99 0a2 2 0 1 0-.001-4.001 2 2 0 0 0 .001 4.001m8.002 0a2 2 0 1 0 0-4 2 2 0 0 0 0 4m8.002 0a2 2 0 1 0 0-4 2 2 0 0 0 0 4m176.009 0a2 2 0 1 0 0-4 2 2 0 0 0 0 4m7.99 0a2 2 0 1 0-.001-4.001 2 2 0 0 0 .001 4.001m8.002 0a2 2 0 1 0 0-4 2 2 0 0 0 0 4m8.002 0a2 2 0 1 0 0-4 2 2 0 0 0 0 4m8.002 0a2 2 0 1 0 0-4 2 2 0 0 0 0 4m8.003 0a2 2 0 1 0-.001-4.001 2 2 0 0 0 .001 4.001m8.002 0a2 2 0 1 0-.001-4.001 2 2 0 0 0 .001 4.001m7.989 0a2 2 0 1 0 0-4 2 2 0 0 0 0 4m32.008 0a2 2 0 1 0 0-4 2 2 0 0 0 0 4m8.003 0a2 2 0 1 0-.001-4.001 2 2 0 0 0 .001 4.001M754 332a2 2 0 1 0-.001-4.001A2 2 0 0 0 754 332m8.001 0a2 2 0 1 0 0-4 2 2 0 0 0 0 4m8.003 0a2 2 0 1 0-.001-4.001 2 2 0 0 0 .001 4.001m8.002 0a2 2 0 1 0-.001-4.001 2 2 0 0 0 .001 4.001m8.002 0a2 2 0 1 0-.001-4.001 2 2 0 0 0 .001 4.001m8.002 0a2 2 0 1 0 0-4 2 2 0 0 0 0 4m8.003 0a2 2 0 1 0-.001-4.001 2 2 0 0 0 .001 4.001m7.989 0a2 2 0 1 0 0-4 2 2 0 0 0 0 4m8.002 0a2 2 0 1 0-.001-4.001 2 2 0 0 0 .001 4.001m8.002 0a2 2 0 1 0-.001-4.001 2 2 0 0 0 .001 4.001m8.002 0a2 2 0 1 0 0-4 2 2 0 0 0 0 4m8.003 0a2 2 0 1 0-.001-4.001 2 2 0 0 0 .001 4.001m8.002 0a2 2 0 1 0-.001-4.001 2 2 0 0 0 .001 4.001m55.989 0a2 2 0 1 0 0-4 2 2 0 0 0 0 4m-712.001 8.001a2 2 0 1 0 .001-3.999 2 2 0 0 0-.001 3.999m8.002 0a2 2 0 1 0 .001-3.999 2 2 0 0 0-.001 3.999m7.989 0a2 2 0 1 0 .001-3.999 2 2 0 0 0-.001 3.999m8.003 0a2 2 0 1 0 .001-3.999 2 2 0 0 0-.001 3.999m8.002 0a2 2 0 1 0 .001-3.999 2 2 0 0 0-.001 3.999m8.002 0a2 2 0 1 0 .001-3.999 2 2 0 0 0-.001 3.999m8.002 0a2 2 0 1 0 .001-3.999 2 2 0 0 0-.001 3.999m8.002 0a2 2 0 1 0 .001-3.999 2 2 0 0 0-.001 3.999m7.99 0a2 2 0 1 0 0-4 2 2 0 0 0 0 4m192.013 0a2 2 0 1 0 .001-3.999 2 2 0 0 0-.001 3.999m7.99 0a2 2 0 1 0 0-4 2 2 0 0 0 0 4m8.002 0a2 2 0 1 0 .001-3.999 2 2 0 0 0-.001 3.999m8.002 0a2 2 0 1 0 .001-3.999 2 2 0 0 0-.001 3.999m8.002 0a2 2 0 1 0 .001-3.999 2 2 0 0 0-.001 3.999m8.003 0a2 2 0 1 0 0-4 2 2 0 0 0 0 4m8.002 0a2 2 0 1 0 0-4 2 2 0 0 0 0 4m7.989 0a2 2 0 1 0 .001-3.999 2 2 0 0 0-.001 3.999m32.008 0a2 2 0 1 0 .001-3.999 2 2 0 0 0-.001 3.999m208.006 0a2 2 0 1 0 .001-3.999 2 2 0 0 0-.001 3.999m7.99 0a2 2 0 1 0 0-4 2 2 0 0 0 0 4m8.001 0a2 2 0 1 0 .001-3.999 2 2 0 0 0-.001 3.999m8.003 0a2 2 0 1 0 0-4 2 2 0 0 0 0 4m8.002 0a2 2 0 1 0 0-4 2 2 0 0 0 0 4m8.002 0a2 2 0 1 0 0-4 2 2 0 0 0 0 4m8.002 0a2 2 0 1 0 .001-3.999 2 2 0 0 0-.001 3.999m8.003 0a2 2 0 1 0 0-4 2 2 0 0 0 0 4m7.989 0a2 2 0 1 0 .001-3.999 2 2 0 0 0-.001 3.999m8.002 0a2 2 0 1 0 0-4 2 2 0 0 0 0 4m8.002 0a2 2 0 1 0 0-4 2 2 0 0 0 0 4m8.002 0a2 2 0 1 0 .001-3.999 2 2 0 0 0-.001 3.999m8.003 0a2 2 0 1 0 0-4 2 2 0 0 0 0 4m8.002 0a2 2 0 1 0 0-4 2 2 0 0 0 0 4m7.989 0a2 2 0 1 0 .001-3.999 2 2 0 0 0-.001 3.999m-655.999 7.99a2 2 0 1 0 .001-3.999 2 2 0 0 0-.001 3.999m7.989 0a2 2 0 1 0 .001-3.999 2 2 0 0 0-.001 3.999m8.003 0a2 2 0 1 0 .001-3.999 2 2 0 0 0-.001 3.999m8.002 0a2 2 0 1 0 .001-3.999 2 2 0 0 0-.001 3.999m8.002 0a2 2 0 1 0 .001-3.999 2 2 0 0 0-.001 3.999m8.002 0a2 2 0 1 0 .001-3.999 2 2 0 0 0-.001 3.999m8.002 0a2 2 0 1 0 .001-3.999 2 2 0 0 0-.001 3.999m7.99 0a2 2 0 1 0 0-4 2 2 0 0 0 0 4m192.013 0a2 2 0 1 0 .001-3.999 2 2 0 0 0-.001 3.999m7.99 0a2 2 0 1 0 0-4 2 2 0 0 0 0 4m8.002 0a2 2 0 1 0 .001-3.999 2 2 0 0 0-.001 3.999m8.002 0a2 2 0 1 0 .001-3.999 2 2 0 0 0-.001 3.999m8.002 0a2 2 0 1 0 .001-3.999 2 2 0 0 0-.001 3.999m8.003 0a2 2 0 1 0 0-4 2 2 0 0 0 0 4m8.002 0a2 2 0 1 0 0-4 2 2 0 0 0 0 4m248.003 0a2 2 0 1 0 .001-3.999 2 2 0 0 0-.001 3.999m7.99 0a2 2 0 1 0 0-4 2 2 0 0 0 0 4m8.001 0a2 2 0 1 0 .001-3.999 2 2 0 0 0-.001 3.999m8.003 0a2 2 0 1 0 0-4 2 2 0 0 0 0 4m8.002 0a2 2 0 1 0 0-4 2 2 0 0 0 0 4m8.002 0a2 2 0 1 0 0-4 2 2 0 0 0 0 4m8.002 0a2 2 0 1 0 .001-3.999 2 2 0 0 0-.001 3.999m8.003 0a2 2 0 1 0 0-4 2 2 0 0 0 0 4m7.989 0a2 2 0 1 0 .001-3.999 2 2 0 0 0-.001 3.999m8.002 0a2 2 0 1 0 0-4 2 2 0 0 0 0 4m8.002 0a2 2 0 1 0 0-4 2 2 0 0 0 0 4m8.002 0a2 2 0 1 0 .001-3.999 2 2 0 0 0-.001 3.999m8.003 0a2 2 0 1 0 0-4 2 2 0 0 0 0 4m8.002 0a2 2 0 1 0 0-4 2 2 0 0 0 0 4m-648.01 8.002a2 2 0 1 0 .001-3.999 2 2 0 0 0-.001 3.999m7.989 0a2 2 0 1 0 .001-3.999 2 2 0 0 0-.001 3.999m8.003 0a2 2 0 1 0 .001-3.999 2 2 0 0 0-.001 3.999m8.002 0a2 2 0 1 0 .001-3.999 2 2 0 0 0-.001 3.999m8.002 0a2 2 0 1 0 .001-3.999 2 2 0 0 0-.001 3.999m8.002 0a2 2 0 1 0 .001-3.999 2 2 0 0 0-.001 3.999m8.002 0a2 2 0 1 0 .001-3.999 2 2 0 0 0-.001 3.999m207.993 0a2 2 0 1 0 0-4 2 2 0 0 0 0 4m8.002 0a2 2 0 1 0 .001-3.999 2 2 0 0 0-.001 3.999m8.002 0a2 2 0 1 0 .001-3.999 2 2 0 0 0-.001 3.999m8.002 0a2 2 0 1 0 .001-3.999 2 2 0 0 0-.001 3.999m8.003 0a2 2 0 1 0 0-4 2 2 0 0 0 0 4m256.005 0a2 2 0 1 0 .001-3.999 2 2 0 0 0-.001 3.999m8.002 0a2 2 0 1 0 .001-3.999 2 2 0 0 0-.001 3.999m7.989 0a2 2 0 1 0 .001-3.999 2 2 0 0 0-.001 3.999m8.003 0a2 2 0 1 0 0-4 2 2 0 0 0 0 4m8.002 0a2 2 0 1 0 0-4 2 2 0 0 0 0 4m8.002 0a2 2 0 1 0 0-4 2 2 0 0 0 0 4m8.002 0a2 2 0 1 0 .001-3.999 2 2 0 0 0-.001 3.999m8.003 0a2 2 0 1 0 0-4 2 2 0 0 0 0 4m7.989 0a2 2 0 1 0 .001-3.999 2 2 0 0 0-.001 3.999m8.002 0a2 2 0 1 0 0-4 2 2 0 0 0 0 4m8.002 0a2 2 0 1 0 0-4 2 2 0 0 0 0 4m8.002 0a2 2 0 1 0 .001-3.999 2 2 0 0 0-.001 3.999m8.003 0a2 2 0 1 0 0-4 2 2 0 0 0 0 4m8.002 0a2 2 0 1 0 0-4 2 2 0 0 0 0 4m-648.01 8.003a2 2 0 1 0 0-4 2 2 0 0 0 0 4m7.989 0a2 2 0 1 0 0-4 2 2 0 0 0 0 4m8.003 0a2 2 0 1 0 0-4 2 2 0 0 0 0 4m8.002 0a2 2 0 1 0 0-4 2 2 0 0 0 0 4m8.002 0a2 2 0 1 0 0-4 2 2 0 0 0 0 4m8.002 0a2 2 0 1 0 0-4 2 2 0 0 0 0 4m8.002 0a2 2 0 1 0 0-4 2 2 0 0 0 0 4m207.993 0a2 2 0 1 0-.001-4.001 2 2 0 0 0 .001 4.001m8.002 0a2 2 0 1 0 0-4 2 2 0 0 0 0 4m8.002 0a2 2 0 1 0 0-4 2 2 0 0 0 0 4m8.002 0a2 2 0 1 0 0-4 2 2 0 0 0 0 4m256.006 0a2 2 0 1 0-.001-4.001 2 2 0 0 0 .001 4.001m8.002 0a2 2 0 1 0 0-4 2 2 0 0 0 0 4m7.99 0a2 2 0 1 0-.001-4.001 2 2 0 0 0 .001 4.001m8.001 0a2 2 0 1 0 0-4 2 2 0 0 0 0 4m32.009 0a2 2 0 1 0 0-4 2 2 0 0 0 0 4m8.003 0a2 2 0 1 0-.001-4.001 2 2 0 0 0 .001 4.001m7.989 0a2 2 0 1 0 0-4 2 2 0 0 0 0 4m8.002 0a2 2 0 1 0-.001-4.001 2 2 0 0 0 .001 4.001m8.002 0a2 2 0 1 0-.001-4.001 2 2 0 0 0 .001 4.001m8.002 0a2 2 0 1 0 0-4 2 2 0 0 0 0 4m8.003 0a2 2 0 1 0-.001-4.001 2 2 0 0 0 .001 4.001m-640.008 8.002a2 2 0 1 0 0-4 2 2 0 0 0 0 4m7.989 0a2 2 0 1 0 0-4 2 2 0 0 0 0 4m8.003 0a2 2 0 1 0 0-4 2 2 0 0 0 0 4m8.002 0a2 2 0 1 0 0-4 2 2 0 0 0 0 4m8.002 0a2 2 0 1 0 0-4 2 2 0 0 0 0 4m504.009 0a2 2 0 1 0-.001-4.001 2 2 0 0 0 .001 4.001m56.002 0a2 2 0 1 0 0-4 2 2 0 0 0 0 4m8.003 0a2 2 0 1 0-.001-4.001 2 2 0 0 0 .001 4.001m7.989 0a2 2 0 1 0 0-4 2 2 0 0 0 0 4m8.002 0a2 2 0 1 0-.001-4.001 2 2 0 0 0 .001 4.001m8.002 0a2 2 0 1 0-.001-4.001 2 2 0 0 0 .001 4.001m72.007 0a2 2 0 1 0-.001-4.001 2 2 0 0 0 .001 4.001M202.003 380a2 2 0 1 0 0-4 2 2 0 0 0 0 4m7.989 0a2 2 0 1 0 0-4 2 2 0 0 0 0 4m8.003 0a2 2 0 1 0 0-4 2 2 0 0 0 0 4m8.002 0a2 2 0 1 0 0-4 2 2 0 0 0 0 4m8.002 0a2 2 0 1 0 0-4 2 2 0 0 0 0 4m8.002 0a2 2 0 1 0 0-4 2 2 0 0 0 0 4m560.012 0a2 2 0 1 0-.001-4.001 2 2 0 0 0 .001 4.001m7.989 0a2 2 0 1 0 0-4 2 2 0 0 0 0 4m8.002 0a2 2 0 1 0-.001-4.001 2 2 0 0 0 .001 4.001m80.009 0a2 2 0 1 0-.001-4.001 2 2 0 0 0 .001 4.001m-696.01 8.002a2 2 0 1 0 .001-3.999 2 2 0 0 0-.001 3.999m7.989 0a2 2 0 1 0 .001-3.999 2 2 0 0 0-.001 3.999m8.003 0a2 2 0 1 0 .001-3.999 2 2 0 0 0-.001 3.999m8.002 0a2 2 0 1 0 .001-3.999 2 2 0 0 0-.001 3.999m664.014 0a2 2 0 1 0 0-4 2 2 0 0 0 0 4m-680.019 7.989a2 2 0 1 0 .001-3.999 2 2 0 0 0-.001 3.999m8.003 0a2 2 0 1 0 .001-3.999 2 2 0 0 0-.001 3.999m8.002 0a2 2 0 1 0 .001-3.999 2 2 0 0 0-.001 3.999m576.016 0a2 2 0 1 0 0-4 2 2 0 0 0 0 4m71.993 0a2 2 0 1 0 .001-3.999 2 2 0 0 0-.001 3.999m-664.014 8.003a2 2 0 1 0 0-4 2 2 0 0 0 0 4m8.003 0a2 2 0 1 0 0-4 2 2 0 0 0 0 4m632.018 0a2 2 0 1 0-.001-4.001 2 2 0 0 0 .001 4.001m7.989 0a2 2 0 1 0 0-4 2 2 0 0 0 0 4m-648.01 8.002a2 2 0 1 0 0-4 2 2 0 0 0 0 4m8.003 0a2 2 0 1 0 0-4 2 2 0 0 0 0 4m8.002 0a2 2 0 1 0 0-4 2 2 0 0 0 0 4m-8.002 8.002a2 2 0 1 0 .001-3.999 2 2 0 0 0-.001 3.999m8.002 0a2 2 0 1 0 .001-3.999 2 2 0 0 0-.001 3.999M217.995 428a2 2 0 1 0 .001-3.999 2 2 0 0 0-.001 3.999m8.002 0a2 2 0 1 0 .001-3.999 2 2 0 0 0-.001 3.999" opacity=".4"/>
</svg>
