<svg width="2092" height="400" viewBox="0 0 2092 400" fill="none" xmlns="http://www.w3.org/2000/svg">
<path d="M727.24 65.8862C794.414 65.8862 838.085 103.982 838.085 165.168C838.085 209.965 812.405 243.254 772.143 257.457L851.07 392.796H792.528L718.897 264.377H637.577V392.796H587.16V65.8862H727.24ZM637.504 111.412V219.362H724.846C764.889 219.362 785.564 196.927 785.564 165.168C785.564 132.681 764.962 111.412 724.846 111.412H637.504Z" fill="black"/>
<path d="M979.325 156.719C1046.5 156.719 1090.17 206.833 1090.17 268.748C1090.17 275.959 1089.66 283.462 1088.28 290.891H909.539C911.715 325.564 941.24 352.806 981.066 352.806C1009.87 352.806 1032.86 340.496 1050.13 313.326L1085.16 338.893C1063.84 377.426 1021.84 397.676 981.066 397.676C911.498 397.676 860.355 346.105 860.355 277.489C860.355 208.508 909.539 156.719 979.325 156.719ZM1041.93 255.199C1039.03 222.712 1011.97 199.768 978.817 199.768C943.562 199.768 916.648 222.64 910.7 255.199H1041.93Z" fill="black"/>
<path d="M1134.28 392.796V161.526H1182.01V190.662C1189.7 178.862 1211.53 156.719 1252.81 156.719C1316.14 156.719 1349.51 196.198 1349.51 252.359V392.796H1301.99V262.483C1301.99 224.169 1281.1 202.026 1245.34 202.026C1210.3 202.026 1181.79 224.169 1181.79 262.483V392.796H1134.28Z" fill="black"/>
<path d="M1504.32 156.719C1543.42 156.719 1569.31 171.141 1586.36 193.066V53.5761H1633.88V392.796H1586.36V361.256C1569.31 383.181 1543.42 397.603 1504.32 397.603C1438.81 397.603 1388.68 346.979 1388.68 275.959C1388.68 204.866 1438.81 156.719 1504.32 156.719ZM1436.13 275.959C1436.13 318.571 1465.65 354.7 1510.05 354.7C1554.44 354.7 1586.07 318.571 1586.07 275.959C1586.07 233.347 1554.15 199.622 1510.05 199.622C1465.65 199.549 1436.13 233.274 1436.13 275.959Z" fill="black"/>
<path d="M1793.11 156.719C1860.28 156.719 1903.95 206.833 1903.95 268.748C1903.95 275.959 1903.45 283.462 1902.07 290.891H1723.32C1725.5 325.564 1755.02 352.806 1794.85 352.806C1823.65 352.806 1846.64 340.496 1863.91 313.326L1898.95 338.893C1877.62 377.426 1835.62 397.676 1794.85 397.676C1725.28 397.676 1674.14 346.105 1674.14 277.489C1674.07 208.508 1723.25 156.719 1793.11 156.719ZM1855.71 255.199C1852.81 222.712 1825.75 199.768 1792.6 199.768C1757.34 199.768 1730.43 222.64 1724.48 255.199H1855.71Z" fill="black"/>
<path d="M1949.87 392.796V161.526H1997.61V193.066C2010.59 167.79 2032.43 156.719 2057.6 156.719C2075.59 156.719 2089.3 162.473 2089.3 162.473L2084.29 206.323C2081.68 205.376 2071.31 201.006 2056.22 201.006C2030.76 201.006 1997.68 214.481 1997.68 266.781V392.796H1949.87Z" fill="black"/>
<path d="M298.078 0.110972C247.008 -2.29277 204.062 34.6375 196.736 83.2952C196.445 85.5532 196.01 87.7385 195.647 89.9237C184.258 150.527 131.23 196.417 67.5372 196.417C44.8313 196.417 23.5038 190.59 4.9329 180.392C2.68408 179.154 0 180.756 0 183.306V196.344V392.796H195.575V245.512C195.575 218.415 217.483 196.417 244.469 196.417H293.362C348.712 196.417 393.253 150.309 391.077 94.2213C389.119 43.7426 348.35 2.51472 298.078 0.110972Z" fill="black"/>
</svg>
