<svg xmlns="http://www.w3.org/2000/svg" width="2092" height="400" fill="none">
  <path fill="#000" d="M727.24 65.886c67.174 0 110.845 38.096 110.845 99.282 0 44.797-25.68 78.086-65.942 92.289l78.927 135.339h-58.542l-73.631-128.419h-81.32v128.419H587.16V65.886zm-89.736 45.526v107.95h87.342c40.043 0 60.718-22.435 60.718-54.194 0-32.487-20.602-53.756-60.718-53.756zm341.821 45.307c67.175 0 110.845 50.114 110.845 112.029 0 7.211-.51 14.714-1.89 22.143H909.539c2.176 34.673 31.701 61.915 71.527 61.915 28.804 0 51.794-12.31 69.064-39.48l35.03 25.567c-21.32 38.533-63.32 58.783-104.094 58.783-69.568 0-120.711-51.571-120.711-120.187 0-68.981 49.184-120.77 118.97-120.77m62.605 98.48c-2.9-32.487-29.96-55.431-63.113-55.431-35.255 0-62.169 22.872-68.117 55.431zm92.35 137.597v-231.27h47.73v29.136c7.69-11.8 29.52-33.943 70.8-33.943 63.33 0 96.7 39.479 96.7 95.64v140.437h-47.52V262.483c0-38.314-20.89-60.457-56.65-60.457-35.04 0-63.55 22.143-63.55 60.457v130.313zm370.04-236.077c39.1 0 64.99 14.422 82.04 36.347V53.576h47.52v339.22h-47.52v-31.54c-17.05 21.925-42.94 36.347-82.04 36.347-65.51 0-115.64-50.624-115.64-121.644 0-71.093 50.13-119.24 115.64-119.24m-68.19 119.24c0 42.612 29.52 78.741 73.92 78.741 44.39 0 76.02-36.129 76.02-78.741s-31.92-76.337-76.02-76.337c-44.4-.073-73.92 33.652-73.92 76.337m356.98-119.24c67.17 0 110.84 50.114 110.84 112.029 0 7.211-.5 14.714-1.88 22.143h-178.75c2.18 34.673 31.7 61.915 71.53 61.915 28.8 0 51.79-12.31 69.06-39.48l35.04 25.567c-21.33 38.533-63.33 58.783-104.1 58.783-69.57 0-120.71-51.571-120.71-120.187-.07-68.981 49.11-120.77 118.97-120.77m62.6 98.48c-2.9-32.487-29.96-55.431-63.11-55.431-35.26 0-62.17 22.872-68.12 55.431zm94.16 137.597v-231.27h47.74v31.54c12.98-25.276 34.82-36.347 59.99-36.347 17.99 0 31.7 5.754 31.7 5.754l-5.01 43.85c-2.61-.947-12.98-5.317-28.07-5.317-25.46 0-58.54 13.475-58.54 65.775v126.015zM298.078.111c-51.07-2.404-94.016 34.527-101.342 83.184-.291 2.258-.726 4.444-1.089 6.629-11.389 60.603-64.417 106.493-128.11 106.493-22.706 0-44.033-5.827-62.604-16.025A3.31 3.31 0 0 0 0 183.306v209.49h195.575V245.512c0-27.097 21.908-49.095 48.894-49.095h48.893c55.35 0 99.891-46.108 97.715-102.196-1.958-50.478-42.727-91.706-92.999-94.11"/>
</svg>
