<svg xmlns="http://www.w3.org/2000/svg" width="150" height="36" fill="none">
  <path fill="#425277" fill-rule="evenodd" d="M38.934 13.49h3.23c.405 0 .728-.081 1.05-.243.324-.161.566-.323.728-.565a2 2 0 0 0 .323-1.05c0-.404-.08-.808-.242-1.05-.162-.243-.404-.485-.647-.566-.242-.161-.565-.242-.888-.242-.323-.08-.727-.08-1.05-.08h-2.424v3.795zm-3.716-7.028h6.543q1.332 0 2.423.242c.808.162 1.454.485 2.02.808.565.404 1.05.889 1.373 1.616.323.646.484 1.534.484 2.504 0 1.211-.323 2.261-.969 3.07-.646.807-1.535 1.372-2.746 1.615l4.28 7.189h-4.442L40.63 16.72h-1.858v6.785h-3.715V6.462zM53.393 17.61q0 1.332.727 2.18c.484.565 1.211.808 2.1.808.888 0 1.615-.243 2.1-.808q.727-.848.727-2.18 0-1.335-.727-2.182c-.485-.565-1.212-.808-2.1-.808s-1.616.243-2.1.808c-.485.646-.727 1.293-.727 2.181m-3.555 0c0-.97.162-1.778.485-2.505s.808-1.373 1.373-1.939c.566-.565 1.293-.969 2.02-1.211.807-.323 1.615-.404 2.504-.404.888 0 1.696.161 2.504.404a7 7 0 0 1 2.02 1.211c.565.566 1.05 1.212 1.372 1.939s.485 1.616.485 2.504c0 .97-.162 1.777-.485 2.504s-.807 1.373-1.373 1.939c-.565.565-1.292.969-2.02 1.211-.807.323-1.615.404-2.503.404s-1.697-.161-2.504-.404a7 7 0 0 1-2.02-1.211c-.565-.566-1.05-1.212-1.373-1.939s-.485-1.535-.485-2.504m26.091 5.898h-3.473V21.89h-.081c-.162.242-.323.485-.485.646-.161.243-.404.404-.727.647-.323.161-.646.323-.97.404-.403.08-.726.161-1.21.161-.89 0-1.616-.162-2.182-.404s-.969-.646-1.292-1.13c-.323-.485-.485-1.05-.646-1.778a17 17 0 0 1-.162-2.18v-6.463h3.554v6.785c0 .323.081.727.243.97.161.242.323.565.565.727a1.8 1.8 0 0 0 1.05.323c.485 0 .808-.081 1.131-.243s.485-.403.646-.646c.162-.242.242-.565.323-.97.081-.322.081-.726.081-1.13v-5.816h3.635zm10.42-8.805h-3.15v3.877c0 .323 0 .647.08.889 0 .242.081.485.243.646q.12.242.484.485c.243.08.566.161.889.161.162 0 .404 0 .727-.08.323 0 .565-.162.727-.243v2.989c-.404.161-.808.242-1.212.323-.404.08-.888.08-1.292.08-.566 0-1.131-.08-1.696-.16-.485-.162-.97-.324-1.374-.647-.404-.242-.646-.646-.888-1.13-.242-.485-.323-.97-.323-1.616V14.7h-2.262v-2.908h2.262V8.32h3.554v3.473h3.15v2.908zm9.774 1.616c0-.647-.162-1.131-.566-1.535a2.26 2.26 0 0 0-1.615-.646c-.404 0-.727.08-1.05.161a7 7 0 0 0-.808.485c-.242.242-.404.404-.485.727-.08.242-.161.565-.242.808zm3.07 5.17a5.7 5.7 0 0 1-2.182 1.696c-.888.403-1.777.565-2.746.565-.889 0-1.696-.162-2.504-.404a7 7 0 0 1-2.02-1.212c-.565-.565-1.05-1.211-1.373-1.938s-.484-1.616-.484-2.504c0-.97.161-1.777.484-2.504s.808-1.373 1.374-1.939c.565-.565 1.292-.97 2.019-1.211.808-.324 1.615-.404 2.504-.404a6.6 6.6 0 0 1 2.262.404 6.5 6.5 0 0 1 1.696 1.211c.485.566.808 1.212 1.05 1.939s.404 1.615.404 2.504v1.13h-8.32c.162.728.485 1.212.97 1.616.484.404 1.05.646 1.776.646a2.8 2.8 0 0 0 1.454-.404c.404-.242.727-.646 1.05-1.05z" clip-rule="evenodd"/>
  <path fill="#FFC63C" fill-rule="evenodd" d="m108.562 11.147-3.796 5.897h3.796zm0 8.966h-7.35v-3.07l6.866-10.58h3.877v10.58h2.181v3.07h-2.181v3.393h-3.474v-3.393z" clip-rule="evenodd"/>
  <path fill="#425277" fill-rule="evenodd" d="M116.478 6.462h5.574l3.958 11.147 3.958-11.147h5.573v17.044h-3.715V10.42h-.081l-4.443 13.086h-2.827l-4.281-13.086v13.086h-3.716zm29.968 9.855c0-.647-.162-1.131-.566-1.535a2.25 2.25 0 0 0-1.615-.646c-.404 0-.727.08-1.05.161a7 7 0 0 0-.808.485c-.242.242-.404.404-.485.727-.08.242-.161.565-.242.808zm3.069 5.17a5.7 5.7 0 0 1-2.181 1.696c-.888.403-1.777.565-2.746.565-.888 0-1.696-.162-2.504-.404a7 7 0 0 1-2.019-1.212c-.566-.565-1.05-1.211-1.374-1.938-.323-.727-.484-1.616-.484-2.504 0-.97.161-1.777.484-2.504.324-.727.808-1.373 1.374-1.939.565-.565 1.292-.97 2.019-1.211.808-.324 1.616-.404 2.504-.404.808 0 1.616.161 2.262.404a6.5 6.5 0 0 1 1.696 1.211c.485.566.808 1.212 1.05 1.939S150 16.8 150 17.69v1.13h-8.32c.162.728.485 1.212.969 1.616a2.66 2.66 0 0 0 1.777.646 2.8 2.8 0 0 0 1.454-.404c.404-.242.727-.646 1.051-1.05z" clip-rule="evenodd"/>
  <path fill="#FF6400" fill-rule="evenodd" d="M28.19 1.535a1.535 1.535 0 1 1 1.536 1.534c-.807.081-1.534-.646-1.534-1.534M0 1.535C0 .727.727 0 1.535 0 2.423 0 3.15.727 3.15 1.535A1.62 1.62 0 0 1 1.535 3.15C.727 3.15 0 2.423 0 1.535m22.294 32.148c0-.888.727-1.534 1.535-1.534.888 0 1.534.727 1.534 1.534 0 .889-.726 1.535-1.534 1.535a1.534 1.534 0 0 1-1.535-1.535" clip-rule="evenodd"/>
  <path fill="#FFC63C" fill-rule="evenodd" d="M20.032 6.624c.243.242.243.565 0 .727l-2.665 2.665c-.243.242-.162.404.161.566 1.535.565 2.747 1.777 3.231 3.23.081.243.323.324.566.162l2.665-2.665c.243-.243.566-.243.727 0l2.343 2.342c.242.242.404.162.404-.162V4.2q0-.242-.243-.242h-9.37c-.323 0-.323.162-.161.404zm-6.3 3.877c.242-.08.323-.323.161-.566L11.228 7.27c-.243-.242-.243-.566 0-.727L13.57 4.2c.243-.242.162-.404-.161-.404H4.2c-.161.162-.323.243-.323.404v9.29c0 .323.162.323.404.161l2.343-2.342c.242-.243.565-.243.727 0l2.665 2.665c.242.242.404.162.566-.161.484-1.535 1.696-2.747 3.15-3.312m2.18 10.662c-.322 0-.403.242-.322.485l1.534 3.392a.65.65 0 0 1-.242.727l-2.989 1.374c-.242.161-.242.323 0 .404l8.724 3.15c.162.08.323 0 .323-.162l3.231-8.724c.081-.242 0-.404-.323-.242L22.86 22.94c-.242.162-.565 0-.727-.242l-1.696-3.635c-.08-.242-.323-.242-.485-.08a5.5 5.5 0 0 1-1.938 1.615c-.485.242-1.131.404-1.696.484 0 0-.243.081-.404.081" clip-rule="evenodd"/>
  <path fill="#FF6400" fill-rule="evenodd" d="M11.712 15.67a3.878 3.878 0 0 1 7.755 0c0 2.181-1.777 3.958-3.877 3.958-2.1-.08-3.878-1.777-3.878-3.957" clip-rule="evenodd"/>
</svg>
