<svg xmlns="http://www.w3.org/2000/svg" width="124" height="29" fill="none">
  <path fill="#2C2C2C" d="M44.704 8.832v1.808h-2.976V20h-2.24v-9.36h-2.976V8.832h8.192Zm3.874 3.68a3.17 3.17 0 0 1 1.12-1.104c.47-.267 1.003-.4 1.6-.4v2.352h-.592c-.704 0-1.237.165-1.6.496-.352.33-.528.907-.528 1.728V20h-2.24v-8.864h2.24v1.376Zm5.365-2.432c-.395 0-.725-.123-.992-.368a1.283 1.283 0 0 1-.384-.944c0-.373.128-.683.384-.928.267-.256.597-.384.992-.384s.72.128.976.384c.267.245.4.555.4.928s-.133.688-.4.944c-.256.245-.581.368-.976.368Zm1.104 1.056V20h-2.24v-8.864h2.24Zm1.637 4.432c0-.917.187-1.717.56-2.4a3.936 3.936 0 0 1 1.552-1.6c.662-.384 1.419-.576 2.272-.576 1.099 0 2.006.277 2.72.832.726.544 1.21 1.312 1.456 2.304h-2.416a1.709 1.709 0 0 0-.656-.896c-.298-.224-.672-.336-1.12-.336-.64 0-1.146.235-1.52.704-.373.459-.56 1.115-.56 1.968 0 .843.187 1.499.56 1.968.374.459.88.688 1.52.688.907 0 1.499-.405 1.776-1.216h2.416c-.245.96-.73 1.723-1.456 2.288-.725.565-1.632.848-2.72.848-.853 0-1.61-.187-2.272-.56a4.07 4.07 0 0 1-1.552-1.6c-.373-.693-.56-1.499-.56-2.416Zm18.441-.192c0 .32-.021.608-.064.864h-6.48c.054.64.278 1.141.672 1.504.395.363.88.544 1.456.544.832 0 1.424-.357 1.776-1.072h2.416a4.079 4.079 0 0 1-1.472 2.112c-.725.544-1.616.816-2.672.816-.853 0-1.621-.187-2.304-.56a4.122 4.122 0 0 1-1.584-1.616c-.373-.693-.56-1.493-.56-2.4 0-.917.187-1.723.56-2.416a3.907 3.907 0 0 1 1.568-1.6c.672-.373 1.446-.56 2.32-.56.843 0 1.595.181 2.256.544a3.75 3.75 0 0 1 1.552 1.552c.374.661.56 1.424.56 2.288Zm-2.32-.64c-.01-.576-.218-1.035-.624-1.376-.405-.352-.901-.528-1.488-.528-.554 0-1.024.17-1.408.512-.373.33-.602.795-.688 1.392h4.208Z"/>
  <path fill="#7CA845" d="M79 18.224h3.68V20h-5.92V8.832H79v9.392Zm9.04 1.92c-.853 0-1.621-.187-2.304-.56a4.201 4.201 0 0 1-1.616-1.616c-.384-.693-.576-1.493-.576-2.4 0-.907.197-1.707.592-2.4a4.168 4.168 0 0 1 1.648-1.6c.693-.384 1.467-.576 2.32-.576.853 0 1.627.192 2.32.576a4.061 4.061 0 0 1 1.632 1.6c.405.693.608 1.493.608 2.4 0 .907-.208 1.707-.624 2.4a4.252 4.252 0 0 1-1.664 1.616c-.693.373-1.472.56-2.336.56Zm0-1.952c.405 0 .784-.096 1.136-.288.363-.203.65-.501.864-.896.213-.395.32-.875.32-1.44 0-.843-.224-1.488-.672-1.936a2.145 2.145 0 0 0-1.616-.688c-.64 0-1.179.23-1.616.688-.427.448-.64 1.093-.64 1.936s.208 1.493.624 1.952c.427.448.96.672 1.6.672Zm5.691-2.656c0-.896.176-1.69.528-2.384.363-.693.848-1.227 1.456-1.6a3.918 3.918 0 0 1 2.064-.56c.662 0 1.237.133 1.728.4.501.267.901.603 1.2 1.008v-1.264h2.256V20h-2.256v-1.296c-.288.416-.688.763-1.2 1.04-.501.267-1.083.4-1.744.4-.747 0-1.43-.192-2.048-.576-.608-.384-1.093-.923-1.456-1.616-.352-.704-.528-1.51-.528-2.416Zm6.976.032c0-.544-.107-1.008-.32-1.392a2.187 2.187 0 0 0-.864-.896 2.265 2.265 0 0 0-1.168-.32c-.416 0-.8.101-1.152.304-.352.203-.64.501-.864.896-.213.384-.32.843-.32 1.376 0 .533.107 1.003.32 1.408.224.395.512.699.864.912.363.213.747.32 1.152.32.416 0 .805-.101 1.168-.304a2.32 2.32 0 0 0 .864-.896c.213-.395.32-.864.32-1.408Zm9.356-4.56c1.056 0 1.909.336 2.56 1.008.651.661.976 1.59.976 2.784V20h-2.24v-4.896c0-.704-.176-1.243-.528-1.616-.352-.384-.832-.576-1.44-.576-.619 0-1.109.192-1.472.576-.352.373-.528.912-.528 1.616V20h-2.24v-8.864h2.24v1.104a3.037 3.037 0 0 1 1.136-.896 3.518 3.518 0 0 1 1.536-.336Zm9.058 9.136c-.725 0-1.376-.128-1.952-.384-.576-.267-1.035-.624-1.376-1.072a2.725 2.725 0 0 1-.544-1.488h2.256c.043.341.208.624.496.848.299.224.667.336 1.104.336.427 0 .757-.085.992-.256.245-.17.368-.39.368-.656 0-.288-.149-.501-.448-.64-.288-.15-.752-.31-1.392-.48a12.287 12.287 0 0 1-1.632-.496 2.898 2.898 0 0 1-1.088-.784c-.299-.352-.448-.827-.448-1.424 0-.49.139-.939.416-1.344.288-.405.693-.725 1.216-.96.533-.235 1.157-.352 1.872-.352 1.056 0 1.899.267 2.528.8.629.523.976 1.232 1.04 2.128h-2.144a1.124 1.124 0 0 0-.448-.832c-.256-.213-.603-.32-1.04-.32-.405 0-.72.075-.944.224a.72.72 0 0 0-.32.624c0 .299.149.528.448.688.299.15.763.304 1.392.464.64.16 1.168.325 1.584.496.416.17.773.437 1.072.8.309.352.469.821.48 1.408 0 .512-.144.97-.432 1.376-.277.405-.683.725-1.216.96-.523.224-1.136.336-1.84.336Z"/>
  <path fill="url(#a)" d="m16.397 18.518 4.45-5.335c.297-.357.476-.968.476-1.625V1.381a.493.493 0 0 0-.872-.316l-4.054 4.862c-.425.51-.91.765-1.397.765v12.59c.486 0 .972-.254 1.397-.764Z"/>
  <path fill="url(#b)" d="m16.397 18.518 4.45-5.335c.297-.357.476-.968.476-1.625V1.381a.493.493 0 0 0-.872-.316l-4.054 4.862c-.425.51-.91.765-1.397.765v12.59c.486 0 .972-.254 1.397-.764Z"/>
  <path fill="url(#c)" d="M12.089 5.753 3.475.173c-.71-.46-1.648.05-1.648.896V12.09c0 .739.374 1.428.994 1.83l9.268 6.003a5.354 5.354 0 0 0 5.822 0l9.268-6.004a2.18 2.18 0 0 0 .994-1.829V1.07c0-.847-.938-1.357-1.648-.897l-8.614 5.58a5.355 5.355 0 0 1-5.822 0Z"/>
  <path fill="url(#d)" d="M12.35 7.58 4.505 2.5a.972.972 0 0 0-1.5.815V13.35c0 .673.34 1.3.905 1.665l8.438 5.466a4.875 4.875 0 0 0 5.302 0l8.438-5.466c.564-.366.905-.992.905-1.665V3.315a.972.972 0 0 0-1.5-.815L17.65 7.58a4.875 4.875 0 0 1-5.302 0Z"/>
  <path fill="url(#e)" d="M28.173 2.775v9.315a2.18 2.18 0 0 1-.994 1.83l-3.134 2.03-6.134 3.973a5.35 5.35 0 0 1-2.911.86V8.319a5.35 5.35 0 0 0 2.911-.86l8.614-5.58c.71-.46 1.648.05 1.648.896Z"/>
  <path fill="url(#f)" d="M1.827 2.775v9.315c0 .739.374 1.428.994 1.83l3.134 2.03 6.134 3.973a5.35 5.35 0 0 0 2.911.86V8.319a5.35 5.35 0 0 1-2.911-.86L3.475 1.88c-.71-.46-1.648.05-1.648.896Z"/>
  <path fill="url(#g)" d="M11.685 10.933 1.877 4.58A1.216 1.216 0 0 0 0 5.6v12.55c0 .841.426 1.625 1.132 2.083l10.553 6.836a6.097 6.097 0 0 0 6.63 0l10.553-6.836A2.481 2.481 0 0 0 30 18.149V5.599a1.216 1.216 0 0 0-1.877-1.02l-9.808 6.354a6.097 6.097 0 0 1-6.63 0Z"/>
  <path fill="url(#h)" d="m18.315 27.068 10.553-6.836A2.481 2.481 0 0 0 30 18.149V5.599a1.216 1.216 0 0 0-1.877-1.02l-9.808 6.354a6.092 6.092 0 0 1-3.315.98v16.135a6.091 6.091 0 0 0 3.315-.98Z"/>
  <path fill="url(#i)" d="M30 11.737v6.412c0 .841-.427 1.625-1.132 2.083l-10.553 6.835a6.087 6.087 0 0 1-3.315.98v-6.411a6.094 6.094 0 0 0 3.315-.98l10.553-6.836A2.482 2.482 0 0 0 30 11.737Z"/>
  <path fill="url(#j)" d="M0 11.737v6.412c0 .841.426 1.625 1.132 2.083l10.553 6.835a6.087 6.087 0 0 0 3.315.98v-6.411a6.094 6.094 0 0 1-3.315-.98L1.132 13.82A2.482 2.482 0 0 1 0 11.737Z"/>
  <path fill="url(#k)" d="M9.843 16.636v6.017l-7.512-7.512c-.504-.392 2.613-3.51 3.005-3.006l4.507 4.501Z"/>
  <path fill="url(#l)" d="M3.644 15.591a2.142 2.142 0 1 0 0-4.285 2.142 2.142 0 0 0 0 4.285Z"/>
  <defs>
    <linearGradient id="a" x1="13.123" x2="17.669" y1="5.19" y2="9.736" gradientUnits="userSpaceOnUse">
      <stop stop-color="#BCE097"/>
      <stop offset="1" stop-color="#7DC03A"/>
    </linearGradient>
    <linearGradient id="b" x1="15.264" x2="16.558" y1="6.428" y2="8.134" gradientUnits="userSpaceOnUse">
      <stop stop-color="#3E6E66" stop-opacity="0"/>
      <stop offset="1" stop-color="#3E6E66"/>
    </linearGradient>
    <linearGradient id="c" x1="6.737" x2="20.397" y1="-1.454" y2="12.207" gradientUnits="userSpaceOnUse">
      <stop stop-color="#BCE097"/>
      <stop offset="1" stop-color="#7DC03A"/>
    </linearGradient>
    <linearGradient id="d" x1="7.966" x2="18.436" y1="-4.822" y2="14.943" gradientUnits="userSpaceOnUse">
      <stop stop-color="#8CC951" stop-opacity="0"/>
      <stop offset="1" stop-color="#3E6E66"/>
    </linearGradient>
    <linearGradient id="e" x1="19.099" x2="20.51" y1="7.884" y2="10.002" gradientUnits="userSpaceOnUse">
      <stop stop-color="#3E6E66" stop-opacity="0"/>
      <stop offset="1" stop-color="#3E6E66"/>
    </linearGradient>
    <linearGradient id="f" x1="10.902" x2="9.49" y1="7.884" y2="10.002" gradientUnits="userSpaceOnUse">
      <stop stop-color="#3E6E66" stop-opacity="0"/>
      <stop offset="1" stop-color="#3E6E66"/>
    </linearGradient>
    <linearGradient id="g" x1="11.954" x2="24.895" y1="6.78" y2="29.133" gradientUnits="userSpaceOnUse">
      <stop stop-color="#6EAB31"/>
      <stop offset="1" stop-color="#464646"/>
    </linearGradient>
    <linearGradient id="h" x1="22.454" x2="19.395" y1="15.383" y2="30.442" gradientUnits="userSpaceOnUse">
      <stop stop-color="#464646" stop-opacity="0"/>
      <stop offset="1" stop-color="#202020"/>
    </linearGradient>
    <linearGradient id="i" x1="22.909" x2="24.377" y1="20.551" y2="22.915" gradientUnits="userSpaceOnUse">
      <stop stop-color="#264B00" stop-opacity="0"/>
      <stop offset="1" stop-color="#183100"/>
    </linearGradient>
    <linearGradient id="j" x1="6.997" x2="5.463" y1="20.881" y2="23.897" gradientUnits="userSpaceOnUse">
      <stop stop-color="#464646" stop-opacity="0"/>
      <stop offset="1" stop-color="#2A4312"/>
    </linearGradient>
    <linearGradient id="k" x1="6.657" x2="1.245" y1="16.891" y2="14.009" gradientUnits="userSpaceOnUse">
      <stop stop-color="#464646" stop-opacity="0"/>
      <stop offset="1" stop-color="#202020"/>
    </linearGradient>
    <linearGradient id="l" x1="2.046" x2="4.721" y1="11.851" y2="14.526" gradientUnits="userSpaceOnUse">
      <stop stop-color="#F7E07D"/>
      <stop offset=".289" stop-color="#F3CF6F"/>
      <stop offset=".862" stop-color="#E9A24B"/>
      <stop offset="1" stop-color="#E69642"/>
    </linearGradient>
  </defs>
</svg>
