<svg xmlns="http://www.w3.org/2000/svg" width="124" height="29" fill="none">
  <path fill="#2C2C2C" d="M44.704 8.832v1.808h-2.976V20h-2.24v-9.36h-2.976V8.832zm3.874 3.68a3.2 3.2 0 0 1 1.12-1.104q.705-.4 1.6-.4v2.352h-.592q-1.056 0-1.6.496-.528.496-.528 1.728V20h-2.24v-8.864h2.24zm5.365-2.432q-.592 0-.992-.368a1.28 1.28 0 0 1-.384-.944q0-.56.384-.928.4-.384.992-.384c.592 0 .72.128.976.384q.4.368.4.928c0 .56-.133.688-.4.944q-.384.368-.976.368m1.104 1.056V20h-2.24v-8.864zm1.637 4.432q0-1.375.56-2.4a3.94 3.94 0 0 1 1.552-1.6q.993-.576 2.272-.576 1.649 0 2.72.832 1.088.816 1.456 2.304h-2.416a1.7 1.7 0 0 0-.656-.896q-.447-.336-1.12-.336-.96 0-1.52.704-.56.688-.56 1.968 0 1.265.56 1.968.56.688 1.52.688 1.36 0 1.776-1.216h2.416q-.367 1.44-1.456 2.288t-2.72.848q-1.28 0-2.272-.56a4.07 4.07 0 0 1-1.552-1.6q-.56-1.04-.56-2.416m18.441-.192q0 .48-.064.864h-6.48q.081.96.672 1.504t1.456.544q1.248 0 1.776-1.072h2.416a4.08 4.08 0 0 1-1.472 2.112q-1.088.816-2.672.816-1.28 0-2.304-.56a4.1 4.1 0 0 1-1.584-1.616q-.56-1.04-.56-2.4 0-1.376.56-2.416a3.9 3.9 0 0 1 1.568-1.6q1.008-.56 2.32-.56 1.265 0 2.256.544a3.75 3.75 0 0 1 1.552 1.552q.56.992.56 2.288m-2.32-.64q-.015-.864-.624-1.376-.608-.528-1.488-.528-.832 0-1.408.512-.56.496-.688 1.392z"/>
  <path fill="#7CA845" d="M79 18.224h3.68V20h-5.92V8.832H79zm9.04 1.92q-1.28 0-2.304-.56a4.2 4.2 0 0 1-1.616-1.616q-.576-1.04-.576-2.4t.592-2.4a4.17 4.17 0 0 1 1.648-1.6q1.04-.576 2.32-.576t2.32.576a4.06 4.06 0 0 1 1.632 1.6q.608 1.04.608 2.4t-.624 2.4a4.25 4.25 0 0 1-1.664 1.616q-1.04.56-2.336.56m0-1.952q.608 0 1.136-.288.544-.304.864-.896t.32-1.44q0-1.264-.672-1.936a2.15 2.15 0 0 0-1.616-.688q-.96 0-1.616.688-.64.672-.64 1.936c0 1.264.208 1.493.624 1.952q.64.672 1.6.672m5.691-2.656q0-1.344.528-2.384.544-1.04 1.456-1.6a3.9 3.9 0 0 1 2.064-.56q.992 0 1.728.4.751.4 1.2 1.008v-1.264h2.256V20h-2.256v-1.296q-.432.624-1.2 1.04-.752.4-1.744.4-1.12 0-2.048-.576-.912-.576-1.456-1.616-.528-1.056-.528-2.416m6.976.032q0-.816-.32-1.392a2.2 2.2 0 0 0-.864-.896 2.27 2.27 0 0 0-1.168-.32q-.624 0-1.152.304t-.864.896q-.32.576-.32 1.376t.32 1.408q.336.593.864.912.545.32 1.152.32.624 0 1.168-.304a2.3 2.3 0 0 0 .864-.896q.32-.592.32-1.408m9.356-4.56q1.584 0 2.56 1.008.976.992.976 2.784V20h-2.24v-4.896q0-1.056-.528-1.616-.528-.576-1.44-.576-.928 0-1.472.576-.528.56-.528 1.616V20h-2.24v-8.864h2.24v1.104a3.04 3.04 0 0 1 1.136-.896 3.5 3.5 0 0 1 1.536-.336m9.058 9.136q-1.088 0-1.952-.384-.864-.4-1.376-1.072a2.73 2.73 0 0 1-.544-1.488h2.256q.064.512.496.848.449.336 1.104.336.64 0 .992-.256.368-.256.368-.656 0-.432-.448-.64-.432-.225-1.392-.48a12 12 0 0 1-1.632-.496 2.9 2.9 0 0 1-1.088-.784q-.448-.528-.448-1.424 0-.736.416-1.344.432-.607 1.216-.96.8-.352 1.872-.352 1.584 0 2.528.8.944.784 1.04 2.128h-2.144a1.12 1.12 0 0 0-.448-.832q-.384-.32-1.04-.32-.608 0-.944.224a.72.72 0 0 0-.32.624q0 .448.448.688.449.224 1.392.464.96.24 1.584.496.624.255 1.072.8.464.528.48 1.408 0 .767-.432 1.376-.416.608-1.216.96-.784.336-1.84.336"/>
  <path fill="url(#a)" d="m16.397 18.518 4.45-5.335c.297-.357.476-.968.476-1.625V1.381a.493.493 0 0 0-.872-.316l-4.054 4.862c-.425.51-.91.765-1.397.765v12.59c.486 0 .972-.254 1.397-.764"/>
  <path fill="url(#b)" d="m16.397 18.518 4.45-5.335c.297-.357.476-.968.476-1.625V1.381a.493.493 0 0 0-.872-.316l-4.054 4.862c-.425.51-.91.765-1.397.765v12.59c.486 0 .972-.254 1.397-.764"/>
  <path fill="url(#c)" d="M12.089 5.753 3.475.173c-.71-.46-1.648.05-1.648.896V12.09c0 .739.374 1.428.994 1.83l9.268 6.003a5.35 5.35 0 0 0 5.822 0l9.268-6.004a2.18 2.18 0 0 0 .994-1.829V1.07c0-.847-.938-1.357-1.648-.897l-8.614 5.58a5.36 5.36 0 0 1-5.822 0"/>
  <path fill="url(#d)" d="M12.35 7.58 4.505 2.5a.972.972 0 0 0-1.5.815V13.35c0 .673.34 1.3.905 1.665l8.438 5.466a4.88 4.88 0 0 0 5.302 0l8.438-5.466c.564-.366.905-.992.905-1.665V3.315a.972.972 0 0 0-1.5-.815L17.65 7.58a4.88 4.88 0 0 1-5.302 0Z"/>
  <path fill="url(#e)" d="M28.173 2.775v9.315a2.18 2.18 0 0 1-.994 1.83l-3.134 2.03-6.134 3.973a5.35 5.35 0 0 1-2.911.86V8.319a5.35 5.35 0 0 0 2.911-.86l8.614-5.58c.71-.46 1.648.05 1.648.896"/>
  <path fill="url(#f)" d="M1.827 2.775v9.315c0 .739.374 1.428.994 1.83l3.134 2.03 6.134 3.973a5.35 5.35 0 0 0 2.911.86V8.319a5.35 5.35 0 0 1-2.911-.86L3.475 1.88c-.71-.46-1.648.05-1.648.896Z"/>
  <path fill="url(#g)" d="M11.685 10.933 1.877 4.58A1.216 1.216 0 0 0 0 5.6v12.55c0 .841.426 1.625 1.132 2.083l10.553 6.836a6.1 6.1 0 0 0 6.63 0l10.553-6.836A2.48 2.48 0 0 0 30 18.149V5.599a1.216 1.216 0 0 0-1.877-1.02l-9.808 6.354a6.1 6.1 0 0 1-6.63 0"/>
  <path fill="url(#h)" d="m18.315 27.068 10.553-6.836A2.48 2.48 0 0 0 30 18.149V5.599a1.216 1.216 0 0 0-1.877-1.02l-9.808 6.354a6.1 6.1 0 0 1-3.315.98v16.135a6.1 6.1 0 0 0 3.315-.98"/>
  <path fill="url(#i)" d="M30 11.737v6.412c0 .841-.427 1.625-1.132 2.083l-10.553 6.835a6.1 6.1 0 0 1-3.315.98v-6.411a6.1 6.1 0 0 0 3.315-.98l10.553-6.836A2.48 2.48 0 0 0 30 11.737"/>
  <path fill="url(#j)" d="M0 11.737v6.412c0 .841.426 1.625 1.132 2.083l10.553 6.835a6.1 6.1 0 0 0 3.315.98v-6.411a6.1 6.1 0 0 1-3.315-.98L1.132 13.82A2.48 2.48 0 0 1 0 11.737"/>
  <path fill="url(#k)" d="M9.843 16.636v6.017l-7.512-7.512c-.504-.392 2.613-3.51 3.005-3.006z"/>
  <path fill="url(#l)" d="M3.644 15.591a2.142 2.142 0 1 0 0-4.285 2.142 2.142 0 0 0 0 4.285"/>
  <defs>
    <linearGradient id="a" x1="13.123" x2="17.669" y1="5.19" y2="9.736" gradientUnits="userSpaceOnUse">
      <stop stop-color="#BCE097"/>
      <stop offset="1" stop-color="#7DC03A"/>
    </linearGradient>
    <linearGradient id="b" x1="15.264" x2="16.558" y1="6.428" y2="8.134" gradientUnits="userSpaceOnUse">
      <stop stop-color="#3E6E66" stop-opacity="0"/>
      <stop offset="1" stop-color="#3E6E66"/>
    </linearGradient>
    <linearGradient id="c" x1="6.737" x2="20.397" y1="-1.454" y2="12.207" gradientUnits="userSpaceOnUse">
      <stop stop-color="#BCE097"/>
      <stop offset="1" stop-color="#7DC03A"/>
    </linearGradient>
    <linearGradient id="d" x1="7.966" x2="18.436" y1="-4.822" y2="14.943" gradientUnits="userSpaceOnUse">
      <stop stop-color="#8CC951" stop-opacity="0"/>
      <stop offset="1" stop-color="#3E6E66"/>
    </linearGradient>
    <linearGradient id="e" x1="19.099" x2="20.51" y1="7.884" y2="10.002" gradientUnits="userSpaceOnUse">
      <stop stop-color="#3E6E66" stop-opacity="0"/>
      <stop offset="1" stop-color="#3E6E66"/>
    </linearGradient>
    <linearGradient id="f" x1="10.902" x2="9.49" y1="7.884" y2="10.002" gradientUnits="userSpaceOnUse">
      <stop stop-color="#3E6E66" stop-opacity="0"/>
      <stop offset="1" stop-color="#3E6E66"/>
    </linearGradient>
    <linearGradient id="g" x1="11.954" x2="24.895" y1="6.78" y2="29.133" gradientUnits="userSpaceOnUse">
      <stop stop-color="#6EAB31"/>
      <stop offset="1" stop-color="#464646"/>
    </linearGradient>
    <linearGradient id="h" x1="22.454" x2="19.395" y1="15.383" y2="30.442" gradientUnits="userSpaceOnUse">
      <stop stop-color="#464646" stop-opacity="0"/>
      <stop offset="1" stop-color="#202020"/>
    </linearGradient>
    <linearGradient id="i" x1="22.909" x2="24.377" y1="20.551" y2="22.915" gradientUnits="userSpaceOnUse">
      <stop stop-color="#264B00" stop-opacity="0"/>
      <stop offset="1" stop-color="#183100"/>
    </linearGradient>
    <linearGradient id="j" x1="6.997" x2="5.463" y1="20.881" y2="23.897" gradientUnits="userSpaceOnUse">
      <stop stop-color="#464646" stop-opacity="0"/>
      <stop offset="1" stop-color="#2A4312"/>
    </linearGradient>
    <linearGradient id="k" x1="6.657" x2="1.245" y1="16.891" y2="14.009" gradientUnits="userSpaceOnUse">
      <stop stop-color="#464646" stop-opacity="0"/>
      <stop offset="1" stop-color="#202020"/>
    </linearGradient>
    <linearGradient id="l" x1="2.046" x2="4.721" y1="11.851" y2="14.526" gradientUnits="userSpaceOnUse">
      <stop stop-color="#F7E07D"/>
      <stop offset=".289" stop-color="#F3CF6F"/>
      <stop offset=".862" stop-color="#E9A24B"/>
      <stop offset="1" stop-color="#E69642"/>
    </linearGradient>
  </defs>
</svg>
