<svg width="272" height="285" viewBox="0 0 272 285" fill="none" xmlns="http://www.w3.org/2000/svg">
<rect width="271.26" height="285" rx="8" fill="#17D4A7"/>
<path d="M12 20.8135C12 15.946 15.946 12 20.8136 12H271.266V272.249H20.8136C15.946 272.249 12 268.303 12 263.435V20.8135Z" fill="#3B103D"/>
<g clip-path="url(#clip0_4352_15230)">
<rect x="29.6271" y="29.6271" width="14.6893" height="14.6893" rx="4.40678" fill="#3B103D"/>
<circle cx="37.114" cy="36.356" r="3.05677" fill="white"/>
<path d="M30.5177 45.0508C30.5177 42.2925 32.7537 40.0565 35.5121 40.0565H38.7157C41.474 40.0565 43.7101 42.2925 43.7101 45.0508H30.5177Z" fill="white"/>
</g>
<rect x="36.421" y="37.1556" width="12.1186" height="12.1186" rx="3.4887" fill="#4F2851" stroke="#3B103D" stroke-width="1.10169"/>
<path d="M44.566 45.9719H40.3055V45.2102L41.9366 43.5577C42.2521 43.2363 42.5118 42.9595 42.7155 42.7271C42.9192 42.4918 43.0698 42.2695 43.1674 42.06C43.2678 41.8506 43.318 41.6225 43.318 41.3758C43.318 41.0717 43.2305 40.8422 43.0555 40.6872C42.8805 40.5294 42.6495 40.4505 42.3626 40.4505C42.09 40.4505 41.8376 40.505 41.6052 40.6141C41.3757 40.7202 41.1375 40.8723 40.8908 41.0702L40.3357 40.4032C40.5107 40.254 40.6971 40.1177 40.8951 39.9944C41.0959 39.871 41.3197 39.7735 41.5665 39.7017C41.8132 39.6271 42.0943 39.5898 42.4099 39.5898C42.8087 39.5898 43.153 39.6616 43.4428 39.805C43.7325 39.9456 43.9549 40.1421 44.1098 40.3946C44.2676 40.6471 44.3465 40.9411 44.3465 41.2768C44.3465 41.6154 44.2791 41.9281 44.1442 42.215C44.0094 42.5019 43.8172 42.7859 43.5676 43.0671C43.318 43.3454 43.021 43.648 42.6768 43.9751L41.588 45.0381V45.0854H44.566V45.9719Z" fill="#BBADBC"/>
<path d="M55.1727 34.6653H58.1367C59.4223 34.6653 60.3921 34.8515 61.0463 35.224C61.7004 35.5965 62.0275 36.2393 62.0275 37.1523C62.0275 37.5339 61.9593 37.8791 61.823 38.188C61.6913 38.4924 61.4982 38.7445 61.2439 38.9444C60.9895 39.1397 60.676 39.2714 60.3035 39.3396V39.4077C60.6897 39.4759 61.0326 39.5962 61.3324 39.7688C61.6368 39.9415 61.8753 40.189 62.0479 40.5116C62.2251 40.8341 62.3136 41.252 62.3136 41.7653C62.3136 42.374 62.1683 42.8919 61.8776 43.3189C61.5914 43.7459 61.1803 44.0707 60.6442 44.2933C60.1128 44.5158 59.4813 44.6271 58.75 44.6271H55.1727V34.6653ZM56.808 38.774H58.3752C59.1157 38.774 59.629 38.6536 59.9152 38.4129C60.2013 38.1721 60.3444 37.8201 60.3444 37.3567C60.3444 36.8843 60.1741 36.5436 59.8334 36.3347C59.4972 36.1257 58.9612 36.0212 58.2253 36.0212H56.808V38.774ZM56.808 40.0959V43.2575H58.5319C59.2951 43.2575 59.8311 43.1099 60.14 42.8146C60.4489 42.5194 60.6034 42.1196 60.6034 41.6154C60.6034 41.3065 60.5329 41.0385 60.3921 40.8114C60.2558 40.5842 60.031 40.4094 59.7176 40.2867C59.4041 40.1595 58.9817 40.0959 58.4502 40.0959H56.808ZM67.3327 36.9411C67.4599 36.9411 67.5985 36.9479 67.7484 36.9615C67.8983 36.9752 68.0277 36.9933 68.1368 37.016L67.9869 38.5151C67.8915 38.4878 67.7734 38.4674 67.6325 38.4538C67.4963 38.4401 67.3736 38.4333 67.2646 38.4333C66.9784 38.4333 66.7059 38.481 66.4469 38.5764C66.188 38.6673 65.9586 38.8081 65.7587 38.9989C65.5589 39.1851 65.4021 39.4191 65.2886 39.7007C65.175 39.9823 65.1182 40.3094 65.1182 40.6819V44.6271H63.5102V37.0842H64.7639L64.9819 38.4129H65.0569C65.2068 38.1449 65.3931 37.8996 65.6156 37.677C65.8382 37.4544 66.0926 37.2772 66.3788 37.1455C66.6695 37.0092 66.9875 36.9411 67.3327 36.9411ZM71.7931 36.9411C72.747 36.9411 73.467 37.1523 73.9531 37.5748C74.4437 37.9972 74.689 38.6559 74.689 39.5508V44.6271H73.5511L73.2444 43.5574H73.1899C72.9764 43.8299 72.7561 44.0548 72.529 44.2319C72.3019 44.4091 72.0384 44.5408 71.7386 44.6271C71.4433 44.718 71.0822 44.7634 70.6552 44.7634C70.2055 44.7634 69.8034 44.6816 69.4491 44.5181C69.0948 44.35 68.8154 44.0957 68.611 43.755C68.4066 43.4143 68.3044 42.9827 68.3044 42.4603C68.3044 41.6835 68.5928 41.0998 69.1698 40.7092C69.7512 40.3185 70.6279 40.1027 71.7999 40.0618L73.1082 40.0141V39.6189C73.1082 39.0965 72.9855 38.7241 72.7402 38.5015C72.4995 38.2789 72.1588 38.1676 71.7181 38.1676C71.3411 38.1676 70.9754 38.2221 70.6211 38.3311C70.2668 38.4401 69.9215 38.5741 69.5854 38.7331L69.0675 37.602C69.4355 37.4067 69.8534 37.2477 70.3213 37.1251C70.7937 37.0024 71.2843 36.9411 71.7931 36.9411ZM73.1014 41.0226L72.127 41.0567C71.3275 41.0839 70.7665 41.2202 70.4439 41.4655C70.1214 41.7108 69.9602 42.047 69.9602 42.474C69.9602 42.8464 70.0715 43.119 70.294 43.2916C70.5166 43.4597 70.8096 43.5437 71.173 43.5437C71.7272 43.5437 72.186 43.387 72.5494 43.0736C72.9174 42.7556 73.1014 42.29 73.1014 41.6767V41.0226ZM78.7678 44.7634C77.8683 44.7634 77.1461 44.4363 76.601 43.7822C76.0604 43.1235 75.7901 42.1537 75.7901 40.8727C75.7901 39.5781 76.0649 38.5991 76.6146 37.9359C77.1688 37.2727 77.8979 36.9411 78.8018 36.9411C79.1834 36.9411 79.5173 36.9933 79.8035 37.0978C80.0897 37.1977 80.335 37.334 80.5394 37.5066C80.7483 37.6793 80.9255 37.8723 81.0709 38.0858H81.1458C81.1231 37.945 81.0958 37.7429 81.064 37.4794C81.0368 37.2114 81.0232 36.9638 81.0232 36.7367V34.0248H82.6312V44.6271H81.3775L81.0913 43.5982H81.0232C80.8869 43.8163 80.7143 44.0139 80.5053 44.191C80.3009 44.3637 80.0556 44.5022 79.7694 44.6067C79.4878 44.7112 79.1539 44.7634 78.7678 44.7634ZM79.2175 43.462C79.9034 43.462 80.3872 43.2644 80.6688 42.8692C80.9505 42.474 81.0958 41.8811 81.1049 41.0907V40.8795C81.1049 40.0346 80.9686 39.3873 80.6961 38.9376C80.4235 38.4833 79.9261 38.2562 79.2039 38.2562C78.6269 38.2562 78.1863 38.4901 77.882 38.958C77.5822 39.4213 77.4322 40.0687 77.4322 40.9C77.4322 41.7312 77.5822 42.3672 77.882 42.8078C78.1863 43.2439 78.6315 43.462 79.2175 43.462ZM83.0918 37.0842H84.8362L86.3829 41.3905C86.4511 41.5859 86.5124 41.7789 86.5669 41.9697C86.626 42.156 86.6759 42.3399 86.7168 42.5217C86.7623 42.7034 86.7986 42.8851 86.8258 43.0668H86.8667C86.9122 42.8305 86.9758 42.5671 87.0575 42.2764C87.1438 41.9811 87.2392 41.6858 87.3437 41.3905L88.8291 37.0842H90.553L87.3164 45.6628C87.1302 46.1534 86.9008 46.5714 86.6282 46.9166C86.3602 47.2664 86.0423 47.5298 85.6743 47.707C85.3064 47.8887 84.8862 47.9796 84.4137 47.9796C84.1866 47.9796 83.989 47.9659 83.8209 47.9387C83.6529 47.916 83.5098 47.891 83.3917 47.8637V46.5827C83.4871 46.6054 83.6074 46.6259 83.7528 46.644C83.8982 46.6622 84.0481 46.6713 84.2025 46.6713C84.4887 46.6713 84.7363 46.6145 84.9452 46.501C85.1542 46.3874 85.3313 46.2261 85.4767 46.0172C85.6221 45.8127 85.7424 45.5788 85.8378 45.3153L86.1036 44.6067L83.0918 37.0842ZM98.3903 44.6271L95.5217 36.3074H95.4604C95.474 36.4936 95.4899 36.748 95.5081 37.0706C95.5262 37.3931 95.5421 37.7383 95.5558 38.1063C95.5694 38.4742 95.5762 38.8263 95.5762 39.1624V44.6271H94.0908V34.6653H96.3871L99.1467 42.617H99.1876L102.043 34.6653H104.332V44.6271H102.772V39.0806C102.772 38.7763 102.776 38.447 102.785 38.0926C102.799 37.7383 102.813 37.4022 102.826 37.0842C102.844 36.7662 102.858 36.5118 102.867 36.321H102.813L99.8349 44.6271H98.3903ZM109.133 44.7634C108.42 44.7634 107.802 44.6249 107.28 44.3478C106.757 44.0707 106.355 43.6459 106.074 43.0736C105.792 42.5012 105.651 41.7744 105.651 40.8931C105.651 39.9755 105.806 39.226 106.115 38.6446C106.423 38.0631 106.85 37.6338 107.396 37.3567C107.945 37.0796 108.574 36.9411 109.283 36.9411C109.733 36.9411 110.139 36.9865 110.503 37.0774C110.871 37.1637 111.182 37.2704 111.436 37.3976L110.959 38.6786C110.682 38.5651 110.398 38.4697 110.107 38.3924C109.817 38.3152 109.537 38.2766 109.269 38.2766C108.829 38.2766 108.461 38.3743 108.166 38.5696C107.875 38.7649 107.657 39.0557 107.511 39.4418C107.371 39.8279 107.3 40.3071 107.3 40.8795C107.3 41.4337 107.373 41.9016 107.518 42.2832C107.664 42.6602 107.879 42.9464 108.166 43.1417C108.452 43.3325 108.804 43.4279 109.222 43.4279C109.635 43.4279 110.005 43.3779 110.332 43.278C110.659 43.1781 110.968 43.0486 111.259 42.8896V44.2796C110.973 44.4432 110.666 44.5635 110.339 44.6408C110.012 44.7225 109.61 44.7634 109.133 44.7634ZM113.934 34.0248V39.1488C113.934 39.3805 113.925 39.6348 113.907 39.9119C113.889 40.1845 113.871 40.4411 113.852 40.6819H113.886C114.005 40.5229 114.145 40.3367 114.309 40.1232C114.477 39.9097 114.636 39.7234 114.786 39.5644L117.089 37.0842H118.929L115.91 40.3276L119.126 44.6271H117.246L114.834 41.3156L113.934 42.0856V44.6271H112.333V34.0248H113.934ZM122.64 36.9411C123.312 36.9411 123.889 37.0796 124.37 37.3567C124.852 37.6338 125.222 38.0268 125.481 38.5355C125.74 39.0443 125.869 39.653 125.869 40.3617V41.2202H120.834C120.852 41.9516 121.047 42.5148 121.42 42.91C121.797 43.3052 122.324 43.5028 123.001 43.5028C123.482 43.5028 123.914 43.4574 124.295 43.3666C124.681 43.2712 125.079 43.1326 125.488 42.9509V44.2524C125.111 44.4295 124.727 44.559 124.336 44.6408C123.946 44.7225 123.478 44.7634 122.933 44.7634C122.192 44.7634 121.54 44.6203 120.977 44.3341C120.418 44.0434 119.98 43.6119 119.662 43.0395C119.348 42.4671 119.192 41.7562 119.192 40.9068C119.192 40.0618 119.335 39.3441 119.621 38.7536C119.907 38.163 120.309 37.7133 120.827 37.4044C121.345 37.0955 121.949 36.9411 122.64 36.9411ZM122.64 38.1471C122.135 38.1471 121.726 38.3107 121.413 38.6377C121.104 38.9648 120.922 39.4441 120.868 40.0755H124.302C124.298 39.6984 124.234 39.3646 124.111 39.0738C123.993 38.7831 123.812 38.556 123.566 38.3924C123.325 38.2289 123.017 38.1471 122.64 38.1471ZM130.909 36.9411C131.758 36.9411 132.419 37.1614 132.892 37.602C133.369 38.0381 133.607 38.74 133.607 39.7075V44.6271H132.006V40.0073C132.006 39.4213 131.886 38.983 131.645 38.6923C131.404 38.397 131.032 38.2494 130.527 38.2494C129.796 38.2494 129.287 38.4742 129.001 38.9239C128.719 39.3736 128.579 40.0255 128.579 40.8795V44.6271H126.977V37.0842H128.224L128.449 38.1063H128.538C128.701 37.8428 128.903 37.627 129.144 37.4589C129.389 37.2863 129.662 37.1569 129.962 37.0706C130.266 36.9842 130.582 36.9411 130.909 36.9411ZM139.083 36.9411C139.932 36.9411 140.593 37.1614 141.066 37.602C141.543 38.0381 141.781 38.74 141.781 39.7075V44.6271H140.18V40.0073C140.18 39.4213 140.059 38.983 139.819 38.6923C139.578 38.397 139.205 38.2494 138.701 38.2494C137.97 38.2494 137.461 38.4742 137.175 38.9239C136.893 39.3736 136.752 40.0255 136.752 40.8795V44.6271H135.151V37.0842H136.398L136.623 38.1063H136.712C136.875 37.8428 137.077 37.627 137.318 37.4589C137.563 37.2863 137.836 37.1569 138.136 37.0706C138.44 36.9842 138.756 36.9411 139.083 36.9411ZM146.282 36.9411C147.236 36.9411 147.956 37.1523 148.442 37.5748C148.933 37.9972 149.178 38.6559 149.178 39.5508V44.6271H148.04L147.734 43.5574H147.679C147.466 43.8299 147.245 44.0548 147.018 44.2319C146.791 44.4091 146.528 44.5408 146.228 44.6271C145.933 44.718 145.571 44.7634 145.144 44.7634C144.695 44.7634 144.293 44.6816 143.938 44.5181C143.584 44.35 143.305 44.0957 143.1 43.755C142.896 43.4143 142.794 42.9827 142.794 42.4603C142.794 41.6835 143.082 41.0998 143.659 40.7092C144.24 40.3185 145.117 40.1027 146.289 40.0618L147.597 40.0141V39.6189C147.597 39.0965 147.475 38.7241 147.229 38.5015C146.989 38.2789 146.648 38.1676 146.207 38.1676C145.83 38.1676 145.465 38.2221 145.11 38.3311C144.756 38.4401 144.411 38.5741 144.075 38.7331L143.557 37.602C143.925 37.4067 144.343 37.2477 144.811 37.1251C145.283 37.0024 145.774 36.9411 146.282 36.9411ZM147.591 41.0226L146.616 41.0567C145.817 41.0839 145.256 41.2202 144.933 41.4655C144.611 41.7108 144.449 42.047 144.449 42.474C144.449 42.8464 144.561 43.119 144.783 43.2916C145.006 43.4597 145.299 43.5437 145.662 43.5437C146.216 43.5437 146.675 43.387 147.039 43.0736C147.407 42.7556 147.591 42.29 147.591 41.6767V41.0226ZM152.337 43.0054L152.432 43.1622C152.351 43.4892 152.246 43.8413 152.119 44.2183C151.992 44.5953 151.853 44.9724 151.703 45.3494C151.554 45.731 151.401 46.0898 151.247 46.426H150.075C150.17 46.058 150.261 45.6719 150.347 45.2676C150.438 44.8679 150.52 44.4727 150.593 44.082C150.67 43.6868 150.731 43.328 150.777 43.0054H152.337ZM161.162 35.9122C160.685 35.9122 160.258 35.9985 159.881 36.1711C159.509 36.3437 159.193 36.5936 158.934 36.9207C158.675 37.2432 158.478 37.6361 158.341 38.0995C158.205 38.5583 158.137 39.0761 158.137 39.653C158.137 40.4253 158.246 41.0907 158.464 41.6495C158.682 42.2037 159.014 42.6307 159.459 42.9305C159.904 43.2258 160.467 43.3734 161.149 43.3734C161.571 43.3734 161.982 43.3325 162.382 43.2507C162.782 43.169 163.195 43.0577 163.622 42.9169V44.3069C163.218 44.4659 162.809 44.5817 162.396 44.6544C161.982 44.7271 161.505 44.7634 160.965 44.7634C159.947 44.7634 159.102 44.5522 158.43 44.1297C157.762 43.7073 157.263 43.1122 156.931 42.3445C156.604 41.5768 156.44 40.6774 156.44 39.6462C156.44 38.8921 156.545 38.2017 156.754 37.5748C156.963 36.9479 157.267 36.4073 157.667 35.9531C158.067 35.4943 158.56 35.1422 159.146 34.8969C159.736 34.6471 160.411 34.5222 161.169 34.5222C161.669 34.5222 162.16 34.579 162.641 34.6925C163.127 34.8015 163.577 34.9583 163.99 35.1627L163.418 36.5118C163.073 36.3483 162.711 36.2075 162.334 36.0894C161.957 35.9713 161.567 35.9122 161.162 35.9122ZM166.502 34.0248V36.689C166.502 36.9661 166.493 37.2364 166.475 37.4998C166.461 37.7633 166.445 37.9677 166.427 38.1131H166.515C166.674 37.8496 166.87 37.6338 167.101 37.4658C167.333 37.2931 167.592 37.1637 167.878 37.0774C168.169 36.9911 168.478 36.9479 168.805 36.9479C169.382 36.9479 169.872 37.0456 170.277 37.2409C170.681 37.4317 170.99 37.7292 171.203 38.1335C171.421 38.5378 171.53 39.0625 171.53 39.7075V44.6271H169.929V40.0073C169.929 39.4213 169.809 38.983 169.568 38.6923C169.327 38.397 168.955 38.2494 168.451 38.2494C167.964 38.2494 167.578 38.3516 167.292 38.556C167.011 38.7559 166.808 39.0534 166.686 39.4486C166.563 39.8393 166.502 40.3162 166.502 40.8795V44.6271H164.901V34.0248H166.502ZM176.032 36.9411C176.986 36.9411 177.706 37.1523 178.192 37.5748C178.682 37.9972 178.928 38.6559 178.928 39.5508V44.6271H177.79L177.483 43.5574H177.428C177.215 43.8299 176.995 44.0548 176.768 44.2319C176.54 44.4091 176.277 44.5408 175.977 44.6271C175.682 44.718 175.321 44.7634 174.894 44.7634C174.444 44.7634 174.042 44.6816 173.688 44.5181C173.333 44.35 173.054 44.0957 172.85 43.755C172.645 43.4143 172.543 42.9827 172.543 42.4603C172.543 41.6835 172.831 41.0998 173.408 40.7092C173.99 40.3185 174.866 40.1027 176.038 40.0618L177.347 40.0141V39.6189C177.347 39.0965 177.224 38.7241 176.979 38.5015C176.738 38.2789 176.397 38.1676 175.957 38.1676C175.58 38.1676 175.214 38.2221 174.86 38.3311C174.505 38.4401 174.16 38.5741 173.824 38.7331L173.306 37.602C173.674 37.4067 174.092 37.2477 174.56 37.1251C175.032 37.0024 175.523 36.9411 176.032 36.9411ZM177.34 41.0226L176.366 41.0567C175.566 41.0839 175.005 41.2202 174.683 41.4655C174.36 41.7108 174.199 42.047 174.199 42.474C174.199 42.8464 174.31 43.119 174.533 43.2916C174.755 43.4597 175.048 43.5437 175.412 43.5437C175.966 43.5437 176.425 43.387 176.788 43.0736C177.156 42.7556 177.34 42.29 177.34 41.6767V41.0226ZM184.403 36.9411C185.253 36.9411 185.914 37.1614 186.386 37.602C186.863 38.0381 187.101 38.74 187.101 39.7075V44.6271H185.5V40.0073C185.5 39.4213 185.38 38.983 185.139 38.6923C184.898 38.397 184.526 38.2494 184.022 38.2494C183.29 38.2494 182.781 38.4742 182.495 38.9239C182.214 39.3736 182.073 40.0255 182.073 40.8795V44.6271H180.472V37.0842H181.719L181.943 38.1063H182.032C182.195 37.8428 182.398 37.627 182.638 37.4589C182.884 37.2863 183.156 37.1569 183.456 37.0706C183.76 36.9842 184.076 36.9411 184.403 36.9411ZM191.453 43.4688C191.662 43.4688 191.868 43.4506 192.073 43.4143C192.277 43.3734 192.464 43.3257 192.632 43.2712V44.484C192.454 44.5613 192.225 44.6271 191.943 44.6816C191.662 44.7362 191.369 44.7634 191.064 44.7634C190.637 44.7634 190.254 44.693 189.913 44.5522C189.572 44.4068 189.302 44.1593 189.102 43.8095C188.902 43.4597 188.802 42.9759 188.802 42.3581V38.3039H187.773V37.5884L188.877 37.0229L189.402 35.408H190.41V37.0842H192.57V38.3039H190.41V42.3377C190.41 42.7193 190.506 43.0032 190.696 43.1894C190.887 43.3757 191.139 43.4688 191.453 43.4688ZM196.472 36.9411C197.144 36.9411 197.721 37.0796 198.203 37.3567C198.684 37.6338 199.054 38.0268 199.313 38.5355C199.572 39.0443 199.702 39.653 199.702 40.3617V41.2202H194.666C194.684 41.9516 194.88 42.5148 195.252 42.91C195.629 43.3052 196.156 43.5028 196.833 43.5028C197.315 43.5028 197.746 43.4574 198.128 43.3666C198.514 43.2712 198.911 43.1326 199.32 42.9509V44.2524C198.943 44.4295 198.559 44.559 198.169 44.6408C197.778 44.7225 197.31 44.7634 196.765 44.7634C196.024 44.7634 195.373 44.6203 194.809 44.3341C194.251 44.0434 193.812 43.6119 193.494 43.0395C193.181 42.4671 193.024 41.7562 193.024 40.9068C193.024 40.0618 193.167 39.3441 193.453 38.7536C193.74 38.163 194.142 37.7133 194.659 37.4044C195.177 37.0955 195.781 36.9411 196.472 36.9411ZM196.472 38.1471C195.968 38.1471 195.559 38.3107 195.245 38.6377C194.937 38.9648 194.755 39.4441 194.7 40.0755H198.134C198.13 39.6984 198.066 39.3646 197.944 39.0738C197.826 38.7831 197.644 38.556 197.399 38.3924C197.158 38.2289 196.849 38.1471 196.472 38.1471ZM202.418 44.6271H200.81V34.0248H202.418V44.6271ZM205.617 44.6271H204.009V34.0248H205.617V44.6271ZM210.214 36.9411C210.886 36.9411 211.463 37.0796 211.945 37.3567C212.426 37.6338 212.797 38.0268 213.055 38.5355C213.314 39.0443 213.444 39.653 213.444 40.3617V41.2202H208.408C208.427 41.9516 208.622 42.5148 208.994 42.91C209.371 43.3052 209.898 43.5028 210.575 43.5028C211.057 43.5028 211.488 43.4574 211.87 43.3666C212.256 43.2712 212.653 43.1326 213.062 42.9509V44.2524C212.685 44.4295 212.301 44.559 211.911 44.6408C211.52 44.7225 211.052 44.7634 210.507 44.7634C209.767 44.7634 209.115 44.6203 208.552 44.3341C207.993 44.0434 207.554 43.6119 207.236 43.0395C206.923 42.4671 206.766 41.7562 206.766 40.9068C206.766 40.0618 206.909 39.3441 207.196 38.7536C207.482 38.163 207.884 37.7133 208.402 37.4044C208.919 37.0955 209.524 36.9411 210.214 36.9411ZM210.214 38.1471C209.71 38.1471 209.301 38.3107 208.988 38.6377C208.679 38.9648 208.497 39.4441 208.442 40.0755H211.877C211.872 39.6984 211.809 39.3646 211.686 39.0738C211.568 38.7831 211.386 38.556 211.141 38.3924C210.9 38.2289 210.591 38.1471 210.214 38.1471ZM223.816 44.6271L222.842 41.8607H219.033L218.058 44.6271H216.334L220.041 34.6244H221.854L225.553 44.6271H223.816ZM222.419 40.457L221.472 37.7315C221.436 37.6134 221.383 37.4476 221.315 37.2341C221.247 37.016 221.179 36.7957 221.111 36.5731C221.043 36.346 220.986 36.1552 220.94 36.0008C220.895 36.187 220.838 36.396 220.77 36.6277C220.707 36.8548 220.643 37.0683 220.579 37.2682C220.52 37.468 220.475 37.6225 220.443 37.7315L219.489 40.457H222.419ZM227.609 34.0248V39.1488C227.609 39.3805 227.599 39.6348 227.581 39.9119C227.563 40.1845 227.545 40.4411 227.527 40.6819H227.561C227.679 40.5229 227.82 40.3367 227.983 40.1232C228.151 39.9097 228.31 39.7234 228.46 39.5644L230.763 37.0842H232.603L229.585 40.3276L232.801 44.6271H230.92L228.508 41.3156L227.609 42.0856V44.6271H226.007V34.0248H227.609ZM234.91 34.0248V36.689C234.91 36.9661 234.901 37.2364 234.883 37.4998C234.869 37.7633 234.853 37.9677 234.835 38.1131H234.924C235.083 37.8496 235.278 37.6338 235.51 37.4658C235.742 37.2931 236 37.1637 236.287 37.0774C236.577 36.9911 236.886 36.9479 237.213 36.9479C237.79 36.9479 238.281 37.0456 238.685 37.2409C239.089 37.4317 239.398 37.7292 239.612 38.1335C239.83 38.5378 239.939 39.0625 239.939 39.7075V44.6271H238.338V40.0073C238.338 39.4213 238.217 38.983 237.977 38.6923C237.736 38.397 237.363 38.2494 236.859 38.2494C236.373 38.2494 235.987 38.3516 235.701 38.556C235.419 38.7559 235.217 39.0534 235.094 39.4486C234.972 39.8393 234.91 40.3162 234.91 40.8795V44.6271H233.309V34.0248H234.91ZM241.251 43.7822C241.251 43.4097 241.347 43.1485 241.537 42.9986C241.733 42.8442 241.969 42.767 242.246 42.767C242.523 42.767 242.759 42.8442 242.955 42.9986C243.155 43.1485 243.255 43.4097 243.255 43.7822C243.255 44.1456 243.155 44.4091 242.955 44.5726C242.759 44.7316 242.523 44.8111 242.246 44.8111C241.969 44.8111 241.733 44.7316 241.537 44.5726C241.347 44.4091 241.251 44.1456 241.251 43.7822ZM244.383 43.7822C244.383 43.4097 244.478 43.1485 244.669 42.9986C244.864 42.8442 245.101 42.767 245.378 42.767C245.655 42.767 245.891 42.8442 246.086 42.9986C246.286 43.1485 246.386 43.4097 246.386 43.7822C246.386 44.1456 246.286 44.4091 246.086 44.5726C245.891 44.7316 245.655 44.8111 245.378 44.8111C245.101 44.8111 244.864 44.7316 244.669 44.5726C244.478 44.4091 244.383 44.1456 244.383 43.7822ZM247.515 43.7822C247.515 43.4097 247.61 43.1485 247.801 42.9986C247.996 42.8442 248.232 42.767 248.509 42.767C248.786 42.767 249.023 42.8442 249.218 42.9986C249.418 43.1485 249.518 43.4097 249.518 43.7822C249.518 44.1456 249.418 44.4091 249.218 44.5726C249.023 44.7316 248.786 44.8111 248.509 44.8111C248.232 44.8111 247.996 44.7316 247.801 44.5726C247.61 44.4091 247.515 44.1456 247.515 43.7822Z" fill="#BBADBC"/>
<circle cx="34.4746" cy="65.8646" r="1.46893" fill="#785E76"/>
<circle cx="39.1752" cy="65.8646" r="1.46893" fill="#785E76"/>
<circle cx="43.8757" cy="65.8646" r="1.46893" fill="#785E76"/>
<path d="M57.9309 71.3166H55.8526V61.3547H61.5627V63.0854H57.9309V65.6543H61.3105V67.3782H57.9309V71.3166ZM66.902 63.5556C67.0065 63.5556 67.1269 63.5624 67.2631 63.576C67.404 63.5851 67.5175 63.5987 67.6038 63.6169L67.4471 65.5657C67.379 65.543 67.2813 65.5271 67.1541 65.518C67.0315 65.5044 66.9247 65.4975 66.8339 65.4975C66.5658 65.4975 66.3046 65.5316 66.0503 65.5998C65.8004 65.6679 65.5756 65.7792 65.3757 65.9336C65.1758 66.0835 65.0168 66.2834 64.8987 66.5333C64.7852 66.7786 64.7284 67.0806 64.7284 67.4395V71.3166H62.6501V63.6987H64.2241L64.5308 64.9797H64.633C64.7829 64.7208 64.9691 64.4846 65.1917 64.271C65.4188 64.053 65.6755 63.8804 65.9617 63.7532C66.2524 63.6215 66.5658 63.5556 66.902 63.5556ZM71.4101 63.542C72.4321 63.542 73.2157 63.7646 73.7608 64.2097C74.3059 64.6549 74.5785 65.3317 74.5785 66.2403V71.3166H73.1271L72.7251 70.2809H72.6706C72.4526 70.5534 72.23 70.776 72.0029 70.9486C71.7757 71.1213 71.5145 71.2485 71.2193 71.3302C70.924 71.412 70.5651 71.4529 70.1427 71.4529C69.693 71.4529 69.2887 71.3666 68.9298 71.1939C68.5755 71.0213 68.2961 70.7579 68.0917 70.4035C67.8873 70.0447 67.7851 69.5904 67.7851 69.0408C67.7851 68.2322 68.069 67.6371 68.6368 67.2555C69.2046 66.8694 70.0564 66.6559 71.192 66.615L72.5139 66.5741V66.2403C72.5139 65.8405 72.4094 65.5475 72.2005 65.3613C71.9915 65.175 71.7008 65.0819 71.3283 65.0819C70.9603 65.0819 70.5992 65.1341 70.2449 65.2386C69.8906 65.3431 69.5362 65.4748 69.1819 65.6338L68.4937 64.2302C68.898 64.0167 69.35 63.8486 69.8497 63.7259C70.3539 63.6033 70.874 63.542 71.4101 63.542ZM72.5139 67.787L71.7099 67.8143C71.0376 67.8324 70.5697 67.9528 70.3062 68.1754C70.0473 68.398 69.9178 68.691 69.9178 69.0544C69.9178 69.3724 70.0109 69.5995 70.1972 69.7358C70.3834 69.8675 70.6265 69.9334 70.9263 69.9334C71.3714 69.9334 71.7462 69.8016 72.0506 69.5382C72.3595 69.2747 72.5139 68.8999 72.5139 68.4139V67.787ZM80.3539 63.5556C81.1671 63.5556 81.8212 63.7782 82.3163 64.2234C82.8115 64.664 83.059 65.3726 83.059 66.3493V71.3166H80.9808V66.8671C80.9808 66.322 80.8809 65.9109 80.681 65.6338C80.4857 65.3567 80.1768 65.2182 79.7543 65.2182C79.1184 65.2182 78.6845 65.4339 78.4529 65.8655C78.2212 66.297 78.1054 66.9194 78.1054 67.7325V71.3166H76.0271V63.6987H77.6148L77.8941 64.6731H78.01C78.1735 64.4096 78.3756 64.1961 78.6164 64.0326C78.8617 63.869 79.132 63.7487 79.4272 63.6714C79.7271 63.5942 80.036 63.5556 80.3539 63.5556ZM86.5791 60.7142V65.4567C86.5791 65.7428 86.5677 66.029 86.545 66.3152C86.5223 66.6014 86.4973 66.8876 86.4701 67.1738H86.4973C86.6381 66.9739 86.7812 66.7763 86.9266 66.581C87.0765 66.3856 87.2355 66.1971 87.4036 66.0154L89.5363 63.6987H91.8803L88.8549 67.0034L92.0643 71.3166H89.6658L87.4717 68.2299L86.5791 68.9454V71.3166H84.5009V60.7142H86.5791ZM94.535 71.3166H92.4567V60.7142H94.535V71.3166ZM98.1027 63.6987V71.3166H96.0245V63.6987H98.1027ZM97.067 60.7142C97.3759 60.7142 97.6416 60.7869 97.8642 60.9323C98.0868 61.0731 98.1981 61.3388 98.1981 61.7295C98.1981 62.1156 98.0868 62.3836 97.8642 62.5335C97.6416 62.6789 97.3759 62.7516 97.067 62.7516C96.7536 62.7516 96.4855 62.6789 96.263 62.5335C96.0449 62.3836 95.9359 62.1156 95.9359 61.7295C95.9359 61.3388 96.0449 61.0731 96.263 60.9323C96.4855 60.7869 96.7536 60.7142 97.067 60.7142ZM103.919 63.5556C104.732 63.5556 105.386 63.7782 105.881 64.2234C106.377 64.664 106.624 65.3726 106.624 66.3493V71.3166H104.546V66.8671C104.546 66.322 104.446 65.9109 104.246 65.6338C104.051 65.3567 103.742 65.2182 103.319 65.2182C102.683 65.2182 102.25 65.4339 102.018 65.8655C101.786 66.297 101.67 66.9194 101.67 67.7325V71.3166H99.5922V63.6987H101.18L101.459 64.6731H101.575C101.739 64.4096 101.941 64.1961 102.181 64.0326C102.427 63.869 102.697 63.7487 102.992 63.6714C103.292 63.5942 103.601 63.5556 103.919 63.5556Z" fill="white"/>
<rect x="230.87" y="56.3166" width="22.7684" height="16.9743" rx="8.48713" fill="#EBE7EC"/>
<path d="M240.805 68.5687V67.4788H242.439V62.8208L241.175 63.5817L240.661 62.6152L242.82 61.3196H243.756V67.4788H245.288V68.5687H240.805Z" fill="#3B103D"/>
<g clip-path="url(#clip1_4352_15230)">
<rect x="29.6271" y="82.7573" width="19.096" height="19.096" rx="4.40678" fill="white"/>
<circle cx="39.1752" cy="90.4417" r="4.01201" fill="#D12B5C"/>
<path d="M30.5177 101.854C30.5177 98.2333 33.4525 95.2985 37.0728 95.2985H41.2776C44.8979 95.2985 47.8327 98.2333 47.8327 101.854H30.5177Z" fill="#D12B5C"/>
</g>
<path d="M58.7076 87.7954C59.5662 87.7954 60.2748 87.8999 60.8336 88.1088C61.3968 88.3178 61.8148 88.6358 62.0873 89.0628C62.3644 89.4898 62.503 90.0326 62.503 90.6913C62.503 91.1819 62.4121 91.5998 62.2304 91.945C62.0487 92.2903 61.8102 92.5765 61.515 92.8036C61.2197 93.0307 60.904 93.2124 60.5678 93.3487L63.3956 97.7573H61.549L59.1437 93.7643H57.5425V97.7573H55.9071V87.7954H58.7076ZM58.5986 89.1582H57.5425V92.4152H58.6736C59.4322 92.4152 59.9818 92.2744 60.3225 91.9927C60.6678 91.7111 60.8404 91.2954 60.8404 90.7458C60.8404 90.1689 60.6564 89.7601 60.2885 89.5193C59.9251 89.2785 59.3618 89.1582 58.5986 89.1582ZM65.5597 90.2143V97.7573H63.9584V90.2143H65.5597ZM64.7693 87.3252C65.0146 87.3252 65.2258 87.3911 65.4029 87.5228C65.5846 87.6546 65.6755 87.8817 65.6755 88.2042C65.6755 88.5222 65.5846 88.7493 65.4029 88.8856C65.2258 89.0173 65.0146 89.0832 64.7693 89.0832C64.5149 89.0832 64.2991 89.0173 64.1219 88.8856C63.9493 88.7493 63.863 88.5222 63.863 88.2042C63.863 87.8817 63.9493 87.6546 64.1219 87.5228C64.2991 87.3911 64.5149 87.3252 64.7693 87.3252ZM70.1972 97.8935C69.484 97.8935 68.8662 97.755 68.3438 97.4779C67.8214 97.2008 67.4194 96.7761 67.1378 96.2037C66.8561 95.6313 66.7153 94.9045 66.7153 94.0233C66.7153 93.1057 66.8697 92.3561 67.1786 91.7747C67.4875 91.1932 67.9145 90.764 68.4596 90.4869C69.0093 90.2098 69.6384 90.0712 70.3471 90.0712C70.7968 90.0712 71.2034 90.1166 71.5668 90.2075C71.9347 90.2938 72.2459 90.4006 72.5003 90.5277L72.0233 91.8088C71.7462 91.6952 71.4623 91.5998 71.1716 91.5226C70.8808 91.4453 70.6015 91.4067 70.3335 91.4067C69.8928 91.4067 69.5249 91.5044 69.2296 91.6997C68.9389 91.8951 68.7208 92.1858 68.5755 92.5719C68.4347 92.958 68.3643 93.4373 68.3643 94.0096C68.3643 94.5638 68.4369 95.0317 68.5823 95.4133C68.7277 95.7903 68.9434 96.0765 69.2296 96.2718C69.5158 96.4626 69.8678 96.558 70.2858 96.558C70.6991 96.558 71.0694 96.5081 71.3964 96.4081C71.7235 96.3082 72.0324 96.1787 72.3231 96.0197V97.4098C72.0369 97.5733 71.7303 97.6937 71.4032 97.7709C71.0762 97.8527 70.6742 97.8935 70.1972 97.8935ZM80.0746 93.9688C80.0746 94.5956 79.9928 95.1521 79.8293 95.6382C79.6657 96.1242 79.4273 96.5353 79.1138 96.8715C78.8004 97.2031 78.4233 97.4575 77.9827 97.6346C77.5421 97.8072 77.0447 97.8935 76.4905 97.8935C75.9726 97.8935 75.4979 97.8072 75.0664 97.6346C74.6348 97.4575 74.2601 97.2031 73.9421 96.8715C73.6286 96.5353 73.3856 96.1242 73.213 95.6382C73.0404 95.1521 72.9541 94.5956 72.9541 93.9688C72.9541 93.1375 73.0972 92.4334 73.3833 91.8565C73.6741 91.275 74.0874 90.8321 74.6235 90.5277C75.1595 90.2234 75.7977 90.0712 76.5382 90.0712C77.2332 90.0712 77.8464 90.2234 78.3779 90.5277C78.9094 90.8321 79.325 91.275 79.6249 91.8565C79.9247 92.4379 80.0746 93.142 80.0746 93.9688ZM74.603 93.9688C74.603 94.5184 74.6689 94.9886 74.8006 95.3792C74.9369 95.7699 75.1459 96.0697 75.4275 96.2787C75.7091 96.4831 76.0726 96.5853 76.5177 96.5853C76.9629 96.5853 77.3263 96.4831 77.6079 96.2787C77.8896 96.0697 78.0963 95.7699 78.228 95.3792C78.3597 94.9886 78.4256 94.5184 78.4256 93.9688C78.4256 93.4191 78.3597 92.9535 78.228 92.5719C78.0963 92.1858 77.8896 91.8928 77.6079 91.6929C77.3263 91.4885 76.9606 91.3863 76.5109 91.3863C75.8477 91.3863 75.3639 91.6089 75.0596 92.0541C74.7552 92.4992 74.603 93.1375 74.603 93.9688ZM87.2032 87.7954C88.4888 87.7954 89.4268 88.0589 90.0174 88.5858C90.6079 89.1127 90.9032 89.8509 90.9032 90.8003C90.9032 91.2318 90.835 91.643 90.6988 92.0336C90.567 92.4197 90.349 92.7627 90.0446 93.0625C89.7403 93.3578 89.3382 93.5917 88.8386 93.7643C88.3434 93.937 87.7324 94.0233 87.0056 94.0233H85.9427V97.7573H84.3073V87.7954H87.2032ZM87.0942 89.1513H85.9427V92.6605H86.8353C87.3486 92.6605 87.7847 92.6014 88.1436 92.4833C88.5024 92.3607 88.775 92.1676 88.9612 91.9042C89.1475 91.6407 89.2406 91.2932 89.2406 90.8616C89.2406 90.2847 89.0657 89.8554 88.7159 89.5738C88.3707 89.2922 87.8301 89.1513 87.0942 89.1513ZM94.9888 90.0712C95.9427 90.0712 96.6627 90.2824 97.1488 90.7049C97.6394 91.1274 97.8847 91.786 97.8847 92.6809V97.7573H96.7467L96.4401 96.6875H96.3856C96.1721 96.96 95.9518 97.1849 95.7247 97.3621C95.4975 97.5392 95.2341 97.671 94.9343 97.7573C94.639 97.8481 94.2778 97.8935 93.8508 97.8935C93.4011 97.8935 92.9991 97.8118 92.6448 97.6482C92.2905 97.4802 92.0111 97.2258 91.8067 96.8851C91.6023 96.5444 91.5001 96.1128 91.5001 95.5905C91.5001 94.8137 91.7885 94.23 92.3654 93.8393C92.9469 93.4486 93.8236 93.2329 94.9956 93.192L96.3038 93.1443V92.7491C96.3038 92.2267 96.1812 91.8542 95.9359 91.6316C95.6951 91.409 95.3544 91.2977 94.9138 91.2977C94.5368 91.2977 94.1711 91.3522 93.8168 91.4612C93.4625 91.5703 93.1172 91.7043 92.7811 91.8633L92.2632 90.7322C92.6312 90.5368 93.0491 90.3778 93.517 90.2552C93.9894 90.1325 94.48 90.0712 94.9888 90.0712ZM96.297 94.1527L95.3226 94.1868C94.5231 94.2141 93.9621 94.3503 93.6396 94.5956C93.3171 94.8409 93.1558 95.1771 93.1558 95.6041C93.1558 95.9766 93.2671 96.2491 93.4897 96.4217C93.7123 96.5898 94.0053 96.6739 94.3687 96.6739C94.9229 96.6739 95.3817 96.5171 95.7451 96.2037C96.1131 95.8857 96.297 95.4201 96.297 94.8069V94.1527ZM103.251 90.0712C103.378 90.0712 103.517 90.078 103.667 90.0917C103.817 90.1053 103.946 90.1235 104.055 90.1462L103.905 91.6452C103.81 91.618 103.692 91.5975 103.551 91.5839C103.415 91.5703 103.292 91.5635 103.183 91.5635C102.897 91.5635 102.624 91.6112 102.365 91.7065C102.107 91.7974 101.877 91.9382 101.677 92.129C101.477 92.3153 101.321 92.5492 101.207 92.8308C101.094 93.1125 101.037 93.4395 101.037 93.812V97.7573H99.4287V90.2143H100.682L100.9 91.543H100.975C101.125 91.275 101.312 91.0297 101.534 90.8071C101.757 90.5845 102.011 90.4074 102.297 90.2756C102.588 90.1394 102.906 90.0712 103.251 90.0712ZM106.356 87.1549V92.2789C106.356 92.5106 106.347 92.765 106.328 93.0421C106.31 93.3146 106.292 93.5713 106.274 93.812H106.308C106.426 93.653 106.567 93.4668 106.73 93.2533C106.898 93.0398 107.057 92.8535 107.207 92.6946L109.51 90.2143H111.35L108.332 93.4577L111.548 97.7573H109.667L107.255 94.4457L106.356 95.2157V97.7573H104.754V87.1549H106.356Z" fill="#BBADBC"/>
<rect x="29.6271" y="109.198" width="19.096" height="19.096" rx="3.67232" fill="#4F2851"/>
<line x1="43.9492" y1="119.113" x2="34.4011" y2="119.113" stroke="#BBADBC" stroke-width="2.20339"/>
<line x1="43.9492" y1="119.113" x2="34.4011" y2="119.113" stroke="#BBADBC" stroke-width="2.20339"/>
<line x1="43.9492" y1="119.113" x2="34.4011" y2="119.113" stroke="#BBADBC" stroke-width="2.20339"/>
<line x1="39.1751" y1="113.972" x2="39.1751" y2="123.52" stroke="#BBADBC" stroke-width="2.20339"/>
<line x1="39.1751" y1="113.972" x2="39.1751" y2="123.52" stroke="#BBADBC" stroke-width="2.20339"/>
<line x1="39.1751" y1="113.972" x2="39.1751" y2="123.52" stroke="#BBADBC" stroke-width="2.20339"/>
<path d="M62.0805 124.198L61.1061 121.431H57.2972L56.3228 124.198H54.5989L58.3056 114.195H60.1181L63.818 124.198H62.0805ZM60.6837 120.028L59.7365 117.302C59.7002 117.184 59.648 117.018 59.5798 116.805C59.5117 116.587 59.4435 116.366 59.3754 116.144C59.3073 115.917 59.2505 115.726 59.2051 115.572C59.1596 115.758 59.1028 115.967 59.0347 116.198C58.9711 116.426 58.9075 116.639 58.8439 116.839C58.7849 117.039 58.7394 117.193 58.7076 117.302L57.7537 120.028H60.6837ZM66.8066 124.334C65.9072 124.334 65.1849 124.007 64.6398 123.353C64.0992 122.694 63.8289 121.724 63.8289 120.443C63.8289 119.149 64.1038 118.17 64.6534 117.507C65.2076 116.843 65.9367 116.512 66.8407 116.512C67.2222 116.512 67.5561 116.564 67.8423 116.669C68.1285 116.768 68.3738 116.905 68.5782 117.077C68.7872 117.25 68.9643 117.443 69.1097 117.657H69.1846C69.1619 117.516 69.1347 117.314 69.1029 117.05C69.0756 116.782 69.062 116.535 69.062 116.307V113.595H70.6701V124.198H69.4163L69.1301 123.169H69.062C68.9257 123.387 68.7531 123.585 68.5441 123.762C68.3397 123.934 68.0944 124.073 67.8082 124.177C67.5266 124.282 67.1927 124.334 66.8066 124.334ZM67.2563 123.033C67.9422 123.033 68.426 122.835 68.7077 122.44C68.9893 122.045 69.1347 121.452 69.1438 120.661V120.45C69.1438 119.605 69.0075 118.958 68.7349 118.508C68.4624 118.054 67.965 117.827 67.2427 117.827C66.6658 117.827 66.2252 118.061 65.9208 118.529C65.621 118.992 65.4711 119.639 65.4711 120.471C65.4711 121.302 65.621 121.938 65.9208 122.379C66.2252 122.815 66.6703 123.033 67.2563 123.033ZM74.8034 124.334C73.9039 124.334 73.1817 124.007 72.6365 123.353C72.096 122.694 71.8257 121.724 71.8257 120.443C71.8257 119.149 72.1005 118.17 72.6502 117.507C73.2044 116.843 73.9335 116.512 74.8374 116.512C75.219 116.512 75.5529 116.564 75.8391 116.669C76.1253 116.768 76.3705 116.905 76.575 117.077C76.7839 117.25 76.9611 117.443 77.1064 117.657H77.1814C77.1587 117.516 77.1314 117.314 77.0996 117.05C77.0724 116.782 77.0588 116.535 77.0588 116.307V113.595H78.6668V124.198H77.4131L77.1269 123.169H77.0588C76.9225 123.387 76.7499 123.585 76.5409 123.762C76.3365 123.934 76.0912 124.073 75.805 124.177C75.5234 124.282 75.1895 124.334 74.8034 124.334ZM75.2531 123.033C75.939 123.033 76.4228 122.835 76.7044 122.44C76.9861 122.045 77.1314 121.452 77.1405 120.661V120.45C77.1405 119.605 77.0042 118.958 76.7317 118.508C76.4591 118.054 75.9617 117.827 75.2394 117.827C74.6625 117.827 74.2219 118.061 73.9176 118.529C73.6177 118.992 73.4678 119.639 73.4678 120.471C73.4678 121.302 73.6177 121.938 73.9176 122.379C74.2219 122.815 74.6671 123.033 75.2531 123.033ZM85.9999 123.04C86.2089 123.04 86.4156 123.021 86.62 122.985C86.8244 122.944 87.0106 122.896 87.1787 122.842V124.055C87.0015 124.132 86.7721 124.198 86.4905 124.252C86.2089 124.307 85.9159 124.334 85.6115 124.334C85.1845 124.334 84.8007 124.264 84.46 124.123C84.1193 123.978 83.849 123.73 83.6491 123.38C83.4493 123.03 83.3493 122.547 83.3493 121.929V117.875H82.3204V117.159L83.4243 116.594L83.9489 114.979H84.9574V116.655H87.1174V117.875H84.9574V121.908C84.9574 122.29 85.0528 122.574 85.2436 122.76C85.4344 122.946 85.6865 123.04 85.9999 123.04ZM91.019 116.512C91.6913 116.512 92.2682 116.65 92.7497 116.927C93.2312 117.205 93.6015 117.598 93.8604 118.106C94.1193 118.615 94.2488 119.224 94.2488 119.932V120.791H89.2133C89.2315 121.522 89.4268 122.086 89.7993 122.481C90.1764 122.876 90.7033 123.074 91.3801 123.074C91.8617 123.074 92.2932 123.028 92.6748 122.937C93.0609 122.842 93.4584 122.703 93.8672 122.522V123.823C93.4902 124 93.1063 124.13 92.7157 124.212C92.325 124.293 91.8571 124.334 91.312 124.334C90.5716 124.334 89.9197 124.191 89.3564 123.905C88.7977 123.614 88.3593 123.183 88.0413 122.61C87.7279 122.038 87.5712 121.327 87.5712 120.478C87.5712 119.633 87.7143 118.915 88.0005 118.324C88.2866 117.734 88.6887 117.284 89.2065 116.975C89.7244 116.666 90.3285 116.512 91.019 116.512ZM91.019 117.718C90.5148 117.718 90.1059 117.881 89.7925 118.208C89.4836 118.536 89.3019 119.015 89.2474 119.646H92.6816C92.677 119.269 92.6134 118.935 92.4908 118.645C92.3727 118.354 92.191 118.127 91.9457 117.963C91.7049 117.8 91.396 117.718 91.019 117.718ZM98.3139 116.512C99.2679 116.512 99.9879 116.723 100.474 117.146C100.965 117.568 101.21 118.227 101.21 119.122V124.198H100.072L99.7653 123.128H99.7108C99.4973 123.401 99.277 123.626 99.0498 123.803C98.8227 123.98 98.5592 124.112 98.2594 124.198C97.9642 124.289 97.603 124.334 97.176 124.334C96.7263 124.334 96.3243 124.252 95.97 124.089C95.6156 123.921 95.3363 123.666 95.1319 123.326C94.9274 122.985 94.8252 122.553 94.8252 122.031C94.8252 121.254 95.1137 120.671 95.6906 120.28C96.272 119.889 97.1488 119.673 98.3207 119.633L99.629 119.585V119.19C99.629 118.667 99.5064 118.295 99.2611 118.072C99.0203 117.85 98.6796 117.738 98.239 117.738C97.8619 117.738 97.4963 117.793 97.1419 117.902C96.7876 118.011 96.4424 118.145 96.1062 118.304L95.5884 117.173C95.9563 116.977 96.3743 116.818 96.8421 116.696C97.3146 116.573 97.8052 116.512 98.3139 116.512ZM99.6222 120.593L98.6478 120.627C97.8483 120.655 97.2873 120.791 96.9648 121.036C96.6423 121.282 96.481 121.618 96.481 122.045C96.481 122.417 96.5923 122.69 96.8149 122.862C97.0375 123.03 97.3305 123.114 97.6939 123.114C98.2481 123.114 98.7069 122.958 99.0703 122.644C99.4382 122.326 99.6222 121.861 99.6222 121.247V120.593ZM111.278 116.512C112.123 116.512 112.759 116.73 113.186 117.166C113.617 117.602 113.833 118.302 113.833 119.265V124.198H112.232V119.551C112.232 118.978 112.121 118.547 111.898 118.256C111.675 117.965 111.337 117.82 110.883 117.82C110.247 117.82 109.788 118.025 109.506 118.433C109.229 118.838 109.091 119.426 109.091 120.198V124.198H107.489V119.551C107.489 119.169 107.44 118.851 107.34 118.597C107.244 118.338 107.097 118.145 106.897 118.018C106.697 117.886 106.445 117.82 106.14 117.82C105.7 117.82 105.348 117.92 105.084 118.12C104.825 118.32 104.639 118.615 104.525 119.006C104.412 119.392 104.355 119.867 104.355 120.43V124.198H102.754V116.655H104.001L104.226 117.67H104.314C104.469 117.407 104.659 117.191 104.887 117.023C105.118 116.85 105.375 116.723 105.657 116.641C105.938 116.555 106.231 116.512 106.536 116.512C107.099 116.512 107.574 116.612 107.96 116.812C108.346 117.007 108.634 117.307 108.825 117.711H108.948C109.184 117.302 109.513 117 109.936 116.805C110.358 116.609 110.806 116.512 111.278 116.512ZM123.895 116.512C124.739 116.512 125.375 116.73 125.802 117.166C126.234 117.602 126.45 118.302 126.45 119.265V124.198H124.848V119.551C124.848 118.978 124.737 118.547 124.515 118.256C124.292 117.965 123.954 117.82 123.499 117.82C122.863 117.82 122.405 118.025 122.123 118.433C121.846 118.838 121.707 119.426 121.707 120.198V124.198H120.106V119.551C120.106 119.169 120.056 118.851 119.956 118.597C119.861 118.338 119.713 118.145 119.513 118.018C119.313 117.886 119.061 117.82 118.757 117.82C118.316 117.82 117.964 117.92 117.701 118.12C117.442 118.32 117.256 118.615 117.142 119.006C117.028 119.392 116.972 119.867 116.972 120.43V124.198H115.37V116.655H116.617L116.842 117.67H116.931C117.085 117.407 117.276 117.191 117.503 117.023C117.735 116.85 117.991 116.723 118.273 116.641C118.555 116.555 118.848 116.512 119.152 116.512C119.715 116.512 120.19 116.612 120.576 116.812C120.962 117.007 121.251 117.307 121.442 117.711H121.564C121.8 117.302 122.13 117 122.552 116.805C122.975 116.609 123.422 116.512 123.895 116.512ZM130.944 116.512C131.898 116.512 132.618 116.723 133.104 117.146C133.595 117.568 133.84 118.227 133.84 119.122V124.198H132.702L132.396 123.128H132.341C132.128 123.401 131.907 123.626 131.68 123.803C131.453 123.98 131.189 124.112 130.89 124.198C130.594 124.289 130.233 124.334 129.806 124.334C129.357 124.334 128.955 124.252 128.6 124.089C128.246 123.921 127.967 123.666 127.762 123.326C127.558 122.985 127.455 122.553 127.455 122.031C127.455 121.254 127.744 120.671 128.321 120.28C128.902 119.889 129.779 119.673 130.951 119.633L132.259 119.585V119.19C132.259 118.667 132.137 118.295 131.891 118.072C131.651 117.85 131.31 117.738 130.869 117.738C130.492 117.738 130.127 117.793 129.772 117.902C129.418 118.011 129.073 118.145 128.736 118.304L128.219 117.173C128.587 116.977 129.004 116.818 129.472 116.696C129.945 116.573 130.435 116.512 130.944 116.512ZM132.252 120.593L131.278 120.627C130.479 120.655 129.918 120.791 129.595 121.036C129.273 121.282 129.111 121.618 129.111 122.045C129.111 122.417 129.223 122.69 129.445 122.862C129.668 123.03 129.961 123.114 130.324 123.114C130.878 123.114 131.337 122.958 131.701 122.644C132.068 122.326 132.252 121.861 132.252 121.247V120.593ZM138.191 123.04C138.4 123.04 138.607 123.021 138.811 122.985C139.016 122.944 139.202 122.896 139.37 122.842V124.055C139.193 124.132 138.964 124.198 138.682 124.252C138.4 124.307 138.107 124.334 137.803 124.334C137.376 124.334 136.992 124.264 136.651 124.123C136.311 123.978 136.041 123.73 135.841 123.38C135.641 123.03 135.541 122.547 135.541 121.929V117.875H134.512V117.159L135.616 116.594L136.14 114.979H137.149V116.655H139.309V117.875H137.149V121.908C137.149 122.29 137.244 122.574 137.435 122.76C137.626 122.946 137.878 123.04 138.191 123.04ZM143.211 116.512C143.883 116.512 144.46 116.65 144.941 116.927C145.423 117.205 145.793 117.598 146.052 118.106C146.311 118.615 146.44 119.224 146.44 119.932V120.791H141.405C141.423 121.522 141.618 122.086 141.991 122.481C142.368 122.876 142.895 123.074 143.572 123.074C144.053 123.074 144.485 123.028 144.866 122.937C145.252 122.842 145.65 122.703 146.059 122.522V123.823C145.682 124 145.298 124.13 144.907 124.212C144.516 124.293 144.049 124.334 143.504 124.334C142.763 124.334 142.111 124.191 141.548 123.905C140.989 123.614 140.551 123.183 140.233 122.61C139.919 122.038 139.763 121.327 139.763 120.478C139.763 119.633 139.906 118.915 140.192 118.324C140.478 117.734 140.88 117.284 141.398 116.975C141.916 116.666 142.52 116.512 143.211 116.512ZM143.211 117.718C142.706 117.718 142.297 117.881 141.984 118.208C141.675 118.536 141.493 119.015 141.439 119.646H144.873C144.869 119.269 144.805 118.935 144.682 118.645C144.564 118.354 144.382 118.127 144.137 117.963C143.896 117.8 143.588 117.718 143.211 117.718ZM152.618 122.045C152.618 122.54 152.497 122.958 152.257 123.298C152.016 123.639 151.664 123.898 151.2 124.075C150.742 124.248 150.178 124.334 149.511 124.334C148.984 124.334 148.529 124.296 148.148 124.218C147.771 124.146 147.414 124.032 147.078 123.878V122.494C147.437 122.662 147.839 122.808 148.284 122.93C148.734 123.053 149.159 123.114 149.558 123.114C150.085 123.114 150.465 123.033 150.696 122.869C150.928 122.701 151.044 122.479 151.044 122.201C151.044 122.038 150.996 121.893 150.901 121.765C150.81 121.634 150.637 121.5 150.383 121.363C150.133 121.222 149.765 121.054 149.279 120.859C148.802 120.668 148.4 120.478 148.073 120.287C147.746 120.096 147.498 119.867 147.33 119.599C147.162 119.326 147.078 118.978 147.078 118.556C147.078 117.888 147.342 117.382 147.868 117.037C148.4 116.687 149.102 116.512 149.974 116.512C150.437 116.512 150.873 116.56 151.282 116.655C151.696 116.746 152.1 116.88 152.495 117.057L151.991 118.263C151.65 118.113 151.307 117.99 150.962 117.895C150.621 117.795 150.274 117.745 149.919 117.745C149.506 117.745 149.19 117.809 148.972 117.936C148.759 118.063 148.652 118.245 148.652 118.481C148.652 118.658 148.704 118.808 148.809 118.931C148.913 119.053 149.093 119.176 149.347 119.299C149.606 119.421 149.965 119.574 150.424 119.755C150.873 119.928 151.262 120.11 151.589 120.3C151.92 120.487 152.175 120.716 152.352 120.989C152.529 121.261 152.618 121.613 152.618 122.045Z" fill="#BBADBC"/>
<g filter="url(#filter0_d_4352_15230)">
<circle cx="47.2543" cy="95.729" r="3.67232" fill="#3B103D"/>
<circle cx="47.2543" cy="95.729" r="2.93785" stroke="#BBADBC" stroke-width="1.46893"/>
</g>
<path d="M39.6844 157.449C39.4001 157.723 38.9503 157.723 38.6659 157.449L35.3546 154.263C34.8781 153.804 35.2026 152.999 35.8638 152.999L42.4865 152.999C43.1477 152.999 43.4722 153.804 42.9958 154.263L39.6844 157.449Z" fill="#D9D9D9"/>
<path d="M62.0805 160.921L61.1061 158.155H57.2972L56.3228 160.921H54.5989L58.3056 150.918H60.1181L63.818 160.921H62.0805ZM60.6837 156.751L59.7365 154.025C59.7002 153.907 59.648 153.742 59.5798 153.528C59.5117 153.31 59.4435 153.09 59.3754 152.867C59.3073 152.64 59.2505 152.449 59.2051 152.295C59.1596 152.481 59.1028 152.69 59.0347 152.922C58.9711 153.149 58.9075 153.362 58.8439 153.562C58.7849 153.762 58.7394 153.916 58.7076 154.025L57.7537 156.751H60.6837ZM68.1421 153.235C69.037 153.235 69.7547 153.562 70.2953 154.216C70.8404 154.87 71.113 155.842 71.113 157.133C71.113 157.987 70.9858 158.707 70.7314 159.293C70.4815 159.874 70.1295 160.315 69.6752 160.614C69.2255 160.91 68.7009 161.057 68.1012 161.057C67.7197 161.057 67.3881 161.007 67.1064 160.907C66.8248 160.808 66.584 160.678 66.3841 160.519C66.1843 160.356 66.0162 160.178 65.8799 159.988H65.7845C65.8072 160.169 65.8277 160.371 65.8458 160.594C65.8686 160.812 65.8799 161.012 65.8799 161.194V164.267H64.2718V153.378H65.5801L65.805 154.421H65.8799C66.0207 154.207 66.1911 154.01 66.391 153.828C66.5954 153.646 66.8407 153.503 67.1269 153.399C67.4176 153.29 67.756 153.235 68.1421 153.235ZM67.7128 154.543C67.2722 154.543 66.9179 154.632 66.6499 154.809C66.3864 154.982 66.1934 155.243 66.0707 155.593C65.9526 155.942 65.889 156.381 65.8799 156.908V157.133C65.8799 157.691 65.9367 158.166 66.0503 158.557C66.1684 158.943 66.3614 159.238 66.6294 159.442C66.902 159.642 67.2699 159.742 67.7333 159.742C68.124 159.742 68.4465 159.636 68.7009 159.422C68.9598 159.209 69.1528 158.904 69.28 158.509C69.4072 158.114 69.4708 157.648 69.4708 157.112C69.4708 156.299 69.3255 155.668 69.0347 155.218C68.7486 154.768 68.3079 154.543 67.7128 154.543ZM76.1389 153.235C77.0338 153.235 77.7515 153.562 78.2921 154.216C78.8372 154.87 79.1097 155.842 79.1097 157.133C79.1097 157.987 78.9825 158.707 78.7281 159.293C78.4783 159.874 78.1263 160.315 77.672 160.614C77.2223 160.91 76.6976 161.057 76.098 161.057C75.7164 161.057 75.3848 161.007 75.1032 160.907C74.8215 160.808 74.5808 160.678 74.3809 160.519C74.181 160.356 74.013 160.178 73.8767 159.988H73.7813C73.804 160.169 73.8244 160.371 73.8426 160.594C73.8653 160.812 73.8767 161.012 73.8767 161.194V164.267H72.2686V153.378H73.5769L73.8017 154.421H73.8767C74.0175 154.207 74.1878 154.01 74.3877 153.828C74.5921 153.646 74.8374 153.503 75.1236 153.399C75.4143 153.29 75.7528 153.235 76.1389 153.235ZM75.7096 154.543C75.269 154.543 74.9147 154.632 74.6466 154.809C74.3832 154.982 74.1901 155.243 74.0675 155.593C73.9494 155.942 73.8858 156.381 73.8767 156.908V157.133C73.8767 157.691 73.9335 158.166 74.047 158.557C74.1651 158.943 74.3582 159.238 74.6262 159.442C74.8988 159.642 75.2667 159.742 75.73 159.742C76.1207 159.742 76.4432 159.636 76.6976 159.422C76.9565 159.209 77.1496 158.904 77.2768 158.509C77.404 158.114 77.4676 157.648 77.4676 157.112C77.4676 156.299 77.3222 155.668 77.0315 155.218C76.7453 154.768 76.3047 154.543 75.7096 154.543ZM85.3349 158.768C85.3349 159.263 85.2145 159.681 84.9737 160.022C84.733 160.362 84.3809 160.621 83.9176 160.798C83.4588 160.971 82.8955 161.057 82.2278 161.057C81.7008 161.057 81.2466 161.019 80.865 160.942C80.4879 160.869 80.1314 160.755 79.7952 160.601V159.218C80.1541 159.386 80.5561 159.531 81.0013 159.654C81.451 159.776 81.8757 159.838 82.2754 159.838C82.8024 159.838 83.1817 159.756 83.4134 159.592C83.645 159.424 83.7609 159.202 83.7609 158.925C83.7609 158.761 83.7132 158.616 83.6178 158.489C83.5269 158.357 83.3543 158.223 83.0999 158.087C82.8501 157.946 82.4821 157.778 81.9961 157.582C81.5191 157.391 81.1171 157.201 80.79 157.01C80.463 156.819 80.2154 156.59 80.0473 156.322C79.8792 156.049 79.7952 155.702 79.7952 155.279C79.7952 154.611 80.0587 154.105 80.5856 153.76C81.1171 153.41 81.8189 153.235 82.6911 153.235C83.1544 153.235 83.5905 153.283 83.9994 153.378C84.4127 153.469 84.817 153.603 85.2122 153.78L84.708 154.986C84.3673 154.836 84.0243 154.714 83.6791 154.618C83.3384 154.518 82.9909 154.468 82.6366 154.468C82.2232 154.468 81.9075 154.532 81.6895 154.659C81.476 154.786 81.3692 154.968 81.3692 155.204C81.3692 155.381 81.4214 155.531 81.5259 155.654C81.6304 155.777 81.8098 155.899 82.0642 156.022C82.3231 156.145 82.682 156.297 83.1408 156.478C83.5905 156.651 83.9789 156.833 84.306 157.024C84.6376 157.21 84.892 157.439 85.0691 157.712C85.2463 157.984 85.3349 158.336 85.3349 158.768Z" fill="#BBADBC"/>
<rect x="29.6271" y="172.362" width="19.096" height="19.096" rx="4.40678" fill="white"/>
<path d="M37.6806 178.004C37.8292 177.816 38.0212 177.666 38.2402 177.567C38.4593 177.469 38.6989 177.425 38.9386 177.439C39.1783 177.453 39.411 177.525 39.6168 177.649C39.8227 177.773 39.9956 177.944 40.1208 178.15C41.6884 177.674 43.3141 177.417 44.9518 177.387C44.2882 176.536 43.445 175.842 42.4825 175.355C41.5201 174.867 40.462 174.599 39.3839 174.568C38.3058 174.537 37.2342 174.745 36.2456 175.177C35.257 175.608 34.3758 176.253 33.6648 177.065C35.0335 177.231 36.3801 177.546 37.6806 178.004Z" fill="#17D4A7"/>
<path d="M41.8046 182.777H41.8799C42.0768 182.776 42.2694 182.835 42.4307 182.948C43.6683 181.893 44.7664 180.476 45.7248 178.697L45.7542 178.644C45.6151 178.364 45.5462 178.278 45.3723 178.019L45.2842 178.019H44.9683C43.3911 178.05 41.8256 178.297 40.3154 178.754C40.3173 178.784 40.3173 178.814 40.3154 178.844C40.3156 179.183 40.19 179.511 39.9629 179.763C40.448 180.435 40.8972 181.133 41.3088 181.853C41.4839 182.164 41.6491 182.472 41.8046 182.777Z" fill="#17D4A7"/>
<path d="M39.4433 180.127C39.2565 180.207 39.0553 180.248 38.8521 180.248C38.6447 180.249 38.4395 180.206 38.2497 180.123C38.0599 180.039 37.8898 179.917 37.7504 179.763C35.8995 180.7 33.9642 182.186 32.6531 184.542C33.545 184.881 34.4791 185.097 35.4294 185.183C35.5038 185.036 35.618 184.912 35.7592 184.825C35.9004 184.739 36.0628 184.694 36.2282 184.696C36.3935 184.697 36.5551 184.745 36.6947 184.834C36.8342 184.923 36.9461 185.049 37.0177 185.198H37.0967C38.4803 185.092 39.8211 184.669 41.0151 183.961C40.979 183.867 40.9604 183.768 40.96 183.667C40.9603 183.55 40.9841 183.434 41.0302 183.327C41.0763 183.22 41.1436 183.123 41.2281 183.042C40.7092 182.026 40.1125 181.051 39.4433 180.127Z" fill="#17D4A7"/>
<path d="M42.4895 188.4C42.6474 187.147 42.3646 185.809 41.8909 184.54H41.8799C41.7191 184.541 41.5611 184.499 41.4208 184.421C40.1171 185.223 38.6408 185.701 37.1149 185.816H37.036C36.9689 185.979 36.8545 186.119 36.7075 186.216C36.5605 186.314 36.3876 186.366 36.2112 186.364C36.0347 186.362 35.8628 186.308 35.7176 186.208C35.5723 186.107 35.4604 185.966 35.3963 185.801C34.4428 185.722 33.5042 185.515 32.6053 185.187C33.0372 186.053 33.6356 186.825 34.3661 187.458C35.0966 188.092 35.9449 188.575 36.8623 188.88C37.7798 189.185 38.7482 189.305 39.7123 189.235C40.6764 189.164 41.617 188.904 42.4803 188.468L42.4895 188.4Z" fill="#17D4A7"/>
<path d="M46.0628 179.368C45.2144 180.911 44.1013 182.293 42.7742 183.45C42.7928 183.519 42.8021 183.59 42.8017 183.661C42.8008 183.789 42.7721 183.915 42.7176 184.03C42.663 184.145 42.5839 184.247 42.4859 184.329C42.9982 185.696 43.2204 186.955 43.1488 188.095C44.5557 187.191 45.6117 185.832 46.1417 184.245C46.6717 182.658 46.6439 180.937 46.0628 179.368Z" fill="#17D4A7"/>
<path d="M37.4419 179.21C37.3835 179.006 37.3747 178.791 37.4162 178.583C36.0526 178.108 34.6384 177.793 33.2021 177.646C32.5399 178.571 32.1018 179.638 31.9223 180.761C31.7429 181.885 31.8272 183.035 32.1683 184.121C33.3582 182.039 35.1448 180.373 37.4419 179.21Z" fill="#17D4A7"/>
<path d="M59.9273 181.952H63.6477V186.953C63.1253 187.126 62.5847 187.26 62.026 187.355C61.4673 187.45 60.8404 187.498 60.1454 187.498C59.1324 187.498 58.2738 187.298 57.5697 186.898C56.8702 186.494 56.3387 185.91 55.9753 185.147C55.6119 184.38 55.4302 183.455 55.4302 182.374C55.4302 181.334 55.6323 180.432 56.0366 179.669C56.4409 178.901 57.0292 178.308 57.8014 177.89C58.5736 177.468 59.5094 177.257 60.6087 177.257C61.1493 177.257 61.6717 177.311 62.1759 177.42C62.6847 177.525 63.1503 177.67 63.5727 177.856L63.0004 179.206C62.6642 179.047 62.2872 178.913 61.8693 178.804C61.4514 178.695 61.0175 178.64 60.5678 178.64C59.8546 178.64 59.2391 178.794 58.7213 179.103C58.208 179.412 57.8128 179.848 57.5357 180.412C57.2586 180.97 57.12 181.631 57.12 182.394C57.12 183.135 57.2313 183.784 57.4539 184.343C57.6765 184.902 58.024 185.338 58.4964 185.651C58.9734 185.96 59.5889 186.115 60.343 186.115C60.72 186.115 61.0403 186.094 61.3037 186.053C61.5672 186.013 61.8102 185.967 62.0328 185.917V183.348H59.9273V181.952ZM66.7793 187.362H65.1713V176.759H66.7793V187.362ZM75.0487 183.573C75.0487 184.2 74.9669 184.757 74.8034 185.243C74.6398 185.729 74.4013 186.14 74.0879 186.476C73.7745 186.808 73.3974 187.062 72.9568 187.239C72.5162 187.412 72.0188 187.498 71.4646 187.498C70.9467 187.498 70.472 187.412 70.0405 187.239C69.6089 187.062 69.2342 186.808 68.9162 186.476C68.6027 186.14 68.3597 185.729 68.1871 185.243C68.0145 184.757 67.9282 184.2 67.9282 183.573C67.9282 182.742 68.0713 182.038 68.3574 181.461C68.6482 180.879 69.0615 180.437 69.5976 180.132C70.1336 179.828 70.7718 179.676 71.5123 179.676C72.2073 179.676 72.8205 179.828 73.352 180.132C73.8835 180.437 74.2991 180.879 74.5989 181.461C74.8988 182.042 75.0487 182.746 75.0487 183.573ZM69.5771 183.573C69.5771 184.123 69.643 184.593 69.7747 184.984C69.911 185.374 70.12 185.674 70.4016 185.883C70.6832 186.088 71.0466 186.19 71.4918 186.19C71.937 186.19 72.3004 186.088 72.582 185.883C72.8637 185.674 73.0704 185.374 73.2021 184.984C73.3338 184.593 73.3997 184.123 73.3997 183.573C73.3997 183.024 73.3338 182.558 73.2021 182.176C73.0704 181.79 72.8637 181.497 72.582 181.297C72.3004 181.093 71.9347 180.991 71.485 180.991C70.8218 180.991 70.338 181.213 70.0337 181.659C69.7293 182.104 69.5771 182.742 69.5771 183.573ZM77.7919 176.759V179.315C77.7919 179.61 77.7828 179.901 77.7647 180.187C77.751 180.468 77.7374 180.689 77.7238 180.848H77.7919C77.9963 180.521 78.2802 180.246 78.6437 180.023C79.0116 179.796 79.4818 179.683 80.0541 179.683C80.949 179.683 81.669 180.012 82.2141 180.671C82.7592 181.325 83.0318 182.295 83.0318 183.58C83.0318 184.434 82.9069 185.152 82.657 185.733C82.4072 186.315 82.0551 186.755 81.6009 187.055C81.1512 187.35 80.6219 187.498 80.0132 187.498C79.4409 187.498 78.9775 187.394 78.6232 187.185C78.2734 186.971 77.9986 186.724 77.7987 186.442H77.6829L77.3899 187.362H76.1907V176.759H77.7919ZM79.6317 180.984C79.1774 180.984 78.8163 181.075 78.5483 181.257C78.2848 181.438 78.094 181.711 77.9759 182.074C77.8578 182.433 77.7965 182.89 77.7919 183.444V183.587C77.7919 184.427 77.9237 185.07 78.1871 185.515C78.4551 185.96 78.9412 186.183 79.6453 186.183C80.204 186.183 80.6333 185.958 80.9331 185.508C81.2329 185.054 81.3828 184.405 81.3828 183.56C81.3828 182.706 81.2329 182.063 80.9331 181.631C80.6378 181.2 80.204 180.984 79.6317 180.984ZM87.1446 179.676C88.0986 179.676 88.8186 179.887 89.3046 180.309C89.7952 180.732 90.0405 181.391 90.0405 182.285V187.362H88.9026L88.596 186.292H88.5415C88.328 186.565 88.1077 186.789 87.8805 186.967C87.6534 187.144 87.3899 187.275 87.0901 187.362C86.7949 187.453 86.4337 187.498 86.0067 187.498C85.557 187.498 85.155 187.416 84.8007 187.253C84.4463 187.085 84.167 186.83 83.9626 186.49C83.7581 186.149 83.6559 185.717 83.6559 185.195C83.6559 184.418 83.9444 183.834 84.5213 183.444C85.1027 183.053 85.9795 182.837 87.1515 182.796L88.4597 182.749V182.354C88.4597 181.831 88.3371 181.459 88.0918 181.236C87.851 181.014 87.5103 180.902 87.0697 180.902C86.6927 180.902 86.327 180.957 85.9727 181.066C85.6183 181.175 85.2731 181.309 84.9369 181.468L84.4191 180.337C84.787 180.141 85.205 179.982 85.6728 179.86C86.1453 179.737 86.6359 179.676 87.1446 179.676ZM88.4529 183.757L87.4785 183.791C86.679 183.819 86.118 183.955 85.7955 184.2C85.473 184.445 85.3117 184.782 85.3117 185.209C85.3117 185.581 85.423 185.854 85.6456 186.026C85.8682 186.194 86.1612 186.278 86.5246 186.278C87.0788 186.278 87.5376 186.122 87.901 185.808C88.2689 185.49 88.4529 185.025 88.4529 184.411V183.757ZM93.1926 187.362H91.5846V176.759H93.1926V187.362ZM98.6546 179.676C99.5495 179.676 100.267 180.003 100.808 180.657C101.353 181.311 101.625 182.283 101.625 183.573C101.625 184.427 101.498 185.147 101.244 185.733C100.994 186.315 100.642 186.755 100.188 187.055C99.738 187.35 99.2134 187.498 98.6137 187.498C98.2322 187.498 97.9006 187.448 97.6189 187.348C97.3373 187.248 97.0965 187.119 96.8966 186.96C96.6968 186.796 96.5287 186.619 96.3924 186.428H96.297C96.3197 186.61 96.3402 186.812 96.3584 187.035C96.3811 187.253 96.3924 187.453 96.3924 187.634V190.707H94.7843V179.819H96.0926L96.3175 180.861H96.3924C96.5332 180.648 96.7036 180.45 96.9035 180.269C97.1079 180.087 97.3532 179.944 97.6394 179.839C97.9301 179.73 98.2685 179.676 98.6546 179.676ZM98.2254 180.984C97.7847 180.984 97.4304 181.073 97.1624 181.25C96.8989 181.422 96.7059 181.684 96.5832 182.033C96.4651 182.383 96.4015 182.821 96.3924 183.348V183.573C96.3924 184.132 96.4492 184.607 96.5628 184.997C96.6809 185.383 96.8739 185.679 97.1419 185.883C97.4145 186.083 97.7824 186.183 98.2458 186.183C98.6365 186.183 98.959 186.076 99.2134 185.863C99.4723 185.649 99.6653 185.345 99.7925 184.95C99.9197 184.554 99.9833 184.089 99.9833 183.553C99.9833 182.74 99.838 182.108 99.5472 181.659C99.2611 181.209 98.8204 180.984 98.2254 180.984ZM104.382 179.819V187.362H102.781V179.819H104.382ZM103.592 176.93C103.837 176.93 104.048 176.996 104.226 177.127C104.407 177.259 104.498 177.486 104.498 177.809C104.498 178.127 104.407 178.354 104.226 178.49C104.048 178.622 103.837 178.688 103.592 178.688C103.338 178.688 103.122 178.622 102.945 178.49C102.772 178.354 102.686 178.127 102.686 177.809C102.686 177.486 102.772 177.259 102.945 177.127C103.122 176.996 103.338 176.93 103.592 176.93ZM109.912 179.676C110.762 179.676 111.423 179.896 111.895 180.337C112.372 180.773 112.611 181.475 112.611 182.442V187.362H111.01V182.742C111.01 182.156 110.889 181.718 110.648 181.427C110.408 181.132 110.035 180.984 109.531 180.984C108.8 180.984 108.291 181.209 108.005 181.659C107.723 182.108 107.582 182.76 107.582 183.614V187.362H105.981V179.819H107.228L107.453 180.841H107.541C107.705 180.577 107.907 180.362 108.148 180.194C108.393 180.021 108.666 179.891 108.965 179.805C109.27 179.719 109.585 179.676 109.912 179.676ZM116.308 190.714C115.286 190.714 114.502 190.53 113.957 190.162C113.412 189.794 113.14 189.279 113.14 188.616C113.14 188.152 113.285 187.759 113.576 187.437C113.866 187.119 114.282 186.898 114.823 186.776C114.618 186.685 114.441 186.544 114.291 186.353C114.146 186.158 114.073 185.942 114.073 185.706C114.073 185.424 114.153 185.184 114.312 184.984C114.471 184.784 114.709 184.591 115.027 184.405C114.632 184.236 114.314 183.964 114.073 183.587C113.837 183.205 113.719 182.758 113.719 182.245C113.719 181.699 113.835 181.236 114.066 180.855C114.298 180.468 114.636 180.175 115.081 179.976C115.527 179.771 116.065 179.669 116.696 179.669C116.833 179.669 116.98 179.678 117.139 179.696C117.303 179.71 117.453 179.728 117.589 179.751C117.73 179.769 117.837 179.789 117.909 179.812H120.519V180.705L119.238 180.943C119.361 181.116 119.458 181.313 119.531 181.536C119.604 181.754 119.64 181.992 119.64 182.251C119.64 183.033 119.37 183.648 118.829 184.098C118.293 184.543 117.553 184.766 116.608 184.766C116.381 184.757 116.16 184.738 115.947 184.711C115.783 184.811 115.658 184.922 115.572 185.045C115.486 185.163 115.443 185.297 115.443 185.447C115.443 185.57 115.486 185.67 115.572 185.747C115.658 185.82 115.786 185.874 115.954 185.91C116.126 185.947 116.335 185.965 116.581 185.965H117.882C118.709 185.965 119.34 186.14 119.776 186.49C120.212 186.839 120.43 187.353 120.43 188.03C120.43 188.888 120.076 189.549 119.367 190.012C118.659 190.48 117.639 190.714 116.308 190.714ZM116.369 189.59C116.928 189.59 117.398 189.535 117.78 189.426C118.161 189.317 118.45 189.161 118.645 188.956C118.84 188.756 118.938 188.518 118.938 188.241C118.938 187.995 118.877 187.807 118.754 187.675C118.632 187.543 118.448 187.453 118.202 187.403C117.957 187.353 117.653 187.328 117.289 187.328H116.104C115.808 187.328 115.547 187.373 115.32 187.464C115.093 187.559 114.916 187.696 114.789 187.873C114.666 188.05 114.605 188.263 114.605 188.513C114.605 188.859 114.757 189.124 115.061 189.311C115.37 189.497 115.806 189.59 116.369 189.59ZM116.683 183.716C117.151 183.716 117.498 183.589 117.725 183.335C117.952 183.076 118.066 182.712 118.066 182.245C118.066 181.736 117.948 181.354 117.712 181.1C117.48 180.845 117.135 180.718 116.676 180.718C116.226 180.718 115.883 180.848 115.647 181.107C115.415 181.366 115.3 181.749 115.3 182.258C115.3 182.717 115.415 183.076 115.647 183.335C115.883 183.589 116.228 183.716 116.683 183.716Z" fill="white"/>
<rect x="29.6271" y="198.802" width="19.096" height="19.096" rx="3.67232" fill="#4F2851"/>
<line x1="43.9492" y1="208.717" x2="34.4011" y2="208.717" stroke="#BBADBC" stroke-width="2.20339"/>
<line x1="43.9492" y1="208.717" x2="34.4011" y2="208.717" stroke="#BBADBC" stroke-width="2.20339"/>
<line x1="43.9492" y1="208.717" x2="34.4011" y2="208.717" stroke="#BBADBC" stroke-width="2.20339"/>
<line x1="39.1751" y1="203.576" x2="39.1751" y2="213.124" stroke="#BBADBC" stroke-width="2.20339"/>
<line x1="39.1751" y1="203.576" x2="39.1751" y2="213.124" stroke="#BBADBC" stroke-width="2.20339"/>
<line x1="39.1751" y1="203.576" x2="39.1751" y2="213.124" stroke="#BBADBC" stroke-width="2.20339"/>
<path d="M62.0805 213.802L61.1061 211.036H57.2972L56.3228 213.802H54.5989L58.3056 203.8H60.1181L63.818 213.802H62.0805ZM60.6837 209.632L59.7365 206.907C59.7002 206.789 59.648 206.623 59.5798 206.409C59.5117 206.191 59.4435 205.971 59.3754 205.748C59.3073 205.521 59.2505 205.33 59.2051 205.176C59.1596 205.362 59.1028 205.571 59.0347 205.803C58.9711 206.03 58.9075 206.244 58.8439 206.443C58.7849 206.643 58.7394 206.798 58.7076 206.907L57.7537 209.632H60.6837ZM66.8066 213.939C65.9072 213.939 65.1849 213.612 64.6398 212.957C64.0992 212.299 63.8289 211.329 63.8289 210.048C63.8289 208.753 64.1038 207.774 64.6534 207.111C65.2076 206.448 65.9367 206.116 66.8407 206.116C67.2222 206.116 67.5561 206.169 67.8423 206.273C68.1285 206.373 68.3738 206.509 68.5782 206.682C68.7872 206.854 68.9643 207.048 69.1097 207.261H69.1846C69.1619 207.12 69.1347 206.918 69.1029 206.655C69.0756 206.387 69.062 206.139 69.062 205.912V203.2H70.6701V213.802H69.4163L69.1301 212.773H69.062C68.9257 212.992 68.7531 213.189 68.5441 213.366C68.3397 213.539 68.0944 213.677 67.8082 213.782C67.5266 213.886 67.1927 213.939 66.8066 213.939ZM67.2563 212.637C67.9422 212.637 68.426 212.44 68.7077 212.044C68.9893 211.649 69.1347 211.056 69.1438 210.266V210.055C69.1438 209.21 69.0075 208.563 68.7349 208.113C68.4624 207.659 67.965 207.431 67.2427 207.431C66.6658 207.431 66.2252 207.665 65.9208 208.133C65.621 208.597 65.4711 209.244 65.4711 210.075C65.4711 210.906 65.621 211.542 65.9208 211.983C66.2252 212.419 66.6703 212.637 67.2563 212.637ZM74.8034 213.939C73.9039 213.939 73.1817 213.612 72.6365 212.957C72.096 212.299 71.8257 211.329 71.8257 210.048C71.8257 208.753 72.1005 207.774 72.6502 207.111C73.2044 206.448 73.9335 206.116 74.8374 206.116C75.219 206.116 75.5529 206.169 75.8391 206.273C76.1253 206.373 76.3705 206.509 76.575 206.682C76.7839 206.854 76.9611 207.048 77.1064 207.261H77.1814C77.1587 207.12 77.1314 206.918 77.0996 206.655C77.0724 206.387 77.0588 206.139 77.0588 205.912V203.2H78.6668V213.802H77.4131L77.1269 212.773H77.0588C76.9225 212.992 76.7499 213.189 76.5409 213.366C76.3365 213.539 76.0912 213.677 75.805 213.782C75.5234 213.886 75.1895 213.939 74.8034 213.939ZM75.2531 212.637C75.939 212.637 76.4228 212.44 76.7044 212.044C76.9861 211.649 77.1314 211.056 77.1405 210.266V210.055C77.1405 209.21 77.0042 208.563 76.7317 208.113C76.4591 207.659 75.9617 207.431 75.2394 207.431C74.6625 207.431 74.2219 207.665 73.9176 208.133C73.6177 208.597 73.4678 209.244 73.4678 210.075C73.4678 210.906 73.6177 211.542 73.9176 211.983C74.2219 212.419 74.6671 212.637 75.2531 212.637ZM86.1498 206.116C87.1038 206.116 87.8238 206.328 88.3098 206.75C88.8004 207.172 89.0457 207.831 89.0457 208.726V213.802H87.9078L87.6012 212.733H87.5467C87.3332 213.005 87.1128 213.23 86.8857 213.407C86.6586 213.584 86.3951 213.716 86.0953 213.802C85.8 213.893 85.4389 213.939 85.0119 213.939C84.5622 213.939 84.1602 213.857 83.8058 213.693C83.4515 213.525 83.1722 213.271 82.9677 212.93C82.7633 212.589 82.6611 212.158 82.6611 211.636C82.6611 210.859 82.9496 210.275 83.5265 209.884C84.1079 209.494 84.9846 209.278 86.1566 209.237L87.4649 209.189V208.794C87.4649 208.272 87.3422 207.899 87.0969 207.677C86.8562 207.454 86.5155 207.343 86.0749 207.343C85.6978 207.343 85.3321 207.397 84.9778 207.506C84.6235 207.615 84.2783 207.749 83.9421 207.908L83.4243 206.777C83.7922 206.582 84.2101 206.423 84.678 206.3C85.1504 206.178 85.641 206.116 86.1498 206.116ZM87.4581 210.198L86.4837 210.232C85.6842 210.259 85.1232 210.395 84.8007 210.641C84.4781 210.886 84.3169 211.222 84.3169 211.649C84.3169 212.022 84.4282 212.294 84.6508 212.467C84.8733 212.635 85.1663 212.719 85.5298 212.719C86.0839 212.719 86.5427 212.562 86.9062 212.249C87.2741 211.931 87.4581 211.465 87.4581 210.852V210.198ZM94.46 206.116C95.3549 206.116 96.0726 206.443 96.6132 207.098C97.1583 207.752 97.4309 208.724 97.4309 210.014C97.4309 210.868 97.3037 211.588 97.0493 212.174C96.7994 212.755 96.4474 213.196 95.9931 213.496C95.5434 213.791 95.0187 213.939 94.4191 213.939C94.0375 213.939 93.7059 213.889 93.4243 213.789C93.1427 213.689 92.9019 213.559 92.702 213.4C92.5022 213.237 92.3341 213.06 92.1978 212.869H92.1024C92.1251 213.051 92.1456 213.253 92.1637 213.475C92.1864 213.693 92.1978 213.893 92.1978 214.075V217.148H90.5897V206.259H91.898L92.1228 207.302H92.1978C92.3386 207.088 92.509 206.891 92.7088 206.709C92.9133 206.527 93.1586 206.384 93.4447 206.28C93.7355 206.171 94.0739 206.116 94.46 206.116ZM94.0307 207.425C93.5901 207.425 93.2358 207.513 92.9678 207.69C92.7043 207.863 92.5112 208.124 92.3886 208.474C92.2705 208.824 92.2069 209.262 92.1978 209.789V210.014C92.1978 210.573 92.2546 211.047 92.3681 211.438C92.4863 211.824 92.6793 212.119 92.9473 212.324C93.2199 212.524 93.5878 212.624 94.0512 212.624C94.4418 212.624 94.7644 212.517 95.0187 212.303C95.2777 212.09 95.4707 211.785 95.5979 211.39C95.7251 210.995 95.7887 210.529 95.7887 209.993C95.7887 209.18 95.6433 208.549 95.3526 208.099C95.0664 207.649 94.6258 207.425 94.0307 207.425ZM102.457 206.116C103.352 206.116 104.069 206.443 104.61 207.098C105.155 207.752 105.428 208.724 105.428 210.014C105.428 210.868 105.3 211.588 105.046 212.174C104.796 212.755 104.444 213.196 103.99 213.496C103.54 213.791 103.016 213.939 102.416 213.939C102.034 213.939 101.703 213.889 101.421 213.789C101.139 213.689 100.899 213.559 100.699 213.4C100.499 213.237 100.331 213.06 100.195 212.869H100.099C100.122 213.051 100.142 213.253 100.16 213.475C100.183 213.693 100.195 213.893 100.195 214.075V217.148H98.5865V206.259H99.8947L100.12 207.302H100.195C100.335 207.088 100.506 206.891 100.706 206.709C100.91 206.527 101.155 206.384 101.441 206.28C101.732 206.171 102.071 206.116 102.457 206.116ZM102.027 207.425C101.587 207.425 101.233 207.513 100.965 207.69C100.701 207.863 100.508 208.124 100.385 208.474C100.267 208.824 100.204 209.262 100.195 209.789V210.014C100.195 210.573 100.251 211.047 100.365 211.438C100.483 211.824 100.676 212.119 100.944 212.324C101.217 212.524 101.585 212.624 102.048 212.624C102.439 212.624 102.761 212.517 103.016 212.303C103.274 212.09 103.467 211.785 103.595 211.39C103.722 210.995 103.785 210.529 103.785 209.993C103.785 209.18 103.64 208.549 103.349 208.099C103.063 207.649 102.623 207.425 102.027 207.425ZM111.653 211.649C111.653 212.144 111.532 212.562 111.292 212.903C111.051 213.244 110.699 213.503 110.235 213.68C109.777 213.852 109.213 213.939 108.546 213.939C108.019 213.939 107.564 213.9 107.183 213.823C106.806 213.75 106.449 213.637 106.113 213.482V212.099C106.472 212.267 106.874 212.412 107.319 212.535C107.769 212.658 108.194 212.719 108.593 212.719C109.12 212.719 109.5 212.637 109.731 212.474C109.963 212.306 110.079 212.083 110.079 211.806C110.079 211.642 110.031 211.497 109.936 211.37C109.845 211.238 109.672 211.104 109.418 210.968C109.168 210.827 108.8 210.659 108.314 210.464C107.837 210.273 107.435 210.082 107.108 209.891C106.781 209.7 106.533 209.471 106.365 209.203C106.197 208.93 106.113 208.583 106.113 208.16C106.113 207.493 106.377 206.986 106.903 206.641C107.435 206.291 108.137 206.116 109.009 206.116C109.472 206.116 109.908 206.164 110.317 206.259C110.731 206.35 111.135 206.484 111.53 206.661L111.026 207.867C110.685 207.718 110.342 207.595 109.997 207.5C109.656 207.4 109.309 207.35 108.954 207.35C108.541 207.35 108.225 207.413 108.007 207.54C107.794 207.668 107.687 207.849 107.687 208.086C107.687 208.263 107.739 208.413 107.844 208.535C107.948 208.658 108.128 208.781 108.382 208.903C108.641 209.026 109 209.178 109.459 209.36C109.908 209.532 110.297 209.714 110.624 209.905C110.955 210.091 111.21 210.32 111.387 210.593C111.564 210.866 111.653 211.218 111.653 211.649Z" fill="#BBADBC"/>
<path d="M42.4187 245.257C46.9754 243.629 46.0766 238.504 46.0766 238.504C46.0766 238.504 40.9503 237.609 39.3238 242.162L36.1101 242.203L33.6279 244.685C33.6279 244.685 35.7404 244.685 37.8149 246.762C39.8895 248.839 39.8934 250.949 39.8934 250.949L42.3756 248.467L42.4187 245.257Z" stroke="#BBADBC" stroke-width="1.46893" stroke-miterlimit="10"/>
<path d="M35.2893 246.754C35.2893 246.754 32.747 248.333 33.4682 251.116C36.2508 251.837 37.8315 249.295 37.8315 249.295" stroke="#BBADBC" stroke-width="1.46893" stroke-miterlimit="10"/>
<circle cx="43.1987" cy="241.72" r="0.670597" fill="#BBADBC"/>
<path d="M63.7295 240.612V247.058C63.7295 247.753 63.5818 248.375 63.2866 248.925C62.9958 249.474 62.5552 249.91 61.9647 250.233C61.3741 250.551 60.6314 250.71 59.7365 250.71C58.4601 250.71 57.488 250.376 56.8202 249.708C56.157 249.036 55.8254 248.143 55.8254 247.03V240.612H57.4607V246.887C57.4607 247.719 57.656 248.332 58.0467 248.727C58.4374 249.122 59.0211 249.32 59.7979 249.32C60.3339 249.32 60.77 249.227 61.1061 249.04C61.4468 248.85 61.6967 248.573 61.8556 248.209C62.0192 247.841 62.1009 247.398 62.1009 246.88V240.612H63.7295ZM69.2869 242.888C70.1817 242.888 70.8995 243.215 71.44 243.869C71.9851 244.523 72.2577 245.495 72.2577 246.785C72.2577 247.639 72.1305 248.359 71.8761 248.945C71.6263 249.527 71.2742 249.967 70.82 250.267C70.3703 250.562 69.8456 250.71 69.246 250.71C68.8644 250.71 68.5328 250.66 68.2511 250.56C67.9695 250.46 67.7287 250.331 67.5289 250.172C67.329 250.008 67.1609 249.831 67.0246 249.64H66.9293C66.952 249.822 66.9724 250.024 66.9906 250.247C67.0133 250.465 67.0246 250.664 67.0246 250.846V253.919H65.4166V243.031H66.7248L66.9497 244.073H67.0246C67.1655 243.86 67.3358 243.662 67.5357 243.48C67.7401 243.299 67.9854 243.156 68.2716 243.051C68.5623 242.942 68.9007 242.888 69.2869 242.888ZM68.8576 244.196C68.4169 244.196 68.0626 244.284 67.7946 244.462C67.5311 244.634 67.3381 244.895 67.2154 245.245C67.0973 245.595 67.0337 246.033 67.0246 246.56V246.785C67.0246 247.344 67.0814 247.819 67.195 248.209C67.3131 248.595 67.5062 248.891 67.7742 249.095C68.0467 249.295 68.4147 249.395 68.878 249.395C69.2687 249.395 69.5912 249.288 69.8456 249.075C70.1045 248.861 70.2976 248.557 70.4248 248.161C70.552 247.766 70.6156 247.301 70.6156 246.765C70.6156 245.952 70.4702 245.32 70.1795 244.87C69.8933 244.421 69.4527 244.196 68.8576 244.196ZM75.5665 253.926C74.5444 253.926 73.7608 253.742 73.2157 253.374C72.6706 253.006 72.3981 252.491 72.3981 251.827C72.3981 251.364 72.5434 250.971 72.8342 250.649C73.1249 250.331 73.5405 250.11 74.0811 249.988C73.8767 249.897 73.6995 249.756 73.5496 249.565C73.4042 249.37 73.3316 249.154 73.3316 248.918C73.3316 248.636 73.4111 248.395 73.57 248.196C73.729 247.996 73.9675 247.803 74.2855 247.616C73.8903 247.448 73.5723 247.176 73.3316 246.799C73.0953 246.417 72.9772 245.97 72.9772 245.456C72.9772 244.911 73.0931 244.448 73.3248 244.066C73.5564 243.68 73.8948 243.387 74.34 243.187C74.7852 242.983 75.3235 242.881 75.9549 242.881C76.0912 242.881 76.2388 242.89 76.3978 242.908C76.5613 242.922 76.7112 242.94 76.8475 242.963C76.9883 242.981 77.0951 243.001 77.1678 243.024H79.7775V243.916L78.4965 244.155C78.6191 244.328 78.7168 244.525 78.7895 244.748C78.8622 244.966 78.8985 245.204 78.8985 245.463C78.8985 246.245 78.6282 246.86 78.0876 247.31C77.5516 247.755 76.8112 247.978 75.8663 247.978C75.6392 247.968 75.4189 247.95 75.2054 247.923C75.0418 248.023 74.9169 248.134 74.8306 248.257C74.7443 248.375 74.7012 248.509 74.7012 248.659C74.7012 248.782 74.7443 248.881 74.8306 248.959C74.9169 249.031 75.0441 249.086 75.2122 249.122C75.3848 249.159 75.5938 249.177 75.8391 249.177H77.1405C77.9673 249.177 78.5987 249.352 79.0348 249.701C79.4709 250.051 79.6889 250.565 79.6889 251.241C79.6889 252.1 79.3346 252.761 78.6259 253.224C77.9173 253.692 76.8975 253.926 75.5665 253.926ZM75.6278 252.802C76.1866 252.802 76.6567 252.747 77.0383 252.638C77.4199 252.529 77.7083 252.372 77.9037 252.168C78.099 251.968 78.1967 251.73 78.1967 251.453C78.1967 251.207 78.1353 251.019 78.0127 250.887C77.89 250.755 77.7061 250.664 77.4608 250.614C77.2155 250.565 76.9111 250.54 76.5477 250.54H75.3621C75.0668 250.54 74.8056 250.585 74.5785 250.676C74.3514 250.771 74.1742 250.907 74.047 251.085C73.9244 251.262 73.863 251.475 73.863 251.725C73.863 252.07 74.0152 252.336 74.3196 252.522C74.6285 252.709 75.0646 252.802 75.6278 252.802ZM75.9413 246.928C76.4092 246.928 76.7567 246.801 76.9838 246.547C77.2109 246.288 77.3245 245.924 77.3245 245.456C77.3245 244.948 77.2064 244.566 76.9702 244.312C76.7385 244.057 76.3933 243.93 75.9345 243.93C75.4847 243.93 75.1418 244.06 74.9056 244.318C74.6739 244.577 74.5581 244.961 74.5581 245.47C74.5581 245.929 74.6739 246.288 74.9056 246.547C75.1418 246.801 75.487 246.928 75.9413 246.928ZM84.2787 242.888C84.4059 242.888 84.5445 242.894 84.6944 242.908C84.8443 242.922 84.9737 242.94 85.0828 242.963L84.9329 244.462C84.8375 244.434 84.7194 244.414 84.5785 244.4C84.4423 244.387 84.3196 244.38 84.2106 244.38C83.9244 244.38 83.6518 244.427 83.3929 244.523C83.134 244.614 82.9046 244.755 82.7047 244.945C82.5048 245.132 82.3481 245.366 82.2346 245.647C82.121 245.929 82.0642 246.256 82.0642 246.628V250.574H80.4561V243.031H81.7099L81.9279 244.359H82.0029C82.1528 244.091 82.339 243.846 82.5616 243.623C82.7842 243.401 83.0386 243.224 83.3248 243.092C83.6155 242.956 83.9335 242.888 84.2787 242.888ZM88.7391 242.888C89.693 242.888 90.413 243.099 90.8991 243.521C91.3897 243.944 91.635 244.602 91.635 245.497V250.574H90.4971L90.1904 249.504H90.1359C89.9224 249.776 89.7021 250.001 89.475 250.178C89.2479 250.356 88.9844 250.487 88.6846 250.574C88.3893 250.664 88.0282 250.71 87.6012 250.71C87.1515 250.71 86.7494 250.628 86.3951 250.465C86.0408 250.297 85.7614 250.042 85.557 249.701C85.3526 249.361 85.2504 248.929 85.2504 248.407C85.2504 247.63 85.5388 247.046 86.1157 246.656C86.6972 246.265 87.5739 246.049 88.7459 246.008L90.0542 245.961V245.565C90.0542 245.043 89.9315 244.671 89.6862 244.448C89.4455 244.225 89.1048 244.114 88.6641 244.114C88.2871 244.114 87.9214 244.169 87.5671 244.278C87.2128 244.387 86.8675 244.521 86.5314 244.68L86.0135 243.549C86.3815 243.353 86.7994 243.194 87.2673 243.072C87.7397 242.949 88.2303 242.888 88.7391 242.888ZM90.0473 246.969L89.073 247.003C88.2735 247.03 87.7125 247.167 87.3899 247.412C87.0674 247.657 86.9062 247.993 86.9062 248.42C86.9062 248.793 87.0174 249.065 87.24 249.238C87.4626 249.406 87.7556 249.49 88.119 249.49C88.6732 249.49 89.132 249.333 89.4954 249.02C89.8634 248.702 90.0473 248.236 90.0473 247.623V246.969ZM95.7138 250.71C94.8143 250.71 94.0921 250.383 93.547 249.729C93.0064 249.07 92.7361 248.1 92.7361 246.819C92.7361 245.525 93.0109 244.546 93.5606 243.882C94.1148 243.219 94.8439 242.888 95.7478 242.888C96.1294 242.888 96.4633 242.94 96.7495 243.044C97.0357 243.144 97.2809 243.28 97.4854 243.453C97.6943 243.626 97.8715 243.819 98.0168 244.032H98.0918C98.0691 243.891 98.0418 243.689 98.01 243.426C97.9828 243.158 97.9692 242.91 97.9692 242.683V239.971H99.5772V250.574H98.3235L98.0373 249.545H97.9692C97.8329 249.763 97.6603 249.96 97.4513 250.138C97.2469 250.31 97.0016 250.449 96.7154 250.553C96.4338 250.658 96.0999 250.71 95.7138 250.71ZM96.1635 249.408C96.8494 249.408 97.3332 249.211 97.6148 248.816C97.8965 248.42 98.0418 247.828 98.0509 247.037V246.826C98.0509 245.981 97.9146 245.334 97.6421 244.884C97.3695 244.43 96.8721 244.203 96.1498 244.203C95.5729 244.203 95.1323 244.437 94.828 244.904C94.5281 245.368 94.3782 246.015 94.3782 246.846C94.3782 247.678 94.5281 248.314 94.828 248.754C95.1323 249.19 95.5775 249.408 96.1635 249.408ZM104.181 242.888C104.853 242.888 105.43 243.026 105.911 243.303C106.393 243.58 106.763 243.973 107.022 244.482C107.281 244.991 107.41 245.599 107.41 246.308V247.167H102.375C102.393 247.898 102.588 248.461 102.961 248.857C103.338 249.252 103.865 249.449 104.542 249.449C105.023 249.449 105.455 249.404 105.836 249.313C106.223 249.218 106.62 249.079 107.029 248.897V250.199C106.652 250.376 106.268 250.505 105.877 250.587C105.487 250.669 105.019 250.71 104.474 250.71C103.733 250.71 103.081 250.567 102.518 250.281C101.959 249.99 101.521 249.558 101.203 248.986C100.89 248.414 100.733 247.703 100.733 246.853C100.733 246.008 100.876 245.291 101.162 244.7C101.448 244.11 101.85 243.66 102.368 243.351C102.886 243.042 103.49 242.888 104.181 242.888ZM104.181 244.094C103.676 244.094 103.268 244.257 102.954 244.584C102.645 244.911 102.464 245.391 102.409 246.022H105.843C105.839 245.645 105.775 245.311 105.652 245.02C105.534 244.73 105.353 244.502 105.107 244.339C104.867 244.175 104.558 244.094 104.181 244.094Z" fill="#BBADBC"/>
<rect x="27.4393" y="169.925" width="225.449" height="23.4718" rx="6.59463" stroke="#17D4A7" stroke-width="1.5"/>
<defs>
<filter id="filter0_d_4352_15230" x="42.113" y="90.5878" width="10.2825" height="10.2825" filterUnits="userSpaceOnUse" color-interpolation-filters="sRGB">
<feFlood flood-opacity="0" result="BackgroundImageFix"/>
<feColorMatrix in="SourceAlpha" type="matrix" values="0 0 0 0 0 0 0 0 0 0 0 0 0 0 0 0 0 0 127 0" result="hardAlpha"/>
<feMorphology radius="1.46893" operator="dilate" in="SourceAlpha" result="effect1_dropShadow_4352_15230"/>
<feOffset/>
<feComposite in2="hardAlpha" operator="out"/>
<feColorMatrix type="matrix" values="0 0 0 0 0.231373 0 0 0 0 0.0627451 0 0 0 0 0.239216 0 0 0 1 0"/>
<feBlend mode="normal" in2="BackgroundImageFix" result="effect1_dropShadow_4352_15230"/>
<feBlend mode="normal" in="SourceGraphic" in2="effect1_dropShadow_4352_15230" result="shape"/>
</filter>
<clipPath id="clip0_4352_15230">
<rect x="29.6271" y="29.6271" width="14.6893" height="14.6893" rx="4.40678" fill="white"/>
</clipPath>
<clipPath id="clip1_4352_15230">
<rect x="29.6271" y="82.7573" width="19.096" height="19.096" rx="4.40678" fill="white"/>
</clipPath>
</defs>
</svg>
