<svg xmlns="http://www.w3.org/2000/svg" width="116" height="116" fill="none" viewBox="0 0 32.9 116">
  <defs>
    <clipPath id="a" clipPathUnits="userSpaceOnUse">
      <path d="M.198 115.791.17-.46c49.053-.244 92.621.232 136.065.106l.081 116.473z" style="fill:none;stroke:#000;stroke-width:1px;stroke-linecap:butt;stroke-linejoin:miter;stroke-opacity:1"/>
    </clipPath>
  </defs>
  <path fill="#ff5700" fill-rule="evenodd" d="M119.947 57.636c0 31.812-25.789 57.601-57.601 57.601-12.85 0-24.716-4.207-34.298-11.32 1.64.92 3.333 1.755 5.071 2.5a52.765 52.765 0 0 0 20.867 4.311 53.058 53.058 0 0 0 52.884-49c.144-1.255.223-2.517.237-3.78 0-1.607-.134-3.474-.297-5.166-.015-.162-.02-.326-.025-.49-.006-.19-.012-.38-.033-.565l-.046.046a107.87 107.87 0 0 0-.489-3.913H64.416l-3.247 6.076-7.465 14.1h31.584a32.966 32.966 0 0 1-5.166 9.685 32.876 32.876 0 0 1-26.136 12.918 32.862 32.862 0 0 1-11.342-2.043 32.984 32.984 0 0 1-21.66-30.96 33.004 33.004 0 0 1 33.002-33.004 32.857 32.857 0 0 1 19.455 6.342l4.332-8.106 5.16-9.747a52.842 52.842 0 0 0-28.947-8.579 53.067 53.067 0 0 0-25.765 6.684C37.772 4.191 49.574.034 62.346.034c31.812 0 57.601 25.79 57.601 57.602z" clip-path="url(#a)" clip-rule="evenodd" transform="translate(-54.576 .362)"/>
</svg>
