<?xml version="1.0" encoding="UTF-8" standalone="no"?>
<svg
   width="116"
   height="116"
   viewBox="0 0 32.899756 116"
   fill="none"
   version="1.1"
   id="svg113"
   sodipodi:docname="test.g-core.svg"
   inkscape:version="1.1.1 (3bf5ae0, 2021-09-20)"
   xmlns:inkscape="http://www.inkscape.org/namespaces/inkscape"
   xmlns:sodipodi="http://sodipodi.sourceforge.net/DTD/sodipodi-0.dtd"
   xmlns="http://www.w3.org/2000/svg"
   xmlns:svg="http://www.w3.org/2000/svg">
  <defs
     id="defs117">
    <clipPath
       clipPathUnits="userSpaceOnUse"
       id="clipPath2185">
      <path
         style="fill:none;stroke:#000000;stroke-width:1px;stroke-linecap:butt;stroke-linejoin:miter;stroke-opacity:1"
         d="M 0.19817812,115.79117 0.16960994,-0.46054402 C 49.223077,-0.70531063 92.791424,-0.22938764 136.23549,-0.35520094 l 0.0806,116.47356094 z"
         id="path2187"
         sodipodi:nodetypes="ccccc" />
    </clipPath>
    <clipPath
       clipPathUnits="userSpaceOnUse"
       id="clipPath2185-5">
      <path
         style="fill:none;stroke:#000000;stroke-width:1px;stroke-linecap:butt;stroke-linejoin:miter;stroke-opacity:1"
         d="M 0.19817812,115.79117 0.16960994,-0.46054402 C 49.223077,-0.70531063 92.791424,-0.22938764 136.23549,-0.35520094 l 0.0806,116.47356094 z"
         id="path2187-6"
         sodipodi:nodetypes="ccccc" />
    </clipPath>
  </defs>
  <sodipodi:namedview
     id="namedview115"
     pagecolor="#ffffff"
     bordercolor="#666666"
     borderopacity="1.0"
     inkscape:pageshadow="2"
     inkscape:pageopacity="0.0"
     inkscape:pagecheckerboard="true"
     showgrid="false"
     inkscape:zoom="2.3154034"
     inkscape:cx="66.727033"
     inkscape:cy="120.28141"
     inkscape:window-width="1848"
     inkscape:window-height="1016"
     inkscape:window-x="72"
     inkscape:window-y="27"
     inkscape:window-maximized="1"
     inkscape:current-layer="svg113"
     borderlayer="false"
     inkscape:showpageshadow="false"
     showborder="true"
     fit-margin-top="0"
     fit-margin-left="0"
     fit-margin-right="0"
     fit-margin-bottom="0" />
  <path
     fill-rule="evenodd"
     clip-rule="evenodd"
     d="m 119.947,57.6356 c 0,31.8124 -25.7887,57.6014 -57.601,57.6014 -12.8494,0 -24.7162,-4.207 -34.2977,-11.32 1.64,0.92 3.3324,1.755 5.0711,2.5 6.59,2.841 13.6903,4.308 20.8667,4.311 13.366,-0.005 26.2376,-5.054 36.042,-14.1384 9.8044,-9.0842 15.8189,-21.5339 16.8419,-34.8607 0.144,-1.2556 0.223,-2.5177 0.237,-3.7815 0,-1.6062 -0.134,-3.4731 -0.297,-5.1659 -0.015,-0.1615 -0.02,-0.3256 -0.025,-0.4897 -0.006,-0.1895 -0.012,-0.3791 -0.033,-0.5647 l -0.046,0.046 C 106.47,49.5656 106.217,47.86 106.217,47.86 H 64.4158 l -3.2473,6.076 -7.4641,14.0992 h 31.5837 c -1.1687,3.4945 -2.9149,6.7683 -5.1662,9.6854 -3.0696,4.018 -7.0246,7.2739 -11.5576,9.5144 -4.5329,2.2405 -9.5215,3.4054 -14.578,3.4038 C 50.1148,90.6313 46.2751,89.9397 42.6443,88.596 36.297,86.2759 30.8155,82.062 26.9415,76.5246 23.0674,70.9872 20.9878,64.3935 20.9838,57.6354 c 0,-4.334 0.8535,-8.6257 2.512,-12.6298 1.6585,-4.0042 4.0894,-7.6424 7.154,-10.7071 3.0645,-3.0647 6.7027,-5.4958 10.7068,-7.1544 4.0041,-1.6586 8.2957,-2.5123 12.6297,-2.5124 6.9946,-0.0104 13.8099,2.2116 19.4542,6.3426 l 4.3328,-8.1064 5.1597,-9.7471 C 74.3237,7.50714 64.2642,4.52601 53.9863,4.54248 44.9012,4.54541 36.0431,6.87855 28.2208,11.2264 37.7721,4.1914 49.5736,0.0343087 62.346,0.0343087 c 31.8123,0 57.601,25.7889913 57.601,57.6012913 z"
     fill="#ff5700"
     id="path103"
     clip-path="url(#clipPath2185-5)"
     transform="translate(-54.576462,0.36186963)" />
</svg>
