<svg width="39" height="39" viewBox="0 0 39 39" fill="none" xmlns="http://www.w3.org/2000/svg">
<path fill-rule="evenodd" clip-rule="evenodd" d="M18.1289 4.51189C18.8694 3.84242 19.3838 3.69922 19.5998 3.69922C19.8158 3.69922 20.3302 3.84242 21.0707 4.51189C21.7807 5.15376 22.5624 6.16249 23.2905 7.54724C24.5993 10.0368 25.6689 13.6189 25.8669 18.0986H19.5998H13.3327C13.5307 13.6189 14.6003 10.0368 15.9092 7.54724C16.6372 6.16249 17.4189 5.15376 18.1289 4.51189ZM10.33 18.0986C10.5302 13.1624 11.7055 9.09622 13.2538 6.1512C13.5312 5.62352 13.8228 5.12774 14.1257 4.66681C8.49047 6.7334 4.35043 11.8989 3.77008 18.0986H10.33ZM3.76997 21.0986H10.33C10.53 26.0354 11.7053 30.102 13.2538 33.0472C13.5312 33.5749 13.8228 34.0707 14.1257 34.5316C8.49011 32.4649 4.34991 27.2989 3.76997 21.0986ZM13.3326 21.0986H19.5998H25.867C25.6691 25.5789 24.5994 29.1614 23.2905 31.6512C22.5624 33.0359 21.7807 34.0447 21.0707 34.6865C20.3302 35.356 19.8158 35.4992 19.5998 35.4992C19.3838 35.4992 18.8694 35.356 18.1289 34.6865C17.4189 34.0447 16.6372 33.0359 15.9092 31.6512C14.6002 29.1614 13.5305 25.5789 13.3326 21.0986ZM28.8696 21.0986C28.6696 26.0354 27.4943 30.102 25.9458 33.0472C25.6683 33.5751 25.3767 34.071 25.0737 34.532C30.7098 32.4655 34.8504 27.2993 35.4304 21.0986H28.8696ZM35.4303 18.0986C34.8499 11.8985 30.7094 6.73277 25.0737 4.66643C25.3767 5.12747 25.6683 5.62337 25.9458 6.1512C27.4942 9.09622 28.6694 13.1624 28.8696 18.0986H35.4303ZM19.6002 38.4992H19.5998H19.5962C9.15984 38.497 0.700195 30.0361 0.700195 19.5992C0.700195 9.16104 9.16201 0.699219 19.6002 0.699219C30.0384 0.699219 38.5002 9.16104 38.5002 19.5992C38.5002 30.0374 30.0384 38.4992 19.6002 38.4992Z" fill="url(#paint0_linear_3970_21131)"/>
<defs>
<linearGradient id="paint0_linear_3970_21131" x1="19.6002" y1="0.699219" x2="19.6002" y2="38.4992" gradientUnits="userSpaceOnUse">
<stop stop-color="#F65128"/>
<stop offset="1" stop-color="#F65128" stop-opacity="0.08"/>
</linearGradient>
</defs>
</svg>
