<svg width="39" height="39" viewBox="0 0 39 39" fill="none" xmlns="http://www.w3.org/2000/svg">
<path fill-rule="evenodd" clip-rule="evenodd" d="M11.6994 18.8199C11.1357 19.427 10.1866 19.4621 9.57952 18.8984L1.17952 11.0984C0.87387 10.8146 0.700195 10.4163 0.700195 9.99922C0.700195 9.58212 0.87387 9.18385 1.17952 8.90003L9.57952 1.10003C10.1866 0.536331 11.1357 0.571483 11.6994 1.17855C12.2631 1.78562 12.2279 2.73471 11.6209 3.29842L6.01979 8.49942L27.4 8.49942C28.2284 8.49942 28.9 9.17099 28.9 9.99942C28.9 10.8278 28.2284 11.4994 27.4 11.4994L6.02021 11.4994L11.6209 16.7C12.2279 17.2637 12.2631 18.2128 11.6994 18.8199ZM29.6209 20.3006C29.0138 19.7369 28.0647 19.7721 27.501 20.3791C26.9373 20.9862 26.9725 21.9353 27.5795 22.499L33.1802 27.6996H11.7999C10.9715 27.6996 10.2999 28.3712 10.2999 29.1996C10.2999 30.028 10.9715 30.6996 11.7999 30.6996H33.1806L27.5795 35.9006C26.9725 36.4643 26.9373 37.4134 27.501 38.0205C28.0647 38.6276 29.0138 38.6627 29.6209 38.099L38.0209 30.299C38.3265 30.0152 38.5002 29.6169 38.5002 29.1998C38.5002 28.7827 38.3265 28.3844 38.0209 28.1006L29.6209 20.3006Z" fill="url(#paint0_linear_3970_21277)"/>
<defs>
<linearGradient id="paint0_linear_3970_21277" x1="19.6002" y1="0.699219" x2="19.6002" y2="38.4998" gradientUnits="userSpaceOnUse">
<stop stop-color="#F65128"/>
<stop offset="1" stop-color="#F65128" stop-opacity="0.08"/>
</linearGradient>
</defs>
</svg>
