<svg width="39" height="39" viewBox="0 0 39 39" fill="none" xmlns="http://www.w3.org/2000/svg">
<path fill-rule="evenodd" clip-rule="evenodd" d="M3.7002 4.59922C3.7002 4.10217 4.10315 3.69922 4.6002 3.69922H28.2998V13.8992H4.6002C4.10314 13.8992 3.7002 13.4963 3.7002 12.9992V4.59922ZM31.2998 13.8992V3.69922H34.6002C35.0973 3.69922 35.5002 4.10215 35.5002 4.59922V12.9992C35.5002 13.4963 35.0973 13.8992 34.6002 13.8992H31.2998ZM4.6002 0.699219C2.4463 0.699219 0.700195 2.44532 0.700195 4.59922V12.9992C0.700195 15.1531 2.44626 16.8992 4.6002 16.8992H34.6002C36.7542 16.8992 38.5002 15.1531 38.5002 12.9992V4.59922C38.5002 2.44534 36.7542 0.699219 34.6002 0.699219H4.6002ZM3.7002 26.1988C3.7002 25.7018 4.10313 25.2988 4.6002 25.2988H28.2998V35.4988H4.6002C4.10312 35.4988 3.7002 35.0959 3.7002 34.5988V26.1988ZM31.2998 35.4988H34.6002C35.0973 35.4988 35.5002 35.0959 35.5002 34.5988V26.1988C35.5002 25.7017 35.0973 25.2988 34.6002 25.2988H31.2998V35.4988ZM4.6002 22.2988C2.44632 22.2988 0.700195 24.0449 0.700195 26.1988V34.5988C0.700195 36.7528 2.44628 38.4988 4.6002 38.4988H34.6002C36.7541 38.4988 38.5002 36.7528 38.5002 34.5988V26.1988C38.5002 24.0449 36.7541 22.2988 34.6002 22.2988H4.6002Z" fill="url(#paint0_linear_3970_21873)"/>
<defs>
<linearGradient id="paint0_linear_3970_21873" x1="19.6002" y1="0.699219" x2="19.6002" y2="38.4988" gradientUnits="userSpaceOnUse">
<stop stop-color="#F65128"/>
<stop offset="1" stop-color="#F65128" stop-opacity="0.08"/>
</linearGradient>
</defs>
</svg>
