<svg xmlns="http://www.w3.org/2000/svg" width="64" height="64" fill="none">
  <rect width="64" height="64" fill="#FCF0ED" rx="16"/>
  <path fill="#F65128" fill-rule="evenodd" d="M30.766 21.645c.476-.483.892-.645 1.234-.645.342 0 .758.162 1.234.645.479.486.956 1.24 1.378 2.254.755 1.81 1.27 4.294 1.37 7.101h-7.964c.1-2.806.615-5.29 1.37-7.1.422-1.014.9-1.769 1.378-2.255ZM26.016 31c.101-3.023.654-5.778 1.525-7.87.222-.532.468-1.03.74-1.485-3.945 1.417-6.846 5.024-7.236 9.355h4.972Zm-4.971 2h4.972c.1 3.023.653 5.778 1.524 7.87.222.532.468 1.03.74 1.485-3.945-1.417-6.846-5.024-7.236-9.355ZM19 32v1h.038c.51 6.712 6.119 12 12.962 12s12.452-5.288 12.962-12H45v-2h-.038c-.51-6.712-6.119-12-12.962-12s-12.451 5.288-12.962 12H19v1Zm23.955-1c-.39-4.33-3.29-7.938-7.235-9.355.27.454.517.953.739 1.485.871 2.092 1.424 4.847 1.524 7.87h4.972Zm-6.973 2c-.1 2.806-.615 5.29-1.37 7.1-.422 1.014-.9 1.769-1.378 2.255-.476.483-.892.645-1.234.645-.342 0-.758-.162-1.234-.645-.479-.486-.956-1.24-1.378-2.254-.755-1.81-1.27-4.294-1.37-7.101h7.964Zm2.001 0h4.972c-.39 4.33-3.29 7.938-7.235 9.355.27-.454.517-.953.739-1.485.871-2.092 1.424-4.847 1.524-7.87Z" clip-rule="evenodd"/>
</svg>
