<svg width="64" height="64" viewBox="0 0 64 64" fill="none" xmlns="http://www.w3.org/2000/svg">
<rect width="64" height="64" rx="16" fill="#FCF0ED"/>
<circle cx="32" cy="24" r="3" stroke="#F65128" stroke-width="2"/>
<path d="M26 39.7084C27.5923 41.1335 29.6949 42.0001 32 42.0001C34.238 42.0001 36.2853 41.1832 37.8598 39.8313M23.1791 34.7953C23.0616 34.2152 23 33.6149 23 33.0001C23 28.9934 25.6182 25.5982 29.2371 24.4321M40.8209 34.7953C40.9384 34.2152 41 33.6149 41 33.0001C41 28.9934 38.3818 25.5982 34.7629 24.4321" stroke="#F65128" stroke-width="2"/>
<circle cx="24.2055" cy="37.4999" r="3" transform="rotate(-30 24.2055 37.4999)" stroke="#F65128" stroke-width="2"/>
<circle cx="39.7944" cy="37.4999" r="3" transform="rotate(30 39.7944 37.4999)" stroke="#F65128" stroke-width="2"/>
</svg>
