<svg xmlns="http://www.w3.org/2000/svg" width="64" height="64" fill="none">
  <rect width="64" height="64" fill="#FCF0ED" rx="16"/>
  <path fill="#F65128" fill-rule="evenodd" d="M38.667 20a1 1 0 0 0-1.793-.61l-10 13a1 1 0 0 0 .793 1.61h5v10a1 1 0 0 0 1.793.61l10-13a1 1 0 0 0-.793-1.61h-5V20Zm-5 12h-3.97l6.97-9.06V31a1 1 0 0 0 1 1h3.97l-6.97 9.06V33a1 1 0 0 0-1-1Zm-11-5a1 1 0 1 0 0 2h4a1 1 0 1 0 0-2h-4Zm-1 11a1 1 0 0 1 1-1h7a1 1 0 1 1 0 2h-7a1 1 0 0 1-1-1Zm-2-6a1 1 0 1 0 0 2h4a1 1 0 0 0 0-2h-4Z" clip-rule="evenodd"/>
</svg>
