<svg xmlns="http://www.w3.org/2000/svg" fill="none" viewBox="0 0 796 288">
  <g fill="#F65128" opacity=".3">
    <path d="M258-29a2 2 0 1 0 0-4 2 2 0 0 0 0 4Zm8 0a2 2 0 1 0 0-4 2 2 0 0 0 0 4Zm8 0a2 2 0 1 0 0-4 2 2 0 0 0 0 4Zm7 0a2 2 0 1 0 0-4 2 2 0 0 0 0 4Zm39 0a2 2 0 1 0 0-4 2 2 0 0 0 0 4Zm8 0a2 2 0 1 0 0-4 2 2 0 0 0 0 4Zm8 0a2 2 0 1 0 0-4 2 2 0 0 0 0 4Zm7 0a2 2 0 1 0 0-4 2 2 0 0 0 0 4Zm8 0a2 2 0 1 0 0-4 2 2 0 0 0 0 4Zm-124 8a2 2 0 1 0 0-4 2 2 0 0 0 0 4Zm8 0a2 2 0 1 0 0-4 2 2 0 0 0 0 4Zm15 0a2 2 0 1 0 0-4 2 2 0 0 0 0 4Zm8 0a2 2 0 1 0 0-4 2 2 0 0 0 0 4Zm8 0a2 2 0 1 0 0-4 2 2 0 0 0 0 4Zm8 0a2 2 0 1 0 0-4 2 2 0 0 0 0 4Zm7 0a2 2 0 1 0 0-4 2 2 0 0 0 0 4Zm8 0a2 2 0 1 0 0-4 2 2 0 0 0 0 4Zm8 0a2 2 0 1 0 0-4 2 2 0 0 0 0 4Zm8 0a2 2 0 1 0 0-4 2 2 0 0 0 0 4Zm7 0a2 2 0 1 0 0-4 2 2 0 0 0 0 4Zm8 0a2 2 0 1 0 0-4 2 2 0 0 0 0 4Zm8 0a2 2 0 1 0 0-4 2 2 0 0 0 0 4Zm8 0a2 2 0 1 0 0-4 2 2 0 0 0 0 4Zm7 0a2 2 0 1 0 0-4 2 2 0 0 0 0 4Zm8 0a2 2 0 1 0 0-4 2 2 0 0 0 0 4Zm8 0a2 2 0 1 0 0-4 2 2 0 0 0 0 4Zm70 0a2 2 0 1 0 0-4 2 2 0 0 0 0 4Zm8 0a2 2 0 1 0 0-4 2 2 0 0 0 0 4Zm38 0a2 2 0 1 0 0-4 2 2 0 0 0 0 4Zm86 0a2 2 0 1 0 0-4 2 2 0 0 0 0 4Zm-373 7a2 2 0 1 0 0-3 2 2 0 0 0 0 3Zm47 0a2 2 0 1 0 0-3 2 2 0 0 0 0 3Zm8 0a2 2 0 1 0 0-3 2 2 0 0 0 0 3Zm23 0a2 2 0 1 0 0-3 2 2 0 0 0 0 3Zm8 0a2 2 0 1 0 0-3 2 2 0 0 0 0 3Zm7 0a2 2 0 1 0 0-3 2 2 0 0 0 0 3Zm8 0a2 2 0 1 0 0-3 2 2 0 0 0 0 3Zm8 0a2 2 0 1 0 0-3 2 2 0 0 0 0 3Zm8 0a2 2 0 1 0 0-3 2 2 0 0 0 0 3Zm7 0a2 2 0 1 0 0-3 2 2 0 0 0 0 3Zm8 0a2 2 0 1 0 0-3 2 2 0 0 0 0 3Zm8 0a2 2 0 1 0 0-3 2 2 0 0 0 0 3Zm8 0a2 2 0 1 0 0-3 2 2 0 0 0 0 3Zm7 0a2 2 0 1 0 0-3 2 2 0 0 0 0 3Zm8 0a2 2 0 1 0 0-3 2 2 0 0 0 0 3Zm70 0a2 2 0 1 0 0-3 2 2 0 0 0 0 3Zm16 0a2 2 0 1 0 0-3 2 2 0 0 0 0 3ZM173-6a2 2 0 1 0 0-4 2 2 0 0 0 0 4Zm7 0a2 2 0 1 0 0-4 2 2 0 0 0 0 4Zm8 0a2 2 0 1 0 0-4 2 2 0 0 0 0 4Zm16 0a2 2 0 1 0 0-4 2 2 0 0 0 0 4Zm8 0a2 2 0 1 0 0-4 2 2 0 0 0 0 4Zm7 0a2 2 0 1 0 0-4 2 2 0 0 0 0 4Zm8 0a2 2 0 1 0 0-4 2 2 0 0 0 0 4Zm8 0a2 2 0 1 0 0-4 2 2 0 0 0 0 4Zm46 0a2 2 0 1 0 0-4 2 2 0 0 0 0 4Zm8 0a2 2 0 1 0 0-4 2 2 0 0 0 0 4Zm8 0a2 2 0 1 0 0-4 2 2 0 0 0 0 4Zm8 0a2 2 0 1 0 0-4 2 2 0 0 0 0 4Zm7 0a2 2 0 1 0 0-4 2 2 0 0 0 0 4Zm8 0a2 2 0 1 0 0-4 2 2 0 0 0 0 4Zm8 0a2 2 0 1 0 0-4 2 2 0 0 0 0 4Zm8 0a2 2 0 1 0 0-4 2 2 0 0 0 0 4Zm7 0a2 2 0 1 0 0-4 2 2 0 0 0 0 4Zm8 0a2 2 0 1 0 0-4 2 2 0 0 0 0 4Zm155 0a2 2 0 1 0 0-4 2 2 0 0 0 0 4Zm55 0a2 2 0 1 0 0-4 2 2 0 0 0 0 4Zm8 0a2 2 0 1 0 0-4 2 2 0 0 0 0 4Zm7 0a2 2 0 1 0 0-4 2 2 0 0 0 0 4Zm8 0a2 2 0 1 0 0-4 2 2 0 0 0 0 4Zm8 0a2 2 0 1 0 0-4 2 2 0 0 0 0 4Zm8 0a2 2 0 1 0 0-4 2 2 0 0 0 0 4Zm7 0a2 2 0 1 0 0-4 2 2 0 0 0 0 4Zm47 0a2 2 0 1 0 0-4 2 2 0 0 0 0 4Zm8 0a2 2 0 1 0 0-4 2 2 0 0 0 0 4Zm15 0a2 2 0 1 0 0-4 2 2 0 0 0 0 4ZM149 2a2 2 0 1 0 0-4 2 2 0 0 0 0 4Zm8 0a2 2 0 1 0 0-4 2 2 0 0 0 0 4Zm8 0a2 2 0 1 0 0-4 2 2 0 0 0 0 4Zm15 0a2 2 0 1 0 0-4 2 2 0 0 0 0 4Zm16 0a2 2 0 1 0 0-4 2 2 0 0 0 0 4Zm8 0a2 2 0 1 0 0-4 2 2 0 0 0 0 4Zm15 0a2 2 0 1 0 0-4 2 2 0 0 0 0 4Zm8 0a2 2 0 1 0 0-4 2 2 0 0 0 0 4Zm62 0a2 2 0 1 0 0-4 2 2 0 0 0 0 4Zm8 0a2 2 0 1 0 0-4 2 2 0 0 0 0 4Zm8 0a2 2 0 1 0 0-4 2 2 0 0 0 0 4Zm7 0a2 2 0 1 0 0-4 2 2 0 0 0 0 4Zm8 0a2 2 0 1 0 0-4 2 2 0 0 0 0 4Zm8 0a2 2 0 1 0 0-4 2 2 0 0 0 0 4Zm8 0a2 2 0 1 0 0-4 2 2 0 0 0 0 4Zm7 0a2 2 0 1 0 0-4 2 2 0 0 0 0 4Zm156 0a2 2 0 1 0 0-4 2 2 0 0 0 0 4Zm31 0a2 2 0 1 0 0-4 2 2 0 0 0 0 4Zm23 0a2 2 0 1 0 0-4 2 2 0 0 0 0 4Zm8 0a2 2 0 1 0 0-4 2 2 0 0 0 0 4Zm8 0a2 2 0 1 0 0-4 2 2 0 0 0 0 4Zm7 0a2 2 0 1 0 0-4 2 2 0 0 0 0 4Zm8 0a2 2 0 1 0 0-4 2 2 0 0 0 0 4Zm8 0a2 2 0 1 0 0-4 2 2 0 0 0 0 4Zm8 0a2 2 0 1 0 0-4 2 2 0 0 0 0 4Zm7 0a2 2 0 1 0 0-4 2 2 0 0 0 0 4Zm8 0a2 2 0 1 0 0-4 2 2 0 0 0 0 4Zm8 0a2 2 0 1 0 0-4 2 2 0 0 0 0 4Zm8 0a2 2 0 1 0 0-4 2 2 0 0 0 0 4Zm7 0a2 2 0 1 0 0-4 2 2 0 0 0 0 4Zm8 0a2 2 0 1 0 0-4 2 2 0 0 0 0 4Zm23 0a2 2 0 1 0 0-4 2 2 0 0 0 0 4ZM64 10a2 2 0 1 0 0-4 2 2 0 0 0 0 4Zm8 0a2 2 0 1 0 0-4 2 2 0 0 0 0 4Zm8 0a2 2 0 1 0 0-4 2 2 0 0 0 0 4Zm7 0a2 2 0 1 0 0-4 2 2 0 0 0 0 4Zm8 0a2 2 0 1 0 0-4 2 2 0 0 0 0 4Zm31 0a2 2 0 1 0 0-4 2 2 0 0 0 0 4Zm8 0a2 2 0 1 0 0-4 2 2 0 0 0 0 4Zm23 0a2 2 0 1 0 0-4 2 2 0 0 0 0 4Zm8 0a2 2 0 1 0 0-4 2 2 0 0 0 0 4Zm8 0a2 2 0 1 0 0-4 2 2 0 0 0 0 4Zm7 0a2 2 0 1 0 0-4 2 2 0 0 0 0 4Zm16 0a2 2 0 1 0 0-4 2 2 0 0 0 0 4Zm8 0a2 2 0 1 0 0-4 2 2 0 0 0 0 4Zm15 0a2 2 0 1 0 0-4 2 2 0 0 0 0 4Zm8 0a2 2 0 1 0 0-4 2 2 0 0 0 0 4Zm8 0a2 2 0 1 0 0-4 2 2 0 0 0 0 4Zm8 0a2 2 0 1 0 0-4 2 2 0 0 0 0 4Zm7 0a2 2 0 1 0 0-4 2 2 0 0 0 0 4Zm31 0a2 2 0 1 0 0-4 2 2 0 0 0 0 4Zm8 0a2 2 0 1 0 0-4 2 2 0 0 0 0 4Zm8 0a2 2 0 1 0 0-4 2 2 0 0 0 0 4Zm8 0a2 2 0 1 0 0-4 2 2 0 0 0 0 4Zm7 0a2 2 0 1 0 0-4 2 2 0 0 0 0 4Zm8 0a2 2 0 1 0 0-4 2 2 0 0 0 0 4Zm8 0a2 2 0 1 0 0-4 2 2 0 0 0 0 4Zm8 0a2 2 0 1 0 0-4 2 2 0 0 0 0 4Zm7 0a2 2 0 1 0 0-4 2 2 0 0 0 0 4Zm94 0a2 2 0 1 0 0-4 2 2 0 0 0 0 4Zm7 0a2 2 0 1 0 0-4 2 2 0 0 0 0 4Zm8 0a2 2 0 1 0 0-4 2 2 0 0 0 0 4Zm78 0a2 2 0 1 0 0-4 2 2 0 0 0 0 4Zm8 0a2 2 0 1 0 0-4 2 2 0 0 0 0 4Zm7 0a2 2 0 1 0 0-4 2 2 0 0 0 0 4Zm8 0a2 2 0 1 0 0-4 2 2 0 0 0 0 4Zm8 0a2 2 0 1 0 0-4 2 2 0 0 0 0 4Zm8 0a2 2 0 1 0 0-4 2 2 0 0 0 0 4Zm7 0a2 2 0 1 0 0-4 2 2 0 0 0 0 4Zm8 0a2 2 0 1 0 0-4 2 2 0 0 0 0 4Zm8 0a2 2 0 1 0 0-4 2 2 0 0 0 0 4Zm8 0a2 2 0 1 0 0-4 2 2 0 0 0 0 4Zm7 0a2 2 0 1 0 0-4 2 2 0 0 0 0 4Zm8 0a2 2 0 1 0 0-4 2 2 0 0 0 0 4Zm8 0a2 2 0 1 0 0-4 2 2 0 0 0 0 4Zm8 0a2 2 0 1 0 0-4 2 2 0 0 0 0 4Zm7 0a2 2 0 1 0 0-4 2 2 0 0 0 0 4Zm8 0a2 2 0 1 0 0-4 2 2 0 0 0 0 4Zm8 0a2 2 0 1 0 0-4 2 2 0 0 0 0 4Zm8 0a2 2 0 1 0 0-4 2 2 0 0 0 0 4Zm7 0a2 2 0 1 0 0-4 2 2 0 0 0 0 4Zm8 0a2 2 0 1 0 0-4 2 2 0 0 0 0 4Zm8 0a2 2 0 1 0 0-4 2 2 0 0 0 0 4Zm8 0a2 2 0 1 0 0-4 2 2 0 0 0 0 4Zm8 0a2 2 0 1 0 0-4 2 2 0 0 0 0 4Zm7 0a2 2 0 1 0 0-4 2 2 0 0 0 0 4Zm8 0a2 2 0 1 0 0-4 2 2 0 0 0 0 4Zm23 0a2 2 0 1 0 0-4 2 2 0 0 0 0 4ZM49 17a2 2 0 1 0 0-3 2 2 0 0 0 0 3Zm7 0a2 2 0 1 0 0-3 2 2 0 0 0 0 3Zm8 0a2 2 0 1 0 0-3 2 2 0 0 0 0 3Zm8 0a2 2 0 1 0 0-3 2 2 0 0 0 0 3Zm8 0a2 2 0 1 0 0-3 2 2 0 0 0 0 3Zm7 0a2 2 0 1 0 0-3 2 2 0 0 0 0 3Zm8 0a2 2 0 1 0 0-3 2 2 0 0 0 0 3Zm8 0a2 2 0 1 0 0-3 2 2 0 0 0 0 3Zm8 0a2 2 0 1 0 0-3 2 2 0 0 0 0 3Zm7 0a2 2 0 1 0 0-3 2 2 0 0 0 0 3Zm8 0a2 2 0 1 0 0-3 2 2 0 0 0 0 3Zm8 0a2 2 0 1 0 0-3 2 2 0 0 0 0 3Zm8 0a2 2 0 1 0 0-3 2 2 0 0 0 0 3Zm7 0a2 2 0 1 0 0-3 2 2 0 0 0 0 3Zm8 0a2 2 0 1 0 0-3 2 2 0 0 0 0 3Zm8 0a2 2 0 1 0 0-3 2 2 0 0 0 0 3Zm8 0a2 2 0 1 0 0-3 2 2 0 0 0 0 3Zm7 0a2 2 0 1 0 0-3 2 2 0 0 0 0 3Zm8 0a2 2 0 1 0 0-3 2 2 0 0 0 0 3Zm8 0a2 2 0 1 0 0-3 2 2 0 0 0 0 3Zm8 0a2 2 0 1 0 0-3 2 2 0 0 0 0 3Zm8 0a2 2 0 1 0 0-3 2 2 0 0 0 0 3Zm7 0a2 2 0 1 0 0-3 2 2 0 0 0 0 3Zm24 0a2 2 0 1 0 0-3 2 2 0 0 0 0 3Zm7 0a2 2 0 1 0 0-3 2 2 0 0 0 0 3Zm31 0a2 2 0 1 0 0-3 2 2 0 0 0 0 3Zm8 0a2 2 0 1 0 0-3 2 2 0 0 0 0 3Zm8 0a2 2 0 1 0 0-3 2 2 0 0 0 0 3Zm8 0a2 2 0 1 0 0-3 2 2 0 0 0 0 3Zm7 0a2 2 0 1 0 0-3 2 2 0 0 0 0 3Zm8 0a2 2 0 1 0 0-3 2 2 0 0 0 0 3Zm117 0a2 2 0 1 0 0-3 2 2 0 0 0 0 3Zm7 0a2 2 0 1 0 0-3 2 2 0 0 0 0 3Zm8 0a2 2 0 1 0 0-3 2 2 0 0 0 0 3Zm8 0a2 2 0 1 0 0-3 2 2 0 0 0 0 3Zm8 0a2 2 0 1 0 0-3 2 2 0 0 0 0 3Zm7 0a2 2 0 1 0 0-3 2 2 0 0 0 0 3Zm24 0a2 2 0 1 0 0-3 2 2 0 0 0 0 3Zm7 0a2 2 0 1 0 0-3 2 2 0 0 0 0 3Zm8 0a2 2 0 1 0 0-3 2 2 0 0 0 0 3Zm8 0a2 2 0 1 0 0-3 2 2 0 0 0 0 3Zm8 0a2 2 0 1 0 0-3 2 2 0 0 0 0 3Zm8 0a2 2 0 1 0 0-3 2 2 0 0 0 0 3Zm7 0a2 2 0 1 0 0-3 2 2 0 0 0 0 3Zm8 0a2 2 0 1 0 0-3 2 2 0 0 0 0 3Zm8 0a2 2 0 1 0 0-3 2 2 0 0 0 0 3Zm8 0a2 2 0 1 0 0-3 2 2 0 0 0 0 3Zm7 0a2 2 0 1 0 0-3 2 2 0 0 0 0 3Zm8 0a2 2 0 1 0 0-3 2 2 0 0 0 0 3Zm8 0a2 2 0 1 0 0-3 2 2 0 0 0 0 3Zm8 0a2 2 0 1 0 0-3 2 2 0 0 0 0 3Zm7 0a2 2 0 1 0 0-3 2 2 0 0 0 0 3Zm8 0a2 2 0 1 0 0-3 2 2 0 0 0 0 3Zm8 0a2 2 0 1 0 0-3 2 2 0 0 0 0 3Zm8 0a2 2 0 1 0 0-3 2 2 0 0 0 0 3Zm7 0a2 2 0 1 0 0-3 2 2 0 0 0 0 3Zm8 0a2 2 0 1 0 0-3 2 2 0 0 0 0 3Zm8 0a2 2 0 1 0 0-3 2 2 0 0 0 0 3Zm8 0a2 2 0 1 0 0-3 2 2 0 0 0 0 3Zm7 0a2 2 0 1 0 0-3 2 2 0 0 0 0 3Zm8 0a2 2 0 1 0 0-3 2 2 0 0 0 0 3Zm8 0a2 2 0 1 0 0-3 2 2 0 0 0 0 3Zm8 0a2 2 0 1 0 0-3 2 2 0 0 0 0 3Zm8 0a2 2 0 1 0 0-3 2 2 0 0 0 0 3Zm7 0a2 2 0 1 0 0-3 2 2 0 0 0 0 3Zm8 0a2 2 0 1 0 0-3 2 2 0 0 0 0 3Zm8 0a2 2 0 1 0 0-3 2 2 0 0 0 0 3Zm8 0a2 2 0 1 0 0-3 2 2 0 0 0 0 3Zm7 0a2 2 0 1 0 0-3 2 2 0 0 0 0 3Zm8 0a2 2 0 1 0 0-3 2 2 0 0 0 0 3Zm8 0a2 2 0 1 0 0-3 2 2 0 0 0 0 3Zm8 0a2 2 0 1 0 0-3 2 2 0 0 0 0 3Zm7 0a2 2 0 1 0 0-3 2 2 0 0 0 0 3Zm8 0a2 2 0 1 0 0-3 2 2 0 0 0 0 3ZM33 25a2 2 0 1 0 0-4 2 2 0 0 0 0 4Zm8 0a2 2 0 1 0 0-4 2 2 0 0 0 0 4Zm8 0a2 2 0 1 0 0-4 2 2 0 0 0 0 4Zm7 0a2 2 0 1 0 0-4 2 2 0 0 0 0 4Zm8 0a2 2 0 1 0 0-4 2 2 0 0 0 0 4Zm8 0a2 2 0 1 0 0-4 2 2 0 0 0 0 4Zm8 0a2 2 0 1 0 0-4 2 2 0 0 0 0 4Zm7 0a2 2 0 1 0 0-4 2 2 0 0 0 0 4Zm8 0a2 2 0 1 0 0-4 2 2 0 0 0 0 4Zm8 0a2 2 0 1 0 0-4 2 2 0 0 0 0 4Zm8 0a2 2 0 1 0 0-4 2 2 0 0 0 0 4Zm7 0a2 2 0 1 0 0-4 2 2 0 0 0 0 4Zm8 0a2 2 0 1 0 0-4 2 2 0 0 0 0 4Zm8 0a2 2 0 1 0 0-4 2 2 0 0 0 0 4Zm8 0a2 2 0 1 0 0-4 2 2 0 0 0 0 4Zm7 0a2 2 0 1 0 0-4 2 2 0 0 0 0 4Zm8 0a2 2 0 1 0 0-4 2 2 0 0 0 0 4Zm8 0a2 2 0 1 0 0-4 2 2 0 0 0 0 4Zm8 0a2 2 0 1 0 0-4 2 2 0 0 0 0 4Zm7 0a2 2 0 1 0 0-4 2 2 0 0 0 0 4Zm8 0a2 2 0 1 0 0-4 2 2 0 0 0 0 4Zm8 0a2 2 0 1 0 0-4 2 2 0 0 0 0 4Zm8 0a2 2 0 1 0 0-4 2 2 0 0 0 0 4Zm8 0a2 2 0 1 0 0-4 2 2 0 0 0 0 4Zm15 0a2 2 0 1 0 0-4 2 2 0 0 0 0 4Zm8 0a2 2 0 1 0 0-4 2 2 0 0 0 0 4Zm8 0a2 2 0 1 0 0-4 2 2 0 0 0 0 4Zm38 0a2 2 0 1 0 0-4 2 2 0 0 0 0 4Zm8 0a2 2 0 1 0 0-4 2 2 0 0 0 0 4Zm8 0a2 2 0 1 0 0-4 2 2 0 0 0 0 4Zm8 0a2 2 0 1 0 0-4 2 2 0 0 0 0 4Zm38 0a2 2 0 1 0 0-4 2 2 0 0 0 0 4Zm8 0a2 2 0 1 0 0-4 2 2 0 0 0 0 4Zm8 0a2 2 0 1 0 0-4 2 2 0 0 0 0 4Zm62 0a2 2 0 1 0 0-4 2 2 0 0 0 0 4Zm8 0a2 2 0 1 0 0-4 2 2 0 0 0 0 4Zm8 0a2 2 0 1 0 0-4 2 2 0 0 0 0 4Zm15 0a2 2 0 1 0 0-4 2 2 0 0 0 0 4Zm8 0a2 2 0 1 0 0-4 2 2 0 0 0 0 4Zm8 0a2 2 0 1 0 0-4 2 2 0 0 0 0 4Zm15 0a2 2 0 1 0 0-4 2 2 0 0 0 0 4Zm8 0a2 2 0 1 0 0-4 2 2 0 0 0 0 4Zm8 0a2 2 0 1 0 0-4 2 2 0 0 0 0 4Zm7 0a2 2 0 1 0 0-4 2 2 0 0 0 0 4Zm8 0a2 2 0 1 0 0-4 2 2 0 0 0 0 4Zm8 0a2 2 0 1 0 0-4 2 2 0 0 0 0 4Zm8 0a2 2 0 1 0 0-4 2 2 0 0 0 0 4Zm8 0a2 2 0 1 0 0-4 2 2 0 0 0 0 4Zm7 0a2 2 0 1 0 0-4 2 2 0 0 0 0 4Zm8 0a2 2 0 1 0 0-4 2 2 0 0 0 0 4Zm8 0a2 2 0 1 0 0-4 2 2 0 0 0 0 4Zm8 0a2 2 0 1 0 0-4 2 2 0 0 0 0 4Zm7 0a2 2 0 1 0 0-4 2 2 0 0 0 0 4Zm8 0a2 2 0 1 0 0-4 2 2 0 0 0 0 4Zm8 0a2 2 0 1 0 0-4 2 2 0 0 0 0 4Zm8 0a2 2 0 1 0 0-4 2 2 0 0 0 0 4Zm7 0a2 2 0 1 0 0-4 2 2 0 0 0 0 4Zm8 0a2 2 0 1 0 0-4 2 2 0 0 0 0 4Zm8 0a2 2 0 1 0 0-4 2 2 0 0 0 0 4Zm8 0a2 2 0 1 0 0-4 2 2 0 0 0 0 4Zm7 0a2 2 0 1 0 0-4 2 2 0 0 0 0 4Zm8 0a2 2 0 1 0 0-4 2 2 0 0 0 0 4Zm8 0a2 2 0 1 0 0-4 2 2 0 0 0 0 4Zm8 0a2 2 0 1 0 0-4 2 2 0 0 0 0 4Zm7 0a2 2 0 1 0 0-4 2 2 0 0 0 0 4Zm8 0a2 2 0 1 0 0-4 2 2 0 0 0 0 4Zm8 0a2 2 0 1 0 0-4 2 2 0 0 0 0 4Zm8 0a2 2 0 1 0 0-4 2 2 0 0 0 0 4Zm8 0a2 2 0 1 0 0-4 2 2 0 0 0 0 4Zm7 0a2 2 0 1 0 0-4 2 2 0 0 0 0 4Zm8 0a2 2 0 1 0 0-4 2 2 0 0 0 0 4Zm8 0a2 2 0 1 0 0-4 2 2 0 0 0 0 4Zm8 0a2 2 0 1 0 0-4 2 2 0 0 0 0 4Zm7 0a2 2 0 1 0 0-4 2 2 0 0 0 0 4Zm8 0a2 2 0 1 0 0-4 2 2 0 0 0 0 4Zm8 0a2 2 0 1 0 0-4 2 2 0 0 0 0 4Zm8 0a2 2 0 1 0 0-4 2 2 0 0 0 0 4Zm7 0a2 2 0 1 0 0-4 2 2 0 0 0 0 4Zm8 0a2 2 0 1 0 0-4 2 2 0 0 0 0 4Zm16 0a2 2 0 1 0 0-4 2 2 0 0 0 0 4ZM25 33a2 2 0 1 0 0-4 2 2 0 0 0 0 4Zm8 0a2 2 0 1 0 0-4 2 2 0 0 0 0 4Zm8 0a2 2 0 1 0 0-4 2 2 0 0 0 0 4Zm8 0a2 2 0 1 0 0-4 2 2 0 0 0 0 4Zm7 0a2 2 0 1 0 0-4 2 2 0 0 0 0 4Zm8 0a2 2 0 1 0 0-4 2 2 0 0 0 0 4Zm8 0a2 2 0 1 0 0-4 2 2 0 0 0 0 4Zm8 0a2 2 0 1 0 0-4 2 2 0 0 0 0 4Zm7 0a2 2 0 1 0 0-4 2 2 0 0 0 0 4Zm8 0a2 2 0 1 0 0-4 2 2 0 0 0 0 4Zm8 0a2 2 0 1 0 0-4 2 2 0 0 0 0 4Zm8 0a2 2 0 1 0 0-4 2 2 0 0 0 0 4Zm7 0a2 2 0 1 0 0-4 2 2 0 0 0 0 4Zm8 0a2 2 0 1 0 0-4 2 2 0 0 0 0 4Zm8 0a2 2 0 1 0 0-4 2 2 0 0 0 0 4Zm8 0a2 2 0 1 0 0-4 2 2 0 0 0 0 4Zm7 0a2 2 0 1 0 0-4 2 2 0 0 0 0 4Zm8 0a2 2 0 1 0 0-4 2 2 0 0 0 0 4Zm8 0a2 2 0 1 0 0-4 2 2 0 0 0 0 4Zm8 0a2 2 0 1 0 0-4 2 2 0 0 0 0 4Zm7 0a2 2 0 1 0 0-4 2 2 0 0 0 0 4Zm39 0a2 2 0 1 0 0-4 2 2 0 0 0 0 4Zm24 0a2 2 0 1 0 0-4 2 2 0 0 0 0 4Zm38 0a2 2 0 1 0 0-4 2 2 0 0 0 0 4Zm8 0a2 2 0 1 0 0-4 2 2 0 0 0 0 4Zm8 0a2 2 0 1 0 0-4 2 2 0 0 0 0 4Zm109 0a2 2 0 1 0 0-4 2 2 0 0 0 0 4Zm7 0a2 2 0 1 0 0-4 2 2 0 0 0 0 4Zm8 0a2 2 0 1 0 0-4 2 2 0 0 0 0 4Zm8 0a2 2 0 1 0 0-4 2 2 0 0 0 0 4Zm15 0a2 2 0 1 0 0-4 2 2 0 0 0 0 4Zm8 0a2 2 0 1 0 0-4 2 2 0 0 0 0 4Zm8 0a2 2 0 1 0 0-4 2 2 0 0 0 0 4Zm8 0a2 2 0 1 0 0-4 2 2 0 0 0 0 4Zm7 0a2 2 0 1 0 0-4 2 2 0 0 0 0 4Zm8 0a2 2 0 1 0 0-4 2 2 0 0 0 0 4Zm8 0a2 2 0 1 0 0-4 2 2 0 0 0 0 4Zm8 0a2 2 0 1 0 0-4 2 2 0 0 0 0 4Zm7 0a2 2 0 1 0 0-4 2 2 0 0 0 0 4Zm8 0a2 2 0 1 0 0-4 2 2 0 0 0 0 4Zm8 0a2 2 0 1 0 0-4 2 2 0 0 0 0 4Zm8 0a2 2 0 1 0 0-4 2 2 0 0 0 0 4Zm8 0a2 2 0 1 0 0-4 2 2 0 0 0 0 4Zm7 0a2 2 0 1 0 0-4 2 2 0 0 0 0 4Zm8 0a2 2 0 1 0 0-4 2 2 0 0 0 0 4Zm8 0a2 2 0 1 0 0-4 2 2 0 0 0 0 4Zm8 0a2 2 0 1 0 0-4 2 2 0 0 0 0 4Zm7 0a2 2 0 1 0 0-4 2 2 0 0 0 0 4Zm8 0a2 2 0 1 0 0-4 2 2 0 0 0 0 4Zm8 0a2 2 0 1 0 0-4 2 2 0 0 0 0 4Zm8 0a2 2 0 1 0 0-4 2 2 0 0 0 0 4Zm7 0a2 2 0 1 0 0-4 2 2 0 0 0 0 4Zm8 0a2 2 0 1 0 0-4 2 2 0 0 0 0 4Zm8 0a2 2 0 1 0 0-4 2 2 0 0 0 0 4Zm8 0a2 2 0 1 0 0-4 2 2 0 0 0 0 4Zm7 0a2 2 0 1 0 0-4 2 2 0 0 0 0 4Zm8 0a2 2 0 1 0 0-4 2 2 0 0 0 0 4Zm8 0a2 2 0 1 0 0-4 2 2 0 0 0 0 4Zm8 0a2 2 0 1 0 0-4 2 2 0 0 0 0 4Zm7 0a2 2 0 1 0 0-4 2 2 0 0 0 0 4Zm8 0a2 2 0 1 0 0-4 2 2 0 0 0 0 4Zm8 0a2 2 0 1 0 0-4 2 2 0 0 0 0 4Zm8 0a2 2 0 1 0 0-4 2 2 0 0 0 0 4Zm8 0a2 2 0 1 0 0-4 2 2 0 0 0 0 4Zm7 0a2 2 0 1 0 0-4 2 2 0 0 0 0 4Zm8 0a2 2 0 1 0 0-4 2 2 0 0 0 0 4Zm8 0a2 2 0 1 0 0-4 2 2 0 0 0 0 4Zm8 0a2 2 0 1 0 0-4 2 2 0 0 0 0 4Zm7 0a2 2 0 1 0 0-4 2 2 0 0 0 0 4Zm8 0a2 2 0 1 0 0-4 2 2 0 0 0 0 4Zm8 0a2 2 0 1 0 0-4 2 2 0 0 0 0 4Zm8 0a2 2 0 1 0 0-4 2 2 0 0 0 0 4Zm7 0a2 2 0 1 0 0-4 2 2 0 0 0 0 4Zm8 0a2 2 0 1 0 0-4 2 2 0 0 0 0 4Zm8 0a2 2 0 1 0 0-4 2 2 0 0 0 0 4ZM25 41a2 2 0 1 0 0-4 2 2 0 0 0 0 4Zm16 0a2 2 0 1 0 0-4 2 2 0 0 0 0 4Zm8 0a2 2 0 1 0 0-4 2 2 0 0 0 0 4Zm23 0a2 2 0 1 0 0-4 2 2 0 0 0 0 4Zm8 0a2 2 0 1 0 0-4 2 2 0 0 0 0 4Zm7 0a2 2 0 1 0 0-4 2 2 0 0 0 0 4Zm8 0a2 2 0 1 0 0-4 2 2 0 0 0 0 4Zm8 0a2 2 0 1 0 0-4 2 2 0 0 0 0 4Zm8 0a2 2 0 1 0 0-4 2 2 0 0 0 0 4Zm7 0a2 2 0 1 0 0-4 2 2 0 0 0 0 4Zm8 0a2 2 0 1 0 0-4 2 2 0 0 0 0 4Zm8 0a2 2 0 1 0 0-4 2 2 0 0 0 0 4Zm8 0a2 2 0 1 0 0-4 2 2 0 0 0 0 4Zm7 0a2 2 0 1 0 0-4 2 2 0 0 0 0 4Zm8 0a2 2 0 1 0 0-4 2 2 0 0 0 0 4Zm8 0a2 2 0 1 0 0-4 2 2 0 0 0 0 4Zm8 0a2 2 0 1 0 0-4 2 2 0 0 0 0 4Zm46 0a2 2 0 1 0 0-4 2 2 0 0 0 0 4Zm8 0a2 2 0 1 0 0-4 2 2 0 0 0 0 4Zm179 0a2 2 0 1 0 0-4 2 2 0 0 0 0 4Zm7 0a2 2 0 1 0 0-4 2 2 0 0 0 0 4Zm8 0a2 2 0 1 0 0-4 2 2 0 0 0 0 4Zm8 0a2 2 0 1 0 0-4 2 2 0 0 0 0 4Zm15 0a2 2 0 1 0 0-4 2 2 0 0 0 0 4Zm16 0a2 2 0 1 0 0-4 2 2 0 0 0 0 4Zm8 0a2 2 0 1 0 0-4 2 2 0 0 0 0 4Zm7 0a2 2 0 1 0 0-4 2 2 0 0 0 0 4Zm8 0a2 2 0 1 0 0-4 2 2 0 0 0 0 4Zm8 0a2 2 0 1 0 0-4 2 2 0 0 0 0 4Zm8 0a2 2 0 1 0 0-4 2 2 0 0 0 0 4Zm7 0a2 2 0 1 0 0-4 2 2 0 0 0 0 4Zm8 0a2 2 0 1 0 0-4 2 2 0 0 0 0 4Zm8 0a2 2 0 1 0 0-4 2 2 0 0 0 0 4Zm8 0a2 2 0 1 0 0-4 2 2 0 0 0 0 4Zm8 0a2 2 0 1 0 0-4 2 2 0 0 0 0 4Zm7 0a2 2 0 1 0 0-4 2 2 0 0 0 0 4Zm8 0a2 2 0 1 0 0-4 2 2 0 0 0 0 4Zm8 0a2 2 0 1 0 0-4 2 2 0 0 0 0 4Zm8 0a2 2 0 1 0 0-4 2 2 0 0 0 0 4Zm7 0a2 2 0 1 0 0-4 2 2 0 0 0 0 4Zm8 0a2 2 0 1 0 0-4 2 2 0 0 0 0 4Zm8 0a2 2 0 1 0 0-4 2 2 0 0 0 0 4Zm8 0a2 2 0 1 0 0-4 2 2 0 0 0 0 4Zm7 0a2 2 0 1 0 0-4 2 2 0 0 0 0 4Zm8 0a2 2 0 1 0 0-4 2 2 0 0 0 0 4Zm8 0a2 2 0 1 0 0-4 2 2 0 0 0 0 4Zm8 0a2 2 0 1 0 0-4 2 2 0 0 0 0 4Zm7 0a2 2 0 1 0 0-4 2 2 0 0 0 0 4Zm8 0a2 2 0 1 0 0-4 2 2 0 0 0 0 4Zm8 0a2 2 0 1 0 0-4 2 2 0 0 0 0 4Zm8 0a2 2 0 1 0 0-4 2 2 0 0 0 0 4Zm7 0a2 2 0 1 0 0-4 2 2 0 0 0 0 4Zm8 0a2 2 0 1 0 0-4 2 2 0 0 0 0 4Zm8 0a2 2 0 1 0 0-4 2 2 0 0 0 0 4Zm8 0a2 2 0 1 0 0-4 2 2 0 0 0 0 4Zm8 0a2 2 0 1 0 0-4 2 2 0 0 0 0 4Zm7 0a2 2 0 1 0 0-4 2 2 0 0 0 0 4Zm8 0a2 2 0 1 0 0-4 2 2 0 0 0 0 4Zm8 0a2 2 0 1 0 0-4 2 2 0 0 0 0 4Zm8 0a2 2 0 1 0 0-4 2 2 0 0 0 0 4Zm7 0a2 2 0 1 0 0-4 2 2 0 0 0 0 4Zm24 0a2 2 0 1 0 0-4 2 2 0 0 0 0 4ZM25 48a2 2 0 1 0 0-3 2 2 0 0 0 0 3Zm8 0a2 2 0 1 0 0-3 2 2 0 0 0 0 3Zm47 0a2 2 0 1 0 0-3 2 2 0 0 0 0 3Zm7 0a2 2 0 1 0 0-3 2 2 0 0 0 0 3Zm8 0a2 2 0 1 0 0-3 2 2 0 0 0 0 3Zm8 0a2 2 0 1 0 0-3 2 2 0 0 0 0 3Zm8 0a2 2 0 1 0 0-3 2 2 0 0 0 0 3Zm7 0a2 2 0 1 0 0-3 2 2 0 0 0 0 3Zm8 0a2 2 0 1 0 0-3 2 2 0 0 0 0 3Zm8 0a2 2 0 1 0 0-3 2 2 0 0 0 0 3Zm8 0a2 2 0 1 0 0-3 2 2 0 0 0 0 3Zm7 0a2 2 0 1 0 0-3 2 2 0 0 0 0 3Zm8 0a2 2 0 1 0 0-3 2 2 0 0 0 0 3Zm8 0a2 2 0 1 0 0-3 2 2 0 0 0 0 3Zm8 0a2 2 0 1 0 0-3 2 2 0 0 0 0 3Zm46 0a2 2 0 1 0 0-3 2 2 0 0 0 0 3Zm8 0a2 2 0 1 0 0-3 2 2 0 0 0 0 3Zm8 0a2 2 0 1 0 0-3 2 2 0 0 0 0 3Zm8 0a2 2 0 1 0 0-3 2 2 0 0 0 0 3Zm139 0a2 2 0 1 0 0-3 2 2 0 0 0 0 3Zm39 0a2 2 0 1 0 0-3 2 2 0 0 0 0 3Zm8 0a2 2 0 1 0 0-3 2 2 0 0 0 0 3Zm15 0a2 2 0 1 0 0-3 2 2 0 0 0 0 3Zm8 0a2 2 0 1 0 0-3 2 2 0 0 0 0 3Zm8 0a2 2 0 1 0 0-3 2 2 0 0 0 0 3Zm8 0a2 2 0 1 0 0-3 2 2 0 0 0 0 3Zm7 0a2 2 0 1 0 0-3 2 2 0 0 0 0 3Zm8 0a2 2 0 1 0 0-3 2 2 0 0 0 0 3Zm8 0a2 2 0 1 0 0-3 2 2 0 0 0 0 3Zm8 0a2 2 0 1 0 0-3 2 2 0 0 0 0 3Zm7 0a2 2 0 1 0 0-3 2 2 0 0 0 0 3Zm8 0a2 2 0 1 0 0-3 2 2 0 0 0 0 3Zm8 0a2 2 0 1 0 0-3 2 2 0 0 0 0 3Zm8 0a2 2 0 1 0 0-3 2 2 0 0 0 0 3Zm8 0a2 2 0 1 0 0-3 2 2 0 0 0 0 3Zm7 0a2 2 0 1 0 0-3 2 2 0 0 0 0 3Zm8 0a2 2 0 1 0 0-3 2 2 0 0 0 0 3Zm8 0a2 2 0 1 0 0-3 2 2 0 0 0 0 3Zm8 0a2 2 0 1 0 0-3 2 2 0 0 0 0 3Zm7 0a2 2 0 1 0 0-3 2 2 0 0 0 0 3Zm8 0a2 2 0 1 0 0-3 2 2 0 0 0 0 3Zm8 0a2 2 0 1 0 0-3 2 2 0 0 0 0 3Zm8 0a2 2 0 1 0 0-3 2 2 0 0 0 0 3Zm7 0a2 2 0 1 0 0-3 2 2 0 0 0 0 3Zm8 0a2 2 0 1 0 0-3 2 2 0 0 0 0 3Zm8 0a2 2 0 1 0 0-3 2 2 0 0 0 0 3Zm8 0a2 2 0 1 0 0-3 2 2 0 0 0 0 3Zm7 0a2 2 0 1 0 0-3 2 2 0 0 0 0 3Zm8 0a2 2 0 1 0 0-3 2 2 0 0 0 0 3Zm8 0a2 2 0 1 0 0-3 2 2 0 0 0 0 3Zm8 0a2 2 0 1 0 0-3 2 2 0 0 0 0 3Zm7 0a2 2 0 1 0 0-3 2 2 0 0 0 0 3Zm8 0a2 2 0 1 0 0-3 2 2 0 0 0 0 3Zm8 0a2 2 0 1 0 0-3 2 2 0 0 0 0 3Zm8 0a2 2 0 1 0 0-3 2 2 0 0 0 0 3Zm8 0a2 2 0 1 0 0-3 2 2 0 0 0 0 3Zm7 0a2 2 0 1 0 0-3 2 2 0 0 0 0 3Zm8 0a2 2 0 1 0 0-3 2 2 0 0 0 0 3Zm47 0a2 2 0 1 0 0-3 2 2 0 0 0 0 3Zm7 0a2 2 0 1 0 0-3 2 2 0 0 0 0 3ZM2 56a2 2 0 1 0 0-4 2 2 0 0 0 0 4Zm78 0a2 2 0 1 0 0-4 2 2 0 0 0 0 4Zm7 0a2 2 0 1 0 0-4 2 2 0 0 0 0 4Zm8 0a2 2 0 1 0 0-4 2 2 0 0 0 0 4Zm8 0a2 2 0 1 0 0-4 2 2 0 0 0 0 4Zm8 0a2 2 0 1 0 0-4 2 2 0 0 0 0 4Zm7 0a2 2 0 1 0 0-4 2 2 0 0 0 0 4Zm8 0a2 2 0 1 0 0-4 2 2 0 0 0 0 4Zm8 0a2 2 0 1 0 0-4 2 2 0 0 0 0 4Zm8 0a2 2 0 1 0 0-4 2 2 0 0 0 0 4Zm7 0a2 2 0 1 0 0-4 2 2 0 0 0 0 4Zm8 0a2 2 0 1 0 0-4 2 2 0 0 0 0 4Zm8 0a2 2 0 1 0 0-4 2 2 0 0 0 0 4Zm8 0a2 2 0 1 0 0-4 2 2 0 0 0 0 4Zm7 0a2 2 0 1 0 0-4 2 2 0 0 0 0 4Zm8 0a2 2 0 1 0 0-4 2 2 0 0 0 0 4Zm16 0a2 2 0 1 0 0-4 2 2 0 0 0 0 4Zm8 0a2 2 0 1 0 0-4 2 2 0 0 0 0 4Zm7 0a2 2 0 1 0 0-4 2 2 0 0 0 0 4Zm8 0a2 2 0 1 0 0-4 2 2 0 0 0 0 4Zm8 0a2 2 0 1 0 0-4 2 2 0 0 0 0 4Zm8 0a2 2 0 1 0 0-4 2 2 0 0 0 0 4Zm7 0a2 2 0 1 0 0-4 2 2 0 0 0 0 4Zm125 0a2 2 0 1 0 0-4 2 2 0 0 0 0 4Zm7 0a2 2 0 1 0 0-4 2 2 0 0 0 0 4Zm31 0a2 2 0 1 0 0-4 2 2 0 0 0 0 4Zm8 0a2 2 0 1 0 0-4 2 2 0 0 0 0 4Zm23 0a2 2 0 1 0 0-4 2 2 0 0 0 0 4Zm8 0a2 2 0 1 0 0-4 2 2 0 0 0 0 4Zm8 0a2 2 0 1 0 0-4 2 2 0 0 0 0 4Zm8 0a2 2 0 1 0 0-4 2 2 0 0 0 0 4Zm7 0a2 2 0 1 0 0-4 2 2 0 0 0 0 4Zm8 0a2 2 0 1 0 0-4 2 2 0 0 0 0 4Zm8 0a2 2 0 1 0 0-4 2 2 0 0 0 0 4Zm8 0a2 2 0 1 0 0-4 2 2 0 0 0 0 4Zm7 0a2 2 0 1 0 0-4 2 2 0 0 0 0 4Zm8 0a2 2 0 1 0 0-4 2 2 0 0 0 0 4Zm8 0a2 2 0 1 0 0-4 2 2 0 0 0 0 4Zm8 0a2 2 0 1 0 0-4 2 2 0 0 0 0 4Zm8 0a2 2 0 1 0 0-4 2 2 0 0 0 0 4Zm7 0a2 2 0 1 0 0-4 2 2 0 0 0 0 4Zm8 0a2 2 0 1 0 0-4 2 2 0 0 0 0 4Zm8 0a2 2 0 1 0 0-4 2 2 0 0 0 0 4Zm8 0a2 2 0 1 0 0-4 2 2 0 0 0 0 4Zm7 0a2 2 0 1 0 0-4 2 2 0 0 0 0 4Zm8 0a2 2 0 1 0 0-4 2 2 0 0 0 0 4Zm8 0a2 2 0 1 0 0-4 2 2 0 0 0 0 4Zm8 0a2 2 0 1 0 0-4 2 2 0 0 0 0 4Zm7 0a2 2 0 1 0 0-4 2 2 0 0 0 0 4Zm8 0a2 2 0 1 0 0-4 2 2 0 0 0 0 4Zm8 0a2 2 0 1 0 0-4 2 2 0 0 0 0 4Zm8 0a2 2 0 1 0 0-4 2 2 0 0 0 0 4Zm7 0a2 2 0 1 0 0-4 2 2 0 0 0 0 4Zm8 0a2 2 0 1 0 0-4 2 2 0 0 0 0 4Zm8 0a2 2 0 1 0 0-4 2 2 0 0 0 0 4Zm8 0a2 2 0 1 0 0-4 2 2 0 0 0 0 4Zm7 0a2 2 0 1 0 0-4 2 2 0 0 0 0 4Zm8 0a2 2 0 1 0 0-4 2 2 0 0 0 0 4Zm8 0a2 2 0 1 0 0-4 2 2 0 0 0 0 4Zm8 0a2 2 0 1 0 0-4 2 2 0 0 0 0 4Zm8 0a2 2 0 1 0 0-4 2 2 0 0 0 0 4Zm7 0a2 2 0 1 0 0-4 2 2 0 0 0 0 4Zm8 0a2 2 0 1 0 0-4 2 2 0 0 0 0 4Zm54 0a2 2 0 1 0 0-4 2 2 0 0 0 0 4Zm8 0a2 2 0 1 0 0-4 2 2 0 0 0 0 4ZM80 64a2 2 0 1 0 0-4 2 2 0 0 0 0 4Zm7 0a2 2 0 1 0 0-4 2 2 0 0 0 0 4Zm8 0a2 2 0 1 0 0-4 2 2 0 0 0 0 4Zm8 0a2 2 0 1 0 0-4 2 2 0 0 0 0 4Zm8 0a2 2 0 1 0 0-4 2 2 0 0 0 0 4Zm7 0a2 2 0 1 0 0-4 2 2 0 0 0 0 4Zm8 0a2 2 0 1 0 0-4 2 2 0 0 0 0 4Zm8 0a2 2 0 1 0 0-4 2 2 0 0 0 0 4Zm8 0a2 2 0 1 0 0-4 2 2 0 0 0 0 4Zm7 0a2 2 0 1 0 0-4 2 2 0 0 0 0 4Zm8 0a2 2 0 1 0 0-4 2 2 0 0 0 0 4Zm8 0a2 2 0 1 0 0-4 2 2 0 0 0 0 4Zm8 0a2 2 0 1 0 0-4 2 2 0 0 0 0 4Zm7 0a2 2 0 1 0 0-4 2 2 0 0 0 0 4Zm8 0a2 2 0 1 0 0-4 2 2 0 0 0 0 4Zm16 0a2 2 0 1 0 0-4 2 2 0 0 0 0 4Zm8 0a2 2 0 1 0 0-4 2 2 0 0 0 0 4Zm7 0a2 2 0 1 0 0-4 2 2 0 0 0 0 4Zm8 0a2 2 0 1 0 0-4 2 2 0 0 0 0 4Zm8 0a2 2 0 1 0 0-4 2 2 0 0 0 0 4Zm8 0a2 2 0 1 0 0-4 2 2 0 0 0 0 4Zm7 0a2 2 0 1 0 0-4 2 2 0 0 0 0 4Zm132 0a2 2 0 1 0 0-4 2 2 0 0 0 0 4Zm8 0a2 2 0 1 0 0-4 2 2 0 0 0 0 4Zm16 0a2 2 0 1 0 0-4 2 2 0 0 0 0 4Zm7 0a2 2 0 1 0 0-4 2 2 0 0 0 0 4Zm8 0a2 2 0 1 0 0-4 2 2 0 0 0 0 4Zm8 0a2 2 0 1 0 0-4 2 2 0 0 0 0 4Zm15 0a2 2 0 1 0 0-4 2 2 0 0 0 0 4Zm8 0a2 2 0 1 0 0-4 2 2 0 0 0 0 4Zm8 0a2 2 0 1 0 0-4 2 2 0 0 0 0 4Zm8 0a2 2 0 1 0 0-4 2 2 0 0 0 0 4Zm7 0a2 2 0 1 0 0-4 2 2 0 0 0 0 4Zm8 0a2 2 0 1 0 0-4 2 2 0 0 0 0 4Zm8 0a2 2 0 1 0 0-4 2 2 0 0 0 0 4Zm8 0a2 2 0 1 0 0-4 2 2 0 0 0 0 4Zm7 0a2 2 0 1 0 0-4 2 2 0 0 0 0 4Zm8 0a2 2 0 1 0 0-4 2 2 0 0 0 0 4Zm8 0a2 2 0 1 0 0-4 2 2 0 0 0 0 4Zm8 0a2 2 0 1 0 0-4 2 2 0 0 0 0 4Zm8 0a2 2 0 1 0 0-4 2 2 0 0 0 0 4Zm7 0a2 2 0 1 0 0-4 2 2 0 0 0 0 4Zm8 0a2 2 0 1 0 0-4 2 2 0 0 0 0 4Zm8 0a2 2 0 1 0 0-4 2 2 0 0 0 0 4Zm8 0a2 2 0 1 0 0-4 2 2 0 0 0 0 4Zm7 0a2 2 0 1 0 0-4 2 2 0 0 0 0 4Zm8 0a2 2 0 1 0 0-4 2 2 0 0 0 0 4Zm8 0a2 2 0 1 0 0-4 2 2 0 0 0 0 4Zm8 0a2 2 0 1 0 0-4 2 2 0 0 0 0 4Zm7 0a2 2 0 1 0 0-4 2 2 0 0 0 0 4Zm8 0a2 2 0 1 0 0-4 2 2 0 0 0 0 4Zm8 0a2 2 0 1 0 0-4 2 2 0 0 0 0 4Zm8 0a2 2 0 1 0 0-4 2 2 0 0 0 0 4Zm7 0a2 2 0 1 0 0-4 2 2 0 0 0 0 4Zm8 0a2 2 0 1 0 0-4 2 2 0 0 0 0 4Zm8 0a2 2 0 1 0 0-4 2 2 0 0 0 0 4Zm8 0a2 2 0 1 0 0-4 2 2 0 0 0 0 4Zm7 0a2 2 0 1 0 0-4 2 2 0 0 0 0 4Zm8 0a2 2 0 1 0 0-4 2 2 0 0 0 0 4Zm8 0a2 2 0 1 0 0-4 2 2 0 0 0 0 4Zm8 0a2 2 0 1 0 0-4 2 2 0 0 0 0 4Zm8 0a2 2 0 1 0 0-4 2 2 0 0 0 0 4Zm7 0a2 2 0 1 0 0-4 2 2 0 0 0 0 4Zm8 0a2 2 0 1 0 0-4 2 2 0 0 0 0 4Zm8 0a2 2 0 1 0 0-4 2 2 0 0 0 0 4Zm8 0a2 2 0 1 0 0-4 2 2 0 0 0 0 4Zm7 0a2 2 0 1 0 0-4 2 2 0 0 0 0 4Zm39 0a2 2 0 1 0 0-4 2 2 0 0 0 0 4ZM87 72a2 2 0 1 0 0-4 2 2 0 0 0 0 4Zm8 0a2 2 0 1 0 0-4 2 2 0 0 0 0 4Zm16 0a2 2 0 1 0 0-4 2 2 0 0 0 0 4Zm7 0a2 2 0 1 0 0-4 2 2 0 0 0 0 4Zm8 0a2 2 0 1 0 0-4 2 2 0 0 0 0 4Zm8 0a2 2 0 1 0 0-4 2 2 0 0 0 0 4Zm8 0a2 2 0 1 0 0-4 2 2 0 0 0 0 4Zm7 0a2 2 0 1 0 0-4 2 2 0 0 0 0 4Zm8 0a2 2 0 1 0 0-4 2 2 0 0 0 0 4Zm8 0a2 2 0 1 0 0-4 2 2 0 0 0 0 4Zm8 0a2 2 0 1 0 0-4 2 2 0 0 0 0 4Zm7 0a2 2 0 1 0 0-4 2 2 0 0 0 0 4Zm8 0a2 2 0 1 0 0-4 2 2 0 0 0 0 4Zm8 0a2 2 0 1 0 0-4 2 2 0 0 0 0 4Zm8 0a2 2 0 1 0 0-4 2 2 0 0 0 0 4Zm8 0a2 2 0 1 0 0-4 2 2 0 0 0 0 4Zm7 0a2 2 0 1 0 0-4 2 2 0 0 0 0 4Zm16 0a2 2 0 1 0 0-4 2 2 0 0 0 0 4Zm15 0a2 2 0 1 0 0-4 2 2 0 0 0 0 4Zm148 0a2 2 0 1 0 0-4 2 2 0 0 0 0 4Zm8 0a2 2 0 1 0 0-4 2 2 0 0 0 0 4Zm7 0a2 2 0 1 0 0-4 2 2 0 0 0 0 4Zm8 0a2 2 0 1 0 0-4 2 2 0 0 0 0 4Zm8 0a2 2 0 1 0 0-4 2 2 0 0 0 0 4Zm8 0a2 2 0 1 0 0-4 2 2 0 0 0 0 4Zm7 0a2 2 0 1 0 0-4 2 2 0 0 0 0 4Zm8 0a2 2 0 1 0 0-4 2 2 0 0 0 0 4Zm8 0a2 2 0 1 0 0-4 2 2 0 0 0 0 4Zm8 0a2 2 0 1 0 0-4 2 2 0 0 0 0 4Zm7 0a2 2 0 1 0 0-4 2 2 0 0 0 0 4Zm8 0a2 2 0 1 0 0-4 2 2 0 0 0 0 4Zm8 0a2 2 0 1 0 0-4 2 2 0 0 0 0 4Zm8 0a2 2 0 1 0 0-4 2 2 0 0 0 0 4Zm7 0a2 2 0 1 0 0-4 2 2 0 0 0 0 4Zm8 0a2 2 0 1 0 0-4 2 2 0 0 0 0 4Zm8 0a2 2 0 1 0 0-4 2 2 0 0 0 0 4Zm8 0a2 2 0 1 0 0-4 2 2 0 0 0 0 4Zm8 0a2 2 0 1 0 0-4 2 2 0 0 0 0 4Zm7 0a2 2 0 1 0 0-4 2 2 0 0 0 0 4Zm8 0a2 2 0 1 0 0-4 2 2 0 0 0 0 4Zm8 0a2 2 0 1 0 0-4 2 2 0 0 0 0 4Zm8 0a2 2 0 1 0 0-4 2 2 0 0 0 0 4Zm7 0a2 2 0 1 0 0-4 2 2 0 0 0 0 4Zm8 0a2 2 0 1 0 0-4 2 2 0 0 0 0 4Zm8 0a2 2 0 1 0 0-4 2 2 0 0 0 0 4Zm8 0a2 2 0 1 0 0-4 2 2 0 0 0 0 4Zm7 0a2 2 0 1 0 0-4 2 2 0 0 0 0 4Zm8 0a2 2 0 1 0 0-4 2 2 0 0 0 0 4Zm8 0a2 2 0 1 0 0-4 2 2 0 0 0 0 4Zm8 0a2 2 0 1 0 0-4 2 2 0 0 0 0 4Zm7 0a2 2 0 1 0 0-4 2 2 0 0 0 0 4Zm8 0a2 2 0 1 0 0-4 2 2 0 0 0 0 4Zm8 0a2 2 0 1 0 0-4 2 2 0 0 0 0 4Zm8 0a2 2 0 1 0 0-4 2 2 0 0 0 0 4Zm7 0a2 2 0 1 0 0-4 2 2 0 0 0 0 4Zm8 0a2 2 0 1 0 0-4 2 2 0 0 0 0 4Zm8 0a2 2 0 1 0 0-4 2 2 0 0 0 0 4Zm8 0a2 2 0 1 0 0-4 2 2 0 0 0 0 4Zm8 0a2 2 0 1 0 0-4 2 2 0 0 0 0 4Zm7 0a2 2 0 1 0 0-4 2 2 0 0 0 0 4Zm8 0a2 2 0 1 0 0-4 2 2 0 0 0 0 4Zm8 0a2 2 0 1 0 0-4 2 2 0 0 0 0 4Zm8 0a2 2 0 1 0 0-4 2 2 0 0 0 0 4Zm7 0a2 2 0 1 0 0-4 2 2 0 0 0 0 4ZM80 80a2 2 0 1 0 0-4 2 2 0 0 0 0 4Zm7 0a2 2 0 1 0 0-4 2 2 0 0 0 0 4Zm8 0a2 2 0 1 0 0-4 2 2 0 0 0 0 4Zm8 0a2 2 0 1 0 0-4 2 2 0 0 0 0 4Zm8 0a2 2 0 1 0 0-4 2 2 0 0 0 0 4Zm7 0a2 2 0 1 0 0-4 2 2 0 0 0 0 4Zm8 0a2 2 0 1 0 0-4 2 2 0 0 0 0 4Zm8 0a2 2 0 1 0 0-4 2 2 0 0 0 0 4Zm8 0a2 2 0 1 0 0-4 2 2 0 0 0 0 4Zm7 0a2 2 0 1 0 0-4 2 2 0 0 0 0 4Zm8 0a2 2 0 1 0 0-4 2 2 0 0 0 0 4Zm8 0a2 2 0 1 0 0-4 2 2 0 0 0 0 4Zm15 0a2 2 0 1 0 0-4 2 2 0 0 0 0 4Zm8 0a2 2 0 1 0 0-4 2 2 0 0 0 0 4Zm8 0a2 2 0 1 0 0-4 2 2 0 0 0 0 4Zm8 0a2 2 0 1 0 0-4 2 2 0 0 0 0 4Zm8 0a2 2 0 1 0 0-4 2 2 0 0 0 0 4Zm7 0a2 2 0 1 0 0-4 2 2 0 0 0 0 4Zm31 0a2 2 0 1 0 0-4 2 2 0 0 0 0 4Zm140 0a2 2 0 1 0 0-4 2 2 0 0 0 0 4Zm8 0a2 2 0 1 0 0-4 2 2 0 0 0 0 4Zm8 0a2 2 0 1 0 0-4 2 2 0 0 0 0 4Zm7 0a2 2 0 1 0 0-4 2 2 0 0 0 0 4Zm16 0a2 2 0 1 0 0-4 2 2 0 0 0 0 4Zm8 0a2 2 0 1 0 0-4 2 2 0 0 0 0 4Zm15 0a2 2 0 1 0 0-4 2 2 0 0 0 0 4Zm8 0a2 2 0 1 0 0-4 2 2 0 0 0 0 4Zm8 0a2 2 0 1 0 0-4 2 2 0 0 0 0 4Zm7 0a2 2 0 1 0 0-4 2 2 0 0 0 0 4Zm8 0a2 2 0 1 0 0-4 2 2 0 0 0 0 4Zm16 0a2 2 0 1 0 0-4 2 2 0 0 0 0 4Zm7 0a2 2 0 1 0 0-4 2 2 0 0 0 0 4Zm8 0a2 2 0 1 0 0-4 2 2 0 0 0 0 4Zm8 0a2 2 0 1 0 0-4 2 2 0 0 0 0 4Zm8 0a2 2 0 1 0 0-4 2 2 0 0 0 0 4Zm8 0a2 2 0 1 0 0-4 2 2 0 0 0 0 4Zm7 0a2 2 0 1 0 0-4 2 2 0 0 0 0 4Zm8 0a2 2 0 1 0 0-4 2 2 0 0 0 0 4Zm8 0a2 2 0 1 0 0-4 2 2 0 0 0 0 4Zm8 0a2 2 0 1 0 0-4 2 2 0 0 0 0 4Zm7 0a2 2 0 1 0 0-4 2 2 0 0 0 0 4Zm8 0a2 2 0 1 0 0-4 2 2 0 0 0 0 4Zm8 0a2 2 0 1 0 0-4 2 2 0 0 0 0 4Zm8 0a2 2 0 1 0 0-4 2 2 0 0 0 0 4Zm7 0a2 2 0 1 0 0-4 2 2 0 0 0 0 4Zm8 0a2 2 0 1 0 0-4 2 2 0 0 0 0 4Zm8 0a2 2 0 1 0 0-4 2 2 0 0 0 0 4Zm8 0a2 2 0 1 0 0-4 2 2 0 0 0 0 4Zm7 0a2 2 0 1 0 0-4 2 2 0 0 0 0 4Zm8 0a2 2 0 1 0 0-4 2 2 0 0 0 0 4Zm8 0a2 2 0 1 0 0-4 2 2 0 0 0 0 4Zm8 0a2 2 0 1 0 0-4 2 2 0 0 0 0 4Zm7 0a2 2 0 1 0 0-4 2 2 0 0 0 0 4Zm8 0a2 2 0 1 0 0-4 2 2 0 0 0 0 4Zm8 0a2 2 0 1 0 0-4 2 2 0 0 0 0 4Zm8 0a2 2 0 1 0 0-4 2 2 0 0 0 0 4Zm8 0a2 2 0 1 0 0-4 2 2 0 0 0 0 4Zm7 0a2 2 0 1 0 0-4 2 2 0 0 0 0 4Zm8 0a2 2 0 1 0 0-4 2 2 0 0 0 0 4Zm8 0a2 2 0 1 0 0-4 2 2 0 0 0 0 4Zm8 0a2 2 0 1 0 0-4 2 2 0 0 0 0 4Zm7 0a2 2 0 1 0 0-4 2 2 0 0 0 0 4Zm16 0a2 2 0 1 0 0-4 2 2 0 0 0 0 4ZM72 87a2 2 0 1 0 0-4 2 2 0 0 0 0 4Zm8 0a2 2 0 1 0 0-4 2 2 0 0 0 0 4Zm7 0a2 2 0 1 0 0-4 2 2 0 0 0 0 4Zm8 0a2 2 0 1 0 0-4 2 2 0 0 0 0 4Zm8 0a2 2 0 1 0 0-4 2 2 0 0 0 0 4Zm8 0a2 2 0 1 0 0-4 2 2 0 0 0 0 4Zm7 0a2 2 0 1 0 0-4 2 2 0 0 0 0 4Zm8 0a2 2 0 1 0 0-4 2 2 0 0 0 0 4Zm8 0a2 2 0 1 0 0-4 2 2 0 0 0 0 4Zm15 0a2 2 0 1 0 0-4 2 2 0 0 0 0 4Zm8 0a2 2 0 1 0 0-4 2 2 0 0 0 0 4Zm16 0a2 2 0 1 0 0-4 2 2 0 0 0 0 4Zm7 0a2 2 0 1 0 0-4 2 2 0 0 0 0 4Zm8 0a2 2 0 1 0 0-4 2 2 0 0 0 0 4Zm8 0a2 2 0 1 0 0-4 2 2 0 0 0 0 4Zm8 0a2 2 0 1 0 0-4 2 2 0 0 0 0 4Zm8 0a2 2 0 1 0 0-4 2 2 0 0 0 0 4Zm15 0a2 2 0 1 0 0-4 2 2 0 0 0 0 4Zm163 0a2 2 0 1 0 0-4 2 2 0 0 0 0 4Zm8 0a2 2 0 1 0 0-4 2 2 0 0 0 0 4Zm8 0a2 2 0 1 0 0-4 2 2 0 0 0 0 4Zm7 0a2 2 0 1 0 0-4 2 2 0 0 0 0 4Zm8 0a2 2 0 1 0 0-4 2 2 0 0 0 0 4Zm16 0a2 2 0 1 0 0-4 2 2 0 0 0 0 4Zm7 0a2 2 0 1 0 0-4 2 2 0 0 0 0 4Zm8 0a2 2 0 1 0 0-4 2 2 0 0 0 0 4Zm8 0a2 2 0 1 0 0-4 2 2 0 0 0 0 4Zm31 0a2 2 0 1 0 0-4 2 2 0 0 0 0 4Zm8 0a2 2 0 1 0 0-4 2 2 0 0 0 0 4Zm7 0a2 2 0 1 0 0-4 2 2 0 0 0 0 4Zm24 0a2 2 0 1 0 0-4 2 2 0 0 0 0 4Zm8 0a2 2 0 1 0 0-4 2 2 0 0 0 0 4Zm7 0a2 2 0 1 0 0-4 2 2 0 0 0 0 4Zm8 0a2 2 0 1 0 0-4 2 2 0 0 0 0 4Zm8 0a2 2 0 1 0 0-4 2 2 0 0 0 0 4Zm8 0a2 2 0 1 0 0-4 2 2 0 0 0 0 4Zm7 0a2 2 0 1 0 0-4 2 2 0 0 0 0 4Zm8 0a2 2 0 1 0 0-4 2 2 0 0 0 0 4Zm8 0a2 2 0 1 0 0-4 2 2 0 0 0 0 4Zm8 0a2 2 0 1 0 0-4 2 2 0 0 0 0 4Zm7 0a2 2 0 1 0 0-4 2 2 0 0 0 0 4Zm8 0a2 2 0 1 0 0-4 2 2 0 0 0 0 4Zm8 0a2 2 0 1 0 0-4 2 2 0 0 0 0 4Zm8 0a2 2 0 1 0 0-4 2 2 0 0 0 0 4Zm7 0a2 2 0 1 0 0-4 2 2 0 0 0 0 4Zm8 0a2 2 0 1 0 0-4 2 2 0 0 0 0 4Zm8 0a2 2 0 1 0 0-4 2 2 0 0 0 0 4Zm8 0a2 2 0 1 0 0-4 2 2 0 0 0 0 4Zm7 0a2 2 0 1 0 0-4 2 2 0 0 0 0 4Zm8 0a2 2 0 1 0 0-4 2 2 0 0 0 0 4Zm8 0a2 2 0 1 0 0-4 2 2 0 0 0 0 4Zm8 0a2 2 0 1 0 0-4 2 2 0 0 0 0 4Zm8 0a2 2 0 1 0 0-4 2 2 0 0 0 0 4Zm7 0a2 2 0 1 0 0-4 2 2 0 0 0 0 4Zm8 0a2 2 0 1 0 0-4 2 2 0 0 0 0 4Zm8 0a2 2 0 1 0 0-4 2 2 0 0 0 0 4Zm8 0a2 2 0 1 0 0-4 2 2 0 0 0 0 4Zm7 0a2 2 0 1 0 0-4 2 2 0 0 0 0 4Zm24 0a2 2 0 1 0 0-4 2 2 0 0 0 0 4ZM64 95a2 2 0 1 0 0-4 2 2 0 0 0 0 4Zm8 0a2 2 0 1 0 0-4 2 2 0 0 0 0 4Zm8 0a2 2 0 1 0 0-4 2 2 0 0 0 0 4Zm7 0a2 2 0 1 0 0-4 2 2 0 0 0 0 4Zm8 0a2 2 0 1 0 0-4 2 2 0 0 0 0 4Zm8 0a2 2 0 1 0 0-4 2 2 0 0 0 0 4Zm8 0a2 2 0 1 0 0-4 2 2 0 0 0 0 4Zm7 0a2 2 0 1 0 0-4 2 2 0 0 0 0 4Zm8 0a2 2 0 1 0 0-4 2 2 0 0 0 0 4Zm8 0a2 2 0 1 0 0-4 2 2 0 0 0 0 4Zm8 0a2 2 0 1 0 0-4 2 2 0 0 0 0 4Zm7 0a2 2 0 1 0 0-4 2 2 0 0 0 0 4Zm8 0a2 2 0 1 0 0-4 2 2 0 0 0 0 4Zm8 0a2 2 0 1 0 0-4 2 2 0 0 0 0 4Zm8 0a2 2 0 1 0 0-4 2 2 0 0 0 0 4Zm7 0a2 2 0 1 0 0-4 2 2 0 0 0 0 4Zm8 0a2 2 0 1 0 0-4 2 2 0 0 0 0 4Zm8 0a2 2 0 1 0 0-4 2 2 0 0 0 0 4Zm8 0a2 2 0 1 0 0-4 2 2 0 0 0 0 4Zm171 0a2 2 0 1 0 0-4 2 2 0 0 0 0 4Zm7 0a2 2 0 1 0 0-4 2 2 0 0 0 0 4Zm8 0a2 2 0 1 0 0-4 2 2 0 0 0 0 4Zm8 0a2 2 0 1 0 0-4 2 2 0 0 0 0 4Zm31 0a2 2 0 1 0 0-4 2 2 0 0 0 0 4Zm15 0a2 2 0 1 0 0-4 2 2 0 0 0 0 4Zm8 0a2 2 0 1 0 0-4 2 2 0 0 0 0 4Zm8 0a2 2 0 1 0 0-4 2 2 0 0 0 0 4Zm23 0a2 2 0 1 0 0-4 2 2 0 0 0 0 4Zm23 0a2 2 0 1 0 0-4 2 2 0 0 0 0 4Zm8 0a2 2 0 1 0 0-4 2 2 0 0 0 0 4Zm24 0a2 2 0 1 0 0-4 2 2 0 0 0 0 4Zm7 0a2 2 0 1 0 0-4 2 2 0 0 0 0 4Zm8 0a2 2 0 1 0 0-4 2 2 0 0 0 0 4Zm8 0a2 2 0 1 0 0-4 2 2 0 0 0 0 4Zm8 0a2 2 0 1 0 0-4 2 2 0 0 0 0 4Zm7 0a2 2 0 1 0 0-4 2 2 0 0 0 0 4Zm8 0a2 2 0 1 0 0-4 2 2 0 0 0 0 4Zm8 0a2 2 0 1 0 0-4 2 2 0 0 0 0 4Zm8 0a2 2 0 1 0 0-4 2 2 0 0 0 0 4Zm7 0a2 2 0 1 0 0-4 2 2 0 0 0 0 4Zm8 0a2 2 0 1 0 0-4 2 2 0 0 0 0 4Zm8 0a2 2 0 1 0 0-4 2 2 0 0 0 0 4Zm8 0a2 2 0 1 0 0-4 2 2 0 0 0 0 4Zm7 0a2 2 0 1 0 0-4 2 2 0 0 0 0 4Zm8 0a2 2 0 1 0 0-4 2 2 0 0 0 0 4Zm8 0a2 2 0 1 0 0-4 2 2 0 0 0 0 4Zm8 0a2 2 0 1 0 0-4 2 2 0 0 0 0 4Zm7 0a2 2 0 1 0 0-4 2 2 0 0 0 0 4Zm8 0a2 2 0 1 0 0-4 2 2 0 0 0 0 4Zm8 0a2 2 0 1 0 0-4 2 2 0 0 0 0 4Zm8 0a2 2 0 1 0 0-4 2 2 0 0 0 0 4Zm8 0a2 2 0 1 0 0-4 2 2 0 0 0 0 4Zm7 0a2 2 0 1 0 0-4 2 2 0 0 0 0 4Zm8 0a2 2 0 1 0 0-4 2 2 0 0 0 0 4Zm8 0a2 2 0 1 0 0-4 2 2 0 0 0 0 4Zm8 0a2 2 0 1 0 0-4 2 2 0 0 0 0 4Zm31 0a2 2 0 1 0 0-4 2 2 0 0 0 0 4Zm-699 8a2 2 0 1 0 0-4 2 2 0 0 0 0 4Zm8 0a2 2 0 1 0 0-4 2 2 0 0 0 0 4Zm8 0a2 2 0 1 0 0-4 2 2 0 0 0 0 4Zm7 0a2 2 0 1 0 0-4 2 2 0 0 0 0 4Zm8 0a2 2 0 1 0 0-4 2 2 0 0 0 0 4Zm8 0a2 2 0 1 0 0-4 2 2 0 0 0 0 4Zm8 0a2 2 0 1 0 0-4 2 2 0 0 0 0 4Zm7 0a2 2 0 1 0 0-4 2 2 0 0 0 0 4Zm8 0a2 2 0 1 0 0-4 2 2 0 0 0 0 4Zm8 0a2 2 0 1 0 0-4 2 2 0 0 0 0 4Zm8 0a2 2 0 1 0 0-4 2 2 0 0 0 0 4Zm7 0a2 2 0 1 0 0-4 2 2 0 0 0 0 4Zm8 0a2 2 0 1 0 0-4 2 2 0 0 0 0 4Zm8 0a2 2 0 1 0 0-4 2 2 0 0 0 0 4Zm8 0a2 2 0 1 0 0-4 2 2 0 0 0 0 4Zm7 0a2 2 0 1 0 0-4 2 2 0 0 0 0 4Zm8 0a2 2 0 1 0 0-4 2 2 0 0 0 0 4Zm179 0a2 2 0 1 0 0-4 2 2 0 0 0 0 4Zm8 0a2 2 0 1 0 0-4 2 2 0 0 0 0 4Zm15 0a2 2 0 1 0 0-4 2 2 0 0 0 0 4Zm47 0a2 2 0 1 0 0-4 2 2 0 0 0 0 4Zm15 0a2 2 0 1 0 0-4 2 2 0 0 0 0 4Zm16 0a2 2 0 1 0 0-4 2 2 0 0 0 0 4Zm7 0a2 2 0 1 0 0-4 2 2 0 0 0 0 4Zm8 0a2 2 0 1 0 0-4 2 2 0 0 0 0 4Zm8 0a2 2 0 1 0 0-4 2 2 0 0 0 0 4Zm8 0a2 2 0 1 0 0-4 2 2 0 0 0 0 4Zm7 0a2 2 0 1 0 0-4 2 2 0 0 0 0 4Zm8 0a2 2 0 1 0 0-4 2 2 0 0 0 0 4Zm8 0a2 2 0 1 0 0-4 2 2 0 0 0 0 4Zm16 0a2 2 0 1 0 0-4 2 2 0 0 0 0 4Zm7 0a2 2 0 1 0 0-4 2 2 0 0 0 0 4Zm8 0a2 2 0 1 0 0-4 2 2 0 0 0 0 4Zm8 0a2 2 0 1 0 0-4 2 2 0 0 0 0 4Zm8 0a2 2 0 1 0 0-4 2 2 0 0 0 0 4Zm7 0a2 2 0 1 0 0-4 2 2 0 0 0 0 4Zm8 0a2 2 0 1 0 0-4 2 2 0 0 0 0 4Zm8 0a2 2 0 1 0 0-4 2 2 0 0 0 0 4Zm8 0a2 2 0 1 0 0-4 2 2 0 0 0 0 4Zm7 0a2 2 0 1 0 0-4 2 2 0 0 0 0 4Zm8 0a2 2 0 1 0 0-4 2 2 0 0 0 0 4Zm8 0a2 2 0 1 0 0-4 2 2 0 0 0 0 4Zm8 0a2 2 0 1 0 0-4 2 2 0 0 0 0 4Zm7 0a2 2 0 1 0 0-4 2 2 0 0 0 0 4Zm8 0a2 2 0 1 0 0-4 2 2 0 0 0 0 4Zm8 0a2 2 0 1 0 0-4 2 2 0 0 0 0 4Zm8 0a2 2 0 1 0 0-4 2 2 0 0 0 0 4Zm7 0a2 2 0 1 0 0-4 2 2 0 0 0 0 4Zm8 0a2 2 0 1 0 0-4 2 2 0 0 0 0 4Zm8 0a2 2 0 1 0 0-4 2 2 0 0 0 0 4Zm8 0a2 2 0 1 0 0-4 2 2 0 0 0 0 4Zm8 0a2 2 0 1 0 0-4 2 2 0 0 0 0 4Zm7 0a2 2 0 1 0 0-4 2 2 0 0 0 0 4Zm24 0a2 2 0 1 0 0-4 2 2 0 0 0 0 4Zm38 0a2 2 0 1 0 0-4 2 2 0 0 0 0 4Zm-706 8a2 2 0 1 0 0-4 2 2 0 0 0 0 4Zm8 0a2 2 0 1 0 0-4 2 2 0 0 0 0 4Zm8 0a2 2 0 1 0 0-4 2 2 0 0 0 0 4Zm7 0a2 2 0 1 0 0-4 2 2 0 0 0 0 4Zm8 0a2 2 0 1 0 0-4 2 2 0 0 0 0 4Zm8 0a2 2 0 1 0 0-4 2 2 0 0 0 0 4Zm8 0a2 2 0 1 0 0-4 2 2 0 0 0 0 4Zm7 0a2 2 0 1 0 0-4 2 2 0 0 0 0 4Zm8 0a2 2 0 1 0 0-4 2 2 0 0 0 0 4Zm8 0a2 2 0 1 0 0-4 2 2 0 0 0 0 4Zm8 0a2 2 0 1 0 0-4 2 2 0 0 0 0 4Zm7 0a2 2 0 1 0 0-4 2 2 0 0 0 0 4Zm8 0a2 2 0 1 0 0-4 2 2 0 0 0 0 4Zm8 0a2 2 0 1 0 0-4 2 2 0 0 0 0 4Zm8 0a2 2 0 1 0 0-4 2 2 0 0 0 0 4Zm7 0a2 2 0 1 0 0-4 2 2 0 0 0 0 4Zm195 0a2 2 0 1 0 0-4 2 2 0 0 0 0 4Zm7 0a2 2 0 1 0 0-4 2 2 0 0 0 0 4Zm24 0a2 2 0 1 0 0-4 2 2 0 0 0 0 4Zm7 0a2 2 0 1 0 0-4 2 2 0 0 0 0 4Zm8 0a2 2 0 1 0 0-4 2 2 0 0 0 0 4Zm31 0a2 2 0 1 0 0-4 2 2 0 0 0 0 4Zm16 0a2 2 0 1 0 0-4 2 2 0 0 0 0 4Zm7 0a2 2 0 1 0 0-4 2 2 0 0 0 0 4Zm8 0a2 2 0 1 0 0-4 2 2 0 0 0 0 4Zm8 0a2 2 0 1 0 0-4 2 2 0 0 0 0 4Zm8 0a2 2 0 1 0 0-4 2 2 0 0 0 0 4Zm7 0a2 2 0 1 0 0-4 2 2 0 0 0 0 4Zm8 0a2 2 0 1 0 0-4 2 2 0 0 0 0 4Zm8 0a2 2 0 1 0 0-4 2 2 0 0 0 0 4Zm8 0a2 2 0 1 0 0-4 2 2 0 0 0 0 4Zm8 0a2 2 0 1 0 0-4 2 2 0 0 0 0 4Zm7 0a2 2 0 1 0 0-4 2 2 0 0 0 0 4Zm8 0a2 2 0 1 0 0-4 2 2 0 0 0 0 4Zm8 0a2 2 0 1 0 0-4 2 2 0 0 0 0 4Zm8 0a2 2 0 1 0 0-4 2 2 0 0 0 0 4Zm7 0a2 2 0 1 0 0-4 2 2 0 0 0 0 4Zm8 0a2 2 0 1 0 0-4 2 2 0 0 0 0 4Zm8 0a2 2 0 1 0 0-4 2 2 0 0 0 0 4Zm8 0a2 2 0 1 0 0-4 2 2 0 0 0 0 4Zm7 0a2 2 0 1 0 0-4 2 2 0 0 0 0 4Zm8 0a2 2 0 1 0 0-4 2 2 0 0 0 0 4Zm8 0a2 2 0 1 0 0-4 2 2 0 0 0 0 4Zm8 0a2 2 0 1 0 0-4 2 2 0 0 0 0 4Zm7 0a2 2 0 1 0 0-4 2 2 0 0 0 0 4Zm8 0a2 2 0 1 0 0-4 2 2 0 0 0 0 4Zm8 0a2 2 0 1 0 0-4 2 2 0 0 0 0 4Zm8 0a2 2 0 1 0 0-4 2 2 0 0 0 0 4Zm7 0a2 2 0 1 0 0-4 2 2 0 0 0 0 4Zm8 0a2 2 0 1 0 0-4 2 2 0 0 0 0 4Zm8 0a2 2 0 1 0 0-4 2 2 0 0 0 0 4Zm8 0a2 2 0 1 0 0-4 2 2 0 0 0 0 4Zm8 0a2 2 0 1 0 0-4 2 2 0 0 0 0 4Zm7 0a2 2 0 1 0 0-4 2 2 0 0 0 0 4Zm8 0a2 2 0 1 0 0-4 2 2 0 0 0 0 4Zm8 0a2 2 0 1 0 0-4 2 2 0 0 0 0 4Zm15 0a2 2 0 1 0 0-4 2 2 0 0 0 0 4Zm31 0a2 2 0 1 0 0-4 2 2 0 0 0 0 4Zm-706 7a2 2 0 1 0 0-4 2 2 0 0 0 0 4Zm8 0a2 2 0 1 0 0-4 2 2 0 0 0 0 4Zm8 0a2 2 0 1 0 0-4 2 2 0 0 0 0 4Zm7 0a2 2 0 1 0 0-4 2 2 0 0 0 0 4Zm8 0a2 2 0 1 0 0-4 2 2 0 0 0 0 4Zm8 0a2 2 0 1 0 0-4 2 2 0 0 0 0 4Zm8 0a2 2 0 1 0 0-4 2 2 0 0 0 0 4Zm7 0a2 2 0 1 0 0-4 2 2 0 0 0 0 4Zm8 0a2 2 0 1 0 0-4 2 2 0 0 0 0 4Zm8 0a2 2 0 1 0 0-4 2 2 0 0 0 0 4Zm8 0a2 2 0 1 0 0-4 2 2 0 0 0 0 4Zm7 0a2 2 0 1 0 0-4 2 2 0 0 0 0 4Zm8 0a2 2 0 1 0 0-4 2 2 0 0 0 0 4Zm8 0a2 2 0 1 0 0-4 2 2 0 0 0 0 4Zm8 0a2 2 0 1 0 0-4 2 2 0 0 0 0 4Zm202 0a2 2 0 1 0 0-4 2 2 0 0 0 0 4Zm7 0a2 2 0 1 0 0-4 2 2 0 0 0 0 4Zm8 0a2 2 0 1 0 0-4 2 2 0 0 0 0 4Zm8 0a2 2 0 1 0 0-4 2 2 0 0 0 0 4Zm8 0a2 2 0 1 0 0-4 2 2 0 0 0 0 4Zm7 0a2 2 0 1 0 0-4 2 2 0 0 0 0 4Zm78 0a2 2 0 1 0 0-4 2 2 0 0 0 0 4Zm8 0a2 2 0 1 0 0-4 2 2 0 0 0 0 4Zm7 0a2 2 0 1 0 0-4 2 2 0 0 0 0 4Zm8 0a2 2 0 1 0 0-4 2 2 0 0 0 0 4Zm8 0a2 2 0 1 0 0-4 2 2 0 0 0 0 4Zm8 0a2 2 0 1 0 0-4 2 2 0 0 0 0 4Zm8 0a2 2 0 1 0 0-4 2 2 0 0 0 0 4Zm7 0a2 2 0 1 0 0-4 2 2 0 0 0 0 4Zm8 0a2 2 0 1 0 0-4 2 2 0 0 0 0 4Zm8 0a2 2 0 1 0 0-4 2 2 0 0 0 0 4Zm8 0a2 2 0 1 0 0-4 2 2 0 0 0 0 4Zm7 0a2 2 0 1 0 0-4 2 2 0 0 0 0 4Zm8 0a2 2 0 1 0 0-4 2 2 0 0 0 0 4Zm8 0a2 2 0 1 0 0-4 2 2 0 0 0 0 4Zm8 0a2 2 0 1 0 0-4 2 2 0 0 0 0 4Zm7 0a2 2 0 1 0 0-4 2 2 0 0 0 0 4Zm8 0a2 2 0 1 0 0-4 2 2 0 0 0 0 4Zm8 0a2 2 0 1 0 0-4 2 2 0 0 0 0 4Zm8 0a2 2 0 1 0 0-4 2 2 0 0 0 0 4Zm7 0a2 2 0 1 0 0-4 2 2 0 0 0 0 4Zm8 0a2 2 0 1 0 0-4 2 2 0 0 0 0 4Zm8 0a2 2 0 1 0 0-4 2 2 0 0 0 0 4Zm8 0a2 2 0 1 0 0-4 2 2 0 0 0 0 4Zm7 0a2 2 0 1 0 0-4 2 2 0 0 0 0 4Zm8 0a2 2 0 1 0 0-4 2 2 0 0 0 0 4Zm8 0a2 2 0 1 0 0-4 2 2 0 0 0 0 4Zm8 0a2 2 0 1 0 0-4 2 2 0 0 0 0 4Zm8 0a2 2 0 1 0 0-4 2 2 0 0 0 0 4Zm7 0a2 2 0 1 0 0-4 2 2 0 0 0 0 4Zm8 0a2 2 0 1 0 0-4 2 2 0 0 0 0 4Zm54 0a2 2 0 1 0 0-4 2 2 0 0 0 0 4Zm-706 8a2 2 0 1 0 0-4 2 2 0 0 0 0 4Zm8 0a2 2 0 1 0 0-4 2 2 0 0 0 0 4Zm8 0a2 2 0 1 0 0-4 2 2 0 0 0 0 4Zm7 0a2 2 0 1 0 0-4 2 2 0 0 0 0 4Zm8 0a2 2 0 1 0 0-4 2 2 0 0 0 0 4Zm8 0a2 2 0 1 0 0-4 2 2 0 0 0 0 4Zm8 0a2 2 0 1 0 0-4 2 2 0 0 0 0 4Zm7 0a2 2 0 1 0 0-4 2 2 0 0 0 0 4Zm8 0a2 2 0 1 0 0-4 2 2 0 0 0 0 4Zm8 0a2 2 0 1 0 0-4 2 2 0 0 0 0 4Zm8 0a2 2 0 1 0 0-4 2 2 0 0 0 0 4Zm7 0a2 2 0 1 0 0-4 2 2 0 0 0 0 4Zm8 0a2 2 0 1 0 0-4 2 2 0 0 0 0 4Zm210 0a2 2 0 1 0 0-4 2 2 0 0 0 0 4Zm8 0a2 2 0 1 0 0-4 2 2 0 0 0 0 4Zm7 0a2 2 0 1 0 0-4 2 2 0 0 0 0 4Zm8 0a2 2 0 1 0 0-4 2 2 0 0 0 0 4Zm8 0a2 2 0 1 0 0-4 2 2 0 0 0 0 4Zm8 0a2 2 0 1 0 0-4 2 2 0 0 0 0 4Zm7 0a2 2 0 1 0 0-4 2 2 0 0 0 0 4Zm8 0a2 2 0 1 0 0-4 2 2 0 0 0 0 4Zm8 0a2 2 0 1 0 0-4 2 2 0 0 0 0 4Zm23 0a2 2 0 1 0 0-4 2 2 0 0 0 0 4Zm8 0a2 2 0 1 0 0-4 2 2 0 0 0 0 4Zm31 0a2 2 0 1 0 0-4 2 2 0 0 0 0 4Zm8 0a2 2 0 1 0 0-4 2 2 0 0 0 0 4Zm7 0a2 2 0 1 0 0-4 2 2 0 0 0 0 4Zm8 0a2 2 0 1 0 0-4 2 2 0 0 0 0 4Zm8 0a2 2 0 1 0 0-4 2 2 0 0 0 0 4Zm8 0a2 2 0 1 0 0-4 2 2 0 0 0 0 4Zm8 0a2 2 0 1 0 0-4 2 2 0 0 0 0 4Zm7 0a2 2 0 1 0 0-4 2 2 0 0 0 0 4Zm8 0a2 2 0 1 0 0-4 2 2 0 0 0 0 4Zm8 0a2 2 0 1 0 0-4 2 2 0 0 0 0 4Zm8 0a2 2 0 1 0 0-4 2 2 0 0 0 0 4Zm7 0a2 2 0 1 0 0-4 2 2 0 0 0 0 4Zm8 0a2 2 0 1 0 0-4 2 2 0 0 0 0 4Zm8 0a2 2 0 1 0 0-4 2 2 0 0 0 0 4Zm8 0a2 2 0 1 0 0-4 2 2 0 0 0 0 4Zm7 0a2 2 0 1 0 0-4 2 2 0 0 0 0 4Zm8 0a2 2 0 1 0 0-4 2 2 0 0 0 0 4Zm8 0a2 2 0 1 0 0-4 2 2 0 0 0 0 4Zm8 0a2 2 0 1 0 0-4 2 2 0 0 0 0 4Zm7 0a2 2 0 1 0 0-4 2 2 0 0 0 0 4Zm8 0a2 2 0 1 0 0-4 2 2 0 0 0 0 4Zm8 0a2 2 0 1 0 0-4 2 2 0 0 0 0 4Zm8 0a2 2 0 1 0 0-4 2 2 0 0 0 0 4Zm7 0a2 2 0 1 0 0-4 2 2 0 0 0 0 4Zm8 0a2 2 0 1 0 0-4 2 2 0 0 0 0 4Zm8 0a2 2 0 1 0 0-4 2 2 0 0 0 0 4Zm8 0a2 2 0 1 0 0-4 2 2 0 0 0 0 4Zm8 0a2 2 0 1 0 0-4 2 2 0 0 0 0 4Zm7 0a2 2 0 1 0 0-4 2 2 0 0 0 0 4Zm8 0a2 2 0 1 0 0-4 2 2 0 0 0 0 4Zm8 0a2 2 0 1 0 0-4 2 2 0 0 0 0 4Zm8 0a2 2 0 1 0 0-4 2 2 0 0 0 0 4Zm-652 8a2 2 0 1 0 0-4 2 2 0 0 0 0 4Zm7 0a2 2 0 1 0 0-4 2 2 0 0 0 0 4Zm8 0a2 2 0 1 0 0-4 2 2 0 0 0 0 4Zm8 0a2 2 0 1 0 0-4 2 2 0 0 0 0 4Zm8 0a2 2 0 1 0 0-4 2 2 0 0 0 0 4Zm7 0a2 2 0 1 0 0-4 2 2 0 0 0 0 4Zm16 0a2 2 0 1 0 0-4 2 2 0 0 0 0 4Zm23 0a2 2 0 1 0 0-4 2 2 0 0 0 0 4Zm210 0a2 2 0 1 0 0-4 2 2 0 0 0 0 4Zm8 0a2 2 0 1 0 0-4 2 2 0 0 0 0 4Zm7 0a2 2 0 1 0 0-4 2 2 0 0 0 0 4Zm8 0a2 2 0 1 0 0-4 2 2 0 0 0 0 4Zm8 0a2 2 0 1 0 0-4 2 2 0 0 0 0 4Zm8 0a2 2 0 1 0 0-4 2 2 0 0 0 0 4Zm7 0a2 2 0 1 0 0-4 2 2 0 0 0 0 4Zm8 0a2 2 0 1 0 0-4 2 2 0 0 0 0 4Zm8 0a2 2 0 1 0 0-4 2 2 0 0 0 0 4Zm8 0a2 2 0 1 0 0-4 2 2 0 0 0 0 4Zm7 0a2 2 0 1 0 0-4 2 2 0 0 0 0 4Zm8 0a2 2 0 1 0 0-4 2 2 0 0 0 0 4Zm8 0a2 2 0 1 0 0-4 2 2 0 0 0 0 4Zm8 0a2 2 0 1 0 0-4 2 2 0 0 0 0 4Zm7 0a2 2 0 1 0 0-4 2 2 0 0 0 0 4Zm8 0a2 2 0 1 0 0-4 2 2 0 0 0 0 4Zm8 0a2 2 0 1 0 0-4 2 2 0 0 0 0 4Zm8 0a2 2 0 1 0 0-4 2 2 0 0 0 0 4Zm7 0a2 2 0 1 0 0-4 2 2 0 0 0 0 4Zm8 0a2 2 0 1 0 0-4 2 2 0 0 0 0 4Zm8 0a2 2 0 1 0 0-4 2 2 0 0 0 0 4Zm16 0a2 2 0 1 0 0-4 2 2 0 0 0 0 4Zm7 0a2 2 0 1 0 0-4 2 2 0 0 0 0 4Zm8 0a2 2 0 1 0 0-4 2 2 0 0 0 0 4Zm8 0a2 2 0 1 0 0-4 2 2 0 0 0 0 4Zm8 0a2 2 0 1 0 0-4 2 2 0 0 0 0 4Zm7 0a2 2 0 1 0 0-4 2 2 0 0 0 0 4Zm8 0a2 2 0 1 0 0-4 2 2 0 0 0 0 4Zm8 0a2 2 0 1 0 0-4 2 2 0 0 0 0 4Zm8 0a2 2 0 1 0 0-4 2 2 0 0 0 0 4Zm7 0a2 2 0 1 0 0-4 2 2 0 0 0 0 4Zm8 0a2 2 0 1 0 0-4 2 2 0 0 0 0 4Zm8 0a2 2 0 1 0 0-4 2 2 0 0 0 0 4Zm8 0a2 2 0 1 0 0-4 2 2 0 0 0 0 4Zm7 0a2 2 0 1 0 0-4 2 2 0 0 0 0 4Zm8 0a2 2 0 1 0 0-4 2 2 0 0 0 0 4Zm8 0a2 2 0 1 0 0-4 2 2 0 0 0 0 4Zm8 0a2 2 0 1 0 0-4 2 2 0 0 0 0 4Zm7 0a2 2 0 1 0 0-4 2 2 0 0 0 0 4Zm8 0a2 2 0 1 0 0-4 2 2 0 0 0 0 4Zm8 0a2 2 0 1 0 0-4 2 2 0 0 0 0 4Zm8 0a2 2 0 1 0 0-4 2 2 0 0 0 0 4Zm8 0a2 2 0 1 0 0-4 2 2 0 0 0 0 4Zm7 0a2 2 0 1 0 0-4 2 2 0 0 0 0 4Zm8 0a2 2 0 1 0 0-4 2 2 0 0 0 0 4Zm16 0a2 2 0 1 0 0-4 2 2 0 0 0 0 4Zm7 0a2 2 0 1 0 0-4 2 2 0 0 0 0 4Zm-659 8a2 2 0 1 0 0-4 2 2 0 0 0 0 4Zm7 0a2 2 0 1 0 0-4 2 2 0 0 0 0 4Zm8 0a2 2 0 1 0 0-4 2 2 0 0 0 0 4Zm8 0a2 2 0 1 0 0-4 2 2 0 0 0 0 4Zm8 0a2 2 0 1 0 0-4 2 2 0 0 0 0 4Zm46 0a2 2 0 1 0 0-4 2 2 0 0 0 0 4Zm8 0a2 2 0 1 0 0-4 2 2 0 0 0 0 4Zm194 0a2 2 0 1 0 0-4 2 2 0 0 0 0 4Zm8 0a2 2 0 1 0 0-4 2 2 0 0 0 0 4Zm8 0a2 2 0 1 0 0-4 2 2 0 0 0 0 4Zm7 0a2 2 0 1 0 0-4 2 2 0 0 0 0 4Zm8 0a2 2 0 1 0 0-4 2 2 0 0 0 0 4Zm8 0a2 2 0 1 0 0-4 2 2 0 0 0 0 4Zm8 0a2 2 0 1 0 0-4 2 2 0 0 0 0 4Zm7 0a2 2 0 1 0 0-4 2 2 0 0 0 0 4Zm8 0a2 2 0 1 0 0-4 2 2 0 0 0 0 4Zm8 0a2 2 0 1 0 0-4 2 2 0 0 0 0 4Zm8 0a2 2 0 1 0 0-4 2 2 0 0 0 0 4Zm7 0a2 2 0 1 0 0-4 2 2 0 0 0 0 4Zm8 0a2 2 0 1 0 0-4 2 2 0 0 0 0 4Zm8 0a2 2 0 1 0 0-4 2 2 0 0 0 0 4Zm8 0a2 2 0 1 0 0-4 2 2 0 0 0 0 4Zm7 0a2 2 0 1 0 0-4 2 2 0 0 0 0 4Zm8 0a2 2 0 1 0 0-4 2 2 0 0 0 0 4Zm16 0a2 2 0 1 0 0-4 2 2 0 0 0 0 4Zm7 0a2 2 0 1 0 0-4 2 2 0 0 0 0 4Zm8 0a2 2 0 1 0 0-4 2 2 0 0 0 0 4Zm8 0a2 2 0 1 0 0-4 2 2 0 0 0 0 4Zm8 0a2 2 0 1 0 0-4 2 2 0 0 0 0 4Zm31 0a2 2 0 1 0 0-4 2 2 0 0 0 0 4Zm8 0a2 2 0 1 0 0-4 2 2 0 0 0 0 4Zm7 0a2 2 0 1 0 0-4 2 2 0 0 0 0 4Zm8 0a2 2 0 1 0 0-4 2 2 0 0 0 0 4Zm8 0a2 2 0 1 0 0-4 2 2 0 0 0 0 4Zm8 0a2 2 0 1 0 0-4 2 2 0 0 0 0 4Zm7 0a2 2 0 1 0 0-4 2 2 0 0 0 0 4Zm8 0a2 2 0 1 0 0-4 2 2 0 0 0 0 4Zm8 0a2 2 0 1 0 0-4 2 2 0 0 0 0 4Zm8 0a2 2 0 1 0 0-4 2 2 0 0 0 0 4Zm7 0a2 2 0 1 0 0-4 2 2 0 0 0 0 4Zm8 0a2 2 0 1 0 0-4 2 2 0 0 0 0 4Zm8 0a2 2 0 1 0 0-4 2 2 0 0 0 0 4Zm8 0a2 2 0 1 0 0-4 2 2 0 0 0 0 4Zm7 0a2 2 0 1 0 0-4 2 2 0 0 0 0 4Zm8 0a2 2 0 1 0 0-4 2 2 0 0 0 0 4Zm8 0a2 2 0 1 0 0-4 2 2 0 0 0 0 4Zm8 0a2 2 0 1 0 0-4 2 2 0 0 0 0 4Zm8 0a2 2 0 1 0 0-4 2 2 0 0 0 0 4Zm7 0a2 2 0 1 0 0-4 2 2 0 0 0 0 4Zm8 0a2 2 0 1 0 0-4 2 2 0 0 0 0 4Zm8 0a2 2 0 1 0 0-4 2 2 0 0 0 0 4Zm8 0a2 2 0 1 0 0-4 2 2 0 0 0 0 4Zm-660 7a2 2 0 1 0 0-4 2 2 0 0 0 0 4Zm15 0a2 2 0 1 0 0-4 2 2 0 0 0 0 4Zm8 0a2 2 0 1 0 0-4 2 2 0 0 0 0 4Zm8 0a2 2 0 1 0 0-4 2 2 0 0 0 0 4Zm248 0a2 2 0 1 0 0-4 2 2 0 0 0 0 4Zm8 0a2 2 0 1 0 0-4 2 2 0 0 0 0 4Zm8 0a2 2 0 1 0 0-4 2 2 0 0 0 0 4Zm8 0a2 2 0 1 0 0-4 2 2 0 0 0 0 4Zm7 0a2 2 0 1 0 0-4 2 2 0 0 0 0 4Zm8 0a2 2 0 1 0 0-4 2 2 0 0 0 0 4Zm8 0a2 2 0 1 0 0-4 2 2 0 0 0 0 4Zm8 0a2 2 0 1 0 0-4 2 2 0 0 0 0 4Zm7 0a2 2 0 1 0 0-4 2 2 0 0 0 0 4Zm8 0a2 2 0 1 0 0-4 2 2 0 0 0 0 4Zm8 0a2 2 0 1 0 0-4 2 2 0 0 0 0 4Zm8 0a2 2 0 1 0 0-4 2 2 0 0 0 0 4Zm7 0a2 2 0 1 0 0-4 2 2 0 0 0 0 4Zm8 0a2 2 0 1 0 0-4 2 2 0 0 0 0 4Zm8 0a2 2 0 1 0 0-4 2 2 0 0 0 0 4Zm8 0a2 2 0 1 0 0-4 2 2 0 0 0 0 4Zm15 0a2 2 0 1 0 0-4 2 2 0 0 0 0 4Zm8 0a2 2 0 1 0 0-4 2 2 0 0 0 0 4Zm15 0a2 2 0 1 0 0-4 2 2 0 0 0 0 4Zm8 0a2 2 0 1 0 0-4 2 2 0 0 0 0 4Zm8 0a2 2 0 1 0 0-4 2 2 0 0 0 0 4Zm8 0a2 2 0 1 0 0-4 2 2 0 0 0 0 4Zm8 0a2 2 0 1 0 0-4 2 2 0 0 0 0 4Zm7 0a2 2 0 1 0 0-4 2 2 0 0 0 0 4Zm8 0a2 2 0 1 0 0-4 2 2 0 0 0 0 4Zm39 0a2 2 0 1 0 0-4 2 2 0 0 0 0 4Zm8 0a2 2 0 1 0 0-4 2 2 0 0 0 0 4Zm7 0a2 2 0 1 0 0-4 2 2 0 0 0 0 4Zm8 0a2 2 0 1 0 0-4 2 2 0 0 0 0 4Zm8 0a2 2 0 1 0 0-4 2 2 0 0 0 0 4Zm8 0a2 2 0 1 0 0-4 2 2 0 0 0 0 4Zm7 0a2 2 0 1 0 0-4 2 2 0 0 0 0 4Zm8 0a2 2 0 1 0 0-4 2 2 0 0 0 0 4Zm8 0a2 2 0 1 0 0-4 2 2 0 0 0 0 4Zm8 0a2 2 0 1 0 0-4 2 2 0 0 0 0 4Zm7 0a2 2 0 1 0 0-4 2 2 0 0 0 0 4Zm8 0a2 2 0 1 0 0-4 2 2 0 0 0 0 4Zm8 0a2 2 0 1 0 0-4 2 2 0 0 0 0 4Zm8 0a2 2 0 1 0 0-4 2 2 0 0 0 0 4Zm8 0a2 2 0 1 0 0-4 2 2 0 0 0 0 4Zm7 0a2 2 0 1 0 0-4 2 2 0 0 0 0 4Zm8 0a2 2 0 1 0 0-4 2 2 0 0 0 0 4Zm8 0a2 2 0 1 0 0-4 2 2 0 0 0 0 4Zm8 0a2 2 0 1 0 0-4 2 2 0 0 0 0 4Zm-645 8a2 2 0 1 0 0-4 2 2 0 0 0 0 4Zm8 0a2 2 0 1 0 0-4 2 2 0 0 0 0 4Zm8 0a2 2 0 1 0 0-4 2 2 0 0 0 0 4Zm31 0a2 2 0 1 0 0-4 2 2 0 0 0 0 4Zm31 0a2 2 0 1 0 0-4 2 2 0 0 0 0 4Zm178 0a2 2 0 1 0 0-4 2 2 0 0 0 0 4Zm8 0a2 2 0 1 0 0-4 2 2 0 0 0 0 4Zm8 0a2 2 0 1 0 0-4 2 2 0 0 0 0 4Zm8 0a2 2 0 1 0 0-4 2 2 0 0 0 0 4Zm8 0a2 2 0 1 0 0-4 2 2 0 0 0 0 4Zm7 0a2 2 0 1 0 0-4 2 2 0 0 0 0 4Zm8 0a2 2 0 1 0 0-4 2 2 0 0 0 0 4Zm8 0a2 2 0 1 0 0-4 2 2 0 0 0 0 4Zm8 0a2 2 0 1 0 0-4 2 2 0 0 0 0 4Zm7 0a2 2 0 1 0 0-4 2 2 0 0 0 0 4Zm8 0a2 2 0 1 0 0-4 2 2 0 0 0 0 4Zm8 0a2 2 0 1 0 0-4 2 2 0 0 0 0 4Zm8 0a2 2 0 1 0 0-4 2 2 0 0 0 0 4Zm7 0a2 2 0 1 0 0-4 2 2 0 0 0 0 4Zm8 0a2 2 0 1 0 0-4 2 2 0 0 0 0 4Zm8 0a2 2 0 1 0 0-4 2 2 0 0 0 0 4Zm8 0a2 2 0 1 0 0-4 2 2 0 0 0 0 4Zm7 0a2 2 0 1 0 0-4 2 2 0 0 0 0 4Zm8 0a2 2 0 1 0 0-4 2 2 0 0 0 0 4Zm8 0a2 2 0 1 0 0-4 2 2 0 0 0 0 4Zm8 0a2 2 0 1 0 0-4 2 2 0 0 0 0 4Zm15 0a2 2 0 1 0 0-4 2 2 0 0 0 0 4Zm8 0a2 2 0 1 0 0-4 2 2 0 0 0 0 4Zm8 0a2 2 0 1 0 0-4 2 2 0 0 0 0 4Zm8 0a2 2 0 1 0 0-4 2 2 0 0 0 0 4Zm7 0a2 2 0 1 0 0-4 2 2 0 0 0 0 4Zm8 0a2 2 0 1 0 0-4 2 2 0 0 0 0 4Zm8 0a2 2 0 1 0 0-4 2 2 0 0 0 0 4Zm39 0a2 2 0 1 0 0-4 2 2 0 0 0 0 4Zm7 0a2 2 0 1 0 0-4 2 2 0 0 0 0 4Zm8 0a2 2 0 1 0 0-4 2 2 0 0 0 0 4Zm8 0a2 2 0 1 0 0-4 2 2 0 0 0 0 4Zm8 0a2 2 0 1 0 0-4 2 2 0 0 0 0 4Zm7 0a2 2 0 1 0 0-4 2 2 0 0 0 0 4Zm8 0a2 2 0 1 0 0-4 2 2 0 0 0 0 4Zm23 0a2 2 0 1 0 0-4 2 2 0 0 0 0 4Zm8 0a2 2 0 1 0 0-4 2 2 0 0 0 0 4Zm8 0a2 2 0 1 0 0-4 2 2 0 0 0 0 4Zm8 0a2 2 0 1 0 0-4 2 2 0 0 0 0 4Zm8 0a2 2 0 1 0 0-4 2 2 0 0 0 0 4Zm7 0a2 2 0 1 0 0-4 2 2 0 0 0 0 4Zm8 0a2 2 0 1 0 0-4 2 2 0 0 0 0 4Zm-629 8a2 2 0 1 0 0-4 2 2 0 0 0 0 4Zm8 0a2 2 0 1 0 0-4 2 2 0 0 0 0 4Zm8 0a2 2 0 1 0 0-4 2 2 0 0 0 0 4Zm23 0a2 2 0 1 0 0-4 2 2 0 0 0 0 4Zm54 0a2 2 0 1 0 0-4 2 2 0 0 0 0 4Zm8 0a2 2 0 1 0 0-4 2 2 0 0 0 0 4Zm163 0a2 2 0 1 0 0-4 2 2 0 0 0 0 4Zm8 0a2 2 0 1 0 0-4 2 2 0 0 0 0 4Zm8 0a2 2 0 1 0 0-4 2 2 0 0 0 0 4Zm8 0a2 2 0 1 0 0-4 2 2 0 0 0 0 4Zm7 0a2 2 0 1 0 0-4 2 2 0 0 0 0 4Zm8 0a2 2 0 1 0 0-4 2 2 0 0 0 0 4Zm8 0a2 2 0 1 0 0-4 2 2 0 0 0 0 4Zm8 0a2 2 0 1 0 0-4 2 2 0 0 0 0 4Zm7 0a2 2 0 1 0 0-4 2 2 0 0 0 0 4Zm8 0a2 2 0 1 0 0-4 2 2 0 0 0 0 4Zm8 0a2 2 0 1 0 0-4 2 2 0 0 0 0 4Zm8 0a2 2 0 1 0 0-4 2 2 0 0 0 0 4Zm7 0a2 2 0 1 0 0-4 2 2 0 0 0 0 4Zm8 0a2 2 0 1 0 0-4 2 2 0 0 0 0 4Zm8 0a2 2 0 1 0 0-4 2 2 0 0 0 0 4Zm8 0a2 2 0 1 0 0-4 2 2 0 0 0 0 4Zm7 0a2 2 0 1 0 0-4 2 2 0 0 0 0 4Zm8 0a2 2 0 1 0 0-4 2 2 0 0 0 0 4Zm8 0a2 2 0 1 0 0-4 2 2 0 0 0 0 4Zm8 0a2 2 0 1 0 0-4 2 2 0 0 0 0 4Zm15 0a2 2 0 1 0 0-4 2 2 0 0 0 0 4Zm8 0a2 2 0 1 0 0-4 2 2 0 0 0 0 4Zm8 0a2 2 0 1 0 0-4 2 2 0 0 0 0 4Zm8 0a2 2 0 1 0 0-4 2 2 0 0 0 0 4Zm7 0a2 2 0 1 0 0-4 2 2 0 0 0 0 4Zm8 0a2 2 0 1 0 0-4 2 2 0 0 0 0 4Zm8 0a2 2 0 1 0 0-4 2 2 0 0 0 0 4Zm46 0a2 2 0 1 0 0-4 2 2 0 0 0 0 4Zm8 0a2 2 0 1 0 0-4 2 2 0 0 0 0 4Zm8 0a2 2 0 1 0 0-4 2 2 0 0 0 0 4Zm8 0a2 2 0 1 0 0-4 2 2 0 0 0 0 4Zm7 0a2 2 0 1 0 0-4 2 2 0 0 0 0 4Zm31 0a2 2 0 1 0 0-4 2 2 0 0 0 0 4Zm8 0a2 2 0 1 0 0-4 2 2 0 0 0 0 4Zm8 0a2 2 0 1 0 0-4 2 2 0 0 0 0 4Zm8 0a2 2 0 1 0 0-4 2 2 0 0 0 0 4Zm8 0a2 2 0 1 0 0-4 2 2 0 0 0 0 4Zm15 0a2 2 0 1 0 0-4 2 2 0 0 0 0 4Zm-613 8a2 2 0 1 0 0-4 2 2 0 0 0 0 4Zm8 0a2 2 0 1 0 0-4 2 2 0 0 0 0 4Zm7 0a2 2 0 1 0 0-4 2 2 0 0 0 0 4Zm8 0a2 2 0 1 0 0-4 2 2 0 0 0 0 4Zm217 0a2 2 0 1 0 0-4 2 2 0 0 0 0 4Zm8 0a2 2 0 1 0 0-4 2 2 0 0 0 0 4Zm8 0a2 2 0 1 0 0-4 2 2 0 0 0 0 4Zm8 0a2 2 0 1 0 0-4 2 2 0 0 0 0 4Zm8 0a2 2 0 1 0 0-4 2 2 0 0 0 0 4Zm7 0a2 2 0 1 0 0-4 2 2 0 0 0 0 4Zm8 0a2 2 0 1 0 0-4 2 2 0 0 0 0 4Zm8 0a2 2 0 1 0 0-4 2 2 0 0 0 0 4Zm8 0a2 2 0 1 0 0-4 2 2 0 0 0 0 4Zm7 0a2 2 0 1 0 0-4 2 2 0 0 0 0 4Zm8 0a2 2 0 1 0 0-4 2 2 0 0 0 0 4Zm8 0a2 2 0 1 0 0-4 2 2 0 0 0 0 4Zm8 0a2 2 0 1 0 0-4 2 2 0 0 0 0 4Zm7 0a2 2 0 1 0 0-4 2 2 0 0 0 0 4Zm8 0a2 2 0 1 0 0-4 2 2 0 0 0 0 4Zm8 0a2 2 0 1 0 0-4 2 2 0 0 0 0 4Zm8 0a2 2 0 1 0 0-4 2 2 0 0 0 0 4Zm7 0a2 2 0 1 0 0-4 2 2 0 0 0 0 4Zm8 0a2 2 0 1 0 0-4 2 2 0 0 0 0 4Zm8 0a2 2 0 1 0 0-4 2 2 0 0 0 0 4Zm8 0a2 2 0 1 0 0-4 2 2 0 0 0 0 4Zm7 0a2 2 0 1 0 0-4 2 2 0 0 0 0 4Zm16 0a2 2 0 1 0 0-4 2 2 0 0 0 0 4Zm8 0a2 2 0 1 0 0-4 2 2 0 0 0 0 4Zm8 0a2 2 0 1 0 0-4 2 2 0 0 0 0 4Zm7 0a2 2 0 1 0 0-4 2 2 0 0 0 0 4Zm70 0a2 2 0 1 0 0-4 2 2 0 0 0 0 4Zm8 0a2 2 0 1 0 0-4 2 2 0 0 0 0 4Zm8 0a2 2 0 1 0 0-4 2 2 0 0 0 0 4Zm46 0a2 2 0 1 0 0-4 2 2 0 0 0 0 4Zm8 0a2 2 0 1 0 0-4 2 2 0 0 0 0 4Zm8 0a2 2 0 1 0 0-4 2 2 0 0 0 0 4Zm8 0a2 2 0 1 0 0-4 2 2 0 0 0 0 4Zm7 0a2 2 0 1 0 0-4 2 2 0 0 0 0 4Zm47 0a2 2 0 1 0 0-4 2 2 0 0 0 0 4Zm-629 7a2 2 0 1 0 0-3 2 2 0 0 0 0 3Zm8 0a2 2 0 1 0 0-3 2 2 0 0 0 0 3Zm8 0a2 2 0 1 0 0-4 2 2 0 0 0 0 4Zm201 0a2 2 0 1 0 0-4 2 2 0 0 0 0 4Zm8 0a2 2 0 1 0 0-3 2 2 0 0 0 0 3Zm8 0a2 2 0 1 0 0-3 2 2 0 0 0 0 3Zm8 0a2 2 0 1 0 0-4 2 2 0 0 0 0 4Zm8 0a2 2 0 1 0 0-4 2 2 0 0 0 0 4Zm7 0a2 2 0 1 0 0-4 2 2 0 0 0 0 4Zm8 0a2 2 0 1 0 0-3 2 2 0 0 0 0 3Zm8 0a2 2 0 1 0 0-4 2 2 0 0 0 0 4Zm8 0a2 2 0 1 0 0-4 2 2 0 0 0 0 4Zm7 0a2 2 0 1 0 0-4 2 2 0 0 0 0 4Zm8 0a2 2 0 1 0 0-4 2 2 0 0 0 0 4Zm8 0a2 2 0 1 0 0-3 2 2 0 0 0 0 3Zm8 0a2 2 0 1 0 0-3 2 2 0 0 0 0 3Zm7 0a2 2 0 1 0 0-4 2 2 0 0 0 0 4Zm8 0a2 2 0 1 0 0-4 2 2 0 0 0 0 4Zm8 0a2 2 0 1 0 0-3 2 2 0 0 0 0 3Zm8 0a2 2 0 1 0 0-3 2 2 0 0 0 0 3Zm7 0a2 2 0 1 0 0-3 2 2 0 0 0 0 3Zm8 0a2 2 0 1 0 0-4 2 2 0 0 0 0 4Zm8 0a2 2 0 1 0 0-3 2 2 0 0 0 0 3Zm8 0a2 2 0 1 0 0-3 2 2 0 0 0 0 3Zm7 0a2 2 0 1 0 0-3 2 2 0 0 0 0 3Zm8 0a2 2 0 1 0 0-4 2 2 0 0 0 0 4Zm8 0a2 2 0 1 0 0-4 2 2 0 0 0 0 4Zm8 0a2 2 0 1 0 0-4 2 2 0 0 0 0 4Zm93 0a2 2 0 1 0 0-3 2 2 0 0 0 0 3Zm8 0a2 2 0 1 0 0-4 2 2 0 0 0 0 4Zm62 0a2 2 0 1 0 0-3 2 2 0 0 0 0 3Zm8 0a2 2 0 1 0 0-4 2 2 0 0 0 0 4Zm7 0a2 2 0 1 0 0-4 2 2 0 0 0 0 4Zm8 0a2 2 0 1 0 0-4 2 2 0 0 0 0 4Zm39 0a2 2 0 1 0 0-4 2 2 0 0 0 0 4Zm8 0a2 2 0 1 0 0-3 2 2 0 0 0 0 3Zm-629 8a2 2 0 1 0 0-4 2 2 0 0 0 0 4Zm39 0a2 2 0 1 0 0-4 2 2 0 0 0 0 4Zm7 0a2 2 0 1 0 0-4 2 2 0 0 0 0 4Zm171 0a2 2 0 1 0 0-4 2 2 0 0 0 0 4Zm8 0a2 2 0 1 0 0-4 2 2 0 0 0 0 4Zm8 0a2 2 0 1 0 0-4 2 2 0 0 0 0 4Zm8 0a2 2 0 1 0 0-4 2 2 0 0 0 0 4Zm7 0a2 2 0 1 0 0-4 2 2 0 0 0 0 4Zm8 0a2 2 0 1 0 0-4 2 2 0 0 0 0 4Zm8 0a2 2 0 1 0 0-4 2 2 0 0 0 0 4Zm8 0a2 2 0 1 0 0-4 2 2 0 0 0 0 4Zm7 0a2 2 0 1 0 0-4 2 2 0 0 0 0 4Zm8 0a2 2 0 1 0 0-4 2 2 0 0 0 0 4Zm8 0a2 2 0 1 0 0-4 2 2 0 0 0 0 4Zm8 0a2 2 0 1 0 0-4 2 2 0 0 0 0 4Zm7 0a2 2 0 1 0 0-4 2 2 0 0 0 0 4Zm8 0a2 2 0 1 0 0-4 2 2 0 0 0 0 4Zm8 0a2 2 0 1 0 0-4 2 2 0 0 0 0 4Zm8 0a2 2 0 1 0 0-4 2 2 0 0 0 0 4Zm7 0a2 2 0 1 0 0-4 2 2 0 0 0 0 4Zm8 0a2 2 0 1 0 0-4 2 2 0 0 0 0 4Zm8 0a2 2 0 1 0 0-4 2 2 0 0 0 0 4Zm8 0a2 2 0 1 0 0-4 2 2 0 0 0 0 4Zm7 0a2 2 0 1 0 0-4 2 2 0 0 0 0 4Zm8 0a2 2 0 1 0 0-4 2 2 0 0 0 0 4Zm8 0a2 2 0 1 0 0-4 2 2 0 0 0 0 4Zm16 0a2 2 0 1 0 0-4 2 2 0 0 0 0 4Zm7 0a2 2 0 1 0 0-4 2 2 0 0 0 0 4Zm78 0a2 2 0 1 0 0-4 2 2 0 0 0 0 4Zm8 0a2 2 0 1 0 0-4 2 2 0 0 0 0 4Zm77 0a2 2 0 1 0 0-4 2 2 0 0 0 0 4Zm8 0a2 2 0 1 0 0-4 2 2 0 0 0 0 4Zm47 0a2 2 0 1 0 0-4 2 2 0 0 0 0 4Zm7 0a2 2 0 1 0 0-4 2 2 0 0 0 0 4Zm-628 8a2 2 0 1 0 0-4 2 2 0 0 0 0 4Zm7 0a2 2 0 1 0 0-4 2 2 0 0 0 0 4Zm8 0a2 2 0 1 0 0-4 2 2 0 0 0 0 4Zm8 0a2 2 0 1 0 0-4 2 2 0 0 0 0 4Zm8 0a2 2 0 1 0 0-4 2 2 0 0 0 0 4Zm7 0a2 2 0 1 0 0-4 2 2 0 0 0 0 4Zm8 0a2 2 0 1 0 0-4 2 2 0 0 0 0 4Zm8 0a2 2 0 1 0 0-4 2 2 0 0 0 0 4Zm8 0a2 2 0 1 0 0-4 2 2 0 0 0 0 4Zm155 0a2 2 0 1 0 0-4 2 2 0 0 0 0 4Zm8 0a2 2 0 1 0 0-4 2 2 0 0 0 0 4Zm8 0a2 2 0 1 0 0-4 2 2 0 0 0 0 4Zm7 0a2 2 0 1 0 0-4 2 2 0 0 0 0 4Zm8 0a2 2 0 1 0 0-4 2 2 0 0 0 0 4Zm8 0a2 2 0 1 0 0-4 2 2 0 0 0 0 4Zm8 0a2 2 0 1 0 0-4 2 2 0 0 0 0 4Zm7 0a2 2 0 1 0 0-4 2 2 0 0 0 0 4Zm8 0a2 2 0 1 0 0-4 2 2 0 0 0 0 4Zm8 0a2 2 0 1 0 0-4 2 2 0 0 0 0 4Zm8 0a2 2 0 1 0 0-4 2 2 0 0 0 0 4Zm7 0a2 2 0 1 0 0-4 2 2 0 0 0 0 4Zm8 0a2 2 0 1 0 0-4 2 2 0 0 0 0 4Zm8 0a2 2 0 1 0 0-4 2 2 0 0 0 0 4Zm8 0a2 2 0 1 0 0-4 2 2 0 0 0 0 4Zm7 0a2 2 0 1 0 0-4 2 2 0 0 0 0 4Zm8 0a2 2 0 1 0 0-4 2 2 0 0 0 0 4Zm8 0a2 2 0 1 0 0-4 2 2 0 0 0 0 4Zm8 0a2 2 0 1 0 0-4 2 2 0 0 0 0 4Zm7 0a2 2 0 1 0 0-4 2 2 0 0 0 0 4Zm8 0a2 2 0 1 0 0-4 2 2 0 0 0 0 4Zm8 0a2 2 0 1 0 0-4 2 2 0 0 0 0 4Zm8 0a2 2 0 1 0 0-4 2 2 0 0 0 0 4Zm8 0a2 2 0 1 0 0-4 2 2 0 0 0 0 4Zm155 0a2 2 0 1 0 0-4 2 2 0 0 0 0 4Zm77 0a2 2 0 1 0 0-4 2 2 0 0 0 0 4Zm-605 8a2 2 0 1 0 0-4 2 2 0 0 0 0 4Zm8 0a2 2 0 1 0 0-4 2 2 0 0 0 0 4Zm7 0a2 2 0 1 0 0-4 2 2 0 0 0 0 4Zm8 0a2 2 0 1 0 0-4 2 2 0 0 0 0 4Zm8 0a2 2 0 1 0 0-4 2 2 0 0 0 0 4Zm8 0a2 2 0 1 0 0-4 2 2 0 0 0 0 4Zm8 0a2 2 0 1 0 0-4 2 2 0 0 0 0 4Zm7 0a2 2 0 1 0 0-4 2 2 0 0 0 0 4Zm148 0a2 2 0 1 0 0-4 2 2 0 0 0 0 4Zm8 0a2 2 0 1 0 0-4 2 2 0 0 0 0 4Zm7 0a2 2 0 1 0 0-4 2 2 0 0 0 0 4Zm8 0a2 2 0 1 0 0-4 2 2 0 0 0 0 4Zm23 0a2 2 0 1 0 0-4 2 2 0 0 0 0 4Zm8 0a2 2 0 1 0 0-4 2 2 0 0 0 0 4Zm8 0a2 2 0 1 0 0-4 2 2 0 0 0 0 4Zm8 0a2 2 0 1 0 0-4 2 2 0 0 0 0 4Zm7 0a2 2 0 1 0 0-4 2 2 0 0 0 0 4Zm8 0a2 2 0 1 0 0-4 2 2 0 0 0 0 4Zm8 0a2 2 0 1 0 0-4 2 2 0 0 0 0 4Zm8 0a2 2 0 1 0 0-4 2 2 0 0 0 0 4Zm7 0a2 2 0 1 0 0-4 2 2 0 0 0 0 4Zm8 0a2 2 0 1 0 0-4 2 2 0 0 0 0 4Zm8 0a2 2 0 1 0 0-4 2 2 0 0 0 0 4Zm8 0a2 2 0 1 0 0-4 2 2 0 0 0 0 4Zm7 0a2 2 0 1 0 0-4 2 2 0 0 0 0 4Zm8 0a2 2 0 1 0 0-4 2 2 0 0 0 0 4Zm8 0a2 2 0 1 0 0-4 2 2 0 0 0 0 4Zm8 0a2 2 0 1 0 0-4 2 2 0 0 0 0 4Zm8 0a2 2 0 1 0 0-4 2 2 0 0 0 0 4Zm163 0a2 2 0 1 0 0-4 2 2 0 0 0 0 4Zm46 0a2 2 0 1 0 0-4 2 2 0 0 0 0 4Zm23 0a2 2 0 1 0 0-4 2 2 0 0 0 0 4Zm-613 7a2 2 0 1 0 0-3 2 2 0 0 0 0 3Zm8 0a2 2 0 1 0 0-3 2 2 0 0 0 0 3Zm8 0a2 2 0 1 0 0-3 2 2 0 0 0 0 3Zm7 0a2 2 0 1 0 0-3 2 2 0 0 0 0 3Zm8 0a2 2 0 1 0 0-3 2 2 0 0 0 0 3Zm8 0a2 2 0 1 0 0-3 2 2 0 0 0 0 3Zm8 0a2 2 0 1 0 0-3 2 2 0 0 0 0 3Zm8 0a2 2 0 1 0 0-3 2 2 0 0 0 0 3Zm7 0a2 2 0 1 0 0-3 2 2 0 0 0 0 3Zm8 0a2 2 0 1 0 0-3 2 2 0 0 0 0 3Zm8 0a2 2 0 1 0 0-3 2 2 0 0 0 0 3Zm186 0a2 2 0 1 0 0-3 2 2 0 0 0 0 3Zm8 0a2 2 0 1 0 0-3 2 2 0 0 0 0 3Zm8 0a2 2 0 1 0 0-3 2 2 0 0 0 0 3Zm7 0a2 2 0 1 0 0-3 2 2 0 0 0 0 3Zm8 0a2 2 0 1 0 0-3 2 2 0 0 0 0 3Zm8 0a2 2 0 1 0 0-3 2 2 0 0 0 0 3Zm8 0a2 2 0 1 0 0-3 2 2 0 0 0 0 3Zm7 0a2 2 0 1 0 0-3 2 2 0 0 0 0 3Zm8 0a2 2 0 1 0 0-3 2 2 0 0 0 0 3Zm8 0a2 2 0 1 0 0-3 2 2 0 0 0 0 3Zm8 0a2 2 0 1 0 0-3 2 2 0 0 0 0 3Zm7 0a2 2 0 1 0 0-3 2 2 0 0 0 0 3Zm8 0a2 2 0 1 0 0-3 2 2 0 0 0 0 3Zm8 0a2 2 0 1 0 0-3 2 2 0 0 0 0 3Zm8 0a2 2 0 1 0 0-3 2 2 0 0 0 0 3Zm163 0a2 2 0 1 0 0-3 2 2 0 0 0 0 3Zm8 0a2 2 0 1 0 0-3 2 2 0 0 0 0 3Zm38 0a2 2 0 1 0 0-3 2 2 0 0 0 0 3Zm8 0a2 2 0 1 0 0-3 2 2 0 0 0 0 3Zm-598 8a2 2 0 1 0 0-4 2 2 0 0 0 0 4Zm8 0a2 2 0 1 0 0-4 2 2 0 0 0 0 4Zm8 0a2 2 0 1 0 0-4 2 2 0 0 0 0 4Zm8 0a2 2 0 1 0 0-4 2 2 0 0 0 0 4Zm7 0a2 2 0 1 0 0-4 2 2 0 0 0 0 4Zm8 0a2 2 0 1 0 0-4 2 2 0 0 0 0 4Zm8 0a2 2 0 1 0 0-4 2 2 0 0 0 0 4Zm8 0a2 2 0 1 0 0-4 2 2 0 0 0 0 4Zm8 0a2 2 0 1 0 0-4 2 2 0 0 0 0 4Zm7 0a2 2 0 1 0 0-4 2 2 0 0 0 0 4Zm8 0a2 2 0 1 0 0-4 2 2 0 0 0 0 4Zm8 0a2 2 0 1 0 0-4 2 2 0 0 0 0 4Zm186 0a2 2 0 1 0 0-4 2 2 0 0 0 0 4Zm8 0a2 2 0 1 0 0-4 2 2 0 0 0 0 4Zm8 0a2 2 0 1 0 0-4 2 2 0 0 0 0 4Zm7 0a2 2 0 1 0 0-4 2 2 0 0 0 0 4Zm8 0a2 2 0 1 0 0-4 2 2 0 0 0 0 4Zm8 0a2 2 0 1 0 0-4 2 2 0 0 0 0 4Zm8 0a2 2 0 1 0 0-4 2 2 0 0 0 0 4Zm7 0a2 2 0 1 0 0-4 2 2 0 0 0 0 4Zm8 0a2 2 0 1 0 0-4 2 2 0 0 0 0 4Zm8 0a2 2 0 1 0 0-4 2 2 0 0 0 0 4Zm8 0a2 2 0 1 0 0-4 2 2 0 0 0 0 4Zm7 0a2 2 0 1 0 0-4 2 2 0 0 0 0 4Zm8 0a2 2 0 1 0 0-4 2 2 0 0 0 0 4Zm8 0a2 2 0 1 0 0-4 2 2 0 0 0 0 4Zm171 0a2 2 0 1 0 0-4 2 2 0 0 0 0 4Zm8 0a2 2 0 1 0 0-4 2 2 0 0 0 0 4Zm23 0a2 2 0 1 0 0-4 2 2 0 0 0 0 4Zm8 0a2 2 0 1 0 0-4 2 2 0 0 0 0 4Zm7 0a2 2 0 1 0 0-4 2 2 0 0 0 0 4Zm8 0a2 2 0 1 0 0-4 2 2 0 0 0 0 4Zm16 0a2 2 0 1 0 0-4 2 2 0 0 0 0 4Zm7 0a2 2 0 1 0 0-4 2 2 0 0 0 0 4Zm-621 8a2 2 0 1 0 0-4 2 2 0 0 0 0 4Zm8 0a2 2 0 1 0 0-4 2 2 0 0 0 0 4Zm8 0a2 2 0 1 0 0-4 2 2 0 0 0 0 4Zm8 0a2 2 0 1 0 0-4 2 2 0 0 0 0 4Zm7 0a2 2 0 1 0 0-4 2 2 0 0 0 0 4Zm8 0a2 2 0 1 0 0-4 2 2 0 0 0 0 4Zm8 0a2 2 0 1 0 0-4 2 2 0 0 0 0 4Zm8 0a2 2 0 1 0 0-4 2 2 0 0 0 0 4Zm8 0a2 2 0 1 0 0-4 2 2 0 0 0 0 4Zm7 0a2 2 0 1 0 0-4 2 2 0 0 0 0 4Zm8 0a2 2 0 1 0 0-4 2 2 0 0 0 0 4Zm8 0a2 2 0 1 0 0-4 2 2 0 0 0 0 4Zm8 0a2 2 0 1 0 0-4 2 2 0 0 0 0 4Zm7 0a2 2 0 1 0 0-4 2 2 0 0 0 0 4Zm171 0a2 2 0 1 0 0-4 2 2 0 0 0 0 4Zm8 0a2 2 0 1 0 0-4 2 2 0 0 0 0 4Zm8 0a2 2 0 1 0 0-4 2 2 0 0 0 0 4Zm7 0a2 2 0 1 0 0-4 2 2 0 0 0 0 4Zm8 0a2 2 0 1 0 0-4 2 2 0 0 0 0 4Zm8 0a2 2 0 1 0 0-4 2 2 0 0 0 0 4Zm8 0a2 2 0 1 0 0-4 2 2 0 0 0 0 4Zm7 0a2 2 0 1 0 0-4 2 2 0 0 0 0 4Zm8 0a2 2 0 1 0 0-4 2 2 0 0 0 0 4Zm8 0a2 2 0 1 0 0-4 2 2 0 0 0 0 4Zm8 0a2 2 0 1 0 0-4 2 2 0 0 0 0 4Zm7 0a2 2 0 1 0 0-4 2 2 0 0 0 0 4Zm8 0a2 2 0 1 0 0-4 2 2 0 0 0 0 4Zm187 0a2 2 0 1 0 0-4 2 2 0 0 0 0 4Zm7 0a2 2 0 1 0 0-4 2 2 0 0 0 0 4Zm24 0a2 2 0 1 0 0-4 2 2 0 0 0 0 4Zm7 0a2 2 0 1 0 0-4 2 2 0 0 0 0 4Zm16 0a2 2 0 1 0 0-4 2 2 0 0 0 0 4Zm8 0a2 2 0 1 0 0-4 2 2 0 0 0 0 4Zm31 0a2 2 0 1 0 0-4 2 2 0 0 0 0 4Zm15 0a2 2 0 1 0 0-4 2 2 0 0 0 0 4Zm-660 8a2 2 0 1 0 0-4 2 2 0 0 0 0 4Zm8 0a2 2 0 1 0 0-4 2 2 0 0 0 0 4Zm8 0a2 2 0 1 0 0-4 2 2 0 0 0 0 4Zm8 0a2 2 0 1 0 0-4 2 2 0 0 0 0 4Zm7 0a2 2 0 1 0 0-4 2 2 0 0 0 0 4Zm8 0a2 2 0 1 0 0-4 2 2 0 0 0 0 4Zm8 0a2 2 0 1 0 0-4 2 2 0 0 0 0 4Zm8 0a2 2 0 1 0 0-4 2 2 0 0 0 0 4Zm8 0a2 2 0 1 0 0-4 2 2 0 0 0 0 4Zm7 0a2 2 0 1 0 0-4 2 2 0 0 0 0 4Zm8 0a2 2 0 1 0 0-4 2 2 0 0 0 0 4Zm8 0a2 2 0 1 0 0-4 2 2 0 0 0 0 4Zm8 0a2 2 0 1 0 0-4 2 2 0 0 0 0 4Zm7 0a2 2 0 1 0 0-4 2 2 0 0 0 0 4Zm8 0a2 2 0 1 0 0-4 2 2 0 0 0 0 4Zm8 0a2 2 0 1 0 0-4 2 2 0 0 0 0 4Zm8 0a2 2 0 1 0 0-4 2 2 0 0 0 0 4Zm155 0a2 2 0 1 0 0-4 2 2 0 0 0 0 4Zm8 0a2 2 0 1 0 0-4 2 2 0 0 0 0 4Zm7 0a2 2 0 1 0 0-4 2 2 0 0 0 0 4Zm8 0a2 2 0 1 0 0-4 2 2 0 0 0 0 4Zm8 0a2 2 0 1 0 0-4 2 2 0 0 0 0 4Zm8 0a2 2 0 1 0 0-4 2 2 0 0 0 0 4Zm7 0a2 2 0 1 0 0-4 2 2 0 0 0 0 4Zm8 0a2 2 0 1 0 0-4 2 2 0 0 0 0 4Zm8 0a2 2 0 1 0 0-4 2 2 0 0 0 0 4Zm8 0a2 2 0 1 0 0-4 2 2 0 0 0 0 4Zm7 0a2 2 0 1 0 0-4 2 2 0 0 0 0 4Zm202 0a2 2 0 1 0 0-4 2 2 0 0 0 0 4Zm47 0a2 2 0 1 0 0-4 2 2 0 0 0 0 4Zm8 0a2 2 0 1 0 0-4 2 2 0 0 0 0 4Zm38 0a2 2 0 1 0 0-4 2 2 0 0 0 0 4Zm8 0a2 2 0 1 0 0-4 2 2 0 0 0 0 4Zm8 0a2 2 0 1 0 0-4 2 2 0 0 0 0 4Zm8 0a2 2 0 1 0 0-4 2 2 0 0 0 0 4Zm7 0a2 2 0 1 0 0-4 2 2 0 0 0 0 4Zm24 0a2 2 0 1 0 0-4 2 2 0 0 0 0 4Zm-707 7a2 2 0 1 0 0-3 2 2 0 0 0 0 3Zm8 0a2 2 0 1 0 0-3 2 2 0 0 0 0 3Zm8 0a2 2 0 1 0 0-3 2 2 0 0 0 0 3Zm8 0a2 2 0 1 0 0-3 2 2 0 0 0 0 3Zm15 0a2 2 0 1 0 0-3 2 2 0 0 0 0 3Zm8 0a2 2 0 1 0 0-3 2 2 0 0 0 0 3Zm8 0a2 2 0 1 0 0-3 2 2 0 0 0 0 3Zm8 0a2 2 0 1 0 0-3 2 2 0 0 0 0 3Zm7 0a2 2 0 1 0 0-3 2 2 0 0 0 0 3Zm8 0a2 2 0 1 0 0-3 2 2 0 0 0 0 3Zm8 0a2 2 0 1 0 0-3 2 2 0 0 0 0 3Zm8 0a2 2 0 1 0 0-3 2 2 0 0 0 0 3Zm7 0a2 2 0 1 0 0-3 2 2 0 0 0 0 3Zm8 0a2 2 0 1 0 0-3 2 2 0 0 0 0 3Zm8 0a2 2 0 1 0 0-3 2 2 0 0 0 0 3Zm8 0a2 2 0 1 0 0-3 2 2 0 0 0 0 3Zm7 0a2 2 0 1 0 0-3 2 2 0 0 0 0 3Zm156 0a2 2 0 1 0 0-3 2 2 0 0 0 0 3Zm7 0a2 2 0 1 0 0-3 2 2 0 0 0 0 3Zm8 0a2 2 0 1 0 0-3 2 2 0 0 0 0 3Zm8 0a2 2 0 1 0 0-3 2 2 0 0 0 0 3Zm8 0a2 2 0 1 0 0-3 2 2 0 0 0 0 3Zm7 0a2 2 0 1 0 0-3 2 2 0 0 0 0 3Zm8 0a2 2 0 1 0 0-3 2 2 0 0 0 0 3Zm8 0a2 2 0 1 0 0-3 2 2 0 0 0 0 3Zm8 0a2 2 0 1 0 0-3 2 2 0 0 0 0 3Zm7 0a2 2 0 1 0 0-3 2 2 0 0 0 0 3Zm210 0a2 2 0 1 0 0-3 2 2 0 0 0 0 3Zm8 0a2 2 0 1 0 0-3 2 2 0 0 0 0 3Zm8 0a2 2 0 1 0 0-3 2 2 0 0 0 0 3Zm85 0a2 2 0 1 0 0-3 2 2 0 0 0 0 3Zm8 0a2 2 0 1 0 0-3 2 2 0 0 0 0 3Zm7 0a2 2 0 1 0 0-3 2 2 0 0 0 0 3Zm32 0a2 2 0 1 0 0-3 2 2 0 0 0 0 3Zm-707 8a2 2 0 1 0 0-4 2 2 0 0 0 0 4Zm8 0a2 2 0 1 0 0-4 2 2 0 0 0 0 4Zm8 0a2 2 0 1 0 0-4 2 2 0 0 0 0 4Zm7 0a2 2 0 1 0 0-4 2 2 0 0 0 0 4Zm8 0a2 2 0 1 0 0-4 2 2 0 0 0 0 4Zm8 0a2 2 0 1 0 0-4 2 2 0 0 0 0 4Zm8 0a2 2 0 1 0 0-4 2 2 0 0 0 0 4Zm8 0a2 2 0 1 0 0-4 2 2 0 0 0 0 4Zm7 0a2 2 0 1 0 0-4 2 2 0 0 0 0 4Zm8 0a2 2 0 1 0 0-4 2 2 0 0 0 0 4Zm8 0a2 2 0 1 0 0-4 2 2 0 0 0 0 4Zm8 0a2 2 0 1 0 0-4 2 2 0 0 0 0 4Zm7 0a2 2 0 1 0 0-4 2 2 0 0 0 0 4Zm16 0a2 2 0 1 0 0-4 2 2 0 0 0 0 4Zm8 0a2 2 0 1 0 0-4 2 2 0 0 0 0 4Zm7 0a2 2 0 1 0 0-4 2 2 0 0 0 0 4Zm156 0a2 2 0 1 0 0-4 2 2 0 0 0 0 4Zm7 0a2 2 0 1 0 0-4 2 2 0 0 0 0 4Zm8 0a2 2 0 1 0 0-4 2 2 0 0 0 0 4Zm8 0a2 2 0 1 0 0-4 2 2 0 0 0 0 4Zm8 0a2 2 0 1 0 0-4 2 2 0 0 0 0 4Zm7 0a2 2 0 1 0 0-4 2 2 0 0 0 0 4Zm8 0a2 2 0 1 0 0-4 2 2 0 0 0 0 4Zm8 0a2 2 0 1 0 0-4 2 2 0 0 0 0 4Zm8 0a2 2 0 1 0 0-4 2 2 0 0 0 0 4Zm7 0a2 2 0 1 0 0-4 2 2 0 0 0 0 4Zm334 0a2 2 0 1 0 0-4 2 2 0 0 0 0 4Zm39 0a2 2 0 1 0 0-4 2 2 0 0 0 0 4Zm-714 8a2 2 0 1 0 0-4 2 2 0 0 0 0 4Zm8 0a2 2 0 1 0 0-4 2 2 0 0 0 0 4Zm7 0a2 2 0 1 0 0-4 2 2 0 0 0 0 4Zm8 0a2 2 0 1 0 0-4 2 2 0 0 0 0 4Zm8 0a2 2 0 1 0 0-4 2 2 0 0 0 0 4Zm8 0a2 2 0 1 0 0-4 2 2 0 0 0 0 4Zm8 0a2 2 0 1 0 0-4 2 2 0 0 0 0 4Zm7 0a2 2 0 1 0 0-4 2 2 0 0 0 0 4Zm8 0a2 2 0 1 0 0-4 2 2 0 0 0 0 4Zm8 0a2 2 0 1 0 0-4 2 2 0 0 0 0 4Zm8 0a2 2 0 1 0 0-4 2 2 0 0 0 0 4Zm7 0a2 2 0 1 0 0-4 2 2 0 0 0 0 4Zm8 0a2 2 0 1 0 0-4 2 2 0 0 0 0 4Zm8 0a2 2 0 1 0 0-4 2 2 0 0 0 0 4Zm8 0a2 2 0 1 0 0-4 2 2 0 0 0 0 4Zm163 0a2 2 0 1 0 0-4 2 2 0 0 0 0 4Zm7 0a2 2 0 1 0 0-4 2 2 0 0 0 0 4Zm8 0a2 2 0 1 0 0-4 2 2 0 0 0 0 4Zm8 0a2 2 0 1 0 0-4 2 2 0 0 0 0 4Zm8 0a2 2 0 1 0 0-4 2 2 0 0 0 0 4Zm7 0a2 2 0 1 0 0-4 2 2 0 0 0 0 4Zm8 0a2 2 0 1 0 0-4 2 2 0 0 0 0 4Zm8 0a2 2 0 1 0 0-4 2 2 0 0 0 0 4Zm8 0a2 2 0 1 0 0-4 2 2 0 0 0 0 4Zm7 0a2 2 0 1 0 0-4 2 2 0 0 0 0 4Zm288 0a2 2 0 1 0 0-4 2 2 0 0 0 0 4Zm7 0a2 2 0 1 0 0-4 2 2 0 0 0 0 4Zm-636 8a2 2 0 1 0 0-4 2 2 0 0 0 0 4Zm8 0a2 2 0 1 0 0-4 2 2 0 0 0 0 4Zm7 0a2 2 0 1 0 0-4 2 2 0 0 0 0 4Zm8 0a2 2 0 1 0 0-4 2 2 0 0 0 0 4Zm8 0a2 2 0 1 0 0-4 2 2 0 0 0 0 4Zm8 0a2 2 0 1 0 0-4 2 2 0 0 0 0 4Zm8 0a2 2 0 1 0 0-4 2 2 0 0 0 0 4Zm7 0a2 2 0 1 0 0-4 2 2 0 0 0 0 4Zm8 0a2 2 0 1 0 0-4 2 2 0 0 0 0 4Zm8 0a2 2 0 1 0 0-4 2 2 0 0 0 0 4Zm8 0a2 2 0 1 0 0-4 2 2 0 0 0 0 4Zm7 0a2 2 0 1 0 0-4 2 2 0 0 0 0 4Zm8 0a2 2 0 1 0 0-4 2 2 0 0 0 0 4Zm8 0a2 2 0 1 0 0-4 2 2 0 0 0 0 4Zm8 0a2 2 0 1 0 0-4 2 2 0 0 0 0 4Zm155 0a2 2 0 1 0 0-4 2 2 0 0 0 0 4Zm8 0a2 2 0 1 0 0-4 2 2 0 0 0 0 4Zm7 0a2 2 0 1 0 0-4 2 2 0 0 0 0 4Zm8 0a2 2 0 1 0 0-4 2 2 0 0 0 0 4Zm8 0a2 2 0 1 0 0-4 2 2 0 0 0 0 4Zm8 0a2 2 0 1 0 0-4 2 2 0 0 0 0 4Zm7 0a2 2 0 1 0 0-4 2 2 0 0 0 0 4Zm8 0a2 2 0 1 0 0-4 2 2 0 0 0 0 4Zm8 0a2 2 0 1 0 0-4 2 2 0 0 0 0 4Zm8 0a2 2 0 1 0 0-4 2 2 0 0 0 0 4Zm7 0a2 2 0 1 0 0-4 2 2 0 0 0 0 4Zm32 0a2 2 0 1 0 0-4 2 2 0 0 0 0 4Zm232 0a2 2 0 1 0 0-4 2 2 0 0 0 0 4Zm16 0a2 2 0 1 0 0-4 2 2 0 0 0 0 4Zm8 0a2 2 0 1 0 0-4 2 2 0 0 0 0 4Zm23 0a2 2 0 1 0 0-4 2 2 0 0 0 0 4Zm8 0a2 2 0 1 0 0-4 2 2 0 0 0 0 4Zm-645 7a2 2 0 1 0 0-3 2 2 0 0 0 0 3Zm8 0a2 2 0 1 0 0-3 2 2 0 0 0 0 3Zm8 0a2 2 0 1 0 0-3 2 2 0 0 0 0 3Zm8 0a2 2 0 1 0 0-3 2 2 0 0 0 0 3Zm8 0a2 2 0 1 0 0-3 2 2 0 0 0 0 3Zm7 0a2 2 0 1 0 0-3 2 2 0 0 0 0 3Zm8 0a2 2 0 1 0 0-3 2 2 0 0 0 0 3Zm8 0a2 2 0 1 0 0-3 2 2 0 0 0 0 3Zm8 0a2 2 0 1 0 0-3 2 2 0 0 0 0 3Zm7 0a2 2 0 1 0 0-3 2 2 0 0 0 0 3Zm8 0a2 2 0 1 0 0-3 2 2 0 0 0 0 3Zm8 0a2 2 0 1 0 0-3 2 2 0 0 0 0 3Zm8 0a2 2 0 1 0 0-3 2 2 0 0 0 0 3Zm155 0a2 2 0 1 0 0-3 2 2 0 0 0 0 3Zm8 0a2 2 0 1 0 0-3 2 2 0 0 0 0 3Zm7 0a2 2 0 1 0 0-3 2 2 0 0 0 0 3Zm8 0a2 2 0 1 0 0-3 2 2 0 0 0 0 3Zm8 0a2 2 0 1 0 0-3 2 2 0 0 0 0 3Zm8 0a2 2 0 1 0 0-3 2 2 0 0 0 0 3Zm7 0a2 2 0 1 0 0-3 2 2 0 0 0 0 3Zm8 0a2 2 0 1 0 0-3 2 2 0 0 0 0 3Zm8 0a2 2 0 1 0 0-3 2 2 0 0 0 0 3Zm8 0a2 2 0 1 0 0-3 2 2 0 0 0 0 3Zm7 0a2 2 0 1 0 0-3 2 2 0 0 0 0 3Zm24 0a2 2 0 1 0 0-3 2 2 0 0 0 0 3Zm8 0a2 2 0 1 0 0-3 2 2 0 0 0 0 3Zm225 0a2 2 0 1 0 0-3 2 2 0 0 0 0 3Zm7 0a2 2 0 1 0 0-3 2 2 0 0 0 0 3Zm8 0a2 2 0 1 0 0-3 2 2 0 0 0 0 3Zm8 0a2 2 0 1 0 0-3 2 2 0 0 0 0 3Zm8 0a2 2 0 1 0 0-3 2 2 0 0 0 0 3Zm7 0a2 2 0 1 0 0-3 2 2 0 0 0 0 3Zm16 0a2 2 0 1 0 0-3 2 2 0 0 0 0 3Zm8 0a2 2 0 1 0 0-3 2 2 0 0 0 0 3Zm-637 8a2 2 0 1 0 0-4 2 2 0 0 0 0 4Zm8 0a2 2 0 1 0 0-4 2 2 0 0 0 0 4Zm8 0a2 2 0 1 0 0-4 2 2 0 0 0 0 4Zm8 0a2 2 0 1 0 0-4 2 2 0 0 0 0 4Zm7 0a2 2 0 1 0 0-4 2 2 0 0 0 0 4Zm8 0a2 2 0 1 0 0-4 2 2 0 0 0 0 4Zm8 0a2 2 0 1 0 0-4 2 2 0 0 0 0 4Zm8 0a2 2 0 1 0 0-4 2 2 0 0 0 0 4Zm7 0a2 2 0 1 0 0-4 2 2 0 0 0 0 4Zm8 0a2 2 0 1 0 0-4 2 2 0 0 0 0 4Zm8 0a2 2 0 1 0 0-4 2 2 0 0 0 0 4Zm8 0a2 2 0 1 0 0-4 2 2 0 0 0 0 4Zm163 0a2 2 0 1 0 0-4 2 2 0 0 0 0 4Zm7 0a2 2 0 1 0 0-4 2 2 0 0 0 0 4Zm8 0a2 2 0 1 0 0-4 2 2 0 0 0 0 4Zm8 0a2 2 0 1 0 0-4 2 2 0 0 0 0 4Zm8 0a2 2 0 1 0 0-4 2 2 0 0 0 0 4Zm7 0a2 2 0 1 0 0-4 2 2 0 0 0 0 4Zm8 0a2 2 0 1 0 0-4 2 2 0 0 0 0 4Zm8 0a2 2 0 1 0 0-4 2 2 0 0 0 0 4Zm39 0a2 2 0 1 0 0-4 2 2 0 0 0 0 4Zm225 0a2 2 0 1 0 0-4 2 2 0 0 0 0 4Zm8 0a2 2 0 1 0 0-4 2 2 0 0 0 0 4Zm7 0a2 2 0 1 0 0-4 2 2 0 0 0 0 4Zm8 0a2 2 0 1 0 0-4 2 2 0 0 0 0 4Zm8 0a2 2 0 1 0 0-4 2 2 0 0 0 0 4Zm8 0a2 2 0 1 0 0-4 2 2 0 0 0 0 4Zm7 0a2 2 0 1 0 0-4 2 2 0 0 0 0 4Zm8 0a2 2 0 1 0 0-4 2 2 0 0 0 0 4Zm8 0a2 2 0 1 0 0-4 2 2 0 0 0 0 4Zm8 0a2 2 0 1 0 0-4 2 2 0 0 0 0 4Zm-637 8a2 2 0 1 0 0-4 2 2 0 0 0 0 4Zm8 0a2 2 0 1 0 0-4 2 2 0 0 0 0 4Zm8 0a2 2 0 1 0 0-4 2 2 0 0 0 0 4Zm8 0a2 2 0 1 0 0-4 2 2 0 0 0 0 4Zm7 0a2 2 0 1 0 0-4 2 2 0 0 0 0 4Zm8 0a2 2 0 1 0 0-4 2 2 0 0 0 0 4Zm8 0a2 2 0 1 0 0-4 2 2 0 0 0 0 4Zm8 0a2 2 0 1 0 0-4 2 2 0 0 0 0 4Zm7 0a2 2 0 1 0 0-4 2 2 0 0 0 0 4Zm8 0a2 2 0 1 0 0-4 2 2 0 0 0 0 4Zm8 0a2 2 0 1 0 0-4 2 2 0 0 0 0 4Zm171 0a2 2 0 1 0 0-4 2 2 0 0 0 0 4Zm7 0a2 2 0 1 0 0-4 2 2 0 0 0 0 4Zm8 0a2 2 0 1 0 0-4 2 2 0 0 0 0 4Zm8 0a2 2 0 1 0 0-4 2 2 0 0 0 0 4Zm8 0a2 2 0 1 0 0-4 2 2 0 0 0 0 4Zm7 0a2 2 0 1 0 0-4 2 2 0 0 0 0 4Zm8 0a2 2 0 1 0 0-4 2 2 0 0 0 0 4Zm8 0a2 2 0 1 0 0-4 2 2 0 0 0 0 4Zm31 0a2 2 0 1 0 0-4 2 2 0 0 0 0 4Zm8 0a2 2 0 1 0 0-4 2 2 0 0 0 0 4Zm202 0a2 2 0 1 0 0-4 2 2 0 0 0 0 4Zm7 0a2 2 0 1 0 0-4 2 2 0 0 0 0 4Zm8 0a2 2 0 1 0 0-4 2 2 0 0 0 0 4Zm8 0a2 2 0 1 0 0-4 2 2 0 0 0 0 4Zm8 0a2 2 0 1 0 0-4 2 2 0 0 0 0 4Zm7 0a2 2 0 1 0 0-4 2 2 0 0 0 0 4Zm8 0a2 2 0 1 0 0-4 2 2 0 0 0 0 4Zm8 0a2 2 0 1 0 0-4 2 2 0 0 0 0 4Zm8 0a2 2 0 1 0 0-4 2 2 0 0 0 0 4Zm7 0a2 2 0 1 0 0-4 2 2 0 0 0 0 4Zm8 0a2 2 0 1 0 0-4 2 2 0 0 0 0 4Zm8 0a2 2 0 1 0 0-4 2 2 0 0 0 0 4Zm8 0a2 2 0 1 0 0-4 2 2 0 0 0 0 4Zm54 0a2 2 0 1 0 0-4 2 2 0 0 0 0 4Zm-691 8a2 2 0 1 0 0-4 2 2 0 0 0 0 4Zm8 0a2 2 0 1 0 0-4 2 2 0 0 0 0 4Zm8 0a2 2 0 1 0 0-4 2 2 0 0 0 0 4Zm8 0a2 2 0 1 0 0-4 2 2 0 0 0 0 4Zm7 0a2 2 0 1 0 0-4 2 2 0 0 0 0 4Zm8 0a2 2 0 1 0 0-4 2 2 0 0 0 0 4Zm8 0a2 2 0 1 0 0-4 2 2 0 0 0 0 4Zm8 0a2 2 0 1 0 0-4 2 2 0 0 0 0 4Zm7 0a2 2 0 1 0 0-4 2 2 0 0 0 0 4Zm187 0a2 2 0 1 0 0-4 2 2 0 0 0 0 4Zm7 0a2 2 0 1 0 0-4 2 2 0 0 0 0 4Zm8 0a2 2 0 1 0 0-4 2 2 0 0 0 0 4Zm8 0a2 2 0 1 0 0-4 2 2 0 0 0 0 4Zm8 0a2 2 0 1 0 0-4 2 2 0 0 0 0 4Zm7 0a2 2 0 1 0 0-4 2 2 0 0 0 0 4Zm8 0a2 2 0 1 0 0-4 2 2 0 0 0 0 4Zm8 0a2 2 0 1 0 0-4 2 2 0 0 0 0 4Zm31 0a2 2 0 1 0 0-4 2 2 0 0 0 0 4Zm202 0a2 2 0 1 0 0-4 2 2 0 0 0 0 4Zm8 0a2 2 0 1 0 0-4 2 2 0 0 0 0 4Zm7 0a2 2 0 1 0 0-4 2 2 0 0 0 0 4Zm8 0a2 2 0 1 0 0-4 2 2 0 0 0 0 4Zm8 0a2 2 0 1 0 0-4 2 2 0 0 0 0 4Zm8 0a2 2 0 1 0 0-4 2 2 0 0 0 0 4Zm7 0a2 2 0 1 0 0-4 2 2 0 0 0 0 4Zm8 0a2 2 0 1 0 0-4 2 2 0 0 0 0 4Zm8 0a2 2 0 1 0 0-4 2 2 0 0 0 0 4Zm8 0a2 2 0 1 0 0-4 2 2 0 0 0 0 4Zm7 0a2 2 0 1 0 0-4 2 2 0 0 0 0 4Zm8 0a2 2 0 1 0 0-4 2 2 0 0 0 0 4Zm8 0a2 2 0 1 0 0-4 2 2 0 0 0 0 4Zm8 0a2 2 0 1 0 0-4 2 2 0 0 0 0 4Zm7 0a2 2 0 1 0 0-4 2 2 0 0 0 0 4Zm-636 8a2 2 0 1 0 0-4 2 2 0 0 0 0 4Zm8 0a2 2 0 1 0 0-4 2 2 0 0 0 0 4Zm8 0a2 2 0 1 0 0-4 2 2 0 0 0 0 4Zm7 0a2 2 0 1 0 0-4 2 2 0 0 0 0 4Zm8 0a2 2 0 1 0 0-4 2 2 0 0 0 0 4Zm8 0a2 2 0 1 0 0-4 2 2 0 0 0 0 4Zm8 0a2 2 0 1 0 0-4 2 2 0 0 0 0 4Zm7 0a2 2 0 1 0 0-4 2 2 0 0 0 0 4Zm187 0a2 2 0 1 0 0-4 2 2 0 0 0 0 4Zm7 0a2 2 0 1 0 0-4 2 2 0 0 0 0 4Zm8 0a2 2 0 1 0 0-4 2 2 0 0 0 0 4Zm8 0a2 2 0 1 0 0-4 2 2 0 0 0 0 4Zm8 0a2 2 0 1 0 0-4 2 2 0 0 0 0 4Zm7 0a2 2 0 1 0 0-4 2 2 0 0 0 0 4Zm8 0a2 2 0 1 0 0-4 2 2 0 0 0 0 4Zm241 0a2 2 0 1 0 0-4 2 2 0 0 0 0 4Zm8 0a2 2 0 1 0 0-4 2 2 0 0 0 0 4Zm7 0a2 2 0 1 0 0-4 2 2 0 0 0 0 4Zm8 0a2 2 0 1 0 0-4 2 2 0 0 0 0 4Zm8 0a2 2 0 1 0 0-4 2 2 0 0 0 0 4Zm8 0a2 2 0 1 0 0-4 2 2 0 0 0 0 4Zm7 0a2 2 0 1 0 0-4 2 2 0 0 0 0 4Zm8 0a2 2 0 1 0 0-4 2 2 0 0 0 0 4Zm8 0a2 2 0 1 0 0-4 2 2 0 0 0 0 4Zm8 0a2 2 0 1 0 0-4 2 2 0 0 0 0 4Zm7 0a2 2 0 1 0 0-4 2 2 0 0 0 0 4Zm8 0a2 2 0 1 0 0-4 2 2 0 0 0 0 4Zm8 0a2 2 0 1 0 0-4 2 2 0 0 0 0 4Zm8 0a2 2 0 1 0 0-4 2 2 0 0 0 0 4Zm-629 7a2 2 0 1 0 0-4 2 2 0 0 0 0 4Zm8 0a2 2 0 1 0 0-4 2 2 0 0 0 0 4Zm8 0a2 2 0 1 0 0-4 2 2 0 0 0 0 4Zm7 0a2 2 0 1 0 0-4 2 2 0 0 0 0 4Zm8 0a2 2 0 1 0 0-4 2 2 0 0 0 0 4Zm8 0a2 2 0 1 0 0-4 2 2 0 0 0 0 4Zm8 0a2 2 0 1 0 0-4 2 2 0 0 0 0 4Zm201 0a2 2 0 1 0 0-4 2 2 0 0 0 0 4Zm8 0a2 2 0 1 0 0-4 2 2 0 0 0 0 4Zm8 0a2 2 0 1 0 0-4 2 2 0 0 0 0 4Zm8 0a2 2 0 1 0 0-4 2 2 0 0 0 0 4Zm7 0a2 2 0 1 0 0-4 2 2 0 0 0 0 4Zm249 0a2 2 0 1 0 0-4 2 2 0 0 0 0 4Zm8 0a2 2 0 1 0 0-4 2 2 0 0 0 0 4Zm7 0a2 2 0 1 0 0-4 2 2 0 0 0 0 4Zm8 0a2 2 0 1 0 0-4 2 2 0 0 0 0 4Zm8 0a2 2 0 1 0 0-4 2 2 0 0 0 0 4Zm8 0a2 2 0 1 0 0-4 2 2 0 0 0 0 4Zm7 0a2 2 0 1 0 0-4 2 2 0 0 0 0 4Zm8 0a2 2 0 1 0 0-4 2 2 0 0 0 0 4Zm8 0a2 2 0 1 0 0-4 2 2 0 0 0 0 4Zm8 0a2 2 0 1 0 0-4 2 2 0 0 0 0 4Zm7 0a2 2 0 1 0 0-4 2 2 0 0 0 0 4Zm8 0a2 2 0 1 0 0-4 2 2 0 0 0 0 4Zm8 0a2 2 0 1 0 0-4 2 2 0 0 0 0 4Zm8 0a2 2 0 1 0 0-4 2 2 0 0 0 0 4Zm-629 8a2 2 0 1 0 0-4 2 2 0 0 0 0 4Zm8 0a2 2 0 1 0 0-4 2 2 0 0 0 0 4Zm8 0a2 2 0 1 0 0-4 2 2 0 0 0 0 4Zm7 0a2 2 0 1 0 0-4 2 2 0 0 0 0 4Zm8 0a2 2 0 1 0 0-4 2 2 0 0 0 0 4Zm8 0a2 2 0 1 0 0-4 2 2 0 0 0 0 4Zm8 0a2 2 0 1 0 0-4 2 2 0 0 0 0 4Zm201 0a2 2 0 1 0 0-4 2 2 0 0 0 0 4Zm8 0a2 2 0 1 0 0-4 2 2 0 0 0 0 4Zm8 0a2 2 0 1 0 0-4 2 2 0 0 0 0 4Zm8 0a2 2 0 1 0 0-4 2 2 0 0 0 0 4Zm248 0a2 2 0 1 0 0-4 2 2 0 0 0 0 4Zm8 0a2 2 0 1 0 0-4 2 2 0 0 0 0 4Zm8 0a2 2 0 1 0 0-4 2 2 0 0 0 0 4Zm7 0a2 2 0 1 0 0-4 2 2 0 0 0 0 4Zm31 0a2 2 0 1 0 0-4 2 2 0 0 0 0 4Zm8 0a2 2 0 1 0 0-4 2 2 0 0 0 0 4Zm8 0a2 2 0 1 0 0-4 2 2 0 0 0 0 4Zm8 0a2 2 0 1 0 0-4 2 2 0 0 0 0 4Zm7 0a2 2 0 1 0 0-4 2 2 0 0 0 0 4Zm8 0a2 2 0 1 0 0-4 2 2 0 0 0 0 4Zm8 0a2 2 0 1 0 0-4 2 2 0 0 0 0 4Zm-621 8a2 2 0 1 0 0-4 2 2 0 0 0 0 4Zm8 0a2 2 0 1 0 0-4 2 2 0 0 0 0 4Zm8 0a2 2 0 1 0 0-4 2 2 0 0 0 0 4Zm7 0a2 2 0 1 0 0-4 2 2 0 0 0 0 4Zm8 0a2 2 0 1 0 0-4 2 2 0 0 0 0 4Zm489 0a2 2 0 1 0 0-4 2 2 0 0 0 0 4Zm54 0a2 2 0 1 0 0-4 2 2 0 0 0 0 4Zm8 0a2 2 0 1 0 0-4 2 2 0 0 0 0 4Zm8 0a2 2 0 1 0 0-4 2 2 0 0 0 0 4Zm8 0a2 2 0 1 0 0-4 2 2 0 0 0 0 4Zm7 0a2 2 0 1 0 0-4 2 2 0 0 0 0 4Zm70 0a2 2 0 1 0 0-4 2 2 0 0 0 0 4Zm-675 8a2 2 0 1 0 0-4 2 2 0 0 0 0 4Zm8 0a2 2 0 1 0 0-4 2 2 0 0 0 0 4Zm8 0a2 2 0 1 0 0-4 2 2 0 0 0 0 4Zm7 0a2 2 0 1 0 0-4 2 2 0 0 0 0 4Zm8 0a2 2 0 1 0 0-4 2 2 0 0 0 0 4Zm8 0a2 2 0 1 0 0-4 2 2 0 0 0 0 4Zm543 0a2 2 0 1 0 0-4 2 2 0 0 0 0 4Zm8 0a2 2 0 1 0 0-4 2 2 0 0 0 0 4Zm8 0a2 2 0 1 0 0-4 2 2 0 0 0 0 4Zm77 0a2 2 0 1 0 0-4 2 2 0 0 0 0 4Zm-675 7a2 2 0 1 0 0-4 2 2 0 0 0 0 4Zm8 0a2 2 0 1 0 0-4 2 2 0 0 0 0 4Zm8 0a2 2 0 1 0 0-4 2 2 0 0 0 0 4Zm7 0a2 2 0 1 0 0-4 2 2 0 0 0 0 4Zm645 0a2 2 0 1 0 0-4 2 2 0 0 0 0 4Zm-660 8a2 2 0 1 0 0-4 2 2 0 0 0 0 4Zm8 0a2 2 0 1 0 0-4 2 2 0 0 0 0 4Zm7 0a2 2 0 1 0 0-4 2 2 0 0 0 0 4Zm559 0a2 2 0 1 0 0-4 2 2 0 0 0 0 4Zm70 0a2 2 0 1 0 0-4 2 2 0 0 0 0 4Zm-644 8a2 2 0 1 0 0-4 2 2 0 0 0 0 4Zm8 0a2 2 0 1 0 0-4 2 2 0 0 0 0 4Zm613 0a2 2 0 1 0 0-4 2 2 0 0 0 0 4Zm7 0a2 2 0 1 0 0-4 2 2 0 0 0 0 4Zm-628 8a2 2 0 1 0 0-4 2 2 0 0 0 0 4Zm8 0a2 2 0 1 0 0-4 2 2 0 0 0 0 4Zm7 0a2 2 0 1 0 0-4 2 2 0 0 0 0 4Zm-7 7a2 2 0 1 0 0-4 2 2 0 0 0 0 4Zm7 0a2 2 0 1 0 0-4 2 2 0 0 0 0 4Zm-7 8a2 2 0 1 0 0-4 2 2 0 0 0 0 4Zm7 0a2 2 0 1 0 0-4 2 2 0 0 0 0 4Z" opacity=".4"/>
    <path d="M375 64a2 2 0 1 0 0-4 2 2 0 0 0 0 4Zm62 0a2 2 0 1 0 0-4 2 2 0 0 0 0 4Zm-334 8a2 2 0 1 0 0-4 2 2 0 0 0 0 4Zm621 46a2 2 0 1 0 0-4 2 2 0 0 0 0 4Zm-249 31a2 2 0 1 0 0-4 2 2 0 0 0 0 4Zm272 47a2 2 0 1 0 0-4 2 2 0 0 0 0 4Zm-567 46a2 2 0 1 0 0-3 2 2 0 0 0 0 3Z"/>
    <path d="M429 17a2 2 0 1 0 0-3 2 2 0 0 0 0 3ZM33 41a2 2 0 1 0 0-4 2 2 0 0 0 0 4Zm388 39a2 2 0 1 0 0-4 2 2 0 0 0 0 4Zm23 0a2 2 0 1 0 0-4 2 2 0 0 0 0 4Zm-302 7a2 2 0 1 0 0-4 2 2 0 0 0 0 4Zm240 16a2 2 0 1 0 0-4 2 2 0 0 0 0 4Zm342 31a2 2 0 1 0 0-4 2 2 0 0 0 0 4ZM258 250a2 2 0 1 0 0-4 2 2 0 0 0 0 4Z" opacity=".6"/>
  </g>
</svg>
