<svg xmlns="http://www.w3.org/2000/svg" width="448" height="116">
  <g fill="none">
    <path fill="#39396D" d="M144.152 53.87c-4.721 0-7.907 3.6-7.907 8.143s3.245 8.202 7.848 8.202c2.891 0 5.192-1.003 6.962-2.773l3.659 5.311C152.472 75.23 148.4 77 143.916 77c-8.378 0-14.869-6.727-14.869-14.929 0-8.261 6.491-14.987 14.751-14.987 4.838 0 8.674 1.652 11.152 4.249l-4.13 5.133c-1.77-1.711-3.895-2.596-6.668-2.596m15.988-18.292h7.199v40.596h-7.199zm13.746 26.494c0-8.261 6.136-14.987 14.279-14.987 8.084 0 14.22 6.254 14.22 14.397 0 .885-.059 1.888-.177 2.36h-20.947c.708 3.953 3.717 6.786 8.084 6.786 2.832 0 5.251-1.239 6.904-2.95l3.717 4.897C197.841 75.053 193.829 77 189.05 77c-8.791 0-15.164-6.726-15.164-14.928m7.494-2.773h13.63c-.826-4.013-3.363-6.078-6.727-6.078-3.599 0-6.077 2.478-6.903 6.078m52.395-11.388-10.208 28.264h-9.323l-10.267-28.264h7.907l7.198 21.832 7.317-21.832zm2.003 14.161c0-8.261 6.136-14.987 14.279-14.987 8.084 0 14.22 6.254 14.22 14.397 0 .885-.059 1.888-.177 2.36h-20.947c.708 3.953 3.717 6.786 8.084 6.786 2.832 0 5.251-1.239 6.904-2.95l3.717 4.897C259.733 75.053 255.721 77 250.942 77c-8.792 0-15.164-6.726-15.164-14.928m7.493-2.773h13.63c-.826-4.013-3.363-6.078-6.727-6.078-3.598 0-6.076 2.478-6.903 6.078m34.398 16.875h-7.199V47.91h7.199v3.068c1.593-2.36 3.953-3.895 6.903-3.895 1.888 0 3.422.531 4.543 1.416l-3.009 6.845c-.944-.767-2.36-1.239-3.717-1.239-2.891 0-4.72 2.419-4.72 6.255zm42.657-22.304c-4.721 0-7.907 3.6-7.907 8.143s3.245 8.202 7.848 8.202c2.891 0 5.192-1.003 6.962-2.773l3.659 5.311c-2.242 2.479-6.313 4.249-10.798 4.249-8.378 0-14.869-6.727-14.869-14.929 0-8.261 6.491-14.987 14.751-14.987 4.838 0 8.674 1.652 11.152 4.249l-4.13 5.133c-1.771-1.713-3.895-2.598-6.668-2.598m15.987-18.292h7.199v40.596h-7.199zm13.747 26.494c0-8.261 6.491-14.987 14.692-14.987s14.751 6.727 14.751 14.987c0 8.202-6.55 14.929-14.751 14.929s-14.692-6.727-14.692-14.929m22.186-.059c0-4.543-3.127-8.143-7.435-8.143-4.367 0-7.553 3.6-7.553 8.143s3.186 8.202 7.553 8.202c4.307 0 7.435-3.659 7.435-8.202m20.588 1.18c0 4.13 2.419 6.904 6.019 6.904s6.019-2.773 6.019-6.904V47.911h7.199v15.813c0 7.907-5.251 13.158-13.217 13.158s-13.217-5.251-13.217-13.158V47.911h7.199v15.282zm54.872-27.615v40.596h-7.258v-3.068c-2.065 2.419-4.957 3.895-8.615 3.895-7.494 0-13.571-6.137-13.571-14.929 0-8.556 5.724-14.987 13.571-14.987 3.717 0 6.608 1.357 8.615 3.658V35.578zm-7.258 26.435c0-4.543-3.127-8.143-7.435-8.143-4.367 0-7.553 3.6-7.553 8.143s3.186 8.202 7.553 8.202c4.307 0 7.435-3.659 7.435-8.202"/>
    <path fill="#AB2B4A" d="M100.334 29.134v57.734L89.632 73.062l-5.961-15.059h-.004l5.662-15.272z"/>
    <path fill="#E87A68" d="M.34 29.134v57.734L9.8 73.481l7.203-15.478h.004L9.684 43.319z"/>
    <path fill="#D74D4E" d="m83.667 58.003-31.515 2-35.149-2 14.668-28.869L50.337.269l20.296 31.692z"/>
    <path fill="#BD3246" d="M100.334 29.134 83.667 58.003 50.337.269z"/>
    <path fill="#F19175" d="M50.337.269 17.003 58.003.336 29.134z"/>
    <path fill="#CF3942" d="M83.667 58.003 72.276 82.931l-21.939 32.806L27.76 81.83 17.003 58.003z"/>
    <path fill="#E0625B" d="M50.337 115.737.336 86.868l16.667-28.865z"/>
    <path fill="#9A244F" d="m50.333 115.737 50.001-28.869-16.667-28.865z"/>
  </g>
</svg>
