<svg xmlns="http://www.w3.org/2000/svg" data-name="Layer 1" viewBox="0 0 425.6 143.63">
  <path d="m360.8 90.69 1-3.6c1.24-4.28.78-8.24-1.3-11.15a11.32 11.32 0 0 0-9-4.43l-73.35-.94a1.49 1.49 0 0 1-1.16-.61 1.51 1.51 0 0 1-.15-1.33 2 2 0 0 1 1.7-1.3l74-.94c8.78-.4 18.29-7.53 21.62-16.22l4.22-11a2.5 2.5 0 0 0 .16-.94 2.4 2.4 0 0 0-.05-.52 48.21 48.21 0 0 0-92.7-5 21.69 21.69 0 0 0-34.58 15.15 22 22 0 0 0 .56 7.59 30.83 30.83 0 0 0-29.93 30.82 31 31 0 0 0 .32 4.46 1.44 1.44 0 0 0 1.52 1.27h135.45a1.79 1.79 0 0 0 1.67-1.31" style="fill:#f78100"/>
  <path d="M385.24 40h-2a1.6 1.6 0 0 0-.31.07 1.14 1.14 0 0 0-.74.78l-2.89 10c-1.24 4.28-.77 8.24 1.31 11.14a11.3 11.3 0 0 0 9 4.44l15.63.94a1.44 1.44 0 0 1 1.12.6 1.5 1.5 0 0 1 .16 1.34 2 2 0 0 1-1.7 1.3l-16.24.94c-8.82.4-18.33 7.52-21.66 16.21l-1.17 3.07a.87.87 0 0 0 .77 1.18h55.94a1.49 1.49 0 0 0 1.45-1.07A40.15 40.15 0 0 0 385.24 40" style="fill:#fcad32"/>
  <path d="M47.34 108.53h9.54v26.06h16.66v8.35h-26.2zm36.08 17.31v-.1c0-9.88 8-17.9 18.58-17.9s18.48 7.92 18.48 17.8v.1c0 9.88-8 17.89-18.58 17.89s-18.48-7.91-18.48-17.79m27.33 0v-.1c0-5-3.59-9.29-8.85-9.29s-8.7 4.23-8.7 9.19v.1c0 5 3.59 9.29 8.8 9.29s8.75-4.23 8.75-9.19m21.4 2.01v-19.32h9.69v19.13c0 5 2.51 7.32 6.34 7.32s6.34-2.26 6.34-7.08v-19.37h9.69v19.08c0 11.11-6.34 16-16.13 16s-15.93-5-15.93-15.73m46.65-19.35h13.27c12.29 0 19.42 7.08 19.42 17v.1c0 9.93-7.22 17.3-19.61 17.3H178.8Zm13.42 26c5.71 0 9.49-3.15 9.49-8.7v-.1c0-5.51-3.78-8.7-9.49-8.7h-3.88v17.5Zm33.13-26h27.53v8.36h-17.99v5.85h16.27v7.91h-16.27v12.29h-9.54zm40.8 0h9.54v26.06h16.66v8.35h-26.2zm51.12-.24h9.19l14.65 34.65h-10.22l-2.51-6.14h-13.27l-2.46 6.14h-10Zm8.36 21.09-3.84-9.79-3.88 9.79Zm27.77-20.85h16.27c5.26 0 8.89 1.38 11.21 3.74a10.7 10.7 0 0 1 3 8v.1a10.89 10.89 0 0 1-7.03 10.63l8.21 12H374l-6.93-10.42h-4.18V143h-9.49Zm15.83 16.52c3.24 0 5.11-1.57 5.11-4.08v-.1c0-2.7-2-4.08-5.16-4.08h-6.25v8.26Zm28.45-16.52h27.68v8.11h-18.24v5.21h16.52v7.53h-16.52v5.45h18.49v8.11h-27.93zM26.46 129.87a8.44 8.44 0 0 1-7.88 5.13c-5.21 0-8.8-4.33-8.8-9.29v-.1c0-5 3.49-9.19 8.7-9.19a8.63 8.63 0 0 1 8.18 5.7h10.06c-1.61-8.19-8.81-14.31-18.14-14.31C8 107.84 0 115.86 0 125.74v.09c0 9.89 7.86 17.8 18.48 17.8 9.08 0 16.18-5.88 18.05-13.76Z"/>
</svg>
