<svg xmlns="http://www.w3.org/2000/svg" width="1024" height="411" viewBox="-18.055 -18.055 1590.236 637.952">
  <path d="M871.97 0v363.357c0 71.341 17.606 103.9 94.339 103.9 18.173 0 43.145-4.676 61.998-8.714l-12.127-72.818c-12.76 2.692-23.916 2.367-31.989 2.566-33.557.825-30.658-10.204-30.658-41.844V209.672h63.873V149.06h-63.873V0Zm267.25 0-81.562.012.012 61.754V467.26h121.801v-61.957h-40.25zM139.89.002C55.764.002 41.405 28.631 41.405 94.6v54.463L0 155.87v53.8h41.404v195.632H.002v61.965l163.941-.018v-61.945H122.97V209.672h61.54V149.06h-61.54v-47.13c0-28.96 7.494-31.916 37.133-31.916 8.072 0 14.407.36 27.177 2.382l11.176-66.314C179.6 2.685 158.061.002 139.891.002zm171.151 85.855v20.715h9.95v28.166h.566C243.547 149.1 184.43 217.408 184.43 299.57c0 92.595 75.063 167.659 167.658 167.659 31.602 0 61.155-8.756 86.385-23.956l14.693 23.987h86.152v-81.535h-19.494l-.054-253.81h-81.561v23.802a166.7 166.7 0 0 0-55.455-20.979h.46v-28.166h9.952V85.857Zm391.592 45.528c-76.571 0-122.551 26.969-122.551 95.715 0 72.629 56.744 97.039 128.244 109.256 37.951 7.696 49.563 15.41 49.563 31.47 0 11.573-6.55 33.34-47.037 33.34-14.55 0-42.418.515-68.997-4.62l.036-10.821h-61.764v60.91c37.934 9.626 87.649 20.625 138.887 20.625 76.57 0 112.947-36.517 112.947-107.2 0-74.53-60.366-88.609-120.473-102.103-41.12-8.99-46.388-17.337-46.388-32.773 0-10.911 4.629-31.04 42.586-31.04 13.292 0 37.795.064 62.47 4.565v10.852h61.748v-60.5c-37.954-9.631-77.396-17.676-129.271-17.676m683.27 17.676v60.554h40.12L1366.8 355.316l-59.223-145.7h40.205v-60.553h-168.31v60.552h40.21l104.538 257.233c-12.101 37.004-50.793 58.258-85.094 58.258-7.404 0-21.516-1.327-32.29-3.342l-7.376 74.027c16.789 4.034 41 6.05 59.186 6.05 73.966 0 122.532-67.107 152.101-138.407l103.17-253.82h40.209V149.06Zm-1028.93 64.168c42.935 2.295 77.52 35.972 81.257 78.51v2.802h-9.79v9.772h9.792v2.675c-3.717 42.557-38.31 76.256-81.26 78.551v-9.588h-9.77v9.563c-43.776-2.551-78.791-37.723-81.075-81.569h9.713v-9.771h-9.662c2.596-43.542 37.466-78.377 81.023-80.916v9.61h9.772zm31.716 43.662-31.523 27.468a15 15 0 0 0-5.07-.896c-8.506 0-15.393 7.09-15.393 15.824 0 8.745 6.887 15.832 15.393 15.832 8.502 0 15.404-7.087 15.404-15.832 0-1.659-.252-3.257-.713-4.76l28.108-31.427zm1134.17 148.746c-17.14 0-30.94 13.624-30.941 30.767 0 17.138 13.8 30.76 30.941 30.76s31.024-13.622 31.024-30.76c0-17.143-13.883-30.767-31.024-30.767m0 5.187c14.24 0 25.838 11.335 25.838 25.58 0 14.237-11.599 25.924-25.838 25.924-14.236 0-25.756-11.688-25.757-25.924 0-14.244 11.521-25.58 25.757-25.58m-11.775 10.455v30.239h6.941v-9.141h4.305l6.242 9.14h8.526l-7.557-10.372c3.864-1.14 6.326-4.485 6.326-9.399 0-6.686-4.66-10.467-12.133-10.467zm6.941 6.067h5.71c2.994 0 5.103 1.237 5.103 4.402 0 3.334-2.107 4.563-5.275 4.563h-5.538z" style="fill:#ff282d;fill-opacity:1"/>
</svg>
