<svg xmlns="http://www.w3.org/2000/svg" width="716" height="714.667" version="1.0" viewBox="0 0 537 536">
  <path fill="#0a66c2" d="M27.8 2.4C17.3 6.2 7.7 15.1 3.8 24.8l-2.3 5.7v475l2.3 5.7c3.1 7.6 10.5 15.6 18.4 19.9l6.3 3.4h480l6.2-3.4c7.7-4.1 14.6-11.3 18.1-18.9l2.7-5.7v-477l-2.7-5.7c-3.5-7.6-10.9-15.3-18.3-19.2l-6-3.1L270 1.3C75.5 1.1 30.8 1.3 27.8 2.4m105.1 73.5c8.4 2.6 13.7 5.9 20.2 12.8 6.3 6.6 8.9 11.1 11.4 19.7 2.3 7.7 1.6 19.9-1.4 27.8-9.6 24.9-38.7 36.8-62.4 25.5-29.4-13.9-35.8-52.1-12.6-74.7 11.9-11.5 29.5-15.9 44.8-11.1m253.8 120.7c4.5.8 12 2.8 16.7 4.5 28.5 10.3 43.7 31.6 50.9 71.4 2.2 11.7 2.2 13.9 2.2 98v86h-79l-.6-78c-.5-71-.7-78.5-2.3-84-2.8-9.3-6.6-16.2-11.3-20.6-6.5-6-12.1-8.1-23.5-8.7-22.3-1.1-36 5.8-43.8 22.3-6.4 13.7-6.4 13.5-7 95l-.5 74h-79l-.3-127.8L209 201h77v35.5l2.7-4c13.5-20.2 35.7-34.2 59-37.4 8.4-1.2 28-.4 39 1.5M159.8 328.7l-.3 127.8h-79l-.3-127.8L80 201h80z"/>
</svg>
