<?xml version="1.0" encoding="UTF-8"?>
<!-- Generator: Adobe Illustrator 25.0.1, SVG Export Plug-In . SVG Version: 6.00 Build 0)  -->
<svg version="1.1" id="Layer_1" xmlns="http://www.w3.org/2000/svg" xmlns:xlink="http://www.w3.org/1999/xlink" x="0px" y="0px" viewBox="0 0 3708 1024" style="" xml:space="preserve">
<style type="text/css">
	.st0{fill:#EC1D23;}
	.st1{fill:#333333;}
	.st2{display:none;fill:#8C8C8C;}
	.st3{fill:#212121;}
	.st4{fill:#9B1E2D;}
	.st5{fill:#444444;}
	.st6{fill:#3A3A3A;}
</style>
<g>
	<g>
		<path class="st0" d="M1439.3,691.16v307.29h-313.55c-52.84,0-95.94-43.1-95.94-95.94V750.95h318.41v-59.79    c0-2.78-2.09-4.87-4.87-4.87h-313.55v-91.07h313.55C1396.2,595.22,1439.3,638.32,1439.3,691.16z M1348.23,842.72h-227.34v59.79    c0,2.78,2.09,4.87,4.87,4.87h222.47V842.72z"/>
		<path class="st0" d="M1903.71,907.37v91.07h-313.55c-52.84,0-95.94-43.1-95.94-95.94V691.16c0-52.84,43.1-95.94,95.94-95.94    h312.16v91.07h-312.16c-2.78,0-4.87,2.09-4.87,4.87v211.35c0,2.78,2.09,4.87,4.87,4.87H1903.71z"/>
		<path class="st0" d="M2377.15,691.16v307.29H2063.6c-52.84,0-95.94-43.1-95.94-95.94V750.95h318.41v-59.79    c0-2.78-2.09-4.87-4.87-4.87h-313.55v-91.07h313.55C2334.05,595.22,2377.15,638.32,2377.15,691.16z M2286.08,842.72h-227.34v59.79    c0,2.78,2.09,4.87,4.87,4.87h222.47V842.72z"/>
		<path class="st0" d="M2758.13,595.22v91.07h-223.86c-2.78,0-4.87,2.09-4.87,4.87v307.29h-91.07V691.16    c0-52.84,43.1-95.94,95.94-95.94H2758.13z"/>
		<path class="st0" d="M3216.28,691.16v307.29h-91.07V691.16c0-2.78-2.09-4.87-4.87-4.87h-217.61c-2.78,0-4.87,2.09-4.87,4.87    v307.29h-91.07V595.22h313.55C3173.18,595.22,3216.28,638.32,3216.28,691.16z"/>
		<path class="st0" d="M3680.7,691.16v151.56h-318.41v59.79c0,2.78,2.09,4.87,4.87,4.87h313.55v91.07h-313.55    c-52.84,0-95.94-43.1-95.94-95.94V691.16c0-52.84,43.1-95.94,95.94-95.94h217.61C3637.59,595.22,3680.7,638.32,3680.7,691.16z     M3589.62,750.95v-59.79c0-2.78-2.09-4.87-4.87-4.87h-217.61c-2.78,0-4.87,2.09-4.87,4.87v59.79H3589.62z"/>
	</g>
	<g>
		<path class="st0" d="M972.53,510.9v487.5H829.15V510.9c0-4.41-3.31-7.72-8.82-7.72H579.88c-4.41,0-6.62,3.31-6.62,7.72l0.32,487.5    l-145.95,0.04l0.04-487.55c0-4.41-3.31-7.72-6.62-7.72H179.51c-4.41,0-7.72,3.31-7.72,7.72v487.5H27.3V358.69h793.02    C904.15,358.69,972.53,427.08,972.53,510.9z"/>
	</g>
	<g>
		<path class="st1" d="M972.53,495.98v487.5H829.15v-487.5c0-4.41-3.31-7.72-8.82-7.72H579.88c-4.41,0-6.62,3.31-6.62,7.72    l0.32,487.5l-145.95,0.04l0.04-487.55c0-4.41-3.31-7.72-6.62-7.72H179.51c-4.41,0-7.72,3.31-7.72,7.72v487.5H27.3V343.77h793.02    C904.15,343.77,972.53,412.15,972.53,495.98z"/>
	</g>
	<g>
		<path class="st0" d="M573.41,714.93l0.09,140.59c0,0,89.39,35.45,119.95,156.48C693.46,1012,732.34,828.62,573.41,714.93z"/>
		<path class="st2" d="M32.01,595.96c80.68-116.14,102.69,51.34,147.92,118.58s105.13,77.02,128.36,85.57s116.14,24.45,116.14,24.45    l4.89-234.72c-36.67-173.59,83.13-180.93,83.13-180.93c7.33-39.12,48.9-39.12,48.9-39.12c-24.45,3.67-34.23,42.79-33.01,66.01    c1.22,23.23,36.67,40.34,88.02,84.35c51.34,44.01,52.57,167.48,52.57,167.48c22-22,34.23-14.67,86.8-34.23    c52.57-19.56,48.9-95.35,48.9-95.35c-52.57,63.57-75.79,18.34-75.79,18.34s-39.12-45.23-67.24-80.68s-18.34-84.35-18.34-84.35    c15.89,1.22,73.35-8.56,92.91-14.67c19.56-6.11,39.12-11,63.57,3.67c24.45,14.67,6.11,63.57,6.11,63.57l51.34-36.67    c62.35-45.23,58.68,44.01,58.68,44.01c122.25-103.91,18.34-185.82,18.34-185.82c-33.01,11-56.23-11-56.23-11    c-67.24-35.45-80.68-30.56-80.68-30.56c-51.34-4.89-56.23-20.78-56.23-20.78c-37.9-45.23-89.24-46.45-89.24-46.45    C484.33,135.08,406.09,31.17,406.09,31.17c-28.12,106.36,47.68,155.26,47.68,155.26c-265.28,45.23-328.85,151.59-328.85,151.59    c83.13-26.89,100.24,30.56,4.89,89.85S32.01,595.96,32.01,595.96z M898.75,328.23c0,0,51.34,8.56,22,29.34    S898.75,328.23,898.75,328.23z M637.14,227.99c0,0,51.34,17.11,59.9,24.45c8.56,7.33,31.78,31.78,31.78,31.78    s-45.23-8.56-55.01-14.67C664.04,263.44,639.59,249.99,637.14,227.99z"/>
		<g>
			<path class="st3" d="M820.33,343.77H191.95c9.86,17.38-8.02,50.44-62.15,84.1c-95.35,59.29-97.8,168.09-97.8,168.09     c75.7-108.96,99.75,31.73,139.78,105.06V495.98c0-4.41,3.31-7.72,7.72-7.72h224.4c1.93,0-0.17,0-0.17,0     c17.19-78.04,108.7-79.34,108.7-79.34c7.33-39.12,48.9-39.12,48.9-39.12c-24.45,3.67-34.23,42.79-33.01,66.01     c0.88,16.71,19.47,30.25,48.94,52.92c0.76-0.3,1.62-0.47,2.6-0.47h76.45c-21.56-34.47-13.08-76.89-13.08-76.89     c15.89,1.22,73.35-8.56,92.91-14.67c19.56-6.11,39.12-11,63.57,3.67c24.45,14.67,2.73,63.57,2.73,63.57l54.73-36.67     c62.35-45.23,57.55,44.01,57.55,44.01c17.9-15.22,32.07-29.96,41.31-44.04C930.86,377.78,879.44,343.77,820.33,343.77z"/>
		</g>
		<path class="st0" d="M34.26,576.79c80.68-116.14,102.69,51.34,147.92,118.58s105.13,77.02,128.36,85.57    c23.23,8.56,117.1,24.49,117.1,24.49V570.72c-43.08-24.85-56.83-78.71-27.3-123.31c36.83-55.62,114.36-57.67,114.36-57.67    c7.33-39.12,48.9-39.12,48.9-39.12c-24.45,3.67-34.23,42.79-33.01,66.01c1.22,23.23,36.67,40.34,88.02,84.35    s52.57,167.48,52.57,167.48c22-22,34.23-14.67,86.8-34.23c52.57-19.56,48.9-95.35,48.9-95.35    c-52.57,63.57-75.79,18.34-75.79,18.34s-39.12-45.23-67.24-80.68c-28.12-35.45-18.34-84.35-18.34-84.35    c15.89,1.22,73.35-8.56,92.91-14.67c19.56-6.11,39.12-11,63.57,3.67s6.11,63.57,6.11,63.57l51.34-36.67    c62.35-45.23,58.68,44.01,58.68,44.01c122.25-103.91,18.34-185.82,18.34-185.82c-33.01,11-56.23-11-56.23-11    c-67.24-35.45-80.68-30.56-80.68-30.56c-51.34-4.89-56.23-20.78-56.23-20.78c-37.9-45.23-89.24-46.45-89.24-46.45    C486.58,115.91,408.34,12,408.34,12c-28.12,106.36,47.68,155.26,47.68,155.26c-265.28,45.23-328.85,151.59-328.85,151.59    c83.13-26.89,100.24,30.56,4.89,89.85S34.26,576.79,34.26,576.79z M901.01,309.07c0,0,51.34,8.56,22,29.34    C893.67,359.19,901.01,309.07,901.01,309.07z M639.4,208.82c0,0,51.34,17.11,59.9,24.45c8.56,7.33,31.78,31.78,31.78,31.78    s-45.23-8.56-55.01-14.67S641.84,230.83,639.4,208.82z"/>
	</g>
	<g>
		<path class="st4" d="M399.9,800.7c9.33,1.66,27.74,4.74,27.74,4.74V570.72c0,0-30.8-31.27-36.78-41.44    c0,0,21.8,46.63,20.95,148.12C410.76,802.37,399.9,800.7,399.9,800.7z"/>
	</g>
	<path class="st4" d="M580.1,719.84c0,0,4.68-0.73,2.79,65.38c-1.69,59.19-9.38,70.3-9.38,70.3l-0.09-140.59L580.1,719.84z"/>
	<g>
		<path class="st5" d="M1439.3,676.23v307.29h-313.55c-52.84,0-95.94-43.1-95.94-95.94V736.02h318.41v-59.79    c0-2.78-2.09-4.87-4.87-4.87h-313.55v-91.07h313.55C1396.2,580.29,1439.3,623.4,1439.3,676.23z M1348.23,827.79h-227.34v59.79    c0,2.78,2.09,4.87,4.87,4.87h222.47V827.79z"/>
		<path class="st5" d="M1903.71,892.45v91.07h-313.55c-52.84,0-95.94-43.1-95.94-95.94V676.23c0-52.84,43.1-95.94,95.94-95.94    h312.16v91.07h-312.16c-2.78,0-4.87,2.09-4.87,4.87v211.35c0,2.78,2.09,4.87,4.87,4.87H1903.71z"/>
		<path class="st5" d="M2377.15,676.23v307.29H2063.6c-52.84,0-95.94-43.1-95.94-95.94V736.02h318.41v-59.79    c0-2.78-2.09-4.87-4.87-4.87h-313.55v-91.07h313.55C2334.05,580.29,2377.15,623.4,2377.15,676.23z M2286.08,827.79h-227.34v59.79    c0,2.78,2.09,4.87,4.87,4.87h222.47V827.79z"/>
		<path class="st5" d="M2758.13,580.29v91.07h-223.86c-2.78,0-4.87,2.09-4.87,4.87v307.29h-91.07V676.23    c0-52.84,43.1-95.94,95.94-95.94H2758.13z"/>
		<path class="st5" d="M3216.28,676.23v307.29h-91.07V676.23c0-2.78-2.09-4.87-4.87-4.87h-217.61c-2.78,0-4.87,2.09-4.87,4.87    v307.29h-91.07V580.29h313.55C3173.18,580.29,3216.28,623.4,3216.28,676.23z"/>
		<path class="st5" d="M3680.7,676.23v151.56h-318.41v59.79c0,2.78,2.09,4.87,4.87,4.87h313.55v91.07h-313.55    c-52.84,0-95.94-43.1-95.94-95.94V676.23c0-52.84,43.1-95.94,95.94-95.94h217.61C3637.59,580.29,3680.7,623.4,3680.7,676.23z     M3589.62,736.02v-59.79c0-2.78-2.09-4.87-4.87-4.87h-217.61c-2.78,0-4.87,2.09-4.87,4.87v59.79H3589.62z"/>
	</g>
	<g>
		<path class="st1" d="M1439.3,676.23v307.29h-313.55c-52.84,0-95.94-43.1-95.94-95.94V736.02h318.41v-59.79    c0-2.78-2.09-4.87-4.87-4.87h-313.55v-91.07h313.55C1396.2,580.29,1439.3,623.4,1439.3,676.23z M1348.23,827.79h-227.34v59.79    c0,2.78,2.09,4.87,4.87,4.87h222.47V827.79z"/>
		<path class="st1" d="M1903.71,892.45v91.07h-313.55c-52.84,0-95.94-43.1-95.94-95.94V676.23c0-52.84,43.1-95.94,95.94-95.94    h312.16v91.07h-312.16c-2.78,0-4.87,2.09-4.87,4.87v211.35c0,2.78,2.09,4.87,4.87,4.87H1903.71z"/>
		<path class="st1" d="M2377.15,676.23v307.29H2063.6c-52.84,0-95.94-43.1-95.94-95.94V736.02h318.41v-59.79    c0-2.78-2.09-4.87-4.87-4.87h-313.55v-91.07h313.55C2334.05,580.29,2377.15,623.4,2377.15,676.23z M2286.08,827.79h-227.34v59.79    c0,2.78,2.09,4.87,4.87,4.87h222.47V827.79z"/>
		<path class="st1" d="M2758.13,580.29v91.07h-223.86c-2.78,0-4.87,2.09-4.87,4.87v307.29h-91.07V676.23    c0-52.84,43.1-95.94,95.94-95.94H2758.13z"/>
		<path class="st1" d="M3216.28,676.23v307.29h-91.07V676.23c0-2.78-2.09-4.87-4.87-4.87h-217.61c-2.78,0-4.87,2.09-4.87,4.87    v307.29h-91.07V580.29h313.55C3173.18,580.29,3216.28,623.4,3216.28,676.23z"/>
		<path class="st1" d="M3680.7,676.23v151.56h-318.41v59.79c0,2.78,2.09,4.87,4.87,4.87h313.55v91.07h-313.55    c-52.84,0-95.94-43.1-95.94-95.94V676.23c0-52.84,43.1-95.94,95.94-95.94h217.61C3637.59,580.29,3680.7,623.4,3680.7,676.23z     M3589.62,736.02v-59.79c0-2.78-2.09-4.87-4.87-4.87h-217.61c-2.78,0-4.87,2.09-4.87,4.87v59.79H3589.62z"/>
	</g>
</g>
<g>
	<g>
		<path class="st0" d="M-1980.8,547.9v487.5h-143.38V547.9c0-4.41-3.31-7.72-8.82-7.72h-240.44c-4.41,0-6.62,3.31-6.62,7.72    l0.32,487.5l-145.95,0.04l0.04-487.55c0-4.41-3.31-7.72-6.62-7.72h-241.55c-4.41,0-7.72,3.31-7.72,7.72v487.5h-144.49V395.69    h793.02C-2049.19,395.69-1980.8,464.08-1980.8,547.9z"/>
	</g>
	<g>
		<path class="st6" d="M-1980.8,532.98v487.5h-143.38v-487.5c0-4.41-3.31-7.72-8.82-7.72h-240.44c-4.41,0-6.62,3.31-6.62,7.72    l0.32,487.5l-145.95,0.04l0.04-487.55c0-4.41-3.31-7.72-6.62-7.72h-241.55c-4.41,0-7.72,3.31-7.72,7.72v487.5h-144.49V380.77    h793.02C-2049.19,380.77-1980.8,449.15-1980.8,532.98z"/>
	</g>
	<g>
		<path class="st0" d="M-2379.92,751.93l0.09,140.59c0,0,89.39,35.45,119.95,156.48C-2259.88,1049-2221,865.62-2379.92,751.93z"/>
		<path class="st2" d="M-2921.33,632.96c80.68-116.14,102.69,51.34,147.92,118.58c45.23,67.24,105.13,77.02,128.36,85.57    c23.23,8.56,116.14,24.45,116.14,24.45l4.89-234.72c-36.67-173.59,83.13-180.93,83.13-180.93c7.33-39.12,48.9-39.12,48.9-39.12    c-24.45,3.67-34.23,42.79-33.01,66.01s36.67,40.34,88.02,84.35s52.57,167.48,52.57,167.48c22-22,34.23-14.67,86.8-34.23    c52.57-19.56,48.9-95.35,48.9-95.35c-52.57,63.57-75.79,18.34-75.79,18.34s-39.12-45.23-67.24-80.68    c-28.12-35.45-18.34-84.35-18.34-84.35c15.89,1.22,73.35-8.56,92.91-14.67s39.12-11,63.57,3.67c24.45,14.67,6.11,63.57,6.11,63.57    l51.34-36.67c62.35-45.23,58.68,44.01,58.68,44.01c122.25-103.91,18.34-185.82,18.34-185.82c-33.01,11-56.23-11-56.23-11    c-67.24-35.45-80.68-30.56-80.68-30.56c-51.34-4.89-56.23-20.78-56.23-20.78c-37.9-45.23-89.24-46.45-89.24-46.45    c-167.48-41.56-245.72-145.48-245.72-145.48c-28.12,106.36,47.68,155.26,47.68,155.26c-265.28,45.23-328.85,151.59-328.85,151.59    c83.13-26.89,100.24,30.56,4.89,89.85S-2921.33,632.96-2921.33,632.96z M-2054.58,365.23c0,0,51.34,8.56,22.01,29.34    C-2061.92,415.35-2054.58,365.23-2054.58,365.23z M-2316.19,264.99c0,0,51.34,17.11,59.9,24.45c8.56,7.33,31.78,31.78,31.78,31.78    s-45.23-8.56-55.01-14.67C-2289.3,300.44-2313.75,286.99-2316.19,264.99z"/>
		<g>
			<path class="st3" d="M-2133.01,380.77h-628.37c9.86,17.38-8.02,50.44-62.15,84.1c-95.35,59.29-97.8,168.09-97.8,168.09     c75.7-108.96,99.75,31.73,139.78,105.06V532.98c0-4.41,3.31-7.72,7.72-7.72h224.4c1.93,0-0.17,0-0.17,0     c17.19-78.04,108.7-79.34,108.7-79.34c7.33-39.12,48.9-39.12,48.9-39.12c-24.45,3.67-34.23,42.79-33.01,66.01     c0.88,16.71,19.47,30.25,48.94,52.92c0.76-0.3,1.62-0.47,2.6-0.47h76.45c-21.56-34.47-13.08-76.89-13.08-76.89     c15.89,1.22,73.35-8.56,92.91-14.67c19.56-6.11,39.12-11,63.57,3.67c24.45,14.67,2.73,63.57,2.73,63.57l54.73-36.67     c62.35-45.23,57.55,44.01,57.55,44.01c17.9-15.22,32.07-29.96,41.31-44.04C-2022.47,414.78-2073.9,380.77-2133.01,380.77z"/>
		</g>
		<path class="st0" d="M-2919.07,613.79c80.68-116.14,102.69,51.34,147.92,118.58c45.23,67.24,105.13,77.02,128.36,85.57    c23.23,8.56,117.1,24.49,117.1,24.49V607.72c-43.08-24.85-56.82-78.71-27.3-123.31c36.83-55.62,114.36-57.67,114.36-57.67    c7.33-39.12,48.9-39.12,48.9-39.12c-24.45,3.67-34.23,42.79-33.01,66.01c1.22,23.23,36.67,40.34,88.02,84.35    s52.57,167.48,52.57,167.48c22-22,34.23-14.67,86.8-34.23c52.57-19.56,48.9-95.35,48.9-95.35    c-52.57,63.57-75.79,18.34-75.79,18.34s-39.12-45.23-67.24-80.68s-18.34-84.35-18.34-84.35c15.89,1.22,73.35-8.56,92.91-14.67    c19.56-6.11,39.12-11,63.57,3.67c24.45,14.67,6.11,63.57,6.11,63.57l51.34-36.67c62.35-45.23,58.68,44.01,58.68,44.01    c122.25-103.91,18.34-185.82,18.34-185.82c-33.01,11-56.23-11-56.23-11c-67.24-35.45-80.68-30.56-80.68-30.56    c-51.34-4.89-56.23-20.78-56.23-20.78c-37.9-45.23-89.24-46.45-89.24-46.45C-2466.75,152.91-2544.99,49-2544.99,49    c-28.12,106.36,47.68,155.26,47.68,155.26c-265.28,45.23-328.85,151.59-328.85,151.59c83.13-26.89,100.24,30.56,4.89,89.85    C-2916.63,504.99-2919.07,613.79-2919.07,613.79z M-2052.33,346.07c0,0,51.34,8.56,22,29.34    C-2059.66,396.19-2052.33,346.07-2052.33,346.07z M-2313.94,245.82c0,0,51.34,17.11,59.9,24.45c8.56,7.33,31.78,31.78,31.78,31.78    s-45.23-8.56-55.01-14.67C-2287.04,281.27-2311.49,267.83-2313.94,245.82z"/>
	</g>
	<g>
		<path class="st4" d="M-2553.44,837.7c9.33,1.66,27.74,4.74,27.74,4.74V607.72c0,0-30.8-31.27-36.78-41.44    c0,0,21.8,46.63,20.95,148.12C-2542.58,839.37-2553.44,837.7-2553.44,837.7z"/>
	</g>
	<path class="st4" d="M-2373.23,756.84c0,0,4.68-0.73,2.79,65.38c-1.69,59.19-9.38,70.3-9.38,70.3l-0.09-140.59L-2373.23,756.84z"/>
</g>
</svg>