<svg xmlns="http://www.w3.org/2000/svg" fill="none" viewBox="0 0 909 428">
  <path fill="#fff" d="M266 4a2 2 0 1 0 0-4 2 2 0 0 0 0 4m8 0a2 2 0 1 0 0-4 2 2 0 0 0 0 4m8 0a2 2 0 1 0 0-4 2 2 0 0 0 0 4m8 0a2 2 0 1 0 0-4 2 2 0 0 0 0 4m40 0a2 2 0 1 0 0-4 2 2 0 0 0 0 4m8 0a2 2 0 1 0 0-4 2 2 0 0 0 0 4m8 0a2 2 0 1 0 0-4 2 2 0 0 0 0 4m8 0a2 2 0 1 0 0-4 2 2 0 0 0 0 4m8 0a2 2 0 1 0 0-4 2 2 0 0 0 0 4m-128 8a2 2 0 1 0 0-4 2 2 0 0 0 0 4m8 0a2 2 0 1 0 0-4 2 2 0 0 0 0 4m16 0a2 2 0 1 0 0-4 2 2 0 0 0 0 4m8 0a2 2 0 1 0 0-4 2 2 0 0 0 0 4m8 0a2 2 0 1 0 0-4 2 2 0 0 0 0 4m8 0a2 2 0 1 0 0-4 2 2 0 0 0 0 4m8 0a2 2 0 1 0 0-4 2 2 0 0 0 0 4m8 0a2 2 0 1 0 0-4 2 2 0 0 0 0 4m8 0a2 2 0 1 0 0-4 2 2 0 0 0 0 4m8 0a2 2 0 1 0 0-4 2 2 0 0 0 0 4m8 0a2 2 0 1 0 0-4 2 2 0 0 0 0 4m8 0a2 2 0 1 0 0-4 2 2 0 0 0 0 4m8 0a2 2 0 1 0 0-4 2 2 0 0 0 0 4m8 0a2 2 0 1 0 0-4 2 2 0 0 0 0 4m8 0a2 2 0 1 0 0-4 2 2 0 0 0 0 4m8 0a2 2 0 1 0 0-4 2 2 0 0 0 0 4m8 0a2 2 0 1 0 0-4 2 2 0 0 0 0 4m72 0a2 2 0 1 0 0-4 2 2 0 0 0 0 4m8 0a2 2 0 1 0 0-4 2 2 0 0 0 0 4m40 0a2 2 0 1 0 0-4 2 2 0 0 0 0 4m88 0a2 2 0 1 0 0-4 2 2 0 0 0 0 4m-384 8a2 2 0 1 0 0-4 2 2 0 0 0 0 4m48 0a2 2 0 1 0 0-4 2 2 0 0 0 0 4m8 0a2 2 0 1 0 0-4 2 2 0 0 0 0 4m24 0a2 2 0 1 0 0-4 2 2 0 0 0 0 4m8 0a2 2 0 1 0 0-4 2 2 0 0 0 0 4m8 0a2 2 0 1 0 0-4 2 2 0 0 0 0 4m8 0a2 2 0 1 0 0-4 2 2 0 0 0 0 4m8 0a2 2 0 1 0 0-4 2 2 0 0 0 0 4m8 0a2 2 0 1 0 0-4 2 2 0 0 0 0 4m8 0a2 2 0 1 0 0-4 2 2 0 0 0 0 4m8 0a2 2 0 1 0 0-4 2 2 0 0 0 0 4m8 0a2 2 0 1 0 0-4 2 2 0 0 0 0 4m8 0a2 2 0 1 0 0-4 2 2 0 0 0 0 4m8 0a2 2 0 1 0 0-4 2 2 0 0 0 0 4m8 0a2 2 0 1 0 0-4 2 2 0 0 0 0 4m72 0a2 2 0 1 0 0-4 2 2 0 0 0 0 4m16 0a2 2 0 1 0 0-4 2 2 0 0 0 0 4m-272 8a2 2 0 1 0 0-4 2 2 0 0 0 0 4m8 0a2 2 0 1 0 0-4 2 2 0 0 0 0 4m8 0a2 2 0 1 0 0-4 2 2 0 0 0 0 4m16 0a2 2 0 1 0 0-4 2 2 0 0 0 0 4m8 0a2 2 0 1 0 0-4 2 2 0 0 0 0 4m8 0a2 2 0 1 0 0-4 2 2 0 0 0 0 4m8 0a2 2 0 1 0 0-4 2 2 0 0 0 0 4m8 0a2 2 0 1 0 0-4 2 2 0 0 0 0 4m48 0a2 2 0 1 0 0-4 2 2 0 0 0 0 4m8 0a2 2 0 1 0 0-4 2 2 0 0 0 0 4m8 0a2 2 0 1 0 0-4 2 2 0 0 0 0 4m8 0a2 2 0 1 0 0-4 2 2 0 0 0 0 4m8 0a2 2 0 1 0 0-4 2 2 0 0 0 0 4m8 0a2 2 0 1 0 0-4 2 2 0 0 0 0 4m8 0a2 2 0 1 0 0-4 2 2 0 0 0 0 4m8 0a2 2 0 1 0 0-4 2 2 0 0 0 0 4m8 0a2 2 0 1 0 0-4 2 2 0 0 0 0 4m8 0a2 2 0 1 0 0-4 2 2 0 0 0 0 4m160 0a2 2 0 1 0 0-4 2 2 0 0 0 0 4m56 0a2 2 0 1 0 0-4 2 2 0 0 0 0 4m8 0a2 2 0 1 0 0-4 2 2 0 0 0 0 4m8 0a2 2 0 1 0 0-4 2 2 0 0 0 0 4m8 0a2 2 0 1 0 0-4 2 2 0 0 0 0 4m8 0a2 2 0 1 0 0-4 2 2 0 0 0 0 4m8 0a2 2 0 1 0 0-4 2 2 0 0 0 0 4m8 0a2 2 0 1 0 0-4 2 2 0 0 0 0 4m48 0a2 2 0 1 0 0-4 2 2 0 0 0 0 4m8 0a2 2 0 1 0 0-4 2 2 0 0 0 0 4m16 0a2 2 0 1 0 0-4 2 2 0 0 0 0 4m-544 8a2 2 0 1 0 0-4 2 2 0 0 0 0 4m8 0a2 2 0 1 0 0-4 2 2 0 0 0 0 4m8 0a2 2 0 1 0 0-4 2 2 0 0 0 0 4m16 0a2 2 0 1 0 0-4 2 2 0 0 0 0 4m16 0a2 2 0 1 0 0-4 2 2 0 0 0 0 4m8 0a2 2 0 1 0 0-4 2 2 0 0 0 0 4m16 0a2 2 0 1 0 0-4 2 2 0 0 0 0 4m8 0a2 2 0 1 0 0-4 2 2 0 0 0 0 4m64 0a2 2 0 1 0 0-4 2 2 0 0 0 0 4m8 0a2 2 0 1 0 0-4 2 2 0 0 0 0 4m8 0a2 2 0 1 0 0-4 2 2 0 0 0 0 4m8 0a2 2 0 1 0 0-4 2 2 0 0 0 0 4m8 0a2 2 0 1 0 0-4 2 2 0 0 0 0 4m8 0a2 2 0 1 0 0-4 2 2 0 0 0 0 4m8 0a2 2 0 1 0 0-4 2 2 0 0 0 0 4m8 0a2 2 0 1 0 0-4 2 2 0 0 0 0 4m160 0a2 2 0 1 0 0-4 2 2 0 0 0 0 4m32 0a2 2 0 1 0 0-4 2 2 0 0 0 0 4m24 0a2 2 0 1 0 0-4 2 2 0 0 0 0 4m8 0a2 2 0 1 0 0-4 2 2 0 0 0 0 4m8 0a2 2 0 1 0 0-4 2 2 0 0 0 0 4m8 0a2 2 0 1 0 0-4 2 2 0 0 0 0 4m8 0a2 2 0 1 0 0-4 2 2 0 0 0 0 4m8 0a2 2 0 1 0 0-4 2 2 0 0 0 0 4m8 0a2 2 0 1 0 0-4 2 2 0 0 0 0 4m8 0a2 2 0 1 0 0-4 2 2 0 0 0 0 4m8 0a2 2 0 1 0 0-4 2 2 0 0 0 0 4m8 0a2 2 0 1 0 0-4 2 2 0 0 0 0 4m8 0a2 2 0 1 0 0-4 2 2 0 0 0 0 4m8 0a2 2 0 1 0 0-4 2 2 0 0 0 0 4m8 0a2 2 0 1 0 0-4 2 2 0 0 0 0 4m24 0a2 2 0 1 0 0-4 2 2 0 0 0 0 4M66 44a2 2 0 1 0 0-4 2 2 0 0 0 0 4m8 0a2 2 0 1 0 0-4 2 2 0 0 0 0 4m8 0a2 2 0 1 0 0-4 2 2 0 0 0 0 4m8 0a2 2 0 1 0 0-4 2 2 0 0 0 0 4m8 0a2 2 0 1 0 0-4 2 2 0 0 0 0 4m32 0a2 2 0 1 0 0-4 2 2 0 0 0 0 4m8 0a2 2 0 1 0 0-4 2 2 0 0 0 0 4m24 0a2 2 0 1 0 0-4 2 2 0 0 0 0 4m8 0a2 2 0 1 0 0-4 2 2 0 0 0 0 4m8 0a2 2 0 1 0 0-4 2 2 0 0 0 0 4m8 0a2 2 0 1 0 0-4 2 2 0 0 0 0 4m16 0a2 2 0 1 0 0-4 2 2 0 0 0 0 4m8 0a2 2 0 1 0 0-4 2 2 0 0 0 0 4m16 0a2 2 0 1 0 0-4 2 2 0 0 0 0 4m8 0a2 2 0 1 0 0-4 2 2 0 0 0 0 4m8 0a2 2 0 1 0 0-4 2 2 0 0 0 0 4m8 0a2 2 0 1 0 0-4 2 2 0 0 0 0 4m8 0a2 2 0 1 0 0-4 2 2 0 0 0 0 4m32 0a2 2 0 1 0 0-4 2 2 0 0 0 0 4m8 0a2 2 0 1 0 0-4 2 2 0 0 0 0 4m8 0a2 2 0 1 0 0-4 2 2 0 0 0 0 4m8 0a2 2 0 1 0 0-4 2 2 0 0 0 0 4m8 0a2 2 0 1 0 0-4 2 2 0 0 0 0 4m8 0a2 2 0 1 0 0-4 2 2 0 0 0 0 4m8 0a2 2 0 1 0 0-4 2 2 0 0 0 0 4m8 0a2 2 0 1 0 0-4 2 2 0 0 0 0 4m8 0a2 2 0 1 0 0-4 2 2 0 0 0 0 4m96 0a2 2 0 1 0 0-4 2 2 0 0 0 0 4m8 0a2 2 0 1 0 0-4 2 2 0 0 0 0 4m8 0a2 2 0 1 0 0-4 2 2 0 0 0 0 4m80 0a2 2 0 1 0 0-4 2 2 0 0 0 0 4m8 0a2 2 0 1 0 0-4 2 2 0 0 0 0 4m8 0a2 2 0 1 0 0-4 2 2 0 0 0 0 4m8 0a2 2 0 1 0 0-4 2 2 0 0 0 0 4m8 0a2 2 0 1 0 0-4 2 2 0 0 0 0 4m8 0a2 2 0 1 0 0-4 2 2 0 0 0 0 4m8 0a2 2 0 1 0 0-4 2 2 0 0 0 0 4m8 0a2 2 0 1 0 0-4 2 2 0 0 0 0 4m8 0a2 2 0 1 0 0-4 2 2 0 0 0 0 4m8 0a2 2 0 1 0 0-4 2 2 0 0 0 0 4m8 0a2 2 0 1 0 0-4 2 2 0 0 0 0 4m8 0a2 2 0 1 0 0-4 2 2 0 0 0 0 4m8 0a2 2 0 1 0 0-4 2 2 0 0 0 0 4m8 0a2 2 0 1 0 0-4 2 2 0 0 0 0 4m8 0a2 2 0 1 0 0-4 2 2 0 0 0 0 4m8 0a2 2 0 1 0 0-4 2 2 0 0 0 0 4m8 0a2 2 0 1 0 0-4 2 2 0 0 0 0 4m8 0a2 2 0 1 0 0-4 2 2 0 0 0 0 4m8 0a2 2 0 1 0 0-4 2 2 0 0 0 0 4m8 0a2 2 0 1 0 0-4 2 2 0 0 0 0 4m8 0a2 2 0 1 0 0-4 2 2 0 0 0 0 4m8 0a2 2 0 1 0 0-4 2 2 0 0 0 0 4m8 0a2 2 0 1 0 0-4 2 2 0 0 0 0 4m8 0a2 2 0 1 0 0-4 2 2 0 0 0 0 4m8 0a2 2 0 1 0 0-4 2 2 0 0 0 0 4m24 0a2 2 0 1 0 0-4 2 2 0 0 0 0 4M50 52a2 2 0 1 0 0-4 2 2 0 0 0 0 4m8 0a2 2 0 1 0 0-4 2 2 0 0 0 0 4m8 0a2 2 0 1 0 0-4 2 2 0 0 0 0 4m8 0a2 2 0 1 0 0-4 2 2 0 0 0 0 4m8 0a2 2 0 1 0 0-4 2 2 0 0 0 0 4m8 0a2 2 0 1 0 0-4 2 2 0 0 0 0 4m8 0a2 2 0 1 0 0-4 2 2 0 0 0 0 4m8 0a2 2 0 1 0 0-4 2 2 0 0 0 0 4m8 0a2 2 0 1 0 0-4 2 2 0 0 0 0 4m8 0a2 2 0 1 0 0-4 2 2 0 0 0 0 4m8 0a2 2 0 1 0 0-4 2 2 0 0 0 0 4m8 0a2 2 0 1 0 0-4 2 2 0 0 0 0 4m8 0a2 2 0 1 0 0-4 2 2 0 0 0 0 4m8 0a2 2 0 1 0 0-4 2 2 0 0 0 0 4m8 0a2 2 0 1 0 0-4 2 2 0 0 0 0 4m8 0a2 2 0 1 0 0-4 2 2 0 0 0 0 4m8 0a2 2 0 1 0 0-4 2 2 0 0 0 0 4m8 0a2 2 0 1 0 0-4 2 2 0 0 0 0 4m8 0a2 2 0 1 0 0-4 2 2 0 0 0 0 4m8 0a2 2 0 1 0 0-4 2 2 0 0 0 0 4m8 0a2 2 0 1 0 0-4 2 2 0 0 0 0 4m8 0a2 2 0 1 0 0-4 2 2 0 0 0 0 4m8 0a2 2 0 1 0 0-4 2 2 0 0 0 0 4m24 0a2 2 0 1 0 0-4 2 2 0 0 0 0 4m8 0a2 2 0 1 0 0-4 2 2 0 0 0 0 4m32 0a2 2 0 1 0 0-4 2 2 0 0 0 0 4m8 0a2 2 0 1 0 0-4 2 2 0 0 0 0 4m8 0a2 2 0 1 0 0-4 2 2 0 0 0 0 4m8 0a2 2 0 1 0 0-4 2 2 0 0 0 0 4m8 0a2 2 0 1 0 0-4 2 2 0 0 0 0 4m8 0a2 2 0 1 0 0-4 2 2 0 0 0 0 4m120 0a2 2 0 1 0 0-4 2 2 0 0 0 0 4m8 0a2 2 0 1 0 0-4 2 2 0 0 0 0 4m8 0a2 2 0 1 0 0-4 2 2 0 0 0 0 4m8 0a2 2 0 1 0 0-4 2 2 0 0 0 0 4m8 0a2 2 0 1 0 0-4 2 2 0 0 0 0 4m8 0a2 2 0 1 0 0-4 2 2 0 0 0 0 4m24 0a2 2 0 1 0 0-4 2 2 0 0 0 0 4m8 0a2 2 0 1 0 0-4 2 2 0 0 0 0 4m8 0a2 2 0 1 0 0-4 2 2 0 0 0 0 4m8 0a2 2 0 1 0 0-4 2 2 0 0 0 0 4m8 0a2 2 0 1 0 0-4 2 2 0 0 0 0 4m8 0a2 2 0 1 0 0-4 2 2 0 0 0 0 4m8 0a2 2 0 1 0 0-4 2 2 0 0 0 0 4m8 0a2 2 0 1 0 0-4 2 2 0 0 0 0 4m8 0a2 2 0 1 0 0-4 2 2 0 0 0 0 4m8 0a2 2 0 1 0 0-4 2 2 0 0 0 0 4m8 0a2 2 0 1 0 0-4 2 2 0 0 0 0 4m8 0a2 2 0 1 0 0-4 2 2 0 0 0 0 4m8 0a2 2 0 1 0 0-4 2 2 0 0 0 0 4m8 0a2 2 0 1 0 0-4 2 2 0 0 0 0 4m8 0a2 2 0 1 0 0-4 2 2 0 0 0 0 4m8 0a2 2 0 1 0 0-4 2 2 0 0 0 0 4m8 0a2 2 0 1 0 0-4 2 2 0 0 0 0 4m8 0a2 2 0 1 0 0-4 2 2 0 0 0 0 4m8 0a2 2 0 1 0 0-4 2 2 0 0 0 0 4m8 0a2 2 0 1 0 0-4 2 2 0 0 0 0 4m8 0a2 2 0 1 0 0-4 2 2 0 0 0 0 4m8 0a2 2 0 1 0 0-4 2 2 0 0 0 0 4m8 0a2 2 0 1 0 0-4 2 2 0 0 0 0 4m8 0a2 2 0 1 0 0-4 2 2 0 0 0 0 4m8 0a2 2 0 1 0 0-4 2 2 0 0 0 0 4m8 0a2 2 0 1 0 0-4 2 2 0 0 0 0 4m8 0a2 2 0 1 0 0-4 2 2 0 0 0 0 4m8 0a2 2 0 1 0 0-4 2 2 0 0 0 0 4m8 0a2 2 0 1 0 0-4 2 2 0 0 0 0 4m8 0a2 2 0 1 0 0-4 2 2 0 0 0 0 4m8 0a2 2 0 1 0 0-4 2 2 0 0 0 0 4m8 0a2 2 0 1 0 0-4 2 2 0 0 0 0 4m8 0a2 2 0 1 0 0-4 2 2 0 0 0 0 4m8 0a2 2 0 1 0 0-4 2 2 0 0 0 0 4m8 0a2 2 0 1 0 0-4 2 2 0 0 0 0 4m8 0a2 2 0 1 0 0-4 2 2 0 0 0 0 4m8 0a2 2 0 1 0 0-4 2 2 0 0 0 0 4M34 60a2 2 0 1 0 0-4 2 2 0 0 0 0 4m8 0a2 2 0 1 0 0-4 2 2 0 0 0 0 4m8 0a2 2 0 1 0 0-4 2 2 0 0 0 0 4m8 0a2 2 0 1 0 0-4 2 2 0 0 0 0 4m8 0a2 2 0 1 0 0-4 2 2 0 0 0 0 4m8 0a2 2 0 1 0 0-4 2 2 0 0 0 0 4m8 0a2 2 0 1 0 0-4 2 2 0 0 0 0 4m8 0a2 2 0 1 0 0-4 2 2 0 0 0 0 4m8 0a2 2 0 1 0 0-4 2 2 0 0 0 0 4m8 0a2 2 0 1 0 0-4 2 2 0 0 0 0 4m8 0a2 2 0 1 0 0-4 2 2 0 0 0 0 4m8 0a2 2 0 1 0 0-4 2 2 0 0 0 0 4m8 0a2 2 0 1 0 0-4 2 2 0 0 0 0 4m8 0a2 2 0 1 0 0-4 2 2 0 0 0 0 4m8 0a2 2 0 1 0 0-4 2 2 0 0 0 0 4m8 0a2 2 0 1 0 0-4 2 2 0 0 0 0 4m8 0a2 2 0 1 0 0-4 2 2 0 0 0 0 4m8 0a2 2 0 1 0 0-4 2 2 0 0 0 0 4m8 0a2 2 0 1 0 0-4 2 2 0 0 0 0 4m8 0a2 2 0 1 0 0-4 2 2 0 0 0 0 4m8 0a2 2 0 1 0 0-4 2 2 0 0 0 0 4m8 0a2 2 0 1 0 0-4 2 2 0 0 0 0 4m8 0a2 2 0 1 0 0-4 2 2 0 0 0 0 4m8 0a2 2 0 1 0 0-4 2 2 0 0 0 0 4m16 0a2 2 0 1 0 0-4 2 2 0 0 0 0 4m8 0a2 2 0 1 0 0-4 2 2 0 0 0 0 4m8 0a2 2 0 1 0 0-4 2 2 0 0 0 0 4m40 0a2 2 0 1 0 0-4 2 2 0 0 0 0 4m8 0a2 2 0 1 0 0-4 2 2 0 0 0 0 4m8 0a2 2 0 1 0 0-4 2 2 0 0 0 0 4m8 0a2 2 0 1 0 0-4 2 2 0 0 0 0 4m40 0a2 2 0 1 0 0-4 2 2 0 0 0 0 4m8 0a2 2 0 1 0 0-4 2 2 0 0 0 0 4m8 0a2 2 0 1 0 0-4 2 2 0 0 0 0 4m64 0a2 2 0 1 0 0-4 2 2 0 0 0 0 4m8 0a2 2 0 1 0 0-4 2 2 0 0 0 0 4m8 0a2 2 0 1 0 0-4 2 2 0 0 0 0 4m16 0a2 2 0 1 0 0-4 2 2 0 0 0 0 4m8 0a2 2 0 1 0 0-4 2 2 0 0 0 0 4m8 0a2 2 0 1 0 0-4 2 2 0 0 0 0 4m16 0a2 2 0 1 0 0-4 2 2 0 0 0 0 4m8 0a2 2 0 1 0 0-4 2 2 0 0 0 0 4m8 0a2 2 0 1 0 0-4 2 2 0 0 0 0 4m8 0a2 2 0 1 0 0-4 2 2 0 0 0 0 4m8 0a2 2 0 1 0 0-4 2 2 0 0 0 0 4m8 0a2 2 0 1 0 0-4 2 2 0 0 0 0 4m8 0a2 2 0 1 0 0-4 2 2 0 0 0 0 4m8 0a2 2 0 1 0 0-4 2 2 0 0 0 0 4m8 0a2 2 0 1 0 0-4 2 2 0 0 0 0 4m8 0a2 2 0 1 0 0-4 2 2 0 0 0 0 4m8 0a2 2 0 1 0 0-4 2 2 0 0 0 0 4m8 0a2 2 0 1 0 0-4 2 2 0 0 0 0 4m8 0a2 2 0 1 0 0-4 2 2 0 0 0 0 4m8 0a2 2 0 1 0 0-4 2 2 0 0 0 0 4m8 0a2 2 0 1 0 0-4 2 2 0 0 0 0 4m8 0a2 2 0 1 0 0-4 2 2 0 0 0 0 4m8 0a2 2 0 1 0 0-4 2 2 0 0 0 0 4m8 0a2 2 0 1 0 0-4 2 2 0 0 0 0 4m8 0a2 2 0 1 0 0-4 2 2 0 0 0 0 4m8 0a2 2 0 1 0 0-4 2 2 0 0 0 0 4m8 0a2 2 0 1 0 0-4 2 2 0 0 0 0 4m8 0a2 2 0 1 0 0-4 2 2 0 0 0 0 4m8 0a2 2 0 1 0 0-4 2 2 0 0 0 0 4m8 0a2 2 0 1 0 0-4 2 2 0 0 0 0 4m8 0a2 2 0 1 0 0-4 2 2 0 0 0 0 4m8 0a2 2 0 1 0 0-4 2 2 0 0 0 0 4m8 0a2 2 0 1 0 0-4 2 2 0 0 0 0 4m8 0a2 2 0 1 0 0-4 2 2 0 0 0 0 4m8 0a2 2 0 1 0 0-4 2 2 0 0 0 0 4m8 0a2 2 0 1 0 0-4 2 2 0 0 0 0 4m8 0a2 2 0 1 0 0-4 2 2 0 0 0 0 4m8 0a2 2 0 1 0 0-4 2 2 0 0 0 0 4m8 0a2 2 0 1 0 0-4 2 2 0 0 0 0 4m8 0a2 2 0 1 0 0-4 2 2 0 0 0 0 4m8 0a2 2 0 1 0 0-4 2 2 0 0 0 0 4m8 0a2 2 0 1 0 0-4 2 2 0 0 0 0 4m8 0a2 2 0 1 0 0-4 2 2 0 0 0 0 4m8 0a2 2 0 1 0 0-4 2 2 0 0 0 0 4m8 0a2 2 0 1 0 0-4 2 2 0 0 0 0 4m16 0a2 2 0 1 0 0-4 2 2 0 0 0 0 4M26 68a2 2 0 1 0 0-4 2 2 0 0 0 0 4m8 0a2 2 0 1 0 0-4 2 2 0 0 0 0 4m8 0a2 2 0 1 0 0-4 2 2 0 0 0 0 4m8 0a2 2 0 1 0 0-4 2 2 0 0 0 0 4m8 0a2 2 0 1 0 0-4 2 2 0 0 0 0 4m8 0a2 2 0 1 0 0-4 2 2 0 0 0 0 4m8 0a2 2 0 1 0 0-4 2 2 0 0 0 0 4m8 0a2 2 0 1 0 0-4 2 2 0 0 0 0 4m8 0a2 2 0 1 0 0-4 2 2 0 0 0 0 4m8 0a2 2 0 1 0 0-4 2 2 0 0 0 0 4m8 0a2 2 0 1 0 0-4 2 2 0 0 0 0 4m8 0a2 2 0 1 0 0-4 2 2 0 0 0 0 4m8 0a2 2 0 1 0 0-4 2 2 0 0 0 0 4m8 0a2 2 0 1 0 0-4 2 2 0 0 0 0 4m8 0a2 2 0 1 0 0-4 2 2 0 0 0 0 4m8 0a2 2 0 1 0 0-4 2 2 0 0 0 0 4m8 0a2 2 0 1 0 0-4 2 2 0 0 0 0 4m8 0a2 2 0 1 0 0-4 2 2 0 0 0 0 4m8 0a2 2 0 1 0 0-4 2 2 0 0 0 0 4m8 0a2 2 0 1 0 0-4 2 2 0 0 0 0 4m8 0a2 2 0 1 0 0-4 2 2 0 0 0 0 4m40 0a2 2 0 1 0 0-4 2 2 0 0 0 0 4m24 0a2 2 0 1 0 0-4 2 2 0 0 0 0 4m40 0a2 2 0 1 0 0-4 2 2 0 0 0 0 4m8 0a2 2 0 1 0 0-4 2 2 0 0 0 0 4m8 0a2 2 0 1 0 0-4 2 2 0 0 0 0 4m112 0a2 2 0 1 0 0-4 2 2 0 0 0 0 4m8 0a2 2 0 1 0 0-4 2 2 0 0 0 0 4m8 0a2 2 0 1 0 0-4 2 2 0 0 0 0 4m8 0a2 2 0 1 0 0-4 2 2 0 0 0 0 4m16 0a2 2 0 1 0 0-4 2 2 0 0 0 0 4m8 0a2 2 0 1 0 0-4 2 2 0 0 0 0 4m8 0a2 2 0 1 0 0-4 2 2 0 0 0 0 4m8 0a2 2 0 1 0 0-4 2 2 0 0 0 0 4m8 0a2 2 0 1 0 0-4 2 2 0 0 0 0 4m8 0a2 2 0 1 0 0-4 2 2 0 0 0 0 4m8 0a2 2 0 1 0 0-4 2 2 0 0 0 0 4m8 0a2 2 0 1 0 0-4 2 2 0 0 0 0 4m8 0a2 2 0 1 0 0-4 2 2 0 0 0 0 4m8 0a2 2 0 1 0 0-4 2 2 0 0 0 0 4m8 0a2 2 0 1 0 0-4 2 2 0 0 0 0 4m8 0a2 2 0 1 0 0-4 2 2 0 0 0 0 4m8 0a2 2 0 1 0 0-4 2 2 0 0 0 0 4m8 0a2 2 0 1 0 0-4 2 2 0 0 0 0 4m8 0a2 2 0 1 0 0-4 2 2 0 0 0 0 4m8 0a2 2 0 1 0 0-4 2 2 0 0 0 0 4m8 0a2 2 0 1 0 0-4 2 2 0 0 0 0 4m8 0a2 2 0 1 0 0-4 2 2 0 0 0 0 4m8 0a2 2 0 1 0 0-4 2 2 0 0 0 0 4m8 0a2 2 0 1 0 0-4 2 2 0 0 0 0 4m8 0a2 2 0 1 0 0-4 2 2 0 0 0 0 4m8 0a2 2 0 1 0 0-4 2 2 0 0 0 0 4m8 0a2 2 0 1 0 0-4 2 2 0 0 0 0 4m8 0a2 2 0 1 0 0-4 2 2 0 0 0 0 4m8 0a2 2 0 1 0 0-4 2 2 0 0 0 0 4m8 0a2 2 0 1 0 0-4 2 2 0 0 0 0 4m8 0a2 2 0 1 0 0-4 2 2 0 0 0 0 4m8 0a2 2 0 1 0 0-4 2 2 0 0 0 0 4m8 0a2 2 0 1 0 0-4 2 2 0 0 0 0 4m8 0a2 2 0 1 0 0-4 2 2 0 0 0 0 4m8 0a2 2 0 1 0 0-4 2 2 0 0 0 0 4m8 0a2 2 0 1 0 0-4 2 2 0 0 0 0 4m8 0a2 2 0 1 0 0-4 2 2 0 0 0 0 4m8 0a2 2 0 1 0 0-4 2 2 0 0 0 0 4m8 0a2 2 0 1 0 0-4 2 2 0 0 0 0 4m8 0a2 2 0 1 0 0-4 2 2 0 0 0 0 4m8 0a2 2 0 1 0 0-4 2 2 0 0 0 0 4m8 0a2 2 0 1 0 0-4 2 2 0 0 0 0 4m8 0a2 2 0 1 0 0-4 2 2 0 0 0 0 4m8 0a2 2 0 1 0 0-4 2 2 0 0 0 0 4m8 0a2 2 0 1 0 0-4 2 2 0 0 0 0 4m8 0a2 2 0 1 0 0-4 2 2 0 0 0 0 4m8 0a2 2 0 1 0 0-4 2 2 0 0 0 0 4m8 0a2 2 0 1 0 0-4 2 2 0 0 0 0 4m8 0a2 2 0 1 0 0-4 2 2 0 0 0 0 4M26 76a2 2 0 1 0 0-4 2 2 0 0 0 0 4m16 0a2 2 0 1 0 0-4 2 2 0 0 0 0 4m8 0a2 2 0 1 0 0-4 2 2 0 0 0 0 4m24 0a2 2 0 1 0 0-4 2 2 0 0 0 0 4m8 0a2 2 0 1 0 0-4 2 2 0 0 0 0 4m8 0a2 2 0 1 0 0-4 2 2 0 0 0 0 4m8 0a2 2 0 1 0 0-4 2 2 0 0 0 0 4m8 0a2 2 0 1 0 0-4 2 2 0 0 0 0 4m8 0a2 2 0 1 0 0-4 2 2 0 0 0 0 4m8 0a2 2 0 1 0 0-4 2 2 0 0 0 0 4m8 0a2 2 0 1 0 0-4 2 2 0 0 0 0 4m8 0a2 2 0 1 0 0-4 2 2 0 0 0 0 4m8 0a2 2 0 1 0 0-4 2 2 0 0 0 0 4m8 0a2 2 0 1 0 0-4 2 2 0 0 0 0 4m8 0a2 2 0 1 0 0-4 2 2 0 0 0 0 4m8 0a2 2 0 1 0 0-4 2 2 0 0 0 0 4m8 0a2 2 0 1 0 0-4 2 2 0 0 0 0 4m48 0a2 2 0 1 0 0-4 2 2 0 0 0 0 4m8 0a2 2 0 1 0 0-4 2 2 0 0 0 0 4m184 0a2 2 0 1 0 0-4 2 2 0 0 0 0 4m8 0a2 2 0 1 0 0-4 2 2 0 0 0 0 4m8 0a2 2 0 1 0 0-4 2 2 0 0 0 0 4m8 0a2 2 0 1 0 0-4 2 2 0 0 0 0 4m16 0a2 2 0 1 0 0-4 2 2 0 0 0 0 4m16 0a2 2 0 1 0 0-4 2 2 0 0 0 0 4m8 0a2 2 0 1 0 0-4 2 2 0 0 0 0 4m8 0a2 2 0 1 0 0-4 2 2 0 0 0 0 4m8 0a2 2 0 1 0 0-4 2 2 0 0 0 0 4m8 0a2 2 0 1 0 0-4 2 2 0 0 0 0 4m8 0a2 2 0 1 0 0-4 2 2 0 0 0 0 4m8 0a2 2 0 1 0 0-4 2 2 0 0 0 0 4m8 0a2 2 0 1 0 0-4 2 2 0 0 0 0 4m8 0a2 2 0 1 0 0-4 2 2 0 0 0 0 4m8 0a2 2 0 1 0 0-4 2 2 0 0 0 0 4m8 0a2 2 0 1 0 0-4 2 2 0 0 0 0 4m8 0a2 2 0 1 0 0-4 2 2 0 0 0 0 4m8 0a2 2 0 1 0 0-4 2 2 0 0 0 0 4m8 0a2 2 0 1 0 0-4 2 2 0 0 0 0 4m8 0a2 2 0 1 0 0-4 2 2 0 0 0 0 4m8 0a2 2 0 1 0 0-4 2 2 0 0 0 0 4m8 0a2 2 0 1 0 0-4 2 2 0 0 0 0 4m8 0a2 2 0 1 0 0-4 2 2 0 0 0 0 4m8 0a2 2 0 1 0 0-4 2 2 0 0 0 0 4m8 0a2 2 0 1 0 0-4 2 2 0 0 0 0 4m8 0a2 2 0 1 0 0-4 2 2 0 0 0 0 4m8 0a2 2 0 1 0 0-4 2 2 0 0 0 0 4m8 0a2 2 0 1 0 0-4 2 2 0 0 0 0 4m8 0a2 2 0 1 0 0-4 2 2 0 0 0 0 4m8 0a2 2 0 1 0 0-4 2 2 0 0 0 0 4m8 0a2 2 0 1 0 0-4 2 2 0 0 0 0 4m8 0a2 2 0 1 0 0-4 2 2 0 0 0 0 4m8 0a2 2 0 1 0 0-4 2 2 0 0 0 0 4m8 0a2 2 0 1 0 0-4 2 2 0 0 0 0 4m8 0a2 2 0 1 0 0-4 2 2 0 0 0 0 4m8 0a2 2 0 1 0 0-4 2 2 0 0 0 0 4m8 0a2 2 0 1 0 0-4 2 2 0 0 0 0 4m8 0a2 2 0 1 0 0-4 2 2 0 0 0 0 4m8 0a2 2 0 1 0 0-4 2 2 0 0 0 0 4m8 0a2 2 0 1 0 0-4 2 2 0 0 0 0 4m8 0a2 2 0 1 0 0-4 2 2 0 0 0 0 4m8 0a2 2 0 1 0 0-4 2 2 0 0 0 0 4m24 0a2 2 0 1 0 0-4 2 2 0 0 0 0 4M26 84a2 2 0 1 0 0-4 2 2 0 0 0 0 4m8 0a2 2 0 1 0 0-4 2 2 0 0 0 0 4m48 0a2 2 0 1 0 0-4 2 2 0 0 0 0 4m8 0a2 2 0 1 0 0-4 2 2 0 0 0 0 4m8 0a2 2 0 1 0 0-4 2 2 0 0 0 0 4m8 0a2 2 0 1 0 0-4 2 2 0 0 0 0 4m8 0a2 2 0 1 0 0-4 2 2 0 0 0 0 4m8 0a2 2 0 1 0 0-4 2 2 0 0 0 0 4m8 0a2 2 0 1 0 0-4 2 2 0 0 0 0 4m8 0a2 2 0 1 0 0-4 2 2 0 0 0 0 4m8 0a2 2 0 1 0 0-4 2 2 0 0 0 0 4m8 0a2 2 0 1 0 0-4 2 2 0 0 0 0 4m8 0a2 2 0 1 0 0-4 2 2 0 0 0 0 4m8 0a2 2 0 1 0 0-4 2 2 0 0 0 0 4m8 0a2 2 0 1 0 0-4 2 2 0 0 0 0 4m48 0a2 2 0 1 0 0-4 2 2 0 0 0 0 4m8 0a2 2 0 1 0 0-4 2 2 0 0 0 0 4m8 0a2 2 0 1 0 0-4 2 2 0 0 0 0 4m8 0a2 2 0 1 0 0-4 2 2 0 0 0 0 4m144 0a2 2 0 1 0 0-4 2 2 0 0 0 0 4m40 0a2 2 0 1 0 0-4 2 2 0 0 0 0 4m8 0a2 2 0 1 0 0-4 2 2 0 0 0 0 4m16 0a2 2 0 1 0 0-4 2 2 0 0 0 0 4m8 0a2 2 0 1 0 0-4 2 2 0 0 0 0 4m8 0a2 2 0 1 0 0-4 2 2 0 0 0 0 4m8 0a2 2 0 1 0 0-4 2 2 0 0 0 0 4m8 0a2 2 0 1 0 0-4 2 2 0 0 0 0 4m8 0a2 2 0 1 0 0-4 2 2 0 0 0 0 4m8 0a2 2 0 1 0 0-4 2 2 0 0 0 0 4m8 0a2 2 0 1 0 0-4 2 2 0 0 0 0 4m8 0a2 2 0 1 0 0-4 2 2 0 0 0 0 4m8 0a2 2 0 1 0 0-4 2 2 0 0 0 0 4m8 0a2 2 0 1 0 0-4 2 2 0 0 0 0 4m8 0a2 2 0 1 0 0-4 2 2 0 0 0 0 4m8 0a2 2 0 1 0 0-4 2 2 0 0 0 0 4m8 0a2 2 0 1 0 0-4 2 2 0 0 0 0 4m8 0a2 2 0 1 0 0-4 2 2 0 0 0 0 4m8 0a2 2 0 1 0 0-4 2 2 0 0 0 0 4m8 0a2 2 0 1 0 0-4 2 2 0 0 0 0 4m8 0a2 2 0 1 0 0-4 2 2 0 0 0 0 4m8 0a2 2 0 1 0 0-4 2 2 0 0 0 0 4m8 0a2 2 0 1 0 0-4 2 2 0 0 0 0 4m8 0a2 2 0 1 0 0-4 2 2 0 0 0 0 4m8 0a2 2 0 1 0 0-4 2 2 0 0 0 0 4m8 0a2 2 0 1 0 0-4 2 2 0 0 0 0 4m8 0a2 2 0 1 0 0-4 2 2 0 0 0 0 4m8 0a2 2 0 1 0 0-4 2 2 0 0 0 0 4m8 0a2 2 0 1 0 0-4 2 2 0 0 0 0 4m8 0a2 2 0 1 0 0-4 2 2 0 0 0 0 4m8 0a2 2 0 1 0 0-4 2 2 0 0 0 0 4m8 0a2 2 0 1 0 0-4 2 2 0 0 0 0 4m8 0a2 2 0 1 0 0-4 2 2 0 0 0 0 4m8 0a2 2 0 1 0 0-4 2 2 0 0 0 0 4m8 0a2 2 0 1 0 0-4 2 2 0 0 0 0 4m8 0a2 2 0 1 0 0-4 2 2 0 0 0 0 4m8 0a2 2 0 1 0 0-4 2 2 0 0 0 0 4m8 0a2 2 0 1 0 0-4 2 2 0 0 0 0 4m8 0a2 2 0 1 0 0-4 2 2 0 0 0 0 4m48 0a2 2 0 1 0 0-4 2 2 0 0 0 0 4m8 0a2 2 0 1 0 0-4 2 2 0 0 0 0 4M2 92a2 2 0 1 0 0-4 2 2 0 0 0 0 4m80 0a2 2 0 1 0 0-4 2 2 0 0 0 0 4m8 0a2 2 0 1 0 0-4 2 2 0 0 0 0 4m8 0a2 2 0 1 0 0-4 2 2 0 0 0 0 4m8 0a2 2 0 1 0 0-4 2 2 0 0 0 0 4m8 0a2 2 0 1 0 0-4 2 2 0 0 0 0 4m8 0a2 2 0 1 0 0-4 2 2 0 0 0 0 4m8 0a2 2 0 1 0 0-4 2 2 0 0 0 0 4m8 0a2 2 0 1 0 0-4 2 2 0 0 0 0 4m8 0a2 2 0 1 0 0-4 2 2 0 0 0 0 4m8 0a2 2 0 1 0 0-4 2 2 0 0 0 0 4m8 0a2 2 0 1 0 0-4 2 2 0 0 0 0 4m8 0a2 2 0 1 0 0-4 2 2 0 0 0 0 4m8 0a2 2 0 1 0 0-4 2 2 0 0 0 0 4m8 0a2 2 0 1 0 0-4 2 2 0 0 0 0 4m8 0a2 2 0 1 0 0-4 2 2 0 0 0 0 4m16 0a2 2 0 1 0 0-4 2 2 0 0 0 0 4m8 0a2 2 0 1 0 0-4 2 2 0 0 0 0 4m8 0a2 2 0 1 0 0-4 2 2 0 0 0 0 4m8 0a2 2 0 1 0 0-4 2 2 0 0 0 0 4m8 0a2 2 0 1 0 0-4 2 2 0 0 0 0 4m8 0a2 2 0 1 0 0-4 2 2 0 0 0 0 4m8 0a2 2 0 1 0 0-4 2 2 0 0 0 0 4m128 0a2 2 0 1 0 0-4 2 2 0 0 0 0 4m8 0a2 2 0 1 0 0-4 2 2 0 0 0 0 4m32 0a2 2 0 1 0 0-4 2 2 0 0 0 0 4m8 0a2 2 0 1 0 0-4 2 2 0 0 0 0 4m24 0a2 2 0 1 0 0-4 2 2 0 0 0 0 4m8 0a2 2 0 1 0 0-4 2 2 0 0 0 0 4m8 0a2 2 0 1 0 0-4 2 2 0 0 0 0 4m8 0a2 2 0 1 0 0-4 2 2 0 0 0 0 4m8 0a2 2 0 1 0 0-4 2 2 0 0 0 0 4m8 0a2 2 0 1 0 0-4 2 2 0 0 0 0 4m8 0a2 2 0 1 0 0-4 2 2 0 0 0 0 4m8 0a2 2 0 1 0 0-4 2 2 0 0 0 0 4m8 0a2 2 0 1 0 0-4 2 2 0 0 0 0 4m8 0a2 2 0 1 0 0-4 2 2 0 0 0 0 4m8 0a2 2 0 1 0 0-4 2 2 0 0 0 0 4m8 0a2 2 0 1 0 0-4 2 2 0 0 0 0 4m8 0a2 2 0 1 0 0-4 2 2 0 0 0 0 4m8 0a2 2 0 1 0 0-4 2 2 0 0 0 0 4m8 0a2 2 0 1 0 0-4 2 2 0 0 0 0 4m8 0a2 2 0 1 0 0-4 2 2 0 0 0 0 4m8 0a2 2 0 1 0 0-4 2 2 0 0 0 0 4m8 0a2 2 0 1 0 0-4 2 2 0 0 0 0 4m8 0a2 2 0 1 0 0-4 2 2 0 0 0 0 4m8 0a2 2 0 1 0 0-4 2 2 0 0 0 0 4m8 0a2 2 0 1 0 0-4 2 2 0 0 0 0 4m8 0a2 2 0 1 0 0-4 2 2 0 0 0 0 4m8 0a2 2 0 1 0 0-4 2 2 0 0 0 0 4m8 0a2 2 0 1 0 0-4 2 2 0 0 0 0 4m8 0a2 2 0 1 0 0-4 2 2 0 0 0 0 4m8 0a2 2 0 1 0 0-4 2 2 0 0 0 0 4m8 0a2 2 0 1 0 0-4 2 2 0 0 0 0 4m8 0a2 2 0 1 0 0-4 2 2 0 0 0 0 4m8 0a2 2 0 1 0 0-4 2 2 0 0 0 0 4m8 0a2 2 0 1 0 0-4 2 2 0 0 0 0 4m8 0a2 2 0 1 0 0-4 2 2 0 0 0 0 4m8 0a2 2 0 1 0 0-4 2 2 0 0 0 0 4m8 0a2 2 0 1 0 0-4 2 2 0 0 0 0 4m8 0a2 2 0 1 0 0-4 2 2 0 0 0 0 4m8 0a2 2 0 1 0 0-4 2 2 0 0 0 0 4m8 0a2 2 0 1 0 0-4 2 2 0 0 0 0 4m56 0a2 2 0 1 0 0-4 2 2 0 0 0 0 4m8 0a2 2 0 1 0 0-4 2 2 0 0 0 0 4m-720 8a2 2 0 1 0 0-4 2 2 0 0 0 0 4m8 0a2 2 0 1 0 0-4 2 2 0 0 0 0 4m8 0a2 2 0 1 0 0-4 2 2 0 0 0 0 4m8 0a2 2 0 1 0 0-4 2 2 0 0 0 0 4m8 0a2 2 0 1 0 0-4 2 2 0 0 0 0 4m8 0a2 2 0 1 0 0-4 2 2 0 0 0 0 4m8 0a2 2 0 1 0 0-4 2 2 0 0 0 0 4m8 0a2 2 0 1 0 0-4 2 2 0 0 0 0 4m8 0a2 2 0 1 0 0-4 2 2 0 0 0 0 4m8 0a2 2 0 1 0 0-4 2 2 0 0 0 0 4m8 0a2 2 0 1 0 0-4 2 2 0 0 0 0 4m8 0a2 2 0 1 0 0-4 2 2 0 0 0 0 4m8 0a2 2 0 1 0 0-4 2 2 0 0 0 0 4m8 0a2 2 0 1 0 0-4 2 2 0 0 0 0 4m8 0a2 2 0 1 0 0-4 2 2 0 0 0 0 4m16 0a2 2 0 1 0 0-4 2 2 0 0 0 0 4m8 0a2 2 0 1 0 0-4 2 2 0 0 0 0 4m8 0a2 2 0 1 0 0-4 2 2 0 0 0 0 4m8 0a2 2 0 1 0 0-4 2 2 0 0 0 0 4m8 0a2 2 0 1 0 0-4 2 2 0 0 0 0 4m8 0a2 2 0 1 0 0-4 2 2 0 0 0 0 4m8 0a2 2 0 1 0 0-4 2 2 0 0 0 0 4m136 0a2 2 0 1 0 0-4 2 2 0 0 0 0 4m8 0a2 2 0 1 0 0-4 2 2 0 0 0 0 4m16 0a2 2 0 1 0 0-4 2 2 0 0 0 0 4m8 0a2 2 0 1 0 0-4 2 2 0 0 0 0 4m8 0a2 2 0 1 0 0-4 2 2 0 0 0 0 4m8 0a2 2 0 1 0 0-4 2 2 0 0 0 0 4m16 0a2 2 0 1 0 0-4 2 2 0 0 0 0 4m8 0a2 2 0 1 0 0-4 2 2 0 0 0 0 4m8 0a2 2 0 1 0 0-4 2 2 0 0 0 0 4m8 0a2 2 0 1 0 0-4 2 2 0 0 0 0 4m8 0a2 2 0 1 0 0-4 2 2 0 0 0 0 4m8 0a2 2 0 1 0 0-4 2 2 0 0 0 0 4m8 0a2 2 0 1 0 0-4 2 2 0 0 0 0 4m8 0a2 2 0 1 0 0-4 2 2 0 0 0 0 4m8 0a2 2 0 1 0 0-4 2 2 0 0 0 0 4m8 0a2 2 0 1 0 0-4 2 2 0 0 0 0 4m8 0a2 2 0 1 0 0-4 2 2 0 0 0 0 4m8 0a2 2 0 1 0 0-4 2 2 0 0 0 0 4m8 0a2 2 0 1 0 0-4 2 2 0 0 0 0 4m8 0a2 2 0 1 0 0-4 2 2 0 0 0 0 4m8 0a2 2 0 1 0 0-4 2 2 0 0 0 0 4m8 0a2 2 0 1 0 0-4 2 2 0 0 0 0 4m8 0a2 2 0 1 0 0-4 2 2 0 0 0 0 4m8 0a2 2 0 1 0 0-4 2 2 0 0 0 0 4m8 0a2 2 0 1 0 0-4 2 2 0 0 0 0 4m8 0a2 2 0 1 0 0-4 2 2 0 0 0 0 4m8 0a2 2 0 1 0 0-4 2 2 0 0 0 0 4m8 0a2 2 0 1 0 0-4 2 2 0 0 0 0 4m8 0a2 2 0 1 0 0-4 2 2 0 0 0 0 4m8 0a2 2 0 1 0 0-4 2 2 0 0 0 0 4m8 0a2 2 0 1 0 0-4 2 2 0 0 0 0 4m8 0a2 2 0 1 0 0-4 2 2 0 0 0 0 4m8 0a2 2 0 1 0 0-4 2 2 0 0 0 0 4m8 0a2 2 0 1 0 0-4 2 2 0 0 0 0 4m8 0a2 2 0 1 0 0-4 2 2 0 0 0 0 4m8 0a2 2 0 1 0 0-4 2 2 0 0 0 0 4m8 0a2 2 0 1 0 0-4 2 2 0 0 0 0 4m8 0a2 2 0 1 0 0-4 2 2 0 0 0 0 4m8 0a2 2 0 1 0 0-4 2 2 0 0 0 0 4m8 0a2 2 0 1 0 0-4 2 2 0 0 0 0 4m8 0a2 2 0 1 0 0-4 2 2 0 0 0 0 4m8 0a2 2 0 1 0 0-4 2 2 0 0 0 0 4m8 0a2 2 0 1 0 0-4 2 2 0 0 0 0 4m8 0a2 2 0 1 0 0-4 2 2 0 0 0 0 4m8 0a2 2 0 1 0 0-4 2 2 0 0 0 0 4m40 0a2 2 0 1 0 0-4 2 2 0 0 0 0 4m-712 8a2 2 0 1 0 0-4 2 2 0 0 0 0 4m8 0a2 2 0 1 0 0-4 2 2 0 0 0 0 4m16 0a2 2 0 1 0 0-4 2 2 0 0 0 0 4m8 0a2 2 0 1 0 0-4 2 2 0 0 0 0 4m8 0a2 2 0 1 0 0-4 2 2 0 0 0 0 4m8 0a2 2 0 1 0 0-4 2 2 0 0 0 0 4m8 0a2 2 0 1 0 0-4 2 2 0 0 0 0 4m8 0a2 2 0 1 0 0-4 2 2 0 0 0 0 4m8 0a2 2 0 1 0 0-4 2 2 0 0 0 0 4m8 0a2 2 0 1 0 0-4 2 2 0 0 0 0 4m8 0a2 2 0 1 0 0-4 2 2 0 0 0 0 4m8 0a2 2 0 1 0 0-4 2 2 0 0 0 0 4m8 0a2 2 0 1 0 0-4 2 2 0 0 0 0 4m8 0a2 2 0 1 0 0-4 2 2 0 0 0 0 4m8 0a2 2 0 1 0 0-4 2 2 0 0 0 0 4m8 0a2 2 0 1 0 0-4 2 2 0 0 0 0 4m8 0a2 2 0 1 0 0-4 2 2 0 0 0 0 4m16 0a2 2 0 1 0 0-4 2 2 0 0 0 0 4m16 0a2 2 0 1 0 0-4 2 2 0 0 0 0 4m152 0a2 2 0 1 0 0-4 2 2 0 0 0 0 4m8 0a2 2 0 1 0 0-4 2 2 0 0 0 0 4m8 0a2 2 0 1 0 0-4 2 2 0 0 0 0 4m8 0a2 2 0 1 0 0-4 2 2 0 0 0 0 4m8 0a2 2 0 1 0 0-4 2 2 0 0 0 0 4m8 0a2 2 0 1 0 0-4 2 2 0 0 0 0 4m8 0a2 2 0 1 0 0-4 2 2 0 0 0 0 4m8 0a2 2 0 1 0 0-4 2 2 0 0 0 0 4m8 0a2 2 0 1 0 0-4 2 2 0 0 0 0 4m8 0a2 2 0 1 0 0-4 2 2 0 0 0 0 4m8 0a2 2 0 1 0 0-4 2 2 0 0 0 0 4m8 0a2 2 0 1 0 0-4 2 2 0 0 0 0 4m8 0a2 2 0 1 0 0-4 2 2 0 0 0 0 4m8 0a2 2 0 1 0 0-4 2 2 0 0 0 0 4m8 0a2 2 0 1 0 0-4 2 2 0 0 0 0 4m8 0a2 2 0 1 0 0-4 2 2 0 0 0 0 4m8 0a2 2 0 1 0 0-4 2 2 0 0 0 0 4m8 0a2 2 0 1 0 0-4 2 2 0 0 0 0 4m8 0a2 2 0 1 0 0-4 2 2 0 0 0 0 4m8 0a2 2 0 1 0 0-4 2 2 0 0 0 0 4m8 0a2 2 0 1 0 0-4 2 2 0 0 0 0 4m8 0a2 2 0 1 0 0-4 2 2 0 0 0 0 4m8 0a2 2 0 1 0 0-4 2 2 0 0 0 0 4m8 0a2 2 0 1 0 0-4 2 2 0 0 0 0 4m8 0a2 2 0 1 0 0-4 2 2 0 0 0 0 4m8 0a2 2 0 1 0 0-4 2 2 0 0 0 0 4m8 0a2 2 0 1 0 0-4 2 2 0 0 0 0 4m8 0a2 2 0 1 0 0-4 2 2 0 0 0 0 4m8 0a2 2 0 1 0 0-4 2 2 0 0 0 0 4m8 0a2 2 0 1 0 0-4 2 2 0 0 0 0 4m8 0a2 2 0 1 0 0-4 2 2 0 0 0 0 4m8 0a2 2 0 1 0 0-4 2 2 0 0 0 0 4m8 0a2 2 0 1 0 0-4 2 2 0 0 0 0 4m8 0a2 2 0 1 0 0-4 2 2 0 0 0 0 4m8 0a2 2 0 1 0 0-4 2 2 0 0 0 0 4m8 0a2 2 0 1 0 0-4 2 2 0 0 0 0 4m8 0a2 2 0 1 0 0-4 2 2 0 0 0 0 4m8 0a2 2 0 1 0 0-4 2 2 0 0 0 0 4m8 0a2 2 0 1 0 0-4 2 2 0 0 0 0 4m8 0a2 2 0 1 0 0-4 2 2 0 0 0 0 4m8 0a2 2 0 1 0 0-4 2 2 0 0 0 0 4m8 0a2 2 0 1 0 0-4 2 2 0 0 0 0 4m8 0a2 2 0 1 0 0-4 2 2 0 0 0 0 4m8 0a2 2 0 1 0 0-4 2 2 0 0 0 0 4m8 0a2 2 0 1 0 0-4 2 2 0 0 0 0 4m-680 8a2 2 0 1 0 0-4 2 2 0 0 0 0 4m8 0a2 2 0 1 0 0-4 2 2 0 0 0 0 4m8 0a2 2 0 1 0 0-4 2 2 0 0 0 0 4m8 0a2 2 0 1 0 0-4 2 2 0 0 0 0 4m8 0a2 2 0 1 0 0-4 2 2 0 0 0 0 4m8 0a2 2 0 1 0 0-4 2 2 0 0 0 0 4m8 0a2 2 0 1 0 0-4 2 2 0 0 0 0 4m8 0a2 2 0 1 0 0-4 2 2 0 0 0 0 4m8 0a2 2 0 1 0 0-4 2 2 0 0 0 0 4m8 0a2 2 0 1 0 0-4 2 2 0 0 0 0 4m8 0a2 2 0 1 0 0-4 2 2 0 0 0 0 4m8 0a2 2 0 1 0 0-4 2 2 0 0 0 0 4m16 0a2 2 0 1 0 0-4 2 2 0 0 0 0 4m8 0a2 2 0 1 0 0-4 2 2 0 0 0 0 4m8 0a2 2 0 1 0 0-4 2 2 0 0 0 0 4m8 0a2 2 0 1 0 0-4 2 2 0 0 0 0 4m8 0a2 2 0 1 0 0-4 2 2 0 0 0 0 4m8 0a2 2 0 1 0 0-4 2 2 0 0 0 0 4m32 0a2 2 0 1 0 0-4 2 2 0 0 0 0 4m144 0a2 2 0 1 0 0-4 2 2 0 0 0 0 4m8 0a2 2 0 1 0 0-4 2 2 0 0 0 0 4m8 0a2 2 0 1 0 0-4 2 2 0 0 0 0 4m8 0a2 2 0 1 0 0-4 2 2 0 0 0 0 4m16 0a2 2 0 1 0 0-4 2 2 0 0 0 0 4m8 0a2 2 0 1 0 0-4 2 2 0 0 0 0 4m16 0a2 2 0 1 0 0-4 2 2 0 0 0 0 4m8 0a2 2 0 1 0 0-4 2 2 0 0 0 0 4m8 0a2 2 0 1 0 0-4 2 2 0 0 0 0 4m8 0a2 2 0 1 0 0-4 2 2 0 0 0 0 4m8 0a2 2 0 1 0 0-4 2 2 0 0 0 0 4m16 0a2 2 0 1 0 0-4 2 2 0 0 0 0 4m8 0a2 2 0 1 0 0-4 2 2 0 0 0 0 4m8 0a2 2 0 1 0 0-4 2 2 0 0 0 0 4m8 0a2 2 0 1 0 0-4 2 2 0 0 0 0 4m8 0a2 2 0 1 0 0-4 2 2 0 0 0 0 4m8 0a2 2 0 1 0 0-4 2 2 0 0 0 0 4m8 0a2 2 0 1 0 0-4 2 2 0 0 0 0 4m8 0a2 2 0 1 0 0-4 2 2 0 0 0 0 4m8 0a2 2 0 1 0 0-4 2 2 0 0 0 0 4m8 0a2 2 0 1 0 0-4 2 2 0 0 0 0 4m8 0a2 2 0 1 0 0-4 2 2 0 0 0 0 4m8 0a2 2 0 1 0 0-4 2 2 0 0 0 0 4m8 0a2 2 0 1 0 0-4 2 2 0 0 0 0 4m8 0a2 2 0 1 0 0-4 2 2 0 0 0 0 4m8 0a2 2 0 1 0 0-4 2 2 0 0 0 0 4m8 0a2 2 0 1 0 0-4 2 2 0 0 0 0 4m8 0a2 2 0 1 0 0-4 2 2 0 0 0 0 4m8 0a2 2 0 1 0 0-4 2 2 0 0 0 0 4m8 0a2 2 0 1 0 0-4 2 2 0 0 0 0 4m8 0a2 2 0 1 0 0-4 2 2 0 0 0 0 4m8 0a2 2 0 1 0 0-4 2 2 0 0 0 0 4m8 0a2 2 0 1 0 0-4 2 2 0 0 0 0 4m8 0a2 2 0 1 0 0-4 2 2 0 0 0 0 4m8 0a2 2 0 1 0 0-4 2 2 0 0 0 0 4m8 0a2 2 0 1 0 0-4 2 2 0 0 0 0 4m8 0a2 2 0 1 0 0-4 2 2 0 0 0 0 4m8 0a2 2 0 1 0 0-4 2 2 0 0 0 0 4m8 0a2 2 0 1 0 0-4 2 2 0 0 0 0 4m8 0a2 2 0 1 0 0-4 2 2 0 0 0 0 4m8 0a2 2 0 1 0 0-4 2 2 0 0 0 0 4m8 0a2 2 0 1 0 0-4 2 2 0 0 0 0 4m8 0a2 2 0 1 0 0-4 2 2 0 0 0 0 4m16 0a2 2 0 1 0 0-4 2 2 0 0 0 0 4m-704 8a2 2 0 1 0 0-4 2 2 0 0 0 0 4m8 0a2 2 0 1 0 0-4 2 2 0 0 0 0 4m8 0a2 2 0 1 0 0-4 2 2 0 0 0 0 4m8 0a2 2 0 1 0 0-4 2 2 0 0 0 0 4m8 0a2 2 0 1 0 0-4 2 2 0 0 0 0 4m8 0a2 2 0 1 0 0-4 2 2 0 0 0 0 4m8 0a2 2 0 1 0 0-4 2 2 0 0 0 0 4m8 0a2 2 0 1 0 0-4 2 2 0 0 0 0 4m8 0a2 2 0 1 0 0-4 2 2 0 0 0 0 4m16 0a2 2 0 1 0 0-4 2 2 0 0 0 0 4m8 0a2 2 0 1 0 0-4 2 2 0 0 0 0 4m16 0a2 2 0 1 0 0-4 2 2 0 0 0 0 4m8 0a2 2 0 1 0 0-4 2 2 0 0 0 0 4m8 0a2 2 0 1 0 0-4 2 2 0 0 0 0 4m8 0a2 2 0 1 0 0-4 2 2 0 0 0 0 4m8 0a2 2 0 1 0 0-4 2 2 0 0 0 0 4m8 0a2 2 0 1 0 0-4 2 2 0 0 0 0 4m16 0a2 2 0 1 0 0-4 2 2 0 0 0 0 4m168 0a2 2 0 1 0 0-4 2 2 0 0 0 0 4m8 0a2 2 0 1 0 0-4 2 2 0 0 0 0 4m8 0a2 2 0 1 0 0-4 2 2 0 0 0 0 4m8 0a2 2 0 1 0 0-4 2 2 0 0 0 0 4m8 0a2 2 0 1 0 0-4 2 2 0 0 0 0 4m16 0a2 2 0 1 0 0-4 2 2 0 0 0 0 4m8 0a2 2 0 1 0 0-4 2 2 0 0 0 0 4m8 0a2 2 0 1 0 0-4 2 2 0 0 0 0 4m8 0a2 2 0 1 0 0-4 2 2 0 0 0 0 4m32 0a2 2 0 1 0 0-4 2 2 0 0 0 0 4m8 0a2 2 0 1 0 0-4 2 2 0 0 0 0 4m8 0a2 2 0 1 0 0-4 2 2 0 0 0 0 4m24 0a2 2 0 1 0 0-4 2 2 0 0 0 0 4m8 0a2 2 0 1 0 0-4 2 2 0 0 0 0 4m8 0a2 2 0 1 0 0-4 2 2 0 0 0 0 4m8 0a2 2 0 1 0 0-4 2 2 0 0 0 0 4m8 0a2 2 0 1 0 0-4 2 2 0 0 0 0 4m8 0a2 2 0 1 0 0-4 2 2 0 0 0 0 4m8 0a2 2 0 1 0 0-4 2 2 0 0 0 0 4m8 0a2 2 0 1 0 0-4 2 2 0 0 0 0 4m8 0a2 2 0 1 0 0-4 2 2 0 0 0 0 4m8 0a2 2 0 1 0 0-4 2 2 0 0 0 0 4m8 0a2 2 0 1 0 0-4 2 2 0 0 0 0 4m8 0a2 2 0 1 0 0-4 2 2 0 0 0 0 4m8 0a2 2 0 1 0 0-4 2 2 0 0 0 0 4m8 0a2 2 0 1 0 0-4 2 2 0 0 0 0 4m8 0a2 2 0 1 0 0-4 2 2 0 0 0 0 4m8 0a2 2 0 1 0 0-4 2 2 0 0 0 0 4m8 0a2 2 0 1 0 0-4 2 2 0 0 0 0 4m8 0a2 2 0 1 0 0-4 2 2 0 0 0 0 4m8 0a2 2 0 1 0 0-4 2 2 0 0 0 0 4m8 0a2 2 0 1 0 0-4 2 2 0 0 0 0 4m8 0a2 2 0 1 0 0-4 2 2 0 0 0 0 4m8 0a2 2 0 1 0 0-4 2 2 0 0 0 0 4m8 0a2 2 0 1 0 0-4 2 2 0 0 0 0 4m8 0a2 2 0 1 0 0-4 2 2 0 0 0 0 4m8 0a2 2 0 1 0 0-4 2 2 0 0 0 0 4m8 0a2 2 0 1 0 0-4 2 2 0 0 0 0 4m8 0a2 2 0 1 0 0-4 2 2 0 0 0 0 4m8 0a2 2 0 1 0 0-4 2 2 0 0 0 0 4m24 0a2 2 0 1 0 0-4 2 2 0 0 0 0 4m-720 8a2 2 0 1 0 0-4 2 2 0 0 0 0 4m8 0a2 2 0 1 0 0-4 2 2 0 0 0 0 4m8 0a2 2 0 1 0 0-4 2 2 0 0 0 0 4m8 0a2 2 0 1 0 0-4 2 2 0 0 0 0 4m8 0a2 2 0 1 0 0-4 2 2 0 0 0 0 4m8 0a2 2 0 1 0 0-4 2 2 0 0 0 0 4m8 0a2 2 0 1 0 0-4 2 2 0 0 0 0 4m8 0a2 2 0 1 0 0-4 2 2 0 0 0 0 4m8 0a2 2 0 1 0 0-4 2 2 0 0 0 0 4m8 0a2 2 0 1 0 0-4 2 2 0 0 0 0 4m8 0a2 2 0 1 0 0-4 2 2 0 0 0 0 4m8 0a2 2 0 1 0 0-4 2 2 0 0 0 0 4m8 0a2 2 0 1 0 0-4 2 2 0 0 0 0 4m8 0a2 2 0 1 0 0-4 2 2 0 0 0 0 4m8 0a2 2 0 1 0 0-4 2 2 0 0 0 0 4m8 0a2 2 0 1 0 0-4 2 2 0 0 0 0 4m8 0a2 2 0 1 0 0-4 2 2 0 0 0 0 4m8 0a2 2 0 1 0 0-4 2 2 0 0 0 0 4m8 0a2 2 0 1 0 0-4 2 2 0 0 0 0 4m176 0a2 2 0 1 0 0-4 2 2 0 0 0 0 4m8 0a2 2 0 1 0 0-4 2 2 0 0 0 0 4m8 0a2 2 0 1 0 0-4 2 2 0 0 0 0 4m8 0a2 2 0 1 0 0-4 2 2 0 0 0 0 4m32 0a2 2 0 1 0 0-4 2 2 0 0 0 0 4m16 0a2 2 0 1 0 0-4 2 2 0 0 0 0 4m8 0a2 2 0 1 0 0-4 2 2 0 0 0 0 4m8 0a2 2 0 1 0 0-4 2 2 0 0 0 0 4m24 0a2 2 0 1 0 0-4 2 2 0 0 0 0 4m24 0a2 2 0 1 0 0-4 2 2 0 0 0 0 4m8 0a2 2 0 1 0 0-4 2 2 0 0 0 0 4m24 0a2 2 0 1 0 0-4 2 2 0 0 0 0 4m8 0a2 2 0 1 0 0-4 2 2 0 0 0 0 4m8 0a2 2 0 1 0 0-4 2 2 0 0 0 0 4m8 0a2 2 0 1 0 0-4 2 2 0 0 0 0 4m8 0a2 2 0 1 0 0-4 2 2 0 0 0 0 4m8 0a2 2 0 1 0 0-4 2 2 0 0 0 0 4m8 0a2 2 0 1 0 0-4 2 2 0 0 0 0 4m8 0a2 2 0 1 0 0-4 2 2 0 0 0 0 4m8 0a2 2 0 1 0 0-4 2 2 0 0 0 0 4m8 0a2 2 0 1 0 0-4 2 2 0 0 0 0 4m8 0a2 2 0 1 0 0-4 2 2 0 0 0 0 4m8 0a2 2 0 1 0 0-4 2 2 0 0 0 0 4m8 0a2 2 0 1 0 0-4 2 2 0 0 0 0 4m8 0a2 2 0 1 0 0-4 2 2 0 0 0 0 4m8 0a2 2 0 1 0 0-4 2 2 0 0 0 0 4m8 0a2 2 0 1 0 0-4 2 2 0 0 0 0 4m8 0a2 2 0 1 0 0-4 2 2 0 0 0 0 4m8 0a2 2 0 1 0 0-4 2 2 0 0 0 0 4m8 0a2 2 0 1 0 0-4 2 2 0 0 0 0 4m8 0a2 2 0 1 0 0-4 2 2 0 0 0 0 4m8 0a2 2 0 1 0 0-4 2 2 0 0 0 0 4m8 0a2 2 0 1 0 0-4 2 2 0 0 0 0 4m8 0a2 2 0 1 0 0-4 2 2 0 0 0 0 4m8 0a2 2 0 1 0 0-4 2 2 0 0 0 0 4m8 0a2 2 0 1 0 0-4 2 2 0 0 0 0 4m8 0a2 2 0 1 0 0-4 2 2 0 0 0 0 4m32 0a2 2 0 1 0 0-4 2 2 0 0 0 0 4m-720 8a2 2 0 1 0 0-4 2 2 0 0 0 0 4m8 0a2 2 0 1 0 0-4 2 2 0 0 0 0 4m8 0a2 2 0 1 0 0-4 2 2 0 0 0 0 4m8 0a2 2 0 1 0 0-4 2 2 0 0 0 0 4m8 0a2 2 0 1 0 0-4 2 2 0 0 0 0 4m8 0a2 2 0 1 0 0-4 2 2 0 0 0 0 4m8 0a2 2 0 1 0 0-4 2 2 0 0 0 0 4m8 0a2 2 0 1 0 0-4 2 2 0 0 0 0 4m8 0a2 2 0 1 0 0-4 2 2 0 0 0 0 4m8 0a2 2 0 1 0 0-4 2 2 0 0 0 0 4m8 0a2 2 0 1 0 0-4 2 2 0 0 0 0 4m8 0a2 2 0 1 0 0-4 2 2 0 0 0 0 4m8 0a2 2 0 1 0 0-4 2 2 0 0 0 0 4m8 0a2 2 0 1 0 0-4 2 2 0 0 0 0 4m8 0a2 2 0 1 0 0-4 2 2 0 0 0 0 4m8 0a2 2 0 1 0 0-4 2 2 0 0 0 0 4m8 0a2 2 0 1 0 0-4 2 2 0 0 0 0 4m184 0a2 2 0 1 0 0-4 2 2 0 0 0 0 4m8 0a2 2 0 1 0 0-4 2 2 0 0 0 0 4m16 0a2 2 0 1 0 0-4 2 2 0 0 0 0 4m48 0a2 2 0 1 0 0-4 2 2 0 0 0 0 4m16 0a2 2 0 1 0 0-4 2 2 0 0 0 0 4m16 0a2 2 0 1 0 0-4 2 2 0 0 0 0 4m8 0a2 2 0 1 0 0-4 2 2 0 0 0 0 4m8 0a2 2 0 1 0 0-4 2 2 0 0 0 0 4m8 0a2 2 0 1 0 0-4 2 2 0 0 0 0 4m8 0a2 2 0 1 0 0-4 2 2 0 0 0 0 4m8 0a2 2 0 1 0 0-4 2 2 0 0 0 0 4m8 0a2 2 0 1 0 0-4 2 2 0 0 0 0 4m8 0a2 2 0 1 0 0-4 2 2 0 0 0 0 4m16 0a2 2 0 1 0 0-4 2 2 0 0 0 0 4m8 0a2 2 0 1 0 0-4 2 2 0 0 0 0 4m8 0a2 2 0 1 0 0-4 2 2 0 0 0 0 4m8 0a2 2 0 1 0 0-4 2 2 0 0 0 0 4m8 0a2 2 0 1 0 0-4 2 2 0 0 0 0 4m8 0a2 2 0 1 0 0-4 2 2 0 0 0 0 4m8 0a2 2 0 1 0 0-4 2 2 0 0 0 0 4m8 0a2 2 0 1 0 0-4 2 2 0 0 0 0 4m8 0a2 2 0 1 0 0-4 2 2 0 0 0 0 4m8 0a2 2 0 1 0 0-4 2 2 0 0 0 0 4m8 0a2 2 0 1 0 0-4 2 2 0 0 0 0 4m8 0a2 2 0 1 0 0-4 2 2 0 0 0 0 4m8 0a2 2 0 1 0 0-4 2 2 0 0 0 0 4m8 0a2 2 0 1 0 0-4 2 2 0 0 0 0 4m8 0a2 2 0 1 0 0-4 2 2 0 0 0 0 4m8 0a2 2 0 1 0 0-4 2 2 0 0 0 0 4m8 0a2 2 0 1 0 0-4 2 2 0 0 0 0 4m8 0a2 2 0 1 0 0-4 2 2 0 0 0 0 4m8 0a2 2 0 1 0 0-4 2 2 0 0 0 0 4m8 0a2 2 0 1 0 0-4 2 2 0 0 0 0 4m8 0a2 2 0 1 0 0-4 2 2 0 0 0 0 4m8 0a2 2 0 1 0 0-4 2 2 0 0 0 0 4m8 0a2 2 0 1 0 0-4 2 2 0 0 0 0 4m24 0a2 2 0 1 0 0-4 2 2 0 0 0 0 4m40 0a2 2 0 1 0 0-4 2 2 0 0 0 0 4m-728 8a2 2 0 1 0 0-4 2 2 0 0 0 0 4m8 0a2 2 0 1 0 0-4 2 2 0 0 0 0 4m8 0a2 2 0 1 0 0-4 2 2 0 0 0 0 4m8 0a2 2 0 1 0 0-4 2 2 0 0 0 0 4m8 0a2 2 0 1 0 0-4 2 2 0 0 0 0 4m8 0a2 2 0 1 0 0-4 2 2 0 0 0 0 4m8 0a2 2 0 1 0 0-4 2 2 0 0 0 0 4m8 0a2 2 0 1 0 0-4 2 2 0 0 0 0 4m8 0a2 2 0 1 0 0-4 2 2 0 0 0 0 4m8 0a2 2 0 1 0 0-4 2 2 0 0 0 0 4m8 0a2 2 0 1 0 0-4 2 2 0 0 0 0 4m8 0a2 2 0 1 0 0-4 2 2 0 0 0 0 4m8 0a2 2 0 1 0 0-4 2 2 0 0 0 0 4m8 0a2 2 0 1 0 0-4 2 2 0 0 0 0 4m8 0a2 2 0 1 0 0-4 2 2 0 0 0 0 4m8 0a2 2 0 1 0 0-4 2 2 0 0 0 0 4m200 0a2 2 0 1 0 0-4 2 2 0 0 0 0 4m8 0a2 2 0 1 0 0-4 2 2 0 0 0 0 4m24 0a2 2 0 1 0 0-4 2 2 0 0 0 0 4m8 0a2 2 0 1 0 0-4 2 2 0 0 0 0 4m8 0a2 2 0 1 0 0-4 2 2 0 0 0 0 4m32 0a2 2 0 1 0 0-4 2 2 0 0 0 0 4m16 0a2 2 0 1 0 0-4 2 2 0 0 0 0 4m8 0a2 2 0 1 0 0-4 2 2 0 0 0 0 4m8 0a2 2 0 1 0 0-4 2 2 0 0 0 0 4m8 0a2 2 0 1 0 0-4 2 2 0 0 0 0 4m8 0a2 2 0 1 0 0-4 2 2 0 0 0 0 4m8 0a2 2 0 1 0 0-4 2 2 0 0 0 0 4m8 0a2 2 0 1 0 0-4 2 2 0 0 0 0 4m8 0a2 2 0 1 0 0-4 2 2 0 0 0 0 4m8 0a2 2 0 1 0 0-4 2 2 0 0 0 0 4m8 0a2 2 0 1 0 0-4 2 2 0 0 0 0 4m8 0a2 2 0 1 0 0-4 2 2 0 0 0 0 4m8 0a2 2 0 1 0 0-4 2 2 0 0 0 0 4m8 0a2 2 0 1 0 0-4 2 2 0 0 0 0 4m8 0a2 2 0 1 0 0-4 2 2 0 0 0 0 4m8 0a2 2 0 1 0 0-4 2 2 0 0 0 0 4m8 0a2 2 0 1 0 0-4 2 2 0 0 0 0 4m8 0a2 2 0 1 0 0-4 2 2 0 0 0 0 4m8 0a2 2 0 1 0 0-4 2 2 0 0 0 0 4m8 0a2 2 0 1 0 0-4 2 2 0 0 0 0 4m8 0a2 2 0 1 0 0-4 2 2 0 0 0 0 4m8 0a2 2 0 1 0 0-4 2 2 0 0 0 0 4m8 0a2 2 0 1 0 0-4 2 2 0 0 0 0 4m8 0a2 2 0 1 0 0-4 2 2 0 0 0 0 4m8 0a2 2 0 1 0 0-4 2 2 0 0 0 0 4m8 0a2 2 0 1 0 0-4 2 2 0 0 0 0 4m8 0a2 2 0 1 0 0-4 2 2 0 0 0 0 4m8 0a2 2 0 1 0 0-4 2 2 0 0 0 0 4m8 0a2 2 0 1 0 0-4 2 2 0 0 0 0 4m8 0a2 2 0 1 0 0-4 2 2 0 0 0 0 4m8 0a2 2 0 1 0 0-4 2 2 0 0 0 0 4m8 0a2 2 0 1 0 0-4 2 2 0 0 0 0 4m8 0a2 2 0 1 0 0-4 2 2 0 0 0 0 4m8 0a2 2 0 1 0 0-4 2 2 0 0 0 0 4m8 0a2 2 0 1 0 0-4 2 2 0 0 0 0 4m16 0a2 2 0 1 0 0-4 2 2 0 0 0 0 4m32 0a2 2 0 1 0 0-4 2 2 0 0 0 0 4m-728 8a2 2 0 1 0 0-4 2 2 0 0 0 0 4m8 0a2 2 0 1 0 0-4 2 2 0 0 0 0 4m8 0a2 2 0 1 0 0-4 2 2 0 0 0 0 4m8 0a2 2 0 1 0 0-4 2 2 0 0 0 0 4m8 0a2 2 0 1 0 0-4 2 2 0 0 0 0 4m8 0a2 2 0 1 0 0-4 2 2 0 0 0 0 4m8 0a2 2 0 1 0 0-4 2 2 0 0 0 0 4m8 0a2 2 0 1 0 0-4 2 2 0 0 0 0 4m8 0a2 2 0 1 0 0-4 2 2 0 0 0 0 4m8 0a2 2 0 1 0 0-4 2 2 0 0 0 0 4m8 0a2 2 0 1 0 0-4 2 2 0 0 0 0 4m8 0a2 2 0 1 0 0-4 2 2 0 0 0 0 4m8 0a2 2 0 1 0 0-4 2 2 0 0 0 0 4m8 0a2 2 0 1 0 0-4 2 2 0 0 0 0 4m8 0a2 2 0 1 0 0-4 2 2 0 0 0 0 4m208 0a2 2 0 1 0 0-4 2 2 0 0 0 0 4m8 0a2 2 0 1 0 0-4 2 2 0 0 0 0 4m8 0a2 2 0 1 0 0-4 2 2 0 0 0 0 4m8 0a2 2 0 1 0 0-4 2 2 0 0 0 0 4m8 0a2 2 0 1 0 0-4 2 2 0 0 0 0 4m8 0a2 2 0 1 0 0-4 2 2 0 0 0 0 4m80 0a2 2 0 1 0 0-4 2 2 0 0 0 0 4m8 0a2 2 0 1 0 0-4 2 2 0 0 0 0 4m8 0a2 2 0 1 0 0-4 2 2 0 0 0 0 4m8 0a2 2 0 1 0 0-4 2 2 0 0 0 0 4m8 0a2 2 0 1 0 0-4 2 2 0 0 0 0 4m8 0a2 2 0 1 0 0-4 2 2 0 0 0 0 4m8 0a2 2 0 1 0 0-4 2 2 0 0 0 0 4m8 0a2 2 0 1 0 0-4 2 2 0 0 0 0 4m8 0a2 2 0 1 0 0-4 2 2 0 0 0 0 4m8 0a2 2 0 1 0 0-4 2 2 0 0 0 0 4m8 0a2 2 0 1 0 0-4 2 2 0 0 0 0 4m8 0a2 2 0 1 0 0-4 2 2 0 0 0 0 4m8 0a2 2 0 1 0 0-4 2 2 0 0 0 0 4m8 0a2 2 0 1 0 0-4 2 2 0 0 0 0 4m8 0a2 2 0 1 0 0-4 2 2 0 0 0 0 4m8 0a2 2 0 1 0 0-4 2 2 0 0 0 0 4m8 0a2 2 0 1 0 0-4 2 2 0 0 0 0 4m8 0a2 2 0 1 0 0-4 2 2 0 0 0 0 4m8 0a2 2 0 1 0 0-4 2 2 0 0 0 0 4m8 0a2 2 0 1 0 0-4 2 2 0 0 0 0 4m8 0a2 2 0 1 0 0-4 2 2 0 0 0 0 4m8 0a2 2 0 1 0 0-4 2 2 0 0 0 0 4m8 0a2 2 0 1 0 0-4 2 2 0 0 0 0 4m8 0a2 2 0 1 0 0-4 2 2 0 0 0 0 4m8 0a2 2 0 1 0 0-4 2 2 0 0 0 0 4m8 0a2 2 0 1 0 0-4 2 2 0 0 0 0 4m8 0a2 2 0 1 0 0-4 2 2 0 0 0 0 4m8 0a2 2 0 1 0 0-4 2 2 0 0 0 0 4m8 0a2 2 0 1 0 0-4 2 2 0 0 0 0 4m8 0a2 2 0 1 0 0-4 2 2 0 0 0 0 4m56 0a2 2 0 1 0 0-4 2 2 0 0 0 0 4m-728 8a2 2 0 1 0 0-4 2 2 0 0 0 0 4m8 0a2 2 0 1 0 0-4 2 2 0 0 0 0 4m8 0a2 2 0 1 0 0-4 2 2 0 0 0 0 4m8 0a2 2 0 1 0 0-4 2 2 0 0 0 0 4m8 0a2 2 0 1 0 0-4 2 2 0 0 0 0 4m8 0a2 2 0 1 0 0-4 2 2 0 0 0 0 4m8 0a2 2 0 1 0 0-4 2 2 0 0 0 0 4m8 0a2 2 0 1 0 0-4 2 2 0 0 0 0 4m8 0a2 2 0 1 0 0-4 2 2 0 0 0 0 4m8 0a2 2 0 1 0 0-4 2 2 0 0 0 0 4m8 0a2 2 0 1 0 0-4 2 2 0 0 0 0 4m8 0a2 2 0 1 0 0-4 2 2 0 0 0 0 4m8 0a2 2 0 1 0 0-4 2 2 0 0 0 0 4m216 0a2 2 0 1 0 0-4 2 2 0 0 0 0 4m8 0a2 2 0 1 0 0-4 2 2 0 0 0 0 4m8 0a2 2 0 1 0 0-4 2 2 0 0 0 0 4m8 0a2 2 0 1 0 0-4 2 2 0 0 0 0 4m8 0a2 2 0 1 0 0-4 2 2 0 0 0 0 4m8 0a2 2 0 1 0 0-4 2 2 0 0 0 0 4m8 0a2 2 0 1 0 0-4 2 2 0 0 0 0 4m8 0a2 2 0 1 0 0-4 2 2 0 0 0 0 4m8 0a2 2 0 1 0 0-4 2 2 0 0 0 0 4m24 0a2 2 0 1 0 0-4 2 2 0 0 0 0 4m8 0a2 2 0 1 0 0-4 2 2 0 0 0 0 4m32 0a2 2 0 1 0 0-4 2 2 0 0 0 0 4m8 0a2 2 0 1 0 0-4 2 2 0 0 0 0 4m8 0a2 2 0 1 0 0-4 2 2 0 0 0 0 4m8 0a2 2 0 1 0 0-4 2 2 0 0 0 0 4m8 0a2 2 0 1 0 0-4 2 2 0 0 0 0 4m8 0a2 2 0 1 0 0-4 2 2 0 0 0 0 4m8 0a2 2 0 1 0 0-4 2 2 0 0 0 0 4m8 0a2 2 0 1 0 0-4 2 2 0 0 0 0 4m8 0a2 2 0 1 0 0-4 2 2 0 0 0 0 4m8 0a2 2 0 1 0 0-4 2 2 0 0 0 0 4m8 0a2 2 0 1 0 0-4 2 2 0 0 0 0 4m8 0a2 2 0 1 0 0-4 2 2 0 0 0 0 4m8 0a2 2 0 1 0 0-4 2 2 0 0 0 0 4m8 0a2 2 0 1 0 0-4 2 2 0 0 0 0 4m8 0a2 2 0 1 0 0-4 2 2 0 0 0 0 4m8 0a2 2 0 1 0 0-4 2 2 0 0 0 0 4m8 0a2 2 0 1 0 0-4 2 2 0 0 0 0 4m8 0a2 2 0 1 0 0-4 2 2 0 0 0 0 4m8 0a2 2 0 1 0 0-4 2 2 0 0 0 0 4m8 0a2 2 0 1 0 0-4 2 2 0 0 0 0 4m8 0a2 2 0 1 0 0-4 2 2 0 0 0 0 4m8 0a2 2 0 1 0 0-4 2 2 0 0 0 0 4m8 0a2 2 0 1 0 0-4 2 2 0 0 0 0 4m8 0a2 2 0 1 0 0-4 2 2 0 0 0 0 4m8 0a2 2 0 1 0 0-4 2 2 0 0 0 0 4m8 0a2 2 0 1 0 0-4 2 2 0 0 0 0 4m8 0a2 2 0 1 0 0-4 2 2 0 0 0 0 4m8 0a2 2 0 1 0 0-4 2 2 0 0 0 0 4m8 0a2 2 0 1 0 0-4 2 2 0 0 0 0 4m8 0a2 2 0 1 0 0-4 2 2 0 0 0 0 4m8 0a2 2 0 1 0 0-4 2 2 0 0 0 0 4m8 0a2 2 0 1 0 0-4 2 2 0 0 0 0 4m-672 8a2 2 0 1 0 0-4 2 2 0 0 0 0 4m8 0a2 2 0 1 0 0-4 2 2 0 0 0 0 4m8 0a2 2 0 1 0 0-4 2 2 0 0 0 0 4m8 0a2 2 0 1 0 0-4 2 2 0 0 0 0 4m8 0a2 2 0 1 0 0-4 2 2 0 0 0 0 4m8 0a2 2 0 1 0 0-4 2 2 0 0 0 0 4m16 0a2 2 0 1 0 0-4 2 2 0 0 0 0 4m24 0a2 2 0 1 0 0-4 2 2 0 0 0 0 4m216 0a2 2 0 1 0 0-4 2 2 0 0 0 0 4m8 0a2 2 0 1 0 0-4 2 2 0 0 0 0 4m8 0a2 2 0 1 0 0-4 2 2 0 0 0 0 4m8 0a2 2 0 1 0 0-4 2 2 0 0 0 0 4m8 0a2 2 0 1 0 0-4 2 2 0 0 0 0 4m8 0a2 2 0 1 0 0-4 2 2 0 0 0 0 4m8 0a2 2 0 1 0 0-4 2 2 0 0 0 0 4m8 0a2 2 0 1 0 0-4 2 2 0 0 0 0 4m8 0a2 2 0 1 0 0-4 2 2 0 0 0 0 4m8 0a2 2 0 1 0 0-4 2 2 0 0 0 0 4m8 0a2 2 0 1 0 0-4 2 2 0 0 0 0 4m8 0a2 2 0 1 0 0-4 2 2 0 0 0 0 4m8 0a2 2 0 1 0 0-4 2 2 0 0 0 0 4m8 0a2 2 0 1 0 0-4 2 2 0 0 0 0 4m8 0a2 2 0 1 0 0-4 2 2 0 0 0 0 4m8 0a2 2 0 1 0 0-4 2 2 0 0 0 0 4m8 0a2 2 0 1 0 0-4 2 2 0 0 0 0 4m8 0a2 2 0 1 0 0-4 2 2 0 0 0 0 4m8 0a2 2 0 1 0 0-4 2 2 0 0 0 0 4m8 0a2 2 0 1 0 0-4 2 2 0 0 0 0 4m8 0a2 2 0 1 0 0-4 2 2 0 0 0 0 4m16 0a2 2 0 1 0 0-4 2 2 0 0 0 0 4m8 0a2 2 0 1 0 0-4 2 2 0 0 0 0 4m8 0a2 2 0 1 0 0-4 2 2 0 0 0 0 4m8 0a2 2 0 1 0 0-4 2 2 0 0 0 0 4m8 0a2 2 0 1 0 0-4 2 2 0 0 0 0 4m8 0a2 2 0 1 0 0-4 2 2 0 0 0 0 4m8 0a2 2 0 1 0 0-4 2 2 0 0 0 0 4m8 0a2 2 0 1 0 0-4 2 2 0 0 0 0 4m8 0a2 2 0 1 0 0-4 2 2 0 0 0 0 4m8 0a2 2 0 1 0 0-4 2 2 0 0 0 0 4m8 0a2 2 0 1 0 0-4 2 2 0 0 0 0 4m8 0a2 2 0 1 0 0-4 2 2 0 0 0 0 4m8 0a2 2 0 1 0 0-4 2 2 0 0 0 0 4m8 0a2 2 0 1 0 0-4 2 2 0 0 0 0 4m8 0a2 2 0 1 0 0-4 2 2 0 0 0 0 4m8 0a2 2 0 1 0 0-4 2 2 0 0 0 0 4m8 0a2 2 0 1 0 0-4 2 2 0 0 0 0 4m8 0a2 2 0 1 0 0-4 2 2 0 0 0 0 4m8 0a2 2 0 1 0 0-4 2 2 0 0 0 0 4m8 0a2 2 0 1 0 0-4 2 2 0 0 0 0 4m8 0a2 2 0 1 0 0-4 2 2 0 0 0 0 4m8 0a2 2 0 1 0 0-4 2 2 0 0 0 0 4m8 0a2 2 0 1 0 0-4 2 2 0 0 0 0 4m8 0a2 2 0 1 0 0-4 2 2 0 0 0 0 4m16 0a2 2 0 1 0 0-4 2 2 0 0 0 0 4m8 0a2 2 0 1 0 0-4 2 2 0 0 0 0 4m-680 8a2 2 0 1 0 0-4 2 2 0 0 0 0 4m8 0a2 2 0 1 0 0-4 2 2 0 0 0 0 4m8 0a2 2 0 1 0 0-4 2 2 0 0 0 0 4m8 0a2 2 0 1 0 0-4 2 2 0 0 0 0 4m8 0a2 2 0 1 0 0-4 2 2 0 0 0 0 4m48 0a2 2 0 1 0 0-4 2 2 0 0 0 0 4m8 0a2 2 0 1 0 0-4 2 2 0 0 0 0 4m200 0a2 2 0 1 0 0-4 2 2 0 0 0 0 4m8 0a2 2 0 1 0 0-4 2 2 0 0 0 0 4m8 0a2 2 0 1 0 0-4 2 2 0 0 0 0 4m8 0a2 2 0 1 0 0-4 2 2 0 0 0 0 4m8 0a2 2 0 1 0 0-4 2 2 0 0 0 0 4m8 0a2 2 0 1 0 0-4 2 2 0 0 0 0 4m8 0a2 2 0 1 0 0-4 2 2 0 0 0 0 4m8 0a2 2 0 1 0 0-4 2 2 0 0 0 0 4m8 0a2 2 0 1 0 0-4 2 2 0 0 0 0 4m8 0a2 2 0 1 0 0-4 2 2 0 0 0 0 4m8 0a2 2 0 1 0 0-4 2 2 0 0 0 0 4m8 0a2 2 0 1 0 0-4 2 2 0 0 0 0 4m8 0a2 2 0 1 0 0-4 2 2 0 0 0 0 4m8 0a2 2 0 1 0 0-4 2 2 0 0 0 0 4m8 0a2 2 0 1 0 0-4 2 2 0 0 0 0 4m8 0a2 2 0 1 0 0-4 2 2 0 0 0 0 4m8 0a2 2 0 1 0 0-4 2 2 0 0 0 0 4m16 0a2 2 0 1 0 0-4 2 2 0 0 0 0 4m8 0a2 2 0 1 0 0-4 2 2 0 0 0 0 4m8 0a2 2 0 1 0 0-4 2 2 0 0 0 0 4m8 0a2 2 0 1 0 0-4 2 2 0 0 0 0 4m8 0a2 2 0 1 0 0-4 2 2 0 0 0 0 4m32 0a2 2 0 1 0 0-4 2 2 0 0 0 0 4m8 0a2 2 0 1 0 0-4 2 2 0 0 0 0 4m8 0a2 2 0 1 0 0-4 2 2 0 0 0 0 4m8 0a2 2 0 1 0 0-4 2 2 0 0 0 0 4m8 0a2 2 0 1 0 0-4 2 2 0 0 0 0 4m8 0a2 2 0 1 0 0-4 2 2 0 0 0 0 4m8 0a2 2 0 1 0 0-4 2 2 0 0 0 0 4m8 0a2 2 0 1 0 0-4 2 2 0 0 0 0 4m8 0a2 2 0 1 0 0-4 2 2 0 0 0 0 4m8 0a2 2 0 1 0 0-4 2 2 0 0 0 0 4m8 0a2 2 0 1 0 0-4 2 2 0 0 0 0 4m8 0a2 2 0 1 0 0-4 2 2 0 0 0 0 4m8 0a2 2 0 1 0 0-4 2 2 0 0 0 0 4m8 0a2 2 0 1 0 0-4 2 2 0 0 0 0 4m8 0a2 2 0 1 0 0-4 2 2 0 0 0 0 4m8 0a2 2 0 1 0 0-4 2 2 0 0 0 0 4m8 0a2 2 0 1 0 0-4 2 2 0 0 0 0 4m8 0a2 2 0 1 0 0-4 2 2 0 0 0 0 4m8 0a2 2 0 1 0 0-4 2 2 0 0 0 0 4m8 0a2 2 0 1 0 0-4 2 2 0 0 0 0 4m8 0a2 2 0 1 0 0-4 2 2 0 0 0 0 4m8 0a2 2 0 1 0 0-4 2 2 0 0 0 0 4m8 0a2 2 0 1 0 0-4 2 2 0 0 0 0 4m-680 8a2 2 0 1 0 0-4 2 2 0 0 0 0 4m16 0a2 2 0 1 0 0-4 2 2 0 0 0 0 4m8 0a2 2 0 1 0 0-4 2 2 0 0 0 0 4m8 0a2 2 0 1 0 0-4 2 2 0 0 0 0 4m256 0a2 2 0 1 0 0-4 2 2 0 0 0 0 4m8 0a2 2 0 1 0 0-4 2 2 0 0 0 0 4m8 0a2 2 0 1 0 0-4 2 2 0 0 0 0 4m8 0a2 2 0 1 0 0-4 2 2 0 0 0 0 4m8 0a2 2 0 1 0 0-4 2 2 0 0 0 0 4m8 0a2 2 0 1 0 0-4 2 2 0 0 0 0 4m8 0a2 2 0 1 0 0-4 2 2 0 0 0 0 4m8 0a2 2 0 1 0 0-4 2 2 0 0 0 0 4m8 0a2 2 0 1 0 0-4 2 2 0 0 0 0 4m8 0a2 2 0 1 0 0-4 2 2 0 0 0 0 4m8 0a2 2 0 1 0 0-4 2 2 0 0 0 0 4m8 0a2 2 0 1 0 0-4 2 2 0 0 0 0 4m8 0a2 2 0 1 0 0-4 2 2 0 0 0 0 4m8 0a2 2 0 1 0 0-4 2 2 0 0 0 0 4m8 0a2 2 0 1 0 0-4 2 2 0 0 0 0 4m8 0a2 2 0 1 0 0-4 2 2 0 0 0 0 4m16 0a2 2 0 1 0 0-4 2 2 0 0 0 0 4m8 0a2 2 0 1 0 0-4 2 2 0 0 0 0 4m16 0a2 2 0 1 0 0-4 2 2 0 0 0 0 4m8 0a2 2 0 1 0 0-4 2 2 0 0 0 0 4m8 0a2 2 0 1 0 0-4 2 2 0 0 0 0 4m8 0a2 2 0 1 0 0-4 2 2 0 0 0 0 4m8 0a2 2 0 1 0 0-4 2 2 0 0 0 0 4m8 0a2 2 0 1 0 0-4 2 2 0 0 0 0 4m8 0a2 2 0 1 0 0-4 2 2 0 0 0 0 4m40 0a2 2 0 1 0 0-4 2 2 0 0 0 0 4m8 0a2 2 0 1 0 0-4 2 2 0 0 0 0 4m8 0a2 2 0 1 0 0-4 2 2 0 0 0 0 4m8 0a2 2 0 1 0 0-4 2 2 0 0 0 0 4m8 0a2 2 0 1 0 0-4 2 2 0 0 0 0 4m8 0a2 2 0 1 0 0-4 2 2 0 0 0 0 4m8 0a2 2 0 1 0 0-4 2 2 0 0 0 0 4m8 0a2 2 0 1 0 0-4 2 2 0 0 0 0 4m8 0a2 2 0 1 0 0-4 2 2 0 0 0 0 4m8 0a2 2 0 1 0 0-4 2 2 0 0 0 0 4m8 0a2 2 0 1 0 0-4 2 2 0 0 0 0 4m8 0a2 2 0 1 0 0-4 2 2 0 0 0 0 4m8 0a2 2 0 1 0 0-4 2 2 0 0 0 0 4m8 0a2 2 0 1 0 0-4 2 2 0 0 0 0 4m8 0a2 2 0 1 0 0-4 2 2 0 0 0 0 4m8 0a2 2 0 1 0 0-4 2 2 0 0 0 0 4m8 0a2 2 0 1 0 0-4 2 2 0 0 0 0 4m8 0a2 2 0 1 0 0-4 2 2 0 0 0 0 4m8 0a2 2 0 1 0 0-4 2 2 0 0 0 0 4m-664 8a2 2 0 1 0 0-4 2 2 0 0 0 0 4m8 0a2 2 0 1 0 0-4 2 2 0 0 0 0 4m8 0a2 2 0 1 0 0-4 2 2 0 0 0 0 4m32 0a2 2 0 1 0 0-4 2 2 0 0 0 0 4m32 0a2 2 0 1 0 0-4 2 2 0 0 0 0 4m184 0a2 2 0 1 0 0-4 2 2 0 0 0 0 4m8 0a2 2 0 1 0 0-4 2 2 0 0 0 0 4m8 0a2 2 0 1 0 0-4 2 2 0 0 0 0 4m8 0a2 2 0 1 0 0-4 2 2 0 0 0 0 4m8 0a2 2 0 1 0 0-4 2 2 0 0 0 0 4m8 0a2 2 0 1 0 0-4 2 2 0 0 0 0 4m8 0a2 2 0 1 0 0-4 2 2 0 0 0 0 4m8 0a2 2 0 1 0 0-4 2 2 0 0 0 0 4m8 0a2 2 0 1 0 0-4 2 2 0 0 0 0 4m8 0a2 2 0 1 0 0-4 2 2 0 0 0 0 4m8 0a2 2 0 1 0 0-4 2 2 0 0 0 0 4m8 0a2 2 0 1 0 0-4 2 2 0 0 0 0 4m8 0a2 2 0 1 0 0-4 2 2 0 0 0 0 4m8 0a2 2 0 1 0 0-4 2 2 0 0 0 0 4m8 0a2 2 0 1 0 0-4 2 2 0 0 0 0 4m8 0a2 2 0 1 0 0-4 2 2 0 0 0 0 4m8 0a2 2 0 1 0 0-4 2 2 0 0 0 0 4m8 0a2 2 0 1 0 0-4 2 2 0 0 0 0 4m8 0a2 2 0 1 0 0-4 2 2 0 0 0 0 4m8 0a2 2 0 1 0 0-4 2 2 0 0 0 0 4m8 0a2 2 0 1 0 0-4 2 2 0 0 0 0 4m16 0a2 2 0 1 0 0-4 2 2 0 0 0 0 4m8 0a2 2 0 1 0 0-4 2 2 0 0 0 0 4m8 0a2 2 0 1 0 0-4 2 2 0 0 0 0 4m8 0a2 2 0 1 0 0-4 2 2 0 0 0 0 4m8 0a2 2 0 1 0 0-4 2 2 0 0 0 0 4m8 0a2 2 0 1 0 0-4 2 2 0 0 0 0 4m8 0a2 2 0 1 0 0-4 2 2 0 0 0 0 4m40 0a2 2 0 1 0 0-4 2 2 0 0 0 0 4m8 0a2 2 0 1 0 0-4 2 2 0 0 0 0 4m8 0a2 2 0 1 0 0-4 2 2 0 0 0 0 4m8 0a2 2 0 1 0 0-4 2 2 0 0 0 0 4m8 0a2 2 0 1 0 0-4 2 2 0 0 0 0 4m8 0a2 2 0 1 0 0-4 2 2 0 0 0 0 4m8 0a2 2 0 1 0 0-4 2 2 0 0 0 0 4m24 0a2 2 0 1 0 0-4 2 2 0 0 0 0 4m8 0a2 2 0 1 0 0-4 2 2 0 0 0 0 4m8 0a2 2 0 1 0 0-4 2 2 0 0 0 0 4m8 0a2 2 0 1 0 0-4 2 2 0 0 0 0 4m8 0a2 2 0 1 0 0-4 2 2 0 0 0 0 4m8 0a2 2 0 1 0 0-4 2 2 0 0 0 0 4m8 0a2 2 0 1 0 0-4 2 2 0 0 0 0 4m-648 8a2 2 0 1 0 0-4 2 2 0 0 0 0 4m8 0a2 2 0 1 0 0-4 2 2 0 0 0 0 4m8 0a2 2 0 1 0 0-4 2 2 0 0 0 0 4m24 0a2 2 0 1 0 0-4 2 2 0 0 0 0 4m56 0a2 2 0 1 0 0-4 2 2 0 0 0 0 4m8 0a2 2 0 1 0 0-4 2 2 0 0 0 0 4m168 0a2 2 0 1 0 0-4 2 2 0 0 0 0 4m8 0a2 2 0 1 0 0-4 2 2 0 0 0 0 4m8 0a2 2 0 1 0 0-4 2 2 0 0 0 0 4m8 0a2 2 0 1 0 0-4 2 2 0 0 0 0 4m8 0a2 2 0 1 0 0-4 2 2 0 0 0 0 4m8 0a2 2 0 1 0 0-4 2 2 0 0 0 0 4m8 0a2 2 0 1 0 0-4 2 2 0 0 0 0 4m8 0a2 2 0 1 0 0-4 2 2 0 0 0 0 4m8 0a2 2 0 1 0 0-4 2 2 0 0 0 0 4m8 0a2 2 0 1 0 0-4 2 2 0 0 0 0 4m8 0a2 2 0 1 0 0-4 2 2 0 0 0 0 4m8 0a2 2 0 1 0 0-4 2 2 0 0 0 0 4m8 0a2 2 0 1 0 0-4 2 2 0 0 0 0 4m8 0a2 2 0 1 0 0-4 2 2 0 0 0 0 4m8 0a2 2 0 1 0 0-4 2 2 0 0 0 0 4m8 0a2 2 0 1 0 0-4 2 2 0 0 0 0 4m8 0a2 2 0 1 0 0-4 2 2 0 0 0 0 4m8 0a2 2 0 1 0 0-4 2 2 0 0 0 0 4m8 0a2 2 0 1 0 0-4 2 2 0 0 0 0 4m8 0a2 2 0 1 0 0-4 2 2 0 0 0 0 4m16 0a2 2 0 1 0 0-4 2 2 0 0 0 0 4m8 0a2 2 0 1 0 0-4 2 2 0 0 0 0 4m8 0a2 2 0 1 0 0-4 2 2 0 0 0 0 4m8 0a2 2 0 1 0 0-4 2 2 0 0 0 0 4m8 0a2 2 0 1 0 0-4 2 2 0 0 0 0 4m8 0a2 2 0 1 0 0-4 2 2 0 0 0 0 4m8 0a2 2 0 1 0 0-4 2 2 0 0 0 0 4m48 0a2 2 0 1 0 0-4 2 2 0 0 0 0 4m8 0a2 2 0 1 0 0-4 2 2 0 0 0 0 4m8 0a2 2 0 1 0 0-4 2 2 0 0 0 0 4m8 0a2 2 0 1 0 0-4 2 2 0 0 0 0 4m8 0a2 2 0 1 0 0-4 2 2 0 0 0 0 4m32 0a2 2 0 1 0 0-4 2 2 0 0 0 0 4m8 0a2 2 0 1 0 0-4 2 2 0 0 0 0 4m8 0a2 2 0 1 0 0-4 2 2 0 0 0 0 4m8 0a2 2 0 1 0 0-4 2 2 0 0 0 0 4m8 0a2 2 0 1 0 0-4 2 2 0 0 0 0 4m16 0a2 2 0 1 0 0-4 2 2 0 0 0 0 4m-632 8a2 2 0 1 0 0-4 2 2 0 0 0 0 4m8 0a2 2 0 1 0 0-4 2 2 0 0 0 0 4m8 0a2 2 0 1 0 0-4 2 2 0 0 0 0 4m8 0a2 2 0 1 0 0-4 2 2 0 0 0 0 4m224 0a2 2 0 1 0 0-4 2 2 0 0 0 0 4m8 0a2 2 0 1 0 0-4 2 2 0 0 0 0 4m8 0a2 2 0 1 0 0-4 2 2 0 0 0 0 4m8 0a2 2 0 1 0 0-4 2 2 0 0 0 0 4m8 0a2 2 0 1 0 0-4 2 2 0 0 0 0 4m8 0a2 2 0 1 0 0-4 2 2 0 0 0 0 4m8 0a2 2 0 1 0 0-4 2 2 0 0 0 0 4m8 0a2 2 0 1 0 0-4 2 2 0 0 0 0 4m8 0a2 2 0 1 0 0-4 2 2 0 0 0 0 4m8 0a2 2 0 1 0 0-4 2 2 0 0 0 0 4m8 0a2 2 0 1 0 0-4 2 2 0 0 0 0 4m8 0a2 2 0 1 0 0-4 2 2 0 0 0 0 4m8 0a2 2 0 1 0 0-4 2 2 0 0 0 0 4m8 0a2 2 0 1 0 0-4 2 2 0 0 0 0 4m8 0a2 2 0 1 0 0-4 2 2 0 0 0 0 4m8 0a2 2 0 1 0 0-4 2 2 0 0 0 0 4m8 0a2 2 0 1 0 0-4 2 2 0 0 0 0 4m8 0a2 2 0 1 0 0-4 2 2 0 0 0 0 4m8 0a2 2 0 1 0 0-4 2 2 0 0 0 0 4m8 0a2 2 0 1 0 0-4 2 2 0 0 0 0 4m8 0a2 2 0 1 0 0-4 2 2 0 0 0 0 4m8 0a2 2 0 1 0 0-4 2 2 0 0 0 0 4m16 0a2 2 0 1 0 0-4 2 2 0 0 0 0 4m8 0a2 2 0 1 0 0-4 2 2 0 0 0 0 4m8 0a2 2 0 1 0 0-4 2 2 0 0 0 0 4m8 0a2 2 0 1 0 0-4 2 2 0 0 0 0 4m72 0a2 2 0 1 0 0-4 2 2 0 0 0 0 4m8 0a2 2 0 1 0 0-4 2 2 0 0 0 0 4m8 0a2 2 0 1 0 0-4 2 2 0 0 0 0 4m48 0a2 2 0 1 0 0-4 2 2 0 0 0 0 4m8 0a2 2 0 1 0 0-4 2 2 0 0 0 0 4m8 0a2 2 0 1 0 0-4 2 2 0 0 0 0 4m8 0a2 2 0 1 0 0-4 2 2 0 0 0 0 4m8 0a2 2 0 1 0 0-4 2 2 0 0 0 0 4m48 0a2 2 0 1 0 0-4 2 2 0 0 0 0 4m-648 8a2 2 0 1 0 0-4 2 2 0 0 0 0 4m8 0a2 2 0 1 0 0-4 2 2 0 0 0 0 4m8 0a2 2 0 1 0 0-4 2 2 0 0 0 0 4m208 0a2 2 0 1 0 0-4 2 2 0 0 0 0 4m8 0a2 2 0 1 0 0-4 2 2 0 0 0 0 4m8 0a2 2 0 1 0 0-4 2 2 0 0 0 0 4m8 0a2 2 0 1 0 0-4 2 2 0 0 0 0 4m8 0a2 2 0 1 0 0-4 2 2 0 0 0 0 4m8 0a2 2 0 1 0 0-4 2 2 0 0 0 0 4m8 0a2 2 0 1 0 0-4 2 2 0 0 0 0 4m8 0a2 2 0 1 0 0-4 2 2 0 0 0 0 4m8 0a2 2 0 1 0 0-4 2 2 0 0 0 0 4m8 0a2 2 0 1 0 0-4 2 2 0 0 0 0 4m8 0a2 2 0 1 0 0-4 2 2 0 0 0 0 4m8 0a2 2 0 1 0 0-4 2 2 0 0 0 0 4m8 0a2 2 0 1 0 0-4 2 2 0 0 0 0 4m8 0a2 2 0 1 0 0-4 2 2 0 0 0 0 4m8 0a2 2 0 1 0 0-4 2 2 0 0 0 0 4m8 0a2 2 0 1 0 0-4 2 2 0 0 0 0 4m8 0a2 2 0 1 0 0-4 2 2 0 0 0 0 4m8 0a2 2 0 1 0 0-4 2 2 0 0 0 0 4m8 0a2 2 0 1 0 0-4 2 2 0 0 0 0 4m8 0a2 2 0 1 0 0-4 2 2 0 0 0 0 4m8 0a2 2 0 1 0 0-4 2 2 0 0 0 0 4m8 0a2 2 0 1 0 0-4 2 2 0 0 0 0 4m8 0a2 2 0 1 0 0-4 2 2 0 0 0 0 4m8 0a2 2 0 1 0 0-4 2 2 0 0 0 0 4m8 0a2 2 0 1 0 0-4 2 2 0 0 0 0 4m96 0a2 2 0 1 0 0-4 2 2 0 0 0 0 4m8 0a2 2 0 1 0 0-4 2 2 0 0 0 0 4m64 0a2 2 0 1 0 0-4 2 2 0 0 0 0 4m8 0a2 2 0 1 0 0-4 2 2 0 0 0 0 4m8 0a2 2 0 1 0 0-4 2 2 0 0 0 0 4m8 0a2 2 0 1 0 0-4 2 2 0 0 0 0 4m40 0a2 2 0 1 0 0-4 2 2 0 0 0 0 4m8 0a2 2 0 1 0 0-4 2 2 0 0 0 0 4m-648 8a2 2 0 1 0 0-4 2 2 0 0 0 0 4m40 0a2 2 0 1 0 0-4 2 2 0 0 0 0 4m8 0a2 2 0 1 0 0-4 2 2 0 0 0 0 4m176 0a2 2 0 1 0 0-4 2 2 0 0 0 0 4m8 0a2 2 0 1 0 0-4 2 2 0 0 0 0 4m8 0a2 2 0 1 0 0-4 2 2 0 0 0 0 4m8 0a2 2 0 1 0 0-4 2 2 0 0 0 0 4m8 0a2 2 0 1 0 0-4 2 2 0 0 0 0 4m8 0a2 2 0 1 0 0-4 2 2 0 0 0 0 4m8 0a2 2 0 1 0 0-4 2 2 0 0 0 0 4m8 0a2 2 0 1 0 0-4 2 2 0 0 0 0 4m8 0a2 2 0 1 0 0-4 2 2 0 0 0 0 4m8 0a2 2 0 1 0 0-4 2 2 0 0 0 0 4m8 0a2 2 0 1 0 0-4 2 2 0 0 0 0 4m8 0a2 2 0 1 0 0-4 2 2 0 0 0 0 4m8 0a2 2 0 1 0 0-4 2 2 0 0 0 0 4m8 0a2 2 0 1 0 0-4 2 2 0 0 0 0 4m8 0a2 2 0 1 0 0-4 2 2 0 0 0 0 4m8 0a2 2 0 1 0 0-4 2 2 0 0 0 0 4m8 0a2 2 0 1 0 0-4 2 2 0 0 0 0 4m8 0a2 2 0 1 0 0-4 2 2 0 0 0 0 4m8 0a2 2 0 1 0 0-4 2 2 0 0 0 0 4m8 0a2 2 0 1 0 0-4 2 2 0 0 0 0 4m8 0a2 2 0 1 0 0-4 2 2 0 0 0 0 4m8 0a2 2 0 1 0 0-4 2 2 0 0 0 0 4m8 0a2 2 0 1 0 0-4 2 2 0 0 0 0 4m16 0a2 2 0 1 0 0-4 2 2 0 0 0 0 4m8 0a2 2 0 1 0 0-4 2 2 0 0 0 0 4m80 0a2 2 0 1 0 0-4 2 2 0 0 0 0 4m8 0a2 2 0 1 0 0-4 2 2 0 0 0 0 4m80 0a2 2 0 1 0 0-4 2 2 0 0 0 0 4m8 0a2 2 0 1 0 0-4 2 2 0 0 0 0 4m48 0a2 2 0 1 0 0-4 2 2 0 0 0 0 4m8 0a2 2 0 1 0 0-4 2 2 0 0 0 0 4m-648 8a2 2 0 1 0 0-4 2 2 0 0 0 0 4m8 0a2 2 0 1 0 0-4 2 2 0 0 0 0 4m8 0a2 2 0 1 0 0-4 2 2 0 0 0 0 4m8 0a2 2 0 1 0 0-4 2 2 0 0 0 0 4m8 0a2 2 0 1 0 0-4 2 2 0 0 0 0 4m8 0a2 2 0 1 0 0-4 2 2 0 0 0 0 4m8 0a2 2 0 1 0 0-4 2 2 0 0 0 0 4m8 0a2 2 0 1 0 0-4 2 2 0 0 0 0 4m8 0a2 2 0 1 0 0-4 2 2 0 0 0 0 4m160 0a2 2 0 1 0 0-4 2 2 0 0 0 0 4m8 0a2 2 0 1 0 0-4 2 2 0 0 0 0 4m8 0a2 2 0 1 0 0-4 2 2 0 0 0 0 4m8 0a2 2 0 1 0 0-4 2 2 0 0 0 0 4m8 0a2 2 0 1 0 0-4 2 2 0 0 0 0 4m8 0a2 2 0 1 0 0-4 2 2 0 0 0 0 4m8 0a2 2 0 1 0 0-4 2 2 0 0 0 0 4m8 0a2 2 0 1 0 0-4 2 2 0 0 0 0 4m8 0a2 2 0 1 0 0-4 2 2 0 0 0 0 4m8 0a2 2 0 1 0 0-4 2 2 0 0 0 0 4m8 0a2 2 0 1 0 0-4 2 2 0 0 0 0 4m8 0a2 2 0 1 0 0-4 2 2 0 0 0 0 4m8 0a2 2 0 1 0 0-4 2 2 0 0 0 0 4m8 0a2 2 0 1 0 0-4 2 2 0 0 0 0 4m8 0a2 2 0 1 0 0-4 2 2 0 0 0 0 4m8 0a2 2 0 1 0 0-4 2 2 0 0 0 0 4m8 0a2 2 0 1 0 0-4 2 2 0 0 0 0 4m8 0a2 2 0 1 0 0-4 2 2 0 0 0 0 4m8 0a2 2 0 1 0 0-4 2 2 0 0 0 0 4m8 0a2 2 0 1 0 0-4 2 2 0 0 0 0 4m8 0a2 2 0 1 0 0-4 2 2 0 0 0 0 4m8 0a2 2 0 1 0 0-4 2 2 0 0 0 0 4m8 0a2 2 0 1 0 0-4 2 2 0 0 0 0 4m8 0a2 2 0 1 0 0-4 2 2 0 0 0 0 4m160 0a2 2 0 1 0 0-4 2 2 0 0 0 0 4m80 0a2 2 0 1 0 0-4 2 2 0 0 0 0 4m-624 8a2 2 0 1 0 0-4 2 2 0 0 0 0 4m8 0a2 2 0 1 0 0-4 2 2 0 0 0 0 4m8 0a2 2 0 1 0 0-4 2 2 0 0 0 0 4m8 0a2 2 0 1 0 0-4 2 2 0 0 0 0 4m8 0a2 2 0 1 0 0-4 2 2 0 0 0 0 4m8 0a2 2 0 1 0 0-4 2 2 0 0 0 0 4m8 0a2 2 0 1 0 0-4 2 2 0 0 0 0 4m8 0a2 2 0 1 0 0-4 2 2 0 0 0 0 4m152 0a2 2 0 1 0 0-4 2 2 0 0 0 0 4m8 0a2 2 0 1 0 0-4 2 2 0 0 0 0 4m8 0a2 2 0 1 0 0-4 2 2 0 0 0 0 4m8 0a2 2 0 1 0 0-4 2 2 0 0 0 0 4m24 0a2 2 0 1 0 0-4 2 2 0 0 0 0 4m8 0a2 2 0 1 0 0-4 2 2 0 0 0 0 4m8 0a2 2 0 1 0 0-4 2 2 0 0 0 0 4m8 0a2 2 0 1 0 0-4 2 2 0 0 0 0 4m8 0a2 2 0 1 0 0-4 2 2 0 0 0 0 4m8 0a2 2 0 1 0 0-4 2 2 0 0 0 0 4m8 0a2 2 0 1 0 0-4 2 2 0 0 0 0 4m8 0a2 2 0 1 0 0-4 2 2 0 0 0 0 4m8 0a2 2 0 1 0 0-4 2 2 0 0 0 0 4m8 0a2 2 0 1 0 0-4 2 2 0 0 0 0 4m8 0a2 2 0 1 0 0-4 2 2 0 0 0 0 4m8 0a2 2 0 1 0 0-4 2 2 0 0 0 0 4m8 0a2 2 0 1 0 0-4 2 2 0 0 0 0 4m8 0a2 2 0 1 0 0-4 2 2 0 0 0 0 4m8 0a2 2 0 1 0 0-4 2 2 0 0 0 0 4m8 0a2 2 0 1 0 0-4 2 2 0 0 0 0 4m8 0a2 2 0 1 0 0-4 2 2 0 0 0 0 4m168 0a2 2 0 1 0 0-4 2 2 0 0 0 0 4m48 0a2 2 0 1 0 0-4 2 2 0 0 0 0 4m24 0a2 2 0 1 0 0-4 2 2 0 0 0 0 4m-632 8a2 2 0 1 0 0-4 2 2 0 0 0 0 4m8 0a2 2 0 1 0 0-4 2 2 0 0 0 0 4m8 0a2 2 0 1 0 0-4 2 2 0 0 0 0 4m8 0a2 2 0 1 0 0-4 2 2 0 0 0 0 4m8 0a2 2 0 1 0 0-4 2 2 0 0 0 0 4m8 0a2 2 0 1 0 0-4 2 2 0 0 0 0 4m8 0a2 2 0 1 0 0-4 2 2 0 0 0 0 4m8 0a2 2 0 1 0 0-4 2 2 0 0 0 0 4m8 0a2 2 0 1 0 0-4 2 2 0 0 0 0 4m8 0a2 2 0 1 0 0-4 2 2 0 0 0 0 4m8 0a2 2 0 1 0 0-4 2 2 0 0 0 0 4m192 0a2 2 0 1 0 0-4 2 2 0 0 0 0 4m8 0a2 2 0 1 0 0-4 2 2 0 0 0 0 4m8 0a2 2 0 1 0 0-4 2 2 0 0 0 0 4m8 0a2 2 0 1 0 0-4 2 2 0 0 0 0 4m8 0a2 2 0 1 0 0-4 2 2 0 0 0 0 4m8 0a2 2 0 1 0 0-4 2 2 0 0 0 0 4m8 0a2 2 0 1 0 0-4 2 2 0 0 0 0 4m8 0a2 2 0 1 0 0-4 2 2 0 0 0 0 4m8 0a2 2 0 1 0 0-4 2 2 0 0 0 0 4m8 0a2 2 0 1 0 0-4 2 2 0 0 0 0 4m8 0a2 2 0 1 0 0-4 2 2 0 0 0 0 4m8 0a2 2 0 1 0 0-4 2 2 0 0 0 0 4m8 0a2 2 0 1 0 0-4 2 2 0 0 0 0 4m8 0a2 2 0 1 0 0-4 2 2 0 0 0 0 4m8 0a2 2 0 1 0 0-4 2 2 0 0 0 0 4m168 0a2 2 0 1 0 0-4 2 2 0 0 0 0 4m8 0a2 2 0 1 0 0-4 2 2 0 0 0 0 4m40 0a2 2 0 1 0 0-4 2 2 0 0 0 0 4m8 0a2 2 0 1 0 0-4 2 2 0 0 0 0 4m-616 8a2 2 0 1 0 0-4 2 2 0 0 0 0 4m8 0a2 2 0 1 0 0-4 2 2 0 0 0 0 4m8 0a2 2 0 1 0 0-4 2 2 0 0 0 0 4m8 0a2 2 0 1 0 0-4 2 2 0 0 0 0 4m8 0a2 2 0 1 0 0-4 2 2 0 0 0 0 4m8 0a2 2 0 1 0 0-4 2 2 0 0 0 0 4m8 0a2 2 0 1 0 0-4 2 2 0 0 0 0 4m8 0a2 2 0 1 0 0-4 2 2 0 0 0 0 4m8 0a2 2 0 1 0 0-4 2 2 0 0 0 0 4m8 0a2 2 0 1 0 0-4 2 2 0 0 0 0 4m8 0a2 2 0 1 0 0-4 2 2 0 0 0 0 4m8 0a2 2 0 1 0 0-4 2 2 0 0 0 0 4m192 0a2 2 0 1 0 0-4 2 2 0 0 0 0 4m8 0a2 2 0 1 0 0-4 2 2 0 0 0 0 4m8 0a2 2 0 1 0 0-4 2 2 0 0 0 0 4m8 0a2 2 0 1 0 0-4 2 2 0 0 0 0 4m8 0a2 2 0 1 0 0-4 2 2 0 0 0 0 4m8 0a2 2 0 1 0 0-4 2 2 0 0 0 0 4m8 0a2 2 0 1 0 0-4 2 2 0 0 0 0 4m8 0a2 2 0 1 0 0-4 2 2 0 0 0 0 4m8 0a2 2 0 1 0 0-4 2 2 0 0 0 0 4m8 0a2 2 0 1 0 0-4 2 2 0 0 0 0 4m8 0a2 2 0 1 0 0-4 2 2 0 0 0 0 4m8 0a2 2 0 1 0 0-4 2 2 0 0 0 0 4m8 0a2 2 0 1 0 0-4 2 2 0 0 0 0 4m8 0a2 2 0 1 0 0-4 2 2 0 0 0 0 4m176 0a2 2 0 1 0 0-4 2 2 0 0 0 0 4m8 0a2 2 0 1 0 0-4 2 2 0 0 0 0 4m24 0a2 2 0 1 0 0-4 2 2 0 0 0 0 4m8 0a2 2 0 1 0 0-4 2 2 0 0 0 0 4m8 0a2 2 0 1 0 0-4 2 2 0 0 0 0 4m8 0a2 2 0 1 0 0-4 2 2 0 0 0 0 4m16 0a2 2 0 1 0 0-4 2 2 0 0 0 0 4m8 0a2 2 0 1 0 0-4 2 2 0 0 0 0 4m-640 8a2 2 0 1 0 0-4 2 2 0 0 0 0 4m8 0a2 2 0 1 0 0-4 2 2 0 0 0 0 4m8 0a2 2 0 1 0 0-4 2 2 0 0 0 0 4m8 0a2 2 0 1 0 0-4 2 2 0 0 0 0 4m8 0a2 2 0 1 0 0-4 2 2 0 0 0 0 4m8 0a2 2 0 1 0 0-4 2 2 0 0 0 0 4m8 0a2 2 0 1 0 0-4 2 2 0 0 0 0 4m8 0a2 2 0 1 0 0-4 2 2 0 0 0 0 4m8 0a2 2 0 1 0 0-4 2 2 0 0 0 0 4m8 0a2 2 0 1 0 0-4 2 2 0 0 0 0 4m8 0a2 2 0 1 0 0-4 2 2 0 0 0 0 4m8 0a2 2 0 1 0 0-4 2 2 0 0 0 0 4m8 0a2 2 0 1 0 0-4 2 2 0 0 0 0 4m8 0a2 2 0 1 0 0-4 2 2 0 0 0 0 4m176 0a2 2 0 1 0 0-4 2 2 0 0 0 0 4m8 0a2 2 0 1 0 0-4 2 2 0 0 0 0 4m8 0a2 2 0 1 0 0-4 2 2 0 0 0 0 4m8 0a2 2 0 1 0 0-4 2 2 0 0 0 0 4m8 0a2 2 0 1 0 0-4 2 2 0 0 0 0 4m8 0a2 2 0 1 0 0-4 2 2 0 0 0 0 4m8 0a2 2 0 1 0 0-4 2 2 0 0 0 0 4m8 0a2 2 0 1 0 0-4 2 2 0 0 0 0 4m8 0a2 2 0 1 0 0-4 2 2 0 0 0 0 4m8 0a2 2 0 1 0 0-4 2 2 0 0 0 0 4m8 0a2 2 0 1 0 0-4 2 2 0 0 0 0 4m8 0a2 2 0 1 0 0-4 2 2 0 0 0 0 4m8 0a2 2 0 1 0 0-4 2 2 0 0 0 0 4m192 0a2 2 0 1 0 0-4 2 2 0 0 0 0 4m8 0a2 2 0 1 0 0-4 2 2 0 0 0 0 4m24 0a2 2 0 1 0 0-4 2 2 0 0 0 0 4m8 0a2 2 0 1 0 0-4 2 2 0 0 0 0 4m16 0a2 2 0 1 0 0-4 2 2 0 0 0 0 4m8 0a2 2 0 1 0 0-4 2 2 0 0 0 0 4m32 0a2 2 0 1 0 0-4 2 2 0 0 0 0 4m16 0a2 2 0 1 0 0-4 2 2 0 0 0 0 4m-680 8a2 2 0 1 0 0-4 2 2 0 0 0 0 4m8 0a2 2 0 1 0 0-4 2 2 0 0 0 0 4m8 0a2 2 0 1 0 0-4 2 2 0 0 0 0 4m8 0a2 2 0 1 0 0-4 2 2 0 0 0 0 4m8 0a2 2 0 1 0 0-4 2 2 0 0 0 0 4m8 0a2 2 0 1 0 0-4 2 2 0 0 0 0 4m8 0a2 2 0 1 0 0-4 2 2 0 0 0 0 4m8 0a2 2 0 1 0 0-4 2 2 0 0 0 0 4m8 0a2 2 0 1 0 0-4 2 2 0 0 0 0 4m8 0a2 2 0 1 0 0-4 2 2 0 0 0 0 4m8 0a2 2 0 1 0 0-4 2 2 0 0 0 0 4m8 0a2 2 0 1 0 0-4 2 2 0 0 0 0 4m8 0a2 2 0 1 0 0-4 2 2 0 0 0 0 4m8 0a2 2 0 1 0 0-4 2 2 0 0 0 0 4m8 0a2 2 0 1 0 0-4 2 2 0 0 0 0 4m8 0a2 2 0 1 0 0-4 2 2 0 0 0 0 4m8 0a2 2 0 1 0 0-4 2 2 0 0 0 0 4m160 0a2 2 0 1 0 0-4 2 2 0 0 0 0 4m8 0a2 2 0 1 0 0-4 2 2 0 0 0 0 4m8 0a2 2 0 1 0 0-4 2 2 0 0 0 0 4m8 0a2 2 0 1 0 0-4 2 2 0 0 0 0 4m8 0a2 2 0 1 0 0-4 2 2 0 0 0 0 4m8 0a2 2 0 1 0 0-4 2 2 0 0 0 0 4m8 0a2 2 0 1 0 0-4 2 2 0 0 0 0 4m8 0a2 2 0 1 0 0-4 2 2 0 0 0 0 4m8 0a2 2 0 1 0 0-4 2 2 0 0 0 0 4m8 0a2 2 0 1 0 0-4 2 2 0 0 0 0 4m8 0a2 2 0 1 0 0-4 2 2 0 0 0 0 4m208 0a2 2 0 1 0 0-4 2 2 0 0 0 0 4m48 0a2 2 0 1 0 0-4 2 2 0 0 0 0 4m8 0a2 2 0 1 0 0-4 2 2 0 0 0 0 4m40 0a2 2 0 1 0 0-4 2 2 0 0 0 0 4m8 0a2 2 0 1 0 0-4 2 2 0 0 0 0 4m8 0a2 2 0 1 0 0-4 2 2 0 0 0 0 4m8 0a2 2 0 1 0 0-4 2 2 0 0 0 0 4m8 0a2 2 0 1 0 0-4 2 2 0 0 0 0 4m24 0a2 2 0 1 0 0-4 2 2 0 0 0 0 4m-728 8a2 2 0 1 0 0-4 2 2 0 0 0 0 4m8 0a2 2 0 1 0 0-4 2 2 0 0 0 0 4m8 0a2 2 0 1 0 0-4 2 2 0 0 0 0 4m8 0a2 2 0 1 0 0-4 2 2 0 0 0 0 4m16 0a2 2 0 1 0 0-4 2 2 0 0 0 0 4m8 0a2 2 0 1 0 0-4 2 2 0 0 0 0 4m8 0a2 2 0 1 0 0-4 2 2 0 0 0 0 4m8 0a2 2 0 1 0 0-4 2 2 0 0 0 0 4m8 0a2 2 0 1 0 0-4 2 2 0 0 0 0 4m8 0a2 2 0 1 0 0-4 2 2 0 0 0 0 4m8 0a2 2 0 1 0 0-4 2 2 0 0 0 0 4m8 0a2 2 0 1 0 0-4 2 2 0 0 0 0 4m8 0a2 2 0 1 0 0-4 2 2 0 0 0 0 4m8 0a2 2 0 1 0 0-4 2 2 0 0 0 0 4m8 0a2 2 0 1 0 0-4 2 2 0 0 0 0 4m8 0a2 2 0 1 0 0-4 2 2 0 0 0 0 4m8 0a2 2 0 1 0 0-4 2 2 0 0 0 0 4m160 0a2 2 0 1 0 0-4 2 2 0 0 0 0 4m8 0a2 2 0 1 0 0-4 2 2 0 0 0 0 4m8 0a2 2 0 1 0 0-4 2 2 0 0 0 0 4m8 0a2 2 0 1 0 0-4 2 2 0 0 0 0 4m8 0a2 2 0 1 0 0-4 2 2 0 0 0 0 4m8 0a2 2 0 1 0 0-4 2 2 0 0 0 0 4m8 0a2 2 0 1 0 0-4 2 2 0 0 0 0 4m8 0a2 2 0 1 0 0-4 2 2 0 0 0 0 4m8 0a2 2 0 1 0 0-4 2 2 0 0 0 0 4m8 0a2 2 0 1 0 0-4 2 2 0 0 0 0 4m216 0a2 2 0 1 0 0-4 2 2 0 0 0 0 4m8 0a2 2 0 1 0 0-4 2 2 0 0 0 0 4m8 0a2 2 0 1 0 0-4 2 2 0 0 0 0 4m88 0a2 2 0 1 0 0-4 2 2 0 0 0 0 4m8 0a2 2 0 1 0 0-4 2 2 0 0 0 0 4m8 0a2 2 0 1 0 0-4 2 2 0 0 0 0 4m32 0a2 2 0 1 0 0-4 2 2 0 0 0 0 4m-728 8a2 2 0 1 0 0-4 2 2 0 0 0 0 4m8 0a2 2 0 1 0 0-4 2 2 0 0 0 0 4m8 0a2 2 0 1 0 0-4 2 2 0 0 0 0 4m8 0a2 2 0 1 0 0-4 2 2 0 0 0 0 4m8 0a2 2 0 1 0 0-4 2 2 0 0 0 0 4m8 0a2 2 0 1 0 0-4 2 2 0 0 0 0 4m8 0a2 2 0 1 0 0-4 2 2 0 0 0 0 4m8 0a2 2 0 1 0 0-4 2 2 0 0 0 0 4m8 0a2 2 0 1 0 0-4 2 2 0 0 0 0 4m8 0a2 2 0 1 0 0-4 2 2 0 0 0 0 4m8 0a2 2 0 1 0 0-4 2 2 0 0 0 0 4m8 0a2 2 0 1 0 0-4 2 2 0 0 0 0 4m8 0a2 2 0 1 0 0-4 2 2 0 0 0 0 4m16 0a2 2 0 1 0 0-4 2 2 0 0 0 0 4m8 0a2 2 0 1 0 0-4 2 2 0 0 0 0 4m8 0a2 2 0 1 0 0-4 2 2 0 0 0 0 4m160 0a2 2 0 1 0 0-4 2 2 0 0 0 0 4m8 0a2 2 0 1 0 0-4 2 2 0 0 0 0 4m8 0a2 2 0 1 0 0-4 2 2 0 0 0 0 4m8 0a2 2 0 1 0 0-4 2 2 0 0 0 0 4m8 0a2 2 0 1 0 0-4 2 2 0 0 0 0 4m8 0a2 2 0 1 0 0-4 2 2 0 0 0 0 4m8 0a2 2 0 1 0 0-4 2 2 0 0 0 0 4m8 0a2 2 0 1 0 0-4 2 2 0 0 0 0 4m8 0a2 2 0 1 0 0-4 2 2 0 0 0 0 4m8 0a2 2 0 1 0 0-4 2 2 0 0 0 0 4m344 0a2 2 0 1 0 0-4 2 2 0 0 0 0 4m40 0a2 2 0 1 0 0-4 2 2 0 0 0 0 4m-736 8a2 2 0 1 0 0-4 2 2 0 0 0 0 4m8 0a2 2 0 1 0 0-4 2 2 0 0 0 0 4m8 0a2 2 0 1 0 0-4 2 2 0 0 0 0 4m8 0a2 2 0 1 0 0-4 2 2 0 0 0 0 4m8 0a2 2 0 1 0 0-4 2 2 0 0 0 0 4m8 0a2 2 0 1 0 0-4 2 2 0 0 0 0 4m8 0a2 2 0 1 0 0-4 2 2 0 0 0 0 4m8 0a2 2 0 1 0 0-4 2 2 0 0 0 0 4m8 0a2 2 0 1 0 0-4 2 2 0 0 0 0 4m8 0a2 2 0 1 0 0-4 2 2 0 0 0 0 4m8 0a2 2 0 1 0 0-4 2 2 0 0 0 0 4m8 0a2 2 0 1 0 0-4 2 2 0 0 0 0 4m8 0a2 2 0 1 0 0-4 2 2 0 0 0 0 4m8 0a2 2 0 1 0 0-4 2 2 0 0 0 0 4m8 0a2 2 0 1 0 0-4 2 2 0 0 0 0 4m168 0a2 2 0 1 0 0-4 2 2 0 0 0 0 4m8 0a2 2 0 1 0 0-4 2 2 0 0 0 0 4m8 0a2 2 0 1 0 0-4 2 2 0 0 0 0 4m8 0a2 2 0 1 0 0-4 2 2 0 0 0 0 4m8 0a2 2 0 1 0 0-4 2 2 0 0 0 0 4m8 0a2 2 0 1 0 0-4 2 2 0 0 0 0 4m8 0a2 2 0 1 0 0-4 2 2 0 0 0 0 4m8 0a2 2 0 1 0 0-4 2 2 0 0 0 0 4m8 0a2 2 0 1 0 0-4 2 2 0 0 0 0 4m8 0a2 2 0 1 0 0-4 2 2 0 0 0 0 4m296 0a2 2 0 1 0 0-4 2 2 0 0 0 0 4m8 0a2 2 0 1 0 0-4 2 2 0 0 0 0 4m-656 8a2 2 0 1 0 0-4 2 2 0 0 0 0 4m8 0a2 2 0 1 0 0-4 2 2 0 0 0 0 4m8 0a2 2 0 1 0 0-4 2 2 0 0 0 0 4m8 0a2 2 0 1 0 0-4 2 2 0 0 0 0 4m8 0a2 2 0 1 0 0-4 2 2 0 0 0 0 4m8 0a2 2 0 1 0 0-4 2 2 0 0 0 0 4m8 0a2 2 0 1 0 0-4 2 2 0 0 0 0 4m8 0a2 2 0 1 0 0-4 2 2 0 0 0 0 4m8 0a2 2 0 1 0 0-4 2 2 0 0 0 0 4m8 0a2 2 0 1 0 0-4 2 2 0 0 0 0 4m8 0a2 2 0 1 0 0-4 2 2 0 0 0 0 4m8 0a2 2 0 1 0 0-4 2 2 0 0 0 0 4m8 0a2 2 0 1 0 0-4 2 2 0 0 0 0 4m8 0a2 2 0 1 0 0-4 2 2 0 0 0 0 4m8 0a2 2 0 1 0 0-4 2 2 0 0 0 0 4m160 0a2 2 0 1 0 0-4 2 2 0 0 0 0 4m8 0a2 2 0 1 0 0-4 2 2 0 0 0 0 4m8 0a2 2 0 1 0 0-4 2 2 0 0 0 0 4m8 0a2 2 0 1 0 0-4 2 2 0 0 0 0 4m8 0a2 2 0 1 0 0-4 2 2 0 0 0 0 4m8 0a2 2 0 1 0 0-4 2 2 0 0 0 0 4m8 0a2 2 0 1 0 0-4 2 2 0 0 0 0 4m8 0a2 2 0 1 0 0-4 2 2 0 0 0 0 4m8 0a2 2 0 1 0 0-4 2 2 0 0 0 0 4m8 0a2 2 0 1 0 0-4 2 2 0 0 0 0 4m8 0a2 2 0 1 0 0-4 2 2 0 0 0 0 4m32 0a2 2 0 1 0 0-4 2 2 0 0 0 0 4m240 0a2 2 0 1 0 0-4 2 2 0 0 0 0 4m16 0a2 2 0 1 0 0-4 2 2 0 0 0 0 4m8 0a2 2 0 1 0 0-4 2 2 0 0 0 0 4m24 0a2 2 0 1 0 0-4 2 2 0 0 0 0 4m8 0a2 2 0 1 0 0-4 2 2 0 0 0 0 4m-664 8a2 2 0 1 0 0-4 2 2 0 0 0 0 4m8 0a2 2 0 1 0 0-4 2 2 0 0 0 0 4m8 0a2 2 0 1 0 0-4 2 2 0 0 0 0 4m8 0a2 2 0 1 0 0-4 2 2 0 0 0 0 4m8 0a2 2 0 1 0 0-4 2 2 0 0 0 0 4m8 0a2 2 0 1 0 0-4 2 2 0 0 0 0 4m8 0a2 2 0 1 0 0-4 2 2 0 0 0 0 4m8 0a2 2 0 1 0 0-4 2 2 0 0 0 0 4m8 0a2 2 0 1 0 0-4 2 2 0 0 0 0 4m8 0a2 2 0 1 0 0-4 2 2 0 0 0 0 4m8 0a2 2 0 1 0 0-4 2 2 0 0 0 0 4m8 0a2 2 0 1 0 0-4 2 2 0 0 0 0 4m8 0a2 2 0 1 0 0-4 2 2 0 0 0 0 4m160 0a2 2 0 1 0 0-4 2 2 0 0 0 0 4m8 0a2 2 0 1 0 0-4 2 2 0 0 0 0 4m8 0a2 2 0 1 0 0-4 2 2 0 0 0 0 4m8 0a2 2 0 1 0 0-4 2 2 0 0 0 0 4m8 0a2 2 0 1 0 0-4 2 2 0 0 0 0 4m8 0a2 2 0 1 0 0-4 2 2 0 0 0 0 4m8 0a2 2 0 1 0 0-4 2 2 0 0 0 0 4m8 0a2 2 0 1 0 0-4 2 2 0 0 0 0 4m8 0a2 2 0 1 0 0-4 2 2 0 0 0 0 4m8 0a2 2 0 1 0 0-4 2 2 0 0 0 0 4m8 0a2 2 0 1 0 0-4 2 2 0 0 0 0 4m24 0a2 2 0 1 0 0-4 2 2 0 0 0 0 4m8 0a2 2 0 1 0 0-4 2 2 0 0 0 0 4m232 0a2 2 0 1 0 0-4 2 2 0 0 0 0 4m8 0a2 2 0 1 0 0-4 2 2 0 0 0 0 4m8 0a2 2 0 1 0 0-4 2 2 0 0 0 0 4m8 0a2 2 0 1 0 0-4 2 2 0 0 0 0 4m8 0a2 2 0 1 0 0-4 2 2 0 0 0 0 4m8 0a2 2 0 1 0 0-4 2 2 0 0 0 0 4m16 0a2 2 0 1 0 0-4 2 2 0 0 0 0 4m8 0a2 2 0 1 0 0-4 2 2 0 0 0 0 4m-656 8a2 2 0 1 0 0-4 2 2 0 0 0 0 4m8 0a2 2 0 1 0 0-4 2 2 0 0 0 0 4m8 0a2 2 0 1 0 0-4 2 2 0 0 0 0 4m8 0a2 2 0 1 0 0-4 2 2 0 0 0 0 4m8 0a2 2 0 1 0 0-4 2 2 0 0 0 0 4m8 0a2 2 0 1 0 0-4 2 2 0 0 0 0 4m8 0a2 2 0 1 0 0-4 2 2 0 0 0 0 4m8 0a2 2 0 1 0 0-4 2 2 0 0 0 0 4m8 0a2 2 0 1 0 0-4 2 2 0 0 0 0 4m8 0a2 2 0 1 0 0-4 2 2 0 0 0 0 4m8 0a2 2 0 1 0 0-4 2 2 0 0 0 0 4m8 0a2 2 0 1 0 0-4 2 2 0 0 0 0 4m168 0a2 2 0 1 0 0-4 2 2 0 0 0 0 4m8 0a2 2 0 1 0 0-4 2 2 0 0 0 0 4m8 0a2 2 0 1 0 0-4 2 2 0 0 0 0 4m8 0a2 2 0 1 0 0-4 2 2 0 0 0 0 4m8 0a2 2 0 1 0 0-4 2 2 0 0 0 0 4m8 0a2 2 0 1 0 0-4 2 2 0 0 0 0 4m8 0a2 2 0 1 0 0-4 2 2 0 0 0 0 4m8 0a2 2 0 1 0 0-4 2 2 0 0 0 0 4m40 0a2 2 0 1 0 0-4 2 2 0 0 0 0 4m232 0a2 2 0 1 0 0-4 2 2 0 0 0 0 4m8 0a2 2 0 1 0 0-4 2 2 0 0 0 0 4m8 0a2 2 0 1 0 0-4 2 2 0 0 0 0 4m8 0a2 2 0 1 0 0-4 2 2 0 0 0 0 4m8 0a2 2 0 1 0 0-4 2 2 0 0 0 0 4m8 0a2 2 0 1 0 0-4 2 2 0 0 0 0 4m8 0a2 2 0 1 0 0-4 2 2 0 0 0 0 4m8 0a2 2 0 1 0 0-4 2 2 0 0 0 0 4m8 0a2 2 0 1 0 0-4 2 2 0 0 0 0 4m8 0a2 2 0 1 0 0-4 2 2 0 0 0 0 4m-656 8a2 2 0 1 0 0-4 2 2 0 0 0 0 4m8 0a2 2 0 1 0 0-4 2 2 0 0 0 0 4m8 0a2 2 0 1 0 0-4 2 2 0 0 0 0 4m8 0a2 2 0 1 0 0-4 2 2 0 0 0 0 4m8 0a2 2 0 1 0 0-4 2 2 0 0 0 0 4m8 0a2 2 0 1 0 0-4 2 2 0 0 0 0 4m8 0a2 2 0 1 0 0-4 2 2 0 0 0 0 4m8 0a2 2 0 1 0 0-4 2 2 0 0 0 0 4m8 0a2 2 0 1 0 0-4 2 2 0 0 0 0 4m8 0a2 2 0 1 0 0-4 2 2 0 0 0 0 4m8 0a2 2 0 1 0 0-4 2 2 0 0 0 0 4m176 0a2 2 0 1 0 0-4 2 2 0 0 0 0 4m8 0a2 2 0 1 0 0-4 2 2 0 0 0 0 4m8 0a2 2 0 1 0 0-4 2 2 0 0 0 0 4m8 0a2 2 0 1 0 0-4 2 2 0 0 0 0 4m8 0a2 2 0 1 0 0-4 2 2 0 0 0 0 4m8 0a2 2 0 1 0 0-4 2 2 0 0 0 0 4m8 0a2 2 0 1 0 0-4 2 2 0 0 0 0 4m8 0a2 2 0 1 0 0-4 2 2 0 0 0 0 4m32 0a2 2 0 1 0 0-4 2 2 0 0 0 0 4m8 0a2 2 0 1 0 0-4 2 2 0 0 0 0 4m208 0a2 2 0 1 0 0-4 2 2 0 0 0 0 4m8 0a2 2 0 1 0 0-4 2 2 0 0 0 0 4m8 0a2 2 0 1 0 0-4 2 2 0 0 0 0 4m8 0a2 2 0 1 0 0-4 2 2 0 0 0 0 4m8 0a2 2 0 1 0 0-4 2 2 0 0 0 0 4m8 0a2 2 0 1 0 0-4 2 2 0 0 0 0 4m8 0a2 2 0 1 0 0-4 2 2 0 0 0 0 4m8 0a2 2 0 1 0 0-4 2 2 0 0 0 0 4m8 0a2 2 0 1 0 0-4 2 2 0 0 0 0 4m8 0a2 2 0 1 0 0-4 2 2 0 0 0 0 4m8 0a2 2 0 1 0 0-4 2 2 0 0 0 0 4m8 0a2 2 0 1 0 0-4 2 2 0 0 0 0 4m8 0a2 2 0 1 0 0-4 2 2 0 0 0 0 4m56 0a2 2 0 1 0 0-4 2 2 0 0 0 0 4m-712 8a2 2 0 1 0 0-4 2 2 0 0 0 0 4m8 0a2 2 0 1 0 0-4 2 2 0 0 0 0 4m8 0a2 2 0 1 0 0-4 2 2 0 0 0 0 4m8 0a2 2 0 1 0 0-4 2 2 0 0 0 0 4m8 0a2 2 0 1 0 0-4 2 2 0 0 0 0 4m8 0a2 2 0 1 0 0-4 2 2 0 0 0 0 4m8 0a2 2 0 1 0 0-4 2 2 0 0 0 0 4m8 0a2 2 0 1 0 0-4 2 2 0 0 0 0 4m8 0a2 2 0 1 0 0-4 2 2 0 0 0 0 4m192 0a2 2 0 1 0 0-4 2 2 0 0 0 0 4m8 0a2 2 0 1 0 0-4 2 2 0 0 0 0 4m8 0a2 2 0 1 0 0-4 2 2 0 0 0 0 4m8 0a2 2 0 1 0 0-4 2 2 0 0 0 0 4m8 0a2 2 0 1 0 0-4 2 2 0 0 0 0 4m8 0a2 2 0 1 0 0-4 2 2 0 0 0 0 4m8 0a2 2 0 1 0 0-4 2 2 0 0 0 0 4m8 0a2 2 0 1 0 0-4 2 2 0 0 0 0 4m32 0a2 2 0 1 0 0-4 2 2 0 0 0 0 4m208 0a2 2 0 1 0 0-4 2 2 0 0 0 0 4m8 0a2 2 0 1 0 0-4 2 2 0 0 0 0 4m8 0a2 2 0 1 0 0-4 2 2 0 0 0 0 4m8 0a2 2 0 1 0 0-4 2 2 0 0 0 0 4m8 0a2 2 0 1 0 0-4 2 2 0 0 0 0 4m8 0a2 2 0 1 0 0-4 2 2 0 0 0 0 4m8 0a2 2 0 1 0 0-4 2 2 0 0 0 0 4m8 0a2 2 0 1 0 0-4 2 2 0 0 0 0 4m8 0a2 2 0 1 0 0-4 2 2 0 0 0 0 4m8 0a2 2 0 1 0 0-4 2 2 0 0 0 0 4m8 0a2 2 0 1 0 0-4 2 2 0 0 0 0 4m8 0a2 2 0 1 0 0-4 2 2 0 0 0 0 4m8 0a2 2 0 1 0 0-4 2 2 0 0 0 0 4m8 0a2 2 0 1 0 0-4 2 2 0 0 0 0 4m8 0a2 2 0 1 0 0-4 2 2 0 0 0 0 4m-656 8a2 2 0 1 0 0-4 2 2 0 0 0 0 4m8 0a2 2 0 1 0 0-4 2 2 0 0 0 0 4m8 0a2 2 0 1 0 0-4 2 2 0 0 0 0 4m8 0a2 2 0 1 0 0-4 2 2 0 0 0 0 4m8 0a2 2 0 1 0 0-4 2 2 0 0 0 0 4m8 0a2 2 0 1 0 0-4 2 2 0 0 0 0 4m8 0a2 2 0 1 0 0-4 2 2 0 0 0 0 4m8 0a2 2 0 1 0 0-4 2 2 0 0 0 0 4m192 0a2 2 0 1 0 0-4 2 2 0 0 0 0 4m8 0a2 2 0 1 0 0-4 2 2 0 0 0 0 4m8 0a2 2 0 1 0 0-4 2 2 0 0 0 0 4m8 0a2 2 0 1 0 0-4 2 2 0 0 0 0 4m8 0a2 2 0 1 0 0-4 2 2 0 0 0 0 4m8 0a2 2 0 1 0 0-4 2 2 0 0 0 0 4m8 0a2 2 0 1 0 0-4 2 2 0 0 0 0 4m248 0a2 2 0 1 0 0-4 2 2 0 0 0 0 4m8 0a2 2 0 1 0 0-4 2 2 0 0 0 0 4m8 0a2 2 0 1 0 0-4 2 2 0 0 0 0 4m8 0a2 2 0 1 0 0-4 2 2 0 0 0 0 4m8 0a2 2 0 1 0 0-4 2 2 0 0 0 0 4m8 0a2 2 0 1 0 0-4 2 2 0 0 0 0 4m8 0a2 2 0 1 0 0-4 2 2 0 0 0 0 4m8 0a2 2 0 1 0 0-4 2 2 0 0 0 0 4m8 0a2 2 0 1 0 0-4 2 2 0 0 0 0 4m8 0a2 2 0 1 0 0-4 2 2 0 0 0 0 4m8 0a2 2 0 1 0 0-4 2 2 0 0 0 0 4m8 0a2 2 0 1 0 0-4 2 2 0 0 0 0 4m8 0a2 2 0 1 0 0-4 2 2 0 0 0 0 4m8 0a2 2 0 1 0 0-4 2 2 0 0 0 0 4m-648 8a2 2 0 1 0 0-4 2 2 0 0 0 0 4m8 0a2 2 0 1 0 0-4 2 2 0 0 0 0 4m8 0a2 2 0 1 0 0-4 2 2 0 0 0 0 4m8 0a2 2 0 1 0 0-4 2 2 0 0 0 0 4m8 0a2 2 0 1 0 0-4 2 2 0 0 0 0 4m8 0a2 2 0 1 0 0-4 2 2 0 0 0 0 4m8 0a2 2 0 1 0 0-4 2 2 0 0 0 0 4m208 0a2 2 0 1 0 0-4 2 2 0 0 0 0 4m8 0a2 2 0 1 0 0-4 2 2 0 0 0 0 4m8 0a2 2 0 1 0 0-4 2 2 0 0 0 0 4m8 0a2 2 0 1 0 0-4 2 2 0 0 0 0 4m8 0a2 2 0 1 0 0-4 2 2 0 0 0 0 4m256 0a2 2 0 1 0 0-4 2 2 0 0 0 0 4m8 0a2 2 0 1 0 0-4 2 2 0 0 0 0 4m8 0a2 2 0 1 0 0-4 2 2 0 0 0 0 4m8 0a2 2 0 1 0 0-4 2 2 0 0 0 0 4m8 0a2 2 0 1 0 0-4 2 2 0 0 0 0 4m8 0a2 2 0 1 0 0-4 2 2 0 0 0 0 4m8 0a2 2 0 1 0 0-4 2 2 0 0 0 0 4m8 0a2 2 0 1 0 0-4 2 2 0 0 0 0 4m8 0a2 2 0 1 0 0-4 2 2 0 0 0 0 4m8 0a2 2 0 1 0 0-4 2 2 0 0 0 0 4m8 0a2 2 0 1 0 0-4 2 2 0 0 0 0 4m8 0a2 2 0 1 0 0-4 2 2 0 0 0 0 4m8 0a2 2 0 1 0 0-4 2 2 0 0 0 0 4m8 0a2 2 0 1 0 0-4 2 2 0 0 0 0 4m-648 8a2 2 0 1 0 0-4 2 2 0 0 0 0 4m8 0a2 2 0 1 0 0-4 2 2 0 0 0 0 4m8 0a2 2 0 1 0 0-4 2 2 0 0 0 0 4m8 0a2 2 0 1 0 0-4 2 2 0 0 0 0 4m8 0a2 2 0 1 0 0-4 2 2 0 0 0 0 4m8 0a2 2 0 1 0 0-4 2 2 0 0 0 0 4m8 0a2 2 0 1 0 0-4 2 2 0 0 0 0 4m208 0a2 2 0 1 0 0-4 2 2 0 0 0 0 4m8 0a2 2 0 1 0 0-4 2 2 0 0 0 0 4m8 0a2 2 0 1 0 0-4 2 2 0 0 0 0 4m8 0a2 2 0 1 0 0-4 2 2 0 0 0 0 4m256 0a2 2 0 1 0 0-4 2 2 0 0 0 0 4m8 0a2 2 0 1 0 0-4 2 2 0 0 0 0 4m8 0a2 2 0 1 0 0-4 2 2 0 0 0 0 4m8 0a2 2 0 1 0 0-4 2 2 0 0 0 0 4m32 0a2 2 0 1 0 0-4 2 2 0 0 0 0 4m8 0a2 2 0 1 0 0-4 2 2 0 0 0 0 4m8 0a2 2 0 1 0 0-4 2 2 0 0 0 0 4m8 0a2 2 0 1 0 0-4 2 2 0 0 0 0 4m8 0a2 2 0 1 0 0-4 2 2 0 0 0 0 4m8 0a2 2 0 1 0 0-4 2 2 0 0 0 0 4m8 0a2 2 0 1 0 0-4 2 2 0 0 0 0 4m-640 8a2 2 0 1 0 0-4 2 2 0 0 0 0 4m8 0a2 2 0 1 0 0-4 2 2 0 0 0 0 4m8 0a2 2 0 1 0 0-4 2 2 0 0 0 0 4m8 0a2 2 0 1 0 0-4 2 2 0 0 0 0 4m8 0a2 2 0 1 0 0-4 2 2 0 0 0 0 4m504 0a2 2 0 1 0 0-4 2 2 0 0 0 0 4m56 0a2 2 0 1 0 0-4 2 2 0 0 0 0 4m8 0a2 2 0 1 0 0-4 2 2 0 0 0 0 4m8 0a2 2 0 1 0 0-4 2 2 0 0 0 0 4m8 0a2 2 0 1 0 0-4 2 2 0 0 0 0 4m8 0a2 2 0 1 0 0-4 2 2 0 0 0 0 4m72 0a2 2 0 1 0 0-4 2 2 0 0 0 0 4m-696 8a2 2 0 1 0 0-4 2 2 0 0 0 0 4m8 0a2 2 0 1 0 0-4 2 2 0 0 0 0 4m8 0a2 2 0 1 0 0-4 2 2 0 0 0 0 4m8 0a2 2 0 1 0 0-4 2 2 0 0 0 0 4m8 0a2 2 0 1 0 0-4 2 2 0 0 0 0 4m8 0a2 2 0 1 0 0-4 2 2 0 0 0 0 4m560 0a2 2 0 1 0 0-4 2 2 0 0 0 0 4m8 0a2 2 0 1 0 0-4 2 2 0 0 0 0 4m8 0a2 2 0 1 0 0-4 2 2 0 0 0 0 4m80 0a2 2 0 1 0 0-4 2 2 0 0 0 0 4m-696 8a2 2 0 1 0 0-4 2 2 0 0 0 0 4m8 0a2 2 0 1 0 0-4 2 2 0 0 0 0 4m8 0a2 2 0 1 0 0-4 2 2 0 0 0 0 4m8 0a2 2 0 1 0 0-4 2 2 0 0 0 0 4m664 0a2 2 0 1 0 0-4 2 2 0 0 0 0 4m-680 8a2 2 0 1 0 0-4 2 2 0 0 0 0 4m8 0a2 2 0 1 0 0-4 2 2 0 0 0 0 4m8 0a2 2 0 1 0 0-4 2 2 0 0 0 0 4m576 0a2 2 0 1 0 0-4 2 2 0 0 0 0 4m72 0a2 2 0 1 0 0-4 2 2 0 0 0 0 4m-664 8a2 2 0 1 0 0-4 2 2 0 0 0 0 4m8 0a2 2 0 1 0 0-4 2 2 0 0 0 0 4m632 0a2 2 0 1 0 0-4 2 2 0 0 0 0 4m8 0a2 2 0 1 0 0-4 2 2 0 0 0 0 4m-648 8a2 2 0 1 0 0-4 2 2 0 0 0 0 4m8 0a2 2 0 1 0 0-4 2 2 0 0 0 0 4m8 0a2 2 0 1 0 0-4 2 2 0 0 0 0 4m-8 8a2 2 0 1 0 0-4 2 2 0 0 0 0 4m8 0a2 2 0 1 0 0-4 2 2 0 0 0 0 4m-8 8a2 2 0 1 0 0-4 2 2 0 0 0 0 4m8 0a2 2 0 1 0 0-4 2 2 0 0 0 0 4" opacity=".4"/>
  <path fill="#fff" d="M386 100a2 2 0 1 0 0-4 2 2 0 0 0 0 4m64 0a2 2 0 1 0 0-4 2 2 0 0 0 0 4m-344 8a2 2 0 1 0 0-4 2 2 0 0 0 0 4m640 48a2 2 0 1 0 0-4 2 2 0 0 0 0 4m-256 32a2 2 0 1 0 0-4 2 2 0 0 0 0 4m280 48a2 2 0 1 0 0-4 2 2 0 0 0 0 4m-584 48a2 2 0 1 0 0-4 2 2 0 0 0 0 4"/>
  <path fill="#fff" d="M442 52a2 2 0 1 0 0-4 2 2 0 0 0 0 4M34 76a2 2 0 1 0 0-4 2 2 0 0 0 0 4m400 40a2 2 0 1 0 0-4 2 2 0 0 0 0 4m24 0a2 2 0 1 0 0-4 2 2 0 0 0 0 4m-312 8a2 2 0 1 0 0-4 2 2 0 0 0 0 4m248 16a2 2 0 1 0 0-4 2 2 0 0 0 0 4m352 32a2 2 0 1 0 0-4 2 2 0 0 0 0 4M266 292a2 2 0 1 0 0-4 2 2 0 0 0 0 4" opacity=".6"/>
</svg>
