<svg xmlns="http://www.w3.org/2000/svg" xml:space="preserve" style="enable-background:new 0 0 960.5 167.9" viewBox="0 0 960.5 167.9">
  <path d="M336.6 6.8h-64.3v157.5h34.6v-47.1h26.3c35.3 0 63.7-18.9 63.7-55.3v-.4c0-32.5-22.7-54.7-60.3-54.7zm25.2 55.5c0 13.5-10.1 23.8-27.4 23.8H307v-48h26.8c17.3 0 28.1 8.3 28.1 23.8l-.1.4zm84.8 5.6V43.7h-34.2v120.6h34.2v-44.5c0-28.8 13.9-42.5 36.7-42.5h1.8V41.4c-20.3-.9-31.5 9.9-38.5 26.5zm106.8-26.5c-35.1 0-59.6 28.4-59.6 62.7v.5c0 36.9 26.8 62.3 63 62.3 21.8 0 38-8.5 49.3-22.5L586.5 127c-9.5 8.8-17.8 12.4-29.3 12.4-15.3 0-26.1-8.1-29.5-23.6h83.9c.2-3.2.4-6.3.4-9 .2-34.1-18.2-65.4-58.6-65.4zm-26 53.1C530.1 79 539.3 69 553.5 69s23.4 10.4 25.5 25.5h-51.6zm176.5-53.1c-17.8 0-29.3 8.3-37.6 19.6V0h-34.2v164.2h34.2v-15.7c8.1 9.7 19.3 18 37.6 18 28.6 0 54.9-22.1 54.9-62.3v-.4c0-40.4-26.8-62.4-54.9-62.4zm20.7 62.7c0 20.2-13.5 33.3-29.5 33.3s-29.2-13.3-29.2-33.3v-.4c0-20 13.3-33.3 29.2-33.3 16 0 29.5 13.3 29.5 33.3v.4zM778.8.4h36v30.4h-36zm1.1 43.3h34.2v120.6h-34.2zM927.3 0v59.4c-8.1-9.7-19.3-18-37.6-18-28.6 0-54.9 22-54.9 62.3v.4c0 40.3 26.8 62.3 54.9 62.3 17.8 0 29.2-8.3 37.6-19.6v17.3h34.2V0h-34.2zm.5 104.2c0 20-13.3 33.3-29.2 33.3-16 0-29.5-13.3-29.5-33.3v-.4c0-20.2 13.5-33.3 29.5-33.3s29.2 13.3 29.2 33.3v.4z" style="fill:#18a9e1"/>
  <path d="M139.1 32.6H6.9c-3 0-5.4-2.4-5.4-5.4 0-3 2.4-5.4 5.4-5.4h132.3c3 0 5.4 2.4 5.4 5.4-.1 3-2.5 5.4-5.5 5.4zM190 61.1H31.8c-3 0-5.4-2.4-5.4-5.4 0-3 2.4-5.4 5.4-5.4H190c3 0 5.4 2.4 5.4 5.4 0 3-2.5 5.4-5.4 5.4zm-15.8 85.5H16c-3 0-5.4-2.4-5.4-5.4 0-3 2.4-5.4 5.4-5.4h158.2c3 0 5.4 2.4 5.4 5.4 0 3-2.4 5.4-5.4 5.4zm-53.9-57h-98c-3 0-5.4-2.4-5.4-5.4 0-3 2.4-5.4 5.4-5.4h98c3 0 5.4 2.4 5.4 5.4 0 3-2.4 5.4-5.4 5.4zm42.4 28.5H50.2c-3 0-5.4-2.4-5.4-5.4 0-3 2.4-5.4 5.4-5.4h112.5c3 0 5.4 2.4 5.4 5.4 0 3-2.4 5.4-5.4 5.4z" style="fill:#ff6f00"/>
</svg>
