<svg xmlns="http://www.w3.org/2000/svg" xml:space="preserve" viewBox="0 0 785.2 171">
  <path d="M287 79.1c-10 0-17.8 2.6-25.5 6.7v74.4c0 2-1.7 3.9-3.7 3.9h-17c-2 0-3.7-1.8-3.7-3.9V63.4c0-2 1.7-3.7 3.7-3.7h16.1c2 0 3.7 1.7 3.7 3.7v3.9c9.1-7 19.1-8.9 26.5-8.9 2 0 3.7 1.7 3.7 3.7v13.3c-.1 2-1.8 3.7-3.8 3.7m97.5 41.2h-60.3v.6c0 10.7 4.4 23.5 22.2 23.5 13.5 0 26.3-1.1 34-1.9h.6c1.9 0 3.3.9 3.3 2.8v12.2c0 3-.6 4.3-3.9 4.8-12 2.2-19.2 3.1-35.9 3.1-18.5 0-44.8-10-44.8-46.4v-13.7c0-28.9 16.1-47 44.4-47 28.5 0 44 19.4 44 47v10.4c.1 3-1 4.6-3.6 4.6m-20.9-18.1c0-14.4-8-22.8-19.4-22.8s-19.8 8.1-19.8 22.8v.7h39.2zM490.8 164h-17c-2 0-3.7-1.8-3.7-3.9V99.8c0-16.1-1.5-20.7-15.7-20.7-6.3 0-13.1 2.6-20.9 6.7v74.4c0 2-1.7 3.9-3.7 3.9h-17c-2 0-3.7-1.8-3.7-3.9V63.4c0-2 1.7-3.7 3.7-3.7h16.1c2 0 3.7 1.7 3.7 3.7v3.9c10.7-6.8 17.8-8.9 30-8.9 26.6 0 32 17.9 32 41.4v60.3c-.1 2.1-1.7 3.9-3.8 3.9m105.5-3.3c-11.5 3-25.3 4.8-37.2 4.8-29.8 0-44.2-17.6-44.2-46.4v-14.2c0-28.9 14.4-46.4 44.2-46.4 4.4 0 10.9.4 17.8 1.3V27.1c0-2 1.7-3.7 3.7-3.7h17c2 0 3.7 1.7 3.7 3.7v128.8c0 2.6-.8 3.7-5 4.8m-19.4-81.1c-5.2-.7-13.3-1.3-17.8-1.3-15.9 0-19.8 11.3-19.8 26.5V119c0 15.2 3.9 26.5 19.8 26.5 6.7 0 14.2-.6 17.8-1.3zm130 40.7h-60.3v.6c0 10.7 4.4 23.5 22.2 23.5 13.5 0 26.3-1.1 34-1.9h.6c1.8 0 3.3.9 3.3 2.8v12.2c0 3-.6 4.3-3.9 4.8-12 2.2-19.2 3.1-35.9 3.1-18.5 0-44.8-10-44.8-46.4v-13.7c0-28.9 16.1-47 44.4-47 28.5 0 44 19.4 44 47v10.4c.1 3-1 4.6-3.6 4.6M686 102.2c0-14.4-8-22.8-19.4-22.8-11.5 0-19.8 8.1-19.8 22.8v.7H686zm95.5-23.1c-10 0-17.8 2.6-25.5 6.7v74.4c0 2-1.7 3.9-3.7 3.9h-17c-2 0-3.7-1.8-3.7-3.9V63.4c0-2 1.7-3.7 3.7-3.7h16.1c2 0 3.7 1.7 3.7 3.7v3.9c9.1-7 19.1-8.9 26.5-8.9 2 0 3.7 1.7 3.7 3.7v13.3c-.1 2-1.8 3.7-3.8 3.7" style="fill:#3f4358"/>
  <path d="M113.3 0h-2v22.6h22.6V0h-2zM53.5 0c-7.2 0-14.2 1.4-20.8 4.2-6.4 2.7-12.1 6.6-17 11.5s-8.8 10.6-11.5 17C1.4 39.3 0 46.3 0 53.5v80.4h22.6V53.2c.4-8.1 3.8-15.7 9.5-21.3 5.8-5.7 13.4-9 21.5-9.3h43.2V0zm96.9 74.2h-2v22.6H171V74.2h-2zm0-37.1h-2v22.6H171V37.1h-2zM169 0h-20.6v22.6H171V0zm-18.6 111.3h-2v22.6H171v-22.6h-2zm0 37.1h-2V171H171v-22.6h-2zm-37.1 0h-2V171h22.6v-22.6h-2zm-37.1 0h-2V171h22.6v-22.6h-2zm-37.1 0h-2V171h22.6v-22.6h-2zm-37.1 0H0V171h22.6v-22.6h-2z" style="fill:#46e3b7"/>
</svg>
