<svg xmlns="http://www.w3.org/2000/svg" width="44" height="48" fill="none">
  <path fill="url(#a)" fill-rule="evenodd" d="M30 11v7H14v-7a8 8 0 1 1 16 0m-19 7v-7c0-6.075 4.925-11 11-11s11 4.925 11 11v7h3a8 8 0 0 1 8 8v14a8 8 0 0 1-8 8H8a8 8 0 0 1-8-8V26a8 8 0 0 1 8-8zm22 3H8a5 5 0 0 0-5 5v14a5 5 0 0 0 5 5h28a5 5 0 0 0 5-5V26a5 5 0 0 0-5-5z" clip-rule="evenodd"/>
  <defs>
    <linearGradient id="a" x1="22" x2="22" y1="0" y2="48" gradientUnits="userSpaceOnUse">
      <stop stop-color="#F65128"/>
      <stop offset="1" stop-color="#F65128" stop-opacity=".08"/>
    </linearGradient>
  </defs>
</svg>
