<svg xmlns="http://www.w3.org/2000/svg" width="24" height="24" fill="none">
  <path fill="#1DA1F2" d="M21.6 6.505a8.4 8.4 0 0 1-2.262.572c.813-.45 1.437-1.163 1.732-2.012a8.3 8.3 0 0 1-2.502.882A4.1 4.1 0 0 0 15.694 4.8c-2.174 0-3.938 1.628-3.938 3.636q.001.426.101.827c-3.275-.152-6.176-1.6-8.12-3.798a3.4 3.4 0 0 0-.532 1.827c0 1.261.696 2.375 1.752 3.026a4.2 4.2 0 0 1-1.784-.455v.047c0 1.761 1.357 3.23 3.16 3.565a4.3 4.3 0 0 1-1.78.062c.502 1.444 1.957 2.495 3.68 2.524a8.33 8.33 0 0 1-4.892 1.556q-.477 0-.94-.05A11.8 11.8 0 0 0 8.437 19.2c7.247 0 11.209-5.539 11.209-10.343q0-.234-.012-.47a7.7 7.7 0 0 0 1.964-1.88z"/>
</svg>
