<svg xmlns="http://www.w3.org/2000/svg" width="24" height="24" fill="none">
  <path fill="#1DA1F2" d="M21.6 6.505a8.409 8.409 0 0 1-2.262.572c.813-.45 1.437-1.163 1.732-2.012a8.274 8.274 0 0 1-2.502.882A4.098 4.098 0 0 0 15.694 4.8c-2.174 0-3.938 1.628-3.938 3.636 0 .284.035.56.101.827-3.275-.152-6.176-1.6-8.12-3.798a3.421 3.421 0 0 0-.532 1.827c0 1.261.696 2.375 1.752 3.026a4.183 4.183 0 0 1-1.784-.455v.047c0 1.761 1.357 3.23 3.16 3.565a4.281 4.281 0 0 1-1.78.062c.502 1.444 1.957 2.495 3.68 2.524a8.333 8.333 0 0 1-4.892 1.556c-.318 0-.631-.017-.94-.05A11.826 11.826 0 0 0 8.437 19.2c7.247 0 11.209-5.539 11.209-10.343 0-.156-.005-.313-.012-.47a7.695 7.695 0 0 0 1.964-1.88l.002-.002Z"/>
</svg>
