<svg xmlns="http://www.w3.org/2000/svg" viewBox="0 0 635.303 96">
  <path d="M81.15 0a74 74 0 0 0-3.36 6.794 97.9 97.9 0 0 0-28.994 0A68 68 0 0 0 45.437 0a105.6 105.6 0 0 0-26.14 8.057C2.779 32.53-1.691 56.373.53 79.887a105 105 0 0 0 32.05 16.088 77 77 0 0 0 6.87-11.063c-3.738-1.389-7.35-3.131-10.81-5.152.91-.657 1.794-1.338 2.653-1.995a75.26 75.26 0 0 0 64.075 0c.86.707 1.743 1.389 2.652 1.995a69 69 0 0 1-10.835 5.178A77 77 0 0 0 94.056 96a105 105 0 0 0 32.051-16.063c2.626-27.277-4.496-50.917-18.817-71.855A104 104 0 0 0 81.175.05zM42.28 65.414c-6.238 0-11.416-5.657-11.416-12.653s4.976-12.679 11.391-12.679 11.517 5.708 11.416 12.679c-.101 6.97-5.026 12.653-11.39 12.653m42.078 0c-6.264 0-11.391-5.657-11.391-12.653s4.975-12.679 11.39-12.679S95.85 45.79 95.749 52.761c-.1 6.97-5.026 12.653-11.39 12.653m84.482-52.1h37.696q13.628 0 23.06 4.253a31.07 31.07 0 0 1 14.097 11.848 32.23 32.23 0 0 1 4.695 17.343 32.1 32.1 0 0 1-4.874 17.37 33.06 33.06 0 0 1-14.9 12.317q-9.996 4.557-24.785 4.543h-34.99zm34.603 50.455q9.182 0 14.111-4.584c3.372-3.27 4.95-7.723 4.93-12.524.018-4.446-1.38-8.592-4.391-11.737q-4.419-4.391-13.297-4.405h-11.792v33.25zm101.392 17.108a51.1 51.1 0 0 1-14.112-5.896V58.936a38.4 38.4 0 0 0 12.704 6.048 54.3 54.3 0 0 0 15.423 2.361 12 12 0 0 0 5.275-.91c1.188-.609 1.781-1.382 1.781-2.183a3.27 3.27 0 0 0-.966-2.416 8.5 8.5 0 0 0-3.77-1.643l-11.599-2.61q-9.97-2.32-14.153-6.42a14.35 14.35 0 0 1-4.142-10.785 14.32 14.32 0 0 1 3.673-9.762 23.65 23.65 0 0 1 10.438-6.42 49.7 49.7 0 0 1 15.852-2.279 59.8 59.8 0 0 1 14.885 1.74 41.8 41.8 0 0 1 11.212 4.446v15.189a41.4 41.4 0 0 0-10.494-4.295 47 47 0 0 0-12.22-1.601q-9.086 0-9.086 3.093a2.33 2.33 0 0 0 1.381 2.181 22.3 22.3 0 0 0 5.164 1.492l9.666 1.74q9.417 1.656 14.043 5.799c4.626 4.143 4.63 6.803 4.64 12.123a16.03 16.03 0 0 1-7.692 13.974q-7.635 5.122-21.803 5.11a64 64 0 0 1-16.1-2.03Zm68.433-2.03a29 29 0 0 1-12.524-11.046 29.8 29.8 0 0 1-4.143-15.658 28.47 28.47 0 0 1 4.35-15.562 29.2 29.2 0 0 1 12.758-10.77 47.3 47.3 0 0 1 20.105-3.922q14.499 0 24.067 6.09v17.715a30.2 30.2 0 0 0-7.87-3.77 31.3 31.3 0 0 0-9.666-1.45q-8.99 0-14.07 3.287a9.873 9.873 0 0 0-.138 17.163q4.929 3.328 14.305 3.328a33 33 0 0 0 9.527-1.38 35.5 35.5 0 0 0 8.064-3.439v17.122a46.95 46.95 0 0 1-24.647 6.38 45.5 45.5 0 0 1-20.118-4.088m68.681 0a30.06 30.06 0 0 1-12.772-11.046 29.2 29.2 0 0 1-4.391-15.755 28 28 0 0 1 4.39-15.534 29.6 29.6 0 0 1 12.718-10.688 52.7 52.7 0 0 1 39.629 0 29.34 29.34 0 0 1 12.662 10.633 28.2 28.2 0 0 1 4.35 15.561 29.4 29.4 0 0 1-4.35 15.755A29.7 29.7 0 0 1 481.48 78.82a50.15 50.15 0 0 1-39.532 0zm29.37-17.15a12.6 12.6 0 0 0 3.535-9.333 12.25 12.25 0 0 0-3.535-9.224 13.16 13.16 0 0 0-9.666-3.438 13.35 13.35 0 0 0-9.666 3.438 12.3 12.3 0 0 0-3.52 9.224 12.63 12.63 0 0 0 3.52 9.334 13.16 13.16 0 0 0 9.666 3.52 12.98 12.98 0 0 0 9.666-3.52m85.306-36.232v20.906a17.2 17.2 0 0 0-9.57-2.417c-5.15 0-9.126 1.575-11.888 4.695s-4.142 7.967-4.142 14.54v17.785h-23.681V24.43h23.197v17.95q1.934-9.858 6.242-14.54c2.818-3.105 6.91-4.737 11.046-4.694 3.064-.007 6.146.72 8.796 2.32m78.678-14.084v69.593h-23.68V68.27a22.4 22.4 0 0 1-9.142 10.881 28.73 28.73 0 0 1-15.05 3.756 25 25 0 0 1-14.016-3.908 25.7 25.7 0 0 1-9.306-10.729 35.56 35.56 0 0 1-3.231-15.423 34.34 34.34 0 0 1 3.424-15.949 26.83 26.83 0 0 1 9.956-11.046 27.4 27.4 0 0 1 14.65-3.963q16.901 0 22.714 14.692v-25.2zm-27.16 49.985a12.2 12.2 0 0 0 3.631-9.14 11.63 11.63 0 0 0-3.631-8.81 15.19 15.19 0 0 0-19.18 0 11.8 11.8 0 0 0-3.576 8.934 11.97 11.97 0 0 0 3.618 9.016 13 13 0 0 0 9.472 3.466 13.2 13.2 0 0 0 9.665-3.466M268.354 9.241c6.52 0 11.806 4.748 11.806 10.605s-5.286 10.604-11.806 10.604-11.806-4.748-11.806-10.604S261.834 9.24 268.354 9.24m-11.82 28.514a30.5 30.5 0 0 0 23.626 0v43.523h-23.626z" style="fill:#fff"/>
</svg>
