<svg width="1200" height="800" xmlns="http://www.w3.org/2000/svg" clip-rule="evenodd" fill-rule="evenodd" stroke-linejoin="round" viewBox="-25.8525 -67.023 224.055 402.138"><path d="M70.715 48.876c.74-23.487-7.172-37.334-29.917-46.481-6.465 22.614 20.225 43.465 29.917 46.48z" fill="#d1d3d4" stroke="#000" stroke-width="4.79"/><path d="M132.398 88.68c.74-19.286-4.131-27.07-7.787-32.636-3.709-5.192-12.609-13.352-23.544-13.694-10.341-.324-12.828 5.392-22.368 5.737-1.564-17.372 11.547-26.905 11.547-26.905s-3.585-5.067-6.551-6.305c-4.266 3.79-16.008 16.436-13.291 32.708-8.778-1.678-14.974-6.702-24.195-4.888C33.647 45.169 23.292 52.764 17.39 69.43c-5.901 16.667 2.083 36.11 3.819 41.664 1.737 5.558 14.584 29.164 24.653 32.638 10.067 3.475 10.07 1.909 15.452-.173 5.383-2.083 13.54-5.902 25.522-1.561 11.975 4.339 13.537 5.379 21 .519 7.469-4.86 17.188-19.962 19.443-24.303 2.257-4.34 3.473-6.597 4.17-8.853 7.256-3.621.283-3.397.949-20.681z" fill="#d1d3d4" stroke="#000" stroke-width="4.79"/><path d="M151.889 229.63a18 18 0 0018.064-17.998c.002-18.273.002-46.51.002-64.833a18 18 0 00-18-18h-14.838a4 4 0 01-4-4v-9.43H16.087l.295 138.213a4.001 4.001 0 001.85 3.365c5.212 3.018 21.921 8.75 57.004 8.75 35.825 0 51.839-7.674 56.424-11.14a3.979 3.979 0 001.438-3.061c.019-3.825.019-12.688.019-17.924a3.999 3.999 0 014.083-4c4.401.063 9.674.072 14.689.058zm-18.772-79.806c0-1.326.527-2.598 1.464-3.536a5.004 5.004 0 013.536-1.464h12.738c1.326 0 2.598.527 3.536 1.464a5.004 5.004 0 011.464 3.536v58.185a5.004 5.004 0 01-1.464 3.536 5.004 5.004 0 01-3.536 1.464h-12.738a5.004 5.004 0 01-3.536-1.464 5.004 5.004 0 01-1.464-3.536z" fill="#fff" fill-rule="nonzero" stroke="#000" stroke-width="4.79"/><path d="M27.624 114.209v123.986c0 1.43.764 2.753 2.003 3.467 5.061 2.412 19.743 8.169 45.484 8.169 25.912 0 40.158-6.995 44.928-9.878a3.987 3.987 0 001.827-3.351c.011-16.441.011-122.393.011-122.393z" fill="#fbb040"/><path d="M35.521.249v112.816" fill="none" stroke="#ffdb96" stroke-width="11.96" stroke-linecap="round" stroke-linejoin="miter" transform="matrix(1 0 0 .84931 5.957 134.997)"/><path d="M94.73 139.652c0-2-1.177-4.388-3.11-5.587a16.734 16.734 0 01-6.942-8.3c-25.591.86-48.949-3.633-60.716-6.806a98.218 98.218 0 00-9.171-2.13c-7.043-1.397-12.396-7.582-12.396-15.018 0-8.185 6.494-14.836 14.608-15.127 1.565-8.657 9.121-15.23 18.229-15.23 10.242 0 18.544 8.305 18.544 18.546 0 2.155-.389 4.218-1.064 6.144l.055.009C55.054 89 61.75 83.817 69.663 83.817c7.862 0 14.522 5.122 16.848 12.208a18.673 18.673 0 01-.101-1.947c0-10.652 8.634-19.286 19.284-19.286 8.622 0 15.919 5.659 18.388 13.462l1.681-.438a15.083 15.083 0 017.432-1.955c8.369 0 15.154 6.785 15.151 15.152 0 7.666-5.691 14-13.079 15.012a22.339 22.339 0 00-4.891 1.27c-4.391 1.655-8.881 3.027-13.417 4.159a16.66 16.66 0 01-1.909 6.23 20.723 20.723 0 00-2.38 11.258c-.002.236.007 1.472.007 1.71 0 4.956-4.016 7.972-8.976 7.972a8.971 8.971 0 01-8.971-8.972z" fill="#fff" stroke="#000" stroke-width="4.79" stroke-linecap="round"/></svg>