<svg xmlns="http://www.w3.org/2000/svg" width="120mm" height="451.868" viewBox="0 0 425.197 423.627">
  <g style="display:inline;stroke-width:.88449931">
    <g style="stroke-width:.88449931">
      <path d="M27.659-1122.205h16.075v16.075H27.659z" style="color:#000;clip-rule:nonzero;display:inline;overflow:visible;visibility:visible;color-interpolation:sRGB;color-interpolation-filters:linearRGB;fill:#932279;fill-opacity:1;fill-rule:nonzero;stroke:none;stroke-width:1.0094831;stroke-miterlimit:4;stroke-dasharray:none;marker:none;color-rendering:auto;image-rendering:auto;shape-rendering:auto;text-rendering:auto" transform="scale(-6.22367 -6.12914)rotate(-45 1310.902 -507.429)"/>
      <path d="M-1121.981-12.326h16.004V3.678h-16.004z" style="color:#000;clip-rule:nonzero;display:inline;overflow:visible;visibility:visible;color-interpolation:sRGB;color-interpolation-filters:linearRGB;fill:#efa724;fill-opacity:1;fill-rule:nonzero;stroke:none;stroke-width:1.00943339;stroke-miterlimit:4;stroke-dasharray:none;marker:none;color-rendering:auto;image-rendering:auto;shape-rendering:auto;text-rendering:auto" transform="scale(-6.1577 -6.1954)rotate(45 -554.115 1291.195)"/>
      <path d="M27.809-1141.574h16.075v16.075H27.809z" style="color:#000;clip-rule:nonzero;display:inline;overflow:visible;visibility:visible;color-interpolation:sRGB;color-interpolation-filters:linearRGB;fill:#9ccd2a;fill-opacity:1;fill-rule:nonzero;stroke:none;stroke-width:1.0094831;stroke-miterlimit:4;stroke-dasharray:none;marker:none;color-rendering:auto;image-rendering:auto;shape-rendering:auto;text-rendering:auto" transform="scale(-6.22367 -6.12914)rotate(-45 1310.902 -507.429)"/>
      <path d="M-1141.349-12.27h16.004V3.734h-16.004z" style="color:#000;clip-rule:nonzero;display:inline;overflow:visible;visibility:visible;color-interpolation:sRGB;color-interpolation-filters:linearRGB;fill:#262577;fill-opacity:1;fill-rule:nonzero;stroke:none;stroke-width:1.00943339;stroke-miterlimit:4;stroke-dasharray:none;marker:none;color-rendering:auto;image-rendering:auto;shape-rendering:auto;text-rendering:auto" transform="scale(-6.1577 -6.1954)rotate(45 -554.115 1291.195)"/>
      <path d="M784.49 809.065h15.293v15.407H784.49z" style="color:#000;clip-rule:nonzero;display:inline;overflow:visible;visibility:visible;color-interpolation:sRGB;color-interpolation-filters:linearRGB;fill:#efa724;fill-opacity:1;stroke:none;stroke-width:1.00942397;marker:none;color-rendering:auto;image-rendering:auto;shape-rendering:auto;text-rendering:auto" transform="translate(-4622.693 -4770.465)scale(6.17658)"/>
      <path d="M784.552 789.171h15.345V804.5h-15.345z" style="color:#000;clip-rule:nonzero;display:inline;overflow:visible;visibility:visible;color-interpolation:sRGB;color-interpolation-filters:linearRGB;fill:#932279;fill-opacity:1;stroke:none;stroke-width:1.00942397;marker:none;color-rendering:auto;image-rendering:auto;shape-rendering:auto;text-rendering:auto" transform="translate(-4622.693 -4770.465)scale(6.17658)"/>
      <path d="M763.949 809.066h15.976v15.976h-15.976z" style="color:#000;clip-rule:nonzero;display:inline;overflow:visible;visibility:visible;color-interpolation:sRGB;color-interpolation-filters:linearRGB;fill:#262577;fill-opacity:1;stroke:none;stroke-width:1.00942409;stroke-miterlimit:4;stroke-dasharray:none;marker:none;color-rendering:auto;image-rendering:auto;shape-rendering:auto;text-rendering:auto" transform="translate(-4622.693 -4770.465)scale(6.17658)"/>
      <path d="M763.948 788.523h15.977v15.884h-15.977z" style="color:#000;clip-rule:nonzero;display:inline;overflow:visible;visibility:visible;color-interpolation:sRGB;color-interpolation-filters:linearRGB;fill:#9ccd2a;fill-opacity:1;stroke:none;stroke-width:1.00942409;stroke-miterlimit:4;stroke-dasharray:none;marker:none;color-rendering:auto;image-rendering:auto;shape-rendering:auto;text-rendering:auto" transform="translate(-4622.693 -4770.465)scale(6.17658)"/>
      <path d="m782.246 781.009-6.902 6.944h-11.968v11.75l-7.238 7.128 7.24 7.13v11.652h11.618l7.102 6.995 7.103-6.995h11.738v-11.62l7.086-7.128-6.988-7.03v-11.79h-11.798zm0 1.618 5.384 5.418h-3.654v13.924l-1.73 1.742-1.752-1.763v-13.995h-3.543zm-17.729 6.467h9.693l-4.052 4.076 9.195 9.251v1.415h-1.722l-9.226-9.086-3.888 3.83zm11.3 0h3.536V800.8l-7.585-7.632zm9.302.093h3.647l3.957 3.982-7.604 7.65zm5.256 0h9.521v9.5l-3.958-3.982-9.168 9.225h-1.651v-1.492l9.213-9.27zm5.564 7.136 3.957 3.982v3.625h-11.518zm-27.532.03 7.599 7.483h-11.489v-3.653zm-5.03 4.953v3.67h13.787l1.883 1.855-1.691 1.665h-13.978v3.861l-5.612-5.526zm37.66.146 5.38 5.413-5.478 5.51v-3.881H787.08l-1.62-1.63 1.784-1.794h13.793zm-20.543 2.117 1.75 1.761.404-.406 1.328-1.336v1.482h1.66l-1.784 1.795 1.62 1.629h-1.553v1.746l-1.82-1.794-1.603 1.58v-1.53h-1.515l1.691-1.665-.406-.4-1.477-1.454h1.705zm-15.975 6.068h11.679l-7.791 7.672-3.888-3.828zm13.304 0h1.53v1.513l-9.521 9.377 4.004 3.944h-9.317v-9.387l3.886 3.827zm7.237 0h1.547l9.332 9.388.402-.405 3.457-3.478v9.33h-9.44l4.007-3.945-.406-.4-8.899-8.764zm3.156 0h11.582v3.887l-3.86 3.883zm-6.116.412 1.82 1.791v13.773h3.656l-5.476 5.393-5.476-5.393h3.872V811.63zm-2.747 2.705v11.717h-3.889l-4.004-3.944zm5.707.21 7.68 7.563-4.006 3.946h-3.674z" style="color:#000;font-style:normal;font-variant:normal;font-weight:400;font-stretch:normal;font-size:medium;line-height:normal;font-family:sans-serif;font-variant-ligatures:normal;font-variant-position:normal;font-variant-caps:normal;font-variant-numeric:normal;font-variant-alternates:normal;font-feature-settings:normal;text-indent:0;text-align:start;text-decoration:none;text-decoration-line:none;text-decoration-style:solid;text-decoration-color:#000;letter-spacing:normal;word-spacing:normal;text-transform:none;writing-mode:lr-tb;direction:ltr;text-orientation:mixed;dominant-baseline:auto;baseline-shift:baseline;text-anchor:start;white-space:normal;shape-padding:0;clip-rule:nonzero;display:inline;overflow:visible;visibility:visible;opacity:1;isolation:auto;mix-blend-mode:normal;color-interpolation:sRGB;color-interpolation-filters:linearRGB;solid-color:#000;solid-opacity:1;vector-effect:none;fill:#fff;fill-opacity:1;fill-rule:nonzero;stroke:none;stroke-width:1.00942409;stroke-linecap:butt;stroke-linejoin:miter;stroke-miterlimit:4;stroke-dasharray:none;stroke-dashoffset:0;stroke-opacity:1;marker:none;color-rendering:auto;image-rendering:auto;shape-rendering:auto;text-rendering:auto" transform="translate(-4622.693 -4770.465)scale(6.17658)"/>
    </g>
  </g>
</svg>
