<?xml version="1.0" encoding="utf-8"?>
<svg version="1.1" id="Layer_1" xmlns="http://www.w3.org/2000/svg" xmlns:xlink="http://www.w3.org/1999/xlink" x="0px" y="0px"
	 viewBox="0 0 128 128" style="enable-background:new 0 0 128 128;" xml:space="preserve">
<style type="text/css">
	.st0{fill:#2088FF;}
	.st1{fill:#79B8FF;}
</style>
<path class="st0" d="M26.7,0C12,0,0,12,0,26.7c0,12.9,9.2,23.7,21.3,26.1v37.9c0,11.8,9.7,21.3,21.3,21.3h0.2c1.3,9,9.1,16,18.5,16
	c10.3,0,18.7-8.4,18.7-18.7s-8.4-18.7-18.7-18.7c-9.4,0-17.2,7-18.5,16h-0.2c-8.7,0-16-7.2-16-16V63.8c3.5,3.6,8.3,5.6,13.2,5.6h3
	c1.3,9,9.1,16,18.5,16s17.2-7,18.5-16h11.1c1.3,9,9.1,16,18.5,16c10.3,0,18.7-8.4,18.7-18.7S119.6,48,109.3,48
	c-9.4,0-17.2,7-18.5,16h-11c-1.3-9-9.1-16-18.5-16s-17.2,7-18.5,16h-3c-6.4,0-11.8-4.6-13-10.7c14.6-0.1,26.4-12,26.4-26.7
	C53.3,12,41.4,0,26.7,0z M26.7,5.3C38.4,5.3,48,14.8,48,26.6v0.1C48,38.4,38.5,48,26.7,48h-0.1C14.9,48,5.4,38.5,5.3,26.7v-0.1
	C5.3,14.9,14.8,5.4,26.7,5.3C26.6,5.3,26.6,5.3,26.7,5.3z M21.5,12.9c-2.8,0-5.5,2.2-5.5,5.3v17c0,4,4.7,6.7,8.1,4.5l13.6-8.5
	c3.3-2,3.3-7,0-9l-13.6-8.6C23.4,13.1,22.4,12.9,21.5,12.9z M21.3,18.2L35,26.8l-13.6,8.5C21.3,35.2,21.3,18.2,21.3,18.2z
	 M61.3,53.3c7.3,0,13.3,5.9,13.3,13.2v0.1C74.7,74,68.8,80,61.4,80h-0.1C54,80,48,74.1,48,66.7v-0.1C48,59.3,53.9,53.4,61.3,53.3
	L61.3,53.3z M109.3,53.3c7.3,0,13.3,5.9,13.3,13.2v0.1c0,7.3-5.9,13.3-13.3,13.3h-0.1C102,80,96,74.1,96,66.7v-0.1
	C96,59.3,101.9,53.4,109.3,53.3L109.3,53.3z M66.8,60.3c-0.7,0-1.4,0.3-1.9,0.8l-6.3,6.3l-2.1-2.1c-1-1-2.7-1-3.8,0
	c-1,1-1,2.7,0,3.8l0,0l4,4c1,1,2.7,1,3.8,0l8.2-8.2c1-1,1-2.7,0-3.8l0,0C68.2,60.6,67.5,60.3,66.8,60.3L66.8,60.3z M114.8,60.3
	c-0.7,0-1.4,0.3-1.9,0.8l-6.3,6.3l-2.1-2.1c-1-1-2.7-1-3.8,0c-1,1-1,2.7,0,3.8l0,0l4,4c1,1,2.7,1,3.8,0l8.2-8.2c1-1,1-2.7,0-3.8l0,0
	C116.2,60.6,115.5,60.3,114.8,60.3L114.8,60.3z M61.3,96c7.3,0,13.3,5.9,13.3,13.3v0.1c0,7.3-5.9,13.3-13.2,13.3h-0.1
	c-7.3,0-13.3-5.9-13.3-13.3v-0.1C48,102,53.9,96,61.3,96L61.3,96z M56,105.3c-2.2,0-4,1.8-4,4s1.8,4,4,4s4-1.8,4-4
	C60,107.1,58.2,105.3,56,105.3z M66.7,105.3c-2.2,0-4,1.8-4,4s1.8,4,4,4s4-1.8,4-4C70.7,107.1,68.9,105.3,66.7,105.3z M56,108
	c0.8,0,1.3,0.6,1.3,1.3c0,0.8-0.6,1.3-1.3,1.3c-0.8,0-1.3-0.6-1.3-1.3S55.3,108,56,108z M66.7,108c0.8,0,1.3,0.6,1.3,1.3
	c0,0.8-0.6,1.3-1.3,1.3c-0.8,0-1.3-0.6-1.3-1.3C65.3,108.6,65.9,108,66.7,108z"/>
<path class="st1" d="M109.3,90.7c-9.4,0-17.2,7-18.5,16c-0.1,0-0.2,0-0.3,0l-2.7,0.1c-1.5,0-2.6,1.3-2.6,2.8s1.3,2.6,2.8,2.6
	l2.7-0.1h0.1c1.3,9,9.1,16,18.5,16c10.3,0,18.7-8.4,18.7-18.7S119.6,90.7,109.3,90.7z M109.3,96c7.3,0,13.3,5.9,13.3,13.3v0.1
	c0,7.3-5.9,13.3-13.2,13.3h-0.1c-7.3,0-13.3-5.9-13.3-13.3v-0.1C96,102,101.9,96,109.3,96L109.3,96z"/>
</svg>
