<svg xmlns="http://www.w3.org/2000/svg" xml:space="preserve" viewBox="0 0 128 128">
  <path d="M26.7 0C12 0 0 12 0 26.7c0 12.9 9.2 23.7 21.3 26.1v37.9c0 11.8 9.7 21.3 21.3 21.3h.2c1.3 9 9.1 16 18.5 16 10.3 0 18.7-8.4 18.7-18.7s-8.4-18.7-18.7-18.7c-9.4 0-17.2 7-18.5 16h-.2c-8.7 0-16-7.2-16-16V63.8c3.5 3.6 8.3 5.6 13.2 5.6h3c1.3 9 9.1 16 18.5 16s17.2-7 18.5-16h11.1c1.3 9 9.1 16 18.5 16 10.3 0 18.7-8.4 18.7-18.7S119.6 48 109.3 48c-9.4 0-17.2 7-18.5 16h-11c-1.3-9-9.1-16-18.5-16s-17.2 7-18.5 16h-3c-6.4 0-11.8-4.6-13-10.7 14.6-.1 26.4-12 26.4-26.7C53.3 12 41.4 0 26.7 0m0 5.3C38.4 5.3 48 14.8 48 26.6v.1C48 38.4 38.5 48 26.7 48h-.1C14.9 48 5.4 38.5 5.3 26.7v-.1c0-11.7 9.5-21.2 21.4-21.3q-.15 0 0 0m-5.2 7.6c-2.8 0-5.5 2.2-5.5 5.3v17c0 4 4.7 6.7 8.1 4.5l13.6-8.5c3.3-2 3.3-7 0-9l-13.6-8.6c-.7-.5-1.7-.7-2.6-.7m-.2 5.3L35 26.8l-13.6 8.5c-.1-.1-.1-17.1-.1-17.1m40 35.1c7.3 0 13.3 5.9 13.3 13.2v.1C74.7 74 68.8 80 61.4 80h-.1C54 80 48 74.1 48 66.7v-.1c0-7.3 5.9-13.2 13.3-13.3m48 0c7.3 0 13.3 5.9 13.3 13.2v.1c0 7.3-5.9 13.3-13.3 13.3h-.1C102 80 96 74.1 96 66.7v-.1c0-7.3 5.9-13.2 13.3-13.3m-42.5 7c-.7 0-1.4.3-1.9.8l-6.3 6.3-2.1-2.1c-1-1-2.7-1-3.8 0-1 1-1 2.7 0 3.8l4 4c1 1 2.7 1 3.8 0l8.2-8.2c1-1 1-2.7 0-3.8-.5-.5-1.2-.8-1.9-.8m48 0c-.7 0-1.4.3-1.9.8l-6.3 6.3-2.1-2.1c-1-1-2.7-1-3.8 0-1 1-1 2.7 0 3.8l4 4c1 1 2.7 1 3.8 0l8.2-8.2c1-1 1-2.7 0-3.8-.5-.5-1.2-.8-1.9-.8M61.3 96c7.3 0 13.3 5.9 13.3 13.3v.1c0 7.3-5.9 13.3-13.2 13.3h-.1c-7.3 0-13.3-5.9-13.3-13.3v-.1C48 102 53.9 96 61.3 96m-5.3 9.3c-2.2 0-4 1.8-4 4s1.8 4 4 4 4-1.8 4-4-1.8-4-4-4m10.7 0c-2.2 0-4 1.8-4 4s1.8 4 4 4 4-1.8 4-4-1.8-4-4-4M56 108c.8 0 1.3.6 1.3 1.3 0 .8-.6 1.3-1.3 1.3-.8 0-1.3-.6-1.3-1.3s.6-1.3 1.3-1.3m10.7 0c.8 0 1.3.6 1.3 1.3 0 .8-.6 1.3-1.3 1.3-.8 0-1.3-.6-1.3-1.3-.1-.7.5-1.3 1.3-1.3" style="fill:#2088ff"/>
  <path d="M109.3 90.7c-9.4 0-17.2 7-18.5 16h-.3l-2.7.1c-1.5 0-2.6 1.3-2.6 2.8s1.3 2.6 2.8 2.6l2.7-.1h.1c1.3 9 9.1 16 18.5 16 10.3 0 18.7-8.4 18.7-18.7s-8.4-18.7-18.7-18.7m0 5.3c7.3 0 13.3 5.9 13.3 13.3v.1c0 7.3-5.9 13.3-13.2 13.3h-.1c-7.3 0-13.3-5.9-13.3-13.3v-.1c0-7.3 5.9-13.3 13.3-13.3" style="fill:#79b8ff"/>
</svg>
