<svg xmlns="http://www.w3.org/2000/svg" width="35" height="38" viewBox="-5 -5 35 38" fill="none">
  <path fill="#BD483B" d="m12.638.278-2.551 9.09v9.177l2.551 9.177 2.624-9.177V9.368z"/>
  <path fill="#E64E3D" d="M12.639.278 0 4.842l1.796 16.876 10.842 6.004"/>
  <path fill="#BD483B" d="m12.639 27.722 10.898-6.066 2.04-16.874L12.639.278"/>
  <path fill="#FEC82F" d="M10.345 20.66a7.7 7.7 0 0 1-3.236-2.001l-.003-.002a7.7 7.7 0 0 1-1.838-3.14q.31.286.654.532l.009.022q-.005-.014-.01-.022.654.459 1.394.76.219.087.445.16c.009.006.02.006.029.009q.04.015.08.027a1.4 1.4 0 0 0 1.141 1.239c.236.953.684 1.767 1.335 2.417Zm.476-10.947c0 .267.073.516.2.727-1.027 1.444-1.732 3.01-2.036 4.56a9 9 0 0 0-.087.51 1.4 1.4 0 0 0-.834.628.1.1 0 0 1-.029-.008l-.05-.018a5.9 5.9 0 0 1-2.552-1.686l-.034-.04-.094-.113-.039-.048-.03-.037-.014-.02q-.024-.028-.044-.055l-.019-.024-.003-.007c-.01-.011-.02-.027-.03-.04a3 3 0 0 1-.13-.185q-.011-.014-.02-.033l-.016-.022a7.7 7.7 0 0 1 1.829-5.52 7.7 7.7 0 0 1 3.531-2.345q.034.226.078.456c.158.796.422 1.6.78 2.386a1.4 1.4 0 0 0-.357.933Zm-.82 7.152a.73.73 0 0 1-.252.56.74.74 0 0 1-.878.074.75.75 0 0 1-.28-.309.744.744 0 0 1 .236-.928.74.74 0 0 1 1.055.202.7.7 0 0 1 .12.401Zm2.959-7.152a.745.745 0 0 1-.847.74l-.02-.005a.74.74 0 0 1-.63-.798.744.744 0 0 1 .756-.68h.03a.744.744 0 0 1 .71.743Z"/>
  <path fill="#DF9C26" d="M20.332 13.294c0 .747-.106 1.468-.302 2.15a10.5 10.5 0 0 1-1.972-.753c.055-.27.028-.549-.075-.803a12.3 12.3 0 0 0 2.052-2.723c.193.676.297 1.392.297 2.13Zm-.715-3.25a11.4 11.4 0 0 1-2.208 3.17 1.4 1.4 0 0 0-1.547.07q-.645-.51-1.224-1.093-.736-.736-1.353-1.573a1.4 1.4 0 0 0 .138-1.617 13.1 13.1 0 0 1 3.217-2.296 7.75 7.75 0 0 1 2.977 3.339m-2.189 4.37a.745.745 0 0 1-.707.776.74.74 0 0 1-.775-.71l.023-.017-.024-.02-.001-.03a.748.748 0 0 1 .957-.711.75.75 0 0 1 .527.712m.193 1.041a1.395 1.395 0 0 1-1.715.124l-.094.06a11.3 11.3 0 0 1-3.174 1.398v3.973c1.516 0 2.998-.45 4.26-1.291a7.7 7.7 0 0 0 2.837-3.44c-.73-.204-1.438-.48-2.114-.824"/>
  <path fill="#FEC82F" d="M12.638 17.037c-.64.168-1.297.27-1.959.302l-.105.007a1.42 1.42 0 0 1-.69.774 4.2 4.2 0 0 0 1.084 1.916c.43.432.955.758 1.554.972l.116.002z"/>
  <path fill="#DF9C26" d="M15.289 14.414q0-.214.06-.41a14.7 14.7 0 0 1-2.71-2.78v4.896a10.6 10.6 0 0 0 2.728-1.244 1.4 1.4 0 0 1-.078-.462"/>
  <path fill="#FEC82F" d="M12.639 11.224c-.037-.049-.075-.093-.109-.143-.278.063-.569.04-.833-.066-.932 1.322-1.57 2.751-1.849 4.158a10 10 0 0 0-.068.39c.392.161.697.492.818.9.014-.003.024-.003.038-.003a8.8 8.8 0 0 0 2.003-.34z"/>
  <path fill="#DF9C26" d="M12.639 5.582v2.795q.06.019.119.045a14.2 14.2 0 0 1 2.935-2.207 7.6 7.6 0 0 0-3.054-.633"/>
  <path fill="#FEC82F" d="M12.638 5.582q-.75 0-1.456.138c.02.163.049.333.083.5a10 10 0 0 0 .68 2.12c.23-.046.469-.034.693.037z"/>
</svg>

