<svg xmlns="http://www.w3.org/2000/svg" xml:space="preserve" viewBox="0 0 80 79.9">
  <path d="M79 28c0 4.4-3.6 8-8 8-3.7 0-6.8-2.5-7.8-6H52.1c-2 0-3.6 1.4-3.9 3.3l-.3 2c-.3 1.8-1.2 3.5-2.6 4.7 1.4 1.2 2.3 2.9 2.6 4.7l.3 2c.3 1.9 2 3.3 3.9 3.3h3.2c1.1-4.3 5.5-6.9 9.7-5.7 4.3 1.1 6.9 5.5 5.7 9.7s-5.5 6.9-9.7 5.7c-2.8-.7-5-2.9-5.7-5.7h-3.2c-3.9 0-7.2-2.8-7.9-6.7l-.3-2c-.3-1.9-2-3.3-3.9-3.3h-3.3c-1.3 4.2-5.8 6.6-10 5.3-2.5-.8-4.5-2.8-5.3-5.3h-4.7c-1.3 4.2-5.8 6.6-10 5.3s-6.6-5.8-5.3-10 5.8-6.6 10-5.3c2.8.8 4.9 3.1 5.5 6h4.3c.9-4.3 5.2-7.1 9.5-6.2 3.1.7 5.5 3.1 6.2 6.2H40c2 0 3.6-1.4 3.9-3.3l.3-2c.6-3.9 4-6.7 7.9-6.7h11.2c1.1-4.3 5.5-6.9 9.7-5.8 3.5.9 6 4.1 6 7.8m-4 0c0 2.2-1.8 4-4 4s-4-1.8-4-4 1.8-4 4-4 4 1.8 4 4M9 43.6c2.2 0 4-1.8 4-4s-1.8-4-4-4-4 1.8-4 4 1.8 4 4 4m20 0c2.2 0 4-1.8 4-4s-1.8-4-4-4-4 1.8-4 4 1.8 4 4 4M63 56c2.2 0 4-1.8 4-4s-1.8-4-4-4-4 1.8-4 4 1.8 4 4 4" style="fill:#ea4b71"/>
</svg>
