<?xml version="1.0" encoding="utf-8"?>
<svg version="1.1" id="Layer_1" xmlns="http://www.w3.org/2000/svg" xmlns:xlink="http://www.w3.org/1999/xlink" x="0px" y="0px"
	 viewBox="0 0 80 79.9" style="enable-background:new 0 0 80 79.9;" xml:space="preserve">
<style type="text/css">
	.st0{fill:#EA4B71;}
</style>
<path class="st0" d="M79,28c0,4.4-3.6,8-8,8c-3.7,0-6.8-2.5-7.8-6H52.1c-2,0-3.6,1.4-3.9,3.3l-0.3,2c-0.3,1.8-1.2,3.5-2.6,4.7
	c1.4,1.2,2.3,2.9,2.6,4.7l0.3,2c0.3,1.9,2,3.3,3.9,3.3h3.2c1.1-4.3,5.5-6.9,9.7-5.7c4.3,1.1,6.9,5.5,5.7,9.7s-5.5,6.9-9.7,5.7
	c-2.8-0.7-5-2.9-5.7-5.7h-3.2c-3.9,0-7.2-2.8-7.9-6.7l-0.3-2c-0.3-1.9-2-3.3-3.9-3.3h-3.3c-1.3,4.2-5.8,6.6-10,5.3
	c-2.5-0.8-4.5-2.8-5.3-5.3h-4.7c-1.3,4.2-5.8,6.6-10,5.3s-6.6-5.8-5.3-10s5.8-6.6,10-5.3c2.8,0.8,4.9,3.1,5.5,6h4.3
	c0.9-4.3,5.2-7.1,9.5-6.2c3.1,0.7,5.5,3.1,6.2,6.2H40c2,0,3.6-1.4,3.9-3.3l0.3-2c0.6-3.9,4-6.7,7.9-6.7h11.2
	c1.1-4.3,5.5-6.9,9.7-5.8C76.5,21.1,79,24.3,79,28 M75,28c0,2.2-1.8,4-4,4s-4-1.8-4-4s1.8-4,4-4S75,25.8,75,28 M9,43.6
	c2.2,0,4-1.8,4-4s-1.8-4-4-4s-4,1.8-4,4S6.8,43.6,9,43.6 M29,43.6c2.2,0,4-1.8,4-4s-1.8-4-4-4s-4,1.8-4,4S26.8,43.6,29,43.6 M63,56
	c2.2,0,4-1.8,4-4s-1.8-4-4-4c-2.2,0-4,1.8-4,4S60.8,56,63,56"/>
</svg>
