<svg xmlns="http://www.w3.org/2000/svg" xml:space="preserve" id="Layer_1" x="0" y="0" version="1.1" viewBox="0 0 295 295.1">
  <style>
    .st0{fill:#9cc8f8;stroke:#9cc8f8}.st1{fill:#1685fc;stroke:#1685fc}
  </style>
  <circle cx="24" cy="272.1" r="23" class="st0"/>
  <circle cx="88" cy="25.1" r="23" class="st0"/>
  <circle cx="88" cy="208.1" r="23" class="st0"/>
  <circle cx="271" cy="208.1" r="23" class="st0"/>
  <path d="M80 25.1h16v180H80z" class="st0"/>
  <path d="M88 200.1h180v16H88z" class="st0"/>
  <path d="m24.31 260.476 63.639-63.639 11.313 11.314-63.639 63.639z" class="st0"/>
  <circle cx="271" cy="25.1" r="23" class="st1"/>
  <circle cx="24" cy="89.1" r="23" class="st1"/>
  <circle cx="207" cy="89.1" r="23" class="st1"/>
  <circle cx="207" cy="272.1" r="23" class="st1"/>
  <path d="M24 81.1h180v16H24z" class="st1"/>
  <path d="M199 89.1h16v180h-16z" class="st1"/>
  <path d="m195.75 89.06 63.64-63.64 11.313 11.314-63.639 63.64z" class="st1"/>
</svg>
