<?xml version="1.0" encoding="utf-8"?>
<svg version="1.1" id="Layer_1" xmlns="http://www.w3.org/2000/svg" xmlns:xlink="http://www.w3.org/1999/xlink" x="0px" y="0px"
	 viewBox="0 0 295 295.1" style="enable-background:new 0 0 295 295.1;" xml:space="preserve">
<style type="text/css">
	.st0{fill:#9CC8F8;stroke:#9CC8F8;}
	.st1{fill:#1685FC;stroke:#1685FC;}
</style>
<g>
	<circle class="st0" cx="24" cy="272.1" r="23"/>
	<circle class="st0" cx="88" cy="25.1" r="23"/>
	<circle class="st0" cx="88" cy="208.1" r="23"/>
	<circle class="st0" cx="271" cy="208.1" r="23"/>
	<rect x="80" y="25.1" class="st0" width="16" height="180"/>
	<rect x="88" y="200.1" class="st0" width="180" height="16"/>

		<rect x="16.8" y="226.3" transform="matrix(0.7071 -0.7071 0.7071 0.7071 -147.5865 112.3389)" class="st0" width="90" height="16"/>
</g>
<g>
	<circle class="st1" cx="271" cy="25.1" r="23"/>
	<circle class="st1" cx="24" cy="89.1" r="23"/>
	<circle class="st1" cx="207" cy="89.1" r="23"/>
	<circle class="st1" cx="207" cy="272.1" r="23"/>
	<rect x="24" y="81.1" class="st1" width="180" height="16"/>
	<rect x="199" y="89.1" class="st1" width="16" height="180"/>
	<rect x="188.2" y="54.9" transform="matrix(0.7071 -0.7071 0.7071 0.7071 23.8547 183.316)" class="st1" width="90" height="16"/>
</g>
</svg>
