<?xml version="1.0" encoding="UTF-8" standalone="no"?>
<svg
   id="Layer_1"
   viewBox="0 0 400 400"
   width="2500"
   height="2500"
   version="1.1"
   sodipodi:docname="typescript.svg"
   inkscape:version="1.4.2 (ebf0e940d0, 2025-05-08)"
   xmlns:inkscape="http://www.inkscape.org/namespaces/inkscape"
   xmlns:sodipodi="http://sodipodi.sourceforge.net/DTD/sodipodi-0.dtd"
   xmlns="http://www.w3.org/2000/svg"
   xmlns:svg="http://www.w3.org/2000/svg">
  <defs
     id="defs2" />
  <sodipodi:namedview
     id="namedview2"
     pagecolor="#ffffff"
     bordercolor="#000000"
     borderopacity="0.25"
     inkscape:showpageshadow="2"
     inkscape:pageopacity="0.0"
     inkscape:pagecheckerboard="0"
     inkscape:deskcolor="#d1d1d1"
     inkscape:zoom="0.27633733"
     inkscape:cx="1067.5358"
     inkscape:cy="1275.6148"
     inkscape:window-width="2008"
     inkscape:window-height="1228"
     inkscape:window-x="0"
     inkscape:window-y="0"
     inkscape:window-maximized="1"
     inkscape:current-layer="Layer_1" />
  <style
     id="style1">.st0{fill:#007acc}.st1{fill:#fff}</style>
  <path
     class="st0"
     d="M0 200V0h400v400H0"
     id="path1" />
  <path
     class="st1"
     d="m 60.219481,126.13833 v 16.3 h 51.999999 v 148 h 36.9 v -148 h 52 v -16 c 0,-9 0,-16.3 -0.4,-16.5 0,-0.3 -31.7,-0.4 -70.2,-0.4 l -69.999999,0.3 v 16.4 z m 233.699999,-16.7 c 10.2,2.4 18,7 25,14.3 3.7,4 9.2,11 9.6,12.8 0,0.6 -17.3,12.3 -27.8,18.8 -0.4,0.3 -2,-1.4 -3.6,-4 -5.2,-7.4 -10.5,-10.6 -18.8,-11.2 -12,-0.8 -20,5.5 -20,16 0,3.2 0.6,5 1.8,7.6 2.7,5.5 7.7,8.8 23.2,15.6 28.6,12.3 41,20.4 48.5,32 8.5,13 10.4,33.4 4.7,48.7 -6.4,16.7 -22,28 -44.3,31.7 -7,1.2 -23,1 -30.5,-0.3 -16,-3 -31.3,-11 -40.7,-21.3 -3.7,-4 -10.8,-14.7 -10.4,-15.4 l 3.8,-2.4 15,-8.7 11.3,-6.6 2.6,3.5 c 3.3,5.2 10.7,12.2 15,14.6 13,6.7 30.4,5.8 39,-2 3.7,-3.4 5.3,-7 5.3,-12 0,-4.6 -0.7,-6.7 -3,-10.2 -3.2,-4.4 -9.6,-8 -27.6,-16 -20.7,-8.8 -29.5,-14.4 -37.7,-23 -4.7,-5.2 -9,-13.3 -11,-20 -1.5,-5.8 -2,-20 -0.6,-25.7 4.3,-20 19.4,-34 41,-38 7,-1.4 23.5,-0.8 30.4,1 z"
     id="path2" />
</svg>
