<?xml version="1.0" encoding="utf-8"?>
<svg version="1.1"
	 id="Layer_1" inkscape:version="1.4.2 (ebf0e940d0, 2025-05-08)" sodipodi:docname="typescript.svg" xmlns:inkscape="http://www.inkscape.org/namespaces/inkscape" xmlns:sodipodi="http://sodipodi.sourceforge.net/DTD/sodipodi-0.dtd" xmlns:svg="http://www.w3.org/2000/svg"
	 xmlns="http://www.w3.org/2000/svg" xmlns:xlink="http://www.w3.org/1999/xlink" x="0px" y="0px" viewBox="0 0 3000 3000"
	 style="enable-background:new 0 0 3000 3000;" xml:space="preserve">
<style type="text/css">
	.st0{fill:#007ACC;}
	.st1{fill:#FFFFFF;}
</style>
<sodipodi:namedview  bordercolor="#000000" borderopacity="0.25" id="namedview2" inkscape:current-layer="Layer_1" inkscape:cx="1067.5358" inkscape:cy="1275.6148" inkscape:deskcolor="#d1d1d1" inkscape:pagecheckerboard="0" inkscape:pageopacity="0.0" inkscape:showpageshadow="2" inkscape:window-height="1228" inkscape:window-maximized="1" inkscape:window-width="2008" inkscape:window-x="0" inkscape:window-y="0" inkscape:zoom="0.27633733" pagecolor="#ffffff">
	</sodipodi:namedview>
<path id="path1" class="st0" d="M0,1500V0h3000v3000H0"/>
<path id="path2" class="st1" d="M626.4,1038.4v101.9h325v925H1182v-925h325v-100c0-56.3,0-101.9-2.5-103.1
	c0-1.9-198.1-2.5-438.7-2.5l-437.5,1.9V1039L626.4,1038.4z M2087,934c63.8,15,112.5,43.8,156.3,89.4c23.1,25,57.5,68.8,60,80
	c0,3.8-108.1,76.9-173.8,117.5c-2.5,1.9-12.5-8.7-22.5-25c-32.5-46.2-65.6-66.3-117.5-70c-75-5-125,34.4-125,100
	c0,20,3.8,31.3,11.3,47.5c16.9,34.4,48.1,55,145,97.5c178.8,76.9,256.3,127.5,303.1,200c53.1,81.3,65,208.8,29.4,304.4
	c-40,104.4-137.5,175-276.9,198.1c-43.8,7.5-143.8,6.3-190.6-1.9c-100-18.8-195.6-68.8-254.4-133.1c-23.1-25-67.5-91.9-65-96.3
	l23.8-15l93.8-54.4l70.6-41.3l16.3,21.9c20.6,32.5,66.9,76.3,93.8,91.3c81.3,41.9,190,36.3,243.8-12.5c23.1-21.2,33.1-43.8,33.1-75
	c0-28.8-4.4-41.9-18.8-63.7c-20-27.5-60-50-172.5-100c-129.4-55-184.4-90-235.6-143.8c-29.4-32.5-56.3-83.1-68.8-125
	c-9.4-36.3-12.5-125-3.8-160.6c26.9-125,121.3-212.5,256.3-237.5c43.8-8.8,146.9-5,190,6.3L2087,934z"/>
</svg>
