<svg xmlns="http://www.w3.org/2000/svg" xml:space="preserve" viewBox="0 0 3000 3000">
  <path d="M0 1500V0h3000v3000H0" style="fill:#007acc"/>
  <path d="M626.4 1038.4v101.9h325v925H1182v-925h325v-100c0-56.3 0-101.9-2.5-103.1 0-1.9-198.1-2.5-438.7-2.5l-437.5 1.9V1039zM2087 934c63.8 15 112.5 43.8 156.3 89.4 23.1 25 57.5 68.8 60 80 0 3.8-108.1 76.9-173.8 117.5-2.5 1.9-12.5-8.7-22.5-25-32.5-46.2-65.6-66.3-117.5-70-75-5-125 34.4-125 100 0 20 3.8 31.3 11.3 47.5 16.9 34.4 48.1 55 145 97.5 178.8 76.9 256.3 127.5 303.1 200 53.1 81.3 65 208.8 29.4 304.4-40 104.4-137.5 175-276.9 198.1-43.8 7.5-143.8 6.3-190.6-1.9-100-18.8-195.6-68.8-254.4-133.1-23.1-25-67.5-91.9-65-96.3l23.8-15 93.8-54.4 70.6-41.3 16.3 21.9c20.6 32.5 66.9 76.3 93.8 91.3 81.3 41.9 190 36.3 243.8-12.5 23.1-21.2 33.1-43.8 33.1-75 0-28.8-4.4-41.9-18.8-63.7-20-27.5-60-50-172.5-100-129.4-55-184.4-90-235.6-143.8-29.4-32.5-56.3-83.1-68.8-125-9.4-36.3-12.5-125-3.8-160.6 26.9-125 121.3-212.5 256.3-237.5 43.8-8.8 146.9-5 190 6.3z" style="fill:#fff"/>
</svg>
