<svg width="56" height="56" viewBox="0 0 56 56" fill="none" xmlns="http://www.w3.org/2000/svg">
<g filter="url(#filter0_i_5310_605)">
<circle cx="28" cy="28" r="28" fill="white"/>
</g>
<circle cx="28" cy="28" r="27.25" stroke="#A6EDDA" stroke-width="1.5"/>
<g filter="url(#filter1_i_5310_605)">
<circle cx="28" cy="28" r="22" fill="white"/>
</g>
<circle cx="28" cy="28" r="21.25" stroke="#A6EDDA" stroke-width="1.5"/>
<g clip-path="url(#clip0_5310_605)">
<path d="M-nan -nanL38.5317 23.7362C38.5333 22.0568 38.1431 20.4002 37.392 18.8981C36.641 17.396 35.5498 16.0898 34.2053 15.0835C32.8608 14.0771 31.3001 13.3984 29.6472 13.1011C27.9943 12.8039 26.2949 12.8963 24.684 13.3712C23.0732 13.8461 21.5953 14.6902 20.3679 15.8365C19.1406 16.9828 18.1976 18.3997 17.614 19.9744C17.0304 21.5491 16.8222 23.2383 17.006 24.9076C17.1899 26.5769 17.7606 28.1803 18.6729 29.5903C20.9569 33.2445 22.43 37.3463 22.9929 41.6186V41.6186C23.1118 42.445 23.8199 43.0586 24.6548 43.0586H31.6553C32.0093 43.0586 32.3091 42.7974 32.3576 42.4468V42.4468C32.9648 37.8423 34.5121 33.4117 36.9035 29.4303C37.9725 27.7239 38.537 25.7498 38.5317 23.7362L-nan -nanL-nan -nanZ" stroke="#17D4A7" stroke-width="2" stroke-miterlimit="10" stroke-linecap="round"/>
<path d="M26.1459 36.3668V22.6632C26.1459 19.8397 23.6423 19.9526 22.8047 21.5809C21.967 23.2091 22.2588 25.7973 27.6612 25.7973" stroke="#17D4A7" stroke-width="2" stroke-miterlimit="10" stroke-linecap="round"/>
<path d="M29.1671 36.3668V22.6632C29.1671 19.8397 31.68 19.9526 32.5176 21.5809C33.3553 23.2091 33.0729 25.8256 27.6612 25.8256" stroke="#17D4A7" stroke-width="2" stroke-miterlimit="10" stroke-linecap="round"/>
<path d="M22.3718 37.2607H33.1765" stroke="#17D4A7" stroke-width="2" stroke-miterlimit="10" stroke-linecap="round"/>
<path d="M23.3976 40.207H32.0753" stroke="#17D4A7" stroke-width="2" stroke-miterlimit="10" stroke-linecap="round"/>
</g>
<defs>
<filter id="filter0_i_5310_605" x="-2" y="-2" width="58" height="58" filterUnits="userSpaceOnUse" color-interpolation-filters="sRGB">
<feFlood flood-opacity="0" result="BackgroundImageFix"/>
<feBlend mode="normal" in="SourceGraphic" in2="BackgroundImageFix" result="shape"/>
<feColorMatrix in="SourceAlpha" type="matrix" values="0 0 0 0 0 0 0 0 0 0 0 0 0 0 0 0 0 0 127 0" result="hardAlpha"/>
<feOffset dx="-4" dy="-4"/>
<feGaussianBlur stdDeviation="1"/>
<feComposite in2="hardAlpha" operator="arithmetic" k2="-1" k3="1"/>
<feColorMatrix type="matrix" values="0 0 0 0 0.837344 0 0 0 0 0.970833 0 0 0 0 0.937461 0 0 0 1 0"/>
<feBlend mode="normal" in2="shape" result="effect1_innerShadow_5310_605"/>
</filter>
<filter id="filter1_i_5310_605" x="4" y="4" width="46" height="46" filterUnits="userSpaceOnUse" color-interpolation-filters="sRGB">
<feFlood flood-opacity="0" result="BackgroundImageFix"/>
<feBlend mode="normal" in="SourceGraphic" in2="BackgroundImageFix" result="shape"/>
<feColorMatrix in="SourceAlpha" type="matrix" values="0 0 0 0 0 0 0 0 0 0 0 0 0 0 0 0 0 0 127 0" result="hardAlpha"/>
<feOffset dx="-4" dy="-4"/>
<feGaussianBlur stdDeviation="1"/>
<feComposite in2="hardAlpha" operator="arithmetic" k2="-1" k3="1"/>
<feColorMatrix type="matrix" values="0 0 0 0 0.837344 0 0 0 0 0.970833 0 0 0 0 0.937461 0 0 0 1 0"/>
<feBlend mode="normal" in2="shape" result="effect1_innerShadow_5310_605"/>
</filter>
<clipPath id="clip0_5310_605">
<rect width="23.4729" height="32" fill="white" transform="translate(16 12)"/>
</clipPath>
</defs>
</svg>
