<svg xmlns="http://www.w3.org/2000/svg" fill="none" viewBox="0 0 213 56">
  <mask id="a" width="212" height="43" x=".5" y="5.5" fill="#000" maskUnits="userSpaceOnUse">
    <path fill="#fff" d="M.5 5.5h212v43H.5z"/>
    <path fill-rule="evenodd" d="m37.7 6.8-2 .8a11.1 11.1 0 0 0-4.8 7.4v2c.1.5.4 1 .8 1 .3.1.8 0 1.1-.1.4-.2.6-.8.8-1.8a7 7 0 0 1 1-3.1c.5-1 1.2-2 2-2.5 1.2-.9 3.8-1 3.8-1s2.6 0 3.9 1.1c.7.6 1.6 1.8 2 2.5.3.8.7 2.1.8 3 .1 1 .3 1.6.8 1.8.4.2.7.2 1.2 0 .6-.3.7-.5.7-2 0-1-.2-2.3-.6-3.3-.4-.8-1.1-2.2-1.7-3a9.6 9.6 0 0 0-2.7-2.1 11.6 11.6 0 0 0-7-.7Zm1.7 8.2c-.3.3-.5.8-.5 1.5 0 .8.2 1.3.5 1.6.3.2.9.4 1.3.4s.9 0 1.3-.5c.5-.6.6-1.5.5-2-.1-.4-.3-.6-.6-1-.4-.2-1-.5-1.3-.4l-1.2.4Zm21.1 7.1a8.7 8.7 0 0 0-4.5 4.1 4.7 4.7 0 0 0-.5 2.9c0 1 .4 1.8 1 2.6.5.6 1.4 1.4 2 1.8.6.4 2.7 1.2 4.7 1.9l4.6 1.7c.7.2 1.6.8 2 1.3.6.5.8 1 .8 1.8a4 4 0 0 1-.6 2c-.4.4-1.3 1.2-2.1 1.6-1.1.5-2 .7-3.4.7-1.5 0-2.3-.2-3.5-.8a6.1 6.1 0 0 1-2.5-2.4c-.8-1.2-1.3-1.7-1.7-1.7-.4 0-.9.2-1 .4-.2.2-.4.7-.4 1 0 .5.2 1.1.5 1.6l1.4 1.8a9.4 9.4 0 0 0 5.2 2.8c1.3.3 2.2.3 3.8 0 1.2-.2 2.6-.7 3.2-1l2-1.5c.5-.4 1-1.3 1.4-1.8a7 7 0 0 0 .5-2.9c0-1.5-.2-2-.8-2.9a8.6 8.6 0 0 0-2.1-1.9 60 60 0 0 0-5.9-2.4 18.4 18.4 0 0 1-5.4-2.4c-.6-.6-.9-1.2-.9-1.7s.3-1.4.6-2c.4-.5 1.2-1.2 2-1.6 1-.5 1.9-.7 3.4-.7a6 6 0 0 1 3.4.7l2 1.5c.3.4.7 1 .8 1.5.1.3.4.7.8.8h1.2c.6-.1.8-.4.8-1a5 5 0 0 0-.9-2.3 11 11 0 0 0-2-2.1A12 12 0 0 0 68 22a10 10 0 0 0-3.7-.6c-1.5 0-2.7.2-3.7.6Zm24.5 0a13.1 13.1 0 0 0-5.4 5.5c-.4.9-.9 2.2-1 3a21.1 21.1 0 0 0 0 7.8c.3 1 .7 2.3 1.1 3a14.1 14.1 0 0 0 4.6 4.8 10.5 10.5 0 0 0 9.8-.1c.7-.4 1.7-1.2 2.2-1.7.5-.5 1.2-1.5 1.6-2.2.5-1 .6-1.5.4-1.9-.2-.3-.7-.6-1-.6-.6 0-1 .1-1.3.7a8 8 0 0 1-1.5 1.7c-.5.5-1.6 1.2-2.5 1.7-1.3.6-2 .7-3.4.6a8 8 0 0 1-5-2.2c-.3-.3-1-1.2-1.3-2-.5-.8-.9-2-1-3.2l-.2-1.9h7.7c4.3 0 8 0 8.3-.2.4 0 .9-.5 1.2-1 .3-.4.5-1.2.5-2a11.6 11.6 0 0 0-1.9-5.7 14 14 0 0 0-1.9-2.3 13 13 0 0 0-2.5-1.7c-1.2-.5-2-.7-3.7-.7-1.6 0-2.7.2-3.8.7Zm23.8 0c-.8.3-2 1.1-2.7 1.7a7.2 7.2 0 0 0-2.4 4.8c0 .6.3 1.6.6 2.2a8 8 0 0 0 1.2 1.8c.4.3 1.2.9 2 1.2a38.3 38.3 0 0 0 6.8 2.5c.1 0 1.1.4 2.1 1 1.4.6 2 1 2.3 1.8.3.8.3 1.1 0 2.2-.4.9-.8 1.4-2 2.1a6 6 0 0 1-3.5 1c-1.9.1-2.4 0-3.8-.7a5.6 5.6 0 0 1-2.6-2.4c-.8-1.2-1.2-1.7-1.7-1.7a2 2 0 0 0-1.2.7c-.6.6-.6.6 0 1.7l1.4 2.1a11 11 0 0 0 2 1.8 11.8 11.8 0 0 0 7.3 1.3 9.6 9.6 0 0 0 5.3-2.7 6 6 0 0 0 1.6-2.7c.4-1.3.4-1.8.1-3a5 5 0 0 0-1.5-2.6l-2.3-1.6a107 107 0 0 1-9-3.3c-.7-.2-1.4-.8-1.7-1.2-.2-.4-.5-1.1-.5-1.6 0-.4.3-1.2.6-1.7.3-.6 1.2-1.3 2-1.7a7 7 0 0 1 3.5-.7c1.3 0 2.3.2 3 .6l2 1.4c.5.5 1 1.1 1 1.3 0 .2.2.6.5.9.3.2.8.5 1.1.5.4 0 .8-.2 1-.5.2-.3.3-.8.2-1.5-.2-.7-.7-1.6-1.8-2.7-1-1.1-2-1.8-3.2-2.2a10 10 0 0 0-4-.7c-1.4 0-2.7.2-3.7.6Zm24 .1c-.8.4-2.1 1.4-2.9 2.2-.7.7-1.7 2.2-2.2 3.4-1 2-1 2.1-1 6.5 0 4.3 0 4.7.8 6.4a12.2 12.2 0 0 0 4.4 5.4c.7.4 2 .9 3 1 1.2.3 2.2.3 3.4 0 1 0 2.3-.6 3-1a9 9 0 0 0 3.9-4.1c.3-1 .3-1.1 0-1.7-.3-.4-.8-.7-1-.7-.4 0-1 .7-1.8 1.7a7.4 7.4 0 0 1-2.7 2.4 6.8 6.8 0 0 1-5.6.4 9 9 0 0 1-2-1.4 9.8 9.8 0 0 1-2-2.7c-.6-1.6-.7-2-.7-5.5s0-4 .7-5.5a11 11 0 0 1 1.8-2.7c.6-.6 1.7-1.3 2.6-1.6a10 10 0 0 1 2.2-.5c.4 0 1.3.2 2 .5a7.5 7.5 0 0 1 4 3.4c.4.6.8 1 1.3 1 .4 0 .9-.3 1.1-.7.4-.6.4-.8-.1-1.8a11 11 0 0 0-1.8-2.4 12 12 0 0 0-2.5-1.8c-1-.6-2-.7-3.9-.8-2.1 0-2.7 0-4 .6Zm23.7 0c-1 .3-2.1 1.2-3.2 2.2-.8.9-1.8 2.3-2.2 3a20.8 20.8 0 0 0-1.4 7.1 16 16 0 0 0 1.6 7.3c.5.8 1.3 2 1.9 2.6a8.8 8.8 0 0 0 5.2 2.7c1.4.3 2.2.3 3.8 0 1.2-.3 2.6-.8 3.2-1.2a11.2 11.2 0 0 0 4.5-6.1c.5-1.6.6-2.5.6-5.5 0-3.1 0-3.8-.7-5.5l-1.3-2.7a11.7 11.7 0 0 0-4.5-3.9 8.6 8.6 0 0 0-3.8-.7 10 10 0 0 0-3.7.6Zm20.2-.3c-.3.2-.3 3.4-.3 12.5 0 11.7 0 12.1.5 12.6s.8.5 1.3.3l.7-.4.2-6.9c0-5.1.2-7.3.6-8.6.3-1 .7-2.2 1-2.6l1.6-2c.8-.9 1.8-1.6 2.8-2a9 9 0 0 1 2.4-.6c.4 0 1-.2 1.3-.5l.4-.8c0-.2-.2-.6-.5-.9-.3-.3-1-.5-1.8-.5-.9 0-1.9.3-2.9.8a17 17 0 0 0-3.3 2.7l-1.7 1.8v-2.2c0-1.2 0-2.4-.2-2.6 0-.3-.5-.5-1-.5-.4 0-.9.2-1 .4Zm21.1.2a12 12 0 0 0-5.5 5.4 15.4 15.4 0 0 0-1.6 7.2 20.3 20.3 0 0 0 1.3 6.1l1.4 2.4a10.3 10.3 0 0 0 6.1 4c1.7.2 2.5.3 3.9 0 1-.2 2.4-.7 3.1-1 .7-.4 1.9-1.3 2.6-2 .7-.8 1.4-1.9 1.6-2.5.2-.9.2-1.2 0-1.6-.3-.3-.7-.5-1-.4-.5 0-1 .5-1.8 1.4a7 7 0 0 1-2.9 2.4 6 6 0 0 1-3.4 1c-1 0-2.2-.3-3-.7-.7-.3-1.7-1-2.3-1.5a10 10 0 0 1-1.6-2.4c-.4-.7-.8-2.1-1-3l-.1-1.8h7.7c4.3 0 8.2-.1 8.6-.3.4-.1.9-.7 1.1-1.2.3-.5.5-1.3.5-1.8s-.3-1.7-.6-2.7l-1.3-2.8c-.4-.5-1.1-1.5-1.7-2a10 10 0 0 0-2.7-2 7 7 0 0 0-3.8-.8 10 10 0 0 0-3.6.6ZM92 25.1c.6.3 1.5 1 2 1.6.6.5 1.3 1.6 1.6 2.3.4.8.6 1.7.5 2.3v1H81.2l.1-1.2a9.6 9.6 0 0 1 2.5-4.7l1.6-1.2 1.8-.7a8 8 0 0 1 2.2-.1c.8 0 1.9.4 2.5.7Zm70.4-.4a6 6 0 0 1 3 2c1 1 1.4 1.8 2 3.5.5 1.9.6 2.6.5 5a12.1 12.1 0 0 1-2.2 6.8 8 8 0 0 1-2.2 1.7 7.2 7.2 0 0 1-5.9.3c-.6-.2-1.5-.9-2-1.4a10 10 0 0 1-2-2.6c-.7-1.6-.7-2-.7-5.7s0-4 .8-5.5c.5-1 1.2-2 1.6-2.4a8.8 8.8 0 0 1 3.3-1.9l1.5-.3c.4 0 1.4.2 2.3.5Zm41.2 0c.8.3 2 .9 2.5 1.4.6.5 1.5 1.7 2 2.8.8 1.7.9 2.1.6 2.7l-.3.8H201l-7.2-.2v-1a9.5 9.5 0 0 1 2.7-5l2.6-1.5 2.2-.5c.4 0 1.4.2 2.2.5Z" clip-rule="evenodd"/>
    <path d="M22.6 21.5a11.6 11.6 0 0 0-4.2 2.6l-.7.8-1.3-1c-.7-.7-2-1.4-2.8-1.8-1-.4-2.2-.6-3.5-.6-1.5 0-2.4.2-3.5.7-.8.4-2 1.3-2.7 2a9 9 0 0 0-1.8 3.1c-.6 1.8-.6 2.4-.6 10.7 0 8.5 0 8.9.6 9.2a2 2 0 0 0 1.6 0c.5-.6.5-9.2.5-9.2.1-8.4.1-8.9.8-10.2.3-.8 1-1.8 1.5-2.2a6.2 6.2 0 0 1 3.8-1.4 7.3 7.3 0 0 1 4.4 2.5c.4.5.9 1.5 1.1 2 .2.8.3 3.8.3 9.4 0 7.8 0 8.6.4 8.9.3.3.6.5 1 .5 1 0 1.2-.3 1.5-.5l.1-9.4.1-9 1-1.5a6.7 6.7 0 0 1 4.8-2.9c.4 0 1.3.2 2 .5.8.3 1.8.8 2.2 1.3a8 8 0 0 1 1.2 1.6c.3.6.5 2.6.7 6.2.1 3.4.4 6 .7 7 .3.8.9 2.1 1.4 2.8a13 13 0 0 0 2.4 2.3 9 9 0 0 0 6.7 1.3c.9-.2 2.2-.7 3-1.1a9.7 9.7 0 0 0 4-4.8c.6-1.4.6-2 .7-9v-8.5c-.1-.8-.4-1.1-.9-1.3a2 2 0 0 0-1.3.2c-.6.3-.6.5-.6 8.3 0 7.6 0 8-.7 9.4-.4.8-1.1 2-1.7 2.4-.5.5-1.4 1-2 1.3a6.5 6.5 0 0 1-5.3-.4 6 6 0 0 1-2-1.8 12 12 0 0 1-1.5-6.3 49.2 49.2 0 0 0-1.2-9.3A10.2 10.2 0 0 0 29 22c-.7-.4-1.9-.7-3.2-.8-1.1 0-2.5 0-3 .2Z"/>
  </mask>
  <path fill="#1E69B1" fill-rule="evenodd" d="m37.7 6.8-2 .8a11.1 11.1 0 0 0-4.8 7.4v2c.1.5.4 1 .8 1 .3.1.8 0 1.1-.1.4-.2.6-.8.8-1.8a7 7 0 0 1 1-3.1c.5-1 1.2-2 2-2.5 1.2-.9 3.8-1 3.8-1s2.6 0 3.9 1.1c.7.6 1.6 1.8 2 2.5.3.8.7 2.1.8 3 .1 1 .3 1.6.8 1.8.4.2.7.2 1.2 0 .6-.3.7-.5.7-2 0-1-.2-2.3-.6-3.3-.4-.8-1.1-2.2-1.7-3a9.6 9.6 0 0 0-2.7-2.1 11.6 11.6 0 0 0-7-.7Zm1.7 8.2c-.3.3-.5.8-.5 1.5 0 .8.2 1.3.5 1.6.3.2.9.4 1.3.4s.9 0 1.3-.5c.5-.6.6-1.5.5-2-.1-.4-.3-.6-.6-1-.4-.2-1-.5-1.3-.4l-1.2.4Zm21.1 7.1a8.7 8.7 0 0 0-4.5 4.1 4.7 4.7 0 0 0-.5 2.9c0 1 .4 1.8 1 2.6.5.6 1.4 1.4 2 1.8.6.4 2.7 1.2 4.7 1.9l4.6 1.7c.7.2 1.6.8 2 1.3.6.5.8 1 .8 1.8a4 4 0 0 1-.6 2c-.4.4-1.3 1.2-2.1 1.6-1.1.5-2 .7-3.4.7-1.5 0-2.3-.2-3.5-.8a6.1 6.1 0 0 1-2.5-2.4c-.8-1.2-1.3-1.7-1.7-1.7-.4 0-.9.2-1 .4-.2.2-.4.7-.4 1 0 .5.2 1.1.5 1.6l1.4 1.8a9.4 9.4 0 0 0 5.2 2.8c1.3.3 2.2.3 3.8 0 1.2-.2 2.6-.7 3.2-1l2-1.5c.5-.4 1-1.3 1.4-1.8a7 7 0 0 0 .5-2.9c0-1.5-.2-2-.8-2.9a8.6 8.6 0 0 0-2.1-1.9 60 60 0 0 0-5.9-2.4 18.4 18.4 0 0 1-5.4-2.4c-.6-.6-.9-1.2-.9-1.7s.3-1.4.6-2c.4-.5 1.2-1.2 2-1.6 1-.5 1.9-.7 3.4-.7a6 6 0 0 1 3.4.7l2 1.5c.3.4.7 1 .8 1.5.1.3.4.7.8.8h1.2c.6-.1.8-.4.8-1a5 5 0 0 0-.9-2.3 11 11 0 0 0-2-2.1A12 12 0 0 0 68 22a10 10 0 0 0-3.7-.6c-1.5 0-2.7.2-3.7.6Zm24.5 0a13.1 13.1 0 0 0-5.4 5.5c-.4.9-.9 2.2-1 3a21.1 21.1 0 0 0 0 7.8c.3 1 .7 2.3 1.1 3a14.1 14.1 0 0 0 4.6 4.8 10.5 10.5 0 0 0 9.8-.1c.7-.4 1.7-1.2 2.2-1.7.5-.5 1.2-1.5 1.6-2.2.5-1 .6-1.5.4-1.9-.2-.3-.7-.6-1-.6-.6 0-1 .1-1.3.7a8 8 0 0 1-1.5 1.7c-.5.5-1.6 1.2-2.5 1.7-1.3.6-2 .7-3.4.6a8 8 0 0 1-5-2.2c-.3-.3-1-1.2-1.3-2-.5-.8-.9-2-1-3.2l-.2-1.9h7.7c4.3 0 8 0 8.3-.2.4 0 .9-.5 1.2-1 .3-.4.5-1.2.5-2a11.6 11.6 0 0 0-1.9-5.7 14 14 0 0 0-1.9-2.3 13 13 0 0 0-2.5-1.7c-1.2-.5-2-.7-3.7-.7-1.6 0-2.7.2-3.8.7Zm23.8 0c-.8.3-2 1.1-2.7 1.7a7.2 7.2 0 0 0-2.4 4.8c0 .6.3 1.6.6 2.2a8 8 0 0 0 1.2 1.8c.4.3 1.2.9 2 1.2a38.3 38.3 0 0 0 6.8 2.5c.1 0 1.1.4 2.1 1 1.4.6 2 1 2.3 1.8.3.8.3 1.1 0 2.2-.4.9-.8 1.4-2 2.1a6 6 0 0 1-3.5 1c-1.9.1-2.4 0-3.8-.7a5.6 5.6 0 0 1-2.6-2.4c-.8-1.2-1.2-1.7-1.7-1.7a2 2 0 0 0-1.2.7c-.6.6-.6.6 0 1.7l1.4 2.1a11 11 0 0 0 2 1.8 11.8 11.8 0 0 0 7.3 1.3 9.6 9.6 0 0 0 5.3-2.7 6 6 0 0 0 1.6-2.7c.4-1.3.4-1.8.1-3a5 5 0 0 0-1.5-2.6l-2.3-1.6a107 107 0 0 1-9-3.3c-.7-.2-1.4-.8-1.7-1.2-.2-.4-.5-1.1-.5-1.6 0-.4.3-1.2.6-1.7.3-.6 1.2-1.3 2-1.7a7 7 0 0 1 3.5-.7c1.3 0 2.3.2 3 .6l2 1.4c.5.5 1 1.1 1 1.3 0 .2.2.6.5.9.3.2.8.5 1.1.5.4 0 .8-.2 1-.5.2-.3.3-.8.2-1.5-.2-.7-.7-1.6-1.8-2.7-1-1.1-2-1.8-3.2-2.2a10 10 0 0 0-4-.7c-1.4 0-2.7.2-3.7.6Zm24 .1c-.8.4-2.1 1.4-2.9 2.2-.7.7-1.7 2.2-2.2 3.4-1 2-1 2.1-1 6.5 0 4.3 0 4.7.8 6.4a12.2 12.2 0 0 0 4.4 5.4c.7.4 2 .9 3 1 1.2.3 2.2.3 3.4 0 1 0 2.3-.6 3-1a9 9 0 0 0 3.9-4.1c.3-1 .3-1.1 0-1.7-.3-.4-.8-.7-1-.7-.4 0-1 .7-1.8 1.7a7.4 7.4 0 0 1-2.7 2.4 6.8 6.8 0 0 1-5.6.4 9 9 0 0 1-2-1.4 9.8 9.8 0 0 1-2-2.7c-.6-1.6-.7-2-.7-5.5s0-4 .7-5.5a11 11 0 0 1 1.8-2.7c.6-.6 1.7-1.3 2.6-1.6a10 10 0 0 1 2.2-.5c.4 0 1.3.2 2 .5a7.5 7.5 0 0 1 4 3.4c.4.6.8 1 1.3 1 .4 0 .9-.3 1.1-.7.4-.6.4-.8-.1-1.8a11 11 0 0 0-1.8-2.4 12 12 0 0 0-2.5-1.8c-1-.6-2-.7-3.9-.8-2.1 0-2.7 0-4 .6Zm23.7 0c-1 .3-2.1 1.2-3.2 2.2-.8.9-1.8 2.3-2.2 3a20.8 20.8 0 0 0-1.4 7.1 16 16 0 0 0 1.6 7.3c.5.8 1.3 2 1.9 2.6a8.8 8.8 0 0 0 5.2 2.7c1.4.3 2.2.3 3.8 0 1.2-.3 2.6-.8 3.2-1.2a11.2 11.2 0 0 0 4.5-6.1c.5-1.6.6-2.5.6-5.5 0-3.1 0-3.8-.7-5.5l-1.3-2.7a11.7 11.7 0 0 0-4.5-3.9 8.6 8.6 0 0 0-3.8-.7 10 10 0 0 0-3.7.6Zm20.2-.3c-.3.2-.3 3.4-.3 12.5 0 11.7 0 12.1.5 12.6s.8.5 1.3.3l.7-.4.2-6.9c0-5.1.2-7.3.6-8.6.3-1 .7-2.2 1-2.6l1.6-2c.8-.9 1.8-1.6 2.8-2a9 9 0 0 1 2.4-.6c.4 0 1-.2 1.3-.5l.4-.8c0-.2-.2-.6-.5-.9-.3-.3-1-.5-1.8-.5-.9 0-1.9.3-2.9.8a17 17 0 0 0-3.3 2.7l-1.7 1.8v-2.2c0-1.2 0-2.4-.2-2.6 0-.3-.5-.5-1-.5-.4 0-.9.2-1 .4Zm21.1.2a12 12 0 0 0-5.5 5.4 15.4 15.4 0 0 0-1.6 7.2 20.3 20.3 0 0 0 1.3 6.1l1.4 2.4a10.3 10.3 0 0 0 6.1 4c1.7.2 2.5.3 3.9 0 1-.2 2.4-.7 3.1-1 .7-.4 1.9-1.3 2.6-2 .7-.8 1.4-1.9 1.6-2.5.2-.9.2-1.2 0-1.6-.3-.3-.7-.5-1-.4-.5 0-1 .5-1.8 1.4a7 7 0 0 1-2.9 2.4 6 6 0 0 1-3.4 1c-1 0-2.2-.3-3-.7-.7-.3-1.7-1-2.3-1.5a10 10 0 0 1-1.6-2.4c-.4-.7-.8-2.1-1-3l-.1-1.8h7.7c4.3 0 8.2-.1 8.6-.3.4-.1.9-.7 1.1-1.2.3-.5.5-1.3.5-1.8s-.3-1.7-.6-2.7l-1.3-2.8c-.4-.5-1.1-1.5-1.7-2a10 10 0 0 0-2.7-2 7 7 0 0 0-3.8-.8 10 10 0 0 0-3.6.6ZM92 25.1c.6.3 1.5 1 2 1.6.6.5 1.3 1.6 1.6 2.3.4.8.6 1.7.5 2.3v1H81.2l.1-1.2a9.6 9.6 0 0 1 2.5-4.7l1.6-1.2 1.8-.7a8 8 0 0 1 2.2-.1c.8 0 1.9.4 2.5.7Zm70.4-.4a6 6 0 0 1 3 2c1 1 1.4 1.8 2 3.5.5 1.9.6 2.6.5 5a12.1 12.1 0 0 1-2.2 6.8 8 8 0 0 1-2.2 1.7 7.2 7.2 0 0 1-5.9.3c-.6-.2-1.5-.9-2-1.4a10 10 0 0 1-2-2.6c-.7-1.6-.7-2-.7-5.7s0-4 .8-5.5c.5-1 1.2-2 1.6-2.4a8.8 8.8 0 0 1 3.3-1.9l1.5-.3c.4 0 1.4.2 2.3.5Zm41.2 0c.8.3 2 .9 2.5 1.4.6.5 1.5 1.7 2 2.8.8 1.7.9 2.1.6 2.7l-.3.8H201l-7.2-.2v-1a9.5 9.5 0 0 1 2.7-5l2.6-1.5 2.2-.5c.4 0 1.4.2 2.2.5Z" clip-rule="evenodd"/>
  <path fill="#1E69B1" d="M22.6 21.5a11.6 11.6 0 0 0-4.2 2.6l-.7.8-1.3-1c-.7-.7-2-1.4-2.8-1.8-1-.4-2.2-.6-3.5-.6-1.5 0-2.4.2-3.5.7-.8.4-2 1.3-2.7 2a9 9 0 0 0-1.8 3.1c-.6 1.8-.6 2.4-.6 10.7 0 8.5 0 8.9.6 9.2a2 2 0 0 0 1.6 0c.5-.6.5-9.2.5-9.2.1-8.4.1-8.9.8-10.2.3-.8 1-1.8 1.5-2.2a6.2 6.2 0 0 1 3.8-1.4 7.3 7.3 0 0 1 4.4 2.5c.4.5.9 1.5 1.1 2 .2.8.3 3.8.3 9.4 0 7.8 0 8.6.4 8.9.3.3.6.5 1 .5 1 0 1.2-.3 1.5-.5l.1-9.4.1-9 1-1.5a6.7 6.7 0 0 1 4.8-2.9c.4 0 1.3.2 2 .5.8.3 1.8.8 2.2 1.3a8 8 0 0 1 1.2 1.6c.3.6.5 2.6.7 6.2.1 3.4.4 6 .7 7 .3.8.9 2.1 1.4 2.8a13 13 0 0 0 2.4 2.3 9 9 0 0 0 6.7 1.3c.9-.2 2.2-.7 3-1.1a9.7 9.7 0 0 0 4-4.8c.6-1.4.6-2 .7-9v-8.5c-.1-.8-.4-1.1-.9-1.3a2 2 0 0 0-1.3.2c-.6.3-.6.5-.6 8.3 0 7.6 0 8-.7 9.4-.4.8-1.1 2-1.7 2.4-.5.5-1.4 1-2 1.3a6.5 6.5 0 0 1-5.3-.4 6 6 0 0 1-2-1.8 12 12 0 0 1-1.5-6.3 49.2 49.2 0 0 0-1.2-9.3A10.2 10.2 0 0 0 29 22c-.7-.4-1.9-.7-3.2-.8-1.1 0-2.5 0-3 .2Z"/>
  <path stroke="#1E69B1" stroke-width=".6" d="m37.7 6.8-2 .8a11.1 11.1 0 0 0-4.8 7.4v2c.1.5.4 1 .8 1 .3.1.8 0 1.1-.1.4-.2.6-.8.8-1.8a7 7 0 0 1 1-3.1c.5-1 1.2-2 2-2.5 1.2-.9 3.8-1 3.8-1s2.6 0 3.9 1.1c.7.6 1.6 1.8 2 2.5.3.8.7 2.1.8 3 .1 1 .3 1.6.8 1.8.4.2.7.2 1.2 0 .6-.3.7-.5.7-2 0-1-.2-2.3-.6-3.3-.4-.8-1.1-2.2-1.7-3a9.6 9.6 0 0 0-2.7-2.1 11.6 11.6 0 0 0-7-.7Zm1.7 8.2c-.3.3-.5.8-.5 1.5 0 .8.2 1.3.5 1.6.3.2.9.4 1.3.4s.9 0 1.3-.5c.5-.6.6-1.5.5-2-.1-.4-.3-.6-.6-1-.4-.2-1-.5-1.3-.4l-1.2.4Zm21.1 7.1a8.7 8.7 0 0 0-4.5 4.1 4.7 4.7 0 0 0-.5 2.9c0 1 .4 1.8 1 2.6.5.6 1.4 1.4 2 1.8.6.4 2.7 1.2 4.7 1.9l4.6 1.7c.7.2 1.6.8 2 1.3.6.5.8 1 .8 1.8a4 4 0 0 1-.6 2c-.4.4-1.3 1.2-2.1 1.6-1.1.5-2 .7-3.4.7-1.5 0-2.3-.2-3.5-.8a6.1 6.1 0 0 1-2.5-2.4c-.8-1.2-1.3-1.7-1.7-1.7-.4 0-.9.2-1 .4-.2.2-.4.7-.4 1 0 .5.2 1.1.5 1.6l1.4 1.8a9.4 9.4 0 0 0 5.2 2.8c1.3.3 2.2.3 3.8 0 1.2-.2 2.6-.7 3.2-1l2-1.5c.5-.4 1-1.3 1.4-1.8a7 7 0 0 0 .5-2.9c0-1.5-.2-2-.8-2.9a8.6 8.6 0 0 0-2.1-1.9 60 60 0 0 0-5.9-2.4 18.4 18.4 0 0 1-5.4-2.4c-.6-.6-.9-1.2-.9-1.7s.3-1.4.6-2c.4-.5 1.2-1.2 2-1.6 1-.5 1.9-.7 3.4-.7a6 6 0 0 1 3.4.7l2 1.5c.3.4.7 1 .8 1.5.1.3.4.7.8.8h1.2c.6-.1.8-.4.8-1a5 5 0 0 0-.9-2.3 11 11 0 0 0-2-2.1A12 12 0 0 0 68 22a10 10 0 0 0-3.7-.6c-1.5 0-2.7.2-3.7.6Zm24.5 0a13.1 13.1 0 0 0-5.4 5.5c-.4.9-.9 2.2-1 3a21.1 21.1 0 0 0 0 7.8c.3 1 .7 2.3 1.1 3a14.1 14.1 0 0 0 4.6 4.8 10.5 10.5 0 0 0 9.8-.1c.7-.4 1.7-1.2 2.2-1.7.5-.5 1.2-1.5 1.6-2.2.5-1 .6-1.5.4-1.9-.2-.3-.7-.6-1-.6-.6 0-1 .1-1.3.7a8 8 0 0 1-1.5 1.7c-.5.5-1.6 1.2-2.5 1.7-1.3.6-2 .7-3.4.6a8 8 0 0 1-5-2.2c-.3-.3-1-1.2-1.3-2-.5-.8-.9-2-1-3.2l-.2-1.9h7.7c4.3 0 8 0 8.3-.2.4 0 .9-.5 1.2-1 .3-.4.5-1.2.5-2a11.6 11.6 0 0 0-1.9-5.7 14 14 0 0 0-1.9-2.3 13 13 0 0 0-2.5-1.7c-1.2-.5-2-.7-3.7-.7-1.6 0-2.7.2-3.8.7Zm23.8 0c-.8.3-2 1.1-2.7 1.7a7.2 7.2 0 0 0-2.4 4.8c0 .6.3 1.6.6 2.2a8 8 0 0 0 1.2 1.8c.4.3 1.2.9 2 1.2a38.3 38.3 0 0 0 6.8 2.5c.1 0 1.1.4 2.1 1 1.4.6 2 1 2.3 1.8.3.8.3 1.1 0 2.2-.4.9-.8 1.4-2 2.1a6 6 0 0 1-3.5 1c-1.9.1-2.4 0-3.8-.7a5.6 5.6 0 0 1-2.6-2.4c-.8-1.2-1.2-1.7-1.7-1.7a2 2 0 0 0-1.2.7c-.6.6-.6.6 0 1.7l1.4 2.1a11 11 0 0 0 2 1.8 11.8 11.8 0 0 0 7.3 1.3 9.6 9.6 0 0 0 5.3-2.7 6 6 0 0 0 1.6-2.7c.4-1.3.4-1.8.1-3a5 5 0 0 0-1.5-2.6l-2.3-1.6a107 107 0 0 1-9-3.3c-.7-.2-1.4-.8-1.7-1.2-.2-.4-.5-1.1-.5-1.6 0-.4.3-1.2.6-1.7.3-.6 1.2-1.3 2-1.7a7 7 0 0 1 3.5-.7c1.3 0 2.3.2 3 .6l2 1.4c.5.5 1 1.1 1 1.3 0 .2.2.6.5.9.3.2.8.5 1.1.5.4 0 .8-.2 1-.5.2-.3.3-.8.2-1.5-.2-.7-.7-1.6-1.8-2.7-1-1.1-2-1.8-3.2-2.2a10 10 0 0 0-4-.7c-1.4 0-2.7.2-3.7.6Zm24 .1c-.8.4-2.1 1.4-2.9 2.2-.7.7-1.7 2.2-2.2 3.4-1 2-1 2.1-1 6.5 0 4.3 0 4.7.8 6.4a12.2 12.2 0 0 0 4.4 5.4c.7.4 2 .9 3 1 1.2.3 2.2.3 3.4 0 1 0 2.3-.6 3-1a9 9 0 0 0 3.9-4.1c.3-1 .3-1.1 0-1.7-.3-.4-.8-.7-1-.7-.4 0-1 .7-1.8 1.7a7.4 7.4 0 0 1-2.7 2.4 6.8 6.8 0 0 1-5.6.4 9 9 0 0 1-2-1.4 9.8 9.8 0 0 1-2-2.7c-.6-1.6-.7-2-.7-5.5s0-4 .7-5.5a11 11 0 0 1 1.8-2.7c.6-.6 1.7-1.3 2.6-1.6a10 10 0 0 1 2.2-.5c.4 0 1.3.2 2 .5a7.5 7.5 0 0 1 4 3.4c.4.6.8 1 1.3 1 .4 0 .9-.3 1.1-.7.4-.6.4-.8-.1-1.8a11 11 0 0 0-1.8-2.4 12 12 0 0 0-2.5-1.8c-1-.6-2-.7-3.9-.8-2.1 0-2.7 0-4 .6Zm23.7 0c-1 .3-2.1 1.2-3.2 2.2-.8.9-1.8 2.3-2.2 3a20.8 20.8 0 0 0-1.4 7.1 16 16 0 0 0 1.6 7.3c.5.8 1.3 2 1.9 2.6a8.8 8.8 0 0 0 5.2 2.7c1.4.3 2.2.3 3.8 0 1.2-.3 2.6-.8 3.2-1.2a11.2 11.2 0 0 0 4.5-6.1c.5-1.6.6-2.5.6-5.5 0-3.1 0-3.8-.7-5.5l-1.3-2.7a11.7 11.7 0 0 0-4.5-3.9 8.6 8.6 0 0 0-3.8-.7 10 10 0 0 0-3.7.6Zm20.2-.3c-.3.2-.3 3.4-.3 12.5 0 11.7 0 12.1.5 12.6s.8.5 1.3.3l.7-.4.2-6.9c0-5.1.2-7.3.6-8.6.3-1 .7-2.2 1-2.6l1.6-2c.8-.9 1.8-1.6 2.8-2a9 9 0 0 1 2.4-.6c.4 0 1-.2 1.3-.5l.4-.8c0-.2-.2-.6-.5-.9-.3-.3-1-.5-1.8-.5-.9 0-1.9.3-2.9.8a17 17 0 0 0-3.3 2.7l-1.7 1.8v-2.2c0-1.2 0-2.4-.2-2.6 0-.3-.5-.5-1-.5-.4 0-.9.2-1 .4Zm21.1.2a12 12 0 0 0-5.5 5.4 15.4 15.4 0 0 0-1.6 7.2 20.3 20.3 0 0 0 1.3 6.1l1.4 2.4a10.3 10.3 0 0 0 6.1 4c1.7.2 2.5.3 3.9 0 1-.2 2.4-.7 3.1-1 .7-.4 1.9-1.3 2.6-2 .7-.8 1.4-1.9 1.6-2.5.2-.9.2-1.2 0-1.6-.3-.3-.7-.5-1-.4-.5 0-1 .5-1.8 1.4a7 7 0 0 1-2.9 2.4 6 6 0 0 1-3.4 1c-1 0-2.2-.3-3-.7-.7-.3-1.7-1-2.3-1.5a10 10 0 0 1-1.6-2.4c-.4-.7-.8-2.1-1-3l-.1-1.8h7.7c4.3 0 8.2-.1 8.6-.3.4-.1.9-.7 1.1-1.2.3-.5.5-1.3.5-1.8s-.3-1.7-.6-2.7l-1.3-2.8c-.4-.5-1.1-1.5-1.7-2a10 10 0 0 0-2.7-2 7 7 0 0 0-3.8-.8 10 10 0 0 0-3.6.6ZM92 25.1c.6.3 1.5 1 2 1.6.6.5 1.3 1.6 1.6 2.3.4.8.6 1.7.5 2.3v1H81.2l.1-1.2a9.6 9.6 0 0 1 2.5-4.7l1.6-1.2 1.8-.7a8 8 0 0 1 2.2-.1c.8 0 1.9.4 2.5.7Zm70.4-.4a6 6 0 0 1 3 2c1 1 1.4 1.8 2 3.5.5 1.9.6 2.6.5 5a12.1 12.1 0 0 1-2.2 6.8 8 8 0 0 1-2.2 1.7 7.2 7.2 0 0 1-5.9.3c-.6-.2-1.5-.9-2-1.4a10 10 0 0 1-2-2.6c-.7-1.6-.7-2-.7-5.7s0-4 .8-5.5c.5-1 1.2-2 1.6-2.4a8.8 8.8 0 0 1 3.3-1.9l1.5-.3c.4 0 1.4.2 2.3.5Zm41.2 0c.8.3 2 .9 2.5 1.4.6.5 1.5 1.7 2 2.8.8 1.7.9 2.1.6 2.7l-.3.8H201l-7.2-.2v-1a9.5 9.5 0 0 1 2.7-5l2.6-1.5 2.2-.5c.4 0 1.4.2 2.2.5Z" clip-rule="evenodd" mask="url(#a)"/>
  <path stroke="#1E69B1" stroke-width=".6" d="M22.6 21.5a11.6 11.6 0 0 0-4.2 2.6l-.7.8-1.3-1c-.7-.7-2-1.4-2.8-1.8-1-.4-2.2-.6-3.5-.6-1.5 0-2.4.2-3.5.7-.8.4-2 1.3-2.7 2a9 9 0 0 0-1.8 3.1c-.6 1.8-.6 2.4-.6 10.7 0 8.5 0 8.9.6 9.2a2 2 0 0 0 1.6 0c.5-.6.5-9.2.5-9.2.1-8.4.1-8.9.8-10.2.3-.8 1-1.8 1.5-2.2a6.2 6.2 0 0 1 3.8-1.4 7.3 7.3 0 0 1 4.4 2.5c.4.5.9 1.5 1.1 2 .2.8.3 3.8.3 9.4 0 7.8 0 8.6.4 8.9.3.3.6.5 1 .5 1 0 1.2-.3 1.5-.5l.1-9.4.1-9 1-1.5a6.7 6.7 0 0 1 4.8-2.9c.4 0 1.3.2 2 .5.8.3 1.8.8 2.2 1.3a8 8 0 0 1 1.2 1.6c.3.6.5 2.6.7 6.2.1 3.4.4 6 .7 7 .3.8.9 2.1 1.4 2.8a13 13 0 0 0 2.4 2.3 9 9 0 0 0 6.7 1.3c.9-.2 2.2-.7 3-1.1a9.7 9.7 0 0 0 4-4.8c.6-1.4.6-2 .7-9v-8.5c-.1-.8-.4-1.1-.9-1.3a2 2 0 0 0-1.3.2c-.6.3-.6.5-.6 8.3 0 7.6 0 8-.7 9.4-.4.8-1.1 2-1.7 2.4-.5.5-1.4 1-2 1.3a6.5 6.5 0 0 1-5.3-.4 6 6 0 0 1-2-1.8 12 12 0 0 1-1.5-6.3 49.2 49.2 0 0 0-1.2-9.3A10.2 10.2 0 0 0 29 22c-.7-.4-1.9-.7-3.2-.8-1.1 0-2.5 0-3 .2Z" mask="url(#a)"/>
</svg>
