<svg width="213" height="56" viewBox="0 0 213 56" fill="none" xmlns="http://www.w3.org/2000/svg">
<mask id="path-1-outside-1_214_7" maskUnits="userSpaceOnUse" x="0.5" y="5.5" width="212" height="43" fill="black">
<rect fill="white" x="0.5" y="5.5" width="212" height="43"/>
<path fill-rule="evenodd" clip-rule="evenodd" d="M37.6741 6.76879C37.0297 6.97167 36.1072 7.36141 35.6239 7.63534C35.1407 7.90928 34.2327 8.64823 33.6062 9.27744C32.9798 9.90633 32.1377 11.1641 31.735 12.0721C31.3323 12.9801 30.939 14.3077 30.8611 15.0222C30.7829 15.7367 30.8016 16.6607 30.9023 17.0752C31.0031 17.4897 31.344 17.9136 31.6597 18.017C31.9752 18.1204 32.4895 18.0636 32.8023 17.8909C33.1959 17.6732 33.4334 17.1084 33.5737 16.0556C33.685 15.219 34.1261 13.823 34.5537 12.9535C35.0531 11.9373 35.785 11.0474 36.601 10.4633C37.7766 9.62212 40.4354 9.55439 40.4354 9.55439C40.4354 9.55439 43.0256 9.57616 44.2927 10.648C45.0041 11.2497 45.8868 12.3639 46.2547 13.1243C46.6222 13.8847 47.003 15.2009 47.1002 16.0496C47.2273 17.1565 47.4411 17.6829 47.8579 17.913C48.2685 18.1398 48.6417 18.138 49.1334 17.9067C49.7444 17.6194 49.8287 17.3748 49.8287 15.8909C49.8287 14.8347 49.5891 13.6144 49.1891 12.6339C48.8373 11.7716 48.0565 10.4472 47.454 9.69106C46.8237 8.89979 45.6774 7.96007 44.7542 7.47782C43.5552 6.85164 42.6059 6.60945 40.9977 6.51995C39.7849 6.45253 38.3342 6.56107 37.6741 6.76879ZM39.446 15.0083C39.065 15.3058 38.8749 15.8177 38.8749 16.5461C38.8749 17.2678 39.0626 17.7794 39.4287 18.0557C39.7333 18.2858 40.293 18.4739 40.6723 18.4739C41.0513 18.4739 41.5944 18.4188 42 18C42.5342 17.4482 42.6379 16.4898 42.5 16C42.3954 15.6287 42.1889 15.3635 41.8629 15.0724C41.5369 14.7812 40.9884 14.5475 40.6436 14.5529C40.2992 14.5581 39.7603 14.7631 39.446 15.0083ZM60.4967 22.1194C59.6792 22.4441 58.4919 23.1679 57.8584 23.7276C57.2249 24.2873 56.3954 25.3881 56.0156 26.174C55.4767 27.2875 55.3551 27.9319 55.4635 29.0971C55.5625 30.162 55.8542 30.9146 56.4777 31.7137C56.959 32.3308 57.8675 33.1427 58.4966 33.5179C59.1257 33.8931 61.2219 34.7315 63.1549 35.381C65.0879 36.0305 67.1967 36.7906 67.841 37.0703C68.4854 37.3499 69.3751 37.9314 69.818 38.3628C70.3906 38.9204 70.6234 39.4453 70.6234 40.1779C70.6234 40.7478 70.3419 41.6165 69.9934 42.1214C69.6472 42.6236 68.6915 43.3577 67.87 43.7526C66.7799 44.2766 65.8585 44.4713 64.457 44.4734C62.9806 44.4758 62.1904 44.2978 61.0324 43.7021C59.9238 43.1319 59.2484 42.4942 58.4696 41.2833C57.7117 40.1041 57.2261 39.6388 56.7545 39.6388C56.3925 39.6388 55.9383 39.802 55.745 40.0016C55.5517 40.2011 55.3935 40.6822 55.3935 41.0704C55.3935 41.4589 55.6149 42.1459 55.8855 42.5973C56.1562 43.0487 56.7823 43.8726 57.2767 44.4278C57.7714 44.9832 58.769 45.7497 59.4939 46.1309C60.2187 46.5125 61.5765 46.9878 62.5111 47.1871C63.8332 47.4689 64.6744 47.4686 66.3013 47.1852C67.4515 46.9851 68.8854 46.5316 69.4876 46.1778C70.0901 45.824 70.9822 45.1643 71.4701 44.7117C71.9581 44.2591 72.5831 43.4427 72.859 42.8975C73.1726 42.2783 73.3624 41.2077 73.3651 40.0439C73.3686 38.4789 73.2418 38.0094 72.5722 37.1029C72.1338 36.5094 71.1948 35.6728 70.4854 35.2437C69.7761 34.8147 67.1316 33.7359 64.609 32.8463C61.4064 31.717 59.7654 30.9754 59.1723 30.3885C58.6111 29.8334 58.3223 29.2453 58.3223 28.6575C58.3223 28.1677 58.5886 27.3226 58.9137 26.7793C59.2519 26.2145 60.0981 25.4928 60.8906 25.0933C61.9321 24.5688 62.7856 24.3943 64.3264 24.3916C65.9048 24.3886 66.6709 24.5479 67.6556 25.0834C68.3588 25.4658 69.2477 26.1419 69.6308 26.5861C70.0139 27.0299 70.407 27.6945 70.5045 28.0628C70.602 28.431 70.9418 28.8175 71.2595 28.9215C71.5773 29.0258 72.1572 29.0279 72.5482 28.9266C73.1067 28.7821 73.2593 28.5444 73.2593 27.82C73.2593 27.2945 72.89 26.3436 72.4015 25.6104C71.9297 24.9023 71.0574 23.9402 70.4632 23.4724C69.8689 23.0044 68.7378 22.3688 67.9497 22.0595C66.9811 21.6794 65.7823 21.5026 64.25 21.5132C62.7361 21.5237 61.4899 21.7251 60.4967 22.1194ZM84.9963 22.1938C84.031 22.5974 82.8094 23.4691 81.8839 24.4149C81.0462 25.2708 80.0281 26.6995 79.6216 27.5896C79.2154 28.4794 78.7377 29.8461 78.5605 30.6264C78.3833 31.4068 78.243 33.1076 78.2489 34.4059C78.2545 35.7042 78.4346 37.5147 78.6493 38.4293C78.8637 39.344 79.3493 40.7046 79.7282 41.4529C80.1072 42.2012 81.0292 43.4475 81.7767 44.2222C82.5244 44.9968 83.6558 45.9045 84.2911 46.2389C84.926 46.5736 86.2645 47.0005 87.2653 47.188C88.6404 47.4453 89.5307 47.4401 90.9105 47.1671C91.9145 46.9685 93.3291 46.4738 94.054 46.0674C94.7789 45.6614 95.7908 44.9158 96.3028 44.4108C96.8147 43.9059 97.5393 42.8982 97.9127 42.1713C98.4429 41.1397 98.5213 40.7339 98.2703 40.32C98.0934 40.0285 97.6193 39.7488 97.2166 39.6986C96.6847 39.6324 96.3403 39.8344 95.9577 40.4373C95.6681 40.8935 95.0223 41.6573 94.5229 42.1344C94.0233 42.6112 92.8898 43.3471 92.0038 43.7695C90.6999 44.3912 90.057 44.5151 88.6278 44.4211C87.5347 44.3495 86.3632 44.0368 85.5522 43.6005C84.8317 43.2129 83.9668 42.6052 83.63 42.2499C83.2929 41.8946 82.6758 40.9918 82.2582 40.2435C81.7896 39.4035 81.4211 38.1596 81.2952 36.9932L81.0916 35.1034L88.8176 35.0992C93.0667 35.0971 96.8071 35.0194 97.1293 34.9269C97.4515 34.8343 97.9678 34.4065 98.2765 33.9759C98.6148 33.504 98.8377 32.7018 98.8374 31.9562C98.8371 31.2759 98.6007 29.9864 98.3125 29.0908C98.024 28.1952 97.409 26.8824 96.9454 26.1737C96.482 25.4646 95.6174 24.4448 95.0243 23.9072C94.4312 23.3696 93.2782 22.6089 92.4622 22.2164C91.3062 21.6607 90.494 21.5062 88.7821 21.5162C87.2202 21.5256 86.1263 21.7212 84.9963 22.1938ZM108.822 22.1194C108.005 22.4441 106.771 23.2088 106.081 23.8183C105.392 24.4279 104.578 25.5272 104.273 26.2607C103.968 26.9946 103.719 28.0649 103.719 28.64C103.719 29.2148 103.97 30.1898 104.277 30.807C104.583 31.4238 105.143 32.2196 105.521 32.5748C105.899 32.9304 106.747 33.4997 107.405 33.8405C108.063 34.1812 109.827 34.877 111.324 35.3864C112.822 35.8959 114.162 36.3129 114.301 36.3129C114.44 36.3129 115.396 36.7234 116.426 37.2257C117.843 37.9168 118.388 38.3664 118.674 39.0788C118.987 39.8583 118.98 40.2302 118.634 41.2542C118.316 42.1976 117.877 42.7059 116.781 43.404C115.6 44.1559 114.962 44.3383 113.189 44.4305C111.306 44.5288 110.825 44.4384 109.401 43.7187C108.129 43.0765 107.546 42.5353 106.76 41.2666C106.017 40.0666 105.573 39.6388 105.073 39.6388C104.701 39.6388 104.151 39.9178 103.852 40.2586C103.323 40.8627 103.323 40.9068 103.88 41.989C104.194 42.6 104.841 43.5618 105.318 44.1263C105.794 44.6908 106.697 45.4869 107.323 45.8954C107.95 46.3036 109.395 46.8384 110.535 47.084C112.167 47.4353 113.03 47.4625 114.59 47.2128C115.681 47.038 117.075 46.6008 117.688 46.2413C118.301 45.8818 119.299 45.1035 119.906 44.5115C120.63 43.8067 121.179 42.8809 121.502 41.8266C121.917 40.4675 121.938 39.9967 121.639 38.7943C121.384 37.7693 120.941 37.0476 120.054 36.2143C119.377 35.5778 118.357 34.851 117.788 34.5985C117.218 34.346 115.237 33.6234 113.384 32.9927C111.532 32.3617 109.464 31.6145 108.789 31.3325C108.114 31.0501 107.356 30.4952 107.105 30.0994C106.854 29.7037 106.649 29.001 106.649 28.5378C106.65 28.0746 106.898 27.2757 107.201 26.7627C107.511 26.2393 108.378 25.5139 109.177 25.1106C110.272 24.5585 111.077 24.3937 112.652 24.4C114.038 24.4055 115.035 24.5845 115.727 24.9518C116.291 25.2512 117.181 25.9155 117.704 26.4282C118.228 26.941 118.656 27.517 118.656 27.7081C118.656 27.8992 118.897 28.2808 119.192 28.5559C119.486 28.8311 119.997 29.0563 120.327 29.0563C120.657 29.0563 121.09 28.8537 121.289 28.6061C121.519 28.3204 121.581 27.7677 121.458 27.0937C121.329 26.3823 120.761 25.4988 119.74 24.4188C118.667 23.2837 117.713 22.6125 116.521 22.1517C115.299 21.6801 114.196 21.502 112.568 21.5132C111.062 21.5237 109.814 21.7257 108.822 22.1194ZM132.804 22.2315C131.967 22.6325 130.675 23.5876 129.932 24.3541C129.177 25.1333 128.175 26.6432 127.659 27.7798C126.752 29.7744 126.735 29.8966 126.729 34.3475C126.723 38.5754 126.774 39.0035 127.48 40.6604C127.898 41.6379 128.778 43.0835 129.436 43.8723C130.094 44.6615 131.203 45.6517 131.899 46.0729C132.595 46.4941 133.948 46.9884 134.906 47.171C136.134 47.4054 137.14 47.4108 138.321 47.1898C139.242 47.0174 140.565 46.5476 141.261 46.1457C141.957 45.7436 143.014 44.8976 143.61 44.2654C144.206 43.6332 144.892 42.6263 145.133 42.0277C145.524 41.0601 145.523 40.8678 145.131 40.2891C144.888 39.9314 144.437 39.6388 144.13 39.6388C143.792 39.6388 143.107 40.2846 142.405 41.2663C141.601 42.3902 140.764 43.1391 139.702 43.6852C138.621 44.2415 137.7 44.4764 136.602 44.4764C135.742 44.4764 134.605 44.2893 134.075 44.0607C133.545 43.8321 132.623 43.202 132.025 42.6608C131.428 42.1196 130.589 40.912 130.161 39.9774C129.451 38.4266 129.382 37.9483 129.372 34.4987C129.361 31.0349 129.425 30.5757 130.134 29.0004C130.559 28.0549 131.366 26.8216 131.926 26.2598C132.491 25.6938 133.627 25.0108 134.474 24.7284C135.315 24.4481 136.313 24.2186 136.692 24.2186C137.071 24.2186 138.011 24.4357 138.782 24.7012C139.552 24.9667 140.62 25.6128 141.154 26.1374C141.688 26.662 142.391 27.5334 142.716 28.0737C143.112 28.7328 143.534 29.0563 143.998 29.0563C144.378 29.0563 144.888 28.7645 145.13 28.4075C145.527 27.8215 145.514 27.6452 144.988 26.5809C144.668 25.9333 143.882 24.8787 143.242 24.2374C142.602 23.5964 141.454 22.7576 140.691 22.3737C139.643 21.8463 138.696 21.6547 136.815 21.589C134.69 21.5153 134.103 21.6093 132.804 22.2315ZM156.499 22.1439C155.523 22.5306 154.352 23.3599 153.341 24.3789C152.457 25.2699 151.452 26.6529 151.108 27.452C150.764 28.2511 150.311 29.7215 150.102 30.7193C149.893 31.717 149.722 33.4178 149.722 34.4987C149.722 35.5796 149.894 37.2895 150.104 38.2984C150.314 39.3071 150.869 40.8633 151.338 41.7562C151.807 42.649 152.638 43.8288 153.184 44.3776C153.73 44.9267 154.724 45.7064 155.392 46.1104C156.06 46.5146 157.415 46.9966 158.403 47.1816C159.833 47.4492 160.617 47.428 162.244 47.0779C163.369 46.8357 164.796 46.303 165.415 45.8936C166.036 45.4845 166.884 44.7601 167.301 44.2838C167.718 43.8079 168.321 43.01 168.642 42.5111C168.963 42.0122 169.52 40.7732 169.881 39.7576C170.426 38.2231 170.535 37.3028 170.527 34.3152C170.52 31.1532 170.427 30.4868 169.758 28.7918C169.34 27.7317 168.775 26.5087 168.502 26.0742C168.23 25.6397 167.446 24.7453 166.76 24.0871C166.074 23.4289 164.822 22.5823 163.977 22.2062C162.831 21.6952 161.886 21.5225 160.246 21.5252C158.747 21.5277 157.556 21.7245 156.499 22.1439ZM176.706 21.8603C176.444 22.1303 176.354 25.3234 176.354 34.3611C176.354 46.1234 176.372 46.5161 176.941 47.0477C177.415 47.4903 177.662 47.533 178.224 47.2684L178.92 46.9409L179.072 40.0397C179.184 34.8927 179.347 32.6855 179.712 31.3578C179.981 30.3788 180.413 29.2223 180.672 28.7878C180.932 28.3536 181.676 27.4185 182.327 26.71C183.063 25.91 184.101 25.1943 185.069 24.8203C185.926 24.4895 187.008 24.2186 187.474 24.2186C187.939 24.2186 188.527 24.0049 188.781 23.7436C189.034 23.4821 189.241 23.0951 189.241 22.8834C189.241 22.6715 189 22.273 188.705 21.9978C188.374 21.6882 187.676 21.4999 186.875 21.5041C186.048 21.508 185.022 21.8086 184.034 22.3356C183.184 22.7891 181.702 23.9689 180.739 24.9573L178.99 26.7539V24.6041C178.99 23.4213 178.91 22.2388 178.812 21.9758C178.711 21.7033 178.295 21.4974 177.846 21.4974C177.412 21.4974 176.899 21.6607 176.706 21.8603ZM197.81 22.1381C196.965 22.4734 195.57 23.4116 194.71 24.2232C193.85 25.0347 192.744 26.4881 192.252 27.4529C191.761 28.418 191.211 30.1031 191.032 31.1976C190.852 32.2921 190.71 33.8568 190.716 34.6747C190.721 35.4926 190.897 36.978 191.106 37.9758C191.315 38.9736 191.725 40.2661 192.016 40.8482C192.307 41.4302 192.917 42.4682 193.372 43.1552C193.827 43.8418 194.929 44.9037 195.821 45.5147C196.906 46.2582 198.127 46.7731 199.515 47.0719C201.168 47.4274 201.951 47.4501 203.377 47.1831C204.361 46.999 205.767 46.5328 206.503 46.1473C207.238 45.7618 208.403 44.8574 209.092 44.1375C209.781 43.4176 210.492 42.3194 210.673 41.6969C210.927 40.8198 210.917 40.4609 210.629 40.102C210.424 39.8471 209.976 39.6466 209.634 39.656C209.244 39.6669 208.607 40.2202 207.934 41.1327C207.186 42.1474 206.302 42.8794 205.032 43.5343C203.632 44.2566 202.824 44.4749 201.568 44.4698C200.561 44.4659 199.424 44.2264 198.613 43.8479C197.888 43.5095 196.855 42.7984 196.317 42.2671C195.779 41.7362 195.035 40.687 194.663 39.936C194.291 39.1846 193.892 37.7902 193.777 36.8368L193.567 35.1034H201.343C205.62 35.1034 209.451 34.9731 209.856 34.8141C210.261 34.655 210.797 34.1174 211.047 33.6198C211.296 33.1218 211.5 32.3048 211.5 31.8038C211.5 31.3028 211.216 30.1058 210.869 29.1434C210.521 28.1807 209.942 26.9172 209.583 26.3351C209.223 25.7531 208.485 24.8143 207.944 24.2486C207.403 23.6832 206.17 22.8329 205.203 22.3591C203.774 21.6589 203.063 21.5008 201.396 21.5135C200.076 21.5234 198.799 21.746 197.81 22.1381ZM91.9107 25.0825C92.5258 25.4096 93.4431 26.1316 93.9492 26.6865C94.4553 27.2416 95.155 28.2841 95.5038 29.0031C95.8675 29.7526 96.0995 30.7199 96.048 31.2708L95.9577 32.2311L88.5581 32.3118L81.1587 32.3925L81.3438 31.1024C81.4454 30.3927 81.8613 29.1999 82.2678 28.4516C82.6741 27.7033 83.3506 26.7826 83.7709 26.4056C84.1915 26.0285 84.9307 25.4955 85.414 25.2212C85.8972 24.9467 86.688 24.6153 87.1713 24.4847C87.6545 24.3541 88.667 24.3015 89.4212 24.3674C90.1751 24.4336 91.2954 24.7553 91.9107 25.0825ZM162.316 24.7018C163.49 25.0583 164.256 25.5569 165.242 26.6066C166.263 27.6927 166.738 28.5438 167.259 30.214C167.838 32.075 167.916 32.814 167.785 35.1878C167.675 37.1667 167.439 38.4145 166.97 39.4876C166.606 40.3191 165.988 41.4351 165.596 41.9672C165.204 42.4996 164.21 43.2818 163.386 43.7057C162.309 44.26 161.42 44.4764 160.224 44.4764C159.309 44.4764 158.087 44.2727 157.51 44.0235C156.932 43.7744 155.989 43.144 155.414 42.6227C154.839 42.1014 154.01 40.9105 153.572 39.9765C152.831 38.3934 152.777 38.0115 152.783 34.3475C152.788 30.6147 152.831 30.3332 153.628 28.754C154.09 27.8393 154.786 26.7847 155.176 26.4101C155.565 26.0355 156.304 25.5045 156.818 25.2303C157.332 24.9561 158.083 24.628 158.486 24.501C158.89 24.3743 159.559 24.2588 159.973 24.2446C160.386 24.2304 161.441 24.436 162.316 24.7018ZM203.538 24.7112C204.35 24.9821 205.479 25.5992 206.047 26.0824C206.616 26.5658 207.501 27.8442 208.016 28.9233C208.814 30.5974 208.903 30.9959 208.619 31.639L208.286 32.3928L201.033 32.3118L193.781 32.2311L193.883 31.1792C193.939 30.6004 194.296 29.4932 194.677 28.7186C195.057 27.944 195.903 26.8376 196.556 26.2604C197.209 25.6832 198.368 24.996 199.13 24.7332C199.893 24.4708 200.864 24.2477 201.289 24.2374C201.713 24.2271 202.725 24.4403 203.538 24.7112Z"/>
<path d="M22.6313 21.5225C22.0901 21.694 21.1016 22.1832 20.4347 22.6095C19.7681 23.0358 18.869 23.7249 18.437 24.1409L17.6512 24.8974L16.3865 23.8274C15.6906 23.239 14.4248 22.4737 13.5734 22.1275C12.5439 21.7085 11.3665 21.4983 10.0591 21.5005C8.60811 21.5026 7.70135 21.6915 6.59835 22.2219C5.77623 22.6171 4.58068 23.502 3.94191 24.1884C3.20794 24.9769 2.54368 26.1313 2.13862 27.322C1.5347 29.0974 1.49721 29.7233 1.50014 38.0408C1.50307 46.4762 1.52855 46.888 2.07214 47.1883C2.47251 47.4096 3.17424 47.4296 3.68737 47.1883C4.20198 46.6311 4.20198 38.0121 4.20198 38.0121C4.29893 29.6447 4.33642 29.1373 4.95733 27.7952C5.3164 27.0184 6.00819 26.0373 6.49467 25.6146C6.98086 25.1922 7.86917 24.706 8.46811 24.5343C9.06706 24.3626 9.88684 24.2226 10.2896 24.2232C10.6923 24.2241 11.6963 24.5488 12.5204 24.9449C13.3522 25.3449 14.3363 26.1171 14.7317 26.6804C15.1236 27.2389 15.6024 28.1816 15.7957 28.7754C16.0347 29.5099 16.1472 32.4832 16.1472 38.0729C16.1472 45.8875 16.1778 46.6674 16.5 47C16.8222 47.3326 17.105 47.4757 17.5 47.5C18.5 47.5 18.6547 47.2497 19 47C19.1411 46.898 19.0324 46.3952 19.1264 37.5973L19.2225 28.6028L20.2086 27.1364C20.9092 26.0944 21.63 25.4607 22.6981 24.9473C23.5249 24.5497 24.5403 24.2232 24.9548 24.2217C25.3689 24.2198 26.3161 24.4324 27.0594 24.6939C27.8025 24.9555 28.7608 25.5309 29.189 25.9726C29.6169 26.4146 30.1546 27.1506 30.3842 27.6086C30.6631 28.1653 30.8859 30.221 31.0573 33.8133C31.2213 37.2474 31.4864 39.753 31.7921 40.7593C32.0554 41.6249 32.7012 42.9175 33.2273 43.6317C33.7533 44.3458 34.8191 45.3608 35.5955 45.8875C36.4829 46.4895 37.6826 46.9663 38.8266 47.1719C40.1038 47.4017 41.1371 47.4054 42.2931 47.1849C43.199 47.012 44.541 46.524 45.2753 46.1001C46.0095 45.6765 47.0542 44.7637 47.5967 44.0716C48.1391 43.3798 48.8798 42.1332 49.243 41.3017C49.8542 39.9015 49.914 39.2393 50.0499 32.3342C50.1307 28.2336 50.1081 24.391 50.0001 23.795C49.8548 22.9962 49.6214 22.6645 49.1109 22.5324C48.7304 22.4338 48.1429 22.5055 47.8058 22.6917C47.2077 23.0222 47.1928 23.2239 47.1898 30.9566C47.1872 38.6362 47.1655 38.9303 46.4995 40.407C46.1214 41.2452 45.3649 42.3204 44.8184 42.796C44.2719 43.2719 43.4005 43.8445 42.8821 44.0689C42.3637 44.2929 41.3023 44.4764 40.5233 44.4764C39.5892 44.4764 38.5926 44.2119 37.5962 43.6991C36.6695 43.2226 35.8436 42.5181 35.4602 41.8774C35.116 41.3029 34.6515 40.1219 34.4275 39.2533C34.2034 38.3843 34.0151 36.721 34.009 35.557C34.0028 34.3929 33.8731 32.1156 33.7205 30.4964C33.5395 28.5747 33.2261 27.1049 32.8184 26.2635C32.4748 25.5544 31.7133 24.4527 31.1264 23.815C30.5395 23.1773 29.5478 22.3833 28.9225 22.0501C28.2026 21.6668 27.0214 21.4019 25.7008 21.3278C24.5541 21.2634 23.1729 21.3511 22.6313 21.5225Z"/>
</mask>
<path fill-rule="evenodd" clip-rule="evenodd" d="M37.6741 6.76879C37.0297 6.97167 36.1072 7.36141 35.6239 7.63534C35.1407 7.90928 34.2327 8.64823 33.6062 9.27744C32.9798 9.90633 32.1377 11.1641 31.735 12.0721C31.3323 12.9801 30.939 14.3077 30.8611 15.0222C30.7829 15.7367 30.8016 16.6607 30.9023 17.0752C31.0031 17.4897 31.344 17.9136 31.6597 18.017C31.9752 18.1204 32.4895 18.0636 32.8023 17.8909C33.1959 17.6732 33.4334 17.1084 33.5737 16.0556C33.685 15.219 34.1261 13.823 34.5537 12.9535C35.0531 11.9373 35.785 11.0474 36.601 10.4633C37.7766 9.62212 40.4354 9.55439 40.4354 9.55439C40.4354 9.55439 43.0256 9.57616 44.2927 10.648C45.0041 11.2497 45.8868 12.3639 46.2547 13.1243C46.6222 13.8847 47.003 15.2009 47.1002 16.0496C47.2273 17.1565 47.4411 17.6829 47.8579 17.913C48.2685 18.1398 48.6417 18.138 49.1334 17.9067C49.7444 17.6194 49.8287 17.3748 49.8287 15.8909C49.8287 14.8347 49.5891 13.6144 49.1891 12.6339C48.8373 11.7716 48.0565 10.4472 47.454 9.69106C46.8237 8.89979 45.6774 7.96007 44.7542 7.47782C43.5552 6.85164 42.6059 6.60945 40.9977 6.51995C39.7849 6.45253 38.3342 6.56107 37.6741 6.76879ZM39.446 15.0083C39.065 15.3058 38.8749 15.8177 38.8749 16.5461C38.8749 17.2678 39.0626 17.7794 39.4287 18.0557C39.7333 18.2858 40.293 18.4739 40.6723 18.4739C41.0513 18.4739 41.5944 18.4188 42 18C42.5342 17.4482 42.6379 16.4898 42.5 16C42.3954 15.6287 42.1889 15.3635 41.8629 15.0724C41.5369 14.7812 40.9884 14.5475 40.6436 14.5529C40.2992 14.5581 39.7603 14.7631 39.446 15.0083ZM60.4967 22.1194C59.6792 22.4441 58.4919 23.1679 57.8584 23.7276C57.2249 24.2873 56.3954 25.3881 56.0156 26.174C55.4767 27.2875 55.3551 27.9319 55.4635 29.0971C55.5625 30.162 55.8542 30.9146 56.4777 31.7137C56.959 32.3308 57.8675 33.1427 58.4966 33.5179C59.1257 33.8931 61.2219 34.7315 63.1549 35.381C65.0879 36.0305 67.1967 36.7906 67.841 37.0703C68.4854 37.3499 69.3751 37.9314 69.818 38.3628C70.3906 38.9204 70.6234 39.4453 70.6234 40.1779C70.6234 40.7478 70.3419 41.6165 69.9934 42.1214C69.6472 42.6236 68.6915 43.3577 67.87 43.7526C66.7799 44.2766 65.8585 44.4713 64.457 44.4734C62.9806 44.4758 62.1904 44.2978 61.0324 43.7021C59.9238 43.1319 59.2484 42.4942 58.4696 41.2833C57.7117 40.1041 57.2261 39.6388 56.7545 39.6388C56.3925 39.6388 55.9383 39.802 55.745 40.0016C55.5517 40.2011 55.3935 40.6822 55.3935 41.0704C55.3935 41.4589 55.6149 42.1459 55.8855 42.5973C56.1562 43.0487 56.7823 43.8726 57.2767 44.4278C57.7714 44.9832 58.769 45.7497 59.4939 46.1309C60.2187 46.5125 61.5765 46.9878 62.5111 47.1871C63.8332 47.4689 64.6744 47.4686 66.3013 47.1852C67.4515 46.9851 68.8854 46.5316 69.4876 46.1778C70.0901 45.824 70.9822 45.1643 71.4701 44.7117C71.9581 44.2591 72.5831 43.4427 72.859 42.8975C73.1726 42.2783 73.3624 41.2077 73.3651 40.0439C73.3686 38.4789 73.2418 38.0094 72.5722 37.1029C72.1338 36.5094 71.1948 35.6728 70.4854 35.2437C69.7761 34.8147 67.1316 33.7359 64.609 32.8463C61.4064 31.717 59.7654 30.9754 59.1723 30.3885C58.6111 29.8334 58.3223 29.2453 58.3223 28.6575C58.3223 28.1677 58.5886 27.3226 58.9137 26.7793C59.2519 26.2145 60.0981 25.4928 60.8906 25.0933C61.9321 24.5688 62.7856 24.3943 64.3264 24.3916C65.9048 24.3886 66.6709 24.5479 67.6556 25.0834C68.3588 25.4658 69.2477 26.1419 69.6308 26.5861C70.0139 27.0299 70.407 27.6945 70.5045 28.0628C70.602 28.431 70.9418 28.8175 71.2595 28.9215C71.5773 29.0258 72.1572 29.0279 72.5482 28.9266C73.1067 28.7821 73.2593 28.5444 73.2593 27.82C73.2593 27.2945 72.89 26.3436 72.4015 25.6104C71.9297 24.9023 71.0574 23.9402 70.4632 23.4724C69.8689 23.0044 68.7378 22.3688 67.9497 22.0595C66.9811 21.6794 65.7823 21.5026 64.25 21.5132C62.7361 21.5237 61.4899 21.7251 60.4967 22.1194ZM84.9963 22.1938C84.031 22.5974 82.8094 23.4691 81.8839 24.4149C81.0462 25.2708 80.0281 26.6995 79.6216 27.5896C79.2154 28.4794 78.7377 29.8461 78.5605 30.6264C78.3833 31.4068 78.243 33.1076 78.2489 34.4059C78.2545 35.7042 78.4346 37.5147 78.6493 38.4293C78.8637 39.344 79.3493 40.7046 79.7282 41.4529C80.1072 42.2012 81.0292 43.4475 81.7767 44.2222C82.5244 44.9968 83.6558 45.9045 84.2911 46.2389C84.926 46.5736 86.2645 47.0005 87.2653 47.188C88.6404 47.4453 89.5307 47.4401 90.9105 47.1671C91.9145 46.9685 93.3291 46.4738 94.054 46.0674C94.7789 45.6614 95.7908 44.9158 96.3028 44.4108C96.8147 43.9059 97.5393 42.8982 97.9127 42.1713C98.4429 41.1397 98.5213 40.7339 98.2703 40.32C98.0934 40.0285 97.6193 39.7488 97.2166 39.6986C96.6847 39.6324 96.3403 39.8344 95.9577 40.4373C95.6681 40.8935 95.0223 41.6573 94.5229 42.1344C94.0233 42.6112 92.8898 43.3471 92.0038 43.7695C90.6999 44.3912 90.057 44.5151 88.6278 44.4211C87.5347 44.3495 86.3632 44.0368 85.5522 43.6005C84.8317 43.2129 83.9668 42.6052 83.63 42.2499C83.2929 41.8946 82.6758 40.9918 82.2582 40.2435C81.7896 39.4035 81.4211 38.1596 81.2952 36.9932L81.0916 35.1034L88.8176 35.0992C93.0667 35.0971 96.8071 35.0194 97.1293 34.9269C97.4515 34.8343 97.9678 34.4065 98.2765 33.9759C98.6148 33.504 98.8377 32.7018 98.8374 31.9562C98.8371 31.2759 98.6007 29.9864 98.3125 29.0908C98.024 28.1952 97.409 26.8824 96.9454 26.1737C96.482 25.4646 95.6174 24.4448 95.0243 23.9072C94.4312 23.3696 93.2782 22.6089 92.4622 22.2164C91.3062 21.6607 90.494 21.5062 88.7821 21.5162C87.2202 21.5256 86.1263 21.7212 84.9963 22.1938ZM108.822 22.1194C108.005 22.4441 106.771 23.2088 106.081 23.8183C105.392 24.4279 104.578 25.5272 104.273 26.2607C103.968 26.9946 103.719 28.0649 103.719 28.64C103.719 29.2148 103.97 30.1898 104.277 30.807C104.583 31.4238 105.143 32.2196 105.521 32.5748C105.899 32.9304 106.747 33.4997 107.405 33.8405C108.063 34.1812 109.827 34.877 111.324 35.3864C112.822 35.8959 114.162 36.3129 114.301 36.3129C114.44 36.3129 115.396 36.7234 116.426 37.2257C117.843 37.9168 118.388 38.3664 118.674 39.0788C118.987 39.8583 118.98 40.2302 118.634 41.2542C118.316 42.1976 117.877 42.7059 116.781 43.404C115.6 44.1559 114.962 44.3383 113.189 44.4305C111.306 44.5288 110.825 44.4384 109.401 43.7187C108.129 43.0765 107.546 42.5353 106.76 41.2666C106.017 40.0666 105.573 39.6388 105.073 39.6388C104.701 39.6388 104.151 39.9178 103.852 40.2586C103.323 40.8627 103.323 40.9068 103.88 41.989C104.194 42.6 104.841 43.5618 105.318 44.1263C105.794 44.6908 106.697 45.4869 107.323 45.8954C107.95 46.3036 109.395 46.8384 110.535 47.084C112.167 47.4353 113.03 47.4625 114.59 47.2128C115.681 47.038 117.075 46.6008 117.688 46.2413C118.301 45.8818 119.299 45.1035 119.906 44.5115C120.63 43.8067 121.179 42.8809 121.502 41.8266C121.917 40.4675 121.938 39.9967 121.639 38.7943C121.384 37.7693 120.941 37.0476 120.054 36.2143C119.377 35.5778 118.357 34.851 117.788 34.5985C117.218 34.346 115.237 33.6234 113.384 32.9927C111.532 32.3617 109.464 31.6145 108.789 31.3325C108.114 31.0501 107.356 30.4952 107.105 30.0994C106.854 29.7037 106.649 29.001 106.649 28.5378C106.65 28.0746 106.898 27.2757 107.201 26.7627C107.511 26.2393 108.378 25.5139 109.177 25.1106C110.272 24.5585 111.077 24.3937 112.652 24.4C114.038 24.4055 115.035 24.5845 115.727 24.9518C116.291 25.2512 117.181 25.9155 117.704 26.4282C118.228 26.941 118.656 27.517 118.656 27.7081C118.656 27.8992 118.897 28.2808 119.192 28.5559C119.486 28.8311 119.997 29.0563 120.327 29.0563C120.657 29.0563 121.09 28.8537 121.289 28.6061C121.519 28.3204 121.581 27.7677 121.458 27.0937C121.329 26.3823 120.761 25.4988 119.74 24.4188C118.667 23.2837 117.713 22.6125 116.521 22.1517C115.299 21.6801 114.196 21.502 112.568 21.5132C111.062 21.5237 109.814 21.7257 108.822 22.1194ZM132.804 22.2315C131.967 22.6325 130.675 23.5876 129.932 24.3541C129.177 25.1333 128.175 26.6432 127.659 27.7798C126.752 29.7744 126.735 29.8966 126.729 34.3475C126.723 38.5754 126.774 39.0035 127.48 40.6604C127.898 41.6379 128.778 43.0835 129.436 43.8723C130.094 44.6615 131.203 45.6517 131.899 46.0729C132.595 46.4941 133.948 46.9884 134.906 47.171C136.134 47.4054 137.14 47.4108 138.321 47.1898C139.242 47.0174 140.565 46.5476 141.261 46.1457C141.957 45.7436 143.014 44.8976 143.61 44.2654C144.206 43.6332 144.892 42.6263 145.133 42.0277C145.524 41.0601 145.523 40.8678 145.131 40.2891C144.888 39.9314 144.437 39.6388 144.13 39.6388C143.792 39.6388 143.107 40.2846 142.405 41.2663C141.601 42.3902 140.764 43.1391 139.702 43.6852C138.621 44.2415 137.7 44.4764 136.602 44.4764C135.742 44.4764 134.605 44.2893 134.075 44.0607C133.545 43.8321 132.623 43.202 132.025 42.6608C131.428 42.1196 130.589 40.912 130.161 39.9774C129.451 38.4266 129.382 37.9483 129.372 34.4987C129.361 31.0349 129.425 30.5757 130.134 29.0004C130.559 28.0549 131.366 26.8216 131.926 26.2598C132.491 25.6938 133.627 25.0108 134.474 24.7284C135.315 24.4481 136.313 24.2186 136.692 24.2186C137.071 24.2186 138.011 24.4357 138.782 24.7012C139.552 24.9667 140.62 25.6128 141.154 26.1374C141.688 26.662 142.391 27.5334 142.716 28.0737C143.112 28.7328 143.534 29.0563 143.998 29.0563C144.378 29.0563 144.888 28.7645 145.13 28.4075C145.527 27.8215 145.514 27.6452 144.988 26.5809C144.668 25.9333 143.882 24.8787 143.242 24.2374C142.602 23.5964 141.454 22.7576 140.691 22.3737C139.643 21.8463 138.696 21.6547 136.815 21.589C134.69 21.5153 134.103 21.6093 132.804 22.2315ZM156.499 22.1439C155.523 22.5306 154.352 23.3599 153.341 24.3789C152.457 25.2699 151.452 26.6529 151.108 27.452C150.764 28.2511 150.311 29.7215 150.102 30.7193C149.893 31.717 149.722 33.4178 149.722 34.4987C149.722 35.5796 149.894 37.2895 150.104 38.2984C150.314 39.3071 150.869 40.8633 151.338 41.7562C151.807 42.649 152.638 43.8288 153.184 44.3776C153.73 44.9267 154.724 45.7064 155.392 46.1104C156.06 46.5146 157.415 46.9966 158.403 47.1816C159.833 47.4492 160.617 47.428 162.244 47.0779C163.369 46.8357 164.796 46.303 165.415 45.8936C166.036 45.4845 166.884 44.7601 167.301 44.2838C167.718 43.8079 168.321 43.01 168.642 42.5111C168.963 42.0122 169.52 40.7732 169.881 39.7576C170.426 38.2231 170.535 37.3028 170.527 34.3152C170.52 31.1532 170.427 30.4868 169.758 28.7918C169.34 27.7317 168.775 26.5087 168.502 26.0742C168.23 25.6397 167.446 24.7453 166.76 24.0871C166.074 23.4289 164.822 22.5823 163.977 22.2062C162.831 21.6952 161.886 21.5225 160.246 21.5252C158.747 21.5277 157.556 21.7245 156.499 22.1439ZM176.706 21.8603C176.444 22.1303 176.354 25.3234 176.354 34.3611C176.354 46.1234 176.372 46.5161 176.941 47.0477C177.415 47.4903 177.662 47.533 178.224 47.2684L178.92 46.9409L179.072 40.0397C179.184 34.8927 179.347 32.6855 179.712 31.3578C179.981 30.3788 180.413 29.2223 180.672 28.7878C180.932 28.3536 181.676 27.4185 182.327 26.71C183.063 25.91 184.101 25.1943 185.069 24.8203C185.926 24.4895 187.008 24.2186 187.474 24.2186C187.939 24.2186 188.527 24.0049 188.781 23.7436C189.034 23.4821 189.241 23.0951 189.241 22.8834C189.241 22.6715 189 22.273 188.705 21.9978C188.374 21.6882 187.676 21.4999 186.875 21.5041C186.048 21.508 185.022 21.8086 184.034 22.3356C183.184 22.7891 181.702 23.9689 180.739 24.9573L178.99 26.7539V24.6041C178.99 23.4213 178.91 22.2388 178.812 21.9758C178.711 21.7033 178.295 21.4974 177.846 21.4974C177.412 21.4974 176.899 21.6607 176.706 21.8603ZM197.81 22.1381C196.965 22.4734 195.57 23.4116 194.71 24.2232C193.85 25.0347 192.744 26.4881 192.252 27.4529C191.761 28.418 191.211 30.1031 191.032 31.1976C190.852 32.2921 190.71 33.8568 190.716 34.6747C190.721 35.4926 190.897 36.978 191.106 37.9758C191.315 38.9736 191.725 40.2661 192.016 40.8482C192.307 41.4302 192.917 42.4682 193.372 43.1552C193.827 43.8418 194.929 44.9037 195.821 45.5147C196.906 46.2582 198.127 46.7731 199.515 47.0719C201.168 47.4274 201.951 47.4501 203.377 47.1831C204.361 46.999 205.767 46.5328 206.503 46.1473C207.238 45.7618 208.403 44.8574 209.092 44.1375C209.781 43.4176 210.492 42.3194 210.673 41.6969C210.927 40.8198 210.917 40.4609 210.629 40.102C210.424 39.8471 209.976 39.6466 209.634 39.656C209.244 39.6669 208.607 40.2202 207.934 41.1327C207.186 42.1474 206.302 42.8794 205.032 43.5343C203.632 44.2566 202.824 44.4749 201.568 44.4698C200.561 44.4659 199.424 44.2264 198.613 43.8479C197.888 43.5095 196.855 42.7984 196.317 42.2671C195.779 41.7362 195.035 40.687 194.663 39.936C194.291 39.1846 193.892 37.7902 193.777 36.8368L193.567 35.1034H201.343C205.62 35.1034 209.451 34.9731 209.856 34.8141C210.261 34.655 210.797 34.1174 211.047 33.6198C211.296 33.1218 211.5 32.3048 211.5 31.8038C211.5 31.3028 211.216 30.1058 210.869 29.1434C210.521 28.1807 209.942 26.9172 209.583 26.3351C209.223 25.7531 208.485 24.8143 207.944 24.2486C207.403 23.6832 206.17 22.8329 205.203 22.3591C203.774 21.6589 203.063 21.5008 201.396 21.5135C200.076 21.5234 198.799 21.746 197.81 22.1381ZM91.9107 25.0825C92.5258 25.4096 93.4431 26.1316 93.9492 26.6865C94.4553 27.2416 95.155 28.2841 95.5038 29.0031C95.8675 29.7526 96.0995 30.7199 96.048 31.2708L95.9577 32.2311L88.5581 32.3118L81.1587 32.3925L81.3438 31.1024C81.4454 30.3927 81.8613 29.1999 82.2678 28.4516C82.6741 27.7033 83.3506 26.7826 83.7709 26.4056C84.1915 26.0285 84.9307 25.4955 85.414 25.2212C85.8972 24.9467 86.688 24.6153 87.1713 24.4847C87.6545 24.3541 88.667 24.3015 89.4212 24.3674C90.1751 24.4336 91.2954 24.7553 91.9107 25.0825ZM162.316 24.7018C163.49 25.0583 164.256 25.5569 165.242 26.6066C166.263 27.6927 166.738 28.5438 167.259 30.214C167.838 32.075 167.916 32.814 167.785 35.1878C167.675 37.1667 167.439 38.4145 166.97 39.4876C166.606 40.3191 165.988 41.4351 165.596 41.9672C165.204 42.4996 164.21 43.2818 163.386 43.7057C162.309 44.26 161.42 44.4764 160.224 44.4764C159.309 44.4764 158.087 44.2727 157.51 44.0235C156.932 43.7744 155.989 43.144 155.414 42.6227C154.839 42.1014 154.01 40.9105 153.572 39.9765C152.831 38.3934 152.777 38.0115 152.783 34.3475C152.788 30.6147 152.831 30.3332 153.628 28.754C154.09 27.8393 154.786 26.7847 155.176 26.4101C155.565 26.0355 156.304 25.5045 156.818 25.2303C157.332 24.9561 158.083 24.628 158.486 24.501C158.89 24.3743 159.559 24.2588 159.973 24.2446C160.386 24.2304 161.441 24.436 162.316 24.7018ZM203.538 24.7112C204.35 24.9821 205.479 25.5992 206.047 26.0824C206.616 26.5658 207.501 27.8442 208.016 28.9233C208.814 30.5974 208.903 30.9959 208.619 31.639L208.286 32.3928L201.033 32.3118L193.781 32.2311L193.883 31.1792C193.939 30.6004 194.296 29.4932 194.677 28.7186C195.057 27.944 195.903 26.8376 196.556 26.2604C197.209 25.6832 198.368 24.996 199.13 24.7332C199.893 24.4708 200.864 24.2477 201.289 24.2374C201.713 24.2271 202.725 24.4403 203.538 24.7112Z" fill="#1E69B1"/>
<path d="M22.6313 21.5225C22.0901 21.694 21.1016 22.1832 20.4347 22.6095C19.7681 23.0358 18.869 23.7249 18.437 24.1409L17.6512 24.8974L16.3865 23.8274C15.6906 23.239 14.4248 22.4737 13.5734 22.1275C12.5439 21.7085 11.3665 21.4983 10.0591 21.5005C8.60811 21.5026 7.70135 21.6915 6.59835 22.2219C5.77623 22.6171 4.58068 23.502 3.94191 24.1884C3.20794 24.9769 2.54368 26.1313 2.13862 27.322C1.5347 29.0974 1.49721 29.7233 1.50014 38.0408C1.50307 46.4762 1.52855 46.888 2.07214 47.1883C2.47251 47.4096 3.17424 47.4296 3.68737 47.1883C4.20198 46.6311 4.20198 38.0121 4.20198 38.0121C4.29893 29.6447 4.33642 29.1373 4.95733 27.7952C5.3164 27.0184 6.00819 26.0373 6.49467 25.6146C6.98086 25.1922 7.86917 24.706 8.46811 24.5343C9.06706 24.3626 9.88684 24.2226 10.2896 24.2232C10.6923 24.2241 11.6963 24.5488 12.5204 24.9449C13.3522 25.3449 14.3363 26.1171 14.7317 26.6804C15.1236 27.2389 15.6024 28.1816 15.7957 28.7754C16.0347 29.5099 16.1472 32.4832 16.1472 38.0729C16.1472 45.8875 16.1778 46.6674 16.5 47C16.8222 47.3326 17.105 47.4757 17.5 47.5C18.5 47.5 18.6547 47.2497 19 47C19.1411 46.898 19.0324 46.3952 19.1264 37.5973L19.2225 28.6028L20.2086 27.1364C20.9092 26.0944 21.63 25.4607 22.6981 24.9473C23.5249 24.5497 24.5403 24.2232 24.9548 24.2217C25.3689 24.2198 26.3161 24.4324 27.0594 24.6939C27.8025 24.9555 28.7608 25.5309 29.189 25.9726C29.6169 26.4146 30.1546 27.1506 30.3842 27.6086C30.6631 28.1653 30.8859 30.221 31.0573 33.8133C31.2213 37.2474 31.4864 39.753 31.7921 40.7593C32.0554 41.6249 32.7012 42.9175 33.2273 43.6317C33.7533 44.3458 34.8191 45.3608 35.5955 45.8875C36.4829 46.4895 37.6826 46.9663 38.8266 47.1719C40.1038 47.4017 41.1371 47.4054 42.2931 47.1849C43.199 47.012 44.541 46.524 45.2753 46.1001C46.0095 45.6765 47.0542 44.7637 47.5967 44.0716C48.1391 43.3798 48.8798 42.1332 49.243 41.3017C49.8542 39.9015 49.914 39.2393 50.0499 32.3342C50.1307 28.2336 50.1081 24.391 50.0001 23.795C49.8548 22.9962 49.6214 22.6645 49.1109 22.5324C48.7304 22.4338 48.1429 22.5055 47.8058 22.6917C47.2077 23.0222 47.1928 23.2239 47.1898 30.9566C47.1872 38.6362 47.1655 38.9303 46.4995 40.407C46.1214 41.2452 45.3649 42.3204 44.8184 42.796C44.2719 43.2719 43.4005 43.8445 42.8821 44.0689C42.3637 44.2929 41.3023 44.4764 40.5233 44.4764C39.5892 44.4764 38.5926 44.2119 37.5962 43.6991C36.6695 43.2226 35.8436 42.5181 35.4602 41.8774C35.116 41.3029 34.6515 40.1219 34.4275 39.2533C34.2034 38.3843 34.0151 36.721 34.009 35.557C34.0028 34.3929 33.8731 32.1156 33.7205 30.4964C33.5395 28.5747 33.2261 27.1049 32.8184 26.2635C32.4748 25.5544 31.7133 24.4527 31.1264 23.815C30.5395 23.1773 29.5478 22.3833 28.9225 22.0501C28.2026 21.6668 27.0214 21.4019 25.7008 21.3278C24.5541 21.2634 23.1729 21.3511 22.6313 21.5225Z" fill="#1E69B1"/>
<path fill-rule="evenodd" clip-rule="evenodd" d="M37.6741 6.76879C37.0297 6.97167 36.1072 7.36141 35.6239 7.63534C35.1407 7.90928 34.2327 8.64823 33.6062 9.27744C32.9798 9.90633 32.1377 11.1641 31.735 12.0721C31.3323 12.9801 30.939 14.3077 30.8611 15.0222C30.7829 15.7367 30.8016 16.6607 30.9023 17.0752C31.0031 17.4897 31.344 17.9136 31.6597 18.017C31.9752 18.1204 32.4895 18.0636 32.8023 17.8909C33.1959 17.6732 33.4334 17.1084 33.5737 16.0556C33.685 15.219 34.1261 13.823 34.5537 12.9535C35.0531 11.9373 35.785 11.0474 36.601 10.4633C37.7766 9.62212 40.4354 9.55439 40.4354 9.55439C40.4354 9.55439 43.0256 9.57616 44.2927 10.648C45.0041 11.2497 45.8868 12.3639 46.2547 13.1243C46.6222 13.8847 47.003 15.2009 47.1002 16.0496C47.2273 17.1565 47.4411 17.6829 47.8579 17.913C48.2685 18.1398 48.6417 18.138 49.1334 17.9067C49.7444 17.6194 49.8287 17.3748 49.8287 15.8909C49.8287 14.8347 49.5891 13.6144 49.1891 12.6339C48.8373 11.7716 48.0565 10.4472 47.454 9.69106C46.8237 8.89979 45.6774 7.96007 44.7542 7.47782C43.5552 6.85164 42.6059 6.60945 40.9977 6.51995C39.7849 6.45253 38.3342 6.56107 37.6741 6.76879ZM39.446 15.0083C39.065 15.3058 38.8749 15.8177 38.8749 16.5461C38.8749 17.2678 39.0626 17.7794 39.4287 18.0557C39.7333 18.2858 40.293 18.4739 40.6723 18.4739C41.0513 18.4739 41.5944 18.4188 42 18C42.5342 17.4482 42.6379 16.4898 42.5 16C42.3954 15.6287 42.1889 15.3635 41.8629 15.0724C41.5369 14.7812 40.9884 14.5475 40.6436 14.5529C40.2992 14.5581 39.7603 14.7631 39.446 15.0083ZM60.4967 22.1194C59.6792 22.4441 58.4919 23.1679 57.8584 23.7276C57.2249 24.2873 56.3954 25.3881 56.0156 26.174C55.4767 27.2875 55.3551 27.9319 55.4635 29.0971C55.5625 30.162 55.8542 30.9146 56.4777 31.7137C56.959 32.3308 57.8675 33.1427 58.4966 33.5179C59.1257 33.8931 61.2219 34.7315 63.1549 35.381C65.0879 36.0305 67.1967 36.7906 67.841 37.0703C68.4854 37.3499 69.3751 37.9314 69.818 38.3628C70.3906 38.9204 70.6234 39.4453 70.6234 40.1779C70.6234 40.7478 70.3419 41.6165 69.9934 42.1214C69.6472 42.6236 68.6915 43.3577 67.87 43.7526C66.7799 44.2766 65.8585 44.4713 64.457 44.4734C62.9806 44.4758 62.1904 44.2978 61.0324 43.7021C59.9238 43.1319 59.2484 42.4942 58.4696 41.2833C57.7117 40.1041 57.2261 39.6388 56.7545 39.6388C56.3925 39.6388 55.9383 39.802 55.745 40.0016C55.5517 40.2011 55.3935 40.6822 55.3935 41.0704C55.3935 41.4589 55.6149 42.1459 55.8855 42.5973C56.1562 43.0487 56.7823 43.8726 57.2767 44.4278C57.7714 44.9832 58.769 45.7497 59.4939 46.1309C60.2187 46.5125 61.5765 46.9878 62.5111 47.1871C63.8332 47.4689 64.6744 47.4686 66.3013 47.1852C67.4515 46.9851 68.8854 46.5316 69.4876 46.1778C70.0901 45.824 70.9822 45.1643 71.4701 44.7117C71.9581 44.2591 72.5831 43.4427 72.859 42.8975C73.1726 42.2783 73.3624 41.2077 73.3651 40.0439C73.3686 38.4789 73.2418 38.0094 72.5722 37.1029C72.1338 36.5094 71.1948 35.6728 70.4854 35.2437C69.7761 34.8147 67.1316 33.7359 64.609 32.8463C61.4064 31.717 59.7654 30.9754 59.1723 30.3885C58.6111 29.8334 58.3223 29.2453 58.3223 28.6575C58.3223 28.1677 58.5886 27.3226 58.9137 26.7793C59.2519 26.2145 60.0981 25.4928 60.8906 25.0933C61.9321 24.5688 62.7856 24.3943 64.3264 24.3916C65.9048 24.3886 66.6709 24.5479 67.6556 25.0834C68.3588 25.4658 69.2477 26.1419 69.6308 26.5861C70.0139 27.0299 70.407 27.6945 70.5045 28.0628C70.602 28.431 70.9418 28.8175 71.2595 28.9215C71.5773 29.0258 72.1572 29.0279 72.5482 28.9266C73.1067 28.7821 73.2593 28.5444 73.2593 27.82C73.2593 27.2945 72.89 26.3436 72.4015 25.6104C71.9297 24.9023 71.0574 23.9402 70.4632 23.4724C69.8689 23.0044 68.7378 22.3688 67.9497 22.0595C66.9811 21.6794 65.7823 21.5026 64.25 21.5132C62.7361 21.5237 61.4899 21.7251 60.4967 22.1194ZM84.9963 22.1938C84.031 22.5974 82.8094 23.4691 81.8839 24.4149C81.0462 25.2708 80.0281 26.6995 79.6216 27.5896C79.2154 28.4794 78.7377 29.8461 78.5605 30.6264C78.3833 31.4068 78.243 33.1076 78.2489 34.4059C78.2545 35.7042 78.4346 37.5147 78.6493 38.4293C78.8637 39.344 79.3493 40.7046 79.7282 41.4529C80.1072 42.2012 81.0292 43.4475 81.7767 44.2222C82.5244 44.9968 83.6558 45.9045 84.2911 46.2389C84.926 46.5736 86.2645 47.0005 87.2653 47.188C88.6404 47.4453 89.5307 47.4401 90.9105 47.1671C91.9145 46.9685 93.3291 46.4738 94.054 46.0674C94.7789 45.6614 95.7908 44.9158 96.3028 44.4108C96.8147 43.9059 97.5393 42.8982 97.9127 42.1713C98.4429 41.1397 98.5213 40.7339 98.2703 40.32C98.0934 40.0285 97.6193 39.7488 97.2166 39.6986C96.6847 39.6324 96.3403 39.8344 95.9577 40.4373C95.6681 40.8935 95.0223 41.6573 94.5229 42.1344C94.0233 42.6112 92.8898 43.3471 92.0038 43.7695C90.6999 44.3912 90.057 44.5151 88.6278 44.4211C87.5347 44.3495 86.3632 44.0368 85.5522 43.6005C84.8317 43.2129 83.9668 42.6052 83.63 42.2499C83.2929 41.8946 82.6758 40.9918 82.2582 40.2435C81.7896 39.4035 81.4211 38.1596 81.2952 36.9932L81.0916 35.1034L88.8176 35.0992C93.0667 35.0971 96.8071 35.0194 97.1293 34.9269C97.4515 34.8343 97.9678 34.4065 98.2765 33.9759C98.6148 33.504 98.8377 32.7018 98.8374 31.9562C98.8371 31.2759 98.6007 29.9864 98.3125 29.0908C98.024 28.1952 97.409 26.8824 96.9454 26.1737C96.482 25.4646 95.6174 24.4448 95.0243 23.9072C94.4312 23.3696 93.2782 22.6089 92.4622 22.2164C91.3062 21.6607 90.494 21.5062 88.7821 21.5162C87.2202 21.5256 86.1263 21.7212 84.9963 22.1938ZM108.822 22.1194C108.005 22.4441 106.771 23.2088 106.081 23.8183C105.392 24.4279 104.578 25.5272 104.273 26.2607C103.968 26.9946 103.719 28.0649 103.719 28.64C103.719 29.2148 103.97 30.1898 104.277 30.807C104.583 31.4238 105.143 32.2196 105.521 32.5748C105.899 32.9304 106.747 33.4997 107.405 33.8405C108.063 34.1812 109.827 34.877 111.324 35.3864C112.822 35.8959 114.162 36.3129 114.301 36.3129C114.44 36.3129 115.396 36.7234 116.426 37.2257C117.843 37.9168 118.388 38.3664 118.674 39.0788C118.987 39.8583 118.98 40.2302 118.634 41.2542C118.316 42.1976 117.877 42.7059 116.781 43.404C115.6 44.1559 114.962 44.3383 113.189 44.4305C111.306 44.5288 110.825 44.4384 109.401 43.7187C108.129 43.0765 107.546 42.5353 106.76 41.2666C106.017 40.0666 105.573 39.6388 105.073 39.6388C104.701 39.6388 104.151 39.9178 103.852 40.2586C103.323 40.8627 103.323 40.9068 103.88 41.989C104.194 42.6 104.841 43.5618 105.318 44.1263C105.794 44.6908 106.697 45.4869 107.323 45.8954C107.95 46.3036 109.395 46.8384 110.535 47.084C112.167 47.4353 113.03 47.4625 114.59 47.2128C115.681 47.038 117.075 46.6008 117.688 46.2413C118.301 45.8818 119.299 45.1035 119.906 44.5115C120.63 43.8067 121.179 42.8809 121.502 41.8266C121.917 40.4675 121.938 39.9967 121.639 38.7943C121.384 37.7693 120.941 37.0476 120.054 36.2143C119.377 35.5778 118.357 34.851 117.788 34.5985C117.218 34.346 115.237 33.6234 113.384 32.9927C111.532 32.3617 109.464 31.6145 108.789 31.3325C108.114 31.0501 107.356 30.4952 107.105 30.0994C106.854 29.7037 106.649 29.001 106.649 28.5378C106.65 28.0746 106.898 27.2757 107.201 26.7627C107.511 26.2393 108.378 25.5139 109.177 25.1106C110.272 24.5585 111.077 24.3937 112.652 24.4C114.038 24.4055 115.035 24.5845 115.727 24.9518C116.291 25.2512 117.181 25.9155 117.704 26.4282C118.228 26.941 118.656 27.517 118.656 27.7081C118.656 27.8992 118.897 28.2808 119.192 28.5559C119.486 28.8311 119.997 29.0563 120.327 29.0563C120.657 29.0563 121.09 28.8537 121.289 28.6061C121.519 28.3204 121.581 27.7677 121.458 27.0937C121.329 26.3823 120.761 25.4988 119.74 24.4188C118.667 23.2837 117.713 22.6125 116.521 22.1517C115.299 21.6801 114.196 21.502 112.568 21.5132C111.062 21.5237 109.814 21.7257 108.822 22.1194ZM132.804 22.2315C131.967 22.6325 130.675 23.5876 129.932 24.3541C129.177 25.1333 128.175 26.6432 127.659 27.7798C126.752 29.7744 126.735 29.8966 126.729 34.3475C126.723 38.5754 126.774 39.0035 127.48 40.6604C127.898 41.6379 128.778 43.0835 129.436 43.8723C130.094 44.6615 131.203 45.6517 131.899 46.0729C132.595 46.4941 133.948 46.9884 134.906 47.171C136.134 47.4054 137.14 47.4108 138.321 47.1898C139.242 47.0174 140.565 46.5476 141.261 46.1457C141.957 45.7436 143.014 44.8976 143.61 44.2654C144.206 43.6332 144.892 42.6263 145.133 42.0277C145.524 41.0601 145.523 40.8678 145.131 40.2891C144.888 39.9314 144.437 39.6388 144.13 39.6388C143.792 39.6388 143.107 40.2846 142.405 41.2663C141.601 42.3902 140.764 43.1391 139.702 43.6852C138.621 44.2415 137.7 44.4764 136.602 44.4764C135.742 44.4764 134.605 44.2893 134.075 44.0607C133.545 43.8321 132.623 43.202 132.025 42.6608C131.428 42.1196 130.589 40.912 130.161 39.9774C129.451 38.4266 129.382 37.9483 129.372 34.4987C129.361 31.0349 129.425 30.5757 130.134 29.0004C130.559 28.0549 131.366 26.8216 131.926 26.2598C132.491 25.6938 133.627 25.0108 134.474 24.7284C135.315 24.4481 136.313 24.2186 136.692 24.2186C137.071 24.2186 138.011 24.4357 138.782 24.7012C139.552 24.9667 140.62 25.6128 141.154 26.1374C141.688 26.662 142.391 27.5334 142.716 28.0737C143.112 28.7328 143.534 29.0563 143.998 29.0563C144.378 29.0563 144.888 28.7645 145.13 28.4075C145.527 27.8215 145.514 27.6452 144.988 26.5809C144.668 25.9333 143.882 24.8787 143.242 24.2374C142.602 23.5964 141.454 22.7576 140.691 22.3737C139.643 21.8463 138.696 21.6547 136.815 21.589C134.69 21.5153 134.103 21.6093 132.804 22.2315ZM156.499 22.1439C155.523 22.5306 154.352 23.3599 153.341 24.3789C152.457 25.2699 151.452 26.6529 151.108 27.452C150.764 28.2511 150.311 29.7215 150.102 30.7193C149.893 31.717 149.722 33.4178 149.722 34.4987C149.722 35.5796 149.894 37.2895 150.104 38.2984C150.314 39.3071 150.869 40.8633 151.338 41.7562C151.807 42.649 152.638 43.8288 153.184 44.3776C153.73 44.9267 154.724 45.7064 155.392 46.1104C156.06 46.5146 157.415 46.9966 158.403 47.1816C159.833 47.4492 160.617 47.428 162.244 47.0779C163.369 46.8357 164.796 46.303 165.415 45.8936C166.036 45.4845 166.884 44.7601 167.301 44.2838C167.718 43.8079 168.321 43.01 168.642 42.5111C168.963 42.0122 169.52 40.7732 169.881 39.7576C170.426 38.2231 170.535 37.3028 170.527 34.3152C170.52 31.1532 170.427 30.4868 169.758 28.7918C169.34 27.7317 168.775 26.5087 168.502 26.0742C168.23 25.6397 167.446 24.7453 166.76 24.0871C166.074 23.4289 164.822 22.5823 163.977 22.2062C162.831 21.6952 161.886 21.5225 160.246 21.5252C158.747 21.5277 157.556 21.7245 156.499 22.1439ZM176.706 21.8603C176.444 22.1303 176.354 25.3234 176.354 34.3611C176.354 46.1234 176.372 46.5161 176.941 47.0477C177.415 47.4903 177.662 47.533 178.224 47.2684L178.92 46.9409L179.072 40.0397C179.184 34.8927 179.347 32.6855 179.712 31.3578C179.981 30.3788 180.413 29.2223 180.672 28.7878C180.932 28.3536 181.676 27.4185 182.327 26.71C183.063 25.91 184.101 25.1943 185.069 24.8203C185.926 24.4895 187.008 24.2186 187.474 24.2186C187.939 24.2186 188.527 24.0049 188.781 23.7436C189.034 23.4821 189.241 23.0951 189.241 22.8834C189.241 22.6715 189 22.273 188.705 21.9978C188.374 21.6882 187.676 21.4999 186.875 21.5041C186.048 21.508 185.022 21.8086 184.034 22.3356C183.184 22.7891 181.702 23.9689 180.739 24.9573L178.99 26.7539V24.6041C178.99 23.4213 178.91 22.2388 178.812 21.9758C178.711 21.7033 178.295 21.4974 177.846 21.4974C177.412 21.4974 176.899 21.6607 176.706 21.8603ZM197.81 22.1381C196.965 22.4734 195.57 23.4116 194.71 24.2232C193.85 25.0347 192.744 26.4881 192.252 27.4529C191.761 28.418 191.211 30.1031 191.032 31.1976C190.852 32.2921 190.71 33.8568 190.716 34.6747C190.721 35.4926 190.897 36.978 191.106 37.9758C191.315 38.9736 191.725 40.2661 192.016 40.8482C192.307 41.4302 192.917 42.4682 193.372 43.1552C193.827 43.8418 194.929 44.9037 195.821 45.5147C196.906 46.2582 198.127 46.7731 199.515 47.0719C201.168 47.4274 201.951 47.4501 203.377 47.1831C204.361 46.999 205.767 46.5328 206.503 46.1473C207.238 45.7618 208.403 44.8574 209.092 44.1375C209.781 43.4176 210.492 42.3194 210.673 41.6969C210.927 40.8198 210.917 40.4609 210.629 40.102C210.424 39.8471 209.976 39.6466 209.634 39.656C209.244 39.6669 208.607 40.2202 207.934 41.1327C207.186 42.1474 206.302 42.8794 205.032 43.5343C203.632 44.2566 202.824 44.4749 201.568 44.4698C200.561 44.4659 199.424 44.2264 198.613 43.8479C197.888 43.5095 196.855 42.7984 196.317 42.2671C195.779 41.7362 195.035 40.687 194.663 39.936C194.291 39.1846 193.892 37.7902 193.777 36.8368L193.567 35.1034H201.343C205.62 35.1034 209.451 34.9731 209.856 34.8141C210.261 34.655 210.797 34.1174 211.047 33.6198C211.296 33.1218 211.5 32.3048 211.5 31.8038C211.5 31.3028 211.216 30.1058 210.869 29.1434C210.521 28.1807 209.942 26.9172 209.583 26.3351C209.223 25.7531 208.485 24.8143 207.944 24.2486C207.403 23.6832 206.17 22.8329 205.203 22.3591C203.774 21.6589 203.063 21.5008 201.396 21.5135C200.076 21.5234 198.799 21.746 197.81 22.1381ZM91.9107 25.0825C92.5258 25.4096 93.4431 26.1316 93.9492 26.6865C94.4553 27.2416 95.155 28.2841 95.5038 29.0031C95.8675 29.7526 96.0995 30.7199 96.048 31.2708L95.9577 32.2311L88.5581 32.3118L81.1587 32.3925L81.3438 31.1024C81.4454 30.3927 81.8613 29.1999 82.2678 28.4516C82.6741 27.7033 83.3506 26.7826 83.7709 26.4056C84.1915 26.0285 84.9307 25.4955 85.414 25.2212C85.8972 24.9467 86.688 24.6153 87.1713 24.4847C87.6545 24.3541 88.667 24.3015 89.4212 24.3674C90.1751 24.4336 91.2954 24.7553 91.9107 25.0825ZM162.316 24.7018C163.49 25.0583 164.256 25.5569 165.242 26.6066C166.263 27.6927 166.738 28.5438 167.259 30.214C167.838 32.075 167.916 32.814 167.785 35.1878C167.675 37.1667 167.439 38.4145 166.97 39.4876C166.606 40.3191 165.988 41.4351 165.596 41.9672C165.204 42.4996 164.21 43.2818 163.386 43.7057C162.309 44.26 161.42 44.4764 160.224 44.4764C159.309 44.4764 158.087 44.2727 157.51 44.0235C156.932 43.7744 155.989 43.144 155.414 42.6227C154.839 42.1014 154.01 40.9105 153.572 39.9765C152.831 38.3934 152.777 38.0115 152.783 34.3475C152.788 30.6147 152.831 30.3332 153.628 28.754C154.09 27.8393 154.786 26.7847 155.176 26.4101C155.565 26.0355 156.304 25.5045 156.818 25.2303C157.332 24.9561 158.083 24.628 158.486 24.501C158.89 24.3743 159.559 24.2588 159.973 24.2446C160.386 24.2304 161.441 24.436 162.316 24.7018ZM203.538 24.7112C204.35 24.9821 205.479 25.5992 206.047 26.0824C206.616 26.5658 207.501 27.8442 208.016 28.9233C208.814 30.5974 208.903 30.9959 208.619 31.639L208.286 32.3928L201.033 32.3118L193.781 32.2311L193.883 31.1792C193.939 30.6004 194.296 29.4932 194.677 28.7186C195.057 27.944 195.903 26.8376 196.556 26.2604C197.209 25.6832 198.368 24.996 199.13 24.7332C199.893 24.4708 200.864 24.2477 201.289 24.2374C201.713 24.2271 202.725 24.4403 203.538 24.7112Z" stroke="#1E69B1" stroke-width="0.6" mask="url(#path-1-outside-1_214_7)"/>
<path d="M22.6313 21.5225C22.0901 21.694 21.1016 22.1832 20.4347 22.6095C19.7681 23.0358 18.869 23.7249 18.437 24.1409L17.6512 24.8974L16.3865 23.8274C15.6906 23.239 14.4248 22.4737 13.5734 22.1275C12.5439 21.7085 11.3665 21.4983 10.0591 21.5005C8.60811 21.5026 7.70135 21.6915 6.59835 22.2219C5.77623 22.6171 4.58068 23.502 3.94191 24.1884C3.20794 24.9769 2.54368 26.1313 2.13862 27.322C1.5347 29.0974 1.49721 29.7233 1.50014 38.0408C1.50307 46.4762 1.52855 46.888 2.07214 47.1883C2.47251 47.4096 3.17424 47.4296 3.68737 47.1883C4.20198 46.6311 4.20198 38.0121 4.20198 38.0121C4.29893 29.6447 4.33642 29.1373 4.95733 27.7952C5.3164 27.0184 6.00819 26.0373 6.49467 25.6146C6.98086 25.1922 7.86917 24.706 8.46811 24.5343C9.06706 24.3626 9.88684 24.2226 10.2896 24.2232C10.6923 24.2241 11.6963 24.5488 12.5204 24.9449C13.3522 25.3449 14.3363 26.1171 14.7317 26.6804C15.1236 27.2389 15.6024 28.1816 15.7957 28.7754C16.0347 29.5099 16.1472 32.4832 16.1472 38.0729C16.1472 45.8875 16.1778 46.6674 16.5 47C16.8222 47.3326 17.105 47.4757 17.5 47.5C18.5 47.5 18.6547 47.2497 19 47C19.1411 46.898 19.0324 46.3952 19.1264 37.5973L19.2225 28.6028L20.2086 27.1364C20.9092 26.0944 21.63 25.4607 22.6981 24.9473C23.5249 24.5497 24.5403 24.2232 24.9548 24.2217C25.3689 24.2198 26.3161 24.4324 27.0594 24.6939C27.8025 24.9555 28.7608 25.5309 29.189 25.9726C29.6169 26.4146 30.1546 27.1506 30.3842 27.6086C30.6631 28.1653 30.8859 30.221 31.0573 33.8133C31.2213 37.2474 31.4864 39.753 31.7921 40.7593C32.0554 41.6249 32.7012 42.9175 33.2273 43.6317C33.7533 44.3458 34.8191 45.3608 35.5955 45.8875C36.4829 46.4895 37.6826 46.9663 38.8266 47.1719C40.1038 47.4017 41.1371 47.4054 42.2931 47.1849C43.199 47.012 44.541 46.524 45.2753 46.1001C46.0095 45.6765 47.0542 44.7637 47.5967 44.0716C48.1391 43.3798 48.8798 42.1332 49.243 41.3017C49.8542 39.9015 49.914 39.2393 50.0499 32.3342C50.1307 28.2336 50.1081 24.391 50.0001 23.795C49.8548 22.9962 49.6214 22.6645 49.1109 22.5324C48.7304 22.4338 48.1429 22.5055 47.8058 22.6917C47.2077 23.0222 47.1928 23.2239 47.1898 30.9566C47.1872 38.6362 47.1655 38.9303 46.4995 40.407C46.1214 41.2452 45.3649 42.3204 44.8184 42.796C44.2719 43.2719 43.4005 43.8445 42.8821 44.0689C42.3637 44.2929 41.3023 44.4764 40.5233 44.4764C39.5892 44.4764 38.5926 44.2119 37.5962 43.6991C36.6695 43.2226 35.8436 42.5181 35.4602 41.8774C35.116 41.3029 34.6515 40.1219 34.4275 39.2533C34.2034 38.3843 34.0151 36.721 34.009 35.557C34.0028 34.3929 33.8731 32.1156 33.7205 30.4964C33.5395 28.5747 33.2261 27.1049 32.8184 26.2635C32.4748 25.5544 31.7133 24.4527 31.1264 23.815C30.5395 23.1773 29.5478 22.3833 28.9225 22.0501C28.2026 21.6668 27.0214 21.4019 25.7008 21.3278C24.5541 21.2634 23.1729 21.3511 22.6313 21.5225Z" stroke="#1E69B1" stroke-width="0.6" mask="url(#path-1-outside-1_214_7)"/>
</svg>
