<svg width="191" height="40" viewBox="0 0 191 40" fill="none" xmlns="http://www.w3.org/2000/svg">
<g clip-path="url(#clip0_244_3)">
<path d="M168.94 19.3814H167.436V15.6675H168.94H172.123C172.211 15.6675 172.388 15.6675 172.565 15.6675C173.538 15.7559 174.245 16.5518 174.245 17.5244C174.245 18.4971 173.449 19.293 172.565 19.3814C172.477 19.3814 172.3 19.3814 172.211 19.3814H168.94ZM170.089 24.7754H167.436V21.0615H168.94H172.123C172.211 21.0615 172.3 21.0615 172.3 21.0615H173.273C173.361 21.0615 173.538 21.0615 173.626 21.0615C174.599 21.1499 175.306 21.9457 175.306 22.9184C175.306 23.8911 174.599 24.6869 173.626 24.7754C173.538 24.7754 173.361 24.7754 173.184 24.7754H170.089ZM171.504 13.899H166.552C166.464 13.899 166.287 13.9874 166.198 14.0758C166.11 14.1643 166.022 14.3411 166.022 14.4295V25.3059C166.022 25.5712 166.11 25.748 166.287 25.9249C166.464 26.1018 166.641 26.1902 166.906 26.1902H173.626C173.715 26.1902 173.715 26.1902 173.803 26.1902C174.776 26.1902 175.748 25.748 176.367 25.0406C176.721 24.6869 176.898 24.3332 177.075 23.8911V23.8027C177.252 23.2721 177.252 22.7416 177.252 22.211C177.075 21.0615 176.456 20.0004 175.395 19.5582C175.748 19.0277 176.014 18.4087 176.102 17.7897C176.191 17.2592 176.102 16.7286 175.925 16.198V16.1096C175.748 15.6675 175.483 15.3138 175.218 14.9601C174.511 14.2527 173.626 13.8105 172.654 13.8105C172.565 13.8105 172.565 13.8105 172.477 13.8105L171.504 13.899ZM99.7906 14.6948C99.7906 14.4295 99.879 14.2527 100.056 14.0758C100.233 13.899 100.41 13.8105 100.675 13.8105H107.395C107.749 13.8105 108.103 13.899 108.368 13.9874C108.722 14.0758 108.987 14.2527 109.252 14.4295C109.694 14.6948 110.048 15.1369 110.313 15.5791C110.667 16.198 111.021 16.9939 111.021 18.2318C111.021 19.0277 110.667 19.7351 110.49 20.1772C110.402 20.3541 110.313 20.5309 110.136 20.7078C110.048 20.8846 109.871 21.0615 109.694 21.1499C109.429 21.4152 109.164 21.592 108.898 21.7689C108.633 21.8573 108.28 21.9457 108.103 21.9457L110.579 24.9522C110.667 25.0406 110.667 25.0406 110.667 25.1291C110.755 25.3059 110.755 25.4828 110.755 25.5712C110.755 25.6596 110.755 25.748 110.667 25.8365C110.667 25.9249 110.579 26.0133 110.579 26.0133C110.49 26.1018 110.49 26.1018 110.402 26.1902C110.313 26.2786 110.225 26.2786 110.136 26.2786C110.048 26.2786 109.96 26.2786 109.871 26.2786C109.517 26.2786 109.341 26.1018 109.164 25.8365L106.069 21.9457H101.471V25.3059C101.471 25.3943 101.471 25.5712 101.382 25.6596C101.382 25.748 101.294 25.8365 101.205 25.9249C101.117 26.0133 101.029 26.1018 100.94 26.1018C100.763 26.1902 100.498 26.1902 100.233 26.1018C100.144 26.1018 100.056 26.0133 99.9675 25.9249C99.7906 25.748 99.7022 25.5712 99.7022 25.3059L99.7906 14.6948ZM162.661 25.748C162.75 25.6596 162.75 25.4828 162.75 25.3943C162.75 25.1291 162.661 25.0406 162.573 24.8638C162.573 24.8638 162.573 24.8638 162.573 24.7754L158.505 15.5791C157.621 13.4568 154.084 13.4568 153.111 15.5791L148.955 24.7754C148.955 24.7754 148.955 24.7754 148.955 24.8638C148.867 25.0406 148.779 25.1291 148.779 25.3943C148.779 25.5712 148.779 25.6596 148.867 25.748C148.955 25.8365 148.955 26.0133 149.132 26.1018C149.309 26.2786 149.574 26.367 149.84 26.367C150.017 26.367 150.193 26.367 150.37 26.1902C150.547 26.1018 150.636 25.9249 150.724 25.748C151.52 23.8911 152.139 22.4763 152.758 21.1499C153.465 19.5582 154.084 18.055 154.792 16.5518C155.234 15.5791 156.295 15.5791 156.737 16.5518C157.356 18.055 158.063 19.6467 158.771 21.1499C159.39 22.5647 160.009 23.8911 160.804 25.748C160.893 25.9249 161.07 26.1018 161.158 26.1902C161.335 26.2786 161.512 26.367 161.689 26.367C161.866 26.367 161.954 26.367 162.042 26.2786C162.131 26.1902 162.308 26.1902 162.396 26.0133C162.573 26.0133 162.573 25.9249 162.661 25.748ZM101.559 20.3541H107.395C107.572 20.3541 107.837 20.3541 108.014 20.2656C108.103 20.2656 108.191 20.1772 108.28 20.0888C108.456 20.0004 108.633 19.8235 108.722 19.6467C109.164 19.293 109.341 18.4087 109.341 17.6129C109.252 17.0823 109.075 16.5518 108.722 16.1096C108.633 16.0212 108.633 15.9328 108.545 15.9328C108.456 15.8443 108.368 15.8443 108.28 15.7559C108.191 15.6675 108.103 15.6675 108.014 15.5791C107.926 15.5791 107.837 15.4906 107.749 15.4906C107.661 15.4906 107.572 15.4906 107.395 15.4906H101.559V20.3541ZM87.411 26.367C86.8804 26.367 86.2615 26.2786 85.7309 26.0133C85.4656 25.9249 85.2003 25.748 85.0235 25.6596C84.5814 25.3943 84.2277 24.9522 83.874 24.5101C83.6971 24.2448 83.6087 24.068 83.5203 23.8027C83.4318 23.5374 83.3434 23.2721 83.255 23.0068C83.1665 22.7416 83.1665 22.4763 83.1665 22.1226V18.055C83.1665 17.5244 83.255 16.9055 83.5203 16.3749C83.6087 16.1096 83.7855 15.8443 83.874 15.6675C84.0508 15.4022 84.2277 15.2254 84.4045 15.0485C84.7582 14.6948 85.2003 14.3411 85.7309 14.1643C85.9962 14.0758 86.2615 13.9874 86.5267 13.899C86.792 13.8105 87.0573 13.8105 87.411 13.8105H91.3017C91.9207 13.8105 92.4513 13.899 92.9818 14.1643C93.2471 14.2527 93.5124 14.4295 93.6892 14.518C94.1314 14.7832 94.4851 15.2254 94.8388 15.6675C95.0156 15.9328 95.104 16.1096 95.1925 16.3749C95.4577 16.9055 95.5462 17.436 95.5462 18.055V22.211C95.5462 22.83 95.4577 23.3605 95.1925 23.8911C95.0156 24.4217 94.6619 24.8638 94.3082 25.2175C94.1314 25.3943 93.8661 25.5712 93.6892 25.748C93.424 25.9249 93.2471 26.0133 92.9818 26.1018C92.4513 26.367 91.9207 26.4555 91.3017 26.4555L87.411 26.367ZM84.9351 22.211C84.9351 22.3879 84.9351 22.5647 85.0235 22.7416C85.0235 22.9184 85.1119 23.0953 85.2003 23.1837C85.4656 23.8027 85.9078 24.2448 86.5267 24.5101C86.7036 24.5985 86.792 24.5985 86.9689 24.6869C87.1457 24.6869 87.3226 24.7754 87.4994 24.7754H91.3902C91.567 24.7754 91.7439 24.7754 91.9207 24.6869C92.0976 24.6869 92.2744 24.5985 92.3628 24.5101C92.5397 24.4217 92.6281 24.3332 92.805 24.2448C92.9818 24.1564 93.0703 24.068 93.1587 23.9795C93.424 23.7143 93.6008 23.449 93.6892 23.1837C93.7777 22.9184 93.8661 22.5647 93.8661 22.211V18.055C93.8661 17.8781 93.8661 17.7013 93.7777 17.5244C93.7777 17.3476 93.6892 17.1707 93.6008 17.0823C93.5124 16.817 93.2471 16.5518 93.0703 16.2865C92.9818 16.198 92.805 16.1096 92.7165 16.0212C92.5397 15.9328 92.4513 15.8443 92.2744 15.7559C92.0976 15.6675 92.0091 15.6675 91.8323 15.5791C91.6554 15.5791 91.4786 15.4906 91.3017 15.4906H87.411C87.2341 15.4906 87.0573 15.4906 86.8804 15.5791C86.7036 15.5791 86.5267 15.6675 86.4383 15.7559C86.173 15.8443 85.9078 16.1096 85.6425 16.2865C85.3772 16.5518 85.2003 16.817 85.1119 17.0823C85.0235 17.2592 85.0235 17.3476 84.9351 17.5244C84.9351 17.7013 84.8466 17.8781 84.8466 18.055L84.9351 22.211ZM70.8753 25.1291C70.6985 24.9522 70.5216 24.6869 70.3448 24.5101C70.1679 24.2448 70.0795 24.068 69.9911 23.8027C69.9027 23.5374 69.8142 23.2721 69.7258 23.0068C69.6374 22.7416 69.6374 22.4763 69.6374 22.1226V18.055C69.6374 17.5244 69.7258 16.9055 69.9911 16.3749C70.1679 15.8443 70.5216 15.4022 70.8753 15.0485C71.0522 14.8717 71.3175 14.6948 71.4943 14.518C71.7596 14.3411 71.9365 14.2527 72.2017 14.1643C72.467 14.0758 72.7323 13.9874 72.9976 13.899C73.2628 13.8105 73.5281 13.8105 73.8818 13.8105H79.9832C80.2485 13.8105 80.4253 13.899 80.6022 14.0758C80.779 14.2527 80.8675 14.4295 80.8675 14.6948C80.8675 14.9601 80.779 15.1369 80.6022 15.3138C80.4253 15.4906 80.2485 15.5791 79.9832 15.5791H73.8818C73.705 15.5791 73.5281 15.5791 73.3513 15.6675C73.1744 15.6675 72.9976 15.7559 72.9091 15.8443C72.7323 15.9328 72.6439 16.0212 72.467 16.1096C72.3786 16.198 72.2017 16.2865 72.1133 16.3749C71.848 16.6402 71.6712 16.9055 71.5828 17.1707C71.4059 17.436 71.4059 17.7897 71.4059 18.1434V22.2994C71.4059 22.4763 71.4059 22.6531 71.4943 22.83C71.4943 23.0068 71.5828 23.1837 71.6712 23.2721C71.7596 23.449 71.848 23.5374 71.9365 23.7143C72.1133 23.9795 72.3786 24.2448 72.6439 24.4217C72.8207 24.5101 72.9091 24.5985 73.086 24.6869C73.3513 24.7754 73.705 24.8638 74.0587 24.8638H79.9832C80.2485 24.8638 80.4253 24.9522 80.6022 25.1291C80.6906 25.2175 80.779 25.3059 80.779 25.3943C80.779 25.4828 80.8675 25.5712 80.8675 25.748C80.8675 26.0133 80.779 26.1902 80.6022 26.367C80.4253 26.5439 80.2485 26.6323 79.9832 26.6323H73.8818C73.3513 26.6323 72.7323 26.5439 72.2017 26.2786C71.9365 26.1902 71.6712 26.0133 71.4943 25.9249C71.229 25.4828 71.0522 25.3943 70.8753 25.1291ZM64.155 22.1226C64.0665 22.1226 63.8897 22.1226 63.8013 22.0342C63.7128 22.0342 63.6244 21.9457 63.536 21.8573C63.3591 21.6805 63.2707 21.5036 63.2707 21.2383C63.2707 20.973 63.3591 20.7962 63.536 20.6193C63.7128 20.4425 63.8897 20.3541 64.155 20.3541H64.6855C64.9508 20.3541 65.1277 20.4425 65.3045 20.6193C65.4814 20.7962 65.5698 20.973 65.5698 21.2383C65.5698 21.3268 65.5698 21.5036 65.4814 21.592C65.4814 21.6805 65.3929 21.7689 65.3045 21.8573C65.2161 21.9457 65.1277 22.0342 65.0392 22.0342C64.9508 22.0342 64.8624 22.1226 64.6855 22.1226H64.155ZM53.0133 20.3541C53.0133 20.0004 53.1902 19.6467 53.5439 19.5582C53.6323 19.5582 53.7207 19.4698 53.8976 19.4698H58.761C58.8494 19.4698 59.0263 19.4698 59.1147 19.5582C59.2031 19.5582 59.2915 19.6467 59.38 19.7351C59.4684 19.8235 59.5568 19.9119 59.5568 20.0004C59.5568 20.0888 59.6453 20.1772 59.6453 20.3541V22.211C59.6453 22.7416 59.5568 23.3605 59.2915 23.8027C59.2031 24.068 59.0263 24.3332 58.9378 24.5101C58.4957 25.2175 57.8767 25.748 57.0809 26.0133C56.8156 26.1018 56.5503 26.1902 56.2851 26.2786C56.0198 26.367 55.7545 26.367 55.4008 26.367H51.5101C50.8911 26.367 50.3605 26.2786 49.9184 26.0133C49.6531 25.9249 49.3878 25.748 49.211 25.6596C48.9457 25.4828 48.7689 25.3059 48.592 25.1291C47.973 24.5101 47.6193 23.8027 47.4425 23.0068C47.2656 22.7416 47.2656 22.4763 47.2656 22.211V18.055C47.2656 17.7897 47.2656 17.5244 47.354 17.2592C47.4425 16.9939 47.5309 16.7286 47.6193 16.4633C47.7962 15.9328 48.1499 15.4906 48.5036 15.1369C49.1226 14.518 49.83 14.1643 50.6258 13.9874C50.8911 13.899 51.1564 13.899 51.5101 13.899H58.142C58.4073 13.899 58.5841 13.9874 58.761 14.1643C58.8494 14.2527 58.9378 14.3411 58.9378 14.4295C59.0263 14.6064 59.0263 14.8717 58.9378 15.1369C58.9378 15.2254 58.8494 15.3138 58.761 15.4022C58.5841 15.5791 58.4073 15.6675 58.142 15.6675H51.5101C51.3332 15.6675 51.1564 15.6675 50.9795 15.7559C50.8027 15.7559 50.6258 15.8443 50.5374 15.9328C50.3605 16.0212 50.2721 16.1096 50.0953 16.198C49.83 16.3749 49.5647 16.6402 49.3878 16.9055C49.2994 16.9939 49.211 17.1707 49.1226 17.3476C49.0341 17.5244 49.0341 17.6129 48.9457 17.7897C48.9457 17.9666 48.8573 18.1434 48.8573 18.2318V22.3879C48.8573 22.5647 48.8573 22.7416 48.9457 22.9184C48.9457 23.0953 49.0341 23.2721 49.1226 23.3605C49.211 23.5374 49.2994 23.6258 49.3878 23.8027C49.5647 24.068 49.83 24.3332 50.0953 24.5101C50.1837 24.5985 50.3605 24.6869 50.5374 24.7754C50.7142 24.8638 50.8027 24.8638 50.9795 24.9522C51.1564 24.9522 51.3332 25.0406 51.4216 25.0406H55.3124C55.4892 25.0406 55.6661 25.0406 55.8429 24.9522C56.0198 24.9522 56.1966 24.8638 56.2851 24.7754C56.4619 24.6869 56.5503 24.5985 56.7272 24.5101C56.9925 24.3332 57.2578 24.068 57.4346 23.8911C57.523 23.8027 57.6115 23.6258 57.6999 23.449C57.7883 23.2721 57.7883 23.1837 57.8767 23.0068C57.8767 22.83 57.9652 22.6531 57.9652 22.5647V21.592H53.986C53.7207 21.592 53.5439 21.5036 53.367 21.3268C53.1017 20.7962 53.0133 20.6193 53.0133 20.3541ZM191.4 14.8717C191.4 15.1369 191.311 15.3138 191.135 15.4906C190.958 15.6675 190.781 15.7559 190.516 15.7559H183.884C183.795 15.7559 183.618 15.7559 183.442 15.7559C182.469 15.8443 181.761 16.6402 181.761 17.5244C181.761 18.4971 182.557 19.2045 183.442 19.293C183.53 19.293 183.707 19.293 183.795 19.293H187.421C189.543 19.293 190.869 20.6193 191.135 22.2994C191.223 22.83 191.135 23.3605 190.958 23.8911V23.9795C190.781 24.4217 190.516 24.7754 190.25 25.1291C189.543 25.8365 188.659 26.2786 187.686 26.2786C187.598 26.2786 187.598 26.2786 187.509 26.2786H180.877C180.789 26.2786 180.612 26.2786 180.523 26.1902C180.435 26.1902 180.347 26.1018 180.258 26.0133C180.17 25.9249 180.081 25.8365 180.081 25.748C179.993 25.5712 179.993 25.3059 180.081 25.0406C180.081 24.9522 180.17 24.8638 180.258 24.7754C180.435 24.5985 180.612 24.5101 180.877 24.5101H187.509C187.598 24.5101 187.774 24.5101 187.951 24.5101C188.924 24.4217 189.631 23.6258 189.631 22.7416C189.631 21.7689 188.836 21.0615 187.951 20.973C187.863 20.973 187.686 20.973 187.598 20.973H183.972C181.85 20.973 180.523 19.6467 180.258 17.9666C180.17 17.436 180.258 16.9055 180.435 16.3749V16.2865C180.523 15.9328 180.7 15.6675 180.877 15.4022C180.966 15.3138 181.054 15.2254 181.142 15.1369C181.85 14.4295 182.734 13.9874 183.707 13.9874C183.795 13.9874 183.795 13.9874 183.884 13.9874H190.516C190.604 13.9874 190.781 13.9874 190.869 14.0758C190.958 14.0758 191.046 14.1643 191.135 14.2527C191.223 14.3411 191.311 14.4295 191.311 14.518C191.4 14.6064 191.4 14.7832 191.4 14.8717Z" fill="black"/>
<path d="M155.499 22.0342C155.41 22.0342 155.233 22.0342 155.145 21.9458C155.056 21.9458 154.968 21.8574 154.88 21.7689C154.703 21.5921 154.614 21.4152 154.614 21.1499C154.614 20.8847 154.703 20.7078 154.88 20.531C155.056 20.3541 155.233 20.2657 155.499 20.2657H156.029C156.294 20.2657 156.471 20.3541 156.648 20.531C156.825 20.7078 156.913 20.8847 156.913 21.1499C156.913 21.2384 156.913 21.4152 156.825 21.5036C156.825 21.5921 156.736 21.6805 156.648 21.7689C156.56 21.8574 156.471 21.9458 156.383 21.9458C156.294 21.9458 156.206 22.0342 156.029 22.0342H155.499ZM139.847 24.687H144.799C145.064 24.687 145.241 24.7754 145.418 24.9523C145.506 25.0407 145.595 25.1291 145.595 25.2175C145.595 25.306 145.683 25.3944 145.683 25.5712C145.683 25.8365 145.595 26.0134 145.418 26.1902C145.241 26.3671 145.064 26.4555 144.799 26.4555H136.752C136.487 26.4555 136.31 26.3671 136.133 26.1902C135.956 26.0134 135.868 25.8365 135.868 25.5712V14.6064C135.868 14.3411 135.956 14.1643 136.133 13.9874C136.222 13.899 136.31 13.8106 136.399 13.8106C136.487 13.8106 136.575 13.7222 136.752 13.7222C137.018 13.7222 137.194 13.8106 137.371 13.9874C137.548 14.1643 137.636 14.3411 137.636 14.6064V24.687H139.847ZM120.217 24.687H125.168C125.434 24.687 125.611 24.7754 125.787 24.9523C125.964 25.1291 126.053 25.306 126.053 25.5712C126.053 25.8365 125.964 26.0134 125.787 26.1902C125.611 26.3671 125.434 26.4555 125.168 26.4555H115.972C115.707 26.4555 115.53 26.3671 115.353 26.1902C115.176 26.0134 115.088 25.8365 115.088 25.5712V14.6064C115.088 14.4296 115.176 14.3411 115.265 14.2527C115.353 14.1643 115.53 14.0759 115.618 14.0759H124.815C125.08 14.0759 125.257 14.1643 125.434 14.3411C125.611 14.518 125.699 14.6949 125.699 14.9601C125.699 15.2254 125.611 15.4023 125.434 15.5791C125.257 15.756 125.08 15.8444 124.815 15.8444H116.591V19.8236H123.135C123.4 19.8236 123.577 19.912 123.754 20.0888C123.93 20.2657 124.019 20.4425 124.019 20.7078C124.019 20.9731 123.93 21.1499 123.754 21.3268C123.577 21.5037 123.4 21.5921 123.135 21.5921H116.591V25.0407L120.217 24.687Z" fill="black"/>
<path fill-rule="evenodd" clip-rule="evenodd" d="M17.3777 3.02246C19.3231 3.02246 21.18 3.37616 22.9485 3.99515C24.717 4.61413 26.3971 5.58681 27.9004 6.73635L28.7846 7.44376L27.9888 8.23959L24.9823 11.2461C26.574 12.6609 27.8119 14.4294 28.4309 16.5516H33.2943H34.267V17.5243V20.0002V20.0887V20.1771C34.1786 24.7752 32.3217 28.9313 29.2268 31.9377C26.1318 34.9442 21.9758 36.8896 17.2893 36.8896C12.6027 36.8896 8.35824 35.0326 5.26333 31.9377C2.25685 28.9313 0.399902 24.6868 0.399902 20.0002C0.399902 15.3137 2.25685 11.0692 5.35175 7.97431C8.44666 4.96783 12.6911 3.02246 17.3777 3.02246ZM24.1865 10.5387L27.2814 7.44376C24.5402 5.32153 21.0916 3.99515 17.3777 3.99515C8.53509 3.99515 1.46101 11.1576 1.46101 19.9118C1.46101 28.7544 8.62351 35.8285 17.3777 35.8285C26.1318 35.8285 33.2943 28.7544 33.2943 20.0002V19.9118V17.4359H28.6962H22.3295L17.3777 22.4762H27.9888C26.8393 27.2512 22.5948 30.8766 17.3777 30.8766C11.3647 30.8766 6.50129 26.0132 6.50129 20.0002C6.50129 13.9873 11.3647 9.12385 17.3777 9.12385C19.6768 9.12385 21.8874 9.83126 23.6559 11.0692L24.1865 10.5387Z" fill="black"/>
<path fill-rule="evenodd" clip-rule="evenodd" d="M24.9825 11.1578C26.5741 12.5727 27.8121 14.3412 28.4311 16.4634H22.3297H21.8875L21.6223 16.8171L16.6704 21.7689L14.9903 23.449H17.3778H26.5741C25.9551 25.1291 24.894 26.6324 23.4792 27.6935C21.7991 29.0199 19.6769 29.8157 17.3778 29.8157C14.6366 29.8157 12.1607 28.7546 10.3922 26.8977C8.62366 25.1291 7.47412 22.6532 7.47412 19.912C7.47412 17.1708 8.53523 14.6949 10.3922 12.9264C12.1607 11.1578 14.6366 10.0083 17.3778 10.0083C18.4389 10.0083 19.4116 10.1852 20.3843 10.4504C21.357 10.7157 22.2413 11.2463 23.1255 11.7768L23.8329 12.2189L24.4519 11.6L24.9825 11.1578Z" fill="#F5580F"/>
</g>
<defs>
<clipPath id="clip0_244_3">
<rect width="191" height="40" fill="white"/>
</clipPath>
</defs>
</svg>
