<svg xmlns="http://www.w3.org/2000/svg" width="409" height="116" fill="none">
  <path fill="#FF5700" fill-rule="evenodd" d="M119.947 57.636c0 31.812-25.789 57.601-57.601 57.601-12.85 0-24.716-4.207-34.298-11.32 1.64.92 3.333 1.755 5.071 2.5a52.765 52.765 0 0 0 20.867 4.311 53.058 53.058 0 0 0 52.884-49c.144-1.255.223-2.517.237-3.78 0-1.607-.134-3.474-.297-5.166-.015-.162-.02-.326-.025-.49-.006-.19-.012-.38-.033-.565l-.046.046a107.716 107.716 0 0 0-.489-3.913H64.416l-3.247 6.076-7.465 14.1h31.584a32.966 32.966 0 0 1-5.166 9.685 32.876 32.876 0 0 1-26.136 12.918 32.862 32.862 0 0 1-11.342-2.043 32.984 32.984 0 0 1-21.66-30.96 33.004 33.004 0 0 1 33.002-33.004 32.857 32.857 0 0 1 19.455 6.342l4.332-8.106 5.16-9.747a52.842 52.842 0 0 0-28.947-8.579 53.067 53.067 0 0 0-25.765 6.684C37.772 4.191 49.574.034 62.346.034c31.812 0 57.601 25.79 57.601 57.602Z" clip-rule="evenodd"/>
  <path fill="#27333F" d="M198.971 70.352a21.316 21.316 0 0 1-7.57 5.774 20.222 20.222 0 0 1-8.302 1.709 21.051 21.051 0 0 1-10.461-2.57c-.116-.065-.214-.147-.328-.214a18.248 18.248 0 0 1-6.842-6.956 21.056 21.056 0 0 1-2.57-10.461 21.078 21.078 0 0 1 2.57-10.46 18.246 18.246 0 0 1 6.841-6.956c.114-.067.213-.15.329-.215a21.087 21.087 0 0 1 10.461-2.57 20.43 20.43 0 0 1 8.312 1.693l5.945-11.181c-.049-.022-.093-.05-.143-.073a36.84 36.84 0 0 0-14.835-2.883 36.74 36.74 0 0 0-16.251 3.603c-.425.206-.873.364-1.29.588a31.276 31.276 0 0 0-12.264 11.636 32.039 32.039 0 0 0-4.464 16.818 32.051 32.051 0 0 0 4.464 16.821 31.285 31.285 0 0 0 12.264 11.632c.418.224.865.383 1.291.59a36.507 36.507 0 0 0 16.16 3.605 37.118 37.118 0 0 0 14.881-2.887c.061-.027.116-.062.177-.089a29.246 29.246 0 0 0 11.004-8.297l-9.379-8.657Zm30.707 15.689a31.422 31.422 0 0 1-12.354-11.677 31.88 31.88 0 0 1-4.464-16.73 31.88 31.88 0 0 1 4.464-16.73 31.466 31.466 0 0 1 12.354-11.678A36.856 36.856 0 0 1 247.4 24.99a36.597 36.597 0 0 1 17.676 4.237 31.898 31.898 0 0 1 12.354 11.678 31.645 31.645 0 0 1 4.509 16.73 31.645 31.645 0 0 1-4.509 16.73 31.845 31.845 0 0 1-12.354 11.677 36.561 36.561 0 0 1-17.676 4.241 36.823 36.823 0 0 1-17.722-4.24ZM257.5 75.264a18.444 18.444 0 0 0 7.08-7.17 21.079 21.079 0 0 0 2.57-10.46 21.079 21.079 0 0 0-2.57-10.46 18.44 18.44 0 0 0-7.08-7.17 20.047 20.047 0 0 0-10.1-2.57 20.04 20.04 0 0 0-10.101 2.57 18.439 18.439 0 0 0-7.08 7.17 21.078 21.078 0 0 0-2.57 10.46 21.056 21.056 0 0 0 2.57 10.46 18.433 18.433 0 0 0 7.08 7.17 20.007 20.007 0 0 0 10.101 2.57 20.005 20.005 0 0 0 10.1-2.57Zm75.665 13.935L320.99 71.614h-13.437V89.2h-14.61V26.07h27.325a35.091 35.091 0 0 1 14.565 2.795 21.656 21.656 0 0 1 9.514 7.94 21.86 21.86 0 0 1 3.337 12.173 21.437 21.437 0 0 1-3.381 12.13 21.453 21.453 0 0 1-9.605 7.8L348.856 89.2h-15.691Zm-3.699-48.383a15.334 15.334 0 0 0-10.009-2.842h-11.904V59.98h11.904a15.17 15.17 0 0 0 10.009-2.887 10.02 10.02 0 0 0 3.428-8.115 9.998 9.998 0 0 0-3.428-8.161Zm78.639 36.66v11.723h-48.879v-63.13h47.706v11.726h-33.188v13.707h29.31v11.364h-29.31v14.61h34.361Z"/>
</svg>
