<svg xmlns="http://www.w3.org/2000/svg" width="274" height="154" fill="none">
  <rect width="222" height="80" y="18" fill="#F3F5F7" rx="12"/>
  <rect width="52" height="12" x="16" y="34" fill="url(#a)" rx="4"/>
  <rect width="190" height="10" x="16" y="54" fill="url(#b)" rx="4"/>
  <rect width="25" height="9" x="16.5" y="72.5" fill="#fff" stroke="#CFD6DD" rx="3.5"/>
  <rect width="25" height="9" x="46.5" y="72.5" fill="#fff" stroke="#CFD6DD" rx="3.5"/>
  <rect width="226" height="84" x="46" y="68" fill="#F3F5F7" rx="14"/>
  <rect width="72" height="12" x="64" y="86" fill="url(#c)" rx="4"/>
  <rect width="190" height="10" x="64" y="106" fill="url(#d)" rx="4"/>
  <rect width="25" height="9" x="64.5" y="124.5" fill="#fff" stroke="#CFD6DD" rx="3.5"/>
  <rect width="25" height="9" x="94.5" y="124.5" fill="#fff" stroke="#CFD6DD" rx="3.5"/>
  <rect width="25" height="9" x="124.5" y="124.5" fill="#fff" stroke="#CFD6DD" rx="3.5"/>
  <rect width="226" height="84" x="46" y="68" stroke="#fff" stroke-width="4" rx="14"/>
  <circle cx="222" cy="26" r="25" fill="#fff" stroke="#DFE3E7" stroke-width="2"/>
  <path fill="#fff" d="M210 14h24v24h-24z"/>
  <path fill="#111A2C" fill-rule="evenodd" d="M213.514 32.392a.75.75 0 0 0 .836 1.225.738.738 0 0 1 .165-.225l14.912-13.967a.75.75 0 0 1 .19-.13.75.75 0 0 0-1.19-.87l-1.502 1.407c-1.447-.914-3.12-1.582-4.925-1.582-3.064 0-5.747 1.926-7.592 3.71a23.27 23.27 0 0 0-2.981 3.546l-.042.064-.012.018-.003.005-.001.002L212 26l-.632-.404a.752.752 0 0 0 0 .808L212 26l-.632.404.002.003.003.005.012.018.042.064a20.902 20.902 0 0 0 .765 1.058 23.27 23.27 0 0 0 2.216 2.487c.257.249.53.5.819.75l-1.713 1.603ZM218 26c0 .645.153 1.254.424 1.794l-2.095 1.962a17.446 17.446 0 0 1-.879-.795A21.73 21.73 0 0 1 212.909 26a21.73 21.73 0 0 1 2.541-2.96c1.774-1.716 4.091-3.29 6.55-3.29 1.325 0 2.609.457 3.788 1.147l-1.764 1.652a4 4 0 0 0-6.024 3.45Z" clip-rule="evenodd"/>
  <path fill="#111A2C" d="m229.255 21.642-1.098 1.028c.134.122.265.245.393.369a21.73 21.73 0 0 1 2.541 2.96 21.73 21.73 0 0 1-2.541 2.96c-1.774 1.717-4.091 3.29-6.55 3.29-1.105 0-2.181-.317-3.192-.823l-1.158 1.084c1.309.734 2.78 1.24 4.35 1.24 3.064 0 5.747-1.926 7.592-3.711a23.27 23.27 0 0 0 2.981-3.545l.042-.064.012-.018.003-.005.001-.002s.001-.001-.631-.405l.632.404a.752.752 0 0 0 0-.808L232 26l.632-.404-.002-.003-.003-.005-.012-.018-.042-.064a20.988 20.988 0 0 0-.765-1.057 23.27 23.27 0 0 0-2.553-2.807Z"/>
  <path fill="#111A2C" d="M220.6 29.748a4 4 0 0 0 5.232-4.9l-5.232 4.9Z"/>
  <defs>
    <linearGradient id="a" x1="16" x2="68" y1="46" y2="46" gradientUnits="userSpaceOnUse">
      <stop stop-color="#111A2C" stop-opacity=".44"/>
      <stop offset="1" stop-color="#111A2C" stop-opacity=".24"/>
    </linearGradient>
    <linearGradient id="b" x1="16" x2="206" y1="64" y2="64" gradientUnits="userSpaceOnUse">
      <stop stop-color="#111A2C" stop-opacity=".24"/>
      <stop offset="1" stop-color="#111A2C" stop-opacity=".04"/>
    </linearGradient>
    <linearGradient id="c" x1="64" x2="136" y1="98" y2="98" gradientUnits="userSpaceOnUse">
      <stop stop-color="#111A2C" stop-opacity=".44"/>
      <stop offset="1" stop-color="#111A2C" stop-opacity=".24"/>
    </linearGradient>
    <linearGradient id="d" x1="64" x2="254" y1="116" y2="116" gradientUnits="userSpaceOnUse">
      <stop stop-color="#111A2C" stop-opacity=".24"/>
      <stop offset="1" stop-color="#111A2C" stop-opacity=".04"/>
    </linearGradient>
  </defs>
</svg>
