<svg xmlns="http://www.w3.org/2000/svg" fill="none" viewBox="0 0 857 156">
  <g opacity=".4">
    <g clip-path="url(#a)">
      <path fill="#fff" d="M.2 0H0v.2h.2V0Z"/>
      <path fill="#000" d="M0 0v40h40V0H0Zm14.4 22.6v-7.2c0-2.7 3.4-4 5.3-.8l3 5.2v-4.4c0-2.7 3.5-4 5.3-.8l3 5.2v-7h1.8v11.7a.4.4 0 0 1-.3.4c-.2 0-.4 0-.5-.3l-3-5-2.5-4.5c-.4-.6-1-.7-1.3-.6a1 1 0 0 0-.8 1v9a.4.4 0 0 1-.2.4c-.2 0-.4 0-.5-.3A5263 5263 0 0 1 18 15c-.3-.6-.9-.8-1.2-.6a1 1 0 0 0-.8 1v8.8a.5.5 0 0 1-.5.5h-4.4a4.8 4.8 0 0 1 0-9.6h2.3V17h-2.3a3 3 0 0 0 0 6.1h2.7a.5.5 0 0 0 .5-.4Zm20.8 2c0 2.7-3.5 4-5.3.8l-3-5.2v4.4c0 2.7-3.5 4-5.4.8l-3-5.2v4.1c0 1.9-1 2.9-2.8 2.9h-4.5a7.2 7.2 0 1 1 0-14.4h2.3v1.7h-2.3a5.5 5.5 0 1 0 0 11h4.4a1.2 1.2 0 0 0 1.2-1.2v-8.8a.4.4 0 0 1 .2-.4c.2 0 .4 0 .6.3l2.8 4.8L23 25c.3.6.9.7 1.3.6a1 1 0 0 0 .7-1v-9a.4.4 0 0 1 .3-.4c.1 0 .3 0 .5.3l2.6 4.5 2.9 5c.3.5.7.7 1 .7h.3a1 1 0 0 0 .7-1v-12h1.8v11.8Z"/>
    </g>
    <path fill="#000" d="M81.5 29.1c.6-.3.6-1.4.6-1.6V13a1.3 1.3 0 0 0-.5-1h11.8s-.5.2-.5 1v14.8c0 .2.1 1 .6 1.3h-12Zm28.6 0c-.6-.4-.6-1.3-.6-1.5v-5.5s3.3 5.2 3.6 6c.4.8 0 1 0 1h13.7l-.4-.2-1.2-1.2-5.5-8.8 4.4-6 1-1h-11.7s.7.5.1 1.3l-4 5.6V13a1.3 1.3 0 0 1 .5-1H98.5a1.3 1.3 0 0 1 .5 1v14.5c0 .2 0 1.3-.6 1.6H110ZM129.2 12a1.3 1.3 0 0 1 .5 1v14.5c0 .2 0 1.3-.7 1.6h20v-5.8a1.9 1.9 0 0 1-1.4.5H140v-1.3h5.6c.3 0 1.2 0 1.5.4v-5.2c-.3.3-1.2.4-1.5.4h-5.7v-1.4h7.3c.7 0 1.4.3 1.9.8v-5.6h-19.8Zm38.2 17.1s.5-.6.3-1.3a17 17 0 0 0-.8-2h-5.1l-.8 2c-.2.7.3 1.3.3 1.3H151a4 4 0 0 0 1-1.3l5.4-14.4c.4-1-.2-1.5-.2-1.5h16.4a1.4 1.4 0 0 0-.3 1.5l5.8 14.4c.3.5.6 1 1.1 1.3h-12.8Zm-1.7-6.5-1.2-3.1a3 3 0 0 1-.2-1l-.2 1-1.3 3.1h3Zm10.2-9a2.9 2.9 0 0 1 3.5-3 3 3 0 0 1 1 5.4 3 3 0 0 1-1.6.5 2.9 2.9 0 0 1-2.9-3Zm3 2.4c1.2 0 2.2-1 2.2-2.4a2.3 2.3 0 0 0-4.6 0c0 1.4 1 2.4 2.3 2.4Zm-.7-.8h-.5V12h1.3c.8 0 1.1.3 1.1 1 0 .6-.3.8-.8.9l1 1.4h-.6l-1-1.4h-.5v1.4Zm.6-1.8c.4 0 .8 0 .8-.6 0-.4-.3-.4-.7-.4h-.7v1h.6Zm162 13.2v-.3h.2c.1 0 .3 0 .3.2l-.2.1h-.3Zm0 .3h.1l.4.6h.3l-.3-.6c.1 0 .3-.2.3-.4 0-.3-.2-.4-.6-.4h-.5v1.3h.3V27Zm1.5-.1c0-.8-.6-1.3-1.3-1.3-.7 0-1.3.5-1.3 1.3s.6 1.2 1.3 1.2c.7 0 1.3-.4 1.3-1.2Zm-.4 0c0 .5-.3 1-.8 1a1 1 0 0 1-.2-2c.6 0 1 .4 1 1ZM294 13.2v14.4h4V13.2h-4Zm-32 0v14.4h4V16.4h3.2c1 0 1.8.2 2.3.8.7.7 1 1.8 1 3.8v6.6h3.9v-8c0-5.7-3.6-6.5-7.2-6.5H262Zm38.5 0v14.4h6.6c3.5 0 4.6-.6 5.9-1.9.9-1 1.4-3 1.4-5.2 0-2-.5-3.8-1.3-5-1.5-2-3.7-2.3-7-2.3h-5.6Zm4 3.1h1.8c2.5 0 4.1 1.1 4.1 4.1 0 3-1.6 4.1-4.1 4.1h-1.8v-8.2Zm-16.4-3.1-3.4 11.4-3.3-11.4H277l4.7 14.4h5.8l4.7-14.4h-4.1Zm28.2 14.4h4V13.2h-4v14.4Zm11.4-14.4L322 27.6h4l1-2.6h6.7l.8 2.6h4.4l-5.7-14.4h-5.5Zm2.7 2.6 2.4 6.8h-5l2.6-6.8Zm-94.7-.2v-2h.6c5.4-.2 9 4.6 9 4.6s-3.9 5.4-8 5.4l-1.6-.3v-6c2.1.2 2.6 1.2 3.8 3.3l2.8-2.4s-2-2.7-5.5-2.7h-1.1Zm0-6.6v3h.6c7.5-.3 12.4 6.1 12.4 6.1s-5.6 6.9-11.5 6.9l-1.5-.1v1.8h1.3c5.4 0 9.4-2.7 13.2-6 .7.5 3.3 1.7 3.8 2.3a33 33 0 0 1-18.3 5.4V31h20.8V9h-20.8Zm0 14.3V25c-5-1-6.5-6.2-6.5-6.2s2.5-2.7 6.5-3.1v1.7c-2.1-.3-3.8 1.7-3.8 1.7s1 3.3 3.8 4.3Zm-9-4.8s3-4.5 9-5V12c-6.6.5-12.4 6.1-12.4 6.1s3.3 9.5 12.4 10.3v-1.7c-6.7-.8-9-8.2-9-8.2Z"/>
    <g fill="#000" clip-path="url(#b)">
      <path d="M392.6 14.3h3.5l4.9 8v-8h3.4v11.3H401l-4.9-7.8v7.8h-3.5V14.3Zm30.8 1.2h3.3V17h1.9v1.1h-1.9v7.5h-3.3v-7.5h-1.9v-1h1.9v-1.6Zm-17 2.6h3.4v7.5h-3.4v-7.5Zm0-3.8h3.4v2.3h-3.4v-2.3Zm60.6 7.5v1.6c0 1.2-.7 1.7-1.4 1.7-.6 0-1.3-.5-1.3-1.7v-3.2c0-1.2.7-1.7 1.3-1.7.7 0 1.4.5 1.4 1.7v1.6Zm-1.3-4.2c-2.8 0-5 1.9-5 4.2 0 2.4 2.2 4.2 5 4.2 2.7 0 5-1.8 5-4.2 0-2.3-2.3-4.2-5-4.2Zm-9.4-3.3h3.3v11.3h-3.3v-.4a4 4 0 0 1-6.2-3.4c0-2 1.8-4.2 4.3-4 .8 0 1.3.4 1.9.7v-4.2Zm0 7.5v-1.3c0-1.2-.8-1.5-1.3-1.5-.6 0-1.3.3-1.3 1.5v2.7c0 1.1.7 1.4 1.3 1.4.5 0 1.3-.3 1.3-1.4v-1.4Zm-38.6-4c1.3 0 3.8.8 3.8 3.7v4.1h-3.4v-5c0-.6-.6-1.3-1.5-1.3-1 0-1.6.7-1.6 1.4v5h-3.4V18h3.4v.8a4 4 0 0 1 2.7-1.1Zm27.5 0c1.2 0 3.8.8 3.8 3.7v4.1h-3.4v-5c0-.6-.6-1.3-1.5-1.3-1 0-1.6.7-1.6 1.4v5H439V18h3.4v.8a4 4 0 0 1 2.7-1.1Zm-13.5 2.9c0-.6 0-1 .2-1.4.3-.5.8-.7 1.2-.7.5 0 1 .2 1.2.7.2.3.3.8.2 1.4h-2.8Zm2.8 2.3v.5c0 1.3-.9 1.6-1.4 1.6-.5 0-1.4-.3-1.4-1.6v-1.6h6.4c0-2.3-2.2-4.3-5-4.3-2.7 0-5 2-5 4.3s2.3 4.2 5 4.2c2.3 0 4.2-1.3 4.8-3.1h-3.4Zm36.6-7.8c.6 0 .9.2.9.5s-.2.5-.5.5l.5.9h-.6l-.3-.8h-.2v.8h-.5v-2h.7Zm0-.8a1.7 1.7 0 1 0 0 3.5 1.7 1.7 0 0 0 0-3.5Zm1.4 1.8c0 .7-.6 1.4-1.4 1.4a1.4 1.4 0 0 1 0-2.8c.8 0 1.4.6 1.4 1.4Zm-1.6-.2h.2c.3 0 .4 0 .4-.2s-.2-.3-.4-.3h-.2v.5Z"/>
      <path d="M395.7 32C388 32 383 26.6 383 20c0-6.5 5-12 12.7-12h71.6C475 8 480 13.5 480 20c0 6.6-5 12-12.7 12h-71.6Zm0-21c-6 0-9.7 4-9.7 9s3.7 9 9.7 9h71.6c6 0 9.7-4 9.7-9s-3.7-9-9.7-9h-71.6Z"/>
    </g>
    <g fill="#000" clip-path="url(#c)">
      <path d="M547.6 20a14.1 14.1 0 0 0-26.7-6.3l1.1.8c-.5 1.2-1 2.4-1.2 3.6l-.1 2.4a13.5 13.5 0 0 0 27 0V20ZM524 22.4v2.1l-.4.1c-.1-.3-.5-1-.5-2.2a8.3 8.3 0 0 1 7-9c4.2-.6 8.1 2 9.1 5.6l-.3.1-1-1c-4.9-5.1-12.8-2.8-13.9 4.3Zm12.8 2.4c-.7 1-1.8 1.6-3 1.6-2 0-3.7-1.7-3.7-3.7s1.5-3.6 3.4-3.7c1.2 0 2.3.6 2.9 1.6.5 1.2.3 2.5-.6 3.5l1 .7Zm7.7.2c-2 4.4-6 6.7-10.2 6.6-8.2-.4-10.6-9.8-5.1-13.3l.2.3s-.4.3-.8 1.4a6 6 0 0 0-.7 3.2c.4 6.6 9.6 8 12.8 1.4 4-9-6.7-18.2-16.3-11.2l-.2-.2a11 11 0 0 1 12-4.5 12 12 0 0 1 8.3 16.3Zm16.3-10.3v6.2c0 2.5-1.5 4.3-4.3 4.3-2.7 0-4.3-1.8-4.3-4.3v-6.2h2.3v6c0 1.5.7 2.4 2 2.4s2-.9 2-2.4v-6h2.3Zm8.4 7.4c0 1.8-1.4 3.1-3.7 3.1h-3.7V14.8h3.5c2 0 3.4 1 3.4 2.5 0 1.1-.6 1.8-1.4 2.2 1 .4 1.9 1.2 1.9 2.6Zm-5-5.3V19h1c.8 0 1.2-.4 1.2-1 0-.7-.4-1.1-1.1-1.1H564Zm1.2 6.4c1 0 1.5-.5 1.5-1.3 0-1-.5-1.4-1.5-1.4H564v2.6h1.3Zm4.7-8.4h2.2V25H570V14.8Zm7.6 4.2c1.8.6 2.7 1.4 2.7 3 0 2.2-1.7 3.4-3.7 3.4-1.7 0-3.2-.8-3.7-2.3l1.8-1.3a2 2 0 0 0 2 1.5c.7 0 1.3-.5 1.3-1 0-.7-.5-1-1.9-1.6-1.6-.6-2.8-1.4-2.8-3 0-1.8 1.4-3 3.3-3 1.6 0 2.9.6 3.4 1.8l-1.8 1.3c-.3-.8-.9-1.3-1.7-1.3-.7 0-1.1.4-1.1 1s.7 1 2.2 1.5Zm14 1c0 3-2.3 5.3-5.4 5.3-3.2 0-5.3-2.3-5.3-5 0-1.7.7-3 1.7-3.8l-.4-.4c.8-.8 2.2-1.4 4-1.4 3.1-.1 5.3 2.3 5.3 5.3Zm-2.4 0c0-1.9-1.1-3.2-3-3.2-1 0-1.9.5-2.3.9l.4.4c-.6.4-1.1 1-1.1 2.2 0 1.6 1.1 2.9 3 2.9s3-1.3 3-3.2Zm5.5-3v2.4h4.5V21h-4.5v4h-2.3V14.8h7.1v2.1h-4.8Zm13.9 0h-3v8.2h-2.2V17h-3v-2.2h8V17h.2Z"/>
    </g>
    <g clip-path="url(#d)">
      <path fill="#000" d="M697.4 25.7c0-.2-.2-.4-.5-.5V25h1.9v.2c-.3 0-.5.3-.5.5V29c0 1 .6 1.6 1.7 1.6 1 0 1.8-.5 1.8-1.6v-3.2c0-.3-.2-.5-.5-.5V25h1.6v.2c-.4 0-.5.3-.5.5v3.1c0 1.4-.8 2.2-2.5 2.2s-2.5-.7-2.5-2v-3.3Zm7 5c.3 0 .5-.2.5-.4v-4.5c0-.3-.3-.5-.6-.6V25h1.2l3.9 4.5v-3.8c0-.2-.2-.4-.5-.5V25h1.6v.2c-.4 0-.6.3-.6.5V31h-.2a2 2 0 0 1-.8-.6l-3.5-4v4c0 .2.1.3.5.4v.2h-1.6v-.2Zm30.2-1.1h.1c.1.3.3.6.6.8.3.2.7.3 1 .3.8 0 1.3-.4 1.3-1s-.6-1-1.3-1.3c-.6-.3-1.7-.7-1.7-1.8 0-1 .8-1.6 2-1.6l1.7.2v1.1h-.2c-.2-.7-.8-.9-1.6-.9s-1 .5-1 1 .6.9 1.3 1.2c.8.4 1.7.8 1.7 1.9 0 1-.7 1.6-2.1 1.6-.8 0-1.3-.2-1.7-.3l-.1-1.2Zm16.4-1.1-1.6-2.5c-.2-.5-.4-.7-.7-.8V25h2v.2c-.3 0-.4.1-.4.3l.2.5 1.1 1.9 1.1-2c.2-.1.2-.3.2-.4 0-.2 0-.3-.2-.3V25h1.5v.2c-.5.2-.7.6-1 1l-1.4 2.4-.8-.1Zm.9-.2v2c0 .2.2.4.5.5v.2h-2v-.2c.4-.1.6-.3.6-.5v-2h.9ZM722.1 25h4.2v1h-.2c-.1-.3-.3-.6-1-.6h-1.6v2h1.7c.3 0 .4-.2.5-.4h.2v1.5h-.2c0-.3-.2-.5-.5-.5h-1.7v2.4h1.8c.7 0 1-.3 1.1-.8h.2l-.2 1.3h-4.3v-.2c.3-.1.5-.2.5-.6v-4.5c0-.3-.2-.5-.5-.5V25Zm-9.4.8c0-.3-.2-.5-.5-.6V25h2v.2c-.3 0-.5.2-.5.6v4.4c0 .3.2.5.5.6v.2h-2v-.2c.4-.1.6-.2.6-.6v-4.4Zm27.7 0c0-.3-.1-.5-.5-.6V25h2v.2c-.3 0-.4.2-.4.6v4.4c0 .3.1.5.5.6v.2h-2v-.2c.3-.1.4-.2.4-.6v-4.4Zm5.1-.7-2.7-.1v1.2h.2c.2-.6.5-.7.8-.7h1.3v4.7c0 .3-.2.5-.5.5v.2h2v-.2c-.3 0-.6-.2-.6-.5v-4.7h1.3c.4 0 .7.1.8.7h.2V25h-2.8Zm-16 5.1c0 .3.2.5.6.6v.2h-2v-.2c.3-.1.5-.2.5-.6v-4.5c0-.3-.2-.5-.5-.5V25h2.4c1.4 0 2.2.6 2.2 1.6 0 .8-.6 1.3-1.5 1.5l.4.4 1.2 1.6c.3.3.6.7 1 .7v.1h-.7c-.4 0-.8 0-1.2-.5l-1.2-1.6c-.2-.3-.5-.5-.9-.6h-.2v2Zm0-2.4h.8c1 0 1.4-.6 1.4-1.1 0-.8-.5-1.3-1.5-1.3l-.7.1v2.3Zm-13.9-2c-.1-.3-.3-.6-.7-.6V25h2.1v.2c-.2 0-.4.1-.4.3 0 .2 0 .4.2.7l1.6 3.5 1.4-3.5.2-.6c0-.2-.2-.3-.4-.4V25h1.7v.2c-.3 0-.6.3-.8.8l-2.1 5h-.5l-2.3-5.2ZM721 10c-.2-.5-.6-1-1.2-1v-.3h4V9c-.4 0-.8.2-.8.6 0 .3.2.6.5 1.3l2.8 6.5 2.8-6.5.3-1.3c0-.3-.3-.6-.7-.6v-.3h3.2V9c-.7.1-1.1.6-1.5 1.4l-4 9.5h-.9L721 10Zm-38.6 9.5c.5-.1.9-.4.9-1V10c0-.6-.3-.8-.9-1v-.3h3.6V9c-.5.1-1 .4-1 1v3.6h6.5V10c0-.6-.3-.9-.9-1v-.3h3.6V9c-.5.1-.8.4-.8 1v8.6c0 .6.3.8.8 1v.2h-3.6v-.2c.5-.1 1-.4 1-1v-4H685v4c0 .6.3.9.9 1v.3h-3.5v-.3Zm74.4 0c.7-.1 1-.4 1-1V10c0-.6-.4-.9-1-1v-.3h5.1c4 0 6.4 2.2 6.4 5.5s-2.5 5.7-6.6 5.7h-5v-.3Zm2.8-.6 1.7.2c3.3 0 5-2 5-4.9 0-2.9-1.7-4.9-4.8-4.9l-2 .1V19Zm-47.6-.4c0 .5.4.9 1 1v.3h-3.8v-.3c.6-.1 1-.4 1-1V9.9c0-.5-.3-.8-1-1v-.3h4.6c2.7 0 4.1 1 4.1 3 0 1.5-1 2.4-2.8 2.9l.8.6 2.3 3.1c.5.6 1.2 1.4 1.9 1.4v.2l-1.3.2c-.9 0-1.6-.4-2.3-1.2l-2.3-3.1c-.4-.5-.8-.9-1.7-1l-.5-.1v3.9Zm0-4.6 1.4.1c2 0 2.7-1.2 2.7-2.2 0-1.5-1-2.5-2.8-2.5-.4 0-1 0-1.3.2v4.4Zm35 4.6c0 .5.4.9 1 1v.3h-3.7v-.3c.6-.1 1-.4 1-1V9.9c0-.5-.3-.8-1-1v-.3h4.5c2.7 0 4.2 1 4.2 3 0 1.5-1.1 2.4-2.8 2.9l.8.6 2.3 3.1c.5.6 1.1 1.4 1.9 1.4v.2l-1.3.2c-1 0-1.7-.4-2.4-1.2l-2.2-3.1c-.4-.5-.9-.9-1.7-1l-.5-.1v3.9Zm0-4.6 1.5.1c2 0 2.7-1.2 2.7-2.2 0-1.5-1-2.5-2.8-2.5-.4 0-1 0-1.3.2v4.4Zm-51 5.6c.7-.2 1-.7 1.3-1.2l3.6-8.7c.2-.3.3-1 .3-1h1l.4 1 3.8 8.7c.2.6.5 1 1.3 1.2v.3h-3.9v-.3c.6-.1.7-.4.7-.7 0-.2 0-.5-.2-.8l-.8-1.8h-4.1l-.8 1.9-.1.7c0 .3.1.6.7.7v.3H696v-.3Zm7-4.2-1.7-4.1-1.7 4.1h3.5Zm28.3 4.2c.7-.2 1-.7 1.3-1.2l3.6-8.7c.2-.3.3-1 .3-1h1l.4 1 3.8 8.7c.2.6.5 1 1.3 1.2v.3h-4v-.3c.6-.1.8-.4.8-.7l-.3-.8-.8-1.8h-4.1l-.7 1.9-.2.7c0 .3.2.6.8.7v.3h-3.2v-.3h-.1Zm7-4.2-1.8-4.1-1.6 4.1h3.4ZM649.5 5.2h24.8v9.4c0 4.3-1.6 13.5-12.3 20.3 0 0-11.6-4.9-12.5-20.3V5.2Z"/>
      <path fill="#000" d="M662 35h-.1s-11.7-5.1-12.6-20.4V5h25.2v9.5c0 3.8-1.2 13.3-12.4 20.4l-.1.1ZM649.6 5.3v9.2A23.1 23.1 0 0 0 662 34.7c11-7 12.2-16.4 12.2-20.2V5.3h-24.6Z"/>
      <path fill="#fff" d="M668.3 17.3s-.2.7-1.2 0l-3.4-.1s-.4.1-.5-.4v-1s0-.2-.4-.2c0 0-.6 0-.7-.5 0 0-.1-.7.8-.7 0 0 .3.1.4-.2v-2.9s0-.2-.4-.2c0 0-.7 0-.8-.3 0 0 0-.7.4-.8h.7s.1 0 0-.4v-.9s.1-.2.5-.2h.7l.2-.3h.4s.4.4 2.3.3h.3s.4.3.6 0h1.2s1 .3 1.6-.3h.2s.3.6.5.4h.7s.2.4.1 1.2c0 0-.1.3.5.3 0 0 .7-.1.6.5 0 0 .1.7-1 .6v.4l-.1 2.5s0 .4.4.4c0 0 .7 0 .7.5 0 0 .1.8-.8.7 0 0-.3 0-.4.2v1s0 .5-.6.4h-3.4c0-.1 0-.1 0 0Zm-6.5 3.3.2-.1.5-.1h1.3s1.3.2 1.8-.2h.4s.3 0 .3.2h.8s.4.1.4.4v.4l.1.8h.6s.5.2.4.5c0 0 0 .4-.4.4 0 0-.4.2-.5.1 0 0-.2.2-.2.5V26s0 .3.3.2c0 0 .7 0 .9.3 0 0 .1.6-.2.7l-.3.2h-.5s-.2 0-.2.4v.8s0 .4-.4.4h-.5s-.2.2-.5.1h-3.5l-.4.1s-.4.4-.8.1l-.3-.2H657s-.8.2-.8 0V28s0-.3-.2-.4l-.9-.1s-.4-.3-.2-.6c0 0 0-.4.5-.4l.6-.1v-2.9s.1-.3-.1-.3h-.5s-.5 0-.6-.4v-.4s.3-.4.9-.3c0 0 .3 0 .4-.2v-1s0-.2.4-.4c0 0 .7.2.9-.1 0 0 .2-.4.4-.1 0 0 .4.3 1.5.3h1.8l.6.1h.1Zm-5.5-3.3s-.2.7-1.2 0l-3.3-.1s-.5.1-.6-.4v-1s.1-.2-.3-.2c0 0-.7 0-.8-.5 0 0 0-.7.8-.7 0 0 .3.1.4-.2v-2.9s0-.2-.4-.2c0 0-.7 0-.8-.3 0 0 0-.7.4-.8h.6l.1-.5v-.8s0-.2.4-.2h.7l.2-.3h.4s.5.4 2.3.3h.4s.3.3.5 0h1.3s1 .3 1.6-.3h.2s.3.6.5.4h.7s.2.4.1 1.2c0 0-.1.3.5.3 0 0 .6-.1.6.5 0 0 .1.7-1 .6l-.1.4V14s0 .4.4.4c0 0 .7 0 .7.5 0 0 0 .8-.8.7 0 0-.3 0-.4.2v1s0 .5-.6.4h-3.4c.1-.1 0-.1 0 0"/>
      <path fill="#000" d="M668.3 17.3s-.2.7-1.2 0l-3.4-.1s-.4.1-.5-.4v-1s0-.2-.4-.2c0 0-.6 0-.7-.5 0 0-.1-.7.8-.7 0 0 .3.1.4-.2v-2.9s0-.2-.4-.2c0 0-.7 0-.8-.3 0 0 0-.7.4-.8h.7s.1 0 0-.4v-.9s.1-.2.5-.2h.7l.2-.3h.4s.4.4 2.3.3h.3s.4.3.6 0h1.2s1 .3 1.6-.3h.2s.3.6.5.4h.7s.2.4.1 1.2c0 0-.1.3.5.3 0 0 .7-.1.6.5 0 0 .1.7-1 .6v.4l-.1 2.5s0 .4.4.4c0 0 .7 0 .7.5 0 0 .1.8-.8.7 0 0-.3 0-.4.2v1s0 .5-.6.4h-3.4c0-.1 0-.1 0 0"/>
      <path stroke="#000" stroke-width=".2" d="M668.3 17.3s-.2.7-1.2 0l-3.4-.1s-.4.1-.5-.4v-1s0-.2-.4-.2c0 0-.6 0-.7-.5 0 0-.1-.7.8-.7 0 0 .3.1.4-.2v-2.9s0-.2-.4-.2c0 0-.7 0-.8-.3 0 0 0-.7.4-.8h.7s.1 0 0-.4v-.9s.1-.2.5-.2h.7l.2-.3h.4s.4.4 2.3.3h.3s.4.3.6 0h1.2s1 .3 1.6-.3h.2s.3.6.5.4h.7s.2.4.1 1.2c0 0-.1.3.5.3 0 0 .7-.1.6.5 0 0 .1.7-1 .6v.4l-.1 2.5s0 .4.4.4c0 0 .7 0 .7.5 0 0 .1.8-.8.7 0 0-.3 0-.4.2v1s0 .5-.6.4h-3.4c0-.1 0-.1 0 0Z"/>
      <path fill="#fff" d="M664.5 9v6.2s0 .4-.3.7l-.1-.3v-6s0-.8.4-.8"/>
      <path stroke="#000" stroke-width=".2" d="M664.5 9v6.2s0 .4-.3.7l-.1-.3v-6s0-.8.4-.8Z"/>
      <path fill="#fff" d="M663.9 16v-5.8s0-.9.2-1.3c0 0-.1-.4-.6 0v.9s0 .4-.4.4c0 0-.5 0-.7.2 0 0-.2.4.3.4 0 0 .7 0 .8.3v3s.1.6-.5.6c0 0-.7 0-.7.4 0 0 .2.3.7.2 0 0 .5.1.5.5v.7s0 .3.3.4h3.2l.1-.2s0-.2-.2-.2h-2.6s-.4.1-.4-.5"/>
      <path fill="#fff" d="M664.4 16s0 .3.3.2h2l.6.1s.6 0 0-.4h-2l-.5-.2s-.2 0-.4.3"/>
      <path stroke="#000" stroke-width=".2" d="M664.4 16s0 .3.3.2h2l.6.1s.6 0 0-.4h-2l-.5-.2s-.2 0-.4.3Z"/>
      <path fill="#fff" d="M667.9 16.3s-.4 0-.4.5c0 0 0 .4.5.4 0 0 .3 0 .3-.5 0 0-.2-.5-.4-.4Zm.3-.2.3-.2h2.3s.3-.1.4 0l.3.3s0 .2-.4 0h-2.4s-.6.3-.5-.1"/>
      <path stroke="#000" stroke-width=".2" d="m668.2 16 .3-.1h2.3s.3-.1.4 0l.3.3s0 .2-.4 0h-2.4s-.6.3-.5-.1Z"/>
      <path fill="#fff" d="M668.4 16.7s0-.2.3-.2h2.8s.3.2.3-.3l.1-4.6V9.4l-.1-.4s0-.3.3-.2c0 0 .3 0 .2.5v.6s0 .3.5.3c0 0 .6 0 .6.3 0 0 .1.4-.5.3h-.5s-.2.2-.1.4v3s0 .5.4.4c0 0 .5 0 .6.2 0 0 .3.5-.4.4h-.6v1.1s0 .6-.5.5h-3s-.3.2-.4 0Zm-3.6-8v6.5s0 .3.4.4h2.1s.2.2.2-.1c0 0 .2-5.3.1-6.4 0 0 0-.4-.4-.4h-1.6l-.6-.1s-.2 0-.2.2Z"/>
      <path fill="#fff" d="M668 9v5.9l-.2.9s.2.2.3 0h1l1.6-.1s.2 0 .2-.2V9.6s.2-.8.1-.9c0 0 0-.2-.3 0 0 0 0 .2-1.9 0 0 0-.8 0-.8.4Zm3.2 0v6.4s.2.6.4.5v-.3l.1-6.1s-.2-1-.5-.5"/>
      <path stroke="#000" stroke-width=".2" d="M671.2 9v6.4s.2.6.4.5v-.3l.1-6.1s-.2-1-.5-.5Z"/>
      <path fill="#000" d="M668.7 11c0-.2.4-.2.4-.2h.5c.1.3-.1.4-.1.4v2.4l.1.3c0 .1-.2 0-.2 0h-.6c-.2 0-.1-.1-.1-.1.2-.1.2-.5.2-.5v-2l-.2-.4Zm-2.7 1.8v.6l.1.3c.2.2 0 .3 0 .3h-.7v-.3c.2 0 .2-.3.2-.3v-2l-.2-.4c-.1 0 0-.2 0-.2h1.2c.8.2.6.8.6.8 0 .6-.5.8-.5.8v.4l.5.9.1.2c0 .2-.4 0-.4 0l-.7-1.2-.2.1Zm0-1.6v1c.4.3.6 0 .6 0 .5-.6 0-1 0-1.1-.2-.2-.5 0-.5 0Zm-4.2 9.4.2-.1.5-.1h1.3s1.3.2 1.8-.2h.4s.3 0 .3.2h.8s.4.1.4.4v.4l.1.8h.6s.5.2.4.5c0 0 0 .4-.4.4 0 0-.4.2-.5.1 0 0-.2.2-.2.5V26s0 .3.3.2c0 0 .7 0 .8.3 0 0 .2.6-.1.7l-.3.2h-.5s-.2 0-.2.4v.8s0 .4-.4.4h-.5s-.2.2-.5.1h-3.5l-.4.1s-.4.4-.8.1l-.3-.2H657s-.8.2-.8 0V28s0-.3-.2-.4l-.9-.1s-.4-.3-.3-.6c0 0 .2-.4.6-.4l.6-.1v-2.9s.1-.3-.1-.3h-.5s-.5 0-.6-.4v-.4s.3-.4.9-.3c0 0 .3 0 .4-.2v-1s0-.2.4-.4c0 0 .7.2.9-.1 0 0 .2-.4.4-.1 0 0 .4.3 1.5.3h1.8l.6.1h.1Z"/>
      <path stroke="#000" stroke-width=".2" d="m661.8 20.6.2-.2h1.8s1.3.1 1.8-.3h.4l.3.2h.8s.4.2.4.5v.3l.1.8h.6s.5.2.4.5c0 0 0 .4-.4.5h-.5s-.2.2-.2.5V26s0 .3.3.3c0 0 .7 0 .8.3 0 0 .2.6-.1.6l-.3.2h-.5s-.2.1-.2.4v.8s0 .4-.4.4h-.5s-.2.2-.5.1h-3.5l-.4.1s-.4.4-.8.1l-.3-.2h-.3l-3.8.1s-.8 0-.8-.2v-1s0-.3-.2-.4h-.9s-.4-.4-.3-.7c0 0 .2-.4.6-.4h.6v-3s.1-.3-.1-.3h-.5s-.5 0-.6-.4v-.4s.3-.4.9-.3c0 0 .4 0 .4-.2v-1s0-.2.4-.4c0 0 .7.2.9-.1 0 0 .2-.4.4-.1 0 0 .4.4 1.5.3h1.8l.6.1h.1Z"/>
      <path fill="#fff" d="M662.3 28.6s.3-.2.4-.1h2.6l1.1-.1.3-.1v-1.1l.1-.2v-5.6s.1-.4-.1-.6v-.2c.1 0 0 0 0 0h.5s.2.6 0 .8c0 0 0 .6.3.6 0 0 0 .2.3 0 0 0 .5.1.5.3 0 0 0 .4-.3.3h-.5s-.3.1-.3.5v3.1s0 .4.5.3c0 0 .7 0 .7.2 0 0 .1.4-.3.4 0 0-.9 0-.8.2v1.3s-.1.2-.7.2h-4c0 .1-.4 0-.3-.2Zm-.6-.4s.4 0 .4.4c0 .3 0 .5-.2.5s-.4 0-.5-.3c0-.2 0-.5.3-.6"/>
      <path fill="#fff" d="m662.1 28 .5-.2h2.6s.5 0 .6-.2l.3.1.3.4s0 .2-.4.1h-3.4s-.5.2-.5-.2"/>
      <path stroke="#000" stroke-width=".2" d="m662.1 28 .5-.2h2.6s.5 0 .6-.2l.3.1.3.4s0 .2-.4.1h-3.4s-.5.2-.5-.2Z"/>
      <path fill="#fff" d="M657.4 20.9v6.3s0 .4-.3.7c0 0-.1.2-.1-.1v-6.3s0-.4.4-.6"/>
      <path stroke="#000" stroke-width=".2" d="M657.4 20.9v6.3s0 .4-.3.7c0 0-.1.2-.1-.1v-6.3s0-.4.4-.6Z"/>
      <path fill="#fff" d="m657 20.9-.2.5v6.8s0 .5.3.3h3.8s.4 0 .2.2c0 0 0 .2-.2.1 0 0-1.6.2-3.2.1h-1s-.2 0-.2-.6v-.7s0-.3-.5-.3c0 0-.7.1-.7-.3 0 0 0-.3.8-.3 0 0 .5.1.4-.3v-3s0-.5-.3-.5h-.4s-.6 0-.6-.4c0 0 .2-.3.8-.3 0 0 .5.1.5-.4 0 0 0-1 .2-1 0 0 .5 0 .3.1"/>
      <path fill="#fff" d="M657.6 27.6s.3.3.8.3h2.7s.3 0 .3.2c0 0 0 .3-.4.2h-3.7s-.3 0 .1-.5l.2-.2Z"/>
      <path stroke="#000" stroke-width=".2" d="M657.6 27.6s.3.3.8.3h2.7s.3 0 .3.2c0 0 0 .3-.4.2h-3.7s-.3 0 .1-.5l.2-.2Z"/>
      <path fill="#fff" d="m666 27.3.4.5s.2.3.2-.2v-6.3l-.2-.4s-.3-.3-.3 0v6.5Z"/>
      <path stroke="#000" stroke-width=".2" d="m666 27.3.4.5s.2.3.2-.2v-6.3l-.2-.4s-.3-.3-.3 0v6.5Z"/>
      <path fill="#fff" d="M661.6 24.6v2.9s0 .3-.5 0h-2.6s-.7 0-.8-.3v-4.5s.1-1.4 0-1.6v-.5s0-.2.4 0c0 0 .1.2.7 0 0 0 .5.2 1 0h1.3s.4 0 .5.5v1.6h.2V21s.1-.2.5-.3h2.1c.3 0 .3.3 1.2-.2 0 0 .3 0 .3.2v2l-.1 3.4v1s0 .4-.6.5h-2.4s-.4-.1-.9.2v-2.3l-.1-1h-.2Z"/>
      <path fill="#000" d="M659.8 23.1v2.1l.2.3s.1.3-.1.2h-.6s-.3 0 0-.3v-2.6h-.2l-.3.3s-.1.3-.3 0v-.2l.2-.5h.1l.4.2h1l.3-.2v.2s0 .5-.2.6l-.2-.3s-.3-.3-.3.2Zm4.4-.5s-.7-.1-.7.7c0 0-.1.6.7 1 0 0 .7.3.6.6 0 0 0 .7-.7.4 0 0-.4-.2-.3-.4 0 0-.1-.2-.2-.1 0 0-.2 0-.1.7 0 0 0 .3.3 0h.1s.6.5 1 0c0 0 .6-.5.2-1 0 0-.3-.5-.7-.7 0 0-.5-.2-.6-.5 0 0 .1-.6.7-.3l.3.3s.2 0 .2-.4v-.3s-.1-.2-.4 0h-.4Zm-2.4-.5.2.3c.4 1 .7 2.7.7 2.7l.3.3c.4.1 0 .2 0 .2h-.5c-.3 0-.2-.1-.2-.1V25l-.2-.4h-.2s-.2.2-.3 0h-.1c-.3 0-.4.5-.4.5.2.5 0 .4 0 .4 0 .2-.5 0-.5 0-.1 0 0 0 0 0 .2-.1.3-.4.3-.4l.7-2.8s0-.3.2-.2Zm-.3 1.4-.2.7.1.2h.5v-.2l-.1-.7-.1-.2-.2.2Zm-5.2-6.2s-.2.7-1.2 0l-3.3-.1s-.5.1-.6-.4v-1s.1-.2-.3-.2c0 0-.7 0-.8-.5 0 0 0-.7.8-.7 0 0 .3.1.4-.2v-2.9s0-.2-.4-.2c0 0-.7 0-.8-.3 0 0 0-.7.4-.8h.6l.1-.5v-.8s0-.2.4-.2h.7l.2-.3h.4s.5.4 2.3.3h.4s.3.3.5 0h1.3s1 .3 1.6-.3h.2s.3.6.5.4h.7s.2.4.1 1.2c0 0-.1.3.5.3 0 0 .6-.1.6.5 0 0 .1.7-1 .6l-.1.4V14s0 .4.4.4c0 0 .7 0 .7.5 0 0 0 .8-.8.7 0 0-.3 0-.4.2v1s0 .5-.6.4h-3.4c.1-.1 0-.1 0 0"/>
      <path stroke="#000" stroke-width=".2" d="M656.3 17.3s-.2.7-1.2 0l-3.3-.1s-.5.1-.6-.4v-1s.1-.2-.3-.2c0 0-.7 0-.8-.5 0 0 0-.7.8-.7 0 0 .3.1.4-.2v-2.9s0-.2-.4-.2c0 0-.7 0-.8-.3 0 0 0-.7.4-.8h.6l.1-.5v-.8s0-.2.4-.2h.7l.2-.3h.4s.5.4 2.3.3h.4s.3.3.5 0h1.3s1 .3 1.6-.3h.2s.3.6.5.4h.7s.2.4.1 1.2c0 0-.1.3.5.3 0 0 .6-.1.6.5 0 0 .1.7-1 .6l-.1.4V14s0 .4.4.4c0 0 .7 0 .7.5 0 0 0 .8-.8.7 0 0-.3 0-.4.2v1s0 .5-.6.4h-3.4c.1-.1 0-.1 0 0Z"/>
      <path fill="#fff" d="M652.6 9v6.2s0 .4-.4.7l-.1-.3v-6s0-.8.5-.8Z"/>
      <path stroke="#000" stroke-width=".2" d="M652.6 9v6.2s0 .4-.4.7l-.1-.3v-6s0-.8.5-.8Z"/>
      <path fill="#fff" d="M651.9 16v-5.8s0-.9.2-1.3c0 0 0-.4-.5 0v1s0 .4-.5.3c0 0-.5 0-.7.3 0 0-.1.4.3.3 0 0 .8 0 .8.3v3.1s.1.5-.4.5c0 0-.7 0-.7.4 0 0 .1.3.7.3 0 0 .4 0 .4.4v.8s0 .3.4.3h3.1l.2-.1s0-.2-.3-.2h-2.6s-.4 0-.4-.6Z"/>
      <path fill="#fff" d="M652.4 16s0 .3.2.3h2.7s.6 0 0-.4h-2l-.5-.1s-.2-.1-.4.2"/>
      <path stroke="#000" stroke-width=".2" d="M652.4 16s0 .3.2.3h2.7s.6 0 0-.4h-2l-.5-.1s-.2-.1-.4.2Z"/>
      <path fill="#fff" d="M655.9 16.3s-.4 0-.4.5c0 0 0 .4.4.4 0 0 .4 0 .4-.4l-.4-.5Zm.2-.2.3-.2s2 .2 2.4 0h.3s.3.2.3.4h-2.7s-.6.2-.6-.2"/>
      <path stroke="#000" stroke-width=".2" d="m656.1 16.1.3-.2s2 .2 2.4 0h.3s.3.2.3.4h-2.7s-.6.2-.6-.2Z"/>
      <path fill="#fff" d="M656.5 16.7s0-.2.3-.2h2.8s.2.2.2-.3l.1-4.6V9s0-.3.3-.2c0 0 .3 0 .2.5v.7s0 .3.4.2c0 0 .6 0 .6.3 0 0 .2.4-.5.4h-.4s-.3.1-.2.4v2.9s0 .5.4.5l.6.1s.3.5-.4.5h-.6l-.1 1s0 .6-.4.6h-3s-.3 0-.3-.2Zm-3.6-8-.1 6.5s0 .3.4.4h2.1s.3.2.3 0c0 0 .1-5.3 0-6.4 0 0 0-.5-.3-.5h-1.7l-.5-.1s-.3 0-.2.2"/>
      <path fill="#fff" d="M659.2 9v6.4s.2.6.4.5v-.3l.2-6.1s-.2-1-.6-.5"/>
      <path stroke="#000" stroke-width=".2" d="M659.2 9v6.4s.2.6.4.5v-.3l.2-6.1s-.2-1-.6-.5Z"/>
      <path fill="#fff" d="M656 9v5.8l-.1.9s.1.1.2 0c0 0 .6-.2 1 0 0 0 1.3 0 1.6-.2 0 0 .2.1.3-.2V8.6h-.3s0 .2-1.9.1c0 0-.8 0-.8.3"/>
      <path fill="#000" d="m655.4 11-.2.3-.6 2.4s0 .4-.4 0l-.9-2.5-.2-.2s-.2-.2.1-.2h.8s.2.2-.1.4l.4 1.6s.2.4.3 0l.4-1.4-.1-.4s-.1-.2 0-.2l.5.1Zm1.1.3v2.3s-.2.2 0 .3h1.2s.6.2.5-.5c0 0 0-.3-.3 0 0 0 0 .4-.8.3 0 0-.2-.1-.2-.3v-.9s0-.2.4-.2l.4.1V12h-.2s-.1.3-.5.1c0 0-.2-.3 0-.6 0 0 0-.5.3-.4 0 0 .4 0 .4.2 0 0 0 .2.2 0v-.4h-1.6s0 .2.2.3v.2"/>
    </g>
    <g clip-path="url(#e)">
      <path fill="#fff" d="M811.9 6h6.6c1.6 0 2.8 1.3 2.8 2.9V31c0 1.6-1.2 2.9-2.8 2.9h-6.6A2.9 2.9 0 0 1 809 31V9c0-1.6 1.3-2.9 2.9-2.9Z"/>
      <path fill="#000" d="M816.8 11.1v.1l.5.4c.6.3 1.2 1 1.1 3l.4 1.6c.3.5.5.9.5 1.4l.2.9c.6.1.4.2.5.3 0 0 .4 0 .4.4l.3.4V9c0-1.2-1-2.2-2.3-2.2h-2c.3.1.5.3.6.5.2 0 .6.6 0 1.5.3.2.1.4 0 .7 0 0-.1.2-.3.2-.2.4-.4.8-.6.8v.3l.7.4Zm2 22.2c1-.6.3-1.7.2-2.4v-.4c-.2 0-.2-.6-.3-.9l.2-1.4-.5-1-.5-2.7-.8-1.4c-.3-.7 0-1.6-.7-3.6l.2-.2-.7-2.3c-.2-.5-.4-.5-.4-.5v-.3l.6-1.6.9-.5.5 2.5.9 1.8a2 2 0 0 0 .4 4 2 2 0 0 0 1.9-1.3v10c0 1.1-.8 2-1.9 2.2Z"/>
      <path fill="#000" d="M815.6 6.7c-.7.3-.8.6-.8 1.6-.1 0-.4-.1-.3.5 0 0 0 .4.2.3-.1 1 0 1.1-.6 1.2h-.5v.1c-.8 0-1.2 0-1.8.7l-.6 1.2-.3.8-1 2.2c0 .3-.2.3 0 .7.2.5-.1.6 1.1.6v.3l-.4.4-.3 1.5c0 1 1 2 1.2 3h.6c.3.8 1.7 2.7 2 3 0 .3.4.5.6.7l1.5 1.4 1 .6.2.7c-.4.3.4 1 .6 1.9 0 .1-.2.3.2.6 0 1.4-.5 2.2.2 2.6h-6.6c-1.2 0-2.1-1-2.1-2.2V8.9c0-1.2 1-2.2 2.1-2.2h3.8Z"/>
      <path fill="#000" fill-rule="evenodd" d="M824.7 6.7v26.6h2.8c0-6.9.2-13.8-.2-20.5l3.3 20.5h4.1V6.7H832c0 7 .2 14 .6 20.9l-3.4-21h-4.4Zm24.9 0-2.8 26.6h3.5l.4-5.4h2.3l.5 5.4h3.5l-2.7-26.6h-4.7Zm2.3 7.5.9 10.6H851l.9-10.6Z" clip-rule="evenodd"/>
      <path fill="#000" d="M837 6.7v26.6h5c1 0 3.8-.8 3.8-4.5v-5.3c0-.5 0-2.3-1.5-3.3 1 0 1.5-1.9 1.5-3.6V11c0-2.2-1.4-4.2-4.2-4.2H837Zm3 3.3h1.6c.7 0 1 .8 1 1.4v6.2c0 1-.4 1.1-1.1 1.1H840V10Zm0 11.6h1.6c.7 0 1 .8 1 1.4v5.5c0 .8-.4 1.3-1.1 1.3H840v-8.2Z"/>
    </g>
    <path fill="#000" fill-rule="evenodd" d="M20.6 82.3c-.4.3-1 .3-1.3.1-.5-.2-.8-.9-.8-1.7V78c0-1.2-.5-2.1-1.3-2.4-1.4-.4-2.5 1.3-2.9 2l-2.5 4v-4.9c0-1.1-.4-1.8-1-2-.5-.2-1.2-.1-2 1l-5.5 9a9.9 9.9 0 0 1 8.5-14.5c5.4 0 9.7 4.4 9.7 9.8 0 1.1-.3 2-1 2.3Zm3-2.3a12 12 0 0 0-11.8-12A12 12 0 0 0 0 80a12 12 0 0 0 11.8 12c3 0 5.9-1.1 8-3.2a1.1 1.1 0 0 0-.2-1.8 1 1 0 0 0-1.2.2 9.6 9.6 0 0 1-13.8-.6l5-8.2v3.8c0 1.8.8 2.4 1.4 2.5.5.2 1.4 0 2.4-1.4l2.8-4.5.2-.4v2.3c0 1.6.7 3 1.8 3.6 1.1.6 2.4.6 3.5-.1 1.3-.8 2-2.4 2-4.2Zm16.5-4.1c.3.2.6.6.6.9 0 .6-.5 1-1 1h-.4c-.7-.5-1.4-.8-2.3-.8-2 0-3.3 1.6-3.3 3.6s1.4 3.6 3.3 3.6c1 0 1.9-.4 2.5-1 .2-.2.4-.2.6-.2.6 0 1 .4 1 1 0 .3-.2.6-.5.8a5.5 5.5 0 0 1-9-4.2 5.5 5.5 0 0 1 8.5-4.7Zm5.6 2.3c2 0 3.8 1.8 3.8 4a4 4 0 0 1-3.8 3.9 4 4 0 0 1-4-4 4 4 0 0 1 4-3.9Zm0 6c.9 0 1.6-.9 1.6-2 0-1.2-.7-2-1.7-2s-1.8.8-1.8 2c0 1.1.9 2 1.8 2Zm5 .7v-5.5c0-.6.5-1 1.1-1 .6 0 1.1.4 1.1 1V85c0 .6-.5 1.1-1 1.1a1 1 0 0 1-1.1-1Zm-.1-8.7c0-.7.5-1.2 1.2-1.2s1.3.5 1.3 1.2-.6 1.3-1.3 1.3c-.7 0-1.2-.6-1.2-1.3ZM57 82v3c0 .6-.5 1.1-1 1.1a1 1 0 0 1-1.1-1v-5.8c0-.5.3-.9.8-.9s.8.4.8.9c.9-.8 1.6-1 2.4-1 2.1 0 3 1.6 3 3.5V85c0 .6-.4 1.1-1 1.1a1 1 0 0 1-1.1-1v-3c0-1-.1-1.8-1.5-1.8-.9 0-1.3.8-1.3 1.7Zm11.9 1.2a.7.7 0 0 1-.5-.3L65.9 80v4.8c0 .6-.5 1.1-1.1 1.1a1 1 0 0 1-1-1v-9.6a.4.4 0 0 1 .3-.3c.2 0 .4.1.5.3l4 4.4c0 .2.2.2.3.2 0 0 .2 0 .3-.2l4-4.4c.1-.2.3-.3.5-.3.1 0 .3.1.3.3v9.5c0 .6-.4 1.1-1 1.1s-1-.5-1-1v-5l-2.6 2.8c-.1.1-.3.3-.5.3Zm10.3 1c1 0 1.8-.8 1.8-2 0-1.1-.9-1.9-1.8-1.9-1 0-1.7.8-1.7 2 0 1 .7 2 1.7 2Zm2.3 1V85c-.5.8-1.8 1.2-2.7 1.2-2 0-3.5-1.8-3.5-4 0-2.1 1.6-3.9 3.6-3.9.4 0 1.6.1 2.5 1.2v-.2c0-.5.4-.9.9-.9.4 0 .8.4.8.9v6c0 .4-.4.8-.8.8a.8.8 0 0 1-.8-.8Zm7.5-4.9h-.2c-1.3 0-1.6.8-1.6 1.7v3c0 .6-.5 1.1-1 1.1a1 1 0 0 1-1.1-1v-5.8c0-.5.3-.9.8-.9s.8.4.8.9a3 3 0 0 1 2.1-1h.2c.5 0 1 .5 1 1s-.4 1-1 1Zm8.3 4.2.1.5c0 .6-.5 1.1-1 1.1-.4 0-.7-.3-1-.6l-2.4-3V85c0 .6-.5 1.1-1.1 1.1a1 1 0 0 1-1-1v-8.8c0-.6.4-1.1 1-1.1s1 .5 1 1v5.5l2.5-2.7c.3-.3.6-.6 1-.6.5 0 1 .5 1 1 0 .2 0 .4-.2.6l-1.9 2 2 2.4Zm4.2-4.2c-.6 0-1.6.3-1.6 1.2h3.1c0-.9-1-1.2-1.5-1.2Zm2.8 2.6h-4.4c0 1.3 1.3 1.5 1.8 1.5.4 0 1 0 1.4-.3l.6-.2c.5 0 .8.5.8 1 0 .3-.2.5-.4.7a4 4 0 0 1-2.4.6c-2.1 0-4-1.2-4-3.9 0-2.1 1.2-4 3.7-4 2.1 0 3.7 1.4 3.7 3.8 0 .4-.4.8-.8.8Zm6 3.3h-.6c-1.7 0-2.6-.7-2.6-3.3v-2.6h-.6a1 1 0 0 1-1-1c0-.5.5-1 1-1h.6v-2c0-.6.4-1.1 1-1.1s1.1.5 1.1 1v2.1h.9c.5 0 1 .5 1 1s-.5 1-1 1h-.9v2.2c0 1.5 0 1.8.7 1.8h.3c.5 0 1 .4 1 1 0 .5-.5.9-1 .9ZM120.6 76c.3.2.5.6.5.9 0 .6-.4 1-1 1h-.3a4 4 0 0 0-2.3-.8c-2 0-3.3 1.6-3.3 3.6s1.3 3.6 3.3 3.6c1 0 1.9-.4 2.5-1 .2-.2.4-.2.6-.2.5 0 1 .4 1 1 0 .3-.3.6-.5.8a5.5 5.5 0 0 1-9-4.2 5.5 5.5 0 0 1 8.5-4.7Zm5.4 8.3c1 0 1.8-.9 1.8-2 0-1.2-.8-2-1.8-2s-1.7.8-1.7 2c0 1 .8 2 1.7 2Zm2.3 1V85c-.5.8-1.8 1.2-2.6 1.2-2 0-3.5-1.8-3.5-4 0-2.1 1.5-3.9 3.6-3.9.3 0 1.5.1 2.5 1.2v-.2c0-.5.4-.9.8-.9.5 0 .8.4.8.9v6c0 .4-.3.8-.8.8a.8.8 0 0 1-.8-.8Zm7.5-1c1 0 1.7-1 1.7-2 0-1.2-.7-2-1.7-2s-1.8.8-1.8 2c0 1.1.9 2 1.8 2Zm-1.8 1.3v2.7c0 .6-.4 1-1 1a1 1 0 0 1-1.1-1v-9c0-.5.4-.9.8-.9.5 0 .9.4.9 1 .7-.9 1.7-1 2.5-1 2 0 3.6 1.7 3.6 3.8 0 2.2-1.5 4-3.5 4-.6 0-1.6-.2-2.2-.6Z" clip-rule="evenodd"/>
    <g clip-path="url(#f)">
      <path fill="#000" d="M201.2 78.3v-4.9s-.1-.4.5-.2v5h-.5Zm.3 7s-.2.2-.3-.1v-3.3h.6v3.7l-.3-.2Zm-5.8-7-2 3v-7.8l2.1 1.1s.2-.2.3.3v3.4h-.4Zm-2.8 7.7s-.2.1-.2-.1v-12s0-.4.7-.5v12.9l-.5-.3Zm18 .5s-1.3-.5-1.4-2V73l-.2-.3-4.3-2.5s-.1-.2-.5.1l-3.7 2.3-3.6-2s-.2-.2-.4 0l-4.5 2.4-3.2-1.8s-.2-.3-.4-.1l-3.5 2.2s-.4.2.2.6h.2l2.4 1.8V86l-1.3.7s-.4.2 0 .5l4.4 2.3 3.4-2s.3-.1 0-.4l-.7-.5V82h2.3v3.6l-1 .7s-.4.2 0 .5l5.1 2.7 3.5-2.2s.3 0 0-.3l-1.6-1v-4.2l2.4-3.4H202v-4.9l2.2 1.2s.3-.1.3.4v11.1s.3 2.4 3.1 3.3l3.3-2.3c0-.1.2-.3-.2-.6Zm7.7-.2s-2-1-3-2.7a5 5 0 0 1-.4-3.4s.1-1.6 2-2.5l2.6 1.8V86s-.4.6-1.2.3Zm8.8.1-2.1-1.4v-5.7l.1-.3.8-.6s.2-.3-.1-.6l-5.2-2.7s-.2-.3-.6 0c0 0-5.3 2.2-7.5 5 0 0-1.6 1-1.4 5.3.1.6.8 3.4 4.8 4l3-2.4s0-.3.3 0l5 2.4 3-2.4-.1-.6Zm2.6-10.7s-2.9 1.7-3.1 2.1c-.2.3 0 .5 0 .5l1.5.9c.4.1.3.3.3.3v6.4l-.7.6c-.3.3 0 .5 0 .5l4.4 2.3 3.4-2.3c.2-.1 0-.3 0-.3l-1.6-1c-.2 0-.1-.2-.1-.2s-.2-5.8 0-6.3c0-.5.2-.3.2-.3l.8-.4c.3-.2 0-.4 0-.4s-4.2-2.2-4.5-2.5a.4.4 0 0 0-.6 0Zm.8-.7c.2.3.6.2.6.2 1.8-.7 2.5-2.4 2.5-2.4.5-1.7-.6-2.1-.6-2.1-1-.6-1.6-.1-1.6-.1-1.1.6-1.4 1.7-1.4 1.7-.3 1.4.5 2.6.5 2.6Zm5.6-2.5 5.5-1.7c.7-.2.7.1.7.1s-.2 14 0 14.6c0 .4.3.3.3.3l1.3 1c.3 0 .2.3.2.3l-2.8 2.2s-4.5-2-4.9-2.3c-.5-.3-.1-.4-.1-.4l.8-.9s.1-11.4-.1-12c-.2-.7-1-.9-1-.9v-.3Z"/>
      <path fill="#4E6176" d="M260.2 80.4c0-5-1.6-7.5-5.2-7.5-3.4 0-5.2 2.2-5.2 7.5v.4c0 5.2 1.8 7.4 5.2 7.4 3.4 0 5.2-1.9 5.2-7.3v-.5Zm-5.2 9c-4 0-6.7-2.6-6.7-8.3v-1c0-5.4 2.5-8.3 6.7-8.3 4.4 0 6.7 3 6.7 8.4v.9c0 5.6-2.4 8.3-6.7 8.3Zm18.2-.4v-9.7c0-1.4-1.1-2.4-3-2.4-1.8 0-3.6 1-4.3 2.8v9.4h-1.4V76.2h1.3v2.4c.5-1.4 2.3-2.8 4.8-2.8 2.4 0 4 1.3 4 3.8V89h-1.4Zm6.1-17h-1.4v17h1.4V72Zm3.5 17h1.4V76h-1.4v13Zm-.2-14.4h1.8v-2h-1.8v2ZM296.4 89v-9.7c0-1.4-1.1-2.4-3-2.4-1.8 0-3.5 1-4.3 2.8v9.4h-1.4V76.2h1.3v2.4c.6-1.4 2.3-2.8 4.8-2.8 2.4 0 4 1.3 4 3.8V89h-1.4Zm9.9-12c-2.4 0-4.3 1.6-4.3 5h8.4c0-3.4-1.6-5-4.1-5Zm-4.4 6c0 3.6 2 5.2 4.7 5.2a9 9 0 0 0 4.3-1v1.2c-1 .6-2.7 1-4.5 1-2.7 0-5.9-1.5-5.9-6.3v-1c0-4 2.5-6.3 5.7-6.3 3.5 0 5.6 2.4 5.6 6.3v1h-9.9Z"/>
    </g>
    <g clip-path="url(#g)">
      <path fill="#000" d="m382.3 69-4.5 17.5 17.4 4.5 4.5-17.5-17.4-4.5Zm58 2v18h18V71h-18Zm20 0 7.1 8.9-7 9.1h8.7l2.7-3.6 2.9 3.6h8.7l-7.3-9.2L483 71h-8.7l-2.5 3.3L469 71h-8.7Zm-102.9 0v18h8v-6.7c2.1 0 3.2 2 3.5 6.7h8.3a16 16 0 0 0-3.5-8.6 5 5 0 0 0 2-4c0-2.7-2-5.4-6.5-5.4h-11.8Zm44.2 0v18h12.6c4.2 0 6.1-2.2 6.1-5 0-1.5-.5-2.9-2.8-4.1 1.8-1 2.4-2.4 2.4-3.9 0-2-1.2-5-7-5h-11.3Zm21.2 0v18h15v-4.5h-7V71h-8Zm-13.2 3.6h.5c1.6 0 2 .7 2 1.7 0 1.3-.6 1.8-2.3 1.8h-.2v-3.5Zm-44.2 0h.5c1.5 0 1.9 1 1.9 1.9 0 1.1-.7 1.7-2.2 1.7h-.2v-3.5Zm22 3.3 3.5.8-.9 3.4-3.4-.8.9-3.4Zm60 .3h3.6v3.6h-3.5v-3.6Zm-37.8 3h.5c1.7 0 2.3.8 2.3 2 0 1.3-.7 1.8-2.6 1.8h-.2v-3.9Z"/>
    </g>
    <g clip-path="url(#h)">
      <path fill="#000" fill-rule="evenodd" d="M531.7 76s.6.7.8 1.3v1.8l-.3 2c0 .9.1 1.1.3 1.5l.1 1-.1 3.1-.2 2 .4.9.5-.5.4.7a4 4 0 0 0 1.3.8l1.3.4 4.1-1.7 1 .5 2.3 1 1.5.2 1.6-.4 1.1-.4.3-1.5-3.1-2-.7.4-.3-3.3-.4-2.7.4-.3-.4-2.6.2-2 .2-1v-.7l-1-.4-1 .4-1.8-.8-1.7 1 .2 1h2.8l1.2.7v.8l-.4.4-.1 2.2-.3 3a12 12 0 0 1-.8 3.4l-2.3 1.3c-1.2.4-2.2.4-2.2.4l-1.8-.8-.7-4.2v-1l.3-1.9-.4-.4.4-2 .3-1.4v-.8l-.2-1-1.5-.4-1-.3h-1l-1.1.1-.8.8.3.5.1.3.4.1.5.7 1-.2h.3Zm17.7-2.2 1.3-.2 1.8-.2 3 .3.3-.5.6.6h1.2l2.4.7 1.8 2v1c0 .6.2 1.4.1 1.6l-.5 2-2.2 1.9s.9 1.7 1.2 3c0 1.3-.3 2.5-.3 2.5l.5.7 1-.1.3-.3 1 .4-.5 1.7-1.3-.3-.4.3-.5-.6-.4.4s-.6-.7-1-2c-.5-1.6.1-2.4.1-2.4l-.4-1.9L557 83l-2.8-.7-.3.4.1 1.5.2-.2v1.3h-.2v.3h-.1v3l.4.3 1.3.2h1v.3l.4.4-.8.8-.6-.1-.7-.2-.2.3-1.3-.1-3 .4-.9-.7v-1.1l2.7-.8.4-3.9-.4-.8.1-1.1-.3-3.2.5-1-.1-1.2-.2-1.3h-.2l-.3.4-2.3-.7-.3-.8v-.9h.3Zm4.8 2.6 1.1-.1 1.3-.1h1.4l1.3 1.1-.1.5-.1.4.2.3v.6l-.6 1.3-1.8.5-.8.3h-.4l-.1.4-.7-.8h-.7l-.2-2.3-.1-2h.3Zm9.8-10.8s.4.7 1 1.1l1.3.7 1 .2.5 2.4.3 1.5-.3 3.4v2.7l.2 2.3.2 1.7c.2.6 0 1.5-.1 2.3l-.3 2.7h1.5l.6-.6h1.2l.5.7h4.6s1-.6 1.7-1.5c.7-.8 1-1.3 1.3-2.2.6-1.6 1-3.3 1.3-5l-.3-.3-.1-1.7-.1-1.1-1.3-1.7-.5-.8-.7-1.5-1.1-.4h-.6l-.9-.2h-.6l-.5.2-1.3.5-1.3 1-.4.5h-.8l-.2-.5.6-3.3-.4-1.2.4-1.7-.4-.7-.2-.7-2.2-.1c-1.4-.1-2.3-.4-2.6-.3-.4.2-.5.4-.8.8l-.2.8Zm8.6 7.6s-.5.5-1.3 2a8.2 8.2 0 0 0-1.1 2.8l-.3 1.8.1.9v.7s.6 1.2 1.6 1.9l2 1.4c.4.2 1 .2 1 .2l.5-.5.7-.5c.4-.7.8-1.3 1.3-1.8l.4-2.6-.2-1-.3-1 .1-.3-.1-1.2-.1-.7-.8-1-.8-1.2h-.6l-.8-.2-.6.2h-.7Zm15.8 1.4-.4.5-.4.3-.4.2-.8.7h-1.1l-.7-1.6-.2-.6c0-1 0-2 .4-3l1-.8 1.7-.9.6-.2h.3V69l.4-.2h.9l.7.2h1.6l1 .3 2 .7.6.8.6.7.2 2 .1 2.3v2.4h-.3l.2 1 .1 1.1-.1.3-.2.2.7.7.5.6.6-.1 1.2-.1h.4l.1 1.5.2 1.2-1.2 1.3h-1l-1 .2-1.2-.8-1-.7-2 1.3-2 .6h-2.1l-1.8-.1-1.5-.2-.9-1-.6-.8-.4-2.3v-2l.5-1 .7-1 2.4-.8 1.2-.2.9-.1 1.8-.8.8-.5.2-.3h.4l1-.4.6-.1.3-.4.4-.3v-1.1l-1.5-1-1.8-.7-1-.2-1 .2-.9.3-.4.4-.2.5-.1.1v.8l.6.9.3.1Zm-.8 5-2 1.2.2 2 .8 1.1h3.4l1-.4 1.2-.4h.2l1.1-2-.1-1.2v-1.3h-1l-1.5.4-1 .4h-2.6l.3.1Zm14.6-10.8-1.7 1.4.3 1 .7.2 1 .2.3.2.4.4-.2.9.3 1.1.4 1h-.9v1l.8 1.1-.3 1.6-.5 1 .3.3-.4 1.5v.1l.4.7-.1.9v.5l-1.6.8-.8 1.5 1 .4 1.4.3.9-.4.9.2.9.3v-.1l.2.2.4-.6h.3l1.3.2.7-.6v-.8l-.2-.2-.4-.7h-.7L606 84l-.2-4.3-.3-3.2.3-.2-.3-1.9v-.5l.1-.4 1.2 1.7 1.2 2.6.6 1.4.8 1.3-.2-2.3c0-1-.3-1.7-.5-2.2l-.7-1.8.2-1-1.3-1.2.5-1.6-.9-.9H605l-.5-.2-.3.2-1.1-.2c-.3-.3-1-.4-1-.4Zm7.3 11.4 1 .3h1v.2h1.1v1.1l.5.8-.2.3h.1l.1 2.7-.3.5-.4.6-1-.2c-.6-.3-.8-.8-.8-.8v-.8l-.6-.6h-.5v-1.4l.5-.6-.3-.6-.3-.5.3-1h-.2Zm2.1-.2h.9v-1l.1-1.7-.1-.8V76l.4-1.4v-.7h-.3l.3-.1-.1-.9-.2-.8.3-.2.2-.3 1.2.3.7-.7.5-.8.1-.3-.8-.6-.6-.5h-.7l-1.5.3h-1l-.8-.3-1 .4-.7.3-.3 1 .6.8.9.2.9.3.1-.1.3.2.2.3.1 1.5.3 2v.7c-.3.2-.5 1.6-.5 1.6l.2.9.3 1Z" clip-rule="evenodd"/>
      <path fill="#000" d="m562 86.2 64.7 2.2v7.8L562 94v-7.8Z"/>
      <path fill="#fff" fill-rule="evenodd" d="M580.1 89.4c0-.3.3-.6.6-.6h2.4c.4 0 .6.3.6.6v.6h-.9v-.6H581v1.9h1.8v-.7l1 .3v.5c0 .4-.3.6-.7.6h-2.4c-.3 0-.6-.2-.6-.6v-2Zm-4.4-.7h1v3.2h-1v-3.2Zm16 .2h1v3.3h-1v-3.3Zm-4.4 0h1v3.3h-1v-3.3Z" clip-rule="evenodd"/>
      <path fill="#fff" fill-rule="evenodd" d="m586 88.8 3.8.1v.7H586v-.8Zm17 .5 2.3 2v-1.9h.9v3.3h-.8l-2.2-2-.1 1.8h-1l.2-3.2h.7Zm-7.7.4c0-.4.3-.6.7-.6h2.8c.4 0 .7.3.7.7v2c0 .4-.3.6-.7.6H596c-.4 0-.7-.2-.7-.6v-2.1Zm1 .1h2.1v1.8h-2.2v-1.8Zm14.4-.4 1.8 3.3h-1l-.4-.7h-1.8l-.4.7h-1l2-3.3h.8Zm.1 1.9-.5-1-.5.8h1v.2Zm3.5-1.7h3.1c.3 0 .5.2.5.5v.9c0 .3-.2.5-.5.5h-.4l1.4 1.2h-1.3l-1.2-1.2h-.6v1.2h-.9v-3.1Zm1 .6v.7h1.6l.1-.2v-.4h-1.8Zm4.2-.5h1.3l1 1.2 1-1h1.2l-1.8 1.6V93h-1v-1.4l-1.7-1.8Zm-49.6-1.2h2c1 0 1.6.8 1.6 1.6v.1c0 1-.8 1.6-1.5 1.6h-2.5v-3.3h.4Zm.5 2.5h1.3c.4 0 .8-.4.8-.8v-.1c0-.4-.4-.8-.8-.8l-1.3-.1V91Z" clip-rule="evenodd"/>
    </g>
    <g fill="#000" clip-path="url(#i)">
      <path d="M686.7 80.5h-1.2V66h3.5c3.7 0 4 0 4.9.3A5 5 0 0 1 697 69c.3.6.4 1.1.4 2 0 1.7-.7 3.2-2 4-.4.3-.4.3-.3.4l2.9 5.1h-4.6l-1.4-2.3-1.4-2.4h-.9v4.6h-3Zm5-8c1-.2 1.5-.7 1.5-1.4 0-.6 0-1-.4-1.3-.4-.4-1-.5-2.4-.5h-.7v3.3h.9l1.1-.1Zm11 8.2a5.3 5.3 0 0 1-3.3-1.6 6 6 0 0 1-1.6-4c0-.8 0-1.3.2-2 .7-2.3 2.8-3.7 5.8-3.8h1.2a6 6 0 0 1 5 4.7v2.3c-.5 2.2-2 3.6-4.3 4.2-1 .2-2.2.3-3 .2ZM704 79c.5-.1.7-.4.7-.9l-.1-.5c-.3-.7-.3-.6-.2-.8l.2-.2c.1 0 .2 0 .5.4s.8 1 1.2 1.1c.3.2.4.2.7.2.3 0 .4 0 .6-.2.3-.3.4-.4.4-.9 0-.4-.2-.8-.7-1.1-.2-.2-.8-.4-1.3-.4s-.7-.2-.8-.4c0-.2 0-.4.2-.6l.7-.1.7-.1c.7-.4.7-1.7 0-2.1-.1-.2-.2-.2-.5-.2-.7 0-1.2.5-1.4 1.3l-.1.3c-.2.1-.4.2-.7 0-.2 0-.2-.3 0-1 0-1 0-1.4-.5-1.7-.2-.1-.7-.2-1 0-.3 0-.6.3-.7.6-.2.5 0 .9.5 1.5.3.2.5.5.5.6.1.2-.2.5-.5.5-.2 0-.3-.2-.6-.6-.4-.7-1-.9-1.6-.6-.5.3-.6.8-.3 1.3.2.3.6.5 1.1.6.8.2 1 .3.8.6h-.5c-.5 0-.7 0-1 .2-.3.2-.5.3-.6.7a1 1 0 0 0 1 1.2c.4 0 .7-.1 1.2-.6s.6-.5.7-.4c.2 0 .2.3.1.6-.3.7 0 1.5.6 1.7h.7Zm11.6 1.5c-1.9 0-3-.6-3.5-1.8-.4-.8-.5-1.5-.5-3.9v-1.6h-1.1v-3.6h1v-3h4.3v3h1.7v3.7H716v3.4c.3.3.4.3 1.3.3h.8v3.6h-2.3Zm7.8 0c-2.2-.2-3.2-1.1-3.6-3.2V75c0-1-.1-1.7-.2-1.8h-1v-3.6h1.2V68l-.1-1.5h4.2v3.1h1.7v3.6H724V75l.1 1.8c.2.2.3.3 1.2.3h.9v3.5h-2.7Zm8.5-2.2a6.1 6.1 0 0 1-4.2-2.3 6.4 6.4 0 0 1-1.1-3.7c0-1.9.8-3.4 2.4-4.5 1-.7 1.8-1 3.4-1l1.4.1c.8.2 1.5.5 2 1a5 5 0 0 1 1.5 2c.3 1 .6 2.5.4 3.3v.2h-7.4l.2.4c.5.7 1.2 1 2.2 1a4 4 0 0 0 2-.5l.3-.2 1.2 1.1 1.2 1.2c.1.1 0 .2-.5.6a6 6 0 0 1-2.6 1.2c-.5.1-1.8.2-2.4 0Zm2.2-7.1c-.1-.6-.4-1-1-1.2-.5-.3-1.3-.3-1.9 0-.4.2-.8.7-.9 1.2v.1h3.8v-.1Zm4.6 3.9v-5.6h4.1v1.6l.3-.4c.5-.5 1.3-1 2-1.3 2-.7 4.4 1 4.7 3.5v7.6h-4.1V74l-.2-.3c-.2-.4-.6-.7-1.2-.7s-1 .4-1.3 1l-.1 3.5v3h-4.2v-5.4Zm1.5 18.5a6 6 0 0 1-3.3-1.4c-1-1-1.5-2.4-1.5-4 0-1.5.7-3 2-4l.4-.4h-.8l-1 .1.6-.7c.4-.3 1-.4 1.5-.3.5.1.4 0 0-.5l-.4-.5.2-.2.3-.2.4.5.4.7.3-.3c.4-.7 1-1 1.6-.8.4.1.4.1 0 .6l-.3.5h.9c1.7 0 3 .2 4 .9l1 1.1.8 1.7c.3.8.3 2.2.1 3-.1.7-.5 1.4-1 2-.8 1-2.3 1.8-3.9 2.2h-2.3Zm13.4.2a7 7 0 0 1-3-1.1c-1.1-.7-1.9-2-2.2-3.6-.2-.5-.2-1.5-.1-2a5.5 5.5 0 0 1 4.2-4.6 6 6 0 0 1 1.7-.1h1.5c1.9.6 3.1 2 3.6 4.1l.1 1.5v.9H752l.1.3c.5.8 1.3 1.2 2.3 1.2.8 0 1.6-.3 2.1-.6l.2-.2 1.2 1.2 1.3 1.2-.2.2c-1.1 1.2-3.4 1.8-5.4 1.6Zm2.2-7c-.1-.8-.7-1.3-1.5-1.4a2 2 0 0 0-2.3 1.3 75.5 75.5 0 0 0 2.2.2h1.6v-.2Zm7.9 7c-.6 0-1.4-.2-1.9-.4-.7-.2-1.8-.8-1.8-1l1.6-2.7.7.3a4 4 0 0 0 2.3.7c.6 0 1 0 1.2-.3.2-.3.1-.7-.3-.8h-1l-1-.1a4.1 4.1 0 0 1-3.1-2.5l-.1-1v-.6l.2-.4a4.8 4.8 0 0 1 4.6-2.7c.9 0 1.4.1 2.2.4l1.9.9a27.9 27.9 0 0 1-1.5 2.4c-.3-.1-1.6-.6-2-.6l-.8-.1c-.6 0-.7 0-1 .3l.1.6 1 .2c1.8 0 3 .4 3.9 1.3a3.5 3.5 0 0 1-.4 4.8c-.6.6-.8.8-1.6 1-.8.3-2.3.5-3.2.3Zm-31.5-.3-1.5-.2c-1.6-.4-2.3-1.3-2.6-3L728 88v-1.8h-1v-3.7h1.1v-3h4.2v3h1.7v3.7h-1.7v3.2c0 .2.3.4.4.5h1.8v3.6h-2.2Zm-14.2.3c-.8 0-1.7-.6-2.5-1.4-.6-.5-.8-.9-1.1-1.4a6 6 0 0 1-.7-2.6c0-1 .1-1.8.4-2.7.3-.9.7-1.4 1.2-2a4.3 4.3 0 0 1 4-1.3c.8.2 1.5.6 2.2 1.3l.3.3v-1.4h4v11h-4v-1.4l-.4.3a4 4 0 0 1-3.4 1.3Zm2.5-4c.8-.4 1.3-1.6 1-2.5-.1-.5-.6-.9-1.2-1-.5-.3-.9-.2-1.4 0-.6.3-1 1-1 1.7 0 .5.2 1 .5 1.4.6.5 1.5.7 2.1.4Zm-12 3a130 130 0 0 1 0-5.2c0-.8 0-.9-.3-1.2-.4-.3-1-.4-1.4-.3-.4.2-.7.6-.8 1v6.4h-4.2V87l-.2-.2a.9.9 0 0 0-.6-.6l-.5-.1h-.5c-.3.2-.6.6-.7 1.2v6.2h-4.2v-11h4v.5l.1.6.4-.4a3 3 0 0 1 1.3-.7 4 4 0 0 1 4.3 1l.3.3.1-.2c.5-.7 1.8-1.3 3.1-1.3a4 4 0 0 1 2.8 1c.7.8 1.2 1.9 1.2 3.2v3.7l.1 3.4h-4.2v-.8Zm-21.7 1c-.8-.2-1.4-.5-2.1-1a6.1 6.1 0 0 1-2.6-5.2 5.3 5.3 0 0 1 4.3-5.1 8 8 0 0 1 3.4-.1c1.8.3 3.3 1.5 4 3.2.8 1.6.8 3.4.1 5-.8 1.6-2.4 2.7-4.7 3-.5.2-2 .2-2.4.1Zm2-4a2 2 0 0 0 1.3-1l.2-.7c0-.5 0-.8-.2-1-.6-1.1-1.9-1.6-3-1-.5.2-1 .9-1 1.5-.2.9.5 2 1.4 2.3h1.2Z"/>
      <path d="M675.7 88.3v-5.2H672v-4h11.5v4h-3.6v10.5h-4v-5.3Z"/>
    </g>
    <path fill="#000" d="M843 68v24h-6V68h6Zm-18 2a10 10 0 1 1 0 20 10 10 0 0 1 0-20Zm24.2 4 1.8 1.8 1.8-1.8h4.2v4.2l-1.8 1.8 1.8 1.8V86h-4.2l-1.8-1.8-1.8 1.8H845v-4.2l1.8-1.8-1.8-1.8V74h4.2ZM825 76a4 4 0 1 0 0 8 4 4 0 0 0 0-8ZM5 144v-12h3.8v12H4.9Zm7.3 1v-14c0-1.2-1-2-2-2H0v3h1.4v12H0v3h10.5c1 0 1.8-.8 1.8-2Zm10.8-4.4v3.4h-4v-5h5.4v-3H19v-4h4.1v2.5h3.4V129H14.2v3h1.3v12h-1.3v3h12.3v-6.4h-3.4Zm10.2-4.5V132h4v4h-4Zm7.5 7.9v-4.3c0-1.1-.8-2-1.9-2 1.1 0 2-.8 2-1.9V131a2 2 0 0 0-1.9-1.9H28.3v3H30v12h-1.6v2.9h6.4v-3h-1.3v-5h4v5H36v3h6.3v-3h-1.4Zm25.7-8v-4h4.1v4h-4Zm7.6 1.2v-6.3a2 2 0 0 0-2-1.9H61.7v3H63v12h-1.4v3h6.2v-3h-1.3v-5h5.7c1 0 1.9-.8 1.9-1.8Zm6.1 6.8v-12h1.5v-3h-6.3v3H77v12h-1.5v3h6.3v-3h-1.5Zm12-3.4v3.4H88v-5h5.4v-3H88v-4h4v2.5h3.6V129H83.3v3h1.3v12h-1.3v3h12.4v-6.4h-3.5Zm9.9-4.5v3h2.7v4.9h-4v-12h4v2.5h3.6V131c0-1-.8-1.9-1.9-1.9h-7.2c-.5 0-1 .2-1.2.5-.4.3-.7.8-.7 1.4v14.2c0 .6.2 1 .7 1.4.3.4.8.5 1.3.5h9v-11h-6.3Zm17 4.5v3.4h-4.2v-5h5.5v-3h-5.5v-4h4.1v2.5h3.5V129h-12.4v3h1.4v12H110v3h12.4v-6.4H119Zm14 0v3.4h-4v-12h1.5v-3h-6.4v3h1.5v12h-1.5v3h12.4v-6.4h-3.5ZM60 145.2v-9h-7.5V132h4v2.6h3.6v-3.7c0-1.1-1-1.9-2.1-1.9h-7.2a2 2 0 0 0-1.9 2v8.1h7.5v5h-4v-3.4H49v4.4c0 1 .9 1.9 2 1.9h7c1.2 0 2.1-.7 2.1-1.8Z"/>
    <g fill="#000" clip-path="url(#j)">
      <path d="M209.9 143a6.5 6.5 0 0 1-5.2-3c.7-5.3 2.6-7 5.2-7s4.5 2 4.5 5-2 5-4.5 5Zm0-13.3a7.8 7.8 0 0 0-8 6 26 26 0 0 1-1.8-5.6h-6.4v8c0 2.8-1.3 5-3.9 5-2.5 0-4-2.2-4-5v-8h-3.6v8c-.1 2.1.6 4.2 2 5.9a7.3 7.3 0 0 0 5.6 2.3c4.4 0 7.5-3.3 7.5-8.2v-5.3c.8 2.8 2 5.6 3.7 8l-2 11.2h3.7l1.3-8 1.4 1c1.2.9 2.7 1.3 4.1 1.4h.4a8 8 0 0 0 8.2-8.4 8.1 8.1 0 0 0-8.2-8.3m52.6 2.2v-1.7h-3.6v15.6h3.6v-6.1c0-3.8.4-6.5 5.4-6.1V130c-2.3-.2-4.2.3-5.4 1.9m-25.3-1.7-2.6 11-2.9-11h-4.6l-2.8 11-2.7-11H218l4 15.6h4.5l3-11 3 11h4.4l4.3-15.6h-4Zm11.9 12.8c-2.6 0-4.5-2-4.5-5 0-2.9 2-5 4.5-5s4.6 2 4.6 5-2 5-4.6 5Zm0-13.3a8.1 8.1 0 0 0-8.2 8.3 8.2 8.2 0 0 0 15.8 3.2c.4-1 .6-2.1.6-3.2a8.1 8.1 0 0 0-8.2-8.3m24.1 8.4h.8l5 7.7h4.2l-5.9-8.5a7.7 7.7 0 0 0 4.8-7.1h-3.6c0 3.4-2.7 4.6-5.3 4.6V124h-3.7v21.8h3.6v-7.7Z"/>
    </g>
    <g fill="#000" clip-path="url(#k)">
      <path d="M379.7 129v10.5c0 5.5-2.6 8-6.8 8a6.3 6.3 0 0 1-5.8-3.7l2.5-1.1c.6 1.2 2 2 3.3 2 2.3 0 3.8-1.4 3.8-4.9v-.2a5 5 0 0 1-4 2c-3.3 0-6-2.6-6-6.5s2.7-6.3 6-6.3a5 5 0 0 1 4 1.8V129h3Zm-3 6.1c0-2.1-1.8-3.5-3.6-3.5a3.4 3.4 0 0 0-3.4 3.5c0 2 1.5 3.6 3.4 3.6s3.5-1.4 3.5-3.6Zm5 0c0-3.9 3-6.3 6.5-6.3 3.4 0 6.5 2.4 6.5 6.3s-3 6.4-6.5 6.4a6.3 6.3 0 0 1-6.5-6.4Zm10 0c0-2-1.7-3.5-3.5-3.5a3.4 3.4 0 0 0-3.5 3.5c0 2.2 1.6 3.6 3.5 3.6 1.8 0 3.4-1.4 3.4-3.6Zm16-6.1-5.1 12.3h-2.8l-5.1-12.3h3.3l3.2 8.4 3.2-8.4h3.3Zm13.2 0v10.5c0 5.5-2.7 8-6.9 8a6.3 6.3 0 0 1-5.7-3.7l2.5-1.1c.6 1.2 2 2 3.2 2 2.4 0 3.9-1.4 3.9-4.9v-.2a5 5 0 0 1-4 2c-3.3 0-6.1-2.6-6.1-6.5s2.8-6.3 6-6.3c1.6 0 3.2.6 4 1.8V129h3.1Zm-3 6.1c0-2.1-1.9-3.5-3.6-3.5a3.4 3.4 0 0 0-3.4 3.5c0 2 1.5 3.6 3.4 3.6 1.8 0 3.5-1.4 3.5-3.6Zm14.2-5.9-.6 2.9c-.7-.4-1.3-.5-1.8-.5-2 0-3 2-3 5.4v4.3h-3.1V129h3v2.7c.7-2 2-3 3.5-3 .8 0 1.6.2 2 .5Zm-75.8 4.2h.2v-.4l-.2-.1h-.2v.5h.2Zm-6 17-.2.1v.4h.1a.2.2 0 0 0 .2 0l.1-.2v-.2h-.2Zm7.7-5h-.2l-.1.2v.2h.5v-.4h-.2Zm-15.7 5.3-.1-.1-.2-.1h-.2v.4l.2.1h.2v-.3Zm17-12.8-.1.1v.2a.3.3 0 0 0 .2.3l.2-.1v-.4h-.2Zm-7.5-11-.5-.2a3.5 3.5 0 0 0-.4-1h-.2a4 4 0 0 1 .3.9l-.7-.3v-.4c0-.2-.2-.3-.3-.5h-.1v.2l.1.3v.3-.1l-.7-.3v-.6h-.2v.4a58.9 58.9 0 0 1-.2.2l-.4.1v.2l.5-.1h.1c.3 0 .5.2.7.3h.1l-.4.1h-.1s-.1.1 0 .2h.2c.2 0 .4 0 .6-.2l.5.3a3 3 0 0 1-.5.1v.2h.5l.3-.2.8.3c.1-.1 0-.2 0-.2Zm-17.3 18.8h-.2l-.1.2v.2h.4l.1-.2v-.2h-.2Zm21.4-15.2v-.2l.1-.7v-.1h-.2v.7l-.3-.4v-.9h-.1v.6l-.4-.5v-.9l-.1.1v.6a9.8 9.8 0 0 0-.7-.8h-.2v.1l.4.5.2.3-.4-.2h-.2v.1l.7.3h.1l.4.6h-.2l-.3-.2-.1.1v.1l.4.2h.3l.3.5h-.2l-.3-.2h-.2v.2l.5.2h.4l.5 1s0 .1 0 0h.1l-.5-1Zm-3.2-4h.2v-.4h-.4v.4h.2Zm4.6 5.5h.2l.1-.2a.3.3 0 0 0-.3-.3.3.3 0 0 0-.2.3v.1l.2.1Zm-18.3-4.8h.2v-.4l-.2-.1h-.2l-.1.3v.1l.3.1Zm-6.6 11.8.2-.1v-.4h-.3l-.2.2.1.2h.2Zm2-6.5h.1v-.4l-.2-.1h-.1l-.1.3v.1h.2Zm5-3.8h.2l.1-.2v-.2l-.3-.1h-.2v.5h.2Zm.4 20.3-.6-1h-.1s-.1 0 0 0l.4.8-.7-.3-.2-.4-.3-.5s-.1-.1-.2 0l.3.6.1.1-.7-.3-.2-.4-.3-.4h-.1v.2l.2.3v.1a26.6 26.6 0 0 1-1.4-.7v.2l1.4.7h-.6v.2s0 .1 0 0h.9l.7.3h-.9v.2s0 .1 0 0h1.2l.7.3-.8.2v.2l1.1-.3.5.3-.8.1v.2c.1 0 .7 0 1.1-.2l.4.1h.1v-.2l-1.2-.4Zm20.5-10.4-.2-.1-1.3.8-.2-1c.8-1 1.1-2.1 1-3.3 0-1.2-.5-2.5-1.3-3.9h-.1l-.8 1.8-.1.5-.4-1.2v-.2c0-.6 0-1-.3-2.3-.3-1.1-1.4-2-2.3-2.6a4.4 4.4 0 0 0-1-.5v1h-.2l-.2-.3-.7-.6-.4-.6v-.1l-1-.8-1.2-.6-1.4-.2c-.6 0-1.1 0-1.6-.3h-.2v.2c0 .3.2.7.4 1l-1 .6-.8.8v.2l1.7.1c.6 0 1.1 0 1.7-.2l.4.3c.7.3 1.4.5 2.1.5h1l.8-.2.6.5c.2 1.2.8 2.1 1.3 2.6l.2.3.2.1.8.8.9 1 .2.5.3.5a8 8 0 0 0-.2 2l-.3-.4-.7-.7h-.2c-.3 1-.4 2-.3 2.8.2.8.5 1.5 1 2l.6.6.6.5a5.2 5.2 0 0 0-.7 1.9l-.2-.4a4 4 0 0 0-.6-.7h-.1l-.6 1.5-.1.3-.2.2a7 7 0 0 0-.9 1.8c-.2.5-.2 1-.2 1.5h-.2c-1 .5-1.9 1.2-2.5 2-.2.4-.5.7-.8.9l-.8.3c.6-.7 1-1.5 1.3-2.5l-.1-.1a5.3 5.3 0 0 1-1.8.4c-.7.1-1.4.3-2 .6l-.9.6c-.2-.2-.5-.4-1-.5-.4-.2-1.7-.4-1.7-.4a11.5 11.5 0 0 1-2.2-.3l-.1.1c.3.7.9 1.3 1.5 1.7l.8.5-.2-.1-1.8-.6c-1-1-2.1-1.7-3.2-2.1l-.3-.1-.1-1.5-.8-1.6-.6-1-.6-1h-.2l-.4 1a6 6 0 0 0-1.2-2c1-.9 1.6-1.8 1.9-2.8.3-1 .4-2 0-3.2-.3 0-.6.2-.8.4l-.5.6v-.8l-.1-.5-.2-.5.2-.4.2-.4a8.3 8.3 0 0 0 3.1-3.6l.4-1.4.5-.3.5-.3h1.5l1.6-.1 1.4-.7 1-1.2.4-1.2-.2-.2c-.6.3-1.3.5-2 .6l-.8.2a4 4 0 0 0-2 1c-.4.4-.7.9-1 1.5a7.4 7.4 0 0 1-.9.4v-.4l.2-.6h-.2c-.8.3-1.2.7-1.8 1.1l-.5.5c-1.3 1.2-1.3 3-1.4 4.3v.3l-.2.4v.2a23.5 23.5 0 0 0-.8-1.8h-.1c-.5.7-.7 1.3-.9 2l-.3.6c-.4 1.8.4 3.6 1 4.8v.7a7.8 7.8 0 0 0-1-.8h-.2c0 1.3 0 2.4.4 3.3.3.9.8 1.6 1.5 2l1.5 1.4.2.3v.2h-.9s-.1.1 0 .2a11.9 11.9 0 0 1 1.6 2.1 4 4 0 0 0 2.1 1.3 7 7 0 0 0 2.7 0l3 .8-2.2.8v.3c0 .1 0 .2.2.3a10 10 0 0 0 2.4-.6c.2-.2.5-.2.9-.2h.6l.5-.1a20.3 20.3 0 0 0 3.4.7h.1l.2-.4-.1-.4-.1-.1-1-.1-1-.2a5 5 0 0 0 1.2-.8h.4a526 526 0 0 1 3.2 0c.8-.2 1.6-.6 2.3-1.3l1.5-1.5c.3-.5.6-.9.6-1.2v-.1l-.7.1.4-.8c.5-.2 1-.4 1.5-1 .5-.5 1.3-2.4 1.4-2.7l.3-2.2v-.8Zm-13.6-11.8-1.5-.1.7-.6 1-.7.4.5c-.4 0-1.3.4-1.3.4v.1l.1.1 1.4-.5.7.6a9 9 0 0 1-1.5.2Zm5.1.5h-.7c-.8 0-1.5-.1-2.2-.4 0-.1-1.2-.8-1.7-1.5l-.2-.2-.3-.8 1.5.2c.5 0 .8 0 1.3.2a4.6 4.6 0 0 1 2 1.3l.6.8.4.3h-.7Zm4.2 4.3-.9-.8-.4-.4a5.4 5.4 0 0 1-1.3-3.5h.3l.5.4c.8.5 1.9 1.4 2.2 2.4.3 1.3.3 1.8.3 2.3v.4a11 11 0 0 0-.7-.8Zm-15.5-5.4c.5-.4 1-.8 1.9-1h.7l2-.6-.4 1-1 1c-.4.4-.8.6-1.3.8l-1.5.1h-1.4c.3-.5.6-1 1-1.3Zm-5.5 6.7c0-1.2 0-3 1.3-4.2l.5-.4c.5-.4.9-.8 1.5-1v.3a8.2 8.2 0 0 1-.8 2.6c0 .2-.2.4-.3.5a7 7 0 0 1-2.2 2.3Zm8 16.3c-.6-.4-1-.8-1.4-1.4a13.2 13.2 0 0 0 2 .3 8 8 0 0 1 1.7.3l.9.6-.5.5-.6-.3-.4-.4-.2-.3h-.1v.2l.3.4-.5-.2-.4-.6h-.2c0-.1-.1 0-.1 0l.1.1.3.3-1.4-.5h-.1v.2l1.4.5h-.5v.1c-.1 0 0 .1 0 .1h.9l.6.2a2.2 2.2 0 0 1-.7.1l-.1.1v.1h.6l.4-.2.6.3-.5.6h-.2a10 10 0 0 1-2-1Zm-8.2-13 .6-.7.6-.4c.2 1 .2 2-.1 3-.3.9-1 1.8-1.8 2.6l-.2-.2.4-.8.2-.1.5-.3v-.2h-.1l-.4.2.3-.7.3-.2h.3l.1-.2s0-.1-.1 0h-.4l.2-.4.2-.2.4-.2v-.1c0-.1 0-.1-.1 0l-.4.1a29.8 29.8 0 0 0 .4-.7l.2-.2v-.1h-.3l.1-.3c-.1-.1-.2 0-.2 0l-.2.7-.2.7a16 16 0 0 1-1.4 2.9v-.8l.4-1 .4-.8c.3-.6.3-1 .3-1.6Zm-2.2-1.5.3-.7.7-1.7a9.3 9.3 0 0 1 .9 2.4v.4c.1 1 .2 1.7-.2 2.6l-.4.7c0 .3-.2.6-.4.9 0 0-1.3-2.9-.9-4.6Zm1.7 9.8a3.9 3.9 0 0 1-1.5-2c-.3-.8-.4-1.8-.4-2.9l.5.3.6.5a7 7 0 0 1 1.9 3v.6c0 .5 0 1.1.3 1.8-.4-.5-.9-1-1.4-1.3Zm1.3-.5c0-.7 0-1.3.3-1.8a6.4 6.4 0 0 0 1.1 1.8c.4.5.6 1 .8 1.5l.1 1.4a7 7 0 0 0-.6-.2v-.2c0-.3.2-.6.3-.8v-.2h-.2l-.3.7-.2-.6.1-.3.2-.4v-.2h-.2l-.2.5v.1-.2a14.5 14.5 0 0 1-.2-.3v-.3l.3-.3v-.2h-.2l-.2.4-.2-.9h-.2l.2 1-.4-.2h-.1v.1a2.2 2.2 0 0 0 .6.4 30 30 0 0 0 .2.6h-.1l-.4-.2h-.2v.2c.2 0 .3 0 .5.2l.3.1.4 1-1-.2v-.2c-.4-.9-.5-1.6-.5-2.3Zm5.7 6h-2.6c-.8-.2-1.5-.6-2-1.3l-.9-1.2-.6-.8c1 0 2 .1 3 .6 1.2.4 2.2 1.1 3.3 2l1.8.7 1.4.4h.2c0 .2-.2.3-.4.4l-3.2-.9Zm7.8 1.3 1 .1v.5a10.2 10.2 0 0 1-3-.6 6 6 0 0 0 .9-.3l1.1.3Zm.2-1.4c-.7.7-1.8 1.2-3.1 1.4h-.6c-.4 0-.8 0-1 .2a11 11 0 0 1-2.2.6l-.1-.1v-.1c.8-.2 1.6-.5 2.2-.9.6-.3 1-.8 1.3-1.3h.1c.4-.6.9-1 1.4-1.3.6-.3 1.3-.5 2-.6a4.5 4.5 0 0 0 1.5-.3 5 5 0 0 1-1.5 2.4Zm8-15.4.3-1.6.7-1.5a7.8 7.8 0 0 1 1.1 3.6 5 5 0 0 1-.9 3.1v-.3l-1.1-1.7-.2-.1v-1.5Zm0 5.3-.6-.4c-.5-.6-.8-1.3-1-2-.1-.8 0-1.6.3-2.6a23.4 23.4 0 0 0 1.2 1.5 5.1 5.1 0 0 1 1.4 3.2l-.3.3-.5-.8.1-.7v-.5h-.2v1l-.5-1v-.4l.1-.6v-.1h-.2v1l-.7-1.5h-.1s-.1 0 0 .1l.6 1.5-.3-.1-.4-.3h-.2v.1l.5.4.5.2.4.8-.8-.5h-.1v.2l1.1.6.5.9-.2.3-.6-.5Zm-.1 6.4-.6 1-1.4 1.5c-.7.6-1.4 1-2.2 1.2-.8.2-1.7.2-2.6 0l.3-.2.8-1a5.6 5.6 0 0 1 3-2l.7-.2s1.4-.1 2-.3Zm-.7 0h-1l.2-.2.2-.6.4-.2.4-.4v-.2h-.2a2.8 2.8 0 0 1-.5.6l.1-.9.3-.1.3-.4v-.1h-.1a5.7 5.7 0 0 1-.4.4l.2-1.3-.1-.1-.2.1-.1 1.3-.1-.1a5 5 0 0 1-.2-.4h-.1l.1.5.2.2-.1.8-.1-.1-.2-.5s-.1-.1-.2 0l.2.6.2.3-.2.5a5 5 0 0 1-.3-.3v-.2s-.1-.1-.2 0v.3l.4.4v.1l-1.1.3c0-.4 0-.9.2-1.4l1-1.7.2-.5.5-1.4.4.6c.1.2.3.4.3.7.5 1.2.2 2.4-.4 3.3Zm3.6-6.8-.3 2.2s-.9 2.1-1.3 2.6a5 5 0 0 1-1.3.9c.2-.8.2-1.6 0-2.4l.1-.7.2-.7a4.9 4.9 0 0 1 1.3-1.7 6 6 0 0 1 1.3-.8v.6Zm-26.4-1.1v-.9c.2-.1.3-.4.4-.6l.2-.3v-.2h-.2l-.2.4-.2.4v-.9l.3-.4.2-.3v-.1h-.1l-.3.3c0 .1 0 .2-.2.3v-.8c.2-.1.3-.6.4-.7v-.1h-.2l-.2.5v-1.6h-.2v1.5l-.2-.3s-.1-.1-.2 0l.4.7v.7l-.4-.5h-.2c.1.4.4.6.6.8v1c0-.2 0-.3-.2-.4l-.2-.4h-.2l.3.6.4.4v1l.2-.1Zm1.1 5.6v-1.1h-.1v.7l-.3-.5-.1-1.1-.2-.1v.7l-.2-.4v-.6l-.1-.5h-.2v.6a146.5 146.5 0 0 0-.1.2h-.1l-.5-.2c-.1.1 0 .2 0 .2l.4.2.4.1.2.5.1.2h-.2a.5.5 0 0 0-.5-.3h-.1v.2l.5.2.5.2.3.6-.8-.4h-.1v.1l.8.4.1.1h.1l.3.6h.2v-.1c0-.2-.2-.4-.3-.5Zm.7-10.7v.4h.3l.2-.2-.1-.2-.2-.1h-.2ZM350 148a53.8 53.8 0 0 1-1.3.7l.1-.4v-.1h-.2l-.2.5v.4c-.2 0-.4.2-.5.3a2.1 2.1 0 0 1 .2-.6v-.3h-.1l-.1.2-.1.1-.2.7-.6.4v-.4l.4-.7c-.1-.1-.2-.1-.2 0a1 1 0 0 0-.3.7v.5l-.5.2v-.3l.3-.6v-.1h-.2a4.2 4.2 0 0 0-.3 1.2 42.8 42.8 0 0 1 0 .1 4.5 4.5 0 0 0 1.2.2l.1-.2a4.5 4.5 0 0 1-1-.1l.4-.2h1.2v-.2a3.3 3.3 0 0 1-.9 0l.6-.3h1.1v-.2a4.5 4.5 0 0 1-.9 0c.2 0 .4-.2.5-.3h.9v-.2h-.6a54.1 54.1 0 0 0 1.2-1Zm7.6-12.5h-.1v.2a3.6 3.6 0 0 0 .8.7v.6c0 .1 0 .2.1.1h.1v-.7l.2-.2.5-.8v-.1h-.2l-.5.9v-1l.3-.4.2-.6v-.1h-.2a3.2 3.2 0 0 1-.4.8v-.7c.2-.2.3-.5.4-.9v-.1h-.2l-.2.7v-1.2h-.2v1.3l-.5-.3h-.1v.1a2 2 0 0 0 .6.5v.8l-.6-.5-.1.1c.2.3.4.4.6.5h.1v1l-.2-.2-.4-.5Zm2 5.3-.6.4a317.4 317.4 0 0 0 .3-1.4l-.5 1.2v-.9h-.4a4.3 4.3 0 0 0 .2 1.2l-.3.8-.3-.6v-.3l-.2-.1v.4c0 .3.2.6.4.8a123.8 123.8 0 0 0-.5.4v-.6l-.2-.1s-.1 0 0 .1a6 6 0 0 0 .2 1.2l-.2.6v.2h.2l.2-.7.5-.2.5-.4v-.1h-.2l-.5.3-.2.1.4-.7.4-.3c.2 0 .4-.2.6-.4v-.1h-.2a4.7 4.7 0 0 1-.7.5l.3-.6.2-.1.6-.5v-.1h-.2Zm-19.2-13.6.6-.2.4.1.5.1h.1v-.2a5 5 0 0 1-.5 0l-.2-.1.6-.3.7.2h.3l-.1-.2h-.2l-.4-.1h.1l.4-.3h1c0 .1 0 0 0 0v-.1h-.7a31.6 31.6 0 0 0 1.2-.9h-.1l-1.2.7v-.3l.1-.1v-.2h-.1l-.3.7-.4.2-.1.1v-.2c0-.1 0-.2.2-.3v-.2h-.2l-.2.4v.4l-.8.3.1-.3.2-.4v-.2h-.1a3 3 0 0 0-.4 1l-.6.2v.1l.1.1Zm-3.7 4c0-.1-.1-.2-.2-.1l-.2.1-.3.2.3-.7c.2 0 .4 0 .6-.2l.3-.1v-.2c-.2 0-.3 0-.4.2l-.4.1.3-.5c.3 0 .7-.3.8-.4v-.1h-.1l-.6.3a26.7 26.7 0 0 1 1-1.9h-.1l-1 1.6v-.6h-.2v1a23 23 0 0 0-.2.4l-.2-.5v-.2l-.2.1c0 .3 0 .5.2.7v.2c0 .3-.2.5-.3.7l-.1-.4v-.2l-.1-.2-.1.1v.2c0 .3 0 .6.2.8l-.3.4v.1h.2c0-.2.2-.3.3-.5.2 0 .3 0 .5-.2l.3-.1Zm18.2 16.1.2-.4v-.2h-.2a2.3 2.3 0 0 0-.2 1l-.8.4a3.2 3.2 0 0 1 .2-.8v-.2h-.2v.4l-.2.8-.8.4v-.4l.3-.5v-.1h-.1l-.3.6-.1.5-1.4.6v.1l.1.1.5-.2a1.6 1.6 0 0 0 1 .1s.1 0 0-.1h-.5l-.2-.1.6-.3h1v-.1h-.7l.8-.5h.3l.4.1h.2l-.2-.2h-.5l.7-.4h.7l.1-.1-.1-.1h-.5a41.5 41.5 0 0 0 1.2-.9h-.2l-1.1.7v-.2Zm-2.4-19v-.2a.3.3 0 0 0-.2-.2h-.2v.4l.2.1h.2Zm-13.8 14.4c0 1.5.7 2.3 2 2.3l3.6.1c.7 0 1.4.4 1.9 1 .4-.5 1-.8 2-1h3.3c1.3-.1 2-.8 2-2.2v-12.3h-14.8v12.1Zm9.4-6.8h4.6v-.5h-4.5v-.3h4.5v-.4h-4.5v-.4h4.5v-.4h-4.5v-.3h4.5v-.5h-4.5v-.3h4.5v-.6h-4.5v-.3h4.5v-.5h-4.6v-.5h5v5.3h-5v-.3Zm0 8.5h3c.6 0 1.3-.3 1.3-.5H348v-.3h4.5v-.5H348v-.3h4.5v-.5H348v-.3h4.5v-.5H348v-.3h4.6v-.6H348v-.3h4.6v-.6H348v-.5h5v4c0 1-.8 1.6-2 1.5h-3v-.3Zm-4 .3h-3.4c-.3 0-.6-.1-.8-.3h3.8v-.5h-4.2a.6.6 0 0 1-.2-.3h4.4v-.5h-4.5v-.3h4.5v-.5H339v-.3h4.6v-.5H339v-.3h4.6v-.6H339v-.3h4.6v-.6H339v-.5h5v5.5Zm-5-8.8h4.6v-.5h-4.5v-.3h4.5v-.4h-4.5v-.4h4.5v-.4h-4.5v-.3h4.5v-.5h-4.5v-.3h4.5v-.6h-4.5v-.3h4.5v-.5h-4.6v-.5h5v5.3h-5v-.3Zm-1-5.3v12.1c.2 2 1.2 3 3.3 2.9h2.9a3 3 0 0 1 2 1.6c.3-.9 1-1.4 1.9-1.5l3-.1c1.7 0 2.5-.8 2.6-2.4v-.2c0 1.4-.8 2.2-2.3 2.3v-.1.1l-3.3.1c-1 .1-1.5.5-1.9 1v.2l-.2-.2h-.1c-.5-.6-1-1-1.8-1h-3.4c-1.6-.1-2.4-1-2.4-2.7v-12.3l-.3.2Z"/>
    </g>
    <path fill="#CCC9C8" fill-rule="evenodd" d="m494.7 135.8.5.5.2.2c-.1-.8.2-1 .4-1v-.2l.1-.4.1-.5c.2-.6.2-1 .2-2.1a8.1 8.1 0 0 0-.7-3.6l-.2-.5-.3-.3-.5-.5h-.7l-1.4.3-1.2.4a4 4 0 0 0-1 .7 3.1 3.1 0 0 0-1 1.8 4.3 4.3 0 0 0 .2 2c0 .3.3.9.6 1.4l.4.9-.3.4-.4.4c.5.3 1.4 1.2 1.5 2.1l.4-.3a6.7 6.7 0 0 0 1.2-1.5c.2-.5.2-.5.3-.3a14.1 14.1 0 0 0 .4 1.4c.1.2.1.1.3-.1a8.4 8.4 0 0 0 .7-1.4v-.2l.2.4Zm-.2-4.9c0 1.2-1 2.1-2.3 2.1a2 2 0 0 1-1.3-.5 2 2 0 0 1-.8-1.6c0-.9.6-2.3 2.1-2.3h.2c1.5 0 2.1 1.4 2.1 2.3Z" clip-rule="evenodd"/>
    <path fill="#959695" d="M486.4 131v.2a21.8 21.8 0 0 0-.3 1.7l.2-.1c0 .9.3 2.1.5 2.6l2-1.7v1.6c.3 0 .6.2.7.3h.1l.1.1.4-.4.3-.4-.4-1c-.3-.4-.5-1-.6-1.3a4.3 4.3 0 0 1-.1-2c0-.3.1-.7.3-1l.6-.8a4 4 0 0 1 1-.7 7.5 7.5 0 0 1 2.6-.6l.7-.1-.4-.3-.9-.4-1.2-.2h-1.2l-.6.2a5.7 5.7 0 0 0-3 2.6 8 8 0 0 0-.8 1.7Z"/>
    <path fill="#EE71A6" d="m495.7 129 .3 1.2.2 2a8.8 8.8 0 0 1-.3 2.7c.6.1 2 .1 2.9-.7l.1-.5h-.4l-1 .2-1-.2-.3-.3 1.2-.1h1.7l1 .1c.3.2.3.2.3 0-.2-2.9-3.3-4.3-4.9-4.7l.2.3Z"/>
    <path fill="#986630" fill-rule="evenodd" d="M492.4 130a1 1 0 0 0-.4.3l-.2.4v.5l.3.5.5.3h.5l.4-.2.3-.4.1-.5-.1-.5-.4-.4-.5-.2a1 1 0 0 0-.5.1Zm.9.4.2.3c.2.4 0 .6-.2.7-.3 0-.8 0-.8-.5s.5-.5.8-.5Z" clip-rule="evenodd"/>
    <path fill="#F18CB5" d="M486.5 125.7a2 2 0 0 0-.4.2l-.3.3.1.3c.2-.5 1-1.4 4.1.3l.2-.1-.3-.2a8.9 8.9 0 0 0-1.8-.8 5 5 0 0 0-.9 0 3 3 0 0 0-.7 0Z"/>
    <path fill="#F18CB6" d="m486.6 127.3-.4.1-.6.5-.3.5.2.1c.3-.4 1-1.2 1.8-1.2h-.7Z"/>
    <path fill="#F18CB7" d="m485.7 129.2-.3.4-.4.7a1.5 1.5 0 0 0 0 .6h.2c0-.6.6-1.4 1-1.7h-.5Z"/>
    <path fill="#EE71A3" d="M486.8 126.9a38.9 38.9 0 0 1 3.2-.1c-3.1-1.7-3.9-.8-4-.3.2.4.4.4.8.4Z"/>
    <path fill="#EE71A4" d="m488.4 127.8.7-.5h-1.8c-.8 0-1.5.8-1.8 1.2.2.1.6.2 1 0l2-.7Z"/>
    <path fill="#E164A2" d="m485.2 131.3.4.1h.3l.4-.3.1-.1a8 8 0 0 1 .8-1.7c-1 1.3-1.5 1.5-1.9 1.5a3.8 3.8 0 0 0-.3.1l.2.4Z"/>
    <path fill="#F18CB8" d="M500.4 133.5v-.8a6.2 6.2 0 0 0-.5-1.7 6.7 6.7 0 0 0-1.1-1.5l-1-.8a6.8 6.8 0 0 0-2.3-.8h-.5l.3.3.2.5c1.6.4 4.7 1.8 5 4.8Z"/>
    <path fill="#E164A3" d="M496 135.5a5.8 5.8 0 0 0 1 0l.7-.3.6-.4.5-.6c-.9.8-2.3.8-2.9.7l-.1.4v.2h.1Z"/>
    <path fill="#43B149" d="M495.2 136.3c-.2 0-.3-.2-.5-.5l-.2-.4v.2a5.4 5.4 0 0 1-.7 1.4c-.2.2-.2.3-.3.1l-.2-.6-.2-.8c0-.2 0-.2-.3.3a8 8 0 0 1-.8 1c.2 1.2.2 3.9-1 5.8-1.4 2.4-1.8 3.4-.2 4.6l.5-.3c1.5-.5 5.4-1.8 3.9-10.8Z"/>
    <path fill="#AAD496" d="M491.3 138.1v-.3a4 4 0 0 0-1.6-2.1l-.2-.1v.3a16.7 16.7 0 0 1-.8 2.8 43 43 0 0 1-.9 2.6v.1h.1l.5-.2.8-.7.4-.4v2.1l.3-.2a5.7 5.7 0 0 0 1.1-1.2l.2-.6a6.4 6.4 0 0 0 0-2Z"/>
    <path fill="#94CD8C" d="M485.5 137.7a10.6 10.6 0 0 0-.6 2.4l1-1-.1 2.4 2.2-1.8-.2 1.6.3-1a43 43 0 0 0 1.4-4.7c0-.1-.4-.3-.8-.3a3 3 0 0 0-3.2 2.4Z"/>
    <path fill="#43B148" d="M484.8 140.3a113.8 113.8 0 0 0-1 5.7l-.2 1.5-.3 1.1-.3.8v.3l-.1.3.4-.2a43.3 43.3 0 0 0 4.5-8.5l.2-1.6-2.2 1.8.2-2.3-1.1 1Z"/>
    <path fill="#50B648" d="M483.3 149.8a13.2 13.2 0 0 0 2-1.2 15.2 15.2 0 0 0 5.7-7.8c0 .2-.3.4-.5.6l-.6.6-.3.2v-2.1l-.4.4a4.4 4.4 0 0 1-1.3 1 43 43 0 0 1-4.6 8.3Z"/>
    <path fill="#25B04B" d="m483.4 147.6-1.1.1h-2l-1.6.1a3 3 0 0 0-1 .3 1 1 0 0 0-.5.3l-.1.5v.4c2.3.6 5-.2 6.2-.7l.3-1.1-.2.1Z"/>
    <path fill="#04A34A" d="m477.2 149.4.4.5a2.8 2.8 0 0 0 1.9.5l1.1-.1a10.4 10.4 0 0 0 2.4-.9l.3-.8c-1.1.5-3.9 1.3-6.2.7l.1.1Zm8.6-.9h.6a5 5 0 0 1 1.4-1.5c.9-.4 2-.4 3 .9l.5-.2.5-.1.2-.2a7.8 7.8 0 0 0 2-1.4l.8-.9a7 7 0 0 0 1-3 13 13 0 0 0-.1-4.3 25.6 25.6 0 0 0-.3-1.3l-.2-.2c1.5 9-2.4 10.3-3.9 10.8l-.5.3c-1.6-1.2-1.2-2.2.2-4.6 1.2-2 1.2-4.6 1-5.7l-.4.4-.4.3v.3l.2 1a6.4 6.4 0 0 1-.1 1.1c-.5 1.8-2.2 5.8-6 8.4l.5-.1Z"/>
    <path fill="#E164A2" d="M485.3 128.4v.4l.2.3.2.1h.4c.5 0 1.2-.2 1.4-.4l1-1-2 .7c-.4.2-.8.1-1 0h-.2Z"/>
    <path fill="#E164A4" d="m485.8 126.2-.1.4c0 .2 0 .3.2.4l.4.2h2.8l.7-.3h-3c-.4 0-.6 0-.9-.4l-.1-.3Z"/>
    <path fill="#EE71A5" d="M487.2 129.3c0-.2.2-.4.3-.5-.2.2-.9.3-1.4.4-.3.3-1 1-1 1.7h.2c.4-.1.9-.3 1.9-1.6Z"/>
    <path fill="#04A34B" d="M486 133.6a49 49 0 0 1-.4 3.7 3 3 0 0 1 3.1-2v-1.6l-1.9 1.7c-.2-.5-.5-1.7-.5-2.6l-.2.1v.7Z"/>
    <path fill="#E164A4" d="M491.1 149.2h.4l.3-.3v-.6a4.4 4.4 0 0 0 0-.7l-.5.1s.8 1.1-.3 1.5h.1Z"/>
    <path fill="#E164A7" d="m490.8 149.3.2-.1c.1-.8 0-1.2-.2-1.3-1-1.3-2.1-1.3-3-.9 3-.2 3.1 2.4 2.7 2.5.1 0 .2 0 .3-.2Z"/>
    <path fill="#EE71A8" d="m491.3 147.7-.5.2c.1 0 .3.5.2 1.3 1-.4.3-1.5.3-1.5Zm2-16.8s.2 0 .2-.2 0-.3-.2-.3l-.2.1v.2c0 .1 0 .2.2.2Z"/>
    <path fill="#fff" fill-rule="evenodd" d="M492.2 133c1.3 0 2.3-1 2.3-2s-.6-2.4-2.1-2.4c-1.3.4-2.6 2-1.5 3.9.4.3.8.5 1.3.5Zm-.2-2.7.4-.4h.5l.5.1a1.3 1.3 0 0 1 .5 1l-.1.4-.3.4-.4.2a1 1 0 0 1-1-.3l-.3-.5v-.5c0-.1 0-.3.2-.4Z" clip-rule="evenodd"/>
    <path fill="#242424" d="m502.5 135-.3.3-.2 1.6v1.5h-1.6v1.7l.2.3c.3.2.3.2.9.2h.5v3.2l.1 3.6.3.7c0 .2.3.5.5.6l.6.5a3.5 3.5 0 0 0 2.4.2 4.5 4.5 0 0 0 1.8-.9l.4-.3-.5-.7-.5-.7-.4-.1a2 2 0 0 0-.7.2c-.3.2-.5.2-.7.2a.8.8 0 0 1-.4-.2l-.1-3.2v-3h2.9v-2.3h-3v-3.5h-1l-1.2.1Z"/>
    <path fill="#EE71A8" fill-rule="evenodd" d="m486.4 148.4-.1.3-.1.4.4-.3.4-.4.1.2v.2l.2-.2.3-.2h.6l.7-.1.5.5.7.6.3.1c.5 0 .5-2.7-2.6-2.5a4 4 0 0 0-1.4 1.4Z" clip-rule="evenodd"/>
    <path fill="#242424" d="m520.4 138.5 1.8 5.5 1.8 5.5h2l.2-.2c.3-.2.3-.5 1.3-3.5l1.1-3.2 1 3.2a71.2 71.2 0 0 0 1.5 3.6l1.1.1h1l1.8-5.5 1.8-5.5-1.1-.1-1.3.1-.4.3-1 3.3-1 3a116.9 116.9 0 0 1-2-6.1 1 1 0 0 0-.4-.5l-1-.1-.9.1a117.6 117.6 0 0 0-2.4 6.7 184.4 184.4 0 0 1-2-6.3 1 1 0 0 0-.4-.4l-1.3-.1h-1.2Zm17.9 3.7v7.3h2.8v-4l1.5 1.8c1.3 1.6 1.6 2 1.8 2 .3.2.4.2 1.7.2h1.4a166.5 166.5 0 0 0-4.8-6.2l2.3-2.5 2.2-2.4h-1.5l-1.7.1-1.6 1.6-1.3 1.4v-3c0-2.8 0-3-.2-3.1a1 1 0 0 0-.4-.4l-1.2-.1h-1v7.3Zm11.4 4c-.2.2-.4.3-.5.6-.2.1-.3.4-.3.6v.6c0 .1 0 .4.2.6 0 .2.2.5.4.5l.4.3.7.1c.2 0 .4 0 .7-.2.2 0 .4-.2.5-.4l.4-.5v-1.3l-.4-.5a2 2 0 0 0-.5-.4l-.8-.1-.8.1Zm4.7-11.2-.3.3c-.2.1-.2.3-.2 1.6v1.5h-1.6v1.8l.4.3.7.1h.5v6.8l.3.7.5.6.6.5a3.5 3.5 0 0 0 2.5.2 4.5 4.5 0 0 0 1.8-.9l.3-.3-.4-.6-.5-.8a.6.6 0 0 0-.4-.1 2 2 0 0 0-.7.2l-.7.2a.8.8 0 0 1-.4-.2c-.2-.1-.2-.2-.2-3.2v-3h2.9v-2.3h-2.9v-3.5h-1l-1.2.1Z"/>
    <path fill="#242424" fill-rule="evenodd" d="m565.7 138.5-.8.1-1 .5c-.5.2-.7.4-1.3 1l-1 1.2a7 7 0 0 0-.4 1.2 6.8 6.8 0 0 0-.1 2.3l.2 1 .5 1.1.8 1a6.8 6.8 0 0 0 1.9 1.2l1 .3h2.5a7 7 0 0 0 2.1-1.2l.8-.8a7.3 7.3 0 0 0 1-2c.1-.4.2-.7.2-1.5 0-1 0-1-.3-1.6a7 7 0 0 0-.4-1.1l-.6-.8-.8-.8a6.7 6.7 0 0 0-2-1l-1.3-.2h-1Zm2.6 2.9c-.1-.2-.5-.3-.7-.4l-.8-.2h-.8l-.9.3a3 3 0 0 0-.8.7 4 4 0 0 0-.6.7 3.7 3.7 0 0 0-.4 1.5l.1.8.3.8a3.5 3.5 0 0 0 1.4 1.3l.4.2-.1.4-.1.3 1-.3a50.1 50.1 0 0 0 2.1-.9c.3-.1.5-.3.6-.5a4.4 4.4 0 0 0 .7-1.3v-.8a3.4 3.4 0 0 0-.3-1.5l-.4-.6a4 4 0 0 0-.6-.5Z" clip-rule="evenodd"/>
    <path fill="#242424" d="M566.3 145.4v.2l.4.3.6.2c.2 0 .4 0 .5-.2a1.4 1.4 0 0 0 .6-.6h-2.1Z"/>
    <path fill="#242424" fill-rule="evenodd" d="m513.8 138.5-.8.2a6.4 6.4 0 0 0-1.6 1c-.3.1-.6.5-.8.7a6.8 6.8 0 0 0-1.2 2.3 7 7 0 0 0 0 2.5 6.2 6.2 0 0 0 1.4 2.5 6.1 6.1 0 0 0 2.3 1.5 7.2 7.2 0 0 0 1.8.3 6.7 6.7 0 0 0 2-.4l.6-.3h.3l.2.4.5.2h1.8v-3.2l-.1-3.8a7 7 0 0 0-1-2 5.7 5.7 0 0 0-2.4-1.6 6.6 6.6 0 0 0-2-.4l-1 .1Zm2.6 2.6a3.4 3.4 0 0 0-1.6-.4 4 4 0 0 0-.8.1l-.6.3a4 4 0 0 0-.8.5l-.7.9-.3 1v1l.3.9a3.6 3.6 0 0 0 1.2 1.3l.8.4h1.1c.6 0 .7 0 1.2-.2l.9-.5.5-.7.4-.7.1-1-.1-1-.4-.8a3.5 3.5 0 0 0-1.2-1.1Z" clip-rule="evenodd"/>
    <path fill="#000" d="m493.5 130.7-.2.2c-.1 0-.2 0-.3-.2v-.2h.3c-.3-.1-.8-.1-.8.4s.5.6.8.5c.1 0 .4-.3.2-.7Z"/>
    <g clip-path="url(#l)">
      <path fill="#000" d="M734.7 126h-118v24h118v-24Z"/>
      <path fill="#fff" d="M700.7 138v-7.5c0-.2 0-.2.2-.2h3.7l.2.1v7.2h.1l.3-.4 1.5-1.8c0-.1.1-.2.3-.2h4l.1.1-.8 1-2.3 2.8-.5.6v.2l1.6 2 2 2.3 1 1.2-.1.1h-4.4a.2.2 0 0 1-.2 0l-2-2.5-.4-.5-.2-.1v3l-.2.1H701c-.2 0-.2 0-.2-.2v-7.4Zm-18 7.7c-.5 0-1 0-1.5-.2l-1.4-.7a5.5 5.5 0 0 1-2.2-2.5 5.8 5.8 0 0 1-.1-4.2 5.6 5.6 0 0 1 3.9-3.5 6.4 6.4 0 0 1 3.1.1l1.2.5a5.8 5.8 0 0 1 2.6 3.6c.2.7.2 1.5 0 2.2 0 .5-.1 1-.3 1.4a7.5 7.5 0 0 1-2.4 2.6 5.1 5.1 0 0 1-2.9.7Zm.2-7.3c-.3 0-.6 0-1 .2-.4.3-.6.7-.7 1.2v1c.2.4.5.7 1 .8h1.1c.5 0 .9-.4 1-.9.2-.5.2-1 0-1.5a1 1 0 0 0-.8-.6l-.6-.2Zm-42.3 1.8c0 .4-.1 1-.3 1.4-.1.7-.5 1.3-.9 1.8a6.4 6.4 0 0 1-2.5 2 5.6 5.6 0 0 1-3.9 0 6.3 6.3 0 0 1-3.3-3.3l-.4-1.2v-1.3c0-.5.2-1 .4-1.6a5.9 5.9 0 0 1 3-3 5.8 5.8 0 0 1 6 .9 5.8 5.8 0 0 1 1.6 2.5c.2.5.3 1 .3 1.8Zm-7.3-.1v.3c0 .6.4 1 1 1.2h1.5c.4-.2.6-.5.7-1v-1.1c-.1-.6-.5-1-1-1h-1.3l-.7.6c-.2.3-.2.6-.2 1Zm13.7 5.6c-.5 0-1 0-1.5-.2l-1.4-.7c-.8-.4-1.4-1-1.9-1.8a5.2 5.2 0 0 1-.8-3.4 5.5 5.5 0 0 1 4.7-5c.4-.1.9-.2 1.3-.1l1 .1a5.4 5.4 0 0 1 1.5.6c.6.4 1 .8 1.5 1.4.4.4.7.9.9 1.4a5.6 5.6 0 0 1-1.7 6.3 5 5 0 0 1-3.5 1.4Zm.1-4h.3l.8-.3c.2-.3.4-.5.5-.9l-.1-1.2c-.2-.5-.5-.7-1-.8h-1.3c-.5.2-.7.5-.9 1v1.1c.1.3.2.5.5.7.3.3.8.3 1.2.4Z"/>
      <path fill="#fff" d="M716.6 145.7a5.3 5.3 0 0 1-3-.9c-.6-.5-1.3-1-1.8-1.8l-.6-1.2a5.6 5.6 0 0 1 5.9-7.4l1.4.2a5.1 5.1 0 0 1 3 2.6c.3.3.4.7.6 1l.2 1.2-.1.2-1.2.3-1 .2-1 .2-1 .2-1.2.3-1 .2-.4.1h-.1v.1l.6.4c.3.3.6.3 1 .3.5 0 .9-.3 1.1-.7.2-.2.2-.2.4 0l1.2.7 1.7 1c.2.2.2.2 0 .3l-1 1.2-.8.5-1 .5-1.6.3h-.3Zm.1-7.6-.5.1c-.4.1-.7.4-1 .7l-.2.5v.1l1.2-.2 1-.3.7-.1c.1 0 .1 0 0-.2-.3-.3-.7-.5-1.2-.6Zm-94.5.6v-6.5c0-.6.3-1.2.8-1.5a2 2 0 0 1 1.3-.4h5.5c.3 0 .3 0 .3.3v3c0 .3 0 .3-.2.3h-3.2c-.3.2-.5.5-.5.8v1.7l.1.2h1.8c.2 0 .2 0 .2.2v3.1c0 .2 0 .2-.2.2h-1.8l-.1.2v5l-.1.2h-3.9v-6.8Zm32.8 2.5v-2.6c0-.1 0-.2-.2-.2h-1.3l-.2-.1V135l.2-.1h1.3c.2 0 .2 0 .2-.2v-3.3l.1-.2h3.7c.1 0 .2 0 .2.2v3.3c0 .1 0 .2.2.2h1.2l.1.1v3.3l-.1.1h-1.2c-.2 0-.2 0-.2.2v2.4l.1.6c.1.2.3.3.5.3h1.4c.3 0 .3 0 .3.3v3.1c0 .2 0 .2-.2.2h-4c-.6 0-1-.2-1.5-.5a1.8 1.8 0 0 1-.6-1.4v-2.4Zm40.1 4.5a5.1 5.1 0 0 1-3-.9c-.7-.4-1.3-1-1.8-1.6l-.7-1.4a6 6 0 0 1-.2-2.3c0-.8.3-1.5.7-2.2.4-.7 1-1.3 1.7-1.8a5.9 5.9 0 0 1 5.1-.7c.5.1 1 .3 1.4.6l1.4 1.5c.1.1.1.2 0 .2l-2.2 1.4-1 .6h-.2l-.4-.5-.9-.2c-.2 0-.5 0-.7.2-.4 0-.6.3-.8.7-.2.4-.2.9 0 1.3 0 .5.3.8.7 1h1.4c.3 0 .5-.3.7-.5l.2-.1 2.5 1.6.7.5c.1 0 .1 0 0 .1-.5.7-1 1.3-1.8 1.8-.6.3-1.2.6-1.8.6l-1 .1Zm-26.3-8.6v-6.6c0-.2 0-.2.2-.2h3.6c.2 0 .2 0 .2.2v10.8c0 .4.3.6.6.7h3.1c.2 0 .2 0 .2.2v3.2l-.2.1h-5.9c-.4 0-.8 0-1-.3-.4-.1-.6-.4-.7-.7l-.1-1V137Zm54.6 3.8v-4.2l.1-.8c.1-.6.5-1 1-1.2l1-.1h4.8l.1.2v3.2l-.1.2h-2.4c-.3.2-.4.4-.4.7v6.5l-.2.1h-3.7l-.1-.1v-4.6Z"/>
    </g>
    <path fill="#000" fill-rule="evenodd" d="m786.5 132.3-1.8.5-2.3.7-1.3.2c-.3 0-.4-.2-.1-.7.3-.6 1.2-2 1.7-2.5.6-.6 2-1.5 2.4-1.8.4-.2.9-.5 1.2-.5.3 0 .8 0 1-.3.2-.2.7-.5.7-1v-.6c0-.1 0-.2.3-.2.1 0 .2-.3 0-.3l-.5-.2c-.2-.3-.7-.5-1-.5-.3 0-1.6.5-2.4 1-.8.6-2.2 1.8-3 2.8-1 1-2 2.7-2 3.7s.2 1.6.5 2c.4.4.5.6 1 .5.6 0 1.5-.3 1.5-.3l-.8 1.3-.6.8.9-.6.6-.6.6-.5-1.3 2c-.4.4-1 2-1.3 2.6-.3.6-.6 1.8-.6 2v.7c0 .3-.2.3 0 .6l.2.5.1.3.4.4c.2.2.8.4.9.7 0 .2.2.3.5.4l.9.4 1.1-.2 1.5-.9 1.3-1 1.2-1.3 1.1-1.3.6-.6 1.2 1c.6.3 1.7.2 2-.1l1-1c.3-.2.5-.5.7-1 .2-.4.5-.8.6-1.5a7 7 0 0 0-.1-2.2l-.5-2.2-.4-1.8v-.9c-.1-.2-.2-.4-.4-.2l-.4 1.2c-.2.5-.3 1.5-.3 2.3 0 .9 0 2-.3 2.8-.2.8-.6 1.7-.9 2-.3.4-.8.8-.8-.1l.3-3.3c.2-.3.2-.4.2-.7v-.5l.2-.8c0-.2.2-.6.1-.8l-.2-.7a.9.9 0 0 1-.2-.5c0-.2 0-.4-.2-.5-.2 0-.2 0-.3.2l-.4.2c-.2 0-.3.3-.4.6l-.8 3-.3 2.6c-.1.6.2 2 .2 2l-3 2.2-3.3 1.6c-.8.2-1.4.1-1.6 0-.2-.3 0-.9.2-1.4a49 49 0 0 1 1.6-2.7l.3-.7.6-.4c0-.2.6-1 .8-1.3l.6-.8.7-.8.5-.6c.2-.2.4-.2.4-.5l.2-.6c0-.1 0-.2.3-.3.3 0 .5-.2.7-.3.1-.1.1-.2 0-.4 0-.2-.3-.4-.3-.3 0 .2 0 .3-.2.2-.2 0 0-.1 0-.2l-.1-.3h-.3s-.2-.2-.3 0l-.6.3Z" clip-rule="evenodd"/>
    <path fill="#000" fill-rule="evenodd" d="M780.9 137c0 .2-.2.2 0 .2h.1l-.1-.1Zm-.2.4c-.1 0-.2.2-.1.3l.1-.1.1-.2h-.1Zm0 .4v.1c0-.1 0 0 0 0Zm24.1 7.5c-.3 0-1 0-1.4-.3-.4-.3-.8-1.2-1-1.5l-.3-1.9c-.2-.6-.3-2.2-.4-2.6-.1-.5-.2-1-.4-1.3-.1-.3-.1-.7-.4-1-.2-.4-.1-.5-.4-.7-.2-.2-.4-.2-.2-.4l1.1-.6c.3-.1 1.1-.6 1.3-.9l.8-.8.4-.6.5-.8.4-.7v-1l-1-.9c-.2-.1-1-.5-1.6-.6-.6 0-1.3.2-1.7.3-.4 0-.8.2-1 .3l-.4.1-.2-.2c-.2-.1-.1-.2-.2 0l-.2.6-.4.2c-.3.3-.5.3-.5.3l.2.2v.3s-.2 0 0 .2c0 0 .2 0 .1.2a5 5 0 0 0-.3.9l-.2 1c0 .3 0 .4-.2.6-.2.1-.4 0-.6.2-.2 0-.4.1-.1.4.2.3.5.4.4 1l-.6 4.3-.4 3.9c0 .6.1 1.2.3 1.3 0 0 .2-.1.3-.6 0-.5.6-2 .6-2.5l.6-1.5.5-1.3.3-.9v-.3s.4.1.6.4c.2.3.5 1.4.7 2.3a16.9 16.9 0 0 0 2 4.4l1.2.9.9.3.9-.1.4-.4c0-.1-.1-.2-.4-.2Zm-5.1-11v-.9l.2-1.4c0-.2 0-.8.2-.8h1.1l1-.3.6-.2c.2 0 .2.2.1.4s-.5 1-.7 1.1c-.2.2-.3.5-.6.6l-1 .6-1 .8Z" clip-rule="evenodd"/>
    <path fill="#000" fill-rule="evenodd" d="m808.8 137.7-.6-1.2c0-.2-.2-.6-.5-.7l-.6-.4c-.3-.2-.3-.4-.3-.4v-.2l.2-.3.5-.8v-.8l-.2-.6v-.2l.3.3.3-.1v-.5c0-.2-.1-.3-.3-.4-.2 0-.3-.3-.3 0v.3h-.4s0-.2-.2-.1c-.2 0-.3 0-.4.2a2 2 0 0 0-.4.5l-.2.3-.3.3s-.1-.1-.2 0l-.1.4-.6 1.3-.6 1.5-.3 1-.2.9.2 1.2.2 1.3.5.9.7.7.6.2h.6c.3-.1.2-.4.5-.3l.5-.1.5-.6.3-.3.2-.4c0-.1.3-.3.3-.5l.1-.3.2-.5c0-.3.1-1 0-1.6Zm-1.6 1.1-.6 1.3a3 3 0 0 1-.7.7c-.2.2-.5.1-.6-.2l.1-1.7v-.7l.4-.7s0-.7.2-1c0-.3.2-.6.3-.8l.1-.3.3.5.5 1v2Zm17.6-7.1a3.9 3.9 0 0 0-2-2.6c-.8-.3-1.8-.2-2.6.1-.9.4-2 1.5-2 1.5s-1-1.2-2-1.7-2.4-.7-3.9.4a7 7 0 0 0-2.6 3.5c-.5 1.3-.8 3.3.6 5.3 1.3 2 2.8 3.3 4 4 1.2.5 2.3.6 2.3.6l.1.8c.2.2.1.3.5.3s.5-.2.5-.2-.4 0-.1-.5l1-1.8.8-.8c.1-.3 0-.4.3-.5l.4-.2.3-.4c.2-.2.3 0 .4-.2 0-.2.6-.6.8-.8.1-.2 0-.3.2-.4.2 0 .3-.1.4-.3l1.3-1.6c.3-.3.8-.8 1-1.6.2-.7.7-1.7.3-3Zm-2 1.8a49.8 49.8 0 0 1-5.4 7.6c-.3.3-.6 1.2-.6 1.2l-.8-.3-1.5-1.1-2.5-2.6a7 7 0 0 1-1.3-3.4 7 7 0 0 1 1.4-4c1-1 2.3-1.5 3-1.4.9.1 1.7.6 2 1l.7.7-.4.6-.3.4s-.1.3 0 .4h.7l.4-.1.3-.3v.5c0 .2 0 .3.2.4h.6v-.4l-.1-.6-.1-.3s1-1.2 1.8-1.5c.7-.3 1.6-.6 2.2.2.7.8.3 2-.2 3Zm3.9 6.3.8-2 .7-1.8.4-2c0-.5.1-.7-.1-1.1-.2-.4-.3-.8-.7-1.2l-.6-.4c-.2-.3-.3-.3-.5-.4-.2-.1-.2-.2-.2 0l-.1.3s.3.5.1 1l-.8 3.1c-.3.7-1 3.4-1 4.8.2 1.3.3 2.7.6 3.3.3.6.4.8.6.8.3 0 .2-.2.2-1s0-1.8.3-2.5c.3-.6.3-1 .3-1Zm1.6 4.9s.3-.7.6-1l2.3-1.8c.3-.2 1.1-1.1 1.8-1.4.6-.3 1.8-1.5 2.1-1.7l.9-.7.6-1c0-.6.2-1.3 0-1.5-.3-.2-.8-.3-1.3-.3l-2.2.4c-.6.1-1.4 0-1.6-.1-.1-.2-.1-.7.1-1l1.2-1.4c.3-.3.5-.5.9-.5.4-.1 1-.3 1.2-.5.2-.2.4-.7.1-1.1-.3-.5-.6-.7-1.2-1l-.9-.3c-.1 0-.2 0-.3.2v.3h-.3a1 1 0 0 1-.2-.4l-.5.5-1.3 1.6a4 4 0 0 0-.5 2.7c.2 1.2.6 1.7 1.4 2.1.8.4 1.4.3 1.8.3l.6-.1-.1.3-2.8 2.3a10 10 0 0 0-1.9 2.4c-.4.7-.5.7-.7 1.4-.3.8-.3 1.2-.2 1.4 0 .3.3.5.3.5s-.3-.3-.2-.7l.3-.6v.7Zm10.1-18.5s.5.1.7.3c.2.2.8.3 1 .7.4.4.7 1.4.7 1.9 0 .4-.2 1-.8 1.2-.5.1-.2.2-.9.3h-1c-.3 0-.5-.5-.5-.9a14.6 14.6 0 0 1 .3-3v-.3c.2 0 .3.2.4.4.1.2.2.2.3.1.1 0 .1-.2 0-.4l-.2-.3Zm1 11.1c.1-.4.6-.9.7-1l.3-1 .1-.7c0-.1 0-.3-.2-.4-.2 0-.3 0-.3-.3 0-.2-.1-.3-.2-.2h-1.2c-.2 0-.3 0-.2.2.2.1.2.2.1.4l-.5 1.6-.5 1.3c-.2.5-.7 1.7-.7 2.1l-.3 2v1.5c.2.1.2 0 .4 0s.2 0 .2-.2c0-.1 0-.4.2-.4s.3.1.3-.2l.1-.6.3-.9.5-1 .3-.7c.1-.2.1-.5.4-.7.2-.2.2-.4.2-.5v-.3Zm17.1 6.8c-.3 0-.5-.2-.8-.4-.4-.3-.6-.6-1-1.2-.4-.7-.4-1.4-.5-2.2l-.1-2.2c-.1-.5-.1-1.6-.3-2.2l-.4-1.8-.5-1c-.2-.2-.6-1-1-1.3-.5-.5-1.4-.4-1.6-.4h-1c-.2 0-.2.2-.4.3-.3 0-.3.4-.4.6 0 .2-.5 1-.7 2l-.3 2.4-.7-1.3c-.5-.6-.8-.8-1.3-1.2l-1.6-.9c-.2-.1-.2-.5 0-.7 0-.3.4-.8.5-1 .2-.3 0-.3-.2-.2-.2 0-.4.2-.5.4l-.8 1s-.7-.3-.9-.2c-.2 0-.4.4-.5.6-.1.3.1.5.4.5.2 0 .3.2.2.3 0 .2-.4.7-.4 1l-.7 1.8a9 9 0 0 0 0 3.3c.1 1.1 1.1 1.9 1.3 2 .1.3.2.3.4.2l.4.2c.2 0 .8 0 1-.2l1.8-1.4c.5-.3 1.2-1.2 1.2-1.2v2.3c0 1 .2 1.8.7 2.2.5.4.9.3 1 0v-1.4l.1-1.3.4-1.4.6-3.2c.1-.7.3-2.4.5-2.7l.3-.9c.1-.1.3 0 .4.2.2.1.3.6.5 1.2l.5 3.5c.1 1 .6 3.3.8 3.7a6.7 6.7 0 0 0 1.6 2c.2.2.6.5 1 .6.3.1.5.3.9.3s.6-.2.6-.4l-.5-.3Zm-10.2-5.5-1.5 1.5-1.1.5-1 .2c-.2-.1 0-.3 0-.4l-.1-.6c-.1-.3-.2-.3 0-.6l.2-.8V137l.5-.7a8.9 8.9 0 0 0 .4-1.8 5.7 5.7 0 0 0 2 2c.3.3.4.7.5 1 .1.3.3.9 0 1.1Zm-51.3 9.9h-.8c0-.2-.1-.3-.5-.3h-1.5c-.2 0-.4 0-.4.3s.2.3.4.3h1.7c.8 0 1.2.1 1.2 1 0 .8-.4 1-1.3 1h-1.7c-1 0-1.3-.2-1.3-.9h1c0 .2.1.4.4.4h1.4c.4 0 .6-.2.6-.4 0-.3 0-.4-.6-.4h-1.3c-1 0-1.4-.2-1.4-1 0-.7.4-1 1.4-1h1.5c.9 0 1.3.3 1.3 1Zm1.6 1.2v-1c0-.4.1-.5.7-.5h1.1c.5 0 .7 0 .7.6v.8c0 .5-.1.6-.7.6h-1.2c-.5 0-.6-.1-.6-.5Zm3.4 0v-1c0-1-.4-1.2-1.3-1.2H797c-1 0-1.3.3-1.3 1.2v1c0 .9.3 1.2 1.3 1.2h1.7c1 0 1.3-.3 1.3-1.2Zm2-2.2 2.3 2.7h.2v-2.7h.8v3.4h-1.5l-2.2-2.7h-.1v2.7h-.9v-3.4h1.5Zm8.4 1.5v.8c0 .8-.4 1-1.3 1h-1.8c-1 0-1.4-.2-1.4-1v-1.1c0-.9.4-1.2 1.4-1.2h1.8c.9 0 1.3.2 1.3 1h-.9c0-.2-.1-.3-.7-.3h-1.3c-.5 0-.7.1-.7.6v.9c0 .4.1.5.7.5h1.5c.4 0 .5 0 .5-.3v-.4h-1.4v-.6h2.3Zm6.7.7c0 1-.2 1.2-1.3 1.2H814c-1 0-1.3-.3-1.3-1.2v-1c0-1 .3-1.2 1.4-1.2h1.5c.8 0 1.4.2 1.4 1.2h-.9c0-.4-.2-.5-.7-.5h-1.1c-.6 0-.7 0-.7.6v.8c0 .5.2.6.7.6h1.1c.5 0 .7 0 .7-.5h.9Zm1.4 0v-1c0-.4.2-.5.7-.5h1.2c.5 0 .7 0 .7.6v.8c0 .5-.1.6-.7.6h-1.2c-.5 0-.7-.1-.7-.5Zm3.5 0v-1c0-1-.4-1.2-1.4-1.2H819c-1 0-1.4.3-1.4 1.2v1c0 .9.4 1.2 1.4 1.2h1.6c1 0 1.4-.3 1.4-1.2Zm2-2.2 2.3 2.7h.1v-2.7h1v3.4h-1.6l-2.2-2.7h-.1v2.7h-1v-3.4h1.6Zm7.8 0v.7h-1.5v2.7h-.9v-2.7h-1.5v-.7h4Zm.5 0h3.8v.7h-3v.7h2.9v.6h-2.8v.8h2.9v.6h-3.8v-3.4Zm8.5 1h-.9c0-.2 0-.3-.4-.3H838c-.2 0-.4 0-.4.3s.2.3.4.3h1.6c.8 0 1.2.1 1.2 1 0 .8-.3 1-1.2 1h-1.8c-1 0-1.2-.2-1.2-.9h.9c0 .2.2.4.4.4h1.5c.4 0 .5-.2.5-.4 0-.3 0-.4-.5-.4H838c-1 0-1.4-.2-1.4-1 0-.7.4-1 1.4-1h1.5c.9 0 1.2.3 1.2 1Zm4.5-1v.7h-1.5v2.7h-1v-2.7h-1.5v-.7h4Z" clip-rule="evenodd"/>
  </g>
  <defs>
    <clipPath id="a">
      <path fill="#fff" d="M0 0h40v40H0z"/>
    </clipPath>
    <clipPath id="b">
      <path fill="#fff" d="M0 0h97v24H0z" transform="translate(383 8)"/>
    </clipPath>
    <clipPath id="c">
      <path fill="#fff" d="M0 0h88v28H0z" transform="translate(520.7 6)"/>
    </clipPath>
    <clipPath id="d">
      <path fill="#fff" d="M0 0h119v30H0z" transform="translate(649.3 5)"/>
    </clipPath>
    <clipPath id="e">
      <path fill="#fff" d="M0 0h48v28H0z" transform="translate(809 6)"/>
    </clipPath>
    <clipPath id="f">
      <path fill="#fff" d="M0 0h127v18.8H0z" transform="translate(185.2 70.6)"/>
    </clipPath>
    <clipPath id="g">
      <path fill="#fff" d="M0 0h126v22H0z" transform="translate(357.4 69)"/>
    </clipPath>
    <clipPath id="h">
      <path fill="#fff" d="M0 0h98v32H0z" transform="translate(528.6 64)"/>
    </clipPath>
    <clipPath id="i">
      <path fill="#fff" d="M0 0h98v28H0z" transform="translate(671.8 66)"/>
    </clipPath>
    <clipPath id="j">
      <path fill="#fff" d="M0 0h102v28H0z" transform="translate(181.7 124)"/>
    </clipPath>
    <clipPath id="k">
      <path fill="#fff" d="M0 0h104v36H0z" transform="translate(328.4 120)"/>
    </clipPath>
    <clipPath id="l">
      <path fill="#fff" d="M0 0h118v24H0z" transform="translate(616.7 126)"/>
    </clipPath>
  </defs>
</svg>
