<svg xmlns="http://www.w3.org/2000/svg" width="67" height="19" fill="none">
  <path fill="#fff" d="M28.09 15.018h-.03c.013 0 .022.015.035.017h.009l-.015-.015v-.002Zm.005.017c-.138.001-.487.074-.855.074-1.16 0-1.563-.537-1.563-1.24V9.195h2.367c.134 0 .239-.12.239-.283V6.37c0-.134-.12-.253-.239-.253h-2.367v-3.15c0-.12-.074-.195-.208-.195h-3.216c-.134 0-.209.075-.209.194v3.24s-1.623.404-1.727.419a.256.256 0 0 0-.193.254v2.03c0 .165.119.284.253.284h1.652v4.898c0 3.644 2.531 4.018 4.259 4.018.789 0 1.742-.254 1.89-.33.09-.029.134-.134.134-.238v-2.24a.264.264 0 0 0-.217-.269v.002Zm35.28-3.287c0-2.703-1.086-3.061-2.233-2.942-.893.06-1.608.508-1.608.508v5.256s.73.508 1.817.538c1.533.045 2.025-.508 2.025-3.36Zm3.619-.24c0 5.123-1.653 6.587-4.541 6.587-2.442 0-3.752-1.24-3.752-1.24s-.06.687-.134.777c-.045.09-.12.12-.209.12h-2.203c-.15 0-.283-.12-.283-.255l.03-16.59c0-.135.119-.255.253-.255h3.171c.134 0 .253.12.253.254v5.63s1.221-.791 3.008-.791l-.015-.03c1.786 0 4.422.672 4.422 5.794ZM54.01 6.119h-3.127c-.164 0-.253.12-.253.284v8.123s-.819.583-1.936.583c-1.116 0-1.444-.508-1.444-1.628V6.387a.261.261 0 0 0-.253-.254h-3.186a.261.261 0 0 0-.253.254v7.63c0 3.286 1.831 4.107 4.347 4.107 2.07 0 3.752-1.15 3.752-1.15s.075.583.12.672c.03.075.133.135.238.135h1.995c.163 0 .253-.12.253-.254l.03-11.155c0-.135-.12-.254-.283-.254Zm-35.287-.015h-3.171c-.134 0-.253.134-.253.299v10.96c0 .3.193.404.446.404h2.859c.298 0 .372-.134.372-.403V6.357a.261.261 0 0 0-.253-.254ZM17.16 1.057c-1.147 0-2.055.91-2.055 2.06s.908 2.061 2.055 2.061c1.116 0 2.025-.91 2.025-2.06s-.909-2.061-2.025-2.061ZM41.712.682h-3.141a.261.261 0 0 0-.253.254v6.108H33.39V.936a.261.261 0 0 0-.254-.254h-3.17a.261.261 0 0 0-.254.254v16.591c0 .134.134.254.253.254h3.171c.134 0 .254-.12.254-.254v-7.093h4.928l-.03 7.093c0 .134.12.254.253.254h3.171c.134 0 .254-.12.254-.254V.937a.261.261 0 0 0-.254-.255ZM13.617 8.03v8.572c0 .06-.015.165-.09.194 0 0-1.86 1.33-4.927 1.33-3.708 0-8.1-1.165-8.1-8.841C.5 1.608 4.341.025 8.093.04c3.246 0 4.556.732 4.765.866.06.075.09.135.09.21l-.626 2.657c0 .135-.134.3-.298.254-.536-.164-1.34-.492-3.23-.492-2.19 0-4.542.627-4.542 5.57 0 4.943 2.233 5.525 3.841 5.525 1.37 0 1.861-.164 1.861-.164V11.03H7.766c-.164 0-.283-.12-.283-.254V8.03c0-.134.119-.253.283-.253h5.568c.164 0 .283.12.283.253Z"/>
</svg>
