<svg xmlns="http://www.w3.org/2000/svg" width="64" height="64" fill="none">
  <rect width="64" height="64" fill="#FCF0ED" rx="16"/>
  <circle cx="29" cy="23" r="3" stroke="#F65128" stroke-width="2"/>
  <path stroke="#F65128" stroke-linecap="round" stroke-width="2" d="M35 26a3 3 0 1 0 0-6"/>
  <path stroke="#F65128" stroke-linejoin="round" stroke-width="2" d="M24 30a1 1 0 0 1 1-1h8a1 1 0 0 1 1 1v6h-2v7a1 1 0 0 1-1 1h-4a1 1 0 0 1-1-1v-7h-2v-6Z"/>
  <path stroke="#F65128" stroke-linecap="round" stroke-linejoin="round" stroke-width="2" d="M36 44h1a1 1 0 0 0 1-1v-7h2v-6a1 1 0 0 0-1-1h-1"/>
</svg>
