<svg width="1200" height="600" viewBox="0 0 1200 600" fill="none" xmlns="http://www.w3.org/2000/svg">
	<g>
		<rect width="1200" height="600" fill="white"/>
		<g>
			<rect x="1034" width="166" height="600" fill="#F4F5F6"/>
			<g>
				<path d="M1033.65 449L1027.66 470.199V491.599L1033.65 513L1039.8 491.599V470.199L1033.65 449Z" fill="#BD483B"/>
				<path d="M1033.65 449L1004 459.644L1008.21 498.999L1033.65 513" fill="#E64E3D"/>
				<path d="M1033.65 513L1059.22 498.855L1064 459.503L1033.65 449" fill="#BD483B"/>
				<path d="M1028.27 496.533C1025.39 495.635 1022.77 494.03 1020.68 491.864L1020.67 491.86C1018.67 489.798 1017.19 487.286 1016.36 484.536C1016.84 484.983 1017.36 485.394 1017.89 485.778C1017.9 485.794 1017.91 485.809 1017.91 485.83C1017.91 485.807 1017.9 485.792 1017.89 485.778C1018.91 486.489 1020.01 487.084 1021.16 487.551C1021.5 487.685 1021.85 487.81 1022.2 487.925C1022.23 487.937 1022.25 487.937 1022.27 487.945C1022.33 487.968 1022.4 487.989 1022.46 488.008C1022.53 488.714 1022.83 489.377 1023.31 489.899C1023.8 490.42 1024.44 490.77 1025.14 490.896C1025.69 493.118 1026.74 495.018 1028.27 496.533ZM1029.39 471.002C1029.39 471.624 1029.56 472.206 1029.85 472.697C1027.45 476.064 1025.79 479.719 1025.08 483.335C1025 483.737 1024.93 484.134 1024.88 484.524C1024.05 484.741 1023.35 485.279 1022.92 485.987C1022.89 485.987 1022.87 485.98 1022.85 485.968C1022.81 485.957 1022.77 485.941 1022.73 485.928C1020.7 485.261 1018.86 484.133 1017.34 482.634C1017.14 482.428 1016.94 482.216 1016.75 481.997L1016.67 481.903L1016.44 481.639L1016.35 481.526C1016.33 481.492 1016.31 481.467 1016.28 481.44C1016.27 481.42 1016.26 481.409 1016.25 481.395C1016.21 481.353 1016.18 481.305 1016.15 481.265C1016.13 481.242 1016.12 481.223 1016.1 481.209L1016.1 481.194C1016.07 481.167 1016.05 481.13 1016.02 481.1C1015.92 480.959 1015.82 480.815 1015.72 480.668C1015.7 480.645 1015.69 480.622 1015.67 480.593C1015.66 480.577 1015.65 480.56 1015.64 480.541C1015.32 475.855 1016.86 471.233 1019.93 467.667C1022.12 465.108 1024.99 463.213 1028.21 462.2C1028.26 462.549 1028.32 462.905 1028.39 463.262C1028.76 465.119 1029.38 466.991 1030.22 468.827C1029.7 469.404 1029.39 470.168 1029.39 471.002ZM1027.46 487.681C1027.46 487.929 1027.41 488.174 1027.31 488.399C1027.21 488.625 1027.06 488.826 1026.87 488.987C1026.59 489.233 1026.24 489.382 1025.87 489.413C1025.5 489.444 1025.13 489.355 1024.81 489.16C1024.53 488.987 1024.3 488.738 1024.15 488.44C1024.04 488.203 1023.98 487.944 1023.98 487.681C1023.98 487.406 1024.05 487.135 1024.17 486.89C1024.3 486.646 1024.48 486.435 1024.71 486.276C1024.9 486.137 1025.12 486.04 1025.35 485.988C1025.58 485.937 1025.82 485.933 1026.05 485.978C1026.28 486.022 1026.5 486.113 1026.7 486.245C1026.89 486.377 1027.06 486.548 1027.18 486.746C1027.37 487.023 1027.47 487.349 1027.46 487.681ZM1034.4 471.002C1034.4 471.23 1034.36 471.455 1034.27 471.666C1034.18 471.877 1034.06 472.069 1033.89 472.23C1033.73 472.392 1033.54 472.52 1033.33 472.607C1033.12 472.695 1032.89 472.74 1032.66 472.74C1032.58 472.74 1032.5 472.736 1032.42 472.728C1032.4 472.72 1032.39 472.72 1032.37 472.717C1031.93 472.652 1031.54 472.423 1031.26 472.078C1030.99 471.732 1030.85 471.295 1030.89 470.856C1030.93 470.417 1031.13 470.008 1031.46 469.714C1031.79 469.419 1032.22 469.261 1032.66 469.271H1032.74C1033.18 469.292 1033.61 469.484 1033.92 469.805C1034.23 470.127 1034.4 470.555 1034.4 471.002Z" fill="#FEC82F"/>
				<path d="M1051.7 479.354C1051.7 481.096 1051.45 482.776 1050.99 484.367C1049.39 483.938 1047.84 483.35 1046.36 482.611C1046.49 481.983 1046.43 481.332 1046.19 480.739C1048.08 478.856 1049.7 476.719 1051 474.389C1051.45 475.966 1051.7 477.635 1051.7 479.354ZM1050.02 471.774C1049.89 472.043 1049.77 472.309 1049.63 472.573C1048.38 475.004 1046.77 477.228 1044.84 479.168C1044.28 478.836 1043.65 478.674 1043 478.702C1042.35 478.731 1041.73 478.949 1041.21 479.329C1040.2 478.537 1039.24 477.686 1038.34 476.78C1037.19 475.64 1036.13 474.414 1035.16 473.114C1035.61 472.598 1035.88 471.956 1035.93 471.28C1035.99 470.604 1035.84 469.926 1035.49 469.342C1037.72 467.188 1040.26 465.383 1043.04 463.988C1046.08 465.842 1048.51 468.551 1050.02 471.774ZM1044.88 481.966C1044.91 482.425 1044.74 482.874 1044.43 483.214C1044.12 483.553 1043.69 483.755 1043.22 483.776C1042.76 483.797 1042.31 483.634 1041.97 483.324C1041.63 483.013 1041.43 482.581 1041.41 482.122C1041.43 482.102 1041.45 482.091 1041.46 482.079C1041.44 482.064 1041.42 482.052 1041.4 482.035L1041.4 481.964C1041.4 481.694 1041.47 481.428 1041.59 481.187C1041.71 480.946 1041.89 480.736 1042.11 480.575C1042.33 480.415 1042.58 480.306 1042.85 480.259C1043.11 480.212 1043.39 480.228 1043.65 480.305C1044 480.414 1044.32 480.634 1044.54 480.933C1044.76 481.232 1044.88 481.594 1044.88 481.966ZM1045.34 484.394C1044.8 484.882 1044.1 485.176 1043.38 485.229C1042.65 485.282 1041.92 485.09 1041.31 484.684C1041.24 484.732 1041.16 484.781 1041.09 484.822C1038.79 486.285 1036.28 487.385 1033.65 488.083V497.348C1037.2 497.347 1040.68 496.3 1043.64 494.337C1046.6 492.375 1048.92 489.584 1050.3 486.316C1048.58 485.839 1046.92 485.195 1045.34 484.394Z" fill="#DF9C26"/>
				<path d="M1033.65 488.083C1032.14 488.475 1030.6 488.711 1029.05 488.788L1028.81 488.803C1028.51 489.591 1027.93 490.232 1027.19 490.609C1027.66 492.354 1028.51 493.87 1029.73 495.078C1030.74 496.084 1031.97 496.845 1033.37 497.344L1033.65 497.348V488.083Z" fill="#FEC82F"/>
				<path d="M1039.86 481.966C1039.86 481.636 1039.91 481.313 1040.01 481.01C1037.61 479.137 1035.47 476.957 1033.65 474.526V485.945C1035.91 485.286 1038.06 484.309 1040.05 483.043C1039.93 482.697 1039.86 482.333 1039.86 481.966Z" fill="#DF9C26"/>
				<path d="M1033.65 474.526C1033.56 474.413 1033.47 474.309 1033.39 474.192C1032.74 474.339 1032.06 474.285 1031.44 474.038C1029.25 477.122 1027.75 480.455 1027.1 483.735C1027.04 484.046 1026.99 484.349 1026.94 484.647C1027.86 485.022 1028.58 485.792 1028.86 486.744C1028.89 486.737 1028.92 486.737 1028.95 486.737C1030.51 486.662 1032.09 486.391 1033.65 485.945V474.526Z" fill="#FEC82F"/>
				<path d="M1033.65 461.368V467.887C1033.74 467.917 1033.84 467.95 1033.93 467.992C1035.99 465.985 1038.3 464.255 1040.81 462.843C1038.55 461.866 1036.11 461.364 1033.65 461.368Z" fill="#DF9C26"/>
				<path d="M1033.65 461.368C1032.48 461.368 1031.33 461.474 1030.23 461.691C1030.28 462.069 1030.35 462.467 1030.43 462.855C1030.75 464.506 1031.29 466.168 1032.02 467.8C1032.56 467.692 1033.12 467.721 1033.65 467.886V461.368Z" fill="#FEC82F"/>
			</g>
		</g>
		<g>
			<g>
				<g>
					<g>
						<text fill="#17233A" xml:space="preserve" style="white-space: pre" font-family="Lexend" font-size="40" letter-spacing="0px"><tspan x="88" y="110">MTR</tspan></text>
					</g>
					<text fill="#17233B" xml:space="preserve" style="white-space: pre" font-family="Lexend" font-size="32" font-weight="600" letter-spacing="-0.6px"><tspan x="88" y="164">from {{location}}</tspan></text>
					<text fill="#67738B" xml:space="preserve" style="white-space: pre" font-family="Lexend" font-size="30" font-weight="400" letter-spacing="-0.6px"><tspan x="{{188 + locationWidth}}" y="162">({{probes}})</tspan></text>
				</g>
				<g>
					<g>
						<text fill="#17233A" xml:space="preserve" style="white-space: pre" font-family="Lexend" font-size="30"><tspan x="88" y="385">Target</tspan></text>
						<text fill="#17233A" xml:space="preserve" style="white-space: pre" font-family="Lexend" font-size="30"><tspan x="{{latencyOffset}}" y="385">Avg latency</tspan></text>
						<text fill="#17233A" xml:space="preserve" style="white-space: pre" font-family="Lexend" font-size="30"><tspan x="{{lossOffset}}" y="385">Packet loss</tspan></text>
					</g>
					{{#each targets: index}}
					<text fill="#17233A" xml:space="preserve" style="white-space: pre" font-family="Lexend" font-size="32" font-weight="600" letter-spacing="-0.6px"><tspan x="88" y="{{445 + index * 65}}">{{target}}</tspan></text>
					<text fill="#17233A" xml:space="preserve" style="white-space: pre" font-family="Lexend" font-size="32" font-weight="600" letter-spacing="-0.6px"><tspan x="{{latencyOffset}}" y="{{445 + index * 65}}">{{#if failure}} -- {{else}} {{latencyRange}} {{/if}}</tspan></text>
					<text fill="#17233A" xml:space="preserve" style="white-space: pre" font-family="Lexend" font-size="32" font-weight="600" letter-spacing="-0.6px"><tspan x="{{lossOffset}}" y="{{445 + index * 65}}">{{#if failure}} -- {{else}} {{lossRange}} {{/if}}</tspan></text>
					{{/each}}
				</g>
			</g>
			<g>
				<g>
					<rect x="960" y="76" width="148" height="148" rx="24" fill="white"/>
					<rect x="961" y="77" width="146" height="146" rx="23" stroke="#242424" stroke-opacity="0.24" stroke-width="2"/>
				</g>
				<g>
					<path d="M1023.42 122.324C1024.47 120.989 1025.83 119.928 1027.38 119.231C1028.93 118.535 1030.63 118.224 1032.32 118.325C1034.02 118.426 1035.67 118.936 1037.13 119.811C1038.58 120.686 1039.81 121.901 1040.69 123.351C1051.79 119.987 1063.3 118.172 1074.9 117.956C1070.2 111.937 1064.23 107.03 1057.41 103.584C1050.6 100.138 1043.11 98.2383 1035.48 98.021C1027.84 97.8037 1020.26 99.2739 1013.26 102.327C1006.26 105.379 1000.02 109.939 994.986 115.681C1004.68 116.855 1014.21 119.082 1023.42 122.324Z" fill="#17D4A7"/>
					<path d="M1078 122.337L1074.95 122.415C1063.78 122.636 1052.7 124.386 1042.01 127.615C1042.02 127.827 1042.02 128.04 1042.01 128.252C1042.01 130.653 1041.12 132.969 1039.51 134.752C1042.95 139.508 1046.13 144.442 1049.04 149.533C1050.31 151.76 1051.49 153.953 1052.58 156.111H1053.11C1054.5 156.098 1055.87 156.521 1057.01 157.32C1065.77 149.858 1073.55 139.835 1080.33 127.251L1080.54 126.874" fill="#17D4A7"/>
					<path d="M1035.9 137.339C1034.58 137.906 1033.15 138.198 1031.71 138.197C1030.24 138.203 1028.79 137.901 1027.45 137.31C1026.1 136.719 1024.9 135.852 1023.91 134.765C1010.81 141.395 997.106 151.899 987.824 168.565C994.139 170.966 1000.75 172.492 1007.48 173.102C1008.01 172.056 1008.82 171.179 1009.81 170.569C1010.81 169.96 1011.96 169.642 1013.13 169.653C1014.31 169.664 1015.45 170.003 1016.44 170.63C1017.43 171.258 1018.22 172.15 1018.73 173.206H1019.28C1029.08 172.456 1038.57 169.462 1047.03 164.457C1046.77 163.793 1046.64 163.088 1046.64 162.377C1046.64 161.55 1046.81 160.732 1047.13 159.973C1047.46 159.213 1047.94 158.527 1048.53 157.957C1044.86 150.769 1040.64 143.875 1035.9 137.339Z" fill="#17D4A7"/>
					<path d="M1057.47 195.851C1058.58 186.985 1056.58 177.521 1053.23 168.551H1053.15C1052.01 168.552 1050.89 168.261 1049.9 167.706C1040.67 173.378 1030.22 176.761 1019.41 177.573H1018.86C1018.38 178.728 1017.57 179.715 1016.53 180.406C1015.49 181.097 1014.26 181.46 1013.02 181.449C1011.77 181.438 1010.55 181.053 1009.52 180.343C1008.49 179.634 1007.7 178.633 1007.25 177.469C1000.5 176.908 993.85 175.447 987.486 173.127C990.544 179.249 994.781 184.708 999.953 189.19C1005.12 193.671 1011.13 197.088 1017.63 199.244C1024.12 201.399 1030.98 202.252 1037.8 201.752C1044.63 201.252 1051.29 199.41 1057.4 196.332L1057.47 195.851Z" fill="#17D4A7"/>
					<path d="M1082.76 131.97C1076.76 142.886 1068.88 152.66 1059.48 160.843C1059.61 161.33 1059.68 161.833 1059.68 162.338C1059.67 163.24 1059.47 164.129 1059.08 164.945C1058.69 165.76 1058.13 166.481 1057.44 167.057C1061.07 176.729 1062.64 185.633 1062.13 193.693C1072.09 187.299 1079.57 177.692 1083.32 166.466C1087.07 155.24 1086.88 143.069 1082.76 131.97Z" fill="#17D4A7"/>
					<path d="M1021.73 130.851C1021.31 129.409 1021.25 127.889 1021.55 126.418C1011.89 123.057 1001.88 120.832 991.711 119.789C987.023 126.332 983.92 133.876 982.65 141.825C981.38 149.773 981.976 157.908 984.392 165.587C992.816 150.858 1005.46 139.08 1021.73 130.851Z" fill="#17D4A7"/>
				</g>
			</g>
		</g>
	</g>
</svg>
