<svg xmlns="http://www.w3.org/2000/svg" width="56" height="56" fill="none">
  <circle cx="28" cy="28" r="27.25" fill="url(#a)" stroke="#A6EDDA" stroke-width="1.5"/>
  <circle cx="28" cy="28" r="21.25" fill="url(#b)" stroke="#A6EDDA" stroke-width="1.5"/>
  <g stroke="#17D4A7" stroke-linecap="round" stroke-miterlimit="10" stroke-width="2" clip-path="url(#c)">
    <path d="M39 24a11 11 0 1 0-16 9.79V43h10v-9.2a11 11 0 0 0 6-9.8ZM23 39h10"/>
  </g>
  <path stroke="#17D4A7" stroke-linecap="round" stroke-miterlimit="10" stroke-width="2" d="M26.146 38.367V22.664c0-2.824-2.504-2.711-3.341-1.083s-.546 4.217 4.856 4.217m1.506 12.569V22.664c0-2.824 2.513-2.711 3.35-1.083s.556 4.245-4.856 4.245"/>
  <defs>
    <radialGradient id="a" cx="0" cy="0" r="1" gradientTransform="matrix(-16.54546 -22.2728 19.28136 -14.32326 44.545 50.273)" gradientUnits="userSpaceOnUse">
      <stop stop-color="#BDFFEE"/>
      <stop offset="1" stop-color="#fff"/>
    </radialGradient>
    <radialGradient id="b" cx="0" cy="0" r="1" gradientTransform="matrix(-12.99996 -17.5 15.14964 -11.25399 41 45.5)" gradientUnits="userSpaceOnUse">
      <stop stop-color="#BDFFEE"/>
      <stop offset="1" stop-color="#fff"/>
    </radialGradient>
    <clipPath id="c">
      <path fill="#fff" d="M12 12h32v32H12z"/>
    </clipPath>
  </defs>
</svg>
