<svg width="56" height="56" viewBox="5 5 46 46" fill="none" xmlns="http://www.w3.org/2000/svg">
<circle cx="28" cy="28" r="21.25" stroke="#17D4A7" stroke-width="1.5"/>
<g clip-path="url(#clip0_11074_23163)">
<path d="M39 23.9999C39.0014 22.0445 38.4816 20.1241 37.494 18.4365C36.5065 16.7488 35.0869 15.3549 33.3815 14.3982C31.6762 13.4416 29.7466 12.9569 27.7916 12.9939C25.8366 13.031 23.9267 13.5885 22.2588 14.609C20.5909 15.6296 19.2252 17.0763 18.3023 18.8002C17.3794 20.524 16.9327 22.4628 17.0082 24.4167C17.0837 26.3706 17.6787 28.2691 18.7318 29.9166C19.785 31.5641 21.2583 32.9011 23 33.7899V42.9999H33V33.7999C34.8062 32.8782 36.3225 31.4751 37.3814 29.7456C38.4402 28.0162 39.0004 26.0277 39 23.9999Z" stroke="#17D4A7" stroke-width="2" stroke-miterlimit="10" stroke-linecap="round"/>
<path d="M23 39H33" stroke="#17D4A7" stroke-width="2" stroke-miterlimit="10" stroke-linecap="round"/>
</g>
<path d="M26.1459 38.367V22.6635C26.1459 19.84 23.6423 19.9529 22.8047 21.5811C21.967 23.2093 22.2588 25.7976 27.6611 25.7976" stroke="#17D4A7" stroke-width="2" stroke-miterlimit="10" stroke-linecap="round"/>
<path d="M29.167 38.367V22.6635C29.167 19.84 31.68 19.9529 32.5176 21.5811C33.3553 23.2093 33.0729 25.8258 27.6611 25.8258" stroke="#17D4A7" stroke-width="2" stroke-miterlimit="10" stroke-linecap="round"/>
<defs>
<clipPath id="clip0_11074_23163">
<rect width="32" height="32" fill="white" transform="translate(12 12)"/>
</clipPath>
</defs>
</svg>
