<svg width="56" height="56" viewBox="0 0 56 56" fill="none" xmlns="http://www.w3.org/2000/svg">
<circle cx="28" cy="28" r="27.25" fill="url(#paint0_radial_5703_2023)" stroke="#A6EDDA" stroke-width="1.5"/>
<circle cx="28" cy="28" r="21.25" fill="url(#paint1_radial_5703_2023)" stroke="#A6EDDA" stroke-width="1.5"/>
<g clip-path="url(#clip0_5703_2023)">
<path d="M39 24C39.0014 22.0447 38.4816 20.1242 37.494 18.4366C36.5065 16.7489 35.0869 15.355 33.3815 14.3984C31.6762 13.4417 29.7466 12.957 27.7916 12.994C25.8366 13.0311 23.9267 13.5886 22.2588 14.6092C20.5909 15.6297 19.2252 17.0764 18.3023 18.8003C17.3794 20.5242 16.9327 22.4629 17.0082 24.4168C17.0837 26.3707 17.6787 28.2692 18.7318 29.9167C19.785 31.5642 21.2583 32.9012 23 33.79V43H33V33.8C34.8062 32.8783 36.3225 31.4752 37.3814 29.7458C38.4402 28.0163 39.0004 26.0279 39 24Z" stroke="#17D4A7" stroke-width="2" stroke-miterlimit="10" stroke-linecap="round"/>
<path d="M23 39H33" stroke="#17D4A7" stroke-width="2" stroke-miterlimit="10" stroke-linecap="round"/>
</g>
<path d="M26.1459 38.367V22.6635C26.1459 19.84 23.6423 19.9529 22.8047 21.5811C21.967 23.2093 22.2588 25.7976 27.6612 25.7976" stroke="#17D4A7" stroke-width="2" stroke-miterlimit="10" stroke-linecap="round"/>
<path d="M29.1671 38.367V22.6635C29.1671 19.84 31.68 19.9529 32.5177 21.5811C33.3553 23.2093 33.073 25.8258 27.6612 25.8258" stroke="#17D4A7" stroke-width="2" stroke-miterlimit="10" stroke-linecap="round"/>
<defs>
<radialGradient id="paint0_radial_5703_2023" cx="0" cy="0" r="1" gradientUnits="userSpaceOnUse" gradientTransform="translate(44.5455 50.2727) rotate(-126.607) scale(27.7458 24.0193)">
<stop stop-color="#BDFFEE"/>
<stop offset="1" stop-color="white"/>
</radialGradient>
<radialGradient id="paint1_radial_5703_2023" cx="0" cy="0" r="1" gradientUnits="userSpaceOnUse" gradientTransform="translate(41 45.5) rotate(-126.607) scale(21.8002 18.8723)">
<stop stop-color="#BDFFEE"/>
<stop offset="1" stop-color="white"/>
</radialGradient>
<clipPath id="clip0_5703_2023">
<rect width="32" height="32" fill="white" transform="translate(12 12)"/>
</clipPath>
</defs>
</svg>
