<svg width="20" height="20" viewBox="0 0 20 20" fill="none" xmlns="http://www.w3.org/2000/svg">
<path fill-rule="evenodd" clip-rule="evenodd" d="M10 1C5.02944 1 1 5.02944 1 10C1 14.9706 5.02944 19 10 19C14.9706 19 19 14.9706 19 10C19 5.02944 14.9706 1 10 1ZM13.8674 7.49765C14.1422 7.01861 13.9767 6.40747 13.4977 6.13262C13.0186 5.85778 12.4075 6.02331 12.1326 6.50235L9.07447 11.8325C8.94022 12.0665 8.59821 12.0524 8.48361 11.8082L7.90531 10.5756C7.67073 10.0756 7.07525 9.86044 6.57525 10.095C6.07526 10.3296 5.86011 10.9251 6.09469 11.4251L6.67299 12.6577C7.47502 14.3672 9.86951 14.4657 10.8092 12.8278L13.8674 7.49765Z" fill="#17D4A7"/>
</svg>
