<svg xmlns="http://www.w3.org/2000/svg" width="65" height="53" fill="none">
  <path fill="#fff" stroke="#E7E7EE" stroke-linecap="round" stroke-miterlimit="10" stroke-width="2" d="m57.536 10.284-56.1 4v28.685c0 4.643 3.938 8.31 8.569 7.98l40.1-2.859a8 8 0 0 0 7.431-7.98z"/>
  <path fill="#17233A" stroke="#E7E7EE" stroke-linecap="round" stroke-miterlimit="10" stroke-width="2" d="M49.708 1.994 8.867 4.906a8 8 0 0 0-7.431 7.98v.398l56.1-4a7.31 7.31 0 0 0-7.828-7.29Z"/>
  <path fill="#E7E7EE" d="M51.708 1.994 10.867 4.906a8 8 0 0 0-7.431 7.98v.398l56.1-4a7.31 7.31 0 0 0-7.828-7.29"/>
  <path fill="url(#a)" d="M51.708 1.994 10.867 4.906a8 8 0 0 0-7.431 7.98v.398l56.1-4a7.31 7.31 0 0 0-7.828-7.29"/>
  <path stroke="#E7E7EE" stroke-linecap="round" stroke-miterlimit="10" stroke-width="2" d="M51.708 1.994 10.867 4.906a8 8 0 0 0-7.431 7.98v.398l56.1-4a7.31 7.31 0 0 0-7.828-7.29Z"/>
  <path fill="#B8B8CC" d="M8.982 10.919a1.66 1.66 0 1 0 0-3.319 1.66 1.66 0 0 0 0 3.319m4.616-.4a1.66 1.66 0 1 0 0-3.32 1.66 1.66 0 0 0 0 3.32m4.617-.348a1.66 1.66 0 1 0 0-3.318 1.66 1.66 0 0 0 0 3.319Z"/>
  <path fill="#fff" stroke="#E7E7EE" stroke-linecap="round" stroke-miterlimit="10" stroke-width="2" d="m59.536 9.284-56.1 4v30.685c0 4.643 3.938 8.31 8.569 7.98l40.1-2.859a8 8 0 0 0 7.431-7.98z"/>
  <g fill="#17D4A7" stroke="#69E7C8" stroke-linecap="round" stroke-linejoin="round" stroke-width="2" filter="url(#b)">
    <path d="m31.847 43.503-.004-.002a3.43 3.43 0 0 1-1.399-1.592l-.002-.003a3.56 3.56 0 0 1-.212-2.114 3.83 3.83 0 0 1 .997-1.895l4.707-4.923a3 3 0 0 0-.137-4.28l-4.688-4.318-.006-.005h0a3.5 3.5 0 0 1-.821-1.167A3.45 3.45 0 0 1 30 21.807v-.005h0a3.83 3.83 0 0 1 1.068-2.599 3.92 3.92 0 0 1 2.552-1.196h.003a3.57 3.57 0 0 1 2.644.92l.004.004h0l9.573 8.848.004.003a3.5 3.5 0 0 1 1.104 2.562m-15.105 13.16 15.105-13.16m-15.105 13.16a3.6 3.6 0 0 0 2.065.489zm15.105-13.16a3.8 3.8 0 0 1-1.065 2.604m1.065-2.604s0 0 0 0l-1.065 2.604m0 0-.002.002-9.386 9.843-.003.003c-.338.352-.74.639-1.183.845zm14.493 9.425.046-.004a3.92 3.92 0 0 0 2.508-1.194A3.83 3.83 0 0 0 64 38.577h0a3.4 3.4 0 0 0-.281-1.404 3.5 3.5 0 0 0-.829-1.168 3.53 3.53 0 0 0-2.645-.92l-12.706.776h0-.011a3.92 3.92 0 0 0-2.55 1.198 3.83 3.83 0 0 0-1.065 2.598h0a3.43 3.43 0 0 0 1.11 2.572 3.53 3.53 0 0 0 2.645.92z"/>
  </g>
  <defs>
    <radialGradient id="a" cx="0" cy="0" r="1" gradientTransform="matrix(-18.50002 7.50005 -35.51218 -87.59626 52.5 1.5)" gradientUnits="userSpaceOnUse">
      <stop stop-color="#fff" stop-opacity=".5"/>
      <stop offset="1" stop-color="#fff" stop-opacity="0"/>
    </radialGradient>
    <filter id="b" width="49" height="38.002" x="16" y="13.999" color-interpolation-filters="sRGB" filterUnits="userSpaceOnUse">
      <feFlood flood-opacity="0" result="BackgroundImageFix"/>
      <feColorMatrix in="SourceAlpha" result="hardAlpha" values="0 0 0 0 0 0 0 0 0 0 0 0 0 0 0 0 0 0 127 0"/>
      <feOffset dx="-8" dy="2"/>
      <feGaussianBlur stdDeviation="2.5"/>
      <feComposite in2="hardAlpha" operator="out"/>
      <feColorMatrix values="0 0 0 0 0.0919117 0 0 0 0 0.830339 0 0 0 0 0.653116 0 0 0 0.25 0"/>
      <feBlend in2="BackgroundImageFix" result="effect1_dropShadow_4018_9769"/>
      <feBlend in="SourceGraphic" in2="effect1_dropShadow_4018_9769" result="shape"/>
    </filter>
  </defs>
</svg>
