<svg xmlns="http://www.w3.org/2000/svg" width="66" height="56" fill="none">
  <path fill="#fff" stroke="#E7E7EE" stroke-linecap="round" stroke-miterlimit="10" stroke-width="2" d="m57.536 10.284-56.1 4v28.685c0 4.643 3.938 8.31 8.569 7.98l40.1-2.859a8 8 0 0 0 7.431-7.98V10.284Z"/>
  <path fill="#17233A" stroke="#E7E7EE" stroke-linecap="round" stroke-miterlimit="10" stroke-width="2" d="M49.708 1.994 8.867 4.906a8 8 0 0 0-7.431 7.98v.398l56.1-4a7.309 7.309 0 0 0-7.828-7.29Z"/>
  <path fill="#E7E7EE" d="M51.708 1.994 10.867 4.906a8 8 0 0 0-7.431 7.98v.398l56.1-4a7.309 7.309 0 0 0-7.828-7.29Z"/>
  <path fill="url(#a)" d="M51.708 1.994 10.867 4.906a8 8 0 0 0-7.431 7.98v.398l56.1-4a7.309 7.309 0 0 0-7.828-7.29Z"/>
  <path stroke="#E7E7EE" stroke-linecap="round" stroke-miterlimit="10" stroke-width="2" d="M51.708 1.994 10.867 4.906a8 8 0 0 0-7.431 7.98v.398l56.1-4a7.309 7.309 0 0 0-7.828-7.29Z"/>
  <path fill="#B8B8CC" d="M8.982 10.919a1.66 1.66 0 1 0 0-3.319 1.66 1.66 0 0 0 0 3.319Zm4.616-.4a1.66 1.66 0 1 0 0-3.32 1.66 1.66 0 0 0 0 3.32Zm4.617-.348a1.66 1.66 0 1 0 0-3.318 1.66 1.66 0 0 0 0 3.319Z"/>
  <path fill="#fff" stroke="#E7E7EE" stroke-linecap="round" stroke-miterlimit="10" stroke-width="2" d="m59.536 9.284-56.1 4v30.685c0 4.643 3.938 8.31 8.569 7.98l40.1-2.859a8 8 0 0 0 7.431-7.98V9.284Z"/>
  <g fill="#17D4A7" stroke="#69E7C8" stroke-linecap="round" stroke-linejoin="round" stroke-width="2" filter="url(#b)">
    <path d="M38.973 30.684a4.809 4.809 0 0 0-1.16 2.196 4.27 4.27 0 0 0-4.388-3.15h0-.005c-.888.06-1.74.375-2.454.91a4.82 4.82 0 0 0-1.604 2.087 4.614 4.614 0 0 0-.25 2.605 4.25 4.25 0 0 0 1.241 2.276c.64.609 1.456 1 2.33 1.116a4.503 4.503 0 0 0 2.572-.415 4.804 4.804 0 0 0 1.963-1.762c.195-.305.353-.631.472-.97v7.118a4.303 4.303 0 0 0 1.327 3.153 4.2 4.2 0 0 0 1.487.915 4.177 4.177 0 0 0 1.727.23 4.72 4.72 0 0 0 3.106-1.499 4.822 4.822 0 0 0 1.284-3.218h0v-8.793a4.305 4.305 0 0 0-.335-1.712 4.265 4.265 0 0 0-.993-1.44 4.18 4.18 0 0 0-3.214-1.146 4.718 4.718 0 0 0-3.106 1.5l.718.666-.718-.666Z"/>
    <path d="M39.706 19.963h0A4.196 4.196 0 0 1 38.035 18v-.002a4.493 4.493 0 0 1-.255-2.596l1.926 4.561Zm0 0 .004.002m-.004-.002.004.002m0 0c.353.216.733.378 1.128.483l-7.44.469h0-.012a4.72 4.72 0 0 0-3.107 1.5 4.822 4.822 0 0 0-1.284 3.218v.001a4.281 4.281 0 0 0 1.328 3.159 4.23 4.23 0 0 0 1.487.915 4.178 4.178 0 0 0 1.72.231l8.688-.548h.011a4.72 4.72 0 0 0 3.108-1.5 4.822 4.822 0 0 0 1.284-3.218v-.001a4.305 4.305 0 0 0-.335-1.719 4.265 4.265 0 0 0-.993-1.44 4.212 4.212 0 0 0-2.136-1.09 4.704 4.704 0 0 0 3.468-4.538v-.034a4.375 4.375 0 0 0-.758-2.482h0l-.002-.004a4.178 4.178 0 0 0-2.046-1.57l-.002-.002m-4.107 8.17 4.107-8.17m0 0a4.374 4.374 0 0 0-2.594-.096l2.594.096Zm-4.84 1.262a4.838 4.838 0 0 0-1.197 2.345l3.443-3.703a4.756 4.756 0 0 0-2.246 1.358Z"/>
    <path d="M54.027 27.343a4.81 4.81 0 0 0 1.161-2.199 4.269 4.269 0 0 0 4.387 3.153h.005a4.626 4.626 0 0 0 2.456-.91 4.84 4.84 0 0 0 1.603-2.087 4.63 4.63 0 0 0 .25-2.605h0a4.25 4.25 0 0 0-1.242-2.275 4.17 4.17 0 0 0-2.33-1.116 4.508 4.508 0 0 0-2.572.415h-.001a4.818 4.818 0 0 0-2.434 2.734v-7.14a4.303 4.303 0 0 0-.334-1.713 4.261 4.261 0 0 0-.993-1.44 4.21 4.21 0 0 0-1.487-.916l-.336.942.336-.942a4.177 4.177 0 0 0-1.727-.23 4.717 4.717 0 0 0-3.106 1.5 4.82 4.82 0 0 0-1.283 3.218h0v8.811a4.267 4.267 0 0 0 1.327 3.153 4.175 4.175 0 0 0 3.214 1.145 4.718 4.718 0 0 0 3.106-1.498Z"/>
    <path d="M53.297 38.037h0a4.214 4.214 0 0 1 1.669 1.962l.001.003a4.5 4.5 0 0 1 .254 2.595v.002a4.844 4.844 0 0 1-1.198 2.343 4.76 4.76 0 0 1-2.245 1.359h0a4.386 4.386 0 0 1-2.594-.096l-.003-.001a4.17 4.17 0 0 1-2.045-1.574l-.002-.002a4.366 4.366 0 0 1-.758-2.481v-.036a4.703 4.703 0 0 1 3.409-4.522 4.181 4.181 0 0 1-2.078-1.078 4.264 4.264 0 0 1-.993-1.44 4.303 4.303 0 0 1-.334-1.72l6.917 4.686Zm0 0-.007-.004a4.32 4.32 0 0 0-1.05-.46m1.057.464-1.056-.464m0 0 7.361-.464h.011a4.717 4.717 0 0 0 3.108-1.5 4.82 4.82 0 0 0 1.283-3.217m-11.763 5.181-5.86-4.222m17.623-.96s0 0 0 0l-1-.012 1 .013Zm0 0a4.302 4.302 0 0 0-.334-1.719 4.262 4.262 0 0 0-.992-1.44 4.208 4.208 0 0 0-1.488-.916 4.175 4.175 0 0 0-1.72-.23m0 0-8.688.547h0-.011a4.717 4.717 0 0 0-3.108 1.5 4.82 4.82 0 0 0-1.283 3.218m13.09-5.265h-.009l.078.997m-.07-.997h.008l.062.997M46.38 33.351l1 .013m-1-.013 4.465-3.72m8.694-.548-8.694.548m8.694-.548-8.694.548m0 0a3.718 3.718 0 0 0-2.449 1.182 3.82 3.82 0 0 0-1.016 2.55m0 0a3.294 3.294 0 0 0 1.016 2.423 3.203 3.203 0 0 0 2.449.873m-3.465-3.295 3.465 3.295m0 0 .047.753-.047-.753Zm0 0 .06.753 8.634-1.301-8.694.548Z"/>
  </g>
  <defs>
    <radialGradient id="a" cx="0" cy="0" r="1" gradientTransform="matrix(-18.50002 7.50005 -35.51218 -87.59626 52.5 1.5)" gradientUnits="userSpaceOnUse">
      <stop stop-color="#fff" stop-opacity=".5"/>
      <stop offset="1" stop-color="#fff" stop-opacity="0"/>
    </radialGradient>
    <filter id="b" width="50.01" height="48.005" x="14.995" y="7.001" color-interpolation-filters="sRGB" filterUnits="userSpaceOnUse">
      <feFlood flood-opacity="0" result="BackgroundImageFix"/>
      <feColorMatrix in="SourceAlpha" result="hardAlpha" values="0 0 0 0 0 0 0 0 0 0 0 0 0 0 0 0 0 0 127 0"/>
      <feOffset dx="-8" dy="2"/>
      <feGaussianBlur stdDeviation="2.5"/>
      <feComposite in2="hardAlpha" operator="out"/>
      <feColorMatrix values="0 0 0 0 0.0919117 0 0 0 0 0.830339 0 0 0 0 0.653116 0 0 0 0.25 0"/>
      <feBlend in2="BackgroundImageFix" result="effect1_dropShadow_4018_9779"/>
      <feBlend in="SourceGraphic" in2="effect1_dropShadow_4018_9779" result="shape"/>
    </filter>
  </defs>
</svg>
