<svg width="20" height="20" viewBox="0 0 20 20" fill="none" xmlns="http://www.w3.org/2000/svg">
<g clip-path="url(#clip0_5162_1981)">
<path d="M16.6667 7.5H9.16667C8.24619 7.5 7.5 8.24619 7.5 9.16667V16.6667C7.5 17.5871 8.24619 18.3333 9.16667 18.3333H16.6667C17.5871 18.3333 18.3333 17.5871 18.3333 16.6667V9.16667C18.3333 8.24619 17.5871 7.5 16.6667 7.5Z" stroke="white" stroke-width="2" stroke-linecap="round" stroke-linejoin="round"/>
<path d="M4.16666 12.5001H3.33332C2.8913 12.5001 2.46737 12.3245 2.15481 12.0119C1.84225 11.6994 1.66666 11.2754 1.66666 10.8334V3.33341C1.66666 2.89139 1.84225 2.46746 2.15481 2.1549C2.46737 1.84234 2.8913 1.66675 3.33332 1.66675H10.8333C11.2754 1.66675 11.6993 1.84234 12.0118 2.1549C12.3244 2.46746 12.5 2.89139 12.5 3.33341V4.16675" stroke="white" stroke-width="2" stroke-linecap="round" stroke-linejoin="round"/>
</g>
<defs>
<clipPath id="clip0_5162_1981">
<rect width="20" height="20" fill="white"/>
</clipPath>
</defs>
</svg>
