<svg xmlns="http://www.w3.org/2000/svg" width="20" height="20" fill="none">
  <g stroke="#17233A" stroke-linecap="round" stroke-linejoin="round" stroke-width="2" clip-path="url(#a)">
    <path d="M16.667 7.5h-7.5c-.92 0-1.667.746-1.667 1.667v7.5c0 .92.746 1.666 1.667 1.666h7.5c.92 0 1.666-.746 1.666-1.666v-7.5c0-.92-.746-1.667-1.666-1.667"/>
    <path d="M4.167 12.5h-.834a1.667 1.667 0 0 1-1.666-1.667v-7.5a1.667 1.667 0 0 1 1.666-1.666h7.5A1.667 1.667 0 0 1 12.5 3.333v.834"/>
  </g>
  <defs>
    <clipPath id="a">
      <path fill="#fff" d="M0 0h20v20H0z"/>
    </clipPath>
  </defs>
</svg>
