<?xml version="1.0" encoding="UTF-8" standalone="no"?>
<svg
   width="4.368"
   height="4.3520012"
   viewBox="0 0 4.368 4.3520012"
   fill="none"
   version="1.1"
   id="svg51"
   sodipodi:docname="dot.svg"
   inkscape:version="1.1.1 (3bf5ae0, 2021-09-20)"
   xmlns:inkscape="http://www.inkscape.org/namespaces/inkscape"
   xmlns:sodipodi="http://sodipodi.sourceforge.net/DTD/sodipodi-0.dtd"
   xmlns="http://www.w3.org/2000/svg"
   xmlns:svg="http://www.w3.org/2000/svg">
  <defs
     id="defs55" />
  <sodipodi:namedview
     id="namedview53"
     pagecolor="#ffffff"
     bordercolor="#666666"
     borderopacity="1.0"
     inkscape:pageshadow="2"
     inkscape:pageopacity="0.0"
     inkscape:pagecheckerboard="0"
     showgrid="false"
     fit-margin-top="0"
     fit-margin-left="0"
     fit-margin-right="0"
     fit-margin-bottom="0"
     inkscape:zoom="161.4"
     inkscape:cx="1.9052045"
     inkscape:cy="2.3079306"
     inkscape:window-width="1848"
     inkscape:window-height="1016"
     inkscape:window-x="72"
     inkscape:window-y="27"
     inkscape:window-maximized="1"
     inkscape:current-layer="svg51" />
  <path
     d="m 2.176,4.352001 c -0.39467,0 -0.75733,-0.096 -1.088,-0.288 -0.33067,-0.192 -0.59733,-0.45333 -0.8,-0.784 C 0.096,2.949331 0,2.586671 0,2.192001 0,1.786671 0.096,1.418671 0.288,1.088001 0.48,0.757334 0.74133,0.496001 1.072,0.304001 1.40267,0.101334 1.77067,0 2.176,0 2.58133,0 2.94933,0.101334 3.28,0.304001 c 0.33067,0.192 0.592,0.453333 0.784,0.784 0.20267,0.33067 0.304,0.69867 0.304,1.104 0,0.39467 -0.10133,0.75733 -0.304,1.088 -0.192,0.33067 -0.45333,0.592 -0.784,0.784 -0.33067,0.192 -0.69867,0.288 -1.104,0.288 z"
     fill="#000000"
     id="path49" />
</svg>
