<svg xmlns="http://www.w3.org/2000/svg" width="64" height="64" fill="none">
  <path fill="#17233A" fill-rule="evenodd" d="M31.998 6.4C17.863 6.4 6.4 18.15 6.4 32.649c0 11.596 7.335 21.434 17.507 24.904 1.281.242 1.748-.568 1.748-1.264 0-.623-.022-2.274-.035-4.464-7.12 1.586-8.623-3.52-8.623-3.52-1.164-3.032-2.843-3.839-2.843-3.839-2.324-1.627.176-1.595.176-1.595 2.57.185 3.921 2.705 3.921 2.705 2.284 4.01 5.993 2.852 7.451 2.18.233-1.695.894-2.852 1.625-3.507-5.684-.663-11.661-2.915-11.661-12.973 0-2.865.998-5.21 2.636-7.043-.264-.664-1.143-3.334.25-6.947 0 0 2.15-.706 7.04 2.691 2.041-.583 4.232-.873 6.409-.885 2.175.012 4.364.302 6.409.885 4.887-3.397 7.032-2.69 7.032-2.69 1.398 3.612.519 6.282.257 6.946 1.64 1.833 2.63 4.178 2.63 7.043 0 10.083-5.986 12.302-11.687 12.952.917.81 1.736 2.412 1.736 4.861 0 3.508-.031 6.339-.031 7.2 0 .702.462 1.519 1.76 1.263C50.272 54.072 57.6 44.242 57.6 32.649c0-14.498-11.463-26.25-25.602-26.25Z" clip-rule="evenodd"/>
</svg>
