<svg xmlns="http://www.w3.org/2000/svg" width="21" height="21" fill="none">
  <path stroke="#fff" stroke-linecap="round" stroke-linejoin="round" stroke-width="2" d="M13.833 19.333v-3.225a2.8 2.8 0 0 0-.783-2.175c2.617-.291 5.367-1.283 5.367-5.833a4.53 4.53 0 0 0-1.25-3.125 4.22 4.22 0 0 0-.075-3.142s-.984-.291-3.259 1.234a11.15 11.15 0 0 0-5.833 0C5.725 1.542 4.742 1.833 4.742 1.833a4.22 4.22 0 0 0-.075 3.142 4.53 4.53 0 0 0-1.25 3.15c0 4.517 2.75 5.508 5.366 5.833A2.8 2.8 0 0 0 8 16.108v3.225m0-2.5c-4.167 1.25-4.167-2.083-5.833-2.5z"/>
</svg>
