<svg xmlns="http://www.w3.org/2000/svg" xmlns:xlink="http://www.w3.org/1999/xlink" xml:space="preserve" id="Layer_1" x="0" y="0" style="enable-background:new 0 0 130 32" version="1.1" viewBox="0 0 130 32">
  <style>
    .st1{fill:#ffffff}
  </style>
  <defs>
    <path id="SVGID_1_" d="M0 3h128.4v26H0z"/>
  </defs>
  <clipPath id="SVGID_2_">
    <use xlink:href="#SVGID_1_" style="overflow:visible"/>
  </clipPath>
  <g style="clip-path:url(#SVGID_2_)">
    <path d="M10.354 9.081a2.631 2.631 0 0 1 2.227-1 2.64 2.64 0 0 1 2.093 1.256 31.503 31.503 0 0 1 8.551-1.349 12.975 12.975 0 0 0-19.979-.569 33.66 33.66 0 0 1 7.108 1.662zm13.647.003-.764.019a30.567 30.567 0 0 0-8.235 1.3c.003.053.003.106 0 .159 0 .6-.222 1.179-.624 1.625a41.428 41.428 0 0 1 2.382 3.695c.319.557.613 1.105.884 1.645h.133c.349-.003.689.102.975.302 2.191-1.866 4.134-4.371 5.83-7.517l.052-.094m-11.16 2.617a2.655 2.655 0 0 1-2.113-.007 2.632 2.632 0 0 1-.884-.636c-3.276 1.658-6.701 4.284-9.022 8.45 1.579.6 3.232.982 4.914 1.134a1.57 1.57 0 0 1 2.24-.618c.247.157.445.38.572.644h.14a16.006 16.006 0 0 0 6.935-2.187 1.445 1.445 0 0 1-.097-.52 1.532 1.532 0 0 1 .474-1.105 38.944 38.944 0 0 0-3.159-5.155z" class="st1"/>
    <path d="M18.866 27.463c.28-2.216-.221-4.583-1.059-6.825h-.019c-.284 0-.564-.073-.813-.211a16.993 16.993 0 0 1-7.621 2.467h-.14a1.56 1.56 0 0 1-1.459.969 1.569 1.569 0 0 1-1.443-.995 19.01 19.01 0 0 1-4.94-1.085 13.012 13.012 0 0 0 7.535 6.53 12.997 12.997 0 0 0 9.943-.728l.016-.122zm6.325-15.97a26.545 26.545 0 0 1-5.821 7.218c.033.122.049.248.049.374a1.544 1.544 0 0 1-.559 1.18c.907 2.418 1.3 4.644 1.173 6.659a12.978 12.978 0 0 0 5.158-15.431zm-15.259-.28a2.36 2.36 0 0 1-.046-1.108 32.858 32.858 0 0 0-7.458-1.658 12.97 12.97 0 0 0-1.83 11.45c2.106-3.682 5.268-6.627 9.334-8.684z" class="st1"/>
    <path d="M44.139 15.579v5.635c-.222.267-.563.557-1.026.869-.462.306-1.058.57-1.787.791-.729.221-1.611.332-2.646.332-.918 0-1.755-.15-2.51-.449a5.425 5.425 0 0 1-1.953-1.338c-.54-.586-.957-1.302-1.25-2.149-.293-.853-.439-1.826-.439-2.92v-.889c0-1.094.14-2.067.42-2.92.286-.853.693-1.572 1.221-2.158a5.224 5.224 0 0 1 1.885-1.338c.729-.306 1.54-.459 2.432-.459 1.237 0 2.253.202 3.047.605.794.397 1.4.951 1.816 1.66.423.703.684 1.51.781 2.422h-2.842a3.636 3.636 0 0 0-.41-1.26 2.12 2.12 0 0 0-.869-.84c-.371-.202-.853-.303-1.446-.303-.488 0-.924.101-1.309.303a2.58 2.58 0 0 0-.957.869c-.26.384-.459.859-.596 1.426-.137.566-.205 1.224-.205 1.973v.908c0 .742.072 1.4.215 1.973.143.566.355 1.045.635 1.436a2.76 2.76 0 0 0 1.055.869c.417.195.902.293 1.455.293.462 0 .846-.039 1.153-.117.312-.078.563-.172.752-.283a2.33 2.33 0 0 0 .449-.332v-2.519h-2.676v-2.09h5.605zm5.156-7.568v15h-2.822v-15h2.822zm1.876 9.824v-.205c0-.775.11-1.488.332-2.139a4.944 4.944 0 0 1 .967-1.709 4.331 4.331 0 0 1 1.562-1.123c.618-.273 1.328-.41 2.129-.41s1.514.137 2.139.41a4.31 4.31 0 0 1 1.572 1.123c.43.482.755 1.052.976 1.709a6.59 6.59 0 0 1 .332 2.139v.205c0 .768-.11 1.481-.332 2.139a4.986 4.986 0 0 1-.976 1.709 4.326 4.326 0 0 1-1.563 1.123c-.618.267-1.328.4-2.129.4s-1.514-.133-2.138-.4a4.412 4.412 0 0 1-1.572-1.123 5.066 5.066 0 0 1-.967-1.709 6.651 6.651 0 0 1-.332-2.139zm2.812-.205v.205c0 .443.039.856.117 1.24.078.384.202.723.371 1.016.176.287.404.511.684.674.28.163.622.244 1.025.244.391 0 .726-.081 1.006-.244.28-.163.504-.387.674-.674.17-.293.293-.631.371-1.016.085-.384.127-.798.127-1.24v-.205c0-.43-.042-.833-.127-1.211a3.192 3.192 0 0 0-.381-1.016 1.883 1.883 0 0 0-.674-.703c-.28-.169-.618-.254-1.016-.254-.397 0-.736.085-1.016.254a2.005 2.005 0 0 0-.674.703 3.35 3.35 0 0 0-.371 1.016 6.049 6.049 0 0 0-.116 1.211zm8.926-9.619h2.813v12.578l-.283 2.422h-2.53v-15zm9.501 9.609v.205c0 .788-.084 1.51-.254 2.168a4.953 4.953 0 0 1-.762 1.709 3.66 3.66 0 0 1-1.289 1.113c-.508.26-1.107.391-1.797.391-.644 0-1.204-.13-1.68-.391a3.407 3.407 0 0 1-1.182-1.104 6.291 6.291 0 0 1-.772-1.67 12.682 12.682 0 0 1-.439-2.09v-.449c.097-.755.244-1.452.439-2.09a6.291 6.291 0 0 1 .772-1.67 3.417 3.417 0 0 1 1.182-1.104c.469-.26 1.022-.391 1.66-.391.696 0 1.302.133 1.816.4.521.26.95.631 1.289 1.113.345.475.599 1.042.762 1.699a8.53 8.53 0 0 1 .255 2.161zm-2.812.205v-.205c0-.43-.032-.833-.097-1.211a3.239 3.239 0 0 0-.312-1.006 1.77 1.77 0 0 0-.615-.693c-.254-.169-.583-.254-.986-.254-.384 0-.71.065-.977.195s-.488.313-.664.547a2.494 2.494 0 0 0-.381.84 5.143 5.143 0 0 0-.156 1.055v1.279c.02.514.104.97.254 1.367.156.391.391.7.703.928.319.221.732.332 1.24.332.397 0 .725-.078.986-.234a1.58 1.58 0 0 0 .606-.664c.15-.287.254-.622.312-1.006a8.67 8.67 0 0 0 .087-1.27zm10.264 2.803v-4.707c0-.339-.055-.628-.166-.869a1.228 1.228 0 0 0-.518-.576c-.228-.137-.524-.205-.888-.205-.313 0-.583.055-.811.166a1.166 1.166 0 0 0-.527.459 1.266 1.266 0 0 0-.186.693h-2.812c0-.449.104-.876.312-1.279.208-.404.511-.758.909-1.064a4.475 4.475 0 0 1 1.416-.732 6.103 6.103 0 0 1 1.855-.264c.82 0 1.55.137 2.188.41a3.347 3.347 0 0 1 1.504 1.23c.371.547.556 1.231.556 2.051v4.522c0 .58.036 1.055.108 1.426.072.365.176.684.312.957v.166h-2.842a4.067 4.067 0 0 1-.313-1.074 9.044 9.044 0 0 1-.097-1.31zm.371-4.053.02 1.592H78.68c-.371 0-.693.042-.967.127a1.814 1.814 0 0 0-.674.361c-.176.15-.306.326-.391.527-.078.202-.117.423-.117.664s.055.459.166.654c.111.189.27.339.478.449.208.104.453.156.732.156.423 0 .791-.085 1.104-.254.313-.169.554-.378.723-.625.176-.247.267-.482.273-.703l.742 1.191a4.816 4.816 0 0 1-.43.83c-.176.286-.4.557-.674.81a3.46 3.46 0 0 1-.986.615c-.384.156-.84.234-1.367.234-.67 0-1.279-.133-1.826-.4a3.338 3.338 0 0 1-1.289-1.123 2.954 2.954 0 0 1-.469-1.641c0-.553.104-1.045.313-1.475.208-.43.514-.791.918-1.084.41-.299.921-.524 1.533-.674.612-.156 1.322-.234 2.129-.234h1.632zm7.597-8.564v15h-2.822v-15h2.822zm5.137 6.464v12.598h-2.813V12.444h2.607l.206 2.031zm6.69 3.135v.205c0 .768-.091 1.481-.274 2.139a5.337 5.337 0 0 1-.781 1.719 3.716 3.716 0 0 1-1.289 1.133c-.508.267-1.094.4-1.758.4-.645 0-1.204-.13-1.68-.391a3.506 3.506 0 0 1-1.201-1.093c-.319-.475-.576-1.025-.771-1.65s-.345-1.296-.449-2.012v-.537c.104-.768.254-1.471.449-2.109a6.089 6.089 0 0 1 .771-1.67 3.496 3.496 0 0 1 1.191-1.104c.475-.26 1.032-.391 1.67-.391.67 0 1.259.127 1.768.381.514.254.944.619 1.289 1.094.352.475.616 1.042.791 1.699.183.657.274 1.386.274 2.187zm-2.823.205v-.205c0-.449-.039-.863-.117-1.24a3.227 3.227 0 0 0-.352-1.006 1.698 1.698 0 0 0-.625-.664c-.254-.163-.563-.244-.928-.244-.384 0-.713.062-.986.186a1.65 1.65 0 0 0-.654.537c-.17.234-.296.514-.381.84a5.355 5.355 0 0 0-.156 1.103v1.357c.032.482.123.915.273 1.299.15.378.381.677.694.899.312.221.723.332 1.23.332.371 0 .684-.081.938-.244.254-.169.459-.4.615-.693a3.16 3.16 0 0 0 .342-1.016 6.75 6.75 0 0 0 .107-1.241zm7.54-5.371V23.01h-2.823V12.444h2.823zm-2.999-2.754c0-.41.144-.749.43-1.016.287-.267.671-.4 1.153-.4.475 0 .856.133 1.142.4.293.267.44.605.44 1.016s-.147.749-.44 1.016c-.286.267-.667.4-1.142.4-.482 0-.866-.133-1.153-.4a1.331 1.331 0 0 1-.43-1.016zm8.077 5.01v8.311h-2.813V12.444h2.637l.176 2.256zm-.41 2.656h-.762c0-.781.1-1.484.302-2.109.202-.631.486-1.169.85-1.611a3.654 3.654 0 0 1 1.299-1.025 3.913 3.913 0 0 1 1.699-.361c.495 0 .947.072 1.358.215.41.143.761.371 1.054.684.3.313.528.726.684 1.24.162.514.244 1.143.244 1.885v6.738h-2.832v-6.748c0-.469-.065-.833-.196-1.094a1.096 1.096 0 0 0-.576-.547c-.247-.111-.553-.166-.918-.166-.377 0-.706.075-.986.225-.273.15-.501.358-.684.625-.175.26-.309.566-.4.918-.091.35-.136.728-.136 1.131zm15.556-4.912h2.549v10.215c0 .963-.215 1.781-.645 2.451a3.971 3.971 0 0 1-1.777 1.533c-.762.351-1.647.527-2.656.527-.443 0-.912-.059-1.407-.176a5.61 5.61 0 0 1-1.406-.547 3.719 3.719 0 0 1-1.113-.937l1.24-1.66c.326.378.703.671 1.133.879.43.215.905.322 1.426.322.508 0 .937-.094 1.289-.283.351-.182.622-.452.811-.811.188-.352.283-.778.283-1.279v-7.793l.273-2.441zm-7.109 5.41v-.205c0-.807.097-1.54.293-2.197.202-.664.485-1.234.849-1.709a3.877 3.877 0 0 1 1.348-1.104c.527-.26 1.123-.391 1.787-.391.703 0 1.292.13 1.768.391a3.2 3.2 0 0 1 1.172 1.113c.306.475.543 1.038.712 1.689.176.645.313 1.351.41 2.119v.449c-.097.736-.244 1.419-.439 2.051s-.453 1.185-.771 1.66a3.42 3.42 0 0 1-1.192 1.094c-.468.26-1.028.391-1.68.391-.65 0-1.24-.133-1.767-.4-.521-.267-.967-.641-1.338-1.123s-.657-1.048-.859-1.699a7.354 7.354 0 0 1-.293-2.129zm2.812-.205v.205c0 .436.043.843.127 1.221.085.378.215.713.391 1.006.182.287.407.511.673.674.274.156.596.234.967.234.515 0 .935-.108 1.26-.322.326-.221.57-.524.733-.908.162-.384.257-.827.283-1.328v-1.279a4.356 4.356 0 0 0-.166-1.104 2.659 2.659 0 0 0-.411-.85 1.766 1.766 0 0 0-.683-.547c-.28-.13-.612-.195-.996-.195-.371 0-.693.085-.967.254a2.076 2.076 0 0 0-.674.674 3.396 3.396 0 0 0-.4 1.016c-.091.383-.137.8-.137 1.249z" style="fill:#fff"/>
  </g>
</svg>
