<svg xmlns="http://www.w3.org/2000/svg" width="1150" height="625" fill="none">
  <g stroke="#E1E9ED" opacity=".64">
    <path fill="#E7E7EE" d="m457.927 197.576 1.573-5.697 1.573 5.697a17.7 17.7 0 0 0 12.351 12.351l5.697 1.573-5.697 1.573a17.7 17.7 0 0 0-12.351 12.351l-1.573 5.697-1.573-5.697a17.7 17.7 0 0 0-12.351-12.351l-5.697-1.573 5.697-1.573a17.7 17.7 0 0 0 12.351-12.351Zm0 275 1.573-5.697 1.573 5.697a17.7 17.7 0 0 0 12.351 12.351l5.697 1.573-5.697 1.573a17.7 17.7 0 0 0-12.351 12.351l-1.573 5.697-1.573-5.697a17.7 17.7 0 0 0-12.351-12.351l-5.697-1.573 5.697-1.573a17.7 17.7 0 0 0 12.351-12.351Zm-116 0 1.573-5.697 1.573 5.697a17.7 17.7 0 0 0 12.351 12.351l5.697 1.573-5.697 1.573a17.7 17.7 0 0 0-12.351 12.351l-1.573 5.697-1.573-5.697a17.7 17.7 0 0 0-12.351-12.351l-5.697-1.573 5.697-1.573a17.7 17.7 0 0 0 12.351-12.351Z"/>
    <circle cx="13.5" cy="327.5" r="13" fill="#E7E7EE"/>
    <circle cx="321.5" cy="377.5" r="13" fill="#E7E7EE"/>
    <circle cx="782.5" cy="451.5" r="13" fill="#E7E7EE"/>
    <circle cx="965.5" cy="246.5" r="13" fill="#E7E7EE"/>
    <path stroke-width="1.5" d="M330.75 591.75h25.5v25.5h-25.5zm-160-393h25.5v25.5h-25.5z"/>
    <path d="M13.5 327H217c70.14 0 127 56.86 127 127v150"/>
    <circle cx="874" cy="349" r="137.5"/>
    <circle cx="874" cy="349" r="275.5"/>
    <path d="M460-64c0 151.878-123.569 275-276 275M460-64c0 151.878 123.569 275 276 275m-551.5.5h275v275h-275zm276 0h275v275h-275zm276 0h275v275h-275z"/>
  </g>
</svg>
