<svg xmlns="http://www.w3.org/2000/svg" width="58" height="60" fill="none">
  <path fill="#17D4A7" stroke="#69E7C8" stroke-linecap="round" stroke-linejoin="round" stroke-width="2.4" d="M26.4 2.586a4.8 4.8 0 0 1 4.8 0l20.142 11.628a4.8 4.8 0 0 1 2.4 4.157V41.63a4.8 4.8 0 0 1-2.4 4.157L31.2 57.414a4.8 4.8 0 0 1-4.8 0L6.258 45.786a4.8 4.8 0 0 1-2.4-4.157V18.37a4.8 4.8 0 0 1 2.4-4.157z"/>
  <path fill="url(#a)" stroke="#69E7C8" stroke-linecap="round" stroke-linejoin="round" stroke-width="2.4" d="M26.4 9.786a4.8 4.8 0 0 1 4.8 0l13.906 8.028a4.8 4.8 0 0 1 2.4 4.157V38.03a4.8 4.8 0 0 1-2.4 4.157L31.2 50.214a4.8 4.8 0 0 1-4.8 0l-13.906-8.028a4.8 4.8 0 0 1-2.4-4.157V21.97a4.8 4.8 0 0 1 2.4-4.157z"/>
  <path fill="#fff" stroke="#17233A" stroke-linecap="round" stroke-linejoin="round" stroke-width="2.4" d="m30.2 16-14 16.8h12.6L27.4 44l14-16.8H28.8z"/>
  <defs>
    <radialGradient id="a" cx="0" cy="0" r="1" gradientTransform="rotate(59.381 -4.828 20.88)scale(34.1631)" gradientUnits="userSpaceOnUse">
      <stop stop-color="#fff" stop-opacity=".89"/>
      <stop offset="1" stop-color="#fff" stop-opacity="0"/>
    </radialGradient>
  </defs>
</svg>
