<svg width="1440" height="532" viewBox="0 0 1440 532" fill="none" xmlns="http://www.w3.org/2000/svg">
<path fill-rule="evenodd" clip-rule="evenodd" d="M418.063 -30.1108L355.562 -66.1962C353.705 -67.268 351.418 -67.2679 349.562 -66.1962L287.06 -30.1108C285.204 -29.039 284.06 -27.0582 284.06 -24.9146V47.2561C284.06 49.3996 285.204 51.3804 287.06 52.4522L349.562 88.5376C351.418 89.6094 353.705 89.6093 355.562 88.5376L418.063 52.4522C419.92 51.3804 421.063 49.3996 421.063 47.256V-24.9146C421.063 -27.0582 419.92 -29.039 418.063 -30.1108ZM356.562 -67.9282C354.087 -69.3573 351.037 -69.3573 348.562 -67.9282L286.06 -31.8429C283.585 -30.4138 282.06 -27.7728 282.06 -24.9146V47.2561C282.06 50.1142 283.585 52.7552 286.06 54.1843L348.562 90.2696C351.037 91.6987 354.087 91.6987 356.562 90.2696L419.063 54.1843C421.539 52.7552 423.063 50.1142 423.063 47.256V-24.9146C423.063 -27.7728 421.539 -30.4138 419.063 -31.8429L356.562 -67.9282ZM344.533 97.2538L282.032 61.1685C280.175 60.0967 277.888 60.0967 276.032 61.1685L213.53 97.2538C211.674 98.3256 210.53 100.306 210.53 102.45V174.621C210.53 176.764 211.674 178.745 213.53 179.817L276.032 215.902C277.888 216.974 280.175 216.974 282.032 215.902L344.533 179.817C346.39 178.745 347.533 176.764 347.533 174.621V102.45C347.533 100.306 346.39 98.3256 344.533 97.2538ZM283.032 59.4364C280.557 58.0073 277.507 58.0073 275.032 59.4364L212.53 95.5218C210.055 96.9508 208.53 99.5918 208.53 102.45V174.621C208.53 177.479 210.055 180.12 212.53 181.549L275.032 217.634C277.507 219.063 280.557 219.063 283.032 217.634L345.533 181.549C348.009 180.12 349.533 177.479 349.533 174.621V102.45C349.533 99.5918 348.009 96.9508 345.533 95.5218L283.032 59.4364ZM344.533 351.983L282.032 315.898C280.175 314.826 277.888 314.826 276.032 315.898L213.53 351.983C211.674 353.055 210.53 355.036 210.53 357.179V429.35C210.53 431.494 211.674 433.474 213.53 434.546L276.032 470.631C277.888 471.703 280.175 471.703 282.032 470.631L344.533 434.546C346.39 433.474 347.533 431.494 347.533 429.35V357.179C347.533 355.036 346.39 353.055 344.533 351.983ZM283.032 314.166C280.557 312.737 277.507 312.737 275.032 314.166L212.53 350.251C210.055 351.68 208.53 354.321 208.53 357.179V429.35C208.53 432.208 210.055 434.849 212.53 436.278L275.032 472.363C277.507 473.793 280.557 473.793 283.032 472.363L345.533 436.278C348.009 434.849 349.533 432.208 349.533 429.35V357.179C349.533 354.321 348.009 351.68 345.533 350.251L283.032 314.166ZM429.092 61.1685L491.594 97.2538C493.45 98.3256 494.594 100.306 494.594 102.45V174.621C494.594 176.764 493.45 178.745 491.594 179.817L429.092 215.902C427.236 216.974 424.948 216.974 423.092 215.902L360.59 179.817C358.734 178.745 357.59 176.764 357.59 174.621V102.45C357.59 100.306 358.734 98.3256 360.59 97.2538L423.092 61.1685C424.948 60.0967 427.236 60.0967 429.092 61.1685ZM422.092 59.4364C424.567 58.0073 427.617 58.0073 430.092 59.4364L492.594 95.5218C495.069 96.9508 496.594 99.5918 496.594 102.45V174.621C496.594 177.479 495.069 180.12 492.594 181.549L430.092 217.634C427.617 219.063 424.567 219.063 422.092 217.634L359.59 181.549C357.115 180.12 355.59 177.479 355.59 174.621V102.45C355.59 99.5918 357.115 96.9508 359.59 95.5218L422.092 59.4364ZM491.594 351.983L429.092 315.898C427.236 314.826 424.948 314.826 423.092 315.898L360.59 351.983C358.734 353.055 357.59 355.036 357.59 357.179V429.35C357.59 431.494 358.734 433.474 360.59 434.546L423.092 470.631C424.948 471.703 427.236 471.703 429.092 470.631L491.594 434.546C493.45 433.474 494.594 431.494 494.594 429.35V357.179C494.594 355.036 493.45 353.055 491.594 351.983ZM430.092 314.166C427.617 312.737 424.567 312.737 422.092 314.166L359.59 350.251C357.115 351.68 355.59 354.321 355.59 357.179V429.35C355.59 432.208 357.115 434.849 359.59 436.278L422.092 472.363C424.567 473.793 427.617 473.793 430.092 472.363L492.594 436.278C495.069 434.849 496.594 432.208 496.594 429.35V357.179C496.594 354.321 495.069 351.68 492.594 350.251L430.092 314.166ZM870.272 61.1685L932.774 97.2538C934.63 98.3256 935.774 100.306 935.774 102.45V174.621C935.774 176.764 934.63 178.745 932.774 179.817L870.272 215.902C868.416 216.974 866.129 216.974 864.272 215.902L801.771 179.817C799.914 178.745 798.771 176.764 798.771 174.621V102.45C798.771 100.306 799.914 98.3256 801.771 97.2538L864.272 61.1685C866.129 60.0967 868.416 60.0967 870.272 61.1685ZM863.272 59.4364C865.748 58.0073 868.797 58.0073 871.272 59.4364L933.774 95.5218C936.249 96.9508 937.774 99.5918 937.774 102.45V174.621C937.774 177.479 936.249 180.12 933.774 181.549L871.272 217.634C868.797 219.063 865.748 219.063 863.272 217.634L800.771 181.549C798.296 180.12 796.771 177.479 796.771 174.621V102.45C796.771 99.5918 798.296 96.9508 800.771 95.5218L863.272 59.4364ZM932.774 351.983L870.272 315.898C868.416 314.826 866.129 314.826 864.272 315.898L801.771 351.983C799.914 353.055 798.771 355.036 798.771 357.179V429.35C798.771 431.494 799.914 433.474 801.771 434.546L864.272 470.631C866.129 471.703 868.416 471.703 870.272 470.631L932.774 434.546C934.63 433.474 935.774 431.494 935.774 429.35V357.179C935.774 355.036 934.63 353.055 932.774 351.983ZM871.272 314.166C868.797 312.737 865.748 312.737 863.272 314.166L800.771 350.251C798.296 351.68 796.771 354.321 796.771 357.179V429.35C796.771 432.208 798.296 434.849 800.771 436.278L863.272 472.363C865.748 473.793 868.797 473.793 871.272 472.363L933.774 436.278C936.249 434.849 937.774 432.208 937.774 429.35V357.179C937.774 354.321 936.249 351.68 933.774 350.251L871.272 314.166ZM1017.33 315.898L1079.83 351.983C1081.69 353.055 1082.83 355.036 1082.83 357.179V429.35C1082.83 431.494 1081.69 433.474 1079.83 434.546L1017.33 470.631C1015.48 471.703 1013.19 471.703 1011.33 470.631L948.831 434.546C946.975 433.474 945.831 431.494 945.831 429.35V357.179C945.831 355.036 946.975 353.055 948.831 351.983L1011.33 315.898C1013.19 314.826 1015.48 314.826 1017.33 315.898ZM1010.33 314.166C1012.81 312.737 1015.86 312.737 1018.33 314.166L1080.83 350.251C1083.31 351.68 1084.83 354.321 1084.83 357.179V429.35C1084.83 432.208 1083.31 434.849 1080.83 436.278L1018.33 472.363C1015.86 473.793 1012.81 473.793 1010.33 472.363L947.831 436.278C945.356 434.849 943.831 432.208 943.831 429.35V357.179C943.831 354.321 945.356 351.68 947.831 350.251L1010.33 314.166ZM1226.89 97.2538L1164.39 61.1685C1162.54 60.0967 1160.25 60.0967 1158.39 61.1685L1095.89 97.2538C1094.03 98.3256 1092.89 100.306 1092.89 102.45V174.621C1092.89 176.764 1094.03 178.745 1095.89 179.817L1158.39 215.902C1160.25 216.974 1162.54 216.974 1164.39 215.902L1226.89 179.817C1228.75 178.745 1229.89 176.764 1229.89 174.621V102.45C1229.89 100.306 1228.75 98.3256 1226.89 97.2538ZM1165.39 59.4364C1162.92 58.0073 1159.87 58.0073 1157.39 59.4364L1094.89 95.5218C1092.42 96.9508 1090.89 99.5918 1090.89 102.45V174.621C1090.89 177.479 1092.42 180.12 1094.89 181.549L1157.39 217.634C1159.87 219.063 1162.92 219.063 1165.39 217.634L1227.89 181.549C1230.37 180.12 1231.89 177.479 1231.89 174.621V102.45C1231.89 99.5918 1230.37 96.9508 1227.89 95.5218L1165.39 59.4364ZM1164.39 315.898L1226.89 351.983C1228.75 353.055 1229.89 355.036 1229.89 357.179V429.35C1229.89 431.494 1228.75 433.474 1226.89 434.546L1164.39 470.631C1162.54 471.703 1160.25 471.703 1158.39 470.631L1095.89 434.546C1094.03 433.474 1092.89 431.494 1092.89 429.35V357.179C1092.89 355.036 1094.03 353.055 1095.89 351.983L1158.39 315.898C1160.25 314.826 1162.54 314.826 1164.39 315.898ZM1157.39 314.166C1159.87 312.737 1162.92 312.737 1165.39 314.166L1227.89 350.251C1230.37 351.68 1231.89 354.321 1231.89 357.179V429.35C1231.89 432.208 1230.37 434.849 1227.89 436.278L1165.39 472.363C1162.92 473.793 1159.87 473.793 1157.39 472.363L1094.89 436.278C1092.42 434.849 1090.89 432.208 1090.89 429.35V357.179C1090.89 354.321 1092.42 351.68 1094.89 350.251L1157.39 314.166ZM418.063 224.618L355.562 188.533C353.705 187.461 351.418 187.461 349.562 188.533L287.06 224.618C285.204 225.69 284.06 227.671 284.06 229.815V301.985C284.06 304.129 285.204 306.11 287.06 307.181L349.562 343.267C351.418 344.339 353.705 344.339 355.562 343.267L418.063 307.181C419.92 306.11 421.063 304.129 421.063 301.985V229.815C421.063 227.671 419.92 225.69 418.063 224.618ZM356.562 186.801C354.087 185.372 351.037 185.372 348.562 186.801L286.06 222.886C283.585 224.315 282.06 226.956 282.06 229.815V301.985C282.06 304.843 283.585 307.484 286.06 308.913L348.562 344.999C351.037 346.428 354.087 346.428 356.562 344.999L419.063 308.913C421.539 307.484 423.063 304.843 423.063 301.985V229.815C423.063 226.956 421.539 224.315 419.063 222.886L356.562 186.801ZM208.502 188.533L271.003 224.618C272.86 225.69 274.003 227.671 274.003 229.815V301.985C274.003 304.129 272.86 306.11 271.003 307.181L208.502 343.267C206.645 344.339 204.358 344.339 202.502 343.267L140 307.181C138.144 306.11 137 304.129 137 301.985V229.815C137 227.671 138.144 225.69 140 224.618L202.502 188.533C204.358 187.461 206.645 187.461 208.502 188.533ZM201.502 186.801C203.977 185.372 207.026 185.372 209.502 186.801L272.003 222.886C274.479 224.315 276.003 226.956 276.003 229.815V301.985C276.003 304.843 274.479 307.484 272.003 308.913L209.502 344.999C207.026 346.428 203.977 346.428 201.502 344.999L139 308.913C136.525 307.484 135 304.843 135 301.985V229.815C135 226.956 136.525 224.315 139 222.886L201.502 186.801ZM565.124 224.618L502.622 188.533C500.766 187.461 498.478 187.461 496.622 188.533L434.12 224.618C432.264 225.69 431.12 227.671 431.12 229.815V301.985C431.12 304.129 432.264 306.11 434.12 307.181L496.622 343.267C498.478 344.339 500.766 344.339 502.622 343.267L565.124 307.181C566.98 306.11 568.124 304.129 568.124 301.985V229.815C568.124 227.671 566.98 225.69 565.124 224.618ZM503.622 186.801C501.147 185.372 498.097 185.372 495.622 186.801L433.12 222.886C430.645 224.315 429.12 226.956 429.12 229.815V301.985C429.12 304.843 430.645 307.484 433.12 308.913L495.622 344.999C498.097 346.428 501.147 346.428 503.622 344.999L566.124 308.913C568.599 307.484 570.124 304.843 570.124 301.985V229.815C570.124 226.956 568.599 224.315 566.124 222.886L503.622 186.801ZM649.682 188.533L712.184 224.618C714.04 225.69 715.184 227.671 715.184 229.815V301.985C715.184 304.129 714.04 306.11 712.184 307.181L649.682 343.267C647.826 344.339 645.539 344.339 643.682 343.267L581.181 307.181C579.324 306.11 578.181 304.129 578.181 301.985V229.815C578.181 227.671 579.324 225.69 581.181 224.618L643.682 188.533C645.539 187.461 647.826 187.461 649.682 188.533ZM642.682 186.801C645.157 185.372 648.207 185.372 650.682 186.801L713.184 222.886C715.659 224.315 717.184 226.956 717.184 229.815V301.985C717.184 304.843 715.659 307.484 713.184 308.913L650.682 344.999C648.207 346.428 645.157 346.428 642.682 344.999L580.181 308.913C577.705 307.484 576.181 304.843 576.181 301.985V229.815C576.181 226.956 577.705 224.315 580.181 222.886L642.682 186.801ZM859.244 224.618L796.742 188.533C794.886 187.461 792.599 187.461 790.742 188.533L728.241 224.618C726.384 225.69 725.241 227.671 725.241 229.815V301.985C725.241 304.129 726.384 306.11 728.241 307.181L790.742 343.267C792.599 344.339 794.886 344.339 796.742 343.267L859.244 307.181C861.1 306.11 862.244 304.129 862.244 301.985V229.815C862.244 227.671 861.1 225.69 859.244 224.618ZM797.742 186.801C795.267 185.372 792.218 185.372 789.742 186.801L727.241 222.886C724.765 224.315 723.241 226.956 723.241 229.815V301.985C723.241 304.843 724.765 307.484 727.241 308.913L789.742 344.999C792.218 346.428 795.267 346.428 797.742 344.999L860.244 308.913C862.719 307.484 864.244 304.843 864.244 301.985V229.815C864.244 226.956 862.719 224.315 860.244 222.886L797.742 186.801ZM943.802 188.533L1006.3 224.618C1008.16 225.69 1009.3 227.671 1009.3 229.815V301.985C1009.3 304.129 1008.16 306.11 1006.3 307.181L943.802 343.267C941.946 344.339 939.659 344.339 937.802 343.267L875.301 307.181C873.444 306.11 872.301 304.129 872.301 301.985V229.815C872.301 227.671 873.444 225.69 875.301 224.618L937.802 188.533C939.659 187.461 941.946 187.461 943.802 188.533ZM936.802 186.801C939.278 185.372 942.327 185.372 944.802 186.801L1007.3 222.886C1009.78 224.315 1011.3 226.956 1011.3 229.815V301.985C1011.3 304.843 1009.78 307.484 1007.3 308.913L944.802 344.999C942.327 346.428 939.278 346.428 936.802 344.999L874.301 308.913C871.826 307.484 870.301 304.843 870.301 301.985V229.815C870.301 226.956 871.826 224.315 874.301 222.886L936.802 186.801ZM1153.36 224.618L1090.86 188.533C1089.01 187.461 1086.72 187.461 1084.86 188.533L1022.36 224.618C1020.5 225.69 1019.36 227.671 1019.36 229.815V301.985C1019.36 304.129 1020.5 306.11 1022.36 307.181L1084.86 343.267C1086.72 344.339 1089.01 344.339 1090.86 343.267L1153.36 307.181C1155.22 306.11 1156.36 304.129 1156.36 301.985V229.815C1156.36 227.671 1155.22 225.69 1153.36 224.618ZM1091.86 186.801C1089.39 185.372 1086.34 185.372 1083.86 186.801L1021.36 222.886C1018.89 224.315 1017.36 226.956 1017.36 229.815V301.985C1017.36 304.843 1018.89 307.484 1021.36 308.913L1083.86 344.999C1086.34 346.428 1089.39 346.428 1091.86 344.999L1154.36 308.913C1156.84 307.484 1158.36 304.843 1158.36 301.985V229.815C1158.36 226.956 1156.84 224.315 1154.36 222.886L1091.86 186.801ZM1237.92 188.533L1300.42 224.618C1302.28 225.69 1303.42 227.671 1303.42 229.815V301.985C1303.42 304.129 1302.28 306.11 1300.42 307.181L1237.92 343.267C1236.07 344.339 1233.78 344.339 1231.92 343.267L1169.42 307.181C1167.56 306.11 1166.42 304.129 1166.42 301.985V229.815C1166.42 227.671 1167.56 225.69 1169.42 224.618L1231.92 188.533C1233.78 187.461 1236.07 187.461 1237.92 188.533ZM1230.92 186.801C1233.4 185.372 1236.45 185.372 1238.92 186.801L1301.42 222.886C1303.9 224.315 1305.42 226.956 1305.42 229.815V301.985C1305.42 304.843 1303.9 307.484 1301.42 308.913L1238.92 344.999C1236.45 346.428 1233.4 346.428 1230.92 344.999L1168.42 308.913C1165.95 307.484 1164.42 304.843 1164.42 301.985V229.815C1164.42 226.956 1165.95 224.315 1168.42 222.886L1230.92 186.801ZM208.502 -66.1961L271.003 -30.1108C272.86 -29.039 274.003 -27.0582 274.003 -24.9146V47.2561C274.003 49.3997 272.86 51.3804 271.003 52.4522L208.502 88.5376C206.645 89.6094 204.358 89.6094 202.502 88.5376L140 52.4522C138.144 51.3804 137 49.3997 137 47.2561V-24.9146C137 -27.0582 138.144 -29.039 140 -30.1108L202.502 -66.1961C204.358 -67.2679 206.645 -67.2679 208.502 -66.1961ZM201.502 -67.9282C203.977 -69.3573 207.026 -69.3573 209.502 -67.9282L272.003 -31.8428C274.479 -30.4138 276.003 -27.7728 276.003 -24.9146V47.2561C276.003 50.1142 274.479 52.7552 272.003 54.1843L209.502 90.2696C207.026 91.6987 203.977 91.6987 201.502 90.2696L139 54.1843C136.525 52.7552 135 50.1142 135 47.2561V-24.9146C135 -27.7728 136.525 -30.4138 139 -31.8428L201.502 -67.9282ZM565.124 -30.1108L502.622 -66.1962C500.766 -67.268 498.478 -67.2679 496.622 -66.1962L434.12 -30.1108C432.264 -29.039 431.12 -27.0582 431.12 -24.9146V47.2561C431.12 49.3996 432.264 51.3804 434.12 52.4522L496.622 88.5376C498.478 89.6094 500.766 89.6093 502.622 88.5376L565.124 52.4522C566.98 51.3804 568.124 49.3996 568.124 47.256V-24.9146C568.124 -27.0582 566.98 -29.039 565.124 -30.1108ZM503.622 -67.9282C501.147 -69.3573 498.097 -69.3573 495.622 -67.9282L433.12 -31.8429C430.645 -30.4138 429.12 -27.7728 429.12 -24.9146V47.2561C429.12 50.1142 430.645 52.7552 433.12 54.1843L495.622 90.2696C498.097 91.6987 501.147 91.6987 503.622 90.2696L566.124 54.1843C568.599 52.7552 570.124 50.1142 570.124 47.256V-24.9146C570.124 -27.7728 568.599 -30.4138 566.124 -31.8429L503.622 -67.9282ZM649.682 -66.1962L712.184 -30.1108C714.04 -29.039 715.184 -27.0582 715.184 -24.9146V47.256C715.184 49.3996 714.04 51.3804 712.184 52.4522L649.682 88.5376C647.826 89.6093 645.539 89.6094 643.682 88.5376L581.181 52.4522C579.324 51.3804 578.181 49.3996 578.181 47.2561V-24.9146C578.181 -27.0582 579.324 -29.039 581.181 -30.1108L643.682 -66.1962C645.539 -67.2679 647.826 -67.268 649.682 -66.1962ZM642.682 -67.9282C645.157 -69.3573 648.207 -69.3573 650.682 -67.9282L713.184 -31.8429C715.659 -30.4138 717.184 -27.7728 717.184 -24.9146V47.256C717.184 50.1142 715.659 52.7552 713.184 54.1843L650.682 90.2696C648.207 91.6987 645.157 91.6987 642.682 90.2696L580.181 54.1843C577.705 52.7552 576.181 50.1142 576.181 47.2561V-24.9146C576.181 -27.7728 577.705 -30.4138 580.181 -31.8429L642.682 -67.9282ZM859.244 -30.1108L796.742 -66.1962C794.886 -67.268 792.599 -67.2679 790.742 -66.1962L728.241 -30.1108C726.384 -29.039 725.241 -27.0582 725.241 -24.9146V47.2561C725.241 49.3996 726.384 51.3804 728.241 52.4522L790.742 88.5376C792.599 89.6094 794.886 89.6093 796.742 88.5376L859.244 52.4522C861.1 51.3804 862.244 49.3996 862.244 47.256V-24.9146C862.244 -27.0582 861.1 -29.039 859.244 -30.1108ZM797.742 -67.9282C795.267 -69.3573 792.218 -69.3573 789.742 -67.9282L727.241 -31.8429C724.765 -30.4138 723.241 -27.7728 723.241 -24.9146V47.2561C723.241 50.1142 724.765 52.7552 727.241 54.1843L789.742 90.2696C792.218 91.6987 795.267 91.6987 797.742 90.2696L860.244 54.1843C862.719 52.7552 864.244 50.1142 864.244 47.256V-24.9146C864.244 -27.7728 862.719 -30.4138 860.244 -31.8429L797.742 -67.9282ZM943.802 -66.1962L1006.3 -30.1108C1008.16 -29.039 1009.3 -27.0582 1009.3 -24.9146V47.256C1009.3 49.3996 1008.16 51.3804 1006.3 52.4522L943.802 88.5376C941.946 89.6093 939.659 89.6094 937.802 88.5376L875.301 52.4522C873.444 51.3804 872.301 49.3996 872.301 47.2561V-24.9146C872.301 -27.0582 873.444 -29.039 875.301 -30.1108L937.802 -66.1962C939.659 -67.2679 941.946 -67.268 943.802 -66.1962ZM936.802 -67.9282C939.278 -69.3573 942.327 -69.3573 944.802 -67.9282L1007.3 -31.8429C1009.78 -30.4138 1011.3 -27.7728 1011.3 -24.9146V47.256C1011.3 50.1142 1009.78 52.7552 1007.3 54.1843L944.802 90.2696C942.327 91.6987 939.278 91.6987 936.802 90.2696L874.301 54.1843C871.826 52.7552 870.301 50.1142 870.301 47.2561V-24.9146C870.301 -27.7728 871.826 -30.4138 874.301 -31.8429L936.802 -67.9282ZM1153.36 -30.1108L1090.86 -66.1962C1089.01 -67.268 1086.72 -67.2679 1084.86 -66.1962L1022.36 -30.1108C1020.5 -29.039 1019.36 -27.0582 1019.36 -24.9146V47.2561C1019.36 49.3996 1020.5 51.3804 1022.36 52.4522L1084.86 88.5376C1086.72 89.6094 1089.01 89.6093 1090.86 88.5376L1153.36 52.4522C1155.22 51.3804 1156.36 49.3996 1156.36 47.256V-24.9146C1156.36 -27.0582 1155.22 -29.039 1153.36 -30.1108ZM1091.86 -67.9282C1089.39 -69.3573 1086.34 -69.3573 1083.86 -67.9282L1021.36 -31.8429C1018.89 -30.4138 1017.36 -27.7728 1017.36 -24.9146V47.2561C1017.36 50.1142 1018.89 52.7552 1021.36 54.1843L1083.86 90.2696C1086.34 91.6987 1089.39 91.6987 1091.86 90.2696L1154.36 54.1843C1156.84 52.7552 1158.36 50.1142 1158.36 47.256V-24.9146C1158.36 -27.7728 1156.84 -30.4138 1154.36 -31.8429L1091.86 -67.9282ZM1237.92 -66.1962L1300.42 -30.1108C1302.28 -29.039 1303.42 -27.0582 1303.42 -24.9146V47.256C1303.42 49.3996 1302.28 51.3804 1300.42 52.4522L1237.92 88.5376C1236.07 89.6093 1233.78 89.6094 1231.92 88.5376L1169.42 52.4522C1167.56 51.3804 1166.42 49.3996 1166.42 47.2561V-24.9146C1166.42 -27.0582 1167.56 -29.039 1169.42 -30.1108L1231.92 -66.1962C1233.78 -67.2679 1236.07 -67.268 1237.92 -66.1962ZM1230.92 -67.9282C1233.4 -69.3573 1236.45 -69.3573 1238.92 -67.9282L1301.42 -31.8429C1303.9 -30.4138 1305.42 -27.7728 1305.42 -24.9146V47.256C1305.42 50.1142 1303.9 52.7552 1301.42 54.1843L1238.92 90.2696C1236.45 91.6987 1233.4 91.6987 1230.92 90.2696L1168.42 54.1843C1165.95 52.7552 1164.42 50.1142 1164.42 47.2561V-24.9146C1164.42 -27.7728 1165.95 -30.4138 1168.42 -31.8429L1230.92 -67.9282ZM418.063 479.348L355.562 443.262C353.705 442.191 351.418 442.191 349.562 443.262L287.06 479.348C285.204 480.419 284.06 482.4 284.06 484.544V556.715C284.06 558.858 285.204 560.839 287.06 561.911L349.562 597.996C351.418 599.068 353.705 599.068 355.562 597.996L418.063 561.911C419.92 560.839 421.063 558.858 421.063 556.715V484.544C421.063 482.4 419.92 480.419 418.063 479.348ZM356.562 441.53C354.087 440.101 351.037 440.101 348.562 441.53L286.06 477.616C283.585 479.045 282.06 481.686 282.06 484.544V556.715C282.06 559.573 283.585 562.214 286.06 563.643L348.562 599.728C351.037 601.157 354.087 601.157 356.562 599.728L419.063 563.643C421.539 562.214 423.063 559.573 423.063 556.715V484.544C423.063 481.686 421.539 479.045 419.063 477.616L356.562 441.53ZM208.502 443.262L271.003 479.348C272.86 480.419 274.003 482.4 274.003 484.544V556.714C274.003 558.858 272.86 560.839 271.003 561.911L208.502 597.996C206.645 599.068 204.358 599.068 202.502 597.996L140 561.911C138.144 560.839 137 558.858 137 556.715V484.544C137 482.4 138.144 480.419 140 479.348L202.502 443.262C204.358 442.191 206.645 442.191 208.502 443.262ZM201.502 441.53C203.977 440.101 207.026 440.101 209.502 441.53L272.003 477.616C274.479 479.045 276.003 481.686 276.003 484.544V556.714C276.003 559.573 274.479 562.214 272.003 563.643L209.502 599.728C207.026 601.157 203.977 601.157 201.502 599.728L139 563.643C136.525 562.214 135 559.573 135 556.715V484.544C135 481.686 136.525 479.045 139 477.616L201.502 441.53ZM565.124 479.348L502.622 443.262C500.766 442.191 498.478 442.191 496.622 443.262L434.12 479.348C432.264 480.419 431.12 482.4 431.12 484.544V556.715C431.12 558.858 432.264 560.839 434.12 561.911L496.622 597.996C498.478 599.068 500.766 599.068 502.622 597.996L565.124 561.911C566.98 560.839 568.124 558.858 568.124 556.715V484.544C568.124 482.4 566.98 480.419 565.124 479.348ZM503.622 441.53C501.147 440.101 498.097 440.101 495.622 441.53L433.12 477.616C430.645 479.045 429.12 481.686 429.12 484.544V556.715C429.12 559.573 430.645 562.214 433.12 563.643L495.622 599.728C498.097 601.157 501.147 601.157 503.622 599.728L566.124 563.643C568.599 562.214 570.124 559.573 570.124 556.715V484.544C570.124 481.686 568.599 479.045 566.124 477.616L503.622 441.53ZM649.682 443.262L712.184 479.348C714.04 480.419 715.184 482.4 715.184 484.544V556.715C715.184 558.858 714.04 560.839 712.184 561.911L649.682 597.996C647.826 599.068 645.539 599.068 643.682 597.996L581.181 561.911C579.324 560.839 578.181 558.858 578.181 556.715V484.544C578.181 482.4 579.324 480.419 581.181 479.348L643.682 443.262C645.539 442.191 647.826 442.191 649.682 443.262ZM642.682 441.53C645.157 440.101 648.207 440.101 650.682 441.53L713.184 477.616C715.659 479.045 717.184 481.686 717.184 484.544V556.715C717.184 559.573 715.659 562.214 713.184 563.643L650.682 599.728C648.207 601.157 645.157 601.157 642.682 599.728L580.181 563.643C577.705 562.214 576.181 559.573 576.181 556.715V484.544C576.181 481.686 577.705 479.045 580.181 477.616L642.682 441.53ZM859.244 479.348L796.742 443.262C794.886 442.191 792.599 442.191 790.742 443.262L728.241 479.348C726.384 480.419 725.241 482.4 725.241 484.544V556.715C725.241 558.858 726.384 560.839 728.241 561.911L790.742 597.996C792.599 599.068 794.886 599.068 796.742 597.996L859.244 561.911C861.1 560.839 862.244 558.858 862.244 556.715V484.544C862.244 482.4 861.1 480.419 859.244 479.348ZM797.742 441.53C795.267 440.101 792.218 440.101 789.742 441.53L727.241 477.616C724.765 479.045 723.241 481.686 723.241 484.544V556.715C723.241 559.573 724.765 562.214 727.241 563.643L789.742 599.728C792.218 601.157 795.267 601.157 797.742 599.728L860.244 563.643C862.719 562.214 864.244 559.573 864.244 556.715V484.544C864.244 481.686 862.719 479.045 860.244 477.616L797.742 441.53ZM943.802 443.262L1006.3 479.348C1008.16 480.419 1009.3 482.4 1009.3 484.544V556.715C1009.3 558.858 1008.16 560.839 1006.3 561.911L943.802 597.996C941.946 599.068 939.659 599.068 937.802 597.996L875.301 561.911C873.444 560.839 872.301 558.858 872.301 556.715V484.544C872.301 482.4 873.444 480.419 875.301 479.348L937.802 443.262C939.659 442.191 941.946 442.191 943.802 443.262ZM936.802 441.53C939.278 440.101 942.327 440.101 944.802 441.53L1007.3 477.616C1009.78 479.045 1011.3 481.686 1011.3 484.544V556.715C1011.3 559.573 1009.78 562.214 1007.3 563.643L944.802 599.728C942.327 601.157 939.278 601.157 936.802 599.728L874.301 563.643C871.826 562.214 870.301 559.573 870.301 556.715V484.544C870.301 481.686 871.826 479.045 874.301 477.616L936.802 441.53ZM1153.36 479.348L1090.86 443.262C1089.01 442.191 1086.72 442.191 1084.86 443.262L1022.36 479.348C1020.5 480.419 1019.36 482.4 1019.36 484.544V556.715C1019.36 558.858 1020.5 560.839 1022.36 561.911L1084.86 597.996C1086.72 599.068 1089.01 599.068 1090.86 597.996L1153.36 561.911C1155.22 560.839 1156.36 558.858 1156.36 556.715V484.544C1156.36 482.4 1155.22 480.419 1153.36 479.348ZM1091.86 441.53C1089.39 440.101 1086.34 440.101 1083.86 441.53L1021.36 477.616C1018.89 479.045 1017.36 481.686 1017.36 484.544V556.715C1017.36 559.573 1018.89 562.214 1021.36 563.643L1083.86 599.728C1086.34 601.157 1089.39 601.157 1091.86 599.728L1154.36 563.643C1156.84 562.214 1158.36 559.573 1158.36 556.715V484.544C1158.36 481.686 1156.84 479.045 1154.36 477.616L1091.86 441.53ZM1237.92 443.262L1300.42 479.348C1302.28 480.419 1303.42 482.4 1303.42 484.544V556.715C1303.42 558.858 1302.28 560.839 1300.42 561.911L1237.92 597.996C1236.07 599.068 1233.78 599.068 1231.92 597.996L1169.42 561.911C1167.56 560.839 1166.42 558.858 1166.42 556.715V484.544C1166.42 482.4 1167.56 480.419 1169.42 479.348L1231.92 443.262C1233.78 442.191 1236.07 442.191 1237.92 443.262ZM1230.92 441.53C1233.4 440.101 1236.45 440.101 1238.92 441.53L1301.42 477.616C1303.9 479.045 1305.42 481.686 1305.42 484.544V556.715C1305.42 559.573 1303.9 562.214 1301.42 563.643L1238.92 599.728C1236.45 601.157 1233.4 601.157 1230.92 599.728L1168.42 563.643C1165.95 562.214 1164.42 559.573 1164.42 556.715V484.544C1164.42 481.686 1165.95 479.045 1168.42 477.616L1230.92 441.53Z" fill="url(#paint0_radial_4455_9937)"/>
<path fill-rule="evenodd" clip-rule="evenodd" d="M418.063 -30.1108L355.562 -66.1962C353.705 -67.268 351.418 -67.2679 349.562 -66.1962L287.06 -30.1108C285.204 -29.039 284.06 -27.0582 284.06 -24.9146V47.2561C284.06 49.3996 285.204 51.3804 287.06 52.4522L349.562 88.5376C351.418 89.6094 353.705 89.6093 355.562 88.5376L418.063 52.4522C419.92 51.3804 421.063 49.3996 421.063 47.256V-24.9146C421.063 -27.0582 419.92 -29.039 418.063 -30.1108ZM356.562 -67.9282C354.087 -69.3573 351.037 -69.3573 348.562 -67.9282L286.06 -31.8429C283.585 -30.4138 282.06 -27.7728 282.06 -24.9146V47.2561C282.06 50.1142 283.585 52.7552 286.06 54.1843L348.562 90.2696C351.037 91.6987 354.087 91.6987 356.562 90.2696L419.063 54.1843C421.539 52.7552 423.063 50.1142 423.063 47.256V-24.9146C423.063 -27.7728 421.539 -30.4138 419.063 -31.8429L356.562 -67.9282ZM344.533 97.2538L282.032 61.1685C280.175 60.0967 277.888 60.0967 276.032 61.1685L213.53 97.2538C211.674 98.3256 210.53 100.306 210.53 102.45V174.621C210.53 176.764 211.674 178.745 213.53 179.817L276.032 215.902C277.888 216.974 280.175 216.974 282.032 215.902L344.533 179.817C346.39 178.745 347.533 176.764 347.533 174.621V102.45C347.533 100.306 346.39 98.3256 344.533 97.2538ZM283.032 59.4364C280.557 58.0073 277.507 58.0073 275.032 59.4364L212.53 95.5218C210.055 96.9508 208.53 99.5918 208.53 102.45V174.621C208.53 177.479 210.055 180.12 212.53 181.549L275.032 217.634C277.507 219.063 280.557 219.063 283.032 217.634L345.533 181.549C348.009 180.12 349.533 177.479 349.533 174.621V102.45C349.533 99.5918 348.009 96.9508 345.533 95.5218L283.032 59.4364ZM344.533 351.983L282.032 315.898C280.175 314.826 277.888 314.826 276.032 315.898L213.53 351.983C211.674 353.055 210.53 355.036 210.53 357.179V429.35C210.53 431.494 211.674 433.474 213.53 434.546L276.032 470.631C277.888 471.703 280.175 471.703 282.032 470.631L344.533 434.546C346.39 433.474 347.533 431.494 347.533 429.35V357.179C347.533 355.036 346.39 353.055 344.533 351.983ZM283.032 314.166C280.557 312.737 277.507 312.737 275.032 314.166L212.53 350.251C210.055 351.68 208.53 354.321 208.53 357.179V429.35C208.53 432.208 210.055 434.849 212.53 436.278L275.032 472.363C277.507 473.793 280.557 473.793 283.032 472.363L345.533 436.278C348.009 434.849 349.533 432.208 349.533 429.35V357.179C349.533 354.321 348.009 351.68 345.533 350.251L283.032 314.166ZM429.092 61.1685L491.594 97.2538C493.45 98.3256 494.594 100.306 494.594 102.45V174.621C494.594 176.764 493.45 178.745 491.594 179.817L429.092 215.902C427.236 216.974 424.948 216.974 423.092 215.902L360.59 179.817C358.734 178.745 357.59 176.764 357.59 174.621V102.45C357.59 100.306 358.734 98.3256 360.59 97.2538L423.092 61.1685C424.948 60.0967 427.236 60.0967 429.092 61.1685ZM422.092 59.4364C424.567 58.0073 427.617 58.0073 430.092 59.4364L492.594 95.5218C495.069 96.9508 496.594 99.5918 496.594 102.45V174.621C496.594 177.479 495.069 180.12 492.594 181.549L430.092 217.634C427.617 219.063 424.567 219.063 422.092 217.634L359.59 181.549C357.115 180.12 355.59 177.479 355.59 174.621V102.45C355.59 99.5918 357.115 96.9508 359.59 95.5218L422.092 59.4364ZM491.594 351.983L429.092 315.898C427.236 314.826 424.948 314.826 423.092 315.898L360.59 351.983C358.734 353.055 357.59 355.036 357.59 357.179V429.35C357.59 431.494 358.734 433.474 360.59 434.546L423.092 470.631C424.948 471.703 427.236 471.703 429.092 470.631L491.594 434.546C493.45 433.474 494.594 431.494 494.594 429.35V357.179C494.594 355.036 493.45 353.055 491.594 351.983ZM430.092 314.166C427.617 312.737 424.567 312.737 422.092 314.166L359.59 350.251C357.115 351.68 355.59 354.321 355.59 357.179V429.35C355.59 432.208 357.115 434.849 359.59 436.278L422.092 472.363C424.567 473.793 427.617 473.793 430.092 472.363L492.594 436.278C495.069 434.849 496.594 432.208 496.594 429.35V357.179C496.594 354.321 495.069 351.68 492.594 350.251L430.092 314.166ZM870.272 61.1685L932.774 97.2538C934.63 98.3256 935.774 100.306 935.774 102.45V174.621C935.774 176.764 934.63 178.745 932.774 179.817L870.272 215.902C868.416 216.974 866.129 216.974 864.272 215.902L801.771 179.817C799.914 178.745 798.771 176.764 798.771 174.621V102.45C798.771 100.306 799.914 98.3256 801.771 97.2538L864.272 61.1685C866.129 60.0967 868.416 60.0967 870.272 61.1685ZM863.272 59.4364C865.748 58.0073 868.797 58.0073 871.272 59.4364L933.774 95.5218C936.249 96.9508 937.774 99.5918 937.774 102.45V174.621C937.774 177.479 936.249 180.12 933.774 181.549L871.272 217.634C868.797 219.063 865.748 219.063 863.272 217.634L800.771 181.549C798.296 180.12 796.771 177.479 796.771 174.621V102.45C796.771 99.5918 798.296 96.9508 800.771 95.5218L863.272 59.4364ZM932.774 351.983L870.272 315.898C868.416 314.826 866.129 314.826 864.272 315.898L801.771 351.983C799.914 353.055 798.771 355.036 798.771 357.179V429.35C798.771 431.494 799.914 433.474 801.771 434.546L864.272 470.631C866.129 471.703 868.416 471.703 870.272 470.631L932.774 434.546C934.63 433.474 935.774 431.494 935.774 429.35V357.179C935.774 355.036 934.63 353.055 932.774 351.983ZM871.272 314.166C868.797 312.737 865.748 312.737 863.272 314.166L800.771 350.251C798.296 351.68 796.771 354.321 796.771 357.179V429.35C796.771 432.208 798.296 434.849 800.771 436.278L863.272 472.363C865.748 473.793 868.797 473.793 871.272 472.363L933.774 436.278C936.249 434.849 937.774 432.208 937.774 429.35V357.179C937.774 354.321 936.249 351.68 933.774 350.251L871.272 314.166ZM1017.33 315.898L1079.83 351.983C1081.69 353.055 1082.83 355.036 1082.83 357.179V429.35C1082.83 431.494 1081.69 433.474 1079.83 434.546L1017.33 470.631C1015.48 471.703 1013.19 471.703 1011.33 470.631L948.831 434.546C946.975 433.474 945.831 431.494 945.831 429.35V357.179C945.831 355.036 946.975 353.055 948.831 351.983L1011.33 315.898C1013.19 314.826 1015.48 314.826 1017.33 315.898ZM1010.33 314.166C1012.81 312.737 1015.86 312.737 1018.33 314.166L1080.83 350.251C1083.31 351.68 1084.83 354.321 1084.83 357.179V429.35C1084.83 432.208 1083.31 434.849 1080.83 436.278L1018.33 472.363C1015.86 473.793 1012.81 473.793 1010.33 472.363L947.831 436.278C945.356 434.849 943.831 432.208 943.831 429.35V357.179C943.831 354.321 945.356 351.68 947.831 350.251L1010.33 314.166ZM1226.89 97.2538L1164.39 61.1685C1162.54 60.0967 1160.25 60.0967 1158.39 61.1685L1095.89 97.2538C1094.03 98.3256 1092.89 100.306 1092.89 102.45V174.621C1092.89 176.764 1094.03 178.745 1095.89 179.817L1158.39 215.902C1160.25 216.974 1162.54 216.974 1164.39 215.902L1226.89 179.817C1228.75 178.745 1229.89 176.764 1229.89 174.621V102.45C1229.89 100.306 1228.75 98.3256 1226.89 97.2538ZM1165.39 59.4364C1162.92 58.0073 1159.87 58.0073 1157.39 59.4364L1094.89 95.5218C1092.42 96.9508 1090.89 99.5918 1090.89 102.45V174.621C1090.89 177.479 1092.42 180.12 1094.89 181.549L1157.39 217.634C1159.87 219.063 1162.92 219.063 1165.39 217.634L1227.89 181.549C1230.37 180.12 1231.89 177.479 1231.89 174.621V102.45C1231.89 99.5918 1230.37 96.9508 1227.89 95.5218L1165.39 59.4364ZM1164.39 315.898L1226.89 351.983C1228.75 353.055 1229.89 355.036 1229.89 357.179V429.35C1229.89 431.494 1228.75 433.474 1226.89 434.546L1164.39 470.631C1162.54 471.703 1160.25 471.703 1158.39 470.631L1095.89 434.546C1094.03 433.474 1092.89 431.494 1092.89 429.35V357.179C1092.89 355.036 1094.03 353.055 1095.89 351.983L1158.39 315.898C1160.25 314.826 1162.54 314.826 1164.39 315.898ZM1157.39 314.166C1159.87 312.737 1162.92 312.737 1165.39 314.166L1227.89 350.251C1230.37 351.68 1231.89 354.321 1231.89 357.179V429.35C1231.89 432.208 1230.37 434.849 1227.89 436.278L1165.39 472.363C1162.92 473.793 1159.87 473.793 1157.39 472.363L1094.89 436.278C1092.42 434.849 1090.89 432.208 1090.89 429.35V357.179C1090.89 354.321 1092.42 351.68 1094.89 350.251L1157.39 314.166ZM418.063 224.618L355.562 188.533C353.705 187.461 351.418 187.461 349.562 188.533L287.06 224.618C285.204 225.69 284.06 227.671 284.06 229.815V301.985C284.06 304.129 285.204 306.11 287.06 307.181L349.562 343.267C351.418 344.339 353.705 344.339 355.562 343.267L418.063 307.181C419.92 306.11 421.063 304.129 421.063 301.985V229.815C421.063 227.671 419.92 225.69 418.063 224.618ZM356.562 186.801C354.087 185.372 351.037 185.372 348.562 186.801L286.06 222.886C283.585 224.315 282.06 226.956 282.06 229.815V301.985C282.06 304.843 283.585 307.484 286.06 308.913L348.562 344.999C351.037 346.428 354.087 346.428 356.562 344.999L419.063 308.913C421.539 307.484 423.063 304.843 423.063 301.985V229.815C423.063 226.956 421.539 224.315 419.063 222.886L356.562 186.801ZM208.502 188.533L271.003 224.618C272.86 225.69 274.003 227.671 274.003 229.815V301.985C274.003 304.129 272.86 306.11 271.003 307.181L208.502 343.267C206.645 344.339 204.358 344.339 202.502 343.267L140 307.181C138.144 306.11 137 304.129 137 301.985V229.815C137 227.671 138.144 225.69 140 224.618L202.502 188.533C204.358 187.461 206.645 187.461 208.502 188.533ZM201.502 186.801C203.977 185.372 207.026 185.372 209.502 186.801L272.003 222.886C274.479 224.315 276.003 226.956 276.003 229.815V301.985C276.003 304.843 274.479 307.484 272.003 308.913L209.502 344.999C207.026 346.428 203.977 346.428 201.502 344.999L139 308.913C136.525 307.484 135 304.843 135 301.985V229.815C135 226.956 136.525 224.315 139 222.886L201.502 186.801ZM565.124 224.618L502.622 188.533C500.766 187.461 498.478 187.461 496.622 188.533L434.12 224.618C432.264 225.69 431.12 227.671 431.12 229.815V301.985C431.12 304.129 432.264 306.11 434.12 307.181L496.622 343.267C498.478 344.339 500.766 344.339 502.622 343.267L565.124 307.181C566.98 306.11 568.124 304.129 568.124 301.985V229.815C568.124 227.671 566.98 225.69 565.124 224.618ZM503.622 186.801C501.147 185.372 498.097 185.372 495.622 186.801L433.12 222.886C430.645 224.315 429.12 226.956 429.12 229.815V301.985C429.12 304.843 430.645 307.484 433.12 308.913L495.622 344.999C498.097 346.428 501.147 346.428 503.622 344.999L566.124 308.913C568.599 307.484 570.124 304.843 570.124 301.985V229.815C570.124 226.956 568.599 224.315 566.124 222.886L503.622 186.801ZM649.682 188.533L712.184 224.618C714.04 225.69 715.184 227.671 715.184 229.815V301.985C715.184 304.129 714.04 306.11 712.184 307.181L649.682 343.267C647.826 344.339 645.539 344.339 643.682 343.267L581.181 307.181C579.324 306.11 578.181 304.129 578.181 301.985V229.815C578.181 227.671 579.324 225.69 581.181 224.618L643.682 188.533C645.539 187.461 647.826 187.461 649.682 188.533ZM642.682 186.801C645.157 185.372 648.207 185.372 650.682 186.801L713.184 222.886C715.659 224.315 717.184 226.956 717.184 229.815V301.985C717.184 304.843 715.659 307.484 713.184 308.913L650.682 344.999C648.207 346.428 645.157 346.428 642.682 344.999L580.181 308.913C577.705 307.484 576.181 304.843 576.181 301.985V229.815C576.181 226.956 577.705 224.315 580.181 222.886L642.682 186.801ZM859.244 224.618L796.742 188.533C794.886 187.461 792.599 187.461 790.742 188.533L728.241 224.618C726.384 225.69 725.241 227.671 725.241 229.815V301.985C725.241 304.129 726.384 306.11 728.241 307.181L790.742 343.267C792.599 344.339 794.886 344.339 796.742 343.267L859.244 307.181C861.1 306.11 862.244 304.129 862.244 301.985V229.815C862.244 227.671 861.1 225.69 859.244 224.618ZM797.742 186.801C795.267 185.372 792.218 185.372 789.742 186.801L727.241 222.886C724.765 224.315 723.241 226.956 723.241 229.815V301.985C723.241 304.843 724.765 307.484 727.241 308.913L789.742 344.999C792.218 346.428 795.267 346.428 797.742 344.999L860.244 308.913C862.719 307.484 864.244 304.843 864.244 301.985V229.815C864.244 226.956 862.719 224.315 860.244 222.886L797.742 186.801ZM943.802 188.533L1006.3 224.618C1008.16 225.69 1009.3 227.671 1009.3 229.815V301.985C1009.3 304.129 1008.16 306.11 1006.3 307.181L943.802 343.267C941.946 344.339 939.659 344.339 937.802 343.267L875.301 307.181C873.444 306.11 872.301 304.129 872.301 301.985V229.815C872.301 227.671 873.444 225.69 875.301 224.618L937.802 188.533C939.659 187.461 941.946 187.461 943.802 188.533ZM936.802 186.801C939.278 185.372 942.327 185.372 944.802 186.801L1007.3 222.886C1009.78 224.315 1011.3 226.956 1011.3 229.815V301.985C1011.3 304.843 1009.78 307.484 1007.3 308.913L944.802 344.999C942.327 346.428 939.278 346.428 936.802 344.999L874.301 308.913C871.826 307.484 870.301 304.843 870.301 301.985V229.815C870.301 226.956 871.826 224.315 874.301 222.886L936.802 186.801ZM1153.36 224.618L1090.86 188.533C1089.01 187.461 1086.72 187.461 1084.86 188.533L1022.36 224.618C1020.5 225.69 1019.36 227.671 1019.36 229.815V301.985C1019.36 304.129 1020.5 306.11 1022.36 307.181L1084.86 343.267C1086.72 344.339 1089.01 344.339 1090.86 343.267L1153.36 307.181C1155.22 306.11 1156.36 304.129 1156.36 301.985V229.815C1156.36 227.671 1155.22 225.69 1153.36 224.618ZM1091.86 186.801C1089.39 185.372 1086.34 185.372 1083.86 186.801L1021.36 222.886C1018.89 224.315 1017.36 226.956 1017.36 229.815V301.985C1017.36 304.843 1018.89 307.484 1021.36 308.913L1083.86 344.999C1086.34 346.428 1089.39 346.428 1091.86 344.999L1154.36 308.913C1156.84 307.484 1158.36 304.843 1158.36 301.985V229.815C1158.36 226.956 1156.84 224.315 1154.36 222.886L1091.86 186.801ZM1237.92 188.533L1300.42 224.618C1302.28 225.69 1303.42 227.671 1303.42 229.815V301.985C1303.42 304.129 1302.28 306.11 1300.42 307.181L1237.92 343.267C1236.07 344.339 1233.78 344.339 1231.92 343.267L1169.42 307.181C1167.56 306.11 1166.42 304.129 1166.42 301.985V229.815C1166.42 227.671 1167.56 225.69 1169.42 224.618L1231.92 188.533C1233.78 187.461 1236.07 187.461 1237.92 188.533ZM1230.92 186.801C1233.4 185.372 1236.45 185.372 1238.92 186.801L1301.42 222.886C1303.9 224.315 1305.42 226.956 1305.42 229.815V301.985C1305.42 304.843 1303.9 307.484 1301.42 308.913L1238.92 344.999C1236.45 346.428 1233.4 346.428 1230.92 344.999L1168.42 308.913C1165.95 307.484 1164.42 304.843 1164.42 301.985V229.815C1164.42 226.956 1165.95 224.315 1168.42 222.886L1230.92 186.801ZM208.502 -66.1961L271.003 -30.1108C272.86 -29.039 274.003 -27.0582 274.003 -24.9146V47.2561C274.003 49.3997 272.86 51.3804 271.003 52.4522L208.502 88.5376C206.645 89.6094 204.358 89.6094 202.502 88.5376L140 52.4522C138.144 51.3804 137 49.3997 137 47.2561V-24.9146C137 -27.0582 138.144 -29.039 140 -30.1108L202.502 -66.1961C204.358 -67.2679 206.645 -67.2679 208.502 -66.1961ZM201.502 -67.9282C203.977 -69.3573 207.026 -69.3573 209.502 -67.9282L272.003 -31.8428C274.479 -30.4138 276.003 -27.7728 276.003 -24.9146V47.2561C276.003 50.1142 274.479 52.7552 272.003 54.1843L209.502 90.2696C207.026 91.6987 203.977 91.6987 201.502 90.2696L139 54.1843C136.525 52.7552 135 50.1142 135 47.2561V-24.9146C135 -27.7728 136.525 -30.4138 139 -31.8428L201.502 -67.9282ZM565.124 -30.1108L502.622 -66.1962C500.766 -67.268 498.478 -67.2679 496.622 -66.1962L434.12 -30.1108C432.264 -29.039 431.12 -27.0582 431.12 -24.9146V47.2561C431.12 49.3996 432.264 51.3804 434.12 52.4522L496.622 88.5376C498.478 89.6094 500.766 89.6093 502.622 88.5376L565.124 52.4522C566.98 51.3804 568.124 49.3996 568.124 47.256V-24.9146C568.124 -27.0582 566.98 -29.039 565.124 -30.1108ZM503.622 -67.9282C501.147 -69.3573 498.097 -69.3573 495.622 -67.9282L433.12 -31.8429C430.645 -30.4138 429.12 -27.7728 429.12 -24.9146V47.2561C429.12 50.1142 430.645 52.7552 433.12 54.1843L495.622 90.2696C498.097 91.6987 501.147 91.6987 503.622 90.2696L566.124 54.1843C568.599 52.7552 570.124 50.1142 570.124 47.256V-24.9146C570.124 -27.7728 568.599 -30.4138 566.124 -31.8429L503.622 -67.9282ZM649.682 -66.1962L712.184 -30.1108C714.04 -29.039 715.184 -27.0582 715.184 -24.9146V47.256C715.184 49.3996 714.04 51.3804 712.184 52.4522L649.682 88.5376C647.826 89.6093 645.539 89.6094 643.682 88.5376L581.181 52.4522C579.324 51.3804 578.181 49.3996 578.181 47.2561V-24.9146C578.181 -27.0582 579.324 -29.039 581.181 -30.1108L643.682 -66.1962C645.539 -67.2679 647.826 -67.268 649.682 -66.1962ZM642.682 -67.9282C645.157 -69.3573 648.207 -69.3573 650.682 -67.9282L713.184 -31.8429C715.659 -30.4138 717.184 -27.7728 717.184 -24.9146V47.256C717.184 50.1142 715.659 52.7552 713.184 54.1843L650.682 90.2696C648.207 91.6987 645.157 91.6987 642.682 90.2696L580.181 54.1843C577.705 52.7552 576.181 50.1142 576.181 47.2561V-24.9146C576.181 -27.7728 577.705 -30.4138 580.181 -31.8429L642.682 -67.9282ZM859.244 -30.1108L796.742 -66.1962C794.886 -67.268 792.599 -67.2679 790.742 -66.1962L728.241 -30.1108C726.384 -29.039 725.241 -27.0582 725.241 -24.9146V47.2561C725.241 49.3996 726.384 51.3804 728.241 52.4522L790.742 88.5376C792.599 89.6094 794.886 89.6093 796.742 88.5376L859.244 52.4522C861.1 51.3804 862.244 49.3996 862.244 47.256V-24.9146C862.244 -27.0582 861.1 -29.039 859.244 -30.1108ZM797.742 -67.9282C795.267 -69.3573 792.218 -69.3573 789.742 -67.9282L727.241 -31.8429C724.765 -30.4138 723.241 -27.7728 723.241 -24.9146V47.2561C723.241 50.1142 724.765 52.7552 727.241 54.1843L789.742 90.2696C792.218 91.6987 795.267 91.6987 797.742 90.2696L860.244 54.1843C862.719 52.7552 864.244 50.1142 864.244 47.256V-24.9146C864.244 -27.7728 862.719 -30.4138 860.244 -31.8429L797.742 -67.9282ZM943.802 -66.1962L1006.3 -30.1108C1008.16 -29.039 1009.3 -27.0582 1009.3 -24.9146V47.256C1009.3 49.3996 1008.16 51.3804 1006.3 52.4522L943.802 88.5376C941.946 89.6093 939.659 89.6094 937.802 88.5376L875.301 52.4522C873.444 51.3804 872.301 49.3996 872.301 47.2561V-24.9146C872.301 -27.0582 873.444 -29.039 875.301 -30.1108L937.802 -66.1962C939.659 -67.2679 941.946 -67.268 943.802 -66.1962ZM936.802 -67.9282C939.278 -69.3573 942.327 -69.3573 944.802 -67.9282L1007.3 -31.8429C1009.78 -30.4138 1011.3 -27.7728 1011.3 -24.9146V47.256C1011.3 50.1142 1009.78 52.7552 1007.3 54.1843L944.802 90.2696C942.327 91.6987 939.278 91.6987 936.802 90.2696L874.301 54.1843C871.826 52.7552 870.301 50.1142 870.301 47.2561V-24.9146C870.301 -27.7728 871.826 -30.4138 874.301 -31.8429L936.802 -67.9282ZM1153.36 -30.1108L1090.86 -66.1962C1089.01 -67.268 1086.72 -67.2679 1084.86 -66.1962L1022.36 -30.1108C1020.5 -29.039 1019.36 -27.0582 1019.36 -24.9146V47.2561C1019.36 49.3996 1020.5 51.3804 1022.36 52.4522L1084.86 88.5376C1086.72 89.6094 1089.01 89.6093 1090.86 88.5376L1153.36 52.4522C1155.22 51.3804 1156.36 49.3996 1156.36 47.256V-24.9146C1156.36 -27.0582 1155.22 -29.039 1153.36 -30.1108ZM1091.86 -67.9282C1089.39 -69.3573 1086.34 -69.3573 1083.86 -67.9282L1021.36 -31.8429C1018.89 -30.4138 1017.36 -27.7728 1017.36 -24.9146V47.2561C1017.36 50.1142 1018.89 52.7552 1021.36 54.1843L1083.86 90.2696C1086.34 91.6987 1089.39 91.6987 1091.86 90.2696L1154.36 54.1843C1156.84 52.7552 1158.36 50.1142 1158.36 47.256V-24.9146C1158.36 -27.7728 1156.84 -30.4138 1154.36 -31.8429L1091.86 -67.9282ZM1237.92 -66.1962L1300.42 -30.1108C1302.28 -29.039 1303.42 -27.0582 1303.42 -24.9146V47.256C1303.42 49.3996 1302.28 51.3804 1300.42 52.4522L1237.92 88.5376C1236.07 89.6093 1233.78 89.6094 1231.92 88.5376L1169.42 52.4522C1167.56 51.3804 1166.42 49.3996 1166.42 47.2561V-24.9146C1166.42 -27.0582 1167.56 -29.039 1169.42 -30.1108L1231.92 -66.1962C1233.78 -67.2679 1236.07 -67.268 1237.92 -66.1962ZM1230.92 -67.9282C1233.4 -69.3573 1236.45 -69.3573 1238.92 -67.9282L1301.42 -31.8429C1303.9 -30.4138 1305.42 -27.7728 1305.42 -24.9146V47.256C1305.42 50.1142 1303.9 52.7552 1301.42 54.1843L1238.92 90.2696C1236.45 91.6987 1233.4 91.6987 1230.92 90.2696L1168.42 54.1843C1165.95 52.7552 1164.42 50.1142 1164.42 47.2561V-24.9146C1164.42 -27.7728 1165.95 -30.4138 1168.42 -31.8429L1230.92 -67.9282ZM418.063 479.348L355.562 443.262C353.705 442.191 351.418 442.191 349.562 443.262L287.06 479.348C285.204 480.419 284.06 482.4 284.06 484.544V556.715C284.06 558.858 285.204 560.839 287.06 561.911L349.562 597.996C351.418 599.068 353.705 599.068 355.562 597.996L418.063 561.911C419.92 560.839 421.063 558.858 421.063 556.715V484.544C421.063 482.4 419.92 480.419 418.063 479.348ZM356.562 441.53C354.087 440.101 351.037 440.101 348.562 441.53L286.06 477.616C283.585 479.045 282.06 481.686 282.06 484.544V556.715C282.06 559.573 283.585 562.214 286.06 563.643L348.562 599.728C351.037 601.157 354.087 601.157 356.562 599.728L419.063 563.643C421.539 562.214 423.063 559.573 423.063 556.715V484.544C423.063 481.686 421.539 479.045 419.063 477.616L356.562 441.53ZM208.502 443.262L271.003 479.348C272.86 480.419 274.003 482.4 274.003 484.544V556.714C274.003 558.858 272.86 560.839 271.003 561.911L208.502 597.996C206.645 599.068 204.358 599.068 202.502 597.996L140 561.911C138.144 560.839 137 558.858 137 556.715V484.544C137 482.4 138.144 480.419 140 479.348L202.502 443.262C204.358 442.191 206.645 442.191 208.502 443.262ZM201.502 441.53C203.977 440.101 207.026 440.101 209.502 441.53L272.003 477.616C274.479 479.045 276.003 481.686 276.003 484.544V556.714C276.003 559.573 274.479 562.214 272.003 563.643L209.502 599.728C207.026 601.157 203.977 601.157 201.502 599.728L139 563.643C136.525 562.214 135 559.573 135 556.715V484.544C135 481.686 136.525 479.045 139 477.616L201.502 441.53ZM565.124 479.348L502.622 443.262C500.766 442.191 498.478 442.191 496.622 443.262L434.12 479.348C432.264 480.419 431.12 482.4 431.12 484.544V556.715C431.12 558.858 432.264 560.839 434.12 561.911L496.622 597.996C498.478 599.068 500.766 599.068 502.622 597.996L565.124 561.911C566.98 560.839 568.124 558.858 568.124 556.715V484.544C568.124 482.4 566.98 480.419 565.124 479.348ZM503.622 441.53C501.147 440.101 498.097 440.101 495.622 441.53L433.12 477.616C430.645 479.045 429.12 481.686 429.12 484.544V556.715C429.12 559.573 430.645 562.214 433.12 563.643L495.622 599.728C498.097 601.157 501.147 601.157 503.622 599.728L566.124 563.643C568.599 562.214 570.124 559.573 570.124 556.715V484.544C570.124 481.686 568.599 479.045 566.124 477.616L503.622 441.53ZM649.682 443.262L712.184 479.348C714.04 480.419 715.184 482.4 715.184 484.544V556.715C715.184 558.858 714.04 560.839 712.184 561.911L649.682 597.996C647.826 599.068 645.539 599.068 643.682 597.996L581.181 561.911C579.324 560.839 578.181 558.858 578.181 556.715V484.544C578.181 482.4 579.324 480.419 581.181 479.348L643.682 443.262C645.539 442.191 647.826 442.191 649.682 443.262ZM642.682 441.53C645.157 440.101 648.207 440.101 650.682 441.53L713.184 477.616C715.659 479.045 717.184 481.686 717.184 484.544V556.715C717.184 559.573 715.659 562.214 713.184 563.643L650.682 599.728C648.207 601.157 645.157 601.157 642.682 599.728L580.181 563.643C577.705 562.214 576.181 559.573 576.181 556.715V484.544C576.181 481.686 577.705 479.045 580.181 477.616L642.682 441.53ZM859.244 479.348L796.742 443.262C794.886 442.191 792.599 442.191 790.742 443.262L728.241 479.348C726.384 480.419 725.241 482.4 725.241 484.544V556.715C725.241 558.858 726.384 560.839 728.241 561.911L790.742 597.996C792.599 599.068 794.886 599.068 796.742 597.996L859.244 561.911C861.1 560.839 862.244 558.858 862.244 556.715V484.544C862.244 482.4 861.1 480.419 859.244 479.348ZM797.742 441.53C795.267 440.101 792.218 440.101 789.742 441.53L727.241 477.616C724.765 479.045 723.241 481.686 723.241 484.544V556.715C723.241 559.573 724.765 562.214 727.241 563.643L789.742 599.728C792.218 601.157 795.267 601.157 797.742 599.728L860.244 563.643C862.719 562.214 864.244 559.573 864.244 556.715V484.544C864.244 481.686 862.719 479.045 860.244 477.616L797.742 441.53ZM943.802 443.262L1006.3 479.348C1008.16 480.419 1009.3 482.4 1009.3 484.544V556.715C1009.3 558.858 1008.16 560.839 1006.3 561.911L943.802 597.996C941.946 599.068 939.659 599.068 937.802 597.996L875.301 561.911C873.444 560.839 872.301 558.858 872.301 556.715V484.544C872.301 482.4 873.444 480.419 875.301 479.348L937.802 443.262C939.659 442.191 941.946 442.191 943.802 443.262ZM936.802 441.53C939.278 440.101 942.327 440.101 944.802 441.53L1007.3 477.616C1009.78 479.045 1011.3 481.686 1011.3 484.544V556.715C1011.3 559.573 1009.78 562.214 1007.3 563.643L944.802 599.728C942.327 601.157 939.278 601.157 936.802 599.728L874.301 563.643C871.826 562.214 870.301 559.573 870.301 556.715V484.544C870.301 481.686 871.826 479.045 874.301 477.616L936.802 441.53ZM1153.36 479.348L1090.86 443.262C1089.01 442.191 1086.72 442.191 1084.86 443.262L1022.36 479.348C1020.5 480.419 1019.36 482.4 1019.36 484.544V556.715C1019.36 558.858 1020.5 560.839 1022.36 561.911L1084.86 597.996C1086.72 599.068 1089.01 599.068 1090.86 597.996L1153.36 561.911C1155.22 560.839 1156.36 558.858 1156.36 556.715V484.544C1156.36 482.4 1155.22 480.419 1153.36 479.348ZM1091.86 441.53C1089.39 440.101 1086.34 440.101 1083.86 441.53L1021.36 477.616C1018.89 479.045 1017.36 481.686 1017.36 484.544V556.715C1017.36 559.573 1018.89 562.214 1021.36 563.643L1083.86 599.728C1086.34 601.157 1089.39 601.157 1091.86 599.728L1154.36 563.643C1156.84 562.214 1158.36 559.573 1158.36 556.715V484.544C1158.36 481.686 1156.84 479.045 1154.36 477.616L1091.86 441.53ZM1237.92 443.262L1300.42 479.348C1302.28 480.419 1303.42 482.4 1303.42 484.544V556.715C1303.42 558.858 1302.28 560.839 1300.42 561.911L1237.92 597.996C1236.07 599.068 1233.78 599.068 1231.92 597.996L1169.42 561.911C1167.56 560.839 1166.42 558.858 1166.42 556.715V484.544C1166.42 482.4 1167.56 480.419 1169.42 479.348L1231.92 443.262C1233.78 442.191 1236.07 442.191 1237.92 443.262ZM1230.92 441.53C1233.4 440.101 1236.45 440.101 1238.92 441.53L1301.42 477.616C1303.9 479.045 1305.42 481.686 1305.42 484.544V556.715C1305.42 559.573 1303.9 562.214 1301.42 563.643L1238.92 599.728C1236.45 601.157 1233.4 601.157 1230.92 599.728L1168.42 563.643C1165.95 562.214 1164.42 559.573 1164.42 556.715V484.544C1164.42 481.686 1165.95 479.045 1168.42 477.616L1230.92 441.53Z" fill="url(#paint1_radial_4455_9937)"/>
<path d="M864.05 60.3979C866.293 59.1028 869.057 59.1028 871.3 60.3979L933.802 96.4832C936.045 97.7783 937.427 100.172 937.427 102.762V174.933C937.427 177.523 936.045 179.916 933.802 181.211L871.3 217.297C869.057 218.592 866.293 218.592 864.05 217.297L801.548 181.211C799.305 179.916 797.923 177.523 797.923 174.933V102.762C797.923 100.172 799.305 97.7783 801.548 96.4832L864.05 60.3979Z" stroke="url(#paint2_radial_4455_9937)" stroke-width="1.5"/>
<defs>
<radialGradient id="paint0_radial_4455_9937" cx="0" cy="0" r="1" gradientUnits="userSpaceOnUse" gradientTransform="translate(720 237) rotate(169.328) scale(405.005 237.585)">
<stop stop-color="#224699"/>
<stop offset="1" stop-color="#1B3676" stop-opacity="0"/>
</radialGradient>
<radialGradient id="paint1_radial_4455_9937" cx="0" cy="0" r="1" gradientUnits="userSpaceOnUse" gradientTransform="translate(249.5 397) rotate(-6.45882) scale(186.685 326.218)">
<stop stop-color="#224699"/>
<stop offset="1" stop-color="#224699" stop-opacity="0"/>
</radialGradient>
<radialGradient id="paint2_radial_4455_9937" cx="0" cy="0" r="1" gradientUnits="userSpaceOnUse" gradientTransform="translate(825.658 104.708) rotate(54.4623) scale(112.952)">
<stop stop-color="#5986EC"/>
<stop offset="1" stop-opacity="0"/>
</radialGradient>
</defs>
</svg>
