<svg xmlns="http://www.w3.org/2000/svg" width="1440" height="532" fill="none">
  <path fill="url(#a)" fill-rule="evenodd" d="m418.063-30.11-62.501-36.086a6 6 0 0 0-6 0L287.06-30.111a6 6 0 0 0-3 5.196v72.171a6 6 0 0 0 3 5.196l62.502 36.086a6 6 0 0 0 6 0l62.501-36.086a6 6 0 0 0 3-5.196v-72.17a6 6 0 0 0-3-5.197Zm-61.501-37.818a8 8 0 0 0-8 0L286.06-31.843a8 8 0 0 0-4 6.928v72.171a8 8 0 0 0 4 6.928l62.502 36.086a8 8 0 0 0 8 0l62.501-36.086a8 8 0 0 0 4-6.928v-72.17c0-2.859-1.524-5.5-4-6.929zM344.533 97.254l-62.501-36.086a6 6 0 0 0-6 0L213.53 97.255a6 6 0 0 0-3 5.196v72.171a6 6 0 0 0 3 5.196l62.502 36.085a6 6 0 0 0 6 0l62.501-36.085a6 6 0 0 0 3-5.196V102.45a6 6 0 0 0-3-5.196m-61.501-37.818a8 8 0 0 0-8 0L212.53 95.522a8 8 0 0 0-4 6.928v72.171a8 8 0 0 0 4 6.928l62.502 36.085a8 8 0 0 0 8 0l62.501-36.085a8 8 0 0 0 4-6.928V102.45c0-2.858-1.524-5.5-4-6.928zm61.501 292.547-62.501-36.085a6 6 0 0 0-6 0l-62.502 36.085a6 6 0 0 0-3 5.196v72.171a6 6 0 0 0 3 5.196l62.502 36.085a6 6 0 0 0 6 0l62.501-36.085a6 6 0 0 0 3-5.196v-72.171a6 6 0 0 0-3-5.196m-61.501-37.817a8 8 0 0 0-8 0l-62.502 36.085a8 8 0 0 0-4 6.928v72.171a8 8 0 0 0 4 6.928l62.502 36.085a8 8 0 0 0 8 0l62.501-36.085a8 8 0 0 0 4-6.928v-72.171a8 8 0 0 0-4-6.928zm146.06-252.998 62.502 36.086a6 6 0 0 1 3 5.196v72.171a6 6 0 0 1-3 5.196l-62.502 36.085a6 6 0 0 1-6 0l-62.502-36.085a6 6 0 0 1-3-5.196V102.45a6 6 0 0 1 3-5.196l62.502-36.086a6 6 0 0 1 6 0m-7-1.732a8 8 0 0 1 8 0l62.502 36.086a8 8 0 0 1 4 6.928v72.171a8 8 0 0 1-4 6.928l-62.502 36.085a8 8 0 0 1-8 0l-62.502-36.085a8 8 0 0 1-4-6.928V102.45a8 8 0 0 1 4-6.928zm69.502 292.547-62.502-36.085a6 6 0 0 0-6 0l-62.502 36.085a6 6 0 0 0-3 5.196v72.171a6 6 0 0 0 3 5.196l62.502 36.085a6 6 0 0 0 6 0l62.502-36.085a6 6 0 0 0 3-5.196v-72.171a6 6 0 0 0-3-5.196m-61.502-37.817a8 8 0 0 0-8 0l-62.502 36.085a8 8 0 0 0-4 6.928v72.171a8 8 0 0 0 4 6.928l62.502 36.085a8 8 0 0 0 8 0l62.502-36.085a8 8 0 0 0 4-6.928v-72.171a8 8 0 0 0-4-6.928zm440.18-252.998 62.502 36.086a6 6 0 0 1 3 5.196v72.171a6 6 0 0 1-3 5.196l-62.502 36.085a6 6 0 0 1-6 0l-62.501-36.085a6 6 0 0 1-3-5.196V102.45a6 6 0 0 1 3-5.196l62.501-36.086a6 6 0 0 1 6 0m-7-1.732a8 8 0 0 1 8 0l62.502 36.086a8 8 0 0 1 4 6.928v72.171a8 8 0 0 1-4 6.928l-62.502 36.085a8 8 0 0 1-8 0l-62.501-36.085a8 8 0 0 1-4-6.928V102.45a8 8 0 0 1 4-6.928zm69.502 292.547-62.502-36.085a6 6 0 0 0-6 0l-62.501 36.085a6 6 0 0 0-3 5.196v72.171a6 6 0 0 0 3 5.196l62.501 36.085a6 6 0 0 0 6 0l62.502-36.085a6 6 0 0 0 3-5.196v-72.171a6 6 0 0 0-3-5.196m-61.502-37.817a8 8 0 0 0-8 0l-62.501 36.085a8 8 0 0 0-4 6.928v72.171a8 8 0 0 0 4 6.928l62.501 36.085a8 8 0 0 0 8 0l62.502-36.085a8 8 0 0 0 4-6.928v-72.171a8 8 0 0 0-4-6.928zm146.058 1.732 62.5 36.085a5.99 5.99 0 0 1 3 5.196v72.171a5.99 5.99 0 0 1-3 5.196l-62.5 36.085a6 6 0 0 1-6 0l-62.499-36.085a6 6 0 0 1-3-5.196v-72.171a6 6 0 0 1 3-5.196l62.499-36.085a6 6 0 0 1 6 0m-7-1.732a8 8 0 0 1 8 0l62.5 36.085a7.99 7.99 0 0 1 4 6.928v72.171a7.99 7.99 0 0 1-4 6.928l-62.5 36.085a8 8 0 0 1-8 0l-62.499-36.085a8 8 0 0 1-4-6.928v-72.171a8 8 0 0 1 4-6.928zm216.56-216.912-62.5-36.086a6 6 0 0 0-6 0l-62.5 36.086a5.99 5.99 0 0 0-3 5.196v72.171a5.99 5.99 0 0 0 3 5.196l62.5 36.085a6 6 0 0 0 6 0l62.5-36.085a5.99 5.99 0 0 0 3-5.196V102.45a5.99 5.99 0 0 0-3-5.196m-61.5-37.818a8 8 0 0 0-8 0l-62.5 36.086a8.01 8.01 0 0 0-4 6.928v72.171a8.01 8.01 0 0 0 4 6.928l62.5 36.085a8 8 0 0 0 8 0l62.5-36.085a7.99 7.99 0 0 0 4-6.928V102.45a7.99 7.99 0 0 0-4-6.928zm-1 256.462 62.5 36.085a5.99 5.99 0 0 1 3 5.196v72.171a5.99 5.99 0 0 1-3 5.196l-62.5 36.085a6 6 0 0 1-6 0l-62.5-36.085a5.99 5.99 0 0 1-3-5.196v-72.171a5.99 5.99 0 0 1 3-5.196l62.5-36.085a6 6 0 0 1 6 0m-7-1.732a8 8 0 0 1 8 0l62.5 36.085a7.99 7.99 0 0 1 4 6.928v72.171a7.99 7.99 0 0 1-4 6.928l-62.5 36.085a8 8 0 0 1-8 0l-62.5-36.085a8.01 8.01 0 0 1-4-6.928v-72.171a8.01 8.01 0 0 1 4-6.928zm-739.327-89.548-62.501-36.085a6 6 0 0 0-6 0l-62.502 36.085a6 6 0 0 0-3 5.197v72.17a6 6 0 0 0 3 5.196l62.502 36.086a6 6 0 0 0 6 0l62.501-36.086a6 6 0 0 0 3-5.196v-72.17a6 6 0 0 0-3-5.197m-61.501-37.817a8 8 0 0 0-8 0l-62.502 36.085a8 8 0 0 0-4 6.929v72.17a8 8 0 0 0 4 6.928l62.502 36.086a8 8 0 0 0 8 0l62.501-36.086a8 8 0 0 0 4-6.928v-72.17c0-2.859-1.524-5.5-4-6.929zm-148.06 1.732 62.501 36.085a6 6 0 0 1 3 5.197v72.17a6 6 0 0 1-3 5.196l-62.501 36.086a6 6 0 0 1-6 0L140 307.181a6 6 0 0 1-3-5.196v-72.17a6 6 0 0 1 3-5.197l62.502-36.085a6 6 0 0 1 6 0m-7-1.732a8 8 0 0 1 8 0l62.501 36.085a8 8 0 0 1 4 6.929v72.17a8 8 0 0 1-4 6.928l-62.501 36.086a8 8 0 0 1-8 0L139 308.913a8 8 0 0 1-4-6.928v-72.17a8 8 0 0 1 4-6.929zm363.622 37.817-62.502-36.085a6 6 0 0 0-6 0l-62.502 36.085a6 6 0 0 0-3 5.197v72.17a6 6 0 0 0 3 5.196l62.502 36.086a6 6 0 0 0 6 0l62.502-36.086a6 6 0 0 0 3-5.196v-72.17a6 6 0 0 0-3-5.197m-61.502-37.817a8 8 0 0 0-8 0l-62.502 36.085a8 8 0 0 0-4 6.929v72.17a8 8 0 0 0 4 6.928l62.502 36.086a8 8 0 0 0 8 0l62.502-36.086a8 8 0 0 0 4-6.928v-72.17a8 8 0 0 0-4-6.929zm146.06 1.732 62.502 36.085a6 6 0 0 1 3 5.197v72.17a6 6 0 0 1-3 5.196l-62.502 36.086a6 6 0 0 1-6 0l-62.501-36.086a6 6 0 0 1-3-5.196v-72.17a6 6 0 0 1 3-5.197l62.501-36.085a6 6 0 0 1 6 0m-7-1.732a8 8 0 0 1 8 0l62.502 36.085a8 8 0 0 1 4 6.929v72.17a8 8 0 0 1-4 6.928l-62.502 36.086a8 8 0 0 1-8 0l-62.501-36.086a8 8 0 0 1-4-6.928v-72.17c0-2.859 1.524-5.5 4-6.929zm216.562 37.817-62.502-36.085a6 6 0 0 0-6 0l-62.501 36.085a6 6 0 0 0-3 5.197v72.17a6 6 0 0 0 3 5.196l62.501 36.086a6 6 0 0 0 6 0l62.502-36.086a6 6 0 0 0 3-5.196v-72.17a6 6 0 0 0-3-5.197m-61.502-37.817a8 8 0 0 0-8 0l-62.501 36.085a8 8 0 0 0-4 6.929v72.17a8 8 0 0 0 4 6.928l62.501 36.086a8 8 0 0 0 8 0l62.502-36.086a8 8 0 0 0 4-6.928v-72.17a8 8 0 0 0-4-6.929zm146.06 1.732 62.498 36.085a6 6 0 0 1 3 5.197v72.17a5.99 5.99 0 0 1-3 5.196l-62.498 36.086a6 6 0 0 1-6 0l-62.501-36.086a6 6 0 0 1-3-5.196v-72.17a6 6 0 0 1 3-5.197l62.501-36.085a6 6 0 0 1 6 0m-7-1.732a8 8 0 0 1 8 0l62.498 36.085a7.99 7.99 0 0 1 4 6.929v72.17a7.99 7.99 0 0 1-4 6.928l-62.498 36.086a8 8 0 0 1-8 0l-62.501-36.086a8 8 0 0 1-4-6.928v-72.17a8 8 0 0 1 4-6.929zm216.558 37.817-62.5-36.085a6 6 0 0 0-6 0l-62.5 36.085a6 6 0 0 0-3 5.197v72.17a5.99 5.99 0 0 0 3 5.196l62.5 36.086a6 6 0 0 0 6 0l62.5-36.086a5.99 5.99 0 0 0 3-5.196v-72.17a6 6 0 0 0-3-5.197m-61.5-37.817a8 8 0 0 0-8 0l-62.5 36.085a8.01 8.01 0 0 0-4 6.929v72.17a8.01 8.01 0 0 0 4 6.928l62.5 36.086a8 8 0 0 0 8 0l62.5-36.086a7.99 7.99 0 0 0 4-6.928v-72.17a7.99 7.99 0 0 0-4-6.929zm146.06 1.732 62.5 36.085a6 6 0 0 1 3 5.197v72.17a5.99 5.99 0 0 1-3 5.196l-62.5 36.086a6 6 0 0 1-6 0l-62.5-36.086a5.99 5.99 0 0 1-3-5.196v-72.17a6 6 0 0 1 3-5.197l62.5-36.085a6 6 0 0 1 6 0m-7-1.732a8 8 0 0 1 8 0l62.5 36.085a7.99 7.99 0 0 1 4 6.929v72.17a7.99 7.99 0 0 1-4 6.928l-62.5 36.086a8 8 0 0 1-8 0l-62.5-36.086a8.01 8.01 0 0 1-4-6.928v-72.17c0-2.859 1.53-5.5 4-6.929zM208.502-66.196l62.501 36.085a6 6 0 0 1 3 5.196v72.171a6 6 0 0 1-3 5.196l-62.501 36.086a6 6 0 0 1-6 0L140 52.452a6 6 0 0 1-3-5.196v-72.17a6 6 0 0 1 3-5.197l62.502-36.085a6 6 0 0 1 6 0m-7-1.732a8 8 0 0 1 8 0l62.501 36.085a8 8 0 0 1 4 6.928v72.171c0 2.858-1.524 5.5-4 6.928L209.502 90.27a8 8 0 0 1-8 0L139 54.184a8 8 0 0 1-4-6.928v-72.17a8 8 0 0 1 4-6.929zm363.622 37.817-62.502-36.085a6 6 0 0 0-6 0L434.12-30.111a6 6 0 0 0-3 5.196v72.171a6 6 0 0 0 3 5.196l62.502 36.086a6 6 0 0 0 6 0l62.502-36.086a6 6 0 0 0 3-5.196v-72.17a6 6 0 0 0-3-5.197m-61.502-37.817a8 8 0 0 0-8 0L433.12-31.843a8 8 0 0 0-4 6.928v72.171a8 8 0 0 0 4 6.928l62.502 36.086a8 8 0 0 0 8 0l62.502-36.086a8 8 0 0 0 4-6.928v-72.17a8 8 0 0 0-4-6.929zm146.06 1.732 62.502 36.085a6 6 0 0 1 3 5.196v72.171a6 6 0 0 1-3 5.196l-62.502 36.086a6 6 0 0 1-6 0l-62.501-36.086a6 6 0 0 1-3-5.196v-72.17a6 6 0 0 1 3-5.197l62.501-36.085a6 6 0 0 1 6 0m-7-1.732a8 8 0 0 1 8 0l62.502 36.085a8 8 0 0 1 4 6.928v72.171a8 8 0 0 1-4 6.928L650.682 90.27a8 8 0 0 1-8 0l-62.501-36.086a8 8 0 0 1-4-6.928v-72.17c0-2.859 1.524-5.5 4-6.929zm216.562 37.817-62.502-36.085a6 6 0 0 0-6 0l-62.501 36.085a6 6 0 0 0-3 5.196v72.171a6 6 0 0 0 3 5.196l62.501 36.086a6 6 0 0 0 6 0l62.502-36.086a6 6 0 0 0 3-5.196v-72.17a6 6 0 0 0-3-5.197m-61.502-37.817a8 8 0 0 0-8 0l-62.501 36.085a8 8 0 0 0-4 6.928v72.171c0 2.858 1.524 5.5 4 6.928l62.501 36.086a8 8 0 0 0 8 0l62.502-36.086a8 8 0 0 0 4-6.928v-72.17a8 8 0 0 0-4-6.929zm146.06 1.732 62.498 36.085a5.99 5.99 0 0 1 3 5.196v72.171a5.99 5.99 0 0 1-3 5.196l-62.498 36.086a6 6 0 0 1-6 0l-62.501-36.086a6 6 0 0 1-3-5.196v-72.17a6 6 0 0 1 3-5.197l62.501-36.085a6 6 0 0 1 6 0m-7-1.732a8 8 0 0 1 8 0l62.498 36.085a7.99 7.99 0 0 1 4 6.928v72.171a7.99 7.99 0 0 1-4 6.928L944.802 90.27a8 8 0 0 1-8 0l-62.501-36.086a8 8 0 0 1-4-6.928v-72.17a8 8 0 0 1 4-6.929zm216.558 37.817-62.5-36.085a6 6 0 0 0-6 0l-62.5 36.085a5.99 5.99 0 0 0-3 5.196v72.171a5.99 5.99 0 0 0 3 5.196l62.5 36.086a6 6 0 0 0 6 0l62.5-36.086a5.99 5.99 0 0 0 3-5.196v-72.17a5.99 5.99 0 0 0-3-5.197m-61.5-37.817a8 8 0 0 0-8 0l-62.5 36.085c-2.47 1.43-4 4.07-4 6.928v72.171a8.01 8.01 0 0 0 4 6.928l62.5 36.086a8 8 0 0 0 8 0l62.5-36.086a7.99 7.99 0 0 0 4-6.928v-72.17a7.99 7.99 0 0 0-4-6.929zm146.06 1.732 62.5 36.085a5.99 5.99 0 0 1 3 5.196v72.171a5.99 5.99 0 0 1-3 5.196l-62.5 36.086a6 6 0 0 1-6 0l-62.5-36.086a5.99 5.99 0 0 1-3-5.196v-72.17a5.99 5.99 0 0 1 3-5.197l62.5-36.085a6 6 0 0 1 6 0m-7-1.732a8 8 0 0 1 8 0l62.5 36.085a7.99 7.99 0 0 1 4 6.928v72.171a7.99 7.99 0 0 1-4 6.928l-62.5 36.086a8 8 0 0 1-8 0l-62.5-36.086a8.01 8.01 0 0 1-4-6.928v-72.17c0-2.859 1.53-5.5 4-6.929zM418.063 479.348l-62.501-36.086a6 6 0 0 0-6 0l-62.502 36.086a6 6 0 0 0-3 5.196v72.171a6 6 0 0 0 3 5.196l62.502 36.085a6 6 0 0 0 6 0l62.501-36.085a6 6 0 0 0 3-5.196v-72.171a6 6 0 0 0-3-5.196m-61.501-37.818a8 8 0 0 0-8 0l-62.502 36.086a8 8 0 0 0-4 6.928v72.171a8 8 0 0 0 4 6.928l62.502 36.085a8 8 0 0 0 8 0l62.501-36.085a8 8 0 0 0 4-6.928v-72.171a8 8 0 0 0-4-6.928zm-148.06 1.732 62.501 36.086a6 6 0 0 1 3 5.196v72.17a6 6 0 0 1-3 5.197l-62.501 36.085a6 6 0 0 1-6 0L140 561.911a6 6 0 0 1-3-5.196v-72.171a6 6 0 0 1 3-5.196l62.502-36.086a6 6 0 0 1 6 0m-7-1.732a8 8 0 0 1 8 0l62.501 36.086a8 8 0 0 1 4 6.928v72.17c0 2.859-1.524 5.5-4 6.929l-62.501 36.085a8 8 0 0 1-8 0L139 563.643a8 8 0 0 1-4-6.928v-72.171a8 8 0 0 1 4-6.928zm363.622 37.818-62.502-36.086a6 6 0 0 0-6 0l-62.502 36.086a6 6 0 0 0-3 5.196v72.171a6 6 0 0 0 3 5.196l62.502 36.085a6 6 0 0 0 6 0l62.502-36.085a6 6 0 0 0 3-5.196v-72.171a6 6 0 0 0-3-5.196m-61.502-37.818a8 8 0 0 0-8 0l-62.502 36.086a8 8 0 0 0-4 6.928v72.171a8 8 0 0 0 4 6.928l62.502 36.085a8 8 0 0 0 8 0l62.502-36.085a8 8 0 0 0 4-6.928v-72.171a8 8 0 0 0-4-6.928zm146.06 1.732 62.502 36.086a6 6 0 0 1 3 5.196v72.171a6 6 0 0 1-3 5.196l-62.502 36.085a6 6 0 0 1-6 0l-62.501-36.085a6 6 0 0 1-3-5.196v-72.171a6 6 0 0 1 3-5.196l62.501-36.086a6 6 0 0 1 6 0m-7-1.732a8 8 0 0 1 8 0l62.502 36.086a8 8 0 0 1 4 6.928v72.171a8 8 0 0 1-4 6.928l-62.502 36.085a8 8 0 0 1-8 0l-62.501-36.085a8 8 0 0 1-4-6.928v-72.171a8 8 0 0 1 4-6.928zm216.562 37.818-62.502-36.086a6 6 0 0 0-6 0l-62.501 36.086a6 6 0 0 0-3 5.196v72.171a6 6 0 0 0 3 5.196l62.501 36.085a6 6 0 0 0 6 0l62.502-36.085a6 6 0 0 0 3-5.196v-72.171a6 6 0 0 0-3-5.196m-61.502-37.818a8 8 0 0 0-8 0l-62.501 36.086a8 8 0 0 0-4 6.928v72.171a8 8 0 0 0 4 6.928l62.501 36.085a8 8 0 0 0 8 0l62.502-36.085a8 8 0 0 0 4-6.928v-72.171a8 8 0 0 0-4-6.928zm146.06 1.732 62.498 36.086a5.99 5.99 0 0 1 3 5.196v72.171a5.99 5.99 0 0 1-3 5.196l-62.498 36.085a6 6 0 0 1-6 0l-62.501-36.085a6 6 0 0 1-3-5.196v-72.171a6 6 0 0 1 3-5.196l62.501-36.086a6 6 0 0 1 6 0m-7-1.732a8 8 0 0 1 8 0l62.498 36.086a7.99 7.99 0 0 1 4 6.928v72.171a7.99 7.99 0 0 1-4 6.928l-62.498 36.085a8 8 0 0 1-8 0l-62.501-36.085a8 8 0 0 1-4-6.928v-72.171a8 8 0 0 1 4-6.928zm216.558 37.818-62.5-36.086a6 6 0 0 0-6 0l-62.5 36.086a5.99 5.99 0 0 0-3 5.196v72.171a5.99 5.99 0 0 0 3 5.196l62.5 36.085a6 6 0 0 0 6 0l62.5-36.085a5.99 5.99 0 0 0 3-5.196v-72.171a5.99 5.99 0 0 0-3-5.196m-61.5-37.818a8 8 0 0 0-8 0l-62.5 36.086a8.01 8.01 0 0 0-4 6.928v72.171a8.01 8.01 0 0 0 4 6.928l62.5 36.085a8 8 0 0 0 8 0l62.5-36.085a7.99 7.99 0 0 0 4-6.928v-72.171a7.99 7.99 0 0 0-4-6.928zm146.06 1.732 62.5 36.086a5.99 5.99 0 0 1 3 5.196v72.171a5.99 5.99 0 0 1-3 5.196l-62.5 36.085a6 6 0 0 1-6 0l-62.5-36.085a5.99 5.99 0 0 1-3-5.196v-72.171a5.99 5.99 0 0 1 3-5.196l62.5-36.086a6 6 0 0 1 6 0m-7-1.732a8 8 0 0 1 8 0l62.5 36.086a7.99 7.99 0 0 1 4 6.928v72.171a7.99 7.99 0 0 1-4 6.928l-62.5 36.085a8 8 0 0 1-8 0l-62.5-36.085a8.01 8.01 0 0 1-4-6.928v-72.171a8.01 8.01 0 0 1 4-6.928z" clip-rule="evenodd"/>
  <path fill="url(#b)" fill-rule="evenodd" d="m418.063-30.11-62.501-36.086a6 6 0 0 0-6 0L287.06-30.111a6 6 0 0 0-3 5.196v72.171a6 6 0 0 0 3 5.196l62.502 36.086a6 6 0 0 0 6 0l62.501-36.086a6 6 0 0 0 3-5.196v-72.17a6 6 0 0 0-3-5.197Zm-61.501-37.818a8 8 0 0 0-8 0L286.06-31.843a8 8 0 0 0-4 6.928v72.171a8 8 0 0 0 4 6.928l62.502 36.086a8 8 0 0 0 8 0l62.501-36.086a8 8 0 0 0 4-6.928v-72.17c0-2.859-1.524-5.5-4-6.929zM344.533 97.254l-62.501-36.086a6 6 0 0 0-6 0L213.53 97.255a6 6 0 0 0-3 5.196v72.171a6 6 0 0 0 3 5.196l62.502 36.085a6 6 0 0 0 6 0l62.501-36.085a6 6 0 0 0 3-5.196V102.45a6 6 0 0 0-3-5.196m-61.501-37.818a8 8 0 0 0-8 0L212.53 95.522a8 8 0 0 0-4 6.928v72.171a8 8 0 0 0 4 6.928l62.502 36.085a8 8 0 0 0 8 0l62.501-36.085a8 8 0 0 0 4-6.928V102.45c0-2.858-1.524-5.5-4-6.928zm61.501 292.547-62.501-36.085a6 6 0 0 0-6 0l-62.502 36.085a6 6 0 0 0-3 5.196v72.171a6 6 0 0 0 3 5.196l62.502 36.085a6 6 0 0 0 6 0l62.501-36.085a6 6 0 0 0 3-5.196v-72.171a6 6 0 0 0-3-5.196m-61.501-37.817a8 8 0 0 0-8 0l-62.502 36.085a8 8 0 0 0-4 6.928v72.171a8 8 0 0 0 4 6.928l62.502 36.085a8 8 0 0 0 8 0l62.501-36.085a8 8 0 0 0 4-6.928v-72.171a8 8 0 0 0-4-6.928zm146.06-252.998 62.502 36.086a6 6 0 0 1 3 5.196v72.171a6 6 0 0 1-3 5.196l-62.502 36.085a6 6 0 0 1-6 0l-62.502-36.085a6 6 0 0 1-3-5.196V102.45a6 6 0 0 1 3-5.196l62.502-36.086a6 6 0 0 1 6 0m-7-1.732a8 8 0 0 1 8 0l62.502 36.086a8 8 0 0 1 4 6.928v72.171a8 8 0 0 1-4 6.928l-62.502 36.085a8 8 0 0 1-8 0l-62.502-36.085a8 8 0 0 1-4-6.928V102.45a8 8 0 0 1 4-6.928zm69.502 292.547-62.502-36.085a6 6 0 0 0-6 0l-62.502 36.085a6 6 0 0 0-3 5.196v72.171a6 6 0 0 0 3 5.196l62.502 36.085a6 6 0 0 0 6 0l62.502-36.085a6 6 0 0 0 3-5.196v-72.171a6 6 0 0 0-3-5.196m-61.502-37.817a8 8 0 0 0-8 0l-62.502 36.085a8 8 0 0 0-4 6.928v72.171a8 8 0 0 0 4 6.928l62.502 36.085a8 8 0 0 0 8 0l62.502-36.085a8 8 0 0 0 4-6.928v-72.171a8 8 0 0 0-4-6.928zm440.18-252.998 62.502 36.086a6 6 0 0 1 3 5.196v72.171a6 6 0 0 1-3 5.196l-62.502 36.085a6 6 0 0 1-6 0l-62.501-36.085a6 6 0 0 1-3-5.196V102.45a6 6 0 0 1 3-5.196l62.501-36.086a6 6 0 0 1 6 0m-7-1.732a8 8 0 0 1 8 0l62.502 36.086a8 8 0 0 1 4 6.928v72.171a8 8 0 0 1-4 6.928l-62.502 36.085a8 8 0 0 1-8 0l-62.501-36.085a8 8 0 0 1-4-6.928V102.45a8 8 0 0 1 4-6.928zm69.502 292.547-62.502-36.085a6 6 0 0 0-6 0l-62.501 36.085a6 6 0 0 0-3 5.196v72.171a6 6 0 0 0 3 5.196l62.501 36.085a6 6 0 0 0 6 0l62.502-36.085a6 6 0 0 0 3-5.196v-72.171a6 6 0 0 0-3-5.196m-61.502-37.817a8 8 0 0 0-8 0l-62.501 36.085a8 8 0 0 0-4 6.928v72.171a8 8 0 0 0 4 6.928l62.501 36.085a8 8 0 0 0 8 0l62.502-36.085a8 8 0 0 0 4-6.928v-72.171a8 8 0 0 0-4-6.928zm146.058 1.732 62.5 36.085a5.99 5.99 0 0 1 3 5.196v72.171a5.99 5.99 0 0 1-3 5.196l-62.5 36.085a6 6 0 0 1-6 0l-62.499-36.085a6 6 0 0 1-3-5.196v-72.171a6 6 0 0 1 3-5.196l62.499-36.085a6 6 0 0 1 6 0m-7-1.732a8 8 0 0 1 8 0l62.5 36.085a7.99 7.99 0 0 1 4 6.928v72.171a7.99 7.99 0 0 1-4 6.928l-62.5 36.085a8 8 0 0 1-8 0l-62.499-36.085a8 8 0 0 1-4-6.928v-72.171a8 8 0 0 1 4-6.928zm216.56-216.912-62.5-36.086a6 6 0 0 0-6 0l-62.5 36.086a5.99 5.99 0 0 0-3 5.196v72.171a5.99 5.99 0 0 0 3 5.196l62.5 36.085a6 6 0 0 0 6 0l62.5-36.085a5.99 5.99 0 0 0 3-5.196V102.45a5.99 5.99 0 0 0-3-5.196m-61.5-37.818a8 8 0 0 0-8 0l-62.5 36.086a8.01 8.01 0 0 0-4 6.928v72.171a8.01 8.01 0 0 0 4 6.928l62.5 36.085a8 8 0 0 0 8 0l62.5-36.085a7.99 7.99 0 0 0 4-6.928V102.45a7.99 7.99 0 0 0-4-6.928zm-1 256.462 62.5 36.085a5.99 5.99 0 0 1 3 5.196v72.171a5.99 5.99 0 0 1-3 5.196l-62.5 36.085a6 6 0 0 1-6 0l-62.5-36.085a5.99 5.99 0 0 1-3-5.196v-72.171a5.99 5.99 0 0 1 3-5.196l62.5-36.085a6 6 0 0 1 6 0m-7-1.732a8 8 0 0 1 8 0l62.5 36.085a7.99 7.99 0 0 1 4 6.928v72.171a7.99 7.99 0 0 1-4 6.928l-62.5 36.085a8 8 0 0 1-8 0l-62.5-36.085a8.01 8.01 0 0 1-4-6.928v-72.171a8.01 8.01 0 0 1 4-6.928zm-739.327-89.548-62.501-36.085a6 6 0 0 0-6 0l-62.502 36.085a6 6 0 0 0-3 5.197v72.17a6 6 0 0 0 3 5.196l62.502 36.086a6 6 0 0 0 6 0l62.501-36.086a6 6 0 0 0 3-5.196v-72.17a6 6 0 0 0-3-5.197m-61.501-37.817a8 8 0 0 0-8 0l-62.502 36.085a8 8 0 0 0-4 6.929v72.17a8 8 0 0 0 4 6.928l62.502 36.086a8 8 0 0 0 8 0l62.501-36.086a8 8 0 0 0 4-6.928v-72.17c0-2.859-1.524-5.5-4-6.929zm-148.06 1.732 62.501 36.085a6 6 0 0 1 3 5.197v72.17a6 6 0 0 1-3 5.196l-62.501 36.086a6 6 0 0 1-6 0L140 307.181a6 6 0 0 1-3-5.196v-72.17a6 6 0 0 1 3-5.197l62.502-36.085a6 6 0 0 1 6 0m-7-1.732a8 8 0 0 1 8 0l62.501 36.085a8 8 0 0 1 4 6.929v72.17a8 8 0 0 1-4 6.928l-62.501 36.086a8 8 0 0 1-8 0L139 308.913a8 8 0 0 1-4-6.928v-72.17a8 8 0 0 1 4-6.929zm363.622 37.817-62.502-36.085a6 6 0 0 0-6 0l-62.502 36.085a6 6 0 0 0-3 5.197v72.17a6 6 0 0 0 3 5.196l62.502 36.086a6 6 0 0 0 6 0l62.502-36.086a6 6 0 0 0 3-5.196v-72.17a6 6 0 0 0-3-5.197m-61.502-37.817a8 8 0 0 0-8 0l-62.502 36.085a8 8 0 0 0-4 6.929v72.17a8 8 0 0 0 4 6.928l62.502 36.086a8 8 0 0 0 8 0l62.502-36.086a8 8 0 0 0 4-6.928v-72.17a8 8 0 0 0-4-6.929zm146.06 1.732 62.502 36.085a6 6 0 0 1 3 5.197v72.17a6 6 0 0 1-3 5.196l-62.502 36.086a6 6 0 0 1-6 0l-62.501-36.086a6 6 0 0 1-3-5.196v-72.17a6 6 0 0 1 3-5.197l62.501-36.085a6 6 0 0 1 6 0m-7-1.732a8 8 0 0 1 8 0l62.502 36.085a8 8 0 0 1 4 6.929v72.17a8 8 0 0 1-4 6.928l-62.502 36.086a8 8 0 0 1-8 0l-62.501-36.086a8 8 0 0 1-4-6.928v-72.17c0-2.859 1.524-5.5 4-6.929zm216.562 37.817-62.502-36.085a6 6 0 0 0-6 0l-62.501 36.085a6 6 0 0 0-3 5.197v72.17a6 6 0 0 0 3 5.196l62.501 36.086a6 6 0 0 0 6 0l62.502-36.086a6 6 0 0 0 3-5.196v-72.17a6 6 0 0 0-3-5.197m-61.502-37.817a8 8 0 0 0-8 0l-62.501 36.085a8 8 0 0 0-4 6.929v72.17a8 8 0 0 0 4 6.928l62.501 36.086a8 8 0 0 0 8 0l62.502-36.086a8 8 0 0 0 4-6.928v-72.17a8 8 0 0 0-4-6.929zm146.06 1.732 62.498 36.085a6 6 0 0 1 3 5.197v72.17a5.99 5.99 0 0 1-3 5.196l-62.498 36.086a6 6 0 0 1-6 0l-62.501-36.086a6 6 0 0 1-3-5.196v-72.17a6 6 0 0 1 3-5.197l62.501-36.085a6 6 0 0 1 6 0m-7-1.732a8 8 0 0 1 8 0l62.498 36.085a7.99 7.99 0 0 1 4 6.929v72.17a7.99 7.99 0 0 1-4 6.928l-62.498 36.086a8 8 0 0 1-8 0l-62.501-36.086a8 8 0 0 1-4-6.928v-72.17a8 8 0 0 1 4-6.929zm216.558 37.817-62.5-36.085a6 6 0 0 0-6 0l-62.5 36.085a6 6 0 0 0-3 5.197v72.17a5.99 5.99 0 0 0 3 5.196l62.5 36.086a6 6 0 0 0 6 0l62.5-36.086a5.99 5.99 0 0 0 3-5.196v-72.17a6 6 0 0 0-3-5.197m-61.5-37.817a8 8 0 0 0-8 0l-62.5 36.085a8.01 8.01 0 0 0-4 6.929v72.17a8.01 8.01 0 0 0 4 6.928l62.5 36.086a8 8 0 0 0 8 0l62.5-36.086a7.99 7.99 0 0 0 4-6.928v-72.17a7.99 7.99 0 0 0-4-6.929zm146.06 1.732 62.5 36.085a6 6 0 0 1 3 5.197v72.17a5.99 5.99 0 0 1-3 5.196l-62.5 36.086a6 6 0 0 1-6 0l-62.5-36.086a5.99 5.99 0 0 1-3-5.196v-72.17a6 6 0 0 1 3-5.197l62.5-36.085a6 6 0 0 1 6 0m-7-1.732a8 8 0 0 1 8 0l62.5 36.085a7.99 7.99 0 0 1 4 6.929v72.17a7.99 7.99 0 0 1-4 6.928l-62.5 36.086a8 8 0 0 1-8 0l-62.5-36.086a8.01 8.01 0 0 1-4-6.928v-72.17c0-2.859 1.53-5.5 4-6.929zM208.502-66.196l62.501 36.085a6 6 0 0 1 3 5.196v72.171a6 6 0 0 1-3 5.196l-62.501 36.086a6 6 0 0 1-6 0L140 52.452a6 6 0 0 1-3-5.196v-72.17a6 6 0 0 1 3-5.197l62.502-36.085a6 6 0 0 1 6 0m-7-1.732a8 8 0 0 1 8 0l62.501 36.085a8 8 0 0 1 4 6.928v72.171c0 2.858-1.524 5.5-4 6.928L209.502 90.27a8 8 0 0 1-8 0L139 54.184a8 8 0 0 1-4-6.928v-72.17a8 8 0 0 1 4-6.929zm363.622 37.817-62.502-36.085a6 6 0 0 0-6 0L434.12-30.111a6 6 0 0 0-3 5.196v72.171a6 6 0 0 0 3 5.196l62.502 36.086a6 6 0 0 0 6 0l62.502-36.086a6 6 0 0 0 3-5.196v-72.17a6 6 0 0 0-3-5.197m-61.502-37.817a8 8 0 0 0-8 0L433.12-31.843a8 8 0 0 0-4 6.928v72.171a8 8 0 0 0 4 6.928l62.502 36.086a8 8 0 0 0 8 0l62.502-36.086a8 8 0 0 0 4-6.928v-72.17a8 8 0 0 0-4-6.929zm146.06 1.732 62.502 36.085a6 6 0 0 1 3 5.196v72.171a6 6 0 0 1-3 5.196l-62.502 36.086a6 6 0 0 1-6 0l-62.501-36.086a6 6 0 0 1-3-5.196v-72.17a6 6 0 0 1 3-5.197l62.501-36.085a6 6 0 0 1 6 0m-7-1.732a8 8 0 0 1 8 0l62.502 36.085a8 8 0 0 1 4 6.928v72.171a8 8 0 0 1-4 6.928L650.682 90.27a8 8 0 0 1-8 0l-62.501-36.086a8 8 0 0 1-4-6.928v-72.17c0-2.859 1.524-5.5 4-6.929zm216.562 37.817-62.502-36.085a6 6 0 0 0-6 0l-62.501 36.085a6 6 0 0 0-3 5.196v72.171a6 6 0 0 0 3 5.196l62.501 36.086a6 6 0 0 0 6 0l62.502-36.086a6 6 0 0 0 3-5.196v-72.17a6 6 0 0 0-3-5.197m-61.502-37.817a8 8 0 0 0-8 0l-62.501 36.085a8 8 0 0 0-4 6.928v72.171c0 2.858 1.524 5.5 4 6.928l62.501 36.086a8 8 0 0 0 8 0l62.502-36.086a8 8 0 0 0 4-6.928v-72.17a8 8 0 0 0-4-6.929zm146.06 1.732 62.498 36.085a5.99 5.99 0 0 1 3 5.196v72.171a5.99 5.99 0 0 1-3 5.196l-62.498 36.086a6 6 0 0 1-6 0l-62.501-36.086a6 6 0 0 1-3-5.196v-72.17a6 6 0 0 1 3-5.197l62.501-36.085a6 6 0 0 1 6 0m-7-1.732a8 8 0 0 1 8 0l62.498 36.085a7.99 7.99 0 0 1 4 6.928v72.171a7.99 7.99 0 0 1-4 6.928L944.802 90.27a8 8 0 0 1-8 0l-62.501-36.086a8 8 0 0 1-4-6.928v-72.17a8 8 0 0 1 4-6.929zm216.558 37.817-62.5-36.085a6 6 0 0 0-6 0l-62.5 36.085a5.99 5.99 0 0 0-3 5.196v72.171a5.99 5.99 0 0 0 3 5.196l62.5 36.086a6 6 0 0 0 6 0l62.5-36.086a5.99 5.99 0 0 0 3-5.196v-72.17a5.99 5.99 0 0 0-3-5.197m-61.5-37.817a8 8 0 0 0-8 0l-62.5 36.085c-2.47 1.43-4 4.07-4 6.928v72.171a8.01 8.01 0 0 0 4 6.928l62.5 36.086a8 8 0 0 0 8 0l62.5-36.086a7.99 7.99 0 0 0 4-6.928v-72.17a7.99 7.99 0 0 0-4-6.929zm146.06 1.732 62.5 36.085a5.99 5.99 0 0 1 3 5.196v72.171a5.99 5.99 0 0 1-3 5.196l-62.5 36.086a6 6 0 0 1-6 0l-62.5-36.086a5.99 5.99 0 0 1-3-5.196v-72.17a5.99 5.99 0 0 1 3-5.197l62.5-36.085a6 6 0 0 1 6 0m-7-1.732a8 8 0 0 1 8 0l62.5 36.085a7.99 7.99 0 0 1 4 6.928v72.171a7.99 7.99 0 0 1-4 6.928l-62.5 36.086a8 8 0 0 1-8 0l-62.5-36.086a8.01 8.01 0 0 1-4-6.928v-72.17c0-2.859 1.53-5.5 4-6.929zM418.063 479.348l-62.501-36.086a6 6 0 0 0-6 0l-62.502 36.086a6 6 0 0 0-3 5.196v72.171a6 6 0 0 0 3 5.196l62.502 36.085a6 6 0 0 0 6 0l62.501-36.085a6 6 0 0 0 3-5.196v-72.171a6 6 0 0 0-3-5.196m-61.501-37.818a8 8 0 0 0-8 0l-62.502 36.086a8 8 0 0 0-4 6.928v72.171a8 8 0 0 0 4 6.928l62.502 36.085a8 8 0 0 0 8 0l62.501-36.085a8 8 0 0 0 4-6.928v-72.171a8 8 0 0 0-4-6.928zm-148.06 1.732 62.501 36.086a6 6 0 0 1 3 5.196v72.17a6 6 0 0 1-3 5.197l-62.501 36.085a6 6 0 0 1-6 0L140 561.911a6 6 0 0 1-3-5.196v-72.171a6 6 0 0 1 3-5.196l62.502-36.086a6 6 0 0 1 6 0m-7-1.732a8 8 0 0 1 8 0l62.501 36.086a8 8 0 0 1 4 6.928v72.17c0 2.859-1.524 5.5-4 6.929l-62.501 36.085a8 8 0 0 1-8 0L139 563.643a8 8 0 0 1-4-6.928v-72.171a8 8 0 0 1 4-6.928zm363.622 37.818-62.502-36.086a6 6 0 0 0-6 0l-62.502 36.086a6 6 0 0 0-3 5.196v72.171a6 6 0 0 0 3 5.196l62.502 36.085a6 6 0 0 0 6 0l62.502-36.085a6 6 0 0 0 3-5.196v-72.171a6 6 0 0 0-3-5.196m-61.502-37.818a8 8 0 0 0-8 0l-62.502 36.086a8 8 0 0 0-4 6.928v72.171a8 8 0 0 0 4 6.928l62.502 36.085a8 8 0 0 0 8 0l62.502-36.085a8 8 0 0 0 4-6.928v-72.171a8 8 0 0 0-4-6.928zm146.06 1.732 62.502 36.086a6 6 0 0 1 3 5.196v72.171a6 6 0 0 1-3 5.196l-62.502 36.085a6 6 0 0 1-6 0l-62.501-36.085a6 6 0 0 1-3-5.196v-72.171a6 6 0 0 1 3-5.196l62.501-36.086a6 6 0 0 1 6 0m-7-1.732a8 8 0 0 1 8 0l62.502 36.086a8 8 0 0 1 4 6.928v72.171a8 8 0 0 1-4 6.928l-62.502 36.085a8 8 0 0 1-8 0l-62.501-36.085a8 8 0 0 1-4-6.928v-72.171a8 8 0 0 1 4-6.928zm216.562 37.818-62.502-36.086a6 6 0 0 0-6 0l-62.501 36.086a6 6 0 0 0-3 5.196v72.171a6 6 0 0 0 3 5.196l62.501 36.085a6 6 0 0 0 6 0l62.502-36.085a6 6 0 0 0 3-5.196v-72.171a6 6 0 0 0-3-5.196m-61.502-37.818a8 8 0 0 0-8 0l-62.501 36.086a8 8 0 0 0-4 6.928v72.171a8 8 0 0 0 4 6.928l62.501 36.085a8 8 0 0 0 8 0l62.502-36.085a8 8 0 0 0 4-6.928v-72.171a8 8 0 0 0-4-6.928zm146.06 1.732 62.498 36.086a5.99 5.99 0 0 1 3 5.196v72.171a5.99 5.99 0 0 1-3 5.196l-62.498 36.085a6 6 0 0 1-6 0l-62.501-36.085a6 6 0 0 1-3-5.196v-72.171a6 6 0 0 1 3-5.196l62.501-36.086a6 6 0 0 1 6 0m-7-1.732a8 8 0 0 1 8 0l62.498 36.086a7.99 7.99 0 0 1 4 6.928v72.171a7.99 7.99 0 0 1-4 6.928l-62.498 36.085a8 8 0 0 1-8 0l-62.501-36.085a8 8 0 0 1-4-6.928v-72.171a8 8 0 0 1 4-6.928zm216.558 37.818-62.5-36.086a6 6 0 0 0-6 0l-62.5 36.086a5.99 5.99 0 0 0-3 5.196v72.171a5.99 5.99 0 0 0 3 5.196l62.5 36.085a6 6 0 0 0 6 0l62.5-36.085a5.99 5.99 0 0 0 3-5.196v-72.171a5.99 5.99 0 0 0-3-5.196m-61.5-37.818a8 8 0 0 0-8 0l-62.5 36.086a8.01 8.01 0 0 0-4 6.928v72.171a8.01 8.01 0 0 0 4 6.928l62.5 36.085a8 8 0 0 0 8 0l62.5-36.085a7.99 7.99 0 0 0 4-6.928v-72.171a7.99 7.99 0 0 0-4-6.928zm146.06 1.732 62.5 36.086a5.99 5.99 0 0 1 3 5.196v72.171a5.99 5.99 0 0 1-3 5.196l-62.5 36.085a6 6 0 0 1-6 0l-62.5-36.085a5.99 5.99 0 0 1-3-5.196v-72.171a5.99 5.99 0 0 1 3-5.196l62.5-36.086a6 6 0 0 1 6 0m-7-1.732a8 8 0 0 1 8 0l62.5 36.086a7.99 7.99 0 0 1 4 6.928v72.171a7.99 7.99 0 0 1-4 6.928l-62.5 36.085a8 8 0 0 1-8 0l-62.5-36.085a8.01 8.01 0 0 1-4-6.928v-72.171a8.01 8.01 0 0 1 4-6.928z" clip-rule="evenodd"/>
  <path stroke="url(#c)" stroke-width="1.5" d="M864.05 60.398a7.25 7.25 0 0 1 7.25 0l62.502 36.085a7.25 7.25 0 0 1 3.625 6.279v72.171a7.25 7.25 0 0 1-3.625 6.278L871.3 217.297a7.25 7.25 0 0 1-7.25 0l-62.502-36.086a7.25 7.25 0 0 1-3.625-6.278v-72.171a7.25 7.25 0 0 1 3.625-6.279z"/>
  <defs>
    <radialGradient id="a" cx="0" cy="0" r="1" gradientTransform="matrix(-397.9998 75.00142 -43.99751 -233.47559 720 237)" gradientUnits="userSpaceOnUse">
      <stop stop-color="#224699"/>
      <stop offset="1" stop-color="#1B3676" stop-opacity="0"/>
    </radialGradient>
    <radialGradient id="b" cx="0" cy="0" r="1" gradientTransform="matrix(185.5001 -21.00002 36.69596 324.14748 249.5 397)" gradientUnits="userSpaceOnUse">
      <stop stop-color="#224699"/>
      <stop offset="1" stop-color="#224699" stop-opacity="0"/>
    </radialGradient>
    <radialGradient id="c" cx="0" cy="0" r="1" gradientTransform="rotate(54.462 311.095 854.56)scale(112.952)" gradientUnits="userSpaceOnUse">
      <stop stop-color="#5986EC"/>
      <stop offset="1" stop-opacity="0"/>
    </radialGradient>
  </defs>
</svg>
