<svg xmlns="http://www.w3.org/2000/svg" width="24" height="25" fill="none">
  <circle cx="12" cy="12.5" r="10.25" stroke="#17D4A7" stroke-width="1.5"/>
  <circle cx="11.542" cy="8.374" r="2.292" fill="#17D4A7"/>
  <path stroke="#17D4A7" stroke-width="1.5" d="M3.75 7.044c1.375-.15 4.95 0 8.25 1.79"/>
  <path stroke="#17D4A7" stroke-width="1.5" d="M2.443 14.937C4.243 12.41 9.25 6.54 20.25 7"/>
  <path stroke="#17D4A7" stroke-width="1.5" d="M11.542 8.375c1.13.537 3.806 3.476 5.5 6.417m0 0c-1.833 1.833-5.5 4.583-14.208.917m14.426-.456c.46.725.94 3.412.848 5.741m2.74-14.044c.057 1.185-1.397 4.704-3.348 7.393"/>
  <circle cx="8.792" cy="17.542" r="1.375" fill="#17D4A7"/>
  <circle cx="17.25" cy="14.75" r="1.75" fill="#17D4A7"/>
</svg>
