<svg xmlns="http://www.w3.org/2000/svg" width="48" height="50" fill="none">
  <path fill="#17D4A7" stroke="#69E7C8" stroke-linecap="round" stroke-linejoin="round" stroke-width="2" d="M22 2.155a4 4 0 0 1 4 0l16.785 9.69a4 4 0 0 1 2 3.464v19.382a4 4 0 0 1-2 3.464L26 47.845a4 4 0 0 1-4 0l-16.785-9.69a4 4 0 0 1-2-3.464V15.309a4 4 0 0 1 2-3.464z"/>
  <path fill="url(#a)" stroke="#69E7C8" stroke-linecap="round" stroke-linejoin="round" stroke-width="2" d="M22 8.155a4 4 0 0 1 4 0l11.589 6.69a4 4 0 0 1 2 3.464v13.382a4 4 0 0 1-2 3.464L26 41.845a4 4 0 0 1-4 0l-11.588-6.69a4 4 0 0 1-2-3.464V18.309a4 4 0 0 1 2-3.464z"/>
  <g stroke="#17233A" stroke-linecap="round" stroke-linejoin="round" stroke-width="2" clip-path="url(#b)">
    <path fill="#fff" d="M32.246 26.434a8.4 8.4 0 0 1-2.547 6.013 8.8 8.8 0 0 1-6.15 2.49 8.8 8.8 0 0 1-6.149-2.49 8.4 8.4 0 0 1-2.547-6.013c0-4.7 8.696-14.556 8.696-14.556s8.697 9.856 8.697 14.556"/>
    <path d="M23.5 11.933v26.134m-2.502-16.875 2.551 2.494 2.552-2.494M20.01 26.75l3.54 3.461 3.54-3.461"/>
  </g>
  <defs>
    <radialGradient id="a" cx="0" cy="0" r="1" gradientTransform="rotate(59.381 -4.023 17.4)scale(28.4693)" gradientUnits="userSpaceOnUse">
      <stop stop-color="#fff" stop-opacity=".89"/>
      <stop offset="1" stop-color="#fff" stop-opacity="0"/>
    </radialGradient>
    <clipPath id="b">
      <path fill="#fff" d="M13 11h21v28H13z"/>
    </clipPath>
  </defs>
</svg>
