<svg xmlns="http://www.w3.org/2000/svg" width="1440" height="600" fill="none">
  <path fill="url(#a)" fill-rule="evenodd" d="m502.622-66.196 62.502 36.085a6 6 0 0 1 3 5.196v72.171a6 6 0 0 1-3 5.196l-62.502 36.086a6 6 0 0 1-6 0L434.12 52.452a6 6 0 0 1-3-5.196v-72.17a6 6 0 0 1 3-5.197l62.502-36.085a6 6 0 0 1 6 0m-7-1.732a8 8 0 0 1 8 0l62.502 36.085a8 8 0 0 1 4 6.928v72.171a8 8 0 0 1-4 6.928L503.622 90.27a8 8 0 0 1-8 0L433.12 54.184a8 8 0 0 1-4-6.928v-72.17a8 8 0 0 1 4-6.929zM271.003-30.111l-62.501-36.085a6 6 0 0 0-6 0L140-30.111a6 6 0 0 0-3 5.196v72.171a6 6 0 0 0 3 5.196l62.502 36.086a6 6 0 0 0 6 0l62.501-36.086a6 6 0 0 0 3-5.196v-72.17a6 6 0 0 0-3-5.197m-61.501-37.817a8 8 0 0 0-8 0L139-31.843a8 8 0 0 0-4 6.928v72.171a8 8 0 0 0 4 6.928l62.502 36.086a8 8 0 0 0 8 0l62.501-36.086a8 8 0 0 0 4-6.928v-72.17c0-2.859-1.524-5.5-4-6.929zM344.533 97.254l-62.501-36.086a6 6 0 0 0-6 0L213.53 97.255a6 6 0 0 0-3 5.196v72.171a6 6 0 0 0 3 5.196l62.502 36.085a6 6 0 0 0 6 0l62.501-36.085a6 6 0 0 0 3-5.196V102.45a6 6 0 0 0-3-5.196m-61.501-37.818a8 8 0 0 0-8 0L212.53 95.522a8 8 0 0 0-4 6.928v72.171a8 8 0 0 0 4 6.928l62.502 36.085a8 8 0 0 0 8 0l62.501-36.085a8 8 0 0 0 4-6.928V102.45c0-2.858-1.524-5.5-4-6.928zm61.501 292.547-62.501-36.085a6 6 0 0 0-6 0l-62.502 36.085a6 6 0 0 0-3 5.196v72.171a6 6 0 0 0 3 5.196l62.502 36.085a6 6 0 0 0 6 0l62.501-36.085a6 6 0 0 0 3-5.196v-72.171a6 6 0 0 0-3-5.196m-61.501-37.817a8 8 0 0 0-8 0l-62.502 36.085a8 8 0 0 0-4 6.928v72.171a8 8 0 0 0 4 6.928l62.502 36.085a8 8 0 0 0 8 0l62.501-36.085a8 8 0 0 0 4-6.928v-72.171a8 8 0 0 0-4-6.928zm146.06 1.732 62.502 36.085a6 6 0 0 1 3 5.196v72.171a6 6 0 0 1-3 5.196l-62.502 36.085a6 6 0 0 1-6 0l-62.502-36.085a6 6 0 0 1-3-5.196v-72.171a6 6 0 0 1 3-5.196l62.502-36.085a6 6 0 0 1 6 0m-7-1.732a8 8 0 0 1 8 0l62.502 36.085a8 8 0 0 1 4 6.928v72.171a8 8 0 0 1-4 6.928l-62.502 36.085a8 8 0 0 1-8 0l-62.502-36.085a8 8 0 0 1-4-6.928v-72.171a8 8 0 0 1 4-6.928zM638.654 97.254l-62.502-36.086a6 6 0 0 0-6 0L507.65 97.255a6 6 0 0 0-3 5.196v72.171a6 6 0 0 0 3 5.196l62.502 36.085a6 6 0 0 0 6 0l62.502-36.085a6 6 0 0 0 3-5.196V102.45a6 6 0 0 0-3-5.196m-61.502-37.818a8 8 0 0 0-8 0L506.65 95.522a8 8 0 0 0-4 6.928v72.171a8 8 0 0 0 4 6.928l62.502 36.085a8 8 0 0 0 8 0l62.502-36.085a8 8 0 0 0 4-6.928V102.45a8 8 0 0 0-4-6.928zm293.12 1.733 62.502 36.085a6 6 0 0 1 3 5.196v72.171a6 6 0 0 1-3 5.196l-62.502 36.085a6 6 0 0 1-6 0l-62.501-36.085a6 6 0 0 1-3-5.196V102.45a6 6 0 0 1 3-5.196l62.501-36.086a6 6 0 0 1 6 0Zm-7-1.733a8 8 0 0 1 8 0l62.502 36.086a8 8 0 0 1 4 6.928v72.171a8 8 0 0 1-4 6.928l-62.502 36.085a8 8 0 0 1-8 0l-62.501-36.085a8 8 0 0 1-4-6.928V102.45a8 8 0 0 1 4-6.928zm363.618 37.818-62.5-36.086a6 6 0 0 0-6 0l-62.5 36.086a5.99 5.99 0 0 0-3 5.196v72.171a5.99 5.99 0 0 0 3 5.196l62.5 36.085a6 6 0 0 0 6 0l62.5-36.085a5.99 5.99 0 0 0 3-5.196V102.45a5.99 5.99 0 0 0-3-5.196m-61.5-37.818a8 8 0 0 0-8 0l-62.5 36.086a8.01 8.01 0 0 0-4 6.928v72.171a8.01 8.01 0 0 0 4 6.928l62.5 36.085a8 8 0 0 0 8 0l62.5-36.085a7.99 7.99 0 0 0 4-6.928V102.45a7.99 7.99 0 0 0-4-6.928zm-1 256.462 62.5 36.085a5.99 5.99 0 0 1 3 5.196v72.171a5.99 5.99 0 0 1-3 5.196l-62.5 36.085a6 6 0 0 1-6 0l-62.5-36.085a5.99 5.99 0 0 1-3-5.196v-72.171a5.99 5.99 0 0 1 3-5.196l62.5-36.085a6 6 0 0 1 6 0m-7-1.732a8 8 0 0 1 8 0l62.5 36.085a7.99 7.99 0 0 1 4 6.928v72.171a7.99 7.99 0 0 1-4 6.928l-62.5 36.085a8 8 0 0 1-8 0l-62.5-36.085a8.01 8.01 0 0 1-4-6.928v-72.171a8.01 8.01 0 0 1 4-6.928zm-592.266-89.548-62.502-36.085a6 6 0 0 0-6 0l-62.502 36.085a6 6 0 0 0-3 5.197v72.17a6 6 0 0 0 3 5.196l62.502 36.086a6 6 0 0 0 6 0l62.502-36.086a6 6 0 0 0 3-5.196v-72.17a6 6 0 0 0-3-5.197m-61.502-37.817a8 8 0 0 0-8 0l-62.502 36.085a8 8 0 0 0-4 6.929v72.17a8 8 0 0 0 4 6.928l62.502 36.086a8 8 0 0 0 8 0l62.502-36.086a8 8 0 0 0 4-6.928v-72.17a8 8 0 0 0-4-6.929zm146.06 1.732 62.502 36.085a6 6 0 0 1 3 5.197v72.17a6 6 0 0 1-3 5.196l-62.502 36.086a6 6 0 0 1-6 0l-62.501-36.086a6 6 0 0 1-3-5.196v-72.17a6 6 0 0 1 3-5.197l62.501-36.085a6 6 0 0 1 6 0m-7-1.732a8 8 0 0 1 8 0l62.502 36.085a8 8 0 0 1 4 6.929v72.17a8 8 0 0 1-4 6.928l-62.502 36.086a8 8 0 0 1-8 0l-62.501-36.086a8 8 0 0 1-4-6.928v-72.17c0-2.859 1.524-5.5 4-6.929zm216.562 37.817-62.502-36.085a6 6 0 0 0-6 0l-62.501 36.085a6 6 0 0 0-3 5.197v72.17a6 6 0 0 0 3 5.196l62.501 36.086a6 6 0 0 0 6 0l62.502-36.086a6 6 0 0 0 3-5.196v-72.17a6 6 0 0 0-3-5.197m-61.502-37.817a8 8 0 0 0-8 0l-62.501 36.085a8 8 0 0 0-4 6.929v72.17a8 8 0 0 0 4 6.928l62.501 36.086a8 8 0 0 0 8 0l62.502-36.086a8 8 0 0 0 4-6.928v-72.17a8 8 0 0 0-4-6.929zm146.06 1.732 62.498 36.085a6 6 0 0 1 3 5.197v72.17a5.99 5.99 0 0 1-3 5.196l-62.498 36.086a6 6 0 0 1-6 0l-62.501-36.086a6 6 0 0 1-3-5.196v-72.17a6 6 0 0 1 3-5.197l62.501-36.085a6 6 0 0 1 6 0m-7-1.732a8 8 0 0 1 8 0l62.498 36.085a7.99 7.99 0 0 1 4 6.929v72.17a7.99 7.99 0 0 1-4 6.928l-62.498 36.086a8 8 0 0 1-8 0l-62.501-36.086a8 8 0 0 1-4-6.928v-72.17a8 8 0 0 1 4-6.929zm216.558 37.817-62.5-36.085a6 6 0 0 0-6 0l-62.5 36.085a6 6 0 0 0-3 5.197v72.17a5.99 5.99 0 0 0 3 5.196l62.5 36.086a6 6 0 0 0 6 0l62.5-36.086a5.99 5.99 0 0 0 3-5.196v-72.17a6 6 0 0 0-3-5.197m-61.5-37.817a8 8 0 0 0-8 0l-62.5 36.085a8.01 8.01 0 0 0-4 6.929v72.17a8.01 8.01 0 0 0 4 6.928l62.5 36.086a8 8 0 0 0 8 0l62.5-36.086a7.99 7.99 0 0 0 4-6.928v-72.17a7.99 7.99 0 0 0-4-6.929zm146.06 1.732 62.5 36.085a6 6 0 0 1 3 5.197v72.17a5.99 5.99 0 0 1-3 5.196l-62.5 36.086a6 6 0 0 1-6 0l-62.5-36.086a5.99 5.99 0 0 1-3-5.196v-72.17a6 6 0 0 1 3-5.197l62.5-36.085a6 6 0 0 1 6 0m-7-1.732a8 8 0 0 1 8 0l62.5 36.085a7.99 7.99 0 0 1 4 6.929v72.17a7.99 7.99 0 0 1-4 6.928l-62.5 36.086a8 8 0 0 1-8 0l-62.5-36.086a8.01 8.01 0 0 1-4-6.928v-72.17c0-2.859 1.53-5.5 4-6.929zM859.244-30.111l-62.502-36.085a6 6 0 0 0-6 0l-62.501 36.085a6 6 0 0 0-3 5.196v72.171a6 6 0 0 0 3 5.196l62.501 36.086a6 6 0 0 0 6 0l62.502-36.086a6 6 0 0 0 3-5.196v-72.17a6 6 0 0 0-3-5.197m-61.502-37.817a8 8 0 0 0-8 0l-62.501 36.085a8 8 0 0 0-4 6.928v72.171c0 2.858 1.524 5.5 4 6.928l62.501 36.086a8 8 0 0 0 8 0l62.502-36.086a8 8 0 0 0 4-6.928v-72.17a8 8 0 0 0-4-6.929zm146.06 1.732 62.498 36.085a5.99 5.99 0 0 1 3 5.196v72.171a5.99 5.99 0 0 1-3 5.196l-62.498 36.086a6 6 0 0 1-6 0l-62.501-36.086a6 6 0 0 1-3-5.196v-72.17a6 6 0 0 1 3-5.197l62.501-36.085a6 6 0 0 1 6 0m-7-1.732a8 8 0 0 1 8 0l62.498 36.085a7.99 7.99 0 0 1 4 6.928v72.171a7.99 7.99 0 0 1-4 6.928L944.802 90.27a8 8 0 0 1-8 0l-62.501-36.086a8 8 0 0 1-4-6.928v-72.17a8 8 0 0 1 4-6.929zm216.558 37.817-62.5-36.085a6 6 0 0 0-6 0l-62.5 36.085a5.99 5.99 0 0 0-3 5.196v72.171a5.99 5.99 0 0 0 3 5.196l62.5 36.086a6 6 0 0 0 6 0l62.5-36.086a5.99 5.99 0 0 0 3-5.196v-72.17a5.99 5.99 0 0 0-3-5.197m-61.5-37.817a8 8 0 0 0-8 0l-62.5 36.085c-2.47 1.43-4 4.07-4 6.928v72.171a8.01 8.01 0 0 0 4 6.928l62.5 36.086a8 8 0 0 0 8 0l62.5-36.086a7.99 7.99 0 0 0 4-6.928v-72.17a7.99 7.99 0 0 0-4-6.929zm146.06 1.732 62.5 36.085a5.99 5.99 0 0 1 3 5.196v72.171a5.99 5.99 0 0 1-3 5.196l-62.5 36.086a6 6 0 0 1-6 0l-62.5-36.086a5.99 5.99 0 0 1-3-5.196v-72.17a5.99 5.99 0 0 1 3-5.197l62.5-36.085a6 6 0 0 1 6 0m-7-1.732a8 8 0 0 1 8 0l62.5 36.085a7.99 7.99 0 0 1 4 6.928v72.171a7.99 7.99 0 0 1-4 6.928l-62.5 36.086a8 8 0 0 1-8 0l-62.5-36.086a8.01 8.01 0 0 1-4-6.928v-72.17c0-2.859 1.53-5.5 4-6.929zM418.063 479.348l-62.501-36.086a6 6 0 0 0-6 0l-62.502 36.086a6 6 0 0 0-3 5.196v72.171a6 6 0 0 0 3 5.196l62.502 36.085a6 6 0 0 0 6 0l62.501-36.085a6 6 0 0 0 3-5.196v-72.171a6 6 0 0 0-3-5.196m-61.501-37.818a8 8 0 0 0-8 0l-62.502 36.086a8 8 0 0 0-4 6.928v72.171a8 8 0 0 0 4 6.928l62.502 36.085a8 8 0 0 0 8 0l62.501-36.085a8 8 0 0 0 4-6.928v-72.171a8 8 0 0 0-4-6.928zm-148.06 1.732 62.501 36.086a6 6 0 0 1 3 5.196v72.17a6 6 0 0 1-3 5.197l-62.501 36.085a6 6 0 0 1-6 0L140 561.911a6 6 0 0 1-3-5.196v-72.171a6 6 0 0 1 3-5.196l62.502-36.086a6 6 0 0 1 6 0m-7-1.732a8 8 0 0 1 8 0l62.501 36.086a8 8 0 0 1 4 6.928v72.17c0 2.859-1.524 5.5-4 6.929l-62.501 36.085a8 8 0 0 1-8 0L139 563.643a8 8 0 0 1-4-6.928v-72.171a8 8 0 0 1 4-6.928zm363.622 37.818-62.502-36.086a6 6 0 0 0-6 0l-62.502 36.086a6 6 0 0 0-3 5.196v72.171a6 6 0 0 0 3 5.196l62.502 36.085a6 6 0 0 0 6 0l62.502-36.085a6 6 0 0 0 3-5.196v-72.171a6 6 0 0 0-3-5.196m-61.502-37.818a8 8 0 0 0-8 0l-62.502 36.086a8 8 0 0 0-4 6.928v72.171a8 8 0 0 0 4 6.928l62.502 36.085a8 8 0 0 0 8 0l62.502-36.085a8 8 0 0 0 4-6.928v-72.171a8 8 0 0 0-4-6.928zm146.06 1.732 62.502 36.086a6 6 0 0 1 3 5.196v72.171a6 6 0 0 1-3 5.196l-62.502 36.085a6 6 0 0 1-6 0l-62.501-36.085a6 6 0 0 1-3-5.196v-72.171a6 6 0 0 1 3-5.196l62.501-36.086a6 6 0 0 1 6 0m-7-1.732a8 8 0 0 1 8 0l62.502 36.086a8 8 0 0 1 4 6.928v72.171a8 8 0 0 1-4 6.928l-62.502 36.085a8 8 0 0 1-8 0l-62.501-36.085a8 8 0 0 1-4-6.928v-72.171a8 8 0 0 1 4-6.928zm216.562 37.818-62.502-36.086a6 6 0 0 0-6 0l-62.501 36.086a6 6 0 0 0-3 5.196v72.171a6 6 0 0 0 3 5.196l62.501 36.085a6 6 0 0 0 6 0l62.502-36.085a6 6 0 0 0 3-5.196v-72.171a6 6 0 0 0-3-5.196m-61.502-37.818a8 8 0 0 0-8 0l-62.501 36.086a8 8 0 0 0-4 6.928v72.171a8 8 0 0 0 4 6.928l62.501 36.085a8 8 0 0 0 8 0l62.502-36.085a8 8 0 0 0 4-6.928v-72.171a8 8 0 0 0-4-6.928zm146.06 1.732 62.498 36.086a5.99 5.99 0 0 1 3 5.196v72.171a5.99 5.99 0 0 1-3 5.196l-62.498 36.085a6 6 0 0 1-6 0l-62.501-36.085a6 6 0 0 1-3-5.196v-72.171a6 6 0 0 1 3-5.196l62.501-36.086a6 6 0 0 1 6 0m-7-1.732a8 8 0 0 1 8 0l62.498 36.086a7.99 7.99 0 0 1 4 6.928v72.171a7.99 7.99 0 0 1-4 6.928l-62.498 36.085a8 8 0 0 1-8 0l-62.501-36.085a8 8 0 0 1-4-6.928v-72.171a8 8 0 0 1 4-6.928zm216.558 37.818-62.5-36.086a6 6 0 0 0-6 0l-62.5 36.086a5.99 5.99 0 0 0-3 5.196v72.171a5.99 5.99 0 0 0 3 5.196l62.5 36.085a6 6 0 0 0 6 0l62.5-36.085a5.99 5.99 0 0 0 3-5.196v-72.171a5.99 5.99 0 0 0-3-5.196m-61.5-37.818a8 8 0 0 0-8 0l-62.5 36.086a8.01 8.01 0 0 0-4 6.928v72.171a8.01 8.01 0 0 0 4 6.928l62.5 36.085a8 8 0 0 0 8 0l62.5-36.085a7.99 7.99 0 0 0 4-6.928v-72.171a7.99 7.99 0 0 0-4-6.928zm146.06 1.732 62.5 36.086a5.99 5.99 0 0 1 3 5.196v72.171a5.99 5.99 0 0 1-3 5.196l-62.5 36.085a6 6 0 0 1-6 0l-62.5-36.085a5.99 5.99 0 0 1-3-5.196v-72.171a5.99 5.99 0 0 1 3-5.196l62.5-36.086a6 6 0 0 1 6 0m-7-1.732a8 8 0 0 1 8 0l62.5 36.086a7.99 7.99 0 0 1 4 6.928v72.171a7.99 7.99 0 0 1-4 6.928l-62.5 36.085a8 8 0 0 1-8 0l-62.5-36.085a8.01 8.01 0 0 1-4-6.928v-72.171a8.01 8.01 0 0 1 4-6.928z" clip-rule="evenodd"/>
  <path fill="url(#b)" fill-rule="evenodd" d="m502.622-66.196 62.502 36.085a6 6 0 0 1 3 5.196v72.171a6 6 0 0 1-3 5.196l-62.502 36.086a6 6 0 0 1-6 0L434.12 52.452a6 6 0 0 1-3-5.196v-72.17a6 6 0 0 1 3-5.197l62.502-36.085a6 6 0 0 1 6 0m-7-1.732a8 8 0 0 1 8 0l62.502 36.085a8 8 0 0 1 4 6.928v72.171a8 8 0 0 1-4 6.928L503.622 90.27a8 8 0 0 1-8 0L433.12 54.184a8 8 0 0 1-4-6.928v-72.17a8 8 0 0 1 4-6.929zM271.003-30.111l-62.501-36.085a6 6 0 0 0-6 0L140-30.111a6 6 0 0 0-3 5.196v72.171a6 6 0 0 0 3 5.196l62.502 36.086a6 6 0 0 0 6 0l62.501-36.086a6 6 0 0 0 3-5.196v-72.17a6 6 0 0 0-3-5.197m-61.501-37.817a8 8 0 0 0-8 0L139-31.843a8 8 0 0 0-4 6.928v72.171a8 8 0 0 0 4 6.928l62.502 36.086a8 8 0 0 0 8 0l62.501-36.086a8 8 0 0 0 4-6.928v-72.17c0-2.859-1.524-5.5-4-6.929zM344.533 97.254l-62.501-36.086a6 6 0 0 0-6 0L213.53 97.255a6 6 0 0 0-3 5.196v72.171a6 6 0 0 0 3 5.196l62.502 36.085a6 6 0 0 0 6 0l62.501-36.085a6 6 0 0 0 3-5.196V102.45a6 6 0 0 0-3-5.196m-61.501-37.818a8 8 0 0 0-8 0L212.53 95.522a8 8 0 0 0-4 6.928v72.171a8 8 0 0 0 4 6.928l62.502 36.085a8 8 0 0 0 8 0l62.501-36.085a8 8 0 0 0 4-6.928V102.45c0-2.858-1.524-5.5-4-6.928zm61.501 292.547-62.501-36.085a6 6 0 0 0-6 0l-62.502 36.085a6 6 0 0 0-3 5.196v72.171a6 6 0 0 0 3 5.196l62.502 36.085a6 6 0 0 0 6 0l62.501-36.085a6 6 0 0 0 3-5.196v-72.171a6 6 0 0 0-3-5.196m-61.501-37.817a8 8 0 0 0-8 0l-62.502 36.085a8 8 0 0 0-4 6.928v72.171a8 8 0 0 0 4 6.928l62.502 36.085a8 8 0 0 0 8 0l62.501-36.085a8 8 0 0 0 4-6.928v-72.171a8 8 0 0 0-4-6.928zm146.06 1.732 62.502 36.085a6 6 0 0 1 3 5.196v72.171a6 6 0 0 1-3 5.196l-62.502 36.085a6 6 0 0 1-6 0l-62.502-36.085a6 6 0 0 1-3-5.196v-72.171a6 6 0 0 1 3-5.196l62.502-36.085a6 6 0 0 1 6 0m-7-1.732a8 8 0 0 1 8 0l62.502 36.085a8 8 0 0 1 4 6.928v72.171a8 8 0 0 1-4 6.928l-62.502 36.085a8 8 0 0 1-8 0l-62.502-36.085a8 8 0 0 1-4-6.928v-72.171a8 8 0 0 1 4-6.928zM638.654 97.254l-62.502-36.086a6 6 0 0 0-6 0L507.65 97.255a6 6 0 0 0-3 5.196v72.171a6 6 0 0 0 3 5.196l62.502 36.085a6 6 0 0 0 6 0l62.502-36.085a6 6 0 0 0 3-5.196V102.45a6 6 0 0 0-3-5.196m-61.502-37.818a8 8 0 0 0-8 0L506.65 95.522a8 8 0 0 0-4 6.928v72.171a8 8 0 0 0 4 6.928l62.502 36.085a8 8 0 0 0 8 0l62.502-36.085a8 8 0 0 0 4-6.928V102.45a8 8 0 0 0-4-6.928zm293.12 1.733 62.502 36.085a6 6 0 0 1 3 5.196v72.171a6 6 0 0 1-3 5.196l-62.502 36.085a6 6 0 0 1-6 0l-62.501-36.085a6 6 0 0 1-3-5.196V102.45a6 6 0 0 1 3-5.196l62.501-36.086a6 6 0 0 1 6 0Zm-7-1.733a8 8 0 0 1 8 0l62.502 36.086a8 8 0 0 1 4 6.928v72.171a8 8 0 0 1-4 6.928l-62.502 36.085a8 8 0 0 1-8 0l-62.501-36.085a8 8 0 0 1-4-6.928V102.45a8 8 0 0 1 4-6.928zm363.618 37.818-62.5-36.086a6 6 0 0 0-6 0l-62.5 36.086a5.99 5.99 0 0 0-3 5.196v72.171a5.99 5.99 0 0 0 3 5.196l62.5 36.085a6 6 0 0 0 6 0l62.5-36.085a5.99 5.99 0 0 0 3-5.196V102.45a5.99 5.99 0 0 0-3-5.196m-61.5-37.818a8 8 0 0 0-8 0l-62.5 36.086a8.01 8.01 0 0 0-4 6.928v72.171a8.01 8.01 0 0 0 4 6.928l62.5 36.085a8 8 0 0 0 8 0l62.5-36.085a7.99 7.99 0 0 0 4-6.928V102.45a7.99 7.99 0 0 0-4-6.928zm-1 256.462 62.5 36.085a5.99 5.99 0 0 1 3 5.196v72.171a5.99 5.99 0 0 1-3 5.196l-62.5 36.085a6 6 0 0 1-6 0l-62.5-36.085a5.99 5.99 0 0 1-3-5.196v-72.171a5.99 5.99 0 0 1 3-5.196l62.5-36.085a6 6 0 0 1 6 0m-7-1.732a8 8 0 0 1 8 0l62.5 36.085a7.99 7.99 0 0 1 4 6.928v72.171a7.99 7.99 0 0 1-4 6.928l-62.5 36.085a8 8 0 0 1-8 0l-62.5-36.085a8.01 8.01 0 0 1-4-6.928v-72.171a8.01 8.01 0 0 1 4-6.928zm-592.266-89.548-62.502-36.085a6 6 0 0 0-6 0l-62.502 36.085a6 6 0 0 0-3 5.197v72.17a6 6 0 0 0 3 5.196l62.502 36.086a6 6 0 0 0 6 0l62.502-36.086a6 6 0 0 0 3-5.196v-72.17a6 6 0 0 0-3-5.197m-61.502-37.817a8 8 0 0 0-8 0l-62.502 36.085a8 8 0 0 0-4 6.929v72.17a8 8 0 0 0 4 6.928l62.502 36.086a8 8 0 0 0 8 0l62.502-36.086a8 8 0 0 0 4-6.928v-72.17a8 8 0 0 0-4-6.929zm146.06 1.732 62.502 36.085a6 6 0 0 1 3 5.197v72.17a6 6 0 0 1-3 5.196l-62.502 36.086a6 6 0 0 1-6 0l-62.501-36.086a6 6 0 0 1-3-5.196v-72.17a6 6 0 0 1 3-5.197l62.501-36.085a6 6 0 0 1 6 0m-7-1.732a8 8 0 0 1 8 0l62.502 36.085a8 8 0 0 1 4 6.929v72.17a8 8 0 0 1-4 6.928l-62.502 36.086a8 8 0 0 1-8 0l-62.501-36.086a8 8 0 0 1-4-6.928v-72.17c0-2.859 1.524-5.5 4-6.929zm216.562 37.817-62.502-36.085a6 6 0 0 0-6 0l-62.501 36.085a6 6 0 0 0-3 5.197v72.17a6 6 0 0 0 3 5.196l62.501 36.086a6 6 0 0 0 6 0l62.502-36.086a6 6 0 0 0 3-5.196v-72.17a6 6 0 0 0-3-5.197m-61.502-37.817a8 8 0 0 0-8 0l-62.501 36.085a8 8 0 0 0-4 6.929v72.17a8 8 0 0 0 4 6.928l62.501 36.086a8 8 0 0 0 8 0l62.502-36.086a8 8 0 0 0 4-6.928v-72.17a8 8 0 0 0-4-6.929zm146.06 1.732 62.498 36.085a6 6 0 0 1 3 5.197v72.17a5.99 5.99 0 0 1-3 5.196l-62.498 36.086a6 6 0 0 1-6 0l-62.501-36.086a6 6 0 0 1-3-5.196v-72.17a6 6 0 0 1 3-5.197l62.501-36.085a6 6 0 0 1 6 0m-7-1.732a8 8 0 0 1 8 0l62.498 36.085a7.99 7.99 0 0 1 4 6.929v72.17a7.99 7.99 0 0 1-4 6.928l-62.498 36.086a8 8 0 0 1-8 0l-62.501-36.086a8 8 0 0 1-4-6.928v-72.17a8 8 0 0 1 4-6.929zm216.558 37.817-62.5-36.085a6 6 0 0 0-6 0l-62.5 36.085a6 6 0 0 0-3 5.197v72.17a5.99 5.99 0 0 0 3 5.196l62.5 36.086a6 6 0 0 0 6 0l62.5-36.086a5.99 5.99 0 0 0 3-5.196v-72.17a6 6 0 0 0-3-5.197m-61.5-37.817a8 8 0 0 0-8 0l-62.5 36.085a8.01 8.01 0 0 0-4 6.929v72.17a8.01 8.01 0 0 0 4 6.928l62.5 36.086a8 8 0 0 0 8 0l62.5-36.086a7.99 7.99 0 0 0 4-6.928v-72.17a7.99 7.99 0 0 0-4-6.929zm146.06 1.732 62.5 36.085a6 6 0 0 1 3 5.197v72.17a5.99 5.99 0 0 1-3 5.196l-62.5 36.086a6 6 0 0 1-6 0l-62.5-36.086a5.99 5.99 0 0 1-3-5.196v-72.17a6 6 0 0 1 3-5.197l62.5-36.085a6 6 0 0 1 6 0m-7-1.732a8 8 0 0 1 8 0l62.5 36.085a7.99 7.99 0 0 1 4 6.929v72.17a7.99 7.99 0 0 1-4 6.928l-62.5 36.086a8 8 0 0 1-8 0l-62.5-36.086a8.01 8.01 0 0 1-4-6.928v-72.17c0-2.859 1.53-5.5 4-6.929zM859.244-30.111l-62.502-36.085a6 6 0 0 0-6 0l-62.501 36.085a6 6 0 0 0-3 5.196v72.171a6 6 0 0 0 3 5.196l62.501 36.086a6 6 0 0 0 6 0l62.502-36.086a6 6 0 0 0 3-5.196v-72.17a6 6 0 0 0-3-5.197m-61.502-37.817a8 8 0 0 0-8 0l-62.501 36.085a8 8 0 0 0-4 6.928v72.171c0 2.858 1.524 5.5 4 6.928l62.501 36.086a8 8 0 0 0 8 0l62.502-36.086a8 8 0 0 0 4-6.928v-72.17a8 8 0 0 0-4-6.929zm146.06 1.732 62.498 36.085a5.99 5.99 0 0 1 3 5.196v72.171a5.99 5.99 0 0 1-3 5.196l-62.498 36.086a6 6 0 0 1-6 0l-62.501-36.086a6 6 0 0 1-3-5.196v-72.17a6 6 0 0 1 3-5.197l62.501-36.085a6 6 0 0 1 6 0m-7-1.732a8 8 0 0 1 8 0l62.498 36.085a7.99 7.99 0 0 1 4 6.928v72.171a7.99 7.99 0 0 1-4 6.928L944.802 90.27a8 8 0 0 1-8 0l-62.501-36.086a8 8 0 0 1-4-6.928v-72.17a8 8 0 0 1 4-6.929zm216.558 37.817-62.5-36.085a6 6 0 0 0-6 0l-62.5 36.085a5.99 5.99 0 0 0-3 5.196v72.171a5.99 5.99 0 0 0 3 5.196l62.5 36.086a6 6 0 0 0 6 0l62.5-36.086a5.99 5.99 0 0 0 3-5.196v-72.17a5.99 5.99 0 0 0-3-5.197m-61.5-37.817a8 8 0 0 0-8 0l-62.5 36.085c-2.47 1.43-4 4.07-4 6.928v72.171a8.01 8.01 0 0 0 4 6.928l62.5 36.086a8 8 0 0 0 8 0l62.5-36.086a7.99 7.99 0 0 0 4-6.928v-72.17a7.99 7.99 0 0 0-4-6.929zm146.06 1.732 62.5 36.085a5.99 5.99 0 0 1 3 5.196v72.171a5.99 5.99 0 0 1-3 5.196l-62.5 36.086a6 6 0 0 1-6 0l-62.5-36.086a5.99 5.99 0 0 1-3-5.196v-72.17a5.99 5.99 0 0 1 3-5.197l62.5-36.085a6 6 0 0 1 6 0m-7-1.732a8 8 0 0 1 8 0l62.5 36.085a7.99 7.99 0 0 1 4 6.928v72.171a7.99 7.99 0 0 1-4 6.928l-62.5 36.086a8 8 0 0 1-8 0l-62.5-36.086a8.01 8.01 0 0 1-4-6.928v-72.17c0-2.859 1.53-5.5 4-6.929zM418.063 479.348l-62.501-36.086a6 6 0 0 0-6 0l-62.502 36.086a6 6 0 0 0-3 5.196v72.171a6 6 0 0 0 3 5.196l62.502 36.085a6 6 0 0 0 6 0l62.501-36.085a6 6 0 0 0 3-5.196v-72.171a6 6 0 0 0-3-5.196m-61.501-37.818a8 8 0 0 0-8 0l-62.502 36.086a8 8 0 0 0-4 6.928v72.171a8 8 0 0 0 4 6.928l62.502 36.085a8 8 0 0 0 8 0l62.501-36.085a8 8 0 0 0 4-6.928v-72.171a8 8 0 0 0-4-6.928zm-148.06 1.732 62.501 36.086a6 6 0 0 1 3 5.196v72.17a6 6 0 0 1-3 5.197l-62.501 36.085a6 6 0 0 1-6 0L140 561.911a6 6 0 0 1-3-5.196v-72.171a6 6 0 0 1 3-5.196l62.502-36.086a6 6 0 0 1 6 0m-7-1.732a8 8 0 0 1 8 0l62.501 36.086a8 8 0 0 1 4 6.928v72.17c0 2.859-1.524 5.5-4 6.929l-62.501 36.085a8 8 0 0 1-8 0L139 563.643a8 8 0 0 1-4-6.928v-72.171a8 8 0 0 1 4-6.928zm363.622 37.818-62.502-36.086a6 6 0 0 0-6 0l-62.502 36.086a6 6 0 0 0-3 5.196v72.171a6 6 0 0 0 3 5.196l62.502 36.085a6 6 0 0 0 6 0l62.502-36.085a6 6 0 0 0 3-5.196v-72.171a6 6 0 0 0-3-5.196m-61.502-37.818a8 8 0 0 0-8 0l-62.502 36.086a8 8 0 0 0-4 6.928v72.171a8 8 0 0 0 4 6.928l62.502 36.085a8 8 0 0 0 8 0l62.502-36.085a8 8 0 0 0 4-6.928v-72.171a8 8 0 0 0-4-6.928zm146.06 1.732 62.502 36.086a6 6 0 0 1 3 5.196v72.171a6 6 0 0 1-3 5.196l-62.502 36.085a6 6 0 0 1-6 0l-62.501-36.085a6 6 0 0 1-3-5.196v-72.171a6 6 0 0 1 3-5.196l62.501-36.086a6 6 0 0 1 6 0m-7-1.732a8 8 0 0 1 8 0l62.502 36.086a8 8 0 0 1 4 6.928v72.171a8 8 0 0 1-4 6.928l-62.502 36.085a8 8 0 0 1-8 0l-62.501-36.085a8 8 0 0 1-4-6.928v-72.171a8 8 0 0 1 4-6.928zm216.562 37.818-62.502-36.086a6 6 0 0 0-6 0l-62.501 36.086a6 6 0 0 0-3 5.196v72.171a6 6 0 0 0 3 5.196l62.501 36.085a6 6 0 0 0 6 0l62.502-36.085a6 6 0 0 0 3-5.196v-72.171a6 6 0 0 0-3-5.196m-61.502-37.818a8 8 0 0 0-8 0l-62.501 36.086a8 8 0 0 0-4 6.928v72.171a8 8 0 0 0 4 6.928l62.501 36.085a8 8 0 0 0 8 0l62.502-36.085a8 8 0 0 0 4-6.928v-72.171a8 8 0 0 0-4-6.928zm146.06 1.732 62.498 36.086a5.99 5.99 0 0 1 3 5.196v72.171a5.99 5.99 0 0 1-3 5.196l-62.498 36.085a6 6 0 0 1-6 0l-62.501-36.085a6 6 0 0 1-3-5.196v-72.171a6 6 0 0 1 3-5.196l62.501-36.086a6 6 0 0 1 6 0m-7-1.732a8 8 0 0 1 8 0l62.498 36.086a7.99 7.99 0 0 1 4 6.928v72.171a7.99 7.99 0 0 1-4 6.928l-62.498 36.085a8 8 0 0 1-8 0l-62.501-36.085a8 8 0 0 1-4-6.928v-72.171a8 8 0 0 1 4-6.928zm216.558 37.818-62.5-36.086a6 6 0 0 0-6 0l-62.5 36.086a5.99 5.99 0 0 0-3 5.196v72.171a5.99 5.99 0 0 0 3 5.196l62.5 36.085a6 6 0 0 0 6 0l62.5-36.085a5.99 5.99 0 0 0 3-5.196v-72.171a5.99 5.99 0 0 0-3-5.196m-61.5-37.818a8 8 0 0 0-8 0l-62.5 36.086a8.01 8.01 0 0 0-4 6.928v72.171a8.01 8.01 0 0 0 4 6.928l62.5 36.085a8 8 0 0 0 8 0l62.5-36.085a7.99 7.99 0 0 0 4-6.928v-72.171a7.99 7.99 0 0 0-4-6.928zm146.06 1.732 62.5 36.086a5.99 5.99 0 0 1 3 5.196v72.171a5.99 5.99 0 0 1-3 5.196l-62.5 36.085a6 6 0 0 1-6 0l-62.5-36.085a5.99 5.99 0 0 1-3-5.196v-72.171a5.99 5.99 0 0 1 3-5.196l62.5-36.086a6 6 0 0 1 6 0m-7-1.732a8 8 0 0 1 8 0l62.5 36.086a7.99 7.99 0 0 1 4 6.928v72.171a7.99 7.99 0 0 1-4 6.928l-62.5 36.085a8 8 0 0 1-8 0l-62.5-36.085a8.01 8.01 0 0 1-4-6.928v-72.171a8.01 8.01 0 0 1 4-6.928z" clip-rule="evenodd"/>
  <path stroke="url(#c)" stroke-width="2" d="M275.532 60.302a7 7 0 0 1 7 0l62.501 36.086a7 7 0 0 1 3.5 6.062v72.171c0 2.5-1.334 4.811-3.5 6.062l-62.501 36.085a7 7 0 0 1-7 0l-62.502-36.085a7 7 0 0 1-3.5-6.062V102.45a7 7 0 0 1 3.5-6.062z"/>
  <defs>
    <radialGradient id="a" cx="0" cy="0" r="1" gradientTransform="matrix(450.00013 140.99993 -113.11676 361.01123 332 114)" gradientUnits="userSpaceOnUse">
      <stop stop-color="#17D4A7" stop-opacity=".3"/>
      <stop offset="1" stop-color="#17D4A7" stop-opacity="0"/>
    </radialGradient>
    <radialGradient id="b" cx="0" cy="0" r="1" gradientTransform="rotate(-142.214 544.381 28.738)scale(225.229 251.849)" gradientUnits="userSpaceOnUse">
      <stop stop-color="#17D4A7" stop-opacity=".5"/>
      <stop offset="1" stop-color="#17D4A7" stop-opacity="0"/>
    </radialGradient>
    <radialGradient id="c" cx="0" cy="0" r="1" gradientTransform="matrix(108 86.00006 -86.00006 108 235 96)" gradientUnits="userSpaceOnUse">
      <stop stop-color="#17D4A7"/>
      <stop offset="1" stop-color="#17D4A7" stop-opacity="0"/>
    </radialGradient>
  </defs>
</svg>
