<svg xmlns="http://www.w3.org/2000/svg" width="1150" height="559" fill="none">
  <g opacity=".64" style="mix-blend-mode:overlay">
    <path fill="#17233A" d="m459.5 124 2.055 7.443a17.2 17.2 0 0 0 12.002 12.002L481 145.5l-7.443 2.055a17.2 17.2 0 0 0-12.002 12.002L459.5 167l-2.055-7.443a17.2 17.2 0 0 0-12.002-12.002L438 145.5l7.443-2.055a17.2 17.2 0 0 0 12.002-12.002zm0 275 2.055 7.443a17.2 17.2 0 0 0 12.002 12.002L481 420.5l-7.443 2.055a17.2 17.2 0 0 0-12.002 12.002L459.5 442l-2.055-7.443a17.2 17.2 0 0 0-12.002-12.002L438 420.5l7.443-2.055a17.2 17.2 0 0 0 12.002-12.002zm-116 0 2.055 7.443a17.2 17.2 0 0 0 12.002 12.002L365 420.5l-7.443 2.055a17.2 17.2 0 0 0-12.002 12.002L343.5 442l-2.055-7.443a17.2 17.2 0 0 0-12.002-12.002L322 420.5l7.443-2.055a17.2 17.2 0 0 0 12.002-12.002z"/>
    <circle cx="13.5" cy="261.5" r="13.5" fill="#17233A"/>
    <circle cx="321.5" cy="311.5" r="13.5" fill="#17233A"/>
    <circle cx="782.5" cy="385.5" r="13.5" fill="#17233A"/>
    <circle cx="965.5" cy="180.5" r="13.5" fill="#17233A"/>
    <path stroke="#17233A" stroke-width="1.5" d="M330.75 525.75h25.5v25.5h-25.5zm-160-393h25.5v25.5h-25.5z"/>
    <path stroke="#17233A" d="M13.5 261H217c70.14 0 127 56.86 127 127v150"/>
    <circle cx="874" cy="283" r="137.5" stroke="#17233A"/>
    <circle cx="874" cy="283" r="275.5" stroke="#17233A"/>
    <path stroke="#17233A" d="M460-130c0 151.878-123.569 275-276 275m276-275c0 151.878 123.569 275 276 275m-551.5.5h275v275h-275zm276 0h275v275h-275zm276 0h275v275h-275z"/>
  </g>
</svg>
