<svg xmlns="http://www.w3.org/2000/svg" width="58" height="60" fill="none">
  <path fill="#17D4A7" stroke="#69E7C8" stroke-linecap="round" stroke-linejoin="round" stroke-width="2.4" d="M26.4 2.586a4.8 4.8 0 0 1 4.8 0l20.142 11.628a4.8 4.8 0 0 1 2.4 4.157V41.63a4.8 4.8 0 0 1-2.4 4.157L31.2 57.414a4.8 4.8 0 0 1-4.8 0L6.258 45.786a4.8 4.8 0 0 1-2.4-4.157V18.37a4.8 4.8 0 0 1 2.4-4.157z"/>
  <path fill="url(#a)" stroke="#69E7C8" stroke-linecap="round" stroke-linejoin="round" stroke-width="2.4" d="M26.4 9.786a4.8 4.8 0 0 1 4.8 0l13.906 8.028a4.8 4.8 0 0 1 2.4 4.157V38.03a4.8 4.8 0 0 1-2.4 4.157L31.2 50.214a4.8 4.8 0 0 1-4.8 0l-13.906-8.028a4.8 4.8 0 0 1-2.4-4.157V21.97a4.8 4.8 0 0 1 2.4-4.157z"/>
  <g clip-path="url(#b)">
    <path fill="#fff" stroke="#17233A" stroke-linecap="round" stroke-linejoin="round" stroke-width="2.4" d="M42.48 14.88h-26.4a3.6 3.6 0 0 0-3.6 3.6v23.04a3.6 3.6 0 0 0 3.6 3.6h26.4a3.6 3.6 0 0 0 3.6-3.6V18.48a3.6 3.6 0 0 0-3.6-3.6"/>
  </g>
  <path stroke="#17233A" stroke-linecap="round" stroke-linejoin="round" stroke-width="2.4" d="M12.6 20.4h33"/>
  <path fill="#17233A" d="M23.268 38.4q-1.29 0-2.28-.347a4.3 4.3 0 0 1-1.644-1.022q-.672-.694-1.008-1.716T18 32.94v-6.554q0-.603.283-.895.3-.292.848-.292.549 0 .831.292.3.292.3.895v6.536q0 1.734.761 2.61.778.86 2.245.859 1.468 0 2.228-.858.76-.877.76-2.611v-6.536q0-.603.283-.895.3-.292.848-.292.53 0 .814.292.3.292.3.895v6.554q0 1.79-.601 3.012a3.96 3.96 0 0 1-1.75 1.844q-1.166.603-2.882.603m8.158-.035q-.442 0-.724-.238-.283-.255-.336-.62-.036-.384.247-.767l4.049-5.569v1.004l-3.854-5.33q-.283-.403-.248-.768a.88.88 0 0 1 .318-.62q.284-.256.707-.256.354 0 .62.183.282.165.565.566l3.182 4.527h-.725l3.165-4.527q.282-.402.548-.566a1.2 1.2 0 0 1 .654-.183q.442 0 .725.237a.88.88 0 0 1 .318.621q.035.366-.265.785l-3.854 5.331V31.17l4.03 5.569q.285.382.248.766a.94.94 0 0 1-.318.621q-.283.237-.743.238-.336 0-.618-.183-.266-.183-.566-.584l-3.36-4.747h.779l-3.341 4.747q-.284.4-.566.584t-.637.183"/>
  <defs>
    <radialGradient id="a" cx="0" cy="0" r="1" gradientTransform="rotate(59.381 -4.828 20.88)scale(34.1631)" gradientUnits="userSpaceOnUse">
      <stop stop-color="#fff" stop-opacity=".89"/>
      <stop offset="1" stop-color="#fff" stop-opacity="0"/>
    </radialGradient>
    <clipPath id="b">
      <path fill="#fff" d="M10.8 13.2h36.96v33.6H10.8z"/>
    </clipPath>
  </defs>
</svg>
