<?xml version="1.0" encoding="utf-8"?>
<svg version="1.1" id="Layer_1" xmlns="http://www.w3.org/2000/svg" xmlns:xlink="http://www.w3.org/1999/xlink" x="0px" y="0px"
	 viewBox="0 0 130 32" style="enable-background:new 0 0 130 32;" xml:space="preserve">
<style type="text/css">
	.st0{clip-path:url(#SVGID_2_);}
	.st1{fill:#17D4A7;}
	.st2{fill:#FFFFFF;}
</style>
<g>
	<defs>
		<rect id="SVGID_1_" y="3" width="128.4" height="26"/>
	</defs>
	<clipPath id="SVGID_2_">
		<use xlink:href="#SVGID_1_"  style="overflow:visible;"/>
	</clipPath>
	<g class="st0">
		<path class="st1" d="M10.354,9.081c0.263-0.334,0.603-0.599,0.991-0.773c0.388-0.174,0.812-0.252,1.236-0.227
			c0.424,0.025,0.836,0.153,1.201,0.371c0.364,0.219,0.67,0.522,0.892,0.885c2.775-0.841,5.652-1.295,8.551-1.349
			c-1.175-1.505-2.667-2.732-4.371-3.593c-1.704-0.862-3.576-1.336-5.485-1.391c-1.908-0.054-3.805,0.313-5.555,1.076
			c-1.75,0.763-3.31,1.903-4.568,3.339C5.669,7.714,8.053,8.271,10.354,9.081z"/>
		<path class="st1" d="M24.001,9.084l-0.764,0.019c-2.792,0.055-5.563,0.493-8.235,1.3c0.003,0.053,0.003,0.106,0,0.159
			c0,0.6-0.222,1.179-0.624,1.625c0.859,1.189,1.654,2.422,2.382,3.695c0.319,0.557,0.613,1.105,0.884,1.645h0.133
			c0.349-0.003,0.689,0.102,0.975,0.302c2.191-1.866,4.134-4.371,5.83-7.517l0.052-0.094"/>
		<path class="st1" d="M13.474,12.835c-0.331,0.142-0.687,0.215-1.047,0.215c-0.367,0.002-0.73-0.074-1.066-0.222
			c-0.336-0.148-0.637-0.365-0.884-0.636c-3.276,1.658-6.701,4.284-9.022,8.45c1.579,0.6,3.232,0.982,4.914,1.134
			c0.132-0.261,0.334-0.481,0.584-0.633c0.25-0.152,0.537-0.232,0.83-0.229c0.293,0.003,0.579,0.087,0.826,0.244
			c0.247,0.157,0.445,0.38,0.572,0.644h0.14c2.449-0.187,4.822-0.936,6.935-2.187c-0.064-0.166-0.097-0.342-0.097-0.52
			c0-0.207,0.043-0.411,0.124-0.601c0.082-0.19,0.201-0.361,0.35-0.504C15.715,16.192,14.659,14.469,13.474,12.835z"/>
		<path class="st1" d="M18.866,27.463c0.28-2.216-0.221-4.583-1.059-6.825h-0.019c-0.284,0-0.564-0.073-0.813-0.211
			c-2.308,1.418-4.921,2.264-7.621,2.467h-0.14c-0.119,0.289-0.321,0.536-0.581,0.708c-0.26,0.173-0.566,0.264-0.878,0.261
			s-0.617-0.099-0.874-0.276c-0.257-0.177-0.455-0.428-0.569-0.719c-1.688-0.14-3.349-0.505-4.94-1.085
			c0.765,1.531,1.824,2.895,3.117,4.016c1.293,1.121,2.794,1.975,4.418,2.514c1.624,0.539,3.338,0.752,5.044,0.627
			c1.706-0.125,3.371-0.585,4.899-1.355L18.866,27.463z"/>
		<path class="st1" d="M25.191,11.493c-1.502,2.729-3.472,5.172-5.821,7.218c0.033,0.122,0.049,0.248,0.049,0.374
			c-0.001,0.226-0.052,0.448-0.149,0.652s-0.236,0.384-0.41,0.528c0.907,2.418,1.3,4.644,1.173,6.659
			c2.49-1.599,4.359-4,5.297-6.807C26.268,17.31,26.219,14.267,25.191,11.493z"/>
		<path class="st1" d="M9.932,11.213c-0.103-0.361-0.119-0.74-0.046-1.108C7.473,9.264,4.97,8.708,2.428,8.447
			c-1.172,1.636-1.948,3.522-2.265,5.509c-0.318,1.987-0.168,4.021,0.435,5.941C2.704,16.215,5.866,13.27,9.932,11.213z"/>
		<path class="st2" d="M44.139,15.579v5.635c-0.222,0.267-0.563,0.557-1.026,0.869c-0.462,0.306-1.058,0.57-1.787,0.791
			c-0.729,0.221-1.611,0.332-2.646,0.332c-0.918,0-1.755-0.15-2.51-0.449c-0.755-0.306-1.406-0.752-1.953-1.338
			c-0.54-0.586-0.957-1.302-1.25-2.149c-0.293-0.853-0.439-1.826-0.439-2.92v-0.889c0-1.094,0.14-2.067,0.42-2.92
			c0.286-0.853,0.693-1.572,1.221-2.158c0.527-0.586,1.156-1.032,1.885-1.338c0.729-0.306,1.54-0.459,2.432-0.459
			c1.237,0,2.253,0.202,3.047,0.605c0.794,0.397,1.4,0.951,1.816,1.66c0.423,0.703,0.684,1.51,0.781,2.422h-2.842
			c-0.072-0.482-0.208-0.902-0.41-1.26c-0.202-0.358-0.491-0.638-0.869-0.84c-0.371-0.202-0.853-0.303-1.446-0.303
			c-0.488,0-0.924,0.101-1.309,0.303c-0.378,0.195-0.697,0.485-0.957,0.869c-0.26,0.384-0.459,0.859-0.596,1.426
			c-0.137,0.566-0.205,1.224-0.205,1.973v0.908c0,0.742,0.072,1.4,0.215,1.973c0.143,0.566,0.355,1.045,0.635,1.436
			c0.286,0.384,0.638,0.674,1.055,0.869c0.417,0.195,0.902,0.293,1.455,0.293c0.462,0,0.846-0.039,1.153-0.117
			c0.312-0.078,0.563-0.172,0.752-0.283c0.196-0.117,0.345-0.228,0.449-0.332v-2.519h-2.676v-2.09H44.139z M49.295,8.011v15h-2.822
			v-15H49.295z M51.171,17.835V17.63c0-0.775,0.11-1.488,0.332-2.139c0.221-0.658,0.544-1.227,0.967-1.709
			c0.423-0.482,0.944-0.856,1.562-1.123c0.618-0.273,1.328-0.41,2.129-0.41s1.514,0.137,2.139,0.41
			c0.625,0.267,1.149,0.641,1.572,1.123c0.43,0.482,0.755,1.052,0.976,1.709c0.222,0.651,0.332,1.364,0.332,2.139v0.205
			c0,0.768-0.11,1.481-0.332,2.139c-0.221,0.651-0.547,1.221-0.976,1.709c-0.423,0.482-0.944,0.856-1.563,1.123
			c-0.618,0.267-1.328,0.4-2.129,0.4s-1.514-0.133-2.138-0.4c-0.619-0.267-1.143-0.641-1.572-1.123
			c-0.423-0.488-0.746-1.058-0.967-1.709C51.281,19.316,51.171,18.603,51.171,17.835z M53.983,17.63v0.205
			c0,0.443,0.039,0.856,0.117,1.24c0.078,0.384,0.202,0.723,0.371,1.016c0.176,0.287,0.404,0.511,0.684,0.674
			c0.28,0.163,0.622,0.244,1.025,0.244c0.391,0,0.726-0.081,1.006-0.244c0.28-0.163,0.504-0.387,0.674-0.674
			c0.17-0.293,0.293-0.631,0.371-1.016c0.085-0.384,0.127-0.798,0.127-1.24V17.63c0-0.43-0.042-0.833-0.127-1.211
			c-0.078-0.384-0.205-0.723-0.381-1.016c-0.169-0.3-0.394-0.534-0.674-0.703c-0.28-0.169-0.618-0.254-1.016-0.254
			c-0.397,0-0.736,0.085-1.016,0.254c-0.273,0.169-0.498,0.404-0.674,0.703c-0.169,0.293-0.293,0.631-0.371,1.016
			C54.022,16.796,53.983,17.2,53.983,17.63z M62.909,8.011h2.813v12.578l-0.283,2.422h-2.53V8.011z M72.41,17.62v0.205
			c0,0.788-0.084,1.51-0.254,2.168c-0.163,0.657-0.417,1.227-0.762,1.709c-0.345,0.475-0.775,0.846-1.289,1.113
			c-0.508,0.26-1.107,0.391-1.797,0.391c-0.644,0-1.204-0.13-1.68-0.391c-0.469-0.26-0.862-0.628-1.182-1.104
			c-0.319-0.475-0.576-1.032-0.772-1.67c-0.195-0.638-0.342-1.335-0.439-2.09v-0.449c0.097-0.755,0.244-1.452,0.439-2.09
			c0.196-0.638,0.453-1.195,0.772-1.67c0.319-0.475,0.713-0.843,1.182-1.104c0.469-0.26,1.022-0.391,1.66-0.391
			c0.696,0,1.302,0.133,1.816,0.4c0.521,0.26,0.95,0.631,1.289,1.113c0.345,0.475,0.599,1.042,0.762,1.699
			C72.326,16.113,72.41,16.832,72.41,17.62z M69.598,17.825V17.62c0-0.43-0.032-0.833-0.097-1.211
			c-0.059-0.384-0.163-0.719-0.312-1.006c-0.15-0.293-0.355-0.524-0.615-0.693c-0.254-0.169-0.583-0.254-0.986-0.254
			c-0.384,0-0.71,0.065-0.977,0.195c-0.267,0.13-0.488,0.313-0.664,0.547c-0.169,0.234-0.296,0.514-0.381,0.84
			c-0.084,0.319-0.137,0.671-0.156,1.055v1.279c0.02,0.514,0.104,0.97,0.254,1.367c0.156,0.391,0.391,0.7,0.703,0.928
			c0.319,0.221,0.732,0.332,1.24,0.332c0.397,0,0.725-0.078,0.986-0.234c0.261-0.156,0.462-0.378,0.606-0.664
			c0.15-0.287,0.254-0.622,0.312-1.006C69.569,18.704,69.598,18.281,69.598,17.825z M79.862,20.628v-4.707
			c0-0.339-0.055-0.628-0.166-0.869c-0.11-0.247-0.283-0.44-0.518-0.576c-0.228-0.137-0.524-0.205-0.888-0.205
			c-0.313,0-0.583,0.055-0.811,0.166c-0.228,0.104-0.404,0.257-0.527,0.459c-0.124,0.195-0.186,0.427-0.186,0.693h-2.812
			c0-0.449,0.104-0.876,0.312-1.279c0.208-0.404,0.511-0.758,0.909-1.064c0.397-0.312,0.869-0.557,1.416-0.732
			c0.553-0.176,1.172-0.264,1.855-0.264c0.82,0,1.55,0.137,2.188,0.41c0.638,0.273,1.139,0.684,1.504,1.23
			c0.371,0.547,0.556,1.231,0.556,2.051v4.522c0,0.58,0.036,1.055,0.108,1.426c0.072,0.365,0.176,0.684,0.312,0.957v0.166h-2.842
			c-0.137-0.286-0.241-0.645-0.313-1.074C79.895,21.5,79.862,21.064,79.862,20.628z M80.233,16.575l0.02,1.592H78.68
			c-0.371,0-0.693,0.042-0.967,0.127c-0.273,0.085-0.498,0.205-0.674,0.361c-0.176,0.15-0.306,0.326-0.391,0.527
			c-0.078,0.202-0.117,0.423-0.117,0.664s0.055,0.459,0.166,0.654c0.111,0.189,0.27,0.339,0.478,0.449
			c0.208,0.104,0.453,0.156,0.732,0.156c0.423,0,0.791-0.085,1.104-0.254c0.313-0.169,0.554-0.378,0.723-0.625
			c0.176-0.247,0.267-0.482,0.273-0.703l0.742,1.191c-0.104,0.267-0.248,0.544-0.43,0.83c-0.176,0.286-0.4,0.557-0.674,0.81
			c-0.273,0.247-0.602,0.453-0.986,0.615c-0.384,0.156-0.84,0.234-1.367,0.234c-0.67,0-1.279-0.133-1.826-0.4
			c-0.54-0.274-0.97-0.648-1.289-1.123c-0.312-0.482-0.469-1.029-0.469-1.641c0-0.553,0.104-1.045,0.313-1.475
			c0.208-0.43,0.514-0.791,0.918-1.084c0.41-0.299,0.921-0.524,1.533-0.674c0.612-0.156,1.322-0.234,2.129-0.234H80.233z
			 M87.83,8.011v15h-2.822v-15H87.83z M92.967,14.475v12.598h-2.813V12.444h2.607L92.967,14.475z M99.657,17.61v0.205
			c0,0.768-0.091,1.481-0.274,2.139c-0.176,0.658-0.436,1.231-0.781,1.719c-0.345,0.482-0.775,0.859-1.289,1.133
			c-0.508,0.267-1.094,0.4-1.758,0.4c-0.645,0-1.204-0.13-1.68-0.391C93.4,22.555,93,22.19,92.674,21.722
			c-0.319-0.475-0.576-1.025-0.771-1.65s-0.345-1.296-0.449-2.012v-0.537c0.104-0.768,0.254-1.471,0.449-2.109
			c0.195-0.644,0.452-1.201,0.771-1.67c0.325-0.475,0.722-0.843,1.191-1.104c0.475-0.26,1.032-0.391,1.67-0.391
			c0.67,0,1.259,0.127,1.768,0.381c0.514,0.254,0.944,0.619,1.289,1.094c0.352,0.475,0.616,1.042,0.791,1.699
			C99.566,16.08,99.657,16.809,99.657,17.61z M96.834,17.815V17.61c0-0.449-0.039-0.863-0.117-1.24
			c-0.072-0.384-0.189-0.719-0.352-1.006c-0.156-0.287-0.364-0.508-0.625-0.664c-0.254-0.163-0.563-0.244-0.928-0.244
			c-0.384,0-0.713,0.062-0.986,0.186c-0.267,0.124-0.485,0.303-0.654,0.537c-0.17,0.234-0.296,0.514-0.381,0.84
			c-0.085,0.325-0.137,0.693-0.156,1.103v1.357c0.032,0.482,0.123,0.915,0.273,1.299c0.15,0.378,0.381,0.677,0.694,0.899
			c0.312,0.221,0.723,0.332,1.23,0.332c0.371,0,0.684-0.081,0.938-0.244c0.254-0.169,0.459-0.4,0.615-0.693
			c0.163-0.293,0.277-0.632,0.342-1.016C96.799,18.671,96.834,18.258,96.834,17.815z M104.374,12.444v10.566h-2.823V12.444H104.374z
			 M101.375,9.69c0-0.41,0.144-0.749,0.43-1.016c0.287-0.267,0.671-0.4,1.153-0.4c0.475,0,0.856,0.133,1.142,0.4
			c0.293,0.267,0.44,0.605,0.44,1.016s-0.147,0.749-0.44,1.016c-0.286,0.267-0.667,0.4-1.142,0.4c-0.482,0-0.866-0.133-1.153-0.4
			C101.519,10.439,101.375,10.1,101.375,9.69z M109.452,14.7v8.311h-2.813V12.444h2.637L109.452,14.7z M109.042,17.356h-0.762
			c0-0.781,0.1-1.484,0.302-2.109c0.202-0.631,0.486-1.169,0.85-1.611c0.365-0.449,0.798-0.791,1.299-1.025
			c0.508-0.241,1.074-0.361,1.699-0.361c0.495,0,0.947,0.072,1.358,0.215c0.41,0.143,0.761,0.371,1.054,0.684
			c0.3,0.313,0.528,0.726,0.684,1.24c0.162,0.514,0.244,1.143,0.244,1.885v6.738h-2.832v-6.748c0-0.469-0.065-0.833-0.196-1.094
			c-0.13-0.26-0.322-0.443-0.576-0.547c-0.247-0.111-0.553-0.166-0.918-0.166c-0.377,0-0.706,0.075-0.986,0.225
			c-0.273,0.15-0.501,0.358-0.684,0.625c-0.175,0.26-0.309,0.566-0.4,0.918C109.087,16.575,109.042,16.953,109.042,17.356z
			 M124.598,12.444h2.549v10.215c0,0.963-0.215,1.781-0.645,2.451c-0.423,0.677-1.015,1.188-1.777,1.533
			c-0.762,0.351-1.647,0.527-2.656,0.527c-0.443,0-0.912-0.059-1.407-0.176c-0.488-0.117-0.956-0.299-1.406-0.547
			c-0.442-0.247-0.814-0.56-1.113-0.937l1.24-1.66c0.326,0.378,0.703,0.671,1.133,0.879c0.43,0.215,0.905,0.322,1.426,0.322
			c0.508,0,0.937-0.094,1.289-0.283c0.351-0.182,0.622-0.452,0.811-0.811c0.188-0.352,0.283-0.778,0.283-1.279v-7.793
			L124.598,12.444z M117.489,17.854v-0.205c0-0.807,0.097-1.54,0.293-2.197c0.202-0.664,0.485-1.234,0.849-1.709
			c0.371-0.475,0.821-0.843,1.348-1.104c0.527-0.26,1.123-0.391,1.787-0.391c0.703,0,1.292,0.13,1.768,0.391
			c0.475,0.26,0.866,0.632,1.172,1.113c0.306,0.475,0.543,1.038,0.712,1.689c0.176,0.645,0.313,1.351,0.41,2.119v0.449
			c-0.097,0.736-0.244,1.419-0.439,2.051s-0.453,1.185-0.771,1.66c-0.32,0.469-0.716,0.833-1.192,1.094
			c-0.468,0.26-1.028,0.391-1.68,0.391c-0.65,0-1.24-0.133-1.767-0.4c-0.521-0.267-0.967-0.641-1.338-1.123
			s-0.657-1.048-0.859-1.699C117.586,19.332,117.489,18.623,117.489,17.854z M120.301,17.649v0.205c0,0.436,0.043,0.843,0.127,1.221
			c0.085,0.378,0.215,0.713,0.391,1.006c0.182,0.287,0.407,0.511,0.673,0.674c0.274,0.156,0.596,0.234,0.967,0.234
			c0.515,0,0.935-0.108,1.26-0.322c0.326-0.221,0.57-0.524,0.733-0.908c0.162-0.384,0.257-0.827,0.283-1.328v-1.279
			c-0.013-0.41-0.069-0.778-0.166-1.104c-0.098-0.332-0.235-0.615-0.411-0.85c-0.175-0.234-0.403-0.417-0.683-0.547
			c-0.28-0.13-0.612-0.195-0.996-0.195c-0.371,0-0.693,0.085-0.967,0.254c-0.267,0.163-0.492,0.387-0.674,0.674
			c-0.176,0.286-0.309,0.625-0.4,1.016C120.347,16.783,120.301,17.2,120.301,17.649z"/>
	</g>
</g>
</svg>
