<svg width="24" height="25" viewBox="0 0 24 25" fill="none" xmlns="http://www.w3.org/2000/svg">
<circle cx="12" cy="12.5" r="10.25" stroke="#17D4A7" stroke-width="1.5"/>
<circle cx="11.5417" cy="8.37443" r="2.29167" fill="#17D4A7"/>
<path d="M3.75 7.04372C5.125 6.89458 8.7 7.04372 12 8.83333" stroke="#17D4A7" stroke-width="1.5"/>
<path d="M2.44342 14.9367C4.24331 12.4108 9.24961 6.54142 20.2496 6.99977" stroke="#17D4A7" stroke-width="1.5"/>
<path d="M11.542 8.37524C12.6717 8.91154 15.3477 11.8506 17.042 14.7919" stroke="#17D4A7" stroke-width="1.5"/>
<path d="M17.0419 14.7916C15.2087 16.6246 11.542 19.3755 2.83363 15.7091" stroke="#17D4A7" stroke-width="1.5"/>
<path d="M17.2598 15.2533C17.7199 15.9783 18.1993 18.6653 18.1075 20.9944" stroke="#17D4A7" stroke-width="1.5"/>
<path d="M20.8475 6.9495C20.9049 8.13485 19.4506 11.6543 17.5002 14.3434" stroke="#17D4A7" stroke-width="1.5"/>
<circle cx="8.79199" cy="17.5422" r="1.375" fill="#17D4A7"/>
<circle cx="17.25" cy="14.75" r="1.75" fill="#17D4A7"/>
</svg>
