<svg xmlns="http://www.w3.org/2000/svg" xmlns:xlink="http://www.w3.org/1999/xlink" xml:space="preserve" id="Layer_1" x="0" y="0" version="1.1" viewBox="0 0 130 32">
  <style>
    .st1{fill:#17d4a7}
  </style>
  <defs>
    <path id="SVGID_1_" d="M0 3h128.4v26H0z"/>
  </defs>
  <clipPath id="SVGID_2_">
    <use xlink:href="#SVGID_1_" style="overflow:visible"/>
  </clipPath>
  <g style="clip-path:url(#SVGID_2_)">
    <path d="M10.354 9.081a2.63 2.63 0 0 1 2.227-1 2.64 2.64 0 0 1 2.093 1.256 31.5 31.5 0 0 1 8.551-1.349 12.975 12.975 0 0 0-19.979-.569 33.7 33.7 0 0 1 7.108 1.662m13.647.003-.764.019a30.6 30.6 0 0 0-8.235 1.3q.005.08 0 .159c0 .6-.222 1.179-.624 1.625a41 41 0 0 1 2.382 3.695q.478.835.884 1.645h.133c.349-.003.689.102.975.302q3.286-2.799 5.83-7.517l.052-.094m-11.16 2.617a2.66 2.66 0 0 1-2.113-.007 2.6 2.6 0 0 1-.884-.636c-3.276 1.658-6.701 4.284-9.022 8.45 1.579.6 3.232.982 4.914 1.134a1.57 1.57 0 0 1 2.24-.618c.247.157.445.38.572.644h.14a16 16 0 0 0 6.935-2.187 1.5 1.5 0 0 1-.097-.52 1.53 1.53 0 0 1 .474-1.105 39 39 0 0 0-3.159-5.155" class="st1"/>
    <path d="M18.866 27.463c.28-2.216-.221-4.583-1.059-6.825h-.019c-.284 0-.564-.073-.813-.211a17 17 0 0 1-7.621 2.467h-.14a1.56 1.56 0 0 1-1.459.969 1.57 1.57 0 0 1-1.443-.995 19 19 0 0 1-4.94-1.085 13 13 0 0 0 7.535 6.53 13 13 0 0 0 9.943-.728zm6.325-15.97a26.6 26.6 0 0 1-5.821 7.218q.05.184.049.374a1.54 1.54 0 0 1-.559 1.18c.907 2.418 1.3 4.644 1.173 6.659a12.98 12.98 0 0 0 5.158-15.431m-15.259-.28a2.36 2.36 0 0 1-.046-1.108 33 33 0 0 0-7.458-1.658 12.97 12.97 0 0 0-1.83 11.45c2.106-3.682 5.268-6.627 9.334-8.684" class="st1"/>
    <path d="M44.139 15.579v5.635q-.332.4-1.026.869-.693.46-1.787.791-1.093.332-2.646.332-1.377 0-2.51-.449a5.4 5.4 0 0 1-1.953-1.338q-.81-.879-1.25-2.149-.44-1.28-.439-2.92v-.889q0-1.64.42-2.92.429-1.28 1.221-2.158a5.2 5.2 0 0 1 1.885-1.338q1.094-.459 2.432-.459 1.856 0 3.047.605 1.191.596 1.816 1.66.635 1.054.781 2.422h-2.842a3.6 3.6 0 0 0-.41-1.26 2.1 2.1 0 0 0-.869-.84q-.557-.303-1.446-.303-.732 0-1.309.303a2.6 2.6 0 0 0-.957.869q-.39.576-.596 1.426t-.205 1.973v.908q0 1.113.215 1.973.215.85.635 1.436a2.76 2.76 0 0 0 1.055.869q.626.293 1.455.293.693 0 1.153-.117.468-.117.752-.283a2.3 2.3 0 0 0 .449-.332v-2.519h-2.676v-2.09zm5.156-7.568v15h-2.822v-15zm1.876 9.824v-.205q0-1.163.332-2.139a4.9 4.9 0 0 1 .967-1.709 4.3 4.3 0 0 1 1.562-1.123q.927-.41 2.129-.41c1.202 0 1.514.137 2.139.41a4.3 4.3 0 0 1 1.572 1.123q.645.723.976 1.709a6.6 6.6 0 0 1 .332 2.139v.205q0 1.152-.332 2.139a5 5 0 0 1-.976 1.709 4.3 4.3 0 0 1-1.563 1.123q-.927.4-2.129.4c-1.202 0-1.514-.133-2.138-.4a4.4 4.4 0 0 1-1.572-1.123 5.1 5.1 0 0 1-.967-1.709 6.7 6.7 0 0 1-.332-2.139m2.812-.205v.205q0 .664.117 1.24t.371 1.016q.264.43.684.674t1.025.244q.586 0 1.006-.244t.674-.674q.255-.439.371-1.016.127-.577.127-1.24v-.205q0-.645-.127-1.211a3.2 3.2 0 0 0-.381-1.016 1.9 1.9 0 0 0-.674-.703q-.42-.254-1.016-.254t-1.016.254a2 2 0 0 0-.674.703 3.4 3.4 0 0 0-.371 1.016 6 6 0 0 0-.116 1.211m8.926-9.619h2.813v12.578l-.283 2.422h-2.53zm9.501 9.609v.205q0 1.181-.254 2.168a5 5 0 0 1-.762 1.709 3.66 3.66 0 0 1-1.289 1.113q-.762.39-1.797.391-.966 0-1.68-.391a3.4 3.4 0 0 1-1.182-1.104 6.3 6.3 0 0 1-.772-1.67 12.7 12.7 0 0 1-.439-2.09v-.449q.146-1.133.439-2.09a6.3 6.3 0 0 1 .772-1.67 3.4 3.4 0 0 1 1.182-1.104q.703-.39 1.66-.391 1.044 0 1.816.4.781.39 1.289 1.113.517.713.762 1.699a8.5 8.5 0 0 1 .255 2.161m-2.812.205v-.205q0-.645-.097-1.211a3.2 3.2 0 0 0-.312-1.006 1.77 1.77 0 0 0-.615-.693q-.381-.254-.986-.254-.576 0-.977.195c-.401.195-.488.313-.664.547a2.5 2.5 0 0 0-.381.84 5 5 0 0 0-.156 1.055v1.279q.03.771.254 1.367.235.586.703.928.478.332 1.24.332.595 0 .986-.234a1.6 1.6 0 0 0 .606-.664q.225-.43.312-1.006a9 9 0 0 0 .087-1.27m10.264 2.803v-4.707q0-.508-.166-.869a1.23 1.23 0 0 0-.518-.576q-.342-.205-.888-.205-.47 0-.811.166a1.17 1.17 0 0 0-.527.459 1.27 1.27 0 0 0-.186.693h-2.812q0-.674.312-1.279.312-.606.909-1.064a4.5 4.5 0 0 1 1.416-.732 6.1 6.1 0 0 1 1.855-.264q1.23 0 2.188.41a3.35 3.35 0 0 1 1.504 1.23q.556.82.556 2.051v4.522q0 .87.108 1.426.108.547.312.957v.166h-2.842a4 4 0 0 1-.313-1.074 9 9 0 0 1-.097-1.31m.371-4.053.02 1.592H78.68q-.556 0-.967.127a1.8 1.8 0 0 0-.674.361q-.264.225-.391.527-.117.303-.117.664c0 .361.055.459.166.654q.166.284.478.449.313.156.732.156.635 0 1.104-.254t.723-.625q.264-.371.273-.703l.742 1.191a5 5 0 0 1-.43.83q-.264.43-.674.81a3.5 3.5 0 0 1-.986.615q-.576.234-1.367.234-1.005 0-1.826-.4a3.34 3.34 0 0 1-1.289-1.123 2.95 2.95 0 0 1-.469-1.641q0-.83.313-1.475.312-.645.918-1.084.615-.449 1.533-.674.918-.234 2.129-.234h1.632zm7.597-8.564v15h-2.822v-15zm5.137 6.464v12.598h-2.813V12.444h2.607zm6.69 3.135v.205q0 1.152-.274 2.139a5.3 5.3 0 0 1-.781 1.719 3.7 3.7 0 0 1-1.289 1.133q-.762.4-1.758.4-.967 0-1.68-.391a3.5 3.5 0 0 1-1.201-1.093q-.478-.713-.771-1.65c-.293-.937-.345-1.296-.449-2.012v-.537q.156-1.152.449-2.109a6.1 6.1 0 0 1 .771-1.67 3.5 3.5 0 0 1 1.191-1.104q.713-.39 1.67-.391 1.005 0 1.768.381.771.381 1.289 1.094.528.713.791 1.699.274.986.274 2.187m-2.823.205v-.205q0-.674-.117-1.24a3.2 3.2 0 0 0-.352-1.006 1.7 1.7 0 0 0-.625-.664q-.38-.244-.928-.244-.576 0-.986.186a1.65 1.65 0 0 0-.654.537q-.254.351-.381.84a5.4 5.4 0 0 0-.156 1.103v1.357q.048.723.273 1.299.225.566.694.899.469.332 1.23.332.557 0 .938-.244.381-.253.615-.693a3.2 3.2 0 0 0 .342-1.016 7 7 0 0 0 .107-1.241m7.54-5.371V23.01h-2.823V12.444zm-2.999-2.754q0-.615.43-1.016.43-.4 1.153-.4.713 0 1.142.4.44.4.44 1.016c0 .616-.147.749-.44 1.016q-.43.4-1.142.4-.723 0-1.153-.4a1.33 1.33 0 0 1-.43-1.016m8.077 5.01v8.311h-2.813V12.444h2.637zm-.41 2.656h-.762q0-1.171.302-2.109.304-.947.85-1.611a3.65 3.65 0 0 1 1.299-1.025 3.9 3.9 0 0 1 1.699-.361q.742 0 1.358.215.615.215 1.054.684.45.47.684 1.24.244.771.244 1.885v6.738h-2.832v-6.748q0-.703-.196-1.094a1.1 1.1 0 0 0-.576-.547q-.37-.166-.918-.166-.566 0-.986.225-.41.225-.684.625-.263.39-.4.918-.136.526-.136 1.131m15.556-4.912h2.549v10.215q0 1.445-.645 2.451a3.97 3.97 0 0 1-1.777 1.533q-1.143.527-2.656.527-.664 0-1.407-.176a5.6 5.6 0 0 1-1.406-.547 3.7 3.7 0 0 1-1.113-.937l1.24-1.66q.489.567 1.133.879.645.322 1.426.322.761 0 1.289-.283.527-.273.811-.811.282-.528.283-1.279v-7.793zm-7.109 5.41v-.205q0-1.211.293-2.197.303-.996.849-1.709a3.9 3.9 0 0 1 1.348-1.104q.79-.39 1.787-.391 1.054 0 1.768.391a3.2 3.2 0 0 1 1.172 1.113q.459.713.712 1.689.264.967.41 2.119v.449q-.146 1.104-.439 2.051c-.293.947-.453 1.185-.771 1.66a3.4 3.4 0 0 1-1.192 1.094q-.702.39-1.68.391-.976 0-1.767-.4-.782-.4-1.338-1.123c-.556-.723-.657-1.048-.859-1.699a7.4 7.4 0 0 1-.293-2.129m2.812-.205v.205q0 .654.127 1.221t.391 1.006q.273.43.673.674.41.234.967.234.773 0 1.26-.322.489-.332.733-.908t.283-1.328v-1.279a4.4 4.4 0 0 0-.166-1.104 2.7 2.7 0 0 0-.411-.85 1.8 1.8 0 0 0-.683-.547q-.42-.195-.996-.195-.556 0-.967.254a2.1 2.1 0 0 0-.674.674 3.4 3.4 0 0 0-.4 1.016q-.137.575-.137 1.249" style="fill:#fff"/>
  </g>
</svg>
