<svg xmlns="http://www.w3.org/2000/svg" width="1171" height="600" fill="none">
  <path fill="url(#a)" fill-rule="evenodd" d="m367.622-66.196 62.502 36.085a6 6 0 0 1 3 5.196v72.171a6 6 0 0 1-3 5.196l-62.502 36.086a6 6 0 0 1-6 0L299.12 52.452a6 6 0 0 1-3-5.196v-72.17a6 6 0 0 1 3-5.197l62.502-36.085a6 6 0 0 1 6 0Zm-7-1.732a8 8 0 0 1 8 0l62.502 36.085a8 8 0 0 1 4 6.928v72.171a8 8 0 0 1-4 6.928L368.622 90.27a8 8 0 0 1-8 0L298.12 54.184a8 8 0 0 1-4-6.928v-72.17a8 8 0 0 1 4-6.929l62.502-36.085ZM136.003-30.111 73.502-66.196a6 6 0 0 0-6 0L5-30.111a6 6 0 0 0-3 5.196v72.171a6 6 0 0 0 3 5.196l62.502 36.086a6 6 0 0 0 6 0l62.501-36.086a5.999 5.999 0 0 0 3-5.196v-72.17a5.999 5.999 0 0 0-3-5.197ZM74.502-67.928a8 8 0 0 0-8 0L4-31.843a8 8 0 0 0-4 6.928v72.171a8 8 0 0 0 4 6.928L66.502 90.27a8 8 0 0 0 8 0l62.501-36.086a7.998 7.998 0 0 0 4-6.928v-72.17c0-2.859-1.524-5.5-4-6.929L74.502-67.928ZM209.533 97.254l-62.501-36.086a6 6 0 0 0-6 0L78.53 97.255a6 6 0 0 0-3 5.196v72.171a6 6 0 0 0 3 5.196l62.502 36.085a5.999 5.999 0 0 0 6 0l62.501-36.085a6 6 0 0 0 3-5.196V102.45a5.998 5.998 0 0 0-3-5.196Zm-61.501-37.818a8 8 0 0 0-8 0L77.53 95.522a8 8 0 0 0-4 6.928v72.171a8 8 0 0 0 4 6.928l62.502 36.085a8 8 0 0 0 8 0l62.501-36.085a7.998 7.998 0 0 0 4-6.928V102.45c0-2.858-1.524-5.5-4-6.928l-62.501-36.086Zm61.501 292.547-62.501-36.085a5.999 5.999 0 0 0-6 0L78.53 351.983a6 6 0 0 0-3 5.196v72.171a6 6 0 0 0 3 5.196l62.502 36.085a5.999 5.999 0 0 0 6 0l62.501-36.085a5.998 5.998 0 0 0 3-5.196v-72.171a6 6 0 0 0-3-5.196Zm-61.501-37.817a8 8 0 0 0-8 0L77.53 350.251a8 8 0 0 0-4 6.928v72.171a8 8 0 0 0 4 6.928l62.502 36.085a7.995 7.995 0 0 0 8 0l62.501-36.085a7.998 7.998 0 0 0 4-6.928v-72.171a7.998 7.998 0 0 0-4-6.928l-62.501-36.085Zm146.06 1.732 62.502 36.085a6.002 6.002 0 0 1 3 5.196v72.171a6 6 0 0 1-3 5.196l-62.502 36.085a5.999 5.999 0 0 1-6 0l-62.502-36.085a6 6 0 0 1-3-5.196v-72.171a6.002 6.002 0 0 1 3-5.196l62.502-36.085a5.999 5.999 0 0 1 6 0Zm-7-1.732a8 8 0 0 1 8 0l62.502 36.085a8 8 0 0 1 4 6.928v72.171a8 8 0 0 1-4 6.928l-62.502 36.085a7.995 7.995 0 0 1-8 0l-62.502-36.085a8 8 0 0 1-4-6.928v-72.171a8 8 0 0 1 4-6.928l62.502-36.085ZM503.654 97.254l-62.502-36.086a6 6 0 0 0-6 0L372.65 97.255a6 6 0 0 0-3 5.196v72.171a6.002 6.002 0 0 0 3 5.196l62.502 36.085a5.999 5.999 0 0 0 6 0l62.502-36.085a6.002 6.002 0 0 0 3-5.196V102.45a6 6 0 0 0-3-5.196Zm-61.502-37.818a8 8 0 0 0-8 0L371.65 95.522a8 8 0 0 0-4 6.928v72.171a8 8 0 0 0 4 6.928l62.502 36.085a8 8 0 0 0 8 0l62.502-36.085a8 8 0 0 0 4-6.928V102.45a8 8 0 0 0-4-6.928l-62.502-36.086Zm293.12 1.733 62.502 36.085a6 6 0 0 1 3 5.196v72.171a6.002 6.002 0 0 1-3 5.196l-62.502 36.085a5.999 5.999 0 0 1-6 0l-62.501-36.085a6 6 0 0 1-3-5.196V102.45a5.998 5.998 0 0 1 3-5.196l62.501-36.086a6 6 0 0 1 6 0Zm-7-1.733a8 8 0 0 1 8 0l62.502 36.086a8 8 0 0 1 4 6.928v72.171a8 8 0 0 1-4 6.928l-62.502 36.085a8 8 0 0 1-8 0l-62.501-36.085a8 8 0 0 1-4-6.928V102.45a8 8 0 0 1 4-6.928l62.501-36.086Zm363.618 37.818-62.5-36.086a6 6 0 0 0-6 0l-62.499 36.086a6 6 0 0 0-3 5.196v72.171a6.002 6.002 0 0 0 3 5.196l62.499 36.085a5.999 5.999 0 0 0 6 0l62.5-36.085a5.993 5.993 0 0 0 3-5.196V102.45a5.992 5.992 0 0 0-3-5.196Zm-61.5-37.818a8 8 0 0 0-8 0l-62.499 36.086a8 8 0 0 0-4 6.928v72.171a8 8 0 0 0 4 6.928l62.499 36.085a8 8 0 0 0 8 0l62.5-36.085a7.99 7.99 0 0 0 4-6.928V102.45a7.99 7.99 0 0 0-4-6.928l-62.5-36.086Zm-1 256.462 62.5 36.085a5.993 5.993 0 0 1 3 5.196v72.171a5.992 5.992 0 0 1-3 5.196l-62.5 36.085a5.999 5.999 0 0 1-6 0l-62.499-36.085a6 6 0 0 1-3-5.196v-72.171a6.002 6.002 0 0 1 3-5.196l62.499-36.085a5.999 5.999 0 0 1 6 0Zm-7-1.732a8 8 0 0 1 8 0l62.5 36.085a7.99 7.99 0 0 1 4 6.928v72.171a7.99 7.99 0 0 1-4 6.928l-62.5 36.085a7.995 7.995 0 0 1-8 0l-62.499-36.085a8 8 0 0 1-4-6.928v-72.171a8 8 0 0 1 4-6.928l62.499-36.085Zm-592.266-89.548-62.502-36.085a5.999 5.999 0 0 0-6 0l-62.502 36.085a6.002 6.002 0 0 0-3 5.197v72.17a6 6 0 0 0 3 5.196l62.502 36.086a5.999 5.999 0 0 0 6 0l62.502-36.086a6 6 0 0 0 3-5.196v-72.17a6.002 6.002 0 0 0-3-5.197Zm-61.502-37.817a8 8 0 0 0-8 0l-62.502 36.085a8 8 0 0 0-4 6.929v72.17a8 8 0 0 0 4 6.928l62.502 36.086a8 8 0 0 0 8 0l62.502-36.086a8 8 0 0 0 4-6.928v-72.17a8 8 0 0 0-4-6.929l-62.502-36.085Zm146.06 1.732 62.502 36.085a6.002 6.002 0 0 1 3 5.197v72.17a6 6 0 0 1-3 5.196l-62.502 36.086a5.999 5.999 0 0 1-6 0l-62.501-36.086a5.997 5.997 0 0 1-3-5.196v-72.17a6 6 0 0 1 3-5.197l62.501-36.085a5.999 5.999 0 0 1 6 0Zm-7-1.732a8 8 0 0 1 8 0l62.502 36.085a8 8 0 0 1 4 6.929v72.17a8 8 0 0 1-4 6.928l-62.502 36.086a8 8 0 0 1-8 0l-62.501-36.086a7.998 7.998 0 0 1-4-6.928v-72.17c0-2.859 1.524-5.5 4-6.929l62.501-36.085Zm216.562 37.817-62.502-36.085a5.999 5.999 0 0 0-6 0l-62.501 36.085a6 6 0 0 0-3 5.197v72.17a5.997 5.997 0 0 0 3 5.196l62.501 36.086a5.999 5.999 0 0 0 6 0l62.502-36.086a6 6 0 0 0 3-5.196v-72.17a6.002 6.002 0 0 0-3-5.197Zm-61.502-37.817a8 8 0 0 0-8 0l-62.501 36.085a7.998 7.998 0 0 0-4 6.929v72.17a7.998 7.998 0 0 0 4 6.928l62.501 36.086a8 8 0 0 0 8 0l62.502-36.086a8 8 0 0 0 4-6.928v-72.17a8 8 0 0 0-4-6.929l-62.502-36.085Zm146.06 1.732 62.502 36.085a6 6 0 0 1 3 5.197v72.17a5.997 5.997 0 0 1-3 5.196l-62.502 36.086a5.999 5.999 0 0 1-6 0l-62.501-36.086a5.997 5.997 0 0 1-3-5.196v-72.17a6 6 0 0 1 3-5.197l62.501-36.085a5.999 5.999 0 0 1 6 0Zm-7-1.732a8 8 0 0 1 8 0l62.502 36.085a8 8 0 0 1 4 6.929v72.17a8 8 0 0 1-4 6.928l-62.502 36.086a8 8 0 0 1-8 0l-62.501-36.086a8 8 0 0 1-4-6.928v-72.17a8 8 0 0 1 4-6.929l62.501-36.085Zm216.558 37.817-62.497-36.085a5.999 5.999 0 0 0-6 0l-62.502 36.085a6.002 6.002 0 0 0-3 5.197v72.17a6 6 0 0 0 3 5.196l62.502 36.086a5.999 5.999 0 0 0 6 0l62.497-36.086a5.99 5.99 0 0 0 3-5.196v-72.17a5.994 5.994 0 0 0-3-5.197Zm-61.497-37.817a8 8 0 0 0-8 0l-62.502 36.085a8 8 0 0 0-4 6.929v72.17a8 8 0 0 0 4 6.928l62.502 36.086a8 8 0 0 0 8 0l62.497-36.086a7.99 7.99 0 0 0 4-6.928v-72.17a7.99 7.99 0 0 0-4-6.929l-62.497-36.085Zm146.057 1.732 62.5 36.085a5.994 5.994 0 0 1 3 5.197v72.17a5.99 5.99 0 0 1-3 5.196l-62.5 36.086a5.999 5.999 0 0 1-6 0l-62.5-36.086a5.99 5.99 0 0 1-3-5.196v-72.17a5.994 5.994 0 0 1 3-5.197l62.5-36.085a5.999 5.999 0 0 1 6 0Zm-7-1.732a8 8 0 0 1 8 0l62.5 36.085a7.99 7.99 0 0 1 4 6.929v72.17a7.99 7.99 0 0 1-4 6.928l-62.5 36.086a8 8 0 0 1-8 0l-62.5-36.086a8.01 8.01 0 0 1-4-6.928v-72.17c0-2.859 1.53-5.5 4-6.929l62.5-36.085ZM724.244-30.111l-62.502-36.085a6 6 0 0 0-6 0l-62.501 36.085a5.999 5.999 0 0 0-3 5.196v72.171a5.999 5.999 0 0 0 3 5.196l62.501 36.086a6 6 0 0 0 6 0l62.502-36.086a6 6 0 0 0 3-5.196v-72.17a6 6 0 0 0-3-5.197Zm-61.502-37.817a8 8 0 0 0-8 0l-62.501 36.085a7.998 7.998 0 0 0-4 6.928v72.171c0 2.858 1.524 5.5 4 6.928l62.501 36.086a8 8 0 0 0 8 0l62.502-36.086a8 8 0 0 0 4-6.928v-72.17a8 8 0 0 0-4-6.929l-62.502-36.085Zm146.06 1.732 62.502 36.085a5.999 5.999 0 0 1 3 5.196v72.171a5.999 5.999 0 0 1-3 5.196l-62.502 36.086a6 6 0 0 1-6 0l-62.501-36.086a5.999 5.999 0 0 1-3-5.196v-72.17a5.999 5.999 0 0 1 3-5.197l62.501-36.085a6 6 0 0 1 6 0Zm-7-1.732a8 8 0 0 1 8 0l62.502 36.085a8 8 0 0 1 4 6.928v72.171a8 8 0 0 1-4 6.928L809.802 90.27a8 8 0 0 1-8 0l-62.501-36.086a8 8 0 0 1-4-6.928v-72.17a8 8 0 0 1 4-6.929l62.501-36.085Zm216.558 37.817-62.497-36.085a6 6 0 0 0-6 0l-62.502 36.085a6 6 0 0 0-3 5.196v72.171a6 6 0 0 0 3 5.196l62.502 36.086a6 6 0 0 0 6 0l62.497-36.086a5.993 5.993 0 0 0 3-5.196v-72.17a5.993 5.993 0 0 0-3-5.197Zm-61.497-37.817a8 8 0 0 0-8 0l-62.502 36.085a8 8 0 0 0-4 6.928v72.171a8 8 0 0 0 4 6.928l62.502 36.086a8 8 0 0 0 8 0l62.497-36.086a7.99 7.99 0 0 0 4-6.928v-72.17a7.99 7.99 0 0 0-4-6.929l-62.497-36.085Zm146.057 1.732 62.5 36.085a5.993 5.993 0 0 1 3 5.196v72.171a5.993 5.993 0 0 1-3 5.196l-62.5 36.086a6 6 0 0 1-6 0l-62.5-36.086a5.993 5.993 0 0 1-3-5.196v-72.17a5.993 5.993 0 0 1 3-5.197l62.5-36.085a6 6 0 0 1 6 0Zm-7-1.732a8 8 0 0 1 8 0l62.5 36.085a7.99 7.99 0 0 1 4 6.928v72.171a7.99 7.99 0 0 1-4 6.928l-62.5 36.086a8 8 0 0 1-8 0l-62.5-36.086a8.01 8.01 0 0 1-4-6.928v-72.17c0-2.859 1.53-5.5 4-6.929l62.5-36.085ZM283.063 479.348l-62.501-36.086a6.004 6.004 0 0 0-6 0l-62.502 36.086a6 6 0 0 0-3 5.196v72.171a6.002 6.002 0 0 0 3 5.196l62.502 36.085a5.999 5.999 0 0 0 6 0l62.501-36.085a6 6 0 0 0 3-5.196v-72.171a5.997 5.997 0 0 0-3-5.196Zm-61.501-37.818a8 8 0 0 0-8 0l-62.502 36.086a8 8 0 0 0-4 6.928v72.171a8 8 0 0 0 4 6.928l62.502 36.085a8 8 0 0 0 8 0l62.501-36.085a7.998 7.998 0 0 0 4-6.928v-72.171a7.998 7.998 0 0 0-4-6.928l-62.501-36.086Zm-148.06 1.732 62.501 36.086a5.997 5.997 0 0 1 3 5.196v72.17a6 6 0 0 1-3 5.197l-62.501 36.085a5.999 5.999 0 0 1-6 0L5 561.911a6 6 0 0 1-3-5.196v-72.171a5.998 5.998 0 0 1 3-5.196l62.502-36.086a6.004 6.004 0 0 1 6 0Zm-7-1.732a8 8 0 0 1 8 0l62.501 36.086a7.998 7.998 0 0 1 4 6.928v72.17c0 2.859-1.524 5.5-4 6.929l-62.501 36.085a8 8 0 0 1-8 0L4 563.643a8 8 0 0 1-4-6.928v-72.171a8 8 0 0 1 4-6.928l62.502-36.086Zm363.622 37.818-62.502-36.086a6.004 6.004 0 0 0-6 0l-62.502 36.086a6 6 0 0 0-3 5.196v72.171a6.002 6.002 0 0 0 3 5.196l62.502 36.085a5.999 5.999 0 0 0 6 0l62.502-36.085a6.002 6.002 0 0 0 3-5.196v-72.171a6 6 0 0 0-3-5.196Zm-61.502-37.818a8 8 0 0 0-8 0l-62.502 36.086a8 8 0 0 0-4 6.928v72.171a8 8 0 0 0 4 6.928l62.502 36.085a8 8 0 0 0 8 0l62.502-36.085a8 8 0 0 0 4-6.928v-72.171a8 8 0 0 0-4-6.928l-62.502-36.086Zm146.06 1.732 62.502 36.086a6 6 0 0 1 3 5.196v72.171a6.002 6.002 0 0 1-3 5.196l-62.502 36.085a5.999 5.999 0 0 1-6 0l-62.501-36.085a6 6 0 0 1-3-5.196v-72.171a5.997 5.997 0 0 1 3-5.196l62.501-36.086a6.004 6.004 0 0 1 6 0Zm-7-1.732a8 8 0 0 1 8 0l62.502 36.086a8 8 0 0 1 4 6.928v72.171a8 8 0 0 1-4 6.928l-62.502 36.085a8 8 0 0 1-8 0l-62.501-36.085a7.998 7.998 0 0 1-4-6.928v-72.171a7.998 7.998 0 0 1 4-6.928l62.501-36.086Zm216.562 37.818-62.502-36.086a6.004 6.004 0 0 0-6 0l-62.501 36.086a5.997 5.997 0 0 0-3 5.196v72.171a6 6 0 0 0 3 5.196l62.501 36.085a5.999 5.999 0 0 0 6 0l62.502-36.085a6.002 6.002 0 0 0 3-5.196v-72.171a6 6 0 0 0-3-5.196Zm-61.502-37.818a8 8 0 0 0-8 0l-62.501 36.086a7.998 7.998 0 0 0-4 6.928v72.171a7.998 7.998 0 0 0 4 6.928l62.501 36.085a8 8 0 0 0 8 0l62.502-36.085a8 8 0 0 0 4-6.928v-72.171a8 8 0 0 0-4-6.928l-62.502-36.086Zm146.06 1.732 62.502 36.086a5.997 5.997 0 0 1 3 5.196v72.171a6 6 0 0 1-3 5.196l-62.502 36.085a5.999 5.999 0 0 1-6 0l-62.501-36.085a6 6 0 0 1-3-5.196v-72.171a5.997 5.997 0 0 1 3-5.196l62.501-36.086a6.004 6.004 0 0 1 6 0Zm-7-1.732a8 8 0 0 1 8 0l62.502 36.086a8 8 0 0 1 4 6.928v72.171a8 8 0 0 1-4 6.928l-62.502 36.085a8 8 0 0 1-8 0l-62.501-36.085a8 8 0 0 1-4-6.928v-72.171a8 8 0 0 1 4-6.928l62.501-36.086Zm216.558 37.818-62.497-36.086a6.004 6.004 0 0 0-6 0l-62.502 36.086a6 6 0 0 0-3 5.196v72.171a6.002 6.002 0 0 0 3 5.196l62.502 36.085a5.999 5.999 0 0 0 6 0l62.497-36.085a5.993 5.993 0 0 0 3-5.196v-72.171a5.99 5.99 0 0 0-3-5.196Zm-61.497-37.818a8 8 0 0 0-8 0l-62.502 36.086a8 8 0 0 0-4 6.928v72.171a8 8 0 0 0 4 6.928l62.502 36.085a8 8 0 0 0 8 0l62.497-36.085a7.99 7.99 0 0 0 4-6.928v-72.171a7.99 7.99 0 0 0-4-6.928l-62.497-36.086Zm146.057 1.732 62.5 36.086a5.99 5.99 0 0 1 3 5.196v72.171a5.993 5.993 0 0 1-3 5.196l-62.5 36.085a5.999 5.999 0 0 1-6 0l-62.5-36.085a5.993 5.993 0 0 1-3-5.196v-72.171a5.99 5.99 0 0 1 3-5.196l62.5-36.086a6.004 6.004 0 0 1 6 0Zm-7-1.732a8 8 0 0 1 8 0l62.5 36.086a7.99 7.99 0 0 1 4 6.928v72.171a7.99 7.99 0 0 1-4 6.928l-62.5 36.085a8 8 0 0 1-8 0l-62.5-36.085a8.01 8.01 0 0 1-4-6.928v-72.171a8.01 8.01 0 0 1 4-6.928l62.5-36.086Z" clip-rule="evenodd"/>
  <path fill="url(#b)" fill-rule="evenodd" d="m367.622-66.196 62.502 36.085a6 6 0 0 1 3 5.196v72.171a6 6 0 0 1-3 5.196l-62.502 36.086a6 6 0 0 1-6 0L299.12 52.452a6 6 0 0 1-3-5.196v-72.17a6 6 0 0 1 3-5.197l62.502-36.085a6 6 0 0 1 6 0Zm-7-1.732a8 8 0 0 1 8 0l62.502 36.085a8 8 0 0 1 4 6.928v72.171a8 8 0 0 1-4 6.928L368.622 90.27a8 8 0 0 1-8 0L298.12 54.184a8 8 0 0 1-4-6.928v-72.17a8 8 0 0 1 4-6.929l62.502-36.085ZM136.003-30.111 73.502-66.196a6 6 0 0 0-6 0L5-30.111a6 6 0 0 0-3 5.196v72.171a6 6 0 0 0 3 5.196l62.502 36.086a6 6 0 0 0 6 0l62.501-36.086a5.999 5.999 0 0 0 3-5.196v-72.17a5.999 5.999 0 0 0-3-5.197ZM74.502-67.928a8 8 0 0 0-8 0L4-31.843a8 8 0 0 0-4 6.928v72.171a8 8 0 0 0 4 6.928L66.502 90.27a8 8 0 0 0 8 0l62.501-36.086a7.998 7.998 0 0 0 4-6.928v-72.17c0-2.859-1.524-5.5-4-6.929L74.502-67.928ZM209.533 97.254l-62.501-36.086a6 6 0 0 0-6 0L78.53 97.255a6 6 0 0 0-3 5.196v72.171a6 6 0 0 0 3 5.196l62.502 36.085a5.999 5.999 0 0 0 6 0l62.501-36.085a6 6 0 0 0 3-5.196V102.45a5.998 5.998 0 0 0-3-5.196Zm-61.501-37.818a8 8 0 0 0-8 0L77.53 95.522a8 8 0 0 0-4 6.928v72.171a8 8 0 0 0 4 6.928l62.502 36.085a8 8 0 0 0 8 0l62.501-36.085a7.998 7.998 0 0 0 4-6.928V102.45c0-2.858-1.524-5.5-4-6.928l-62.501-36.086Zm61.501 292.547-62.501-36.085a5.999 5.999 0 0 0-6 0L78.53 351.983a6 6 0 0 0-3 5.196v72.171a6 6 0 0 0 3 5.196l62.502 36.085a5.999 5.999 0 0 0 6 0l62.501-36.085a5.998 5.998 0 0 0 3-5.196v-72.171a6 6 0 0 0-3-5.196Zm-61.501-37.817a8 8 0 0 0-8 0L77.53 350.251a8 8 0 0 0-4 6.928v72.171a8 8 0 0 0 4 6.928l62.502 36.085a7.995 7.995 0 0 0 8 0l62.501-36.085a7.998 7.998 0 0 0 4-6.928v-72.171a7.998 7.998 0 0 0-4-6.928l-62.501-36.085Zm146.06 1.732 62.502 36.085a6.002 6.002 0 0 1 3 5.196v72.171a6 6 0 0 1-3 5.196l-62.502 36.085a5.999 5.999 0 0 1-6 0l-62.502-36.085a6 6 0 0 1-3-5.196v-72.171a6.002 6.002 0 0 1 3-5.196l62.502-36.085a5.999 5.999 0 0 1 6 0Zm-7-1.732a8 8 0 0 1 8 0l62.502 36.085a8 8 0 0 1 4 6.928v72.171a8 8 0 0 1-4 6.928l-62.502 36.085a7.995 7.995 0 0 1-8 0l-62.502-36.085a8 8 0 0 1-4-6.928v-72.171a8 8 0 0 1 4-6.928l62.502-36.085ZM503.654 97.254l-62.502-36.086a6 6 0 0 0-6 0L372.65 97.255a6 6 0 0 0-3 5.196v72.171a6.002 6.002 0 0 0 3 5.196l62.502 36.085a5.999 5.999 0 0 0 6 0l62.502-36.085a6.002 6.002 0 0 0 3-5.196V102.45a6 6 0 0 0-3-5.196Zm-61.502-37.818a8 8 0 0 0-8 0L371.65 95.522a8 8 0 0 0-4 6.928v72.171a8 8 0 0 0 4 6.928l62.502 36.085a8 8 0 0 0 8 0l62.502-36.085a8 8 0 0 0 4-6.928V102.45a8 8 0 0 0-4-6.928l-62.502-36.086Zm293.12 1.733 62.502 36.085a6 6 0 0 1 3 5.196v72.171a6.002 6.002 0 0 1-3 5.196l-62.502 36.085a5.999 5.999 0 0 1-6 0l-62.501-36.085a6 6 0 0 1-3-5.196V102.45a5.998 5.998 0 0 1 3-5.196l62.501-36.086a6 6 0 0 1 6 0Zm-7-1.733a8 8 0 0 1 8 0l62.502 36.086a8 8 0 0 1 4 6.928v72.171a8 8 0 0 1-4 6.928l-62.502 36.085a8 8 0 0 1-8 0l-62.501-36.085a8 8 0 0 1-4-6.928V102.45a8 8 0 0 1 4-6.928l62.501-36.086Zm363.618 37.818-62.5-36.086a6 6 0 0 0-6 0l-62.499 36.086a6 6 0 0 0-3 5.196v72.171a6.002 6.002 0 0 0 3 5.196l62.499 36.085a5.999 5.999 0 0 0 6 0l62.5-36.085a5.993 5.993 0 0 0 3-5.196V102.45a5.992 5.992 0 0 0-3-5.196Zm-61.5-37.818a8 8 0 0 0-8 0l-62.499 36.086a8 8 0 0 0-4 6.928v72.171a8 8 0 0 0 4 6.928l62.499 36.085a8 8 0 0 0 8 0l62.5-36.085a7.99 7.99 0 0 0 4-6.928V102.45a7.99 7.99 0 0 0-4-6.928l-62.5-36.086Zm-1 256.462 62.5 36.085a5.993 5.993 0 0 1 3 5.196v72.171a5.992 5.992 0 0 1-3 5.196l-62.5 36.085a5.999 5.999 0 0 1-6 0l-62.499-36.085a6 6 0 0 1-3-5.196v-72.171a6.002 6.002 0 0 1 3-5.196l62.499-36.085a5.999 5.999 0 0 1 6 0Zm-7-1.732a8 8 0 0 1 8 0l62.5 36.085a7.99 7.99 0 0 1 4 6.928v72.171a7.99 7.99 0 0 1-4 6.928l-62.5 36.085a7.995 7.995 0 0 1-8 0l-62.499-36.085a8 8 0 0 1-4-6.928v-72.171a8 8 0 0 1 4-6.928l62.499-36.085Zm-592.266-89.548-62.502-36.085a5.999 5.999 0 0 0-6 0l-62.502 36.085a6.002 6.002 0 0 0-3 5.197v72.17a6 6 0 0 0 3 5.196l62.502 36.086a5.999 5.999 0 0 0 6 0l62.502-36.086a6 6 0 0 0 3-5.196v-72.17a6.002 6.002 0 0 0-3-5.197Zm-61.502-37.817a8 8 0 0 0-8 0l-62.502 36.085a8 8 0 0 0-4 6.929v72.17a8 8 0 0 0 4 6.928l62.502 36.086a8 8 0 0 0 8 0l62.502-36.086a8 8 0 0 0 4-6.928v-72.17a8 8 0 0 0-4-6.929l-62.502-36.085Zm146.06 1.732 62.502 36.085a6.002 6.002 0 0 1 3 5.197v72.17a6 6 0 0 1-3 5.196l-62.502 36.086a5.999 5.999 0 0 1-6 0l-62.501-36.086a5.997 5.997 0 0 1-3-5.196v-72.17a6 6 0 0 1 3-5.197l62.501-36.085a5.999 5.999 0 0 1 6 0Zm-7-1.732a8 8 0 0 1 8 0l62.502 36.085a8 8 0 0 1 4 6.929v72.17a8 8 0 0 1-4 6.928l-62.502 36.086a8 8 0 0 1-8 0l-62.501-36.086a7.998 7.998 0 0 1-4-6.928v-72.17c0-2.859 1.524-5.5 4-6.929l62.501-36.085Zm216.562 37.817-62.502-36.085a5.999 5.999 0 0 0-6 0l-62.501 36.085a6 6 0 0 0-3 5.197v72.17a5.997 5.997 0 0 0 3 5.196l62.501 36.086a5.999 5.999 0 0 0 6 0l62.502-36.086a6 6 0 0 0 3-5.196v-72.17a6.002 6.002 0 0 0-3-5.197Zm-61.502-37.817a8 8 0 0 0-8 0l-62.501 36.085a7.998 7.998 0 0 0-4 6.929v72.17a7.998 7.998 0 0 0 4 6.928l62.501 36.086a8 8 0 0 0 8 0l62.502-36.086a8 8 0 0 0 4-6.928v-72.17a8 8 0 0 0-4-6.929l-62.502-36.085Zm146.06 1.732 62.502 36.085a6 6 0 0 1 3 5.197v72.17a5.997 5.997 0 0 1-3 5.196l-62.502 36.086a5.999 5.999 0 0 1-6 0l-62.501-36.086a5.997 5.997 0 0 1-3-5.196v-72.17a6 6 0 0 1 3-5.197l62.501-36.085a5.999 5.999 0 0 1 6 0Zm-7-1.732a8 8 0 0 1 8 0l62.502 36.085a8 8 0 0 1 4 6.929v72.17a8 8 0 0 1-4 6.928l-62.502 36.086a8 8 0 0 1-8 0l-62.501-36.086a8 8 0 0 1-4-6.928v-72.17a8 8 0 0 1 4-6.929l62.501-36.085Zm216.558 37.817-62.497-36.085a5.999 5.999 0 0 0-6 0l-62.502 36.085a6.002 6.002 0 0 0-3 5.197v72.17a6 6 0 0 0 3 5.196l62.502 36.086a5.999 5.999 0 0 0 6 0l62.497-36.086a5.99 5.99 0 0 0 3-5.196v-72.17a5.994 5.994 0 0 0-3-5.197Zm-61.497-37.817a8 8 0 0 0-8 0l-62.502 36.085a8 8 0 0 0-4 6.929v72.17a8 8 0 0 0 4 6.928l62.502 36.086a8 8 0 0 0 8 0l62.497-36.086a7.99 7.99 0 0 0 4-6.928v-72.17a7.99 7.99 0 0 0-4-6.929l-62.497-36.085Zm146.057 1.732 62.5 36.085a5.994 5.994 0 0 1 3 5.197v72.17a5.99 5.99 0 0 1-3 5.196l-62.5 36.086a5.999 5.999 0 0 1-6 0l-62.5-36.086a5.99 5.99 0 0 1-3-5.196v-72.17a5.994 5.994 0 0 1 3-5.197l62.5-36.085a5.999 5.999 0 0 1 6 0Zm-7-1.732a8 8 0 0 1 8 0l62.5 36.085a7.99 7.99 0 0 1 4 6.929v72.17a7.99 7.99 0 0 1-4 6.928l-62.5 36.086a8 8 0 0 1-8 0l-62.5-36.086a8.01 8.01 0 0 1-4-6.928v-72.17c0-2.859 1.53-5.5 4-6.929l62.5-36.085ZM724.244-30.111l-62.502-36.085a6 6 0 0 0-6 0l-62.501 36.085a5.999 5.999 0 0 0-3 5.196v72.171a5.999 5.999 0 0 0 3 5.196l62.501 36.086a6 6 0 0 0 6 0l62.502-36.086a6 6 0 0 0 3-5.196v-72.17a6 6 0 0 0-3-5.197Zm-61.502-37.817a8 8 0 0 0-8 0l-62.501 36.085a7.998 7.998 0 0 0-4 6.928v72.171c0 2.858 1.524 5.5 4 6.928l62.501 36.086a8 8 0 0 0 8 0l62.502-36.086a8 8 0 0 0 4-6.928v-72.17a8 8 0 0 0-4-6.929l-62.502-36.085Zm146.06 1.732 62.502 36.085a5.999 5.999 0 0 1 3 5.196v72.171a5.999 5.999 0 0 1-3 5.196l-62.502 36.086a6 6 0 0 1-6 0l-62.501-36.086a5.999 5.999 0 0 1-3-5.196v-72.17a5.999 5.999 0 0 1 3-5.197l62.501-36.085a6 6 0 0 1 6 0Zm-7-1.732a8 8 0 0 1 8 0l62.502 36.085a8 8 0 0 1 4 6.928v72.171a8 8 0 0 1-4 6.928L809.802 90.27a8 8 0 0 1-8 0l-62.501-36.086a8 8 0 0 1-4-6.928v-72.17a8 8 0 0 1 4-6.929l62.501-36.085Zm216.558 37.817-62.497-36.085a6 6 0 0 0-6 0l-62.502 36.085a6 6 0 0 0-3 5.196v72.171a6 6 0 0 0 3 5.196l62.502 36.086a6 6 0 0 0 6 0l62.497-36.086a5.993 5.993 0 0 0 3-5.196v-72.17a5.993 5.993 0 0 0-3-5.197Zm-61.497-37.817a8 8 0 0 0-8 0l-62.502 36.085a8 8 0 0 0-4 6.928v72.171a8 8 0 0 0 4 6.928l62.502 36.086a8 8 0 0 0 8 0l62.497-36.086a7.99 7.99 0 0 0 4-6.928v-72.17a7.99 7.99 0 0 0-4-6.929l-62.497-36.085Zm146.057 1.732 62.5 36.085a5.993 5.993 0 0 1 3 5.196v72.171a5.993 5.993 0 0 1-3 5.196l-62.5 36.086a6 6 0 0 1-6 0l-62.5-36.086a5.993 5.993 0 0 1-3-5.196v-72.17a5.993 5.993 0 0 1 3-5.197l62.5-36.085a6 6 0 0 1 6 0Zm-7-1.732a8 8 0 0 1 8 0l62.5 36.085a7.99 7.99 0 0 1 4 6.928v72.171a7.99 7.99 0 0 1-4 6.928l-62.5 36.086a8 8 0 0 1-8 0l-62.5-36.086a8.01 8.01 0 0 1-4-6.928v-72.17c0-2.859 1.53-5.5 4-6.929l62.5-36.085ZM283.063 479.348l-62.501-36.086a6.004 6.004 0 0 0-6 0l-62.502 36.086a6 6 0 0 0-3 5.196v72.171a6.002 6.002 0 0 0 3 5.196l62.502 36.085a5.999 5.999 0 0 0 6 0l62.501-36.085a6 6 0 0 0 3-5.196v-72.171a5.997 5.997 0 0 0-3-5.196Zm-61.501-37.818a8 8 0 0 0-8 0l-62.502 36.086a8 8 0 0 0-4 6.928v72.171a8 8 0 0 0 4 6.928l62.502 36.085a8 8 0 0 0 8 0l62.501-36.085a7.998 7.998 0 0 0 4-6.928v-72.171a7.998 7.998 0 0 0-4-6.928l-62.501-36.086Zm-148.06 1.732 62.501 36.086a5.997 5.997 0 0 1 3 5.196v72.17a6 6 0 0 1-3 5.197l-62.501 36.085a5.999 5.999 0 0 1-6 0L5 561.911a6 6 0 0 1-3-5.196v-72.171a5.998 5.998 0 0 1 3-5.196l62.502-36.086a6.004 6.004 0 0 1 6 0Zm-7-1.732a8 8 0 0 1 8 0l62.501 36.086a7.998 7.998 0 0 1 4 6.928v72.17c0 2.859-1.524 5.5-4 6.929l-62.501 36.085a8 8 0 0 1-8 0L4 563.643a8 8 0 0 1-4-6.928v-72.171a8 8 0 0 1 4-6.928l62.502-36.086Zm363.622 37.818-62.502-36.086a6.004 6.004 0 0 0-6 0l-62.502 36.086a6 6 0 0 0-3 5.196v72.171a6.002 6.002 0 0 0 3 5.196l62.502 36.085a5.999 5.999 0 0 0 6 0l62.502-36.085a6.002 6.002 0 0 0 3-5.196v-72.171a6 6 0 0 0-3-5.196Zm-61.502-37.818a8 8 0 0 0-8 0l-62.502 36.086a8 8 0 0 0-4 6.928v72.171a8 8 0 0 0 4 6.928l62.502 36.085a8 8 0 0 0 8 0l62.502-36.085a8 8 0 0 0 4-6.928v-72.171a8 8 0 0 0-4-6.928l-62.502-36.086Zm146.06 1.732 62.502 36.086a6 6 0 0 1 3 5.196v72.171a6.002 6.002 0 0 1-3 5.196l-62.502 36.085a5.999 5.999 0 0 1-6 0l-62.501-36.085a6 6 0 0 1-3-5.196v-72.171a5.997 5.997 0 0 1 3-5.196l62.501-36.086a6.004 6.004 0 0 1 6 0Zm-7-1.732a8 8 0 0 1 8 0l62.502 36.086a8 8 0 0 1 4 6.928v72.171a8 8 0 0 1-4 6.928l-62.502 36.085a8 8 0 0 1-8 0l-62.501-36.085a7.998 7.998 0 0 1-4-6.928v-72.171a7.998 7.998 0 0 1 4-6.928l62.501-36.086Zm216.562 37.818-62.502-36.086a6.004 6.004 0 0 0-6 0l-62.501 36.086a5.997 5.997 0 0 0-3 5.196v72.171a6 6 0 0 0 3 5.196l62.501 36.085a5.999 5.999 0 0 0 6 0l62.502-36.085a6.002 6.002 0 0 0 3-5.196v-72.171a6 6 0 0 0-3-5.196Zm-61.502-37.818a8 8 0 0 0-8 0l-62.501 36.086a7.998 7.998 0 0 0-4 6.928v72.171a7.998 7.998 0 0 0 4 6.928l62.501 36.085a8 8 0 0 0 8 0l62.502-36.085a8 8 0 0 0 4-6.928v-72.171a8 8 0 0 0-4-6.928l-62.502-36.086Zm146.06 1.732 62.502 36.086a5.997 5.997 0 0 1 3 5.196v72.171a6 6 0 0 1-3 5.196l-62.502 36.085a5.999 5.999 0 0 1-6 0l-62.501-36.085a6 6 0 0 1-3-5.196v-72.171a5.997 5.997 0 0 1 3-5.196l62.501-36.086a6.004 6.004 0 0 1 6 0Zm-7-1.732a8 8 0 0 1 8 0l62.502 36.086a8 8 0 0 1 4 6.928v72.171a8 8 0 0 1-4 6.928l-62.502 36.085a8 8 0 0 1-8 0l-62.501-36.085a8 8 0 0 1-4-6.928v-72.171a8 8 0 0 1 4-6.928l62.501-36.086Zm216.558 37.818-62.497-36.086a6.004 6.004 0 0 0-6 0l-62.502 36.086a6 6 0 0 0-3 5.196v72.171a6.002 6.002 0 0 0 3 5.196l62.502 36.085a5.999 5.999 0 0 0 6 0l62.497-36.085a5.993 5.993 0 0 0 3-5.196v-72.171a5.99 5.99 0 0 0-3-5.196Zm-61.497-37.818a8 8 0 0 0-8 0l-62.502 36.086a8 8 0 0 0-4 6.928v72.171a8 8 0 0 0 4 6.928l62.502 36.085a8 8 0 0 0 8 0l62.497-36.085a7.99 7.99 0 0 0 4-6.928v-72.171a7.99 7.99 0 0 0-4-6.928l-62.497-36.086Zm146.057 1.732 62.5 36.086a5.99 5.99 0 0 1 3 5.196v72.171a5.993 5.993 0 0 1-3 5.196l-62.5 36.085a5.999 5.999 0 0 1-6 0l-62.5-36.085a5.993 5.993 0 0 1-3-5.196v-72.171a5.99 5.99 0 0 1 3-5.196l62.5-36.086a6.004 6.004 0 0 1 6 0Zm-7-1.732a8 8 0 0 1 8 0l62.5 36.086a7.99 7.99 0 0 1 4 6.928v72.171a7.99 7.99 0 0 1-4 6.928l-62.5 36.085a8 8 0 0 1-8 0l-62.5-36.085a8.01 8.01 0 0 1-4-6.928v-72.171a8.01 8.01 0 0 1 4-6.928l62.5-36.086Z" clip-rule="evenodd"/>
  <defs>
    <radialGradient id="a" cx="0" cy="0" r="1" gradientTransform="matrix(450.00013 140.99993 -113.11676 361.01123 197 114)" gradientUnits="userSpaceOnUse">
      <stop stop-color="#17D4A7" stop-opacity=".3"/>
      <stop offset="1" stop-color="#17D4A7" stop-opacity="0"/>
    </radialGradient>
    <radialGradient id="b" cx="0" cy="0" r="1" gradientTransform="rotate(-142.214 476.881 51.84) scale(225.229 251.849)" gradientUnits="userSpaceOnUse">
      <stop stop-color="#17D4A7" stop-opacity=".5"/>
      <stop offset="1" stop-color="#17D4A7" stop-opacity="0"/>
    </radialGradient>
  </defs>
</svg>
