<svg xmlns="http://www.w3.org/2000/svg" width="360" height="559" fill="none">
  <g opacity=".64" style="mix-blend-mode:overlay">
    <path fill="#17233A" d="m232.5 124 2.055 7.443a17.2 17.2 0 0 0 12.002 12.002L254 145.5l-7.443 2.055a17.2 17.2 0 0 0-12.002 12.002L232.5 167l-2.055-7.443a17.2 17.2 0 0 0-12.002-12.002L211 145.5l7.443-2.055a17.2 17.2 0 0 0 12.002-12.002zm0 275 2.055 7.443a17.2 17.2 0 0 0 12.002 12.002L254 420.5l-7.443 2.055a17.2 17.2 0 0 0-12.002 12.002L232.5 442l-2.055-7.443a17.2 17.2 0 0 0-12.002-12.002L211 420.5l7.443-2.055a17.2 17.2 0 0 0 12.002-12.002zm-116 0 2.055 7.443a17.2 17.2 0 0 0 12.002 12.002L138 420.5l-7.443 2.055a17.2 17.2 0 0 0-12.002 12.002L116.5 442l-2.055-7.443a17.2 17.2 0 0 0-12.002-12.002L95 420.5l7.443-2.055a17.2 17.2 0 0 0 12.002-12.002z"/>
    <circle cx="94.5" cy="311.5" r="13.5" fill="#17233A"/>
    <path stroke="#17233A" stroke-width="1.5" d="M103.75 525.75h25.5v25.5h-25.5z"/>
    <path stroke="#17233A" d="M-213.5 261H-10c70.14 0 127 56.86 127 127v150m116-668c0 151.878-123.569 275-276 275m276-275c0 151.878 123.569 275 276 275"/>
    <path stroke="#17233A" d="M-42.5 145.5h275v275h-275zm276 0h275v275h-275z"/>
  </g>
</svg>
