<svg xmlns="http://www.w3.org/2000/svg" width="16" height="16" fill="none">
  <path fill="#1D1B20" d="M8 14.667a.62.62 0 0 1-.4-.134.8.8 0 0 1-.25-.35 9.3 9.3 0 0 0-.8-1.75q-.466-.816-1.317-1.916a15 15 0 0 1-1.383-2.1q-.517-1-.517-2.417 0-1.95 1.35-3.3Q6.05 1.333 8 1.333T11.3 2.7q1.367 1.35 1.367 3.3 0 1.516-.584 2.533a17.5 17.5 0 0 1-1.316 1.984q-.9 1.2-1.367 2-.45.783-.75 1.666a.75.75 0 0 1-.267.367.65.65 0 0 1-.383.117m0-2.384q.283-.566.633-1.116Q9 10.617 9.7 9.7q.717-.933 1.167-1.717.466-.8.466-1.983 0-1.384-.983-2.35A3.17 3.17 0 0 0 8 2.667q-1.383 0-2.367.983-.966.966-.966 2.35 0 1.184.45 1.983A18 18 0 0 0 6.3 9.7q.7.917 1.05 1.467.366.55.65 1.116m0-4.616a1.6 1.6 0 0 0 1.183-.484A1.6 1.6 0 0 0 9.667 6a1.6 1.6 0 0 0-.484-1.183A1.6 1.6 0 0 0 8 4.333a1.6 1.6 0 0 0-1.183.484A1.6 1.6 0 0 0 6.333 6q0 .7.484 1.183A1.6 1.6 0 0 0 8 7.667"/>
</svg>
