<svg xmlns="http://www.w3.org/2000/svg" width="68" height="68" fill="none">
  <g clip-path="url(#a)">
    <path fill="url(#b)" d="M30 2.31a8 8 0 0 1 8 0l21.445 12.38a8 8 0 0 1 4 6.929V46.38a8 8 0 0 1-4 6.928L38 65.691a8 8 0 0 1-8 0L8.555 53.309a8 8 0 0 1-4-6.928V21.62a8 8 0 0 1 4-6.928z"/>
    <path stroke="#69E7C8" stroke-width="1.5" d="M30.375 4.959a7.25 7.25 0 0 1 7.25 0L57.338 16.34a7.25 7.25 0 0 1 3.625 6.279V45.38a7.25 7.25 0 0 1-3.625 6.279L37.625 63.04a7.25 7.25 0 0 1-7.25 0L10.662 51.66a7.25 7.25 0 0 1-3.625-6.279V22.62a7.25 7.25 0 0 1 3.625-6.279L30.375 4.96Z"/>
  </g>
  <defs>
    <linearGradient id="b" x1="34" x2="34" y1="0" y2="68" gradientUnits="userSpaceOnUse">
      <stop stop-color="#17D4A7"/>
      <stop offset="1" stop-color="#17D4A7"/>
    </linearGradient>
    <clipPath id="a">
      <path fill="#fff" d="M0 0h68v68H0z"/>
    </clipPath>
  </defs>
</svg>
