<svg xmlns="http://www.w3.org/2000/svg" width="289" height="288" fill="none">
  <path fill="url(#a)" fill-rule="evenodd" d="M283.578 39.151 221.077 3.066a6 6 0 0 0-6 0l-62.502 36.085a6 6 0 0 0-3 5.197v72.17a6 6 0 0 0 3 5.196l62.502 36.086a6 6 0 0 0 6 0l62.501-36.086a6 6 0 0 0 3-5.196v-72.17a6 6 0 0 0-3-5.197M222.077 1.334a8 8 0 0 0-8 0l-62.502 36.085a8 8 0 0 0-4 6.929v72.17a8 8 0 0 0 4 6.928l62.502 36.086a8 8 0 0 0 8 0l62.501-36.086a8 8 0 0 0 4-6.928v-72.17c0-2.859-1.524-5.5-4-6.929zM136.578 39.88 74.077 3.795a6 6 0 0 0-6 0L5.575 39.88a6 6 0 0 0-3 5.196v72.171a6 6 0 0 0 3 5.196l62.502 36.086a6 6 0 0 0 6 0l62.501-36.086a6 6 0 0 0 3-5.196v-72.17a6 6 0 0 0-3-5.197M75.077 2.063a8 8 0 0 0-8 0L4.575 38.148a8 8 0 0 0-4 6.928v72.171a8 8 0 0 0 4 6.928l62.502 36.086a8 8 0 0 0 8 0l62.501-36.086a8 8 0 0 0 4-6.928v-72.17c0-2.859-1.524-5.5-4-6.929zm72.47 128.368 62.501 36.085a6 6 0 0 1 3 5.196v72.171a6 6 0 0 1-3 5.196l-62.501 36.085a6 6 0 0 1-6 0l-62.502-36.085a6 6 0 0 1-3-5.196v-72.171a6 6 0 0 1 3-5.196l62.502-36.085a6 6 0 0 1 6 0m-7-1.732a8 8 0 0 1 8 0l62.501 36.085a8 8 0 0 1 4 6.928v72.171a8 8 0 0 1-4 6.928l-62.501 36.086a8 8 0 0 1-8 0l-62.502-36.086a8 8 0 0 1-4-6.928v-72.171a8 8 0 0 1 4-6.928z" clip-rule="evenodd"/>
  <path fill="url(#b)" fill-rule="evenodd" d="M283.578 39.151 221.077 3.066a6 6 0 0 0-6 0l-62.502 36.085a6 6 0 0 0-3 5.197v72.17a6 6 0 0 0 3 5.196l62.502 36.086a6 6 0 0 0 6 0l62.501-36.086a6 6 0 0 0 3-5.196v-72.17a6 6 0 0 0-3-5.197M222.077 1.334a8 8 0 0 0-8 0l-62.502 36.085a8 8 0 0 0-4 6.929v72.17a8 8 0 0 0 4 6.928l62.502 36.086a8 8 0 0 0 8 0l62.501-36.086a8 8 0 0 0 4-6.928v-72.17c0-2.859-1.524-5.5-4-6.929zM136.578 39.88 74.077 3.795a6 6 0 0 0-6 0L5.575 39.88a6 6 0 0 0-3 5.196v72.171a6 6 0 0 0 3 5.196l62.502 36.086a6 6 0 0 0 6 0l62.501-36.086a6 6 0 0 0 3-5.196v-72.17a6 6 0 0 0-3-5.197M75.077 2.063a8 8 0 0 0-8 0L4.575 38.148a8 8 0 0 0-4 6.928v72.171a8 8 0 0 0 4 6.928l62.502 36.086a8 8 0 0 0 8 0l62.501-36.086a8 8 0 0 0 4-6.928v-72.17c0-2.859-1.524-5.5-4-6.929zm72.47 128.368 62.501 36.085a6 6 0 0 1 3 5.196v72.171a6 6 0 0 1-3 5.196l-62.501 36.085a6 6 0 0 1-6 0l-62.502-36.085a6 6 0 0 1-3-5.196v-72.171a6 6 0 0 1 3-5.196l62.502-36.085a6 6 0 0 1 6 0m-7-1.732a8 8 0 0 1 8 0l62.501 36.085a8 8 0 0 1 4 6.928v72.171a8 8 0 0 1-4 6.928l-62.501 36.086a8 8 0 0 1-8 0l-62.502-36.086a8 8 0 0 1-4-6.928v-72.171a8 8 0 0 1 4-6.928z" clip-rule="evenodd"/>
  <defs>
    <radialGradient id="a" cx="0" cy="0" r="1" gradientTransform="rotate(-65.509 318.354 113.269)scale(333.506 283.055)" gradientUnits="userSpaceOnUse">
      <stop stop-color="#17D4A7" stop-opacity=".5"/>
      <stop offset="1" stop-color="#17D4A7" stop-opacity="0"/>
    </radialGradient>
    <radialGradient id="b" cx="0" cy="0" r="1" gradientTransform="matrix(42.33588 100.4999 -69.19447 29.14837 67.098 124.525)" gradientUnits="userSpaceOnUse">
      <stop stop-color="#174BFF"/>
      <stop offset="1" stop-color="#174BFF" stop-opacity="0"/>
    </radialGradient>
  </defs>
</svg>
