<svg xmlns="http://www.w3.org/2000/svg" width="363" height="416" fill="none">
  <path fill="url(#a)" fill-rule="evenodd" d="M210.44 38.89 147.938 2.803a6 6 0 0 0-6 0L79.437 38.889a6 6 0 0 0-3 5.196v72.171a6 6 0 0 0 3 5.196l62.501 36.086a6 6 0 0 0 6 0l62.502-36.086a6 6 0 0 0 3-5.196v-72.17a6 6 0 0 0-3-5.197ZM148.938 1.071a8 8 0 0 0-8 0L78.437 37.157a8 8 0 0 0-4 6.928v72.171a8 8 0 0 0 4 6.928l62.501 36.086a8 8 0 0 0 8 0l62.502-36.086a8 8 0 0 0 4-6.928v-72.17a8 8 0 0 0-4-6.929L148.938 1.072Zm208.879 37.817L295.315 2.804a6 6 0 0 0-6 0l-62.502 36.085a6 6 0 0 0-3 5.196v72.171a6 6 0 0 0 3 5.196l62.502 36.086a6 6 0 0 0 6 0l62.502-36.086a6 6 0 0 0 3-5.196v-72.17a6 6 0 0 0-3-5.197ZM296.315 1.072a8 8 0 0 0-8 0l-62.502 36.085a8 8 0 0 0-4 6.928v72.171a8 8 0 0 0 4 6.928l62.502 36.086a8 8 0 0 0 8 0l62.502-36.086a8 8 0 0 0 4-6.928v-72.17a8 8 0 0 0-4-6.929zM147.938 257.533l62.502 36.085a6 6 0 0 1 3 5.196v72.171a6 6 0 0 1-3 5.196l-62.502 36.085a6 6 0 0 1-6 0l-62.501-36.085a6 6 0 0 1-3-5.196v-72.171a6 6 0 0 1 3-5.196l62.501-36.085a6 6 0 0 1 6 0m-7-1.732a8 8 0 0 1 8 0l62.502 36.085a8 8 0 0 1 4 6.928v72.171a8 8 0 0 1-4 6.928l-62.502 36.085a8 8 0 0 1-8 0l-62.501-36.085a8 8 0 0 1-4-6.928v-72.171a8 8 0 0 1 4-6.928zm143.032-89.547-62.502-36.086a6 6 0 0 0-6 0l-62.501 36.086a6 6 0 0 0-3 5.196v72.171a6 6 0 0 0 3 5.196l62.501 36.085a6 6 0 0 0 6 0l62.502-36.085a6 6 0 0 0 3-5.196V171.45a6 6 0 0 0-3-5.196m-61.502-37.818a8 8 0 0 0-8 0l-62.501 36.086a8 8 0 0 0-4 6.928v72.171a8 8 0 0 0 4 6.928l62.501 36.085a8 8 0 0 0 8 0l62.502-36.085a8 8 0 0 0 4-6.928V171.45a8 8 0 0 0-4-6.928zm-148.06 1.732 62.502 36.086a6 6 0 0 1 3 5.196v72.171a6 6 0 0 1-3 5.196l-62.502 36.085a6 6 0 0 1-6 0L5.907 248.817a6 6 0 0 1-3-5.196V171.45a6 6 0 0 1 3-5.196l62.501-36.086a6 6 0 0 1 6 0m-7-1.732a8 8 0 0 1 8 0l62.502 36.086a8 8 0 0 1 4 6.928v72.171a8 8 0 0 1-4 6.928l-62.502 36.085a8 8 0 0 1-8 0L4.907 250.549a8 8 0 0 1-4-6.928V171.45a8 8 0 0 1 4-6.928z" clip-rule="evenodd"/>
  <path fill="url(#b)" fill-rule="evenodd" d="M210.44 38.89 147.938 2.803a6 6 0 0 0-6 0L79.437 38.889a6 6 0 0 0-3 5.196v72.171a6 6 0 0 0 3 5.196l62.501 36.086a6 6 0 0 0 6 0l62.502-36.086a6 6 0 0 0 3-5.196v-72.17a6 6 0 0 0-3-5.197ZM148.938 1.071a8 8 0 0 0-8 0L78.437 37.157a8 8 0 0 0-4 6.928v72.171a8 8 0 0 0 4 6.928l62.501 36.086a8 8 0 0 0 8 0l62.502-36.086a8 8 0 0 0 4-6.928v-72.17a8 8 0 0 0-4-6.929L148.938 1.072Zm208.879 37.817L295.315 2.804a6 6 0 0 0-6 0l-62.502 36.085a6 6 0 0 0-3 5.196v72.171a6 6 0 0 0 3 5.196l62.502 36.086a6 6 0 0 0 6 0l62.502-36.086a6 6 0 0 0 3-5.196v-72.17a6 6 0 0 0-3-5.197ZM296.315 1.072a8 8 0 0 0-8 0l-62.502 36.085a8 8 0 0 0-4 6.928v72.171a8 8 0 0 0 4 6.928l62.502 36.086a8 8 0 0 0 8 0l62.502-36.086a8 8 0 0 0 4-6.928v-72.17a8 8 0 0 0-4-6.929zM147.938 257.533l62.502 36.085a6 6 0 0 1 3 5.196v72.171a6 6 0 0 1-3 5.196l-62.502 36.085a6 6 0 0 1-6 0l-62.501-36.085a6 6 0 0 1-3-5.196v-72.171a6 6 0 0 1 3-5.196l62.501-36.085a6 6 0 0 1 6 0m-7-1.732a8 8 0 0 1 8 0l62.502 36.085a8 8 0 0 1 4 6.928v72.171a8 8 0 0 1-4 6.928l-62.502 36.085a8 8 0 0 1-8 0l-62.501-36.085a8 8 0 0 1-4-6.928v-72.171a8 8 0 0 1 4-6.928zm143.032-89.547-62.502-36.086a6 6 0 0 0-6 0l-62.501 36.086a6 6 0 0 0-3 5.196v72.171a6 6 0 0 0 3 5.196l62.501 36.085a6 6 0 0 0 6 0l62.502-36.085a6 6 0 0 0 3-5.196V171.45a6 6 0 0 0-3-5.196m-61.502-37.818a8 8 0 0 0-8 0l-62.501 36.086a8 8 0 0 0-4 6.928v72.171a8 8 0 0 0 4 6.928l62.501 36.085a8 8 0 0 0 8 0l62.502-36.085a8 8 0 0 0 4-6.928V171.45a8 8 0 0 0-4-6.928zm-148.06 1.732 62.502 36.086a6 6 0 0 1 3 5.196v72.171a6 6 0 0 1-3 5.196l-62.502 36.085a6 6 0 0 1-6 0L5.907 248.817a6 6 0 0 1-3-5.196V171.45a6 6 0 0 1 3-5.196l62.501-36.086a6 6 0 0 1 6 0m-7-1.732a8 8 0 0 1 8 0l62.502 36.086a8 8 0 0 1 4 6.928v72.171a8 8 0 0 1-4 6.928l-62.502 36.085a8 8 0 0 1-8 0L4.907 250.549a8 8 0 0 1-4-6.928V171.45a8 8 0 0 1 4-6.928z" clip-rule="evenodd"/>
  <defs>
    <radialGradient id="a" cx="0" cy="0" r="1" gradientTransform="rotate(-55.447 364.723 127.932)scale(368.501 387.263)" gradientUnits="userSpaceOnUse">
      <stop stop-color="#17D4A7" stop-opacity=".5"/>
      <stop offset="1" stop-color="#17D4A7" stop-opacity="0"/>
    </radialGradient>
    <radialGradient id="b" cx="0" cy="0" r="1" gradientTransform="matrix(64.00063 100.49958 -87.628 55.80369 28 124.26)" gradientUnits="userSpaceOnUse">
      <stop stop-color="#174BFF"/>
      <stop offset="1" stop-color="#174BFF" stop-opacity="0"/>
    </radialGradient>
  </defs>
</svg>
