<svg xmlns="http://www.w3.org/2000/svg" width="510" height="289" fill="none">
  <path fill="url(#a)" fill-rule="evenodd" d="M357.533 38.89 295.032 2.803a6 6 0 0 0-6 0L226.53 38.889a6 6 0 0 0-3 5.196v72.171a6 6 0 0 0 3 5.196l62.502 36.086a6 6 0 0 0 6 0l62.501-36.086a6 6 0 0 0 3-5.196v-72.17a6 6 0 0 0-3-5.197ZM296.032 1.071a8 8 0 0 0-8 0L225.53 37.157a8 8 0 0 0-4 6.928v72.171a8 8 0 0 0 4 6.928l62.502 36.086a8 8 0 0 0 8 0l62.501-36.086a8 8 0 0 0 4-6.928v-72.17c0-2.859-1.524-5.5-4-6.929L296.032 1.072ZM504.91 38.889 442.408 2.804a6 6 0 0 0-6 0l-62.501 36.085a6 6 0 0 0-3 5.196v72.171a6 6 0 0 0 3 5.196l62.501 36.086a6 6 0 0 0 6 0l62.502-36.086a6 6 0 0 0 3-5.196v-72.17a6 6 0 0 0-3-5.197M443.408 1.072a8 8 0 0 0-8 0l-62.501 36.085a8 8 0 0 0-4 6.928v72.171a8 8 0 0 0 4 6.928l62.501 36.086a8 8 0 0 0 8 0l62.502-36.086a8 8 0 0 0 4-6.928v-72.17a8 8 0 0 0-4-6.929zM74.032 130.533l62.501 36.085a6 6 0 0 1 3 5.196v72.171a6 6 0 0 1-3 5.196l-62.501 36.085a6 6 0 0 1-6 0L5.53 249.181a6 6 0 0 1-3-5.196v-72.171a6 6 0 0 1 3-5.196l62.502-36.085a6 6 0 0 1 6 0m-7-1.733a8 8 0 0 1 8 0l62.501 36.086a8 8 0 0 1 4 6.928v72.171a8 8 0 0 1-4 6.928l-62.501 36.085a8 8 0 0 1-8 0L4.53 250.913a8 8 0 0 1-4-6.928v-72.171a8 8 0 0 1 4-6.928zm364.032 37.454-62.502-36.086a6 6 0 0 0-6 0l-62.502 36.086a6 6 0 0 0-3 5.196v72.17a6 6 0 0 0 3 5.197l62.502 36.085a6 6 0 0 0 6 0l62.502-36.085a6 6 0 0 0 3-5.197v-72.17a6 6 0 0 0-3-5.196m-61.502-37.818a8 8 0 0 0-8 0l-62.502 36.086a8 8 0 0 0-4 6.928v72.17a8 8 0 0 0 4 6.929l62.502 36.085a8 8 0 0 0 8 0l62.502-36.085a8 8 0 0 0 4-6.929v-72.17a8 8 0 0 0-4-6.928zm-148.06 1.732 62.501 36.086a6 6 0 0 1 3 5.196v72.17a6 6 0 0 1-3 5.197l-62.501 36.085a6 6 0 0 1-6 0L153 248.817a6 6 0 0 1-3-5.197v-72.17a6 6 0 0 1 3-5.196l62.502-36.086a6 6 0 0 1 6 0m-7-1.732a8 8 0 0 1 8 0l62.501 36.086a8 8 0 0 1 4 6.928v72.17c0 2.859-1.524 5.5-4 6.929l-62.501 36.085a8 8 0 0 1-8 0L152 250.549a8 8 0 0 1-4-6.929v-72.17a8 8 0 0 1 4-6.928z" clip-rule="evenodd"/>
  <path fill="url(#b)" fill-rule="evenodd" d="M357.533 38.89 295.032 2.803a6 6 0 0 0-6 0L226.53 38.889a6 6 0 0 0-3 5.196v72.171a6 6 0 0 0 3 5.196l62.502 36.086a6 6 0 0 0 6 0l62.501-36.086a6 6 0 0 0 3-5.196v-72.17a6 6 0 0 0-3-5.197ZM296.032 1.071a8 8 0 0 0-8 0L225.53 37.157a8 8 0 0 0-4 6.928v72.171a8 8 0 0 0 4 6.928l62.502 36.086a8 8 0 0 0 8 0l62.501-36.086a8 8 0 0 0 4-6.928v-72.17c0-2.859-1.524-5.5-4-6.929L296.032 1.072ZM504.91 38.889 442.408 2.804a6 6 0 0 0-6 0l-62.501 36.085a6 6 0 0 0-3 5.196v72.171a6 6 0 0 0 3 5.196l62.501 36.086a6 6 0 0 0 6 0l62.502-36.086a6 6 0 0 0 3-5.196v-72.17a6 6 0 0 0-3-5.197M443.408 1.072a8 8 0 0 0-8 0l-62.501 36.085a8 8 0 0 0-4 6.928v72.171a8 8 0 0 0 4 6.928l62.501 36.086a8 8 0 0 0 8 0l62.502-36.086a8 8 0 0 0 4-6.928v-72.17a8 8 0 0 0-4-6.929zM74.032 130.533l62.501 36.085a6 6 0 0 1 3 5.196v72.171a6 6 0 0 1-3 5.196l-62.501 36.085a6 6 0 0 1-6 0L5.53 249.181a6 6 0 0 1-3-5.196v-72.171a6 6 0 0 1 3-5.196l62.502-36.085a6 6 0 0 1 6 0m-7-1.733a8 8 0 0 1 8 0l62.501 36.086a8 8 0 0 1 4 6.928v72.171a8 8 0 0 1-4 6.928l-62.501 36.085a8 8 0 0 1-8 0L4.53 250.913a8 8 0 0 1-4-6.928v-72.171a8 8 0 0 1 4-6.928zm364.032 37.454-62.502-36.086a6 6 0 0 0-6 0l-62.502 36.086a6 6 0 0 0-3 5.196v72.17a6 6 0 0 0 3 5.197l62.502 36.085a6 6 0 0 0 6 0l62.502-36.085a6 6 0 0 0 3-5.197v-72.17a6 6 0 0 0-3-5.196m-61.502-37.818a8 8 0 0 0-8 0l-62.502 36.086a8 8 0 0 0-4 6.928v72.17a8 8 0 0 0 4 6.929l62.502 36.085a8 8 0 0 0 8 0l62.502-36.085a8 8 0 0 0 4-6.929v-72.17a8 8 0 0 0-4-6.928zm-148.06 1.732 62.501 36.086a6 6 0 0 1 3 5.196v72.17a6 6 0 0 1-3 5.197l-62.501 36.085a6 6 0 0 1-6 0L153 248.817a6 6 0 0 1-3-5.197v-72.17a6 6 0 0 1 3-5.196l62.502-36.086a6 6 0 0 1 6 0m-7-1.732a8 8 0 0 1 8 0l62.501 36.086a8 8 0 0 1 4 6.928v72.17c0 2.859-1.524 5.5-4 6.929l-62.501 36.085a8 8 0 0 1-8 0L152 250.549a8 8 0 0 1-4-6.929v-72.17a8 8 0 0 1 4-6.928z" clip-rule="evenodd"/>
  <defs>
    <radialGradient id="a" cx="0" cy="0" r="1" gradientTransform="rotate(-55.447 438.27 -12.012)scale(368.501 387.263)" gradientUnits="userSpaceOnUse">
      <stop stop-color="#17D4A7" stop-opacity=".5"/>
      <stop offset="1" stop-color="#17D4A7" stop-opacity="0"/>
    </radialGradient>
    <radialGradient id="b" cx="0" cy="0" r="1" gradientTransform="matrix(64.0001 100.49991 -87.62828 55.80323 175.093 124.262)" gradientUnits="userSpaceOnUse">
      <stop stop-color="#174BFF"/>
      <stop offset="1" stop-color="#174BFF" stop-opacity="0"/>
    </radialGradient>
  </defs>
</svg>
