<svg xmlns="http://www.w3.org/2000/svg" width="363" height="288" fill="none">
  <path fill="url(#a)" fill-rule="evenodd" d="M284.533 39.255 222.032 3.169a6 6 0 0 0-6 0L153.53 39.255a6 6 0 0 0-3 5.196v72.171a6.002 6.002 0 0 0 3 5.196l62.502 36.085a5.999 5.999 0 0 0 6 0l62.501-36.085a6 6 0 0 0 3-5.196V44.451a5.999 5.999 0 0 0-3-5.196ZM223.032 1.437a8 8 0 0 0-8 0L152.53 37.523a8 8 0 0 0-4 6.928v72.171a8 8 0 0 0 4 6.928l62.502 36.085a8 8 0 0 0 8 0l62.501-36.085a7.998 7.998 0 0 0 4-6.928V44.451c0-2.858-1.524-5.5-4-6.928L223.032 1.437Zm-75 128.731 62.501 36.086a5.998 5.998 0 0 1 3 5.196v72.171a6 6 0 0 1-3 5.196l-62.501 36.085a5.999 5.999 0 0 1-6 0L79.53 248.817a6 6 0 0 1-3-5.196V171.45a6 6 0 0 1 3-5.196l62.502-36.086a6.004 6.004 0 0 1 6 0Zm-7-1.732a8 8 0 0 1 8 0l62.501 36.086a7.998 7.998 0 0 1 4 6.928v72.171a7.998 7.998 0 0 1-4 6.928l-62.501 36.085a8 8 0 0 1-8 0L78.53 250.549a8 8 0 0 1-4-6.928V171.45a8 8 0 0 1 4-6.928l62.502-36.086Zm154 1.732 62.501 36.086a5.998 5.998 0 0 1 3 5.196v72.171a6 6 0 0 1-3 5.196l-62.501 36.085a5.999 5.999 0 0 1-6 0l-62.502-36.085a6.002 6.002 0 0 1-3-5.196V171.45a6 6 0 0 1 3-5.196l62.502-36.086a6.004 6.004 0 0 1 6 0Zm-7-1.732a8 8 0 0 1 8 0l62.501 36.086a7.998 7.998 0 0 1 4 6.928v72.171a7.998 7.998 0 0 1-4 6.928l-62.501 36.085a8 8 0 0 1-8 0l-62.502-36.085a8 8 0 0 1-4-6.928V171.45a8 8 0 0 1 4-6.928l62.502-36.086Zm-214-125.267 62.501 36.086a5.999 5.999 0 0 1 3 5.196v72.171a6 6 0 0 1-3 5.196l-62.501 36.085a5.999 5.999 0 0 1-6 0L5.53 121.818a6 6 0 0 1-3-5.196V44.451a6 6 0 0 1 3-5.196L68.032 3.169a6 6 0 0 1 6 0Zm-7-1.732a8 8 0 0 1 8 0l62.501 36.086a7.998 7.998 0 0 1 4 6.928v72.171a7.998 7.998 0 0 1-4 6.928l-62.501 36.085a8 8 0 0 1-8 0L4.53 123.55a8 8 0 0 1-4-6.928V44.451a8 8 0 0 1 4-6.928L67.032 1.437Z" clip-rule="evenodd"/>
  <path fill="url(#b)" fill-rule="evenodd" d="M284.533 39.255 222.032 3.169a6 6 0 0 0-6 0L153.53 39.255a6 6 0 0 0-3 5.196v72.171a6.002 6.002 0 0 0 3 5.196l62.502 36.085a5.999 5.999 0 0 0 6 0l62.501-36.085a6 6 0 0 0 3-5.196V44.451a5.999 5.999 0 0 0-3-5.196ZM223.032 1.437a8 8 0 0 0-8 0L152.53 37.523a8 8 0 0 0-4 6.928v72.171a8 8 0 0 0 4 6.928l62.502 36.085a8 8 0 0 0 8 0l62.501-36.085a7.998 7.998 0 0 0 4-6.928V44.451c0-2.858-1.524-5.5-4-6.928L223.032 1.437Zm-75 128.731 62.501 36.086a5.998 5.998 0 0 1 3 5.196v72.171a6 6 0 0 1-3 5.196l-62.501 36.085a5.999 5.999 0 0 1-6 0L79.53 248.817a6 6 0 0 1-3-5.196V171.45a6 6 0 0 1 3-5.196l62.502-36.086a6.004 6.004 0 0 1 6 0Zm-7-1.732a8 8 0 0 1 8 0l62.501 36.086a7.998 7.998 0 0 1 4 6.928v72.171a7.998 7.998 0 0 1-4 6.928l-62.501 36.085a8 8 0 0 1-8 0L78.53 250.549a8 8 0 0 1-4-6.928V171.45a8 8 0 0 1 4-6.928l62.502-36.086Zm154 1.732 62.501 36.086a5.998 5.998 0 0 1 3 5.196v72.171a6 6 0 0 1-3 5.196l-62.501 36.085a5.999 5.999 0 0 1-6 0l-62.502-36.085a6.002 6.002 0 0 1-3-5.196V171.45a6 6 0 0 1 3-5.196l62.502-36.086a6.004 6.004 0 0 1 6 0Zm-7-1.732a8 8 0 0 1 8 0l62.501 36.086a7.998 7.998 0 0 1 4 6.928v72.171a7.998 7.998 0 0 1-4 6.928l-62.501 36.085a8 8 0 0 1-8 0l-62.502-36.085a8 8 0 0 1-4-6.928V171.45a8 8 0 0 1 4-6.928l62.502-36.086Zm-214-125.267 62.501 36.086a5.999 5.999 0 0 1 3 5.196v72.171a6 6 0 0 1-3 5.196l-62.501 36.085a5.999 5.999 0 0 1-6 0L5.53 121.818a6 6 0 0 1-3-5.196V44.451a6 6 0 0 1 3-5.196L68.032 3.169a6 6 0 0 1 6 0Zm-7-1.732a8 8 0 0 1 8 0l62.501 36.086a7.998 7.998 0 0 1 4 6.928v72.171a7.998 7.998 0 0 1-4 6.928l-62.501 36.085a8 8 0 0 1-8 0L4.53 123.55a8 8 0 0 1-4-6.928V44.451a8 8 0 0 1 4-6.928L67.032 1.437Z" clip-rule="evenodd"/>
  <defs>
    <radialGradient id="a" cx="0" cy="0" r="1" gradientTransform="matrix(120.50028 -120.00036 118.26873 118.76144 61.5 241)" gradientUnits="userSpaceOnUse">
      <stop stop-color="#2E67EA"/>
      <stop offset="1" stop-color="#2E67EA" stop-opacity="0"/>
    </radialGradient>
    <radialGradient id="b" cx="0" cy="0" r="1" gradientTransform="rotate(119.726 138.585 141.29) scale(128.985 148.915)" gradientUnits="userSpaceOnUse">
      <stop stop-color="#17D4A7" stop-opacity=".5"/>
      <stop offset="1" stop-color="#17D4A7" stop-opacity="0"/>
    </radialGradient>
  </defs>
</svg>
