<svg xmlns="http://www.w3.org/2000/svg" width="67" height="53" fill="none">
  <path fill="#fff" stroke="#E7E7EE" stroke-linecap="round" stroke-miterlimit="10" stroke-width="2" d="m57.536 10.284-56.1 4v28.685c0 4.643 3.938 8.31 8.569 7.98l40.1-2.859a8 8 0 0 0 7.431-7.98V10.284Z"/>
  <path fill="#17233A" stroke="#E7E7EE" stroke-linecap="round" stroke-miterlimit="10" stroke-width="2" d="M49.708 1.994 8.867 4.906a8 8 0 0 0-7.431 7.98v.398l56.1-4a7.309 7.309 0 0 0-7.828-7.29Z"/>
  <path fill="#E7E7EE" stroke="#E7E7EE" stroke-linecap="round" stroke-miterlimit="10" stroke-width="2" d="M51.708 1.994 10.867 4.906a8 8 0 0 0-7.431 7.98v.398l56.1-4a7.309 7.309 0 0 0-7.828-7.29Z"/>
  <path fill="#B8B8CC" d="M8.982 10.919a1.66 1.66 0 1 0 0-3.319 1.66 1.66 0 0 0 0 3.319Zm4.616-.4a1.66 1.66 0 1 0 0-3.32 1.66 1.66 0 0 0 0 3.32Zm4.617-.348a1.66 1.66 0 1 0 0-3.318 1.66 1.66 0 0 0 0 3.319Z"/>
  <path fill="#fff" stroke="#E7E7EE" stroke-linecap="round" stroke-miterlimit="10" stroke-width="2" d="m59.536 9.284-56.1 4v30.685c0 4.643 3.938 8.31 8.569 7.98l40.1-2.859a8 8 0 0 0 7.431-7.98V9.284Z"/>
  <g filter="url(#a)">
    <path fill="#17D4A7" stroke="#69E7C8" stroke-linecap="round" stroke-linejoin="round" stroke-width="2" d="m58.063 23.743.002.003a9.237 9.237 0 0 1 1.665 3.932 5.857 5.857 0 0 1 3.462 1.56l-.686.727.685-.728a5.771 5.771 0 0 1 1.364 1.961 5.73 5.73 0 0 1 .45 2.343 6.527 6.527 0 0 1-1.825 4.4 6.625 6.625 0 0 1-4.335 2.014h-.005l-32.737 2.03a7.586 7.586 0 0 1-3.067-.4 7.541 7.541 0 0 1-2.652-1.596 7.469 7.469 0 0 1-1.78-2.524A7.42 7.42 0 0 1 18 34.44l40.062-10.697Zm0 0a9.096 9.096 0 0 0-4.108-3.099h-.002m4.11 3.099-4.11-3.1m0 0a9.75 9.75 0 0 0-5.222-.444c-.513.097-1.017.231-1.507.401-.425.148-1.013.123-1.61-.107-.595-.23-1.07-.616-1.311-1.022v-.001m9.65 1.173-9.65-1.173m0 0a9.03 9.03 0 0 0-2.627-2.814h0m2.626 2.814-2.627-2.814m0 0a9.287 9.287 0 0 0-3.582-1.489l3.582 1.489Zm-15.767 9.398a8.618 8.618 0 0 0-5.57 2.651 8.485 8.485 0 0 0-2.337 5.735l7.907-8.386Zm0 0a9.709 9.709 0 0 1 .18-2.715 10.345 10.345 0 0 1 1.555-3.67 10.687 10.687 0 0 1 2.836-2.85 10.492 10.492 0 0 1 3.671-1.587l-8.242 10.822Zm12.185-10.887a9.909 9.909 0 0 0-3.943.065l3.943-.065Z"/>
  </g>
  <defs>
    <filter id="a" width="62.006" height="39.006" x="4" y="11" color-interpolation-filters="sRGB" filterUnits="userSpaceOnUse">
      <feFlood flood-opacity="0" result="BackgroundImageFix"/>
      <feColorMatrix in="SourceAlpha" result="hardAlpha" values="0 0 0 0 0 0 0 0 0 0 0 0 0 0 0 0 0 0 127 0"/>
      <feOffset dx="-8" dy="2"/>
      <feGaussianBlur stdDeviation="2.5"/>
      <feComposite in2="hardAlpha" operator="out"/>
      <feColorMatrix values="0 0 0 0 0.0919117 0 0 0 0 0.830339 0 0 0 0 0.653116 0 0 0 0.25 0"/>
      <feBlend in2="BackgroundImageFix" result="effect1_dropShadow_4018_9774"/>
      <feBlend in="SourceGraphic" in2="effect1_dropShadow_4018_9774" result="shape"/>
    </filter>
  </defs>
</svg>
