<svg xmlns="http://www.w3.org/2000/svg" width="67" height="53" fill="none">
  <path fill="#fff" stroke="#E7E7EE" stroke-linecap="round" stroke-miterlimit="10" stroke-width="2" d="m57.536 10.284-56.1 4v28.685c0 4.643 3.938 8.31 8.569 7.98l40.1-2.859a8 8 0 0 0 7.431-7.98z"/>
  <path fill="#17233A" stroke="#E7E7EE" stroke-linecap="round" stroke-miterlimit="10" stroke-width="2" d="M49.708 1.994 8.867 4.906a8 8 0 0 0-7.431 7.98v.398l56.1-4a7.31 7.31 0 0 0-7.828-7.29Z"/>
  <path fill="#E7E7EE" stroke="#E7E7EE" stroke-linecap="round" stroke-miterlimit="10" stroke-width="2" d="M51.708 1.994 10.867 4.906a8 8 0 0 0-7.431 7.98v.398l56.1-4a7.31 7.31 0 0 0-7.828-7.29Z"/>
  <path fill="#B8B8CC" d="M8.982 10.919a1.66 1.66 0 1 0 0-3.319 1.66 1.66 0 0 0 0 3.319m4.616-.4a1.66 1.66 0 1 0 0-3.32 1.66 1.66 0 0 0 0 3.32m4.617-.348a1.66 1.66 0 1 0 0-3.318 1.66 1.66 0 0 0 0 3.319Z"/>
  <path fill="#fff" stroke="#E7E7EE" stroke-linecap="round" stroke-miterlimit="10" stroke-width="2" d="m59.536 9.284-56.1 4v30.685c0 4.643 3.938 8.31 8.569 7.98l40.1-2.859a8 8 0 0 0 7.431-7.98z"/>
  <g filter="url(#a)">
    <path fill="#17D4A7" stroke="#69E7C8" stroke-linecap="round" stroke-linejoin="round" stroke-width="2" d="m58.063 23.743.002.003a9.24 9.24 0 0 1 1.665 3.932 5.86 5.86 0 0 1 3.462 1.56l-.686.727.685-.728a5.8 5.8 0 0 1 1.364 1.961 5.7 5.7 0 0 1 .45 2.343 6.53 6.53 0 0 1-1.825 4.4 6.63 6.63 0 0 1-4.335 2.014h-.005l-32.737 2.03a7.6 7.6 0 0 1-3.067-.4 7.5 7.5 0 0 1-2.652-1.596 7.5 7.5 0 0 1-1.78-2.524A7.4 7.4 0 0 1 18 34.44l40.062-10.697Zm0 0a9.1 9.1 0 0 0-4.108-3.099h-.002m4.11 3.099-4.11-3.1m0 0a9.75 9.75 0 0 0-5.222-.444q-.77.146-1.507.401c-.425.148-1.013.123-1.61-.107-.595-.23-1.07-.616-1.311-1.022v-.001m9.65 1.173-9.65-1.173m0 0a9 9 0 0 0-2.627-2.814h0m2.626 2.814-2.627-2.814m0 0a9.3 9.3 0 0 0-3.582-1.489zm-15.767 9.398a8.62 8.62 0 0 0-5.57 2.651 8.5 8.5 0 0 0-2.337 5.735zm0 0a9.7 9.7 0 0 1 .18-2.715 10.4 10.4 0 0 1 1.555-3.67 10.7 10.7 0 0 1 2.836-2.85 10.5 10.5 0 0 1 3.671-1.587zm12.185-10.887a9.9 9.9 0 0 0-3.943.065z"/>
  </g>
  <defs>
    <filter id="a" width="62.006" height="39.006" x="4" y="11" color-interpolation-filters="sRGB" filterUnits="userSpaceOnUse">
      <feFlood flood-opacity="0" result="BackgroundImageFix"/>
      <feColorMatrix in="SourceAlpha" result="hardAlpha" values="0 0 0 0 0 0 0 0 0 0 0 0 0 0 0 0 0 0 127 0"/>
      <feOffset dx="-8" dy="2"/>
      <feGaussianBlur stdDeviation="2.5"/>
      <feComposite in2="hardAlpha" operator="out"/>
      <feColorMatrix values="0 0 0 0 0.0919117 0 0 0 0 0.830339 0 0 0 0 0.653116 0 0 0 0.25 0"/>
      <feBlend in2="BackgroundImageFix" result="effect1_dropShadow_4018_9774"/>
      <feBlend in="SourceGraphic" in2="effect1_dropShadow_4018_9774" result="shape"/>
    </filter>
  </defs>
</svg>
