<svg width="20" height="20" viewBox="0 0 20 20" fill="none" xmlns="http://www.w3.org/2000/svg">
<g clip-path="url(#clip0_3873_7864)">
<path d="M10 12.5C11.3807 12.5 12.5 11.3807 12.5 10C12.5 8.61929 11.3807 7.5 10 7.5C8.61929 7.5 7.5 8.61929 7.5 10C7.5 11.3807 8.61929 12.5 10 12.5Z" stroke="#17233A" stroke-width="2" stroke-linecap="round" stroke-linejoin="round"/>
<path d="M16.1666 12.5C16.0557 12.7513 16.0226 13.0301 16.0716 13.3005C16.1206 13.5708 16.2495 13.8202 16.4416 14.0166L16.4916 14.0666C16.6465 14.2214 16.7695 14.4052 16.8533 14.6076C16.9372 14.8099 16.9804 15.0268 16.9804 15.2458C16.9804 15.4648 16.9372 15.6817 16.8533 15.884C16.7695 16.0864 16.6465 16.2702 16.4916 16.425C16.3368 16.5799 16.153 16.7029 15.9507 16.7867C15.7483 16.8706 15.5314 16.9138 15.3124 16.9138C15.0934 16.9138 14.8765 16.8706 14.6742 16.7867C14.4719 16.7029 14.288 16.5799 14.1332 16.425L14.0833 16.375C13.8869 16.1829 13.6374 16.054 13.3671 16.005C13.0967 15.956 12.8179 15.989 12.5666 16.1C12.3201 16.2056 12.1099 16.381 11.9618 16.6046C11.8138 16.8282 11.7343 17.0902 11.7333 17.3583V17.5C11.7333 17.942 11.5577 18.3659 11.2451 18.6785C10.9325 18.991 10.5086 19.1666 10.0666 19.1666C9.62456 19.1666 9.20063 18.991 8.88807 18.6785C8.57551 18.3659 8.39992 17.942 8.39992 17.5V17.425C8.39347 17.1491 8.30418 16.8816 8.14368 16.6572C7.98317 16.4328 7.75886 16.2619 7.49992 16.1666C7.24857 16.0557 6.96976 16.0226 6.69943 16.0716C6.4291 16.1207 6.17965 16.2495 5.98325 16.4416L5.93325 16.4916C5.77846 16.6466 5.59465 16.7695 5.39232 16.8534C5.18999 16.9373 4.97311 16.9805 4.75408 16.9805C4.53506 16.9805 4.31818 16.9373 4.11585 16.8534C3.91352 16.7695 3.72971 16.6466 3.57492 16.4916C3.41996 16.3369 3.29703 16.153 3.21315 15.9507C3.12928 15.7484 3.08611 15.5315 3.08611 15.3125C3.08611 15.0935 3.12928 14.8766 3.21315 14.6742C3.29703 14.4719 3.41996 14.2881 3.57492 14.1333L3.62492 14.0833C3.81703 13.8869 3.94591 13.6375 3.99492 13.3671C4.04394 13.0968 4.01085 12.818 3.89992 12.5666C3.79428 12.3202 3.61888 12.11 3.39531 11.9619C3.17173 11.8138 2.90974 11.7344 2.64159 11.7333H2.49992C2.05789 11.7333 1.63397 11.5577 1.32141 11.2452C1.00885 10.9326 0.833252 10.5087 0.833252 10.0666C0.833252 9.62462 1.00885 9.2007 1.32141 8.88813C1.63397 8.57557 2.05789 8.39998 2.49992 8.39998H2.57492C2.85075 8.39353 3.11826 8.30424 3.34267 8.14374C3.56708 7.98323 3.73801 7.75893 3.83325 7.49998C3.94418 7.24863 3.97727 6.96982 3.92826 6.69949C3.87924 6.42916 3.75037 6.17971 3.55825 5.98331L3.50825 5.93331C3.35329 5.77852 3.23036 5.59471 3.14649 5.39238C3.06261 5.19005 3.01944 4.97317 3.01944 4.75415C3.01944 4.53512 3.06261 4.31824 3.14649 4.11591C3.23036 3.91358 3.35329 3.72977 3.50825 3.57498C3.66304 3.42002 3.84685 3.29709 4.04918 3.21321C4.25151 3.12934 4.46839 3.08617 4.68742 3.08617C4.90644 3.08617 5.12332 3.12934 5.32565 3.21321C5.52798 3.29709 5.7118 3.42002 5.86658 3.57498L5.91658 3.62498C6.11298 3.81709 6.36243 3.94597 6.63276 3.99498C6.90309 4.044 7.1819 4.01091 7.43325 3.89998H7.49992C7.74639 3.79434 7.9566 3.61894 8.10466 3.39537C8.25272 3.17179 8.33218 2.9098 8.33325 2.64165V2.49998C8.33325 2.05795 8.50885 1.63403 8.82141 1.32147C9.13397 1.00891 9.55789 0.833313 9.99992 0.833313C10.4419 0.833313 10.8659 1.00891 11.1784 1.32147C11.491 1.63403 11.6666 2.05795 11.6666 2.49998V2.57498C11.6677 2.84313 11.7471 3.10513 11.8952 3.3287C12.0432 3.55228 12.2534 3.72768 12.4999 3.83331C12.7513 3.94424 13.0301 3.97733 13.3004 3.92832C13.5707 3.8793 13.8202 3.75043 14.0166 3.55831L14.0666 3.50831C14.2214 3.35335 14.4052 3.23042 14.6075 3.14655C14.8098 3.06267 15.0267 3.0195 15.2458 3.0195C15.4648 3.0195 15.6817 3.06267 15.884 3.14655C16.0863 3.23042 16.2701 3.35335 16.4249 3.50831C16.5799 3.6631 16.7028 3.84692 16.7867 4.04925C16.8706 4.25158 16.9137 4.46845 16.9137 4.68748C16.9137 4.90651 16.8706 5.12338 16.7867 5.32571C16.7028 5.52804 16.5799 5.71186 16.4249 5.86665L16.3749 5.91665C16.1828 6.11305 16.0539 6.36249 16.0049 6.63282C15.9559 6.90315 15.989 7.18197 16.0999 7.43331V7.49998C16.2056 7.74645 16.381 7.95666 16.6045 8.10472C16.8281 8.25279 17.0901 8.33224 17.3583 8.33331H17.4999C17.9419 8.33331 18.3659 8.50891 18.6784 8.82147C18.991 9.13403 19.1666 9.55795 19.1666 9.99998C19.1666 10.442 18.991 10.8659 18.6784 11.1785C18.3659 11.4911 17.9419 11.6666 17.4999 11.6666H17.4249C17.1568 11.6677 16.8948 11.7472 16.6712 11.8952C16.4476 12.0433 16.2722 12.2535 16.1666 12.5V12.5Z" stroke="#17233A" stroke-width="2" stroke-linecap="round" stroke-linejoin="round"/>
</g>
<defs>
<clipPath id="clip0_3873_7864">
<rect width="20" height="20" fill="white"/>
</clipPath>
</defs>
</svg>
