<svg width="20" height="20" viewBox="0 0 20 20" fill="none" xmlns="http://www.w3.org/2000/svg">
  <g clip-path="url(#clip0_7173_3395)">
    <path d="M10 18.3333C14.6024 18.3333 18.3333 14.6023 18.3333 9.99996C18.3333 5.39759 14.6024 1.66663 10 1.66663C5.39763 1.66663 1.66667 5.39759 1.66667 9.99996C1.66667 14.6023 5.39763 18.3333 10 18.3333Z" stroke="#17233A" stroke-width="2" stroke-linecap="round" stroke-linejoin="round"/>
    <path d="M7.575 7.49999C7.77092 6.94304 8.15763 6.47341 8.66663 6.17426C9.17563 5.87512 9.77408 5.76577 10.356 5.86558C10.9379 5.96539 11.4657 6.26792 11.8459 6.71959C12.2261 7.17126 12.4342 7.74292 12.4333 8.33332C12.4333 9.99999 9.93333 10.8333 9.93333 10.8333" stroke="#17233A" stroke-width="2" stroke-linecap="round" stroke-linejoin="round"/>
    <path d="M10 14.1666H10.0083" stroke="#17233A" stroke-width="2" stroke-linecap="round" stroke-linejoin="round"/>
  </g>
  <defs>
    <clipPath id="clip0_7173_3395">
      <rect width="20" height="20" fill="white"/>
    </clipPath>
  </defs>
</svg>
