<svg width="48" height="24" viewBox="0 0 48 24" fill="none" xmlns="http://www.w3.org/2000/svg">
  <rect width="48" height="23" fill="#F4F4F4"/>
  <rect width="1" height="8" transform="matrix(1 0 0 -1 0 8.5)" fill="#17D4A7"/>
  <rect width="1" height="16" transform="matrix(1 0 0 -1 1 16.5)" fill="#17D4A7"/>
  <rect width="1" height="9.41397" transform="matrix(1 0.000940586 0.000857057 -1 2.00269 9.91406)" fill="#17D4A7"/>
  <rect width="1" height="22" transform="matrix(1 0 0 -1 3 22.5)" fill="#17D4A7"/>
  <rect width="1" height="14" transform="matrix(1 0 0 -1 4 14.5)" fill="#17D4A7"/>
  <rect width="1" height="15" transform="matrix(1 0 0 -1 5 15.5)" fill="#17D4A7"/>
  <rect width="1" height="13" transform="matrix(1 0 0 -1 6 13.5)" fill="#17D4A7"/>
  <rect width="1" height="17" transform="matrix(1 0 0 -1 7 17.5)" fill="#17D4A7"/>
  <rect width="1" height="6" transform="matrix(1 0 0 -1 8 6.5)" fill="#17D4A7"/>
  <rect width="1" height="5" transform="matrix(1 0 0 -1 9 5.5)" fill="#17D4A7"/>
  <rect width="1" height="6" transform="matrix(1 0 0 -1 10 6.5)" fill="#17D4A7"/>
  <rect width="1" height="12" transform="matrix(1 0 0 -1 11 12.5)" fill="#17D4A7"/>
  <rect width="1" height="10" transform="matrix(1 0 0 -1 12 10.5)" fill="#17D4A7"/>
  <rect width="1" height="14" transform="matrix(1 0 0 -1 13 14.5)" fill="#17D4A7"/>
  <rect width="1" height="16" transform="matrix(1 0 0 -1 14 16.5)" fill="#17D4A7"/>
  <rect width="1" height="19" transform="matrix(1 0 0 -1 15 19.5)" fill="#17D4A7"/>
  <rect width="1" height="16" transform="matrix(1 0 0 -1 16 16.5)" fill="#17D4A7"/>
  <rect width="1" height="13" transform="matrix(1 0 0 -1 17 13.5)" fill="#17D4A7"/>
  <rect width="1" height="16" transform="matrix(1 0 0 -1 18 16.5)" fill="#17D4A7"/>
  <rect width="1" height="6" transform="matrix(1 0 0 -1 19 6.5)" fill="#17D4A7"/>
  <rect width="1" height="8" transform="matrix(1 0 0 -1 20 8.5)" fill="#17D4A7"/>
  <rect width="1" height="10" transform="matrix(1 0 0 -1 21 10.5)" fill="#17D4A7"/>
  <rect width="1" height="13" transform="matrix(1 0 0 -1 22 13.5)" fill="#17D4A7"/>
  <rect width="1" height="16" transform="matrix(1 0 0 -1 23 16.5)" fill="#17D4A7"/>
  <rect width="1" height="16" transform="matrix(1 0 0 -1 24 16.5)" fill="#17D4A7"/>
  <rect width="1" height="14" transform="matrix(1 0 0 -1 25 14.5)" fill="#17D4A7"/>
  <rect width="1" height="22" transform="matrix(1 0 0 -1 26 22.5)" fill="#17D4A7"/>
  <rect width="1" height="7" transform="matrix(1 0 0 -1 27 7.5)" fill="#17D4A7"/>
  <rect width="1" height="3" transform="matrix(1 0 0 -1 28 3.5)" fill="#17D4A7"/>
  <rect width="1" height="5" transform="matrix(1 0 0 -1 29 5.5)" fill="#17D4A7"/>
  <rect width="1" height="6" transform="matrix(1 0 0 -1 30 6.5)" fill="#17D4A7"/>
  <rect width="1" height="6" transform="matrix(1 0 0 -1 31 6.5)" fill="#17D4A7"/>
  <rect width="1" height="10" transform="matrix(1 0 0 -1 32 10.5)" fill="#17D4A7"/>
  <rect width="1" height="6" transform="matrix(1 0 0 -1 33 6.5)" fill="#17D4A7"/>
  <rect width="1" height="6" transform="matrix(1 0 0 -1 34 6.5)" fill="#17D4A7"/>
  <rect width="1" height="10" transform="matrix(1 0 0 -1 35 10.5)" fill="#17D4A7"/>
  <rect width="1" height="6" transform="matrix(1 0 0 -1 36 6.5)" fill="#17D4A7"/>
  <rect width="1" height="6" transform="matrix(1 0 0 -1 37 6.5)" fill="#17D4A7"/>
  <rect width="1" height="12" transform="matrix(1 0 0 -1 38 12.5)" fill="#17D4A7"/>
  <rect width="1" height="8" transform="matrix(1 0 0 -1 39 8.5)" fill="#17D4A7"/>
  <rect width="1" height="12" transform="matrix(1 0 0 -1 40 12.5)" fill="#17D4A7"/>
  <rect width="1" height="9" transform="matrix(1 0 0 -1 41 9.5)" fill="#17D4A7"/>
  <rect width="1" height="7" transform="matrix(1 0 0 -1 42 7.5)" fill="#17D4A7"/>
  <rect width="1" height="10" transform="matrix(1 0 0 -1 43 10.5)" fill="#17D4A7"/>
  <rect width="1" height="3" transform="matrix(1 0 0 -1 44 3.5)" fill="#17D4A7"/>
  <rect width="1" height="5" transform="matrix(1 0 0 -1 45 5.5)" fill="#17D4A7"/>
  <rect width="1" height="6" transform="matrix(1 0 0 -1 46 6.5)" fill="#17D4A7"/>
  <rect width="1" height="17" transform="matrix(1 0 0 -1 47 17.5)" fill="#17D4A7"/>
</svg>
