<svg xmlns="http://www.w3.org/2000/svg" width="119" height="24" fill="none">
  <g clip-path="url(#a)">
    <path fill="#000" d="M118.579 0H.599v24h117.98V0Z"/>
    <path fill="#fff" d="M84.575 11.91V4.46c0-.163.033-.196.197-.196h3.68c.148 0 .18.033.18.18v7.106a.228.228 0 0 1 .033.099l.099-.049c.099-.115.18-.23.28-.36.509-.62 1.001-1.241 1.51-1.862.067-.098.148-.13.28-.13h4.041a.09.09 0 0 1 .082.048c.016.017-.016.065-.033.081-.246.311-.51.606-.755.915-.756.915-1.512 1.847-2.267 2.762-.18.228-.362.44-.559.669-.065.082-.065.13 0 .213.542.637 1.084 1.29 1.627 1.927.673.801 1.33 1.586 1.987 2.386.312.376.64.752.953 1.127.016.034.033.066.033.098a.228.228 0 0 1-.1.033h-4.401a.234.234 0 0 1-.197-.098c-.674-.8-1.331-1.617-2.005-2.418-.148-.18-.295-.343-.427-.523-.032-.032-.082-.05-.115-.081-.016.049-.032.081-.032.13v2.843c0 .13-.017.147-.181.147h-3.68c-.213 0-.213 0-.213-.213-.017-2.45-.017-4.917-.017-7.384Zm-17.987 7.793a4.83 4.83 0 0 1-1.511-.212 5.3 5.3 0 0 1-1.414-.654 6.72 6.72 0 0 1-1.396-1.241 5.503 5.503 0 0 1-.805-1.291c-.377-.899-.492-1.846-.41-2.794.039-.48.144-.953.312-1.405a5.636 5.636 0 0 1 1.298-2.026 5.962 5.962 0 0 1 1.626-1.143c.295-.131.624-.23.952-.31.641-.148 1.282-.197 1.923-.148.412.035.819.112 1.215.229a4.8 4.8 0 0 1 1.15.507c.51.293.936.685 1.33 1.11.362.393.657.817.888 1.275.18.375.328.767.41 1.193.164.734.164 1.486.066 2.238-.071.474-.21.936-.41 1.372-.51 1.095-1.33 1.895-2.317 2.548a5.114 5.114 0 0 1-1.445.605c-.493.082-.953.147-1.462.147Zm.164-7.287c-.328 0-.641.066-.92.23-.427.244-.673.636-.772 1.11-.066.344-.033.703.082 1.046.148.425.444.686.87.784.379.098.773.098 1.167.016.51-.097.854-.392.986-.882.148-.506.148-1.03-.066-1.52a1.045 1.045 0 0 0-.69-.62c-.214-.082-.444-.114-.657-.163v-.001ZM24.419 14.23c.017.36-.066.882-.213 1.389a5.453 5.453 0 0 1-.937 1.813c-.388.5-.847.94-1.363 1.307a6.373 6.373 0 0 1-1.134.621 5.616 5.616 0 0 1-2.48.343 5.345 5.345 0 0 1-1.43-.327c-1.1-.425-1.938-1.143-2.661-2.042a4.524 4.524 0 0 1-.69-1.225 5.185 5.185 0 0 1-.312-1.225c-.05-.41-.082-.834-.05-1.242.05-.572.166-1.127.395-1.667.361-.898.969-1.633 1.692-2.254a5.15 5.15 0 0 1 1.314-.8c.903-.393 1.857-.491 2.826-.409.443.036.879.13 1.297.278.667.239 1.28.605 1.807 1.078.509.44.937.965 1.265 1.552.165.31.296.62.411.947.197.507.263 1.095.263 1.863Zm-7.294-.147c0 .065.017.196.033.327.083.588.394.996.969 1.143.51.131 1.02.147 1.511-.048a1.17 1.17 0 0 0 .724-.818c.114-.392.114-.784.033-1.192-.148-.604-.56-.931-1.101-1.013-.428-.065-.855-.065-1.282.082a1.28 1.28 0 0 0-.673.538c-.18.278-.213.589-.213.98Zm13.75 5.62a4.915 4.915 0 0 1-1.512-.212 5.31 5.31 0 0 1-1.445-.67 6.353 6.353 0 0 1-1.825-1.797 5.23 5.23 0 0 1-.607-1.258 5.836 5.836 0 0 1-.246-2.19c.033-.506.148-.98.312-1.454.295-.784.756-1.454 1.347-2.058.476-.474 1.002-.865 1.626-1.127.458-.193.938-.33 1.429-.409a5.299 5.299 0 0 1 1.348-.049c.295.016.59.082.886.147.23.049.46.114.69.197.28.114.575.244.838.408.608.343 1.1.816 1.544 1.356.362.44.657.915.854 1.438.324.82.448 1.704.362 2.58-.066.605-.197 1.194-.46 1.75a5.951 5.951 0 0 1-1.512 1.976 5.612 5.612 0 0 1-1.593 1.013 5.328 5.328 0 0 1-2.037.36Zm.13-4.051c.066 0 .133-.017.215-.017.296-.033.575-.098.805-.278.279-.212.427-.506.492-.85.066-.424.066-.833-.081-1.24-.165-.459-.51-.703-.97-.785-.444-.082-.887-.082-1.33.066-.444.146-.723.456-.838.914a2.25 2.25 0 0 0 0 1.144c.065.278.196.506.427.686.378.31.821.343 1.281.36Z"/>
    <path fill="#fff" d="M100.493 19.687a5.269 5.269 0 0 1-1.511-.196 5.055 5.055 0 0 1-1.445-.67 6.68 6.68 0 0 1-1.84-1.814 4.314 4.314 0 0 1-.592-1.241c-.312-.964-.345-1.927-.148-2.909a5.537 5.537 0 0 1 .69-1.715 6.043 6.043 0 0 1 1.33-1.552 4.98 4.98 0 0 1 1.364-.8c.838-.327 1.709-.409 2.596-.376.466.02.929.091 1.379.212a5.14 5.14 0 0 1 1.775.931 5.585 5.585 0 0 1 1.346 1.634c.181.344.362.703.51 1.062.148.376.23.784.23 1.193 0 .13-.033.164-.164.18-.378.08-.772.163-1.15.245-.345.065-.674.146-1.019.212-.345.081-.69.147-1.035.228-.345.082-.673.148-1.018.23-.362.08-.739.163-1.1.245-.329.065-.657.146-.987.212l-.492.098c-.033 0-.066.033-.066.049.016.033.033.081.066.098.164.13.344.262.51.393.312.244.656.26 1.017.228.493-.05.872-.295 1.167-.687.147-.196.147-.196.362-.048l1.231.784c.542.343 1.101.702 1.643 1.046.18.114.18.114.033.277-.362.376-.69.768-1.068 1.128a3.233 3.233 0 0 1-.706.539 5.797 5.797 0 0 1-.97.457 5.487 5.487 0 0 1-1.626.294c-.098.05-.214.033-.312.033Zm.098-7.549c-.18.034-.377.034-.557.1a1.7 1.7 0 0 0-.92.668c-.115.148-.198.327-.28.491-.016.032 0 .082 0 .114 0 .016.05.016.065.016.379-.081.74-.163 1.118-.245l1.084-.245a9.79 9.79 0 0 0 .673-.163c.099-.033.115-.065.05-.13-.345-.36-.739-.59-1.233-.605Zm-94.57.557c0-2.173-.017-4.33 0-6.502 0-.637.312-1.144.837-1.504.395-.277.838-.376 1.315-.376h5.503c.312-.016.279.017.279.295v3.071c0 .18-.016.213-.214.213h-2.694c-.18 0-.361.016-.51.081-.327.115-.443.409-.459.72-.016.49-.016.98-.016 1.454v.277c0 .098.049.13.13.13h1.775c.23 0 .23 0 .23.23v3.12c0 .196-.017.212-.213.212h-1.791c-.131 0-.148.016-.148.147v5.13c0 .099-.033.131-.131.131H6.102c-.098 0-.115-.05-.115-.13.033-2.24.033-4.46.033-6.699Zm32.82 2.5v-2.583c0-.146-.032-.18-.18-.18h-1.314c-.131 0-.148-.015-.148-.146V9.002c0-.115.033-.147.148-.147h1.298c.164 0 .18-.032.18-.18V5.408c0-.148.017-.164.165-.164h3.647c.164 0 .18.016.18.18 0 .604.017 1.225.017 1.83 0 .474 0 .93.016 1.405 0 .18.033.196.214.196h1.166c.132 0 .164.032.164.163v3.251c0 .131-.032.164-.163.164h-1.183c-.165 0-.181.033-.181.18v2.352c0 .197 0 .409.115.604a.666.666 0 0 0 .525.376c.1.017.214.017.313.017h1.116c.18 0 .198.016.198.197v3.168c0 .147-.017.18-.165.18h-4.074a2.142 2.142 0 0 1-1.396-.49 1.772 1.772 0 0 1-.673-1.421c.016-.784.016-1.586.016-2.402Zm40.116 4.492c-.542.032-1.068-.065-1.577-.196a5.31 5.31 0 0 1-1.445-.67 6.74 6.74 0 0 1-1.742-1.667c-.31-.424-.544-.9-.69-1.404a5.757 5.757 0 0 1-.23-2.239c.066-.768.28-1.503.69-2.173a6.261 6.261 0 0 1 1.709-1.878 4.82 4.82 0 0 1 1.346-.703 5.864 5.864 0 0 1 2.76-.229c.346.05.69.13 1.019.23.476.146.904.374 1.314.652a6.34 6.34 0 0 1 1.495 1.536c.049.066.049.114-.033.164-.723.457-1.462.915-2.185 1.372-.312.197-.624.408-.953.604-.163.099-.164.099-.295-.048a3.175 3.175 0 0 0-.427-.393c-.23-.18-.526-.212-.805-.196-.263.017-.51.017-.756.115-.362.13-.624.359-.772.718-.18.442-.18.9-.066 1.357.099.424.362.734.789.882.46.163.903.196 1.38.065.279-.081.493-.262.673-.49.016-.033.05-.049.066-.081.033-.05.082-.05.131-.017.838.539 1.692 1.078 2.53 1.617l.69.442c.082.049.082.097.033.163-.51.719-1.1 1.323-1.857 1.78a4.772 4.772 0 0 1-1.806.638c-.313.049-.641.065-.953.098-.033-.017-.033-.033-.033-.05v.001Zm-26.3-8.577V4.477c0-.18.017-.196.197-.196h3.614c.165 0 .18.032.18.196V14.9c0 .147.018.294.034.441.05.31.312.572.624.621.131.016.263.016.41.016h2.678c.131 0 .148.033.148.18v3.219c0 .098-.033.147-.148.147h-5.93c-.378 0-.756-.082-1.084-.278a1.351 1.351 0 0 1-.592-.719c-.13-.343-.163-.686-.163-1.046.032-2.123.032-4.247.032-6.371Zm54.636 3.74v-4.166c0-.261.017-.538.067-.8.131-.589.459-.997 1.051-1.177.296-.098.591-.114.887-.114h4.813c.164 0 .197.032.197.196v3.17c0 .18-.016.196-.197.196-.608 0-1.199-.017-1.807 0a1.71 1.71 0 0 0-.575.097c-.279.099-.378.344-.41.621-.017.098 0 .197 0 .294v6.208c0 .099-.033.131-.132.131h-3.712c-.132 0-.165-.032-.165-.147a141.2 141.2 0 0 1-.017-4.509Z"/>
  </g>
  <defs>
    <clipPath id="a">
      <path fill="#fff" d="M.6 0h118v24H.6z"/>
    </clipPath>
  </defs>
</svg>
