<svg xmlns="http://www.w3.org/2000/svg" width="101" height="29" fill="none">
  <path fill="#000" d="M48.193 5.04v10.496c0 5.495-2.67 7.878-6.857 7.878-2.513 0-4.712-1.36-5.785-3.585l2.512-1.152c.602 1.204 1.936 1.988 3.273 1.988 2.354 0 3.822-1.36 3.822-4.842v-.184c-.863 1.257-2.565 1.883-4.057 1.883-3.22 0-6.018-2.486-6.018-6.387 0-3.925 2.775-6.36 5.992-6.36 1.57 0 3.22.602 4.082 1.857V5.035h3.036v.005Zm-3.088 6.074c0-2.147-1.78-3.507-3.533-3.507-1.883 0-3.428 1.465-3.428 3.507 0 2.041 1.545 3.559 3.428 3.559 1.857 0 3.533-1.413 3.533-3.56Zm5.024 0c0-3.875 3.01-6.334 6.49-6.334 3.48 0 6.515 2.46 6.515 6.334 0 3.874-3.035 6.413-6.516 6.413-3.477-.003-6.49-2.541-6.49-6.413Zm9.946 0c0-2.094-1.57-3.507-3.454-3.507-1.884 0-3.428 1.413-3.428 3.507 0 2.146 1.544 3.585 3.428 3.585 1.883 0 3.454-1.439 3.454-3.585ZM76.197 5.04 71.04 17.26h-2.775L63.163 5.04h3.272l3.246 8.375L72.9 5.04h3.296Zm13.166 0v10.496c0 5.495-2.67 7.878-6.858 7.878-2.512 0-4.71-1.36-5.784-3.585l2.512-1.152c.602 1.204 1.936 1.988 3.272 1.988 2.355 0 3.823-1.36 3.823-4.842v-.184c-.863 1.257-2.565 1.883-4.057 1.883-3.22 0-6.019-2.486-6.019-6.387 0-3.925 2.776-6.36 5.993-6.36 1.57 0 3.22.602 4.082 1.857V5.035h3.036v.005Zm-3.088 6.074c0-2.147-1.78-3.507-3.533-3.507-1.883 0-3.428 1.465-3.428 3.507 0 2.041 1.545 3.559 3.428 3.559 1.857 0 3.533-1.413 3.533-3.56Zm14.315-5.916-.602 2.878a3.832 3.832 0 0 0-1.781-.445c-1.989 0-3.088 1.936-3.088 5.366v4.267h-3.062V5.04h3.035v2.617c.655-2.04 1.989-2.877 3.507-2.877.736 0 1.52.157 1.991.418Zm-75.834 4.24a.286.286 0 0 0 .079-.012.255.255 0 0 0 .121-.06.282.282 0 0 0 .084-.19.282.282 0 0 0-.084-.192.282.282 0 0 0-.2-.084.282.282 0 0 0-.192.084.282.282 0 0 0-.083.191c0 .072.036.144.083.191a.24.24 0 0 0 .113.058.23.23 0 0 0 .079.014Zm-6.007 17a.238.238 0 0 0-.177.072c-.036.047-.072.107-.072.164 0 .072.036.132.072.18.031.024.07.038.11.048a.224.224 0 0 0 .146 0 .363.363 0 0 0 .057-.029c.014-.01.029-.017.043-.031.048-.036.072-.093.072-.165 0-.06-.024-.12-.072-.165a.236.236 0 0 0-.179-.074Zm7.742-5.118c-.014-.005-.031-.007-.045-.01a.484.484 0 0 0-.103.013.25.25 0 0 0-.115.057.282.282 0 0 0-.084.191c0 .07.036.141.084.19a.277.277 0 0 0 .189.083.289.289 0 0 0 .287-.273.282.282 0 0 0-.084-.191.24.24 0 0 0-.129-.06Zm-15.754 5.426a.282.282 0 0 0-.084-.191.271.271 0 0 0-.191-.072.271.271 0 0 0-.191.072.282.282 0 0 0-.084.191.27.27 0 0 0 .084.189.28.28 0 0 0 .19.084.282.282 0 0 0 .192-.084.272.272 0 0 0 .084-.189Zm17.116-12.81h-.011a.288.288 0 0 0-.275.272.283.283 0 0 0 .275.276h.012a.282.282 0 0 0 .19-.084.277.277 0 0 0 .084-.19.272.272 0 0 0-.083-.19.35.35 0 0 0-.192-.083ZM20.281 2.885c-.181-.06-.36-.129-.54-.198a.208.208 0 0 1-.029-.039 3.537 3.537 0 0 0-.143-.463 3.03 3.03 0 0 0-.225-.498c-.024-.047-.096-.06-.143-.035-.048.024-.072.095-.036.143.084.155.155.308.215.464.036.105.067.215.09.322a16.367 16.367 0 0 1-.69-.305c-.021-.132-.036-.266-.079-.397a1.352 1.352 0 0 0-.191-.428.11.11 0 0 0-.153-.024c-.048.036-.048.108-.024.155a.978.978 0 0 1 .167.356c.022.077.036.153.05.23-.052-.024-.105-.048-.155-.074a19.156 19.156 0 0 1-.616-.325c0-.07.012-.115.012-.175.023-.12.047-.224-.048-.38-.024-.048-.084-.06-.144-.036a.112.112 0 0 0-.036.141c.058.096.036.156.024.237a1.01 1.01 0 0 0-.012.098 57.909 57.909 0 0 1-1.054-.607c-.048-.024-.12-.012-.143.036-.036.048-.012.117.036.14.325.2.645.388.963.567-.012.005-.024.012-.038.017a.661.661 0 0 1-.356.108c-.06 0-.108.06-.108.105 0 .06.048.107.108.107a.962.962 0 0 0 .451-.129l.175-.079c.232.127.463.249.69.364.034.019.07.033.103.047-.129.048-.267.077-.41.108a3.142 3.142 0 0 1-.156.036.097.097 0 0 0-.072.117c.012.06.06.096.117.084l.144-.036a2.09 2.09 0 0 0 .621-.191c.184.086.368.17.555.248l-.084.024a3.014 3.014 0 0 1-.45.096.116.116 0 0 0-.095.12c.012.059.072.095.12.095.165-.024.32-.06.473-.108.11-.024.222-.06.337-.103.234.096.468.187.707.27.06.024.12-.011.13-.06.026-.061-.01-.121-.058-.145ZM2.99 21.654a.206.206 0 0 0-.153 0 .25.25 0 0 0-.112.058.238.238 0 0 0-.084.192c0 .071.024.143.084.19a.276.276 0 0 0 .188.084.282.282 0 0 0 .192-.083.238.238 0 0 0 .083-.191.238.238 0 0 0-.083-.192.273.273 0 0 0-.115-.057Zm21.402-15.13a.641.641 0 0 1 .02-.102l.035-.132c.036-.225.06-.464.06-.712a.105.105 0 0 0-.107-.105.105.105 0 0 0-.106.105c0 .234-.024.456-.06.667a16.15 16.15 0 0 0-.289-.48c.008-.017.027-.127.041-.163.036-.201.048-.428.036-.665 0-.048-.048-.095-.105-.095-.06 0-.108.06-.096.107.01.194-.007.39-.038.557-.113-.172-.23-.342-.35-.514a1.6 1.6 0 0 0 .07-.351c.012-.144.024-.297.012-.438a.107.107 0 0 0-.105-.107c-.06 0-.096.048-.096.107 0 .144 0 .285-.023.416a1.936 1.936 0 0 1-.02.139c-.071-.1-.148-.2-.23-.306a7.33 7.33 0 0 0-.38-.473c-.035-.048-.107-.048-.155-.012a.109.109 0 0 0-.012.143c.13.153.264.32.38.476.07.088.137.182.206.272a.798.798 0 0 1-.418-.188.113.113 0 0 0-.155.012.098.098 0 0 0 .011.143c.213.191.428.227.653.275.026 0 .06.005.093.014.134.191.263.385.387.579a.73.73 0 0 1-.157-.036c-.12-.024-.215-.072-.32-.108-.048-.036-.108-.012-.132.048-.036.048-.012.117.048.143.105.048.224.096.344.132.112.021.227.038.349.038.105.17.208.342.306.514a.908.908 0 0 1-.18-.053 1.62 1.62 0 0 1-.38-.164c-.06-.024-.117-.012-.143.047-.036.048-.012.108.036.144.143.07.273.129.416.177.122.04.246.062.375.074.18.33.351.66.505.994.023.048.083.072.131.048.06-.024.084-.084.06-.144a17.741 17.741 0 0 0-.517-1.023ZM21.15 2.552c.084 0 .155-.024.2-.072a.282.282 0 0 0 .084-.191.26.26 0 0 0-.083-.191.282.282 0 0 0-.201-.084.282.282 0 0 0-.191.084.256.256 0 0 0-.084.19c0 .073.036.144.084.192a.27.27 0 0 0 .19.072Zm4.575 5.45a.27.27 0 0 0 .155 0 .255.255 0 0 0 .122-.06.272.272 0 0 0 .084-.189.288.288 0 0 0-.287-.275.287.287 0 0 0-.275.275c0 .072.036.143.084.189a.273.273 0 0 0 .117.06Zm-18.3-4.783a.302.302 0 0 0 .203-.072.255.255 0 0 0 .06-.122c.005-.021.012-.045.012-.07 0-.083-.024-.143-.084-.188a.26.26 0 0 0-.191-.084.272.272 0 0 0-.189.084.25.25 0 0 0-.084.189.268.268 0 0 0 .272.263ZM.872 14.957a.276.276 0 0 0 .189-.083l-.005-.008a.258.258 0 0 0 .077-.184h.012a.241.241 0 0 0-.084-.19.229.229 0 0 0-.112-.058.256.256 0 0 0-.153 0 .248.248 0 0 0-.115.057.238.238 0 0 0-.084.191c0 .072.024.144.084.192.048.05.12.083.191.083ZM2.794 8.49a.252.252 0 0 0 .18-.071c.035-.048.07-.106.07-.165a.295.295 0 0 0-.07-.177.302.302 0 0 0-.18-.072c-.07 0-.13.036-.177.072a.242.242 0 0 0-.072.177c0 .06.024.117.072.165a.238.238 0 0 0 .177.071Zm5.105-3.753c.027 0 .05-.004.075-.011a.29.29 0 0 0 .126-.058.234.234 0 0 0 .058-.12.222.222 0 0 0 .012-.069.238.238 0 0 0-.084-.19.26.26 0 0 0-.191-.085.282.282 0 0 0-.192.084.282.282 0 0 0-.083.191c0 .072.036.144.083.192.032.03.07.047.115.057.029.005.055.01.081.01Zm.39 20.22-.614-.973c-.036-.06-.096-.072-.144-.036-.047.024-.071.096-.035.144l.437.707c-.21-.095-.42-.191-.629-.29a5.91 5.91 0 0 0-.284-.453 6.325 6.325 0 0 1-.285-.485c-.035-.048-.095-.072-.143-.048-.06.036-.072.095-.048.143v.012l.005-.002c.081.162.186.325.292.487.04.062.08.125.12.184-.22-.107-.438-.22-.656-.332-.07-.105-.153-.225-.258-.387-.096-.13-.18-.273-.26-.378-.024-.06-.096-.072-.144-.036a.117.117 0 0 0-.036.144c.096.131.18.263.26.392l.039.062c-.43-.227-.856-.464-1.274-.715-.048-.024-.12-.012-.143.036-.036.048-.012.12.035.143.443.261.89.512 1.339.751a1.848 1.848 0 0 1-.115.01c-.165.012-.32.023-.475.047-.06 0-.096.06-.096.12a.11.11 0 0 0 .131.084 5.26 5.26 0 0 1 .452-.048c.139-.012.287-.022.426-.04.212.11.425.22.638.324l-.222.015a9.106 9.106 0 0 0-.617.047c-.06 0-.096.06-.096.12.012.057.06.096.117.081.19-.024.404-.036.605-.048a9.77 9.77 0 0 0 .571-.043c.232.108.464.215.696.32l-.798.19c-.06.011-.096.071-.072.119.012.057.072.096.12.084l1.063-.263c.17.076.342.15.514.224-.27.11-.77.18-.806.18a.109.109 0 0 0-.083.129c0 .047.06.095.117.083.024 0 .65-.095 1.037-.282.13.053.256.108.388.163.047.024.105 0 .129-.06.024-.06 0-.12-.06-.143-.378-.153-.76-.316-1.138-.483ZM28.733 14.59c0-.07-.084-.12-.14-.095a6.303 6.303 0 0 0-1.351.843 6.5 6.5 0 0 0-.175-.97c.76-1.045 1.095-2.168 1.038-3.363-.06-1.222-.498-2.505-1.306-3.858-.047-.072-.155-.072-.188.01l-.737 1.71a5.658 5.658 0 0 0-.162.52c-.146-.373-.383-1.011-.383-1.162 0-.07.012-.141.012-.213.012-.571.012-1.032-.248-2.361l-.012-.012c-.368-1.08-1.449-1.982-2.352-2.541a4.426 4.426 0 0 0-.485-.297 5.182 5.182 0 0 0-.404-.2c-.072-.036-.153.012-.153.083-.02.316-.008.617.028.904a1.47 1.47 0 0 0-.112-.072c-.079-.06-.16-.129-.282-.203l-.005-.005a8.799 8.799 0 0 1-.628-.6c-.175-.205-.342-.42-.436-.614-.021-.04-.033-.086-.052-.12l.002-.002a.12.12 0 0 1-.017-.02s-.002 0-.002-.002a5.139 5.139 0 0 0-.834-.738c-.344-.237-.76-.44-1.33-.617 0 0-.64-.129-1.318-.177-.593-.048-1.186-.095-1.686-.284-.016-.005-.03-.01-.04-.007-.058.012-.084.026-.093.052-.01.027-.017.024-.008.074.067.376.215.698.419 1-.402.205-.75.427-1.047.652-.333.26-.593.523-.818.808-.048.06-.012.153.072.165a7.26 7.26 0 0 0 1.697.129c.54-.022 1.083-.1 1.661-.22.022.014.309.196.44.268a4.445 4.445 0 0 0 2.099.511v.003s.667-.039.927-.063c.26-.023.787-.062.794-.064.012.005.528.356.643.423.217 1.224.841 2.142 1.271 2.644.108.131.201.224.273.296a.82.82 0 0 0 .143.132c.273.215.545.463.83.76.282.294.552.633.846.984.084.165.165.345.248.533.094.19.175.376.256.529a7.16 7.16 0 0 0-.163 1.948 43.676 43.676 0 0 1-.308-.35c-.224-.25-.463-.51-.676-.771-.06-.06-.155-.048-.191.024-.368 1.068-.44 1.993-.297 2.801.144.808.512 1.508 1.009 2.101 0 0 .392.332.593.497.2.168.41.335.612.512a5.263 5.263 0 0 0-.4.748 5.982 5.982 0 0 0-.248.688 8.74 8.74 0 0 0-.098.435 3.292 3.292 0 0 0-.222-.396 4.013 4.013 0 0 0-.534-.713c-.047-.06-.155-.035-.176.036a9.942 9.942 0 0 1-.572 1.509c-.035.095-.083.176-.131.272-.034.081-.13.248-.13.248a7.01 7.01 0 0 0-.9 1.721 4.405 4.405 0 0 0-.251 1.554l-.19.072c-1.044.44-1.875 1.092-2.516 1.972-.225.356-.464.64-.76.841a2.206 2.206 0 0 1-.866.306c.624-.683 1.05-1.534 1.341-2.466.024-.084-.057-.168-.143-.13a5.397 5.397 0 0 1-.832.273 7.69 7.69 0 0 1-.891.12h-.02l.017.071.003.029-.017-.103c-.7.108-1.377.296-1.972.605a4.38 4.38 0 0 0-.913.63c-.218-.233-.547-.422-.975-.57-.464-.165-1.733-.357-1.733-.357-.368-.024-.736-.06-1.105-.12a9.488 9.488 0 0 1-1.104-.212.11.11 0 0 0-.117.153c.344.7.891 1.236 1.544 1.685a8.2 8.2 0 0 0 .765.454l-.22-.062c-.6-.177-1.2-.377-1.79-.588-1.062-.963-2.135-1.692-3.232-2.142-.079-.033-.158-.06-.237-.09a5.558 5.558 0 0 0-.167-1.475 5.383 5.383 0 0 0-.76-1.625s-.44-.572-.64-.892a6.472 6.472 0 0 1-.546-1.092c-.035-.072-.155-.084-.19-.012a3.62 3.62 0 0 0-.388 1.023 6.817 6.817 0 0 0-1.24-2.034c.924-.86 1.57-1.79 1.9-2.766.344-1 .368-2.056.071-3.17-.012-.071-.095-.095-.143-.071-.26.12-.5.284-.724.485-.168.15-.328.325-.476.523a12.186 12.186 0 0 0-.081-.757c-.024-.168-.06-.488-.06-.488a25.086 25.086 0 0 0-.155-.569c.105-.14.16-.25.203-.356.048-.107.215-.394.22-.409.934-.592 1.8-1.47 2.426-2.428.12-.189.237-.38.344-.571.108-.201.2-.392.285-.581 0 0 .313-1.028.384-1.458.16-.091.32-.172.48-.24.166-.083.343-.164.517-.27.256.017.493.008.741-.002.249-.012.488-.024.748-.012a4.963 4.963 0 0 0 1.59-.167 3.5 3.5 0 0 0 1.389-.712 5.63 5.63 0 0 0 .996-1.117c.237-.392.392-.808.428-1.283.012-.072-.072-.132-.143-.108-.653.26-1.353.416-2.053.569-.237.048-.488.108-.737.167v.003c-.848.167-1.463.509-1.948.946-.48.445-.834.97-1.138 1.544-.16.089-.317.17-.487.249a5.502 5.502 0 0 0-.344.163c.016-.113.033-.228.047-.34.024-.191.06-.404.084-.595.024-.084-.072-.143-.143-.105-.796.344-1.246.724-1.781 1.173-.155.132-.538.45-.538.45l.002.002c-1.314 1.257-1.34 3.079-1.352 4.367v.292c-.122.153-.17.275-.225.385-.02.057-.043.114-.079.179a19.65 19.65 0 0 0-.194-.595 11.104 11.104 0 0 0-.511-1.164c-.036-.07-.144-.084-.18-.012-.427.688-.628 1.26-.855 1.912-.084.213-.26.7-.26.7-.476 1.805.332 3.538.889 4.736.028.076.064.15.083.188v.311c0 .055 0 .105-.005.215a7.583 7.583 0 0 0-.372-.31 16.524 16.524 0 0 0-.641-.464c-.072-.048-.155 0-.167.083-.06 1.21.047 2.278.344 3.17.308.89.817 1.604 1.556 2.113.58.404 1.068.853 1.46 1.353.072.107.144.2.215.308.012.02.027.04.039.062.012.034.021.067.033.1a7.083 7.083 0 0 0-.954.027c-.083 0-.129.108-.071.18.272.284.533.604.808.96.272.356.808 1.14.808 1.14a3.945 3.945 0 0 0 2.172 1.33c.81.176 1.702.143 2.642-.02l2.963.808c-.592.318-1.302.567-2.127.755-.036.012-.072.072-.072.108 0 .084 0 .177.036.26a.64.64 0 0 0 .18.285.252.252 0 0 0 .083.036 9.966 9.966 0 0 0 1.152-.273c.392-.107 1.176-.428 1.176-.428.213-.12.524-.131.902-.143.19-.012.392-.024.63-.048.17-.019.335-.043.495-.072a19.54 19.54 0 0 0 1.714.488 9.24 9.24 0 0 0 1.721.237c.024 0 .07-.026.084-.048a.804.804 0 0 0 .155-.404.746.746 0 0 0-.083-.416c-.012-.024-.06-.048-.084-.057-.344-.036-.7-.072-1.057-.132a9.669 9.669 0 0 1-.877-.184c.414-.205.78-.454 1.102-.74.18 0 .328-.013.476-.025l.483-.035c.958.176 1.857.188 2.686-.012a5.138 5.138 0 0 0 2.28-1.236c.653-.605 1.153-1.128 1.497-1.578.356-.452.557-.817.652-1.128a.114.114 0 0 0-.129-.131 8.622 8.622 0 0 1-.585.102c.155-.25.287-.516.39-.793.509-.201 1.006-.44 1.49-.973.477-.521 1.325-2.47 1.402-2.706.076-.239.224-1.472.26-2.233.012-.152.012-.296.012-.44 0-.119 0-.25-.012-.37ZM15.175 2.791a7.087 7.087 0 0 1-1.467-.1 4.6 4.6 0 0 1 .66-.622 7.56 7.56 0 0 1 1.044-.643c.017.02.268.315.39.442-.466.112-1.315.438-1.315.438-.06.023-.084.083-.06.143.012.048.084.084.132.06 0 0 1.078-.419 1.422-.46.17.168.617.553.645.574a9.13 9.13 0 0 1-1.45.168Zm5.13.497a21.95 21.95 0 0 1-.784.06 4.153 4.153 0 0 1-2.125-.488c-.131-.06-1.267-.755-1.78-1.506-.015-.019-.06-.07-.137-.184-.076-.12-.26-.315-.368-.786.488.153 1.025.205 1.56.246.44.036.83.038 1.282.167.452.127.951.368 1.272.593.313.208.559.452.803.708.086.234.282.509.502.753.129.145.267.28.387.394a19.97 19.97 0 0 1-.612.043Zm4.119 4.262c-.283-.294-.856-.784-.856-.784-.012-.012-.285-.273-.392-.392-.507-.61-1.332-1.853-1.289-3.516.08.038.16.081.254.134.143.069.308.165.475.272.863.543 1.9 1.418 2.262 2.433l-.008.003c.273 1.305.261 1.757.252 2.314v.212c0 .039.011.1.03.177-.24-.308-.485-.6-.729-.853ZM8.992 2.184c.464-.416 1.056-.737 1.862-.901.248-.06.488-.106.736-.165.653-.141 1.296-.285 1.917-.51-.06.361-.18.698-.375 1.007-.237.368-.56.724-.961 1.08-.392.32-.832.536-1.305.665a5.256 5.256 0 0 1-1.52.165c-.273-.024-.521-.012-.772 0-.196.01-.395.019-.596.01.285-.503.596-.964 1.014-1.351Zm-5.57 6.755c.012-1.27.024-3.062 1.33-4.262.179-.144.332-.273.487-.392.48-.416.894-.76 1.549-1.071-.02.143-.036.275-.053.406-.083.605-.167 1.198-.475 2.006a4.124 4.124 0 0 1-.273.557c-.095.19-.212.38-.332.557-.586.889-1.374 1.711-2.233 2.277V8.94Zm7.991 16.287c-.566-.385-1.044-.839-1.37-1.41a11.807 11.807 0 0 0 2.01.294c.665.071 1.237.179 1.686.332.397.139.698.318.891.528a4.293 4.293 0 0 0-.432.51 24.96 24.96 0 0 0-.646-.268 1.924 1.924 0 0 0-.348-.462c-.024-.036-.175-.205-.199-.205-.045-.029-.1-.017-.146.016-.03.041-.024.1.003.14v.002s.299.31.346.37c-.174-.07-.349-.139-.523-.21-.127-.26-.275-.454-.418-.562a.482.482 0 0 0-.108-.06.193.193 0 0 0-.108-.036c-.06-.012-.107.036-.12.096-.011.048.12.117.144.129.024.012.22.186.3.306-.438-.18-.888-.363-1.368-.555a.108.108 0 0 0-.144.058c-.024.048.012.12.06.131.433.18.896.37 1.375.562l-.094.007c-.129.012-.272 0-.425-.012-.06 0-.108.036-.108.096-.012.06.036.107.096.12.155.011.308.011.452.011.15-.012.3-.036.43-.081l.583.232a2.17 2.17 0 0 1-.217.062c-.156.024-.32.048-.476.06-.06 0-.105.048-.096.107 0 .06.048.108.108.108a3.74 3.74 0 0 0 .511-.072 2.33 2.33 0 0 0 .44-.15l.586.239a2.86 2.86 0 0 1-.48.626l-.295-.079c-.69-.28-1.336-.593-1.9-.98Zm-8.12-13.01.012-.012c.18-.285.38-.512.581-.7.18-.16.368-.285.564-.393.249 1.03.218 1.996-.09 2.921-.33.952-.95 1.846-1.85 2.682-.06-.067-.125-.131-.187-.198.162-.265.323-.548.478-.844h.002c.13-.084.13-.084.144-.084.155-.107.32-.203.475-.296a.114.114 0 0 0 .036-.143c-.036-.046-.095-.072-.143-.036-.12.071-.225.136-.33.2.108-.215.21-.437.313-.669.105-.081.208-.15.301-.208.108-.048.201-.095.297-.117.06-.012.095-.072.083-.12a.11.11 0 0 0-.131-.083 1.443 1.443 0 0 0-.344.143c-.017.008-.036.022-.053.031.07-.162.136-.332.2-.501.001-.003.006-.003.006-.005.06-.07.129-.13.224-.201.108-.06.213-.12.345-.177.06-.024.071-.096.047-.143-.023-.06-.083-.072-.131-.048a2.11 2.11 0 0 0-.351.191c.057-.17.112-.34.165-.507a.079.079 0 0 0 .021-.019c.06-.072.12-.14.18-.191.071-.06.128-.108.212-.153.048-.024.06-.084.036-.143-.024-.048-.084-.06-.144-.036a1.937 1.937 0 0 0-.17.114c.034-.11.068-.22.099-.327a.108.108 0 0 0-.084-.13c-.048-.023-.107.013-.131.073-.06.248-.132.487-.201.712-.084.237-.156.464-.237.688a15.991 15.991 0 0 1-1.374 2.876l-.086-.086c-.007-.007 0-.521.012-.722.174-.294.337-.665.5-1.035.104-.246.332-.724.332-.724a3.235 3.235 0 0 0 .372-1.58Zm-2.187-1.52c.098-.237.182-.474.254-.689.205-.586.392-1.102.74-1.702.16.32.29.634.412.966.143.404.284.856.428 1.4h.002c.012.16.036.314.057.464.103.88.199 1.685-.253 2.553 0 0-.237.5-.344.748-.136.311-.27.61-.407.866-.002-.008-1.345-2.878-.889-4.607Zm1.604 9.807c-.7-.476-1.176-1.152-1.472-2.006-.27-.82-.378-1.788-.34-2.894.16.112.318.227.469.341.2.156.392.32.571.476.901.856 1.518 1.805 1.865 2.85a.075.075 0 0 0 .023.045c-.021.21-.033.428-.023.652.016.557.124 1.162.308 1.815a6.64 6.64 0 0 0-1.4-1.28Zm1.308-.548c-.022-.664.088-1.252.34-1.773.143.33.303.63.48.908.2.332.427.629.652.901.356.536.58 1.057.724 1.556.12.471.158.911.153 1.348a6.72 6.72 0 0 0-.58-.172c-.036-.076-.067-.153-.1-.23.044-.088-.008.027.004.003.12-.284.236-.583.344-.843.024-.06-.012-.12-.06-.144-.06-.012-.12.012-.143.06-.09.234-.172.447-.26.655a19.568 19.568 0 0 1-.24-.622c.048-.102.096-.2.144-.306.071-.143.129-.296.19-.427.025-.048 0-.12-.047-.132-.06-.021-.12 0-.143.048-.06.143-.132.284-.19.428-.016.038-.035.074-.052.112l-.067-.196a10.969 10.969 0 0 1-.107-.34.084.084 0 0 0 .024-.038 1.78 1.78 0 0 1 .069-.298 1.77 1.77 0 0 1 .167-.285.098.098 0 0 0-.012-.143c-.047-.036-.105-.036-.14.012a1.164 1.164 0 0 0-.204.344c-.007.014-.01.029-.014.043a14.153 14.153 0 0 1-.234-.91c-.012-.06-.072-.096-.12-.072-.06.011-.096.06-.084.117.07.325.156.65.249.97a2.368 2.368 0 0 1-.378-.258c-.047-.036-.107-.024-.143.024-.048.036-.036.105.012.143.155.13.332.249.497.32.034.01.065.022.089.034.04.131.083.263.126.394l.086.254c-.045-.024-.09-.043-.134-.065a2.726 2.726 0 0 0-.38-.179c-.06-.024-.12 0-.14.048-.013.06.011.12.057.143.131.048.248.108.368.168.1.055.203.112.325.157.115.316.241.629.382.942a7.313 7.313 0 0 0-.908-.136c-.04-.074-.084-.146-.13-.223-.288-.867-.45-1.644-.472-2.34Zm5.722 5.95c-.925.18-1.805.212-2.589.024a3.71 3.71 0 0 1-2.053-1.246H5.1c-.272-.392-.535-.784-.807-1.14a13.039 13.039 0 0 0-.68-.82 6.879 6.879 0 0 1 3.125.536c1.08.451 2.149 1.164 3.193 2.125.012 0 1.248.44 1.853.619.473.138.946.27 1.42.394.064.029.129.053.195.08a3.88 3.88 0 0 1-.432.307l-3.227-.88Zm7.835 1.377c.325.057.672.1 1.009.136a.574.574 0 0 1 .048.244.77.77 0 0 1-.089.258 10.15 10.15 0 0 1-1.632-.223c-.46-.1-.918-.224-1.375-.368.33-.08.636-.181.923-.303a.138.138 0 0 0 .048.043c.356.081.71.153 1.068.213Zm.19-1.356c-.749.713-1.77 1.2-3.125 1.353-.213.024-.428.024-.617.036-.404.012-.724.036-.996.18l.002.002c-.378.153-.753.294-1.13.401-.352.1-.71.192-1.071.251a.407.407 0 0 1-.082-.155.842.842 0 0 1-.028-.117c.874-.21 1.627-.488 2.237-.844.598-.349 1.052-.784 1.34-1.315a.087.087 0 0 0 .06-.062.104.104 0 0 0 .008-.05 4.155 4.155 0 0 1 1.441-1.231c.569-.296 1.212-.473 1.9-.58a4.43 4.43 0 0 0 .901-.12 4.98 4.98 0 0 0 .667-.206c-.322.956-.8 1.805-1.508 2.457Zm7.93-15.407a6.727 6.727 0 0 1 .378-1.58l.64-1.501c.727 1.25 1.131 2.447 1.176 3.566.055 1.109-.236 2.142-.896 3.112a5.2 5.2 0 0 0-1.152-1.977l.007-.005-.158-.179a6.156 6.156 0 0 1 .005-1.436Zm.022 5.306c-.187-.153-.376-.306-.562-.468a4.244 4.244 0 0 1-.97-2.001c-.122-.736-.065-1.57.239-2.517.181.215.372.428.568.643.17.186.335.375.498.564.01.02.024.033.038.043.05.06.1.117.153.175v.011c.485.534.808 1.08 1.02 1.64.194.526.3 1.061.337 1.597a4.87 4.87 0 0 0-.296.291 27.636 27.636 0 0 1-.478-.788c.06-.156.105-.411.127-.722 0-.084.024-.45.024-.461a.107.107 0 0 0-.108-.108.107.107 0 0 0-.105.107s-.012.38-.024.44a4.036 4.036 0 0 1-.062.483c-.134-.236-.45-.832-.48-.894a1.96 1.96 0 0 0 .093-.42c.035-.201.06-.44.069-.665 0-.048-.036-.108-.096-.108a.116.116 0 0 0-.12.096 9.482 9.482 0 0 1-.059.653c-.012.055-.021.11-.031.157a25.317 25.317 0 0 1-.634-1.429.102.102 0 0 0-.14-.06c-.048.024-.072.084-.048.132.2.502.416.994.655 1.484a1.883 1.883 0 0 1-.23-.117c-.143-.084-.296-.203-.45-.32-.047-.036-.107-.036-.143.012-.035.047-.035.107.012.143.153.13.32.249.476.356.155.089.313.156.469.194.028.057.317.619.44.836a9.015 9.015 0 0 1-.792-.461.114.114 0 0 0-.143.036c-.036.048-.024.107.024.143.19.13.9.517 1.085.595.165.285.34.567.52.849a4.875 4.875 0 0 0-.276.354 21.821 21.821 0 0 0-.6-.495Zm-.077 6.42c-.096.254-.28.555-.552.906-.344.428-.82.94-1.472 1.544a4.825 4.825 0 0 1-2.185 1.186c-.808.191-1.673.18-2.613 0 0 0 .225-.127.356-.213.333-.224.596-.533.832-.901L20 24.762a5.578 5.578 0 0 1 2.429-1.88c.19-.085.392-.156.604-.228.203-.057.428-.12.653-.165.002-.005 1.37-.136 1.955-.244Zm-.705-.129a.09.09 0 0 0-.014.031c-.302.039-.6.067-.897.089.04-.091.082-.184.117-.275.06-.155.192-.514.196-.533a1.24 1.24 0 0 0 .373-.227c.144-.12.285-.26.428-.416.036-.036.036-.105-.012-.144-.036-.047-.107-.035-.143 0-.13.156-.273.285-.404.392a.896.896 0 0 1-.16.12 8.8 8.8 0 0 0 .19-.808 1.47 1.47 0 0 0 .252-.167 4.15 4.15 0 0 0 .332-.332c.036-.048.036-.106-.012-.156a.098.098 0 0 0-.143.012 5.71 5.71 0 0 1-.32.308c-.02.02-.039.036-.058.053.07-.406.12-.825.15-1.252 0-.06-.035-.108-.092-.108-.06-.012-.108.036-.12.096-.029.427-.076.848-.148 1.26a1.32 1.32 0 0 1-.089-.108 4.951 4.951 0 0 1-.177-.357c-.012-.06-.071-.083-.129-.071-.06.024-.083.083-.06.143.06.155.12.285.204.404a.957.957 0 0 0 .208.237 9.92 9.92 0 0 1-.196.808c-.024-.036-.05-.074-.072-.12a3.686 3.686 0 0 1-.225-.523c-.024-.048-.083-.084-.143-.06-.048.024-.084.084-.06.129.084.237.168.404.237.547.06.122.122.206.181.282-.004.017-.193.538-.198.553a4.996 4.996 0 0 1-.244-.359c-.012-.036-.071-.155-.083-.191a.118.118 0 0 0-.13-.06c-.06.024-.083.084-.06.143.013.024.072.165.096.201.089.165.199.32.328.48a4.06 4.06 0 0 0-.053.11c-.007 0-.958.244-1.032.268a4.22 4.22 0 0 1 .239-1.405c.177-.524.463-1.08.88-1.673 0 0 .236-.464.272-.557.198-.42.37-.88.52-1.35.151.174.28.353.393.542.143.225.263.461.344.688.435 1.195.175 2.395-.466 3.356Zm3.597-6.719a18.415 18.415 0 0 1-.272 2.206s-.88 2.104-1.341 2.601c-.409.437-.825.667-1.253.85a3.738 3.738 0 0 0-.062-2.315c.003-.007.094-.507.15-.744.073-.224.144-.451.237-.664a4.854 4.854 0 0 1 1.193-1.666.089.089 0 0 0 .072-.062 5.94 5.94 0 0 1 1.281-.851c.003.07.007.14.007.217-.002.132-.012.275-.012.428ZM2.13 14.27c.024-.263.031-.552.027-.856.193-.146.315-.375.437-.617 0 0 .12-.239.177-.332a.113.113 0 0 0-.024-.155c-.048-.024-.117-.012-.143.036-.084.107-.144.236-.201.356a2.434 2.434 0 0 1-.254.428c-.01-.282-.023-.579-.04-.88.181-.1.28-.275.38-.45.06-.095.107-.202.177-.284a.098.098 0 0 0-.012-.143c-.048-.036-.105-.036-.144.012-.083.095-.143.2-.2.308-.067.117-.13.23-.216.309a39.376 39.376 0 0 1-.043-.76c.175-.144.342-.63.402-.722.036-.048.024-.106-.012-.144a.11.11 0 0 0-.153.024c-.084.108-.208.478-.248.545-.02-.533-.017-1.054.033-1.53a.101.101 0 0 0-.096-.12c-.06-.011-.107.037-.12.096-.045.45-.047.93-.033 1.425-.033-.05-.179-.308-.205-.344a.109.109 0 0 0-.141-.048c-.048.036-.072.096-.048.143.024.039.304.483.406.596.012.253.024.506.039.76-.168-.146-.41-.512-.41-.512-.023-.048-.083-.07-.143-.048-.047.012-.083.084-.06.13.118.291.405.537.63.714.018.316.035.624.045.918a2.774 2.774 0 0 1-.232-.28c-.12-.155-.203-.392-.251-.428-.048-.035-.155.024-.155.036-.048.084.071.297.236.524a2.7 2.7 0 0 0 .407.447c.002.291-.003.569-.027.822 0 .06.036.108.096.12.06 0 .107-.036.12-.096Zm1.155 5.59c.033-.171.045-.346.033-.506 0-.177-.012-.344-.036-.523 0-.06-.06-.096-.117-.096-.047.012-.095.06-.083.12l.036.5c0 .054-.003.109-.005.162a39.022 39.022 0 0 0-.292-.543c.005-.328-.06-.765-.095-1.08v-.012c-.012-.06-.072-.096-.12-.096-.06.012-.105.06-.096.12v.011c.027.187.058.41.077.622l-.029-.053c-.074-.14-.155-.284-.232-.425a8.133 8.133 0 0 0-.052-.512c-.012-.179-.036-.344-.048-.511a.107.107 0 0 0-.108-.108c-.06 0-.107.06-.107.108v.012c.012.167.036.344.06.523 0 .008 0 .015.002.022-.196-.354-.394-.71-.595-1.066-.036-.06-.096-.072-.141-.048-.06.036-.072.093-.048.141.23.404.454.803.674 1.2a10.82 10.82 0 0 0-.567-.215c-.047-.024-.105 0-.13.06-.025.06.011.119.059.131.143.048.296.12.45.18.119.05.233.093.35.138.084.155.173.313.256.466.041.076.082.155.125.232a2.774 2.774 0 0 1-.206-.103 3.152 3.152 0 0 0-.5-.225c-.06-.023-.119.012-.143.06-.012.06.024.12.07.132.143.047.308.129.475.212.148.091.306.17.457.218.095.184.19.366.286.547l-.016-.007a4.102 4.102 0 0 1-.725-.392c-.047-.036-.12-.024-.143.024-.036.048-.024.105.024.141.26.18.511.323.772.428.048.012.096.036.143.048.03.012.055.023.084.03.096.19.194.376.284.562.024.06.084.072.144.048a.109.109 0 0 0 .048-.14l-.275-.536Zm.674-10.681a.238.238 0 0 0-.084.19c0 .073.024.144.084.192a.26.26 0 0 0 .115.057.22.22 0 0 0 .155 0 .251.251 0 0 0 .112-.057.238.238 0 0 0 .084-.191.238.238 0 0 0-.084-.191.282.282 0 0 0-.19-.084.282.282 0 0 0-.192.084ZM18.44 24.004c-.46.311-.916.612-1.375.902a2.113 2.113 0 0 1 .198-.58c.037-.049.012-.109-.035-.142-.048-.024-.117-.012-.144.048a1.55 1.55 0 0 0-.177.428 1.41 1.41 0 0 0-.069.392c-.174.11-.346.217-.521.322.022-.127.07-.28.141-.452a.648.648 0 0 1 .07-.155.622.622 0 0 1 .083-.165c.024-.06 0-.12-.048-.143-.048-.036-.117-.012-.143.035v.012c-.036.06-.06.12-.084.165-.024.048-.048.108-.084.165-.102.259-.16.488-.155.667l-.614.364a1.39 1.39 0 0 1 .045-.318c.06-.201.156-.428.311-.7.024-.049 0-.108-.048-.144-.048-.024-.107-.012-.143.048a3.48 3.48 0 0 0-.32.736 1.346 1.346 0 0 0-.053.497c-.143.084-.285.163-.426.241.022-.117.043-.236.075-.358.047-.177.119-.356.19-.545.025-.048 0-.108-.047-.132-.06-.023-.12 0-.143.048a4.21 4.21 0 0 0-.201.581 5.396 5.396 0 0 0-.1.533c-.27.148-.539.292-.804.43-.06.024-.072.082-.048.142a.096.096 0 0 0 .141.035c.278-.14.557-.289.835-.44.172.041.346.075.53.096.191.036.392.048.593.036.06 0 .108-.048.108-.105 0-.048-.048-.096-.108-.096a4.516 4.516 0 0 1-.848-.081c.129-.072.258-.146.387-.22.167.04.349.062.533.074.191.012.392 0 .604-.012a.116.116 0 0 0 .096-.12c0-.06-.06-.095-.105-.095a3.329 3.329 0 0 1-.595.012 1.9 1.9 0 0 1-.26-.017c.176-.105.355-.21.532-.32.17.04.356.053.536.062.203.012.392 0 .58 0 .06 0 .108-.048.108-.105a.105.105 0 0 0-.108-.105c-.188.012-.38.012-.568 0-.096 0-.187-.007-.275-.017.162-.1.327-.2.49-.303l.805.023c.06 0 .108-.047.108-.107s-.048-.105-.096-.105L17.3 25c.416-.267.835-.542 1.255-.83.048-.035.06-.095.024-.143-.019-.047-.09-.06-.138-.023Zm7.646-12.477c-.036-.047-.107-.047-.155-.024-.048.036-.048.108-.01.153.117.168.26.32.39.452.129.13.267.237.416.332l.024.605c0 .06.047.108.107.096.06 0 .105-.048.096-.108l-.024-.6c.029-.026.057-.05.081-.076l.12-.12c.179-.213.368-.485.533-.805.024-.06.012-.12-.048-.144-.048-.036-.105-.012-.13.036-.164.32-.554.815-.568.832l-.036-.916a1.93 1.93 0 0 0 .33-.418c.107-.18.203-.38.284-.58.024-.06-.012-.12-.06-.144-.06-.024-.119.012-.143.06-.07.203-.165.392-.26.557-.05.086-.105.162-.165.231l-.026-.714c.227-.218.327-.55.427-.894v-.012a.11.11 0 0 0-.071-.13c-.06-.011-.118.025-.13.07v.012c-.066.227-.136.454-.238.633l-.046-1.166c-.012-.06-.06-.108-.117-.108-.06 0-.096.048-.096.108l.053 1.29a3.219 3.219 0 0 1-.445-.363c-.035-.047-.107-.047-.155-.012a.126.126 0 0 0 0 .156 1.964 1.964 0 0 0 .612.464l.031.784-.06-.024c-.167-.084-.332-.237-.5-.438-.035-.038-.107-.048-.143-.012-.048.036-.06.108-.024.153.192.215.368.392.572.488.035.012.069.036.117.048.017.005.03.01.047.014l.036.88a2.687 2.687 0 0 1-.248-.22 2.503 2.503 0 0 1-.378-.426Zm1.91 5.259c-.165.155-.555.406-.557.409.18-.416.363-.844.557-1.298a.117.117 0 0 0-.06-.13c-.057-.023-.12 0-.14.048l-.527 1.234a3.2 3.2 0 0 1-.09-.545c0-.048-.012-.344-.012-.356a.107.107 0 0 0-.108-.108c-.048 0-.096.048-.096.108 0 .012 0 .308.012.368.022.282.067.566.168.832-.108.248-.215.502-.325.755a2.161 2.161 0 0 1-.247-.602l-.035-.153c0-.048-.012-.108-.012-.156 0-.06-.06-.107-.12-.107-.048 0-.096.057-.096.107v.012c0 .06.012.117.024.177a.92.92 0 0 0 .024.167c.067.268.19.536.361.782l-.323.746a4.77 4.77 0 0 1-.107-.366c-.048-.2-.084-.416-.12-.617 0-.06-.057-.095-.117-.095-.047.012-.095.06-.083.12.023.212.071.427.12.64.042.205.11.401.19.59-.083.196-.165.39-.25.586-.024.06 0 .12.06.143.047.024.107 0 .128-.06l.251-.57c.146-.08.292-.159.45-.259.167-.107.332-.215.509-.356.048-.024.06-.096.024-.141-.036-.048-.096-.06-.144-.024-.18.13-.344.249-.5.344-.071.04-.14.082-.207.12.045-.108.255-.598.315-.734.16-.067.323-.146.473-.253.177-.12.357-.249.536-.428.048-.036.048-.108 0-.153a.11.11 0 0 0-.144 0 4.628 4.628 0 0 1-.497.404c-.081.052-.16.098-.239.138.091-.21.184-.42.275-.633.031-.01.177-.077.225-.1.2-.108.416-.261.593-.428a.098.098 0 0 0 .012-.144c-.032-.048-.103-.048-.151-.014ZM8.86 3.219c.213-.077.426-.156.639-.24.138.048.274.091.408.132.156.036.309.072.464.096.06 0 .12-.036.12-.096.011-.06-.024-.107-.084-.117a5.05 5.05 0 0 1-.452-.084l-.153-.05c.196-.081.392-.165.586-.253.21.117.43.165.66.208l.143.036c.048.012.107-.024.12-.084a.11.11 0 0 0-.084-.132c-.048-.012-.096-.012-.144-.023-.155-.034-.306-.063-.449-.118.043-.021.086-.038.129-.06.148-.073.299-.148.445-.226.28.071.86.083.872.083.06.012.108-.036.108-.095 0-.06-.048-.108-.096-.108-.024 0-.406-.017-.586-.04.378-.204.756-.419 1.143-.648.048-.036.072-.096.036-.156-.024-.048-.096-.06-.144-.036a22.52 22.52 0 0 1-1.228.696c.024-.079.055-.163.088-.246.024-.024.036-.06.048-.084.012-.024.024-.06.048-.084.024-.047.012-.119-.036-.143-.06-.036-.12-.012-.143.036 0 0-.227.504-.254.65-.134.07-.265.139-.399.206l-.148.069c.012-.07.024-.136.043-.2a.993.993 0 0 1 .167-.357.113.113 0 0 0-.024-.155.113.113 0 0 0-.155.024 1.34 1.34 0 0 0-.189.427 2.77 2.77 0 0 0-.062.364c-.23.105-.459.203-.69.299.023-.094.05-.187.088-.283.047-.143.117-.296.212-.463.024-.048.012-.108-.047-.144-.048-.024-.108-.012-.144.048a3.15 3.15 0 0 0-.225.485c-.057.158-.09.304-.124.45-.191.074-.382.148-.576.215-.06.012-.084.072-.06.131.01.07.07.091.13.07ZM5.11 7.253a.114.114 0 0 0 .036-.143c-.024-.057-.096-.07-.144-.048-.107.06-.203.12-.284.18a1.02 1.02 0 0 1-.258.14c.107-.193.22-.406.335-.633.21.014.392-.1.576-.208.095-.06.176-.12.26-.143a.114.114 0 0 0 .072-.132c-.024-.057-.084-.083-.132-.069a1.166 1.166 0 0 0-.308.165c-.12.07-.239.14-.359.17 0-.003 0-.003.003-.005.088-.175.18-.354.275-.536.275-.024.686-.306.757-.353.048-.024.06-.096.024-.144-.024-.048-.095-.06-.143-.036-.072.048-.38.266-.516.3.294-.555.99-1.664 1.001-1.664.024-.048.012-.118-.036-.144-.052-.033-.105-.014-.14.024-.35.497-.66 1.03-.942 1.551a7.94 7.94 0 0 1-.058-.59c.012-.06-.024-.12-.084-.13a.116.116 0 0 0-.119.096c-.012.036.064.744.105.914-.1.188-.196.375-.287.556a1.561 1.561 0 0 1-.03-.066c-.084-.18-.18-.357-.132-.524a.11.11 0 0 0-.084-.131c-.048-.012-.107.023-.12.083-.071.237.036.45.144.665.036.074.072.146.096.215-.13.25-.251.487-.368.7a4.062 4.062 0 0 1-.096-.452c0-.047-.012-.095-.012-.131 0-.036-.012-.057-.012-.096v-.012a.107.107 0 0 0-.108-.107c-.06 0-.107.048-.095.107v.134c.012.048.012.096.024.13.033.229.103.523.16.671a4.6 4.6 0 0 1-.256.397c-.036.036-.024.107.024.143.048.036.12.024.143-.024.094-.126.192-.277.29-.442.22-.019.351-.105.518-.21a1.6 1.6 0 0 1 .28-.168Zm18.293 16.063c.036-.155.105-.296.177-.44.036-.048.012-.107-.036-.143-.048-.024-.12-.012-.144.048a2.36 2.36 0 0 0-.203.473c-.04.139-.074.284-.081.433-.239.148-.48.296-.724.437.019-.191.052-.38.105-.562a2.83 2.83 0 0 1 .096-.296c.023-.06-.012-.12-.06-.131-.058-.024-.117 0-.144.06-.01.047-.08.26-.095.308-.067.25-.103.5-.127.748a32.84 32.84 0 0 1-.81.432c.007-.12.026-.239.06-.36.06-.168.143-.345.262-.512.036-.048.024-.117-.023-.143-.048-.036-.108-.024-.144.023a2.72 2.72 0 0 0-.299.57 1.65 1.65 0 0 0-.071.53c-.44.22-.89.428-1.353.621-.048.024-.072.084-.048.13.012.06.084.083.131.06.172-.07.34-.147.507-.218l.026.017c.153.071.309.107.476.13.153.013.32.013.473-.011.06-.012.108-.06.096-.12a.116.116 0 0 0-.117-.095 1.8 1.8 0 0 1-.44.012 1.428 1.428 0 0 1-.25-.053c.212-.098.422-.2.63-.303.17.05.323.083.464.093.167.024.308.036.452.024.06 0 .105-.048.105-.105-.012-.06-.058-.108-.117-.108a1.535 1.535 0 0 1-.404-.012 3.147 3.147 0 0 1-.208-.038c.253-.134.506-.266.755-.407.12.034.237.058.356.077.144.012.285.024.428.024.06.012.108-.036.108-.096a.107.107 0 0 0-.108-.107 4.96 4.96 0 0 1-.519-.055c.223-.132.44-.266.655-.4.115.032.223.05.34.05.117.013.248.013.38 0 .057 0 .095-.059.095-.116-.012-.048-.06-.096-.12-.084-.119.012-.4-.01-.43-.014.371-.237.734-.478 1.095-.725a.11.11 0 0 0 .024-.153.11.11 0 0 0-.153-.024c-.365.256-.74.51-1.123.753.012-.069.029-.145.055-.222ZM20.97 4.335a.282.282 0 0 0 .083-.191.288.288 0 0 0-.287-.275.282.282 0 0 0-.19.083.26.26 0 0 0-.085.192.268.268 0 0 0 .275.263.303.303 0 0 0 .204-.072ZM7.19 18.745c0 1.476.669 2.229 2.038 2.303 1.14 0 2.321 0 3.49.083.758.053 1.403.397 1.939 1.043.442-.588 1.054-.92 1.981-1.043 1.107-.083 2.235-.083 3.328-.083 1.321-.096 1.967-.789 1.967-2.123 0-.057 0-.117-.005-.177V6.596H7.19v12.15Zm9.408-6.874h4.57v-.449h-4.51v-.32h4.51v-.452h-4.51v-.332h4.51v-.392h-4.51v-.332h4.51v-.486h-4.51v-.332h4.51v-.538h-4.51v-.32h4.51v-.476h-4.57v-.497h4.986v5.27h-4.986v-.344Zm-.012 8.546h3.04c.512.036 1.224-.273 1.224-.512l-4.262-.012v-.284h4.439c.012-.048.084-.285.084-.485h-4.525v-.285l4.522-.012v-.497h-4.522v-.284h4.522l.012-.584h-4.522v-.284h4.522v-.58h-4.522v-.31h4.522v-.547h-4.522v-.535h4.986v3.965c-.036.961-.832 1.638-1.96 1.542h-3.038v-.296Zm-3.973.296H9.171a1.323 1.323 0 0 1-.856-.296h3.822v-.512H7.995a.65.65 0 0 1-.215-.296h4.357v-.485h-4.5a.86.86 0 0 1-.046-.297h4.546v-.497H7.591v-.284h4.546v-.584H7.591v-.284h4.546v-.58H7.591v-.31h4.546v-.547H7.591v-.535h5.022v5.507ZM7.59 11.871h4.57v-.449H7.65v-.32h4.51v-.452H7.65v-.332h4.51v-.392H7.65v-.332h4.51v-.486H7.65v-.332h4.51v-.538H7.65v-.32h4.51v-.476H7.59v-.497h4.988v5.27H7.59v-.344Zm-.992-5.239v12.102c.115 2.008 1.173 2.942 3.255 2.856l2.885.084.024.007c.89.246 1.511.736 1.913 1.49.43-.837 1.078-1.351 1.971-1.497l3.077-.084c1.637-.023 2.428-.772 2.493-2.347v-.239c-.029 1.437-.772 2.228-2.23 2.33l-.01-.145v.146c-1.138 0-2.213 0-3.303.08-.923.123-1.49.44-1.89 1.062l-.113.168-.156-.197s-.079-.114-.062-.088c-.47-.578-1.061-.896-1.75-.944-1.164-.079-2.337-.079-3.48-.079-1.539-.084-2.32-.954-2.32-2.591V6.388l-.304.244Z"/>
</svg>
