<svg xmlns="http://www.w3.org/2000/svg" width="120" height="30" fill="none">
  <g clip-path="url(#a)">
    <path fill="#000" d="M48.39 20.71c0-.256-.17-.426-.51-.511v-.17c.17 0 .807.042.977.042.128 0 .764-.043.934-.043v.17c-.297.086-.467.256-.467.512v3.196c0 1.023.552 1.577 1.698 1.577 1.02 0 1.784-.469 1.784-1.534v-3.281c0-.256-.17-.427-.51-.512v-.128c.127 0 .637.043.807.043.17 0 .679-.043.806-.043v.17c-.382.086-.51.256-.51.512v3.111c0 1.406-.806 2.216-2.546 2.216-1.614 0-2.463-.724-2.463-2.046v-3.28Zm6.963 5.071c.382-.085.51-.255.51-.511v-4.432c0-.384-.213-.554-.553-.64v-.17h1.231l3.821 4.517V20.71c0-.256-.17-.426-.509-.511v-.17c.127 0 .637.042.807.042.17 0 .679-.043.806-.043v.17c-.382.086-.552.256-.552.512v5.327h-.212c-.127-.043-.424-.17-.849-.64l-3.439-4.005v3.92c0 .256.127.427.51.512v.17c-.128 0-.637-.042-.807-.042-.17 0-.68.042-.807.042l.043-.213Zm30.227-1.193h.17c.085.34.255.64.552.81.255.213.722.298 1.061.298.765 0 1.274-.384 1.274-.98 0-.64-.637-.938-1.358-1.321-.552-.299-1.656-.725-1.656-1.79 0-.98.764-1.62 1.953-1.62.806 0 1.146.214 1.698.171v1.193h-.17c-.212-.724-.849-.937-1.57-.937-.807 0-1.062.469-1.062.895 0 .639.637.98 1.359 1.32.806.342 1.698.81 1.698 1.833 0 .98-.764 1.662-2.123 1.662-.807 0-1.316-.256-1.74-.298l-.086-1.236Zm16.43-1.108-1.571-2.514c-.254-.426-.466-.682-.764-.767v-.17c.213 0 .807.042.934.042.17 0 .764-.043 1.019-.043v.17c-.212.043-.297.129-.297.3 0 .127.085.297.17.468.085.128 1.146 1.918 1.146 1.918l1.104-1.918c.127-.213.17-.384.17-.512 0-.127-.085-.213-.255-.213v-.213c.17 0 .594.043.722.043.127 0 .594-.043.764-.043v.17c-.425.171-.679.555-.934.98l-1.401 2.387-.807-.085Zm.892-.213v2.003c0 .213.17.469.509.511v.17c-.17 0-.806-.042-.976-.042-.17 0-.764.043-.977.043v-.17c.34-.086.51-.3.51-.512v-1.918l.934-.085Zm-29.846-3.239h3.651c.128 0 .298 0 .425-.085h.17l-.043 1.193h-.17c-.127-.383-.297-.681-.976-.681h-1.57v2.13h1.23c.17 0 .383 0 .467-.042.255-.043.383-.213.467-.47h.17v1.492h-.17c-.084-.255-.17-.426-.467-.469-.084-.042-.297-.042-.467-.042h-1.23v2.429h1.74c.764 0 .976-.298 1.146-.767h.17l-.17 1.236c-.552-.043-.891-.043-1.528-.043h-1.826c-.17 0-.806.043-1.019.043v-.17c.34-.086.51-.214.51-.555V20.71c0-.298-.17-.469-.51-.511v-.17Zm-9.34.725c0-.299-.17-.469-.51-.554v-.17c.213 0 .807.042 1.02.042.17 0 .806-.043 1.019-.043v.17c-.34.086-.552.214-.552.555v4.474c0 .299.17.469.552.554v.17c-.213 0-.807-.042-1.02-.042-.169 0-.806.043-1.018.043v-.17c.382-.086.552-.214.552-.555l-.043-4.474Zm27.723 0c0-.299-.17-.469-.51-.554v-.17c.213 0 .85.042 1.02.042.17 0 .806-.043 1.019-.043v.17c-.34.086-.51.214-.51.555v4.474c0 .299.17.469.51.554v.17c-.213 0-.807-.042-1.02-.042-.17 0-.806.043-1.018.043v-.17c.382-.086.51-.214.51-.555v-4.474Zm5.095-.682c-1.996 0-2.335-.043-2.717-.085v1.193h.17c.17-.554.466-.682.849-.682h1.273v4.688c0 .298-.17.468-.552.554v.17c.212 0 .85-.043 1.02-.043.169 0 .806.043 1.018.043v-.17c-.34-.086-.552-.256-.552-.554v-4.688h1.231c.382 0 .68.128.85.682h.17v-1.193c-.468.042-.765.085-2.76.085Zm-16.006 5.156c0 .299.17.469.552.554v.17c-.212 0-.849-.042-1.019-.042-.17 0-.764.043-.976.043v-.17c.34-.086.51-.214.51-.555V20.71c0-.298-.17-.469-.51-.511v-.17c.212 0 .806.042.976.042.297 0 1.104-.043 1.444-.043 1.4 0 2.165.597 2.165 1.577 0 .767-.594 1.321-1.486 1.534 0 0 .212.128.425.341.254.298.934 1.236 1.188 1.577.255.34.637.724 1.02.724v.128c-.17.043-.468.085-.68.085-.467 0-.85-.17-1.231-.596-.34-.384-.85-1.194-1.189-1.62-.212-.255-.467-.468-.891-.554-.085 0-.17-.042-.255-.042l-.043 2.045Zm0-2.386c.17.043.467.043.722.043 1.104 0 1.444-.64 1.444-1.194 0-.81-.51-1.278-1.486-1.278-.213 0-.467.043-.68.085v2.344Zm-13.925-2.088c-.127-.299-.34-.512-.679-.554v-.17c.212 0 .934.042 1.104.042.127 0 .764-.043.976-.043v.17c-.17.043-.424.129-.424.342 0 .128.085.34.254.681l1.529 3.452 1.443-3.451c.128-.299.213-.512.213-.64 0-.17-.17-.298-.425-.34v-.214c.17 0 .637.043.807.043.127 0 .679-.043.891-.043v.17c-.34.086-.594.3-.764.768l-2.123 4.986h-.467l-2.335-5.2Zm5.434-15.725c-.254-.554-.636-.937-1.23-1.065v-.298c.381 0 1.697.042 1.995.042.254 0 1.528-.042 1.952-.042v.298c-.34.085-.764.256-.764.64 0 .255.17.638.467 1.278l2.887 6.562 2.717-6.562c.213-.512.382-.938.382-1.236 0-.341-.34-.597-.764-.682v-.298c.382 0 1.231.042 1.529.042.254 0 1.273-.042 1.698-.042v.298c-.68.17-1.104.597-1.486 1.449l-3.99 9.46h-.892l-4.5-9.844Zm-38.633 9.46c.51-.127.891-.34.891-.937v-8.65c0-.554-.34-.81-.891-.938v-.34c.254 0 1.443.042 1.74.042.34 0 1.571-.043 1.826-.043v.298c-.51.128-.892.341-.892.938v3.665h6.453V4.9c0-.597-.34-.853-.891-.938v-.34c.255 0 1.486.042 1.825.042.298 0 1.486-.043 1.784-.043v.298c-.51.128-.892.341-.892.938v8.65c0 .555.34.81.892.938v.298c-.255 0-1.486-.042-1.784-.042-.34 0-1.528.042-1.825.042v-.255c.51-.128.892-.341.892-.938V9.46h-6.454v4.09c0 .597.34.81.892.938v.298c-.255 0-1.528-.043-1.826-.043-.297 0-1.443.043-1.74.043v-.298Zm74.38 0c.679-.127 1.019-.383 1.019-.98V4.902c0-.597-.382-.853-1.019-.938v-.34c.382 0 1.571.042 1.911.042.551 0 2.037-.128 3.226-.128 3.948 0 6.368 2.216 6.368 5.582 0 3.281-2.505 5.71-6.58 5.71-1.189 0-2.547-.085-3.099-.085-.34 0-1.444.043-1.826.043v-.298Zm2.802-.553c.425.085 1.146.127 1.741.127 3.311 0 5.052-2.002 5.052-4.815 0-2.898-1.826-4.943-4.925-4.943-.637 0-1.443.043-1.868.128v9.503Zm-47.591-.47c0 .555.382.896 1.018 1.024v.298c-.382 0-1.57-.043-1.952-.043-.298 0-1.486.043-1.868.043v-.298c.636-.128.976-.427.976-1.023V4.943c0-.511-.297-.852-.976-.98v-.34c.382 0 1.528.042 1.868.042.551 0 2.08-.085 2.717-.085 2.674 0 4.16 1.107 4.16 2.982 0 1.492-1.104 2.472-2.802 2.898 0 0 .382.213.764.682.467.554 1.783 2.429 2.293 3.068.51.64 1.189 1.364 1.91 1.364v.255c-.34.086-.891.128-1.316.128-.891 0-1.613-.34-2.335-1.193-.594-.724-1.655-2.301-2.25-3.068-.382-.511-.849-.895-1.698-1.023-.17-.042-.34-.042-.51-.085v3.878Zm0-4.516c.34.042.891.085 1.4.085 2.08 0 2.718-1.193 2.718-2.258 0-1.492-1.02-2.43-2.802-2.43-.382 0-.934.043-1.316.128V8.95Zm35.067 4.517c0 .554.382.895 1.019 1.023v.298c-.382 0-1.57-.043-1.91-.043-.298 0-1.486.043-1.869.043v-.298c.637-.128.977-.427.977-1.023V4.943c0-.511-.297-.852-.977-.98v-.34c.383 0 1.529.042 1.868.042.552 0 2.08-.085 2.675-.085 2.675 0 4.161 1.107 4.161 2.982 0 1.492-1.104 2.472-2.802 2.898 0 0 .382.213.764.682.467.554 1.783 2.429 2.292 3.068.51.64 1.189 1.364 1.911 1.364v.255c-.34.086-.892.128-1.316.128-.892 0-1.614-.34-2.335-1.193-.595-.724-1.656-2.301-2.25-3.068-.382-.511-.85-.895-1.698-1.023-.17-.042-.34-.042-.51-.085v3.878Zm0-4.517c.34.042.892.085 1.401.085 2.08 0 2.717-1.193 2.717-2.258 0-1.492-1.019-2.43-2.802-2.43-.382 0-.934.043-1.316.128V8.95Zm-51.2 5.54c.722-.17 1.104-.64 1.358-1.236l3.567-8.608c.17-.341.34-1.065.34-1.065h1.018s.17.724.34 1.107l3.778 8.608c.255.597.552 1.023 1.316 1.194v.298c-.424 0-1.655-.043-1.953-.043-.297 0-1.485.043-1.91.043v-.298c.552-.128.722-.427.722-.682 0-.213-.085-.512-.213-.767l-.806-1.833h-4.16l-.723 1.875c-.084.213-.17.512-.17.725 0 .298.17.554.765.724v.298c-.382 0-1.359-.042-1.57-.042l-1.614.042-.085-.34Zm7.09-4.177L52.169 6.18l-1.656 4.133h3.439Zm28.232 4.177c.722-.17 1.104-.64 1.359-1.236l3.566-8.608c.17-.341.34-1.065.34-1.065h1.018s.17.724.34 1.107l3.778 8.608c.255.597.552 1.023 1.317 1.194v.298c-.425 0-1.656-.043-1.953-.043-.298 0-1.486.043-1.91.043v-.298c.551-.128.72-.427.72-.682 0-.213-.084-.512-.211-.767l-.807-1.833h-4.16l-.722 1.875c-.085.213-.17.512-.17.725 0 .298.17.554.764.724v.298c-.382 0-1.359-.042-1.57-.042l-1.614.042v-.34h-.085Zm7.047-4.177L87.448 6.18l-1.655 4.133h3.438ZM.502.17h24.836v9.418c0 4.304-1.613 13.466-12.312 20.284 0 0-11.633-4.858-12.524-20.284V.171Z"/>
    <path fill="#000" d="m12.983 30-.084-.043c-.085-.042-11.675-5.07-12.567-20.369V0h25.133v9.545c0 3.75-1.189 13.296-12.397 20.37l-.085.085ZM.63.298v9.247c.85 14.49 11.378 19.688 12.354 20.114C23.98 22.628 25.169 13.253 25.169 9.545V.298H.629Z"/>
    <path fill="#fff" d="M19.31 12.273s-.213.724-1.19 0l-3.396-.086s-.424.128-.51-.34c0 0 .086-.938.043-1.023 0 0 0-.256-.424-.256 0 0-.68.085-.722-.511 0 0-.127-.64.807-.64 0 0 .297.128.34-.255 0 0-.043-2.642 0-2.813 0 0 .084-.255-.383-.298 0 0-.68.128-.764-.298 0 0-.042-.682.425-.725 0 0 .552.043.636-.085 0 0 .128.085.085-.383v-.853s.043-.213.425-.213c0 0 .637.043.722 0 0 0 .127-.17.17-.255 0 0 .339 0 .382.042 0 0 .466.341 2.335.213 0 0 .297 0 .34.085 0 0 .339.256.551 0 0 0 .297-.042 1.189-.042 0 0 .976.256 1.655-.298l.213.042s.297.469.467.341c0 0 .594-.043.721.043 0 0 .213.298.085 1.108 0 0-.127.34.467.34 0 0 .68-.127.595.512 0 0 .17.724-.934.597 0 0-.128.213-.128.34 0 0-.042 2.302-.042 2.557 0 0-.043.341.467.341 0 0 .637-.042.68.554 0 0 .084.767-.85.64 0 0-.297.042-.34.212l-.042 1.023s.042.511-.552.384c-.085 0-3.141.042-3.396 0 .042-.086-.085-.086-.128 0Zm-6.496 3.366s.127-.042.17-.17c0 0 .424-.043.467-.086l1.316.086s1.316.085 1.868-.299c0 0 .212 0 .34.043 0 0 .297.043.339.17h.764s.425.128.425.427v.383s-.085.724.127.767h.595s.466.213.424.511c0 0 0 .427-.425.47 0 0-.424.127-.551.085 0 0-.128.17-.17.426l-.043 2.642s-.042.298.382.255c0 0 .637-.042.807.299 0 0 .17.596-.17.681l-.255.128-.509.085s-.212.043-.255.384v.725s0 .468-.34.468l-.551.043s-.128.128-.425.043c0 0-3.439.042-3.523.042l-.425.085s-.425.384-.807.085l-.297-.213s-.212.043-.297.043c-.085-.043-3.779.043-3.779.043s-.806.085-.849-.17c0 0-.085-1.024-.042-1.151 0 0 0-.299-.17-.341 0 0-.807-.043-.807-.128 0 0-.424-.298-.297-.597 0 0 .128-.383.552-.426 0 0 .637.085.637-.085 0 0 .042-.128.042-.34 0 0 .043-2.387 0-2.558 0 0 .043-.298-.212-.298 0 0-.297.085-.467-.043 0 0-.467 0-.594-.34 0 0-.085-.256.042-.427 0 0 .213-.426.85-.298 0 0 .339.085.424-.17v-.98s-.085-.256.424-.427c0 0 .637.17.85-.128 0 0 .212-.426.424-.127 0 0 .382.383 1.444.34 0 0 1.825-.127 1.868-.085 0 0 .424.086.552.213l.127-.085Zm-5.477-3.366s-.212.724-1.189 0l-3.396-.086s-.424.128-.51-.34c0 0 .086-.938.043-1.023 0 0 .043-.256-.424-.256 0 0-.68.085-.722-.511 0 0-.128-.64.806-.64 0 0 .298.128.34-.255 0 0-.042-2.642-.042-2.813 0 0 .085-.255-.382-.298 0 0-.68.128-.765-.298 0 0-.042-.682.382-.725 0 0 .552.043.637-.085 0 0 .128.085.085-.426l.043-.81s.042-.213.382-.213c0 0 .637.043.721 0 0 0 .128-.17.17-.255 0 0 .34 0 .382.042 0 0 .467.341 2.335.213 0 0 .298 0 .34.085 0 0 .34.256.552 0 0 0 .297-.042 1.231-.042 0 0 .977.256 1.656-.298l.212.042s.297.469.467.341c0 0 .595-.043.722.043 0 0 .212.298.085 1.108 0 0-.128.34.467.34 0 0 .679-.127.594.512 0 0 .17.724-.934.597 0 0-.127.213-.127.34 0 0 0 2.302-.043 2.557 0 0 0 .341.467.341 0 0 .637-.042.68.554 0 0 .085.767-.85.64 0 0-.297.042-.34.212l-.042 1.023s0 .511-.551.384c-.085 0-3.142.042-3.397 0 .085-.086-.042-.086-.085 0Z"/>
    <path fill="#000" d="M19.31 12.273s-.213.724-1.189 0l-3.396-.086s-.425.128-.51-.34c0 0 .085-.938.043-1.023 0 0 0-.256-.425-.256 0 0-.68.085-.722-.511 0 0-.127-.64.807-.64 0 0 .297.128.34-.255 0 0-.043-2.642 0-2.813 0 0 .085-.255-.382-.298 0 0-.68.128-.765-.298 0 0-.042-.682.425-.725 0 0 .552.043.637-.085 0 0 .127.085.085-.383v-.853s.042-.213.424-.213c0 0 .637.043.722 0 0 0 .127-.17.17-.255 0 0 .34 0 .382.042 0 0 .467.341 2.335.213 0 0 .297 0 .34.085 0 0 .339.256.551 0 0 0 .298-.042 1.189-.042 0 0 .977.256 1.656-.298l.212.042s.297.469.467.341c0 0 .594-.043.722.043 0 0 .212.298.085 1.108 0 0-.128.34.467.34 0 0 .679-.127.594.512 0 0 .17.724-.934.597 0 0-.127.213-.127.34 0 0-.043 2.302-.043 2.557 0 0-.042.341.467.341 0 0 .637-.042.68.554 0 0 .084.767-.85.64 0 0-.297.042-.34.212l-.042 1.023s.043.511-.552.384c-.084 0-3.141.042-3.396 0 .043-.086-.085-.086-.127 0Z"/>
    <path stroke="#000" stroke-width=".164" d="M19.31 12.273s-.213.724-1.189 0l-3.396-.086s-.425.128-.51-.34c0 0 .085-.938.043-1.023 0 0 0-.256-.425-.256 0 0-.68.085-.722-.511 0 0-.127-.64.807-.64 0 0 .297.128.34-.255 0 0-.043-2.642 0-2.813 0 0 .085-.255-.382-.298 0 0-.68.128-.765-.298 0 0-.042-.682.425-.725 0 0 .552.043.637-.085 0 0 .127.085.085-.383v-.853s.042-.213.424-.213c0 0 .637.043.722 0 0 0 .127-.17.17-.255 0 0 .34 0 .382.042 0 0 .467.341 2.335.213 0 0 .297 0 .34.085 0 0 .339.256.551 0 0 0 .298-.042 1.189-.042 0 0 .977.256 1.656-.298l.212.042s.297.469.467.341c0 0 .594-.043.722.043 0 0 .212.298.085 1.108 0 0-.128.34.467.34 0 0 .679-.127.594.512 0 0 .17.724-.934.597 0 0-.127.213-.127.34 0 0-.043 2.302-.043 2.557 0 0-.042.341.467.341 0 0 .637-.042.68.554 0 0 .084.767-.85.64 0 0-.297.042-.34.212l-.042 1.023s.043.511-.552.384c-.084 0-3.141.042-3.396 0 .043-.086-.085-.086-.127 0Z"/>
    <path fill="#fff" d="M15.53 3.92s.043.427.043.512l-.043 5.838s.043.426-.34.682c0 0-.084.042-.127-.256l.043-6.051s.042-.724.425-.724Z"/>
    <path stroke="#000" stroke-width=".172" d="M15.53 3.92s.043.427.043.512l-.043 5.838s.043.426-.34.682c0 0-.084.042-.127-.256l.043-6.051s.042-.724.425-.724Z"/>
    <path fill="#fff" d="M14.852 10.994s.042-5.71 0-5.795v.085s-.043-.98.212-1.406c0 0-.085-.341-.552.085v.81s0 .468-.425.426c0 0-.467 0-.721.213 0 0-.128.426.34.383 0 0 .721 0 .764.299l-.043 3.068s.17.511-.425.511c0 0-.679-.042-.679.384 0 0 .128.34.722.255 0 0 .425.086.425.47v.766s-.043.299.34.341h3.14s.17 0 .17-.17c0 0 0-.17-.254-.17l-2.547-.043s-.425.127-.467-.512Z"/>
    <path fill="#fff" d="M15.446 10.994s-.085.299.213.213h2.08l.552.128s.594-.128 0-.469h-1.996s-.382-.085-.467-.127c0 0-.212-.086-.382.255Z"/>
    <path stroke="#000" stroke-width=".172" d="M15.446 10.994s-.085.299.213.213h2.08l.552.128s.594-.128 0-.469h-1.996s-.382-.085-.467-.127c0 0-.212-.086-.382.255Z"/>
    <path fill="#fff" d="M18.884 11.293s-.382 0-.34.511c0 0 .043.384.425.384 0 0 .34-.043.34-.47 0 0-.255-.51-.425-.425Zm.298-.213s.17-.213.297-.213c0 0 1.995.17 2.335-.043 0 0 .297-.043.382 0 0 0 .297.256.297.383 0 0 0 .17-.382.086h-2.378s-.636.17-.551-.213Z"/>
    <path stroke="#000" stroke-width=".172" d="M19.182 11.08s.17-.213.297-.213c0 0 1.995.17 2.335-.043 0 0 .297-.043.382 0 0 0 .297.256.297.383 0 0 0 .17-.382.086h-2.378s-.636.17-.551-.213Z"/>
    <path fill="#fff" d="M19.437 11.719s0-.17.297-.17h2.802s.255.127.255-.341c0 0 .084-2.216.127-4.645 0-.725.042-1.492 0-2.174 0 0-.085-.298-.127-.383 0 0 0-.341.34-.213 0 0 .296 0 .212.468v.682s-.043.299.466.213c0 0 .552.086.552.299 0 0 .17.426-.467.383h-.467s-.212.128-.127.384l-.042 2.94s-.043.511.424.469c0 0 .51 0 .595.128 0 0 .34.511-.383.468 0 0-.467 0-.551.043 0 0-.085.085-.128 1.065 0 0 .043.554-.382.512 0 0-2.802.042-3.057 0 0 .042-.297.128-.34-.128ZM15.828 3.75l-.085 6.477s0 .299.467.341c0 0 .595.043.722 0h1.358s.255.256.255-.085c0 0 .17-5.241.085-6.35 0 0 0-.468-.382-.468 0 0-1.528.128-1.656 0l-.552-.085s-.254 0-.212.17Z"/>
    <path fill="#fff" d="M19.013 4.09s-.043 3.07-.043 3.154l-.042 2.557-.085.895s.127.17.212.043c0 0 .637-.17 1.061-.086 0 0 1.274.128 1.571-.085 0 0 .212.085.255-.213 0 0 .085-5.667.042-5.753 0 0 .085-.81.043-.895 0 0 0-.17-.34 0 0 0 .043.17-1.868.086-.042 0-.806-.043-.806.298Zm3.184-.084v6.392s.17.554.424.511c0 0 .043-.128.043-.34l.085-6.095s-.213-.937-.552-.468Z"/>
    <path stroke="#000" stroke-width=".172" d="M22.196 4.006v6.392s.17.554.425.511c0 0 .042-.128.042-.34l.085-6.095s-.212-.937-.552-.468Z"/>
    <path fill="#000" d="M19.734 5.923c-.043-.17.34-.17.34-.17l.211.042c.128 0 .298.043.298.043.127.213-.085.34-.085.34l-.085.257v2.13c.042.086.212.299.212.299 0 .17-.212.127-.212.127h-.595c-.17 0-.127-.213-.127-.213.212-.085.255-.468.255-.468V6.307l-.212-.384Zm-2.718 1.875-.042.64.17.298c.127.17-.085.298-.085.298l-.637-.085c-.127-.043 0-.256 0-.256.17-.085.17-.34.17-.34V6.306c0-.085-.17-.299-.17-.299-.127 0-.085-.213-.085-.213.043-.085.382-.042.382-.042h.85c.806.255.679.852.679.852.042.597-.552.81-.552.81l-.043.34.595.938c.085.085.085.17.085.17-.085.214-.425 0-.425 0l-.722-1.15c-.085-.085-.17.085-.17.085Zm0-1.62v1.066c.383.299.595-.128.595-.128.51-.468 0-.937-.085-1.065-.085-.128-.467 0-.467 0l-.043.128Zm-4.202 9.461s.127-.042.17-.17c0 0 .424-.043.466-.085l1.316.085s1.316.085 1.868-.299c0 0 .213 0 .34.043 0 0 .297.043.34.17h.764s.424.128.424.427v.383s-.084.725.128.767h.594s.467.213.425.511c0 0 0 .427-.425.47 0 0-.424.127-.552.085 0 0-.127.17-.17.426l-.042 2.642s-.043.298.382.255c0 0 .637-.042.807.299 0 0 .17.596-.17.681l-.255.128-.51.086s-.212.042-.254.383v.725s0 .468-.34.468l-.552.043s-.127.128-.424.043c0 0-3.439.042-3.524.042l-.424.085s-.425.384-.807.086l-.297-.213s-.213.042-.297.042c-.085-.043-3.779.043-3.779.043s-.807.085-.849-.17c0 0-.085-1.024-.042-1.151 0 0 0-.299-.17-.341 0 0-.807-.043-.807-.128 0 0-.424-.298-.297-.597 0 0 .127-.383.552-.426 0 0 .637.085.637-.085 0 0 .042-.128.042-.34 0 0 .043-2.387 0-2.558 0 0 .043-.298-.212-.298 0 0-.297.085-.467-.043 0 0-.467 0-.595-.34 0 0-.084-.256.043-.427 0 0 .212-.426.849-.298 0 0 .34.085.425-.17v-.98s-.085-.256.424-.427c0 0 .637.17.85-.127 0 0 .211-.427.424-.128 0 0 .382.383 1.443.34 0 0 1.826-.127 1.868-.085 0 0 .425.086.552.213l.127-.085Z"/>
    <path stroke="#000" stroke-width=".164" d="M12.813 15.597s.128-.043.17-.17c0 0 .425-.043.467-.086l1.316.085s1.316.085 1.868-.298c0 0 .213 0 .34.042 0 0 .297.043.34.17h.764s.424.129.424.427v.34s-.084.725.128.768h.594s.467.213.425.511c0 0 0 .427-.425.47 0 0-.424.127-.552.084 0 0-.127.17-.17.426l-.042 2.643s-.043.298.382.255c0 0 .637-.042.807.299 0 0 .17.596-.17.681l-.255.128-.51.085s-.212.043-.254.384v.724s0 .47-.34.47l-.552.042s-.127.127-.424.042c0 0-3.439.043-3.524.043l-.424.085s-.425.384-.807.085l-.297-.213s-.213.043-.297.043c-.085-.043-3.779.043-3.779.043s-.807.085-.849-.17c0 0-.085-1.024-.042-1.151 0 0 0-.299-.17-.341 0 0-.807-.043-.807-.128 0 0-.424-.299-.297-.597 0 0 .127-.383.552-.426 0 0 .637.085.637-.085 0 0 .042-.128.042-.341 0 0 .043-2.387 0-2.557 0 0 .043-.298-.212-.298 0 0-.297.085-.467-.043 0 0-.467 0-.595-.34 0 0-.084-.256.043-.427 0 0 .212-.426.849-.298 0 0 .382.085.425-.17v-.98s-.085-.256.424-.427c0 0 .637.17.85-.128 0 0 .211-.426.424-.128 0 0 .382.384 1.443.341 0 0 1.826-.127 1.868-.085 0 0 .425.085.552.213l.127-.042Z"/>
    <path fill="#fff" d="M13.323 23.565s.255-.128.425-.085c.17.043 2.505-.043 2.505-.043s1.018.086 1.188-.085l.255-.085s.085-.128.085-.298v-.725l.042-.213V16.45s.085-.426-.17-.682c0 0 0-.17.085-.128.085.043.043 0 .043 0s.34-.085.424.043c0 0 .17.469 0 .767 0 0-.042.596.255.596 0 0 .127.128.34.043 0 0 .51.043.51.213 0 0 0 .384-.34.298l-.467.043s-.34.085-.298.426c.043.384 0 3.153 0 3.153s0 .341.51.299c0 0 .637-.043.637.17 0 0 .17.384-.297.426 0 0-.85-.042-.765.213 0 0-.042.555-.085.682 0 0 .085.47 0 .554 0 0-.042.256-.594.213 0 0-3.439 0-3.99.043-.043.085-.383.043-.298-.256Zm-.594-.383s.34.042.34.383 0 .512-.17.554c-.213.043-.425-.042-.467-.298-.085-.256 0-.554.297-.64Z"/>
    <path fill="#fff" d="M13.111 23.011s.34-.255.51-.213c0 0 1.825.128 2.377.043.552-.085.212-.043.212-.043s.467 0 .637-.17c0 0 .127-.043.212.085l.297.341s0 .213-.34.17c0 0-3.268 0-3.395.043.042 0-.552.085-.51-.256Z"/>
    <path stroke="#000" stroke-width=".172" d="M13.111 23.011s.34-.255.51-.213c0 0 1.825.128 2.377.043.552-.085.212-.043.212-.043s.467 0 .637-.17c0 0 .127-.043.212.085l.297.341s0 .213-.34.17c0 0-3.268 0-3.395.043.042 0-.552.085-.51-.256Z"/>
    <path fill="#fff" d="M8.356 15.852s.127 0 .127.256l-.042 6.094s.042.383-.298.682c0 0-.17.213-.17-.128l.086-6.222s0-.469.297-.682Z"/>
    <path stroke="#000" stroke-width=".172" d="M8.356 15.852s.127 0 .127.256l-.042 6.094s.042.383-.298.682c0 0-.17.213-.17-.128l.086-6.222s0-.469.297-.682Z"/>
    <path fill="#fff" d="M8.017 15.895s-.255.426-.213.554v6.733s-.042.469.34.34c0 0 3.524-.084 3.778 0 0 0 .34.043.213.214 0 0 0 .128-.213.085 0 0-1.655.17-3.184.085 0 0-1.018.043-1.06-.042 0 0-.17-.043-.17-.597 0 0 0-.554-.043-.64 0 0 .042-.297-.467-.34 0 0-.722.128-.722-.298 0 0 .085-.299.807-.256 0 0 .51.085.382-.34l.042-2.984s.085-.511-.297-.554h-.424s-.595 0-.552-.34c0 0 .212-.342.806-.299 0 0 .425.085.467-.426 0 0 0-1.023.213-1.065-.043 0 .467.042.297.17Z"/>
    <path fill="#fff" d="M8.61 22.585s.298.299.765.299l2.717.042s.297.043.297.17c0 0-.042.256-.424.171l-3.312-.043-.382.043s-.255-.043.128-.511l.212-.17Z"/>
    <path stroke="#000" stroke-width=".172" d="M8.61 22.585s.298.299.765.299l2.717.042s.297.043.297.17c0 0-.042.256-.424.171l-3.312-.043-.382.043s-.255-.043.128-.511l.212-.17Z"/>
    <path fill="#fff" d="M17.059 22.33s.254.468.34.51c0 0 .211.257.17-.212l.041-5.838s-.042-.213 0-.512l-.254-.426s-.255-.213-.255.128v6.18l-.042.17Z"/>
    <path stroke="#000" stroke-width=".172" d="M17.059 22.33s.254.468.34.51c0 0 .211.257.17-.212l.041-5.838s-.042-.213 0-.512l-.254-.426s-.255-.213-.255.128v6.18l-.042.17Z"/>
    <path fill="#fff" d="M12.602 19.56s0 .469-.043.937c-.042.256.085 1.45 0 2.046 0 0 0 .213-.424.042 0 0-2.59.043-2.633-.042 0 0-.721.042-.764-.341 0 0 .085-2.77.043-2.855 0 0-.043-1.492 0-1.662 0 0 .042-1.406 0-1.577 0 0 0-.34-.043-.469 0 0 0-.213.34-.085 0 0 .127.213.764.128 0 0 .467.085.934 0 0 0 1.019-.085 1.274 0 0 0 .424-.085.51.383v1.236l.127.426.127-.085.042-.298v-1.321s.085-.256.425-.298c0 0 .51-.043.594 0 .085.042 1.189.085 1.486.042.297-.042.34.213 1.274-.256 0 0 .255 0 .255.17 0 0-.085 1.705 0 2.046 0 0 0 3.154-.085 3.367l.042 1.023s.043.426-.68.468c0 0 .425.043-2.334-.042 0 0-.425-.043-.934.213 0 0-.085-.043-.085-.299 0 0 .085-.937 0-1.875l-.043-1.022h-.17Z"/>
    <path fill="#000" d="M10.819 18.11s.042 1.492 0 1.705v.341s.084.213.212.299c0 0 .085.298-.128.255 0 0-.51-.043-.636 0 0 0-.298 0 0-.34 0 0 .085-.129.085-.512 0 0 0-1.705.042-1.79 0 0 .042-.213-.085-.298h-.255l-.297.298s-.085.298-.212 0v-.17l.17-.47h.127s.17.129.34.171h.934l.34-.17s.127 0 .084.213c0 0 .043.469-.212.511 0 0-.17-.042-.255-.298 0-.043-.255-.213-.255.256Zm4.415-.553s-.764-.085-.764.767c0 0-.085.554.764.937 0 0 .637.299.594.682 0 0-.085.682-.764.341 0 0-.34-.17-.297-.34 0 0-.085-.214-.212-.171 0 0-.128.042-.085.724 0 0 0 .256.297 0l.17.043s.552.426 1.019-.085c0 0 .509-.47.127-1.023 0 0-.255-.426-.722-.597 0 0-.424-.213-.552-.554 0 0 .128-.596.68-.298 0 0 .212.256.34.298 0 0 .169 0 .127-.383l-.043-.299s-.042-.213-.34 0c0-.042-.254.086-.34-.042Zm-2.42-.426c.127.085.17.298.17.298.424 1.065.764 2.642.764 2.642.085.213.297.34.297.34.34.129 0 .214 0 .214-.127.043-.594 0-.594 0-.255-.043-.128-.128-.128-.128.085-.085 0-.511 0-.511 0-.17-.212-.426-.212-.426-.085-.043-.212.127-.212.127s-.212.086-.255 0c-.042-.085-.17-.17-.17-.17-.255 0-.34.597-.34.597.128.51 0 .426 0 .426-.127.17-.509.042-.509.042-.17-.042-.042-.17-.042-.17.212-.043.297-.298.297-.298.085-.128.764-2.77.764-2.77-.042-.043 0-.299.17-.213Zm-.34 1.363c0 .085-.17.682-.17.682l.128.213h.424c.085 0 .128-.085.128-.213 0-.085-.213-.724-.213-.724l-.085-.128-.212.17Zm-5.137-6.221s-.212.724-1.189 0l-3.396-.086s-.424.128-.51-.34c0 0 .086-.938.043-1.023 0 0 .043-.256-.424-.256 0 0-.68.085-.722-.511 0 0-.128-.64.806-.64 0 0 .298.128.34-.255 0 0-.042-2.642-.042-2.813 0 0 .085-.255-.382-.298 0 0-.68.128-.765-.298 0 0-.042-.682.382-.725 0 0 .552.043.637-.085 0 0 .128.085.085-.426l.043-.81s.042-.213.382-.213c0 0 .637.043.721 0 0 0 .128-.17.17-.255 0 0 .34 0 .382.042 0 0 .467.341 2.335.213 0 0 .298 0 .34.085 0 0 .34.256.552 0 0 0 .297-.042 1.231-.042 0 0 .977.256 1.656-.298l.212.042s.297.469.467.341c0 0 .595-.043.722.043 0 0 .212.298.085 1.108 0 0-.128.34.467.34 0 0 .679-.127.594.512 0 0 .17.724-.934.597 0 0-.127.213-.127.34 0 0 0 2.302-.043 2.557 0 0 0 .341.467.341 0 0 .637-.042.68.554 0 0 .085.767-.85.64 0 0-.297.042-.34.212l-.042 1.023s0 .511-.551.384c-.085 0-3.142.042-3.397 0 .085-.086-.042-.086-.085 0Z"/>
    <path stroke="#000" stroke-width=".164" d="M7.337 12.273s-.212.724-1.189 0l-3.396-.086s-.424.128-.51-.34c0 0 .086-.938.043-1.023 0 0 .043-.256-.424-.256 0 0-.68.085-.722-.511 0 0-.128-.64.806-.64 0 0 .298.128.34-.255 0 0-.042-2.642-.042-2.813 0 0 .085-.255-.382-.298 0 0-.68.128-.765-.298 0 0-.042-.682.382-.725 0 0 .552.043.637-.085 0 0 .128.085.085-.426l.043-.81s.042-.213.382-.213c0 0 .637.043.721 0 0 0 .128-.17.17-.255 0 0 .34 0 .382.042 0 0 .467.341 2.335.213 0 0 .298 0 .34.085 0 0 .34.256.552 0 0 0 .297-.042 1.231-.042 0 0 .977.256 1.656-.298l.212.042s.297.469.467.341c0 0 .595-.043.722.043 0 0 .212.298.085 1.108 0 0-.128.34.467.34 0 0 .679-.127.594.512 0 0 .17.724-.934.597 0 0-.127.213-.127.34 0 0 0 2.302-.043 2.557 0 0 0 .341.467.341 0 0 .637-.042.68.554 0 0 .085.767-.85.64 0 0-.297.042-.34.212l-.042 1.023s0 .511-.551.384c-.085 0-3.142.042-3.397 0 .085-.086-.042-.086-.085 0Z"/>
    <path fill="#fff" d="M3.559 3.92s.042.427.042.512L3.56 10.27s.042.426-.34.682c0 0-.085.042-.127-.256l.042-6.051s.043-.724.425-.724Z"/>
    <path stroke="#000" stroke-width=".172" d="M3.559 3.92s.042.427.042.512L3.56 10.27s.042.426-.34.682c0 0-.085.042-.127-.256l.042-6.051s.043-.724.425-.724Z"/>
    <path fill="#fff" d="M2.88 10.994 2.921 5.2c-.043-.085 0 .085 0 .085s-.043-.98.212-1.406c0 0-.085-.341-.552.085l-.042.852s0 .469-.425.426c0 0-.467 0-.722.213 0 0-.127.427.34.384 0 0 .722 0 .764.298l-.042 3.068s.17.512-.382.512c0 0-.68-.043-.68.383 0 0 .128.341.722.256 0 0 .425.085.382.469v.767s-.042.298.382.34H6.02s.17 0 .17-.17c0 0 0-.17-.255-.17l-2.59-.085s-.424.127-.467-.512Z"/>
    <path fill="#fff" d="M3.431 11.037s-.085.298.212.213h2.08l.553.128s.594-.128 0-.469H4.28s-.382-.085-.467-.128c0 0-.212-.085-.382.256Z"/>
    <path stroke="#000" stroke-width=".172" d="M3.431 11.037s-.085.298.212.213h2.08l.553.128s.594-.128 0-.469H4.28s-.382-.085-.467-.128c0 0-.212-.085-.382.256Z"/>
    <path fill="#fff" d="M6.87 11.335s-.382 0-.382.512c0 0 .042.383.424.383 0 0 .34-.085.34-.469 0 0-.212-.511-.382-.426Zm.255-.213s.17-.213.297-.213c0 0 1.995.17 2.335-.043 0 0 .297-.042.382 0 0 0 .297.256.297.384 0 0 0 .17-.382.085H7.677c.042 0-.595.17-.552-.213Z"/>
    <path stroke="#000" stroke-width=".172" d="M7.125 11.122s.17-.213.297-.213c0 0 1.996.17 2.335-.043 0 0 .297-.042.382 0 0 0 .298.256.298.384 0 0 0 .17-.383.085H7.677c.042 0-.594.17-.552-.213Z"/>
    <path fill="#fff" d="M7.465 11.719s0-.17.297-.17h2.802s.254.127.254-.341c0 0 .085-2.216.128-4.645 0-.725.042-1.492 0-2.174 0 0-.043-.298-.128-.383 0 0 0-.341.34-.213 0 0 .297 0 .212.468v.725s-.042.298.467.213c0 0 .552.085.552.298 0 0 .17.426-.467.384h-.467s-.212.128-.127.383l-.043 2.94s-.042.512.425.47c0 0 .51 0 .594.127 0 0 .34.512-.424.469 0 0-.467 0-.552.043 0 0-.085.085-.127 1.065 0 0 .042.554-.383.511 0 0-2.802.043-3.056 0 0 0-.255.086-.297-.17ZM3.855 3.75l-.084 6.477s0 .299.467.341c0 0 .594.043.722 0h1.358s.255.256.255-.042c0 0 .17-5.242.085-6.35 0 0 0-.469-.382-.469 0 0-1.529.128-1.656 0l-.552-.127s-.255 0-.212.17Z"/>
    <path fill="#fff" d="M10.224 4.006v6.392s.17.554.425.511c0 0 .042-.128.042-.34l.085-6.095s-.212-.98-.552-.468Z"/>
    <path stroke="#000" stroke-width=".172" d="M10.224 4.006v6.392s.17.554.425.511c0 0 .042-.128.042-.34l.085-6.095s-.212-.98-.552-.468Z"/>
    <path fill="#fff" d="M6.997 4.048s-.042 3.069-.042 3.154l-.043 2.557-.042.894s.127.171.212.043c0 0 .637-.17 1.061-.085 0 0 1.274.128 1.571-.085 0 0 .212.085.255-.213 0 0 .085-5.668.042-5.753 0 0 .085-.81.043-.895 0 0 0-.17-.382 0 0 0 .042.17-1.868.085-.043 0-.765 0-.807.298Z"/>
    <path fill="#000" d="m6.403 5.923-.17.384s-.425 1.96-.68 2.344c0 0-.042.426-.381.085 0 0-.807-2.472-.85-2.557l-.254-.17s-.17-.213.127-.256h.764s.255.213-.085.426c0 0 .043.341.467 1.577 0 0 .128.469.255.128l.425-1.45-.128-.425s-.127-.213.043-.213c0 0 .424-.043.467.127Zm1.146.341v2.131l-.042.17s-.213.256-.043.299c0 0-.17.128 1.274.128 0 0 .552.085.424-.64 0 0-.042-.255-.254.128 0 0-.043.341-.807.213 0 0-.17-.128-.17-.298V7.5s0-.213.34-.213c0 0 .382.256.424.128 0 0 .128-.341 0-.511 0 0-.17 0-.212.042 0 0-.127.256-.467.085 0 0-.17-.34-.042-.596 0 0-.043-.512.297-.469 0 0 .424.085.424.213 0 0 .085.256.213-.043l-.085-.298s-.043-.128-.17-.085c0 0-.68.085-.764 0l-.552.043s-.085.213.17.298c0 .042.042.085.042.17Z"/>
  </g>
  <defs>
    <clipPath id="a">
      <path fill="#fff" d="M.332 0h119v30h-119z"/>
    </clipPath>
  </defs>
</svg>
