<svg xmlns="http://www.w3.org/2000/svg" width="49" height="28" fill="none">
  <path fill="#fff" d="M3.88 0h6.577a2.875 2.875 0 0 1 2.881 2.881V25.12A2.875 2.875 0 0 1 10.457 28H3.879a2.875 2.875 0 0 1-2.881-2.881V2.88A2.875 2.875 0 0 1 3.879 0Z"/>
  <path fill="#000" d="m8.823 5.133.01.094c.198.118.302.212.504.343.533.338 1.187.938 1.106 3 .153.45.22 1.33.356 1.61.275.554.464.915.546 1.434 0 0 .08.811.184.87.55.126.393.18.47.28.085.108.405.103.405.401.113.149.199.298.257.46V2.905a2.216 2.216 0 0 0-2.214-2.22H8.332c.338.122.532.267.645.492.27.023.59.632.09 1.538.22.154.05.38-.109.636-.05.081-.099.23-.248.221-.198.41-.428.798-.604.82-.05.064-.086.24-.009.321.257.117.568.27.726.42Zm1.976 22.153-.023.004c.97-.59.37-1.709.185-2.367l.036-.113c.05-.09-.054-.302-.054-.302-.122-.1-.149-.65-.212-.902-.104-.41.185-1.128.185-1.371 0-.244-.185-.578-.519-1.002-.081-.094-.325-2.173-.541-2.701-.302-.726-.392-.61-.753-1.48-.275-.608-.059-1.506-.681-3.59l.14-.13s-.496-1.813-.659-2.31c-.158-.495-.45-.527-.45-.527l.017-.257c.023-.077.604-1.588.654-1.637.005-.032.839-.605.852-.519.068.37.393 2.25.533 2.548.14.302.622 1.222.843 1.795a1.982 1.982 0 0 0-1.506 1.917 1.979 1.979 0 0 0 3.82.73L12.66 25.1a2.199 2.199 0 0 1-1.862 2.187Z"/>
  <path fill="#000" d="M7.636.686c-.721.28-.82.59-.847 1.592-.122.013-.375-.104-.289.505 0 0 .045.406.207.338-.126.884-.026 1.105-.613 1.168a8.35 8.35 0 0 1-.469.032l-.059.081c-.802.077-1.2.025-1.718.708-.198.262-.41.631-.672 1.16 0 0-.239.59-.311.833-.23.483-.794 1.552-.96 2.237-.055.235-.159.307-.01.645.221.488-.144.614 1.11.578v.288s-.334.289-.406.46c-.068.176-.262 1.038-.253 1.448.023 1.069.893 1.962 1.15 3.026l.582.082c.316.726 1.696 2.683 2.016 2.999l.014.013c.072.185.428.415.635.645.127.122.709.753 1.484 1.353.285.22.591.438.911.623-.009-.005.19.392.289.717-.397.32.374.906.609 1.876.013.13-.226.262.13.582-.022 1.465-.468 2.232.28 2.638H3.848a2.221 2.221 0 0 1-2.17-2.214V2.905a2.22 2.22 0 0 1 2.17-2.22h3.788Z"/>
  <path fill="#000" fill-rule="evenodd" d="M16.658.67v26.61h2.876c.008-6.853.163-13.734-.259-20.506l3.316 20.505h4.127V.67H23.87c-.058 7.055.192 14.012.67 20.896L21.096.67h-4.437ZM41.59.654l-2.827 26.632h3.517l.46-5.385h2.3l.46 5.385h3.501L46.257.654h-4.668Zm2.3 7.517.888 10.605h-1.775l.887-10.605Z" clip-rule="evenodd"/>
  <path fill="#000" d="M28.935.673v26.594h5.143c.844 0 3.714-.736 3.714-4.429v-5.312c0-.56.005-2.314-1.528-3.345.958 0 1.528-1.858 1.528-3.547V4.937c0-2.22-1.381-4.27-4.157-4.264h-4.7Zm3.171 3.4h1.562c.715 0 .953.79.953 1.397v6.194c0 1.059-.349 1.139-1.069 1.139h-1.446v-8.73Zm0 11.634h1.562c.715 0 .953.79.953 1.397v5.532c0 .72-.36 1.268-1.069 1.268l-1.446.018v-8.215Z"/>
</svg>
