<svg xmlns="http://www.w3.org/2000/svg" width="97" height="24" fill="none">
  <path fill="#000" d="M9.62 6.331h3.506l4.848 7.88-.002-7.88h3.478V17.63h-3.473l-4.874-7.88v7.88H9.62V6.33Zm30.737 1.162h3.386v1.52h1.831v1.118h-1.831l.002 7.498h-3.388l.002-7.498h-1.84V9.016l1.84-.001-.002-1.522Zm-16.97 2.623h3.383v7.514h-3.383v-7.514Zm-.008-3.787h3.39v2.31h-3.39v-2.31Zm60.648 7.484-.001 1.591c0 1.198-.705 1.692-1.382 1.692-.68 0-1.387-.494-1.387-1.692l.002-1.62.002-1.566c0-1.193.709-1.683 1.383-1.683s1.382.49 1.382 1.683c0 .455-.001 1.297.002 1.599l-.001-.004Zm-1.359-4.21c-2.73 0-4.944 1.89-4.944 4.22s2.215 4.218 4.944 4.218c2.73 0 4.944-1.889 4.944-4.219s-2.213-4.219-4.944-4.219Zm-9.384-3.272h3.338V17.63h-3.344v-.435c-1.296.816-2.756.815-3.894.282a4.007 4.007 0 0 1-2.313-3.725c0-1.983 1.862-4.149 4.3-3.934.803.071 1.374.365 1.915.67-.002-1.739-.002-4.157-.002-4.157Zm.024 7.504v-1.343c0-1.162-.799-1.458-1.324-1.458-.539 0-1.327.296-1.327 1.458l.001 1.34-.001 1.336c0 1.16.788 1.464 1.326 1.464.526 0 1.326-.304 1.326-1.464l-.001-1.333ZM34.69 9.77c1.264-.037 3.83.795 3.812 3.769-.003.528-.001 4.088-.001 4.088H35.14v-4.934c0-.655-.623-1.383-1.546-1.383-.92 0-1.606.728-1.606 1.383l.004 4.934h-3.358l-.002-7.512 3.361-.003s-.004.604 0 .79A4.063 4.063 0 0 1 34.69 9.77Zm27.491 0c1.265-.037 3.831.795 3.813 3.769-.003.528-.001 4.088-.001 4.088h-3.361v-4.934c0-.655-.623-1.383-1.546-1.383-.92 0-1.606.728-1.606 1.383l.004 4.934h-3.358l.002-7.512 3.357-.003s-.004.604 0 .79a4.065 4.065 0 0 1 2.696-1.133Zm-13.456 2.965c-.005-.658.01-1.098.224-1.473a1.38 1.38 0 0 1 1.19-.686c.44.003.925.223 1.19.686.215.376.224.816.218 1.475l-2.822-.002Zm2.81 2.266s.004.033.004.455c0 1.374-.9 1.68-1.4 1.68-.5 0-1.416-.306-1.416-1.68l.002-1.551s6.373.003 6.373-.001c0-2.33-2.24-4.26-4.992-4.26-2.751 0-4.981 1.888-4.981 4.218s2.23 4.218 4.981 4.218c2.283 0 4.211-1.308 4.8-3.082l-3.37.003ZM88.14 7.172c.547 0 .82.187.82.555 0 .254-.158.445-.42.511l.43.86h-.52l-.367-.789h-.228v.79h-.467V7.172h.752Zm-.043-.753c-.955 0-1.73.78-1.73 1.74 0 .959.775 1.738 1.73 1.738.956 0 1.732-.779 1.732-1.739 0-.96-.776-1.739-1.731-1.739Zm1.4 1.74c0 .777-.627 1.407-1.4 1.407-.772 0-1.4-.63-1.4-1.407 0-.776.628-1.406 1.4-1.406.773 0 1.4.629 1.4 1.406Zm-1.642-.132h.228c.267 0 .396-.081.396-.273 0-.2-.138-.287-.419-.287h-.205v.56Z"/>
  <path fill="#000" d="M12.686 24C5.081 23.997-.001 18.584-.001 12.02-.001 5.458 5.092-.017 12.674 0h71.65c7.582-.017 12.675 5.458 12.675 12.021 0 6.563-5.082 11.976-12.687 11.979H12.686Zm.023-21.048c-6.02.012-9.716 4.053-9.716 9.054 0 4.999 3.672 9.074 9.716 9.052h71.58c6.044.02 9.718-4.053 9.718-9.052 0-5-3.696-9.04-9.717-9.052l-71.58-.002Z"/>
</svg>
