<svg xmlns="http://www.w3.org/2000/svg" width="99" height="28" fill="none">
  <path fill="#000" d="m15.664 14.495-1.137-.015V.09h3.43c3.7 0 4.012.019 4.915.281 1.466.426 2.585 1.35 3.201 2.643.3.628.418 1.13.449 1.916.07 1.776-.682 3.32-2.013 4.134-.398.244-.417.263-.352.367.175.278 2.941 5.052 2.941 5.076 0 .014-1.055.026-2.346.026h-2.345l-1.362-2.298A201.886 201.886 0 0 0 19.62 9.85c-.048-.066-.17-.095-.476-.117l-.412-.028.025 2.414.026 2.414-.991-.012-2.128-.027Zm5.063-8.028c.96-.202 1.45-.663 1.505-1.412.037-.524-.087-.882-.42-1.206-.44-.43-1.054-.578-2.4-.581l-.71-.002.033.469c.018.258.033 1.01.033 1.672v1.204l.805-.035c.443-.02.962-.068 1.154-.109Z"/>
  <path fill="#000" d="M31.673 14.736c-1.266-.143-2.382-.707-3.284-1.66-1.025-1.083-1.576-2.416-1.634-3.951-.032-.823.03-1.368.226-1.99.739-2.347 2.833-3.744 5.774-3.854a7.842 7.842 0 0 1 1.252.035c2.525.344 4.381 2.107 4.934 4.685.117.545.116 1.795-.002 2.312-.487 2.143-1.99 3.624-4.252 4.19-.896.224-2.202.325-3.014.233Zm1.388-1.713c.496-.147.7-.418.695-.922a1.857 1.857 0 0 0-.086-.525c-.237-.63-.235-.622-.178-.748a.422.422 0 0 1 .18-.18c.164-.075.262-.01.483.318.314.466.88.996 1.248 1.169.295.138.378.155.687.137.307-.017.388-.045.635-.215.324-.224.411-.406.408-.852-.003-.447-.234-.817-.695-1.108-.281-.179-.88-.362-1.317-.404-.555-.053-.752-.144-.823-.381-.069-.231.004-.42.224-.584.112-.083.25-.111.665-.136.333-.02.58-.06.68-.114.725-.384.772-1.63.08-2.112-.193-.135-.264-.154-.562-.152-.684.004-1.147.453-1.366 1.325a.73.73 0 0 1-.152.258c-.14.152-.403.175-.632.056-.231-.12-.261-.383-.128-1.135.165-.936.075-1.328-.364-1.585-.28-.165-.776-.222-1.071-.125-.26.087-.6.436-.678.698-.157.528-.033.863.551 1.477.246.258.461.517.48.575.084.264-.235.568-.528.503-.168-.037-.327-.2-.586-.598-.416-.64-.997-.845-1.57-.552-.492.252-.62.82-.293 1.307.19.282.53.47 1.056.583.76.163.973.328.766.592-.107.137-.118.14-.472.1-.534-.057-.74-.036-1.037.108-.31.15-.444.317-.528.652-.169.671.304 1.266 1.003 1.263.368-.001.648-.154 1.115-.607.516-.501.608-.554.775-.444.182.12.205.297.08.624-.284.744-.022 1.518.589 1.736.255.091.354.091.666-.002Zm11.667 1.509c-1.919-.123-2.958-.658-3.53-1.817-.395-.803-.49-1.479-.538-3.88l-.032-1.625h-.268a4.47 4.47 0 0 1-.506-.033l-.237-.032v-3.52h1.074V.552h4.19v3.073h1.737v3.636h-1.737v1.626c0 1.523.007 1.637.1 1.79.174.287.31.323 1.226.323h.82v3.585l-.856-.008a32.12 32.12 0 0 1-1.444-.045Zm7.779-.053c-2.217-.214-3.231-1.11-3.567-3.15-.06-.362-.093-1.019-.116-2.283-.018-.977-.052-1.795-.075-1.818-.024-.024-.26-.051-.524-.06l-.482-.018V3.574h1.137l-.038-1.536L48.804.5h4.203v3.125h1.737V7.21h-1.742l.015 1.652c.014 1.497.024 1.664.108 1.789.2.294.297.322 1.198.34l.83.018v3.525l-1.111-.007a24.9 24.9 0 0 1-1.535-.048Zm8.483-2.2c-1.757-.223-3.39-1.106-4.191-2.268a6.364 6.364 0 0 1-1.145-3.672c-.001-1.93.838-3.484 2.466-4.57 1.02-.68 1.808-.902 3.344-.945.784-.022.992-.01 1.406.075a4.729 4.729 0 0 1 2.111.998c.527.442 1.115 1.311 1.411 2.086.356.93.557 2.421.43 3.188l-.031.192h-3.698c-2.034 0-3.698.02-3.698.044 0 .024.088.18.196.347.471.731 1.223 1.096 2.254 1.094.773-.002 1.503-.205 2.024-.565l.21-.145 1.171 1.103 1.24 1.168c.107.103.008.235-.447.6-.702.563-1.564.95-2.601 1.17-.573.121-1.863.173-2.451.1Zm2.165-7.128c-.085-.53-.396-.927-.922-1.174-.574-.27-1.324-.246-1.923.06-.406.208-.785.693-.885 1.135l-.031.139.422.017c.232.01 1.086.022 1.898.028l1.475.01-.034-.215Zm4.62 3.903V3.523h4.14v.768c0 .422.017.768.038.768.021 0 .153-.14.294-.312a4.538 4.538 0 0 1 1.894-1.329c2.153-.747 4.453.934 4.772 3.489.033.262.054 1.823.054 4.027v3.6h-4.19V7.998l-.136-.273c-.223-.448-.669-.71-1.219-.715-.618-.005-1.079.372-1.32 1.082-.105.312-.11.414-.125 3.407l-.016 3.086h-4.186V9.054Zm1.487 18.59c-1.247-.175-2.444-.722-3.24-1.48-.984-.937-1.568-2.396-1.568-3.92 0-1.59.72-2.993 2.08-4.057.236-.185.42-.345.41-.355-.01-.01-.403.007-.872.04-.469.031-.866.044-.883.027-.05-.05.273-.478.494-.653a1.793 1.793 0 0 1 1.563-.35c.406.103.39.002-.076-.51l-.416-.457.276-.237a2.53 2.53 0 0 1 .301-.236c.014 0 .19.265.394.59.203.324.389.6.412.615.022.014.124-.1.227-.255.44-.665 1.064-.964 1.663-.797.4.112.4.135 0 .636-.198.249-.36.456-.36.461 0 .006.41 0 .913-.012 1.763-.042 2.939.229 3.925.902.338.231.836.738 1.085 1.104.193.283.72 1.37.843 1.74.266.796.306 2.204.086 3.03-.155.584-.553 1.363-.947 1.853-.888 1.106-2.332 1.924-3.964 2.244-.506.1-1.864.144-2.347.076Zm13.436.15a7.084 7.084 0 0 1-3.039-1.114c-1.062-.694-1.862-1.987-2.206-3.568-.112-.511-.148-1.56-.072-2.078.264-1.81 1.365-3.263 3.16-4.17.34-.172.63-.27 1.093-.372.572-.125.727-.138 1.703-.138.959 0 1.12.012 1.507.117 1.816.491 3.066 1.926 3.534 4.055.098.446.118.69.12 1.434v.896l-3.716.025-3.717.026.156.275c.445.78 1.238 1.185 2.323 1.185.764 0 1.586-.238 2.05-.593l.168-.128 1.255 1.188 1.256 1.188-.194.2c-1.126 1.163-3.391 1.825-5.381 1.572Zm2.176-7.076c-.11-.696-.65-1.19-1.45-1.328-1.036-.178-2.064.43-2.287 1.35-.033.139-.032.14.291.157.179.01 1.035.023 1.903.029l1.578.01-.035-.218Zm7.916 7.13a9.5 9.5 0 0 1-1.859-.418c-.712-.252-1.795-.834-1.795-.965 0-.042 1.494-2.675 1.567-2.76.01-.012.334.141.72.34 1.06.545 1.546.69 2.287.685.597-.005.98-.107 1.163-.31.255-.285.138-.698-.231-.815-.09-.029-.522-.05-.957-.048-.554.003-.902-.02-1.156-.077-1.45-.326-2.58-1.263-3.042-2.52-.092-.25-.114-.42-.117-.92l-.004-.615.22-.461c.636-1.334 1.873-2.285 3.373-2.596.411-.085.63-.098 1.288-.08.853.026 1.362.117 2.148.387.809.277 1.909.796 1.904.897-.002.023-.321.582-.71 1.243-.544.922-.727 1.192-.787 1.166-.286-.128-1.58-.54-1.917-.611a5.783 5.783 0 0 0-.922-.093c-.544-.006-.7.044-.903.295-.14.171-.119.5.04.65.127.12.166.125.933.139 1.902.033 3.09.446 3.93 1.366.502.549.764 1.176.815 1.951.072 1.102-.32 2.06-1.175 2.875-.586.558-.821.702-1.589.968-.835.29-2.267.435-3.224.327Zm-31.493-.355c-.442-.022-1.206-.126-1.536-.21-1.538-.39-2.278-1.273-2.567-3.06-.039-.245-.067-.882-.097-2.196l-.041-1.851-.237-.022a6.764 6.764 0 0 0-.518-.023h-.28v-3.586h1.117l-.017-1.294a65.088 65.088 0 0 0-.032-1.54l-.016-.244h4.224v3.115h1.734v3.62h-1.734v1.549c0 .968.015 1.6.038 1.685.047.17.23.383.385.448.086.036.329.049.93.049h.815v3.585l-.967-.007a52.676 52.676 0 0 1-1.201-.018Zm-14.184.352c-.86-.128-1.727-.605-2.558-1.41-.513-.496-.805-.889-1.092-1.47-.43-.866-.593-1.54-.623-2.572-.028-.991.085-1.755.39-2.644.318-.92.631-1.451 1.187-2.008 1.2-1.2 2.642-1.677 4.017-1.327.795.203 1.444.583 2.139 1.25l.316.305v-1.35h3.939v10.936h-3.939v-.688c0-.378-.01-.688-.024-.688-.012 0-.173.15-.355.335-1.002 1.01-2.254 1.5-3.397 1.331Zm2.508-4.024c.82-.405 1.29-1.587.992-2.495-.164-.499-.604-.912-1.173-1.102-.55-.182-.938-.162-1.433.075-.64.306-1.02.938-1.02 1.698 0 .552.18.995.56 1.376.57.572 1.441.76 2.074.448Zm-11.969 3.004a129.69 129.69 0 0 1-.027-2.653 116.526 116.526 0 0 0-.027-2.574c-.027-.782-.06-.897-.342-1.18-.33-.333-.898-.453-1.342-.285-.39.147-.686.54-.776 1.028-.026.144-.04 1.219-.04 3.286v3.072h-2.095c-1.153 0-2.1-.005-2.103-.01a380.95 380.95 0 0 1-.027-3.268l-.02-3.259-.123-.227a1.326 1.326 0 0 0-.59-.577c-.17-.09-.228-.101-.534-.101-.288 0-.368.013-.498.083-.343.183-.601.575-.721 1.094-.058.249-.062.52-.05 3.286l.013 3.015h-4.188l-.024-3.265a954.452 954.452 0 0 1-.024-5.523V16.51h4.153l.01.515c.009.442.019.518.069.527.034.007.19-.12.38-.307.382-.38.716-.581 1.294-.778 1.57-.537 3.126-.164 4.29 1.027l.312.32.098-.168c.46-.787 1.753-1.354 3.089-1.354 1.107 0 2.095.378 2.795 1.068.726.716 1.16 1.816 1.23 3.115.012.2.03 1.882.041 3.739l.021 3.377h-4.22l-.024-.766Zm-21.707.894c-.865-.142-1.492-.385-2.184-.844-1.646-1.093-2.666-3.185-2.572-5.278.115-2.565 1.758-4.496 4.343-5.106 1.132-.267 2.421-.307 3.413-.105 1.735.354 3.23 1.544 3.996 3.183.747 1.596.771 3.417.065 4.94-.794 1.714-2.43 2.824-4.674 3.172-.533.083-1.974.106-2.387.038Zm1.863-3.913a2.044 2.044 0 0 0 1.426-1.074c.142-.284.146-.302.145-.659 0-.427-.066-.745-.218-1.055-.522-1.063-1.82-1.48-2.917-.94-.538.266-1 .885-1.1 1.475-.16.93.54 2.033 1.454 2.297.198.057.84.034 1.21-.044Z"/>
  <path fill="#000" d="M4.71 22.34v-5.214H.914V13.06l5.737.027c3.155.015 5.748.034 5.763.043.015.01.027.904.027 1.988v1.971H8.756v10.466H4.71V22.34Z"/>
</svg>
