<svg xmlns="http://www.w3.org/2000/svg" width="89" height="28" fill="none">
  <g fill="#000" clip-path="url(#a)">
    <path d="M27.633 14.001C27.367-.353 8.295-5.669.932 7.71c.354.266.798.62 1.064.798C1.464 9.659 1.02 10.9.843 12.052c-.089.797-.177 1.595-.177 2.48 0 7.444 6.032 13.47 13.483 13.47 7.452 0 13.484-6.026 13.484-13.47v-.53ZM4.037 16.394c-.178 1.417-.09 1.949-.09 2.126l-.354.089c-.089-.266-.444-1.064-.532-2.215-.355-4.342 2.572-8.24 7.097-8.95 4.169-.62 8.072 1.95 9.048 5.583l-.355.088c-.089-.088-.266-.354-.887-1.063C12.996 7.002 5.1 9.305 4.037 16.394Zm12.774 2.392c-.71.975-1.774 1.595-3.016 1.595-2.04 0-3.726-1.684-3.726-3.722a3.617 3.617 0 0 1 3.46-3.632c1.153-.09 2.306.62 2.838 1.594a3.118 3.118 0 0 1-.532 3.456c.355.266.71.532.976.709Zm7.717.177c-1.951 4.43-5.943 6.734-10.201 6.646-8.25-.443-10.645-9.836-5.145-13.291l.266.266c-.089.088-.444.354-.887 1.417-.621 1.24-.799 2.393-.71 3.19.444 6.646 9.67 7.975 12.863 1.418C24.706 9.57 13.972.444 4.39 7.444l-.177-.266c2.484-3.898 7.363-5.67 12.064-4.519 7.186 1.861 11.09 9.304 8.25 16.304ZM40.762 8.684v6.202c0 2.481-1.508 4.342-4.258 4.342s-4.258-1.86-4.258-4.342V8.684h2.218v6.025c0 1.506.71 2.392 2.04 2.392s2.04-.886 2.04-2.392V8.684h2.218Zm8.428 7.443c0 1.772-1.42 3.1-3.726 3.1h-3.637V8.773h3.46c2.04 0 3.37.975 3.37 2.481 0 1.152-.532 1.86-1.33 2.215 1.064.443 1.863 1.24 1.863 2.659Zm-5.057-5.317v2.215h1.153c.71 0 1.154-.443 1.154-1.063 0-.62-.444-1.063-1.154-1.063l-1.153-.089Zm1.242 6.38c.976 0 1.508-.443 1.508-1.33 0-.885-.532-1.328-1.508-1.328h-1.242v2.57l1.242.088Zm4.702-8.418h2.218V19.14h-2.218V8.772Zm7.629 4.253c1.774.62 2.661 1.418 2.661 3.013 0 2.127-1.685 3.367-3.637 3.367-1.774 0-3.194-.797-3.726-2.304l1.774-1.329c.355.975 1.154 1.507 2.04 1.507.71 0 1.243-.444 1.243-1.064 0-.62-.444-.974-1.863-1.506-1.597-.62-2.839-1.418-2.839-3.101 0-1.684 1.42-2.924 3.371-2.924 1.597 0 2.839.62 3.37 1.86l-1.773 1.24c-.355-.797-.887-1.24-1.686-1.24-.71 0-1.153.355-1.153.886.089.62.71 1.064 2.218 1.595ZM71.633 14c0 3.013-2.218 5.316-5.322 5.316-3.194 0-5.323-2.303-5.323-4.962 0-1.772.71-3.1 1.685-3.898l-.354-.355c.798-.797 2.217-1.417 3.903-1.417 3.193-.09 5.411 2.303 5.411 5.316Zm-2.306 0c0-1.86-1.153-3.19-3.016-3.19-1.065 0-1.863.443-2.307.886l.355.355c-.532.443-1.064 1.063-1.064 2.215 0 1.595 1.153 2.924 3.016 2.924 1.862 0 3.016-1.33 3.016-3.19Zm5.5-3.013v2.393h4.435v1.683h-4.435v4.076H72.52V8.772h7.097V10.9h-4.79v.088Zm13.838 0h-2.927v8.24H83.52v-8.24h-3.016V8.772h8.073v2.215h.088Z"/>
  </g>
  <defs>
    <clipPath id="a">
      <path fill="#fff" d="M.666 0h88v28h-88z"/>
    </clipPath>
  </defs>
</svg>
