<svg width="48" height="48" xmlns="http://www.w3.org/2000/svg">
  <g fill-rule="evenodd">
    <path d="M7.999 0h32.002q.196 0 .393.01.196.01.391.029.196.019.39.048.194.028.387.067.192.038.383.086.19.047.378.104.188.057.373.124.185.066.366.14.181.076.359.16t.35.177q.174.092.342.193.169.101.332.21.163.11.321.226.158.117.31.242.151.124.297.256.145.132.284.27.139.14.27.285.133.146.257.297.125.152.242.31.117.158.226.321t.21.332q.1.168.194.341.092.173.176.351.084.178.16.359.074.181.14.366.067.185.124.373.057.188.104.378.048.19.086.383.039.193.067.387.03.195.049.39.019.195.028.392.01.196.01.392v32.002q0 .196-.01.393-.01.196-.029.391-.019.196-.048.39-.028.194-.067.387-.038.192-.086.383-.047.19-.104.378-.057.188-.124.373-.066.185-.14.366-.076.181-.16.359t-.176.35q-.093.174-.194.342-.101.169-.21.332-.11.163-.226.321-.117.158-.242.31-.124.151-.256.297-.132.145-.27.284-.14.139-.285.27-.146.133-.297.257-.152.125-.31.242-.158.117-.321.226t-.332.21q-.168.1-.341.194-.173.092-.351.176-.178.084-.359.16-.181.074-.366.14-.185.067-.373.124-.188.057-.378.104-.19.048-.383.086-.193.039-.387.067-.194.03-.39.049-.195.019-.391.028-.197.01-.393.01H7.999q-.196 0-.392-.01-.197-.01-.392-.029-.195-.019-.39-.048-.194-.028-.387-.067-.192-.038-.383-.086-.19-.047-.378-.104-.188-.057-.373-.124-.185-.066-.366-.14-.181-.076-.359-.16t-.35-.176q-.174-.093-.342-.194-.169-.101-.332-.21-.163-.11-.321-.226-.158-.117-.31-.242-.151-.124-.297-.256-.145-.132-.284-.27-.139-.14-.27-.285-.133-.146-.257-.297-.125-.152-.242-.31-.117-.158-.226-.321t-.21-.332q-.1-.168-.193-.341-.093-.173-.177-.351-.084-.178-.16-.359-.074-.181-.14-.366-.067-.185-.124-.373-.057-.188-.104-.378-.048-.19-.086-.383-.039-.193-.067-.387-.03-.194-.048-.39-.02-.195-.03-.391Q0 40.197 0 40V7.999q0-.196.01-.392.01-.197.029-.392.019-.195.048-.39.028-.194.067-.387.038-.192.086-.383.047-.19.104-.378.057-.188.124-.373.066-.185.14-.366.076-.181.16-.359t.177-.35q.092-.174.193-.342.101-.169.21-.332.11-.163.226-.321.117-.158.242-.31.124-.151.256-.297.132-.145.27-.284.14-.139.285-.27.146-.133.297-.257.152-.125.31-.242.158-.117.321-.226t.332-.21q.168-.1.341-.193.173-.093.351-.177.178-.084.359-.16.181-.074.366-.14Q5.49.4 5.677.344q.188-.057.378-.104.19-.048.383-.086.193-.039.387-.067.195-.03.39-.048.195-.02.392-.03Q7.803 0 7.999 0z" fill="#FFECE8"/>
    <path d="M24 14c5.523 0 10 4.477 10 10s-4.477 10-10 10-10-4.477-10-10 4.477-10 10-10zm2.972 11h-5.944c.11 2.004.551 3.828 1.225 5.177C22.881 31.432 23.553 32 24 32c.448 0 1.119-.568 1.747-1.823.674-1.349 1.114-3.173 1.225-5.176zm4.966.001h-2.963c-.12 2.434-.678 4.611-1.513 6.214a8.01 8.01 0 004.476-6.214zm-12.913 0h-2.963a8.007 8.007 0 004.477 6.213c-.784-1.502-1.323-3.509-1.486-5.76l-.028-.453zm1.513-8.216l-.026.013A8.007 8.007 0 0016.062 23h2.963c.12-2.435.678-4.612 1.513-6.215zM24 16l-.081.006c-.446.063-1.075.635-1.666 1.817-.674 1.349-1.115 3.173-1.225 5.177h5.945c-.111-2.004-.552-3.828-1.226-5.177C25.119 16.568 24.447 16 24 16zm3.461.786l.023.041c.823 1.6 1.372 3.76 1.491 6.173h2.963a8.007 8.007 0 00-4.477-6.214z" fill="#FF5627"/>
  </g>
</svg>
