<svg width="48" height="48" viewBox="0 0 48 48" fill="none" xmlns="http://www.w3.org/2000/svg">
<path fill-rule="evenodd" clip-rule="evenodd" d="M23.1289 9.51287C23.8694 8.84339 24.3838 8.7002 24.5998 8.7002C24.8158 8.7002 25.3302 8.84339 26.0707 9.51287C26.7807 10.1547 27.5624 11.1635 28.2905 12.5482C29.5993 15.0378 30.6689 18.6199 30.8669 23.0996H24.5998H18.3327C18.5307 18.6199 19.6003 15.0378 20.9092 12.5482C21.6372 11.1635 22.4189 10.1547 23.1289 9.51287ZM15.33 23.0996C15.5302 18.1634 16.7055 14.0972 18.2538 11.1522C18.5312 10.6245 18.8228 10.1287 19.1257 9.66778C13.4905 11.7344 9.35043 16.8998 8.77008 23.0996H15.33ZM8.76997 26.0996H15.33C15.53 31.0364 16.7053 35.103 18.2538 38.0482C18.5312 38.5759 18.8228 39.0717 19.1257 39.5326C13.4901 37.4659 9.34991 32.2999 8.76997 26.0996ZM18.3326 26.0996H24.5998H30.867C30.6691 30.5798 29.5994 34.1624 28.2905 36.6522C27.5624 38.0369 26.7807 39.0457 26.0707 39.6875C25.3302 40.357 24.8158 40.5002 24.5998 40.5002C24.3838 40.5002 23.8694 40.357 23.1289 39.6875C22.4189 39.0457 21.6372 38.0369 20.9092 36.6522C19.6002 34.1624 18.5305 30.5798 18.3326 26.0996ZM33.8696 26.0996C33.6696 31.0364 32.4943 35.103 30.9458 38.0482C30.6683 38.576 30.3767 39.0719 30.0737 39.533C35.7098 37.4665 39.8504 32.3003 40.4304 26.0996H33.8696ZM40.4303 23.0996C39.8499 16.8995 35.7094 11.7337 30.0737 9.66741C30.3767 10.1284 30.6683 10.6243 30.9458 11.1522C32.4942 14.0972 33.6694 18.1634 33.8696 23.0996H40.4303ZM24.6002 43.5002H24.5998H24.5962C14.1598 43.498 5.7002 35.037 5.7002 24.6002C5.7002 14.162 14.162 5.7002 24.6002 5.7002C35.0384 5.7002 43.5002 14.162 43.5002 24.6002C43.5002 35.0384 35.0384 43.5002 24.6002 43.5002Z" fill="url(#paint0_linear_936:4302)"/>
<defs>
<linearGradient id="paint0_linear_936:4302" x1="24.6002" y1="5.7002" x2="24.6002" y2="43.5002" gradientUnits="userSpaceOnUse">
<stop stop-color="#F65128"/>
<stop offset="1" stop-color="#F65128" stop-opacity="0.08"/>
</linearGradient>
</defs>
</svg>
