<svg width="48" height="48" viewBox="0 0 48 48" fill="none" xmlns="http://www.w3.org/2000/svg">
<path fill-rule="evenodd" clip-rule="evenodd" d="M16.6994 23.8209C16.1357 24.4279 15.1866 24.4631 14.5795 23.8994L6.17952 16.0994C5.87387 15.8156 5.7002 15.4173 5.7002 15.0002C5.7002 14.5831 5.87387 14.1848 6.17952 13.901L14.5795 6.10101C15.1866 5.53731 16.1357 5.57246 16.6994 6.17953C17.2631 6.78659 17.2279 7.73569 16.6209 8.29939L11.0198 13.5004L32.4 13.5004C33.2284 13.5004 33.9 14.172 33.9 15.0004C33.9 15.8288 33.2284 16.5004 32.4 16.5004L11.0202 16.5004L16.6209 21.701C17.2279 22.2647 17.2631 23.2138 16.6994 23.8209ZM34.6209 25.3016C34.0138 24.7379 33.0647 24.773 32.501 25.3801C31.9373 25.9872 31.9725 26.9363 32.5795 27.5L38.1802 32.7006H16.7999C15.9715 32.7006 15.2999 33.3722 15.2999 34.2006C15.2999 35.029 15.9715 35.7006 16.7999 35.7006H38.1806L32.5795 40.9016C31.9725 41.4653 31.9373 42.4144 32.501 43.0215C33.0647 43.6285 34.0138 43.6637 34.6209 43.1L43.0209 35.3C43.3265 35.0162 43.5002 34.6179 43.5002 34.2008C43.5002 33.7837 43.3265 33.3854 43.0209 33.1016L34.6209 25.3016Z" fill="url(#paint0_linear_936:4292)"/>
<defs>
<linearGradient id="paint0_linear_936:4292" x1="24.6002" y1="5.7002" x2="24.6002" y2="43.5008" gradientUnits="userSpaceOnUse">
<stop stop-color="#F65128"/>
<stop offset="1" stop-color="#F65128" stop-opacity="0.08"/>
</linearGradient>
</defs>
</svg>
