<svg width="48" height="48" viewBox="0 0 48 48" fill="none" xmlns="http://www.w3.org/2000/svg">
<path fill-rule="evenodd" clip-rule="evenodd" d="M8.7002 9.6002C8.7002 9.10315 9.10315 8.7002 9.6002 8.7002H33.2998V18.9002H9.6002C9.10314 18.9002 8.7002 18.4973 8.7002 18.0002V9.6002ZM36.2998 18.9002V8.7002H39.6002C40.0973 8.7002 40.5002 9.10313 40.5002 9.6002V18.0002C40.5002 18.4973 40.0973 18.9002 39.6002 18.9002H36.2998ZM9.6002 5.7002C7.4463 5.7002 5.7002 7.4463 5.7002 9.6002V18.0002C5.7002 20.1541 7.44626 21.9002 9.6002 21.9002H39.6002C41.7542 21.9002 43.5002 20.1541 43.5002 18.0002V9.6002C43.5002 7.44632 41.7542 5.7002 39.6002 5.7002H9.6002ZM8.7002 31.1998C8.7002 30.7027 9.10313 30.2998 9.6002 30.2998H33.2998V40.4998H9.6002C9.10312 40.4998 8.7002 40.0969 8.7002 39.5998V31.1998ZM36.2998 40.4998H39.6002C40.0973 40.4998 40.5002 40.0969 40.5002 39.5998V31.1998C40.5002 30.7027 40.0973 30.2998 39.6002 30.2998H36.2998V40.4998ZM9.6002 27.2998C7.44632 27.2998 5.7002 29.0458 5.7002 31.1998V39.5998C5.7002 41.7538 7.44628 43.4998 9.6002 43.4998H39.6002C41.7541 43.4998 43.5002 41.7537 43.5002 39.5998V31.1998C43.5002 29.0459 41.7541 27.2998 39.6002 27.2998H9.6002Z" fill="url(#paint0_linear_936:4297)"/>
<defs>
<linearGradient id="paint0_linear_936:4297" x1="24.6002" y1="5.7002" x2="24.6002" y2="43.4998" gradientUnits="userSpaceOnUse">
<stop stop-color="#F65128"/>
<stop offset="1" stop-color="#F65128" stop-opacity="0.08"/>
</linearGradient>
</defs>
</svg>
