<svg xmlns="http://www.w3.org/2000/svg" width="65" height="16" fill="#79849A" viewBox="0 0 2196 500">
  <path d="M1070 275V6c0-4-3-6-6-6l-51 8c-3 0-5 3-5 6v273c0 13 0 93 96 96 4 0 6-3 6-6v-41c0-3-2-6-5-6-35-4-35-48-35-55Z"/>
  <rect width="62.6" height="277.9" x="1846" y="105" rx="5.9" ry="5.9"/>
  <path d="M1852 71h51c3 0 5-2 5-6V6c0-4-3-6-6-6l-51 8c-3 0-5 3-5 6v51c0 4 3 6 6 6Zm-88 204V6c0-4-3-6-7-6l-50 8c-3 0-5 3-5 6v273c0 13 0 93 96 96 3 0 6-3 6-6v-41c0-3-2-6-5-6-35-4-35-48-35-55Zm-132-132c-11-13-25-22-41-29-16-6-33-9-52-9s-36 3-52 9a119 119 0 0 0-67 73 170 170 0 0 0 0 112 119 119 0 0 0 67 73c16 7 40 10 52 11 13 0 37-4 53-11s30-16 41-28a151 151 0 0 0 35-99 154 154 0 0 0-36-102Zm-44 163a56 56 0 0 1-49 24c-20 0-36-8-48-24a97 97 0 0 1-17-61c0-27 6-49 17-65 12-15 28-23 48-23 21 0 37 8 48 23 12 16 18 38 18 65s-6 46-17 61ZM894 105h-49c-48 0-91 25-116 64a145 145 0 0 0 38 197 80 80 0 0 0 48 13h5l3-1h1c32-5 61-30 70-62v57c0 4 3 6 6 6h51c3 0 6-2 6-6V111c0-4-3-6-6-6h-57Zm0 207a76 76 0 0 1-44 15h-4a79 79 0 0 1-72-108c11-30 39-50 71-50h49v143Zm1240-207h-49c-49 0-91 25-116 64a145 145 0 0 0 38 197 80 80 0 0 0 48 13h5l2-1h1c33-5 62-30 71-62v57c0 4 3 6 6 6h50c4 0 6-2 6-6V111c0-4-2-6-6-6h-56Zm0 207a76 76 0 0 1-45 15h-4a79 79 0 0 1-71-108c11-30 38-50 71-50h49v143Zm-820-207h-49c-49 0-91 25-116 64a145 145 0 0 0 29 190 84 84 0 0 0 53 20c18 0 35-6 49-16 16-11 28-28 34-47v61c0 22-6 38-17 49-12 11-31 17-59 17l-46-3c-3 0-6 2-7 5l-12 43c-1 3 1 7 5 7 21 3 42 5 54 5 49 0 85-11 109-32 22-20 33-49 35-89V111c0-4-2-6-6-6h-56Zm0 64v143a75 75 0 0 1-43 15h-1a54 54 0 0 1-7 0 80 80 0 0 1-69-108c11-30 38-50 71-50h49ZM250 0a250 250 0 1 0 119 470c3-2 4-7 1-10l-24-21c-4-4-11-5-17-3-25 11-53 17-82 17a203 203 0 0 1 3-405h203v359L338 305c-4-3-10-2-13 2a94 94 0 1 1 19-65c0 4 2 8 5 11l30 26c4 3 9 1 10-3a142 142 0 0 0-130-167c-81-5-148 58-151 137-2 77 62 144 139 145 32 1 62-9 86-27l150 133c6 6 17 2 17-7V9c0-5-5-9-10-9H250Z"/>
</svg>
