<svg xmlns="http://www.w3.org/2000/svg" width="65" height="16" fill="none">
  <path fill="#79849A" d="M2.251-.133H14.1c1.166 0 2.117.942 2.117 2.106v11.788c0 1.16-.947 2.106-2.117 2.106H2.25A2.113 2.113 0 0 1 .134 13.76V1.968A2.11 2.11 0 0 1 2.25-.133Z"/>
  <path fill="#fff" d="M9.85 3.438V2.89a.693.693 0 0 0-.697-.694H7.525a.7.7 0 0 0-.698.694v.563c0 .063.058.107.122.092a5.136 5.136 0 0 1 2.785-.015.094.094 0 0 0 .117-.092Zm-4.46.718-.278-.276a.698.698 0 0 0-.987 0l-.333.33a.691.691 0 0 0 0 .98l.274.272c.044.044.108.034.147-.01a5.149 5.149 0 0 1 1.162-1.154c.049-.03.054-.098.015-.142Zm2.97 1.742v2.374c0 .068.074.116.137.082l2.121-1.092c.048-.024.063-.082.039-.13a2.64 2.64 0 0 0-2.199-1.326c-.049 0-.098.04-.098.092Zm0 5.718c-1.768 0-3.205-1.428-3.205-3.184 0-1.757 1.437-3.184 3.205-3.184 1.77 0 3.206 1.427 3.206 3.184a3.193 3.193 0 0 1-3.206 3.184Zm0-7.707c-2.511 0-4.548 2.024-4.548 4.523 0 2.5 2.037 4.518 4.548 4.518 2.512 0 4.549-2.023 4.549-4.523 0-2.5-2.032-4.518-4.549-4.518Z"/>
  <path fill="#79849A" d="M32.193 12.557c-3.131.014-3.131-2.514-3.131-2.917L29.057.168l1.91-.302v9.415c0 .229 0 1.675 1.226 1.68v1.596Zm-7.743-1.548c.586 0 1.021-.034 1.324-.092V8.986a4.545 4.545 0 0 0-1.124-.141c-.21 0-.426.014-.64.048-.215.03-.41.087-.582.17-.17.083-.313.2-.415.35-.107.15-.156.237-.156.465 0 .446.156.704.44.873.283.17.669.258 1.153.258Zm-.166-6.891c.63 0 1.162.078 1.592.233.43.155.777.373 1.03.65.26.281.436.655.543 1.053.113.398.166.835.166 1.315v4.883a23.12 23.12 0 0 1-1.333.222 13.94 13.94 0 0 1-2.009.131 6.14 6.14 0 0 1-1.353-.14 2.864 2.864 0 0 1-1.05-.451 2.193 2.193 0 0 1-.68-.806c-.16-.33-.244-.796-.244-1.281 0-.466.093-.762.274-1.083.185-.32.435-.582.748-.786.317-.204.678-.35 1.094-.436a6.315 6.315 0 0 1 1.964-.093c.23.025.479.069.743.131v-.31c0-.218-.025-.427-.078-.621a1.331 1.331 0 0 0-.274-.52 1.274 1.274 0 0 0-.518-.349 2.269 2.269 0 0 0-.816-.146c-.44 0-.84.054-1.207.117-.366.063-.67.136-.9.218l-.228-1.557a7.437 7.437 0 0 1 1.055-.248 7.88 7.88 0 0 1 1.48-.126Zm37.728 6.838c.586 0 1.02-.034 1.323-.093v-1.93a4.555 4.555 0 0 0-1.124-.141 3.983 3.983 0 0 0-.64.048c-.214.029-.41.087-.58.17a1.037 1.037 0 0 0-.416.349c-.108.15-.156.238-.156.466 0 .446.156.704.44.873.288.175.669.258 1.153.258ZM61.85 4.07c.63 0 1.163.077 1.593.232.43.156.776.374 1.03.65.255.277.435.656.543 1.054.112.398.166.834.166 1.315v4.882c-.293.063-.738.135-1.334.223a13.84 13.84 0 0 1-2.008.13 6.14 6.14 0 0 1-1.353-.14 2.865 2.865 0 0 1-1.05-.451 2.193 2.193 0 0 1-.68-.806c-.16-.33-.244-.796-.244-1.28 0-.467.093-.763.274-1.083.185-.32.434-.582.747-.786.318-.204.68-.35 1.095-.437a6.316 6.316 0 0 1 1.964-.092c.234.024.479.068.742.131v-.31c0-.22-.024-.428-.078-.622a1.328 1.328 0 0 0-.274-.52 1.274 1.274 0 0 0-.517-.348 2.271 2.271 0 0 0-.816-.146c-.44 0-.84.054-1.207.116-.367.064-.67.136-.9.219l-.228-1.558a7.462 7.462 0 0 1 1.055-.247 8.348 8.348 0 0 1 1.48-.126Zm-5.736-.903c.64 0 1.163-.515 1.163-1.15 0-.636-.518-1.15-1.163-1.15s-1.162.514-1.162 1.15c0 .635.522 1.15 1.162 1.15Zm.962 9.39h-1.92V4.365l1.92-.3v8.492Zm-3.366 0c-3.131.014-3.131-2.514-3.131-2.917L50.574.168l1.91-.302v9.415c0 .229 0 1.675 1.226 1.68v1.596ZM47.5 8.364c0-.82-.18-1.504-.532-1.98-.352-.48-.845-.718-1.476-.718-.63 0-1.124.238-1.475.718-.352.48-.523 1.16-.523 1.98 0 .83.176 1.388.528 1.868.352.486.845.724 1.476.724.63 0 1.123-.243 1.475-.724.352-.485.528-1.038.528-1.868Zm1.955-.004c0 .64-.093 1.125-.284 1.654-.19.529-.459.98-.805 1.354a3.56 3.56 0 0 1-1.252.869c-.488.203-1.24.32-1.616.32-.377-.005-1.124-.112-1.608-.32a3.64 3.64 0 0 1-1.246-.869 4.001 4.001 0 0 1-.811-1.354 4.482 4.482 0 0 1-.293-1.654c0-.641.088-1.258.283-1.782.196-.524.47-.97.821-1.344.352-.374.772-.66 1.25-.864a4.064 4.064 0 0 1 1.593-.3c.577 0 1.11.1 1.598.3.49.204.91.49 1.251.864.346.374.615.82.811 1.344.205.524.308 1.14.308 1.782Zm-14.379 0c0 .795.176 1.678.528 2.047.351.37.806.553 1.363.553.303 0 .591-.043.86-.126.269-.082.483-.18.655-.296V5.826a7.52 7.52 0 0 0-1.261-.16c-.694-.02-1.221.262-1.593.713-.366.452-.552 1.243-.552 1.98Zm5.31 3.745c0 1.296-.332 2.242-1.001 2.845-.669.6-1.69.902-3.068.902-.503 0-1.548-.097-2.384-.281l.307-1.505c.7.145 1.623.185 2.107.185.766 0 1.314-.155 1.64-.466.328-.31.49-.771.49-1.383v-.311a5.79 5.79 0 0 1-.748.282 3.73 3.73 0 0 1-1.065.14 4.014 4.014 0 0 1-1.441-.248 3.003 3.003 0 0 1-1.12-.728 3.319 3.319 0 0 1-.722-1.203c-.171-.48-.26-1.34-.26-1.97 0-.592.093-1.334.275-1.83a3.49 3.49 0 0 1 .806-1.276 3.707 3.707 0 0 1 1.285-.825 4.737 4.737 0 0 1 1.733-.325c.622 0 1.193.078 1.75.17.557.092 1.03.189 1.417.296v7.531Z"/>
</svg>
