<svg width="129" height="26" viewBox="0 0 129 26" fill="none" xmlns="http://www.w3.org/2000/svg">
<g clip-path="url(#clip0_5121_4215)">
<path d="M10.3545 6.08113C10.6176 5.7473 10.9575 5.48204 11.3452 5.30795C11.7329 5.13385 12.157 5.0561 12.5812 5.08132C13.0055 5.10654 13.4174 5.23397 13.7817 5.45277C14.1461 5.67157 14.4521 5.97525 14.6738 6.33789C17.4484 5.49694 20.3258 5.04306 23.2245 4.98914C22.0498 3.48437 20.5574 2.25746 18.8539 1.39595C17.1504 0.534436 15.2777 0.0595791 13.3694 0.00525365C11.4612 -0.0490718 9.56453 0.318481 7.81473 1.08168C6.06494 1.84487 4.50518 2.98489 3.24677 4.42039C5.66936 4.71382 8.05275 5.2707 10.3545 6.08113Z" fill="#17D4A7"/>
<path d="M24.0013 6.08438L23.2375 6.10388C20.4458 6.15907 17.6749 6.59647 15.002 7.40388C15.0053 7.45691 15.0053 7.51012 15.002 7.56315C15.0023 8.16338 14.78 8.7424 14.378 9.18815C15.2366 10.3771 16.0318 11.6106 16.7603 12.8834C17.0788 13.4402 17.3734 13.9884 17.6443 14.5279H17.7775C18.1261 14.5247 18.4669 14.6303 18.7525 14.8301C20.943 12.9646 22.8865 10.4589 24.583 7.31289L24.635 7.21863" fill="#17D4A7"/>
<path d="M13.4745 9.8349C13.1438 9.97665 12.7877 10.0496 12.4279 10.0494C12.0609 10.051 11.6977 9.97539 11.3618 9.82759C11.0259 9.67978 10.7247 9.46303 10.4779 9.19139C7.20195 10.8489 3.77649 13.4749 1.45599 17.6414C3.03463 18.2417 4.68794 18.6234 6.36998 18.7757C6.50157 18.5142 6.70374 18.2949 6.95361 18.1425C7.20348 17.9902 7.49103 17.9108 7.78368 17.9135C8.07634 17.9163 8.36239 18.0009 8.60939 18.1579C8.8564 18.3148 9.05447 18.5378 9.1812 18.8016H9.32097C11.77 18.6142 14.143 17.8659 16.2564 16.6144C16.1926 16.4484 16.1596 16.2722 16.159 16.0944C16.1594 15.8877 16.2016 15.6833 16.2831 15.4933C16.3647 15.3034 16.4839 15.132 16.6335 14.9894C15.715 13.1923 14.6589 11.469 13.4745 9.8349Z" fill="#17D4A7"/>
<path d="M18.8662 24.4632C19.1457 22.2467 18.6452 19.8807 17.8067 17.6382H17.7872C17.5028 17.6385 17.223 17.5657 16.9747 17.4269C14.6672 18.8448 12.0541 19.6905 9.35344 19.8936H9.21371C9.095 20.1825 8.89248 20.4292 8.63227 20.6019C8.37206 20.7746 8.06609 20.8654 7.75379 20.8626C7.44149 20.8598 7.13719 20.7636 6.88012 20.5862C6.62304 20.4089 6.42496 20.1586 6.31144 19.8676C4.6238 19.7273 2.96247 19.3623 1.37146 18.7821C2.13596 20.3127 3.19504 21.6774 4.48804 22.7978C5.78104 23.9183 7.28252 24.7724 8.90633 25.3114C10.5301 25.8504 12.2443 26.0635 13.9507 25.9385C15.657 25.8136 17.3219 25.3531 18.8499 24.5834L18.8662 24.4632Z" fill="#17D4A7"/>
<path d="M25.1907 8.49265C23.6892 11.2217 21.7189 13.6651 19.37 15.7109C19.403 15.8327 19.4194 15.9584 19.4187 16.0846C19.4172 16.3101 19.3664 16.5326 19.2698 16.7364C19.1732 16.9402 19.0333 17.1204 18.8597 17.2644C19.7665 19.6824 20.1597 21.9086 20.033 23.9236C22.5232 22.325 24.3923 19.9234 25.3304 17.1168C26.2685 14.3102 26.2192 11.2674 25.1907 8.49265Z" fill="#17D4A7"/>
<path d="M9.93201 8.21314C9.82874 7.85263 9.81314 7.47264 9.8865 7.10488C7.4731 6.26446 4.96998 5.70821 2.42777 5.44739C1.25569 7.08323 0.480179 8.96929 0.162613 10.9565C-0.154952 12.9437 -0.00586711 14.9775 0.598023 16.8971C2.70402 13.2149 5.86626 10.2704 9.93201 8.21314Z" fill="#17D4A7"/>
<path d="M44.1393 12.5789V18.2137C43.9177 18.4806 43.5761 18.7703 43.1137 19.0828C42.6517 19.3888 42.0557 19.6525 41.3265 19.8738C40.5973 20.0952 39.7153 20.2058 38.6801 20.2058C37.7622 20.2058 36.9256 20.0561 36.1704 19.7566C35.4152 19.4506 34.7641 19.0047 34.2173 18.4188C33.6769 17.8328 33.2602 17.1167 32.9673 16.2703C32.6743 15.4174 32.5278 14.4442 32.5278 13.3504V12.4617C32.5278 11.368 32.6678 10.3947 32.9477 9.5418C33.2342 8.68892 33.6411 7.96952 34.1684 7.3836C34.6958 6.79764 35.324 6.35168 36.0532 6.04572C36.7823 5.73972 37.5929 5.58672 38.4848 5.58672C39.7218 5.58672 40.7373 5.78856 41.5317 6.1922C42.3261 6.58932 42.9313 7.14272 43.3481 7.85236C43.7713 8.55548 44.0317 9.36276 44.1293 10.2742H41.2877C41.2161 9.79244 41.0793 9.37252 40.8773 9.01444C40.6757 8.6564 40.3861 8.37644 40.0085 8.1746C39.6372 7.9728 39.1554 7.87188 38.5629 7.87188C38.0747 7.87188 37.6385 7.9728 37.2543 8.1746C36.8767 8.36992 36.5577 8.65964 36.2973 9.04376C36.0369 9.42788 35.8383 9.90312 35.7016 10.4695C35.5649 11.0359 35.4965 11.6935 35.4965 12.4422V13.3504C35.4965 14.0926 35.5681 14.7501 35.7114 15.323C35.8546 15.8894 36.0662 16.368 36.3461 16.7586C36.6326 17.1427 36.9842 17.4324 37.4009 17.6277C37.8175 17.823 38.3025 17.9207 38.8559 17.9207C39.3181 17.9207 39.7023 17.8816 40.0085 17.8035C40.3209 17.7254 40.5713 17.631 40.7601 17.5203C40.9557 17.4031 41.1053 17.2924 41.2093 17.1883V14.6688H38.5337V12.5789H44.1393ZM49.2953 5.01056V20.0106H46.4733V5.01056H49.2953ZM51.1705 14.8348V14.6297C51.1705 13.855 51.2809 13.142 51.5025 12.491C51.7236 11.8335 52.0461 11.2638 52.4693 10.782C52.8925 10.3003 53.4132 9.92592 54.0317 9.659C54.65 9.38556 55.3597 9.24884 56.1605 9.24884C56.9613 9.24884 57.6745 9.38556 58.2993 9.659C58.9245 9.92592 59.4485 10.3003 59.8717 10.782C60.3013 11.2638 60.6269 11.8335 60.8481 12.491C61.0697 13.142 61.1801 13.855 61.1801 14.6297V14.8348C61.1801 15.603 61.0697 16.3159 60.8481 16.9734C60.6269 17.6245 60.3013 18.1942 59.8717 18.6824C59.4485 19.1642 58.9277 19.5386 58.3089 19.8055C57.6905 20.0724 56.9809 20.2058 56.1801 20.2058C55.3793 20.2058 54.6665 20.0724 54.0417 19.8055C53.4229 19.5386 52.8989 19.1642 52.4693 18.6824C52.0461 18.1942 51.7236 17.6245 51.5025 16.9734C51.2809 16.3159 51.1705 15.603 51.1705 14.8348ZM53.9829 14.6297V14.8348C53.9829 15.2775 54.0221 15.6909 54.1001 16.075C54.1781 16.4591 54.302 16.7976 54.4713 17.0906C54.6469 17.3771 54.8748 17.6017 55.1549 17.7644C55.4348 17.9272 55.7765 18.0086 56.1801 18.0086C56.5709 18.0086 56.9061 17.9272 57.1861 17.7644C57.4661 17.6017 57.6905 17.3771 57.8597 17.0906C58.0293 16.7976 58.1529 16.4591 58.2309 16.075C58.3157 15.6909 58.3581 15.2775 58.3581 14.8348V14.6297C58.3581 14.2 58.3157 13.7964 58.2309 13.4188C58.1529 13.0346 58.0257 12.6961 57.8501 12.4031C57.6809 12.1036 57.4561 11.8693 57.1761 11.7C56.8965 11.5307 56.5577 11.4461 56.1605 11.4461C55.7637 11.4461 55.4249 11.5307 55.1449 11.7C54.8717 11.8693 54.6469 12.1036 54.4713 12.4031C54.302 12.6961 54.1781 13.0346 54.1001 13.4188C54.0221 13.7964 53.9829 14.2 53.9829 14.6297ZM62.9085 5.01056H65.7212V17.5887L65.4381 20.0106H62.9085V5.01056ZM72.4105 14.6199V14.825C72.4105 15.6128 72.3261 16.3354 72.1569 16.993C71.9941 17.6505 71.7401 18.2202 71.3949 18.702C71.0501 19.1772 70.6201 19.5483 70.1061 19.8152C69.5981 20.0756 68.9993 20.2058 68.3089 20.2058C67.6645 20.2058 67.1045 20.0756 66.6293 19.8152C66.1604 19.5548 65.7669 19.187 65.4477 18.7117C65.1289 18.2364 64.8717 17.6798 64.6761 17.0418C64.4809 16.4038 64.3344 15.7072 64.2369 14.952V14.5027C64.3344 13.7475 64.4809 13.0509 64.6761 12.4129C64.8717 11.7749 65.1289 11.2182 65.4477 10.743C65.7669 10.2677 66.1604 9.89988 66.6293 9.63944C67.0981 9.37904 67.6517 9.24884 68.2897 9.24884C68.9861 9.24884 69.5917 9.38228 70.1061 9.6492C70.6269 9.90964 71.0565 10.2807 71.3949 10.7625C71.7401 11.2378 71.9941 11.8042 72.1569 12.4617C72.3261 13.1128 72.4105 13.8322 72.4105 14.6199ZM69.598 14.825V14.6199C69.598 14.1902 69.5657 13.7866 69.5005 13.409C69.4417 13.0249 69.3377 12.6896 69.1881 12.4031C69.0381 12.1102 68.8333 11.879 68.5729 11.7098C68.3189 11.5405 67.9901 11.4558 67.5865 11.4558C67.2025 11.4558 66.8769 11.521 66.6097 11.6512C66.3429 11.7814 66.1217 11.9637 65.9457 12.198C65.7765 12.4324 65.6497 12.7124 65.5649 13.0379C65.4805 13.3569 65.4281 13.7085 65.4085 14.0926V15.3719C65.4281 15.8862 65.5129 16.3419 65.6625 16.7391C65.8189 17.1297 66.0533 17.4389 66.3657 17.6668C66.6849 17.8882 67.0981 17.9988 67.6061 17.9988C68.0029 17.9988 68.3316 17.9207 68.5921 17.7644C68.8529 17.6082 69.0545 17.3868 69.1977 17.1004C69.3473 16.8139 69.4516 16.4786 69.5101 16.0945C69.5689 15.7039 69.598 15.2807 69.598 14.825ZM79.8617 17.6277V12.9207C79.8617 12.5822 79.8065 12.2924 79.6957 12.0516C79.5853 11.8042 79.4125 11.6121 79.1781 11.4754C78.9505 11.3387 78.6541 11.2703 78.2897 11.2703C77.9769 11.2703 77.7069 11.3256 77.4789 11.4363C77.2513 11.5405 77.0753 11.6935 76.9517 11.8953C76.8281 12.0906 76.766 12.3218 76.766 12.5887H73.9537C73.9537 12.1394 74.0577 11.713 74.266 11.3094C74.4744 10.9057 74.7773 10.5509 75.1745 10.2449C75.5713 9.93244 76.0433 9.68828 76.5905 9.51248C77.1437 9.33672 77.7621 9.24884 78.4457 9.24884C79.2661 9.24884 79.9953 9.38556 80.6333 9.659C81.2712 9.93244 81.7725 10.3426 82.1373 10.8894C82.5085 11.4363 82.6936 12.1199 82.6936 12.9402V17.4617C82.6936 18.0412 82.7297 18.5164 82.8013 18.8875C82.8729 19.2521 82.9769 19.5711 83.1137 19.8445V20.0106H80.272C80.1353 19.7241 80.0308 19.366 79.9593 18.9363C79.8945 18.5001 79.8617 18.0639 79.8617 17.6277ZM80.2329 13.575L80.2525 15.1668H78.68C78.3089 15.1668 77.9869 15.2091 77.7133 15.2938C77.4401 15.3784 77.2153 15.4988 77.0397 15.6551C76.8637 15.8048 76.7337 15.9806 76.6488 16.1824C76.5709 16.3842 76.5317 16.6056 76.5317 16.8465C76.5317 17.0874 76.5869 17.3055 76.6977 17.5008C76.8085 17.6896 76.9681 17.8393 77.1761 17.95C77.3845 18.0542 77.6289 18.1062 77.9085 18.1062C78.3316 18.1062 78.6997 18.0216 79.0121 17.8524C79.3249 17.6831 79.5657 17.4747 79.7349 17.2274C79.9105 16.98 80.0017 16.7456 80.0084 16.5242L80.7505 17.7156C80.6465 17.9826 80.5029 18.2592 80.3209 18.5457C80.1449 18.8322 79.9205 19.1024 79.6469 19.3562C79.3737 19.6036 79.0449 19.8087 78.6605 19.9715C78.2765 20.1277 77.8209 20.2058 77.2933 20.2058C76.6229 20.2058 76.0141 20.0724 75.4673 19.8055C74.9269 19.532 74.4973 19.1577 74.1781 18.6824C73.8657 18.2006 73.7093 17.6538 73.7093 17.0418C73.7093 16.4884 73.8136 15.9969 74.022 15.5672C74.2304 15.1375 74.5361 14.7762 74.9401 14.4832C75.3501 14.1837 75.8613 13.9591 76.4733 13.8094C77.0853 13.6531 77.7949 13.575 78.6021 13.575H80.2329ZM87.8305 5.01056V20.0106H85.0084V5.01056H87.8305ZM92.9673 11.4754V24.073H90.1548V9.44416H92.7621L92.9673 11.4754ZM99.6569 14.6102V14.8152C99.6569 15.5835 99.5657 16.2964 99.3833 16.9539C99.2076 17.6114 98.9473 18.1844 98.6021 18.6726C98.2569 19.1544 97.8273 19.532 97.3129 19.8055C96.8053 20.0724 96.2192 20.2058 95.5552 20.2058C94.9104 20.2058 94.3509 20.0756 93.8753 19.8152C93.4001 19.5548 92.9997 19.1902 92.6744 18.7215C92.3553 18.2462 92.0981 17.6961 91.9029 17.0711C91.7077 16.4461 91.5577 15.7755 91.4537 15.0594V14.5223C91.5577 13.754 91.7077 13.0509 91.9029 12.4129C92.0981 11.7684 92.3553 11.2117 92.6744 10.743C92.9997 10.2677 93.3969 9.89988 93.8657 9.63944C94.3409 9.37904 94.8977 9.24884 95.5357 9.24884C96.2061 9.24884 96.7952 9.3758 97.3032 9.62968C97.8176 9.8836 98.2473 10.2482 98.5921 10.7234C98.9437 11.1987 99.2076 11.7651 99.3833 12.4226C99.5657 13.0802 99.6569 13.8094 99.6569 14.6102ZM96.8344 14.8152V14.6102C96.8344 14.1609 96.7952 13.7475 96.7172 13.3699C96.6457 12.9858 96.5285 12.6505 96.3657 12.3641C96.2093 12.0776 96.0013 11.8562 95.7409 11.7C95.4869 11.5372 95.1777 11.4558 94.8129 11.4558C94.4289 11.4558 94.1001 11.5177 93.8265 11.6414C93.5597 11.7651 93.3416 11.9442 93.1725 12.1785C93.0028 12.4129 92.8761 12.6928 92.7917 13.0184C92.7069 13.3439 92.6549 13.7117 92.6353 14.1219V15.4793C92.6677 15.9611 92.7588 16.394 92.9084 16.7781C93.0584 17.1557 93.2896 17.4552 93.6021 17.6766C93.9145 17.8979 94.3248 18.0086 94.8324 18.0086C95.2036 18.0086 95.5161 17.9272 95.7701 17.7644C96.0241 17.5952 96.2289 17.3641 96.3853 17.0711C96.5481 16.7781 96.6621 16.4396 96.7269 16.0555C96.7985 15.6714 96.8344 15.258 96.8344 14.8152ZM104.374 9.44416V20.0106H101.551V9.44416H104.374ZM101.375 6.69024C101.375 6.28008 101.519 5.94152 101.805 5.6746C102.092 5.40768 102.476 5.2742 102.958 5.2742C103.433 5.2742 103.814 5.40768 104.1 5.6746C104.393 5.94152 104.54 6.28008 104.54 6.69024C104.54 7.1004 104.393 7.43892 104.1 7.70584C103.814 7.9728 103.433 8.10624 102.958 8.10624C102.476 8.10624 102.092 7.9728 101.805 7.70584C101.519 7.43892 101.375 7.1004 101.375 6.69024ZM109.452 11.7V20.0106H106.639V9.44416H109.276L109.452 11.7ZM109.042 14.3562H108.28C108.28 13.575 108.38 12.8719 108.582 12.2469C108.784 11.6154 109.068 11.0782 109.432 10.6356C109.797 10.1863 110.23 9.84452 110.731 9.61016C111.239 9.36928 111.805 9.24884 112.43 9.24884C112.925 9.24884 113.377 9.32044 113.788 9.46368C114.198 9.60692 114.549 9.83476 114.842 10.1473C115.142 10.4598 115.37 10.8732 115.526 11.3875C115.688 11.9018 115.77 12.5301 115.77 13.2723V20.0106H112.938V13.2625C112.938 12.7938 112.873 12.4292 112.742 12.1688C112.612 11.9083 112.42 11.726 112.166 11.6219C111.919 11.5112 111.613 11.4558 111.248 11.4558C110.871 11.4558 110.542 11.5307 110.262 11.6805C109.989 11.8302 109.761 12.0386 109.578 12.3055C109.403 12.5659 109.269 12.8719 109.178 13.2234C109.087 13.575 109.042 13.9526 109.042 14.3562ZM124.598 9.44416H127.147V19.659C127.147 20.6225 126.932 21.4396 126.502 22.1102C126.079 22.7872 125.487 23.2983 124.725 23.6434C123.963 23.9949 123.078 24.1707 122.069 24.1707C121.626 24.1707 121.157 24.1121 120.662 23.9949C120.174 23.8777 119.706 23.6954 119.256 23.448C118.814 23.2006 118.442 22.8882 118.143 22.5106L119.383 20.8504C119.709 21.228 120.086 21.521 120.516 21.7293C120.946 21.9442 121.421 22.0516 121.942 22.0516C122.45 22.0516 122.879 21.9572 123.231 21.7684C123.582 21.5861 123.853 21.3159 124.042 20.9578C124.23 20.6062 124.325 20.1798 124.325 19.6785V11.8856L124.598 9.44416ZM117.489 14.8543V14.6492C117.489 13.8419 117.586 13.1095 117.782 12.452C117.984 11.7879 118.267 11.2182 118.631 10.743C119.002 10.2677 119.452 9.89988 119.979 9.63944C120.506 9.37904 121.102 9.24884 121.766 9.24884C122.469 9.24884 123.058 9.37904 123.534 9.63944C124.009 9.89988 124.4 10.271 124.706 10.7527C125.012 11.228 125.249 11.7912 125.418 12.4422C125.594 13.0867 125.731 13.7931 125.828 14.5613V15.0106C125.731 15.7462 125.584 16.4298 125.389 17.0613C125.194 17.6928 124.936 18.2462 124.618 18.7215C124.298 19.1902 123.902 19.5548 123.426 19.8152C122.958 20.0756 122.398 20.2058 121.746 20.2058C121.096 20.2058 120.506 20.0724 119.979 19.8055C119.458 19.5386 119.012 19.1642 118.641 18.6824C118.27 18.2006 117.984 17.6342 117.782 16.9832C117.586 16.3322 117.489 15.6225 117.489 14.8543ZM120.301 14.6492V14.8543C120.301 15.2905 120.344 15.6974 120.428 16.075C120.513 16.4526 120.643 16.7879 120.819 17.0808C121.001 17.3673 121.226 17.5919 121.492 17.7547C121.766 17.9109 122.088 17.9891 122.459 17.9891C122.974 17.9891 123.394 17.8816 123.719 17.6668C124.045 17.4454 124.289 17.1427 124.452 16.7586C124.614 16.3745 124.709 15.9318 124.735 15.4305V14.1512C124.722 13.741 124.666 13.3732 124.569 13.0476C124.471 12.7156 124.334 12.4324 124.158 12.198C123.983 11.9637 123.755 11.7814 123.475 11.6512C123.195 11.521 122.863 11.4558 122.479 11.4558C122.108 11.4558 121.786 11.5405 121.512 11.7098C121.245 11.8725 121.02 12.0971 120.838 12.3836C120.662 12.67 120.529 13.0086 120.438 13.3992C120.347 13.7833 120.301 14.2 120.301 14.6492Z" fill="white"/>
</g>
<defs>
<clipPath id="clip0_5121_4215">
<rect width="128.4" height="26" fill="white"/>
</clipPath>
</defs>
</svg>
