<svg xmlns="http://www.w3.org/2000/svg" width="115" height="28" fill="none">
  <g clip-path="url(#a)">
    <path fill="#1E3B45" d="M35.828 16.121c0 3.298-1.141 4.948-3.424 4.948a3.82 3.82 0 0 1-1.036-.143v-.916c.374.127.726.19 1.056.19.874 0 1.505-.332 1.892-.995.387-.664.58-1.699.58-3.104V7.16h.932v8.962Zm2.833 4.224v-1.078c.976.623 1.965.935 2.967.935 1.064 0 1.873-.221 2.425-.663.55-.443.827-1.061.827-1.854 0-.7-.186-1.258-.557-1.673-.37-.417-1.174-.984-2.411-1.703-1.382-.806-2.256-1.481-2.624-2.025-.368-.544-.552-1.172-.552-1.883 0-.965.374-1.786 1.122-2.46.749-.674 1.747-1.011 2.996-1.011a7.58 7.58 0 0 1 2.434.41v.991a6.119 6.119 0 0 0-2.557-.543c-.926 0-1.66.236-2.202.706a2.272 2.272 0 0 0-.814 1.793c0 .699.186 1.255.557 1.669.37.412 1.171.975 2.4 1.686 1.275.726 2.123 1.37 2.545 1.931a3.15 3.15 0 0 1 .632 1.94c0 1.05-.363 1.904-1.088 2.565-.726.662-1.752.992-3.077.992-.47 0-1.01-.074-1.621-.22-.612-.146-1.079-.315-1.402-.505Zm9.889.486V7.159h4.83c4.843 0 7.265 2.222 7.265 6.664 0 2.13-.66 3.83-1.982 5.101s-3.082 1.907-5.282 1.907H48.55Zm3.072-11.164v8.665h1.521c1.332 0 2.376-.4 3.133-1.2.758-.802 1.136-1.891 1.136-3.27 0-1.303-.375-2.328-1.127-3.075-.75-.747-1.806-1.12-3.162-1.12h-1.5Zm19.712 11.164h-8.179V7.159h7.864v2.508h-4.792v3.041h4.46v2.497h-4.46v3.126h5.107v2.5Zm10.721 0h-8.121V7.159h3.072v11.173h5.05v2.499Zm5.008-13.672V20.83H83.99V7.159h3.073Zm14.658 0L97.023 20.83h-3.48l-4.64-13.671h3.31l2.843 9.514c.153.515.244.97.276 1.365h.056c.055-.476.154-.945.296-1.402l2.825-9.477h3.213ZM115 20.83h-3.528l-2.12-3.52a12.85 12.85 0 0 0-.456-.714 4.04 4.04 0 0 0-.443-.539 1.743 1.743 0 0 0-.465-.342 1.189 1.189 0 0 0-.528-.12h-.827v5.235h-3.072V7.159h4.868c3.309 0 4.964 1.24 4.964 3.718.005.45-.069.897-.219 1.32a3.671 3.671 0 0 1-.617 1.092 3.959 3.959 0 0 1-.966.84 4.965 4.965 0 0 1-1.261.552v.039c.204.062.4.167.591.308.19.144.374.31.55.503.179.19.349.394.509.614.162.219.31.433.443.644L115 20.831Zm-8.366-11.365v3.804h1.331c.659 0 1.189-.19 1.587-.572a1.911 1.911 0 0 0 .609-1.44c0-1.194-.714-1.793-2.14-1.793h-1.387v.001Z"/>
    <path fill="#BD483B" d="m12.638.278-2.551 9.09v9.177l2.551 9.177 2.624-9.177V9.368L12.638.278Z"/>
    <path fill="#E64E3D" d="M12.639.278 0 4.842l1.796 16.876 10.842 6.004"/>
    <path fill="#BD483B" d="m12.639 27.722 10.898-6.066 2.04-16.874L12.639.278"/>
    <path fill="#FEC82F" d="M10.345 20.66a7.683 7.683 0 0 1-3.236-2.001l-.003-.002a7.698 7.698 0 0 1-1.838-3.14c.206.191.425.367.654.532l.009.022c-.003-.01-.007-.016-.01-.022.435.305.902.56 1.394.76.145.058.295.111.445.16.009.006.02.006.029.009.026.01.053.019.08.027a1.403 1.403 0 0 0 1.141 1.239c.236.953.684 1.767 1.335 2.417Zm.476-10.947c0 .267.073.516.2.727-1.027 1.444-1.732 3.01-2.036 4.56a9.175 9.175 0 0 0-.087.51 1.402 1.402 0 0 0-.834.628.058.058 0 0 1-.029-.008l-.05-.018a5.877 5.877 0 0 1-2.552-1.686l-.034-.04-.094-.113-.039-.048-.03-.037c-.004-.009-.011-.014-.014-.02-.017-.018-.03-.038-.044-.055a.133.133 0 0 0-.019-.024l-.003-.007c-.01-.011-.02-.027-.03-.04a3.206 3.206 0 0 1-.13-.185c-.007-.01-.015-.02-.02-.033a.12.12 0 0 1-.016-.022 7.703 7.703 0 0 1 1.829-5.52 7.688 7.688 0 0 1 3.531-2.345c.022.15.049.303.078.456.158.796.422 1.6.78 2.386a1.388 1.388 0 0 0-.357.933Zm-.82 7.152a.734.734 0 0 1-.252.56.737.737 0 0 1-.878.074.75.75 0 0 1-.28-.309.744.744 0 0 1 .236-.928.738.738 0 0 1 1.055.202.71.71 0 0 1 .12.401Zm2.959-7.152a.745.745 0 0 1-.847.74c-.006-.003-.013-.003-.02-.005a.74.74 0 0 1-.63-.798.744.744 0 0 1 .756-.68h.03a.744.744 0 0 1 .71.743Z"/>
    <path fill="#DF9C26" d="M20.332 13.294c0 .747-.106 1.468-.302 2.15a10.453 10.453 0 0 1-1.972-.753c.055-.27.028-.549-.075-.803a12.3 12.3 0 0 0 2.052-2.723c.193.676.297 1.392.297 2.13Zm-.715-3.25a11.375 11.375 0 0 1-2.208 3.17 1.396 1.396 0 0 0-1.547.07c-.43-.34-.838-.705-1.224-1.093-.49-.49-.942-1.015-1.353-1.573a1.398 1.398 0 0 0 .138-1.617 13.129 13.129 0 0 1 3.217-2.296 7.746 7.746 0 0 1 2.977 3.339Zm-2.189 4.37a.745.745 0 0 1-.707.776.74.74 0 0 1-.775-.71c.01-.007.018-.012.023-.017-.008-.007-.017-.012-.024-.02l-.001-.03a.748.748 0 0 1 .957-.711.747.747 0 0 1 .527.712Zm.193 1.041a1.395 1.395 0 0 1-1.715.124l-.094.06a11.26 11.26 0 0 1-3.174 1.398v3.973c1.516 0 2.998-.45 4.26-1.291a7.714 7.714 0 0 0 2.837-3.44c-.73-.204-1.438-.48-2.114-.824Z"/>
    <path fill="#FEC82F" d="M12.638 17.037c-.64.168-1.297.27-1.959.302l-.105.007a1.422 1.422 0 0 1-.69.774 4.22 4.22 0 0 0 1.084 1.916c.43.432.955.758 1.554.972l.116.002v-3.973Z"/>
    <path fill="#DF9C26" d="M15.289 14.414c0-.142.021-.28.06-.41a14.743 14.743 0 0 1-2.71-2.78v4.896a10.553 10.553 0 0 0 2.728-1.244 1.403 1.403 0 0 1-.078-.462Z"/>
    <path fill="#FEC82F" d="M12.639 11.224c-.037-.049-.075-.093-.109-.143-.278.063-.569.04-.833-.066-.932 1.322-1.57 2.751-1.849 4.158a9.61 9.61 0 0 0-.068.39c.392.161.697.492.818.9.014-.003.024-.003.038-.003a8.816 8.816 0 0 0 2.003-.34v-4.896Z"/>
    <path fill="#DF9C26" d="M12.639 5.582v2.795c.04.013.08.027.119.045a14.16 14.16 0 0 1 2.935-2.207 7.623 7.623 0 0 0-3.054-.633Z"/>
    <path fill="#FEC82F" d="M12.638 5.582c-.5 0-.986.045-1.456.138.02.163.049.333.083.5a9.85 9.85 0 0 0 .68 2.12c.23-.046.469-.034.693.037V5.582Z"/>
  </g>
  <defs>
    <clipPath id="a">
      <path fill="#fff" d="M0 0h115v28H0z"/>
    </clipPath>
  </defs>
</svg>
