<svg xmlns="http://www.w3.org/2000/svg" width="140" height="34" fill="none">
  <g fill="#fff" clip-path="url(#a)">
    <path d="M43.616 19.576c0 4.005-1.389 6.008-4.168 6.008a4.64 4.64 0 0 1-1.261-.174v-1.112c.455.154.883.232 1.285.232 1.065 0 1.833-.404 2.304-1.209.471-.807.706-2.063.706-3.769V8.693h1.134v10.883Zm3.449 5.129v-1.309c1.188.756 2.393 1.135 3.612 1.135 1.296 0 2.28-.268 2.952-.805.671-.537 1.007-1.288 1.007-2.251 0-.85-.226-1.528-.678-2.032-.451-.506-1.429-1.194-2.935-2.067-1.682-.979-2.747-1.799-3.195-2.46-.447-.66-.671-1.422-.671-2.286 0-1.172.455-2.169 1.366-2.988.911-.817 2.126-1.227 3.647-1.227a9.25 9.25 0 0 1 2.963.498v1.204a7.465 7.465 0 0 0-3.113-.66c-1.127 0-2.02.287-2.681.858-.659.571-.99 1.297-.99 2.177 0 .848.226 1.524.677 2.026.452.5 1.426 1.184 2.923 2.048 1.551.881 2.584 1.663 3.097 2.345.514.684.77 1.469.77 2.356 0 1.274-.442 2.311-1.325 3.114-.884.803-2.133 1.204-3.746 1.204-.572 0-1.229-.09-1.973-.266-.745-.178-1.313-.383-1.707-.614Zm12.039.59V8.693h5.881c5.895 0 8.844 2.698 8.844 8.093 0 2.585-.805 4.65-2.413 6.194-1.61 1.543-3.753 2.315-6.431 2.315h-5.881Zm3.74-13.556v10.522h1.852c1.621 0 2.892-.485 3.814-1.458.922-.973 1.383-2.296 1.383-3.97 0-1.583-.457-2.827-1.372-3.734-.914-.907-2.199-1.36-3.85-1.36h-1.827Zm23.997 13.556h-9.957V8.693h9.574v3.046h-5.834v3.693h5.43v3.032h-5.43v3.796h6.217v3.035Zm13.052 0h-9.887V8.693h3.74v13.568h6.147v3.034Zm6.096-16.602v16.602h-3.74V8.693h3.74Zm17.845 0-5.719 16.602h-4.236l-5.651-16.602h4.029l3.462 11.553c.186.625.297 1.178.336 1.657h.068a9.42 9.42 0 0 1 .36-1.702l3.439-11.508h3.912ZM140 25.295h-4.295l-2.581-4.273a16.485 16.485 0 0 0-.555-.868 4.891 4.891 0 0 0-.539-.654 2.13 2.13 0 0 0-.567-.416c-.2-.097-.42-.147-.643-.145h-1.006v6.356h-3.74V8.693H132c4.029 0 6.043 1.506 6.043 4.515a4.66 4.66 0 0 1-.266 1.604c-.178.49-.428.932-.752 1.325a4.787 4.787 0 0 1-1.176 1.02 6.046 6.046 0 0 1-1.534.67v.047c.248.076.486.203.719.375.231.174.455.377.67.61.217.231.424.479.619.746.197.266.377.526.539.782L140 25.295Zm-10.185-13.8v4.619h1.62c.803 0 1.448-.231 1.932-.694a2.321 2.321 0 0 0 .742-1.749c0-1.45-.87-2.177-2.605-2.177h-1.689v.001Z"/>
    <path fill-rule="evenodd" d="m28.654 26.297-13.268 7.365v-8.15a9.373 9.373 0 0 0 8.64-5.744 14.054 14.054 0 0 1-2.574-1.001 1.7 1.7 0 0 1-2.088.15l-.025.017c-.03.02-.06.04-.09.056a13.709 13.709 0 0 1-3.863 1.698v-1.113a12.866 12.866 0 0 0 3.321-1.511 1.698 1.698 0 0 1-.02-1.06 17.927 17.927 0 0 1-3.3-3.375V12.54a.897.897 0 0 0 .39-.746.907.907 0 0 0-.39-.741v-.881c.047.016.097.033.144.055a17.239 17.239 0 0 1 3.573-2.681 9.3 9.3 0 0 0-3.718-.768V.338l15.751 5.469-2.483 20.49Zm-4.27-7.544a9.428 9.428 0 0 0 .007-5.195 14.938 14.938 0 0 1-2.499 3.306c.126.309.158.648.092.975.767.385 1.571.69 2.4.914Zm-.503-6.557c-.064.14-.13.279-.2.416a13.81 13.81 0 0 1-2.488 3.434 1.703 1.703 0 0 0-1.883.084 16.773 16.773 0 0 1-1.49-1.327 16.691 16.691 0 0 1-1.647-1.91 1.695 1.695 0 0 0 .168-1.963 15.98 15.98 0 0 1 3.917-2.788 9.413 9.413 0 0 1 3.623 4.054Zm-2.9 5.957a.903.903 0 0 0 .236-.65.909.909 0 0 0-.642-.865.906.906 0 0 0-1.165.864l.001.037.019.014.007.005.004.004a.207.207 0 0 0-.028.022.903.903 0 0 0 1.569.569Z" clip-rule="evenodd"/>
    <path fill-opacity=".8" fill-rule="evenodd" d="M0 5.88 15.386.338v6.44c-.608 0-1.201.055-1.773.168.025.197.06.404.101.606.168.86.449 1.725.829 2.575.28-.057.57-.041.843.045v.88a.908.908 0 0 0-.473-.16h-.038a.902.902 0 0 0-.153 1.795h.004l.004.001a.055.055 0 0 1 .017.005c.041.004.084.006.128.006a.9.9 0 0 0 .511-.159v1.089l-.043-.055a1.906 1.906 0 0 1-.089-.12 1.717 1.717 0 0 1-1.015-.08c-1.134 1.607-1.912 3.342-2.25 5.05-.032.162-.059.32-.083.475.477.195.848.596.996 1.092.016-.004.029-.004.046-.004.809-.04 1.627-.18 2.438-.412v1.113h-.001c-.78.204-1.579.327-2.384.367l-.128.008c-.151.41-.454.744-.839.94.245.909.688 1.698 1.319 2.327.524.524 1.162.92 1.891 1.18l.141.002h.001v8.15l-13.2-7.29L0 5.88Zm8.654 16.777a9.359 9.359 0 0 0 3.94 2.43c-.792-.788-1.338-1.777-1.625-2.934a1.702 1.702 0 0 1-1.39-1.504 1.842 1.842 0 0 1-.111-.037 8.623 8.623 0 0 1-2.259-1.124 8.234 8.234 0 0 1-.796-.647 9.342 9.342 0 0 0 2.238 3.814l.003.002Zm-1.445-3.17.003.007a.1.1 0 0 1 .001.003l-.004-.01Zm5.965-7.693c0 .324.088.627.243.883-1.25 1.753-2.108 3.656-2.479 5.539-.041.209-.077.416-.105.619-.429.113-.79.393-1.016.762a.07.07 0 0 1-.035-.01l-.039-.013a7.157 7.157 0 0 1-3.13-2.055l-.04-.05-.115-.136-.047-.06-.002-.002a.589.589 0 0 0-.035-.042c-.003-.006-.007-.01-.01-.014a.62.62 0 0 1-.046-.059l-.014-.018a.249.249 0 0 0-.02-.026l-.003-.003-.004-.008-.021-.028a3.953 3.953 0 0 1-.173-.247l-.004-.004a.13.13 0 0 1-.021-.034.148.148 0 0 1-.02-.027 9.338 9.338 0 0 1 2.227-6.703 9.36 9.36 0 0 1 4.299-2.847c.026.182.059.367.095.553.192.967.513 1.942.949 2.898-.271.3-.434.698-.434 1.132Zm-1.077 9.059a.889.889 0 0 0 .079-.374.86.86 0 0 0-.145-.487.898.898 0 0 0-1.285-.245.897.897 0 0 0-.377.732c0 .137.03.272.089.395a.91.91 0 0 0 1.41.285.889.889 0 0 0 .229-.306Z" clip-rule="evenodd"/>
  </g>
  <defs>
    <clipPath id="a">
      <path fill="#fff" d="M0 0h140v34H0z"/>
    </clipPath>
  </defs>
</svg>
