<?xml version="1.0" encoding="utf-8"?>
<svg viewBox="0 0 140 34" width="140" height="34" xmlns="http://www.w3.org/2000/svg">
	<style type="text/css">
		.st0{fill:#1D3A45;}
		.st1{fill:#BC473A;}
		.st2{fill:#E84D3D;}
		.st3{fill:#FDC72E;}
		.st4{fill:#E09B00;}
	</style>
	<path class="st0" d="M43.6,19.6c0,4-1.4,6-4.2,6c-0.4,0-0.8-0.1-1.3-0.2v-1.1c0.4,0.2,0.9,0.3,1.3,0.3c1.1,0,1.8-0.4,2.3-1.3 c0.5-0.8,0.7-2.1,0.7-3.8V8.7h1.2C43.6,8.7,43.6,19.6,43.6,19.6z M47.1,24.7v-1.3c1.2,0.8,2.4,1.2,3.6,1.2c1.3,0,2.3-0.3,2.9-0.8 c0.7-0.5,1-1.3,1-2.3c0-0.8-0.3-1.5-0.7-2s-1.4-1.2-2.9-2.1c-1.7-1-2.8-1.8-3.2-2.5s-0.7-1.4-0.7-2.3c0-1.2,0.4-2.2,1.3-3 s2.2-1.3,3.7-1.3c1,0,2,0.2,3,0.5V10c-1-0.4-2-0.7-3.1-0.7c-1.2,0-2,0.3-2.7,0.8c-0.7,0.6-1,1.3-1,2.2c0,0.8,0.3,1.5,0.7,2 s1.4,1.2,2.9,2.1c1.6,0.9,2.6,1.7,3.1,2.3c0.5,0.7,0.8,1.5,0.8,2.3c0,1.3-0.4,2.5-1.3,3.3c-0.8,0.7-1.6,1.4-3.8,1.3 c-1.2,0-3.1-0.5-2.4-0.4C48.3,25.2,47.6,25.1,47.1,24.7z M59.1,25.3V8.7H65c5.9,0,8.8,2.7,8.8,8.1c0,2.6-0.8,4.7-2.4,6.2 c-1.6,1.6-3.8,2.4-6.4,2.4C65,25.4,59.1,25.3,59.1,25.3z M62.8,11.8v10.5h1.8c1.6,0,2.9-0.5,3.8-1.4c0.9-1,1.4-2.3,1.4-4 c0-1.6-0.4-2.8-1.3-3.7s-2.2-1.3-3.8-1.3C64.7,11.9,62.8,11.8,62.8,11.8z M86.8,25.3h-10V8.7h9.6v3.1h-5.8v3.7H86v3h-5.4v3.8h6.3 C86.9,22.3,86.8,25.3,86.8,25.3z M99.9,25.3H90V8.7h3.8v13.6h6.2L99.9,25.3z M106,8.7v16.7h-3.8V8.7H106z M123.8,8.7l-5.7,16.7h-4.3 l-5.7-16.7h4l3.5,11.6c0.2,0.7,0.3,1.2,0.3,1.7h0.1c0.1-0.5,0.2-1.1,0.3-1.7l3.4-11.5C119.7,8.8,123.8,8.7,123.8,8.7z M140,25.3 h-4.3l-2.6-4.3c-0.2-0.3-0.4-0.6-0.6-0.8c-0.2-0.3-0.3-0.5-0.5-0.7s-0.3-0.3-0.6-0.4c-0.2-0.1-0.4-0.2-0.7-0.2h-1v6.3H126V8.7h5.9 c4,0,6.1,1.5,6.1,4.5c0,0.6-0.1,1.1-0.3,1.6s-0.4,0.9-0.8,1.3c-0.3,0.4-0.7,0.8-1.2,1s-1,0.5-1.5,0.7v0.1c0.3,0.1,0.5,0.2,0.8,0.4 s0.4,0.4,0.7,0.6c0.3,0.3,0.4,0.5,0.6,0.8c0.2,0.2,0.4,0.5,0.5,0.8L140,25.3L140,25.3z M129.8,11.5v4.6h1.6c0.8,0,1.4-0.2,1.9-0.7 s0.8-1.1,0.8-1.8c0-1.4-0.8-2.2-2.6-2.2h-1.7V11.5z"/>
	<path class="st1" d="M18.534,22.607V11.471L15.292,0.5l-3.075,10.971v11.137l3.075,11.137L18.534,22.607z"/>
	<path class="st2" d="M15.292,0.5L0,6.068L2.161,26.43l13.131,7.314"/>
	<path class="st1" d="M15.292,33.744L28.59,26.43L31,5.985L15.292,0.5"/>
	<g>
		<path class="st3" d="M15.292,6.905c-0.544,0.008-1.087,0.064-1.621,0.169c0.141,1.12,0.431,2.196,0.854,3.211 c0.095-0.017,0.19-0.029,0.289-0.029c0.167,0,0.326,0.032,0.479,0.078C15.292,10.334,15.292,6.905,15.292,6.905z M12.622,7.334 c-3.854,1.219-6.479,4.831-6.482,8.918c0.003,0.238,0.015,0.476,0.036,0.714c1.012,1.459,2.254,2.34,3.622,2.801 c0.195-0.355,0.519-0.623,0.91-0.748c0.009-0.076,0.013-0.153,0.027-0.23c0.344-2.088,1.341-4.178,2.64-5.971 c-0.163-0.262-0.25-0.564-0.251-0.872c0-0.44,0.176-0.841,0.455-1.143C13.107,9.694,12.785,8.527,12.622,7.334L12.622,7.334z  M14.814,11.062c-0.493,0-0.883,0.391-0.883,0.883c0,0.493,0.391,0.883,0.883,0.883c0.181,0,0.339-0.066,0.479-0.158V11.22 C15.152,11.12,14.985,11.066,14.814,11.062L14.814,11.062z M14.203,13.515c-1.19,1.668-2.098,3.604-2.402,5.45 c-0.006,0.033-0.007,0.066-0.012,0.1c0.45,0.192,0.79,0.59,0.913,1.072c0.879-0.046,1.749-0.201,2.591-0.46v-5.871 c-0.051-0.07-0.106-0.135-0.155-0.204C14.824,13.662,14.5,13.632,14.203,13.515L14.203,13.515z M6.567,19.05 c0.9,2.887,3.126,5.153,5.971,6.083c-0.851-0.844-1.447-1.912-1.719-3.079c-0.594-0.14-1.056-0.609-1.187-1.205 C8.489,20.487,7.441,19.873,6.567,19.05L6.567,19.05z M11.176,19.695c-0.452-0.003-0.821,0.361-0.824,0.813 c0,0.004,0,0.008,0,0.012c0,0.46,0.364,0.824,0.824,0.824c0.46,0,0.824-0.364,0.824-0.824C12,20.059,11.635,19.695,11.176,19.695z  M15.292,20.804c-0.898,0.247-1.808,0.395-2.714,0.424c-0.15,0.293-0.385,0.532-0.677,0.685c0.277,1.107,0.906,2.094,1.794,2.812 c0.248,0.205,0.74,0.479,1.172,0.693c0.136,0.068,0.248,0.121,0.367,0.177c0.019,0.001,0.039,0.001,0.058,0.002V20.804z"/>
		<path class="st4" d="M15.379,6.902c-0.029,0.001-0.058,0.002-0.086,0.003v3.428c0.064,0.019,0.13,0.035,0.19,0.062 c1.263-1.225,2.522-2.108,3.589-2.701C17.907,7.176,16.65,6.906,15.379,6.902z M20.25,8.316c-1.041,0.504-2.499,1.421-3.964,2.817 c0.135,0.243,0.219,0.518,0.219,0.812c0,0.426-0.166,0.813-0.429,1.11c0.394,0.545,0.814,1.071,1.276,1.557 c0.565,0.596,1.185,1.127,1.826,1.619c0.302-0.241,0.677-0.373,1.064-0.376c0.327,0,0.63,0.096,0.893,0.255 c1.169-1.156,2.099-2.457,2.621-3.777C22.999,10.677,21.78,9.28,20.25,8.316z M15.293,11.22v1.451 c0.25-0.157,0.402-0.431,0.404-0.726C15.695,11.65,15.542,11.376,15.293,11.22L15.293,11.22z M24.276,13.778 c-0.603,1.139-1.429,2.217-2.418,3.185c0.126,0.313,0.157,0.657,0.09,0.987c0.766,0.37,1.542,0.66,2.308,0.873 c0.237-0.836,0.358-1.701,0.359-2.571C24.612,15.415,24.498,14.583,24.276,13.778L24.276,13.778z M15.292,13.806v5.871 c0.121-0.037,0.242-0.068,0.362-0.108c1.017-0.346,2.003-0.85,2.934-1.444c-0.058-0.17-0.089-0.347-0.091-0.526 c0-0.165,0.031-0.322,0.075-0.474c-0.714-0.536-1.383-1.128-2.003-1.77C16.111,14.866,15.685,14.349,15.292,13.806z M20.241,16.688 c-0.509,0-0.911,0.403-0.911,0.911c0,0.508,0.402,0.911,0.911,0.911c0.507,0,0.91-0.403,0.91-0.911 C21.151,17.091,20.748,16.688,20.241,16.688z M21.399,18.89c-0.317,0.29-0.73,0.451-1.159,0.453c-0.37,0-0.712-0.12-0.996-0.318 c-1.016,0.648-2.104,1.173-3.243,1.567c-0.234,0.08-0.472,0.147-0.71,0.213v4.793c0.029,0.002,0.058,0.003,0.086,0.005 c3.727-0.004,7.085-2.275,8.517-5.758C23.037,19.601,22.201,19.282,21.399,18.89z"/>
	</g>
</svg>
