<?xml version="1.0" encoding="utf-8"?>
<svg viewBox="0 0 120 100" xmlns="http://www.w3.org/2000/svg">
	<path fill="#1d3a45" d="M14.6 84c0 4-1.4 6-4.2 6-.4 0-.9-.1-1.3-.2v-1.1c.5.2.9.2 1.3.2 1.1 0 1.8-.4 2.3-1.2s.7-2.1.7-3.8V73.1h1.1V84zM18.1 89.1v-1.3c1.2.8 2.4 1.1 3.6 1.1 1.3 0 2.3-.3 2.9-.8.7-.5 1-1.3 1-2.2 0-.8-.2-1.5-.7-2s-1.4-1.2-2.9-2.1c-1.7-1-2.7-1.8-3.2-2.5-.4-.7-.7-1.4-.7-2.3 0-1.2.5-2.2 1.4-3s2.1-1.2 3.6-1.2c1 0 2 .2 3 .5v1.2c-1-.4-2-.7-3.1-.7s-2 .3-2.7.9-1 1.3-1 2.2c0 .8.2 1.5.7 2s1.4 1.2 2.9 2c1.5.9 2.6 1.7 3.1 2.3.5.7.8 1.5.8 2.4 0 1.3-.4 2.3-1.3 3.1s-2.1 1.2-3.7 1.2c-.6 0-1.2-.1-2-.3-.8 0-1.4-.2-1.7-.5zM30.1 89.7V73.1H36c5.9 0 8.8 2.7 8.8 8.1 0 2.6-.8 4.6-2.4 6.2-1.6 1.5-3.7 2.3-6.4 2.3zm3.7-13.5v10.5h1.8c1.6 0 2.9-.5 3.8-1.5s1.4-2.3 1.4-4c0-1.6-.5-2.8-1.4-3.7s-2.2-1.4-3.8-1.4h-1.8zM57.8 89.7h-9.9V73.1h9.6v3h-5.8v3.7H57v3h-5.4v3.8h6.2zM70.8 89.7h-9.9V73.1h3.7v13.5h6.1v3.1zM76.9 73.1v16.6h-3.7V73.1zM94.7 73.1L89 89.7h-4.2l-5.6-16.6h4l3.5 11.5c.2.6.3 1.2.3 1.7.1-.5.2-1.1.4-1.7l3.4-11.5zM110.8 89.7h-4.3l-2.6-4.3-.6-.9c-.2-.3-.4-.5-.5-.7-.2-.2-.4-.3-.6-.4s-.4-.1-.6-.1h-1v6.3h-3.7V73.1h5.9c4 0 6 1.5 6 4.5 0 .6-.1 1.1-.3 1.6s-.4.9-.8 1.3c-.3.4-.7.7-1.2 1s-1 .5-1.5.7c.2.1.5.2.7.4s.5.4.7.6.4.5.6.7c.2.3.4.5.5.8zm-10.2-13.8v4.6h1.6c.8 0 1.4-.2 1.9-.7s.7-1.1.7-1.7c0-1.4-.9-2.2-2.6-2.2z"/>
	<path fill="#bc473a" d="M64.636 26.66v-.249L59.8 10.043l-4.588 16.368v16.616L59.8 59.643l4.836-16.616z"/>
	<path fill="#e84d3d" d="M59.8 10.043l-22.816 8.308 3.224 30.38L59.8 59.643"/>
	<path fill="#bc473a" d="M59.8 59.643l19.84-10.912 3.596-30.504L59.8 10.043"/>
	<g stroke-width="1.24">
		<path fill="#fdc72e" paint-order="stroke fill markers" d="M59.8 19.6a13.781 13.95 0 0 0-2.42.252 18.42 18.42 0 0 0 1.274 4.79c.141-.024.284-.043.431-.043.25 0 .487.047.715.116V19.6zm-3.984.64a13.781 13.95 0 0 0-9.67 13.304 13.781 13.95 0 0 0 .053 1.066c1.51 2.177 3.362 3.49 5.403 4.178a2.36 2.36 0 0 1 1.359-1.114c.013-.115.02-.23.038-.344.514-3.115 2.003-6.234 3.94-8.91a2.483 2.483 0 0 1-.375-1.3c0-.659.263-1.255.68-1.706a20.181 20.181 0 0 1-1.428-5.175zm3.27 5.562c-.735 0-1.318.583-1.318 1.318 0 .735.583 1.317 1.317 1.317.271 0 .507-.098.715-.235v-2.165a1.289 1.289 0 0 0-.715-.235zm-.911 3.66c-1.776 2.488-3.13 5.376-3.584 8.13-.009.05-.01.1-.017.15a2.37 2.37 0 0 1 1.36 1.599 15.985 15.985 0 0 0 3.866-.686v-8.76c-.076-.103-.158-.2-.232-.305-.157.03-.318.049-.482.049a2.49 2.49 0 0 1-.911-.177zM46.783 37.72a13.781 13.95 0 0 0 8.91 9.075 9.51 9.51 0 0 1-2.565-4.594 2.368 2.368 0 0 1-1.77-1.797c-1.647-.514-3.198-1.403-4.575-2.684zm6.876.962c-.687 0-1.23.544-1.23 1.23 0 .687.543 1.23 1.23 1.23s1.23-.543 1.23-1.23c0-.686-.544-1.23-1.23-1.23zm6.141 1.654c-1.338.369-2.698.59-4.049.632a2.364 2.364 0 0 1-1.01 1.022 7.846 7.846 0 0 0 2.676 4.197c.37.306 1.103.715 1.749 1.035.203.1.37.179.547.264a13.781 13.95 0 0 0 .088.002v-7.152z"/>
		<path fill="#e09b00" paint-order="stroke fill markers" d="M59.929 19.595a13.781 13.95 0 0 0-.128.005v5.115c.095.029.193.053.283.092 1.885-1.828 3.762-3.145 5.355-4.03a13.781 13.95 0 0 0-5.51-1.182zm7.268 2.11c-1.553.752-3.73 2.12-5.914 4.204.2.361.324.77.324 1.21 0 .637-.246 1.213-.639 1.657a22.425 22.425 0 0 0 1.904 2.323c.843.889 1.768 1.68 2.724 2.414a2.57 2.57 0 0 1 1.587-.559c.487 0 .94.144 1.332.38 1.743-1.725 3.131-3.665 3.91-5.636a13.781 13.95 0 0 0-5.228-5.994zm-7.396 4.332v2.165c.356-.234.603-.618.603-1.082a1.29 1.29 0 0 0-.603-1.083zm13.403 3.817c-.9 1.697-2.133 3.308-3.607 4.752a2.569 2.569 0 0 1 .134 1.472c1.144.552 2.3.985 3.444 1.303a13.781 13.95 0 0 0 .535-3.836 13.781 13.95 0 0 0-.506-3.691zm-13.403.041v8.76c.18-.054.36-.101.54-.162 1.517-.515 2.987-1.268 4.376-2.153-.08-.25-.136-.51-.136-.785 0-.246.047-.48.112-.707-1.049-.8-2.063-1.664-2.989-2.64a23.643 23.643 0 0 1-1.903-2.313zm7.381 4.301c-.758 0-1.358.601-1.358 1.36 0 .757.6 1.358 1.358 1.358.758 0 1.36-.6 1.36-1.359 0-.758-.602-1.359-1.36-1.359zm1.73 3.284a2.58 2.58 0 0 1-1.73.676 2.574 2.574 0 0 1-1.484-.475 22.905 22.905 0 0 1-4.84 2.338c-.35.119-.703.22-1.058.317v7.152a13.781 13.95 0 0 0 .129.007 13.781 13.95 0 0 0 12.708-8.59 22.298 22.298 0 0 1-3.725-1.424z"/>
	</g>
</svg>
