<?xml version="1.0" encoding="UTF-8" standalone="no"?>
<svg viewBox="0 0 120 94" width="120" height="94" xmlns="http://www.w3.org/2000/svg">
	<style type="text/css">
		.st0{fill:#1D3A45;}
		.st1{fill:#BC473A;}
		.st2{fill:#E84D3D;}
		.st3{fill:#FDC72E;}
		.st4{fill:#E09B00;}
	</style>
	<path class="st0" d="m7.4 87c0 4.7-1.6 7-4.9 7-0.5 0-1-0.1-1.5-0.2v-1.3c0.6 0.2 1 0.2 1.5 0.2 1.3 0 2.1-0.5 2.7-1.4s0.8-2.4 0.8-4.4v-12.6h1.3v12.7h0.1zm4.1 6v-1.5c1.4 0.9 2.8 1.3 4.2 1.3 1.5 0 2.7-0.3 3.4-0.9 0.8-0.6 1.2-1.5 1.2-2.6 0-0.9-0.2-1.7-0.8-2.3s-1.6-1.4-3.4-2.4c-2-1.2-3.1-2.1-3.7-2.9-0.5-0.8-0.8-1.6-0.8-2.7 0-1.4 0.6-2.6 1.6-3.5s2.4-1.4 4.2-1.4c1.2 0 2.3 0.2 3.5 0.6v1.3c-1.2-0.5-2.3-0.8-3.6-0.8s-2.3 0.3-3.1 1c-0.8 0.7-1.2 1.5-1.2 2.6 0 0.9 0.2 1.7 0.8 2.3s1.6 1.4 3.4 2.3c1.7 1 3 2 3.6 2.7 0.6 0.8 0.9 1.7 0.9 2.8 0 1.5-0.5 2.7-1.5 3.6s-2.4 1.4-4.3 1.4c-0.7 0-1.4-0.1-2.3-0.3-1.1-0.1-1.8-0.3-2.1-0.6zm13.9 0.7v-19.4h6.9c6.9 0 10.2 3.1 10.2 9.4 0 3-0.9 5.4-2.8 7.2-1.9 1.7-4.3 2.7-7.4 2.7h-6.9zm4.3-15.8v12.2h2.1c1.9 0 3.4-0.6 4.4-1.7 1-1.2 1.6-2.7 1.6-4.7 0-1.9-0.6-3.3-1.6-4.3s-2.6-1.6-4.4-1.6h-2.1v0.1zm27.9 15.8h-11.5v-19.4h11.2v3.5h-6.7v4.3h6.2v3.5h-6.3v4.4h7.2v3.7zm15.2 0h-11.6v-19.4h4.3v15.7h7.1v3.6h0.2zm7.1-19.4v19.3h-4.3v-19.3h4.3zm20.7 0l-6.6 19.3h-5l-6.5-19.3h4.7l4.1 13.4c0.2 0.7 0.3 1.4 0.3 2 0.1-0.6 0.2-1.3 0.5-2l4-13.4h4.5zm18.7 19.4h-5l-3-5-0.7-1c-0.2-0.3-0.5-0.6-0.6-0.8-0.2-0.2-0.5-0.3-0.7-0.5-0.2-0.1-0.5-0.1-0.7-0.1h-1.2v7.3h-4.3v-19.3h6.9c4.7 0 7 1.7 7 5.2 0 0.7-0.1 1.3-0.3 1.9s-0.5 1-0.9 1.5c-0.3 0.5-0.8 0.8-1.4 1.2-0.6 0.3-1.2 0.6-1.7 0.8 0.2 0.1 0.6 0.2 0.8 0.5 0.2 0.2 0.6 0.5 0.8 0.7s0.5 0.6 0.7 0.8c0.2 0.3 0.5 0.6 0.6 0.9l3.7 5.9zm-11.9-16.1v5.4h1.9c0.9 0 1.6-0.2 2.2-0.8s0.8-1.3 0.8-2c0-1.6-1-2.6-3-2.6h-1.9z"/>
	<path class="st1" d="m65.6 20.3v-0.3l-5.6-19-5.3 19v19.3l5.3 19.4 5.6-19.3v-19.1z"/>
	<path class="st2" d="m60 1l-26.5 9.7 3.7 35.3 22.8 12.7"/>
	<path class="st1" d="m60 58.7l23-12.7 4.2-35.5-27.2-9.5"/>
	<path class="st3" d="m60 12.1c-0.9 0-1.9 0.1-2.8 0.3 0.2 1.9 0.7 3.8 1.5 5.6 0.2 0 0.3-0.1 0.5-0.1 0.3 0 0.6 0.1 0.8 0.1v-5.9zm-4.7 0.8c-6.7 2.1-11.2 8.4-11.2 15.5 0 0.4 0 0.8 0.1 1.2 1.8 2.5 3.9 4.1 6.3 4.9 0.3-0.6 0.9-1.1 1.6-1.3v-0.4c0.6-3.6 2.3-7.3 4.6-10.4-0.3-0.5-0.4-1-0.4-1.5 0-0.8 0.3-1.5 0.8-2-0.9-1.9-1.5-4-1.8-6zm3.8 6.4c-0.9 0-1.5 0.7-1.5 1.5 0 0.9 0.7 1.5 1.5 1.5 0.3 0 0.6-0.1 0.8-0.3v-2.5c-0.2-0.1-0.5-0.2-0.8-0.2zm-1 4.3c-2.1 2.9-3.6 6.3-4.2 9.5v0.2c0.8 0.3 1.4 1 1.6 1.9 1.5-0.1 3-0.3 4.5-0.8v-10.3c-0.1-0.1-0.2-0.2-0.3-0.4-0.2 0-0.4 0.1-0.6 0.1-0.3 0-0.7-0.1-1-0.2zm-13.3 9.6c1.6 5 5.4 8.9 10.4 10.6-1.5-1.5-2.5-3.3-3-5.3-1-0.2-1.8-1.1-2.1-2.1-1.9-0.7-3.7-1.7-5.3-3.2zm8 1.1c-0.8 0-1.4 0.6-1.4 1.4s0.6 1.4 1.4 1.4 1.4-0.6 1.4-1.4c0.1-0.8-0.6-1.4-1.4-1.4zm7.2 1.9c-1.6 0.4-3.1 0.7-4.7 0.7-0.3 0.5-0.7 0.9-1.2 1.2 0.5 1.9 1.6 3.6 3.1 4.9 0.4 0.4 1.3 0.8 2 1.2l0.6 0.3h0.1l0.1-8.3z"/>
	<path class="st4" d="m60.1 12.1h-0.1v5.9c0.1 0 0.2 0.1 0.3 0.1 2.2-2.1 4.4-3.7 6.2-4.7-2-0.8-4.2-1.3-6.4-1.3zm8.5 2.5c-1.8 0.9-4.3 2.5-6.9 4.9 0.2 0.4 0.4 0.9 0.4 1.4 0 0.7-0.3 1.4-0.7 1.9 0.7 0.9 1.4 1.9 2.2 2.7 1 1 2.1 2 3.2 2.8 0.5-0.4 1.2-0.6 1.8-0.7 0.6 0 1.1 0.2 1.5 0.4 2-2 3.6-4.3 4.5-6.6-1.3-2.7-3.4-5.2-6-6.8zm-8.6 5v2.5c0.4-0.3 0.7-0.7 0.7-1.3 0-0.4-0.3-0.9-0.7-1.2zm15.6 4.4c-1 2-2.5 3.8-4.2 5.5 0.2 0.5 0.3 1.1 0.2 1.7 1.3 0.6 2.7 1.1 4 1.5 0.4-1.5 0.6-3 0.6-4.5-0.1-1.3-0.3-2.8-0.6-4.2zm-15.6 0.1v10.2c0.2-0.1 0.4-0.1 0.6-0.2 1.8-0.6 3.5-1.5 5.1-2.5-0.1-0.3-0.2-0.6-0.2-0.9s0.1-0.6 0.1-0.8c-1.2-0.9-2.4-1.9-3.5-3.1-0.7-0.9-1.4-1.8-2.1-2.7zm8.6 5c-0.9 0-1.6 0.7-1.6 1.6s0.7 1.6 1.6 1.6 1.6-0.7 1.6-1.6c-0.1-0.9-0.8-1.6-1.6-1.6zm2 3.8c-0.5 0.5-1.3 0.8-2 0.8-0.6 0-1.2-0.2-1.7-0.6-1.8 1.1-3.7 2-5.6 2.7-0.4 0.1-0.8 0.3-1.2 0.4v8.3h0.2c6.5 0 12.3-3.9 14.8-10-1.7-0.4-3.1-0.9-4.5-1.6z"/>
</svg>
