<?xml version="1.0" encoding="utf-8"?>
<svg viewBox="0 0 120 94" width="120" height="94" xmlns="http://www.w3.org/2000/svg">
	<style type="text/css">
		.st0{fill:#1D3A45;}
		.st1{fill:#BC473A;}
		.st2{fill:#E84D3D;}
		.st3{fill:#FDC72E;}
		.st4{fill:#E09B00;}
	</style>
	<path class="st0" d="M7.4,86.6c0,4.6-1.6,7-4.9,7c-0.5,0-0.9-0.1-1.5-0.2v-1.3c0.5,0.2,1,0.3,1.5,0.3c1.3,0,2.1-0.5,2.7-1.5 C5.8,90,6,88.5,6,86.5V74h1.4V86.6z M11.4,92.5V91c1.4,0.9,2.8,1.4,4.2,1.4c1.5,0,2.7-0.3,3.4-0.9c0.8-0.6,1.2-1.5,1.2-2.7 c0-0.9-0.3-1.7-0.8-2.3s-1.6-1.4-3.4-2.4c-2-1.2-3.3-2.1-3.7-2.9c-0.5-0.8-0.8-1.6-0.8-2.7c0-1.4,0.5-2.6,1.5-3.5s2.6-1.5,4.3-1.5 c1.2,0,2.3,0.2,3.5,0.6v1.4c-1.2-0.5-2.3-0.8-3.6-0.8c-1.4,0-2.3,0.3-3.1,0.9c-0.8,0.7-1.2,1.5-1.2,2.6c0,0.9,0.3,1.7,0.8,2.3 s1.6,1.4,3.4,2.4c1.9,1,3,2,3.6,2.7c0.6,0.8,0.9,1.7,0.9,2.7c0,1.5-0.4,2.9-1.5,3.8c-1,0.8-1.9,1.6-4.4,1.5c-1.4,0-3.6-0.6-2.8-0.5 C12.8,93.1,12,93,11.4,92.5z M25.4,93.2V74h6.8c6.8,0,10.2,3.1,10.2,9.4c0,3-0.9,5.5-2.8,7.2c-1.9,1.9-4.4,2.8-7.4,2.8h-6.8 C25.4,93.4,25.4,93.2,25.4,93.2z M29.7,77.6v12.2h2.1c1.9,0,3.4-0.6,4.4-1.6c1-1.2,1.6-2.7,1.6-4.6s-0.5-3.3-1.5-4.3 s-2.6-1.5-4.4-1.5C31.9,77.7,29.7,77.6,29.7,77.6z M57.5,93.2H45.9V74H57v3.6h-6.7v4.3h6.3v3.5h-6.3v4.4h7.3v3.5 C57.6,93.3,57.5,93.2,57.5,93.2z M72.7,93.2H61.3V74h4.4v15.8h7.2v3.5h-0.2V93.2z M79.8,74v19.4h-4.4V74H79.8z M100.5,74l-6.6,19.4 h-5L82.3,74h4.6L91,87.4c0.2,0.8,0.3,1.4,0.3,2h0.1c0.1-0.6,0.2-1.3,0.3-2L95.6,74C95.7,74.1,100.5,74,100.5,74z M119.3,93.2h-5 l-3-5c-0.2-0.3-0.5-0.7-0.7-0.9c-0.2-0.3-0.3-0.6-0.6-0.8c-0.2-0.2-0.3-0.3-0.7-0.5c-0.2-0.1-0.5-0.2-0.8-0.2h-1.2v7.3H103V74h6.8 c4.6,0,7.1,1.7,7.1,5.2c0,0.7-0.1,1.3-0.3,1.9s-0.5,1-0.9,1.5c-0.3,0.5-0.8,0.9-1.4,1.2c-0.6,0.2-1.2,0.6-1.7,0.8v0.1 c0.3,0.1,0.6,0.2,0.9,0.5c0.3,0.2,0.5,0.5,0.8,0.7c0.3,0.3,0.5,0.6,0.7,0.9c0.2,0.2,0.5,0.6,0.6,0.9L119.3,93.2z M107.5,77.2v5.3 h1.9c0.9,0,1.6-0.2,2.2-0.8s0.9-1.3,0.9-2.1c0-1.6-0.9-2.6-3-2.6h-2V77.2z"/>
	<path class="st1" d="M65.668,39.37V20.041L60.042,1l-5.337,19.041V39.37l5.337,19.33L65.668,39.37z"/>
	<path class="st2" d="M60.042,1L33.5,10.665l3.75,35.341L60.042,58.7"/>
	<path class="st1" d="M60.042,58.7l23.08-12.694l4.183-35.486L60.042,1"/>
	<g>
		<path class="st3" d="M60.042,12.117c-0.945,0.013-1.887,0.111-2.814,0.293c0.245,1.944,0.747,3.811,1.481,5.572 c0.164-0.029,0.33-0.05,0.502-0.05c0.29,0,0.565,0.055,0.831,0.136C60.042,18.068,60.042,12.117,60.042,12.117z M55.407,12.862 c-6.689,2.116-11.245,8.384-11.25,15.478c0.005,0.414,0.026,0.827,0.062,1.239c1.757,2.533,3.912,4.061,6.286,4.861 c0.339-0.616,0.9-1.082,1.58-1.298c0.016-0.133,0.023-0.265,0.046-0.4c0.597-3.624,2.328-7.251,4.583-10.364 c-0.283-0.454-0.433-0.978-0.436-1.513c0-0.765,0.306-1.46,0.79-1.983c-0.82-1.924-1.379-3.949-1.662-6.021V12.862z M59.211,19.333 c-0.855,0-1.533,0.678-1.533,1.532c0,0.855,0.678,1.533,1.533,1.533c0.314,0,0.589-0.115,0.831-0.274v-2.519 c-0.244-0.172-0.533-0.267-0.831-0.274V19.333z M58.151,23.59c-2.066,2.895-3.641,6.255-4.169,9.458 c-0.01,0.058-0.012,0.115-0.02,0.173c0.782,0.333,1.37,1.024,1.584,1.861c1.526-0.08,3.036-0.348,4.496-0.798v-10.19 c-0.088-0.121-0.183-0.234-0.27-0.355c-0.543,0.106-1.105,0.054-1.62-0.15H58.151z M44.899,33.197 c1.563,5.01,5.425,8.944,10.364,10.558c-1.477-1.466-2.511-3.318-2.983-5.344c-1.032-0.243-1.833-1.056-2.06-2.092 c-1.986-0.627-3.806-1.694-5.323-3.122H44.899z M52.897,34.316c-0.785-0.006-1.425,0.626-1.431,1.411c0,0.007,0,0.014,0,0.02 c0,0.799,0.632,1.431,1.431,1.431c0.798,0,1.431-0.632,1.431-1.431C54.328,34.948,53.695,34.316,52.897,34.316z M60.042,36.24 c-1.558,0.428-3.139,0.685-4.711,0.736c-0.26,0.509-0.668,0.923-1.174,1.189c0.48,1.922,1.573,3.635,3.113,4.881 c0.431,0.356,1.284,0.831,2.034,1.203c0.237,0.118,0.43,0.209,0.638,0.307c0.034,0.001,0.067,0.002,0.101,0.003V36.24z"/>
		<path class="st4" d="M60.192,12.112c-0.05,0.002-0.1,0.004-0.15,0.006v5.95c0.111,0.033,0.225,0.061,0.33,0.107 c2.193-2.126,4.377-3.658,6.229-4.688C64.581,12.586,62.399,12.118,60.192,12.112z M68.647,14.565 c-1.806,0.876-4.338,2.467-6.881,4.89c0.235,0.421,0.379,0.899,0.379,1.409c0,0.74-0.289,1.411-0.744,1.927 c0.684,0.946,1.414,1.859,2.214,2.702c0.981,1.034,2.057,1.956,3.169,2.81c0.525-0.418,1.175-0.648,1.846-0.652 c0.567,0,1.093,0.167,1.549,0.443c2.028-2.007,3.642-4.264,4.55-6.556C73.418,18.663,71.303,16.239,68.647,14.565z M60.043,19.605 v2.519c0.433-0.273,0.698-0.747,0.701-1.259c-0.004-0.512-0.269-0.987-0.702-1.259L60.043,19.605z M75.635,24.045 c-1.047,1.976-2.481,3.849-4.196,5.528c0.219,0.544,0.273,1.14,0.156,1.714c1.33,0.642,2.676,1.145,4.006,1.515 c0.412-1.451,0.621-2.952,0.623-4.462c-0.006-1.452-0.204-2.896-0.59-4.294H75.635z M60.042,24.094v10.19 c0.211-0.063,0.42-0.118,0.629-0.188c1.766-0.6,3.476-1.476,5.092-2.506c-0.1-0.294-0.154-0.602-0.159-0.913 c0-0.286,0.053-0.56,0.13-0.822c-1.239-0.93-2.401-1.957-3.476-3.073C61.463,25.935,60.723,25.037,60.042,24.094z M68.631,29.097 c-0.883,0-1.581,0.7-1.581,1.581c0,0.881,0.698,1.581,1.581,1.581c0.88,0,1.58-0.7,1.58-1.581 C70.21,29.797,69.512,29.097,68.631,29.097z M70.641,32.918c-0.55,0.502-1.266,0.783-2.011,0.786c-0.642,0-1.236-0.208-1.728-0.552 c-1.763,1.124-3.652,2.037-5.629,2.719c-0.407,0.138-0.819,0.255-1.232,0.369v8.319c0.05,0.003,0.1,0.006,0.15,0.009 c6.468-0.008,12.298-3.949,14.783-9.994C73.484,34.153,72.034,33.598,70.641,32.918z"/>
	</g>
</svg>
