<?xml version="1.0" encoding="utf-8"?>
<!-- Generator: Adobe Illustrator 22.0.1, SVG Export Plug-In . SVG Version: 6.00 Build 0)  -->
<svg version="1.1" id="Layer_1" xmlns="http://www.w3.org/2000/svg" xmlns:xlink="http://www.w3.org/1999/xlink" x="0px" y="0px"
	 viewBox="0 0 120 100" style="enable-background:new 0 0 120 100;" xml:space="preserve">
<style type="text/css">
	.st0{fill:#BC473A;}
	.st1{fill:#1D3A45;}
	.st2{fill:#E84D3D;}
	.st3{fill:#FDC72E;}
	.st4{fill:#E09B00;}
</style>
<g>
	<polygon class="st0" points="59.7,10 54.9,26.4 54.9,26.6 54.9,43 59.7,59.6 59.7,59.6 64.6,43 64.6,26.6 64.6,26.4 59.7,10 	"/>
	<g>
		<g>
			<path class="st1" d="M14.6,84c0,4-1.4,6-4.2,6c-0.4,0-0.9-0.1-1.3-0.2v-1.1c0.5,0.2,0.9,0.2,1.3,0.2c1.1,0,1.8-0.4,2.3-1.2
				c0.5-0.8,0.7-2.1,0.7-3.8V73.1h1.1V84z"/>
			<path class="st1" d="M18.1,89.1v-1.3c1.2,0.8,2.4,1.1,3.6,1.1c1.3,0,2.3-0.3,2.9-0.8c0.7-0.5,1-1.3,1-2.2c0-0.8-0.2-1.5-0.7-2
				c-0.5-0.5-1.4-1.2-2.9-2.1c-1.7-1-2.7-1.8-3.2-2.5c-0.4-0.7-0.7-1.4-0.7-2.3c0-1.2,0.5-2.2,1.4-3c0.9-0.8,2.1-1.2,3.6-1.2
				c1,0,2,0.2,3,0.5v1.2c-1-0.4-2-0.7-3.1-0.7c-1.1,0-2,0.3-2.7,0.9c-0.7,0.6-1,1.3-1,2.2c0,0.8,0.2,1.5,0.7,2
				c0.5,0.5,1.4,1.2,2.9,2c1.5,0.9,2.6,1.7,3.1,2.3c0.5,0.7,0.8,1.5,0.8,2.4c0,1.3-0.4,2.3-1.3,3.1c-0.9,0.8-2.1,1.2-3.7,1.2
				c-0.6,0-1.2-0.1-2-0.3C19,89.6,18.4,89.4,18.1,89.1z"/>
			<path class="st1" d="M30.1,89.7V73.1h5.9c5.9,0,8.8,2.7,8.8,8.1c0,2.6-0.8,4.6-2.4,6.2c-1.6,1.5-3.7,2.3-6.4,2.3H30.1z
				 M33.8,76.2v10.5h1.8c1.6,0,2.9-0.5,3.8-1.5c0.9-1,1.4-2.3,1.4-4c0-1.6-0.5-2.8-1.4-3.7c-0.9-0.9-2.2-1.4-3.8-1.4H33.8z"/>
			<path class="st1" d="M57.8,89.7h-9.9V73.1h9.6v3h-5.8v3.7H57v3h-5.4v3.8h6.2V89.7z"/>
			<path class="st1" d="M70.8,89.7h-9.9V73.1h3.7v13.5h6.1V89.7z"/>
			<path class="st1" d="M76.9,73.1v16.6h-3.7V73.1H76.9z"/>
			<path class="st1" d="M94.7,73.1L89,89.7h-4.2l-5.6-16.6h4l3.5,11.5c0.2,0.6,0.3,1.2,0.3,1.7H87c0.1-0.5,0.2-1.1,0.4-1.7l3.4-11.5
				H94.7z"/>
			<path class="st1" d="M110.8,89.7h-4.3l-2.6-4.3c-0.2-0.3-0.4-0.6-0.6-0.9c-0.2-0.3-0.4-0.5-0.5-0.7c-0.2-0.2-0.4-0.3-0.6-0.4
				c-0.2-0.1-0.4-0.1-0.6-0.1h-1v6.3h-3.7V73.1h5.9c4,0,6,1.5,6,4.5c0,0.6-0.1,1.1-0.3,1.6c-0.2,0.5-0.4,0.9-0.8,1.3
				c-0.3,0.4-0.7,0.7-1.2,1c-0.5,0.3-1,0.5-1.5,0.7v0c0.2,0.1,0.5,0.2,0.7,0.4c0.2,0.2,0.5,0.4,0.7,0.6c0.2,0.2,0.4,0.5,0.6,0.7
				c0.2,0.3,0.4,0.5,0.5,0.8L110.8,89.7z M100.6,75.9v4.6h1.6c0.8,0,1.4-0.2,1.9-0.7c0.5-0.5,0.7-1.1,0.7-1.7c0-1.4-0.9-2.2-2.6-2.2
				H100.6z"/>
		</g>
	</g>
	<g>
		<g>
			<polyline class="st2" points="59.7,10 36.8,18.3 40.1,48.8 59.7,59.6 			"/>
			<polyline class="st0" points="59.7,59.6 79.5,48.7 83.2,18.1 59.7,10 			"/>
		</g>
		<g>
			<path class="st3" d="M55.6,46.9c-2.3-0.7-4.3-2-5.9-3.6c0,0,0,0,0,0c-0.2-0.2-0.4-0.4-0.6-0.6c-1.2-1.5-2.2-3.2-2.8-5.1
				c0.4,0.3,0.8,0.7,1.2,1l0,0c0,0,0,0,0,0c0,0,0,0,0,0c0.6,0.4,1.2,0.8,1.9,1.1c0.2,0.1,0.4,0.2,0.6,0.3c0.3,0.1,0.5,0.2,0.8,0.3
				c0,0,0,0,0.1,0c0,0,0.1,0,0.1,0c0.1,1.1,1,2,2.1,2.2C53.6,44.2,54.4,45.7,55.6,46.9z"/>
			<path class="st3" d="M56.4,27.1c0,0.5,0.1,0.9,0.4,1.3c-1.9,2.6-3.1,5.4-3.7,8.2c-0.1,0.3-0.1,0.6-0.2,0.9
				c-0.6,0.2-1.2,0.6-1.5,1.1c0,0,0,0-0.1,0c0,0-0.1,0-0.1,0c-0.2-0.1-0.4-0.1-0.6-0.2c-0.3-0.1-0.6-0.3-0.9-0.4
				c-1-0.5-1.9-1.1-2.7-1.9c-0.2-0.2-0.3-0.3-0.5-0.5l-0.1-0.1c-0.1-0.1-0.1-0.1-0.2-0.2c0,0,0-0.1-0.1-0.1c0,0,0,0-0.1-0.1
				c0,0,0,0,0,0c0,0-0.1-0.1-0.1-0.1c0,0,0,0,0,0c0,0,0,0,0,0c0,0,0,0-0.1-0.1c-0.1-0.1-0.2-0.2-0.2-0.3c0,0,0,0,0-0.1c0,0,0,0,0,0
				c0-0.3,0-0.6,0-0.9c0-2.8,0.8-5.4,2.3-7.6c0.2-0.3,0.3-0.5,0.5-0.8c0.2-0.2,0.4-0.5,0.6-0.7c1.7-2,3.9-3.4,6.4-4.2
				c0,0.3,0.1,0.5,0.1,0.8c0.3,1.4,0.8,2.9,1.4,4.3C56.7,25.8,56.4,26.4,56.4,27.1z"/>
			<path class="st3" d="M54.9,40c0,0.3-0.1,0.6-0.3,0.9c0,0.1-0.1,0.1-0.1,0.1c-0.2,0.2-0.5,0.3-0.9,0.3c-0.3,0-0.5-0.1-0.7-0.2
				c-0.2-0.1-0.4-0.3-0.5-0.6c-0.1-0.2-0.1-0.4-0.1-0.6c0-0.4,0.2-0.7,0.4-1c0,0,0.1-0.1,0.1-0.1c0.2-0.2,0.5-0.3,0.8-0.3
				c0.3,0,0.6,0.1,0.8,0.3c0.1,0.1,0.2,0.2,0.3,0.3C54.9,39.5,54.9,39.7,54.9,40z"/>
			<path class="st3" d="M60.3,27.1c0,0.2-0.1,0.4-0.1,0.6c-0.2,0.4-0.7,0.7-1.2,0.7c-0.1,0-0.1,0-0.2,0c0,0,0,0,0,0
				c-0.6-0.1-1-0.5-1.1-1.1c0-0.1,0-0.1,0-0.2c0-0.2,0-0.3,0.1-0.4c0.2-0.5,0.7-0.9,1.3-0.9h0c0,0,0,0,0.1,0c0.6,0,1.1,0.4,1.2,1
				C60.3,26.8,60.3,26.9,60.3,27.1z"/>
			<path class="st4" d="M73.7,33.5c0,1.3-0.2,2.7-0.5,3.9c-1.2-0.3-2.4-0.8-3.6-1.4c0-0.2,0-0.3,0-0.5c0-0.3-0.1-0.7-0.2-0.9
				c0,0,0.1-0.1,0.1-0.1c1.4-1.5,2.6-3.1,3.6-4.8C73.5,30.9,73.7,32.2,73.7,33.5z"/>
			<path class="st4" d="M72.4,27.7c-0.1,0.2-0.2,0.4-0.3,0.6c-0.9,1.8-2.2,3.5-3.7,5.1c0,0,0,0,0,0C68,33.2,67.5,33,67.1,33
				c-0.6,0-1.1,0.2-1.5,0.5c-0.8-0.6-1.5-1.3-2.2-2c-0.9-0.9-1.7-1.9-2.5-2.8c0.4-0.4,0.6-1,0.6-1.6c0-0.5-0.1-0.9-0.4-1.3
				c1.8-1.7,3.8-3.1,5.8-4.2C69.3,23.1,71.2,25.2,72.4,27.7z"/>
			<path class="st4" d="M68.4,35.6c0,0.6-0.3,1-0.8,1.2c-0.2,0.1-0.3,0.1-0.5,0.1c-0.1,0-0.2,0-0.3,0c-0.6-0.1-1-0.6-1.1-1.2
				c0,0,0,0,0,0c0,0,0,0,0,0c0,0,0,0,0-0.1c0-0.6,0.4-1.1,0.9-1.3c0.1-0.1,0.3-0.1,0.5-0.1c0.1,0,0.3,0,0.4,0.1
				c0.5,0.2,0.9,0.6,1,1.2C68.4,35.5,68.4,35.5,68.4,35.6z"/>
			<path class="st4" d="M68.8,37.4c-0.4,0.4-1,0.7-1.7,0.7c-0.5,0-1-0.2-1.4-0.4c-0.1,0-0.1,0.1-0.2,0.1c-1.8,1.2-3.8,2-5.8,2.5v7.2
				c5.8,0,10.8-3.5,12.9-8.6C71.3,38.6,70,38.1,68.8,37.4z"/>
			<path class="st3" d="M59.7,40.3c-1.2,0.3-2.4,0.5-3.6,0.5c-0.1,0-0.1,0-0.2,0c-0.2,0.6-0.7,1.1-1.2,1.4c0.4,1.4,1,2.5,2,3.5
				c0.8,0.8,1.7,1.4,2.8,1.8c0.1,0,0.1,0,0.2,0V40.3z"/>
			<path class="st4" d="M64.5,35.6c0-0.3,0-0.5,0.1-0.7c-0.8-0.7-1.6-1.4-2.4-2.1c-0.9-0.9-1.7-1.9-2.5-2.9v8.9
				c1.7-0.5,3.3-1.2,4.9-2.2c0,0,0,0,0,0C64.6,36.1,64.5,35.9,64.5,35.6z"/>
			<path class="st3" d="M59.7,29.8c-0.1-0.1-0.1-0.2-0.2-0.3c-0.2,0-0.4,0.1-0.6,0.1c-0.3,0-0.7-0.1-0.9-0.2c-1.7,2.4-2.8,5-3.3,7.5
				c0,0.2-0.1,0.5-0.1,0.7c0.7,0.3,1.3,0.9,1.5,1.6c0,0,0,0,0.1,0c1.2-0.1,2.4-0.3,3.6-0.6V29.8z"/>
			<path class="st4" d="M59.7,19.6v5.1c0.1,0,0.1,0,0.2,0.1c1.6-1.6,3.4-2.9,5.3-4C63.6,20,61.7,19.6,59.7,19.6z"/>
			<path class="st3" d="M59.7,19.6c-0.9,0-1.8,0.1-2.6,0.2c0,0.3,0.1,0.6,0.2,0.9c0.3,1.3,0.7,2.6,1.2,3.8c0.2,0,0.3,0,0.5,0
				c0.3,0,0.5,0,0.8,0.1V19.6z"/>
		</g>
	</g>
</g>
</svg>
