<?xml version="1.0" encoding="utf-8"?>
<svg viewBox="0 0 180 50" xmlns="http://www.w3.org/2000/svg">
	<path fill="#1d3a45" d="M58.3 28.1c0 4.8-1.7 7.2-5 7.2-.5 0-1-.1-1.5-.2v-1.3c.5.2 1.1.3 1.5.3 1.3 0 2.2-.5 2.8-1.5s.8-2.5.8-4.5V15h1.4zM62.5 34.2v-1.6c1.4.9 2.9 1.4 4.3 1.4 1.6 0 2.7-.3 3.5-1 .8-.6 1.2-1.5 1.2-2.7 0-1-.3-1.8-.8-2.4s-1.7-1.4-3.5-2.5c-2-1.2-3.3-2.2-3.8-3s-.8-1.7-.8-2.7c0-1.4.5-2.6 1.6-3.6s2.6-1.5 4.4-1.5c1.2 0 2.4.2 3.6.6v1.4c-1.2-.5-2.4-.8-3.7-.8-1.4 0-2.4.3-3.2 1s-1.2 1.6-1.2 2.6.3 1.8.8 2.4 1.7 1.4 3.5 2.5c1.9 1.1 3.1 2 3.7 2.8s.9 1.8.9 2.8c0 1.5-.5 2.8-1.6 3.7-1.1 1-2.6 1.4-4.5 1.4-.7 0-1.5-.1-2.4-.3-.9.1-1.6-.2-2-.5zM76.9 35V15H84c7.1 0 10.6 3.2 10.6 9.7 0 3.1-1 5.6-2.9 7.4C89.8 34 87.2 35 84 35zm4.5-16.3v12.6h2.2c1.9 0 3.5-.6 4.6-1.7 1.1-1.2 1.7-2.8 1.7-4.8 0-1.9-.5-3.4-1.6-4.5s-2.6-1.6-4.6-1.6zM110.2 35h-12V15h11.5v3.7h-7v4.4h6.5v3.6h-6.5v4.6h7.5zM125.9 35H114V15h4.5v16.3h7.4zM133.2 15v20h-4.5V15zM154.6 15l-6.8 20h-5.1l-6.8-20h4.8l4.2 13.9c.2.8.4 1.4.4 2h.1c.1-.6.2-1.3.4-2l4.1-13.8h4.7zM174 35h-5.2l-3.1-5.1c-.2-.4-.5-.7-.7-1s-.4-.6-.6-.8-.4-.4-.7-.5c-.2-.1-.5-.2-.8-.2h-1.2V35h-4.5V15h7.1c4.8 0 7.3 1.8 7.3 5.4 0 .7-.1 1.3-.3 1.9s-.5 1.1-.9 1.6-.9.9-1.4 1.2c-.6.3-1.2.6-1.8.8v.1c.3.1.6.2.9.5.3.2.5.5.8.7.3.3.5.6.7.9s.5.6.6.9zm-12.2-16.6v5.5h1.9c1 0 1.7-.3 2.3-.8.6-.6.9-1.3.9-2.1 0-1.7-1-2.6-3.1-2.6z"/>
	<path fill="#bc473a" d="M28.3 31.6V18.2L24.4 5l-3.7 13.2V31.6L24.4 45z"/>
	<path fill="#e84d3d" d="M24.4 5L6 11.7l2.6 24.5L24.4 45"/>
	<path fill="#bc473a" d="M24.4 45l16-8.8 2.9-24.6L24.4 5"/>
	<g stroke-width="1.24">
		<path fill="#fdc72e" paint-order="stroke fill markers" d="M24.4 12.707a11.114 11.25 0 0 0-1.951.203c.17 1.348.518 2.642 1.027 3.863.114-.02.229-.035.348-.035.201 0 .392.038.576.094v-4.125zm-3.213.516a11.114 11.25 0 0 0-7.799 10.73 11.114 11.25 0 0 0 .043.859c1.218 1.756 2.712 2.815 4.358 3.37.235-.427.624-.75 1.095-.9.011-.092.016-.184.032-.277.414-2.512 1.614-5.027 3.177-7.185a2.003 2.003 0 0 1-.302-1.049c0-.53.212-1.012.548-1.375a16.272 16.272 0 0 1-1.152-4.174zm2.637 4.486c-.593 0-1.063.47-1.063 1.062 0 .593.47 1.063 1.063 1.063.218 0 .408-.08.576-.19v-1.746a1.04 1.04 0 0 0-.576-.19zm-.735 2.951c-1.432 2.007-2.524 4.336-2.89 6.557-.007.04-.008.08-.014.12.542.231.95.71 1.098 1.29a12.892 12.892 0 0 0 3.117-.553V21.01c-.061-.084-.127-.162-.187-.246a2.008 2.008 0 0 1-1.123-.104zm-9.187 6.66a11.114 11.25 0 0 0 7.185 7.319 7.67 7.67 0 0 1-2.068-3.705 1.91 1.91 0 0 1-1.428-1.45 9.602 9.602 0 0 1-3.69-2.164zm5.545.776a.985.985 0 0 0-.992.992c0 .554.438.992.992.992.553 0 .992-.438.992-.992s-.439-.992-.992-.992zM24.4 29.43c-1.08.297-2.176.475-3.266.51-.18.353-.463.64-.814.824a6.327 6.327 0 0 0 2.158 3.384c.299.247.89.576 1.41.834.164.082.298.145.442.213a11.114 11.25 0 0 0 .07.002V29.43z"/>
		<path fill="#e09b00" paint-order="stroke fill markers" d="M24.504 12.703a11.114 11.25 0 0 0-.104.004v4.125c.077.023.156.042.229.074 1.52-1.474 3.034-2.536 4.318-3.25a11.114 11.25 0 0 0-4.443-.953zm5.861 1.701c-1.252.607-3.007 1.71-4.77 3.39.163.292.263.623.263.977 0 .513-.2.978-.516 1.336.474.656.98 1.289 1.535 1.873.68.717 1.426 1.356 2.197 1.948a2.072 2.072 0 0 1 1.28-.452c.393 0 .758.116 1.074.307 1.406-1.391 2.525-2.956 3.154-4.545a11.114 11.25 0 0 0-4.217-4.834zm-5.964 3.494v1.746a1.04 1.04 0 0 0 .486-.873 1.04 1.04 0 0 0-.487-.873zm10.809 3.078c-.726 1.37-1.72 2.668-2.909 3.832a2.071 2.071 0 0 1 .108 1.188c.922.445 1.855.794 2.777 1.05a11.114 11.25 0 0 0 .432-3.093 11.114 11.25 0 0 0-.409-2.977zm-10.81.034v7.064c.146-.044.291-.082.436-.13 1.224-.416 2.41-1.023 3.53-1.737a2.06 2.06 0 0 1-.11-.633c0-.198.037-.388.09-.57a20.171 20.171 0 0 1-2.41-2.13A19.063 19.063 0 0 1 24.4 21.01zm5.954 3.468c-.612 0-1.096.485-1.096 1.096 0 .611.484 1.096 1.096 1.096.61 0 1.095-.485 1.095-1.096 0-.611-.484-1.096-1.095-1.096zm1.394 2.649a2.08 2.08 0 0 1-1.394.545c-.445 0-.857-.144-1.198-.383a18.471 18.471 0 0 1-3.902 1.885c-.282.096-.568.177-.854.256v5.767a11.114 11.25 0 0 0 .104.006 11.114 11.25 0 0 0 10.248-6.928 17.984 17.984 0 0 1-3.004-1.148z"/>
	</g>
</svg>
