<?xml version="1.0" encoding="utf-8"?>
<!-- Generator: Adobe Illustrator 22.0.1, SVG Export Plug-In . SVG Version: 6.00 Build 0)  -->
<svg version="1.1" id="Layer_1" xmlns="http://www.w3.org/2000/svg" xmlns:xlink="http://www.w3.org/1999/xlink" x="0px" y="0px"
	 viewBox="0 0 180 50" style="enable-background:new 0 0 180 50;" xml:space="preserve">
<style type="text/css">
	.st0{fill:#1D3A45;}
	.st1{fill:#BC473A;}
	.st2{fill:#E84D3D;}
	.st3{fill:#FDC72E;}
	.st4{fill:#E09B00;}
</style>
<g>
	<g>
		<g>
			<path class="st0" d="M58.3,28.1c0,4.8-1.7,7.2-5,7.2c-0.5,0-1-0.1-1.5-0.2v-1.3c0.5,0.2,1.1,0.3,1.5,0.3c1.3,0,2.2-0.5,2.8-1.5
				c0.6-1,0.8-2.5,0.8-4.5V15h1.4V28.1z"/>
			<path class="st0" d="M62.5,34.2v-1.6c1.4,0.9,2.9,1.4,4.3,1.4c1.6,0,2.7-0.3,3.5-1c0.8-0.6,1.2-1.5,1.2-2.7c0-1-0.3-1.8-0.8-2.4
				c-0.5-0.6-1.7-1.4-3.5-2.5c-2-1.2-3.3-2.2-3.8-3c-0.5-0.8-0.8-1.7-0.8-2.7c0-1.4,0.5-2.6,1.6-3.6c1.1-1,2.6-1.5,4.4-1.5
				c1.2,0,2.4,0.2,3.6,0.6v1.4c-1.2-0.5-2.4-0.8-3.7-0.8c-1.4,0-2.4,0.3-3.2,1c-0.8,0.7-1.2,1.6-1.2,2.6c0,1,0.3,1.8,0.8,2.4
				c0.5,0.6,1.7,1.4,3.5,2.5c1.9,1.1,3.1,2,3.7,2.8c0.6,0.8,0.9,1.8,0.9,2.8c0,1.5-0.5,2.8-1.6,3.7c-1.1,1-2.6,1.4-4.5,1.4
				c-0.7,0-1.5-0.1-2.4-0.3C63.6,34.8,62.9,34.5,62.5,34.2z"/>
			<path class="st0" d="M76.9,35V15H84c7.1,0,10.6,3.2,10.6,9.7c0,3.1-1,5.6-2.9,7.4C89.8,34,87.2,35,84,35H76.9z M81.4,18.7v12.6
				h2.2c1.9,0,3.5-0.6,4.6-1.7c1.1-1.2,1.7-2.8,1.7-4.8c0-1.9-0.5-3.4-1.6-4.5c-1.1-1.1-2.6-1.6-4.6-1.6H81.4z"/>
			<path class="st0" d="M110.2,35h-12V15h11.5v3.7h-7v4.4h6.5v3.6h-6.5v4.6h7.5V35z"/>
			<path class="st0" d="M125.9,35H114V15h4.5v16.3h7.4V35z"/>
			<path class="st0" d="M133.2,15V35h-4.5V15H133.2z"/>
			<path class="st0" d="M154.6,15L147.8,35h-5.1L135.9,15h4.8l4.2,13.9c0.2,0.8,0.4,1.4,0.4,2h0.1c0.1-0.6,0.2-1.3,0.4-2l4.1-13.8
				H154.6z"/>
			<path class="st0" d="M174,35h-5.2l-3.1-5.1c-0.2-0.4-0.5-0.7-0.7-1c-0.2-0.3-0.4-0.6-0.6-0.8c-0.2-0.2-0.4-0.4-0.7-0.5
				c-0.2-0.1-0.5-0.2-0.8-0.2h-1.2V35h-4.5V15h7.1c4.8,0,7.3,1.8,7.3,5.4c0,0.7-0.1,1.3-0.3,1.9c-0.2,0.6-0.5,1.1-0.9,1.6
				c-0.4,0.5-0.9,0.9-1.4,1.2c-0.6,0.3-1.2,0.6-1.8,0.8V26c0.3,0.1,0.6,0.2,0.9,0.5c0.3,0.2,0.5,0.5,0.8,0.7
				c0.3,0.3,0.5,0.6,0.7,0.9c0.2,0.3,0.5,0.6,0.6,0.9L174,35z M161.8,18.4v5.5h1.9c1,0,1.7-0.3,2.3-0.8c0.6-0.6,0.9-1.3,0.9-2.1
				c0-1.7-1-2.6-3.1-2.6H161.8z"/>
		</g>
	</g>
	<g>
		<polygon class="st1" points="24.4,5 20.7,18.2 20.7,18.4 20.7,31.6 24.4,45 24.4,45 28.3,31.6 28.3,18.4 28.3,18.2 24.4,5 		"/>
		<g>
			<g>
				<polyline class="st2" points="24.4,5 6,11.7 8.6,36.2 24.4,45 				"/>
				<polyline class="st1" points="24.4,45 40.4,36.2 43.3,11.6 24.4,5 				"/>
			</g>
			<g>
				<path class="st3" d="M21.1,34.7c-1.8-0.6-3.4-1.6-4.7-2.9l0,0c-0.2-0.2-0.3-0.3-0.5-0.5c-1-1.2-1.8-2.6-2.2-4.1
					c0.3,0.3,0.6,0.5,1,0.8l0,0c0,0,0,0,0,0c0,0,0,0,0,0c0.5,0.3,1,0.6,1.5,0.9c0.2,0.1,0.3,0.2,0.5,0.2c0.2,0.1,0.4,0.2,0.7,0.2
					c0,0,0,0,0,0c0,0,0.1,0,0.1,0c0.1,0.9,0.8,1.6,1.7,1.8C19.5,32.6,20.1,33.8,21.1,34.7z"/>
				<path class="st3" d="M21.8,18.8c0,0.4,0.1,0.8,0.3,1.1c-1.5,2.1-2.5,4.4-3,6.6c0,0.3-0.1,0.5-0.1,0.7c-0.5,0.1-0.9,0.5-1.2,0.9
					c0,0,0,0,0,0c0,0,0,0-0.1,0c-0.2-0.1-0.3-0.1-0.5-0.2c-0.2-0.1-0.5-0.2-0.7-0.3c-0.8-0.4-1.5-0.9-2.1-1.6
					c-0.1-0.1-0.3-0.3-0.4-0.4l-0.1-0.1c0-0.1-0.1-0.1-0.1-0.2c0,0,0,0-0.1-0.1c0,0,0,0,0-0.1c0,0,0,0,0,0c0,0,0-0.1-0.1-0.1
					c0,0,0,0,0,0c0,0,0,0,0,0c0,0,0,0,0-0.1c-0.1-0.1-0.1-0.2-0.2-0.3c0,0,0,0,0,0c0,0,0,0,0,0c0-0.2,0-0.5,0-0.7
					c0-2.3,0.7-4.4,1.8-6.1c0.1-0.2,0.3-0.4,0.4-0.6c0.1-0.2,0.3-0.4,0.4-0.6c1.4-1.6,3.1-2.8,5.2-3.4c0,0.2,0.1,0.4,0.1,0.7
					c0.2,1.2,0.6,2.3,1.1,3.5C22,17.8,21.8,18.2,21.8,18.8z"/>
				<path class="st3" d="M20.6,29.2c0,0.3-0.1,0.5-0.3,0.7c0,0-0.1,0.1-0.1,0.1c-0.2,0.2-0.4,0.3-0.7,0.3c-0.2,0-0.4-0.1-0.6-0.2
					c-0.2-0.1-0.3-0.3-0.4-0.5c-0.1-0.1-0.1-0.3-0.1-0.5c0-0.3,0.1-0.6,0.3-0.8c0,0,0.1-0.1,0.1-0.1c0.2-0.1,0.4-0.2,0.6-0.2
					c0.2,0,0.5,0.1,0.7,0.2c0.1,0.1,0.2,0.2,0.3,0.3C20.5,28.8,20.6,29,20.6,29.2z"/>
				<path class="st3" d="M24.9,18.8c0,0.2,0,0.3-0.1,0.5c-0.2,0.4-0.5,0.6-1,0.6c-0.1,0-0.1,0-0.2,0c0,0,0,0,0,0
					c-0.5-0.1-0.8-0.4-0.9-0.9c0-0.1,0-0.1,0-0.2c0-0.1,0-0.2,0.1-0.4c0.1-0.4,0.6-0.7,1-0.7h0c0,0,0,0,0,0c0.5,0,0.9,0.3,1,0.8
					C24.9,18.5,24.9,18.6,24.9,18.8z"/>
				<path class="st4" d="M35.7,24c0,1.1-0.2,2.1-0.4,3.1c-1-0.3-1.9-0.6-2.9-1.1c0-0.1,0-0.3,0-0.4c0-0.3-0.1-0.5-0.2-0.8
					c0,0,0.1-0.1,0.1-0.1c1.1-1.2,2.1-2.5,2.9-3.9C35.5,21.9,35.7,22.9,35.7,24z"/>
				<path class="st4" d="M34.6,19.2c-0.1,0.2-0.2,0.3-0.2,0.5c-0.8,1.5-1.7,2.9-3,4.1c0,0,0,0,0,0c-0.3-0.2-0.7-0.3-1.1-0.3
					c-0.5,0-0.9,0.1-1.2,0.4c-0.6-0.5-1.2-1-1.8-1.6c-0.7-0.7-1.4-1.5-2-2.3c0.3-0.4,0.5-0.8,0.5-1.3c0-0.4-0.1-0.7-0.3-1
					c1.5-1.4,3.1-2.5,4.7-3.3C32.2,15.5,33.7,17.2,34.6,19.2z"/>
				<path class="st4" d="M31.4,25.6c0,0.5-0.3,0.8-0.7,1c-0.1,0.1-0.3,0.1-0.4,0.1c-0.1,0-0.2,0-0.2,0c-0.5-0.1-0.8-0.5-0.9-1
					c0,0,0,0,0,0c0,0,0,0,0,0c0,0,0,0,0,0c0-0.5,0.3-0.9,0.7-1c0.1,0,0.2-0.1,0.4-0.1c0.1,0,0.2,0,0.3,0
					C31.1,24.7,31.4,25.1,31.4,25.6C31.4,25.5,31.4,25.6,31.4,25.6z"/>
				<path class="st4" d="M31.7,27.1c-0.4,0.3-0.8,0.5-1.4,0.5c-0.4,0-0.8-0.1-1.1-0.3c0,0-0.1,0.1-0.1,0.1c-1.5,0.9-3,1.6-4.6,2v5.8
					c4.7,0,8.7-2.8,10.4-6.9C33.8,28,32.7,27.6,31.7,27.1z"/>
				<path class="st3" d="M24.4,29.4c-1,0.2-1.9,0.4-2.9,0.4c-0.1,0-0.1,0-0.2,0c-0.2,0.5-0.5,0.9-1,1.1c0.3,1.1,0.8,2,1.6,2.8
					c0.6,0.6,1.4,1.1,2.3,1.4c0.1,0,0.1,0,0.2,0V29.4z"/>
				<path class="st4" d="M28.3,25.6c0-0.2,0-0.4,0.1-0.6c-0.7-0.5-1.3-1.1-2-1.7c-0.7-0.7-1.4-1.5-2-2.3v7.1c1.3-0.4,2.7-1,4-1.8
					c0,0,0,0,0,0C28.4,26.1,28.3,25.8,28.3,25.6z"/>
				<path class="st3" d="M24.4,21c-0.1-0.1-0.1-0.1-0.2-0.2c-0.1,0-0.3,0.1-0.5,0.1c-0.3,0-0.5-0.1-0.8-0.1c-1.4,1.9-2.3,4-2.7,6.1
					c0,0.2-0.1,0.4-0.1,0.6c0.6,0.2,1,0.7,1.2,1.3c0,0,0,0,0.1,0c1,0,2-0.2,2.9-0.5V21z"/>
				<path class="st4" d="M24.4,12.7v4.1c0.1,0,0.1,0,0.2,0.1c1.3-1.3,2.8-2.4,4.3-3.2C27.5,13.1,26,12.7,24.4,12.7z"/>
				<path class="st3" d="M24.4,12.7c-0.7,0-1.4,0.1-2.1,0.2c0,0.2,0.1,0.5,0.1,0.7c0.2,1,0.5,2.1,1,3.1c0.1,0,0.3,0,0.4,0
					c0.2,0,0.4,0,0.6,0.1V12.7z"/>
			</g>
		</g>
	</g>
</g>
</svg>
