<?xml version="1.0" encoding="utf-8"?>
<svg viewBox="0 0 140 34" width="140" height="34" xmlns="http://www.w3.org/2000/svg">
	<style type="text/css">
		.st0{fill:#1D3A45;}
		.st1{fill:#BC473A;}
		.st2{fill:#E84D3D;}
		.st3{fill:#FDC72E;}
		.st4{fill:#E09B00;}
	</style>
	<path class="st0" d="m43.6 19.6c0 4-1.4 6-4.2 6-0.4 0-0.8-0.1-1.3-0.2v-1.1c0.4 0.2 0.9 0.3 1.3 0.3 1.1 0 1.8-0.4 2.3-1.3 0.5-0.8 0.7-2.1 0.7-3.8v-10.8h1.2v10.9zm3.5 5.1v-1.3c1.2 0.8 2.4 1.2 3.6 1.2 1.3 0 2.3-0.3 2.9-0.8 0.7-0.5 1-1.3 1-2.3 0-0.8-0.3-1.5-0.7-2s-1.4-1.2-2.9-2.1c-1.7-1-2.8-1.8-3.2-2.5s-0.7-1.4-0.7-2.3c0-1.2 0.4-2.2 1.3-3s2.2-1.3 3.7-1.3c1 0 2 0.2 3 0.5v1.2c-1-0.4-2-0.7-3.1-0.7-1.2 0-2 0.3-2.7 0.8-0.7 0.6-1 1.3-1 2.2 0 0.8 0.3 1.5 0.7 2s1.4 1.2 2.9 2.1c1.6 0.9 2.6 1.7 3.1 2.3 0.5 0.7 0.8 1.5 0.8 2.3 0 1.3-0.4 2.3-1.3 3.1s-2.2 1.2-3.8 1.2c-0.6 0-1.3-0.1-2-0.2-0.7 0.1-1.3-0.2-1.6-0.4zm12 0.6v-16.6h5.9c5.9 0 8.8 2.7 8.8 8.1 0 2.6-0.8 4.7-2.4 6.2-1.6 1.6-3.8 2.4-6.4 2.4h-5.9zm3.7-13.5v10.5h1.8c1.6 0 2.9-0.5 3.8-1.4 0.9-1 1.4-2.3 1.4-4 0-1.6-0.4-2.8-1.3-3.7s-2.2-1.3-3.8-1.3l-1.9-0.1zm24 13.5h-10v-16.6h9.6v3.1h-5.8v3.7h5.4v3h-5.4v3.8h6.3v3zm13.1 0h-9.9v-16.6h3.8v13.6h6.2v3zm6.1-16.6v16.7h-3.8v-16.7h3.8zm17.8 0l-5.7 16.7h-4.3l-5.7-16.7h4l3.5 11.6c0.2 0.7 0.3 1.2 0.3 1.7h0.1c0.1-0.5 0.2-1.1 0.3-1.7l3.4-11.5 4.1-0.1zm16.2 16.6h-4.3l-2.6-4.3c-0.2-0.3-0.4-0.6-0.6-0.8-0.2-0.3-0.3-0.5-0.5-0.7s-0.3-0.3-0.6-0.4c-0.2-0.1-0.4-0.2-0.7-0.2h-1v6.3h-3.7v-16.5h5.9c4 0 6.1 1.5 6.1 4.5 0 0.6-0.1 1.1-0.3 1.6s-0.4 0.9-0.8 1.3c-0.3 0.4-0.7 0.8-1.2 1s-1 0.5-1.5 0.7v0.1c0.3 0.1 0.5 0.2 0.8 0.4s0.4 0.4 0.7 0.6c0.3 0.3 0.4 0.5 0.6 0.8 0.2 0.2 0.4 0.5 0.5 0.8l3.2 4.8zm-10.2-13.8v4.6h1.6c0.8 0 1.4-0.2 1.9-0.7s0.8-1.1 0.8-1.8c0-1.4-0.8-2.2-2.6-2.2h-1.7z"/>
	<path class="st1" d="m18.6 22.5v-11.2l-3.2-11-3.1 11v11.2l3.1 11.2 3.2-11.2z"/>
	<path class="st2" d="m15.3 0.3l-15.3 5.6 2.2 20.4 13.2 7.3"/>
	<path class="st1" d="m15.3 33.7l13.3-7.3 2.4-20.5-15.7-5.6"/>
	<path class="st3" d="m15.3 6.8c-0.5 0-1.1 0.1-1.6 0.2 0.1 1.1 0.4 2.2 0.9 3.2h0.3c0.2 0 0.3 0 0.5 0.1-0.1-0.1-0.1-3.5-0.1-3.5zm-2.6 0.4c-3.9 1.2-6.5 4.8-6.5 8.9v0.7c1 1.5 2.3 2.3 3.6 2.8 0.2-0.4 0.5-0.6 0.9-0.8v-0.2c0.3-2.1 1.3-4.2 2.6-6-0.2-0.3-0.3-0.6-0.3-0.9 0-0.4 0.2-0.8 0.5-1.1-0.4-1-0.7-2.2-0.8-3.4zm2.2 3.7c-0.5 0-0.9 0.4-0.9 0.9s0.4 0.9 0.9 0.9c0.2 0 0.3-0.1 0.5-0.2v-1.5c-0.2 0-0.4-0.1-0.5-0.1zm-0.7 2.5c-1.2 1.7-2.1 3.6-2.4 5.5v0.1c0.5 0.2 0.8 0.6 0.9 1.1 0.9 0 1.8-0.2 2.6-0.5v-5.9l-0.2-0.2c-0.2 0-0.6 0-0.9-0.1zm-7.6 5.5c0.9 2.9 3.1 5.2 6 6.1-0.9-0.8-1.5-1.9-1.7-3.1-0.6-0.1-1.1-0.6-1.2-1.2-1.2-0.3-2.2-0.9-3.1-1.8zm4.6 0.7c-0.5 0-0.8 0.4-0.8 0.8 0 0.5 0.4 0.8 0.8 0.8 0.5 0 0.8-0.4 0.8-0.8s-0.3-0.8-0.8-0.8zm4.1 1.1c-0.9 0.2-1.8 0.4-2.7 0.4-0.2 0.3-0.4 0.5-0.7 0.7 0.3 1.1 0.9 2.1 1.8 2.8 0.2 0.2 0.7 0.5 1.2 0.7 0.1 0.1 0.2 0.1 0.4 0.2h0.1v-4.8z"/>
	<path class="st4" d="m15.4 6.8l-0.1 3.4c0.1 0 0.1 0 0.2 0.1 1.3-1.2 2.5-2.1 3.6-2.7-1.1-0.6-2.4-0.8-3.7-0.8zm4.9 1.4c-1 0.5-2.5 1.4-4 2.8 0.1 0.2 0.2 0.5 0.2 0.8 0 0.4-0.2 0.8-0.4 1.1 0.4 0.5 0.8 1.1 1.3 1.6 0.6 0.6 1.2 1.1 1.8 1.6 0.3-0.2 0.7-0.4 1.1-0.4 0.3 0 0.6 0.1 0.9 0.3 1.2-1.2 2.1-2.5 2.6-3.8-0.7-1.7-2-3.1-3.5-4zm-5 2.9v1.5c0.3-0.2 0.4-0.4 0.4-0.7 0-0.4-0.1-0.7-0.4-0.8zm9 2.5c-0.6 1.1-1.4 2.2-2.4 3.2 0.1 0.3 0.2 0.7 0.1 1 0.8 0.4 1.5 0.7 2.3 0.9 0.2-0.8 0.4-1.7 0.4-2.6 0-0.8-0.1-1.6-0.4-2.5zm-9 0.1v5.9c0.1 0 0.2-0.1 0.4-0.1 1-0.3 2-0.9 2.9-1.4-0.1-0.2-0.1-0.3-0.1-0.5s0-0.3 0.1-0.5c-0.7-0.5-1.4-1.1-2-1.8-0.4-0.6-0.9-1.1-1.3-1.6zm5 2.9c-0.5 0-0.9 0.4-0.9 0.9s0.4 0.9 0.9 0.9c0.5 0 0.9-0.4 0.9-0.9s-0.4-0.9-0.9-0.9zm1.2 2.2c-0.3 0.3-0.7 0.5-1.2 0.5-0.4 0-0.7-0.1-1-0.3-1 0.6-2.1 1.2-3.3 1.6-0.2 0.1-0.5 0.1-0.7 0.2v4.8h0.1c3.7 0 7.1-2.3 8.5-5.8-0.8-0.3-1.6-0.6-2.4-1z"/>
</svg>
