<svg xmlns="http://www.w3.org/2000/svg" width="725.333" height="725.333" version="1.0" viewBox="0 0 544 544"><path d="M145.6 50C78.5 74.2 23.6 94.1 23.4 94.2c-.1.2 7.6 73.7 17.2 163.3C50.1 347.2 58 420.8 58 421.1c0 .6 203.3 113.3 209.1 115.9 2.3 1.1 11-3.6 107.5-57.1 57.7-32 105.3-58.6 105.8-59 1.1-1 40.7-327.2 39.8-328C519 91.9 270.5 6 269 6c-.8.1-56.4 19.9-123.4 44zm138.5 60c11.7 1.2 27 4.6 36.7 8.3l6.4 2.4-9.4 5.8c-12.1 7.5-29.4 20.5-38.9 29.4-6.1 5.6-8.1 6.9-10 6.5-1.3-.3-4.9-.5-8-.5l-5.5-.1-3.8-9.7c-3.9-9.9-9-28.1-10.1-36.2-.7-4.7-.7-4.7 2.6-5.4 4.4-1 21.5-2.2 25.9-1.8 1.9.2 8.3.7 14.1 1.3zm-59.5 9.7c2 11.9 5.9 25.3 11.6 40.1l4 10.2-3.1 6.2c-3.6 7.1-4.2 16-1.5 22.8l1.6 4-6.7 10.2C215.8 236 202.9 266.7 198 291c-1.2 5.7-2.2 10.5-2.3 10.5-5.5 2.2-9.5 4.6-12.3 7.8-4.2 4.6-4.6 4.5-17.1-1.3-16.6-7.8-31.8-19.9-42.4-33.9-4.8-6.3-4.9-6.5-4.9-13.6 0-57.7 31.9-110.4 82-135.5 8.8-4.4 19.6-8.9 21.7-9 .7 0 1.5 1.7 1.9 3.7zm125.2 13c19.2 12 39.3 33.9 51.3 56l3.4 6.2-3.3 6.7c-7.4 14.9-20.9 34.4-32.6 47.1l-6.5 7-5.8-1.9c-6.8-2.3-12.9-2-19.9 1.2l-4.7 2-3.6-2.7c-6.8-5.2-30.3-28.8-37.9-38.1l-7.5-9.3 2.9-5.7c2.4-4.7 2.9-6.9 2.8-12.7 0-4.4-.6-8.1-1.7-10.1l-1.6-3.1 5.2-5c11.3-11 30.3-24.8 47.4-34.4 4.9-2.7 8.9-4.9 9.1-4.9.1 0 1.5.8 3 1.7zm-80.6 44.4c4.3 3.1 6.1 7.4 5.5 13.2-.3 3.9-1.1 5.6-4 8.5-3 3-4.4 3.6-8.9 3.9-11.7.9-18.9-9.6-13.9-20.1 4-8.2 13.9-10.7 21.3-5.5zm-8.7 38.5l6.9.3 2.9 4.3c7.7 11.2 30.1 34.9 44.1 46.5l5.9 4.9.1 8.8.2 8.9-4.1 2.5c-6.4 4.1-29.3 14.7-37.9 17.6-4.4 1.5-8.7 3.1-9.6 3.6-2.4 1.3-25.1 5.7-33.2 6.4-5.4.5-6.8.4-6.8-.7 0-2.7-6.3-10.7-10.5-13.4-3.4-2.1-4.4-3.4-4.5-5.4 0-4.8 5.8-25.6 10.5-37.6 8.3-20.8 24.5-49 27.5-47.7.8.4 4.6.8 8.5 1zM415.7 230c2.8 12.9 2.5 44.9-.4 58.4-1.2 5.4-2.4 10-2.7 10.3-.7.8-16.4-4.4-27.1-9l-10-4.3.3-3.6c.2-2-.2-5.5-.8-7.7l-1.1-4.2 7.1-7.6c8.7-9.3 20.2-24.4 26.7-35.1 2.8-4.6 5.1-7.5 5.5-6.8.3.6 1.5 5 2.5 9.6zm-62.3 37.4c7.3 3 10.2 11.2 6.8 19-2.4 5.3-6.2 7.6-12.4 7.6-5.5 0-10-2.7-12.2-7.5-3.4-7.1-.6-15.2 6.5-18.7 4.1-2.2 6.9-2.2 11.3-.4zm43.7 46.3c4.9 1.5 8.9 3.1 8.9 3.6 0 1.6-7.4 15.5-12.5 23.2-17.8 27.2-44.5 47.8-76.3 58.9-12.8 4.5-23.4 6.5-39.1 7.6-11.9.8-12.6.7-17.9-1.6-13.2-5.8-26-16.9-34-29.3-4.3-6.6-10.2-19.8-10.2-22.8 0-1 1.6-2.8 3.6-4.1 2-1.3 4.9-4.5 6.5-7.1l3-4.8 11.1-1.2c30.5-3.3 56.4-11.7 82.3-26.6 5.4-3.2 10.5-5.4 11.4-5.1.9.2 3.6 1.2 6.1 2.1 6.4 2.4 14.5 1.5 21.2-2.2l5.2-3 10.9 4.8c6 2.6 14.9 6 19.8 7.6zm-249.5 4c4.9 2.9 13.2 6.9 18.6 9 8.8 3.4 9.8 4.1 10.4 6.8 1.8 8.1 8.9 16.4 16.8 19.4 4.7 1.8 4.9 2 7.1 8.7 4.4 13.4 11 25.5 19.1 34.3 2 2.3 3.5 4.3 3.2 4.6-.7.8-21.1-8-28.4-12.3-24-14-45-35.7-57.2-59.1-4.6-8.6-11.2-24.3-11.2-26.3 0-.5 2.9 1.5 6.4 4.5 3.6 2.9 10.4 7.6 15.2 10.4zm60.7-3.3c4.3 1.7 8.5 6.8 9.3 11 .8 4.3-2.4 11.8-6.1 14.2-1.4.9-4.7 1.9-7.3 2.1-14 1.2-20.9-17.4-9.5-25.5 4.7-3.3 8.8-3.9 13.6-1.8z"/></svg>