<svg xmlns="http://www.w3.org/2000/svg" height="31" fill="none" viewBox="0 0 161 31">
  <rect width="30" height="30" y=".5" fill="#625BF8" rx="4"/>
  <path fill="#fff" fill-rule="evenodd" d="M11.7 7.7h10.8v5.4h-2.4v-3h-8.4v4.2h5.4v2.4h-5.4v4.2h1.8v2.4h-6v-2.4h1.8v-4.2H7.5v-2.4h1.8v-4.2H7.5V7.7h4.2Z" clip-rule="evenodd"/>
  <path fill="#01112C" d="M38.3 23V8.4h10.96v3.22h-7.22v3.44h5.9v2.66h-5.9V23H38.3Zm17.688.2c-1.013 0-1.906-.14-2.68-.42-.773-.293-1.42-.693-1.94-1.2a4.852 4.852 0 0 1-1.14-1.82c-.253-.72-.38-1.5-.38-2.34 0-.827.134-1.6.4-2.32.28-.72.68-1.34 1.2-1.86.52-.52 1.16-.927 1.92-1.22.774-.293 1.647-.44 2.62-.44 1 0 1.887.153 2.66.46.774.293 1.414.7 1.92 1.22.52.52.907 1.14 1.16 1.86a6.4 6.4 0 0 1 .4 2.28c0 .813-.14 1.58-.42 2.3a5.13 5.13 0 0 1-1.18 1.84c-.52.507-1.166.913-1.94 1.22-.76.293-1.626.44-2.6.44Zm0-2.84c.854 0 1.467-.267 1.84-.8.374-.533.56-1.253.56-2.16 0-.933-.186-1.673-.56-2.22-.36-.547-.973-.82-1.84-.82-.826 0-1.433.28-1.82.84-.386.547-.58 1.28-.58 2.2-.013.92.16 1.647.52 2.18.374.52 1 .78 1.88.78ZM64.04 23V11.8h3.6v2.58c.36-.96.867-1.667 1.52-2.12.654-.453 1.42-.68 2.3-.68 1.24 0 2.207.4 2.9 1.2.694.787 1.04 1.847 1.04 3.18V23h-3.62v-5.96c0-.893-.153-1.553-.46-1.98-.306-.427-.82-.64-1.54-.64-.693 0-1.22.267-1.58.8-.36.533-.54 1.313-.54 2.34V23h-3.62Zm21.275-3.04v2.64a4.091 4.091 0 0 1-1.06.42c-.4.12-.846.18-1.34.18-1.426 0-2.413-.333-2.96-1-.533-.667-.8-1.633-.8-2.9v-4.68h-2.4V11.8h2.44V9.04l3.34-1.6v4.36h2.78v2.82h-2.78v4.12c0 .56.114.96.34 1.2.24.227.594.34 1.06.34.28 0 .52-.027.72-.08a8.05 8.05 0 0 0 .66-.24Zm1.063 1.14 2.44-2.28c.467.533.987.927 1.56 1.18a4.51 4.51 0 0 0 1.84.38c.56 0 .954-.093 1.18-.28.24-.2.36-.433.36-.7 0-.36-.28-.593-.84-.7-.56-.12-1.38-.267-2.46-.44-1.106-.173-1.986-.487-2.64-.94-.653-.453-.98-1.173-.98-2.16 0-.493.1-.96.3-1.4.2-.44.494-.827.88-1.16.4-.333.894-.593 1.48-.78.6-.2 1.28-.3 2.04-.3 1.16 0 2.207.173 3.14.52.947.333 1.78.893 2.5 1.68l-2.46 2.2a3.877 3.877 0 0 0-1.48-1.16c-.573-.267-1.2-.4-1.88-.4-.573 0-.973.093-1.2.28a.795.795 0 0 0-.32.64c0 .333.227.56.68.68.454.12 1.167.253 2.14.4 1.254.187 2.26.513 3.02.98.774.453 1.16 1.2 1.16 2.24 0 1.067-.4 1.947-1.2 2.64-.8.68-1.926 1.02-3.38 1.02-1.373 0-2.54-.187-3.5-.56-.96-.387-1.753-.913-2.38-1.58Zm18.009 2.1c-1.013 0-1.907-.14-2.68-.42-.773-.293-1.42-.693-1.94-1.2a4.85 4.85 0 0 1-1.14-1.82c-.253-.72-.38-1.5-.38-2.34 0-.827.133-1.6.4-2.32.28-.72.68-1.34 1.2-1.86.52-.52 1.16-.927 1.92-1.22.773-.293 1.647-.44 2.62-.44 1 0 1.887.153 2.66.46.773.293 1.413.7 1.92 1.22.52.52.907 1.14 1.16 1.86a6.4 6.4 0 0 1 .4 2.28c0 .813-.14 1.58-.42 2.3a5.135 5.135 0 0 1-1.18 1.84c-.52.507-1.167.913-1.94 1.22-.76.293-1.627.44-2.6.44Zm0-2.84c.853 0 1.467-.267 1.84-.8s.56-1.253.56-2.16c0-.933-.187-1.673-.56-2.22-.36-.547-.973-.82-1.84-.82-.827 0-1.433.28-1.82.84-.387.547-.58 1.28-.58 2.2-.013.92.16 1.647.52 2.18.373.52 1 .78 1.88.78Zm19.032-8.56V23h-3.6v-2.56c-.36.947-.854 1.647-1.48 2.1-.614.453-1.34.68-2.18.68-1.28 0-2.24-.393-2.88-1.18-.627-.8-.94-1.867-.94-3.2V11.8h3.62v5.98c0 .893.14 1.553.42 1.98.293.427.78.64 1.46.64.666 0 1.16-.28 1.48-.84.32-.56.48-1.34.48-2.34V11.8h3.62Zm9.098-.16c.36 0 .68.027.96.08.293.053.546.127.76.22l-.88 3.34a3.907 3.907 0 0 0-1.74-.38c-.587 0-1.094.233-1.52.7-.414.467-.62 1.16-.62 2.08V23h-3.62V11.8h3.6v3.1c.226-1.133.573-1.96 1.04-2.48.48-.52 1.153-.78 2.02-.78Zm13.977 4.06-3.7.86c-.094-.68-.294-1.213-.6-1.6-.307-.4-.807-.6-1.5-.6-.8 0-1.387.273-1.76.82-.374.547-.567 1.287-.58 2.22 0 .933.173 1.66.52 2.18.36.52.966.78 1.82.78.68 0 1.173-.193 1.48-.58.32-.4.533-.933.64-1.6l3.72.7c-.28 1.307-.914 2.353-1.9 3.14-.987.787-2.3 1.18-3.94 1.18-1.014 0-1.9-.14-2.66-.42-.76-.293-1.394-.693-1.9-1.2a4.966 4.966 0 0 1-1.12-1.82c-.254-.72-.38-1.5-.38-2.34 0-.827.133-1.6.4-2.32.28-.72.68-1.34 1.2-1.86.52-.52 1.166-.927 1.94-1.22.773-.293 1.653-.44 2.64-.44 1.706 0 3.006.38 3.9 1.14.893.747 1.486 1.74 1.78 2.98Zm12.805 4.38a5.827 5.827 0 0 1-2.04 2.26c-.894.573-2.054.86-3.48.86-1.014 0-1.9-.14-2.66-.42-.747-.293-1.374-.693-1.88-1.2a4.997 4.997 0 0 1-1.12-1.8 7.045 7.045 0 0 1-.36-2.28c0-.813.133-1.58.4-2.3.28-.72.673-1.347 1.18-1.88a5.531 5.531 0 0 1 1.92-1.26c.76-.32 1.62-.48 2.58-.48.986 0 1.84.153 2.56.46.733.307 1.333.713 1.8 1.22a4.712 4.712 0 0 1 1.04 1.74c.226.667.34 1.36.34 2.08v1.08h-8.36c.093.733.36 1.293.8 1.68.44.387 1.046.58 1.82.58.586 0 1.06-.113 1.42-.34.36-.24.666-.627.92-1.16l3.12 1.16Zm-5.54-5.86c-.694 0-1.254.187-1.68.56-.427.373-.7.907-.82 1.6h4.8c-.04-.64-.247-1.16-.62-1.56-.36-.4-.92-.6-1.68-.6Z" class="WaoYT" data-is-header="true"/>
</svg>
