<svg xmlns="http://www.w3.org/2000/svg" width="252" height="53" fill="none">
    <path fill="#1A91FF" d="m176.3 1 29.4 51.1h-58.9l6.3-10.8h34l-10.8-18.7-4.5 7.9h-12.5l17-29.4ZM0 52.1 19.2 1h16l19.4 51H40.3l-3.1-8.9H16.8l-3 9H0Zm20-18.9h14l-3.7-10.8a220.4 220.4 0 0 0-1.6-4.6L28 15l-.8-2.5h-.5a98.6 98.6 0 0 1-3 10L20 33.1Zm47.3 18.9V12H50.7V.9h46.6v11H80.7V52H67.3Zm37.5 0V1h13.3v40h26v11h-39.3ZM229 53c-3.3 0-6.3-.3-9.1-.9a21 21 0 0 1-7.5-2.8c-2.2-1.2-3.9-3-5.1-5a15.3 15.3 0 0 1-1.9-7.8v-1.3h13v1.1a6 6 0 0 0 1.1 3.9c.9 1 2 1.6 3.5 2 1.5.5 3.2.7 5.2.7 1.1 0 2.1 0 3-.2 1 0 1.9-.3 2.6-.5l2-.9A3 3 0 0 0 237 40c.3-.6.5-1.2.5-2 0-1-.5-2-1.4-2.7a10 10 0 0 0-3.5-1.9 934.6 934.6 0 0 1-10.7-2.8 43 43 0 0 1-5.7-1.9c-1.8-.7-3.5-1.7-5-2.8a13.3 13.3 0 0 1-3.5-4.3c-.8-1.7-1.2-3.8-1.2-6.2a13.4 13.4 0 0 1 6.4-11.8 19 19 0 0 1 7-2.7 38 38 0 0 1 16.6 0c2.6.6 4.9 1.5 6.9 2.8a13.3 13.3 0 0 1 6.4 11.7v.9H237v-.6c0-1.1-.4-2.1-1-3a5.8 5.8 0 0 0-2.8-2c-1.2-.6-2.8-.9-4.6-.9-1.8 0-3.4.2-4.7.6a7 7 0 0 0-2.9 1.5 3.3 3.3 0 0 0 .3 5c.9.6 2 1.2 3.6 1.7l5 1.5a153 153 0 0 1 11.4 3c1.8.8 3.5 1.7 5 2.8 1.5 1.1 2.6 2.5 3.5 4.1.9 1.7 1.3 3.7 1.3 6 0 4-1 7.4-2.9 9.8a16 16 0 0 1-7.9 5.5A34.8 34.8 0 0 1 229 53Z"/>
</svg>