<svg xmlns="http://www.w3.org/2000/svg" viewBox="0 0 631 234" width="631" height="234">
    <rect x="0" y="0" width="631" height="234" fill="#1990fe"/>
    <g transform="translate(64 64)">
        <path fill="#F3FAFF" d="M352.562 2.134 411.49 104.2H293.635l12.458-21.579h68.022L352.562 45.29l-9.053 15.68h-24.916l33.969-58.837ZM0 104.211 38.463 1.789h32.053l38.464 102.422H80.505L74.392 86.47H33.544l-6.114 17.74H0Zm39.954-37.719h27.879l-7.305-21.617a441 441 0 0 0-1.491-4.026 154 154 0 0 0-1.64-5.217l-1.49-5.666q-.747-2.832-1.492-4.92h-1.043q-.596 2.834-1.79 6.411a197 197 0 0 1-2.236 7.156 175 175 0 0 1-1.938 6.262zm94.677 37.719V23.705h-33.245V1.789h93.177v21.916h-33.246v80.506zm74.96 0V1.789h26.686v80.506h52.03v21.916zM457.942 106q-9.69 0-18.188-1.789-8.498-1.64-15.057-5.516-6.41-3.876-10.138-10.138-3.727-6.411-3.727-15.654v-1.342q0-.745.149-1.193h25.792q0 .448-.15 1.193v1.044q0 4.77 2.386 7.752 2.534 2.833 7.007 4.175 4.472 1.192 10.435 1.192 3.28 0 6.113-.298 2.832-.299 5.069-1.043 2.237-.746 3.876-1.79 1.789-1.193 2.534-2.683.895-1.64.895-3.727 0-3.43-2.684-5.665-2.534-2.237-7.007-3.728-4.323-1.491-9.839-2.832a1855 1855 0 0 1-11.479-2.833 86 86 0 0 1-11.48-3.727q-5.516-2.236-9.988-5.665-4.324-3.43-7.007-8.498-2.535-5.218-2.535-12.523 0-8.052 3.429-13.865 3.43-5.964 9.392-9.69 6.113-3.729 14.014-5.368Q447.655-.001 456.601 0 465.396 0 473 1.789q7.752 1.79 13.715 5.665 5.964 3.728 9.243 9.542 3.43 5.666 3.578 13.716V32.5h-25.642v-1.044q0-3.43-1.938-5.963-1.789-2.684-5.516-4.175-3.727-1.64-9.243-1.64-5.517 0-9.392 1.044-3.727 1.044-5.815 2.982-1.938 1.938-1.938 4.621 0 3.28 2.535 5.367 2.683 2.088 7.156 3.579 4.472 1.49 9.988 2.832 5.516 1.193 11.331 2.684a73.4 73.4 0 0 1 11.479 3.578q5.516 2.087 9.989 5.516a23.2 23.2 0 0 1 7.006 8.2q2.684 4.92 2.684 11.926 0 12.225-5.814 19.68-5.666 7.454-15.803 10.883-9.989 3.429-22.661 3.429Z"/>
    </g>
</svg>
