<svg xmlns="http://www.w3.org/2000/svg" height="31" fill="none" viewBox="0 0 161 31">
  <rect width="30" height="30" y=".5" fill="#625BF8" rx="4"/>
  <path fill="#fff" fill-rule="evenodd" d="M11.7 7.7h10.8v5.4h-2.4v-3h-8.4v4.2h5.4v2.4h-5.4v4.2h1.8v2.4h-6v-2.4h1.8v-4.2H7.5v-2.4h1.8v-4.2H7.5V7.7z" clip-rule="evenodd"/>
  <path fill="#01112C" d="M38.3 23V8.4h10.96v3.22h-7.22v3.44h5.9v2.66h-5.9V23zm17.688.2q-1.52 0-2.68-.42-1.16-.44-1.94-1.2a4.85 4.85 0 0 1-1.14-1.82q-.38-1.08-.38-2.34 0-1.24.4-2.32.42-1.08 1.2-1.86t1.92-1.22q1.16-.44 2.62-.44 1.5 0 2.66.46 1.161.44 1.92 1.22.78.78 1.16 1.86a6.4 6.4 0 0 1 .4 2.28q0 1.22-.42 2.3a5.1 5.1 0 0 1-1.18 1.84q-.78.76-1.94 1.22-1.14.44-2.6.44m0-2.84q1.28 0 1.84-.8t.56-2.16q0-1.4-.56-2.22-.54-.82-1.84-.82-1.24 0-1.82.84-.58.82-.58 2.2-.02 1.38.52 2.18.56.78 1.88.78M64.04 23V11.8h3.6v2.58q.54-1.44 1.52-2.12t2.3-.68q1.86 0 2.9 1.2 1.04 1.18 1.04 3.18V23h-3.62v-5.96q0-1.34-.46-1.98t-1.54-.64q-1.04 0-1.58.8t-.54 2.34V23zm21.275-3.04v2.64a4 4 0 0 1-1.06.42q-.6.18-1.34.18-2.14 0-2.96-1-.8-1-.8-2.9v-4.68h-2.4V11.8h2.44V9.04l3.34-1.6v4.36h2.78v2.82h-2.78v4.12q0 .84.34 1.2.36.34 1.06.34.42 0 .72-.08a8 8 0 0 0 .66-.24m1.063 1.14 2.44-2.28q.7.8 1.56 1.18a4.5 4.5 0 0 0 1.84.38q.84 0 1.18-.28.36-.3.36-.7 0-.54-.84-.7-.84-.18-2.46-.44-1.659-.26-2.64-.94-.98-.68-.98-2.16 0-.74.3-1.4t.88-1.16q.6-.5 1.48-.78.9-.3 2.04-.3 1.74 0 3.14.52 1.42.5 2.5 1.68l-2.46 2.2a3.9 3.9 0 0 0-1.48-1.16q-.86-.4-1.88-.4-.86 0-1.2.28a.8.8 0 0 0-.32.64q0 .5.68.68t2.14.4q1.88.28 3.02.98 1.16.68 1.16 2.24 0 1.6-1.2 2.64-1.2 1.02-3.38 1.02-2.06 0-3.5-.56-1.44-.58-2.38-1.58m18.009 2.1q-1.52 0-2.68-.42-1.16-.44-1.94-1.2a4.85 4.85 0 0 1-1.14-1.82q-.38-1.08-.38-2.34 0-1.24.4-2.32.42-1.08 1.2-1.86t1.92-1.22q1.16-.44 2.62-.44 1.5 0 2.66.46 1.16.44 1.92 1.22.78.78 1.16 1.86a6.4 6.4 0 0 1 .4 2.28q0 1.22-.42 2.3a5.1 5.1 0 0 1-1.18 1.84q-.78.76-1.94 1.22-1.14.44-2.6.44m0-2.84q1.28 0 1.84-.8c.56-.8.56-1.253.56-2.16q0-1.4-.56-2.22-.54-.82-1.84-.82-1.24 0-1.82.84-.58.82-.58 2.2-.02 1.38.52 2.18.56.78 1.88.78m19.032-8.56V23h-3.6v-2.56q-.54 1.42-1.48 2.1-.92.68-2.18.68-1.92 0-2.88-1.18-.94-1.2-.94-3.2V11.8h3.62v5.98q0 1.34.42 1.98.44.64 1.46.64 1 0 1.48-.84t.48-2.34V11.8zm9.098-.16q.54 0 .96.08.44.08.76.22l-.88 3.34a3.9 3.9 0 0 0-1.74-.38q-.88 0-1.52.7-.62.7-.62 2.08V23h-3.62V11.8h3.6v3.1q.34-1.7 1.04-2.48.72-.78 2.02-.78m13.977 4.06-3.7.86q-.141-1.02-.6-1.6-.46-.6-1.5-.6-1.2 0-1.76.82t-.58 2.22q0 1.4.52 2.18.54.78 1.82.78 1.02 0 1.48-.58.48-.6.64-1.6l3.72.7q-.42 1.96-1.9 3.14t-3.94 1.18q-1.52 0-2.66-.42-1.14-.44-1.9-1.2a5 5 0 0 1-1.12-1.82q-.38-1.08-.38-2.34 0-1.24.4-2.32.42-1.08 1.2-1.86t1.94-1.22 2.64-.44q2.559 0 3.9 1.14 1.34 1.12 1.78 2.98m12.805 4.38a5.8 5.8 0 0 1-2.04 2.26q-1.341.86-3.48.86-1.52 0-2.66-.42-1.12-.44-1.88-1.2a5 5 0 0 1-1.12-1.8 7 7 0 0 1-.36-2.28q0-1.22.4-2.3.42-1.08 1.18-1.88a5.5 5.5 0 0 1 1.92-1.26q1.14-.48 2.58-.48 1.48 0 2.56.46 1.1.46 1.8 1.22a4.7 4.7 0 0 1 1.04 1.74q.34 1 .34 2.08v1.08h-8.36q.14 1.1.8 1.68t1.82.58q.88 0 1.42-.34.54-.36.92-1.16zm-5.54-5.86q-1.041 0-1.68.56-.64.56-.82 1.6h4.8q-.06-.96-.62-1.56-.54-.6-1.68-.6" class="WaoYT" data-is-header="true"/>
</svg>
