<svg xmlns="http://www.w3.org/2000/svg" xml:space="preserve" viewBox="0 0 896.554 170.231">
  <path d="M-109.973-112.911h1118v412h-1118z" style="fill-rule:evenodd;clip-rule:evenodd;fill:none"/>
  <path d="M821.936 107.009h58.298c4.157.336 4.582-2.977 3.926-5.899-3.108-13.856-14.78-25.442-29.744-25.442-16.477-.001-29.843 11.761-32.48 31.341m75.618-.126c0 8.083-4.619 13.856-15.01 13.965h-61.097c1.284 22.637 15.669 36.5 33.545 36.5 10.803 0 24.086-7.681 28.705-16.98 1.704-3.432 5.806-4.014 9.237-2.309 3.406 1.704 3.713 5.11 1.986 8.517-6.595 15.731-24.506 24.61-39.928 24.61-26.675 0-47.5-21.982-47.5-54.678s20.227-54.656 46.925-54.656c26.381-.001 43.137 25.629 43.137 45.031m-137.565 12.701v44.731c0 3.824-3.101 6.916-6.928 6.916a6.93 6.93 0 0 1-6.928-6.928v-95.42a6.93 6.93 0 0 1 6.928-6.928 6.925 6.925 0 0 1 6.928 6.925v2.208c0 3.348-.12 6.101-.259 9.328-.039.886-.078 2.278-.118 3.258 8.454-13.171 21.273-21.823 35.016-21.823 11.027 0 10.505 13.856 0 13.856-21.524 0-34.639 21.938-34.639 43.877m-81.838 37.761c19.017 0 31.956-15.655 31.956-40.829 0-25.198-12.962-40.83-31.956-40.83s-31.933 15.655-31.933 40.83 12.939 40.829 31.933 40.829m0-95.494c26.719 0 45.791 21.978 45.791 54.642 0 32.71-19.096 54.664-45.791 54.664-26.67 0-45.77-21.978-45.77-54.664s19.077-54.642 45.77-54.642M577.426 75.71c-18.361 0-30.884 15.632-30.928 40.806 0 25.174 12.523 40.829 30.906 40.829 11.11 0 20.833-5.623 25.982-16.214 1.647-3.409 5.69-4.808 8.987-3.081 3.297 1.702 4.653 5.856 2.982 9.286-7.362 15.142-21.917 23.82-37.951 23.82-25.812 0-44.298-21.978-44.298-54.664S551.57 61.85 577.404 61.85c16.101 0 30.656 8.679 37.973 23.821 1.672 3.406.34 7.583-2.982 9.286a6.58 6.58 0 0 1-8.965-3.08c-5.149-10.568-14.847-16.167-26.004-16.167m-87.148 37.81c21.774 7.118 25.624 19.068 25.088 27.912-.982 16.964-18.063 29.778-39.697 29.778-18.063 0-33.162-9.524-39.394-24.832a6.936 6.936 0 0 1 3.783-9.032c3.522-1.423 7.584.256 9.029 3.803 4.131 10.152 14.073 16.221 26.582 16.221 15.59 0 25.414-8.519 25.88-16.756.118-2.381.49-8.658-14.96-13.699l-26.091-8.542c-16.872-5.577-24.714-14.492-24.014-27.211.91-16.709 17.666-29.312 38.997-29.312 17.969 0 33.162 9.638 38.764 24.574 1.353 3.57-.492 7.561-4.062 8.892-3.524 1.353-7.538-.49-8.891-4.061-3.524-9.475-13.653-15.589-25.788-15.589-13.84 0-24.668 6.978-25.181 16.243-.164 2.917-.466 8.331 14.562 13.302zm-148.752-6.511h58.298c4.157.336 4.582-2.977 3.926-5.899-3.108-13.856-14.777-25.442-29.744-25.442-16.477-.001-29.843 11.761-32.48 31.341m75.618-.126c0 8.083-4.619 13.856-15.01 13.965h-61.097c1.284 22.637 15.671 36.5 33.547 36.5 10.803 0 24.086-7.681 28.705-16.98 1.704-3.432 5.806-4.014 9.237-2.309 3.406 1.704 3.713 5.11 1.986 8.517-6.595 15.731-24.506 24.61-39.928 24.61-26.675 0-47.502-21.982-47.502-54.678s20.227-54.656 46.925-54.656c26.383-.001 43.137 25.629 43.137 45.031m-133.099 6.637c21.774 7.118 25.624 19.068 25.088 27.912-.981 16.964-18.063 29.778-39.697 29.778-18.063 0-33.162-9.524-39.394-24.832a6.937 6.937 0 0 1 3.78-9.032c3.524-1.423 7.586.256 9.032 3.803 4.131 10.152 14.073 16.221 26.582 16.221 15.59 0 25.414-8.519 25.88-16.756.118-2.381.49-8.658-14.96-13.699l-26.09-8.542c-16.872-5.577-24.714-14.492-24.014-27.211.91-16.709 17.666-29.312 38.997-29.312 17.969 0 33.162 9.638 38.764 24.574 1.353 3.57-.492 7.561-4.062 8.892-3.524 1.353-7.538-.49-8.891-4.061-3.524-9.475-13.653-15.589-25.788-15.589-13.84 0-24.668 6.978-25.181 16.243-.164 2.917-.466 8.331 14.562 13.302zM168.037 33.464c5.053 0 9.145 4.092 9.145 9.145s-4.092 9.145-9.145 9.145-9.145-4.092-9.145-9.145 4.092-9.145 9.145-9.145M166.7 13.356c-17.645 0-27.85 15.01-27.85 28.866 0 10.392-13.847 10.392-13.849 0C125.001 17.974 143.281-.5 166.7-.5s41.704 18.474 41.704 42.722c0 10.392-13.888 10.392-13.888 0-.001-13.856-10.171-28.866-27.816-28.866M38.051 61.851c12.089 0 25.063 5.974 31.644 15.076 6.582-9.101 19.569-16.23 31.658-16.23 20.539 0 38.551 14.99 38.551 43.696l.462 19.361c0 29.763 19.629 33.571 27.712 33.571s26.973-5.411 26.973-30.813V72.929c0-9.217 13.902-9.217 13.902 0v53.582c-.494 33.485-24.71 44.65-40.875 44.65s-41.567-9.562-41.567-47.408l-.469-20.482c0-24.101-16.851-27.582-24.689-27.582-12.346 0-24.691 10.262-24.691 27.582v60.983c0 3.827-3.104 6.907-6.93 6.907h-.06c-3.827 0-6.93-3.081-6.93-6.907v-60.983c0-17.32-12.346-27.582-24.691-27.582s-24.696 6.515-24.689 32.107v56.457c0 3.803-3.104 6.907-6.933 6.907-3.827 0-6.93-3.081-6.93-6.907v-56.457C-.5 74.122 18.076 61.851 38.051 61.851" style="fill:#1f74bd"/>
</svg>
