<svg xmlns="http://www.w3.org/2000/svg" width="272" height="285" fill="none">
  <rect width="271.26" height="285" fill="#17D4A7" rx="8"/>
  <path fill="#3B103D" d="M12 20.814A8.814 8.814 0 0 1 20.814 12h250.452v260.249H20.814A8.814 8.814 0 0 1 12 263.435V20.814Z"/>
  <g clip-path="url(#a)">
    <rect width="14.689" height="14.689" x="29.627" y="29.627" fill="#3B103D" rx="4.407"/>
    <circle cx="37.114" cy="36.356" r="3.057" fill="#fff"/>
    <path fill="#fff" d="M30.518 45.05a4.994 4.994 0 0 1 4.994-4.993h3.204a4.994 4.994 0 0 1 4.994 4.994H30.518Z"/>
  </g>
  <rect width="12.119" height="12.119" x="36.421" y="37.156" fill="#4F2851" stroke="#3B103D" stroke-width="1.102" rx="3.489"/>
  <path fill="#BBADBC" d="M44.566 45.972h-4.26v-.762l1.63-1.652c.316-.322.576-.599.78-.83.203-.236.354-.459.451-.668.1-.21.151-.438.151-.684 0-.304-.087-.534-.262-.689-.175-.158-.406-.236-.693-.236a1.76 1.76 0 0 0-.758.163 3.5 3.5 0 0 0-.714.456l-.555-.667c.175-.149.361-.285.56-.409.2-.123.424-.22.67-.292.247-.075.528-.112.844-.112.399 0 .743.072 1.033.215.29.14.512.337.667.59.158.252.236.546.236.882 0 .338-.067.651-.202.938-.135.287-.327.57-.576.852-.25.278-.547.581-.891.908l-1.089 1.063v.047h2.978v.887Zm10.607-11.307h2.964c1.285 0 2.255.187 2.91.559.653.373.98 1.015.98 1.928 0 .382-.068.727-.204 1.036a1.91 1.91 0 0 1-.58.756 2.155 2.155 0 0 1-.94.396v.068c.387.068.73.188 1.03.36.304.173.542.421.715.744.177.322.266.74.266 1.253 0 .609-.146 1.127-.436 1.554-.287.427-.698.752-1.234.974-.531.223-1.163.334-1.894.334h-3.577v-9.962Zm1.635 4.109h1.567c.74 0 1.254-.12 1.54-.361.286-.24.43-.593.43-1.056 0-.473-.17-.813-.512-1.022-.336-.21-.872-.314-1.608-.314h-1.417v2.753Zm0 1.322v3.162h1.724c.763 0 1.3-.148 1.608-.443.309-.296.463-.695.463-1.2a1.5 1.5 0 0 0-.21-.804c-.137-.227-.362-.402-.675-.524-.314-.127-.736-.191-1.268-.191h-1.642Zm10.525-3.155a4.624 4.624 0 0 1 .804.075l-.15 1.5a2.017 2.017 0 0 0-.355-.062 3.71 3.71 0 0 0-.367-.02c-.287 0-.56.047-.818.142a1.928 1.928 0 0 0-1.158 1.124 2.61 2.61 0 0 0-.17.982v3.945H63.51v-7.543h1.254l.218 1.329h.075c.15-.268.336-.513.559-.736.222-.223.477-.4.763-.532.29-.136.608-.204.954-.204Zm4.46 0c.954 0 1.674.211 2.16.634.49.422.736 1.08.736 1.976v5.076h-1.138l-.307-1.07h-.054a3.892 3.892 0 0 1-.661.675 2.3 2.3 0 0 1-.79.395c-.296.091-.657.136-1.084.136-.45 0-.852-.081-1.206-.245a1.917 1.917 0 0 1-.838-.763c-.204-.34-.307-.772-.307-1.295 0-.776.289-1.36.866-1.75.581-.392 1.458-.607 2.63-.648l1.308-.048v-.395c0-.523-.123-.895-.368-1.117-.24-.223-.581-.334-1.022-.334a3.71 3.71 0 0 0-1.097.163c-.354.11-.7.243-1.036.402l-.517-1.131a5.808 5.808 0 0 1 1.253-.477 5.83 5.83 0 0 1 1.472-.184Zm1.308 4.082-.974.034c-.8.027-1.36.163-1.683.408-.323.246-.484.582-.484 1.009 0 .372.112.645.334.818.223.168.516.252.879.252.554 0 1.013-.157 1.376-.47.368-.318.552-.784.552-1.397v-.654Zm5.667 3.74c-.9 0-1.622-.327-2.167-.98-.54-.66-.81-1.63-.81-2.91 0-1.295.274-2.274.824-2.937.554-.663 1.283-.995 2.187-.995.381 0 .715.052 1.001.157.287.1.532.236.736.409.21.172.386.365.532.579h.075c-.023-.141-.05-.343-.082-.607a7.393 7.393 0 0 1-.04-.742v-2.712h1.607v10.602h-1.254l-.286-1.029h-.068a2.406 2.406 0 0 1-1.254 1.008 2.88 2.88 0 0 1-1.001.157Zm.45-1.301c.685 0 1.17-.198 1.45-.593.282-.395.428-.988.437-1.778v-.212c0-.844-.136-1.492-.409-1.941-.272-.455-.77-.682-1.492-.682-.577 0-1.018.234-1.322.702-.3.463-.45 1.11-.45 1.942 0 .831.15 1.467.45 1.908.304.436.75.654 1.335.654Zm3.874-6.378h1.744l1.547 4.306c.068.196.13.389.184.58.059.186.109.37.15.552.045.181.082.363.109.545h.04a9.8 9.8 0 0 1 .192-.79c.086-.296.181-.591.286-.886l1.485-4.307h1.724l-3.237 8.579c-.186.49-.415.908-.688 1.254-.268.35-.586.613-.954.79a2.81 2.81 0 0 1-1.26.273 3.76 3.76 0 0 1-.593-.041 4.792 4.792 0 0 1-.43-.075v-1.281a3.619 3.619 0 0 0 .81.089c.288 0 .535-.057.744-.171a1.54 1.54 0 0 0 .532-.484c.145-.204.265-.438.36-.702l.267-.708-3.012-7.523Zm15.298 7.543-2.868-8.32h-.062a48.867 48.867 0 0 1 .096 1.8c.013.367.02.72.02 1.055v5.465h-1.485v-9.962h2.296l2.76 7.952h.04l2.856-7.952h2.289v9.962h-1.56v-5.546c0-.305.004-.634.013-.988l.041-1.009c.018-.318.032-.572.041-.763h-.054l-2.978 8.306H98.39Zm10.743.136c-.713 0-1.331-.138-1.853-.415-.523-.277-.925-.702-1.206-1.274-.282-.573-.423-1.3-.423-2.18 0-.919.155-1.668.464-2.25.308-.58.735-1.01 1.281-1.287.549-.277 1.178-.416 1.887-.416.45 0 .856.045 1.22.136.368.087.679.193.933.32l-.477 1.282a6.952 6.952 0 0 0-.852-.287 3.258 3.258 0 0 0-.838-.115c-.44 0-.808.097-1.103.293-.291.195-.509.486-.655.872-.14.386-.211.865-.211 1.438 0 .554.073 1.022.218 1.403.146.377.361.663.648.859.286.19.638.286 1.056.286.413 0 .783-.05 1.11-.15.327-.1.636-.23.927-.388v1.39a3.434 3.434 0 0 1-.92.36 5.058 5.058 0 0 1-1.206.123Zm4.801-10.738v5.124c0 .231-.009.486-.027.763-.018.273-.036.53-.055.77h.034c.119-.16.259-.345.423-.559.168-.213.327-.4.477-.559l2.303-2.48h1.84l-3.019 3.244 3.216 4.3h-1.88l-2.412-3.312-.9.77v2.541h-1.601V34.025h1.601Zm8.706 2.916c.672 0 1.249.139 1.73.416.482.277.852.67 1.111 1.178.259.51.388 1.118.388 1.827v.858h-5.035c.018.732.213 1.295.586 1.69.377.395.904.593 1.581.593.481 0 .913-.046 1.294-.136a7.204 7.204 0 0 0 1.193-.416v1.301a5.215 5.215 0 0 1-1.152.389c-.39.081-.858.122-1.403.122-.741 0-1.393-.143-1.956-.429a3.138 3.138 0 0 1-1.315-1.295c-.314-.572-.47-1.283-.47-2.132 0-.845.143-1.563.429-2.153.286-.591.688-1.04 1.206-1.35.518-.309 1.122-.463 1.813-.463Zm0 1.206c-.505 0-.914.164-1.227.49-.309.328-.491.807-.545 1.438h3.434a2.625 2.625 0 0 0-.191-1.001 1.448 1.448 0 0 0-.545-.682c-.241-.163-.549-.245-.926-.245Zm8.269-1.206c.849 0 1.51.22 1.983.661.477.436.715 1.138.715 2.106v4.92h-1.601v-4.62c0-.587-.12-1.025-.361-1.316-.241-.295-.613-.443-1.118-.443-.731 0-1.24.225-1.526.675-.282.45-.422 1.102-.422 1.956v3.747h-1.602v-7.543h1.247l.225 1.022h.089c.163-.263.365-.479.606-.647a2.71 2.71 0 0 1 .818-.388c.304-.087.62-.13.947-.13Zm8.174 0c.849 0 1.51.22 1.983.661.477.436.715 1.138.715 2.106v4.92h-1.601v-4.62c0-.587-.121-1.025-.361-1.316-.241-.295-.614-.443-1.118-.443-.731 0-1.24.225-1.526.675-.282.45-.423 1.102-.423 1.956v3.747h-1.601v-7.543h1.247l.225 1.022h.089c.163-.263.365-.479.606-.647a2.71 2.71 0 0 1 .818-.388c.304-.087.62-.13.947-.13Zm7.199 0c.954 0 1.674.211 2.16.634.491.422.736 1.08.736 1.976v5.076h-1.138l-.306-1.07h-.055a3.879 3.879 0 0 1-.661.675 2.3 2.3 0 0 1-.79.395c-.295.091-.657.136-1.084.136-.449 0-.851-.081-1.206-.245a1.921 1.921 0 0 1-.838-.763c-.204-.34-.306-.772-.306-1.295 0-.776.288-1.36.865-1.75.581-.392 1.458-.607 2.63-.648l1.308-.048v-.395c0-.523-.122-.895-.368-1.117-.24-.223-.581-.334-1.022-.334-.377 0-.742.054-1.097.163a7.745 7.745 0 0 0-1.035.402l-.518-1.131a5.808 5.808 0 0 1 1.254-.477 5.827 5.827 0 0 1 1.471-.184Zm1.309 4.082-.975.034c-.799.027-1.36.163-1.683.408-.322.246-.484.582-.484 1.009 0 .372.112.645.334.818.223.168.516.252.879.252.554 0 1.013-.157 1.377-.47.368-.318.552-.784.552-1.397v-.654Zm4.746 1.982.095.157c-.081.327-.186.68-.313 1.056-.127.377-.266.754-.416 1.131-.149.382-.302.74-.456 1.077h-1.172c.095-.368.186-.754.272-1.158.091-.4.173-.795.246-1.186.077-.395.138-.754.184-1.077h1.56Zm8.825-7.093c-.477 0-.904.087-1.281.26a2.578 2.578 0 0 0-.947.749 3.395 3.395 0 0 0-.593 1.178 5.464 5.464 0 0 0-.204 1.554c0 .772.109 1.438.327 1.997.218.554.55.98.995 1.28.445.296 1.008.443 1.69.443.422 0 .833-.04 1.233-.122.4-.082.813-.193 1.24-.334v1.39a6.348 6.348 0 0 1-1.226.347 8.349 8.349 0 0 1-1.431.11c-1.018 0-1.863-.212-2.535-.634-.668-.423-1.167-1.018-1.499-1.786-.327-.767-.491-1.667-.491-2.698 0-.754.105-1.444.314-2.071a4.641 4.641 0 0 1 .913-1.622c.4-.459.893-.81 1.479-1.056.59-.25 1.265-.375 2.023-.375.5 0 .991.057 1.472.17a5.98 5.98 0 0 1 1.349.47l-.572 1.35a8.377 8.377 0 0 0-1.084-.423 3.894 3.894 0 0 0-1.172-.177Zm5.34-1.887v2.664c0 .277-.009.547-.027.81-.014.264-.03.469-.048.614h.088c.159-.263.355-.48.586-.647.232-.173.491-.302.777-.389.291-.086.6-.13.927-.13.577 0 1.067.099 1.472.294.404.19.713.488.926.892.218.405.327.93.327 1.575v4.92h-1.601v-4.62c0-.587-.12-1.025-.361-1.316-.241-.295-.613-.443-1.117-.443-.487 0-.873.103-1.159.307-.281.2-.484.497-.606.893-.123.39-.184.867-.184 1.43v3.748h-1.601V34.025h1.601Zm9.53 2.916c.954 0 1.674.211 2.16.634.49.422.736 1.08.736 1.976v5.076h-1.138l-.307-1.07h-.055a3.875 3.875 0 0 1-.66.675 2.317 2.317 0 0 1-.791.395c-.295.091-.656.136-1.083.136-.45 0-.852-.081-1.206-.245a1.91 1.91 0 0 1-.838-.763c-.205-.34-.307-.772-.307-1.295 0-.776.288-1.36.865-1.75.582-.392 1.458-.607 2.63-.648l1.309-.048v-.395c0-.523-.123-.895-.368-1.117-.241-.223-.582-.334-1.022-.334-.377 0-.743.054-1.097.163-.355.11-.7.243-1.036.402l-.518-1.131a5.808 5.808 0 0 1 1.254-.477 5.83 5.83 0 0 1 1.472-.184Zm1.308 4.082-.974.034c-.8.027-1.361.163-1.683.408-.323.246-.484.582-.484 1.009 0 .372.111.645.334.818.222.168.515.252.879.252.554 0 1.013-.157 1.376-.47.368-.318.552-.784.552-1.397v-.654Zm7.063-4.082c.85 0 1.511.22 1.983.661.477.436.715 1.138.715 2.106v4.92H185.5v-4.62c0-.587-.12-1.025-.361-1.316-.241-.295-.613-.443-1.117-.443-.732 0-1.241.225-1.527.675-.281.45-.422 1.102-.422 1.956v3.747h-1.601v-7.543h1.247l.224 1.022h.089c.163-.263.366-.479.606-.647.246-.173.518-.302.818-.388.304-.087.62-.13.947-.13Zm7.05 6.528c.209 0 .415-.018.62-.055.204-.04.391-.088.559-.143v1.213a3.362 3.362 0 0 1-.689.198 4.6 4.6 0 0 1-.879.081c-.427 0-.81-.07-1.151-.21a1.684 1.684 0 0 1-.811-.743c-.2-.35-.3-.834-.3-1.452v-4.054h-1.029v-.716l1.104-.565.525-1.615h1.008v1.676h2.16v1.22h-2.16v4.034c0 .381.096.665.286.851.191.187.443.28.757.28Zm5.019-6.528c.672 0 1.249.139 1.731.416.481.277.851.67 1.11 1.178.259.51.389 1.118.389 1.827v.858h-5.036c.018.732.214 1.295.586 1.69.377.395.904.593 1.581.593.482 0 .913-.046 1.295-.136a7.195 7.195 0 0 0 1.192-.416v1.301a5.225 5.225 0 0 1-1.151.389 6.96 6.96 0 0 1-1.404.122c-.741 0-1.392-.143-1.956-.429a3.144 3.144 0 0 1-1.315-1.295c-.313-.572-.47-1.283-.47-2.132 0-.845.143-1.563.429-2.153.287-.591.689-1.04 1.206-1.35.518-.309 1.122-.463 1.813-.463Zm0 1.206c-.504 0-.913.164-1.227.49-.308.328-.49.807-.545 1.438h3.434a2.644 2.644 0 0 0-.19-1.001c-.118-.29-.3-.518-.545-.682-.241-.163-.55-.245-.927-.245Zm5.946 6.48h-1.608V34.025h1.608v10.602Zm3.199 0h-1.608V34.025h1.608v10.602Zm4.597-7.686c.672 0 1.249.139 1.731.416.481.277.852.67 1.11 1.178.259.51.389 1.118.389 1.827v.858h-5.036c.019.732.214 1.295.586 1.69.377.395.904.593 1.581.593.482 0 .913-.046 1.295-.136a7.195 7.195 0 0 0 1.192-.416v1.301a5.225 5.225 0 0 1-1.151.389 6.96 6.96 0 0 1-1.404.122c-.74 0-1.392-.143-1.955-.429a3.14 3.14 0 0 1-1.316-1.295c-.313-.572-.47-1.283-.47-2.132 0-.845.143-1.563.43-2.153.286-.591.688-1.04 1.206-1.35.517-.309 1.122-.463 1.812-.463Zm0 1.206c-.504 0-.913.164-1.226.49-.309.328-.491.807-.546 1.438h3.435a2.644 2.644 0 0 0-.191-1.001c-.118-.29-.3-.518-.545-.682-.241-.163-.55-.245-.927-.245Zm13.602 6.48-.974-2.766h-3.809l-.975 2.766h-1.724l3.707-10.003h1.813l3.699 10.003h-1.737Zm-1.397-4.17-.947-2.726c-.036-.118-.089-.283-.157-.497a120.199 120.199 0 0 1-.375-1.233 13.8 13.8 0 0 1-.17.627c-.063.227-.127.44-.191.64l-.136.463-.954 2.726h2.93Zm5.19-6.432v5.124c0 .231-.01.486-.028.763-.018.273-.036.53-.054.77h.034c.118-.16.259-.345.422-.559.168-.213.327-.4.477-.559l2.303-2.48h1.84l-3.018 3.244 3.216 4.3h-1.881l-2.412-3.312-.899.77v2.541h-1.602V34.025h1.602Zm7.301 0v2.664c0 .277-.009.547-.027.81-.014.264-.03.469-.048.614h.089c.159-.263.354-.48.586-.647.232-.173.49-.302.777-.389.29-.086.599-.13.926-.13.577 0 1.068.099 1.472.294.404.19.713.488.927.892.218.405.327.93.327 1.575v4.92h-1.601v-4.62c0-.587-.121-1.025-.361-1.316-.241-.295-.614-.443-1.118-.443-.486 0-.872.103-1.158.307-.282.2-.484.497-.607.893-.122.39-.184.867-.184 1.43v3.748h-1.601V34.025h1.601Zm6.341 9.757c0-.372.096-.633.286-.783a1.11 1.11 0 0 1 .709-.232c.277 0 .513.077.709.232.2.15.3.41.3.783 0 .364-.1.627-.3.79a1.089 1.089 0 0 1-.709.24c-.277 0-.513-.08-.709-.24-.19-.163-.286-.426-.286-.79Zm3.132 0c0-.372.095-.633.286-.783.195-.155.432-.232.709-.232.277 0 .513.077.708.232.2.15.3.41.3.783 0 .364-.1.627-.3.79a1.084 1.084 0 0 1-.708.24c-.277 0-.514-.08-.709-.24-.191-.163-.286-.426-.286-.79Zm3.132 0c0-.372.095-.633.286-.783.195-.155.431-.232.708-.232.277 0 .514.077.709.232.2.15.3.41.3.783 0 .364-.1.627-.3.79a1.087 1.087 0 0 1-.709.24 1.08 1.08 0 0 1-.708-.24c-.191-.163-.286-.426-.286-.79Z"/>
  <circle cx="34.475" cy="65.865" r="1.469" fill="#785E76"/>
  <circle cx="39.175" cy="65.865" r="1.469" fill="#785E76"/>
  <circle cx="43.876" cy="65.865" r="1.469" fill="#785E76"/>
  <path fill="#fff" d="M57.93 71.317h-2.077v-9.962h5.71v1.73H57.93v2.57h3.38v1.723h-3.38v3.939Zm8.972-7.761c.105 0 .225.006.361.02.141.01.254.023.34.04l-.156 1.95a1.26 1.26 0 0 0-.293-.048 2.958 2.958 0 0 0-.32-.02c-.268 0-.53.034-.784.102-.25.068-.474.18-.674.334-.2.15-.36.35-.477.6-.114.245-.17.547-.17.905v3.878H62.65v-7.618h1.574l.307 1.28h.102c.15-.258.336-.494.559-.708a2.67 2.67 0 0 1 .77-.518c.29-.132.604-.197.94-.197Zm4.508-.014c1.022 0 1.806.223 2.35.668.546.445.819 1.122.819 2.03v5.077h-1.452l-.402-1.036h-.054a3.86 3.86 0 0 1-.668.668 2.29 2.29 0 0 1-.784.381 4.082 4.082 0 0 1-1.076.123c-.45 0-.854-.086-1.213-.26a1.926 1.926 0 0 1-.838-.79c-.205-.358-.307-.813-.307-1.362 0-.809.284-1.404.852-1.785.568-.387 1.42-.6 2.555-.641l1.322-.04v-.335c0-.4-.105-.692-.313-.879-.21-.186-.5-.28-.873-.28a3.79 3.79 0 0 0-1.083.158 8.4 8.4 0 0 0-1.063.395l-.688-1.404a5.912 5.912 0 0 1 1.356-.504 6.58 6.58 0 0 1 1.56-.184Zm1.104 4.245-.804.027c-.672.018-1.14.139-1.404.361-.259.223-.388.516-.388.88 0 .317.093.544.28.68.185.133.428.198.728.198.445 0 .82-.131 1.125-.395.308-.263.463-.638.463-1.124v-.627Zm7.84-4.231c.813 0 1.467.222 1.962.667.495.441.743 1.15.743 2.126v4.968h-2.078v-4.45c0-.545-.1-.956-.3-1.233-.195-.277-.504-.416-.927-.416-.636 0-1.07.216-1.301.647-.232.432-.348 1.054-.348 1.868v3.584h-2.078v-7.618h1.588l.28.974h.115a2.1 2.1 0 0 1 .606-.64c.246-.164.516-.284.811-.362.3-.077.609-.115.927-.115Zm6.225-2.842v4.743c0 .286-.011.572-.034.858-.023.286-.048.573-.075.859h.027c.141-.2.284-.398.43-.593.15-.195.308-.384.477-.566l2.132-2.316h2.344l-3.025 3.304 3.21 4.314h-2.4l-2.193-3.087-.893.715v2.372h-2.078V60.714h2.078Zm7.956 10.603h-2.078V60.714h2.078v10.603Zm3.568-7.618v7.618h-2.078v-7.618h2.078Zm-1.036-2.985c.309 0 .575.073.797.218.223.141.334.407.334.797 0 .387-.111.655-.334.804a1.425 1.425 0 0 1-.797.219c-.313 0-.581-.073-.804-.219-.218-.15-.327-.417-.327-.803 0-.391.109-.657.327-.798.222-.145.49-.218.804-.218Zm6.852 2.842c.813 0 1.467.222 1.962.667.496.441.743 1.15.743 2.126v4.968h-2.078v-4.45c0-.545-.1-.956-.3-1.233-.195-.277-.504-.416-.927-.416-.636 0-1.069.216-1.301.647-.232.432-.348 1.054-.348 1.868v3.584h-2.078v-7.618h1.588l.279.974h.116c.164-.263.366-.477.606-.64.246-.164.516-.284.811-.362.3-.077.609-.115.927-.115Z"/>
  <rect width="22.768" height="16.974" x="230.87" y="56.317" fill="#EBE7EC" rx="8.487"/>
  <path fill="#3B103D" d="M240.805 68.569v-1.09h1.634V62.82l-1.264.76-.514-.966 2.159-1.295h.936v6.159h1.532v1.09h-4.483Z"/>
  <g clip-path="url(#b)">
    <rect width="19.096" height="19.096" x="29.627" y="82.757" fill="#fff" rx="4.407"/>
    <circle cx="39.175" cy="90.442" r="4.012" fill="#D12B5C"/>
    <path fill="#D12B5C" d="M30.518 101.854a6.555 6.555 0 0 1 6.555-6.555h4.205a6.555 6.555 0 0 1 6.555 6.555H30.518Z"/>
  </g>
  <path fill="#BBADBC" d="M58.708 87.795c.858 0 1.567.105 2.126.314.563.209.98.527 1.253.954.277.427.416.97.416 1.628 0 .49-.09.909-.273 1.254-.181.345-.42.632-.715.859a4.036 4.036 0 0 1-.947.545l2.828 4.408h-1.847l-2.405-3.993h-1.602v3.993h-1.635v-9.962h2.8Zm-.11 1.363h-1.056v3.257h1.132c.758 0 1.308-.14 1.648-.422.346-.282.518-.698.518-1.247 0-.577-.184-.986-.552-1.227-.363-.24-.926-.36-1.69-.36Zm6.962 1.056v7.543h-1.602v-7.543h1.602Zm-.79-2.889c.245 0 .456.066.633.198.182.132.272.359.272.681 0 .318-.09.545-.272.682a1.032 1.032 0 0 1-.634.197c-.254 0-.47-.066-.647-.197-.173-.137-.259-.364-.259-.682 0-.322.086-.55.259-.681.177-.132.393-.198.647-.198Zm5.427 10.569c-.713 0-1.33-.139-1.853-.416-.523-.277-.925-.702-1.206-1.274-.282-.573-.423-1.3-.423-2.18 0-.918.155-1.668.464-2.25.308-.58.736-1.01 1.28-1.287.55-.277 1.18-.416 1.888-.416.45 0 .856.046 1.22.136.368.087.679.194.933.32l-.477 1.282a6.936 6.936 0 0 0-.851-.286 3.26 3.26 0 0 0-.838-.116c-.441 0-.81.097-1.104.293-.291.195-.51.486-.654.872-.141.386-.212.865-.212 1.438 0 .554.073 1.022.218 1.403.146.377.361.663.648.859.286.19.638.286 1.056.286.413 0 .783-.05 1.11-.15.328-.1.636-.23.927-.388v1.39a3.435 3.435 0 0 1-.92.36 5.053 5.053 0 0 1-1.206.124Zm9.878-3.925c0 .627-.082 1.183-.246 1.67a3.344 3.344 0 0 1-.715 1.233c-.314.331-.69.585-1.131.763-.44.172-.938.258-1.493.258-.517 0-.992-.086-1.424-.258a3.248 3.248 0 0 1-1.124-.764 3.498 3.498 0 0 1-.729-1.233c-.173-.486-.259-1.042-.259-1.67 0-.83.143-1.535.43-2.112a3.058 3.058 0 0 1 1.24-1.328c.535-.305 1.174-.457 1.914-.457.695 0 1.308.152 1.84.457.531.304.947.747 1.247 1.328.3.582.45 1.286.45 2.113Zm-5.472 0c0 .55.066 1.02.198 1.41.136.39.345.69.626.9.282.204.646.306 1.09.306.446 0 .81-.102 1.09-.306.283-.21.49-.51.621-.9.132-.39.198-.86.198-1.41 0-.55-.066-1.015-.198-1.397-.132-.386-.338-.68-.62-.88-.282-.203-.647-.306-1.097-.306-.663 0-1.147.223-1.451.668-.305.445-.457 1.084-.457 1.915Zm12.6-6.174c1.286 0 2.224.264 2.814.79.59.528.886 1.266.886 2.215 0 .432-.068.843-.204 1.234-.132.386-.35.729-.654 1.028-.305.296-.707.53-1.206.702-.496.173-1.107.26-1.833.26h-1.063v3.733h-1.636v-9.962h2.896Zm-.109 1.356h-1.151v3.51h.892c.514 0 .95-.06 1.309-.178.358-.122.631-.315.817-.579.186-.263.28-.61.28-1.042 0-.577-.175-1.007-.525-1.288-.345-.282-.886-.423-1.622-.423Zm7.895.92c.954 0 1.674.211 2.16.634.49.422.736 1.081.736 1.976v5.076h-1.138l-.307-1.07h-.054a3.897 3.897 0 0 1-.661.675 2.31 2.31 0 0 1-.79.395c-.296.091-.657.136-1.084.136-.45 0-.852-.081-1.206-.245a1.916 1.916 0 0 1-.838-.763c-.205-.34-.307-.772-.307-1.294 0-.777.288-1.361.865-1.752.582-.39 1.459-.606 2.63-.647l1.309-.048v-.395c0-.522-.123-.895-.368-1.117-.24-.223-.582-.334-1.022-.334a3.71 3.71 0 0 0-1.097.163c-.354.11-.7.243-1.036.402l-.518-1.13a5.803 5.803 0 0 1 1.254-.478 5.83 5.83 0 0 1 1.472-.184Zm1.308 4.082-.974.034c-.8.027-1.36.163-1.683.409-.323.245-.484.581-.484 1.008 0 .373.111.645.334.818.222.168.515.252.879.252.554 0 1.013-.157 1.376-.47.368-.318.552-.784.552-1.397v-.654Zm6.954-4.082a4.601 4.601 0 0 1 .804.075l-.15 1.5a2.012 2.012 0 0 0-.354-.062 3.737 3.737 0 0 0-.368-.02c-.286 0-.559.047-.818.143a1.932 1.932 0 0 0-1.158 1.124c-.113.281-.17.608-.17.981v3.945h-1.608v-7.543h1.253l.218 1.329h.075c.15-.268.337-.513.559-.736.223-.222.477-.4.763-.531.291-.137.609-.205.954-.205Zm3.105-2.916v5.124c0 .232-.009.486-.028.763-.018.273-.036.53-.054.77h.034c.118-.159.259-.345.422-.559.168-.213.327-.4.477-.558l2.303-2.48h1.84l-3.018 3.243 3.216 4.3h-1.881l-2.412-3.312-.899.77v2.541h-1.602V87.155h1.602Z"/>
  <rect width="19.096" height="19.096" x="29.627" y="109.198" fill="#4F2851" rx="3.672"/>
  <path stroke="#BBADBC" stroke-width="2.203" d="M43.949 119.113h-9.548m9.548 0h-9.548m9.548 0h-9.548m4.774-5.141v9.548m0-9.548v9.548m0-9.548v9.548"/>
  <path fill="#BBADBC" d="m62.08 124.198-.974-2.767h-3.809l-.974 2.767h-1.724l3.707-10.003h1.812l3.7 10.003h-1.737Zm-1.396-4.17-.947-2.726a135.029 135.029 0 0 1-.361-1.158 53.239 53.239 0 0 1-.17-.572c-.046.186-.103.395-.171.626a18.65 18.65 0 0 1-.191.641c-.06.2-.105.354-.136.463l-.954 2.726h2.93Zm6.123 4.306c-.9 0-1.622-.327-2.167-.981-.54-.659-.811-1.629-.811-2.91 0-1.294.275-2.273.824-2.936.555-.664 1.284-.995 2.188-.995.381 0 .715.052 1.001.157.287.099.532.236.736.408.21.173.386.366.532.58h.075a16.54 16.54 0 0 1-.082-.607 7.357 7.357 0 0 1-.041-.743v-2.712h1.608v10.603h-1.254l-.286-1.029h-.068a2.41 2.41 0 0 1-1.254 1.008 2.868 2.868 0 0 1-1.001.157Zm.45-1.301c.685 0 1.169-.198 1.45-.593.282-.395.428-.988.437-1.779v-.211c0-.845-.137-1.492-.41-1.942-.272-.454-.769-.681-1.491-.681-.577 0-1.018.234-1.322.702-.3.463-.45 1.11-.45 1.942 0 .831.15 1.467.45 1.908.304.436.75.654 1.335.654Zm7.546 1.301c-.9 0-1.621-.327-2.166-.981-.541-.659-.811-1.629-.811-2.91 0-1.294.275-2.273.824-2.936.554-.664 1.283-.995 2.187-.995.382 0 .716.052 1.002.157.286.099.532.236.736.408.209.173.386.366.531.58h.075c-.022-.141-.05-.343-.081-.607a7.385 7.385 0 0 1-.041-.743v-2.712h1.608v10.603h-1.254l-.286-1.029h-.068a2.41 2.41 0 0 1-1.254 1.008 2.868 2.868 0 0 1-1.002.157Zm.45-1.301c.686 0 1.17-.198 1.451-.593.282-.395.427-.988.437-1.779v-.211c0-.845-.137-1.492-.41-1.942-.272-.454-.77-.681-1.492-.681-.577 0-1.017.234-1.321.702-.3.463-.45 1.11-.45 1.942 0 .831.15 1.467.45 1.908.304.436.75.654 1.335.654ZM86 123.04c.209 0 .416-.019.62-.055.204-.041.39-.089.559-.143v1.213a3.337 3.337 0 0 1-.689.197 4.577 4.577 0 0 1-.878.082 2.99 2.99 0 0 1-1.152-.211 1.683 1.683 0 0 1-.81-.743c-.2-.35-.3-.833-.3-1.451v-4.054h-1.03v-.716l1.104-.565.525-1.615h1.008v1.676h2.16v1.22h-2.16v4.033c0 .382.096.666.287.852.19.186.442.28.756.28Zm5.019-6.528c.672 0 1.25.138 1.73.415.482.278.853.671 1.111 1.179.26.509.389 1.118.389 1.826v.859h-5.036c.019.731.214 1.295.586 1.69.377.395.904.593 1.581.593a5.6 5.6 0 0 0 1.295-.137 7.211 7.211 0 0 0 1.192-.415v1.301c-.377.177-.76.307-1.151.389a7.01 7.01 0 0 1-1.404.122c-.74 0-1.392-.143-1.956-.429a3.14 3.14 0 0 1-1.315-1.295c-.313-.572-.47-1.283-.47-2.132 0-.845.143-1.563.43-2.154.286-.59.688-1.04 1.206-1.349.517-.309 1.122-.463 1.812-.463Zm0 1.206c-.504 0-.913.163-1.227.49-.308.328-.49.807-.545 1.438h3.435a2.637 2.637 0 0 0-.191-1.001 1.455 1.455 0 0 0-.545-.682c-.241-.163-.55-.245-.927-.245Zm7.295-1.206c.954 0 1.674.211 2.16.634.491.422.736 1.081.736 1.976v5.076h-1.138l-.307-1.07h-.054a3.872 3.872 0 0 1-.661.675 2.3 2.3 0 0 1-.79.395c-.296.091-.657.136-1.084.136-.45 0-.852-.082-1.206-.245a1.92 1.92 0 0 1-.838-.763c-.205-.341-.307-.773-.307-1.295 0-.777.289-1.36.866-1.751.581-.391 1.458-.607 2.63-.647l1.308-.048v-.395c0-.523-.123-.895-.368-1.118-.24-.222-.581-.334-1.022-.334a3.71 3.71 0 0 0-1.097.164 7.75 7.75 0 0 0-1.036.402l-.518-1.131a5.74 5.74 0 0 1 1.254-.477 5.818 5.818 0 0 1 1.472-.184Zm1.308 4.081-.974.034c-.8.028-1.36.164-1.683.409-.323.246-.484.582-.484 1.009 0 .372.111.645.334.817.222.168.516.252.879.252.554 0 1.013-.156 1.376-.47.368-.318.552-.783.552-1.397v-.654Zm11.656-4.081c.845 0 1.481.218 1.908.654.431.436.647 1.136.647 2.099v4.933h-1.601v-4.647c0-.573-.111-1.004-.334-1.295-.223-.291-.561-.436-1.015-.436-.636 0-1.095.205-1.377.613-.277.405-.415.993-.415 1.765v4h-1.602v-4.647c0-.382-.049-.7-.149-.954a1.117 1.117 0 0 0-.443-.579c-.2-.132-.452-.198-.757-.198-.44 0-.792.1-1.056.3-.259.2-.445.495-.559.886-.113.386-.17.861-.17 1.424v3.768h-1.601v-7.543h1.247l.225 1.015h.088c.155-.263.345-.479.573-.647.231-.173.488-.3.77-.382.281-.086.574-.129.879-.129.563 0 1.038.1 1.424.3.386.195.674.495.865.899h.123c.236-.409.565-.711.988-.906.422-.196.87-.293 1.342-.293Zm12.617 0c.844 0 1.48.218 1.907.654.432.436.648 1.136.648 2.099v4.933h-1.602v-4.647c0-.573-.111-1.004-.333-1.295-.223-.291-.561-.436-1.016-.436-.636 0-1.094.205-1.376.613-.277.405-.416.993-.416 1.765v4h-1.601v-4.647c0-.382-.05-.7-.15-.954a1.112 1.112 0 0 0-.443-.579c-.2-.132-.452-.198-.756-.198-.441 0-.793.1-1.056.3-.259.2-.445.495-.559.886-.114.386-.17.861-.17 1.424v3.768h-1.602v-7.543h1.247l.225 1.015h.089c.154-.263.345-.479.572-.647.232-.173.488-.3.77-.382.282-.086.575-.129.879-.129.563 0 1.038.1 1.424.3.386.195.675.495.866.899h.122c.236-.409.566-.711.988-.906.423-.196.87-.293 1.343-.293Zm7.049 0c.954 0 1.674.211 2.16.634.491.422.736 1.081.736 1.976v5.076h-1.138l-.306-1.07h-.055a3.861 3.861 0 0 1-.661.675 2.31 2.31 0 0 1-.79.395c-.296.091-.657.136-1.084.136-.449 0-.851-.082-1.206-.245a1.925 1.925 0 0 1-.838-.763c-.204-.341-.307-.773-.307-1.295 0-.777.289-1.36.866-1.751.581-.391 1.458-.607 2.63-.647l1.308-.048v-.395c0-.523-.122-.895-.368-1.118-.24-.222-.581-.334-1.022-.334-.377 0-.742.055-1.097.164a7.811 7.811 0 0 0-1.036.402l-.517-1.131a5.732 5.732 0 0 1 1.253-.477 5.821 5.821 0 0 1 1.472-.184Zm1.308 4.081-.974.034c-.799.028-1.36.164-1.683.409-.322.246-.484.582-.484 1.009 0 .372.112.645.334.817.223.168.516.252.879.252.554 0 1.013-.156 1.377-.47.367-.318.551-.783.551-1.397v-.654Zm5.939 2.447c.209 0 .416-.019.62-.055.205-.041.391-.089.559-.143v1.213a3.323 3.323 0 0 1-.688.197 4.583 4.583 0 0 1-.879.082 2.99 2.99 0 0 1-1.152-.211 1.684 1.684 0 0 1-.81-.743c-.2-.35-.3-.833-.3-1.451v-4.054h-1.029v-.716l1.104-.565.524-1.615h1.009v1.676h2.16v1.22h-2.16v4.033c0 .382.095.666.286.852.191.186.443.28.756.28Zm5.02-6.528c.672 0 1.249.138 1.73.415.482.278.852.671 1.111 1.179.259.509.388 1.118.388 1.826v.859h-5.035c.018.731.213 1.295.586 1.69.377.395.904.593 1.581.593a5.59 5.59 0 0 0 1.294-.137 7.227 7.227 0 0 0 1.193-.415v1.301a5.233 5.233 0 0 1-1.152.389 7.005 7.005 0 0 1-1.403.122c-.741 0-1.393-.143-1.956-.429a3.138 3.138 0 0 1-1.315-1.295c-.314-.572-.47-1.283-.47-2.132 0-.845.143-1.563.429-2.154.286-.59.688-1.04 1.206-1.349.518-.309 1.122-.463 1.813-.463Zm0 1.206c-.505 0-.914.163-1.227.49-.309.328-.491.807-.545 1.438h3.434a2.618 2.618 0 0 0-.191-1.001 1.456 1.456 0 0 0-.545-.682c-.241-.163-.549-.245-.926-.245Zm9.407 4.327c0 .495-.121.913-.361 1.253-.241.341-.593.6-1.057.777-.458.173-1.022.259-1.689.259a6.9 6.9 0 0 1-1.363-.116 4.656 4.656 0 0 1-1.07-.34v-1.384c.359.168.761.314 1.206.436.45.123.875.184 1.274.184.527 0 .907-.081 1.138-.245a.785.785 0 0 0 .348-.668.713.713 0 0 0-.143-.436c-.091-.131-.264-.265-.518-.402a9.837 9.837 0 0 0-1.104-.504 9.197 9.197 0 0 1-1.206-.572 2.104 2.104 0 0 1-.743-.688c-.168-.273-.252-.621-.252-1.043 0-.668.264-1.174.79-1.519.532-.35 1.234-.525 2.106-.525.463 0 .899.048 1.308.143a6.23 6.23 0 0 1 1.213.402l-.504 1.206a7.501 7.501 0 0 0-1.029-.368c-.341-.1-.688-.15-1.043-.15-.413 0-.729.064-.947.191a.602.602 0 0 0-.32.545.67.67 0 0 0 .157.45c.104.122.284.245.538.368.259.122.618.275 1.077.456.449.173.838.355 1.165.545.331.187.586.416.763.689.177.272.266.624.266 1.056Z"/>
  <g filter="url(#c)">
    <circle cx="47.254" cy="95.729" r="3.672" fill="#3B103D"/>
    <circle cx="47.254" cy="95.729" r="2.938" stroke="#BBADBC" stroke-width="1.469"/>
  </g>
  <path fill="#D9D9D9" d="M39.684 157.449a.734.734 0 0 1-1.018 0l-3.311-3.186a.735.735 0 0 1 .509-1.264h6.623c.66 0 .985.805.509 1.264l-3.312 3.186Z"/>
  <path fill="#BBADBC" d="m62.08 160.921-.974-2.766h-3.809l-.974 2.766h-1.724l3.707-10.003h1.812l3.7 10.003h-1.737Zm-1.396-4.17-.947-2.726a108.022 108.022 0 0 1-.361-1.158 53.239 53.239 0 0 1-.17-.572c-.046.186-.103.395-.171.627-.064.227-.127.44-.191.64-.06.2-.105.354-.136.463l-.954 2.726h2.93Zm7.458-3.516c.895 0 1.613.327 2.153.981.545.654.818 1.626.818 2.917 0 .854-.127 1.574-.382 2.16-.25.581-.602 1.022-1.056 1.321-.45.296-.974.443-1.574.443a2.98 2.98 0 0 1-.995-.15 2.462 2.462 0 0 1-.722-.388 2.775 2.775 0 0 1-.504-.531h-.096c.023.181.044.383.062.606.023.218.034.418.034.6v3.073h-1.608v-10.889h1.308l.225 1.043h.075a3.09 3.09 0 0 1 .511-.593c.204-.182.45-.325.736-.429a2.88 2.88 0 0 1 1.015-.164Zm-.43 1.308c-.44 0-.794.089-1.062.266-.264.173-.457.434-.58.784-.117.349-.181.788-.19 1.315v.225c0 .558.057 1.033.17 1.424.118.386.311.681.58.885.272.2.64.3 1.103.3.391 0 .713-.106.968-.32.259-.213.452-.518.579-.913.127-.395.19-.861.19-1.397 0-.813-.144-1.444-.435-1.894-.286-.45-.727-.675-1.322-.675Zm8.427-1.308c.895 0 1.612.327 2.153.981.545.654.818 1.626.818 2.917 0 .854-.127 1.574-.382 2.16-.25.581-.602 1.022-1.056 1.321-.45.296-.974.443-1.574.443-.382 0-.713-.05-.995-.15a2.46 2.46 0 0 1-.722-.388 2.772 2.772 0 0 1-.504-.531h-.096c.023.181.043.383.062.606.022.218.034.418.034.6v3.073h-1.608v-10.889h1.308l.225 1.043h.075c.14-.214.31-.411.51-.593a2.25 2.25 0 0 1 .737-.429 2.88 2.88 0 0 1 1.015-.164Zm-.43 1.308c-.44 0-.794.089-1.062.266-.264.173-.457.434-.58.784-.118.349-.181.788-.19 1.315v.225c0 .558.056 1.033.17 1.424.118.386.311.681.58.885.272.2.64.3 1.103.3.39 0 .713-.106.968-.32.259-.213.452-.518.579-.913.127-.395.19-.861.19-1.397 0-.813-.145-1.444-.436-1.894-.286-.45-.726-.675-1.321-.675Zm9.626 4.225c0 .495-.12.913-.361 1.254-.241.34-.593.599-1.056.776-.46.173-1.023.259-1.69.259a6.99 6.99 0 0 1-1.363-.115 4.707 4.707 0 0 1-1.07-.341v-1.383a7.7 7.7 0 0 0 1.206.436c.45.122.875.184 1.274.184.527 0 .907-.082 1.138-.246a.785.785 0 0 0 .348-.667.706.706 0 0 0-.143-.436c-.091-.132-.264-.266-.518-.402a9.968 9.968 0 0 0-1.104-.505 9.205 9.205 0 0 1-1.206-.572 2.104 2.104 0 0 1-.743-.688c-.168-.273-.252-.62-.252-1.043 0-.668.264-1.174.79-1.519.532-.35 1.234-.525 2.106-.525.463 0 .9.048 1.308.143a6.23 6.23 0 0 1 1.213.402l-.504 1.206a7.61 7.61 0 0 0-1.029-.368c-.34-.1-.688-.15-1.042-.15-.414 0-.73.064-.948.191a.601.601 0 0 0-.32.545.67.67 0 0 0 .157.45c.104.123.284.245.538.368.26.123.618.275 1.077.456.45.173.838.355 1.165.546.332.186.586.415.763.688.177.272.266.624.266 1.056Z"/>
  <rect width="19.096" height="19.096" x="29.627" y="172.362" fill="#fff" rx="4.407"/>
  <path fill="#17D4A7" d="M37.68 178.004a1.497 1.497 0 0 1 1.936-.355c.207.124.38.295.505.501a17.746 17.746 0 0 1 4.83-.763 7.326 7.326 0 0 0-11.286-.322c1.368.166 2.715.481 4.016.939Zm4.125 4.773h.075a.95.95 0 0 1 .55.171c1.238-1.055 2.336-2.472 3.295-4.251l.03-.053c-.14-.28-.209-.366-.383-.625h-.404a17.233 17.233 0 0 0-4.653.735c.002.03.002.06 0 .09 0 .339-.125.667-.352.919.485.672.934 1.37 1.346 2.09.175.311.34.619.496.924Zm-2.362-2.65a1.502 1.502 0 0 1-1.693-.364c-1.85.937-3.786 2.423-5.097 4.779.892.339 1.826.555 2.776.641a.881.881 0 0 1 1.265-.349.89.89 0 0 1 .324.364h.079a9.035 9.035 0 0 0 3.918-1.237.827.827 0 0 1 .015-.634.874.874 0 0 1 .198-.285 22.132 22.132 0 0 0-1.785-2.915Z"/>
  <path fill="#17D4A7" d="M42.49 188.4c.157-1.253-.125-2.591-.6-3.86h-.01a.934.934 0 0 1-.46-.119 9.593 9.593 0 0 1-4.305 1.395h-.079a.881.881 0 0 1-.825.548.888.888 0 0 1-.815-.563 10.727 10.727 0 0 1-2.79-.614 7.339 7.339 0 0 0 4.256 3.693 7.347 7.347 0 0 0 5.618-.412l.01-.068Zm3.573-9.032a15.01 15.01 0 0 1-3.289 4.082c.019.069.028.14.028.211a.876.876 0 0 1-.316.668c.512 1.367.734 2.626.663 3.766a7.34 7.34 0 0 0 2.914-8.727Zm-8.621-.158a1.332 1.332 0 0 1-.026-.627 18.554 18.554 0 0 0-4.214-.937 7.344 7.344 0 0 0-1.034 6.475c1.19-2.082 2.977-3.748 5.274-4.911Z"/>
  <path fill="#fff" d="M59.927 181.952h3.72v5.001c-.522.173-1.062.307-1.621.402a11.28 11.28 0 0 1-1.88.143c-1.014 0-1.872-.2-2.576-.6-.7-.404-1.231-.988-1.595-1.751-.363-.767-.545-1.692-.545-2.773 0-1.04.202-1.942.607-2.705a4.218 4.218 0 0 1 1.764-1.779c.773-.422 1.708-.633 2.808-.633.54 0 1.063.054 1.567.163.509.105.974.25 1.397.436l-.573 1.35a6.455 6.455 0 0 0-1.13-.402 5.136 5.136 0 0 0-1.302-.164c-.713 0-1.329.154-1.847.463a3.067 3.067 0 0 0-1.185 1.309c-.277.558-.416 1.219-.416 1.982 0 .741.111 1.39.334 1.949.222.559.57.995 1.042 1.308.477.309 1.093.464 1.847.464.377 0 .697-.021.96-.062.264-.04.507-.086.73-.136v-2.569h-2.106v-1.396Zm6.852 5.41h-1.608v-10.603h1.608v10.603Zm8.27-3.789c0 .627-.082 1.184-.246 1.67a3.343 3.343 0 0 1-.715 1.233c-.313.332-.69.586-1.131.763-.44.173-.938.259-1.492.259a3.8 3.8 0 0 1-1.425-.259 3.24 3.24 0 0 1-1.124-.763 3.495 3.495 0 0 1-.729-1.233c-.172-.486-.259-1.043-.259-1.67 0-.831.143-1.535.43-2.112a3.059 3.059 0 0 1 1.24-1.329c.536-.304 1.174-.456 1.914-.456.695 0 1.308.152 1.84.456.531.305.947.747 1.247 1.329.3.581.45 1.285.45 2.112Zm-5.472 0c0 .55.066 1.02.198 1.411.136.39.345.69.627.899.281.205.645.307 1.09.307.445 0 .808-.102 1.09-.307.282-.209.488-.509.62-.899.132-.391.198-.861.198-1.411 0-.549-.066-1.015-.198-1.397-.132-.386-.338-.679-.62-.879-.282-.204-.647-.306-1.097-.306-.663 0-1.147.222-1.451.668-.305.445-.457 1.083-.457 1.914Zm8.215-6.814v2.556c0 .295-.01.586-.027.872-.014.281-.028.502-.041.661h.068c.204-.327.488-.602.852-.825.368-.227.838-.34 1.41-.34.895 0 1.615.329 2.16.988.545.654.818 1.624.818 2.909 0 .854-.125 1.572-.375 2.153-.25.582-.602 1.022-1.056 1.322-.45.295-.98.443-1.588.443-.572 0-1.035-.104-1.39-.313a2.745 2.745 0 0 1-.824-.743h-.116l-.293.92h-1.2v-10.603h1.602Zm1.84 4.225c-.455 0-.816.091-1.084.273-.263.181-.454.454-.572.817-.118.359-.18.816-.184 1.37v.143c0 .84.132 1.483.395 1.928.268.445.754.668 1.458.668.559 0 .988-.225 1.288-.675.3-.454.45-1.103.45-1.948 0-.854-.15-1.497-.45-1.929-.295-.431-.729-.647-1.301-.647Zm7.513-1.308c.954 0 1.674.211 2.16.633.49.423.735 1.082.735 1.976v5.077h-1.137l-.307-1.07h-.055a3.908 3.908 0 0 1-.66.675 2.337 2.337 0 0 1-.79.395c-.296.091-.657.136-1.084.136-.45 0-.852-.082-1.206-.245a1.92 1.92 0 0 1-.838-.763c-.205-.341-.307-.773-.307-1.295 0-.777.288-1.361.865-1.751.582-.391 1.459-.607 2.63-.648l1.309-.047v-.395c0-.523-.123-.895-.368-1.118-.241-.222-.582-.334-1.022-.334a3.71 3.71 0 0 0-1.097.164c-.355.109-.7.243-1.036.402l-.518-1.131a5.74 5.74 0 0 1 1.254-.477 5.818 5.818 0 0 1 1.472-.184Zm1.308 4.081-.975.034c-.799.028-1.36.164-1.682.409-.323.245-.484.582-.484 1.009 0 .372.111.645.334.817.222.168.515.252.879.252.554 0 1.013-.156 1.376-.47.368-.318.552-.783.552-1.397v-.654Zm4.74 3.605h-1.608v-10.603h1.608v10.603Zm5.462-7.686c.894 0 1.612.327 2.153.981.545.654.817 1.626.817 2.916 0 .854-.127 1.574-.381 2.16-.25.582-.602 1.022-1.056 1.322-.45.295-.975.443-1.574.443-.382 0-.713-.05-.995-.15a2.485 2.485 0 0 1-.722-.388 2.78 2.78 0 0 1-.505-.532h-.095c.023.182.043.384.061.607.023.218.034.418.034.599v3.073h-1.608v-10.888h1.309l.224 1.042h.075c.141-.213.312-.411.511-.592.205-.182.45-.325.736-.43.291-.109.63-.163 1.016-.163Zm-.43 1.308c-.44 0-.795.089-1.063.266-.263.172-.456.434-.579.783-.118.35-.181.788-.19 1.315v.225c0 .559.056 1.034.17 1.424.118.386.31.682.579.886.273.2.64.3 1.104.3.39 0 .713-.107.967-.32.26-.214.452-.518.58-.913.127-.396.19-.861.19-1.397 0-.813-.145-1.445-.436-1.894-.286-.45-.727-.675-1.322-.675Zm6.157-1.165v7.543h-1.601v-7.543h1.601Zm-.79-2.889c.245 0 .456.066.634.197.181.132.272.359.272.682 0 .318-.091.545-.272.681a1.034 1.034 0 0 1-.634.198c-.254 0-.47-.066-.647-.198-.173-.136-.259-.363-.259-.681 0-.323.086-.55.259-.682.177-.131.393-.197.647-.197Zm6.32 2.746c.85 0 1.511.22 1.983.661.477.436.716 1.138.716 2.105v4.92h-1.601v-4.62c0-.586-.121-1.024-.362-1.315-.24-.295-.613-.443-1.117-.443-.731 0-1.24.225-1.526.675-.282.449-.423 1.101-.423 1.955v3.748h-1.601v-7.543h1.247l.225 1.022h.088c.164-.264.366-.479.607-.647a2.7 2.7 0 0 1 .817-.389 3.47 3.47 0 0 1 .947-.129Zm6.396 11.038c-1.022 0-1.806-.184-2.351-.552-.545-.368-.817-.883-.817-1.546 0-.464.145-.857.436-1.179.29-.318.706-.539 1.247-.661a1.39 1.39 0 0 1-.532-.423 1.06 1.06 0 0 1-.218-.647c0-.282.08-.522.239-.722.159-.2.397-.393.715-.579a2.087 2.087 0 0 1-.954-.818c-.236-.382-.354-.829-.354-1.342 0-.546.116-1.009.347-1.39.232-.387.57-.68 1.015-.879.446-.205.984-.307 1.615-.307.137 0 .284.009.443.027.164.014.314.032.45.055.141.018.248.038.32.061h2.61v.893l-1.281.238a2.238 2.238 0 0 1 .402 1.308c0 .782-.27 1.397-.811 1.847-.536.445-1.276.668-2.221.668a7.68 7.68 0 0 1-.661-.055c-.164.1-.289.211-.375.334a.665.665 0 0 0-.129.402c0 .123.043.223.129.3a.87.87 0 0 0 .382.163c.172.037.381.055.627.055h1.301c.827 0 1.458.175 1.894.525.436.349.654.863.654 1.54 0 .858-.354 1.519-1.063 1.982-.708.468-1.728.702-3.059.702Zm.061-1.124c.559 0 1.029-.055 1.411-.164.381-.109.67-.265.865-.47a.989.989 0 0 0 .293-.715c0-.246-.061-.434-.184-.566-.122-.132-.306-.222-.552-.272a4.666 4.666 0 0 0-.913-.075h-1.185c-.296 0-.557.045-.784.136a1.211 1.211 0 0 0-.531.409c-.123.177-.184.39-.184.64 0 .346.152.611.456.798.309.186.745.279 1.308.279Zm.314-5.874c.468 0 .815-.127 1.042-.381.227-.259.341-.623.341-1.09 0-.509-.118-.891-.354-1.145-.232-.255-.577-.382-1.036-.382-.45 0-.793.13-1.029.389-.232.259-.347.642-.347 1.151 0 .459.115.818.347 1.077.236.254.581.381 1.036.381Z"/>
  <rect width="19.096" height="19.096" x="29.627" y="198.802" fill="#4F2851" rx="3.672"/>
  <path stroke="#BBADBC" stroke-width="2.203" d="M43.949 208.717h-9.548m9.548 0h-9.548m9.548 0h-9.548m4.774-5.141v9.548m0-9.548v9.548m0-9.548v9.548"/>
  <path fill="#BBADBC" d="m62.08 213.802-.974-2.766h-3.809l-.974 2.766h-1.724l3.707-10.002h1.812l3.7 10.002h-1.737Zm-1.396-4.17-.947-2.725a108.022 108.022 0 0 1-.361-1.159 53.239 53.239 0 0 1-.17-.572c-.046.186-.103.395-.171.627a18.57 18.57 0 0 1-.191.64c-.06.2-.105.355-.136.464l-.954 2.725h2.93Zm6.123 4.307c-.9 0-1.622-.327-2.167-.982-.54-.658-.811-1.628-.811-2.909 0-1.295.275-2.274.824-2.937.555-.663 1.284-.995 2.188-.995.381 0 .715.053 1.001.157.287.1.532.236.736.409.21.172.386.366.532.579h.075a16.38 16.38 0 0 1-.082-.606 7.373 7.373 0 0 1-.041-.743V203.2h1.608v10.602h-1.254l-.286-1.029h-.068a2.411 2.411 0 0 1-1.254 1.009 2.891 2.891 0 0 1-1.001.157Zm.45-1.302c.685 0 1.169-.197 1.45-.593.282-.395.428-.988.437-1.778v-.211c0-.845-.137-1.492-.41-1.942-.272-.454-.769-.682-1.491-.682-.577 0-1.018.234-1.322.702-.3.464-.45 1.111-.45 1.942s.15 1.467.45 1.908c.304.436.75.654 1.335.654Zm7.546 1.302c-.9 0-1.621-.327-2.166-.982-.541-.658-.811-1.628-.811-2.909 0-1.295.275-2.274.824-2.937.554-.663 1.283-.995 2.187-.995.382 0 .716.053 1.002.157.286.1.532.236.736.409.209.172.386.366.531.579h.075a16.82 16.82 0 0 1-.081-.606 7.4 7.4 0 0 1-.041-.743V203.2h1.608v10.602h-1.254l-.286-1.029h-.068a2.411 2.411 0 0 1-1.254 1.009 2.891 2.891 0 0 1-1.002.157Zm.45-1.302c.686 0 1.17-.197 1.451-.593.282-.395.427-.988.437-1.778v-.211c0-.845-.137-1.492-.41-1.942-.272-.454-.77-.682-1.492-.682-.577 0-1.017.234-1.321.702-.3.464-.45 1.111-.45 1.942s.15 1.467.45 1.908c.304.436.75.654 1.335.654Zm10.897-6.521c.954 0 1.674.212 2.16.634.49.422.736 1.081.736 1.976v5.076h-1.138l-.307-1.069h-.054a3.903 3.903 0 0 1-.661.674 2.3 2.3 0 0 1-.79.395 3.725 3.725 0 0 1-1.084.137 2.84 2.84 0 0 1-1.206-.246 1.915 1.915 0 0 1-.838-.763c-.205-.341-.307-.772-.307-1.294 0-.777.289-1.361.865-1.752.582-.39 1.459-.606 2.63-.647l1.309-.048v-.395c0-.522-.123-.895-.368-1.117-.24-.223-.581-.334-1.022-.334a3.71 3.71 0 0 0-1.097.163 7.75 7.75 0 0 0-1.036.402l-.518-1.131a5.842 5.842 0 0 1 1.254-.477 5.863 5.863 0 0 1 1.472-.184Zm1.308 4.082-.974.034c-.8.027-1.36.163-1.683.409-.323.245-.484.581-.484 1.008 0 .373.111.645.334.818.222.168.515.252.879.252.554 0 1.013-.157 1.376-.47.368-.318.552-.784.552-1.397v-.654Zm7.002-4.082c.895 0 1.613.327 2.153.982.545.654.818 1.626.818 2.916 0 .854-.127 1.574-.382 2.16-.25.581-.602 1.022-1.056 1.322-.45.295-.974.443-1.574.443-.382 0-.713-.05-.995-.15-.281-.1-.522-.23-.722-.389a2.73 2.73 0 0 1-.504-.531h-.096c.023.182.044.384.062.606.022.218.034.418.034.6v3.073H90.59v-10.889h1.308l.225 1.043h.075a3.12 3.12 0 0 1 .51-.593 2.25 2.25 0 0 1 .737-.429 2.88 2.88 0 0 1 1.015-.164Zm-.43 1.309c-.44 0-.794.088-1.062.265-.264.173-.457.434-.58.784-.118.35-.181.788-.19 1.315v.225c0 .559.057 1.033.17 1.424.118.386.311.681.58.886.272.2.64.3 1.103.3.39 0 .713-.107.968-.321.259-.213.452-.518.579-.913.127-.395.19-.861.19-1.397 0-.813-.145-1.444-.435-1.894-.287-.45-.727-.674-1.322-.674Zm8.427-1.309c.895 0 1.612.327 2.153.982.545.654.818 1.626.818 2.916 0 .854-.128 1.574-.382 2.16-.25.581-.602 1.022-1.056 1.322-.45.295-.974.443-1.574.443-.382 0-.713-.05-.995-.15-.282-.1-.522-.23-.722-.389a2.73 2.73 0 0 1-.504-.531h-.096c.023.182.043.384.061.606.023.218.035.418.035.6v3.073h-1.608v-10.889h1.308l.225 1.043h.075a3.09 3.09 0 0 1 .511-.593 2.24 2.24 0 0 1 .735-.429 2.89 2.89 0 0 1 1.016-.164Zm-.43 1.309c-.44 0-.794.088-1.062.265-.264.173-.457.434-.58.784-.118.35-.181.788-.19 1.315v.225c0 .559.056 1.033.17 1.424.118.386.311.681.579.886.273.2.641.3 1.104.3.391 0 .713-.107.968-.321.258-.213.451-.518.579-.913.127-.395.19-.861.19-1.397 0-.813-.145-1.444-.436-1.894-.286-.45-.726-.674-1.322-.674Zm9.626 4.224c0 .495-.121.913-.361 1.254-.241.341-.593.6-1.057.777-.458.172-1.022.259-1.689.259-.527 0-.982-.039-1.363-.116a4.658 4.658 0 0 1-1.07-.341v-1.383c.359.168.761.313 1.206.436.45.123.875.184 1.274.184.527 0 .907-.082 1.138-.245a.786.786 0 0 0 .348-.668.708.708 0 0 0-.143-.436c-.091-.132-.264-.266-.518-.402a9.837 9.837 0 0 0-1.104-.504 9.19 9.19 0 0 1-1.206-.573 2.104 2.104 0 0 1-.743-.688c-.168-.273-.252-.62-.252-1.043 0-.667.264-1.174.79-1.519.532-.35 1.234-.525 2.106-.525.463 0 .899.048 1.308.143a6.23 6.23 0 0 1 1.213.402l-.504 1.206a7.63 7.63 0 0 0-1.029-.367c-.341-.1-.688-.15-1.043-.15-.413 0-.729.063-.947.19a.604.604 0 0 0-.32.546c0 .177.052.327.157.449.104.123.284.246.538.368.259.123.618.275 1.077.457.449.172.838.354 1.165.545.331.186.586.415.763.688.177.273.266.625.266 1.056Z"/>
  <path stroke="#BBADBC" stroke-miterlimit="10" stroke-width="1.469" d="M42.419 245.257c4.556-1.628 3.658-6.753 3.658-6.753s-5.127-.895-6.753 3.658l-3.214.041-2.482 2.482s2.112 0 4.187 2.077 2.078 4.187 2.078 4.187l2.483-2.482.043-3.21Zm-7.129 1.497s-2.543 1.579-1.822 4.362c2.783.721 4.363-1.821 4.363-1.821"/>
  <circle cx="43.199" cy="241.72" r=".671" fill="#BBADBC"/>
  <path fill="#BBADBC" d="M63.73 240.612v6.446c0 .695-.148 1.317-.443 1.867-.291.549-.732.985-1.322 1.308-.59.318-1.334.477-2.229.477-1.276 0-2.248-.334-2.916-1.002-.663-.672-.995-1.565-.995-2.678v-6.418h1.636v6.275c0 .832.195 1.445.586 1.84.39.395.974.593 1.75.593.537 0 .973-.093 1.31-.28.34-.19.59-.467.749-.831.163-.368.245-.811.245-1.329v-6.268h1.629Zm5.557 2.276c.895 0 1.612.327 2.153.981.545.654.818 1.626.818 2.916 0 .854-.127 1.574-.382 2.16-.25.582-.602 1.022-1.056 1.322-.45.295-.974.443-1.574.443-.382 0-.713-.05-.995-.15a2.483 2.483 0 0 1-.722-.388 2.777 2.777 0 0 1-.504-.532h-.096c.023.182.043.384.062.607.022.218.034.417.034.599v3.073h-1.608v-10.888h1.308l.225 1.042h.075c.14-.213.31-.411.51-.593.205-.181.45-.324.737-.429.29-.109.629-.163 1.015-.163Zm-.43 1.308c-.44 0-.794.088-1.062.266-.264.172-.457.433-.58.783-.118.35-.181.788-.19 1.315v.225c0 .559.056 1.034.17 1.424.118.386.311.682.58.886.272.2.64.3 1.103.3.39 0 .713-.107.968-.32.258-.214.452-.518.579-.914.127-.395.19-.86.19-1.396 0-.813-.145-1.445-.435-1.895-.287-.449-.727-.674-1.322-.674Zm6.71 9.73c-1.023 0-1.806-.184-2.351-.552-.545-.368-.818-.883-.818-1.547 0-.463.145-.856.436-1.178.29-.318.706-.539 1.247-.661a1.391 1.391 0 0 1-.531-.423 1.058 1.058 0 0 1-.218-.647c0-.282.08-.523.238-.722.159-.2.398-.393.716-.58a2.077 2.077 0 0 1-.954-.817c-.237-.382-.355-.829-.355-1.343 0-.545.116-1.008.348-1.39.231-.386.57-.679 1.015-.879.445-.204.983-.306 1.615-.306.136 0 .284.009.443.027.163.014.313.032.45.055.14.018.247.038.32.061h2.61v.892l-1.282.239a2.247 2.247 0 0 1 .402 1.308c0 .782-.27 1.397-.81 1.847-.536.445-1.277.668-2.222.668a8.115 8.115 0 0 1-.66-.055c-.164.1-.29.211-.375.334a.664.664 0 0 0-.13.402c0 .123.043.222.13.3a.882.882 0 0 0 .381.163c.173.037.382.055.627.055h1.302c.826 0 1.458.175 1.894.524.436.35.654.864.654 1.54 0 .859-.354 1.52-1.063 1.983-.709.468-1.729.702-3.06.702Zm.06-1.124c.56 0 1.03-.055 1.411-.164.382-.109.67-.266.866-.47a.987.987 0 0 0 .293-.715c0-.246-.062-.434-.184-.566-.123-.132-.307-.223-.552-.273a4.761 4.761 0 0 0-.913-.074h-1.186c-.295 0-.556.045-.783.136a1.206 1.206 0 0 0-.532.409c-.123.177-.184.39-.184.64 0 .345.152.611.457.797.309.187.745.28 1.308.28Zm.314-5.874c.468 0 .816-.127 1.043-.381.227-.259.34-.623.34-1.091 0-.508-.118-.89-.354-1.144-.231-.255-.577-.382-1.035-.382-.45 0-.793.13-1.03.388-.231.259-.347.643-.347 1.152 0 .459.116.818.348 1.077.236.254.581.381 1.035.381Zm8.338-4.04a4.473 4.473 0 0 1 .804.075l-.15 1.499a1.983 1.983 0 0 0-.355-.062 3.923 3.923 0 0 0-.367-.02c-.287 0-.56.047-.818.143a1.94 1.94 0 0 0-1.158 1.124c-.114.282-.17.609-.17.981v3.946h-1.609v-7.543h1.254l.218 1.328h.075a3.36 3.36 0 0 1 .559-.736 2.63 2.63 0 0 1 .763-.531c.29-.136.608-.204.954-.204Zm4.46 0c.954 0 1.674.211 2.16.633.49.423.736 1.081.736 1.976v5.077h-1.138l-.307-1.07h-.054a3.903 3.903 0 0 1-.661.674c-.227.178-.49.309-.79.396-.296.09-.657.136-1.084.136-.45 0-.852-.082-1.206-.245a1.916 1.916 0 0 1-.838-.764c-.204-.34-.307-.772-.307-1.294 0-.777.289-1.361.866-1.751.581-.391 1.458-.607 2.63-.648l1.308-.047v-.396c0-.522-.123-.894-.368-1.117-.24-.223-.581-.334-1.022-.334a3.71 3.71 0 0 0-1.097.164c-.354.109-.7.243-1.036.402l-.518-1.131a5.742 5.742 0 0 1 1.254-.477 5.817 5.817 0 0 1 1.472-.184Zm1.308 4.081-.974.034c-.8.027-1.36.164-1.683.409-.323.245-.484.581-.484 1.008 0 .373.111.645.334.818.223.168.516.252.879.252.554 0 1.013-.157 1.376-.47.368-.318.552-.784.552-1.397v-.654Zm5.667 3.741c-.9 0-1.622-.327-2.167-.981-.54-.659-.81-1.629-.81-2.91 0-1.294.274-2.273.824-2.937.554-.663 1.283-.994 2.187-.994.381 0 .715.052 1.001.156.287.1.532.236.736.409a2.8 2.8 0 0 1 .532.579h.075a16.38 16.38 0 0 1-.082-.606 7.4 7.4 0 0 1-.04-.743v-2.712h1.607v10.603h-1.254l-.286-1.029h-.068a2.41 2.41 0 0 1-1.254 1.008 2.868 2.868 0 0 1-1.001.157Zm.45-1.302c.685 0 1.17-.197 1.45-.592.282-.396.428-.988.437-1.779v-.211c0-.845-.136-1.492-.409-1.942-.272-.454-.77-.681-1.492-.681-.577 0-1.018.234-1.322.701-.3.464-.45 1.111-.45 1.942 0 .832.15 1.468.45 1.908.304.436.75.654 1.335.654Zm8.017-6.52c.672 0 1.249.138 1.73.415.482.277.852.67 1.111 1.179s.388 1.117.388 1.826v.859h-5.035c.018.731.213 1.294.586 1.69.377.395.904.592 1.581.592.481 0 .913-.045 1.294-.136a7.112 7.112 0 0 0 1.193-.416v1.302a5.23 5.23 0 0 1-1.152.388c-.39.082-.858.123-1.403.123-.741 0-1.393-.143-1.956-.429a3.143 3.143 0 0 1-1.315-1.295c-.313-.572-.47-1.283-.47-2.133 0-.845.143-1.562.429-2.153.286-.59.688-1.04 1.206-1.349.518-.309 1.122-.463 1.813-.463Zm0 1.206c-.505 0-.913.163-1.227.49-.309.327-.49.807-.545 1.438h3.434a2.627 2.627 0 0 0-.191-1.002 1.448 1.448 0 0 0-.545-.681c-.24-.164-.549-.245-.926-.245Z"/>
  <rect width="225.449" height="23.472" x="27.439" y="169.925" stroke="#17D4A7" stroke-width="1.5" rx="6.595"/>
  <defs>
    <clipPath id="a">
      <rect width="14.689" height="14.689" x="29.627" y="29.627" fill="#fff" rx="4.407"/>
    </clipPath>
    <clipPath id="b">
      <rect width="19.096" height="19.096" x="29.627" y="82.757" fill="#fff" rx="4.407"/>
    </clipPath>
    <filter id="c" width="10.283" height="10.283" x="42.113" y="90.588" color-interpolation-filters="sRGB" filterUnits="userSpaceOnUse">
      <feFlood flood-opacity="0" result="BackgroundImageFix"/>
      <feColorMatrix in="SourceAlpha" result="hardAlpha" values="0 0 0 0 0 0 0 0 0 0 0 0 0 0 0 0 0 0 127 0"/>
      <feMorphology in="SourceAlpha" operator="dilate" radius="1.469" result="effect1_dropShadow_4352_15230"/>
      <feOffset/>
      <feComposite in2="hardAlpha" operator="out"/>
      <feColorMatrix values="0 0 0 0 0.231373 0 0 0 0 0.0627451 0 0 0 0 0.239216 0 0 0 1 0"/>
      <feBlend in2="BackgroundImageFix" result="effect1_dropShadow_4352_15230"/>
      <feBlend in="SourceGraphic" in2="effect1_dropShadow_4352_15230" result="shape"/>
    </filter>
  </defs>
</svg>
