<svg width="298" height="116" viewBox="0 0 298 116" fill="none" xmlns="http://www.w3.org/2000/svg">
<rect x="0.619629" width="296.761" height="116" rx="8" fill="#17D4A7"/>
<path d="M0.619629 8.53992H281.792C285.764 8.53992 288.984 11.7595 288.984 15.731V43.8962H0.619629V8.53992Z" fill="#F8F8F8"/>
<g clip-path="url(#clip0_4352_15302)">
<path d="M14.852 31.0121V31.1619H15.0018H18.4184C19.3036 31.1997 20.1769 30.9461 20.9042 30.4399L20.9043 30.44L20.9094 30.4361C21.2327 30.1898 21.4908 29.8681 21.6613 29.4991C21.831 29.1315 21.9086 28.7281 21.8873 28.3238C21.8885 28.0135 21.8402 27.7051 21.7441 27.4101L21.7441 27.4101L21.7437 27.4089C21.6513 27.1332 21.5099 26.8764 21.3264 26.6508L21.3258 26.6502C21.134 26.4172 20.8934 26.2291 20.6209 26.0994C20.4559 26.0163 20.2842 25.9479 20.1078 25.8949C20.4167 25.7421 20.6893 25.5217 20.9045 25.2479L20.9047 25.2481L20.9098 25.2407C21.2043 24.8155 21.3538 24.3068 21.3361 23.79C21.3525 23.4448 21.2917 23.1002 21.158 22.7815C21.0235 22.4607 20.8186 22.1742 20.5586 21.9432L20.5587 21.9431L20.5538 21.9391C19.9913 21.4798 19.2797 21.2432 18.5542 21.2741H15.0018H14.852V21.424V31.0121ZM17.6489 25.4214L17.6489 25.421H17.6386H16.2862V22.5805H18.3896V22.5807L18.3968 22.5804C18.7914 22.5615 19.1795 22.6849 19.4906 22.9281C19.6299 23.0587 19.7384 23.2187 19.8083 23.3965C19.8789 23.5762 19.9083 23.7694 19.8942 23.9619L19.8934 23.9732L19.8942 23.9846C19.911 24.1972 19.8711 24.4105 19.7787 24.6028C19.6877 24.7923 19.5488 24.9547 19.3759 25.074C18.8419 25.3425 18.2454 25.4625 17.6489 25.4214ZM18.7195 29.8082L18.7194 29.8079L18.7101 29.8094C18.4683 29.8472 18.1775 29.8475 17.8383 29.8475H16.2862V26.7274H18.5255V26.7276L18.5332 26.7272C19.0378 26.701 19.5358 26.8506 19.9423 27.1504C20.1121 27.2958 20.246 27.4787 20.3333 27.6846C20.4213 27.892 20.4597 28.1171 20.4454 28.3419L20.4448 28.3419L20.4452 28.3558C20.4517 28.5778 20.4071 28.7983 20.3148 29.0002L20.3148 29.0003C20.2407 29.1625 20.1281 29.3042 19.9869 29.4131C19.8201 29.5298 19.6342 29.6163 19.4376 29.6688L19.4376 29.6688L19.4334 29.67C19.2006 29.7396 18.9614 29.7859 18.7195 29.8082Z" fill="#CAC9CA" stroke="#CAC9CA" stroke-width="0.299629"/>
</g>
<g clip-path="url(#clip1_4352_15302)">
<path d="M45.9955 22.6784V21.424H39.915V22.6784H42.5038L41.1375 29.7576H38.5087V31.0121H44.5892V29.7576H41.9924L43.3507 22.6784H45.9955Z" fill="#CAC9CA"/>
</g>
<g clip-path="url(#clip2_4352_15302)">
<path d="M72.8023 26.0586H62.7747V26.8576H72.8023V26.0586Z" fill="#CAC9CA"/>
<path d="M69.6862 27.6565C69.8174 27.8671 69.8841 28.1115 69.8779 28.3596C69.886 28.598 69.8356 28.8348 69.7312 29.0493C69.6267 29.2638 69.4714 29.4494 69.2787 29.5901C68.8114 29.9145 68.2485 30.0721 67.6807 30.0375C67.0948 30.0679 66.5156 29.902 66.0347 29.5661C65.8436 29.4235 65.6845 29.2425 65.5675 29.0347C65.4506 28.8269 65.3784 28.5969 65.3555 28.3596H64.2769C64.2831 28.6785 64.351 28.9933 64.4766 29.2865C64.6068 29.596 64.7907 29.88 65.0199 30.1254C65.304 30.4163 65.6512 30.6378 66.0347 30.7726C66.5176 30.9394 67.026 31.0205 67.5368 31.0123C68.4067 31.0506 69.2652 30.8037 69.9818 30.3092C70.294 30.0756 70.5445 29.7694 70.7115 29.4172C70.8786 29.0649 70.9572 28.6772 70.9406 28.2877C70.9362 28.0751 70.9094 27.8635 70.8607 27.6565H69.6862Z" fill="#CAC9CA"/>
<path d="M66.7138 26.4262L68.3119 26.8577H70.4692C70.4212 26.8018 70.3813 26.7458 70.3334 26.6979C69.8224 26.2663 69.2178 25.9598 68.5676 25.803L66.9695 25.3715C66.0986 25.1478 65.6671 24.6764 65.6671 23.9732C65.6559 23.7487 65.7012 23.525 65.799 23.3226C65.8967 23.1201 66.0437 22.9455 66.2264 22.8147C66.6559 22.5212 67.1691 22.3754 67.6886 22.3992C68.2188 22.3681 68.7428 22.5267 69.1668 22.8466C69.5194 23.1412 69.7407 23.5636 69.782 24.0212H70.8607C70.8513 23.6115 70.7474 23.2095 70.5571 22.8466C70.3879 22.5219 70.1374 22.2466 69.83 22.0476C69.5239 21.848 69.19 21.6945 68.8392 21.5922C68.4719 21.4926 68.0932 21.4415 67.7126 21.4404C67.19 21.4355 66.6715 21.5332 66.1865 21.728C65.7251 21.9176 65.3245 22.2298 65.0279 22.6309C64.7298 23.0476 64.5729 23.5488 64.5805 24.0611C64.5661 24.3476 64.6113 24.6339 64.713 24.902C64.8148 25.1702 64.971 25.4144 65.1718 25.6192C65.6059 26.0191 66.1378 26.2975 66.7138 26.4262Z" fill="#CAC9CA"/>
</g>
<line x1="86.4355" y1="18.1281" x2="86.4355" y2="34.308" stroke="#CAC9CA" stroke-width="0.898888"/>
<g clip-path="url(#clip3_4352_15302)">
<path d="M104.611 28.0079C104.29 28.0109 103.973 27.9494 103.676 27.8273C103.38 27.7051 103.111 27.5248 102.885 27.2968L103.317 26.8654C103.487 27.0366 103.689 27.1726 103.912 27.2654C104.135 27.3581 104.374 27.4059 104.615 27.4059C104.856 27.4059 105.095 27.3581 105.318 27.2654C105.541 27.1726 105.743 27.0366 105.913 26.8654L107.615 25.1635C107.937 24.8146 108.111 24.3549 108.101 23.8806C108.092 23.4062 107.899 22.954 107.564 22.6185C107.228 22.283 106.776 22.0902 106.301 22.0806C105.827 22.0709 105.367 22.2451 105.019 22.5667L104.076 23.5495L103.644 23.118L104.587 22.1752C104.811 21.9352 105.08 21.7427 105.38 21.6091C105.68 21.4756 106.003 21.4037 106.331 21.3977C106.659 21.3918 106.985 21.4519 107.289 21.5745C107.594 21.6972 107.87 21.8798 108.102 22.1115C108.335 22.3432 108.518 22.6192 108.641 22.9232C108.765 23.2272 108.825 23.553 108.82 23.881C108.815 24.209 108.744 24.5326 108.611 24.8326C108.478 25.1325 108.286 25.4027 108.047 25.6269L106.345 27.3288C106.116 27.5519 105.844 27.727 105.547 27.8436C105.249 27.9603 104.931 28.0161 104.611 28.0079Z" fill="#CAC9CA"/>
<path d="M101.615 31.0121C101.131 31.0125 100.659 30.8696 100.257 30.6015C99.8543 30.3333 99.5407 29.952 99.3551 29.5057C99.1695 29.0593 99.1205 28.568 99.2141 28.0937C99.3076 27.6195 99.5397 27.1836 99.8809 26.8413L101.583 25.1394C102.042 24.6822 102.664 24.4255 103.313 24.4255C103.961 24.4255 104.583 24.6822 105.043 25.1394L104.611 25.5708C104.267 25.2268 103.8 25.0336 103.313 25.0336C102.826 25.0336 102.359 25.2268 102.014 25.5708L100.312 27.2727C99.9908 27.6216 99.8166 28.0813 99.8263 28.5556C99.8359 29.03 100.029 29.4823 100.364 29.8177C100.7 30.1532 101.152 30.346 101.626 30.3556C102.101 30.3653 102.56 30.1911 102.909 29.8695L103.852 28.9267L104.283 29.3502L103.341 30.301C102.881 30.7555 102.261 31.0109 101.615 31.0121Z" fill="#CAC9CA"/>
</g>
<line x1="122.391" y1="18.1281" x2="122.391" y2="34.308" stroke="#CAC9CA" stroke-width="0.898888"/>
<g clip-path="url(#clip4_4352_15302)">
<path d="M144.728 22.3754H138.147V23.1123H144.728V22.3754Z" fill="#CAC9CA"/>
<path d="M144.728 25.9122H138.147V26.6492H144.728V25.9122Z" fill="#CAC9CA"/>
<path d="M144.728 29.4427H138.147V30.1797H144.728V29.4427Z" fill="#CAC9CA"/>
<path d="M135.796 21.9547L135.154 22.3969V21.8884L135.825 21.4241H136.37V24.0256H135.825L135.796 21.9547Z" fill="#CAC9CA"/>
<path d="M135.206 28.8529C135.249 28.7513 135.315 28.6606 135.398 28.5876C135.488 28.5116 135.59 28.4518 135.7 28.4107C135.824 28.3715 135.953 28.3517 136.083 28.3518C136.21 28.3493 136.337 28.3667 136.459 28.4034C136.564 28.4395 136.661 28.4945 136.747 28.5655C136.828 28.6282 136.893 28.709 136.938 28.8013C136.982 28.8985 137.005 29.0041 137.005 29.1109C137.015 29.1792 137.015 29.2489 137.005 29.3172C136.978 29.3919 136.943 29.4635 136.901 29.5309C136.847 29.6152 136.786 29.6941 136.717 29.7668C136.638 29.8552 136.543 29.951 136.43 30.0542L135.936 30.5333H137.071V30.9828H135.199V30.607L136.046 29.7742L136.275 29.5457L136.415 29.3762C136.442 29.3318 136.464 29.2849 136.481 29.2362C136.488 29.1972 136.488 29.1572 136.481 29.1182C136.492 29.0697 136.492 29.0194 136.481 28.9709C136.46 28.9279 136.43 28.8902 136.393 28.8603C136.358 28.8249 136.315 28.7994 136.268 28.7866C136.214 28.7755 136.159 28.7755 136.105 28.7866C136.047 28.7783 135.987 28.7783 135.929 28.7866C135.881 28.8075 135.836 28.8348 135.796 28.8677C135.758 28.9058 135.728 28.9509 135.707 29.0003C135.696 29.0538 135.696 29.109 135.707 29.1625H135.206C135.187 29.0602 135.187 28.9552 135.206 28.8529Z" fill="#CAC9CA"/>
</g>
<g clip-path="url(#clip5_4352_15302)">
<path d="M171.657 22.0947H164.701V22.8736H171.657V22.0947Z" fill="#CAC9CA"/>
<path d="M171.657 25.8252H164.701V26.6041H171.657V25.8252Z" fill="#CAC9CA"/>
<path d="M171.657 29.5636H164.701V30.3425H171.657V29.5636Z" fill="#CAC9CA"/>
<path d="M163.611 21.4241H161.5V23.5349H163.611V21.4241Z" fill="#CAC9CA"/>
<path d="M161.5 25.1628V27.2736H163.611V25.1628H161.5Z" fill="#CAC9CA"/>
<path d="M161.5 28.9018V31.0126H163.611V28.9018H161.5Z" fill="#CAC9CA"/>
</g>
<line x1="185.29" y1="18.1281" x2="185.29" y2="34.308" stroke="#CAC9CA" stroke-width="0.898888"/>
<g clip-path="url(#clip6_4352_15302)">
<path d="M207.874 22.087H200.997V22.8572H207.874V22.087Z" fill="#CAC9CA"/>
<path d="M207.874 25.7754H200.997V26.5455H207.874V25.7754Z" fill="#CAC9CA"/>
<path d="M207.874 29.4725H200.997V30.2427H207.874V29.4725Z" fill="#CAC9CA"/>
<path d="M199.179 21.424H198.024V31.0121H199.179V21.424Z" fill="#CAC9CA"/>
</g>
<line x1="221.507" y1="18.1281" x2="221.507" y2="34.308" stroke="#CAC9CA" stroke-width="0.898888"/>
<g clip-path="url(#clip7_4352_15302)">
<path d="M237.101 23.4539L234.241 26.313L237.092 29.164L237.676 28.5807L235.4 26.313L237.676 24.0372L237.101 23.4539Z" fill="#CAC9CA"/>
<path d="M243.345 23.4214L242.77 24.0047L245.037 26.2806L242.761 28.5564L243.345 29.1315L246.204 26.2806L243.345 23.4214Z" fill="#CAC9CA"/>
<path d="M240.797 21.433L238.629 30.8402L239.43 31.0248L241.598 21.6176L240.797 21.433Z" fill="#CAC9CA"/>
</g>
<g clip-path="url(#clip8_4352_15302)">
<path d="M264.853 26.6556L262.983 24.7861L264.853 22.9166L265.422 23.4863L264.115 24.7861L265.422 26.0859L264.853 26.6556Z" fill="#CAC9CA"/>
<path d="M268.921 26.6397L268.351 26.0701L269.651 24.7702L268.351 23.4624L268.921 22.9008L270.79 24.7702L268.921 26.6397Z" fill="#CAC9CA"/>
<path d="M267.102 21.7524L265.763 27.5615L266.545 27.7417L267.884 21.9326L267.102 21.7524Z" fill="#CAC9CA"/>
<path d="M274.601 31.0121H264.805V28.9821H265.607V30.2097H273.799V22.2263H270.838V21.424H274.601V31.0121Z" fill="#CAC9CA"/>
</g>
<path d="M0.619629 43.8961H288.984V100.306C288.984 104.278 285.764 107.498 281.792 107.498H0.619629V43.8961Z" fill="white"/>
<path d="M16.9238 55.784L14.0534 63.4843H12.8946L15.7651 55.784H16.9238ZM19.1311 66.0756C18.3411 66.0756 17.7354 65.9334 17.314 65.649C16.8927 65.3645 16.682 64.966 16.682 64.4534C16.682 64.0952 16.7943 63.7915 17.0191 63.5422C17.2438 63.2964 17.5651 63.1261 17.9829 63.0313C17.8249 62.9611 17.688 62.8522 17.5721 62.7047C17.4597 62.5538 17.4035 62.387 17.4035 62.2044C17.4035 61.9867 17.465 61.8006 17.5879 61.6461C17.7108 61.4916 17.8951 61.3424 18.1409 61.1984C17.8354 61.0685 17.5896 60.8578 17.4035 60.5664C17.221 60.2714 17.1297 59.9256 17.1297 59.5288C17.1297 59.1074 17.2192 58.7493 17.3983 58.4543C17.5774 58.1559 17.8389 57.9294 18.1831 57.7749C18.5272 57.6169 18.9432 57.5379 19.4313 57.5379C19.5367 57.5379 19.6508 57.5449 19.7737 57.559C19.9001 57.5695 20.0159 57.5835 20.1213 57.6011C20.2301 57.6151 20.3126 57.6309 20.3688 57.6485H22.3861V58.3385L21.3959 58.5228C21.4907 58.6562 21.5662 58.809 21.6224 58.981C21.6785 59.1496 21.7066 59.3339 21.7066 59.5341C21.7066 60.138 21.4977 60.6138 21.0799 60.9614C20.6655 61.3055 20.0932 61.4776 19.3628 61.4776C19.1873 61.4705 19.017 61.4565 18.852 61.4354C18.7255 61.5127 18.629 61.5987 18.5623 61.6935C18.4956 61.7848 18.4622 61.8884 18.4622 62.0042C18.4622 62.0991 18.4956 62.1763 18.5623 62.236C18.629 62.2922 18.7273 62.3343 18.8572 62.3624C18.9906 62.3905 19.1522 62.4045 19.3418 62.4045H20.3478C20.9868 62.4045 21.4749 62.5397 21.812 62.8101C22.149 63.0805 22.3176 63.4772 22.3176 64.0004C22.3176 64.664 22.0437 65.1749 21.4959 65.5331C20.9482 65.8947 20.1599 66.0756 19.1311 66.0756ZM19.1785 65.2065C19.6104 65.2065 19.9738 65.1644 20.2688 65.0801C20.5637 64.9959 20.7867 64.8747 20.9377 64.7167C21.0886 64.5622 21.1641 64.3779 21.1641 64.1637C21.1641 63.9741 21.1167 63.8284 21.0219 63.7265C20.9271 63.6247 20.7849 63.5545 20.5953 63.5159C20.4057 63.4772 20.1704 63.4579 19.8895 63.4579H18.9731C18.7449 63.4579 18.543 63.493 18.3674 63.5633C18.1918 63.637 18.0549 63.7423 17.9566 63.8793C17.8618 64.0162 17.8144 64.1812 17.8144 64.3744C17.8144 64.6412 17.932 64.8466 18.1673 64.9906C18.406 65.1346 18.7431 65.2065 19.1785 65.2065ZM19.4208 60.6664C19.7824 60.6664 20.0511 60.5681 20.2266 60.3715C20.4022 60.1714 20.49 59.8905 20.49 59.5288C20.49 59.1355 20.3987 58.8406 20.2161 58.644C20.037 58.4473 19.7702 58.349 19.4155 58.349C19.0679 58.349 18.8028 58.4491 18.6202 58.6492C18.4411 58.8494 18.3516 59.1461 18.3516 59.5393C18.3516 59.894 18.4411 60.1714 18.6202 60.3715C18.8028 60.5681 19.0697 60.6664 19.4208 60.6664ZM24.2615 63.4843H23.0185V55.2889H24.2615V63.4843ZM30.7613 60.5558C30.7613 61.0404 30.6981 61.4705 30.5717 61.8462C30.4453 62.2219 30.2609 62.5397 30.0187 62.7996C29.7764 63.0559 29.485 63.2525 29.1444 63.3894C28.8038 63.5229 28.4193 63.5896 27.9909 63.5896C27.5906 63.5896 27.2237 63.5229 26.8901 63.3894C26.5565 63.2525 26.2669 63.0559 26.0211 62.7996C25.7788 62.5397 25.5909 62.2219 25.4575 61.8462C25.3241 61.4705 25.2574 61.0404 25.2574 60.5558C25.2574 59.9133 25.368 59.369 25.5892 58.9231C25.8139 58.4737 26.1334 58.1313 26.5478 57.896C26.9621 57.6608 27.4554 57.5432 28.0278 57.5432C28.565 57.5432 29.039 57.6608 29.4498 57.896C29.8607 58.1313 30.1819 58.4737 30.4137 58.9231C30.6454 59.3725 30.7613 59.9168 30.7613 60.5558ZM26.532 60.5558C26.532 60.9807 26.5829 61.3441 26.6847 61.6461C26.79 61.9481 26.9516 62.1798 27.1693 62.3413C27.387 62.4993 27.6679 62.5783 28.012 62.5783C28.3561 62.5783 28.637 62.4993 28.8547 62.3413C29.0724 62.1798 29.2321 61.9481 29.334 61.6461C29.4358 61.3441 29.4867 60.9807 29.4867 60.5558C29.4867 60.131 29.4358 59.7711 29.334 59.4761C29.2321 59.1777 29.0724 58.9512 28.8547 58.7967C28.637 58.6387 28.3543 58.5597 28.0067 58.5597C27.4941 58.5597 27.1201 58.7317 26.8849 59.0758C26.6496 59.4199 26.532 59.9133 26.532 60.5558ZM32.9896 55.2889V57.264C32.9896 57.4923 32.9826 57.717 32.9686 57.9382C32.958 58.1559 32.9475 58.3262 32.937 58.4491H32.9896C33.1476 58.1963 33.3671 57.9838 33.648 57.8118C33.9324 57.6362 34.2958 57.5484 34.7383 57.5484C35.43 57.5484 35.9865 57.803 36.4079 58.3121C36.8292 58.8178 37.0399 59.5674 37.0399 60.5611C37.0399 61.2212 36.9433 61.776 36.7502 62.2255C36.5571 62.6749 36.285 63.0155 35.9338 63.2472C35.5862 63.4755 35.1772 63.5896 34.7067 63.5896C34.2642 63.5896 33.9061 63.5088 33.6322 63.3473C33.3618 63.1823 33.1494 62.9909 32.9949 62.7732H32.9054L32.6789 63.4843H31.7519V55.2889H32.9896ZM34.4117 58.5544C34.0606 58.5544 33.7814 58.6246 33.5743 58.7651C33.3706 58.9055 33.2231 59.1162 33.1318 59.3971C33.0405 59.6745 32.9931 60.0274 32.9896 60.4558V60.5664C32.9896 61.216 33.0915 61.7128 33.2951 62.0569C33.5023 62.401 33.878 62.5731 34.4222 62.5731C34.8541 62.5731 35.1859 62.3993 35.4177 62.0516C35.6494 61.7005 35.7653 61.1984 35.7653 60.5453C35.7653 59.8852 35.6494 59.3883 35.4177 59.0548C35.1895 58.7212 34.8541 58.5544 34.4117 58.5544ZM40.3269 57.5432C41.0643 57.5432 41.6208 57.7064 41.9965 58.033C42.3757 58.3595 42.5653 58.8687 42.5653 59.5604V63.4843H41.6857L41.4487 62.6573H41.4066C41.2416 62.868 41.0713 63.0418 40.8957 63.1788C40.7201 63.3157 40.5165 63.4175 40.2847 63.4843C40.0565 63.5545 39.7774 63.5896 39.4473 63.5896C39.0997 63.5896 38.7889 63.5264 38.5151 63.4C38.2412 63.2701 38.0252 63.0734 37.8672 62.8101C37.7092 62.5467 37.6302 62.2132 37.6302 61.8094C37.6302 61.2089 37.8532 60.7577 38.2991 60.4558C38.7486 60.1538 39.4262 59.987 40.3321 59.9554L41.3434 59.9185V59.6131C41.3434 59.2093 41.2486 58.9213 41.059 58.7493C40.8729 58.5772 40.6095 58.4912 40.2689 58.4912C39.9775 58.4912 39.6949 58.5333 39.421 58.6176C39.1471 58.7019 38.8802 58.8055 38.6204 58.9284L38.2201 58.0541C38.5045 57.9031 38.8276 57.7802 39.1892 57.6854C39.5544 57.5906 39.9336 57.5432 40.3269 57.5432ZM41.3381 60.6981L40.585 60.7244C39.967 60.7455 39.5333 60.8508 39.284 61.0404C39.0347 61.23 38.9101 61.4898 38.9101 61.8199C38.9101 62.1078 38.9961 62.3185 39.1682 62.4519C39.3402 62.5819 39.5667 62.6468 39.8476 62.6468C40.276 62.6468 40.6306 62.5257 40.9115 62.2834C41.1959 62.0376 41.3381 61.6777 41.3381 61.2037V60.6981ZM45.1097 63.4843H43.8667V55.2889H45.1097V63.4843ZM49.4395 57.5432C50.1312 57.5432 50.686 57.796 51.1038 58.3016C51.5252 58.8072 51.7359 59.5586 51.7359 60.5558C51.7359 61.216 51.6376 61.7725 51.4409 62.2255C51.2478 62.6749 50.9757 63.0155 50.6246 63.2472C50.2769 63.4755 49.8714 63.5896 49.4079 63.5896C49.113 63.5896 48.8566 63.551 48.6389 63.4737C48.4212 63.3965 48.2351 63.2964 48.0806 63.1735C47.9261 63.0471 47.7962 62.9102 47.6909 62.7627H47.6171C47.6347 62.9031 47.6505 63.0594 47.6645 63.2314C47.6821 63.4 47.6909 63.5545 47.6909 63.6949V66.0703H46.4479V57.6538H47.4591L47.6329 58.4596H47.6909C47.7997 58.2946 47.9314 58.1418 48.0859 58.0014C48.2439 57.8609 48.4335 57.7503 48.6547 57.6696C48.8795 57.5853 49.141 57.5432 49.4395 57.5432ZM49.1077 58.5544C48.7671 58.5544 48.4932 58.6229 48.286 58.7598C48.0824 58.8933 47.9332 59.0952 47.8384 59.3655C47.7471 59.6359 47.6979 59.9747 47.6909 60.382V60.5558C47.6909 60.9877 47.7348 61.3547 47.8226 61.6566C47.9138 61.9551 48.0631 62.1833 48.2702 62.3413C48.4809 62.4958 48.7653 62.5731 49.1235 62.5731C49.4255 62.5731 49.6748 62.4906 49.8714 62.3255C50.0715 62.1605 50.2208 61.9252 50.3191 61.6198C50.4174 61.3143 50.4666 60.9544 50.4666 60.54C50.4666 59.9115 50.3542 59.4235 50.1295 59.0758C49.9083 58.7282 49.5677 58.5544 49.1077 58.5544ZM53.9747 57.6538V63.4843H52.737V57.6538H53.9747ZM53.3638 55.4206C53.5534 55.4206 53.7167 55.4715 53.8536 55.5733C53.9941 55.6752 54.0643 55.8507 54.0643 56.1C54.0643 56.3458 53.9941 56.5214 53.8536 56.6267C53.7167 56.7285 53.5534 56.7795 53.3638 56.7795C53.1671 56.7795 53.0004 56.7285 52.8634 56.6267C52.73 56.5214 52.6633 56.3458 52.6633 56.1C52.6633 55.8507 52.73 55.6752 52.8634 55.5733C53.0004 55.4715 53.1671 55.4206 53.3638 55.4206ZM58.3572 57.5432C59.0139 57.5432 59.5247 57.7135 59.8899 58.0541C60.2586 58.3911 60.4429 58.9336 60.4429 59.6815V63.4843H59.2052V59.9133C59.2052 59.4603 59.1122 59.1215 58.9261 58.8968C58.74 58.6685 58.452 58.5544 58.0623 58.5544C57.497 58.5544 57.1037 58.7282 56.8825 59.0758C56.6648 59.4235 56.556 59.9273 56.556 60.5874V63.4843H55.3182V57.6538H56.2821L56.4559 58.4438H56.5244C56.6508 58.2402 56.807 58.0734 56.9931 57.9434C57.1827 57.81 57.3934 57.7099 57.6251 57.6432C57.8604 57.5765 58.1044 57.5432 58.3572 57.5432ZM63.4086 66.0756C62.6186 66.0756 62.0129 65.9334 61.5916 65.649C61.1702 65.3645 60.9595 64.966 60.9595 64.4534C60.9595 64.0952 61.0719 63.7915 61.2966 63.5422C61.5213 63.2964 61.8426 63.1261 62.2605 63.0313C62.1024 62.9611 61.9655 62.8522 61.8496 62.7047C61.7373 62.5538 61.6811 62.387 61.6811 62.2044C61.6811 61.9867 61.7425 61.8006 61.8654 61.6461C61.9883 61.4916 62.1727 61.3424 62.4185 61.1984C62.113 61.0685 61.8672 60.8578 61.6811 60.5664C61.4985 60.2714 61.4072 59.9256 61.4072 59.5288C61.4072 59.1074 61.4968 58.7493 61.6758 58.4543C61.8549 58.1559 62.1165 57.9294 62.4606 57.7749C62.8047 57.6169 63.2208 57.5379 63.7089 57.5379C63.8142 57.5379 63.9283 57.5449 64.0512 57.559C64.1776 57.5695 64.2935 57.5835 64.3988 57.6011C64.5077 57.6151 64.5902 57.6309 64.6464 57.6485H66.6636V58.3385L65.6734 58.5228C65.7682 58.6562 65.8437 58.809 65.8999 58.981C65.9561 59.1496 65.9842 59.3339 65.9842 59.5341C65.9842 60.138 65.7752 60.6138 65.3574 60.9614C64.9431 61.3055 64.3707 61.4776 63.6404 61.4776C63.4648 61.4705 63.2945 61.4565 63.1295 61.4354C63.0031 61.5127 62.9065 61.5987 62.8398 61.6935C62.7731 61.7848 62.7397 61.8884 62.7397 62.0042C62.7397 62.0991 62.7731 62.1763 62.8398 62.236C62.9065 62.2922 63.0048 62.3343 63.1348 62.3624C63.2682 62.3905 63.4297 62.4045 63.6193 62.4045H64.6253C65.2644 62.4045 65.7524 62.5397 66.0895 62.8101C66.4266 63.0805 66.5951 63.4772 66.5951 64.0004C66.5951 64.664 66.3213 65.1749 65.7735 65.5331C65.2257 65.8947 64.4375 66.0756 63.4086 66.0756ZM63.456 65.2065C63.8879 65.2065 64.2514 65.1644 64.5463 65.0801C64.8412 64.9959 65.0642 64.8747 65.2152 64.7167C65.3662 64.5622 65.4417 64.3779 65.4417 64.1637C65.4417 63.9741 65.3943 63.8284 65.2995 63.7265C65.2047 63.6247 65.0625 63.5545 64.8729 63.5159C64.6832 63.4772 64.448 63.4579 64.1671 63.4579H63.2506C63.0224 63.4579 62.8205 63.493 62.6449 63.5633C62.4694 63.637 62.3324 63.7423 62.2341 63.8793C62.1393 64.0162 62.0919 64.1812 62.0919 64.3744C62.0919 64.6412 62.2095 64.8466 62.4448 64.9906C62.6836 65.1346 63.0206 65.2065 63.456 65.2065ZM63.6983 60.6664C64.06 60.6664 64.3286 60.5681 64.5042 60.3715C64.6797 60.1714 64.7675 59.8905 64.7675 59.5288C64.7675 59.1355 64.6762 58.8406 64.4936 58.644C64.3146 58.4473 64.0477 58.349 63.6931 58.349C63.3454 58.349 63.0803 58.4491 62.8978 58.6492C62.7187 58.8494 62.6291 59.1461 62.6291 59.5393C62.6291 59.894 62.7187 60.1714 62.8978 60.3715C63.0803 60.5681 63.3472 60.6664 63.6983 60.6664ZM72.6582 57.5432C73.3499 57.5432 73.9047 57.796 74.3226 58.3016C74.7439 58.8072 74.9546 59.5586 74.9546 60.5558C74.9546 61.216 74.8563 61.7725 74.6596 62.2255C74.4665 62.6749 74.1944 63.0155 73.8433 63.2472C73.4956 63.4755 73.0901 63.5896 72.6266 63.5896C72.3317 63.5896 72.0753 63.551 71.8576 63.4737C71.6399 63.3965 71.4538 63.2964 71.2993 63.1735C71.1448 63.0471 71.0149 62.9102 70.9096 62.7627H70.8358C70.8534 62.9031 70.8692 63.0594 70.8833 63.2314C70.9008 63.4 70.9096 63.5545 70.9096 63.6949V66.0703H69.6666V57.6538H70.6778L70.8517 58.4596H70.9096C71.0184 58.2946 71.1501 58.1418 71.3046 58.0014C71.4626 57.8609 71.6522 57.7503 71.8734 57.6696C72.0982 57.5853 72.3597 57.5432 72.6582 57.5432ZM72.3264 58.5544C71.9858 58.5544 71.7119 58.6229 71.5047 58.7598C71.3011 58.8933 71.1519 59.0952 71.0571 59.3655C70.9658 59.6359 70.9166 59.9747 70.9096 60.382V60.5558C70.9096 60.9877 70.9535 61.3547 71.0413 61.6566C71.1326 61.9551 71.2818 62.1833 71.4889 62.3413C71.6996 62.4958 71.984 62.5731 72.3422 62.5731C72.6442 62.5731 72.8935 62.4906 73.0901 62.3255C73.2902 62.1605 73.4395 61.9252 73.5378 61.6198C73.6361 61.3143 73.6853 60.9544 73.6853 60.54C73.6853 59.9115 73.5729 59.4235 73.3482 59.0758C73.127 58.7282 72.7864 58.5544 72.3264 58.5544ZM77.1934 57.6538V63.4843H75.9557V57.6538H77.1934ZM76.5825 55.4206C76.7721 55.4206 76.9354 55.4715 77.0723 55.5733C77.2128 55.6752 77.283 55.8507 77.283 56.1C77.283 56.3458 77.2128 56.5214 77.0723 56.6267C76.9354 56.7285 76.7721 56.7795 76.5825 56.7795C76.3859 56.7795 76.2191 56.7285 76.0821 56.6267C75.9487 56.5214 75.882 56.3458 75.882 56.1C75.882 55.8507 75.9487 55.6752 76.0821 55.5733C76.2191 55.4715 76.3859 55.4206 76.5825 55.4206ZM81.5759 57.5432C82.2326 57.5432 82.7435 57.7135 83.1086 58.0541C83.4773 58.3911 83.6617 58.9336 83.6617 59.6815V63.4843H82.4239V59.9133C82.4239 59.4603 82.3309 59.1215 82.1448 58.8968C81.9587 58.6685 81.6708 58.5544 81.281 58.5544C80.7157 58.5544 80.3224 58.7282 80.1012 59.0758C79.8835 59.4235 79.7747 59.9273 79.7747 60.5874V63.4843H78.5369V57.6538H79.5008L79.6746 58.4438H79.7431C79.8695 58.2402 80.0257 58.0734 80.2118 57.9434C80.4014 57.81 80.6121 57.7099 80.8438 57.6432C81.0791 57.5765 81.3231 57.5432 81.5759 57.5432ZM86.6273 66.0756C85.8373 66.0756 85.2316 65.9334 84.8103 65.649C84.3889 65.3645 84.1782 64.966 84.1782 64.4534C84.1782 64.0952 84.2906 63.7915 84.5153 63.5422C84.74 63.2964 85.0613 63.1261 85.4792 63.0313C85.3211 62.9611 85.1842 62.8522 85.0683 62.7047C84.956 62.5538 84.8998 62.387 84.8998 62.2044C84.8998 61.9867 84.9612 61.8006 85.0841 61.6461C85.207 61.4916 85.3914 61.3424 85.6372 61.1984C85.3317 61.0685 85.0859 60.8578 84.8998 60.5664C84.7172 60.2714 84.6259 59.9256 84.6259 59.5288C84.6259 59.1074 84.7155 58.7493 84.8945 58.4543C85.0736 58.1559 85.3352 57.9294 85.6793 57.7749C86.0234 57.6169 86.4395 57.5379 86.9276 57.5379C87.0329 57.5379 87.147 57.5449 87.2699 57.559C87.3963 57.5695 87.5122 57.5835 87.6175 57.6011C87.7264 57.6151 87.8089 57.6309 87.8651 57.6485H89.8823V58.3385L88.8921 58.5228C88.9869 58.6562 89.0624 58.809 89.1186 58.981C89.1748 59.1496 89.2029 59.3339 89.2029 59.5341C89.2029 60.138 88.994 60.6138 88.5761 60.9614C88.1618 61.3055 87.5894 61.4776 86.8591 61.4776C86.6835 61.4705 86.5132 61.4565 86.3482 61.4354C86.2218 61.5127 86.1252 61.5987 86.0585 61.6935C85.9918 61.7848 85.9584 61.8884 85.9584 62.0042C85.9584 62.0991 85.9918 62.1763 86.0585 62.236C86.1252 62.2922 86.2235 62.3343 86.3535 62.3624C86.4869 62.3905 86.6484 62.4045 86.838 62.4045H87.844C88.4831 62.4045 88.9711 62.5397 89.3082 62.8101C89.6453 63.0805 89.8138 63.4772 89.8138 64.0004C89.8138 64.664 89.54 65.1749 88.9922 65.5331C88.4444 65.8947 87.6562 66.0756 86.6273 66.0756ZM86.6747 65.2065C87.1066 65.2065 87.4701 65.1644 87.765 65.0801C88.0599 64.9959 88.2829 64.8747 88.4339 64.7167C88.5849 64.5622 88.6604 64.3779 88.6604 64.1637C88.6604 63.9741 88.613 63.8284 88.5182 63.7265C88.4234 63.6247 88.2812 63.5545 88.0916 63.5159C87.9019 63.4772 87.6667 63.4579 87.3858 63.4579H86.4693C86.2411 63.4579 86.0392 63.493 85.8636 63.5633C85.6881 63.637 85.5511 63.7423 85.4528 63.8793C85.358 64.0162 85.3106 64.1812 85.3106 64.3744C85.3106 64.6412 85.4282 64.8466 85.6635 64.9906C85.9023 65.1346 86.2393 65.2065 86.6747 65.2065ZM86.917 60.6664C87.2787 60.6664 87.5473 60.5681 87.7229 60.3715C87.8984 60.1714 87.9862 59.8905 87.9862 59.5288C87.9862 59.1355 87.8949 58.8406 87.7123 58.644C87.5333 58.4473 87.2664 58.349 86.9118 58.349C86.5641 58.349 86.299 58.4491 86.1165 58.6492C85.9374 58.8494 85.8478 59.1461 85.8478 59.5393C85.8478 59.894 85.9374 60.1714 86.1165 60.3715C86.299 60.5681 86.5659 60.6664 86.917 60.6664ZM155.836 58.5965H154.419V63.4843H153.181V58.5965H152.228V58.0014L153.181 57.638V57.2324C153.181 56.7373 153.258 56.3441 153.413 56.0526C153.571 55.7612 153.796 55.5523 154.087 55.4259C154.382 55.2959 154.733 55.231 155.141 55.231C155.407 55.231 155.651 55.2538 155.873 55.2995C156.094 55.3416 156.28 55.3907 156.431 55.4469L156.11 56.3844C155.99 56.3458 155.857 56.3107 155.709 56.2791C155.562 56.244 155.404 56.2264 155.235 56.2264C154.954 56.2264 154.747 56.3142 154.614 56.4898C154.484 56.6653 154.419 56.9217 154.419 57.2587V57.6538H155.836V58.5965ZM159.354 57.5432C159.453 57.5432 159.56 57.5484 159.676 57.559C159.792 57.5695 159.892 57.5835 159.976 57.6011L159.86 58.7598C159.786 58.7388 159.695 58.723 159.586 58.7124C159.481 58.7019 159.386 58.6966 159.302 58.6966C159.081 58.6966 158.87 58.7335 158.67 58.8072C158.47 58.8775 158.292 58.9863 158.138 59.1338C157.983 59.2777 157.862 59.4586 157.774 59.6763C157.687 59.894 157.643 60.1468 157.643 60.4347V63.4843H156.4V57.6538H157.369L157.537 58.6808H157.595C157.711 58.4737 157.855 58.284 158.027 58.112C158.199 57.9399 158.396 57.803 158.617 57.7012C158.842 57.5958 159.088 57.5432 159.354 57.5432ZM165.786 60.5558C165.786 61.0404 165.723 61.4705 165.596 61.8462C165.47 62.2219 165.285 62.5397 165.043 62.7996C164.801 63.0559 164.509 63.2525 164.169 63.3894C163.828 63.5229 163.444 63.5896 163.015 63.5896C162.615 63.5896 162.248 63.5229 161.915 63.3894C161.581 63.2525 161.291 63.0559 161.046 62.7996C160.803 62.5397 160.615 62.2219 160.482 61.8462C160.349 61.4705 160.282 61.0404 160.282 60.5558C160.282 59.9133 160.393 59.369 160.614 58.9231C160.838 58.4737 161.158 58.1313 161.572 57.896C161.987 57.6608 162.48 57.5432 163.052 57.5432C163.59 57.5432 164.064 57.6608 164.474 57.896C164.885 58.1313 165.206 58.4737 165.438 58.9231C165.67 59.3725 165.786 59.9168 165.786 60.5558ZM161.556 60.5558C161.556 60.9807 161.607 61.3441 161.709 61.6461C161.815 61.9481 161.976 62.1798 162.194 62.3413C162.411 62.4993 162.692 62.5783 163.037 62.5783C163.381 62.5783 163.662 62.4993 163.879 62.3413C164.097 62.1798 164.257 61.9481 164.359 61.6461C164.46 61.3441 164.511 60.9807 164.511 60.5558C164.511 60.131 164.46 59.7711 164.359 59.4761C164.257 59.1777 164.097 58.9512 163.879 58.7967C163.662 58.6387 163.379 58.5597 163.031 58.5597C162.519 58.5597 162.145 58.7317 161.909 59.0758C161.674 59.4199 161.556 59.9133 161.556 60.5558ZM173.365 57.5432C174.018 57.5432 174.51 57.7117 174.84 58.0488C175.174 58.3859 175.34 58.9266 175.34 59.671V63.4843H174.103V59.8922C174.103 59.4498 174.017 59.1162 173.845 58.8915C173.673 58.6668 173.411 58.5544 173.06 58.5544C172.568 58.5544 172.214 58.7124 171.996 59.0284C171.782 59.3409 171.675 59.7957 171.675 60.3926V63.4843H170.437V59.8922C170.437 59.5973 170.398 59.3515 170.321 59.1548C170.247 58.9547 170.133 58.8055 169.979 58.7072C169.824 58.6053 169.629 58.5544 169.394 58.5544C169.053 58.5544 168.781 58.6317 168.578 58.7862C168.378 58.9407 168.234 59.1689 168.146 59.4709C168.058 59.7693 168.014 60.1362 168.014 60.5716V63.4843H166.776V57.6538H167.74L167.914 58.4385H167.983C168.102 58.2349 168.249 58.0681 168.425 57.9382C168.604 57.8048 168.802 57.7064 169.02 57.6432C169.238 57.5765 169.464 57.5432 169.7 57.5432C170.135 57.5432 170.502 57.6204 170.8 57.7749C171.099 57.9259 171.322 58.1576 171.469 58.4701H171.564C171.747 58.1541 172.001 57.9206 172.328 57.7696C172.654 57.6187 173 57.5432 173.365 57.5432ZM182.241 59.3023H185.117V63.1682C184.713 63.3017 184.295 63.4052 183.863 63.479C183.431 63.5527 182.947 63.5896 182.41 63.5896C181.626 63.5896 180.963 63.4351 180.419 63.1261C179.878 62.8136 179.467 62.3624 179.186 61.7725C178.905 61.1791 178.765 60.4646 178.765 59.6289C178.765 58.8248 178.921 58.1278 179.234 57.5379C179.546 56.9445 180.001 56.4863 180.598 56.1632C181.195 55.8367 181.918 55.6734 182.768 55.6734C183.186 55.6734 183.589 55.7155 183.979 55.7998C184.372 55.8806 184.732 55.9929 185.059 56.1369L184.616 57.1797C184.357 57.0569 184.065 56.9533 183.742 56.869C183.419 56.7847 183.084 56.7426 182.736 56.7426C182.185 56.7426 181.709 56.862 181.309 57.1007C180.912 57.3395 180.606 57.6766 180.392 58.112C180.178 58.5439 180.071 59.0548 180.071 59.6447C180.071 60.217 180.157 60.7191 180.329 61.151C180.501 61.5829 180.77 61.92 181.135 62.1623C181.504 62.401 181.979 62.5204 182.562 62.5204C182.854 62.5204 183.101 62.5046 183.305 62.473C183.509 62.4414 183.696 62.4063 183.868 62.3677V60.382H182.241V59.3023ZM188.725 57.5432C189.245 57.5432 189.691 57.6503 190.063 57.8644C190.435 58.0786 190.721 58.3824 190.921 58.7756C191.121 59.1689 191.221 59.6394 191.221 60.1872V60.8508H187.329C187.343 61.4161 187.494 61.8515 187.782 62.157C188.074 62.4625 188.481 62.6152 189.004 62.6152C189.376 62.6152 189.71 62.5801 190.005 62.5099C190.303 62.4361 190.611 62.329 190.927 62.1886V63.1946C190.635 63.3315 190.338 63.4316 190.036 63.4948C189.734 63.558 189.373 63.5896 188.951 63.5896C188.379 63.5896 187.875 63.479 187.44 63.2578C187.008 63.0331 186.669 62.6995 186.423 62.2571C186.181 61.8146 186.06 61.2651 186.06 60.6085C186.06 59.9554 186.171 59.4006 186.392 58.9442C186.613 58.4877 186.924 58.1401 187.324 57.9013C187.724 57.6625 188.191 57.5432 188.725 57.5432ZM188.725 58.4754C188.335 58.4754 188.019 58.6018 187.777 58.8546C187.538 59.1074 187.398 59.4779 187.356 59.9659H190.01C190.007 59.6745 189.957 59.4164 189.863 59.1917C189.771 58.967 189.631 58.7914 189.441 58.665C189.255 58.5386 189.016 58.4754 188.725 58.4754ZM195.141 57.5432C195.239 57.5432 195.346 57.5484 195.462 57.559C195.578 57.5695 195.678 57.5835 195.762 57.6011L195.646 58.7598C195.572 58.7388 195.481 58.723 195.372 58.7124C195.267 58.7019 195.172 58.6966 195.088 58.6966C194.867 58.6966 194.656 58.7335 194.456 58.8072C194.256 58.8775 194.078 58.9863 193.924 59.1338C193.769 59.2777 193.648 59.4586 193.56 59.6763C193.473 59.894 193.429 60.1468 193.429 60.4347V63.4843H192.186V57.6538H193.155L193.323 58.6808H193.381C193.497 58.4737 193.641 58.284 193.813 58.112C193.985 57.9399 194.182 57.803 194.403 57.7012C194.628 57.5958 194.874 57.5432 195.141 57.5432ZM202.999 57.5432C203.652 57.5432 204.144 57.7117 204.474 58.0488C204.807 58.3859 204.974 58.9266 204.974 59.671V63.4843H203.737V59.8922C203.737 59.4498 203.651 59.1162 203.478 58.8915C203.306 58.6668 203.045 58.5544 202.694 58.5544C202.202 58.5544 201.847 58.7124 201.63 59.0284C201.416 59.3409 201.308 59.7957 201.308 60.3926V63.4843H200.071V59.8922C200.071 59.5973 200.032 59.3515 199.955 59.1548C199.881 58.9547 199.767 58.8055 199.613 58.7072C199.458 58.6053 199.263 58.5544 199.028 58.5544C198.687 58.5544 198.415 58.6317 198.212 58.7862C198.011 58.9407 197.867 59.1689 197.78 59.4709C197.692 59.7693 197.648 60.1362 197.648 60.5716V63.4843H196.41V57.6538H197.374L197.548 58.4385H197.616C197.736 58.2349 197.883 58.0681 198.059 57.9382C198.238 57.8048 198.436 57.7064 198.654 57.6432C198.872 57.5765 199.098 57.5432 199.333 57.5432C199.769 57.5432 200.136 57.6204 200.434 57.7749C200.733 57.9259 200.956 58.1576 201.103 58.4701H201.198C201.38 58.1541 201.635 57.9206 201.962 57.7696C202.288 57.6187 202.634 57.5432 202.999 57.5432ZM208.556 57.5432C209.294 57.5432 209.85 57.7064 210.226 58.033C210.605 58.3595 210.795 58.8687 210.795 59.5604V63.4843H209.915L209.678 62.6573H209.636C209.471 62.868 209.301 63.0418 209.125 63.1788C208.949 63.3157 208.746 63.4175 208.514 63.4843C208.286 63.5545 208.007 63.5896 207.677 63.5896C207.329 63.5896 207.018 63.5264 206.744 63.4C206.47 63.2701 206.255 63.0734 206.097 62.8101C205.939 62.5467 205.86 62.2132 205.86 61.8094C205.86 61.2089 206.083 60.7577 206.528 60.4558C206.978 60.1538 207.656 59.987 208.561 59.9554L209.573 59.9185V59.6131C209.573 59.2093 209.478 58.9213 209.288 58.7493C209.102 58.5772 208.839 58.4912 208.498 58.4912C208.207 58.4912 207.924 58.5333 207.65 58.6176C207.376 58.7019 207.11 58.8055 206.85 58.9284L206.449 58.0541C206.734 57.9031 207.057 57.7802 207.419 57.6854C207.784 57.5906 208.163 57.5432 208.556 57.5432ZM209.567 60.6981L208.814 60.7244C208.196 60.7455 207.763 60.8508 207.513 61.0404C207.264 61.23 207.139 61.4898 207.139 61.8199C207.139 62.1078 207.225 62.3185 207.397 62.4519C207.57 62.5819 207.796 62.6468 208.077 62.6468C208.505 62.6468 208.86 62.5257 209.141 62.2834C209.425 62.0376 209.567 61.6777 209.567 61.2037V60.6981ZM215.135 57.5432C215.792 57.5432 216.303 57.7135 216.668 58.0541C217.036 58.3911 217.221 58.9336 217.221 59.6815V63.4843H215.983V59.9133C215.983 59.4603 215.89 59.1215 215.704 58.8968C215.518 58.6685 215.23 58.5544 214.84 58.5544C214.275 58.5544 213.881 58.7282 213.66 59.0758C213.443 59.4235 213.334 59.9273 213.334 60.5874V63.4843H212.096V57.6538H213.06L213.234 58.4438H213.302C213.429 58.2402 213.585 58.0734 213.771 57.9434C213.96 57.81 214.171 57.7099 214.403 57.6432C214.638 57.5765 214.882 57.5432 215.135 57.5432ZM217.642 57.6538H218.991L220.186 60.9825C220.239 61.1334 220.286 61.2827 220.329 61.4302C220.374 61.5741 220.413 61.7163 220.444 61.8568C220.48 61.9972 220.508 62.1377 220.529 62.2781H220.56C220.595 62.0955 220.645 61.8919 220.708 61.6672C220.775 61.4389 220.848 61.2107 220.929 60.9825L222.077 57.6538H223.41L220.908 64.2848C220.764 64.664 220.587 64.9871 220.376 65.2539C220.169 65.5243 219.923 65.728 219.639 65.8649C219.354 66.0054 219.029 66.0756 218.664 66.0756C218.489 66.0756 218.336 66.065 218.206 66.044C218.076 66.0264 217.966 66.0071 217.874 65.986V64.9959C217.948 65.0134 218.041 65.0292 218.153 65.0433C218.266 65.0573 218.382 65.0643 218.501 65.0643C218.722 65.0643 218.914 65.0204 219.075 64.9327C219.237 64.8449 219.374 64.7202 219.486 64.5587C219.598 64.4007 219.691 64.2199 219.765 64.0162L219.97 63.4685L217.642 57.6538Z" fill="#616061"/>
<path d="M92.3007 66.0756C92.1181 66.0756 91.9443 66.0615 91.7792 66.0334C91.6142 66.0089 91.4755 65.979 91.3632 65.9439V64.9537C91.4825 64.9888 91.5984 65.0152 91.7108 65.0327C91.8231 65.0503 91.9513 65.0591 92.0953 65.0591C92.3235 65.0591 92.5113 64.9959 92.6588 64.8695C92.8098 64.743 92.8853 64.5025 92.8853 64.1479V57.6538H94.123V64.2585C94.123 64.6131 94.0598 64.9274 93.9334 65.2013C93.8105 65.4751 93.6139 65.6893 93.3435 65.8438C93.0767 65.9983 92.729 66.0756 92.3007 66.0756ZM92.8116 56.1C92.8116 55.8507 92.8783 55.6752 93.0117 55.5733C93.1486 55.4715 93.3154 55.4206 93.5121 55.4206C93.7017 55.4206 93.8649 55.4715 94.0019 55.5733C94.1423 55.6752 94.2126 55.8507 94.2126 56.1C94.2126 56.3458 94.1423 56.5214 94.0019 56.6267C93.8649 56.7285 93.7017 56.7795 93.5121 56.7795C93.3154 56.7795 93.1486 56.7285 93.0117 56.6267C92.8783 56.5214 92.8116 56.3458 92.8116 56.1ZM99.3851 61.8199C99.3851 62.2026 99.292 62.5257 99.106 62.789C98.9199 63.0524 98.6477 63.2525 98.2896 63.3894C97.9349 63.5229 97.4995 63.5896 96.9834 63.5896C96.5761 63.5896 96.2249 63.5597 95.93 63.5001C95.6386 63.4439 95.3629 63.3561 95.1031 63.2367V62.1675C95.3805 62.2974 95.6912 62.4098 96.0353 62.5046C96.383 62.5994 96.7113 62.6468 97.0203 62.6468C97.4276 62.6468 97.7208 62.5836 97.8998 62.4572C98.0789 62.3273 98.1684 62.1552 98.1684 61.941C98.1684 61.8146 98.1316 61.7023 98.0578 61.604C97.9876 61.5021 97.8542 61.3986 97.6575 61.2932C97.4644 61.1844 97.18 61.0544 96.8043 60.9035C96.4356 60.756 96.1249 60.6085 95.8721 60.461C95.6192 60.3136 95.4279 60.1362 95.298 59.9291C95.168 59.7184 95.1031 59.4498 95.1031 59.1232C95.1031 58.6071 95.3067 58.2156 95.7141 57.9487C96.1249 57.6783 96.6674 57.5432 97.3415 57.5432C97.6997 57.5432 98.0368 57.58 98.3528 57.6538C98.6723 57.724 98.9848 57.8276 99.2903 57.9645L98.9005 58.8968C98.6372 58.7809 98.3721 58.6861 98.1052 58.6123C97.8419 58.5351 97.5733 58.4965 97.2994 58.4965C96.9799 58.4965 96.7358 58.5456 96.5673 58.644C96.4023 58.7423 96.3197 58.8827 96.3197 59.0653C96.3197 59.2022 96.3601 59.3181 96.4409 59.4129C96.5216 59.5077 96.6603 59.6025 96.857 59.6973C97.0571 59.7921 97.3345 59.9098 97.6891 60.0502C98.0368 60.1836 98.337 60.3241 98.5898 60.4716C98.8461 60.6155 99.0427 60.7929 99.1797 61.0035C99.3166 61.2142 99.3851 61.4863 99.3851 61.8199ZM102.251 63.5896C101.555 63.5896 100.997 63.3368 100.576 62.8312C100.158 62.322 99.9491 61.5724 99.9491 60.5822C99.9491 59.5815 100.162 58.8248 100.586 58.3121C101.015 57.7995 101.578 57.5432 102.277 57.5432C102.572 57.5432 102.83 57.5835 103.051 57.6643C103.273 57.7416 103.462 57.8469 103.62 57.9803C103.782 58.1137 103.919 58.263 104.031 58.428H104.089C104.071 58.3192 104.05 58.1629 104.026 57.9593C104.005 57.7521 103.994 57.5607 103.994 57.3852V55.2889H105.237V63.4843H104.268L104.047 62.6889H103.994C103.889 62.8575 103.755 63.0102 103.594 63.1472C103.436 63.2806 103.246 63.3877 103.025 63.4685C102.807 63.5492 102.549 63.5896 102.251 63.5896ZM102.598 62.5836C103.129 62.5836 103.503 62.4309 103.72 62.1254C103.938 61.8199 104.05 61.3617 104.057 60.7507V60.5874C104.057 59.9343 103.952 59.434 103.741 59.0864C103.531 58.7352 103.146 58.5597 102.588 58.5597C102.142 58.5597 101.801 58.7405 101.566 59.1022C101.334 59.4603 101.218 59.9607 101.218 60.6032C101.218 61.2458 101.334 61.7374 101.566 62.078C101.801 62.4151 102.145 62.5836 102.598 62.5836ZM108.903 57.5432C109.423 57.5432 109.869 57.6503 110.241 57.8644C110.613 58.0786 110.899 58.3824 111.1 58.7756C111.3 59.1689 111.4 59.6394 111.4 60.1872V60.8508H107.508C107.522 61.4161 107.673 61.8515 107.96 62.157C108.252 62.4625 108.659 62.6152 109.182 62.6152C109.555 62.6152 109.888 62.5801 110.183 62.5099C110.482 62.4361 110.789 62.329 111.105 62.1886V63.1946C110.813 63.3315 110.517 63.4316 110.215 63.4948C109.913 63.558 109.551 63.5896 109.13 63.5896C108.557 63.5896 108.054 63.479 107.618 63.2578C107.186 63.0331 106.847 62.6995 106.602 62.2571C106.359 61.8146 106.238 61.2651 106.238 60.6085C106.238 59.9554 106.349 59.4006 106.57 58.9442C106.791 58.4877 107.102 58.1401 107.502 57.9013C107.903 57.6625 108.37 57.5432 108.903 57.5432ZM108.903 58.4754C108.514 58.4754 108.198 58.6018 107.955 58.8546C107.716 59.1074 107.576 59.4779 107.534 59.9659H110.188C110.185 59.6745 110.136 59.4164 110.041 59.1917C109.95 58.967 109.809 58.7914 109.62 58.665C109.433 58.5386 109.195 58.4754 108.903 58.4754ZM113.607 63.4843H112.364V55.2889H113.607V63.4843ZM116.183 57.6538V63.4843H114.945V57.6538H116.183ZM115.572 55.4206C115.762 55.4206 115.925 55.4715 116.062 55.5733C116.202 55.6752 116.273 55.8507 116.273 56.1C116.273 56.3458 116.202 56.5214 116.062 56.6267C115.925 56.7285 115.762 56.7795 115.572 56.7795C115.375 56.7795 115.209 56.7285 115.072 56.6267C114.938 56.5214 114.872 56.3458 114.872 56.1C114.872 55.8507 114.938 55.6752 115.072 55.5733C115.209 55.4715 115.375 55.4206 115.572 55.4206ZM118.859 63.4843L116.642 57.6538H117.953L119.154 61.0773C119.231 61.295 119.301 61.5302 119.365 61.783C119.428 62.0358 119.472 62.2483 119.496 62.4203H119.538C119.563 62.2413 119.61 62.0271 119.681 61.7778C119.751 61.525 119.823 61.2915 119.897 61.0773L121.097 57.6538H122.404L120.186 63.4843H118.859ZM125.812 57.5432C125.91 57.5432 126.017 57.5484 126.133 57.559C126.249 57.5695 126.349 57.5835 126.433 57.6011L126.317 58.7598C126.244 58.7388 126.152 58.723 126.044 58.7124C125.938 58.7019 125.843 58.6966 125.759 58.6966C125.538 58.6966 125.327 58.7335 125.127 58.8072C124.927 58.8775 124.75 58.9863 124.595 59.1338C124.441 59.2777 124.319 59.4586 124.232 59.6763C124.144 59.894 124.1 60.1468 124.1 60.4347V63.4843H122.857V57.6538H123.826L123.995 58.6808H124.053C124.169 58.4737 124.312 58.284 124.485 58.112C124.657 57.9399 124.853 57.803 125.074 57.7012C125.299 57.5958 125.545 57.5432 125.812 57.5432ZM126.902 62.8312C126.902 62.5432 126.976 62.3413 127.124 62.2255C127.275 62.1061 127.457 62.0464 127.671 62.0464C127.886 62.0464 128.068 62.1061 128.219 62.2255C128.374 62.3413 128.451 62.5432 128.451 62.8312C128.451 63.1121 128.374 63.3157 128.219 63.4421C128.068 63.565 127.886 63.6265 127.671 63.6265C127.457 63.6265 127.275 63.565 127.124 63.4421C126.976 63.3157 126.902 63.1121 126.902 62.8312ZM131.959 63.5896C131.408 63.5896 130.93 63.4825 130.527 63.2683C130.123 63.0541 129.812 62.7258 129.594 62.2834C129.377 61.841 129.268 61.2792 129.268 60.598C129.268 59.8887 129.387 59.3093 129.626 58.8599C129.865 58.4105 130.195 58.0786 130.616 57.8644C131.041 57.6503 131.527 57.5432 132.075 57.5432C132.423 57.5432 132.737 57.5783 133.018 57.6485C133.302 57.7152 133.543 57.7977 133.739 57.896L133.371 58.8862C133.156 58.7984 132.937 58.7247 132.712 58.665C132.488 58.6053 132.272 58.5755 132.064 58.5755C131.724 58.5755 131.439 58.651 131.211 58.802C130.987 58.9529 130.818 59.1777 130.706 59.4761C130.597 59.7746 130.542 60.145 130.542 60.5874C130.542 61.0158 130.599 61.3775 130.711 61.6724C130.823 61.9639 130.99 62.1851 131.211 62.3361C131.432 62.4835 131.705 62.5573 132.028 62.5573C132.347 62.5573 132.633 62.5187 132.886 62.4414C133.139 62.3642 133.378 62.2641 133.602 62.1412V63.2156C133.381 63.342 133.144 63.4351 132.891 63.4948C132.639 63.558 132.328 63.5896 131.959 63.5896ZM139.702 60.5558C139.702 61.0404 139.639 61.4705 139.512 61.8462C139.386 62.2219 139.202 62.5397 138.959 62.7996C138.717 63.0559 138.426 63.2525 138.085 63.3894C137.744 63.5229 137.36 63.5896 136.932 63.5896C136.531 63.5896 136.164 63.5229 135.831 63.3894C135.497 63.2525 135.207 63.0559 134.962 62.7996C134.719 62.5397 134.532 62.2219 134.398 61.8462C134.265 61.4705 134.198 61.0404 134.198 60.5558C134.198 59.9133 134.309 59.369 134.53 58.9231C134.755 58.4737 135.074 58.1313 135.488 57.896C135.903 57.6608 136.396 57.5432 136.968 57.5432C137.506 57.5432 137.98 57.6608 138.39 57.896C138.801 58.1313 139.123 58.4737 139.354 58.9231C139.586 59.3725 139.702 59.9168 139.702 60.5558ZM135.473 60.5558C135.473 60.9807 135.523 61.3441 135.625 61.6461C135.731 61.9481 135.892 62.1798 136.11 62.3413C136.328 62.4993 136.608 62.5783 136.953 62.5783C137.297 62.5783 137.578 62.4993 137.795 62.3413C138.013 62.1798 138.173 61.9481 138.275 61.6461C138.376 61.3441 138.427 60.9807 138.427 60.5558C138.427 60.131 138.376 59.7711 138.275 59.4761C138.173 59.1777 138.013 58.9512 137.795 58.7967C137.578 58.6387 137.295 58.5597 136.947 58.5597C136.435 58.5597 136.061 58.7317 135.825 59.0758C135.59 59.4199 135.473 59.9133 135.473 60.5558ZM147.281 57.5432C147.935 57.5432 148.426 57.7117 148.756 58.0488C149.09 58.3859 149.257 58.9266 149.257 59.671V63.4843H148.019V59.8922C148.019 59.4498 147.933 59.1162 147.761 58.8915C147.589 58.6668 147.327 58.5544 146.976 58.5544C146.484 58.5544 146.13 58.7124 145.912 59.0284C145.698 59.3409 145.591 59.7957 145.591 60.3926V63.4843H144.353V59.8922C144.353 59.5973 144.314 59.3515 144.237 59.1548C144.163 58.9547 144.049 58.8055 143.895 58.7072C143.74 58.6053 143.545 58.5544 143.31 58.5544C142.97 58.5544 142.697 58.6317 142.494 58.7862C142.294 58.9407 142.15 59.1689 142.062 59.4709C141.974 59.7693 141.93 60.1362 141.93 60.5716V63.4843H140.693V57.6538H141.656L141.83 58.4385H141.899C142.018 58.2349 142.166 58.0681 142.341 57.9382C142.52 57.8048 142.719 57.7064 142.936 57.6432C143.154 57.5765 143.38 57.5432 143.616 57.5432C144.051 57.5432 144.418 57.6204 144.716 57.7749C145.015 57.9259 145.238 58.1576 145.385 58.4701H145.48C145.663 58.1541 145.917 57.9206 146.244 57.7696C146.57 57.6187 146.916 57.5432 147.281 57.5432Z" fill="#7095BC"/>
<g clip-path="url(#clip9_4352_15302)">
<path d="M21.7255 97.9094C26.7627 97.9094 30.8462 93.8259 30.8462 88.7887C30.8462 83.7515 26.7627 79.668 21.7255 79.668C16.6883 79.668 12.6048 83.7515 12.6048 88.7887C12.6048 93.8259 16.6883 97.9094 21.7255 97.9094Z" fill="#F2F2F2"/>
<path d="M21.4792 84.8474V93.0576" stroke="#CAC9CA" stroke-width="0.599259" stroke-miterlimit="10"/>
<path d="M25.5843 88.9528H17.3742" stroke="#CAC9CA" stroke-width="0.599259" stroke-miterlimit="10"/>
</g>
<line x1="44.4794" y1="80.6986" x2="44.4794" y2="96.8786" stroke="#CAC9CA" stroke-width="0.898888"/>
<path d="M66.0071 87.4301V84.9721C66.0071 84.6411 65.7388 84.3728 65.4079 84.3728H58.1912C57.8603 84.3728 57.592 84.6411 57.592 84.9721V92.6049C57.592 92.9359 57.8603 93.2042 58.1912 93.2042H65.4079C65.7388 93.2042 66.0071 92.9359 66.0071 92.6049V90.5253L68.2236 91.6144C68.6218 91.8101 69.0872 91.5203 69.0872 91.0766V86.8788C69.0872 86.4351 68.6218 86.1453 68.2236 86.3409L66.0071 87.4301Z" stroke="#666666" stroke-width="1.07867" stroke-miterlimit="10"/>
<path d="M89.432 87.8549V87.8547V85.1236C89.4502 84.7999 89.4023 84.4759 89.2911 84.1713C89.1797 83.8662 89.0072 83.5871 88.7842 83.351C88.5612 83.1149 88.2923 82.9268 87.994 82.7983C87.6958 82.6697 87.3744 82.6034 87.0496 82.6034C86.7248 82.6034 86.4034 82.6697 86.1052 82.7983C85.8069 82.9268 85.538 83.1149 85.315 83.351C85.092 83.5871 84.9195 83.8662 84.8081 84.1713C84.6969 84.4759 84.649 84.7999 84.6672 85.1236V87.8547C84.6672 88.4862 84.9175 89.092 85.3633 89.5393C85.8092 89.9865 86.4141 90.2388 87.0456 90.2409L87.046 90.2409C87.6782 90.2388 88.2839 89.9868 88.7309 89.5398C89.178 89.0928 89.43 88.4871 89.432 87.8549ZM85.5399 85.1219H85.54L85.5397 85.1177C85.5254 84.9107 85.5538 84.7029 85.6231 84.5072C85.6925 84.3116 85.8014 84.1323 85.943 83.9806C86.0846 83.8288 86.2559 83.7078 86.4463 83.6251C86.6367 83.5423 86.842 83.4996 87.0496 83.4996C87.2572 83.4996 87.4625 83.5423 87.6529 83.6251C87.8433 83.7078 88.0146 83.8288 88.1562 83.9806C88.2978 84.1323 88.4067 84.3116 88.4761 84.5072C88.5454 84.7029 88.5738 84.9107 88.5595 85.1177L88.5593 85.1177V85.1219V87.8547H88.5592L88.5595 87.8588C88.5738 88.0659 88.5454 88.2737 88.4761 88.4694C88.4067 88.665 88.2978 88.8443 88.1562 88.996C88.0146 89.1478 87.8433 89.2688 87.6529 89.3515C87.4625 89.4343 87.2572 89.477 87.0496 89.477C86.842 89.477 86.6367 89.4343 86.4463 89.3515C86.2559 89.2688 86.0846 89.1478 85.943 88.996C85.8014 88.8443 85.6925 88.665 85.6231 88.4694C85.5538 88.2737 85.5254 88.0659 85.5397 87.8588L85.5399 87.8588V87.8547V85.1219Z" fill="#666666" stroke="#CAC9CA" stroke-width="0.119852"/>
<path d="M90.6067 86.4319H90.5468V86.4918V87.8983C90.5048 88.8093 90.1134 89.6691 89.454 90.299C88.7942 90.9293 87.9169 91.2811 87.0044 91.2811C86.0919 91.2811 85.2146 90.9293 84.5548 90.299C83.8954 89.6691 83.504 88.8092 83.462 87.8982V86.4918V86.4319H83.4021H82.6492H82.5893V86.4918L82.5893 87.8996L82.5893 87.8998C82.5926 89.0041 83.0086 90.0672 83.7556 90.8805C84.4901 91.6803 85.4926 92.1818 86.5718 92.2905V93.9678H84.6442H84.5843V94.0277V94.7806V94.8405H84.6442H89.4474H89.5073V94.7806V94.0277V93.9678H89.4474H87.4445V92.2904C88.5224 92.1799 89.523 91.6778 90.256 90.8781C91.0014 90.065 91.4163 89.0029 91.4195 87.8998V87.8996V86.4918V86.4319H91.3596H90.6067Z" fill="#666666" stroke="#CAC9CA" stroke-width="0.119852"/>
<line x1="104.993" y1="80.6986" x2="104.993" y2="96.8786" stroke="#CAC9CA" stroke-width="0.898888"/>
<path d="M123.725 94.4344C126.844 94.4344 129.372 91.9065 129.372 88.7882C129.372 85.67 126.844 83.1421 123.725 83.1421C120.607 83.1421 118.079 85.67 118.079 88.7882C118.079 91.9065 120.607 94.4344 123.725 94.4344Z" stroke="#666666" stroke-width="1.19852" stroke-miterlimit="10"/>
<path d="M126.207 89.6763C126.015 90.1697 125.68 90.5948 125.245 90.8971C124.81 91.1994 124.295 91.3653 123.766 91.3736C123.236 91.382 122.716 91.2323 122.272 90.9438C121.828 90.6553 121.48 90.241 121.272 89.7538" stroke="#666666" stroke-width="1.19852" stroke-miterlimit="10"/>
<path d="M121.914 88.4147C122.416 88.4147 122.823 88.0076 122.823 87.5054C122.823 87.0032 122.416 86.5961 121.914 86.5961C121.412 86.5961 121.005 87.0032 121.005 87.5054C121.005 88.0076 121.412 88.4147 121.914 88.4147Z" fill="#666666"/>
<path d="M125.544 88.4147C126.046 88.4147 126.453 88.0076 126.453 87.5054C126.453 87.0032 126.046 86.5961 125.544 86.5961C125.042 86.5961 124.635 87.0032 124.635 87.5054C124.635 88.0076 125.042 88.4147 125.544 88.4147Z" fill="#666666"/>
<path d="M150.268 86.1167V86.6763C150.093 86.4734 149.881 86.3034 149.642 86.1759C149.252 85.9493 148.81 85.8293 148.358 85.828C147.977 85.8144 147.597 85.8833 147.245 86.0302C146.891 86.1773 146.574 86.3993 146.315 86.6806L146.315 86.6806L146.312 86.6844C145.816 87.2597 145.544 87.9936 145.544 88.7529C145.544 89.5121 145.816 90.246 146.312 90.8213L146.312 90.8214L146.315 90.8251C146.574 91.1065 146.891 91.3284 147.245 91.4756C147.597 91.6224 147.977 91.6913 148.358 91.6778C148.81 91.6764 149.252 91.5564 149.642 91.3298C149.915 91.1845 150.152 90.9838 150.339 90.7423C150.379 91.0811 150.507 91.4062 150.714 91.6834L150.72 91.6907L150.726 91.6973C150.893 91.8719 151.097 92.0067 151.323 92.0918C151.546 92.1758 151.785 92.2093 152.023 92.1899C152.41 92.2039 152.794 92.1239 153.143 91.9567C153.495 91.7881 153.801 91.5359 154.033 91.2223L154.034 91.2226L154.041 91.2118C154.581 90.336 154.83 89.3113 154.75 88.2853C154.777 87.5268 154.644 86.7712 154.362 86.0667C154.078 85.3596 153.65 84.7197 153.103 84.1885L153.104 84.1885L153.101 84.1857C151.933 83.1102 150.387 82.5412 148.801 82.603C148.005 82.5759 147.211 82.712 146.47 83.0031C145.726 83.2948 145.05 83.736 144.484 84.2994L144.484 84.2994L144.483 84.3007C143.914 84.8806 143.468 85.5693 143.172 86.3257C142.876 87.0805 142.735 87.8872 142.758 88.6975C142.701 90.3176 143.283 91.8953 144.377 93.0916L144.377 93.0916L144.379 93.0935C144.922 93.6671 145.583 94.1176 146.315 94.4145C147.046 94.7108 147.832 94.8473 148.62 94.8149C149.617 94.8357 150.607 94.642 151.523 94.2468L151.685 94.1768L151.589 94.0282C151.531 93.9372 151.482 93.8407 151.442 93.7401L151.439 93.7313L151.434 93.7231L151.259 93.4013L151.194 93.2837L151.07 93.3344C150.294 93.6516 149.461 93.8047 148.623 93.784L148.623 93.7837L148.613 93.7841C147.97 93.8107 147.33 93.698 146.735 93.4538C146.141 93.2097 145.606 92.84 145.168 92.37C144.266 91.3717 143.787 90.0622 143.833 88.7177L143.833 88.7177L143.833 88.708C143.812 88.0343 143.927 87.3634 144.171 86.7351C144.415 86.1069 144.783 85.5343 145.253 85.0514C145.714 84.5803 146.267 84.2099 146.878 83.9634C147.49 83.7169 148.146 83.5998 148.805 83.6193L148.805 83.6198L148.816 83.6192C149.464 83.5893 150.112 83.6893 150.721 83.9135C151.33 84.1375 151.888 84.4809 152.362 84.9236C152.808 85.3572 153.159 85.8793 153.391 86.4564C153.624 87.034 153.733 87.6538 153.712 88.2761L153.712 88.2836L153.712 88.2912C153.764 89.0626 153.603 89.8335 153.248 90.5201C153.127 90.7293 152.955 90.9039 152.747 91.0273C152.539 91.1512 152.302 91.2192 152.06 91.2246L152.06 91.2246L152.057 91.2247C151.971 91.228 151.885 91.2134 151.805 91.1819C151.726 91.1509 151.654 91.1042 151.594 91.0446C151.526 90.9683 151.474 90.8793 151.441 90.7827C151.407 90.6849 151.394 90.5812 151.401 90.478L151.401 90.4781V90.4676V86.1167V85.9669H151.251H150.418H150.268V86.1167ZM148.463 90.6397L148.463 90.639L148.45 90.6398C148.208 90.6532 147.967 90.612 147.743 90.5194C147.52 90.427 147.321 90.286 147.16 90.1066C146.842 89.7229 146.668 89.2402 146.668 88.7419C146.668 88.244 146.842 87.7617 147.159 87.3782C147.322 87.2028 147.522 87.0658 147.744 86.9771C147.967 86.8879 148.208 86.8499 148.448 86.8658L148.456 86.8664L148.464 86.866C148.707 86.8559 148.949 86.898 149.174 86.9895C149.398 87.081 149.601 87.2196 149.767 87.3961C150.105 87.7645 150.285 88.2513 150.268 88.7513L150.268 88.7513L150.268 88.763C150.279 89.011 150.239 89.2586 150.152 89.491C150.065 89.7233 149.932 89.9357 149.761 90.1154C149.594 90.2891 149.392 90.4255 149.168 90.5159C148.945 90.6063 148.704 90.6484 148.463 90.6397Z" fill="#666666" stroke="#666666" stroke-width="0.299629"/>
<g clip-path="url(#clip10_4352_15302)">
<path d="M170.804 92.3974H170.845L170.86 92.3598L171.872 89.8367H176.707L177.743 92.3603L177.758 92.3974H177.799H178.874H178.964L178.929 92.3143L174.843 82.5694L174.827 82.5326H174.787H173.847H173.807L173.792 82.5693L169.69 92.3143L169.655 92.3974H169.745H170.804ZM172.292 88.808L174.297 83.8586L176.303 88.808H172.292Z" fill="#666666" stroke="#666666" stroke-width="0.119852"/>
<path d="M184.124 88.1747L184.125 88.1604C184.142 87.9435 184.114 87.7255 184.043 87.5199C183.973 87.3154 183.862 87.1275 183.716 86.9675C183.381 86.6862 182.95 86.5448 182.513 86.573L182.509 86.5732L182.509 86.5731C182.155 86.5698 181.806 86.6408 181.482 86.7815L181.482 86.7816C181.192 86.9065 180.93 87.0873 180.711 87.3136L180.664 87.3615L180.622 87.3103L180.108 86.6938L180.073 86.6516L180.112 86.6129C180.41 86.3167 180.767 86.0861 181.16 85.9356C181.627 85.7527 182.126 85.6628 182.628 85.6708C182.958 85.6689 183.287 85.7178 183.602 85.8157L183.602 85.8159L183.602 85.8159C183.898 85.9113 184.174 86.0626 184.413 86.2616L184.414 86.2625L184.414 86.2625C184.651 86.4686 184.835 86.7284 184.952 87.0203C185.088 87.3534 185.154 87.711 185.146 88.0708V90.8917V90.8931V90.8946V90.896V90.8974V90.8989V90.9003V90.9018V90.9032V90.9046V90.9061V90.9075V90.9089V90.9104V90.9118V90.9133V90.9147V90.9162V90.9176V90.919V90.9205V90.9219V90.9234V90.9248V90.9263V90.9277V90.9291V90.9306V90.932V90.9335V90.9349V90.9364V90.9378V90.9393V90.9407V90.9422V90.9436V90.9451V90.9465V90.948V90.9494V90.9509V90.9523V90.9538V90.9552V90.9567V90.9581V90.9596V90.961V90.9625V90.9639V90.9654V90.9668V90.9683V90.9698V90.9712V90.9727V90.9741V90.9756V90.977V90.9785V90.98V90.9814V90.9829V90.9843V90.9858V90.9872V90.9887V90.9902V90.9916V90.9931V90.9946V90.996V90.9975V90.9989V91.0004V91.0019V91.0033V91.0048V91.0063V91.0077V91.0092V91.0107V91.0121V91.0136V91.0151V91.0165V91.018V91.0195V91.0209V91.0224V91.0239V91.0253V91.0268V91.0283V91.0298V91.0312V91.0327V91.0342V91.0356V91.0371V91.0386V91.0401V91.0415V91.043V91.0445V91.046V91.0474V91.0489V91.0504V91.0519V91.0534V91.0548V91.0563V91.0578V91.0593V91.0608V91.0622V91.0637V91.0652V91.0667V91.0682V91.0696V91.0711V91.0726V91.0741V91.0756V91.0771V91.0785V91.08V91.0815V91.083V91.0845V91.086V91.0875V91.0889V91.0904V91.0919V91.0934V91.0949V91.0964V91.0979V91.0994V91.1009V91.1023V91.1038V91.1053V91.1068V91.1083V91.1098V91.1113V91.1128V91.1143V91.1158V91.1173V91.1188V91.1203V91.1218V91.1233V91.1248V91.1263V91.1278V91.1293V91.1308V91.1323V91.1338V91.1353V91.1368V91.1383V91.1398V91.1413V91.1428V91.1443V91.1458V91.1473V91.1488V91.1503V91.1518V91.1533V91.1548V91.1563V91.1578V91.1593V91.1608V91.1623V91.1638V91.1654V91.1669V91.1684V91.1699V91.1714V91.1729V91.1744V91.1759V91.1774V91.179V91.1805V91.182V91.1835V91.185V91.1865V91.188V91.1896V91.1911V91.1926V91.1941V91.1956V91.1971V91.1987V91.2002V91.2017V91.2032V91.2047V91.2063V91.2078V91.2093V91.2108V91.2123V91.2139V91.2154V91.2169V91.2184V91.22V91.2215V91.223V91.2245V91.2261V91.2276V91.2291V91.2306V91.2322V91.2337V91.2352V91.2368V91.2383V91.2398V91.2413V91.2429V91.2444V91.2459V91.2475V91.249V91.2505V91.2521V91.2536V91.2551V91.2567V91.2582V91.2597V91.2613V91.2628V91.2644V91.2659V91.2674V91.269V91.2705V91.2721V91.2736V91.2751V91.2767V91.2782V91.2798V91.2813V91.2828V91.2844V91.2859V91.2875V91.289V91.2906V91.2921V91.2937V91.2952V91.2967V91.2983V91.2998V91.3014V91.3029V91.3045V91.306V91.3076V91.3091V91.3107V91.3122V91.3138V91.3153V91.3169V91.3184V91.32V91.3216V91.3231V91.3247V91.3262V91.3278V91.3293V91.3309V91.3325V91.334V91.3356V91.3371V91.3387V91.3402V91.3418V91.3434V91.3449V91.3465V91.3481V91.3496V91.3512V91.3527V91.3543V91.3559V91.3574V91.359V91.3606V91.3621V91.3637V91.3653V91.3668V91.3684V91.37V91.3715V91.3731V91.3747V91.3763V91.3778V91.3794V91.381V91.3825V91.3841V91.3857V91.3873V91.3888V91.3904V91.392V91.3936V91.3951V91.3967V91.3983V91.3999V91.4014V91.403V91.4046V91.4062V91.4078V91.4093V91.4109V91.4125V91.4141V91.4157V91.4173V91.4188V91.4204V91.422V91.4236V91.4252V91.4268V91.4284V91.4299V91.4315V91.4331V91.4347V91.4363V91.4379V91.4395V91.4411V91.4427V91.4442V91.4458V91.4474V91.449V91.4506V91.4522V91.4538V91.4554V91.457V91.4586V91.4602V91.4618V91.4634V91.465V91.4666V91.4682V91.4698V91.4714V91.473V91.4746V91.4762V91.4778V91.4794V91.481V91.4826V91.4842V91.4858V91.4874V91.489V91.4906V91.4922V91.4938V91.4954V91.497V91.4986V91.5003V91.5019V91.5035V91.5051V91.5067V91.5083V91.5099V91.5115V91.5131V91.5148V91.5164V91.518V91.5196V91.5212V91.5228V91.5244V91.5261V91.5277V91.5293V91.5309V91.5325V91.5342V91.5358V91.5374V91.539V91.5406V91.5423V91.5439V91.5455V91.5471V91.5488V91.5504V91.552V91.5536V91.5553V91.5569V91.5585V91.5601V91.5618V91.5634V91.565V91.5667V91.5683V91.5699V91.5715V91.5732V91.5748V91.5764V91.5781V91.5797V91.5813V91.583V91.5846V91.5863V91.5879V91.5895V91.5912V91.5928V91.5944V91.5961V91.5977V91.5994V91.601V91.6026V91.6043V91.6059V91.6076V91.6092V91.6109V91.6125V91.6141V91.6158V91.6174V91.6191V91.6207V91.6224V91.624V91.6257V91.6273V91.629V91.6306V91.6323V91.6339V91.6356V91.6372V91.6389V91.6405V91.6422V91.6438V91.6455V91.6472V91.6488V91.6505V91.6521V91.6538V91.6554V91.6571V91.6588V91.6604V91.6621V91.6637V91.6654V91.6671V91.6687V91.6704V91.6721V91.6737V91.6754V91.677V91.6787V91.6804V91.6807C185.155 91.9056 185.182 92.1294 185.224 92.3505L185.237 92.4217H185.165H184.374H184.314V92.3617C184.314 92.288 184.303 92.2093 184.289 92.1233C184.287 92.1104 184.285 92.0974 184.283 92.0842C184.271 92.0107 184.258 91.9326 184.251 91.8532L184.251 91.8519L184.251 91.8519C184.244 91.7409 184.241 91.6298 184.243 91.5187C184.01 91.8362 183.713 92.1013 183.368 92.2954L183.365 92.2971L183.365 92.297C182.949 92.5002 182.489 92.5999 182.026 92.5876C181.769 92.5851 181.514 92.5472 181.268 92.4749M184.124 88.1747L181.284 92.4171M184.124 88.1747L184.129 88.1879L184.19 88.3345M184.124 88.1747L184.255 88.3343C184.233 88.3343 184.211 88.3344 184.19 88.3345M181.268 92.4749C181.268 92.4748 181.268 92.4747 181.267 92.4746L181.284 92.4171M181.268 92.4749C181.269 92.4749 181.269 92.475 181.269 92.4751L181.284 92.4171M181.268 92.4749C181.008 92.4081 180.762 92.2922 180.545 92.1335L180.545 92.133C180.322 91.9653 180.138 91.7509 180.006 91.5048L180.006 91.5048C179.853 91.217 179.777 90.8943 179.786 90.5683M181.284 92.4171C181.031 92.3522 180.792 92.2396 180.581 92.0851C180.365 91.9227 180.187 91.715 180.059 91.4765C179.91 91.1973 179.836 90.884 179.846 90.5676M179.786 90.5683C179.786 90.5691 179.786 90.5699 179.786 90.5707L179.846 90.5676M179.786 90.5683C179.786 90.5675 179.786 90.5667 179.786 90.5659L179.846 90.5676M179.786 90.5683C179.764 90.1279 179.9 89.6941 180.17 89.3454L180.172 89.3423L180.172 89.3424C180.445 89.0344 180.795 88.8047 181.186 88.6771M179.846 90.5676C179.824 90.1408 179.955 89.7201 180.217 89.3821C180.483 89.082 180.824 88.8583 181.205 88.734M185.165 92.3617H185.104C185.104 92.3655 185.105 92.3692 185.106 92.3729L185.165 92.3617ZM185.165 92.3617V92.3018H185.154C185.157 92.3218 185.161 92.3418 185.165 92.3617ZM180.668 87.2719L180.629 87.2256C180.628 87.2271 180.626 87.2287 180.625 87.2302L180.668 87.2719ZM180.668 87.2719L180.714 87.2335L180.71 87.2292C180.696 87.2433 180.682 87.2575 180.668 87.2719ZM181.186 88.6771C181.186 88.6771 181.186 88.6772 181.186 88.6772L181.205 88.734M181.186 88.6771C181.186 88.6771 181.186 88.6771 181.186 88.6771L181.205 88.734M181.186 88.6771C181.649 88.5229 182.129 88.429 182.616 88.3976M181.205 88.734C181.663 88.5814 182.138 88.4884 182.62 88.4574M182.62 88.4574L182.615 88.3977C182.615 88.3977 182.616 88.3977 182.616 88.3976M182.62 88.4574C183.137 88.4194 183.668 88.396 184.215 88.3943L184.19 88.3345M182.62 88.4574L182.616 88.3976C182.616 88.3976 182.616 88.3976 182.616 88.3976M182.616 88.3976C183.126 88.3601 183.651 88.3368 184.19 88.3345M182.791 89.2205L182.791 89.2205L182.793 89.2203C183.167 89.1735 183.542 89.1733 183.913 89.1733L184.093 89.1914V89.6192V89.6193C184.094 89.8817 184.049 90.1422 183.962 90.3897L183.962 90.3897L183.962 90.3907C183.881 90.6331 183.754 90.8571 183.586 91.05L183.586 91.0505C183.42 91.2457 183.211 91.3997 182.976 91.5005L182.976 91.5005L182.975 91.5009C182.712 91.6184 182.427 91.676 182.139 91.6695L182.138 91.6695C181.964 91.668 181.791 91.6474 181.622 91.6079L181.622 91.6078C181.459 91.5707 181.305 91.504 181.167 91.411L181.167 91.4106C181.031 91.3218 180.921 91.1989 180.847 91.0542L180.848 91.0542L180.847 91.0533C180.758 90.8851 180.714 90.6966 180.72 90.5063L180.72 90.5063L180.72 90.5023C180.715 90.3752 180.738 90.2486 180.786 90.1311C180.835 90.0139 180.908 89.9084 181 89.8218C181.221 89.6293 181.483 89.4905 181.766 89.4164L181.766 89.4164L181.767 89.4159C182.101 89.318 182.444 89.2526 182.791 89.2205Z" fill="#666666" stroke="#666666" stroke-width="0.119852"/>
<path d="M186.192 94.1953H169.611V94.9857H186.192V94.1953Z" fill="#666666"/>
</g>
<defs>
<clipPath id="clip0_4352_15302">
<rect width="6.72768" height="9.58814" fill="white" transform="translate(15.0018 21.424)"/>
</clipPath>
<clipPath id="clip1_4352_15302">
<rect width="7.48674" height="9.58814" fill="white" transform="translate(38.5087 21.424)"/>
</clipPath>
<clipPath id="clip2_4352_15302">
<rect width="10.0276" height="9.58814" fill="white" transform="translate(62.7747 21.424)"/>
</clipPath>
<clipPath id="clip3_4352_15302">
<rect width="9.58814" height="9.58814" fill="white" transform="translate(99.1697 21.424)"/>
</clipPath>
<clipPath id="clip4_4352_15302">
<rect width="9.59551" height="9.58814" fill="white" transform="translate(135.125 21.4241)"/>
</clipPath>
<clipPath id="clip5_4352_15302">
<rect width="10.1567" height="9.58814" fill="white" transform="translate(161.5 21.4241)"/>
</clipPath>
<clipPath id="clip6_4352_15302">
<rect width="9.84999" height="9.58814" fill="white" transform="translate(198.024 21.424)"/>
</clipPath>
<clipPath id="clip7_4352_15302">
<rect width="11.9626" height="9.58814" fill="white" transform="translate(234.241 21.424)"/>
</clipPath>
<clipPath id="clip8_4352_15302">
<rect width="11.6181" height="9.58814" fill="white" transform="translate(262.983 21.424)"/>
</clipPath>
<clipPath id="clip9_4352_15302">
<rect width="18.2414" height="18.2414" fill="white" transform="translate(12.6048 79.668)"/>
</clipPath>
<clipPath id="clip10_4352_15302">
<rect width="16.5815" height="12.3927" fill="white" transform="translate(169.611 82.5925)"/>
</clipPath>
</defs>
</svg>
