<?xml version="1.0" encoding="utf-8"?>
<!-- Generator: Adobe Illustrator 23.0.1, SVG Export Plug-In . SVG Version: 6.00 Build 0)  -->
<svg version="1.1" id="Layer_1" xmlns:sketch="http://www.bohemiancoding.com/sketch/ns"
	 xmlns="http://www.w3.org/2000/svg" xmlns:xlink="http://www.w3.org/1999/xlink" x="0px" y="0px" viewBox="0 0 140 41"
	 style="enable-background:new 0 0 140 41;" xml:space="preserve">
<style type="text/css">
	.st0{fill-rule:evenodd;clip-rule:evenodd;fill:#FFFFFF;stroke:#C7CACD;}
	.st1{fill:#E01E5A;}
	.st2{fill:#36C5F0;}
	.st3{fill:#2EB67D;}
	.st4{fill:#ECB22E;}
</style>
<title>btn-add-to-slack</title>
<desc>Created with Sketch.</desc>
<g id="Handoff-01" sketch:type="MSPage">
	<g id="btn-add-to-slack" sketch:type="MSLayerGroup">
		<path id="Mask-Copy-10" sketch:type="MSShapeGroup" class="st0" d="M6.5,0.5h127c3.3,0,6,2.7,6,6v28c0,3.3-2.7,6-6,6H6.5
			c-3.3,0-6-2.7-6-6v-28C0.5,3.2,3.2,0.5,6.5,0.5z"/>
		<g>
			<g>
				<path class="st1" d="M15.1,23.4c0,1.3-1,2.3-2.3,2.3s-2.3-1-2.3-2.3s1-2.3,2.3-2.3h2.3V23.4z"/>
				<path class="st1" d="M16.3,23.4c0-1.3,1-2.3,2.3-2.3s2.3,1,2.3,2.3v5.8c0,1.3-1,2.3-2.3,2.3s-2.3-1-2.3-2.3V23.4z"/>
			</g>
			<g>
				<path class="st2" d="M18.6,14.2c-1.3,0-2.3-1-2.3-2.3s1-2.3,2.3-2.3s2.3,1,2.3,2.3v2.3H18.6z"/>
				<path class="st2" d="M18.6,15.3c1.3,0,2.3,1,2.3,2.3s-1,2.3-2.3,2.3h-5.8c-1.3,0-2.3-1-2.3-2.3s1-2.3,2.3-2.3H18.6z"/>
			</g>
			<g>
				<path class="st3" d="M27.9,17.7c0-1.3,1-2.3,2.3-2.3s2.3,1,2.3,2.3s-1,2.3-2.3,2.3h-2.3V17.7z"/>
				<path class="st3" d="M26.7,17.7c0,1.3-1,2.3-2.3,2.3c-1.3,0-2.3-1-2.3-2.3v-5.8c0-1.3,1-2.3,2.3-2.3c1.3,0,2.3,1,2.3,2.3V17.7z"
					/>
			</g>
			<g>
				<path class="st4" d="M24.4,26.9c1.3,0,2.3,1,2.3,2.3c0,1.3-1,2.3-2.3,2.3c-1.3,0-2.3-1-2.3-2.3v-2.3H24.4z"/>
				<path class="st4" d="M24.4,25.8c-1.3,0-2.3-1-2.3-2.3s1-2.3,2.3-2.3h5.8c1.3,0,2.3,1,2.3,2.3s-1,2.3-2.3,2.3H24.4z"/>
			</g>
		</g>
		<g>
			<path d="M47.5,23h-5l-1.2,3.2h-1.7l4.5-11.3h1.8l4.5,11.3h-1.7L47.5,23z M43,21.6h3.9l-2-5.1L43,21.6z"/>
			<path d="M56.7,25c-0.4,0.7-1.2,1.4-2.4,1.4c-2.3,0-3.6-1.8-3.6-4.1c0-2.2,1.5-4,3.6-4c1.4,0,2.1,0.7,2.4,1.3v-5h1.5v10.2
				c0,0.7,0.1,1.3,0.1,1.4h-1.5c0-0.2-0.1-0.6-0.1-1V25z M54.4,25.1c1.4,0,2.2-1.2,2.2-2.8c0-1.6-0.8-2.7-2.2-2.7s-2.3,1.1-2.3,2.7
				C52.2,23.9,53,25.1,54.4,25.1z"/>
			<path d="M65.5,25c-0.4,0.7-1.2,1.4-2.4,1.4c-2.3,0-3.6-1.8-3.6-4.1c0-2.2,1.5-4,3.6-4c1.4,0,2.1,0.7,2.4,1.3v-5h1.5v10.2
				c0,0.7,0.1,1.3,0.1,1.4h-1.5c0-0.2-0.1-0.6-0.1-1V25z M63.2,25.1c1.4,0,2.2-1.2,2.2-2.8c0-1.6-0.8-2.7-2.2-2.7
				c-1.4,0-2.3,1.1-2.3,2.7C61,23.9,61.8,25.1,63.2,25.1z"/>
			<path d="M74.7,18.5h1.7v1.4h-1.7v4c0,0.7,0.3,1.1,1.1,1.1c0.2,0,0.5,0,0.6-0.1v1.3c-0.1,0-0.5,0.1-1,0.1c-1.3,0-2.1-0.8-2.1-2.2
				v-4.2h-1.5v-1.4h0.4c0.8,0,1.2-0.5,1.2-1.2v-1.2h1.4V18.5z"/>
			<path d="M84.8,22.3c0,2.4-1.6,4.1-3.9,4.1c-2.3,0-3.9-1.7-3.9-4.1c0-2.3,1.6-4.1,3.9-4.1C83.2,18.3,84.8,20,84.8,22.3z
				 M83.3,22.3c0-1.8-1.1-2.7-2.4-2.7c-1.3,0-2.4,1-2.4,2.7c0,1.8,1.1,2.8,2.4,2.8C82.2,25.1,83.3,24.1,83.3,22.3z"/>
			<path d="M95.6,18.2c-0.1-0.6-0.6-1.6-2.1-1.6c-1.1,0-1.8,0.7-1.8,1.4c0,0.6,0.4,1.1,1.2,1.3l1.6,0.3c2.1,0.4,3.2,1.7,3.2,3.3
				c0,1.7-1.5,3.5-4.1,3.5c-3,0-4.3-1.9-4.5-3.6l2-0.5c0.1,1.1,0.9,2.1,2.5,2.1c1.2,0,1.8-0.6,1.8-1.4c0-0.7-0.5-1.2-1.4-1.3
				l-1.6-0.3c-1.8-0.4-3-1.5-3-3.2c0-2,1.8-3.6,4-3.6c2.8,0,3.8,1.7,4.1,2.9L95.6,18.2z"/>
			<path d="M99,26.2V14.6h2.1v11.6H99z"/>
			<path d="M104.7,21.7l1.9-0.3c0.4-0.1,0.6-0.3,0.6-0.6c0-0.6-0.4-1-1.3-1c-0.9,0-1.4,0.6-1.5,1.3l-1.9-0.4
				c0.1-1.2,1.3-2.6,3.4-2.6c2.5,0,3.4,1.4,3.4,3V25c0,0.4,0,1,0.1,1.2h-2c0-0.2-0.1-0.6-0.1-0.9c-0.4,0.6-1.2,1.2-2.3,1.2
				c-1.7,0-2.7-1.1-2.7-2.4C102.3,22.6,103.4,21.9,104.7,21.7z M107.2,23v-0.4l-1.8,0.3c-0.5,0.1-1,0.4-1,1c0,0.5,0.3,0.9,1,0.9
				C106.4,24.8,107.2,24.4,107.2,23z"/>
			<path d="M112.5,22.3c0,1.4,0.9,2.2,2,2.2c1.1,0,1.6-0.7,1.8-1.3l1.9,0.6c-0.4,1.3-1.6,2.7-3.7,2.7c-2.3,0-4.1-1.8-4.1-4.2
				c0-2.4,1.8-4.2,4.1-4.2c2.1,0,3.4,1.3,3.7,2.7l-1.9,0.6c-0.2-0.7-0.7-1.3-1.7-1.3C113.4,20.1,112.5,20.8,112.5,22.3z"/>
			<path d="M123.7,21.6l3.2,4.6h-2.6l-2.1-3l-0.9,0.9v2.1h-2.1V14.6h2.1v6.6l2.7-2.9h2.8L123.7,21.6z"/>
		</g>
	</g>
</g>
</svg>
