<svg xmlns="http://www.w3.org/2000/svg" width="298" height="116" fill="none">
  <rect width="296.761" height="116" x=".62" fill="#17D4A7" rx="8"/>
  <path fill="#F8F8F8" d="M.62 8.54h281.172a7.19 7.19 0 0 1 7.192 7.191v28.165H.62z"/>
  <g clip-path="url(#a)">
    <path fill="#CAC9CA" stroke="#CAC9CA" stroke-width=".3" d="M14.852 31.012v.15h3.566a4.05 4.05 0 0 0 2.486-.722l.005-.004a2.49 2.49 0 0 0 .978-2.112 2.9 2.9 0 0 0-.143-.914v-.001a2.4 2.4 0 0 0-.418-.758 2.1 2.1 0 0 0-.705-.552 3 3 0 0 0-.513-.204c.309-.153.581-.373.796-.647l.006-.007c.294-.425.444-.934.426-1.451a2.32 2.32 0 0 0-.777-1.847l-.005-.004a2.96 2.96 0 0 0-2-.665h-3.702zm2.797-5.59v-.001h-1.363v-2.84h2.111c.394-.02.783.104 1.094.347a1.29 1.29 0 0 1 .403 1.034v.023a1.21 1.21 0 0 1-.518 1.089 3.33 3.33 0 0 1-1.727.347Zm1.07 4.386-.009.001c-.242.038-.533.038-.872.038h-1.552v-3.12h2.247a2.18 2.18 0 0 1 1.41.423 1.45 1.45 0 0 1 .502 1.192v.014c.007.222-.038.442-.13.644a1.1 1.1 0 0 1-.328.413 1.7 1.7 0 0 1-.55.256l-.004.001a3.6 3.6 0 0 1-.713.138Z"/>
  </g>
  <g clip-path="url(#b)">
    <path fill="#CAC9CA" d="M45.995 22.678v-1.254h-6.08v1.254h2.589l-1.366 7.08h-2.63v1.254h6.081v-1.254h-2.597l1.359-7.08h2.645Z"/>
  </g>
  <g fill="#CAC9CA" clip-path="url(#c)">
    <path d="M72.802 26.059H62.775v.799h10.027v-.8Zm-3.116 1.598c.131.21.198.454.192.703a1.46 1.46 0 0 1-.6 1.23 2.53 2.53 0 0 1-1.597.448 2.64 2.64 0 0 1-1.646-.472 1.7 1.7 0 0 1-.68-1.206h-1.078c.006.319.074.633.2.927.13.309.314.593.543.838.284.291.631.513 1.015.648.483.166.991.247 1.502.24a4 4 0 0 0 2.445-.704 2.4 2.4 0 0 0 .959-2.021 3 3 0 0 0-.08-.631z"/>
    <path d="m66.714 26.426 1.598.432h2.157c-.048-.056-.088-.112-.136-.16a4.3 4.3 0 0 0-1.765-.895l-1.599-.431c-.87-.224-1.302-.696-1.302-1.399a1.34 1.34 0 0 1 .56-1.158 2.4 2.4 0 0 1 1.462-.416 2.24 2.24 0 0 1 1.478.448c.352.294.574.717.615 1.174h1.079a2.66 2.66 0 0 0-.304-1.174c-.17-.325-.42-.6-.727-.8a3.8 3.8 0 0 0-.99-.455c-.368-.1-.747-.15-1.127-.152a4 4 0 0 0-1.526.288c-.462.19-.862.502-1.16.903a2.4 2.4 0 0 0-.447 1.43 2.08 2.08 0 0 0 .592 1.558c.434.4.966.678 1.542.807"/>
  </g>
  <path stroke="#CAC9CA" stroke-width=".899" d="M86.436 18.128v16.18"/>
  <g fill="#CAC9CA" clip-path="url(#d)">
    <path d="M104.611 28.008a2.4 2.4 0 0 1-1.726-.711l.432-.432a1.83 1.83 0 0 0 2.596 0l1.702-1.701a1.836 1.836 0 0 0-2.596-2.597l-.943.982-.432-.431.943-.943a2.445 2.445 0 1 1 3.46 3.452l-1.702 1.702a2.4 2.4 0 0 1-1.734.679"/>
    <path d="M101.615 31.012a2.44 2.44 0 0 1-2.26-1.506 2.445 2.445 0 0 1 .526-2.665l1.702-1.702a2.45 2.45 0 0 1 3.46 0l-.432.432a1.836 1.836 0 0 0-2.597 0l-1.702 1.702a1.839 1.839 0 0 0 2.597 2.596l.943-.942.431.423-.942.951a2.46 2.46 0 0 1-1.726.711"/>
  </g>
  <path stroke="#CAC9CA" stroke-width=".899" d="M122.391 18.128v16.18"/>
  <g fill="#CAC9CA" clip-path="url(#e)">
    <path d="M144.728 22.375h-6.581v.737h6.581zm0 3.537h-6.581v.737h6.581zm0 3.531h-6.581v.737h6.581zm-8.932-7.488-.642.442v-.509l.671-.464h.545v2.602h-.545zm-.59 6.898a.7.7 0 0 1 .192-.265 1 1 0 0 1 .302-.177q.187-.06.383-.06a1.3 1.3 0 0 1 .376.052.9.9 0 0 1 .288.163.67.67 0 0 1 .258.545q.015.103 0 .206a1 1 0 0 1-.104.214 1.6 1.6 0 0 1-.184.236 4 4 0 0 1-.287.287l-.494.48h1.135v.449h-1.872v-.376l.847-.833.229-.228.14-.17a.7.7 0 0 0 .066-.14.3.3 0 0 0 0-.118.3.3 0 0 0 0-.147.3.3 0 0 0-.088-.11.3.3 0 0 0-.125-.074.4.4 0 0 0-.163 0 .6.6 0 0 0-.176 0 .6.6 0 0 0-.133.08.4.4 0 0 0-.089.133.4.4 0 0 0 0 .163h-.501a.9.9 0 0 1 0-.31"/>
  </g>
  <g fill="#CAC9CA" clip-path="url(#f)">
    <path d="M171.657 22.095h-6.956v.779h6.956v-.78Zm0 3.73h-6.956v.78h6.956zm0 3.739h-6.956v.779h6.956v-.78Zm-8.046-8.14H161.5v2.11h2.111zm-2.111 3.739v2.11h2.111v-2.11zm0 3.739v2.11h2.111v-2.11z"/>
  </g>
  <path stroke="#CAC9CA" stroke-width=".899" d="M185.29 18.128v16.18"/>
  <g fill="#CAC9CA" clip-path="url(#g)">
    <path d="M207.874 22.087h-6.877v.77h6.877zm0 3.688h-6.877v.77h6.877zm0 3.698h-6.877v.77h6.877zm-8.695-8.049h-1.155v9.588h1.155z"/>
  </g>
  <path stroke="#CAC9CA" stroke-width=".899" d="M221.507 18.128v16.18"/>
  <g fill="#CAC9CA" clip-path="url(#h)">
    <path d="m237.101 23.454-2.86 2.859 2.851 2.851.584-.583-2.276-2.268 2.276-2.276zm6.244-.033-.575.584 2.267 2.276-2.276 2.275.584.575 2.859-2.85zm-2.548-1.988-2.168 9.407.801.185 2.168-9.407z"/>
  </g>
  <g fill="#CAC9CA" clip-path="url(#i)">
    <path d="m264.853 26.656-1.87-1.87 1.87-1.87.569.57-1.307 1.3 1.307 1.3zm4.068-.016-.57-.57 1.3-1.3-1.3-1.308.57-.561 1.869 1.87zm-1.819-4.888-1.339 5.81.782.18 1.339-5.81z"/>
    <path d="M274.601 31.012h-9.796v-2.03h.802v1.228h8.192v-7.984h-2.961v-.802h3.763z"/>
  </g>
  <path fill="#fff" d="M.62 43.896h288.364v56.41a7.19 7.19 0 0 1-7.192 7.192H.62z"/>
  <path fill="#616061" d="m16.924 55.784-2.87 7.7h-1.16l2.871-7.7zm2.207 10.292q-1.185 0-1.817-.427-.632-.426-.632-1.196 0-.538.337-.91.337-.37.964-.512a1.1 1.1 0 0 1-.41-.326.82.82 0 0 1-.17-.5.87.87 0 0 1 .185-.559 2 2 0 0 1 .553-.448 1.6 1.6 0 0 1-.737-.632 1.93 1.93 0 0 1-.274-1.037q0-.633.268-1.075.269-.447.785-.68.516-.236 1.248-.236.159 0 .343.021.19.016.347.042.165.021.248.047h2.017v.69l-.99.185a1.74 1.74 0 0 1 .31 1.011q0 .906-.626 1.427-.622.517-1.717.517a6 6 0 0 1-.511-.043 1 1 0 0 0-.29.258.5.5 0 0 0-.1.311.3.3 0 0 0 .1.232.7.7 0 0 0 .295.126q.2.043.485.042h1.006q.959 0 1.464.406.506.405.506 1.19 0 .996-.822 1.533-.822.543-2.365.543m.047-.87q.648 0 1.09-.126.444-.126.67-.363a.76.76 0 0 0 .226-.553q0-.285-.142-.438-.142-.152-.427-.21a3.6 3.6 0 0 0-.705-.058h-.917q-.342 0-.606.105a.94.94 0 0 0-.41.316.85.85 0 0 0-.143.495q0 .4.353.617.358.216 1.011.216Zm.243-4.54q.542 0 .806-.294.263-.3.263-.843 0-.59-.274-.885-.269-.295-.8-.295-.522 0-.796.3-.268.3-.268.89 0 .532.268.832.275.295.8.295Zm4.84 2.818H23.02V55.29h1.243v8.195Zm6.5-2.928q0 .727-.19 1.29-.189.564-.552.954a2.4 2.4 0 0 1-.875.59q-.51.2-1.153.2-.6 0-1.1-.2a2.5 2.5 0 0 1-.87-.59 2.7 2.7 0 0 1-.564-.954 3.9 3.9 0 0 1-.2-1.29q0-.964.332-1.633.337-.675.959-1.027.62-.353 1.48-.353.805 0 1.422.353.615.353.964 1.027.347.675.347 1.633m-4.229 0q0 .637.153 1.09.158.453.484.695.327.237.843.237c.516 0 .625-.079.843-.237a1.4 1.4 0 0 0 .479-.695q.153-.453.153-1.09t-.153-1.08q-.153-.447-.48-.68-.326-.236-.847-.236-.77 0-1.122.516t-.353 1.48m6.458-5.267v1.975q0 .342-.021.674a17 17 0 0 1-.032.511h.053a2 2 0 0 1 .658-.637q.426-.264 1.09-.264 1.038 0 1.67.764.632.758.632 2.25 0 .99-.29 1.663-.29.675-.816 1.022-.522.343-1.227.343-.663 0-1.075-.243a2.1 2.1 0 0 1-.637-.574h-.09l-.226.711h-.927V55.29zm1.422 3.265q-.526 0-.838.211-.304.21-.442.632-.137.416-.142 1.059v.11q0 .975.305 1.49.31.517 1.127.517.648 0 .996-.521.347-.528.347-1.507 0-.99-.347-1.49-.343-.5-1.006-.5Zm5.915-1.01q1.106 0 1.67.489.568.49.568 1.527v3.924h-.88l-.236-.827h-.042a3 3 0 0 1-.511.522q-.264.205-.611.305-.343.106-.838.106a2.2 2.2 0 0 1-.932-.19 1.5 1.5 0 0 1-.648-.59q-.237-.395-.237-1 0-.901.67-1.354.673-.453 2.032-.5l1.011-.038v-.305q0-.606-.284-.864-.28-.258-.79-.258-.437 0-.848.127-.41.127-.8.31l-.4-.874a4.5 4.5 0 0 1 .968-.369 4.5 4.5 0 0 1 1.138-.142Zm1.011 3.154-.753.026q-.927.033-1.301.316a.93.93 0 0 0-.374.78q0 .431.258.632.258.195.68.195.642 0 1.063-.364.427-.367.427-1.08zm3.772 2.786h-1.243V55.29h1.243zm4.33-5.94q1.037 0 1.664.758.632.758.632 2.254 0 .99-.295 1.67-.29.674-.816 1.021a2.17 2.17 0 0 1-1.217.343 2.3 2.3 0 0 1-.77-.116 1.9 1.9 0 0 1-.557-.3 2 2 0 0 1-.39-.411h-.074q.027.21.047.468a4 4 0 0 1 .027.464v2.375h-1.243v-8.416h1.011l.174.806h.058q.163-.247.395-.459.237-.21.569-.331a2.2 2.2 0 0 1 .785-.127Zm-.332 1.01q-.51 0-.822.206a1.15 1.15 0 0 0-.448.605q-.136.406-.147 1.017v.174q0 .648.132 1.1.136.449.447.685.316.232.853.232.454 0 .748-.248.3-.248.448-.705a3.6 3.6 0 0 0 .148-1.08q0-.943-.337-1.464-.332-.522-1.022-.522m4.867-.9v5.83h-1.238v-5.83zm-.611-2.233q.285 0 .49.152.21.153.21.527 0 .368-.21.527a.8.8 0 0 1-.49.152.8.8 0 0 1-.5-.152q-.2-.159-.2-.527 0-.374.2-.527a.8.8 0 0 1 .5-.152m4.993 2.122q.985 0 1.533.511.553.506.553 1.627v3.803h-1.238v-3.57q0-.681-.279-1.017-.279-.343-.864-.343-.847 0-1.18.522-.326.52-.326 1.511v2.897h-1.238v-5.83h.964l.174.79h.068a1.7 1.7 0 0 1 .47-.5q.284-.201.631-.3.353-.1.732-.1Zm5.052 8.533q-1.185 0-1.817-.427-.633-.426-.633-1.196 0-.538.338-.91.337-.37.964-.512a1.1 1.1 0 0 1-.411-.326.82.82 0 0 1-.169-.5q0-.327.184-.559.185-.232.553-.448a1.6 1.6 0 0 1-.737-.632 1.93 1.93 0 0 1-.274-1.037q0-.633.269-1.075.268-.447.785-.68.516-.236 1.248-.236.158 0 .342.021.19.016.348.042.163.021.247.047h2.018v.69l-.99.185a1.74 1.74 0 0 1 .31 1.011q0 .906-.627 1.427-.62.517-1.717.517a6 6 0 0 1-.51-.043 1 1 0 0 0-.29.258.5.5 0 0 0-.1.311q0 .142.1.232a.7.7 0 0 0 .295.126q.2.043.484.042h1.006q.959 0 1.465.406.505.405.505 1.19 0 .996-.822 1.533-.82.543-2.364.543m.047-.87q.648 0 1.09-.126t.67-.363a.76.76 0 0 0 .226-.553q0-.285-.142-.438-.142-.152-.427-.21a3.6 3.6 0 0 0-.706-.058h-.916q-.343 0-.606.105a.94.94 0 0 0-.41.316.85.85 0 0 0-.143.495q0 .4.353.617.358.216 1.011.216Zm.242-4.54q.543 0 .806-.294.263-.3.263-.843 0-.59-.273-.885-.27-.295-.8-.295-.523 0-.796.3-.27.3-.269.89 0 .532.269.832.274.295.8.295m8.96-3.123q1.038 0 1.665.759.631.758.632 2.254 0 .99-.295 1.67-.29.674-.817 1.021a2.17 2.17 0 0 1-1.216.343 2.3 2.3 0 0 1-.77-.116 1.9 1.9 0 0 1-.558-.3 2 2 0 0 1-.39-.411h-.073q.026.21.047.468a4 4 0 0 1 .027.464v2.375h-1.243v-8.416h1.01l.175.806h.058q.162-.247.395-.459.237-.21.568-.331a2.2 2.2 0 0 1 .785-.127m-.332 1.011q-.51 0-.821.206a1.15 1.15 0 0 0-.448.605q-.136.406-.147 1.017v.174q0 .648.131 1.1.137.449.448.685.316.232.853.232.454 0 .748-.248.3-.248.448-.705.147-.459.147-1.08 0-.943-.337-1.464-.332-.522-1.022-.522m4.867-.9v5.83h-1.237v-5.83zm-.61-2.233q.284 0 .49.152.21.153.21.527 0 .368-.21.527a.8.8 0 0 1-.49.152.8.8 0 0 1-.5-.152q-.201-.159-.201-.527 0-.374.2-.527a.8.8 0 0 1 .5-.152Zm4.993 2.122q.986 0 1.533.511.553.506.553 1.627v3.803h-1.238v-3.57q0-.681-.28-1.017-.278-.343-.863-.343-.848 0-1.18.522-.326.52-.326 1.511v2.897h-1.238v-5.83h.964l.174.79h.068a1.7 1.7 0 0 1 .469-.5q.285-.201.632-.3.353-.1.732-.1Zm5.051 8.533q-1.184 0-1.817-.427-.632-.426-.632-1.196 0-.538.337-.91.337-.37.964-.512a1.1 1.1 0 0 1-.41-.326.82.82 0 0 1-.17-.5q0-.327.185-.559a2 2 0 0 1 .553-.448 1.6 1.6 0 0 1-.737-.632 1.93 1.93 0 0 1-.274-1.037q0-.633.268-1.075.27-.447.785-.68.516-.236 1.249-.236.157 0 .342.021.189.016.348.042.162.021.247.047h2.017v.69l-.99.185a1.74 1.74 0 0 1 .31 1.011q0 .906-.626 1.427-.621.517-1.717.517a6 6 0 0 1-.51-.043 1 1 0 0 0-.29.258.5.5 0 0 0-.1.311q0 .142.1.232a.7.7 0 0 0 .294.126q.2.043.485.042h1.006q.96 0 1.464.406.506.405.506 1.19 0 .996-.822 1.533-.822.543-2.365.543m.048-.87q.648 0 1.09-.126t.669-.363a.76.76 0 0 0 .226-.553q0-.285-.142-.438-.142-.152-.426-.21a3.6 3.6 0 0 0-.706-.058h-.917q-.342 0-.605.105a.94.94 0 0 0-.411.316.85.85 0 0 0-.142.495q0 .4.352.617.359.216 1.012.216Zm.242-4.54q.542 0 .806-.294.263-.3.263-.843 0-.59-.274-.885-.269-.295-.8-.295-.522 0-.796.3-.268.3-.268.89 0 .532.269.832.273.295.8.295m68.919-2.07h-1.417v4.888h-1.238v-4.888h-.953v-.595l.953-.363v-.406q0-.742.232-1.18.237-.436.674-.626.442-.195 1.054-.195.399 0 .732.069.332.062.558.147l-.321.937a4 4 0 0 0-.401-.105 2 2 0 0 0-.474-.053q-.421 0-.621.264-.195.263-.195.769v.395h1.417zm3.518-1.053a3.6 3.6 0 0 1 .622.058l-.116 1.159a1.6 1.6 0 0 0-.274-.048q-.158-.015-.284-.015-.332 0-.632.11-.3.106-.532.327a1.5 1.5 0 0 0-.364.542q-.13.326-.131.759v3.05H156.4v-5.831h.969l.168 1.027h.058a2.6 2.6 0 0 1 .432-.569 2 2 0 0 1 .59-.41q.338-.159.737-.159m6.432 3.013q0 .727-.19 1.29a2.6 2.6 0 0 1-.553.954 2.4 2.4 0 0 1-.874.59q-.511.2-1.154.2-.6 0-1.1-.2a2.5 2.5 0 0 1-.869-.59 2.7 2.7 0 0 1-.564-.954 3.9 3.9 0 0 1-.2-1.29q0-.964.332-1.633a2.36 2.36 0 0 1 .958-1.027q.622-.353 1.48-.353.807 0 1.422.353.616.353.964 1.027.348.675.348 1.633m-4.23 0q0 .637.153 1.09.159.453.485.695.325.237.843.237.516 0 .842-.237.327-.242.48-.695t.152-1.09q0-.637-.152-1.08-.153-.447-.48-.68-.326-.236-.848-.236-.768 0-1.122.516-.353.516-.353 1.48m11.809-3.013q.98 0 1.475.506.5.506.5 1.622v3.813h-1.237v-3.592q0-.663-.258-1-.258-.338-.785-.338-.737 0-1.064.474-.321.47-.321 1.365v3.091h-1.238v-3.592q0-.442-.116-.737a.87.87 0 0 0-.342-.448 1.04 1.04 0 0 0-.585-.153q-.512 0-.816.232-.3.232-.432.685-.132.447-.132 1.1v2.913h-1.238v-5.83h.964l.174.784h.069a1.6 1.6 0 0 1 .442-.5q.268-.2.595-.295.327-.1.68-.1.653 0 1.1.232.448.226.669.695h.095a1.67 1.67 0 0 1 .764-.7 2.4 2.4 0 0 1 1.037-.227m8.876 1.76h2.876v3.865a8.6 8.6 0 0 1-1.254.311q-.648.11-1.453.11-1.175 0-1.991-.463a3 3 0 0 1-1.233-1.353q-.421-.89-.421-2.144 0-1.206.469-2.091a3.26 3.26 0 0 1 1.364-1.375q.895-.49 2.17-.49.626 0 1.211.127.59.12 1.08.337l-.443 1.043a5 5 0 0 0-.874-.311 4 4 0 0 0-1.006-.126q-.827 0-1.427.358a2.37 2.37 0 0 0-.917 1.011q-.321.648-.321 1.533 0 .858.258 1.506t.806 1.011q.553.358 1.427.358.438 0 .743-.047a9 9 0 0 0 .563-.105v-1.986h-1.627zm6.484-1.76q.78 0 1.338.321.558.322.858.912t.3 1.411v.664h-3.892q.021.847.453 1.306.438.459 1.222.458a4.3 4.3 0 0 0 1.001-.105q.447-.111.922-.321v1.006a4 4 0 0 1-.891.3 5.4 5.4 0 0 1-1.085.095q-.858 0-1.511-.332a2.43 2.43 0 0 1-1.017-1q-.363-.664-.363-1.65 0-.979.332-1.664t.932-1.043 1.401-.358m0 .932q-.585 0-.948.38-.358.379-.421 1.11h2.654a2 2 0 0 0-.147-.773 1.13 1.13 0 0 0-.422-.527q-.28-.19-.716-.19m6.416-.932a3.5 3.5 0 0 1 .621.058l-.116 1.159a1.6 1.6 0 0 0-.274-.048q-.158-.015-.284-.015-.332 0-.632.11-.3.106-.532.327a1.5 1.5 0 0 0-.364.542q-.13.326-.131.759v3.05h-1.243v-5.831h.969l.168 1.027h.058a2.6 2.6 0 0 1 .432-.569 2 2 0 0 1 .59-.41 1.7 1.7 0 0 1 .738-.159m7.858 0q.98 0 1.475.506.5.506.5 1.622v3.813h-1.237v-3.592q0-.663-.259-1-.258-.338-.784-.338-.738 0-1.064.474-.321.47-.322 1.365v3.091h-1.237v-3.592q0-.442-.116-.737a.87.87 0 0 0-.342-.448 1.04 1.04 0 0 0-.585-.153q-.511 0-.816.232-.301.232-.432.685-.132.447-.132 1.1v2.913h-1.238v-5.83h.964l.174.784h.068q.18-.305.443-.5.268-.2.595-.295.327-.1.679-.1.654 0 1.101.232.448.226.669.695h.095q.273-.474.764-.7a2.4 2.4 0 0 1 1.037-.227m5.557 0q1.107 0 1.67.49.569.49.569 1.527v3.924h-.88l-.237-.827h-.042a3 3 0 0 1-.511.522 1.8 1.8 0 0 1-.611.305 2.9 2.9 0 0 1-.837.106 2.2 2.2 0 0 1-.933-.19 1.5 1.5 0 0 1-.647-.59q-.237-.395-.237-1 0-.901.668-1.354.675-.453 2.033-.5l1.012-.038v-.305q0-.606-.285-.864-.279-.258-.79-.258-.437 0-.848.127-.41.127-.8.31l-.401-.874q.427-.226.97-.369a4.5 4.5 0 0 1 1.137-.142m1.011 3.155-.753.026q-.926.033-1.301.316a.93.93 0 0 0-.374.78q0 .431.258.632.259.195.68.195.642 0 1.064-.364.426-.367.426-1.08zm5.568-3.155q.986 0 1.533.511.552.506.553 1.627v3.803h-1.238v-3.57q0-.681-.279-1.017-.279-.343-.864-.343-.848 0-1.18.522-.326.52-.326 1.511v2.897h-1.238v-5.83h.964l.174.79h.068a1.7 1.7 0 0 1 .469-.5q.284-.201.632-.3.353-.1.732-.1Zm2.507.11h1.349l1.195 3.33q.079.226.143.447.068.216.115.427.054.21.085.421h.031q.053-.274.148-.61.1-.344.221-.685l1.148-3.33h1.333l-2.502 6.632a3.6 3.6 0 0 1-.532.969 2 2 0 0 1-.737.61 2.2 2.2 0 0 1-.975.212q-.263 0-.458-.032a4 4 0 0 1-.332-.058v-.99a2.8 2.8 0 0 0 .627.068q.332 0 .574-.131a1.2 1.2 0 0 0 .411-.374q.168-.238.279-.543l.205-.548z"/>
  <path fill="#7095BC" d="M92.3 66.076a3 3 0 0 1-.52-.043 3 3 0 0 1-.417-.09v-.99q.18.053.348.08.168.026.384.026a.84.84 0 0 0 .564-.19q.226-.19.226-.721v-6.494h1.238v6.604q0 .533-.19.943a1.38 1.38 0 0 1-.59.643q-.4.231-1.042.232Zm.512-9.976q0-.374.2-.527a.8.8 0 0 1 .5-.152q.285 0 .49.152.21.153.21.527 0 .368-.21.527a.8.8 0 0 1-.49.152.8.8 0 0 1-.5-.152q-.2-.159-.2-.527m6.573 5.72q0 .575-.279.969-.279.395-.816.6-.532.2-1.307.2-.61 0-1.053-.089a3.6 3.6 0 0 1-.827-.263v-1.07q.416.195.932.338.522.142.985.142.611 0 .88-.19a.61.61 0 0 0 .268-.516.55.55 0 0 0-.11-.337q-.105-.153-.4-.31a8 8 0 0 0-.854-.39 7 7 0 0 1-.932-.443 1.6 1.6 0 0 1-.574-.532q-.195-.316-.195-.806 0-.774.611-1.174.615-.406 1.627-.406.538 0 1.012.11.48.106.937.312l-.39.932a6 6 0 0 0-.795-.285 3 3 0 0 0-.806-.116q-.48 0-.732.148a.47.47 0 0 0-.247.421q0 .206.12.348.122.143.417.284.3.143.832.353.522.2.9.422.386.214.59.532.207.315.206.816m2.866 1.77q-1.044 0-1.675-.759-.627-.764-.627-2.249 0-1.5.637-2.27.643-.768 1.691-.769.443 0 .774.121.332.117.569.316.243.2.411.448h.058a11 11 0 0 1-.063-.469 6 6 0 0 1-.032-.574V55.29h1.243v8.195h-.969l-.221-.795h-.053a1.87 1.87 0 0 1-.969.78 2.2 2.2 0 0 1-.774.12m.347-1.006q.797 0 1.122-.459.327-.458.337-1.374v-.164q0-.98-.316-1.5-.315-.528-1.153-.527-.67 0-1.022.542-.348.538-.348 1.501 0 .964.348 1.475.352.506 1.032.506m6.305-5.04q.78 0 1.338.32.558.322.859.912t.3 1.411v.664h-3.892q.021.847.452 1.306.438.458 1.222.458.559 0 1.001-.105.448-.111.922-.321v1.006a4 4 0 0 1-.89.3 5.4 5.4 0 0 1-1.085.095q-.859 0-1.512-.332a2.4 2.4 0 0 1-1.016-1q-.364-.665-.364-1.65 0-.979.332-1.664t.932-1.043q.602-.358 1.401-.358Zm0 .931q-.583 0-.948.38-.358.379-.421 1.11h2.654a2 2 0 0 0-.147-.773 1.1 1.1 0 0 0-.421-.527q-.28-.19-.717-.19m4.704 5.01h-1.243v-8.196h1.243v8.195Zm2.576-5.831v5.83h-1.238v-5.83zm-.611-2.233q.285 0 .49.152.21.153.211.527 0 .368-.211.527a.8.8 0 0 1-.49.152.8.8 0 0 1-.5-.152q-.2-.159-.2-.527 0-.374.2-.527a.8.8 0 0 1 .5-.152m3.287 8.063-2.217-5.83h1.311l1.201 3.423a8 8 0 0 1 .342 1.343h.042a5 5 0 0 1 .143-.642q.105-.38.216-.7l1.2-3.424h1.307l-2.218 5.83zm6.953-5.94a3.5 3.5 0 0 1 .621.057l-.116 1.159a1.6 1.6 0 0 0-.273-.048 3 3 0 0 0-.285-.015q-.332 0-.632.11a1.49 1.49 0 0 0-.895.87q-.132.326-.132.758v3.05h-1.243v-5.831h.969l.169 1.027h.058q.173-.31.432-.569.258-.258.589-.41a1.7 1.7 0 0 1 .738-.159Zm1.09 5.287q0-.432.222-.606a.85.85 0 0 1 .547-.179q.322 0 .548.18.232.173.232.605 0 .422-.232.611a.84.84 0 0 1-.548.184.84.84 0 0 1-.547-.184q-.222-.19-.222-.61Zm5.057.759q-.827 0-1.432-.322a2.15 2.15 0 0 1-.933-.985q-.326-.663-.326-1.685 0-1.065.358-1.738.358-.674.99-.996.637-.32 1.459-.32.522 0 .943.105.427.1.721.247l-.368.99a5 5 0 0 0-.659-.221q-.336-.09-.648-.09-.51 0-.853.227-.337.226-.505.674-.164.448-.164 1.111 0 .643.169 1.085.168.438.5.664.332.221.817.221.478 0 .858-.116.38-.115.716-.3v1.075a2.7 2.7 0 0 1-.711.279 4 4 0 0 1-.932.095m7.743-3.034q0 .727-.19 1.29a2.6 2.6 0 0 1-.553.954 2.4 2.4 0 0 1-.874.59 3.1 3.1 0 0 1-1.153.2q-.602 0-1.101-.2a2.5 2.5 0 0 1-.869-.59 2.7 2.7 0 0 1-.564-.954 3.9 3.9 0 0 1-.2-1.29q0-.964.332-1.633.337-.675.958-1.027.622-.353 1.48-.353.807 0 1.422.353.617.353.964 1.027.348.675.348 1.633m-4.229 0q0 .637.152 1.09.159.453.485.695.326.237.843.237t.842-.237q.327-.242.48-.695t.152-1.09q0-.638-.152-1.08-.153-.447-.48-.68-.326-.236-.848-.236-.768 0-1.122.516-.352.516-.352 1.48m11.808-3.013q.98 0 1.475.506.501.506.501 1.622v3.813h-1.238v-3.592q0-.663-.258-1-.258-.338-.785-.338-.738 0-1.064.474-.321.47-.321 1.365v3.091h-1.238v-3.592q0-.442-.116-.737a.87.87 0 0 0-.342-.448 1.04 1.04 0 0 0-.585-.153q-.51 0-.816.232-.3.232-.432.685-.132.447-.132 1.1v2.913h-1.237v-5.83h.963l.174.784h.069a1.7 1.7 0 0 1 .442-.5q.269-.2.595-.295.327-.1.68-.1.653 0 1.1.232.448.226.669.695h.095a1.67 1.67 0 0 1 .764-.7 2.4 2.4 0 0 1 1.037-.227"/>
  <g clip-path="url(#j)">
    <path fill="#F2F2F2" d="M21.726 97.91a9.12 9.12 0 1 0 0-18.242 9.12 9.12 0 0 0 0 18.241Z"/>
    <path stroke="#CAC9CA" stroke-miterlimit="10" stroke-width=".599" d="M21.48 84.847v8.21m4.104-4.104h-8.21"/>
  </g>
  <path stroke="#CAC9CA" stroke-width=".899" d="M44.479 80.699v16.18"/>
  <path stroke="#666" stroke-miterlimit="10" stroke-width="1.079" d="M66.007 87.43v-2.458a.6.6 0 0 0-.6-.6h-7.216a.6.6 0 0 0-.599.6v7.633a.6.6 0 0 0 .6.6h7.216a.6.6 0 0 0 .6-.6v-2.08l2.216 1.09a.6.6 0 0 0 .863-.538v-4.198a.6.6 0 0 0-.863-.538l-2.217 1.09Z"/>
  <path fill="#666" stroke="#CAC9CA" stroke-width=".12" d="M89.432 87.855v-2.731a2.386 2.386 0 1 0-4.765 0v2.73a2.386 2.386 0 0 0 2.379 2.387 2.394 2.394 0 0 0 2.386-2.386Zm-3.892-2.733v-.004a1.516 1.516 0 0 1 1.51-1.618 1.513 1.513 0 0 1 1.51 1.618v2.741a1.516 1.516 0 0 1-1.51 1.618 1.513 1.513 0 0 1-1.51-1.618z"/>
  <path fill="#666" stroke="#CAC9CA" stroke-width=".12" d="M90.607 86.432h-.06v1.466a3.546 3.546 0 0 1-7.085 0v-1.466h-.873V87.9a4.426 4.426 0 0 0 3.983 4.39v1.678h-1.988v.873h4.923v-.873h-2.062V92.29a4.426 4.426 0 0 0 3.975-4.39v-1.468z"/>
  <path stroke="#CAC9CA" stroke-width=".899" d="M104.993 80.699v16.18"/>
  <path stroke="#666" stroke-miterlimit="10" stroke-width="1.199" d="M123.725 94.434a5.646 5.646 0 1 0 .001-11.292 5.646 5.646 0 0 0-.001 11.292Z"/>
  <path stroke="#666" stroke-miterlimit="10" stroke-width="1.199" d="M126.207 89.676a2.663 2.663 0 0 1-3.935 1.268 2.67 2.67 0 0 1-1-1.19"/>
  <path fill="#666" d="M121.914 88.415a.91.91 0 1 0 0-1.819.91.91 0 0 0 0 1.819m3.63 0a.91.91 0 1 0 0-1.819.91.91 0 0 0 0 1.819"/>
  <path fill="#666" stroke="#666" stroke-width=".3" d="M150.268 86.117v.56a2.2 2.2 0 0 0-.626-.501 2.57 2.57 0 0 0-1.284-.348 2.65 2.65 0 0 0-2.043.853l-.003.003a3.17 3.17 0 0 0 0 4.137l.003.004a2.64 2.64 0 0 0 2.043.853 2.57 2.57 0 0 0 1.284-.348c.273-.145.51-.346.697-.588.04.34.168.664.375.941l.006.008.006.006a1.61 1.61 0 0 0 1.297.493 2.39 2.39 0 0 0 2.01-.968h.001l.007-.01c.54-.876.789-1.9.709-2.927a5.45 5.45 0 0 0-1.647-4.096h.001l-.003-.003a6 6 0 0 0-4.3-1.583 5.84 5.84 0 0 0-4.317 1.696l-.001.002a6.03 6.03 0 0 0-1.725 4.397 6.2 6.2 0 0 0 1.619 4.394l.002.002a5.53 5.53 0 0 0 4.241 1.72 7 7 0 0 0 2.903-.567l.162-.07-.096-.149a1.7 1.7 0 0 1-.147-.288l-.003-.009-.005-.008-.175-.322-.065-.117-.124.05a6.1 6.1 0 0 1-2.447.45h-.01a4.46 4.46 0 0 1-3.445-1.414 5.18 5.18 0 0 1-1.335-3.652v-.01a5.02 5.02 0 0 1 1.42-3.657 4.77 4.77 0 0 1 3.552-1.432h.011a4.87 4.87 0 0 1 3.546 1.305 4.46 4.46 0 0 1 1.35 3.352v.015a4.23 4.23 0 0 1-.464 2.23 1.41 1.41 0 0 1-1.188.704h-.003a.62.62 0 0 1-.463-.18.77.77 0 0 1-.193-.567v-4.511h-1.133zm-1.805 4.523v-.001h-.013a1.62 1.62 0 0 1-1.29-.532 2.14 2.14 0 0 1-.001-2.729 1.62 1.62 0 0 1 1.289-.512h.016a1.7 1.7 0 0 1 1.303.53c.338.368.518.855.501 1.355v.012a1.84 1.84 0 0 1-.507 1.352 1.7 1.7 0 0 1-1.298.525Z"/>
  <g fill="#666" clip-path="url(#k)">
    <path stroke="#666" stroke-width=".12" d="M170.804 92.397h.041l.015-.037 1.012-2.523h4.835l1.036 2.523.015.037h1.206l-.035-.083-4.086-9.745-.016-.036h-1.02l-.015.036-4.102 9.745-.035.083zm1.488-3.589 2.005-4.95 2.006 4.95zm11.832-.633.001-.015a1.58 1.58 0 0 0-.409-1.192 1.7 1.7 0 0 0-1.203-.395h-.004a2.5 2.5 0 0 0-1.027.209c-.29.124-.552.305-.771.532l-.047.048-.042-.052-.514-.616-.035-.042.039-.04a3 3 0 0 1 1.048-.676 3.9 3.9 0 0 1 1.468-.265c.33-.002.659.047.974.145.296.095.572.247.811.446h.001c.237.207.421.466.538.758.136.333.202.691.194 1.05v3.61q.014.34.078.67l.013.072h-.923v-.06a1.5 1.5 0 0 0-.031-.278q-.02-.11-.032-.23v-.002a4 4 0 0 1-.008-.333 2.8 2.8 0 0 1-.875.776l-.003.002a2.9 2.9 0 0 1-1.339.29 2.8 2.8 0 0 1-.758-.112m2.856-4.3-2.84 4.242m2.84-4.242.005.013.061.147m-.066-.16.131.16h-.065m-2.922 4.14h-.001l.017-.058m-.016.058h.001l.015-.058m-.016.058a2.1 2.1 0 0 1-.723-.341v-.001a1.89 1.89 0 0 1-.759-1.565m1.498 1.85a2.1 2.1 0 0 1-.703-.333 1.9 1.9 0 0 1-.522-.608 1.8 1.8 0 0 1-.213-.91m-.06.001v.003l.06-.003m-.06 0v-.002l.06.002m-.06 0c-.022-.44.114-.874.384-1.223l.002-.003a2.3 2.3 0 0 1 1.014-.665m-1.34 1.89a1.78 1.78 0 0 1 .371-1.185c.266-.3.607-.524.988-.648m3.96 3.628h-.061l.002.01zm0 0v-.06h-.011zm-4.497-5.09-.039-.046-.004.004zm0 0 .046-.038-.004-.005zm.518 1.405.019.057m-.019-.057.019.057m-.019-.057a5.7 5.7 0 0 1 1.43-.28m-1.411.337a5.6 5.6 0 0 1 1.415-.277m0 0-.005-.06h.001m.004.06a23 23 0 0 1 1.595-.063l-.025-.06m-1.57.123-.004-.06m0 0q.765-.057 1.574-.063m-1.399.886h.002a9 9 0 0 1 1.12-.047l.18.018v.428a2.3 2.3 0 0 1-.131.77v.002a1.9 1.9 0 0 1-.376.659 1.66 1.66 0 0 1-.61.45h-.001a1.94 1.94 0 0 1-.836.17h-.001a2.4 2.4 0 0 1-.516-.062 1.4 1.4 0 0 1-.455-.197.93.93 0 0 1-.32-.357h.001-.001a1.1 1.1 0 0 1-.127-.548v-.004a.9.9 0 0 1 .28-.68c.221-.193.483-.332.766-.406h.001a5.4 5.4 0 0 1 1.024-.195Z"/>
    <path d="M186.192 94.195h-16.581v.79h16.581z"/>
  </g>
  <defs>
    <clipPath id="a">
      <path fill="#fff" d="M15.002 21.424h6.728v9.588h-6.728z"/>
    </clipPath>
    <clipPath id="b">
      <path fill="#fff" d="M38.509 21.424h7.487v9.588h-7.487z"/>
    </clipPath>
    <clipPath id="c">
      <path fill="#fff" d="M62.775 21.424h10.028v9.588H62.775z"/>
    </clipPath>
    <clipPath id="d">
      <path fill="#fff" d="M99.17 21.424h9.588v9.588H99.17z"/>
    </clipPath>
    <clipPath id="e">
      <path fill="#fff" d="M135.125 21.424h9.596v9.588h-9.596z"/>
    </clipPath>
    <clipPath id="f">
      <path fill="#fff" d="M161.5 21.424h10.157v9.588H161.5z"/>
    </clipPath>
    <clipPath id="g">
      <path fill="#fff" d="M198.024 21.424h9.85v9.588h-9.85z"/>
    </clipPath>
    <clipPath id="h">
      <path fill="#fff" d="M234.241 21.424h11.963v9.588h-11.963z"/>
    </clipPath>
    <clipPath id="i">
      <path fill="#fff" d="M262.983 21.424h11.618v9.588h-11.618z"/>
    </clipPath>
    <clipPath id="j">
      <path fill="#fff" d="M12.605 79.668h18.24v18.241h-18.24z"/>
    </clipPath>
    <clipPath id="k">
      <path fill="#fff" d="M169.611 82.593h16.581v12.392h-16.581z"/>
    </clipPath>
  </defs>
</svg>
