<svg xmlns="http://www.w3.org/2000/svg" width="298" height="116" fill="none">
  <rect width="296.761" height="116" x=".62" fill="#17D4A7" rx="8"/>
  <path fill="#F8F8F8" d="M.62 8.54h281.172a7.192 7.192 0 0 1 7.192 7.191v28.165H.62V8.54Z"/>
  <g clip-path="url(#a)">
    <path fill="#CAC9CA" stroke="#CAC9CA" stroke-width=".3" d="M14.852 31.012v.15h3.566a4.05 4.05 0 0 0 2.486-.722l.005-.004a2.492 2.492 0 0 0 .978-2.112 2.913 2.913 0 0 0-.143-.914v-.001a2.42 2.42 0 0 0-.418-.758 2.06 2.06 0 0 0-.705-.552 3.166 3.166 0 0 0-.513-.204c.309-.153.581-.373.796-.647l.006-.007c.294-.425.444-.934.426-1.451a2.322 2.322 0 0 0-.777-1.847l-.005-.004a2.962 2.962 0 0 0-2-.665h-3.702v9.738Zm2.797-5.59v-.001h-1.363v-2.84h2.111c.394-.02.783.104 1.094.347a1.288 1.288 0 0 1 .403 1.034v.023a1.208 1.208 0 0 1-.518 1.089 3.334 3.334 0 0 1-1.727.347Zm1.07 4.386-.009.001c-.242.038-.533.038-.872.038h-1.552v-3.12h2.247a2.183 2.183 0 0 1 1.41.423 1.447 1.447 0 0 1 .502 1.192v.014c.007.222-.038.442-.13.644a1.097 1.097 0 0 1-.328.413 1.742 1.742 0 0 1-.55.256l-.004.001a3.61 3.61 0 0 1-.713.138Z"/>
  </g>
  <g clip-path="url(#b)">
    <path fill="#CAC9CA" d="M45.995 22.678v-1.254h-6.08v1.254h2.589l-1.366 7.08h-2.63v1.254h6.081v-1.254h-2.597l1.359-7.08h2.645Z"/>
  </g>
  <g fill="#CAC9CA" clip-path="url(#c)">
    <path d="M72.802 26.059H62.775v.799h10.027v-.8Zm-3.116 1.598c.131.21.198.454.192.703a1.463 1.463 0 0 1-.6 1.23 2.532 2.532 0 0 1-1.597.448 2.636 2.636 0 0 1-1.646-.472 1.71 1.71 0 0 1-.68-1.206h-1.078c.006.319.074.633.2.927.13.309.314.593.543.838.284.291.631.513 1.015.648.483.166.991.247 1.502.24a3.995 3.995 0 0 0 2.445-.704 2.397 2.397 0 0 0 .959-2.021 3.03 3.03 0 0 0-.08-.631h-1.175Z"/>
    <path d="m66.714 26.426 1.598.432h2.157c-.048-.056-.088-.112-.136-.16a4.298 4.298 0 0 0-1.765-.895l-1.599-.431c-.87-.224-1.302-.696-1.302-1.399a1.342 1.342 0 0 1 .56-1.158 2.39 2.39 0 0 1 1.462-.416 2.237 2.237 0 0 1 1.478.448c.352.294.574.717.615 1.174h1.079a2.66 2.66 0 0 0-.304-1.174c-.17-.325-.42-.6-.727-.8a3.767 3.767 0 0 0-.99-.455c-.368-.1-.747-.15-1.127-.152a3.994 3.994 0 0 0-1.526.288c-.462.19-.862.502-1.16.903a2.397 2.397 0 0 0-.447 1.43 2.077 2.077 0 0 0 .592 1.558c.434.4.966.678 1.542.807Z"/>
  </g>
  <path stroke="#CAC9CA" stroke-width=".899" d="M86.436 18.128v16.18"/>
  <g fill="#CAC9CA" clip-path="url(#d)">
    <path d="M104.611 28.008a2.397 2.397 0 0 1-1.726-.711l.432-.432a1.828 1.828 0 0 0 2.596 0l1.702-1.701a1.836 1.836 0 0 0-2.596-2.597l-.943.982-.432-.431.943-.943a2.445 2.445 0 1 1 3.46 3.452l-1.702 1.702a2.403 2.403 0 0 1-1.734.679Z"/>
    <path d="M101.615 31.012a2.442 2.442 0 0 1-2.26-1.506 2.445 2.445 0 0 1 .526-2.665l1.702-1.702a2.45 2.45 0 0 1 3.46 0l-.432.432a1.836 1.836 0 0 0-2.597 0l-1.702 1.702a1.839 1.839 0 0 0 2.597 2.596l.943-.942.431.423-.942.951a2.46 2.46 0 0 1-1.726.711Z"/>
  </g>
  <path stroke="#CAC9CA" stroke-width=".899" d="M122.391 18.128v16.18"/>
  <g fill="#CAC9CA" clip-path="url(#e)">
    <path d="M144.728 22.375h-6.581v.737h6.581v-.737Zm0 3.537h-6.581v.737h6.581v-.737Zm0 3.531h-6.581v.737h6.581v-.737Zm-8.932-7.488-.642.442v-.509l.671-.464h.545v2.602h-.545l-.029-2.071Zm-.59 6.898a.736.736 0 0 1 .192-.265 1.02 1.02 0 0 1 .302-.177c.124-.04.253-.06.383-.06a1.26 1.26 0 0 1 .376.052.924.924 0 0 1 .288.163.667.667 0 0 1 .258.545c.01.068.01.138 0 .206a1.132 1.132 0 0 1-.104.214 1.577 1.577 0 0 1-.184.236 4.03 4.03 0 0 1-.287.287l-.494.48h1.135v.449h-1.872v-.376l.847-.833.229-.228.14-.17a.736.736 0 0 0 .066-.14.334.334 0 0 0 0-.118.333.333 0 0 0 0-.147.326.326 0 0 0-.088-.11.28.28 0 0 0-.125-.074.403.403 0 0 0-.163 0 .625.625 0 0 0-.176 0 .564.564 0 0 0-.133.08.42.42 0 0 0-.089.133.403.403 0 0 0 0 .163h-.501a.848.848 0 0 1 0-.31Z"/>
  </g>
  <g fill="#CAC9CA" clip-path="url(#f)">
    <path d="M171.657 22.095h-6.956v.779h6.956v-.78Zm0 3.73h-6.956v.78h6.956v-.78Zm0 3.739h-6.956v.779h6.956v-.78Zm-8.046-8.14H161.5v2.11h2.111v-2.11Zm-2.111 3.739v2.11h2.111v-2.11H161.5Zm0 3.739v2.11h2.111v-2.11H161.5Z"/>
  </g>
  <path stroke="#CAC9CA" stroke-width=".899" d="M185.29 18.128v16.18"/>
  <g fill="#CAC9CA" clip-path="url(#g)">
    <path d="M207.874 22.087h-6.877v.77h6.877v-.77Zm0 3.688h-6.877v.77h6.877v-.77Zm0 3.698h-6.877v.77h6.877v-.77Zm-8.695-8.049h-1.155v9.588h1.155v-9.588Z"/>
  </g>
  <path stroke="#CAC9CA" stroke-width=".899" d="M221.507 18.128v16.18"/>
  <g fill="#CAC9CA" clip-path="url(#h)">
    <path d="m237.101 23.454-2.86 2.859 2.851 2.851.584-.583-2.276-2.268 2.276-2.276-.575-.583Zm6.244-.033-.575.584 2.267 2.276-2.276 2.275.584.575 2.859-2.85-2.859-2.86Zm-2.548-1.988-2.168 9.407.801.185 2.168-9.407-.801-.185Z"/>
  </g>
  <g fill="#CAC9CA" clip-path="url(#i)">
    <path d="m264.853 26.656-1.87-1.87 1.87-1.87.569.57-1.307 1.3 1.307 1.3-.569.57Zm4.068-.016-.57-.57 1.3-1.3-1.3-1.308.57-.561 1.869 1.87-1.869 1.869Zm-1.819-4.888-1.339 5.81.782.18 1.339-5.81-.782-.18Z"/>
    <path d="M274.601 31.012h-9.796v-2.03h.802v1.228h8.192v-7.984h-2.961v-.802h3.763v9.588Z"/>
  </g>
  <path fill="#fff" d="M.62 43.896h288.364v56.41a7.192 7.192 0 0 1-7.192 7.192H.62V43.896Z"/>
  <path fill="#616061" d="m16.924 55.784-2.87 7.7h-1.16l2.871-7.7h1.159Zm2.207 10.292c-.79 0-1.396-.143-1.817-.427-.421-.284-.632-.683-.632-1.196 0-.358.112-.662.337-.91.225-.247.546-.417.964-.512a1.075 1.075 0 0 1-.41-.326.818.818 0 0 1-.17-.5.87.87 0 0 1 .185-.559 1.98 1.98 0 0 1 .553-.448 1.607 1.607 0 0 1-.737-.632 1.932 1.932 0 0 1-.274-1.037c0-.422.09-.78.268-1.075.18-.298.44-.525.785-.68.344-.157.76-.236 1.248-.236.106 0 .22.007.343.021.126.01.242.025.347.042.11.014.192.03.248.047h2.017v.69l-.99.185a1.742 1.742 0 0 1 .31 1.011c0 .604-.208 1.08-.626 1.427-.414.345-.987.517-1.717.517a5.912 5.912 0 0 1-.511-.043.956.956 0 0 0-.29.258.514.514 0 0 0-.1.311.3.3 0 0 0 .1.232.678.678 0 0 0 .295.126c.134.029.295.042.485.042h1.006c.639 0 1.127.136 1.464.406.337.27.506.667.506 1.19 0 .664-.274 1.175-.822 1.533-.548.362-1.336.543-2.365.543Zm.047-.87c.432 0 .796-.042 1.09-.126.296-.084.519-.205.67-.363a.764.764 0 0 0 .226-.553c0-.19-.047-.336-.142-.438-.095-.101-.237-.172-.427-.21a3.608 3.608 0 0 0-.705-.058h-.917c-.228 0-.43.035-.606.105a.937.937 0 0 0-.41.316.848.848 0 0 0-.143.495c0 .267.118.473.353.617.239.144.576.216 1.011.216Zm.243-4.54c.361 0 .63-.098.806-.294.175-.2.263-.481.263-.843 0-.394-.091-.688-.274-.885-.179-.197-.446-.295-.8-.295-.348 0-.613.1-.796.3-.179.2-.268.497-.268.89 0 .355.09.632.268.832.183.197.45.295.8.295Zm4.84 2.818H23.02V55.29h1.243v8.195Zm6.5-2.928c0 .484-.063.915-.19 1.29-.126.376-.31.694-.552.954a2.437 2.437 0 0 1-.875.59c-.34.133-.725.2-1.153.2-.4 0-.767-.067-1.1-.2a2.51 2.51 0 0 1-.87-.59 2.704 2.704 0 0 1-.564-.954 3.846 3.846 0 0 1-.2-1.29c0-.643.111-1.187.332-1.633.225-.45.544-.792.959-1.027.414-.235.907-.353 1.48-.353.537 0 1.011.118 1.422.353.41.235.732.578.964 1.027.231.45.347.994.347 1.633Zm-4.229 0c0 .425.05.788.153 1.09.105.302.267.534.484.695.218.158.499.237.843.237s.625-.079.843-.237a1.39 1.39 0 0 0 .479-.695c.102-.302.153-.665.153-1.09 0-.425-.051-.785-.153-1.08-.102-.298-.262-.525-.48-.68-.217-.157-.5-.236-.847-.236-.513 0-.887.172-1.122.516-.235.344-.353.837-.353 1.48Zm6.458-5.267v1.975c0 .228-.007.453-.021.674a17.35 17.35 0 0 1-.032.511h.053a1.97 1.97 0 0 1 .658-.637c.284-.176.648-.264 1.09-.264.692 0 1.248.255 1.67.764.421.506.632 1.255.632 2.25 0 .66-.097 1.214-.29 1.663-.193.45-.465.79-.816 1.022-.348.228-.757.343-1.227.343-.443 0-.8-.081-1.075-.243a2.119 2.119 0 0 1-.637-.574h-.09l-.226.711h-.927V55.29h1.238Zm1.422 3.265c-.351 0-.63.07-.838.211-.203.14-.35.351-.442.632-.091.278-.139.63-.142 1.059v.11c0 .65.102 1.147.305 1.49.207.345.583.517 1.127.517.432 0 .764-.174.996-.521.231-.352.347-.854.347-1.507 0-.66-.116-1.157-.347-1.49-.228-.334-.564-.5-1.006-.5Zm5.915-1.01c.737 0 1.294.162 1.67.489.379.326.568.836.568 1.527v3.924h-.88l-.236-.827h-.042a3.024 3.024 0 0 1-.511.522c-.176.137-.38.238-.611.305-.228.07-.508.106-.838.106a2.2 2.2 0 0 1-.932-.19 1.482 1.482 0 0 1-.648-.59c-.158-.263-.237-.597-.237-1 0-.601.223-1.052.67-1.354.449-.302 1.126-.469 2.032-.5l1.011-.038v-.305c0-.404-.094-.692-.284-.864-.186-.172-.45-.258-.79-.258-.291 0-.574.042-.848.127-.274.084-.54.188-.8.31l-.4-.874a4.49 4.49 0 0 1 .968-.369 4.51 4.51 0 0 1 1.138-.142Zm1.011 3.154-.753.026c-.618.022-1.052.127-1.301.316a.926.926 0 0 0-.374.78c0 .288.086.498.258.632.172.13.399.195.68.195.428 0 .783-.121 1.063-.364.285-.245.427-.605.427-1.08v-.505Zm3.772 2.786h-1.243V55.29h1.243v8.195Zm4.33-5.94c.691 0 1.246.252 1.664.758.421.505.632 1.257.632 2.254 0 .66-.098 1.217-.295 1.67-.193.449-.465.79-.816 1.021a2.166 2.166 0 0 1-1.217.343 2.3 2.3 0 0 1-.77-.116 1.919 1.919 0 0 1-.557-.3 2.136 2.136 0 0 1-.39-.411h-.074c.018.14.034.296.047.468a4.4 4.4 0 0 1 .027.464v2.375h-1.243v-8.416h1.011l.174.806h.058c.109-.165.24-.318.395-.459.158-.14.348-.25.569-.331a2.23 2.23 0 0 1 .785-.127Zm-.332 1.01c-.34 0-.615.069-.822.206a1.15 1.15 0 0 0-.448.605c-.09.27-.14.61-.147 1.017v.174c0 .432.044.799.132 1.1.09.3.24.527.447.685.21.155.495.232.853.232.303 0 .552-.082.748-.248.2-.165.35-.4.448-.705a3.55 3.55 0 0 0 .148-1.08c0-.629-.113-1.117-.337-1.464-.222-.348-.562-.522-1.022-.522Zm4.867-.9v5.83h-1.238v-5.83h1.238Zm-.611-2.233c.19 0 .353.05.49.152.14.102.21.278.21.527 0 .246-.07.421-.21.527a.798.798 0 0 1-.49.152.815.815 0 0 1-.5-.152c-.134-.106-.2-.281-.2-.527 0-.25.066-.425.2-.527a.815.815 0 0 1 .5-.152Zm4.993 2.122c.657 0 1.168.17 1.533.511.369.337.553.88.553 1.627v3.803h-1.238v-3.57c0-.454-.093-.793-.279-1.017-.186-.228-.474-.343-.864-.343-.565 0-.958.174-1.18.522-.217.347-.326.851-.326 1.511v2.897h-1.238v-5.83h.964l.174.79h.068a1.68 1.68 0 0 1 .47-.5c.189-.134.4-.234.631-.3.235-.067.48-.1.732-.1Zm5.052 8.533c-.79 0-1.396-.143-1.817-.427-.422-.284-.633-.683-.633-1.196 0-.358.113-.662.338-.91.224-.247.546-.417.964-.512a1.074 1.074 0 0 1-.411-.326.819.819 0 0 1-.169-.5c0-.218.062-.404.184-.559.123-.154.308-.304.553-.448a1.607 1.607 0 0 1-.737-.632 1.931 1.931 0 0 1-.274-1.037c0-.422.09-.78.269-1.075.179-.298.44-.525.785-.68.344-.157.76-.236 1.248-.236.105 0 .22.007.342.021.127.01.242.025.348.042.109.014.191.03.247.047h2.018v.69l-.99.185a1.74 1.74 0 0 1 .31 1.011c0 .604-.209 1.08-.627 1.427-.414.345-.986.517-1.717.517a5.91 5.91 0 0 1-.51-.043.957.957 0 0 0-.29.258.514.514 0 0 0-.1.311c0 .095.033.172.1.232a.678.678 0 0 0 .295.126c.133.029.295.042.484.042h1.006c.64 0 1.127.136 1.465.406.337.27.505.667.505 1.19 0 .664-.274 1.175-.822 1.533-.547.362-1.335.543-2.364.543Zm.047-.87c.432 0 .795-.042 1.09-.126.295-.084.518-.205.67-.363a.764.764 0 0 0 .226-.553c0-.19-.048-.336-.142-.438-.095-.101-.237-.172-.427-.21a3.609 3.609 0 0 0-.706-.058h-.916c-.229 0-.43.035-.606.105a.938.938 0 0 0-.41.316.848.848 0 0 0-.143.495c0 .267.117.473.353.617.239.144.576.216 1.011.216Zm.242-4.54c.362 0 .63-.098.806-.294.176-.2.263-.481.263-.843 0-.394-.09-.688-.273-.885-.18-.197-.446-.295-.8-.295-.349 0-.614.1-.796.3-.18.2-.269.497-.269.89 0 .355.09.632.269.832.182.197.45.295.8.295Zm8.96-3.123c.692 0 1.247.253 1.665.759.42.505.632 1.257.632 2.254 0 .66-.099 1.217-.295 1.67-.194.449-.466.79-.817 1.021a2.166 2.166 0 0 1-1.216.343 2.3 2.3 0 0 1-.77-.116 1.919 1.919 0 0 1-.558-.3 2.136 2.136 0 0 1-.39-.411h-.073c.017.14.033.296.047.468a4.4 4.4 0 0 1 .027.464v2.375h-1.243v-8.416h1.01l.175.806h.058c.108-.165.24-.318.395-.459.158-.14.347-.25.568-.331a2.23 2.23 0 0 1 .785-.127Zm-.332 1.011c-.34 0-.614.069-.821.206a1.15 1.15 0 0 0-.448.605c-.091.27-.14.61-.147 1.017v.174c0 .432.044.799.131 1.1.092.3.24.527.448.685.21.155.495.232.853.232.302 0 .552-.082.748-.248.2-.165.35-.4.448-.705.098-.306.147-.666.147-1.08 0-.629-.112-1.117-.337-1.464-.221-.348-.562-.522-1.022-.522Zm4.867-.9v5.83h-1.237v-5.83h1.237Zm-.61-2.233c.19 0 .352.05.49.152.14.102.21.278.21.527 0 .246-.07.421-.21.527a.798.798 0 0 1-.49.152.815.815 0 0 1-.5-.152c-.134-.106-.201-.281-.201-.527 0-.25.067-.425.2-.527a.815.815 0 0 1 .5-.152Zm4.993 2.122c.657 0 1.168.17 1.533.511.368.337.553.88.553 1.627v3.803h-1.238v-3.57c0-.454-.093-.793-.28-1.017-.185-.228-.473-.343-.863-.343-.565 0-.959.174-1.18.522-.218.347-.326.851-.326 1.511v2.897h-1.238v-5.83h.964l.174.79h.068a1.69 1.69 0 0 1 .469-.5c.19-.134.4-.234.632-.3.235-.067.48-.1.732-.1Zm5.051 8.533c-.79 0-1.395-.143-1.817-.427-.421-.284-.632-.683-.632-1.196 0-.358.113-.662.337-.91.225-.247.546-.417.964-.512a1.074 1.074 0 0 1-.41-.326.819.819 0 0 1-.17-.5c0-.218.062-.404.185-.559a1.98 1.98 0 0 1 .553-.448 1.607 1.607 0 0 1-.737-.632 1.931 1.931 0 0 1-.274-1.037c0-.422.09-.78.268-1.075.18-.298.441-.525.785-.68.344-.157.76-.236 1.249-.236.105 0 .219.007.342.021.126.01.242.025.348.042.108.014.19.03.247.047h2.017v.69l-.99.185a1.74 1.74 0 0 1 .31 1.011c0 .604-.208 1.08-.626 1.427-.414.345-.987.517-1.717.517a5.91 5.91 0 0 1-.51-.043.957.957 0 0 0-.29.258.514.514 0 0 0-.1.311c0 .095.033.172.1.232a.678.678 0 0 0 .294.126c.134.029.295.042.485.042h1.006c.64 0 1.127.136 1.464.406.337.27.506.667.506 1.19 0 .664-.274 1.175-.822 1.533-.548.362-1.336.543-2.365.543Zm.048-.87c.432 0 .795-.042 1.09-.126.295-.084.518-.205.669-.363a.764.764 0 0 0 .226-.553c0-.19-.047-.336-.142-.438-.095-.101-.237-.172-.426-.21a3.609 3.609 0 0 0-.706-.058h-.917c-.228 0-.43.035-.605.105a.938.938 0 0 0-.411.316.848.848 0 0 0-.142.495c0 .267.117.473.352.617.24.144.576.216 1.012.216Zm.242-4.54c.362 0 .63-.098.806-.294.175-.2.263-.481.263-.843 0-.394-.091-.688-.274-.885-.179-.197-.446-.295-.8-.295-.348 0-.613.1-.796.3-.179.2-.268.497-.268.89 0 .355.09.632.269.832.182.197.449.295.8.295Zm68.919-2.07h-1.417v4.888h-1.238v-4.888h-.953v-.595l.953-.363v-.406c0-.495.077-.888.232-1.18.158-.29.383-.5.674-.626.295-.13.646-.195 1.054-.195.266 0 .51.023.732.069.221.042.407.09.558.147l-.321.937a4.121 4.121 0 0 0-.401-.105 2.037 2.037 0 0 0-.474-.053c-.281 0-.488.088-.621.264-.13.175-.195.432-.195.769v.395h1.417v.942Zm3.518-1.053a3.548 3.548 0 0 1 .622.058l-.116 1.159a1.58 1.58 0 0 0-.274-.048c-.105-.01-.2-.015-.284-.015-.221 0-.432.036-.632.11-.2.07-.378.18-.532.327a1.487 1.487 0 0 0-.364.542c-.087.218-.131.47-.131.759v3.05H156.4v-5.831h.969l.168 1.027h.058a2.6 2.6 0 0 1 .432-.569 2.01 2.01 0 0 1 .59-.41c.225-.106.471-.159.737-.159Zm6.432 3.013c0 .484-.063.915-.19 1.29a2.583 2.583 0 0 1-.553.954 2.438 2.438 0 0 1-.874.59c-.341.133-.725.2-1.154.2-.4 0-.767-.067-1.1-.2a2.5 2.5 0 0 1-.869-.59 2.689 2.689 0 0 1-.564-.954 3.856 3.856 0 0 1-.2-1.29c0-.643.111-1.187.332-1.633a2.36 2.36 0 0 1 .958-1.027c.415-.235.908-.353 1.48-.353.538 0 1.012.118 1.422.353.411.235.732.578.964 1.027.232.45.348.994.348 1.633Zm-4.23 0c0 .425.051.788.153 1.09.106.302.267.534.485.695.217.158.498.237.843.237.344 0 .625-.079.842-.237.218-.161.378-.393.48-.695.101-.302.152-.665.152-1.09 0-.425-.051-.785-.152-1.08-.102-.298-.262-.525-.48-.68-.217-.157-.5-.236-.848-.236-.512 0-.886.172-1.122.516-.235.344-.353.837-.353 1.48Zm11.809-3.013c.653 0 1.145.169 1.475.506.334.337.5.878.5 1.622v3.813h-1.237v-3.592c0-.442-.086-.776-.258-1-.172-.225-.434-.338-.785-.338-.492 0-.846.158-1.064.474-.214.313-.321.768-.321 1.365v3.091h-1.238v-3.592c0-.295-.039-.54-.116-.737a.866.866 0 0 0-.342-.448 1.044 1.044 0 0 0-.585-.153c-.341 0-.613.078-.816.232-.2.155-.344.383-.432.685-.088.298-.132.665-.132 1.1v2.913h-1.238v-5.83h.964l.174.784h.069a1.64 1.64 0 0 1 .442-.5c.179-.133.377-.232.595-.295.218-.066.444-.1.68-.1.435 0 .802.077 1.1.232.299.15.522.383.669.695h.095a1.67 1.67 0 0 1 .764-.7 2.44 2.44 0 0 1 1.037-.227Zm8.876 1.76h2.876v3.865a8.613 8.613 0 0 1-1.254.311c-.432.074-.916.11-1.453.11-.784 0-1.447-.154-1.991-.463a3.02 3.02 0 0 1-1.233-1.353c-.281-.594-.421-1.308-.421-2.144 0-.804.156-1.501.469-2.091a3.257 3.257 0 0 1 1.364-1.375c.597-.326 1.32-.49 2.17-.49.418 0 .821.042 1.211.127.393.08.753.193 1.08.337l-.443 1.043a4.973 4.973 0 0 0-.874-.311 3.966 3.966 0 0 0-1.006-.126c-.551 0-1.027.119-1.427.358a2.371 2.371 0 0 0-.917 1.011c-.214.432-.321.943-.321 1.533 0 .572.086 1.074.258 1.506.172.432.441.769.806 1.011.369.239.844.358 1.427.358.292 0 .539-.015.743-.047a9.28 9.28 0 0 0 .563-.105v-1.986h-1.627v-1.08Zm6.484-1.76c.52 0 .966.107 1.338.321.372.215.658.518.858.912.2.393.3.863.3 1.411v.664h-3.892c.014.565.165 1 .453 1.306.292.306.699.458 1.222.458a4.34 4.34 0 0 0 1.001-.105c.298-.074.606-.181.922-.321v1.006a4.048 4.048 0 0 1-.891.3 5.367 5.367 0 0 1-1.085.095c-.572 0-1.076-.111-1.511-.332a2.429 2.429 0 0 1-1.017-1c-.242-.443-.363-.993-.363-1.65 0-.653.111-1.207.332-1.664.221-.456.532-.804.932-1.043.4-.239.867-.358 1.401-.358Zm0 .932c-.39 0-.706.127-.948.38-.239.252-.379.623-.421 1.11h2.654a2.047 2.047 0 0 0-.147-.773 1.126 1.126 0 0 0-.422-.527c-.186-.126-.425-.19-.716-.19Zm6.416-.932a3.544 3.544 0 0 1 .621.058l-.116 1.159a1.58 1.58 0 0 0-.274-.048c-.105-.01-.2-.015-.284-.015-.221 0-.432.036-.632.11-.2.07-.378.18-.532.327a1.487 1.487 0 0 0-.364.542c-.087.218-.131.47-.131.759v3.05h-1.243v-5.831h.969l.168 1.027h.058a2.6 2.6 0 0 1 .432-.569 2.01 2.01 0 0 1 .59-.41 1.71 1.71 0 0 1 .738-.159Zm7.858 0c.653 0 1.145.169 1.475.506.333.337.5.878.5 1.622v3.813h-1.237v-3.592c0-.442-.086-.776-.259-1-.172-.225-.433-.338-.784-.338-.492 0-.847.158-1.064.474-.214.313-.322.768-.322 1.365v3.091h-1.237v-3.592c0-.295-.039-.54-.116-.737a.866.866 0 0 0-.342-.448 1.044 1.044 0 0 0-.585-.153c-.341 0-.613.078-.816.232-.201.155-.345.383-.432.685-.088.298-.132.665-.132 1.1v2.913h-1.238v-5.83h.964l.174.784h.068c.12-.203.267-.37.443-.5.179-.133.377-.232.595-.295.218-.066.444-.1.679-.1.436 0 .803.077 1.101.232.299.15.522.383.669.695h.095c.182-.316.437-.55.764-.7a2.44 2.44 0 0 1 1.037-.227Zm5.557 0c.738 0 1.294.163 1.67.49.379.326.569.836.569 1.527v3.924h-.88l-.237-.827h-.042a2.988 2.988 0 0 1-.511.522 1.789 1.789 0 0 1-.611.305 2.88 2.88 0 0 1-.837.106 2.21 2.21 0 0 1-.933-.19 1.479 1.479 0 0 1-.647-.59c-.158-.263-.237-.597-.237-1 0-.601.223-1.052.668-1.354.45-.302 1.128-.469 2.033-.5l1.012-.038v-.305c0-.404-.095-.692-.285-.864-.186-.172-.449-.258-.79-.258-.291 0-.574.042-.848.127-.274.084-.54.188-.8.31l-.401-.874c.285-.15.608-.274.97-.369a4.505 4.505 0 0 1 1.137-.142Zm1.011 3.155-.753.026c-.618.022-1.051.127-1.301.316a.927.927 0 0 0-.374.78c0 .288.086.498.258.632.173.13.399.195.68.195.428 0 .783-.121 1.064-.364.284-.245.426-.605.426-1.08v-.505Zm5.568-3.155c.657 0 1.168.17 1.533.511.368.337.553.88.553 1.627v3.803h-1.238v-3.57c0-.454-.093-.793-.279-1.017-.186-.228-.474-.343-.864-.343-.565 0-.959.174-1.18.522-.217.347-.326.851-.326 1.511v2.897h-1.238v-5.83h.964l.174.79h.068a1.69 1.69 0 0 1 .469-.5c.189-.134.4-.234.632-.3.235-.067.479-.1.732-.1Zm2.507.11h1.349l1.195 3.33c.053.15.1.3.143.447.045.144.084.286.115.427.036.14.064.28.085.421h.031c.035-.182.085-.386.148-.61.067-.23.14-.457.221-.685l1.148-3.33h1.333l-2.502 6.632a3.63 3.63 0 0 1-.532.969 2.03 2.03 0 0 1-.737.61 2.17 2.17 0 0 1-.975.212c-.175 0-.328-.011-.458-.032a3.768 3.768 0 0 1-.332-.058v-.99a2.828 2.828 0 0 0 .627.068c.221 0 .413-.044.574-.131a1.19 1.19 0 0 0 .411-.374c.112-.158.205-.34.279-.543l.205-.548-2.328-5.814Z"/>
  <path fill="#7095BC" d="M92.3 66.076a2.99 2.99 0 0 1-.52-.043 2.797 2.797 0 0 1-.417-.09v-.99c.12.036.235.062.348.08.112.017.24.026.384.026a.835.835 0 0 0 .564-.19c.15-.126.226-.367.226-.721v-6.494h1.238v6.604c0 .355-.063.67-.19.943a1.38 1.38 0 0 1-.59.643c-.266.154-.614.232-1.042.232Zm.512-9.976c0-.25.066-.425.2-.527a.815.815 0 0 1 .5-.152c.19 0 .353.05.49.152.14.102.21.278.21.527 0 .246-.07.421-.21.527a.798.798 0 0 1-.49.152.815.815 0 0 1-.5-.152c-.134-.106-.2-.281-.2-.527Zm6.573 5.72c0 .383-.093.706-.279.969-.186.263-.458.463-.816.6-.355.134-.79.2-1.307.2-.407 0-.758-.03-1.053-.089a3.609 3.609 0 0 1-.827-.263v-1.07c.278.13.588.243.932.338.348.094.676.142.985.142.408 0 .7-.063.88-.19a.608.608 0 0 0 .268-.516.546.546 0 0 0-.11-.337c-.07-.102-.204-.205-.4-.31a7.645 7.645 0 0 0-.854-.39 7.11 7.11 0 0 1-.932-.443 1.623 1.623 0 0 1-.574-.532c-.13-.21-.195-.48-.195-.806 0-.516.204-.907.611-1.174.41-.27.953-.406 1.627-.406.359 0 .696.037 1.012.11.32.071.632.175.937.312l-.39.932a5.828 5.828 0 0 0-.795-.285 2.85 2.85 0 0 0-.806-.116c-.32 0-.563.05-.732.148a.465.465 0 0 0-.247.421c0 .137.04.253.12.348.082.095.22.19.417.284.2.095.478.213.832.353.348.134.648.274.9.422.257.143.454.32.59.532.138.21.206.482.206.816Zm2.866 1.77c-.696 0-1.254-.253-1.675-.759-.418-.509-.627-1.259-.627-2.249 0-1 .213-1.757.637-2.27.429-.512.992-.769 1.691-.769.295 0 .553.04.774.121.222.078.411.183.569.316.162.134.299.283.411.448h.058a10.906 10.906 0 0 1-.063-.469 5.732 5.732 0 0 1-.032-.574V55.29h1.243v8.195h-.969l-.221-.795h-.053a1.866 1.866 0 0 1-.969.78 2.23 2.23 0 0 1-.774.12Zm.347-1.006c.531 0 .905-.153 1.122-.459.218-.305.33-.763.337-1.374v-.164c0-.653-.105-1.153-.316-1.5-.21-.352-.595-.527-1.153-.527-.446 0-.787.18-1.022.542-.232.358-.348.859-.348 1.501 0 .643.116 1.134.348 1.475.235.337.579.506 1.032.506Zm6.305-5.04c.52 0 .966.106 1.338.32.372.215.658.518.859.912.2.393.3.863.3 1.411v.664h-3.892c.014.565.165 1 .452 1.306.292.306.699.458 1.222.458.373 0 .706-.035 1.001-.105.299-.074.606-.181.922-.321v1.006a4.04 4.04 0 0 1-.89.3 5.374 5.374 0 0 1-1.085.095c-.573 0-1.076-.111-1.512-.332a2.421 2.421 0 0 1-1.016-1c-.243-.443-.364-.993-.364-1.65 0-.653.111-1.207.332-1.664.221-.456.532-.804.932-1.043.401-.239.868-.358 1.401-.358Zm0 .931c-.389 0-.705.127-.948.38-.239.252-.379.623-.421 1.11h2.654a2.028 2.028 0 0 0-.147-.773 1.124 1.124 0 0 0-.421-.527c-.187-.126-.425-.19-.717-.19Zm4.704 5.01h-1.243v-8.196h1.243v8.195Zm2.576-5.831v5.83h-1.238v-5.83h1.238Zm-.611-2.233c.19 0 .353.05.49.152.14.102.211.278.211.527 0 .246-.071.421-.211.527a.798.798 0 0 1-.49.152.813.813 0 0 1-.5-.152c-.134-.106-.2-.281-.2-.527 0-.25.066-.425.2-.527a.813.813 0 0 1 .5-.152Zm3.287 8.063-2.217-5.83h1.311l1.201 3.423a8.03 8.03 0 0 1 .342 1.343h.042a4.84 4.84 0 0 1 .143-.642c.07-.253.142-.486.216-.7l1.2-3.424h1.307l-2.218 5.83h-1.327Zm6.953-5.94a3.544 3.544 0 0 1 .621.057l-.116 1.159a1.567 1.567 0 0 0-.273-.048 2.922 2.922 0 0 0-.285-.015c-.221 0-.432.036-.632.11a1.485 1.485 0 0 0-.895.87c-.088.217-.132.47-.132.758v3.05h-1.243v-5.831h.969l.169 1.027h.058c.116-.207.259-.397.432-.569.172-.172.368-.309.589-.41a1.71 1.71 0 0 1 .738-.159Zm1.09 5.287c0-.288.074-.49.222-.606a.854.854 0 0 1 .547-.179c.215 0 .397.06.548.18.155.115.232.317.232.605 0 .281-.077.485-.232.611a.84.84 0 0 1-.548.184.838.838 0 0 1-.547-.184c-.148-.126-.222-.33-.222-.61Zm5.057.759c-.551 0-1.029-.108-1.432-.322a2.155 2.155 0 0 1-.933-.985c-.217-.442-.326-1.004-.326-1.685 0-.71.119-1.289.358-1.738.239-.45.569-.781.99-.996.425-.214.911-.32 1.459-.32.348 0 .662.034.943.105.284.066.525.149.721.247l-.368.99a5.407 5.407 0 0 0-.659-.221c-.224-.06-.44-.09-.648-.09-.34 0-.625.076-.853.227-.224.15-.393.376-.505.674-.109.299-.164.669-.164 1.111 0 .429.057.79.169 1.085.112.292.279.513.5.664.221.148.494.221.817.221.319 0 .605-.038.858-.116.253-.077.492-.177.716-.3v1.075a2.65 2.65 0 0 1-.711.279 3.9 3.9 0 0 1-.932.095Zm7.743-3.034c0 .484-.063.915-.19 1.29a2.57 2.57 0 0 1-.553.954 2.43 2.43 0 0 1-.874.59 3.14 3.14 0 0 1-1.153.2c-.401 0-.768-.067-1.101-.2a2.5 2.5 0 0 1-.869-.59 2.704 2.704 0 0 1-.564-.954 3.856 3.856 0 0 1-.2-1.29c0-.643.111-1.187.332-1.633.225-.45.544-.792.958-1.027.415-.235.908-.353 1.48-.353.538 0 1.012.118 1.422.353.411.235.733.578.964 1.027.232.45.348.994.348 1.633Zm-4.229 0c0 .425.05.788.152 1.09.106.302.267.534.485.695.218.158.498.237.843.237.344 0 .625-.079.842-.237.218-.161.378-.393.48-.695.101-.302.152-.665.152-1.09 0-.425-.051-.785-.152-1.08-.102-.298-.262-.525-.48-.68-.217-.157-.5-.236-.848-.236-.512 0-.886.172-1.122.516-.235.344-.352.837-.352 1.48Zm11.808-3.013c.654 0 1.145.169 1.475.506.334.337.501.878.501 1.622v3.813h-1.238v-3.592c0-.442-.086-.776-.258-1-.172-.225-.434-.338-.785-.338-.492 0-.846.158-1.064.474-.214.313-.321.768-.321 1.365v3.091h-1.238v-3.592c0-.295-.039-.54-.116-.737a.866.866 0 0 0-.342-.448 1.044 1.044 0 0 0-.585-.153c-.34 0-.613.078-.816.232-.2.155-.344.383-.432.685-.088.298-.132.665-.132 1.1v2.913h-1.237v-5.83h.963l.174.784h.069a1.66 1.66 0 0 1 .442-.5c.179-.133.378-.232.595-.295.218-.066.444-.1.68-.1.435 0 .802.077 1.1.232.299.15.522.383.669.695h.095a1.67 1.67 0 0 1 .764-.7 2.44 2.44 0 0 1 1.037-.227Z"/>
  <g clip-path="url(#j)">
    <path fill="#F2F2F2" d="M21.726 97.91a9.12 9.12 0 1 0 0-18.242 9.12 9.12 0 0 0 0 18.241Z"/>
    <path stroke="#CAC9CA" stroke-miterlimit="10" stroke-width=".599" d="M21.48 84.847v8.21m4.104-4.104h-8.21"/>
  </g>
  <path stroke="#CAC9CA" stroke-width=".899" d="M44.479 80.699v16.18"/>
  <path stroke="#666" stroke-miterlimit="10" stroke-width="1.079" d="M66.007 87.43v-2.458a.6.6 0 0 0-.6-.6h-7.216a.6.6 0 0 0-.599.6v7.633a.6.6 0 0 0 .6.6h7.216a.6.6 0 0 0 .6-.6v-2.08l2.216 1.09a.6.6 0 0 0 .863-.538v-4.198a.6.6 0 0 0-.863-.538l-2.217 1.09Z"/>
  <path fill="#666" stroke="#CAC9CA" stroke-width=".12" d="M89.432 87.855v-2.731a2.386 2.386 0 1 0-4.765 0v2.73a2.386 2.386 0 0 0 2.379 2.387 2.394 2.394 0 0 0 2.386-2.386Zm-3.892-2.733v-.004a1.516 1.516 0 0 1 1.51-1.618 1.513 1.513 0 0 1 1.51 1.618v2.741a1.516 1.516 0 0 1-1.51 1.618 1.513 1.513 0 0 1-1.51-1.618v-2.737Z"/>
  <path fill="#666" stroke="#CAC9CA" stroke-width=".12" d="M90.607 86.432h-.06v1.466a3.546 3.546 0 0 1-7.085 0v-1.466h-.873V87.9a4.426 4.426 0 0 0 3.983 4.39v1.678h-1.988v.873h4.923v-.873h-2.062V92.29a4.426 4.426 0 0 0 3.975-4.39v-1.468h-.813Z"/>
  <path stroke="#CAC9CA" stroke-width=".899" d="M104.993 80.699v16.18"/>
  <path stroke="#666" stroke-miterlimit="10" stroke-width="1.199" d="M123.725 94.434a5.646 5.646 0 1 0 .001-11.292 5.646 5.646 0 0 0-.001 11.292Z"/>
  <path stroke="#666" stroke-miterlimit="10" stroke-width="1.199" d="M126.207 89.676a2.663 2.663 0 0 1-3.935 1.268 2.668 2.668 0 0 1-1-1.19"/>
  <path fill="#666" d="M121.914 88.415a.91.91 0 1 0 0-1.819.91.91 0 0 0 0 1.819Zm3.63 0a.91.91 0 1 0 0-1.819.91.91 0 0 0 0 1.819Z"/>
  <path fill="#666" stroke="#666" stroke-width=".3" d="M150.268 86.117v.56a2.184 2.184 0 0 0-.626-.501 2.568 2.568 0 0 0-1.284-.348 2.646 2.646 0 0 0-2.043.853l-.003.003a3.167 3.167 0 0 0 0 4.137l.003.004a2.642 2.642 0 0 0 2.043.853 2.57 2.57 0 0 0 1.284-.348c.273-.145.51-.346.697-.588.04.34.168.664.375.941l.006.008.006.006a1.612 1.612 0 0 0 1.297.493 2.391 2.391 0 0 0 2.01-.968h.001l.007-.01c.54-.876.789-1.9.709-2.927a5.45 5.45 0 0 0-1.647-4.096h.001l-.003-.003a6.003 6.003 0 0 0-4.3-1.583 5.835 5.835 0 0 0-4.317 1.696l-.001.002a6.028 6.028 0 0 0-1.725 4.397 6.19 6.19 0 0 0 1.619 4.394l.002.002a5.527 5.527 0 0 0 4.241 1.72 6.962 6.962 0 0 0 2.903-.567l.162-.07-.096-.149a1.713 1.713 0 0 1-.147-.288l-.003-.009-.005-.008-.175-.322-.065-.117-.124.05a6.07 6.07 0 0 1-2.447.45h-.01a4.458 4.458 0 0 1-3.445-1.414 5.184 5.184 0 0 1-1.335-3.652v-.01a5.018 5.018 0 0 1 1.42-3.657 4.77 4.77 0 0 1 3.552-1.432h.011a4.866 4.866 0 0 1 3.546 1.305 4.458 4.458 0 0 1 1.35 3.352v.015a4.234 4.234 0 0 1-.464 2.23 1.41 1.41 0 0 1-1.188.704h-.003a.623.623 0 0 1-.463-.18.766.766 0 0 1-.193-.567v-4.511h-1.133v.15Zm-1.805 4.523v-.001h-.013a1.615 1.615 0 0 1-1.29-.532 2.139 2.139 0 0 1-.001-2.729 1.619 1.619 0 0 1 1.289-.512h.016a1.697 1.697 0 0 1 1.303.53c.338.368.518.855.501 1.355v.012a1.844 1.844 0 0 1-.507 1.352 1.71 1.71 0 0 1-1.298.525Z"/>
  <g fill="#666" clip-path="url(#k)">
    <path stroke="#666" stroke-width=".12" d="M170.804 92.397h.041l.015-.037 1.012-2.523h4.835l1.036 2.523.015.037h1.206l-.035-.083-4.086-9.745-.016-.036h-1.02l-.015.036-4.102 9.745-.035.083h1.149Zm1.488-3.589 2.005-4.95 2.006 4.95h-4.011Zm11.832-.633.001-.015a1.583 1.583 0 0 0-.409-1.192 1.7 1.7 0 0 0-1.203-.395h-.004a2.516 2.516 0 0 0-1.027.209c-.29.124-.552.305-.771.532l-.047.048-.042-.052-.514-.616-.035-.042.039-.04a3.017 3.017 0 0 1 1.048-.676 3.858 3.858 0 0 1 1.468-.265c.33-.002.659.047.974.145.296.095.572.247.811.446h.001c.237.207.421.466.538.758.136.333.202.691.194 1.05v3.61c.009.226.036.45.078.67l.013.072h-.923v-.06a1.515 1.515 0 0 0-.031-.278c-.012-.073-.025-.151-.032-.23v-.002a4.116 4.116 0 0 1-.008-.333 2.77 2.77 0 0 1-.875.776l-.003.002a2.879 2.879 0 0 1-1.339.29 2.784 2.784 0 0 1-.758-.112m2.856-4.3-2.84 4.242m2.84-4.242.005.013.061.147m-.066-.16.131.16h-.065m-2.922 4.14h-.001l.017-.058m-.016.058h.001l.015-.058m-.016.058a2.12 2.12 0 0 1-.723-.341v-.001a1.885 1.885 0 0 1-.759-1.565m1.498 1.85a2.055 2.055 0 0 1-.703-.333 1.864 1.864 0 0 1-.522-.608 1.81 1.81 0 0 1-.213-.91m-.06.001v.003l.06-.003m-.06 0v-.002l.06.002m-.06 0c-.022-.44.114-.874.384-1.223l.002-.003a2.315 2.315 0 0 1 1.014-.665m-1.34 1.89a1.784 1.784 0 0 1 .371-1.185c.266-.3.607-.524.988-.648m3.96 3.628h-.061l.002.01.059-.01Zm0 0v-.06h-.011l.011.06Zm-4.497-5.09-.039-.046-.004.004.043.042Zm0 0 .046-.038-.004-.005a5.684 5.684 0 0 0-.042.043Zm.518 1.405.019.057m-.019-.057.019.057m-.019-.057a5.68 5.68 0 0 1 1.43-.28m-1.411.337a5.614 5.614 0 0 1 1.415-.277m0 0-.005-.06h.001m.004.06a22.678 22.678 0 0 1 1.595-.063l-.025-.06m-1.57.123-.004-.06m0 0c.51-.037 1.035-.06 1.574-.063m-1.399.886h.002a8.99 8.99 0 0 1 1.12-.047l.18.018v.428a2.29 2.29 0 0 1-.131.77v.002a1.937 1.937 0 0 1-.376.659 1.66 1.66 0 0 1-.61.45h-.001a1.94 1.94 0 0 1-.836.17h-.001a2.356 2.356 0 0 1-.516-.062 1.35 1.35 0 0 1-.455-.197.932.932 0 0 1-.32-.357h.001-.001a1.096 1.096 0 0 1-.127-.548v-.004a.89.89 0 0 1 .28-.68c.221-.193.483-.332.766-.406h.001a5.414 5.414 0 0 1 1.024-.195Z"/>
    <path d="M186.192 94.195h-16.581v.79h16.581v-.79Z"/>
  </g>
  <defs>
    <clipPath id="a">
      <path fill="#fff" d="M15.002 21.424h6.728v9.588h-6.728z"/>
    </clipPath>
    <clipPath id="b">
      <path fill="#fff" d="M38.509 21.424h7.487v9.588h-7.487z"/>
    </clipPath>
    <clipPath id="c">
      <path fill="#fff" d="M62.775 21.424h10.028v9.588H62.775z"/>
    </clipPath>
    <clipPath id="d">
      <path fill="#fff" d="M99.17 21.424h9.588v9.588H99.17z"/>
    </clipPath>
    <clipPath id="e">
      <path fill="#fff" d="M135.125 21.424h9.596v9.588h-9.596z"/>
    </clipPath>
    <clipPath id="f">
      <path fill="#fff" d="M161.5 21.424h10.157v9.588H161.5z"/>
    </clipPath>
    <clipPath id="g">
      <path fill="#fff" d="M198.024 21.424h9.85v9.588h-9.85z"/>
    </clipPath>
    <clipPath id="h">
      <path fill="#fff" d="M234.241 21.424h11.963v9.588h-11.963z"/>
    </clipPath>
    <clipPath id="i">
      <path fill="#fff" d="M262.983 21.424h11.618v9.588h-11.618z"/>
    </clipPath>
    <clipPath id="j">
      <path fill="#fff" d="M12.605 79.668h18.24v18.241h-18.24z"/>
    </clipPath>
    <clipPath id="k">
      <path fill="#fff" d="M169.611 82.593h16.581v12.392h-16.581z"/>
    </clipPath>
  </defs>
</svg>
