<svg xmlns="http://www.w3.org/2000/svg" width="272" height="285" fill="none">
  <rect width="271.26" height="285" fill="#17D4A7" rx="8"/>
  <path fill="#3B103D" d="M12 20.814A8.814 8.814 0 0 1 20.814 12h250.452v260.249H20.814A8.814 8.814 0 0 1 12 263.435z"/>
  <g clip-path="url(#a)">
    <rect width="14.689" height="14.689" x="29.627" y="29.627" fill="#3B103D" rx="4.407"/>
    <circle cx="37.114" cy="36.356" r="3.057" fill="#fff"/>
    <path fill="#fff" d="M30.518 45.05a4.994 4.994 0 0 1 4.994-4.993h3.204a4.994 4.994 0 0 1 4.994 4.994z"/>
  </g>
  <rect width="12.119" height="12.119" x="36.421" y="37.156" fill="#4F2851" stroke="#3B103D" stroke-width="1.102" rx="3.489"/>
  <path fill="#BBADBC" d="M44.566 45.972h-4.26v-.762l1.63-1.652q.474-.483.78-.83.305-.354.451-.668.15-.315.151-.684 0-.456-.262-.689-.263-.236-.693-.236a1.8 1.8 0 0 0-.758.163 3.5 3.5 0 0 0-.714.456l-.555-.667q.262-.223.56-.409.3-.184.67-.292.37-.112.844-.112.598 0 1.033.215.435.21.667.59.236.378.236.882 0 .507-.202.938t-.576.852q-.375.417-.891.908l-1.089 1.063v.047h2.978zm10.607-11.307h2.964q1.928 0 2.91.559.98.559.98 1.928 0 .573-.204 1.036a1.9 1.9 0 0 1-.58.756 2.15 2.15 0 0 1-.94.396v.068q.58.102 1.03.36.456.26.715.744.266.483.266 1.253 0 .914-.436 1.554-.43.64-1.234.974-.797.334-1.894.334h-3.577zm1.635 4.109h1.567q1.11 0 1.54-.361.43-.36.43-1.056 0-.709-.512-1.022-.504-.315-1.608-.314h-1.417zm0 1.322v3.162h1.724q1.145 0 1.608-.443t.463-1.2a1.5 1.5 0 0 0-.21-.804q-.206-.34-.675-.524-.47-.19-1.268-.191zm10.525-3.155a4.6 4.6 0 0 1 .804.075l-.15 1.5a2 2 0 0 0-.355-.062 4 4 0 0 0-.367-.02q-.43 0-.818.142a1.93 1.93 0 0 0-1.158 1.124 2.6 2.6 0 0 0-.17.982v3.945H63.51v-7.543h1.254l.218 1.329h.075q.225-.402.559-.736.333-.334.763-.532.435-.204.954-.204m4.46 0q1.431 0 2.16.634.736.632.736 1.976v5.076h-1.138l-.307-1.07h-.054a4 4 0 0 1-.661.675 2.3 2.3 0 0 1-.79.395q-.444.136-1.084.136-.675 0-1.206-.245a1.9 1.9 0 0 1-.838-.763q-.306-.51-.307-1.295 0-1.165.866-1.75.872-.587 2.63-.648l1.308-.048v-.395q0-.784-.368-1.117-.36-.334-1.022-.334a3.7 3.7 0 0 0-1.097.163q-.532.164-1.036.402l-.517-1.131a5.8 5.8 0 0 1 1.253-.477 5.8 5.8 0 0 1 1.472-.184m1.308 4.082-.974.034q-1.2.04-1.683.408-.484.369-.484 1.009 0 .558.334.818.335.252.879.252.831 0 1.376-.47.552-.477.552-1.397zm5.667 3.74q-1.35 0-2.167-.98-.81-.99-.81-2.91 0-1.943.824-2.937.831-.995 2.187-.995.572 0 1.001.157.43.15.736.409.314.258.532.579h.075q-.034-.211-.082-.607a7 7 0 0 1-.04-.742v-2.712h1.607v10.602h-1.254l-.286-1.029h-.068a2.4 2.4 0 0 1-1.254 1.008 2.9 2.9 0 0 1-1.001.157m.45-1.301q1.029 0 1.45-.593.423-.593.437-1.778v-.212q0-1.267-.409-1.941-.409-.682-1.492-.682-.866 0-1.322.702-.45.694-.45 1.942 0 1.246.45 1.908.457.654 1.335.654Zm3.874-6.378h1.744l1.547 4.306q.102.294.184.58.088.279.15.552.068.272.109.545h.04a10 10 0 0 1 .192-.79q.129-.444.286-.886l1.485-4.307h1.724l-3.237 8.579q-.279.735-.688 1.254-.402.525-.954.79a2.8 2.8 0 0 1-1.26.273 4 4 0 0 1-.593-.041 5 5 0 0 1-.43-.075v-1.281a3.6 3.6 0 0 0 .81.089q.431 0 .744-.171a1.54 1.54 0 0 0 .532-.484q.218-.306.36-.702l.267-.708zm15.298 7.543-2.868-8.32h-.062a49 49 0 0 1 .096 1.8q.02.551.02 1.055v5.465h-1.485v-9.962h2.296l2.76 7.952h.04l2.856-7.952h2.289v9.962h-1.56v-5.546q0-.457.013-.988l.041-1.009q.027-.477.041-.763h-.054l-2.978 8.306zm10.743.136q-1.07 0-1.853-.415-.785-.416-1.206-1.274-.423-.86-.423-2.18 0-1.378.464-2.25.462-.87 1.281-1.287.823-.416 1.887-.416.674 0 1.22.136.552.13.933.32l-.477 1.282a7 7 0 0 0-.852-.287 3.3 3.3 0 0 0-.838-.115q-.66 0-1.103.293-.436.293-.655.872-.21.579-.211 1.438 0 .831.218 1.403.218.565.648.859.429.285 1.056.286.62 0 1.11-.15t.927-.388v1.39a3.4 3.4 0 0 1-.92.36 5 5 0 0 1-1.206.123m4.801-10.738v5.124q0 .347-.027.763-.027.41-.055.77h.034q.178-.239.423-.559.252-.32.477-.559l2.303-2.48h1.84l-3.019 3.244 3.216 4.3h-1.88l-2.412-3.312-.9.77v2.541h-1.601V34.025zm8.706 2.916q1.008 0 1.73.416.723.416 1.111 1.178.388.764.388 1.827v.858h-5.035q.027 1.098.586 1.69.565.593 1.581.593.722 0 1.294-.136a7 7 0 0 0 1.193-.416v1.301a5.2 5.2 0 0 1-1.152.389q-.585.122-1.403.122-1.111 0-1.956-.429a3.14 3.14 0 0 1-1.315-1.295q-.47-.858-.47-2.132 0-1.268.429-2.153.429-.886 1.206-1.35.777-.463 1.813-.463m0 1.206q-.757 0-1.227.49-.464.492-.545 1.438h3.434a2.6 2.6 0 0 0-.191-1.001 1.45 1.45 0 0 0-.545-.682q-.361-.245-.926-.245m8.269-1.206q1.273 0 1.983.661.715.654.715 2.106v4.92h-1.601v-4.62q0-.88-.361-1.316-.361-.443-1.118-.443-1.097 0-1.526.675-.423.675-.422 1.956v3.747h-1.602v-7.543h1.247l.225 1.022h.089q.245-.395.606-.647a2.7 2.7 0 0 1 .818-.388q.456-.13.947-.13m8.174 0q1.273 0 1.983.661.715.654.715 2.106v4.92h-1.601v-4.62q0-.88-.361-1.316-.362-.443-1.118-.443-1.097 0-1.526.675-.423.675-.423 1.956v3.747h-1.601v-7.543h1.247l.225 1.022h.089q.245-.395.606-.647a2.7 2.7 0 0 1 .818-.388q.456-.13.947-.13m7.199 0q1.431 0 2.16.634.736.632.736 1.976v5.076h-1.138l-.306-1.07h-.055a4 4 0 0 1-.661.675 2.3 2.3 0 0 1-.79.395q-.443.136-1.084.136-.674 0-1.206-.245a1.9 1.9 0 0 1-.838-.763q-.306-.51-.306-1.295 0-1.165.865-1.75.872-.587 2.63-.648l1.308-.048v-.395q0-.784-.368-1.117-.36-.334-1.022-.334-.565 0-1.097.163a8 8 0 0 0-1.035.402l-.518-1.131a5.8 5.8 0 0 1 1.254-.477 5.8 5.8 0 0 1 1.471-.184m1.309 4.082-.975.034q-1.198.04-1.683.408-.483.369-.484 1.009 0 .558.334.818.334.252.879.252.831 0 1.377-.47.552-.477.552-1.397zm4.746 1.982.095.157q-.122.491-.313 1.056-.19.566-.416 1.131-.224.572-.456 1.077h-1.172q.143-.552.272-1.158.137-.6.246-1.186.115-.593.184-1.077zm8.825-7.093q-.715 0-1.281.26a2.6 2.6 0 0 0-.947.749 3.4 3.4 0 0 0-.593 1.178 5.5 5.5 0 0 0-.204 1.554q0 1.158.327 1.997.327.83.995 1.28.667.444 1.69.443.633 0 1.233-.122.6-.123 1.24-.334v1.39a6.4 6.4 0 0 1-1.226.347 8.4 8.4 0 0 1-1.431.11q-1.527 0-2.535-.634-1.002-.634-1.499-1.786-.49-1.151-.491-2.698 0-1.13.314-2.071a4.6 4.6 0 0 1 .913-1.622q.6-.688 1.479-1.056.885-.375 2.023-.375.75 0 1.472.17a6 6 0 0 1 1.349.47l-.572 1.35a8 8 0 0 0-1.084-.423 3.9 3.9 0 0 0-1.172-.177m5.34-1.887v2.664q0 .415-.027.81-.021.396-.048.614h.088q.239-.395.586-.647.348-.259.777-.389.436-.13.927-.13.865 0 1.472.294.606.285.926.892.327.607.327 1.575v4.92h-1.601v-4.62q0-.88-.361-1.316-.361-.443-1.117-.443-.73 0-1.159.307-.422.3-.606.893-.184.585-.184 1.43v3.748h-1.601V34.025zm9.53 2.916q1.431 0 2.16.634.736.632.736 1.976v5.076h-1.138l-.307-1.07h-.055a4 4 0 0 1-.66.675 2.3 2.3 0 0 1-.791.395q-.442.136-1.083.136-.675 0-1.206-.245a1.9 1.9 0 0 1-.838-.763q-.307-.51-.307-1.295 0-1.165.865-1.75.873-.587 2.63-.648l1.309-.048v-.395q0-.784-.368-1.117-.362-.334-1.022-.334-.566 0-1.097.163-.532.164-1.036.402l-.518-1.131a5.8 5.8 0 0 1 1.254-.477 5.8 5.8 0 0 1 1.472-.184m1.308 4.082-.974.034q-1.2.04-1.683.408-.484.369-.484 1.009 0 .558.334.818.333.252.879.252.831 0 1.376-.47.552-.477.552-1.397zm7.063-4.082q1.275 0 1.983.661.715.654.715 2.106v4.92H185.5v-4.62q0-.88-.361-1.316-.361-.443-1.117-.443-1.098 0-1.527.675-.422.675-.422 1.956v3.747h-1.601v-7.543h1.247l.224 1.022h.089q.245-.395.606-.647.369-.26.818-.388.456-.13.947-.13m7.05 6.528q.313 0 .62-.055.306-.06.559-.143v1.213a3.4 3.4 0 0 1-.689.198 4.6 4.6 0 0 1-.879.081q-.64 0-1.151-.21a1.7 1.7 0 0 1-.811-.743q-.3-.525-.3-1.452v-4.054h-1.029v-.716l1.104-.565.525-1.615h1.008v1.676h2.16v1.22h-2.16v4.034q0 .572.286.851.286.28.757.28m5.019-6.528q1.008 0 1.731.416.722.416 1.11 1.178.389.764.389 1.827v.858h-5.036q.028 1.098.586 1.69.566.593 1.581.593.722 0 1.295-.136a7 7 0 0 0 1.192-.416v1.301a5.2 5.2 0 0 1-1.151.389 7 7 0 0 1-1.404.122q-1.11 0-1.956-.429a3.14 3.14 0 0 1-1.315-1.295q-.47-.858-.47-2.132 0-1.268.429-2.153.43-.886 1.206-1.35.777-.463 1.813-.463m0 1.206q-.756 0-1.227.49-.462.492-.545 1.438h3.434a2.6 2.6 0 0 0-.19-1.001q-.177-.436-.545-.682-.362-.245-.927-.245m5.946 6.48h-1.608V34.025h1.608zm3.199 0h-1.608V34.025h1.608zm4.597-7.686q1.008 0 1.731.416.722.416 1.11 1.178.389.764.389 1.827v.858h-5.036q.028 1.098.586 1.69.566.593 1.581.593.723 0 1.295-.136a7 7 0 0 0 1.192-.416v1.301a5.2 5.2 0 0 1-1.151.389 7 7 0 0 1-1.404.122q-1.11 0-1.955-.429a3.14 3.14 0 0 1-1.316-1.295q-.47-.858-.47-2.132 0-1.268.43-2.153.429-.886 1.206-1.35.776-.463 1.812-.463m0 1.206q-.756 0-1.226.49-.464.492-.546 1.438h3.435a2.6 2.6 0 0 0-.191-1.001q-.177-.435-.545-.682-.362-.245-.927-.245m13.602 6.48-.974-2.766h-3.809l-.975 2.766h-1.724l3.707-10.003h1.813l3.699 10.003zm-1.397-4.17-.947-2.726-.157-.497a120 120 0 0 1-.375-1.233 14 14 0 0 1-.17.627q-.095.34-.191.64l-.136.463-.954 2.726zm5.19-6.432v5.124q0 .347-.028.763-.027.41-.054.77h.034q.177-.239.422-.559.252-.32.477-.559l2.303-2.48h1.84l-3.018 3.244 3.216 4.3h-1.881l-2.412-3.312-.899.77v2.541h-1.602V34.025zm7.301 0v2.664q0 .415-.027.81-.021.396-.048.614h.089q.238-.395.586-.647.347-.259.777-.389.435-.13.926-.13.866 0 1.472.294.606.285.927.892.327.607.327 1.575v4.92h-1.601v-4.62q0-.88-.361-1.316-.362-.443-1.118-.443-.729 0-1.158.307-.423.3-.607.893-.184.585-.184 1.43v3.748h-1.601V34.025zm6.341 9.757q0-.558.286-.783a1.1 1.1 0 0 1 .709-.232q.415 0 .709.232.3.224.3.783 0 .546-.3.79a1.1 1.1 0 0 1-.709.24q-.415 0-.709-.24-.285-.244-.286-.79m3.132 0q0-.558.286-.783.293-.232.709-.232t.708.232q.3.224.3.783 0 .546-.3.79a1.08 1.08 0 0 1-.708.24q-.416 0-.709-.24-.286-.244-.286-.79m3.132 0q0-.558.286-.783.292-.232.708-.232t.709.232q.3.224.3.783 0 .546-.3.79a1.1 1.1 0 0 1-.709.24 1.08 1.08 0 0 1-.708-.24q-.286-.244-.286-.79"/>
  <circle cx="34.475" cy="65.865" r="1.469" fill="#785E76"/>
  <circle cx="39.175" cy="65.865" r="1.469" fill="#785E76"/>
  <circle cx="43.876" cy="65.865" r="1.469" fill="#785E76"/>
  <path fill="#fff" d="M57.93 71.317h-2.077v-9.962h5.71v1.73H57.93v2.57h3.38v1.723h-3.38zm8.972-7.761q.157 0 .361.02.211.015.34.04l-.156 1.95a1.3 1.3 0 0 0-.293-.048 3 3 0 0 0-.32-.02q-.403 0-.784.102-.375.102-.674.334-.3.225-.477.6-.17.368-.17.905v3.878H62.65v-7.618h1.574l.307 1.28h.102q.225-.387.559-.708a2.7 2.7 0 0 1 .77-.518q.436-.197.94-.197m4.508-.014q1.534 0 2.35.668.819.668.819 2.03v5.077h-1.452l-.402-1.036h-.054a4 4 0 0 1-.668.668 2.3 2.3 0 0 1-.784.381 4 4 0 0 1-1.076.123q-.675 0-1.213-.26a1.93 1.93 0 0 1-.838-.79q-.307-.538-.307-1.362 0-1.213.852-1.785.852-.58 2.555-.641l1.322-.04v-.335q0-.6-.313-.879-.314-.28-.873-.28a3.8 3.8 0 0 0-1.083.158 8 8 0 0 0-1.063.395l-.688-1.404a6 6 0 0 1 1.356-.504 6.6 6.6 0 0 1 1.56-.184m1.104 4.245-.804.027q-1.008.028-1.404.361-.388.334-.388.88 0 .476.28.68.278.199.728.198.667 0 1.125-.395.463-.395.463-1.124zm7.84-4.231q1.22 0 1.962.667.743.662.743 2.126v4.968h-2.078v-4.45q0-.818-.3-1.233-.292-.416-.927-.416-.954 0-1.301.647-.348.648-.348 1.868v3.584h-2.078v-7.618h1.588l.28.974h.115a2.1 2.1 0 0 1 .606-.64q.369-.245.811-.362.45-.115.927-.115m6.225-2.842v4.743q0 .429-.034.858-.034.43-.075.859h.027q.211-.3.43-.593.224-.293.477-.566l2.132-2.316h2.344l-3.025 3.304 3.21 4.314h-2.4l-2.193-3.087-.893.715v2.372h-2.078V60.714zm7.956 10.603h-2.078V60.714h2.078zm3.568-7.618v7.618h-2.078v-7.618zm-1.036-2.985q.464 0 .797.218.334.212.334.797 0 .58-.334.804a1.43 1.43 0 0 1-.797.219q-.47 0-.804-.219-.327-.224-.327-.803 0-.586.327-.798.333-.218.804-.218m6.852 2.842q1.22 0 1.962.667.743.662.743 2.126v4.968h-2.078v-4.45q0-.818-.3-1.233-.292-.416-.927-.416-.953 0-1.301.647-.348.648-.348 1.868v3.584h-2.078v-7.618h1.588l.279.974h.116q.246-.395.606-.64.369-.245.811-.362.45-.115.927-.115"/>
  <rect width="22.768" height="16.974" x="230.87" y="56.317" fill="#EBE7EC" rx="8.487"/>
  <path fill="#3B103D" d="M240.805 68.569v-1.09h1.634V62.82l-1.264.76-.514-.966 2.159-1.295h.936v6.159h1.532v1.09h-4.483Z"/>
  <g clip-path="url(#b)">
    <rect width="19.096" height="19.096" x="29.627" y="82.757" fill="#fff" rx="4.407"/>
    <circle cx="39.175" cy="90.442" r="4.012" fill="#D12B5C"/>
    <path fill="#D12B5C" d="M30.518 101.854a6.555 6.555 0 0 1 6.555-6.555h4.205a6.555 6.555 0 0 1 6.555 6.555z"/>
  </g>
  <path fill="#BBADBC" d="M58.708 87.795q1.287 0 2.126.314.844.314 1.253.954.416.64.416 1.628 0 .736-.273 1.254-.272.518-.715.859a4 4 0 0 1-.947.545l2.828 4.408h-1.847l-2.405-3.993h-1.602v3.993h-1.635v-9.962h2.8Zm-.11 1.363h-1.056v3.257h1.132q1.137 0 1.648-.422.518-.423.518-1.247 0-.865-.552-1.227-.544-.36-1.69-.36Zm6.962 1.056v7.543h-1.602v-7.543zm-.79-2.889q.368 0 .633.198.273.198.272.681 0 .477-.272.682a1.03 1.03 0 0 1-.634.197q-.381 0-.647-.197-.26-.205-.259-.682 0-.484.259-.681.266-.198.647-.198Zm5.427 10.569q-1.069 0-1.853-.416t-1.206-1.274q-.423-.86-.423-2.18 0-1.377.464-2.25.463-.87 1.28-1.287.826-.416 1.888-.416.674 0 1.22.136.552.13.933.32l-.477 1.282a7 7 0 0 0-.851-.286 3.3 3.3 0 0 0-.838-.116q-.662 0-1.104.293-.437.293-.654.872-.212.579-.212 1.438 0 .831.218 1.403.218.565.648.859.429.285 1.056.286.62 0 1.11-.15t.927-.388v1.39a3.4 3.4 0 0 1-.92.36 5 5 0 0 1-1.206.124m9.878-3.925q0 .94-.246 1.67a3.3 3.3 0 0 1-.715 1.233q-.47.496-1.131.763-.66.258-1.493.258-.776 0-1.424-.258a3.25 3.25 0 0 1-1.124-.764 3.5 3.5 0 0 1-.729-1.233q-.26-.729-.259-1.67 0-1.246.43-2.112a3.06 3.06 0 0 1 1.24-1.328q.803-.457 1.914-.457 1.042 0 1.84.457.797.456 1.247 1.328t.45 2.113m-5.472 0q0 .825.198 1.41.204.585.626.9.423.306 1.09.306.67 0 1.09-.306.425-.315.621-.9.198-.585.198-1.41 0-.824-.198-1.397-.197-.58-.62-.88-.423-.305-1.097-.306-.995 0-1.451.668t-.457 1.915m12.6-6.174q1.929 0 2.814.79.886.792.886 2.215 0 .648-.204 1.234-.198.58-.654 1.028-.458.444-1.206.702-.744.26-1.833.26h-1.063v3.733h-1.636v-9.962zm-.109 1.356h-1.151v3.51h.892q.77 0 1.309-.178.538-.183.817-.579.28-.394.28-1.042 0-.866-.525-1.288-.518-.423-1.622-.423m7.895.92q1.431 0 2.16.634.736.633.736 1.976v5.076h-1.138l-.307-1.07h-.054a4 4 0 0 1-.661.675 2.3 2.3 0 0 1-.79.395q-.444.136-1.084.136-.675 0-1.206-.245a1.9 1.9 0 0 1-.838-.763q-.307-.51-.307-1.294 0-1.166.865-1.752.873-.585 2.63-.647l1.309-.048v-.395q0-.783-.368-1.117-.361-.334-1.022-.334a3.7 3.7 0 0 0-1.097.163q-.531.164-1.036.402l-.518-1.13a5.8 5.8 0 0 1 1.254-.478 5.8 5.8 0 0 1 1.472-.184m1.308 4.082-.974.034q-1.2.04-1.683.409-.484.368-.484 1.008 0 .559.334.818.333.252.879.252.831 0 1.376-.47.552-.477.552-1.397zm6.954-4.082a4.6 4.6 0 0 1 .804.075l-.15 1.5a2 2 0 0 0-.354-.062 4 4 0 0 0-.368-.02q-.43 0-.818.143a1.93 1.93 0 0 0-1.158 1.124q-.17.421-.17.981v3.945h-1.608v-7.543h1.253l.218 1.329h.075q.226-.402.559-.736t.763-.531q.436-.205.954-.205m3.105-2.916v5.124q0 .348-.028.763-.027.41-.054.77h.034q.177-.238.422-.559.252-.32.477-.558l2.303-2.48h1.84l-3.018 3.243 3.216 4.3h-1.881l-2.412-3.312-.899.77v2.541h-1.602V87.155z"/>
  <rect width="19.096" height="19.096" x="29.627" y="109.198" fill="#4F2851" rx="3.672"/>
  <path stroke="#BBADBC" stroke-width="2.203" d="M43.949 119.113h-9.548m9.548 0h-9.548m9.548 0h-9.548m4.774-5.141v9.548m0-9.548v9.548m0-9.548v9.548"/>
  <path fill="#BBADBC" d="m62.08 124.198-.974-2.767h-3.809l-.974 2.767h-1.724l3.707-10.003h1.812l3.7 10.003h-1.737Zm-1.396-4.17-.947-2.726a135 135 0 0 1-.361-1.158l-.17-.572q-.069.28-.171.626a19 19 0 0 1-.191.641q-.09.3-.136.463l-.954 2.726zm6.123 4.306q-1.35 0-2.167-.981-.81-.989-.811-2.91 0-1.941.824-2.936.832-.996 2.188-.995.572 0 1.001.157.43.15.736.408.314.26.532.58h.075a17 17 0 0 1-.082-.607 7 7 0 0 1-.041-.743v-2.712h1.608v10.603h-1.254l-.286-1.029h-.068a2.4 2.4 0 0 1-1.254 1.008 2.9 2.9 0 0 1-1.001.157m.45-1.301q1.028 0 1.45-.593.423-.593.437-1.779v-.211q0-1.267-.41-1.942-.408-.681-1.491-.681-.866 0-1.322.702-.45.694-.45 1.942 0 1.246.45 1.908.457.654 1.335.654Zm7.546 1.301q-1.35 0-2.166-.981-.811-.989-.811-2.91 0-1.941.824-2.936.831-.996 2.187-.995.573 0 1.002.157.43.15.736.408.314.26.531.58h.075q-.034-.211-.081-.607a7 7 0 0 1-.041-.743v-2.712h1.608v10.603h-1.254l-.286-1.029h-.068a2.4 2.4 0 0 1-1.254 1.008 2.9 2.9 0 0 1-1.002.157m.45-1.301q1.03 0 1.451-.593t.437-1.779v-.211q0-1.267-.41-1.942-.408-.681-1.492-.681-.865 0-1.321.702-.45.694-.45 1.942 0 1.246.45 1.908.457.654 1.335.654M86 123.04q.314 0 .62-.055.306-.062.559-.143v1.213a3.3 3.3 0 0 1-.689.197 4.6 4.6 0 0 1-.878.082 3 3 0 0 1-1.152-.211 1.7 1.7 0 0 1-.81-.743q-.3-.524-.3-1.451v-4.054h-1.03v-.716l1.104-.565.525-1.615h1.008v1.676h2.16v1.22h-2.16v4.033q0 .573.287.852.285.28.756.28m5.019-6.528q1.009 0 1.73.415.724.417 1.111 1.179.39.764.389 1.826v.859h-5.036q.028 1.097.586 1.69.566.593 1.581.593a5.6 5.6 0 0 0 1.295-.137 7 7 0 0 0 1.192-.415v1.301q-.565.266-1.151.389a7 7 0 0 1-1.404.122q-1.11 0-1.956-.429a3.14 3.14 0 0 1-1.315-1.295q-.47-.858-.47-2.132 0-1.267.43-2.154.429-.885 1.206-1.349t1.812-.463m0 1.206q-.756 0-1.227.49-.462.492-.545 1.438h3.435a2.6 2.6 0 0 0-.191-1.001 1.46 1.46 0 0 0-.545-.682q-.362-.245-.927-.245m7.295-1.206q1.431 0 2.16.634.736.633.736 1.976v5.076h-1.138l-.307-1.07h-.054a4 4 0 0 1-.661.675 2.3 2.3 0 0 1-.79.395q-.444.136-1.084.136-.675 0-1.206-.245a1.9 1.9 0 0 1-.838-.763q-.307-.512-.307-1.295 0-1.165.866-1.751.872-.587 2.63-.647l1.308-.048v-.395q0-.784-.368-1.118-.36-.333-1.022-.334a3.7 3.7 0 0 0-1.097.164 8 8 0 0 0-1.036.402l-.518-1.131a5.7 5.7 0 0 1 1.254-.477 5.8 5.8 0 0 1 1.472-.184m1.308 4.081-.974.034q-1.2.042-1.683.409-.484.369-.484 1.009 0 .558.334.817.334.252.879.252.831 0 1.376-.47.552-.477.552-1.397zm11.656-4.081q1.267 0 1.908.654.647.654.647 2.099v4.933h-1.601v-4.647q0-.859-.334-1.295t-1.015-.436q-.954 0-1.377.613-.415.607-.415 1.765v4h-1.602v-4.647q0-.573-.149-.954a1.12 1.12 0 0 0-.443-.579q-.3-.198-.757-.198-.66 0-1.056.3-.388.3-.559.886-.17.58-.17 1.424v3.768h-1.601v-7.543h1.247l.225 1.015h.088q.232-.395.573-.647.347-.26.77-.382.422-.129.879-.129.845 0 1.424.3.579.293.865.899h.123q.354-.614.988-.906.633-.293 1.342-.293m12.617 0q1.266 0 1.907.654.648.654.648 2.099v4.933h-1.602v-4.647q0-.859-.333-1.295-.334-.436-1.016-.436-.953 0-1.376.613-.416.607-.416 1.765v4h-1.601v-4.647q0-.573-.15-.954a1.1 1.1 0 0 0-.443-.579q-.3-.198-.756-.198-.662 0-1.056.3-.388.3-.559.886-.17.58-.17 1.424v3.768h-1.602v-7.543h1.247l.225 1.015h.089q.231-.395.572-.647.348-.26.77-.382.423-.129.879-.129.845 0 1.424.3.58.293.866.899h.122q.355-.614.988-.906.634-.293 1.343-.293m7.049 0q1.431 0 2.16.634.736.633.736 1.976v5.076h-1.138l-.306-1.07h-.055a4 4 0 0 1-.661.675 2.3 2.3 0 0 1-.79.395q-.444.136-1.084.136-.673 0-1.206-.245a1.93 1.93 0 0 1-.838-.763q-.306-.512-.307-1.295 0-1.165.866-1.751.872-.587 2.63-.647l1.308-.048v-.395q0-.784-.368-1.118-.36-.333-1.022-.334-.565 0-1.097.164a8 8 0 0 0-1.036.402l-.517-1.131a5.7 5.7 0 0 1 1.253-.477 5.8 5.8 0 0 1 1.472-.184m1.308 4.081-.974.034q-1.199.042-1.683.409-.483.369-.484 1.009 0 .558.334.817.335.252.879.252.831 0 1.377-.47.55-.477.551-1.397zm5.939 2.447q.314 0 .62-.055.307-.062.559-.143v1.213a3.3 3.3 0 0 1-.688.197 4.6 4.6 0 0 1-.879.082 3 3 0 0 1-1.152-.211 1.7 1.7 0 0 1-.81-.743q-.3-.524-.3-1.451v-4.054h-1.029v-.716l1.104-.565.524-1.615h1.009v1.676h2.16v1.22h-2.16v4.033q0 .573.286.852.287.28.756.28m5.02-6.528q1.008 0 1.73.415.723.417 1.111 1.179.388.764.388 1.826v.859h-5.035q.027 1.097.586 1.69.566.593 1.581.593a5.6 5.6 0 0 0 1.294-.137 7 7 0 0 0 1.193-.415v1.301a5.2 5.2 0 0 1-1.152.389 7 7 0 0 1-1.403.122q-1.112 0-1.956-.429a3.14 3.14 0 0 1-1.315-1.295q-.47-.858-.47-2.132 0-1.267.429-2.154.429-.885 1.206-1.349t1.813-.463m0 1.206q-.757 0-1.227.49-.464.492-.545 1.438h3.434a2.6 2.6 0 0 0-.191-1.001 1.46 1.46 0 0 0-.545-.682q-.361-.245-.926-.245m9.407 4.327q0 .743-.361 1.253-.361.511-1.057.777-.688.26-1.689.259a7 7 0 0 1-1.363-.116 4.7 4.7 0 0 1-1.07-.34v-1.384q.539.252 1.206.436.675.184 1.274.184.791 0 1.138-.245a.79.79 0 0 0 .348-.668.7.7 0 0 0-.143-.436q-.137-.197-.518-.402a10 10 0 0 0-1.104-.504 9 9 0 0 1-1.206-.572 2.1 2.1 0 0 1-.743-.688q-.252-.41-.252-1.043 0-1.002.79-1.519.798-.525 2.106-.525.695 0 1.308.143a6.2 6.2 0 0 1 1.213.402l-.504 1.206a7.5 7.5 0 0 0-1.029-.368q-.511-.15-1.043-.15-.62 0-.947.191a.6.6 0 0 0-.32.545.67.67 0 0 0 .157.45q.156.183.538.368.388.184 1.077.456.674.26 1.165.545.497.28.763.689t.266 1.056"/>
  <g filter="url(#c)">
    <circle cx="47.254" cy="95.729" r="3.672" fill="#3B103D"/>
    <circle cx="47.254" cy="95.729" r="2.938" stroke="#BBADBC" stroke-width="1.469"/>
  </g>
  <path fill="#D9D9D9" d="M39.684 157.449a.734.734 0 0 1-1.018 0l-3.311-3.186a.735.735 0 0 1 .509-1.264h6.623c.66 0 .985.805.509 1.264z"/>
  <path fill="#BBADBC" d="m62.08 160.921-.974-2.766h-3.809l-.974 2.766h-1.724l3.707-10.003h1.812l3.7 10.003h-1.737Zm-1.396-4.17-.947-2.726a108 108 0 0 1-.361-1.158l-.17-.572q-.069.279-.171.627-.096.34-.191.64-.09.3-.136.463l-.954 2.726zm7.458-3.516q1.343 0 2.153.981.818.98.818 2.917 0 1.281-.382 2.16-.375.872-1.056 1.321-.675.444-1.574.443a3 3 0 0 1-.995-.15 2.5 2.5 0 0 1-.722-.388 2.8 2.8 0 0 1-.504-.531h-.096q.035.272.062.606.034.327.034.6v3.073h-1.608v-10.889h1.308l.225 1.043h.075a3 3 0 0 1 .511-.593q.306-.273.736-.429a2.9 2.9 0 0 1 1.015-.164m-.43 1.308q-.66 0-1.062.266-.396.26-.58.784-.176.524-.19 1.315v.225q0 .837.17 1.424.177.579.58.885.408.3 1.103.3.586 0 .968-.32.388-.32.579-.913t.19-1.397q0-1.22-.435-1.894-.43-.675-1.322-.675Zm8.427-1.308q1.342 0 2.153.981.818.98.818 2.917 0 1.281-.382 2.16-.375.872-1.056 1.321-.675.444-1.574.443-.572 0-.995-.15a2.5 2.5 0 0 1-.722-.388 2.8 2.8 0 0 1-.504-.531h-.096q.034.272.062.606.034.327.034.6v3.073h-1.608v-10.889h1.308l.225 1.043h.075q.21-.32.51-.593a2.3 2.3 0 0 1 .737-.429 2.9 2.9 0 0 1 1.015-.164m-.43 1.308q-.66 0-1.062.266-.396.26-.58.784-.177.524-.19 1.315v.225q0 .837.17 1.424.177.579.58.885.408.3 1.103.3.585 0 .968-.32.388-.32.579-.913t.19-1.397q0-1.22-.436-1.894-.429-.675-1.321-.675Zm9.626 4.225q0 .742-.361 1.254-.361.51-1.056.776-.69.26-1.69.259a7 7 0 0 1-1.363-.115 4.7 4.7 0 0 1-1.07-.341v-1.383a7.7 7.7 0 0 0 1.206.436q.675.184 1.274.184.791 0 1.138-.246a.79.79 0 0 0 .348-.667.7.7 0 0 0-.143-.436q-.137-.198-.518-.402a10 10 0 0 0-1.104-.505 9 9 0 0 1-1.206-.572 2.1 2.1 0 0 1-.743-.688q-.252-.409-.252-1.043 0-1.002.79-1.519.798-.525 2.106-.525.695 0 1.308.143a6.2 6.2 0 0 1 1.213.402l-.504 1.206a8 8 0 0 0-1.029-.368q-.51-.15-1.042-.15-.621 0-.948.191a.6.6 0 0 0-.32.545.67.67 0 0 0 .157.45q.157.184.538.368.39.184 1.077.456.675.26 1.165.546.498.279.763.688.266.408.266 1.056"/>
  <rect width="19.096" height="19.096" x="29.627" y="172.362" fill="#fff" rx="4.407"/>
  <path fill="#17D4A7" d="M37.68 178.004a1.5 1.5 0 0 1 1.936-.355c.207.124.38.295.505.501a17.8 17.8 0 0 1 4.83-.763 7.326 7.326 0 0 0-11.286-.322c1.368.166 2.715.481 4.016.939Zm4.125 4.773h.075a.95.95 0 0 1 .55.171q1.857-1.583 3.295-4.251l.03-.053c-.14-.28-.209-.366-.383-.625h-.404a17.2 17.2 0 0 0-4.653.735q.003.045 0 .09c0 .339-.125.667-.352.919q.728 1.009 1.346 2.09.262.466.496.924m-2.362-2.65a1.5 1.5 0 0 1-1.693-.364c-1.85.937-3.786 2.423-5.097 4.779.892.339 1.826.555 2.776.641a.88.88 0 0 1 1.265-.349.9.9 0 0 1 .324.364h.079a9 9 0 0 0 3.918-1.237.83.83 0 0 1 .015-.634.9.9 0 0 1 .198-.285 22 22 0 0 0-1.785-2.915"/>
  <path fill="#17D4A7" d="M42.49 188.4c.157-1.253-.125-2.591-.6-3.86h-.01a.93.93 0 0 1-.46-.119 9.6 9.6 0 0 1-4.305 1.395h-.079a.88.88 0 0 1-.825.548.89.89 0 0 1-.815-.563 10.7 10.7 0 0 1-2.79-.614 7.34 7.34 0 0 0 4.256 3.693 7.35 7.35 0 0 0 5.618-.412zm3.573-9.032a15 15 0 0 1-3.289 4.082q.028.104.028.211a.88.88 0 0 1-.316.668c.512 1.367.734 2.626.663 3.766a7.34 7.34 0 0 0 2.914-8.727m-8.621-.158a1.3 1.3 0 0 1-.026-.627 18.6 18.6 0 0 0-4.214-.937 7.34 7.34 0 0 0-1.034 6.475c1.19-2.082 2.977-3.748 5.274-4.911"/>
  <path fill="#fff" d="M59.927 181.952h3.72v5.001q-.783.26-1.621.402a11.3 11.3 0 0 1-1.88.143q-1.52 0-2.576-.6-1.05-.606-1.595-1.751-.545-1.151-.545-2.773 0-1.56.607-2.705a4.2 4.2 0 0 1 1.764-1.779q1.159-.633 2.808-.633.81 0 1.567.163.763.157 1.397.436l-.573 1.35a6.5 6.5 0 0 0-1.13-.402 5 5 0 0 0-1.302-.164q-1.07 0-1.847.463a3.07 3.07 0 0 0-1.185 1.309q-.416.837-.416 1.982 0 1.111.334 1.949t1.042 1.308q.716.464 1.847.464.566 0 .96-.062.396-.06.73-.136v-2.569h-2.106zm6.852 5.41h-1.608v-10.603h1.608zm8.27-3.789q0 .94-.246 1.67a3.3 3.3 0 0 1-.715 1.233q-.47.498-1.131.763-.66.26-1.492.259a3.8 3.8 0 0 1-1.425-.259 3.2 3.2 0 0 1-1.124-.763 3.5 3.5 0 0 1-.729-1.233q-.258-.73-.259-1.67 0-1.246.43-2.112a3.06 3.06 0 0 1 1.24-1.329q.804-.456 1.914-.456 1.042 0 1.84.456.797.457 1.247 1.329t.45 2.112m-5.472 0q0 .825.198 1.411.204.585.627.899.422.307 1.09.307.667 0 1.09-.307.422-.314.62-.899.198-.586.198-1.411 0-.824-.198-1.397-.197-.579-.62-.879-.423-.306-1.097-.306-.995 0-1.451.668t-.457 1.914m8.215-6.814v2.556q0 .443-.027.872-.021.422-.041.661h.068q.306-.49.852-.825.552-.34 1.41-.34 1.343 0 2.16.988.818.981.818 2.909 0 1.281-.375 2.153t-1.056 1.322q-.675.443-1.588.443-.858 0-1.39-.313a2.75 2.75 0 0 1-.824-.743h-.116l-.293.92h-1.2v-10.603zm1.84 4.225q-.682 0-1.084.273-.395.272-.572.817-.178.539-.184 1.37v.143q0 1.26.395 1.928.402.668 1.458.668.838 0 1.288-.675.45-.68.45-1.948 0-1.281-.45-1.929-.443-.647-1.301-.647m7.513-1.308q1.431 0 2.16.633.735.635.735 1.976v5.077h-1.137l-.307-1.07h-.055a4 4 0 0 1-.66.675 2.3 2.3 0 0 1-.79.395q-.444.136-1.084.136-.675 0-1.206-.245a1.9 1.9 0 0 1-.838-.763q-.307-.512-.307-1.295 0-1.166.865-1.751.873-.587 2.63-.648l1.309-.047v-.395q0-.784-.368-1.118-.362-.334-1.022-.334a3.7 3.7 0 0 0-1.097.164q-.532.163-1.036.402l-.518-1.131a5.7 5.7 0 0 1 1.254-.477 5.8 5.8 0 0 1 1.472-.184m1.308 4.081-.975.034q-1.199.042-1.682.409-.484.368-.484 1.009 0 .559.334.817.333.252.879.252.831 0 1.376-.47.552-.476.552-1.397zm4.74 3.605h-1.608v-10.603h1.608zm5.462-7.686q1.341 0 2.153.981.817.981.817 2.916 0 1.281-.381 2.16-.375.873-1.056 1.322-.675.443-1.574.443-.573 0-.995-.15a2.5 2.5 0 0 1-.722-.388 2.8 2.8 0 0 1-.505-.532h-.095q.034.273.061.607.034.327.034.599v3.073h-1.608v-10.888h1.309l.224 1.042h.075q.212-.32.511-.592.307-.273.736-.43.437-.163 1.016-.163m-.43 1.308q-.66 0-1.063.266-.395.259-.579.783-.177.525-.19 1.315v.225q0 .839.17 1.424.176.58.579.886.409.3 1.104.3.585 0 .967-.32.389-.32.58-.913t.19-1.397q0-1.22-.436-1.894-.43-.675-1.322-.675m6.157-1.165v7.543h-1.601v-7.543zm-.79-2.889q.367 0 .634.197.272.198.272.682 0 .477-.272.681a1.03 1.03 0 0 1-.634.198q-.381 0-.647-.198-.26-.204-.259-.681 0-.484.259-.682.266-.197.647-.197m6.32 2.746q1.275 0 1.983.661.716.654.716 2.105v4.92h-1.601v-4.62q0-.879-.362-1.315-.36-.443-1.117-.443-1.097 0-1.526.675-.423.674-.423 1.955v3.748h-1.601v-7.543h1.247l.225 1.022h.088q.246-.396.607-.647a2.7 2.7 0 0 1 .817-.389 3.5 3.5 0 0 1 .947-.129m6.396 11.038q-1.533 0-2.351-.552-.817-.552-.817-1.546 0-.696.436-1.179.435-.478 1.247-.661a1.4 1.4 0 0 1-.532-.423 1.06 1.06 0 0 1-.218-.647q0-.422.239-.722.238-.3.715-.579a2.1 2.1 0 0 1-.954-.818q-.354-.573-.354-1.342 0-.819.347-1.39.348-.58 1.015-.879.669-.307 1.615-.307.205 0 .443.027.246.02.45.055.212.027.32.061h2.61v.893l-1.281.238a2.24 2.24 0 0 1 .402 1.308q0 1.172-.811 1.847-.804.668-2.221.668a8 8 0 0 1-.661-.055q-.246.15-.375.334a.67.67 0 0 0-.129.402q0 .185.129.3a.9.9 0 0 0 .382.163q.258.055.627.055h1.301q1.24 0 1.894.525.654.524.654 1.54 0 1.287-1.063 1.982-1.062.702-3.059.702m.061-1.124q.838 0 1.411-.164.572-.163.865-.47a1 1 0 0 0 .293-.715q0-.369-.184-.566-.183-.197-.552-.272a4.7 4.7 0 0 0-.913-.075h-1.185q-.444 0-.784.136a1.2 1.2 0 0 0-.531.409q-.184.265-.184.64 0 .518.456.798.463.279 1.308.279m.314-5.874q.702 0 1.042-.381.34-.389.341-1.09 0-.764-.354-1.145-.348-.382-1.036-.382-.675 0-1.029.389-.347.388-.347 1.151 0 .689.347 1.077.354.381 1.036.381"/>
  <rect width="19.096" height="19.096" x="29.627" y="198.802" fill="#4F2851" rx="3.672"/>
  <path stroke="#BBADBC" stroke-width="2.203" d="M43.949 208.717h-9.548m9.548 0h-9.548m9.548 0h-9.548m4.774-5.141v9.548m0-9.548v9.548m0-9.548v9.548"/>
  <path fill="#BBADBC" d="m62.08 213.802-.974-2.766h-3.809l-.974 2.766h-1.724l3.707-10.002h1.812l3.7 10.002h-1.737Zm-1.396-4.17-.947-2.725a108 108 0 0 1-.361-1.159l-.17-.572q-.069.279-.171.627a19 19 0 0 1-.191.64q-.09.3-.136.464l-.954 2.725zm6.123 4.307q-1.35 0-2.167-.982-.81-.987-.811-2.909 0-1.942.824-2.937.832-.995 2.188-.995.572 0 1.001.157.43.15.736.409.314.259.532.579h.075a16 16 0 0 1-.082-.606 7 7 0 0 1-.041-.743V203.2h1.608v10.602h-1.254l-.286-1.029h-.068a2.4 2.4 0 0 1-1.254 1.009 2.9 2.9 0 0 1-1.001.157m.45-1.302q1.028 0 1.45-.593.423-.593.437-1.778v-.211q0-1.267-.41-1.942-.408-.682-1.491-.682-.866 0-1.322.702-.45.696-.45 1.942c0 1.246.15 1.467.45 1.908q.457.654 1.335.654Zm7.546 1.302q-1.35 0-2.166-.982-.811-.987-.811-2.909 0-1.942.824-2.937.831-.995 2.187-.995.573 0 1.002.157.43.15.736.409.314.259.531.579h.075a17 17 0 0 1-.081-.606 7 7 0 0 1-.041-.743V203.2h1.608v10.602h-1.254l-.286-1.029h-.068a2.4 2.4 0 0 1-1.254 1.009 2.9 2.9 0 0 1-1.002.157m.45-1.302q1.03 0 1.451-.593t.437-1.778v-.211q0-1.267-.41-1.942-.408-.682-1.492-.682-.865 0-1.321.702-.45.696-.45 1.942c0 1.246.15 1.467.45 1.908q.457.654 1.335.654m10.897-6.521q1.431 0 2.16.634.735.633.736 1.976v5.076h-1.138l-.307-1.069h-.054a4 4 0 0 1-.661.674 2.3 2.3 0 0 1-.79.395 3.7 3.7 0 0 1-1.084.137 2.8 2.8 0 0 1-1.206-.246 1.9 1.9 0 0 1-.838-.763q-.307-.511-.307-1.294 0-1.165.865-1.752.873-.585 2.63-.647l1.309-.048v-.395q0-.784-.368-1.117-.36-.334-1.022-.334a3.7 3.7 0 0 0-1.097.163 8 8 0 0 0-1.036.402l-.518-1.131a5.8 5.8 0 0 1 1.254-.477 6 6 0 0 1 1.472-.184m1.308 4.082-.974.034q-1.2.04-1.683.409-.484.368-.484 1.008 0 .559.334.818.333.252.879.252.831 0 1.376-.47.552-.477.552-1.397zm7.002-4.082q1.343 0 2.153.982.818.981.818 2.916 0 1.281-.382 2.16-.375.872-1.056 1.322-.674.443-1.574.443-.573 0-.995-.15t-.722-.389a2.7 2.7 0 0 1-.504-.531h-.096q.035.273.062.606.034.327.034.6v3.073H90.59v-10.889h1.308l.225 1.043h.075a3 3 0 0 1 .51-.593 2.3 2.3 0 0 1 .737-.429 2.9 2.9 0 0 1 1.015-.164m-.43 1.309q-.66 0-1.062.265-.396.26-.58.784-.177.525-.19 1.315v.225q0 .838.17 1.424.177.579.58.886.408.3 1.103.3.585 0 .968-.321.389-.32.579-.913t.19-1.397q0-1.22-.435-1.894-.43-.674-1.322-.674Zm8.427-1.309q1.342 0 2.153.982.818.981.818 2.916 0 1.281-.382 2.16-.375.872-1.056 1.322-.675.443-1.574.443-.572 0-.995-.15-.422-.15-.722-.389a2.7 2.7 0 0 1-.504-.531h-.096q.034.273.061.606.035.327.035.6v3.073h-1.608v-10.889h1.308l.225 1.043h.075a3 3 0 0 1 .511-.593 2.2 2.2 0 0 1 .735-.429 2.9 2.9 0 0 1 1.016-.164m-.43 1.309q-.66 0-1.062.265-.396.26-.58.784-.177.525-.19 1.315v.225q0 .838.17 1.424.177.579.579.886.41.3 1.104.3.586 0 .968-.321.387-.32.579-.913.19-.593.19-1.397 0-1.22-.436-1.894-.428-.674-1.322-.674m9.626 4.224q0 .743-.361 1.254-.361.512-1.057.777-.688.258-1.689.259-.791 0-1.363-.116a4.7 4.7 0 0 1-1.07-.341v-1.383q.538.252 1.206.436.675.184 1.274.184.791 0 1.138-.245a.79.79 0 0 0 .348-.668.7.7 0 0 0-.143-.436q-.137-.198-.518-.402a10 10 0 0 0-1.104-.504 9 9 0 0 1-1.206-.573 2.1 2.1 0 0 1-.743-.688q-.252-.409-.252-1.043 0-1.001.79-1.519.798-.525 2.106-.525.695 0 1.308.143a6.2 6.2 0 0 1 1.213.402l-.504 1.206a8 8 0 0 0-1.029-.367q-.511-.15-1.043-.15-.62 0-.947.19a.6.6 0 0 0-.32.546q0 .266.157.449.157.185.538.368.389.184 1.077.457.674.258 1.165.545.497.279.763.688.266.41.266 1.056"/>
  <path stroke="#BBADBC" stroke-miterlimit="10" stroke-width="1.469" d="M42.419 245.257c4.556-1.628 3.658-6.753 3.658-6.753s-5.127-.895-6.753 3.658l-3.214.041-2.482 2.482s2.112 0 4.187 2.077 2.078 4.187 2.078 4.187l2.483-2.482zm-7.129 1.497s-2.543 1.579-1.822 4.362c2.783.721 4.363-1.821 4.363-1.821"/>
  <circle cx="43.199" cy="241.72" r=".671" fill="#BBADBC"/>
  <path fill="#BBADBC" d="M63.73 240.612v6.446q0 1.042-.443 1.867-.437.824-1.322 1.308-.886.477-2.229.477-1.914 0-2.916-1.002-.995-1.008-.995-2.678v-6.418h1.636v6.275q0 1.248.586 1.84.585.593 1.75.593.805 0 1.31-.28.51-.285.749-.831.245-.552.245-1.329v-6.268zm5.557 2.276q1.342 0 2.153.981.818.981.818 2.916 0 1.281-.382 2.16-.375.872-1.056 1.322-.675.443-1.574.443-.572 0-.995-.15a2.5 2.5 0 0 1-.722-.388 2.8 2.8 0 0 1-.504-.532h-.096q.034.273.062.607.034.327.034.599v3.073h-1.608v-10.888h1.308l.225 1.042h.075q.21-.32.51-.593.307-.272.737-.429.436-.163 1.015-.163m-.43 1.308q-.66 0-1.062.266-.396.258-.58.783-.177.525-.19 1.315v.225q0 .839.17 1.424.177.58.58.886.408.3 1.103.3.585 0 .968-.32.388-.32.579-.914.19-.592.19-1.396 0-1.22-.435-1.895-.43-.674-1.322-.674Zm6.71 9.73q-1.534 0-2.351-.552-.818-.552-.818-1.547 0-.695.436-1.178.435-.478 1.247-.661a1.4 1.4 0 0 1-.531-.423 1.06 1.06 0 0 1-.218-.647q0-.423.238-.722.239-.3.716-.58a2.1 2.1 0 0 1-.954-.817q-.355-.573-.355-1.343 0-.817.348-1.39.347-.579 1.015-.879.667-.306 1.615-.306.204 0 .443.027.245.02.45.055.21.027.32.061h2.61v.892l-1.282.239a2.25 2.25 0 0 1 .402 1.308q0 1.172-.81 1.847-.804.668-2.222.668a8 8 0 0 1-.66-.055q-.247.15-.375.334a.66.66 0 0 0-.13.402q0 .184.13.3a.9.9 0 0 0 .381.163q.26.055.627.055h1.302q1.24 0 1.894.524.654.525.654 1.54 0 1.289-1.063 1.983-1.064.702-3.06.702Zm.06-1.124q.84 0 1.411-.164.573-.164.866-.47a1 1 0 0 0 .293-.715q0-.369-.184-.566-.184-.198-.552-.273a5 5 0 0 0-.913-.074h-1.186q-.442 0-.783.136a1.2 1.2 0 0 0-.532.409q-.184.265-.184.64 0 .518.457.797.464.28 1.308.28Zm.314-5.874q.702 0 1.043-.381.34-.389.34-1.091 0-.763-.354-1.144-.347-.382-1.035-.382-.675 0-1.03.388-.347.388-.347 1.152 0 .689.348 1.077.354.381 1.035.381m8.338-4.04a4.5 4.5 0 0 1 .804.075l-.15 1.499a2 2 0 0 0-.355-.062 4 4 0 0 0-.367-.02q-.43 0-.818.143a1.94 1.94 0 0 0-1.158 1.124q-.17.423-.17.981v3.946h-1.609v-7.543h1.254l.218 1.328h.075a3.4 3.4 0 0 1 .559-.736 2.6 2.6 0 0 1 .763-.531q.435-.204.954-.204m4.46 0q1.431 0 2.16.633.735.634.736 1.976v5.077h-1.138l-.307-1.07h-.054a4 4 0 0 1-.661.674q-.34.266-.79.396-.444.135-1.084.136-.675 0-1.206-.245a1.9 1.9 0 0 1-.838-.764q-.306-.51-.307-1.294 0-1.166.866-1.751.872-.586 2.63-.648l1.308-.047v-.396q0-.783-.368-1.117-.36-.334-1.022-.334a3.7 3.7 0 0 0-1.097.164q-.532.164-1.036.402l-.518-1.131a5.7 5.7 0 0 1 1.254-.477 5.8 5.8 0 0 1 1.472-.184m1.308 4.081-.974.034q-1.2.041-1.683.409t-.484 1.008q0 .559.334.818.335.252.879.252.831 0 1.376-.47.552-.477.552-1.397zm5.667 3.741q-1.35 0-2.167-.981-.81-.989-.81-2.91 0-1.941.824-2.937.831-.994 2.187-.994.572 0 1.001.156.43.15.736.409a2.8 2.8 0 0 1 .532.579h.075a16 16 0 0 1-.082-.606 7 7 0 0 1-.04-.743v-2.712h1.607v10.603h-1.254l-.286-1.029h-.068a2.4 2.4 0 0 1-1.254 1.008 2.9 2.9 0 0 1-1.001.157m.45-1.302q1.029 0 1.45-.592.423-.593.437-1.779v-.211q0-1.267-.409-1.942-.409-.681-1.492-.681-.866 0-1.322.701-.45.696-.45 1.942 0 1.248.45 1.908.457.654 1.335.654Zm8.017-6.52q1.008 0 1.73.415.723.416 1.111 1.179c.388.763.388 1.117.388 1.826v.859h-5.035q.027 1.096.586 1.69.565.592 1.581.592.722 0 1.294-.136a7 7 0 0 0 1.193-.416v1.302a5.2 5.2 0 0 1-1.152.388q-.585.123-1.403.123-1.111 0-1.956-.429a3.14 3.14 0 0 1-1.315-1.295q-.47-.858-.47-2.133 0-1.267.429-2.153.429-.885 1.206-1.349t1.813-.463m0 1.206q-.757 0-1.227.49-.463.491-.545 1.438h3.434a2.6 2.6 0 0 0-.191-1.002 1.45 1.45 0 0 0-.545-.681q-.36-.245-.926-.245"/>
  <rect width="225.449" height="23.472" x="27.439" y="169.925" stroke="#17D4A7" stroke-width="1.5" rx="6.595"/>
  <defs>
    <clipPath id="a">
      <rect width="14.689" height="14.689" x="29.627" y="29.627" fill="#fff" rx="4.407"/>
    </clipPath>
    <clipPath id="b">
      <rect width="19.096" height="19.096" x="29.627" y="82.757" fill="#fff" rx="4.407"/>
    </clipPath>
    <filter id="c" width="10.283" height="10.283" x="42.113" y="90.588" color-interpolation-filters="sRGB" filterUnits="userSpaceOnUse">
      <feFlood flood-opacity="0" result="BackgroundImageFix"/>
      <feColorMatrix in="SourceAlpha" result="hardAlpha" values="0 0 0 0 0 0 0 0 0 0 0 0 0 0 0 0 0 0 127 0"/>
      <feMorphology in="SourceAlpha" operator="dilate" radius="1.469" result="effect1_dropShadow_4352_15230"/>
      <feOffset/>
      <feComposite in2="hardAlpha" operator="out"/>
      <feColorMatrix values="0 0 0 0 0.231373 0 0 0 0 0.0627451 0 0 0 0 0.239216 0 0 0 1 0"/>
      <feBlend in2="BackgroundImageFix" result="effect1_dropShadow_4352_15230"/>
      <feBlend in="SourceGraphic" in2="effect1_dropShadow_4352_15230" result="shape"/>
    </filter>
  </defs>
</svg>
