<svg xmlns="http://www.w3.org/2000/svg" xmlns:xlink="http://www.w3.org/1999/xlink" width="72" height="48" viewBox="0 0 72 48">
  <defs>
    <rect id="cn-a" width="72" height="48" x="0" y="0" rx="8"/>
  </defs>
  <g fill="none" fill-rule="evenodd">
    <mask id="cn-b" fill="#fff">
      <use xlink:href="#cn-a"/>
    </mask>
    <use fill="#FFF" xlink:href="#cn-a"/>
    <rect width="72" height="48" fill="#F1361D" mask="url(#cn-b)" rx="8"/>
    <path fill="#FFDC42" d="M29.7815427,24.3931983 L28.9593691,24.4882608 L30.3245151,21.6100985 L29.9853781,18.4184616 L32.7445156,19.8424978 L35.8041642,19.488731 L34.4390182,22.3668933 L34.7781552,25.5585302 L32.0190177,24.134494 L29.9126327,24.3780413 L29.9480631,27.5148233 L31.6392878,30.1979858 L28.5611149,30.2358186 L25.988913,32 L25.9526448,28.7890397 L24.2614201,26.1058772 L27.3395929,26.0680444 L29.7815427,24.3931983 Z M29.1774698,12.1150847 L27.0346018,10.0793311 L24,9.53965923 L26.0727839,7.16550966 L26.590138,4 L28.866106,6.16220048 L31.9007078,6.70187234 L29.8279239,9.07602191 L29.3306317,12.11878 L31.8410968,12.179349 L34.4707546,10.5098833 L34.3995741,13.7202079 L36,16.463305 L32.9224365,16.3890538 L30.2927787,18.0585195 L30.3639592,14.8481949 L28.7635333,12.1050978 L29.1774698,12.1150847 Z" mask="url(#cn-b)"/>
    <polygon fill="#FFDC42" points="16 19.627 11.298 22.472 12.55 17.121 8.392 13.528 13.868 13.065 16 8 18.132 13.065 23.608 13.528 19.45 17.121 20.702 22.472" mask="url(#cn-b)"/>
  </g>
</svg>
