<svg xmlns="http://www.w3.org/2000/svg" xmlns:xlink="http://www.w3.org/1999/xlink" width="72" height="48">
  <defs>
    <rect id="a" width="72" height="48" x="0" y="0" rx="8"/>
  </defs>
  <g fill="none" fill-rule="evenodd">
    <mask id="b" fill="#fff">
      <use xlink:href="#a"/>
    </mask>
    <use fill="#FFF" xlink:href="#a"/>
    <rect width="72" height="48" fill="#F1361D" mask="url(#b)" rx="8"/>
    <path fill="#FFDC42" d="M29.782 24.393l-.823.095 1.366-2.878-.34-3.192 2.76 1.424 3.06-.353-1.366 2.878.34 3.192-2.76-1.425-2.106.244.035 3.137 1.691 2.683-3.078.038L25.99 32l-.036-3.211-1.692-2.683 3.079-.038 2.442-1.675zm-.605-12.278l-2.142-2.036L24 9.54l2.073-2.373L26.59 4l2.276 2.162 3.035.54-2.073 2.374-.497 3.043 2.51.06 2.63-1.67-.071 3.211 1.6 2.743-3.078-.074-2.63 1.67.072-3.21-1.6-2.744.413.01zM16 19.627l-4.702 2.845 1.252-5.351-4.158-3.593 5.476-.463L16 8l2.132 5.065 5.476.463-4.158 3.593 1.252 5.351z" mask="url(#b)"/>
  </g>
</svg>
